<?xml version="1.0" encoding="utf-8"?>
<svg xmlns="http://www.w3.org/2000/svg" xmlns:xlink="http://www.w3.org/1999/xlink" width="600" height="400" viewBox="0 0 2400 1600">
<defs>
  <clipPath id="clip110">
    <rect x="0" y="0" width="2400" height="1600"/>
  </clipPath>
</defs>
<path clip-path="url(#clip110)" d="
M0 1600 L2400 1600 L2400 0 L0 0  Z
  " fill="#ffffff" fill-rule="evenodd" fill-opacity="1"/>
<defs>
  <clipPath id="clip111">
    <rect x="480" y="0" width="1681" height="1600"/>
  </clipPath>
</defs>
<path clip-path="url(#clip110)" d="
M277.621 1410.9 L2352.76 1410.9 L2352.76 47.2441 L277.621 47.2441  Z
  " fill="#ffffff" fill-rule="evenodd" fill-opacity="1"/>
<defs>
  <clipPath id="clip112">
    <rect x="277" y="47" width="2076" height="1365"/>
  </clipPath>
</defs>
<polyline clip-path="url(#clip112)" style="stroke:#000000; stroke-linecap:round; stroke-linejoin:round; stroke-width:2; stroke-opacity:0.1; fill:none" points="
  748.493,1410.9 748.493,47.2441 
  "/>
<polyline clip-path="url(#clip112)" style="stroke:#000000; stroke-linecap:round; stroke-linejoin:round; stroke-width:2; stroke-opacity:0.1; fill:none" points="
  1263.67,1410.9 1263.67,47.2441 
  "/>
<polyline clip-path="url(#clip112)" style="stroke:#000000; stroke-linecap:round; stroke-linejoin:round; stroke-width:2; stroke-opacity:0.1; fill:none" points="
  1778.85,1410.9 1778.85,47.2441 
  "/>
<polyline clip-path="url(#clip112)" style="stroke:#000000; stroke-linecap:round; stroke-linejoin:round; stroke-width:2; stroke-opacity:0.1; fill:none" points="
  2294.03,1410.9 2294.03,47.2441 
  "/>
<polyline clip-path="url(#clip110)" style="stroke:#000000; stroke-linecap:round; stroke-linejoin:round; stroke-width:4; stroke-opacity:1; fill:none" points="
  277.621,1410.9 2352.76,1410.9 
  "/>
<polyline clip-path="url(#clip110)" style="stroke:#000000; stroke-linecap:round; stroke-linejoin:round; stroke-width:4; stroke-opacity:1; fill:none" points="
  748.493,1410.9 748.493,1392 
  "/>
<polyline clip-path="url(#clip110)" style="stroke:#000000; stroke-linecap:round; stroke-linejoin:round; stroke-width:4; stroke-opacity:1; fill:none" points="
  1263.67,1410.9 1263.67,1392 
  "/>
<polyline clip-path="url(#clip110)" style="stroke:#000000; stroke-linecap:round; stroke-linejoin:round; stroke-width:4; stroke-opacity:1; fill:none" points="
  1778.85,1410.9 1778.85,1392 
  "/>
<polyline clip-path="url(#clip110)" style="stroke:#000000; stroke-linecap:round; stroke-linejoin:round; stroke-width:4; stroke-opacity:1; fill:none" points="
  2294.03,1410.9 2294.03,1392 
  "/>
<path clip-path="url(#clip110)" d="M641.469 1454.4 L659.826 1454.4 L659.826 1458.33 L645.752 1458.33 L645.752 1466.8 Q646.77 1466.46 647.789 1466.29 Q648.807 1466.11 649.826 1466.11 Q655.613 1466.11 658.993 1469.28 Q662.372 1472.45 662.372 1477.87 Q662.372 1483.45 658.9 1486.55 Q655.428 1489.63 649.108 1489.63 Q646.932 1489.63 644.664 1489.26 Q642.419 1488.89 640.011 1488.15 L640.011 1483.45 Q642.094 1484.58 644.317 1485.14 Q646.539 1485.69 649.016 1485.69 Q653.02 1485.69 655.358 1483.59 Q657.696 1481.48 657.696 1477.87 Q657.696 1474.26 655.358 1472.15 Q653.02 1470.04 649.016 1470.04 Q647.141 1470.04 645.266 1470.46 Q643.414 1470.88 641.469 1471.76 L641.469 1454.4 Z" fill="#000000" fill-rule="evenodd" fill-opacity="1" /><path clip-path="url(#clip110)" d="M671.585 1483.08 L676.469 1483.08 L676.469 1488.96 L671.585 1488.96 L671.585 1483.08 Z" fill="#000000" fill-rule="evenodd" fill-opacity="1" /><path clip-path="url(#clip110)" d="M696.654 1457.48 Q693.043 1457.48 691.215 1461.04 Q689.409 1464.58 689.409 1471.71 Q689.409 1478.82 691.215 1482.38 Q693.043 1485.92 696.654 1485.92 Q700.289 1485.92 702.094 1482.38 Q703.923 1478.82 703.923 1471.71 Q703.923 1464.58 702.094 1461.04 Q700.289 1457.48 696.654 1457.48 M696.654 1453.77 Q702.465 1453.77 705.52 1458.38 Q708.599 1462.96 708.599 1471.71 Q708.599 1480.44 705.52 1485.04 Q702.465 1489.63 696.654 1489.63 Q690.844 1489.63 687.766 1485.04 Q684.71 1480.44 684.71 1471.71 Q684.71 1462.96 687.766 1458.38 Q690.844 1453.77 696.654 1453.77 Z" fill="#000000" fill-rule="evenodd" fill-opacity="1" /><path clip-path="url(#clip110)" d="M726.816 1457.48 Q723.205 1457.48 721.376 1461.04 Q719.571 1464.58 719.571 1471.71 Q719.571 1478.82 721.376 1482.38 Q723.205 1485.92 726.816 1485.92 Q730.45 1485.92 732.256 1482.38 Q734.085 1478.82 734.085 1471.71 Q734.085 1464.58 732.256 1461.04 Q730.45 1457.48 726.816 1457.48 M726.816 1453.77 Q732.626 1453.77 735.682 1458.38 Q738.761 1462.96 738.761 1471.71 Q738.761 1480.44 735.682 1485.04 Q732.626 1489.63 726.816 1489.63 Q721.006 1489.63 717.927 1485.04 Q714.872 1480.44 714.872 1471.71 Q714.872 1462.96 717.927 1458.38 Q721.006 1453.77 726.816 1453.77 Z" fill="#000000" fill-rule="evenodd" fill-opacity="1" /><path clip-path="url(#clip110)" d="M775.149 1463.49 L764.571 1474.12 L775.149 1484.7 L772.395 1487.5 L761.77 1476.87 L751.145 1487.5 L748.413 1484.7 L758.969 1474.12 L748.413 1463.49 L751.145 1460.69 L761.77 1471.32 L772.395 1460.69 L775.149 1463.49 Z" fill="#000000" fill-rule="evenodd" fill-opacity="1" /><path clip-path="url(#clip110)" d="M787.51 1485.02 L795.149 1485.02 L795.149 1458.66 L786.839 1460.32 L786.839 1456.06 L795.103 1454.4 L799.779 1454.4 L799.779 1485.02 L807.418 1485.02 L807.418 1488.96 L787.51 1488.96 L787.51 1485.02 Z" fill="#000000" fill-rule="evenodd" fill-opacity="1" /><path clip-path="url(#clip110)" d="M826.862 1457.48 Q823.251 1457.48 821.422 1461.04 Q819.617 1464.58 819.617 1471.71 Q819.617 1478.82 821.422 1482.38 Q823.251 1485.92 826.862 1485.92 Q830.496 1485.92 832.302 1482.38 Q834.13 1478.82 834.13 1471.71 Q834.13 1464.58 832.302 1461.04 Q830.496 1457.48 826.862 1457.48 M826.862 1453.77 Q832.672 1453.77 835.728 1458.38 Q838.806 1462.96 838.806 1471.71 Q838.806 1480.44 835.728 1485.04 Q832.672 1489.63 826.862 1489.63 Q821.052 1489.63 817.973 1485.04 Q814.918 1480.44 814.918 1471.71 Q814.918 1462.96 817.973 1458.38 Q821.052 1453.77 826.862 1453.77 Z" fill="#000000" fill-rule="evenodd" fill-opacity="1" /><path clip-path="url(#clip110)" d="M839.991 1433.47 L854.906 1433.47 L854.906 1436.66 L843.471 1436.66 L843.471 1443.55 Q844.298 1443.27 845.126 1443.13 Q845.953 1442.98 846.781 1442.98 Q851.483 1442.98 854.229 1445.56 Q856.975 1448.14 856.975 1452.54 Q856.975 1457.07 854.154 1459.59 Q851.332 1462.09 846.198 1462.09 Q844.43 1462.09 842.587 1461.79 Q840.762 1461.49 838.806 1460.89 L838.806 1457.07 Q840.499 1457.99 842.305 1458.44 Q844.11 1458.89 846.123 1458.89 Q849.376 1458.89 851.276 1457.18 Q853.175 1455.47 853.175 1452.54 Q853.175 1449.6 851.276 1447.89 Q849.376 1446.18 846.123 1446.18 Q844.599 1446.18 843.076 1446.52 Q841.571 1446.86 839.991 1447.57 L839.991 1433.47 Z" fill="#000000" fill-rule="evenodd" fill-opacity="1" /><path clip-path="url(#clip110)" d="M1156.02 1485.02 L1163.66 1485.02 L1163.66 1458.66 L1155.35 1460.32 L1155.35 1456.06 L1163.62 1454.4 L1168.29 1454.4 L1168.29 1485.02 L1175.93 1485.02 L1175.93 1488.96 L1156.02 1488.96 L1156.02 1485.02 Z" fill="#000000" fill-rule="evenodd" fill-opacity="1" /><path clip-path="url(#clip110)" d="M1185.38 1483.08 L1190.26 1483.08 L1190.26 1488.96 L1185.38 1488.96 L1185.38 1483.08 Z" fill="#000000" fill-rule="evenodd" fill-opacity="1" /><path clip-path="url(#clip110)" d="M1210.45 1457.48 Q1206.83 1457.48 1205.01 1461.04 Q1203.2 1464.58 1203.2 1471.71 Q1203.2 1478.82 1205.01 1482.38 Q1206.83 1485.92 1210.45 1485.92 Q1214.08 1485.92 1215.89 1482.38 Q1217.71 1478.82 1217.71 1471.71 Q1217.71 1464.58 1215.89 1461.04 Q1214.08 1457.48 1210.45 1457.48 M1210.45 1453.77 Q1216.26 1453.77 1219.31 1458.38 Q1222.39 1462.96 1222.39 1471.71 Q1222.39 1480.44 1219.31 1485.04 Q1216.26 1489.63 1210.45 1489.63 Q1204.64 1489.63 1201.56 1485.04 Q1198.5 1480.44 1198.5 1471.71 Q1198.5 1462.96 1201.56 1458.38 Q1204.64 1453.77 1210.45 1453.77 Z" fill="#000000" fill-rule="evenodd" fill-opacity="1" /><path clip-path="url(#clip110)" d="M1240.61 1457.48 Q1237 1457.48 1235.17 1461.04 Q1233.36 1464.58 1233.36 1471.71 Q1233.36 1478.82 1235.17 1482.38 Q1237 1485.92 1240.61 1485.92 Q1244.24 1485.92 1246.05 1482.38 Q1247.88 1478.82 1247.88 1471.71 Q1247.88 1464.58 1246.05 1461.04 Q1244.24 1457.48 1240.61 1457.48 M1240.61 1453.77 Q1246.42 1453.77 1249.47 1458.38 Q1252.55 1462.96 1252.55 1471.71 Q1252.55 1480.44 1249.47 1485.04 Q1246.42 1489.63 1240.61 1489.63 Q1234.8 1489.63 1231.72 1485.04 Q1228.66 1480.44 1228.66 1471.71 Q1228.66 1462.96 1231.72 1458.38 Q1234.8 1453.77 1240.61 1453.77 Z" fill="#000000" fill-rule="evenodd" fill-opacity="1" /><path clip-path="url(#clip110)" d="M1288.94 1463.49 L1278.36 1474.12 L1288.94 1484.7 L1286.19 1487.5 L1275.56 1476.87 L1264.94 1487.5 L1262.2 1484.7 L1272.76 1474.12 L1262.2 1463.49 L1264.94 1460.69 L1275.56 1471.32 L1286.19 1460.69 L1288.94 1463.49 Z" fill="#000000" fill-rule="evenodd" fill-opacity="1" /><path clip-path="url(#clip110)" d="M1301.3 1485.02 L1308.94 1485.02 L1308.94 1458.66 L1300.63 1460.32 L1300.63 1456.06 L1308.89 1454.4 L1313.57 1454.4 L1313.57 1485.02 L1321.21 1485.02 L1321.21 1488.96 L1301.3 1488.96 L1301.3 1485.02 Z" fill="#000000" fill-rule="evenodd" fill-opacity="1" /><path clip-path="url(#clip110)" d="M1340.65 1457.48 Q1337.04 1457.48 1335.21 1461.04 Q1333.41 1464.58 1333.41 1471.71 Q1333.41 1478.82 1335.21 1482.38 Q1337.04 1485.92 1340.65 1485.92 Q1344.29 1485.92 1346.09 1482.38 Q1347.92 1478.82 1347.92 1471.71 Q1347.92 1464.58 1346.09 1461.04 Q1344.29 1457.48 1340.65 1457.48 M1340.65 1453.77 Q1346.46 1453.77 1349.52 1458.38 Q1352.6 1462.96 1352.6 1471.71 Q1352.6 1480.44 1349.52 1485.04 Q1346.46 1489.63 1340.65 1489.63 Q1334.84 1489.63 1331.76 1485.04 Q1328.71 1480.44 1328.71 1471.71 Q1328.71 1462.96 1331.76 1458.38 Q1334.84 1453.77 1340.65 1453.77 Z" fill="#000000" fill-rule="evenodd" fill-opacity="1" /><path clip-path="url(#clip110)" d="M1362.62 1445.99 Q1360.06 1445.99 1358.56 1447.74 Q1357.07 1449.49 1357.07 1452.54 Q1357.07 1455.57 1358.56 1457.33 Q1360.06 1459.08 1362.62 1459.08 Q1365.18 1459.08 1366.67 1457.33 Q1368.17 1455.57 1368.17 1452.54 Q1368.17 1449.49 1366.67 1447.74 Q1365.18 1445.99 1362.62 1445.99 M1370.16 1434.09 L1370.16 1437.55 Q1368.73 1436.87 1367.27 1436.51 Q1365.82 1436.16 1364.39 1436.16 Q1360.63 1436.16 1358.63 1438.69 Q1356.66 1441.23 1356.38 1446.37 Q1357.49 1444.73 1359.16 1443.87 Q1360.84 1442.98 1362.85 1442.98 Q1367.08 1442.98 1369.52 1445.56 Q1371.99 1448.12 1371.99 1452.54 Q1371.99 1456.86 1369.43 1459.48 Q1366.87 1462.09 1362.62 1462.09 Q1357.75 1462.09 1355.17 1458.37 Q1352.6 1454.62 1352.6 1447.53 Q1352.6 1440.88 1355.76 1436.93 Q1358.92 1432.96 1364.24 1432.96 Q1365.67 1432.96 1367.12 1433.24 Q1368.58 1433.52 1370.16 1434.09 Z" fill="#000000" fill-rule="evenodd" fill-opacity="1" /><path clip-path="url(#clip110)" d="M1671.2 1485.02 L1678.84 1485.02 L1678.84 1458.66 L1670.53 1460.32 L1670.53 1456.06 L1678.79 1454.4 L1683.47 1454.4 L1683.47 1485.02 L1691.11 1485.02 L1691.11 1488.96 L1671.2 1488.96 L1671.2 1485.02 Z" fill="#000000" fill-rule="evenodd" fill-opacity="1" /><path clip-path="url(#clip110)" d="M1700.55 1483.08 L1705.44 1483.08 L1705.44 1488.96 L1700.55 1488.96 L1700.55 1483.08 Z" fill="#000000" fill-rule="evenodd" fill-opacity="1" /><path clip-path="url(#clip110)" d="M1715.67 1454.4 L1734.03 1454.4 L1734.03 1458.33 L1719.95 1458.33 L1719.95 1466.8 Q1720.97 1466.46 1721.99 1466.29 Q1723.01 1466.11 1724.03 1466.11 Q1729.81 1466.11 1733.19 1469.28 Q1736.57 1472.45 1736.57 1477.87 Q1736.57 1483.45 1733.1 1486.55 Q1729.63 1489.63 1723.31 1489.63 Q1721.13 1489.63 1718.86 1489.26 Q1716.62 1488.89 1714.21 1488.15 L1714.21 1483.45 Q1716.29 1484.58 1718.52 1485.14 Q1720.74 1485.69 1723.22 1485.69 Q1727.22 1485.69 1729.56 1483.59 Q1731.9 1481.48 1731.9 1477.87 Q1731.9 1474.26 1729.56 1472.15 Q1727.22 1470.04 1723.22 1470.04 Q1721.34 1470.04 1719.47 1470.46 Q1717.61 1470.88 1715.67 1471.76 L1715.67 1454.4 Z" fill="#000000" fill-rule="evenodd" fill-opacity="1" /><path clip-path="url(#clip110)" d="M1755.78 1457.48 Q1752.17 1457.48 1750.34 1461.04 Q1748.54 1464.58 1748.54 1471.71 Q1748.54 1478.82 1750.34 1482.38 Q1752.17 1485.92 1755.78 1485.92 Q1759.42 1485.92 1761.22 1482.38 Q1763.05 1478.82 1763.05 1471.71 Q1763.05 1464.58 1761.22 1461.04 Q1759.42 1457.48 1755.78 1457.48 M1755.78 1453.77 Q1761.59 1453.77 1764.65 1458.38 Q1767.73 1462.96 1767.73 1471.71 Q1767.73 1480.44 1764.65 1485.04 Q1761.59 1489.63 1755.78 1489.63 Q1749.97 1489.63 1746.9 1485.04 Q1743.84 1480.44 1743.84 1471.71 Q1743.84 1462.96 1746.9 1458.38 Q1749.97 1453.77 1755.78 1453.77 Z" fill="#000000" fill-rule="evenodd" fill-opacity="1" /><path clip-path="url(#clip110)" d="M1804.12 1463.49 L1793.54 1474.12 L1804.12 1484.7 L1801.36 1487.5 L1790.74 1476.87 L1780.11 1487.5 L1777.38 1484.7 L1787.94 1474.12 L1777.38 1463.49 L1780.11 1460.69 L1790.74 1471.32 L1801.36 1460.69 L1804.12 1463.49 Z" fill="#000000" fill-rule="evenodd" fill-opacity="1" /><path clip-path="url(#clip110)" d="M1816.48 1485.02 L1824.12 1485.02 L1824.12 1458.66 L1815.81 1460.32 L1815.81 1456.06 L1824.07 1454.4 L1828.75 1454.4 L1828.75 1485.02 L1836.39 1485.02 L1836.39 1488.96 L1816.48 1488.96 L1816.48 1485.02 Z" fill="#000000" fill-rule="evenodd" fill-opacity="1" /><path clip-path="url(#clip110)" d="M1855.83 1457.48 Q1852.22 1457.48 1850.39 1461.04 Q1848.59 1464.58 1848.59 1471.71 Q1848.59 1478.82 1850.39 1482.38 Q1852.22 1485.92 1855.83 1485.92 Q1859.46 1485.92 1861.27 1482.38 Q1863.1 1478.82 1863.1 1471.71 Q1863.1 1464.58 1861.27 1461.04 Q1859.46 1457.48 1855.83 1457.48 M1855.83 1453.77 Q1861.64 1453.77 1864.7 1458.38 Q1867.77 1462.96 1867.77 1471.71 Q1867.77 1480.44 1864.7 1485.04 Q1861.64 1489.63 1855.83 1489.63 Q1850.02 1489.63 1846.94 1485.04 Q1843.89 1480.44 1843.89 1471.71 Q1843.89 1462.96 1846.94 1458.38 Q1850.02 1453.77 1855.83 1453.77 Z" fill="#000000" fill-rule="evenodd" fill-opacity="1" /><path clip-path="url(#clip110)" d="M1877.8 1445.99 Q1875.24 1445.99 1873.74 1447.74 Q1872.25 1449.49 1872.25 1452.54 Q1872.25 1455.57 1873.74 1457.33 Q1875.24 1459.08 1877.8 1459.08 Q1880.36 1459.08 1881.84 1457.33 Q1883.35 1455.57 1883.35 1452.54 Q1883.35 1449.49 1881.84 1447.74 Q1880.36 1445.99 1877.8 1445.99 M1885.34 1434.09 L1885.34 1437.55 Q1883.91 1436.87 1882.44 1436.51 Q1881 1436.16 1879.57 1436.16 Q1875.81 1436.16 1873.81 1438.69 Q1871.84 1441.23 1871.56 1446.37 Q1872.66 1444.73 1874.34 1443.87 Q1876.01 1442.98 1878.03 1442.98 Q1882.26 1442.98 1884.7 1445.56 Q1887.17 1448.12 1887.17 1452.54 Q1887.17 1456.86 1884.61 1459.48 Q1882.05 1462.09 1877.8 1462.09 Q1872.93 1462.09 1870.35 1458.37 Q1867.77 1454.62 1867.77 1447.53 Q1867.77 1440.88 1870.93 1436.93 Q1874.09 1432.96 1879.42 1432.96 Q1880.85 1432.96 1882.29 1433.24 Q1883.76 1433.52 1885.34 1434.09 Z" fill="#000000" fill-rule="evenodd" fill-opacity="1" /><path clip-path="url(#clip110)" d="M2190.47 1485.02 L2206.78 1485.02 L2206.78 1488.96 L2184.84 1488.96 L2184.84 1485.02 Q2187.5 1482.27 2192.09 1477.64 Q2196.69 1472.98 2197.87 1471.64 Q2200.12 1469.12 2201 1467.38 Q2201.9 1465.62 2201.9 1463.93 Q2201.9 1461.18 2199.96 1459.44 Q2198.03 1457.71 2194.93 1457.71 Q2192.73 1457.71 2190.28 1458.47 Q2187.85 1459.23 2185.07 1460.79 L2185.07 1456.06 Q2187.9 1454.93 2190.35 1454.35 Q2192.8 1453.77 2194.84 1453.77 Q2200.21 1453.77 2203.4 1456.46 Q2206.6 1459.14 2206.6 1463.63 Q2206.6 1465.76 2205.79 1467.68 Q2205 1469.58 2202.9 1472.17 Q2202.32 1472.85 2199.21 1476.06 Q2196.11 1479.26 2190.47 1485.02 Z" fill="#000000" fill-rule="evenodd" fill-opacity="1" /><path clip-path="url(#clip110)" d="M2216.6 1483.08 L2221.48 1483.08 L2221.48 1488.96 L2216.6 1488.96 L2216.6 1483.08 Z" fill="#000000" fill-rule="evenodd" fill-opacity="1" /><path clip-path="url(#clip110)" d="M2241.67 1457.48 Q2238.06 1457.48 2236.23 1461.04 Q2234.42 1464.58 2234.42 1471.71 Q2234.42 1478.82 2236.23 1482.38 Q2238.06 1485.92 2241.67 1485.92 Q2245.3 1485.92 2247.11 1482.38 Q2248.94 1478.82 2248.94 1471.71 Q2248.94 1464.58 2247.11 1461.04 Q2245.3 1457.48 2241.67 1457.48 M2241.67 1453.77 Q2247.48 1453.77 2250.53 1458.38 Q2253.61 1462.96 2253.61 1471.71 Q2253.61 1480.44 2250.53 1485.04 Q2247.48 1489.63 2241.67 1489.63 Q2235.86 1489.63 2232.78 1485.04 Q2229.72 1480.44 2229.72 1471.71 Q2229.72 1462.96 2232.78 1458.38 Q2235.86 1453.77 2241.67 1453.77 Z" fill="#000000" fill-rule="evenodd" fill-opacity="1" /><path clip-path="url(#clip110)" d="M2271.83 1457.48 Q2268.22 1457.48 2266.39 1461.04 Q2264.58 1464.58 2264.58 1471.71 Q2264.58 1478.82 2266.39 1482.38 Q2268.22 1485.92 2271.83 1485.92 Q2275.46 1485.92 2277.27 1482.38 Q2279.1 1478.82 2279.1 1471.71 Q2279.1 1464.58 2277.27 1461.04 Q2275.46 1457.48 2271.83 1457.48 M2271.83 1453.77 Q2277.64 1453.77 2280.7 1458.38 Q2283.77 1462.96 2283.77 1471.71 Q2283.77 1480.44 2280.7 1485.04 Q2277.64 1489.63 2271.83 1489.63 Q2266.02 1489.63 2262.94 1485.04 Q2259.89 1480.44 2259.89 1471.71 Q2259.89 1462.96 2262.94 1458.38 Q2266.02 1453.77 2271.83 1453.77 Z" fill="#000000" fill-rule="evenodd" fill-opacity="1" /><path clip-path="url(#clip110)" d="M2320.16 1463.49 L2309.58 1474.12 L2320.16 1484.7 L2317.41 1487.5 L2306.78 1476.87 L2296.16 1487.5 L2293.43 1484.7 L2303.98 1474.12 L2293.43 1463.49 L2296.16 1460.69 L2306.78 1471.32 L2317.41 1460.69 L2320.16 1463.49 Z" fill="#000000" fill-rule="evenodd" fill-opacity="1" /><path clip-path="url(#clip110)" d="M2332.52 1485.02 L2340.16 1485.02 L2340.16 1458.66 L2331.85 1460.32 L2331.85 1456.06 L2340.12 1454.4 L2344.79 1454.4 L2344.79 1485.02 L2352.43 1485.02 L2352.43 1488.96 L2332.52 1488.96 L2332.52 1485.02 Z" fill="#000000" fill-rule="evenodd" fill-opacity="1" /><path clip-path="url(#clip110)" d="M2371.88 1457.48 Q2368.26 1457.48 2366.44 1461.04 Q2364.63 1464.58 2364.63 1471.71 Q2364.63 1478.82 2366.44 1482.38 Q2368.26 1485.92 2371.88 1485.92 Q2375.51 1485.92 2377.32 1482.38 Q2379.14 1478.82 2379.14 1471.71 Q2379.14 1464.58 2377.32 1461.04 Q2375.51 1457.48 2371.88 1457.48 M2371.88 1453.77 Q2377.69 1453.77 2380.74 1458.38 Q2383.82 1462.96 2383.82 1471.71 Q2383.82 1480.44 2380.74 1485.04 Q2377.69 1489.63 2371.88 1489.63 Q2366.07 1489.63 2362.99 1485.04 Q2359.93 1480.44 2359.93 1471.71 Q2359.93 1462.96 2362.99 1458.38 Q2366.07 1453.77 2371.88 1453.77 Z" fill="#000000" fill-rule="evenodd" fill-opacity="1" /><path clip-path="url(#clip110)" d="M2393.85 1445.99 Q2391.29 1445.99 2389.78 1447.74 Q2388.3 1449.49 2388.3 1452.54 Q2388.3 1455.57 2389.78 1457.33 Q2391.29 1459.08 2393.85 1459.08 Q2396.4 1459.08 2397.89 1457.33 Q2399.39 1455.57 2399.39 1452.54 Q2399.39 1449.49 2397.89 1447.74 Q2396.4 1445.99 2393.85 1445.99 M2401.39 1434.09 L2401.39 1437.55 Q2399.96 1436.87 2398.49 1436.51 Q2397.04 1436.16 2395.61 1436.16 Q2391.85 1436.16 2389.86 1438.69 Q2387.88 1441.23 2387.6 1446.37 Q2388.71 1444.73 2390.38 1443.87 Q2392.06 1442.98 2394.07 1442.98 Q2398.3 1442.98 2400.75 1445.56 Q2403.21 1448.12 2403.21 1452.54 Q2403.21 1456.86 2400.65 1459.48 Q2398.1 1462.09 2393.85 1462.09 Q2388.97 1462.09 2386.4 1458.37 Q2383.82 1454.62 2383.82 1447.53 Q2383.82 1440.88 2386.98 1436.93 Q2390.14 1432.96 2395.46 1432.96 Q2396.89 1432.96 2398.34 1433.24 Q2399.81 1433.52 2401.39 1434.09 Z" fill="#000000" fill-rule="evenodd" fill-opacity="1" /><path clip-path="url(#clip110)" d="M1164.75 1526.67 L1171.18 1526.67 L1171.18 1574.19 L1164.75 1574.19 L1164.75 1526.67 Z" fill="#000000" fill-rule="evenodd" fill-opacity="1" /><path clip-path="url(#clip110)" d="M1189.51 1528.42 L1189.51 1538.54 L1201.58 1538.54 L1201.58 1543.09 L1189.51 1543.09 L1189.51 1562.44 Q1189.51 1566.8 1190.69 1568.04 Q1191.9 1569.28 1195.56 1569.28 L1201.58 1569.28 L1201.58 1574.19 L1195.56 1574.19 Q1188.78 1574.19 1186.2 1571.67 Q1183.63 1569.12 1183.63 1562.44 L1183.63 1543.09 L1179.33 1543.09 L1179.33 1538.54 L1183.63 1538.54 L1183.63 1528.42 L1189.51 1528.42 Z" fill="#000000" fill-rule="evenodd" fill-opacity="1" /><path clip-path="url(#clip110)" d="M1239.77 1554.9 L1239.77 1557.76 L1212.84 1557.76 Q1213.23 1563.81 1216.47 1566.99 Q1219.75 1570.14 1225.58 1570.14 Q1228.95 1570.14 1232.1 1569.32 Q1235.28 1568.49 1238.4 1566.83 L1238.4 1572.37 Q1235.25 1573.71 1231.94 1574.41 Q1228.63 1575.11 1225.22 1575.11 Q1216.69 1575.11 1211.7 1570.14 Q1206.73 1565.18 1206.73 1556.71 Q1206.73 1547.96 1211.44 1542.83 Q1216.19 1537.68 1224.21 1537.68 Q1231.4 1537.68 1235.57 1542.33 Q1239.77 1546.94 1239.77 1554.9 M1233.91 1553.18 Q1233.85 1548.37 1231.21 1545.51 Q1228.6 1542.64 1224.27 1542.64 Q1219.37 1542.64 1216.41 1545.41 Q1213.48 1548.18 1213.03 1553.21 L1233.91 1553.18 Z" fill="#000000" fill-rule="evenodd" fill-opacity="1" /><path clip-path="url(#clip110)" d="M1270.04 1544.01 Q1269.05 1543.44 1267.88 1543.18 Q1266.73 1542.9 1265.33 1542.9 Q1260.36 1542.9 1257.69 1546.14 Q1255.05 1549.36 1255.05 1555.41 L1255.05 1574.19 L1249.16 1574.19 L1249.16 1538.54 L1255.05 1538.54 L1255.05 1544.08 Q1256.89 1540.83 1259.85 1539.27 Q1262.81 1537.68 1267.05 1537.68 Q1267.65 1537.68 1268.38 1537.77 Q1269.12 1537.84 1270.01 1538 L1270.04 1544.01 Z" fill="#000000" fill-rule="evenodd" fill-opacity="1" /><path clip-path="url(#clip110)" d="M1292.38 1556.27 Q1285.29 1556.27 1282.55 1557.89 Q1279.81 1559.51 1279.81 1563.43 Q1279.81 1566.55 1281.85 1568.39 Q1283.92 1570.21 1287.45 1570.21 Q1292.32 1570.21 1295.25 1566.77 Q1298.21 1563.3 1298.21 1557.57 L1298.21 1556.27 L1292.38 1556.27 M1304.06 1553.85 L1304.06 1574.19 L1298.21 1574.19 L1298.21 1568.77 Q1296.2 1572.02 1293.21 1573.58 Q1290.22 1575.11 1285.89 1575.11 Q1280.42 1575.11 1277.17 1572.05 Q1273.95 1568.97 1273.95 1563.81 Q1273.95 1557.79 1277.96 1554.74 Q1282.01 1551.68 1290 1551.68 L1298.21 1551.68 L1298.21 1551.11 Q1298.21 1547.07 1295.53 1544.87 Q1292.89 1542.64 1288.09 1542.64 Q1285.03 1542.64 1282.13 1543.38 Q1279.24 1544.11 1276.56 1545.57 L1276.56 1540.16 Q1279.78 1538.92 1282.8 1538.31 Q1285.83 1537.68 1288.69 1537.68 Q1296.43 1537.68 1300.24 1541.69 Q1304.06 1545.7 1304.06 1553.85 Z" fill="#000000" fill-rule="evenodd" fill-opacity="1" /><path clip-path="url(#clip110)" d="M1321.92 1528.42 L1321.92 1538.54 L1333.98 1538.54 L1333.98 1543.09 L1321.92 1543.09 L1321.92 1562.44 Q1321.92 1566.8 1323.1 1568.04 Q1324.31 1569.28 1327.97 1569.28 L1333.98 1569.28 L1333.98 1574.19 L1327.97 1574.19 Q1321.19 1574.19 1318.61 1571.67 Q1316.03 1569.12 1316.03 1562.44 L1316.03 1543.09 L1311.73 1543.09 L1311.73 1538.54 L1316.03 1538.54 L1316.03 1528.42 L1321.92 1528.42 Z" fill="#000000" fill-rule="evenodd" fill-opacity="1" /><path clip-path="url(#clip110)" d="M1341.69 1538.54 L1347.54 1538.54 L1347.54 1574.19 L1341.69 1574.19 L1341.69 1538.54 M1341.69 1524.66 L1347.54 1524.66 L1347.54 1532.08 L1341.69 1532.08 L1341.69 1524.66 Z" fill="#000000" fill-rule="evenodd" fill-opacity="1" /><path clip-path="url(#clip110)" d="M1373.61 1542.64 Q1368.9 1542.64 1366.16 1546.34 Q1363.42 1550 1363.42 1556.39 Q1363.42 1562.79 1366.13 1566.48 Q1368.87 1570.14 1373.61 1570.14 Q1378.29 1570.14 1381.03 1566.45 Q1383.76 1562.76 1383.76 1556.39 Q1383.76 1550.06 1381.03 1546.37 Q1378.29 1542.64 1373.61 1542.64 M1373.61 1537.68 Q1381.25 1537.68 1385.61 1542.64 Q1389.97 1547.61 1389.97 1556.39 Q1389.97 1565.15 1385.61 1570.14 Q1381.25 1575.11 1373.61 1575.11 Q1365.94 1575.11 1361.58 1570.14 Q1357.25 1565.15 1357.25 1556.39 Q1357.25 1547.61 1361.58 1542.64 Q1365.94 1537.68 1373.61 1537.68 Z" fill="#000000" fill-rule="evenodd" fill-opacity="1" /><path clip-path="url(#clip110)" d="M1429.31 1552.67 L1429.31 1574.19 L1423.45 1574.19 L1423.45 1552.86 Q1423.45 1547.8 1421.48 1545.29 Q1419.51 1542.77 1415.56 1542.77 Q1410.82 1542.77 1408.08 1545.79 Q1405.34 1548.82 1405.34 1554.04 L1405.34 1574.19 L1399.45 1574.19 L1399.45 1538.54 L1405.34 1538.54 L1405.34 1544.08 Q1407.44 1540.86 1410.28 1539.27 Q1413.14 1537.68 1416.86 1537.68 Q1423.01 1537.68 1426.16 1541.5 Q1429.31 1545.29 1429.31 1552.67 Z" fill="#000000" fill-rule="evenodd" fill-opacity="1" /><path clip-path="url(#clip110)" d="M1463.72 1539.59 L1463.72 1545.13 Q1461.23 1543.85 1458.56 1543.22 Q1455.89 1542.58 1453.02 1542.58 Q1448.66 1542.58 1446.47 1543.92 Q1444.3 1545.25 1444.3 1547.93 Q1444.3 1549.96 1445.86 1551.14 Q1447.42 1552.29 1452.13 1553.34 L1454.14 1553.78 Q1460.37 1555.12 1462.98 1557.57 Q1465.63 1559.99 1465.63 1564.35 Q1465.63 1569.32 1461.68 1572.21 Q1457.76 1575.11 1450.89 1575.11 Q1448.02 1575.11 1444.91 1574.54 Q1441.82 1573.99 1438.38 1572.88 L1438.38 1566.83 Q1441.63 1568.52 1444.78 1569.38 Q1447.93 1570.21 1451.02 1570.21 Q1455.15 1570.21 1457.38 1568.81 Q1459.61 1567.37 1459.61 1564.8 Q1459.61 1562.41 1457.99 1561.14 Q1456.4 1559.86 1450.95 1558.68 L1448.92 1558.21 Q1443.47 1557.06 1441.05 1554.71 Q1438.64 1552.32 1438.64 1548.18 Q1438.64 1543.15 1442.2 1540.42 Q1445.76 1537.68 1452.32 1537.68 Q1455.57 1537.68 1458.43 1538.16 Q1461.3 1538.63 1463.72 1539.59 Z" fill="#000000" fill-rule="evenodd" fill-opacity="1" /><polyline clip-path="url(#clip112)" style="stroke:#000000; stroke-linecap:round; stroke-linejoin:round; stroke-width:2; stroke-opacity:0.1; fill:none" points="
  277.621,1247.23 2352.76,1247.23 
  "/>
<polyline clip-path="url(#clip112)" style="stroke:#000000; stroke-linecap:round; stroke-linejoin:round; stroke-width:2; stroke-opacity:0.1; fill:none" points="
  277.621,1068.55 2352.76,1068.55 
  "/>
<polyline clip-path="url(#clip112)" style="stroke:#000000; stroke-linecap:round; stroke-linejoin:round; stroke-width:2; stroke-opacity:0.1; fill:none" points="
  277.621,889.878 2352.76,889.878 
  "/>
<polyline clip-path="url(#clip112)" style="stroke:#000000; stroke-linecap:round; stroke-linejoin:round; stroke-width:2; stroke-opacity:0.1; fill:none" points="
  277.621,711.203 2352.76,711.203 
  "/>
<polyline clip-path="url(#clip112)" style="stroke:#000000; stroke-linecap:round; stroke-linejoin:round; stroke-width:2; stroke-opacity:0.1; fill:none" points="
  277.621,532.527 2352.76,532.527 
  "/>
<polyline clip-path="url(#clip112)" style="stroke:#000000; stroke-linecap:round; stroke-linejoin:round; stroke-width:2; stroke-opacity:0.1; fill:none" points="
  277.621,353.852 2352.76,353.852 
  "/>
<polyline clip-path="url(#clip112)" style="stroke:#000000; stroke-linecap:round; stroke-linejoin:round; stroke-width:2; stroke-opacity:0.1; fill:none" points="
  277.621,175.176 2352.76,175.176 
  "/>
<polyline clip-path="url(#clip110)" style="stroke:#000000; stroke-linecap:round; stroke-linejoin:round; stroke-width:4; stroke-opacity:1; fill:none" points="
  277.621,1410.9 277.621,47.2441 
  "/>
<polyline clip-path="url(#clip110)" style="stroke:#000000; stroke-linecap:round; stroke-linejoin:round; stroke-width:4; stroke-opacity:1; fill:none" points="
  277.621,1247.23 296.518,1247.23 
  "/>
<polyline clip-path="url(#clip110)" style="stroke:#000000; stroke-linecap:round; stroke-linejoin:round; stroke-width:4; stroke-opacity:1; fill:none" points="
  277.621,1068.55 296.518,1068.55 
  "/>
<polyline clip-path="url(#clip110)" style="stroke:#000000; stroke-linecap:round; stroke-linejoin:round; stroke-width:4; stroke-opacity:1; fill:none" points="
  277.621,889.878 296.518,889.878 
  "/>
<polyline clip-path="url(#clip110)" style="stroke:#000000; stroke-linecap:round; stroke-linejoin:round; stroke-width:4; stroke-opacity:1; fill:none" points="
  277.621,711.203 296.518,711.203 
  "/>
<polyline clip-path="url(#clip110)" style="stroke:#000000; stroke-linecap:round; stroke-linejoin:round; stroke-width:4; stroke-opacity:1; fill:none" points="
  277.621,532.527 296.518,532.527 
  "/>
<polyline clip-path="url(#clip110)" style="stroke:#000000; stroke-linecap:round; stroke-linejoin:round; stroke-width:4; stroke-opacity:1; fill:none" points="
  277.621,353.852 296.518,353.852 
  "/>
<polyline clip-path="url(#clip110)" style="stroke:#000000; stroke-linecap:round; stroke-linejoin:round; stroke-width:4; stroke-opacity:1; fill:none" points="
  277.621,175.176 296.518,175.176 
  "/>
<path clip-path="url(#clip110)" d="M115.927 1260.57 L123.566 1260.57 L123.566 1234.21 L115.256 1235.88 L115.256 1231.62 L123.519 1229.95 L128.195 1229.95 L128.195 1260.57 L135.834 1260.57 L135.834 1264.51 L115.927 1264.51 L115.927 1260.57 Z" fill="#000000" fill-rule="evenodd" fill-opacity="1" /><path clip-path="url(#clip110)" d="M155.278 1233.03 Q151.667 1233.03 149.839 1236.59 Q148.033 1240.13 148.033 1247.26 Q148.033 1254.37 149.839 1257.94 Q151.667 1261.48 155.278 1261.48 Q158.913 1261.48 160.718 1257.94 Q162.547 1254.37 162.547 1247.26 Q162.547 1240.13 160.718 1236.59 Q158.913 1233.03 155.278 1233.03 M155.278 1229.32 Q161.089 1229.32 164.144 1233.93 Q167.223 1238.51 167.223 1247.26 Q167.223 1255.99 164.144 1260.6 Q161.089 1265.18 155.278 1265.18 Q149.468 1265.18 146.39 1260.6 Q143.334 1255.99 143.334 1247.26 Q143.334 1238.51 146.39 1233.93 Q149.468 1229.32 155.278 1229.32 Z" fill="#000000" fill-rule="evenodd" fill-opacity="1" /><path clip-path="url(#clip110)" d="M175.44 1258.63 L180.325 1258.63 L180.325 1264.51 L175.44 1264.51 L175.44 1258.63 Z" fill="#000000" fill-rule="evenodd" fill-opacity="1" /><path clip-path="url(#clip110)" d="M189.329 1229.95 L211.551 1229.95 L211.551 1231.94 L199.005 1264.51 L194.121 1264.51 L205.926 1233.88 L189.329 1233.88 L189.329 1229.95 Z" fill="#000000" fill-rule="evenodd" fill-opacity="1" /><path clip-path="url(#clip110)" d="M220.718 1229.95 L239.074 1229.95 L239.074 1233.88 L225 1233.88 L225 1242.36 Q226.019 1242.01 227.037 1241.85 Q228.056 1241.66 229.074 1241.66 Q234.861 1241.66 238.241 1244.83 Q241.621 1248.01 241.621 1253.42 Q241.621 1259 238.148 1262.1 Q234.676 1265.18 228.357 1265.18 Q226.181 1265.18 223.912 1264.81 Q221.667 1264.44 219.26 1263.7 L219.26 1259 Q221.343 1260.13 223.565 1260.69 Q225.787 1261.25 228.264 1261.25 Q232.269 1261.25 234.607 1259.14 Q236.945 1257.03 236.945 1253.42 Q236.945 1249.81 234.607 1247.7 Q232.269 1245.6 228.264 1245.6 Q226.389 1245.6 224.514 1246.01 Q222.662 1246.43 220.718 1247.31 L220.718 1229.95 Z" fill="#000000" fill-rule="evenodd" fill-opacity="1" /><path clip-path="url(#clip110)" d="M114.931 1081.9 L122.57 1081.9 L122.57 1055.53 L114.26 1057.2 L114.26 1052.94 L122.524 1051.27 L127.2 1051.27 L127.2 1081.9 L134.839 1081.9 L134.839 1085.83 L114.931 1085.83 L114.931 1081.9 Z" fill="#000000" fill-rule="evenodd" fill-opacity="1" /><path clip-path="url(#clip110)" d="M145.093 1081.9 L152.732 1081.9 L152.732 1055.53 L144.422 1057.2 L144.422 1052.94 L152.686 1051.27 L157.362 1051.27 L157.362 1081.9 L165.001 1081.9 L165.001 1085.83 L145.093 1085.83 L145.093 1081.9 Z" fill="#000000" fill-rule="evenodd" fill-opacity="1" /><path clip-path="url(#clip110)" d="M174.445 1079.95 L179.329 1079.95 L179.329 1085.83 L174.445 1085.83 L174.445 1079.95 Z" fill="#000000" fill-rule="evenodd" fill-opacity="1" /><path clip-path="url(#clip110)" d="M199.514 1054.35 Q195.903 1054.35 194.075 1057.92 Q192.269 1061.46 192.269 1068.59 Q192.269 1075.7 194.075 1079.26 Q195.903 1082.8 199.514 1082.8 Q203.149 1082.8 204.954 1079.26 Q206.783 1075.7 206.783 1068.59 Q206.783 1061.46 204.954 1057.92 Q203.149 1054.35 199.514 1054.35 M199.514 1050.65 Q205.324 1050.65 208.38 1055.26 Q211.459 1059.84 211.459 1068.59 Q211.459 1077.32 208.38 1081.92 Q205.324 1086.51 199.514 1086.51 Q193.704 1086.51 190.625 1081.92 Q187.57 1077.32 187.57 1068.59 Q187.57 1059.84 190.625 1055.26 Q193.704 1050.65 199.514 1050.65 Z" fill="#000000" fill-rule="evenodd" fill-opacity="1" /><path clip-path="url(#clip110)" d="M229.676 1054.35 Q226.065 1054.35 224.236 1057.92 Q222.431 1061.46 222.431 1068.59 Q222.431 1075.7 224.236 1079.26 Q226.065 1082.8 229.676 1082.8 Q233.31 1082.8 235.116 1079.26 Q236.945 1075.7 236.945 1068.59 Q236.945 1061.46 235.116 1057.92 Q233.31 1054.35 229.676 1054.35 M229.676 1050.65 Q235.486 1050.65 238.542 1055.26 Q241.621 1059.84 241.621 1068.59 Q241.621 1077.32 238.542 1081.92 Q235.486 1086.51 229.676 1086.51 Q223.866 1086.51 220.787 1081.92 Q217.732 1077.32 217.732 1068.59 Q217.732 1059.84 220.787 1055.26 Q223.866 1050.65 229.676 1050.65 Z" fill="#000000" fill-rule="evenodd" fill-opacity="1" /><path clip-path="url(#clip110)" d="M115.927 903.223 L123.566 903.223 L123.566 876.858 L115.256 878.524 L115.256 874.265 L123.519 872.598 L128.195 872.598 L128.195 903.223 L135.834 903.223 L135.834 907.158 L115.927 907.158 L115.927 903.223 Z" fill="#000000" fill-rule="evenodd" fill-opacity="1" /><path clip-path="url(#clip110)" d="M146.089 903.223 L153.728 903.223 L153.728 876.858 L145.417 878.524 L145.417 874.265 L153.681 872.598 L158.357 872.598 L158.357 903.223 L165.996 903.223 L165.996 907.158 L146.089 907.158 L146.089 903.223 Z" fill="#000000" fill-rule="evenodd" fill-opacity="1" /><path clip-path="url(#clip110)" d="M175.44 901.279 L180.325 901.279 L180.325 907.158 L175.44 907.158 L175.44 901.279 Z" fill="#000000" fill-rule="evenodd" fill-opacity="1" /><path clip-path="url(#clip110)" d="M194.538 903.223 L210.857 903.223 L210.857 907.158 L188.913 907.158 L188.913 903.223 Q191.575 900.469 196.158 895.839 Q200.764 891.186 201.945 889.844 Q204.19 887.321 205.07 885.584 Q205.973 883.825 205.973 882.135 Q205.973 879.381 204.028 877.645 Q202.107 875.909 199.005 875.909 Q196.806 875.909 194.352 876.673 Q191.922 877.436 189.144 878.987 L189.144 874.265 Q191.968 873.131 194.422 872.552 Q196.875 871.973 198.912 871.973 Q204.283 871.973 207.477 874.659 Q210.672 877.344 210.672 881.835 Q210.672 883.964 209.861 885.885 Q209.074 887.784 206.968 890.376 Q206.389 891.047 203.287 894.265 Q200.186 897.459 194.538 903.223 Z" fill="#000000" fill-rule="evenodd" fill-opacity="1" /><path clip-path="url(#clip110)" d="M220.718 872.598 L239.074 872.598 L239.074 876.534 L225 876.534 L225 885.006 Q226.019 884.659 227.037 884.497 Q228.056 884.311 229.074 884.311 Q234.861 884.311 238.241 887.483 Q241.621 890.654 241.621 896.071 Q241.621 901.649 238.148 904.751 Q234.676 907.83 228.357 907.83 Q226.181 907.83 223.912 907.459 Q221.667 907.089 219.26 906.348 L219.26 901.649 Q221.343 902.783 223.565 903.339 Q225.787 903.895 228.264 903.895 Q232.269 903.895 234.607 901.788 Q236.945 899.682 236.945 896.071 Q236.945 892.459 234.607 890.353 Q232.269 888.247 228.264 888.247 Q226.389 888.247 224.514 888.663 Q222.662 889.08 220.718 889.959 L220.718 872.598 Z" fill="#000000" fill-rule="evenodd" fill-opacity="1" /><path clip-path="url(#clip110)" d="M114.931 724.548 L122.57 724.548 L122.57 698.182 L114.26 699.849 L114.26 695.589 L122.524 693.923 L127.2 693.923 L127.2 724.548 L134.839 724.548 L134.839 728.483 L114.931 728.483 L114.931 724.548 Z" fill="#000000" fill-rule="evenodd" fill-opacity="1" /><path clip-path="url(#clip110)" d="M145.093 724.548 L152.732 724.548 L152.732 698.182 L144.422 699.849 L144.422 695.589 L152.686 693.923 L157.362 693.923 L157.362 724.548 L165.001 724.548 L165.001 728.483 L145.093 728.483 L145.093 724.548 Z" fill="#000000" fill-rule="evenodd" fill-opacity="1" /><path clip-path="url(#clip110)" d="M174.445 722.603 L179.329 722.603 L179.329 728.483 L174.445 728.483 L174.445 722.603 Z" fill="#000000" fill-rule="evenodd" fill-opacity="1" /><path clip-path="url(#clip110)" d="M189.561 693.923 L207.917 693.923 L207.917 697.858 L193.843 697.858 L193.843 706.33 Q194.862 705.983 195.88 705.821 Q196.899 705.636 197.917 705.636 Q203.704 705.636 207.084 708.807 Q210.463 711.978 210.463 717.395 Q210.463 722.974 206.991 726.075 Q203.519 729.154 197.2 729.154 Q195.024 729.154 192.755 728.784 Q190.51 728.413 188.102 727.673 L188.102 722.974 Q190.186 724.108 192.408 724.663 Q194.63 725.219 197.107 725.219 Q201.112 725.219 203.449 723.112 Q205.787 721.006 205.787 717.395 Q205.787 713.784 203.449 711.677 Q201.112 709.571 197.107 709.571 Q195.232 709.571 193.357 709.988 Q191.505 710.404 189.561 711.284 L189.561 693.923 Z" fill="#000000" fill-rule="evenodd" fill-opacity="1" /><path clip-path="url(#clip110)" d="M229.676 697.001 Q226.065 697.001 224.236 700.566 Q222.431 704.108 222.431 711.238 Q222.431 718.344 224.236 721.909 Q226.065 725.45 229.676 725.45 Q233.31 725.45 235.116 721.909 Q236.945 718.344 236.945 711.238 Q236.945 704.108 235.116 700.566 Q233.31 697.001 229.676 697.001 M229.676 693.298 Q235.486 693.298 238.542 697.904 Q241.621 702.488 241.621 711.238 Q241.621 719.964 238.542 724.571 Q235.486 729.154 229.676 729.154 Q223.866 729.154 220.787 724.571 Q217.732 719.964 217.732 711.238 Q217.732 702.488 220.787 697.904 Q223.866 693.298 229.676 693.298 Z" fill="#000000" fill-rule="evenodd" fill-opacity="1" /><path clip-path="url(#clip110)" d="M115.927 545.872 L123.566 545.872 L123.566 519.506 L115.256 521.173 L115.256 516.914 L123.519 515.247 L128.195 515.247 L128.195 545.872 L135.834 545.872 L135.834 549.807 L115.927 549.807 L115.927 545.872 Z" fill="#000000" fill-rule="evenodd" fill-opacity="1" /><path clip-path="url(#clip110)" d="M146.089 545.872 L153.728 545.872 L153.728 519.506 L145.417 521.173 L145.417 516.914 L153.681 515.247 L158.357 515.247 L158.357 545.872 L165.996 545.872 L165.996 549.807 L146.089 549.807 L146.089 545.872 Z" fill="#000000" fill-rule="evenodd" fill-opacity="1" /><path clip-path="url(#clip110)" d="M175.44 543.928 L180.325 543.928 L180.325 549.807 L175.44 549.807 L175.44 543.928 Z" fill="#000000" fill-rule="evenodd" fill-opacity="1" /><path clip-path="url(#clip110)" d="M189.329 515.247 L211.551 515.247 L211.551 517.238 L199.005 549.807 L194.121 549.807 L205.926 519.182 L189.329 519.182 L189.329 515.247 Z" fill="#000000" fill-rule="evenodd" fill-opacity="1" /><path clip-path="url(#clip110)" d="M220.718 515.247 L239.074 515.247 L239.074 519.182 L225 519.182 L225 527.654 Q226.019 527.307 227.037 527.145 Q228.056 526.96 229.074 526.96 Q234.861 526.96 238.241 530.131 Q241.621 533.303 241.621 538.719 Q241.621 544.298 238.148 547.4 Q234.676 550.478 228.357 550.478 Q226.181 550.478 223.912 550.108 Q221.667 549.738 219.26 548.997 L219.26 544.298 Q221.343 545.432 223.565 545.988 Q225.787 546.543 228.264 546.543 Q232.269 546.543 234.607 544.437 Q236.945 542.33 236.945 538.719 Q236.945 535.108 234.607 533.002 Q232.269 530.895 228.264 530.895 Q226.389 530.895 224.514 531.312 Q222.662 531.729 220.718 532.608 L220.718 515.247 Z" fill="#000000" fill-rule="evenodd" fill-opacity="1" /><path clip-path="url(#clip110)" d="M114.931 367.196 L122.57 367.196 L122.57 340.831 L114.26 342.497 L114.26 338.238 L122.524 336.572 L127.2 336.572 L127.2 367.196 L134.839 367.196 L134.839 371.132 L114.931 371.132 L114.931 367.196 Z" fill="#000000" fill-rule="evenodd" fill-opacity="1" /><path clip-path="url(#clip110)" d="M148.311 367.196 L164.63 367.196 L164.63 371.132 L142.686 371.132 L142.686 367.196 Q145.348 364.442 149.931 359.812 Q154.538 355.159 155.718 353.817 Q157.964 351.294 158.843 349.558 Q159.746 347.798 159.746 346.108 Q159.746 343.354 157.802 341.618 Q155.88 339.882 152.778 339.882 Q150.579 339.882 148.126 340.646 Q145.695 341.409 142.917 342.96 L142.917 338.238 Q145.741 337.104 148.195 336.525 Q150.649 335.947 152.686 335.947 Q158.056 335.947 161.251 338.632 Q164.445 341.317 164.445 345.808 Q164.445 347.937 163.635 349.858 Q162.848 351.757 160.741 354.349 Q160.163 355.02 157.061 358.238 Q153.959 361.432 148.311 367.196 Z" fill="#000000" fill-rule="evenodd" fill-opacity="1" /><path clip-path="url(#clip110)" d="M174.445 365.252 L179.329 365.252 L179.329 371.132 L174.445 371.132 L174.445 365.252 Z" fill="#000000" fill-rule="evenodd" fill-opacity="1" /><path clip-path="url(#clip110)" d="M199.514 339.65 Q195.903 339.65 194.075 343.215 Q192.269 346.757 192.269 353.886 Q192.269 360.993 194.075 364.557 Q195.903 368.099 199.514 368.099 Q203.149 368.099 204.954 364.557 Q206.783 360.993 206.783 353.886 Q206.783 346.757 204.954 343.215 Q203.149 339.65 199.514 339.65 M199.514 335.947 Q205.324 335.947 208.38 340.553 Q211.459 345.136 211.459 353.886 Q211.459 362.613 208.38 367.219 Q205.324 371.803 199.514 371.803 Q193.704 371.803 190.625 367.219 Q187.57 362.613 187.57 353.886 Q187.57 345.136 190.625 340.553 Q193.704 335.947 199.514 335.947 Z" fill="#000000" fill-rule="evenodd" fill-opacity="1" /><path clip-path="url(#clip110)" d="M229.676 339.65 Q226.065 339.65 224.236 343.215 Q222.431 346.757 222.431 353.886 Q222.431 360.993 224.236 364.557 Q226.065 368.099 229.676 368.099 Q233.31 368.099 235.116 364.557 Q236.945 360.993 236.945 353.886 Q236.945 346.757 235.116 343.215 Q233.31 339.65 229.676 339.65 M229.676 335.947 Q235.486 335.947 238.542 340.553 Q241.621 345.136 241.621 353.886 Q241.621 362.613 238.542 367.219 Q235.486 371.803 229.676 371.803 Q223.866 371.803 220.787 367.219 Q217.732 362.613 217.732 353.886 Q217.732 345.136 220.787 340.553 Q223.866 335.947 229.676 335.947 Z" fill="#000000" fill-rule="evenodd" fill-opacity="1" /><path clip-path="url(#clip110)" d="M115.927 188.521 L123.566 188.521 L123.566 162.155 L115.256 163.822 L115.256 159.563 L123.519 157.896 L128.195 157.896 L128.195 188.521 L135.834 188.521 L135.834 192.456 L115.927 192.456 L115.927 188.521 Z" fill="#000000" fill-rule="evenodd" fill-opacity="1" /><path clip-path="url(#clip110)" d="M149.306 188.521 L165.626 188.521 L165.626 192.456 L143.681 192.456 L143.681 188.521 Q146.343 185.766 150.927 181.136 Q155.533 176.484 156.714 175.141 Q158.959 172.618 159.839 170.882 Q160.741 169.123 160.741 167.433 Q160.741 164.678 158.797 162.942 Q156.876 161.206 153.774 161.206 Q151.575 161.206 149.121 161.97 Q146.691 162.734 143.913 164.285 L143.913 159.563 Q146.737 158.428 149.191 157.85 Q151.644 157.271 153.681 157.271 Q159.052 157.271 162.246 159.956 Q165.44 162.641 165.44 167.132 Q165.44 169.262 164.63 171.183 Q163.843 173.081 161.737 175.674 Q161.158 176.345 158.056 179.562 Q154.954 182.757 149.306 188.521 Z" fill="#000000" fill-rule="evenodd" fill-opacity="1" /><path clip-path="url(#clip110)" d="M175.44 186.576 L180.325 186.576 L180.325 192.456 L175.44 192.456 L175.44 186.576 Z" fill="#000000" fill-rule="evenodd" fill-opacity="1" /><path clip-path="url(#clip110)" d="M194.538 188.521 L210.857 188.521 L210.857 192.456 L188.913 192.456 L188.913 188.521 Q191.575 185.766 196.158 181.136 Q200.764 176.484 201.945 175.141 Q204.19 172.618 205.07 170.882 Q205.973 169.123 205.973 167.433 Q205.973 164.678 204.028 162.942 Q202.107 161.206 199.005 161.206 Q196.806 161.206 194.352 161.97 Q191.922 162.734 189.144 164.285 L189.144 159.563 Q191.968 158.428 194.422 157.85 Q196.875 157.271 198.912 157.271 Q204.283 157.271 207.477 159.956 Q210.672 162.641 210.672 167.132 Q210.672 169.262 209.861 171.183 Q209.074 173.081 206.968 175.674 Q206.389 176.345 203.287 179.562 Q200.186 182.757 194.538 188.521 Z" fill="#000000" fill-rule="evenodd" fill-opacity="1" /><path clip-path="url(#clip110)" d="M220.718 157.896 L239.074 157.896 L239.074 161.831 L225 161.831 L225 170.303 Q226.019 169.956 227.037 169.794 Q228.056 169.609 229.074 169.609 Q234.861 169.609 238.241 172.78 Q241.621 175.951 241.621 181.368 Q241.621 186.947 238.148 190.048 Q234.676 193.127 228.357 193.127 Q226.181 193.127 223.912 192.757 Q221.667 192.386 219.26 191.646 L219.26 186.947 Q221.343 188.081 223.565 188.636 Q225.787 189.192 228.264 189.192 Q232.269 189.192 234.607 187.086 Q236.945 184.979 236.945 181.368 Q236.945 177.757 234.607 175.65 Q232.269 173.544 228.264 173.544 Q226.389 173.544 224.514 173.961 Q222.662 174.377 220.718 175.257 L220.718 157.896 Z" fill="#000000" fill-rule="evenodd" fill-opacity="1" /><path clip-path="url(#clip110)" d="M41.3104 1077.04 L58.7206 1077.04 L58.7206 1066.72 Q58.7206 1061.54 56.5881 1059.05 Q54.4238 1056.54 49.9996 1056.54 Q45.5436 1056.54 43.4429 1059.05 Q41.3104 1061.54 41.3104 1066.72 L41.3104 1077.04 M21.7677 1077.04 L36.0905 1077.04 L36.0905 1067.52 Q36.0905 1062.81 34.34 1060.52 Q32.5576 1058.19 28.9291 1058.19 Q25.3325 1058.19 23.5501 1060.52 Q21.7677 1062.81 21.7677 1067.52 L21.7677 1077.04 M16.4842 1083.47 L16.4842 1067.04 Q16.4842 1059.69 19.5397 1055.71 Q22.5952 1051.73 28.2289 1051.73 Q32.5894 1051.73 35.1675 1053.77 Q37.7456 1055.81 38.3822 1059.75 Q39.4007 1055.01 42.6472 1052.4 Q45.8619 1049.76 50.6998 1049.76 Q57.0655 1049.76 60.5348 1054.09 Q64.0042 1058.42 64.0042 1066.41 L64.0042 1083.47 L16.4842 1083.47 Z" fill="#000000" fill-rule="evenodd" fill-opacity="1" /><path clip-path="url(#clip110)" d="M44.7161 1008.51 L47.5806 1008.51 L47.5806 1035.44 Q53.6281 1035.05 56.8109 1031.81 Q59.9619 1028.53 59.9619 1022.7 Q59.9619 1019.33 59.1344 1016.18 Q58.3069 1013 56.6518 1009.88 L62.1899 1009.88 Q63.5267 1013.03 64.227 1016.34 Q64.9272 1019.65 64.9272 1023.05 Q64.9272 1031.58 59.9619 1036.58 Q54.9967 1041.55 46.5303 1041.55 Q37.7774 1041.55 32.6531 1036.84 Q27.4968 1032.09 27.4968 1024.07 Q27.4968 1016.88 32.1438 1012.71 Q36.7589 1008.51 44.7161 1008.51 M42.9973 1014.37 Q38.1912 1014.43 35.3266 1017.07 Q32.4621 1019.68 32.4621 1024.01 Q32.4621 1028.91 35.2312 1031.87 Q38.0002 1034.8 43.0292 1035.24 L42.9973 1014.37 Z" fill="#000000" fill-rule="evenodd" fill-opacity="1" /><path clip-path="url(#clip110)" d="M29.4065 976.171 L34.9447 976.171 Q33.6716 978.654 33.035 981.327 Q32.3984 984.001 32.3984 986.866 Q32.3984 991.226 33.7352 993.422 Q35.072 995.587 37.7456 995.587 Q39.7826 995.587 40.9603 994.027 Q42.1061 992.467 43.1565 987.757 L43.6021 985.752 Q44.9389 979.513 47.3897 976.903 Q49.8086 974.261 54.1691 974.261 Q59.1344 974.261 62.0308 978.208 Q64.9272 982.123 64.9272 988.998 Q64.9272 991.863 64.3543 994.982 Q63.8132 998.069 62.6992 1001.51 L56.6518 1001.51 Q58.3387 998.26 59.198 995.109 Q60.0256 991.958 60.0256 988.871 Q60.0256 984.733 58.6251 982.505 Q57.1929 980.277 54.6147 980.277 Q52.2276 980.277 50.9545 981.9 Q49.6813 983.492 48.5037 988.934 L48.0262 990.971 Q46.8804 996.414 44.5251 998.833 Q42.138 1001.25 38.0002 1001.25 Q32.9713 1001.25 30.2341 997.687 Q27.4968 994.122 27.4968 987.566 Q27.4968 984.319 27.9743 981.455 Q28.4517 978.59 29.4065 976.171 Z" fill="#000000" fill-rule="evenodd" fill-opacity="1" /><path clip-path="url(#clip110)" d="M18.2347 959.143 L28.3562 959.143 L28.3562 947.08 L32.9077 947.08 L32.9077 959.143 L52.2594 959.143 Q56.6199 959.143 57.8613 957.965 Q59.1026 956.756 59.1026 953.095 L59.1026 947.08 L64.0042 947.08 L64.0042 953.095 Q64.0042 959.875 61.4897 962.453 Q58.9434 965.031 52.2594 965.031 L32.9077 965.031 L32.9077 969.328 L28.3562 969.328 L28.3562 965.031 L18.2347 965.031 L18.2347 959.143 Z" fill="#000000" fill-rule="evenodd" fill-opacity="1" /><path clip-path="url(#clip110)" d="M20.1444 882.818 L26.9239 882.818 Q23.9002 886.065 22.4043 889.757 Q20.9083 893.417 20.9083 897.555 Q20.9083 905.703 25.9054 910.031 Q30.8707 914.36 40.2919 914.36 Q49.6813 914.36 54.6784 910.031 Q59.6436 905.703 59.6436 897.555 Q59.6436 893.417 58.1477 889.757 Q56.6518 886.065 53.6281 882.818 L60.3439 882.818 Q62.6355 886.192 63.7814 889.98 Q64.9272 893.735 64.9272 897.937 Q64.9272 908.727 58.3387 914.933 Q51.7183 921.14 40.2919 921.14 Q28.8336 921.14 22.2451 914.933 Q15.6248 908.727 15.6248 897.937 Q15.6248 893.672 16.7706 889.916 Q17.8846 886.128 20.1444 882.818 Z" fill="#000000" fill-rule="evenodd" fill-opacity="1" /><path clip-path="url(#clip110)" d="M32.4621 859.329 Q32.4621 864.039 36.1542 866.777 Q39.8145 869.514 46.212 869.514 Q52.6095 869.514 56.3017 866.808 Q59.9619 864.071 59.9619 859.329 Q59.9619 854.65 56.2698 851.913 Q52.5777 849.175 46.212 849.175 Q39.8781 849.175 36.186 851.913 Q32.4621 854.65 32.4621 859.329 M27.4968 859.329 Q27.4968 851.69 32.4621 847.329 Q37.4273 842.969 46.212 842.969 Q54.9649 842.969 59.9619 847.329 Q64.9272 851.69 64.9272 859.329 Q64.9272 866.999 59.9619 871.36 Q54.9649 875.689 46.212 875.689 Q37.4273 875.689 32.4621 871.36 Q27.4968 866.999 27.4968 859.329 Z" fill="#000000" fill-rule="evenodd" fill-opacity="1" /><path clip-path="url(#clip110)" d="M35.1993 805.507 Q31.2526 803.31 29.3747 800.255 Q27.4968 797.199 27.4968 793.062 Q27.4968 787.492 31.4117 784.468 Q35.2948 781.444 42.4881 781.444 L64.0042 781.444 L64.0042 787.332 L42.679 787.332 Q37.5546 787.332 35.072 789.147 Q32.5894 790.961 32.5894 794.685 Q32.5894 799.236 35.6131 801.878 Q38.6368 804.52 43.8567 804.52 L64.0042 804.52 L64.0042 810.408 L42.679 810.408 Q37.5228 810.408 35.072 812.222 Q32.5894 814.037 32.5894 817.824 Q32.5894 822.312 35.6449 824.954 Q38.6686 827.596 43.8567 827.596 L64.0042 827.596 L64.0042 833.484 L28.3562 833.484 L28.3562 827.596 L33.8944 827.596 Q30.616 825.59 29.0564 822.789 Q27.4968 819.989 27.4968 816.137 Q27.4968 812.254 29.4702 809.549 Q31.4436 806.812 35.1993 805.507 Z" fill="#000000" fill-rule="evenodd" fill-opacity="1" /><path clip-path="url(#clip110)" d="M58.657 764.098 L77.5631 764.098 L77.5631 769.986 L28.3562 769.986 L28.3562 764.098 L33.7671 764.098 Q30.5842 762.252 29.0564 759.451 Q27.4968 756.618 27.4968 752.703 Q27.4968 746.21 32.6531 742.168 Q37.8093 738.094 46.212 738.094 Q54.6147 738.094 59.771 742.168 Q64.9272 746.21 64.9272 752.703 Q64.9272 756.618 63.3994 759.451 Q61.8398 762.252 58.657 764.098 M46.212 744.173 Q39.7508 744.173 36.0905 746.847 Q32.3984 749.488 32.3984 754.135 Q32.3984 758.782 36.0905 761.456 Q39.7508 764.098 46.212 764.098 Q52.6732 764.098 56.3653 761.456 Q60.0256 758.782 60.0256 754.135 Q60.0256 749.488 56.3653 746.847 Q52.6732 744.173 46.212 744.173 Z" fill="#000000" fill-rule="evenodd" fill-opacity="1" /><path clip-path="url(#clip110)" d="M14.479 728.386 L14.479 722.53 L64.0042 722.53 L64.0042 728.386 L14.479 728.386 Z" fill="#000000" fill-rule="evenodd" fill-opacity="1" /><path clip-path="url(#clip110)" d="M44.7161 679.784 L47.5806 679.784 L47.5806 706.711 Q53.6281 706.329 56.8109 703.082 Q59.9619 699.804 59.9619 693.979 Q59.9619 690.606 59.1344 687.455 Q58.3069 684.272 56.6518 681.153 L62.1899 681.153 Q63.5267 684.304 64.227 687.614 Q64.9272 690.924 64.9272 694.33 Q64.9272 702.86 59.9619 707.857 Q54.9967 712.822 46.5303 712.822 Q37.7774 712.822 32.6531 708.111 Q27.4968 703.369 27.4968 695.348 Q27.4968 688.155 32.1438 683.985 Q36.7589 679.784 44.7161 679.784 M42.9973 685.64 Q38.1912 685.704 35.3266 688.346 Q32.4621 690.956 32.4621 695.284 Q32.4621 700.186 35.2312 703.146 Q38.0002 706.074 43.0292 706.52 L42.9973 685.64 Z" fill="#000000" fill-rule="evenodd" fill-opacity="1" /><path clip-path="url(#clip110)" d="M18.2347 664.379 L28.3562 664.379 L28.3562 652.316 L32.9077 652.316 L32.9077 664.379 L52.2594 664.379 Q56.6199 664.379 57.8613 663.201 Q59.1026 661.992 59.1026 658.331 L59.1026 652.316 L64.0042 652.316 L64.0042 658.331 Q64.0042 665.111 61.4897 667.689 Q58.9434 670.267 52.2594 670.267 L32.9077 670.267 L32.9077 674.564 L28.3562 674.564 L28.3562 670.267 L18.2347 670.267 L18.2347 664.379 Z" fill="#000000" fill-rule="evenodd" fill-opacity="1" /><path clip-path="url(#clip110)" d="M28.3562 644.613 L28.3562 638.757 L64.0042 638.757 L64.0042 644.613 L28.3562 644.613 M14.479 644.613 L14.479 638.757 L21.895 638.757 L21.895 644.613 L14.479 644.613 Z" fill="#000000" fill-rule="evenodd" fill-opacity="1" /><path clip-path="url(#clip110)" d="M32.4621 612.689 Q32.4621 617.4 36.1542 620.137 Q39.8145 622.874 46.212 622.874 Q52.6095 622.874 56.3017 620.169 Q59.9619 617.432 59.9619 612.689 Q59.9619 608.011 56.2698 605.273 Q52.5777 602.536 46.212 602.536 Q39.8781 602.536 36.186 605.273 Q32.4621 608.011 32.4621 612.689 M27.4968 612.689 Q27.4968 605.05 32.4621 600.69 Q37.4273 596.329 46.212 596.329 Q54.9649 596.329 59.9619 600.69 Q64.9272 605.05 64.9272 612.689 Q64.9272 620.36 59.9619 624.721 Q54.9649 629.049 46.212 629.049 Q37.4273 629.049 32.4621 624.721 Q27.4968 620.36 27.4968 612.689 Z" fill="#000000" fill-rule="evenodd" fill-opacity="1" /><path clip-path="url(#clip110)" d="M42.4881 556.989 L64.0042 556.989 L64.0042 562.846 L42.679 562.846 Q37.6183 562.846 35.1038 564.819 Q32.5894 566.793 32.5894 570.739 Q32.5894 575.482 35.6131 578.219 Q38.6368 580.956 43.8567 580.956 L64.0042 580.956 L64.0042 586.845 L28.3562 586.845 L28.3562 580.956 L33.8944 580.956 Q30.6797 578.856 29.0883 576.023 Q27.4968 573.158 27.4968 569.434 Q27.4968 563.291 31.3163 560.14 Q35.1038 556.989 42.4881 556.989 Z" fill="#000000" fill-rule="evenodd" fill-opacity="1" /><path clip-path="url(#clip110)" d="M16.4842 530.922 L16.4842 490.722 L21.895 490.722 L21.895 507.592 L64.0042 507.592 L64.0042 514.053 L21.895 514.053 L21.895 530.922 L16.4842 530.922 Z" fill="#000000" fill-rule="evenodd" fill-opacity="1" /><path clip-path="url(#clip110)" d="M28.3562 486.776 L28.3562 480.919 L64.0042 480.919 L64.0042 486.776 L28.3562 486.776 M14.479 486.776 L14.479 480.919 L21.895 480.919 L21.895 486.776 L14.479 486.776 Z" fill="#000000" fill-rule="evenodd" fill-opacity="1" /><path clip-path="url(#clip110)" d="M35.1993 440.911 Q31.2526 438.715 29.3747 435.659 Q27.4968 432.603 27.4968 428.466 Q27.4968 422.896 31.4117 419.872 Q35.2948 416.848 42.4881 416.848 L64.0042 416.848 L64.0042 422.737 L42.679 422.737 Q37.5546 422.737 35.072 424.551 Q32.5894 426.365 32.5894 430.089 Q32.5894 434.641 35.6131 437.282 Q38.6368 439.924 43.8567 439.924 L64.0042 439.924 L64.0042 445.812 L42.679 445.812 Q37.5228 445.812 35.072 447.627 Q32.5894 449.441 32.5894 453.228 Q32.5894 457.716 35.6449 460.358 Q38.6686 463 43.8567 463 L64.0042 463 L64.0042 468.888 L28.3562 468.888 L28.3562 463 L33.8944 463 Q30.616 460.995 29.0564 458.194 Q27.4968 455.393 27.4968 451.541 Q27.4968 447.658 29.4702 444.953 Q31.4436 442.216 35.1993 440.911 Z" fill="#000000" fill-rule="evenodd" fill-opacity="1" /><path clip-path="url(#clip110)" d="M44.7161 374.676 L47.5806 374.676 L47.5806 401.603 Q53.6281 401.221 56.8109 397.974 Q59.9619 394.696 59.9619 388.871 Q59.9619 385.497 59.1344 382.346 Q58.3069 379.163 56.6518 376.044 L62.1899 376.044 Q63.5267 379.195 64.227 382.505 Q64.9272 385.816 64.9272 389.221 Q64.9272 397.751 59.9619 402.748 Q54.9967 407.714 46.5303 407.714 Q37.7774 407.714 32.6531 403.003 Q27.4968 398.261 27.4968 390.24 Q27.4968 383.046 32.1438 378.877 Q36.7589 374.676 44.7161 374.676 M42.9973 380.532 Q38.1912 380.596 35.3266 383.237 Q32.4621 385.847 32.4621 390.176 Q32.4621 395.078 35.2312 398.038 Q38.0002 400.966 43.0292 401.412 L42.9973 380.532 Z" fill="#000000" fill-rule="evenodd" fill-opacity="1" /><polyline clip-path="url(#clip112)" style="stroke:#009af9; stroke-linecap:round; stroke-linejoin:round; stroke-width:4; stroke-opacity:1; fill:none" points="
  954.564,335.984 1057.6,85.838 1160.63,443.189 1263.67,711.203 1366.71,943.481 1469.74,907.746 1572.78,1104.29 1675.81,1122.16 1778.85,889.878 1881.88,1211.49 
  1984.92,1372.3 2087.95,1265.1 2190.99,1211.49 2294.03,1372.3 
  "/>
</svg>
