<?xml version="1.0" encoding="utf-8"?>
<svg xmlns="http://www.w3.org/2000/svg" xmlns:xlink="http://www.w3.org/1999/xlink" width="600" height="400" viewBox="0 0 2400 1600">
<defs>
  <clipPath id="clip440">
    <rect x="0" y="0" width="2400" height="1600"/>
  </clipPath>
</defs>
<path clip-path="url(#clip440)" d="
M0 1600 L2400 1600 L2400 0 L0 0  Z
  " fill="#ffffff" fill-rule="evenodd" fill-opacity="1"/>
<defs>
  <clipPath id="clip441">
    <rect x="480" y="0" width="1681" height="1600"/>
  </clipPath>
</defs>
<path clip-path="url(#clip440)" d="
M202.227 1410.9 L2352.76 1410.9 L2352.76 47.2441 L202.227 47.2441  Z
  " fill="#ffffff" fill-rule="evenodd" fill-opacity="1"/>
<defs>
  <clipPath id="clip442">
    <rect x="202" y="47" width="2152" height="1365"/>
  </clipPath>
</defs>
<polyline clip-path="url(#clip442)" style="stroke:#000000; stroke-linecap:round; stroke-linejoin:round; stroke-width:2; stroke-opacity:0.1; fill:none" points="
  258.007,1410.9 258.007,47.2441 
  "/>
<polyline clip-path="url(#clip442)" style="stroke:#000000; stroke-linecap:round; stroke-linejoin:round; stroke-width:2; stroke-opacity:0.1; fill:none" points="
  766.478,1410.9 766.478,47.2441 
  "/>
<polyline clip-path="url(#clip442)" style="stroke:#000000; stroke-linecap:round; stroke-linejoin:round; stroke-width:2; stroke-opacity:0.1; fill:none" points="
  1274.95,1410.9 1274.95,47.2441 
  "/>
<polyline clip-path="url(#clip442)" style="stroke:#000000; stroke-linecap:round; stroke-linejoin:round; stroke-width:2; stroke-opacity:0.1; fill:none" points="
  1783.42,1410.9 1783.42,47.2441 
  "/>
<polyline clip-path="url(#clip442)" style="stroke:#000000; stroke-linecap:round; stroke-linejoin:round; stroke-width:2; stroke-opacity:0.1; fill:none" points="
  2291.89,1410.9 2291.89,47.2441 
  "/>
<polyline clip-path="url(#clip440)" style="stroke:#000000; stroke-linecap:round; stroke-linejoin:round; stroke-width:4; stroke-opacity:1; fill:none" points="
  202.227,1410.9 2352.76,1410.9 
  "/>
<polyline clip-path="url(#clip440)" style="stroke:#000000; stroke-linecap:round; stroke-linejoin:round; stroke-width:4; stroke-opacity:1; fill:none" points="
  258.007,1410.9 258.007,1392 
  "/>
<polyline clip-path="url(#clip440)" style="stroke:#000000; stroke-linecap:round; stroke-linejoin:round; stroke-width:4; stroke-opacity:1; fill:none" points="
  766.478,1410.9 766.478,1392 
  "/>
<polyline clip-path="url(#clip440)" style="stroke:#000000; stroke-linecap:round; stroke-linejoin:round; stroke-width:4; stroke-opacity:1; fill:none" points="
  1274.95,1410.9 1274.95,1392 
  "/>
<polyline clip-path="url(#clip440)" style="stroke:#000000; stroke-linecap:round; stroke-linejoin:round; stroke-width:4; stroke-opacity:1; fill:none" points="
  1783.42,1410.9 1783.42,1392 
  "/>
<polyline clip-path="url(#clip440)" style="stroke:#000000; stroke-linecap:round; stroke-linejoin:round; stroke-width:4; stroke-opacity:1; fill:none" points="
  2291.89,1410.9 2291.89,1392 
  "/>
<path clip-path="url(#clip440)" d="M258.007 1441.82 Q254.396 1441.82 252.567 1445.38 Q250.761 1448.92 250.761 1456.05 Q250.761 1463.16 252.567 1466.72 Q254.396 1470.26 258.007 1470.26 Q261.641 1470.26 263.447 1466.72 Q265.275 1463.16 265.275 1456.05 Q265.275 1448.92 263.447 1445.38 Q261.641 1441.82 258.007 1441.82 M258.007 1438.11 Q263.817 1438.11 266.872 1442.72 Q269.951 1447.3 269.951 1456.05 Q269.951 1464.78 266.872 1469.38 Q263.817 1473.97 258.007 1473.97 Q252.197 1473.97 249.118 1469.38 Q246.062 1464.78 246.062 1456.05 Q246.062 1447.3 249.118 1442.72 Q252.197 1438.11 258.007 1438.11 Z" fill="#000000" fill-rule="evenodd" fill-opacity="1" /><path clip-path="url(#clip440)" d="M674.58 1485.02 L682.219 1485.02 L682.219 1458.66 L673.909 1460.32 L673.909 1456.06 L682.173 1454.4 L686.849 1454.4 L686.849 1485.02 L694.488 1485.02 L694.488 1488.96 L674.58 1488.96 L674.58 1485.02 Z" fill="#000000" fill-rule="evenodd" fill-opacity="1" /><path clip-path="url(#clip440)" d="M703.932 1483.08 L708.816 1483.08 L708.816 1488.96 L703.932 1488.96 L703.932 1483.08 Z" fill="#000000" fill-rule="evenodd" fill-opacity="1" /><path clip-path="url(#clip440)" d="M729.001 1457.48 Q725.39 1457.48 723.562 1461.04 Q721.756 1464.58 721.756 1471.71 Q721.756 1478.82 723.562 1482.38 Q725.39 1485.92 729.001 1485.92 Q732.636 1485.92 734.441 1482.38 Q736.27 1478.82 736.27 1471.71 Q736.27 1464.58 734.441 1461.04 Q732.636 1457.48 729.001 1457.48 M729.001 1453.77 Q734.812 1453.77 737.867 1458.38 Q740.946 1462.96 740.946 1471.71 Q740.946 1480.44 737.867 1485.04 Q734.812 1489.63 729.001 1489.63 Q723.191 1489.63 720.113 1485.04 Q717.057 1480.44 717.057 1471.71 Q717.057 1462.96 720.113 1458.38 Q723.191 1453.77 729.001 1453.77 Z" fill="#000000" fill-rule="evenodd" fill-opacity="1" /><path clip-path="url(#clip440)" d="M777.334 1463.49 L766.756 1474.12 L777.334 1484.7 L774.58 1487.5 L763.955 1476.87 L753.33 1487.5 L750.599 1484.7 L761.154 1474.12 L750.599 1463.49 L753.33 1460.69 L763.955 1471.32 L774.58 1460.69 L777.334 1463.49 Z" fill="#000000" fill-rule="evenodd" fill-opacity="1" /><path clip-path="url(#clip440)" d="M789.696 1485.02 L797.334 1485.02 L797.334 1458.66 L789.024 1460.32 L789.024 1456.06 L797.288 1454.4 L801.964 1454.4 L801.964 1485.02 L809.603 1485.02 L809.603 1488.96 L789.696 1488.96 L789.696 1485.02 Z" fill="#000000" fill-rule="evenodd" fill-opacity="1" /><path clip-path="url(#clip440)" d="M829.047 1457.48 Q825.436 1457.48 823.607 1461.04 Q821.802 1464.58 821.802 1471.71 Q821.802 1478.82 823.607 1482.38 Q825.436 1485.92 829.047 1485.92 Q832.681 1485.92 834.487 1482.38 Q836.316 1478.82 836.316 1471.71 Q836.316 1464.58 834.487 1461.04 Q832.681 1457.48 829.047 1457.48 M829.047 1453.77 Q834.857 1453.77 837.913 1458.38 Q840.992 1462.96 840.992 1471.71 Q840.992 1480.44 837.913 1485.04 Q834.857 1489.63 829.047 1489.63 Q823.237 1489.63 820.158 1485.04 Q817.103 1480.44 817.103 1471.71 Q817.103 1462.96 820.158 1458.38 Q823.237 1453.77 829.047 1453.77 Z" fill="#000000" fill-rule="evenodd" fill-opacity="1" /><path clip-path="url(#clip440)" d="M840.992 1433.47 L859.047 1433.47 L859.047 1435.08 L848.853 1461.55 L844.885 1461.55 L854.477 1436.66 L840.992 1436.66 L840.992 1433.47 Z" fill="#000000" fill-rule="evenodd" fill-opacity="1" /><path clip-path="url(#clip440)" d="M1187.14 1485.02 L1203.46 1485.02 L1203.46 1488.96 L1181.51 1488.96 L1181.51 1485.02 Q1184.17 1482.27 1188.76 1477.64 Q1193.36 1472.98 1194.54 1471.64 Q1196.79 1469.12 1197.67 1467.38 Q1198.57 1465.62 1198.57 1463.93 Q1198.57 1461.18 1196.63 1459.44 Q1194.71 1457.71 1191.6 1457.71 Q1189.41 1457.71 1186.95 1458.47 Q1184.52 1459.23 1181.74 1460.79 L1181.74 1456.06 Q1184.57 1454.93 1187.02 1454.35 Q1189.48 1453.77 1191.51 1453.77 Q1196.88 1453.77 1200.08 1456.46 Q1203.27 1459.14 1203.27 1463.63 Q1203.27 1465.76 1202.46 1467.68 Q1201.67 1469.58 1199.57 1472.17 Q1198.99 1472.85 1195.89 1476.06 Q1192.79 1479.26 1187.14 1485.02 Z" fill="#000000" fill-rule="evenodd" fill-opacity="1" /><path clip-path="url(#clip440)" d="M1213.27 1483.08 L1218.16 1483.08 L1218.16 1488.96 L1213.27 1488.96 L1213.27 1483.08 Z" fill="#000000" fill-rule="evenodd" fill-opacity="1" /><path clip-path="url(#clip440)" d="M1238.34 1457.48 Q1234.73 1457.48 1232.9 1461.04 Q1231.1 1464.58 1231.1 1471.71 Q1231.1 1478.82 1232.9 1482.38 Q1234.73 1485.92 1238.34 1485.92 Q1241.97 1485.92 1243.78 1482.38 Q1245.61 1478.82 1245.61 1471.71 Q1245.61 1464.58 1243.78 1461.04 Q1241.97 1457.48 1238.34 1457.48 M1238.34 1453.77 Q1244.15 1453.77 1247.21 1458.38 Q1250.29 1462.96 1250.29 1471.71 Q1250.29 1480.44 1247.21 1485.04 Q1244.15 1489.63 1238.34 1489.63 Q1232.53 1489.63 1229.45 1485.04 Q1226.4 1480.44 1226.4 1471.71 Q1226.4 1462.96 1229.45 1458.38 Q1232.53 1453.77 1238.34 1453.77 Z" fill="#000000" fill-rule="evenodd" fill-opacity="1" /><path clip-path="url(#clip440)" d="M1286.67 1463.49 L1276.1 1474.12 L1286.67 1484.7 L1283.92 1487.5 L1273.29 1476.87 L1262.67 1487.5 L1259.94 1484.7 L1270.49 1474.12 L1259.94 1463.49 L1262.67 1460.69 L1273.29 1471.32 L1283.92 1460.69 L1286.67 1463.49 Z" fill="#000000" fill-rule="evenodd" fill-opacity="1" /><path clip-path="url(#clip440)" d="M1299.03 1485.02 L1306.67 1485.02 L1306.67 1458.66 L1298.36 1460.32 L1298.36 1456.06 L1306.63 1454.4 L1311.3 1454.4 L1311.3 1485.02 L1318.94 1485.02 L1318.94 1488.96 L1299.03 1488.96 L1299.03 1485.02 Z" fill="#000000" fill-rule="evenodd" fill-opacity="1" /><path clip-path="url(#clip440)" d="M1338.39 1457.48 Q1334.78 1457.48 1332.95 1461.04 Q1331.14 1464.58 1331.14 1471.71 Q1331.14 1478.82 1332.95 1482.38 Q1334.78 1485.92 1338.39 1485.92 Q1342.02 1485.92 1343.83 1482.38 Q1345.65 1478.82 1345.65 1471.71 Q1345.65 1464.58 1343.83 1461.04 Q1342.02 1457.48 1338.39 1457.48 M1338.39 1453.77 Q1344.2 1453.77 1347.25 1458.38 Q1350.33 1462.96 1350.33 1471.71 Q1350.33 1480.44 1347.25 1485.04 Q1344.2 1489.63 1338.39 1489.63 Q1332.58 1489.63 1329.5 1485.04 Q1326.44 1480.44 1326.44 1471.71 Q1326.44 1462.96 1329.5 1458.38 Q1332.58 1453.77 1338.39 1453.77 Z" fill="#000000" fill-rule="evenodd" fill-opacity="1" /><path clip-path="url(#clip440)" d="M1350.33 1433.47 L1368.39 1433.47 L1368.39 1435.08 L1358.19 1461.55 L1354.22 1461.55 L1363.82 1436.66 L1350.33 1436.66 L1350.33 1433.47 Z" fill="#000000" fill-rule="evenodd" fill-opacity="1" /><path clip-path="url(#clip440)" d="M1705.68 1470.32 Q1709.03 1471.04 1710.91 1473.31 Q1712.81 1475.58 1712.81 1478.91 Q1712.81 1484.03 1709.29 1486.83 Q1705.77 1489.63 1699.29 1489.63 Q1697.11 1489.63 1694.8 1489.19 Q1692.51 1488.77 1690.05 1487.91 L1690.05 1483.4 Q1692 1484.54 1694.31 1485.11 Q1696.63 1485.69 1699.15 1485.69 Q1703.55 1485.69 1705.84 1483.96 Q1708.15 1482.22 1708.15 1478.91 Q1708.15 1475.85 1706 1474.14 Q1703.87 1472.41 1700.05 1472.41 L1696.03 1472.41 L1696.03 1468.56 L1700.24 1468.56 Q1703.69 1468.56 1705.52 1467.2 Q1707.34 1465.81 1707.34 1463.22 Q1707.34 1460.55 1705.45 1459.14 Q1703.57 1457.71 1700.05 1457.71 Q1698.13 1457.71 1695.93 1458.12 Q1693.73 1458.54 1691.09 1459.42 L1691.09 1455.25 Q1693.76 1454.51 1696.07 1454.14 Q1698.41 1453.77 1700.47 1453.77 Q1705.79 1453.77 1708.9 1456.2 Q1712 1458.61 1712 1462.73 Q1712 1465.6 1710.35 1467.59 Q1708.71 1469.56 1705.68 1470.32 Z" fill="#000000" fill-rule="evenodd" fill-opacity="1" /><path clip-path="url(#clip440)" d="M1721.67 1483.08 L1726.56 1483.08 L1726.56 1488.96 L1721.67 1488.96 L1721.67 1483.08 Z" fill="#000000" fill-rule="evenodd" fill-opacity="1" /><path clip-path="url(#clip440)" d="M1746.74 1457.48 Q1743.13 1457.48 1741.3 1461.04 Q1739.5 1464.58 1739.5 1471.71 Q1739.5 1478.82 1741.3 1482.38 Q1743.13 1485.92 1746.74 1485.92 Q1750.38 1485.92 1752.18 1482.38 Q1754.01 1478.82 1754.01 1471.71 Q1754.01 1464.58 1752.18 1461.04 Q1750.38 1457.48 1746.74 1457.48 M1746.74 1453.77 Q1752.55 1453.77 1755.61 1458.38 Q1758.69 1462.96 1758.69 1471.71 Q1758.69 1480.44 1755.61 1485.04 Q1752.55 1489.63 1746.74 1489.63 Q1740.93 1489.63 1737.85 1485.04 Q1734.8 1480.44 1734.8 1471.71 Q1734.8 1462.96 1737.85 1458.38 Q1740.93 1453.77 1746.74 1453.77 Z" fill="#000000" fill-rule="evenodd" fill-opacity="1" /><path clip-path="url(#clip440)" d="M1795.08 1463.49 L1784.5 1474.12 L1795.08 1484.7 L1792.32 1487.5 L1781.7 1476.87 L1771.07 1487.5 L1768.34 1484.7 L1778.9 1474.12 L1768.34 1463.49 L1771.07 1460.69 L1781.7 1471.32 L1792.32 1460.69 L1795.08 1463.49 Z" fill="#000000" fill-rule="evenodd" fill-opacity="1" /><path clip-path="url(#clip440)" d="M1807.44 1485.02 L1815.08 1485.02 L1815.08 1458.66 L1806.77 1460.32 L1806.77 1456.06 L1815.03 1454.4 L1819.71 1454.4 L1819.71 1485.02 L1827.34 1485.02 L1827.34 1488.96 L1807.44 1488.96 L1807.44 1485.02 Z" fill="#000000" fill-rule="evenodd" fill-opacity="1" /><path clip-path="url(#clip440)" d="M1846.79 1457.48 Q1843.18 1457.48 1841.35 1461.04 Q1839.54 1464.58 1839.54 1471.71 Q1839.54 1478.82 1841.35 1482.38 Q1843.18 1485.92 1846.79 1485.92 Q1850.42 1485.92 1852.23 1482.38 Q1854.06 1478.82 1854.06 1471.71 Q1854.06 1464.58 1852.23 1461.04 Q1850.42 1457.48 1846.79 1457.48 M1846.79 1453.77 Q1852.6 1453.77 1855.65 1458.38 Q1858.73 1462.96 1858.73 1471.71 Q1858.73 1480.44 1855.65 1485.04 Q1852.6 1489.63 1846.79 1489.63 Q1840.98 1489.63 1837.9 1485.04 Q1834.84 1480.44 1834.84 1471.71 Q1834.84 1462.96 1837.9 1458.38 Q1840.98 1453.77 1846.79 1453.77 Z" fill="#000000" fill-rule="evenodd" fill-opacity="1" /><path clip-path="url(#clip440)" d="M1858.73 1433.47 L1876.79 1433.47 L1876.79 1435.08 L1866.59 1461.55 L1862.63 1461.55 L1872.22 1436.66 L1858.73 1436.66 L1858.73 1433.47 Z" fill="#000000" fill-rule="evenodd" fill-opacity="1" /><path clip-path="url(#clip440)" d="M2213.48 1458.47 L2201.67 1476.92 L2213.48 1476.92 L2213.48 1458.47 M2212.25 1454.4 L2218.13 1454.4 L2218.13 1476.92 L2223.06 1476.92 L2223.06 1480.81 L2218.13 1480.81 L2218.13 1488.96 L2213.48 1488.96 L2213.48 1480.81 L2197.88 1480.81 L2197.88 1476.29 L2212.25 1454.4 Z" fill="#000000" fill-rule="evenodd" fill-opacity="1" /><path clip-path="url(#clip440)" d="M2230.79 1483.08 L2235.68 1483.08 L2235.68 1488.96 L2230.79 1488.96 L2230.79 1483.08 Z" fill="#000000" fill-rule="evenodd" fill-opacity="1" /><path clip-path="url(#clip440)" d="M2255.86 1457.48 Q2252.25 1457.48 2250.42 1461.04 Q2248.62 1464.58 2248.62 1471.71 Q2248.62 1478.82 2250.42 1482.38 Q2252.25 1485.92 2255.86 1485.92 Q2259.5 1485.92 2261.3 1482.38 Q2263.13 1478.82 2263.13 1471.71 Q2263.13 1464.58 2261.3 1461.04 Q2259.5 1457.48 2255.86 1457.48 M2255.86 1453.77 Q2261.67 1453.77 2264.73 1458.38 Q2267.81 1462.96 2267.81 1471.71 Q2267.81 1480.44 2264.73 1485.04 Q2261.67 1489.63 2255.86 1489.63 Q2250.05 1489.63 2246.97 1485.04 Q2243.92 1480.44 2243.92 1471.71 Q2243.92 1462.96 2246.97 1458.38 Q2250.05 1453.77 2255.86 1453.77 Z" fill="#000000" fill-rule="evenodd" fill-opacity="1" /><path clip-path="url(#clip440)" d="M2304.2 1463.49 L2293.62 1474.12 L2304.2 1484.7 L2301.44 1487.5 L2290.82 1476.87 L2280.19 1487.5 L2277.46 1484.7 L2288.01 1474.12 L2277.46 1463.49 L2280.19 1460.69 L2290.82 1471.32 L2301.44 1460.69 L2304.2 1463.49 Z" fill="#000000" fill-rule="evenodd" fill-opacity="1" /><path clip-path="url(#clip440)" d="M2316.56 1485.02 L2324.19 1485.02 L2324.19 1458.66 L2315.88 1460.32 L2315.88 1456.06 L2324.15 1454.4 L2328.82 1454.4 L2328.82 1485.02 L2336.46 1485.02 L2336.46 1488.96 L2316.56 1488.96 L2316.56 1485.02 Z" fill="#000000" fill-rule="evenodd" fill-opacity="1" /><path clip-path="url(#clip440)" d="M2355.91 1457.48 Q2352.3 1457.48 2350.47 1461.04 Q2348.66 1464.58 2348.66 1471.71 Q2348.66 1478.82 2350.47 1482.38 Q2352.3 1485.92 2355.91 1485.92 Q2359.54 1485.92 2361.35 1482.38 Q2363.18 1478.82 2363.18 1471.71 Q2363.18 1464.58 2361.35 1461.04 Q2359.54 1457.48 2355.91 1457.48 M2355.91 1453.77 Q2361.72 1453.77 2364.77 1458.38 Q2367.85 1462.96 2367.85 1471.71 Q2367.85 1480.44 2364.77 1485.04 Q2361.72 1489.63 2355.91 1489.63 Q2350.1 1489.63 2347.02 1485.04 Q2343.96 1480.44 2343.96 1471.71 Q2343.96 1462.96 2347.02 1458.38 Q2350.1 1453.77 2355.91 1453.77 Z" fill="#000000" fill-rule="evenodd" fill-opacity="1" /><path clip-path="url(#clip440)" d="M2367.85 1433.47 L2385.91 1433.47 L2385.91 1435.08 L2375.71 1461.55 L2371.75 1461.55 L2381.34 1436.66 L2367.85 1436.66 L2367.85 1433.47 Z" fill="#000000" fill-rule="evenodd" fill-opacity="1" /><path clip-path="url(#clip440)" d="M1127.05 1526.67 L1133.48 1526.67 L1133.48 1574.19 L1127.05 1574.19 L1127.05 1526.67 Z" fill="#000000" fill-rule="evenodd" fill-opacity="1" /><path clip-path="url(#clip440)" d="M1151.82 1528.42 L1151.82 1538.54 L1163.88 1538.54 L1163.88 1543.09 L1151.82 1543.09 L1151.82 1562.44 Q1151.82 1566.8 1152.99 1568.04 Q1154.2 1569.28 1157.86 1569.28 L1163.88 1569.28 L1163.88 1574.19 L1157.86 1574.19 Q1151.08 1574.19 1148.51 1571.67 Q1145.93 1569.12 1145.93 1562.44 L1145.93 1543.09 L1141.63 1543.09 L1141.63 1538.54 L1145.93 1538.54 L1145.93 1528.42 L1151.82 1528.42 Z" fill="#000000" fill-rule="evenodd" fill-opacity="1" /><path clip-path="url(#clip440)" d="M1202.07 1554.9 L1202.07 1557.76 L1175.15 1557.76 Q1175.53 1563.81 1178.78 1566.99 Q1182.05 1570.14 1187.88 1570.14 Q1191.25 1570.14 1194.4 1569.32 Q1197.59 1568.49 1200.71 1566.83 L1200.71 1572.37 Q1197.55 1573.71 1194.24 1574.41 Q1190.93 1575.11 1187.53 1575.11 Q1179 1575.11 1174 1570.14 Q1169.04 1565.18 1169.04 1556.71 Q1169.04 1547.96 1173.75 1542.83 Q1178.49 1537.68 1186.51 1537.68 Q1193.7 1537.68 1197.87 1542.33 Q1202.07 1546.94 1202.07 1554.9 M1196.22 1553.18 Q1196.15 1548.37 1193.51 1545.51 Q1190.9 1542.64 1186.57 1542.64 Q1181.67 1542.64 1178.71 1545.41 Q1175.78 1548.18 1175.34 1553.21 L1196.22 1553.18 Z" fill="#000000" fill-rule="evenodd" fill-opacity="1" /><path clip-path="url(#clip440)" d="M1232.34 1544.01 Q1231.36 1543.44 1230.18 1543.18 Q1229.03 1542.9 1227.63 1542.9 Q1222.67 1542.9 1219.99 1546.14 Q1217.35 1549.36 1217.35 1555.41 L1217.35 1574.19 L1211.46 1574.19 L1211.46 1538.54 L1217.35 1538.54 L1217.35 1544.08 Q1219.2 1540.83 1222.16 1539.27 Q1225.12 1537.68 1229.35 1537.68 Q1229.96 1537.68 1230.69 1537.77 Q1231.42 1537.84 1232.31 1538 L1232.34 1544.01 Z" fill="#000000" fill-rule="evenodd" fill-opacity="1" /><path clip-path="url(#clip440)" d="M1254.69 1556.27 Q1247.59 1556.27 1244.85 1557.89 Q1242.11 1559.51 1242.11 1563.43 Q1242.11 1566.55 1244.15 1568.39 Q1246.22 1570.21 1249.75 1570.21 Q1254.62 1570.21 1257.55 1566.77 Q1260.51 1563.3 1260.51 1557.57 L1260.51 1556.27 L1254.69 1556.27 M1266.37 1553.85 L1266.37 1574.19 L1260.51 1574.19 L1260.51 1568.77 Q1258.51 1572.02 1255.51 1573.58 Q1252.52 1575.11 1248.19 1575.11 Q1242.72 1575.11 1239.47 1572.05 Q1236.26 1568.97 1236.26 1563.81 Q1236.26 1557.79 1240.27 1554.74 Q1244.31 1551.68 1252.3 1551.68 L1260.51 1551.68 L1260.51 1551.11 Q1260.51 1547.07 1257.84 1544.87 Q1255.2 1542.64 1250.39 1542.64 Q1247.33 1542.64 1244.44 1543.38 Q1241.54 1544.11 1238.87 1545.57 L1238.87 1540.16 Q1242.08 1538.92 1245.11 1538.31 Q1248.13 1537.68 1250.99 1537.68 Q1258.73 1537.68 1262.55 1541.69 Q1266.37 1545.7 1266.37 1553.85 Z" fill="#000000" fill-rule="evenodd" fill-opacity="1" /><path clip-path="url(#clip440)" d="M1284.22 1528.42 L1284.22 1538.54 L1296.29 1538.54 L1296.29 1543.09 L1284.22 1543.09 L1284.22 1562.44 Q1284.22 1566.8 1285.4 1568.04 Q1286.61 1569.28 1290.27 1569.28 L1296.29 1569.28 L1296.29 1574.19 L1290.27 1574.19 Q1283.49 1574.19 1280.91 1571.67 Q1278.34 1569.12 1278.34 1562.44 L1278.34 1543.09 L1274.04 1543.09 L1274.04 1538.54 L1278.34 1538.54 L1278.34 1528.42 L1284.22 1528.42 Z" fill="#000000" fill-rule="evenodd" fill-opacity="1" /><path clip-path="url(#clip440)" d="M1303.99 1538.54 L1309.85 1538.54 L1309.85 1574.19 L1303.99 1574.19 L1303.99 1538.54 M1303.99 1524.66 L1309.85 1524.66 L1309.85 1532.08 L1303.99 1532.08 L1303.99 1524.66 Z" fill="#000000" fill-rule="evenodd" fill-opacity="1" /><path clip-path="url(#clip440)" d="M1335.91 1542.64 Q1331.2 1542.64 1328.47 1546.34 Q1325.73 1550 1325.73 1556.39 Q1325.73 1562.79 1328.43 1566.48 Q1331.17 1570.14 1335.91 1570.14 Q1340.59 1570.14 1343.33 1566.45 Q1346.07 1562.76 1346.07 1556.39 Q1346.07 1550.06 1343.33 1546.37 Q1340.59 1542.64 1335.91 1542.64 M1335.91 1537.68 Q1343.55 1537.68 1347.91 1542.64 Q1352.27 1547.61 1352.27 1556.39 Q1352.27 1565.15 1347.91 1570.14 Q1343.55 1575.11 1335.91 1575.11 Q1328.24 1575.11 1323.88 1570.14 Q1319.55 1565.15 1319.55 1556.39 Q1319.55 1547.61 1323.88 1542.64 Q1328.24 1537.68 1335.91 1537.68 Z" fill="#000000" fill-rule="evenodd" fill-opacity="1" /><path clip-path="url(#clip440)" d="M1391.61 1552.67 L1391.61 1574.19 L1385.76 1574.19 L1385.76 1552.86 Q1385.76 1547.8 1383.78 1545.29 Q1381.81 1542.77 1377.86 1542.77 Q1373.12 1542.77 1370.38 1545.79 Q1367.65 1548.82 1367.65 1554.04 L1367.65 1574.19 L1361.76 1574.19 L1361.76 1538.54 L1367.65 1538.54 L1367.65 1544.08 Q1369.75 1540.86 1372.58 1539.27 Q1375.44 1537.68 1379.17 1537.68 Q1385.31 1537.68 1388.46 1541.5 Q1391.61 1545.29 1391.61 1552.67 Z" fill="#000000" fill-rule="evenodd" fill-opacity="1" /><path clip-path="url(#clip440)" d="M1426.02 1539.59 L1426.02 1545.13 Q1423.54 1543.85 1420.86 1543.22 Q1418.19 1542.58 1415.33 1542.58 Q1410.96 1542.58 1408.77 1543.92 Q1406.6 1545.25 1406.6 1547.93 Q1406.6 1549.96 1408.16 1551.14 Q1409.72 1552.29 1414.43 1553.34 L1416.44 1553.78 Q1422.68 1555.12 1425.29 1557.57 Q1427.93 1559.99 1427.93 1564.35 Q1427.93 1569.32 1423.98 1572.21 Q1420.07 1575.11 1413.19 1575.11 Q1410.33 1575.11 1407.21 1574.54 Q1404.12 1573.99 1400.68 1572.88 L1400.68 1566.83 Q1403.93 1568.52 1407.08 1569.38 Q1410.23 1570.21 1413.32 1570.21 Q1417.46 1570.21 1419.69 1568.81 Q1421.91 1567.37 1421.91 1564.8 Q1421.91 1562.41 1420.29 1561.14 Q1418.7 1559.86 1413.26 1558.68 L1411.22 1558.21 Q1405.78 1557.06 1403.36 1554.71 Q1400.94 1552.32 1400.94 1548.18 Q1400.94 1543.15 1404.5 1540.42 Q1408.07 1537.68 1414.62 1537.68 Q1417.87 1537.68 1420.74 1538.16 Q1423.6 1538.63 1426.02 1539.59 Z" fill="#000000" fill-rule="evenodd" fill-opacity="1" /><polyline clip-path="url(#clip442)" style="stroke:#000000; stroke-linecap:round; stroke-linejoin:round; stroke-width:2; stroke-opacity:0.1; fill:none" points="
  202.227,1175.82 2352.76,1175.82 
  "/>
<polyline clip-path="url(#clip442)" style="stroke:#000000; stroke-linecap:round; stroke-linejoin:round; stroke-width:2; stroke-opacity:0.1; fill:none" points="
  202.227,801.58 2352.76,801.58 
  "/>
<polyline clip-path="url(#clip442)" style="stroke:#000000; stroke-linecap:round; stroke-linejoin:round; stroke-width:2; stroke-opacity:0.1; fill:none" points="
  202.227,427.336 2352.76,427.336 
  "/>
<polyline clip-path="url(#clip442)" style="stroke:#000000; stroke-linecap:round; stroke-linejoin:round; stroke-width:2; stroke-opacity:0.1; fill:none" points="
  202.227,53.0917 2352.76,53.0917 
  "/>
<polyline clip-path="url(#clip440)" style="stroke:#000000; stroke-linecap:round; stroke-linejoin:round; stroke-width:4; stroke-opacity:1; fill:none" points="
  202.227,1410.9 202.227,47.2441 
  "/>
<polyline clip-path="url(#clip440)" style="stroke:#000000; stroke-linecap:round; stroke-linejoin:round; stroke-width:4; stroke-opacity:1; fill:none" points="
  202.227,1175.82 221.125,1175.82 
  "/>
<polyline clip-path="url(#clip440)" style="stroke:#000000; stroke-linecap:round; stroke-linejoin:round; stroke-width:4; stroke-opacity:1; fill:none" points="
  202.227,801.58 221.125,801.58 
  "/>
<polyline clip-path="url(#clip440)" style="stroke:#000000; stroke-linecap:round; stroke-linejoin:round; stroke-width:4; stroke-opacity:1; fill:none" points="
  202.227,427.336 221.125,427.336 
  "/>
<polyline clip-path="url(#clip440)" style="stroke:#000000; stroke-linecap:round; stroke-linejoin:round; stroke-width:4; stroke-opacity:1; fill:none" points="
  202.227,53.0917 221.125,53.0917 
  "/>
<path clip-path="url(#clip440)" d="M156.644 1162.62 L144.839 1181.07 L156.644 1181.07 L156.644 1162.62 M155.417 1158.54 L161.297 1158.54 L161.297 1181.07 L166.227 1181.07 L166.227 1184.96 L161.297 1184.96 L161.297 1193.1 L156.644 1193.1 L156.644 1184.96 L141.042 1184.96 L141.042 1180.44 L155.417 1158.54 Z" fill="#000000" fill-rule="evenodd" fill-opacity="1" /><path clip-path="url(#clip440)" d="M154.7 799.717 Q151.552 799.717 149.7 801.87 Q147.871 804.022 147.871 807.772 Q147.871 811.499 149.7 813.675 Q151.552 815.828 154.7 815.828 Q157.848 815.828 159.677 813.675 Q161.528 811.499 161.528 807.772 Q161.528 804.022 159.677 801.87 Q157.848 799.717 154.7 799.717 M163.982 785.064 L163.982 789.323 Q162.223 788.49 160.417 788.05 Q158.635 787.61 156.876 787.61 Q152.246 787.61 149.792 790.735 Q147.362 793.86 147.015 800.18 Q148.38 798.166 150.441 797.101 Q152.501 796.013 154.978 796.013 Q160.186 796.013 163.195 799.184 Q166.227 802.333 166.227 807.772 Q166.227 813.096 163.079 816.314 Q159.931 819.531 154.7 819.531 Q148.704 819.531 145.533 814.948 Q142.362 810.342 142.362 801.615 Q142.362 793.421 146.251 788.559 Q150.14 783.675 156.69 783.675 Q158.45 783.675 160.232 784.022 Q162.038 784.37 163.982 785.064 Z" fill="#000000" fill-rule="evenodd" fill-opacity="1" /><path clip-path="url(#clip440)" d="M154.376 428.204 Q151.042 428.204 149.121 429.986 Q147.223 431.769 147.223 434.894 Q147.223 438.019 149.121 439.801 Q151.042 441.584 154.376 441.584 Q157.709 441.584 159.63 439.801 Q161.552 437.996 161.552 434.894 Q161.552 431.769 159.63 429.986 Q157.732 428.204 154.376 428.204 M149.7 426.213 Q146.691 425.473 145.001 423.412 Q143.334 421.352 143.334 418.389 Q143.334 414.246 146.274 411.838 Q149.237 409.431 154.376 409.431 Q159.538 409.431 162.477 411.838 Q165.417 414.246 165.417 418.389 Q165.417 421.352 163.727 423.412 Q162.061 425.473 159.075 426.213 Q162.454 427 164.329 429.292 Q166.227 431.584 166.227 434.894 Q166.227 439.917 163.149 442.602 Q160.093 445.287 154.376 445.287 Q148.658 445.287 145.579 442.602 Q142.524 439.917 142.524 434.894 Q142.524 431.584 144.422 429.292 Q146.32 427 149.7 426.213 M147.987 418.829 Q147.987 421.514 149.653 423.019 Q151.343 424.523 154.376 424.523 Q157.385 424.523 159.075 423.019 Q160.788 421.514 160.788 418.829 Q160.788 416.144 159.075 414.639 Q157.385 413.135 154.376 413.135 Q151.343 413.135 149.653 414.639 Q147.987 416.144 147.987 418.829 Z" fill="#000000" fill-rule="evenodd" fill-opacity="1" /><path clip-path="url(#clip440)" d="M114.931 66.4365 L122.57 66.4365 L122.57 40.0709 L114.26 41.7376 L114.26 37.4783 L122.524 35.8117 L127.2 35.8117 L127.2 66.4365 L134.839 66.4365 L134.839 70.3717 L114.931 70.3717 L114.931 66.4365 Z" fill="#000000" fill-rule="evenodd" fill-opacity="1" /><path clip-path="url(#clip440)" d="M154.283 38.8903 Q150.672 38.8903 148.843 42.4551 Q147.038 45.9968 147.038 53.1264 Q147.038 60.2328 148.843 63.7976 Q150.672 67.3393 154.283 67.3393 Q157.917 67.3393 159.723 63.7976 Q161.552 60.2328 161.552 53.1264 Q161.552 45.9968 159.723 42.4551 Q157.917 38.8903 154.283 38.8903 M154.283 35.1867 Q160.093 35.1867 163.149 39.7931 Q166.227 44.3764 166.227 53.1264 Q166.227 61.8532 163.149 66.4596 Q160.093 71.043 154.283 71.043 Q148.473 71.043 145.394 66.4596 Q142.339 61.8532 142.339 53.1264 Q142.339 44.3764 145.394 39.7931 Q148.473 35.1867 154.283 35.1867 Z" fill="#000000" fill-rule="evenodd" fill-opacity="1" /><path clip-path="url(#clip440)" d="M22.818 1126.31 L46.4666 1135.03 L46.4666 1117.55 L22.818 1126.31 M16.4842 1129.93 L16.4842 1122.65 L64.0042 1104.54 L64.0042 1111.22 L51.8138 1115.55 L51.8138 1136.97 L64.0042 1141.3 L64.0042 1148.08 L16.4842 1129.93 Z" fill="#000000" fill-rule="evenodd" fill-opacity="1" /><path clip-path="url(#clip440)" d="M28.3562 1105.87 L28.3562 1099.67 L58.275 1088.53 L28.3562 1077.39 L28.3562 1071.18 L64.0042 1084.55 L64.0042 1092.5 L28.3562 1105.87 Z" fill="#000000" fill-rule="evenodd" fill-opacity="1" /><path clip-path="url(#clip440)" d="M44.7161 1032.6 L47.5806 1032.6 L47.5806 1059.53 Q53.6281 1059.15 56.8109 1055.9 Q59.9619 1052.62 59.9619 1046.8 Q59.9619 1043.42 59.1344 1040.27 Q58.3069 1037.09 56.6518 1033.97 L62.1899 1033.97 Q63.5267 1037.12 64.227 1040.43 Q64.9272 1043.74 64.9272 1047.15 Q64.9272 1055.68 59.9619 1060.68 Q54.9967 1065.64 46.5303 1065.64 Q37.7774 1065.64 32.6531 1060.93 Q27.4968 1056.19 27.4968 1048.17 Q27.4968 1040.97 32.1438 1036.8 Q36.7589 1032.6 44.7161 1032.6 M42.9973 1038.46 Q38.1912 1038.52 35.3266 1041.17 Q32.4621 1043.77 32.4621 1048.1 Q32.4621 1053.01 35.2312 1055.97 Q38.0002 1058.89 43.0292 1059.34 L42.9973 1038.46 Z" fill="#000000" fill-rule="evenodd" fill-opacity="1" /><path clip-path="url(#clip440)" d="M33.8307 1002.33 Q33.2578 1003.32 33.0032 1004.5 Q32.7167 1005.64 32.7167 1007.04 Q32.7167 1012.01 35.9632 1014.68 Q39.1779 1017.33 45.2253 1017.33 L64.0042 1017.33 L64.0042 1023.21 L28.3562 1023.21 L28.3562 1017.33 L33.8944 1017.33 Q30.6479 1015.48 29.0883 1012.52 Q27.4968 1009.56 27.4968 1005.33 Q27.4968 1004.72 27.5923 1003.99 Q27.656 1003.26 27.8151 1002.37 L33.8307 1002.33 Z" fill="#000000" fill-rule="evenodd" fill-opacity="1" /><path clip-path="url(#clip440)" d="M46.0847 979.991 Q46.0847 987.088 47.7079 989.826 Q49.3312 992.563 53.2461 992.563 Q56.3653 992.563 58.2114 990.526 Q60.0256 988.457 60.0256 984.924 Q60.0256 980.054 56.5881 977.126 Q53.1188 974.166 47.3897 974.166 L46.0847 974.166 L46.0847 979.991 M43.6657 968.31 L64.0042 968.31 L64.0042 974.166 L58.5933 974.166 Q61.8398 976.171 63.3994 979.163 Q64.9272 982.155 64.9272 986.484 Q64.9272 991.958 61.8716 995.205 Q58.7843 998.419 53.6281 998.419 Q47.6125 998.419 44.5569 994.409 Q41.5014 990.367 41.5014 982.378 L41.5014 974.166 L40.9285 974.166 Q36.8862 974.166 34.6901 976.84 Q32.4621 979.481 32.4621 984.287 Q32.4621 987.343 33.1941 990.239 Q33.9262 993.136 35.3903 995.809 L29.9795 995.809 Q28.7381 992.595 28.1334 989.571 Q27.4968 986.547 27.4968 983.683 Q27.4968 975.948 31.5072 972.129 Q35.5176 968.31 43.6657 968.31 Z" fill="#000000" fill-rule="evenodd" fill-opacity="1" /><path clip-path="url(#clip440)" d="M45.7664 932.789 Q39.4007 932.789 35.8996 935.431 Q32.3984 938.041 32.3984 942.783 Q32.3984 947.494 35.8996 950.135 Q39.4007 952.745 45.7664 952.745 Q52.1003 952.745 55.6014 950.135 Q59.1026 947.494 59.1026 942.783 Q59.1026 938.041 55.6014 935.431 Q52.1003 932.789 45.7664 932.789 M59.58 926.932 Q68.683 926.932 73.1071 930.975 Q77.5631 935.017 77.5631 943.356 Q77.5631 946.443 77.0857 949.181 Q76.6401 951.918 75.6852 954.496 L69.9879 954.496 Q71.3884 951.918 72.0568 949.403 Q72.7252 946.889 72.7252 944.279 Q72.7252 938.518 69.7015 935.653 Q66.7096 932.789 60.6303 932.789 L57.7339 932.789 Q60.885 934.603 62.4446 937.436 Q64.0042 940.269 64.0042 944.215 Q64.0042 950.772 59.0071 954.782 Q54.01 958.793 45.7664 958.793 Q37.491 958.793 32.4939 954.782 Q27.4968 950.772 27.4968 944.215 Q27.4968 940.269 29.0564 937.436 Q30.616 934.603 33.7671 932.789 L28.3562 932.789 L28.3562 926.932 L59.58 926.932 Z" fill="#000000" fill-rule="evenodd" fill-opacity="1" /><path clip-path="url(#clip440)" d="M44.7161 884.378 L47.5806 884.378 L47.5806 911.305 Q53.6281 910.923 56.8109 907.676 Q59.9619 904.398 59.9619 898.573 Q59.9619 895.199 59.1344 892.048 Q58.3069 888.866 56.6518 885.746 L62.1899 885.746 Q63.5267 888.897 64.227 892.208 Q64.9272 895.518 64.9272 898.923 Q64.9272 907.453 59.9619 912.45 Q54.9967 917.416 46.5303 917.416 Q37.7774 917.416 32.6531 912.705 Q27.4968 907.963 27.4968 899.942 Q27.4968 892.749 32.1438 888.579 Q36.7589 884.378 44.7161 884.378 M42.9973 890.234 Q38.1912 890.298 35.3266 892.94 Q32.4621 895.55 32.4621 899.878 Q32.4621 904.78 35.2312 907.74 Q38.0002 910.668 43.0292 911.114 L42.9973 890.234 Z" fill="#000000" fill-rule="evenodd" fill-opacity="1" /><path clip-path="url(#clip440)" d="M20.1444 818.206 L26.9239 818.206 Q23.9002 821.453 22.4043 825.145 Q20.9083 828.805 20.9083 832.943 Q20.9083 841.091 25.9054 845.42 Q30.8707 849.748 40.2919 849.748 Q49.6813 849.748 54.6784 845.42 Q59.6436 841.091 59.6436 832.943 Q59.6436 828.805 58.1477 825.145 Q56.6518 821.453 53.6281 818.206 L60.3439 818.206 Q62.6355 821.58 63.7814 825.368 Q64.9272 829.123 64.9272 833.325 Q64.9272 844.115 58.3387 850.321 Q51.7183 856.528 40.2919 856.528 Q28.8336 856.528 22.2451 850.321 Q15.6248 844.115 15.6248 833.325 Q15.6248 829.06 16.7706 825.304 Q17.8846 821.516 20.1444 818.206 Z" fill="#000000" fill-rule="evenodd" fill-opacity="1" /><path clip-path="url(#clip440)" d="M32.4621 794.717 Q32.4621 799.427 36.1542 802.165 Q39.8145 804.902 46.212 804.902 Q52.6095 804.902 56.3017 802.196 Q59.9619 799.459 59.9619 794.717 Q59.9619 790.038 56.2698 787.301 Q52.5777 784.563 46.212 784.563 Q39.8781 784.563 36.186 787.301 Q32.4621 790.038 32.4621 794.717 M27.4968 794.717 Q27.4968 787.078 32.4621 782.717 Q37.4273 778.357 46.212 778.357 Q54.9649 778.357 59.9619 782.717 Q64.9272 787.078 64.9272 794.717 Q64.9272 802.387 59.9619 806.748 Q54.9649 811.077 46.212 811.077 Q37.4273 811.077 32.4621 806.748 Q27.4968 802.387 27.4968 794.717 Z" fill="#000000" fill-rule="evenodd" fill-opacity="1" /><path clip-path="url(#clip440)" d="M35.1993 740.895 Q31.2526 738.698 29.3747 735.643 Q27.4968 732.587 27.4968 728.45 Q27.4968 722.88 31.4117 719.856 Q35.2948 716.832 42.4881 716.832 L64.0042 716.832 L64.0042 722.721 L42.679 722.721 Q37.5546 722.721 35.072 724.535 Q32.5894 726.349 32.5894 730.073 Q32.5894 734.624 35.6131 737.266 Q38.6368 739.908 43.8567 739.908 L64.0042 739.908 L64.0042 745.796 L42.679 745.796 Q37.5228 745.796 35.072 747.61 Q32.5894 749.425 32.5894 753.212 Q32.5894 757.7 35.6449 760.342 Q38.6686 762.984 43.8567 762.984 L64.0042 762.984 L64.0042 768.872 L28.3562 768.872 L28.3562 762.984 L33.8944 762.984 Q30.616 760.978 29.0564 758.178 Q27.4968 755.377 27.4968 751.525 Q27.4968 747.642 29.4702 744.937 Q31.4436 742.2 35.1993 740.895 Z" fill="#000000" fill-rule="evenodd" fill-opacity="1" /><path clip-path="url(#clip440)" d="M58.657 699.486 L77.5631 699.486 L77.5631 705.374 L28.3562 705.374 L28.3562 699.486 L33.7671 699.486 Q30.5842 697.64 29.0564 694.839 Q27.4968 692.006 27.4968 688.091 Q27.4968 681.598 32.6531 677.556 Q37.8093 673.482 46.212 673.482 Q54.6147 673.482 59.771 677.556 Q64.9272 681.598 64.9272 688.091 Q64.9272 692.006 63.3994 694.839 Q61.8398 697.64 58.657 699.486 M46.212 679.561 Q39.7508 679.561 36.0905 682.235 Q32.3984 684.876 32.3984 689.523 Q32.3984 694.17 36.0905 696.844 Q39.7508 699.486 46.212 699.486 Q52.6732 699.486 56.3653 696.844 Q60.0256 694.17 60.0256 689.523 Q60.0256 684.876 56.3653 682.235 Q52.6732 679.561 46.212 679.561 Z" fill="#000000" fill-rule="evenodd" fill-opacity="1" /><path clip-path="url(#clip440)" d="M14.479 663.774 L14.479 657.918 L64.0042 657.918 L64.0042 663.774 L14.479 663.774 Z" fill="#000000" fill-rule="evenodd" fill-opacity="1" /><path clip-path="url(#clip440)" d="M44.7161 615.172 L47.5806 615.172 L47.5806 642.099 Q53.6281 641.717 56.8109 638.47 Q59.9619 635.192 59.9619 629.367 Q59.9619 625.994 59.1344 622.843 Q58.3069 619.66 56.6518 616.541 L62.1899 616.541 Q63.5267 619.692 64.227 623.002 Q64.9272 626.312 64.9272 629.718 Q64.9272 638.248 59.9619 643.245 Q54.9967 648.21 46.5303 648.21 Q37.7774 648.21 32.6531 643.499 Q27.4968 638.757 27.4968 630.736 Q27.4968 623.543 32.1438 619.373 Q36.7589 615.172 44.7161 615.172 M42.9973 621.028 Q38.1912 621.092 35.3266 623.734 Q32.4621 626.344 32.4621 630.672 Q32.4621 635.574 35.2312 638.534 Q38.0002 641.462 43.0292 641.908 L42.9973 621.028 Z" fill="#000000" fill-rule="evenodd" fill-opacity="1" /><path clip-path="url(#clip440)" d="M18.2347 599.767 L28.3562 599.767 L28.3562 587.704 L32.9077 587.704 L32.9077 599.767 L52.2594 599.767 Q56.6199 599.767 57.8613 598.589 Q59.1026 597.38 59.1026 593.72 L59.1026 587.704 L64.0042 587.704 L64.0042 593.72 Q64.0042 600.499 61.4897 603.077 Q58.9434 605.655 52.2594 605.655 L32.9077 605.655 L32.9077 609.952 L28.3562 609.952 L28.3562 605.655 L18.2347 605.655 L18.2347 599.767 Z" fill="#000000" fill-rule="evenodd" fill-opacity="1" /><path clip-path="url(#clip440)" d="M28.3562 580.001 L28.3562 574.145 L64.0042 574.145 L64.0042 580.001 L28.3562 580.001 M14.479 580.001 L14.479 574.145 L21.895 574.145 L21.895 580.001 L14.479 580.001 Z" fill="#000000" fill-rule="evenodd" fill-opacity="1" /><path clip-path="url(#clip440)" d="M32.4621 548.077 Q32.4621 552.788 36.1542 555.525 Q39.8145 558.263 46.212 558.263 Q52.6095 558.263 56.3017 555.557 Q59.9619 552.82 59.9619 548.077 Q59.9619 543.399 56.2698 540.661 Q52.5777 537.924 46.212 537.924 Q39.8781 537.924 36.186 540.661 Q32.4621 543.399 32.4621 548.077 M27.4968 548.077 Q27.4968 540.439 32.4621 536.078 Q37.4273 531.718 46.212 531.718 Q54.9649 531.718 59.9619 536.078 Q64.9272 540.439 64.9272 548.077 Q64.9272 555.748 59.9619 560.109 Q54.9649 564.437 46.212 564.437 Q37.4273 564.437 32.4621 560.109 Q27.4968 555.748 27.4968 548.077 Z" fill="#000000" fill-rule="evenodd" fill-opacity="1" /><path clip-path="url(#clip440)" d="M42.4881 492.377 L64.0042 492.377 L64.0042 498.234 L42.679 498.234 Q37.6183 498.234 35.1038 500.207 Q32.5894 502.181 32.5894 506.127 Q32.5894 510.87 35.6131 513.607 Q38.6368 516.344 43.8567 516.344 L64.0042 516.344 L64.0042 522.233 L28.3562 522.233 L28.3562 516.344 L33.8944 516.344 Q30.6797 514.244 29.0883 511.411 Q27.4968 508.546 27.4968 504.822 Q27.4968 498.68 31.3163 495.529 Q35.1038 492.377 42.4881 492.377 Z" fill="#000000" fill-rule="evenodd" fill-opacity="1" /><path clip-path="url(#clip440)" d="M16.4842 466.31 L16.4842 426.11 L21.895 426.11 L21.895 442.98 L64.0042 442.98 L64.0042 449.441 L21.895 449.441 L21.895 466.31 L16.4842 466.31 Z" fill="#000000" fill-rule="evenodd" fill-opacity="1" /><path clip-path="url(#clip440)" d="M28.3562 422.164 L28.3562 416.307 L64.0042 416.307 L64.0042 422.164 L28.3562 422.164 M14.479 422.164 L14.479 416.307 L21.895 416.307 L21.895 422.164 L14.479 422.164 Z" fill="#000000" fill-rule="evenodd" fill-opacity="1" /><path clip-path="url(#clip440)" d="M35.1993 376.299 Q31.2526 374.103 29.3747 371.047 Q27.4968 367.992 27.4968 363.854 Q27.4968 358.284 31.4117 355.26 Q35.2948 352.236 42.4881 352.236 L64.0042 352.236 L64.0042 358.125 L42.679 358.125 Q37.5546 358.125 35.072 359.939 Q32.5894 361.753 32.5894 365.477 Q32.5894 370.029 35.6131 372.67 Q38.6368 375.312 43.8567 375.312 L64.0042 375.312 L64.0042 381.2 L42.679 381.2 Q37.5228 381.2 35.072 383.015 Q32.5894 384.829 32.5894 388.616 Q32.5894 393.104 35.6449 395.746 Q38.6686 398.388 43.8567 398.388 L64.0042 398.388 L64.0042 404.276 L28.3562 404.276 L28.3562 398.388 L33.8944 398.388 Q30.616 396.383 29.0564 393.582 Q27.4968 390.781 27.4968 386.93 Q27.4968 383.046 29.4702 380.341 Q31.4436 377.604 35.1993 376.299 Z" fill="#000000" fill-rule="evenodd" fill-opacity="1" /><path clip-path="url(#clip440)" d="M44.7161 310.064 L47.5806 310.064 L47.5806 336.991 Q53.6281 336.609 56.8109 333.362 Q59.9619 330.084 59.9619 324.259 Q59.9619 320.885 59.1344 317.734 Q58.3069 314.551 56.6518 311.432 L62.1899 311.432 Q63.5267 314.583 64.227 317.893 Q64.9272 321.204 64.9272 324.609 Q64.9272 333.139 59.9619 338.136 Q54.9967 343.102 46.5303 343.102 Q37.7774 343.102 32.6531 338.391 Q27.4968 333.649 27.4968 325.628 Q27.4968 318.435 32.1438 314.265 Q36.7589 310.064 44.7161 310.064 M42.9973 315.92 Q38.1912 315.984 35.3266 318.626 Q32.4621 321.235 32.4621 325.564 Q32.4621 330.466 35.2312 333.426 Q38.0002 336.354 43.0292 336.8 L42.9973 315.92 Z" fill="#000000" fill-rule="evenodd" fill-opacity="1" /><polyline clip-path="url(#clip442)" style="stroke:#009af9; stroke-linecap:round; stroke-linejoin:round; stroke-width:4; stroke-opacity:1; fill:none" points="
  796.986,1274.06 802.071,663.578 
  "/>
<polyline clip-path="url(#clip442)" style="stroke:#009af9; stroke-linecap:round; stroke-linejoin:round; stroke-width:4; stroke-opacity:1; fill:none" points="
  812.24,403.946 817.325,85.838 822.41,697.387 827.495,749.271 832.579,926.808 837.664,560.271 842.749,727.901 847.833,715.036 852.918,1028.74 858.003,880.576 
  863.088,848.086 868.172,945.962 873.257,934.627 878.342,1004.57 883.426,981.467 888.511,1056.03 893.596,971.502 898.681,1056.29 903.765,1011.84 908.85,1002.77 
  913.935,1076.87 919.019,1063.65 924.104,1086 929.189,1075.26 934.274,1124.18 939.358,1129.46 944.443,1099.49 949.528,1169.01 954.612,1176.23 959.697,1147.81 
  964.782,1188.59 969.867,1157.36 974.951,1179.08 980.036,1184.72 985.121,1158.38 990.205,1217.78 995.29,1185.64 1000.37,1212.6 1005.46,1236.02 1010.54,1223.22 
  1015.63,1209.75 1020.71,1226.14 1025.8,1227.71 1030.88,1205.47 1035.97,1219.94 1041.05,1183.16 1046.14,1256.83 1051.22,1248.12 1056.31,1223.9 1061.39,1220.67 
  1066.48,1221.85 1071.56,1250.3 1076.65,1215.89 1081.73,1246.9 1086.81,1257.9 1091.9,1249.53 1096.98,1251.7 1102.07,1256.99 1107.15,1230.97 1112.24,1257.13 
  1117.32,1268.16 1122.41,1269.97 1127.49,1244.12 1132.58,1228.13 1137.66,1251.68 1142.75,1255.92 1147.83,1241.83 1152.92,1248.66 1158,1251.63 1163.09,1252.05 
  1168.17,1251.87 1173.26,1266.79 1178.34,1265.6 1183.42,1279.73 1188.51,1270.23 1193.59,1272.38 1198.68,1281.95 1203.76,1281.53 1208.85,1283.28 1213.93,1262.27 
  1219.02,1279.89 1224.1,1265.6 1229.19,1255.3 1234.27,1251.09 1239.36,1259.04 1244.44,1242.7 1249.53,1251.12 1254.61,1277.28 1259.7,1289.92 1264.78,1282.72 
  1269.86,1274.65 1274.95,1267.68 1280.03,1281.38 1285.12,1294.07 1290.2,1274.32 1295.29,1282.69 1300.37,1277.71 1305.46,1268.38 1310.54,1274.34 1315.63,1291.13 
  1320.71,1265.18 1325.8,1254.18 1330.88,1274.67 1335.97,1261.95 1341.05,1230.84 1346.14,1291.28 1351.22,1291.4 1356.3,1268.52 1361.39,1298.41 1366.47,1300.68 
  1371.56,1291.91 1376.64,1274.42 1381.73,1285.81 1386.81,1259.49 1391.9,1279.58 1396.98,1280.87 1402.07,1260.01 1407.15,1239.77 1412.24,1253.04 1417.32,1296.28 
  1422.41,1267.63 1427.49,1253.06 1432.58,1275.9 1437.66,1257.6 1442.74,1284.52 1447.83,1296.54 1452.91,1275.94 1458,1272.68 1463.08,1250.25 1468.17,1261.11 
  1473.25,1255.05 1478.34,1276.87 1483.42,1282.86 1488.51,1288.26 1493.59,1279.87 1498.68,1284.24 1503.76,1270.33 1508.85,1279.44 1513.93,1309.06 1519.02,1304.47 
  1524.1,1289.1 1529.18,1271.68 1534.27,1269.99 1539.35,1247.45 1544.44,1279.26 1549.52,1287.93 1554.61,1297.41 1559.69,1293.34 1564.78,1294.46 1569.86,1305.48 
  1574.95,1307.14 1580.03,1284.1 1585.12,1267.75 1590.2,1287.25 1595.29,1290.57 1600.37,1291.63 1605.46,1284.93 1610.54,1299.97 1615.63,1286.8 1620.71,1283.68 
  1625.79,1299.16 1630.88,1303.91 1635.96,1284.05 1641.05,1281.07 1646.13,1271.58 1651.22,1290.85 1656.3,1281.05 1661.39,1295.53 1666.47,1303.24 1671.56,1314.43 
  1676.64,1287.67 1681.73,1289.55 1686.81,1310.18 1691.9,1286.43 1696.98,1288 1702.07,1289.81 1707.15,1288.97 1712.23,1303.28 1717.32,1286.88 1722.4,1260.45 
  1727.49,1273.24 1732.57,1309.66 1737.66,1296.05 1742.74,1294.55 1747.83,1296.66 1752.91,1287.37 1758,1294.6 1763.08,1289.67 1768.17,1303.25 1773.25,1312.94 
  1778.34,1294.86 1783.42,1273.17 1788.51,1277.36 1793.59,1275.36 1798.67,1264.71 1803.76,1264.29 1808.84,1264.38 1813.93,1261.04 1819.01,1274.58 1824.1,1254.65 
  1829.18,1289.62 1834.27,1276.52 1839.35,1267.98 1844.44,1267.54 1849.52,1283.61 1854.61,1273.67 1859.69,1279.98 1864.78,1280.99 1869.86,1284.29 1874.95,1273.53 
  1880.03,1258.55 1885.11,1253.85 1890.2,1267.96 1895.28,1250.88 1900.37,1266.13 1905.45,1259.79 1910.54,1291.53 1915.62,1274.56 1920.71,1284.89 1925.79,1298.18 
  1930.88,1302.69 1935.96,1274.53 1941.05,1286.1 1946.13,1282.91 1951.22,1282.95 1956.3,1269.5 1961.39,1301.24 1966.47,1291.68 1971.55,1299.75 1976.64,1254.58 
  1981.72,1270.32 1986.81,1280.19 1991.89,1266.04 1996.98,1259.94 2002.06,1241.95 2007.15,1279.75 2012.23,1287.93 2017.32,1288.26 2022.4,1275.91 2027.49,1263.35 
  2032.57,1291.83 2037.66,1296.7 2042.74,1285.55 2047.83,1271.35 2052.91,1285.68 2058,1288.17 2063.08,1269.13 2068.16,1281.48 2073.25,1262.15 2078.33,1260.66 
  2083.42,1278.27 2088.5,1285.81 2093.59,1285.74 2098.67,1302.2 2103.76,1300.6 2108.84,1291.65 2113.93,1289.64 2119.01,1264.59 2124.1,1290.9 2129.18,1287.65 
  2134.27,1284.97 2139.35,1292.47 2144.44,1279.79 2149.52,1279.16 2154.6,1269.55 2159.69,1269.22 2164.77,1267.44 2169.86,1271.21 2174.94,1265.32 2180.03,1285.55 
  2185.11,1279.02 2190.2,1265.25 2195.28,1274.86 2200.37,1250.63 2205.45,1255.33 2210.54,1262.16 2215.62,1276.87 2220.71,1283.8 2225.79,1260.29 2230.88,1283.56 
  2235.96,1235.34 2241.04,1248.19 2246.13,1271.96 2251.21,1273.99 2256.3,1258.3 2261.38,1270.93 2266.47,1254.49 2271.55,1266.81 2276.64,1256.32 2281.72,1246.88 
  2286.81,1262.35 2291.89,1263.86 
  "/>
</svg>
