<?xml version="1.0" encoding="utf-8"?>
<svg xmlns="http://www.w3.org/2000/svg" xmlns:xlink="http://www.w3.org/1999/xlink" width="600" height="400" viewBox="0 0 2400 1600">
<defs>
  <clipPath id="clip360">
    <rect x="0" y="0" width="2400" height="1600"/>
  </clipPath>
</defs>
<path clip-path="url(#clip360)" d="
M0 1600 L2400 1600 L2400 0 L0 0  Z
  " fill="#ffffff" fill-rule="evenodd" fill-opacity="1"/>
<defs>
  <clipPath id="clip361">
    <rect x="480" y="0" width="1681" height="1600"/>
  </clipPath>
</defs>
<path clip-path="url(#clip360)" d="
M219.033 1410.9 L2352.76 1410.9 L2352.76 47.2441 L219.033 47.2441  Z
  " fill="#ffffff" fill-rule="evenodd" fill-opacity="1"/>
<defs>
  <clipPath id="clip362">
    <rect x="219" y="47" width="2135" height="1365"/>
  </clipPath>
</defs>
<polyline clip-path="url(#clip362)" style="stroke:#000000; stroke-linecap:round; stroke-linejoin:round; stroke-width:2; stroke-opacity:0.1; fill:none" points="
  274.376,1410.9 274.376,47.2441 
  "/>
<polyline clip-path="url(#clip362)" style="stroke:#000000; stroke-linecap:round; stroke-linejoin:round; stroke-width:2; stroke-opacity:0.1; fill:none" points="
  778.874,1410.9 778.874,47.2441 
  "/>
<polyline clip-path="url(#clip362)" style="stroke:#000000; stroke-linecap:round; stroke-linejoin:round; stroke-width:2; stroke-opacity:0.1; fill:none" points="
  1283.37,1410.9 1283.37,47.2441 
  "/>
<polyline clip-path="url(#clip362)" style="stroke:#000000; stroke-linecap:round; stroke-linejoin:round; stroke-width:2; stroke-opacity:0.1; fill:none" points="
  1787.87,1410.9 1787.87,47.2441 
  "/>
<polyline clip-path="url(#clip362)" style="stroke:#000000; stroke-linecap:round; stroke-linejoin:round; stroke-width:2; stroke-opacity:0.1; fill:none" points="
  2292.37,1410.9 2292.37,47.2441 
  "/>
<polyline clip-path="url(#clip360)" style="stroke:#000000; stroke-linecap:round; stroke-linejoin:round; stroke-width:4; stroke-opacity:1; fill:none" points="
  219.033,1410.9 2352.76,1410.9 
  "/>
<polyline clip-path="url(#clip360)" style="stroke:#000000; stroke-linecap:round; stroke-linejoin:round; stroke-width:4; stroke-opacity:1; fill:none" points="
  274.376,1410.9 274.376,1392 
  "/>
<polyline clip-path="url(#clip360)" style="stroke:#000000; stroke-linecap:round; stroke-linejoin:round; stroke-width:4; stroke-opacity:1; fill:none" points="
  778.874,1410.9 778.874,1392 
  "/>
<polyline clip-path="url(#clip360)" style="stroke:#000000; stroke-linecap:round; stroke-linejoin:round; stroke-width:4; stroke-opacity:1; fill:none" points="
  1283.37,1410.9 1283.37,1392 
  "/>
<polyline clip-path="url(#clip360)" style="stroke:#000000; stroke-linecap:round; stroke-linejoin:round; stroke-width:4; stroke-opacity:1; fill:none" points="
  1787.87,1410.9 1787.87,1392 
  "/>
<polyline clip-path="url(#clip360)" style="stroke:#000000; stroke-linecap:round; stroke-linejoin:round; stroke-width:4; stroke-opacity:1; fill:none" points="
  2292.37,1410.9 2292.37,1392 
  "/>
<path clip-path="url(#clip360)" d="M274.376 1441.82 Q270.765 1441.82 268.937 1445.38 Q267.131 1448.92 267.131 1456.05 Q267.131 1463.16 268.937 1466.72 Q270.765 1470.26 274.376 1470.26 Q278.011 1470.26 279.816 1466.72 Q281.645 1463.16 281.645 1456.05 Q281.645 1448.92 279.816 1445.38 Q278.011 1441.82 274.376 1441.82 M274.376 1438.11 Q280.186 1438.11 283.242 1442.72 Q286.321 1447.3 286.321 1456.05 Q286.321 1464.78 283.242 1469.38 Q280.186 1473.97 274.376 1473.97 Q268.566 1473.97 265.488 1469.38 Q262.432 1464.78 262.432 1456.05 Q262.432 1447.3 265.488 1442.72 Q268.566 1438.11 274.376 1438.11 Z" fill="#000000" fill-rule="evenodd" fill-opacity="1" /><path clip-path="url(#clip360)" d="M686.976 1485.02 L694.615 1485.02 L694.615 1458.66 L686.305 1460.32 L686.305 1456.06 L694.569 1454.4 L699.245 1454.4 L699.245 1485.02 L706.884 1485.02 L706.884 1488.96 L686.976 1488.96 L686.976 1485.02 Z" fill="#000000" fill-rule="evenodd" fill-opacity="1" /><path clip-path="url(#clip360)" d="M716.328 1483.08 L721.212 1483.08 L721.212 1488.96 L716.328 1488.96 L716.328 1483.08 Z" fill="#000000" fill-rule="evenodd" fill-opacity="1" /><path clip-path="url(#clip360)" d="M741.397 1457.48 Q737.786 1457.48 735.958 1461.04 Q734.152 1464.58 734.152 1471.71 Q734.152 1478.82 735.958 1482.38 Q737.786 1485.92 741.397 1485.92 Q745.032 1485.92 746.837 1482.38 Q748.666 1478.82 748.666 1471.71 Q748.666 1464.58 746.837 1461.04 Q745.032 1457.48 741.397 1457.48 M741.397 1453.77 Q747.208 1453.77 750.263 1458.38 Q753.342 1462.96 753.342 1471.71 Q753.342 1480.44 750.263 1485.04 Q747.208 1489.63 741.397 1489.63 Q735.587 1489.63 732.509 1485.04 Q729.453 1480.44 729.453 1471.71 Q729.453 1462.96 732.509 1458.38 Q735.587 1453.77 741.397 1453.77 Z" fill="#000000" fill-rule="evenodd" fill-opacity="1" /><path clip-path="url(#clip360)" d="M789.731 1463.49 L779.152 1474.12 L789.731 1484.7 L786.976 1487.5 L776.351 1476.87 L765.726 1487.5 L762.995 1484.7 L773.55 1474.12 L762.995 1463.49 L765.726 1460.69 L776.351 1471.32 L786.976 1460.69 L789.731 1463.49 Z" fill="#000000" fill-rule="evenodd" fill-opacity="1" /><path clip-path="url(#clip360)" d="M802.092 1485.02 L809.73 1485.02 L809.73 1458.66 L801.42 1460.32 L801.42 1456.06 L809.684 1454.4 L814.36 1454.4 L814.36 1485.02 L821.999 1485.02 L821.999 1488.96 L802.092 1488.96 L802.092 1485.02 Z" fill="#000000" fill-rule="evenodd" fill-opacity="1" /><path clip-path="url(#clip360)" d="M841.443 1457.48 Q837.832 1457.48 836.003 1461.04 Q834.198 1464.58 834.198 1471.71 Q834.198 1478.82 836.003 1482.38 Q837.832 1485.92 841.443 1485.92 Q845.077 1485.92 846.883 1482.38 Q848.712 1478.82 848.712 1471.71 Q848.712 1464.58 846.883 1461.04 Q845.077 1457.48 841.443 1457.48 M841.443 1453.77 Q847.253 1453.77 850.309 1458.38 Q853.388 1462.96 853.388 1471.71 Q853.388 1480.44 850.309 1485.04 Q847.253 1489.63 841.443 1489.63 Q835.633 1489.63 832.554 1485.04 Q829.499 1480.44 829.499 1471.71 Q829.499 1462.96 832.554 1458.38 Q835.633 1453.77 841.443 1453.77 Z" fill="#000000" fill-rule="evenodd" fill-opacity="1" /><path clip-path="url(#clip360)" d="M853.388 1433.47 L871.443 1433.47 L871.443 1435.08 L861.249 1461.55 L857.281 1461.55 L866.873 1436.66 L853.388 1436.66 L853.388 1433.47 Z" fill="#000000" fill-rule="evenodd" fill-opacity="1" /><path clip-path="url(#clip360)" d="M1195.56 1485.02 L1211.88 1485.02 L1211.88 1488.96 L1189.93 1488.96 L1189.93 1485.02 Q1192.6 1482.27 1197.18 1477.64 Q1201.79 1472.98 1202.97 1471.64 Q1205.21 1469.12 1206.09 1467.38 Q1207 1465.62 1207 1463.93 Q1207 1461.18 1205.05 1459.44 Q1203.13 1457.71 1200.03 1457.71 Q1197.83 1457.71 1195.37 1458.47 Q1192.94 1459.23 1190.17 1460.79 L1190.17 1456.06 Q1192.99 1454.93 1195.44 1454.35 Q1197.9 1453.77 1199.93 1453.77 Q1205.31 1453.77 1208.5 1456.46 Q1211.69 1459.14 1211.69 1463.63 Q1211.69 1465.76 1210.88 1467.68 Q1210.1 1469.58 1207.99 1472.17 Q1207.41 1472.85 1204.31 1476.06 Q1201.21 1479.26 1195.56 1485.02 Z" fill="#000000" fill-rule="evenodd" fill-opacity="1" /><path clip-path="url(#clip360)" d="M1221.69 1483.08 L1226.58 1483.08 L1226.58 1488.96 L1221.69 1488.96 L1221.69 1483.08 Z" fill="#000000" fill-rule="evenodd" fill-opacity="1" /><path clip-path="url(#clip360)" d="M1246.76 1457.48 Q1243.15 1457.48 1241.32 1461.04 Q1239.52 1464.58 1239.52 1471.71 Q1239.52 1478.82 1241.32 1482.38 Q1243.15 1485.92 1246.76 1485.92 Q1250.4 1485.92 1252.2 1482.38 Q1254.03 1478.82 1254.03 1471.71 Q1254.03 1464.58 1252.2 1461.04 Q1250.4 1457.48 1246.76 1457.48 M1246.76 1453.77 Q1252.57 1453.77 1255.63 1458.38 Q1258.71 1462.96 1258.71 1471.71 Q1258.71 1480.44 1255.63 1485.04 Q1252.57 1489.63 1246.76 1489.63 Q1240.95 1489.63 1237.87 1485.04 Q1234.82 1480.44 1234.82 1471.71 Q1234.82 1462.96 1237.87 1458.38 Q1240.95 1453.77 1246.76 1453.77 Z" fill="#000000" fill-rule="evenodd" fill-opacity="1" /><path clip-path="url(#clip360)" d="M1295.1 1463.49 L1284.52 1474.12 L1295.1 1484.7 L1292.34 1487.5 L1281.72 1476.87 L1271.09 1487.5 L1268.36 1484.7 L1278.92 1474.12 L1268.36 1463.49 L1271.09 1460.69 L1281.72 1471.32 L1292.34 1460.69 L1295.1 1463.49 Z" fill="#000000" fill-rule="evenodd" fill-opacity="1" /><path clip-path="url(#clip360)" d="M1307.46 1485.02 L1315.1 1485.02 L1315.1 1458.66 L1306.79 1460.32 L1306.79 1456.06 L1315.05 1454.4 L1319.73 1454.4 L1319.73 1485.02 L1327.36 1485.02 L1327.36 1488.96 L1307.46 1488.96 L1307.46 1485.02 Z" fill="#000000" fill-rule="evenodd" fill-opacity="1" /><path clip-path="url(#clip360)" d="M1346.81 1457.48 Q1343.2 1457.48 1341.37 1461.04 Q1339.56 1464.58 1339.56 1471.71 Q1339.56 1478.82 1341.37 1482.38 Q1343.2 1485.92 1346.81 1485.92 Q1350.44 1485.92 1352.25 1482.38 Q1354.08 1478.82 1354.08 1471.71 Q1354.08 1464.58 1352.25 1461.04 Q1350.44 1457.48 1346.81 1457.48 M1346.81 1453.77 Q1352.62 1453.77 1355.67 1458.38 Q1358.75 1462.96 1358.75 1471.71 Q1358.75 1480.44 1355.67 1485.04 Q1352.62 1489.63 1346.81 1489.63 Q1341 1489.63 1337.92 1485.04 Q1334.86 1480.44 1334.86 1471.71 Q1334.86 1462.96 1337.92 1458.38 Q1341 1453.77 1346.81 1453.77 Z" fill="#000000" fill-rule="evenodd" fill-opacity="1" /><path clip-path="url(#clip360)" d="M1358.75 1433.47 L1376.81 1433.47 L1376.81 1435.08 L1366.62 1461.55 L1362.65 1461.55 L1372.24 1436.66 L1358.75 1436.66 L1358.75 1433.47 Z" fill="#000000" fill-rule="evenodd" fill-opacity="1" /><path clip-path="url(#clip360)" d="M1710.13 1470.32 Q1713.48 1471.04 1715.36 1473.31 Q1717.26 1475.58 1717.26 1478.91 Q1717.26 1484.03 1713.74 1486.83 Q1710.22 1489.63 1703.74 1489.63 Q1701.56 1489.63 1699.25 1489.19 Q1696.96 1488.77 1694.5 1487.91 L1694.5 1483.4 Q1696.45 1484.54 1698.76 1485.11 Q1701.08 1485.69 1703.6 1485.69 Q1708 1485.69 1710.29 1483.96 Q1712.6 1482.22 1712.6 1478.91 Q1712.6 1475.85 1710.45 1474.14 Q1708.32 1472.41 1704.5 1472.41 L1700.47 1472.41 L1700.47 1468.56 L1704.69 1468.56 Q1708.14 1468.56 1709.97 1467.2 Q1711.79 1465.81 1711.79 1463.22 Q1711.79 1460.55 1709.9 1459.14 Q1708.02 1457.71 1704.5 1457.71 Q1702.58 1457.71 1700.38 1458.12 Q1698.18 1458.54 1695.54 1459.42 L1695.54 1455.25 Q1698.21 1454.51 1700.52 1454.14 Q1702.86 1453.77 1704.92 1453.77 Q1710.24 1453.77 1713.34 1456.2 Q1716.45 1458.61 1716.45 1462.73 Q1716.45 1465.6 1714.8 1467.59 Q1713.16 1469.56 1710.13 1470.32 Z" fill="#000000" fill-rule="evenodd" fill-opacity="1" /><path clip-path="url(#clip360)" d="M1726.12 1483.08 L1731.01 1483.08 L1731.01 1488.96 L1726.12 1488.96 L1726.12 1483.08 Z" fill="#000000" fill-rule="evenodd" fill-opacity="1" /><path clip-path="url(#clip360)" d="M1751.19 1457.48 Q1747.58 1457.48 1745.75 1461.04 Q1743.95 1464.58 1743.95 1471.71 Q1743.95 1478.82 1745.75 1482.38 Q1747.58 1485.92 1751.19 1485.92 Q1754.83 1485.92 1756.63 1482.38 Q1758.46 1478.82 1758.46 1471.71 Q1758.46 1464.58 1756.63 1461.04 Q1754.83 1457.48 1751.19 1457.48 M1751.19 1453.77 Q1757 1453.77 1760.06 1458.38 Q1763.14 1462.96 1763.14 1471.71 Q1763.14 1480.44 1760.06 1485.04 Q1757 1489.63 1751.19 1489.63 Q1745.38 1489.63 1742.3 1485.04 Q1739.25 1480.44 1739.25 1471.71 Q1739.25 1462.96 1742.3 1458.38 Q1745.38 1453.77 1751.19 1453.77 Z" fill="#000000" fill-rule="evenodd" fill-opacity="1" /><path clip-path="url(#clip360)" d="M1799.52 1463.49 L1788.95 1474.12 L1799.52 1484.7 L1796.77 1487.5 L1786.15 1476.87 L1775.52 1487.5 L1772.79 1484.7 L1783.34 1474.12 L1772.79 1463.49 L1775.52 1460.69 L1786.15 1471.32 L1796.77 1460.69 L1799.52 1463.49 Z" fill="#000000" fill-rule="evenodd" fill-opacity="1" /><path clip-path="url(#clip360)" d="M1811.89 1485.02 L1819.52 1485.02 L1819.52 1458.66 L1811.21 1460.32 L1811.21 1456.06 L1819.48 1454.4 L1824.15 1454.4 L1824.15 1485.02 L1831.79 1485.02 L1831.79 1488.96 L1811.89 1488.96 L1811.89 1485.02 Z" fill="#000000" fill-rule="evenodd" fill-opacity="1" /><path clip-path="url(#clip360)" d="M1851.24 1457.48 Q1847.63 1457.48 1845.8 1461.04 Q1843.99 1464.58 1843.99 1471.71 Q1843.99 1478.82 1845.8 1482.38 Q1847.63 1485.92 1851.24 1485.92 Q1854.87 1485.92 1856.68 1482.38 Q1858.51 1478.82 1858.51 1471.71 Q1858.51 1464.58 1856.68 1461.04 Q1854.87 1457.48 1851.24 1457.48 M1851.24 1453.77 Q1857.05 1453.77 1860.1 1458.38 Q1863.18 1462.96 1863.18 1471.71 Q1863.18 1480.44 1860.1 1485.04 Q1857.05 1489.63 1851.24 1489.63 Q1845.43 1489.63 1842.35 1485.04 Q1839.29 1480.44 1839.29 1471.71 Q1839.29 1462.96 1842.35 1458.38 Q1845.43 1453.77 1851.24 1453.77 Z" fill="#000000" fill-rule="evenodd" fill-opacity="1" /><path clip-path="url(#clip360)" d="M1863.18 1433.47 L1881.24 1433.47 L1881.24 1435.08 L1871.04 1461.55 L1867.08 1461.55 L1876.67 1436.66 L1863.18 1436.66 L1863.18 1433.47 Z" fill="#000000" fill-rule="evenodd" fill-opacity="1" /><path clip-path="url(#clip360)" d="M2213.95 1458.47 L2202.15 1476.92 L2213.95 1476.92 L2213.95 1458.47 M2212.73 1454.4 L2218.61 1454.4 L2218.61 1476.92 L2223.54 1476.92 L2223.54 1480.81 L2218.61 1480.81 L2218.61 1488.96 L2213.95 1488.96 L2213.95 1480.81 L2198.35 1480.81 L2198.35 1476.29 L2212.73 1454.4 Z" fill="#000000" fill-rule="evenodd" fill-opacity="1" /><path clip-path="url(#clip360)" d="M2231.27 1483.08 L2236.15 1483.08 L2236.15 1488.96 L2231.27 1488.96 L2231.27 1483.08 Z" fill="#000000" fill-rule="evenodd" fill-opacity="1" /><path clip-path="url(#clip360)" d="M2256.34 1457.48 Q2252.73 1457.48 2250.9 1461.04 Q2249.09 1464.58 2249.09 1471.71 Q2249.09 1478.82 2250.9 1482.38 Q2252.73 1485.92 2256.34 1485.92 Q2259.97 1485.92 2261.78 1482.38 Q2263.61 1478.82 2263.61 1471.71 Q2263.61 1464.58 2261.78 1461.04 Q2259.97 1457.48 2256.34 1457.48 M2256.34 1453.77 Q2262.15 1453.77 2265.2 1458.38 Q2268.28 1462.96 2268.28 1471.71 Q2268.28 1480.44 2265.2 1485.04 Q2262.15 1489.63 2256.34 1489.63 Q2250.53 1489.63 2247.45 1485.04 Q2244.39 1480.44 2244.39 1471.71 Q2244.39 1462.96 2247.45 1458.38 Q2250.53 1453.77 2256.34 1453.77 Z" fill="#000000" fill-rule="evenodd" fill-opacity="1" /><path clip-path="url(#clip360)" d="M2304.67 1463.49 L2294.09 1474.12 L2304.67 1484.7 L2301.92 1487.5 L2291.29 1476.87 L2280.67 1487.5 L2277.93 1484.7 L2288.49 1474.12 L2277.93 1463.49 L2280.67 1460.69 L2291.29 1471.32 L2301.92 1460.69 L2304.67 1463.49 Z" fill="#000000" fill-rule="evenodd" fill-opacity="1" /><path clip-path="url(#clip360)" d="M2317.03 1485.02 L2324.67 1485.02 L2324.67 1458.66 L2316.36 1460.32 L2316.36 1456.06 L2324.62 1454.4 L2329.3 1454.4 L2329.3 1485.02 L2336.94 1485.02 L2336.94 1488.96 L2317.03 1488.96 L2317.03 1485.02 Z" fill="#000000" fill-rule="evenodd" fill-opacity="1" /><path clip-path="url(#clip360)" d="M2356.38 1457.48 Q2352.77 1457.48 2350.94 1461.04 Q2349.14 1464.58 2349.14 1471.71 Q2349.14 1478.82 2350.94 1482.38 Q2352.77 1485.92 2356.38 1485.92 Q2360.02 1485.92 2361.82 1482.38 Q2363.65 1478.82 2363.65 1471.71 Q2363.65 1464.58 2361.82 1461.04 Q2360.02 1457.48 2356.38 1457.48 M2356.38 1453.77 Q2362.19 1453.77 2365.25 1458.38 Q2368.33 1462.96 2368.33 1471.71 Q2368.33 1480.44 2365.25 1485.04 Q2362.19 1489.63 2356.38 1489.63 Q2350.57 1489.63 2347.49 1485.04 Q2344.44 1480.44 2344.44 1471.71 Q2344.44 1462.96 2347.49 1458.38 Q2350.57 1453.77 2356.38 1453.77 Z" fill="#000000" fill-rule="evenodd" fill-opacity="1" /><path clip-path="url(#clip360)" d="M2368.33 1433.47 L2386.38 1433.47 L2386.38 1435.08 L2376.19 1461.55 L2372.22 1461.55 L2381.81 1436.66 L2368.33 1436.66 L2368.33 1433.47 Z" fill="#000000" fill-rule="evenodd" fill-opacity="1" /><path clip-path="url(#clip360)" d="M1135.46 1526.67 L1141.89 1526.67 L1141.89 1574.19 L1135.46 1574.19 L1135.46 1526.67 Z" fill="#000000" fill-rule="evenodd" fill-opacity="1" /><path clip-path="url(#clip360)" d="M1160.22 1528.42 L1160.22 1538.54 L1172.28 1538.54 L1172.28 1543.09 L1160.22 1543.09 L1160.22 1562.44 Q1160.22 1566.8 1161.4 1568.04 Q1162.61 1569.28 1166.27 1569.28 L1172.28 1569.28 L1172.28 1574.19 L1166.27 1574.19 Q1159.49 1574.19 1156.91 1571.67 Q1154.33 1569.12 1154.33 1562.44 L1154.33 1543.09 L1150.03 1543.09 L1150.03 1538.54 L1154.33 1538.54 L1154.33 1528.42 L1160.22 1528.42 Z" fill="#000000" fill-rule="evenodd" fill-opacity="1" /><path clip-path="url(#clip360)" d="M1210.48 1554.9 L1210.48 1557.76 L1183.55 1557.76 Q1183.93 1563.81 1187.18 1566.99 Q1190.46 1570.14 1196.28 1570.14 Q1199.66 1570.14 1202.81 1569.32 Q1205.99 1568.49 1209.11 1566.83 L1209.11 1572.37 Q1205.96 1573.71 1202.65 1574.41 Q1199.34 1575.11 1195.93 1575.11 Q1187.4 1575.11 1182.4 1570.14 Q1177.44 1565.18 1177.44 1556.71 Q1177.44 1547.96 1182.15 1542.83 Q1186.89 1537.68 1194.91 1537.68 Q1202.11 1537.68 1206.28 1542.33 Q1210.48 1546.94 1210.48 1554.9 M1204.62 1553.18 Q1204.56 1548.37 1201.91 1545.51 Q1199.3 1542.64 1194.98 1542.64 Q1190.07 1542.64 1187.11 1545.41 Q1184.19 1548.18 1183.74 1553.21 L1204.62 1553.18 Z" fill="#000000" fill-rule="evenodd" fill-opacity="1" /><path clip-path="url(#clip360)" d="M1240.75 1544.01 Q1239.76 1543.44 1238.58 1543.18 Q1237.44 1542.9 1236.04 1542.9 Q1231.07 1542.9 1228.4 1546.14 Q1225.75 1549.36 1225.75 1555.41 L1225.75 1574.19 L1219.87 1574.19 L1219.87 1538.54 L1225.75 1538.54 L1225.75 1544.08 Q1227.6 1540.83 1230.56 1539.27 Q1233.52 1537.68 1237.75 1537.68 Q1238.36 1537.68 1239.09 1537.77 Q1239.82 1537.84 1240.71 1538 L1240.75 1544.01 Z" fill="#000000" fill-rule="evenodd" fill-opacity="1" /><path clip-path="url(#clip360)" d="M1263.09 1556.27 Q1255.99 1556.27 1253.25 1557.89 Q1250.52 1559.51 1250.52 1563.43 Q1250.52 1566.55 1252.55 1568.39 Q1254.62 1570.21 1258.16 1570.21 Q1263.03 1570.21 1265.95 1566.77 Q1268.91 1563.3 1268.91 1557.57 L1268.91 1556.27 L1263.09 1556.27 M1274.77 1553.85 L1274.77 1574.19 L1268.91 1574.19 L1268.91 1568.77 Q1266.91 1572.02 1263.92 1573.58 Q1260.92 1575.11 1256.6 1575.11 Q1251.12 1575.11 1247.88 1572.05 Q1244.66 1568.97 1244.66 1563.81 Q1244.66 1557.79 1248.67 1554.74 Q1252.71 1551.68 1260.7 1551.68 L1268.91 1551.68 L1268.91 1551.11 Q1268.91 1547.07 1266.24 1544.87 Q1263.6 1542.64 1258.79 1542.64 Q1255.74 1542.64 1252.84 1543.38 Q1249.94 1544.11 1247.27 1545.57 L1247.27 1540.16 Q1250.49 1538.92 1253.51 1538.31 Q1256.53 1537.68 1259.4 1537.68 Q1267.13 1537.68 1270.95 1541.69 Q1274.77 1545.7 1274.77 1553.85 Z" fill="#000000" fill-rule="evenodd" fill-opacity="1" /><path clip-path="url(#clip360)" d="M1292.63 1528.42 L1292.63 1538.54 L1304.69 1538.54 L1304.69 1543.09 L1292.63 1543.09 L1292.63 1562.44 Q1292.63 1566.8 1293.8 1568.04 Q1295.01 1569.28 1298.67 1569.28 L1304.69 1569.28 L1304.69 1574.19 L1298.67 1574.19 Q1291.89 1574.19 1289.32 1571.67 Q1286.74 1569.12 1286.74 1562.44 L1286.74 1543.09 L1282.44 1543.09 L1282.44 1538.54 L1286.74 1538.54 L1286.74 1528.42 L1292.63 1528.42 Z" fill="#000000" fill-rule="evenodd" fill-opacity="1" /><path clip-path="url(#clip360)" d="M1312.39 1538.54 L1318.25 1538.54 L1318.25 1574.19 L1312.39 1574.19 L1312.39 1538.54 M1312.39 1524.66 L1318.25 1524.66 L1318.25 1532.08 L1312.39 1532.08 L1312.39 1524.66 Z" fill="#000000" fill-rule="evenodd" fill-opacity="1" /><path clip-path="url(#clip360)" d="M1344.32 1542.64 Q1339.61 1542.64 1336.87 1546.34 Q1334.13 1550 1334.13 1556.39 Q1334.13 1562.79 1336.84 1566.48 Q1339.57 1570.14 1344.32 1570.14 Q1348.99 1570.14 1351.73 1566.45 Q1354.47 1562.76 1354.47 1556.39 Q1354.47 1550.06 1351.73 1546.37 Q1348.99 1542.64 1344.32 1542.64 M1344.32 1537.68 Q1351.95 1537.68 1356.32 1542.64 Q1360.68 1547.61 1360.68 1556.39 Q1360.68 1565.15 1356.32 1570.14 Q1351.95 1575.11 1344.32 1575.11 Q1336.65 1575.11 1332.28 1570.14 Q1327.96 1565.15 1327.96 1556.39 Q1327.96 1547.61 1332.28 1542.64 Q1336.65 1537.68 1344.32 1537.68 Z" fill="#000000" fill-rule="evenodd" fill-opacity="1" /><path clip-path="url(#clip360)" d="M1400.02 1552.67 L1400.02 1574.19 L1394.16 1574.19 L1394.16 1552.86 Q1394.16 1547.8 1392.19 1545.29 Q1390.21 1542.77 1386.27 1542.77 Q1381.52 1542.77 1378.79 1545.79 Q1376.05 1548.82 1376.05 1554.04 L1376.05 1574.19 L1370.16 1574.19 L1370.16 1538.54 L1376.05 1538.54 L1376.05 1544.08 Q1378.15 1540.86 1380.98 1539.27 Q1383.85 1537.68 1387.57 1537.68 Q1393.71 1537.68 1396.86 1541.5 Q1400.02 1545.29 1400.02 1552.67 Z" fill="#000000" fill-rule="evenodd" fill-opacity="1" /><path clip-path="url(#clip360)" d="M1434.42 1539.59 L1434.42 1545.13 Q1431.94 1543.85 1429.27 1543.22 Q1426.59 1542.58 1423.73 1542.58 Q1419.37 1542.58 1417.17 1543.92 Q1415.01 1545.25 1415.01 1547.93 Q1415.01 1549.96 1416.57 1551.14 Q1418.13 1552.29 1422.84 1553.34 L1424.84 1553.78 Q1431.08 1555.12 1433.69 1557.57 Q1436.33 1559.99 1436.33 1564.35 Q1436.33 1569.32 1432.39 1572.21 Q1428.47 1575.11 1421.6 1575.11 Q1418.73 1575.11 1415.61 1574.54 Q1412.52 1573.99 1409.09 1572.88 L1409.09 1566.83 Q1412.33 1568.52 1415.48 1569.38 Q1418.64 1570.21 1421.72 1570.21 Q1425.86 1570.21 1428.09 1568.81 Q1430.32 1567.37 1430.32 1564.8 Q1430.32 1562.41 1428.69 1561.14 Q1427.1 1559.86 1421.66 1558.68 L1419.62 1558.21 Q1414.18 1557.06 1411.76 1554.71 Q1409.34 1552.32 1409.34 1548.18 Q1409.34 1543.15 1412.91 1540.42 Q1416.47 1537.68 1423.03 1537.68 Q1426.27 1537.68 1429.14 1538.16 Q1432 1538.63 1434.42 1539.59 Z" fill="#000000" fill-rule="evenodd" fill-opacity="1" /><polyline clip-path="url(#clip362)" style="stroke:#000000; stroke-linecap:round; stroke-linejoin:round; stroke-width:2; stroke-opacity:0.1; fill:none" points="
  219.033,1308.38 2352.76,1308.38 
  "/>
<polyline clip-path="url(#clip362)" style="stroke:#000000; stroke-linecap:round; stroke-linejoin:round; stroke-width:2; stroke-opacity:0.1; fill:none" points="
  219.033,963.641 2352.76,963.641 
  "/>
<polyline clip-path="url(#clip362)" style="stroke:#000000; stroke-linecap:round; stroke-linejoin:round; stroke-width:2; stroke-opacity:0.1; fill:none" points="
  219.033,618.903 2352.76,618.903 
  "/>
<polyline clip-path="url(#clip362)" style="stroke:#000000; stroke-linecap:round; stroke-linejoin:round; stroke-width:2; stroke-opacity:0.1; fill:none" points="
  219.033,274.165 2352.76,274.165 
  "/>
<polyline clip-path="url(#clip360)" style="stroke:#000000; stroke-linecap:round; stroke-linejoin:round; stroke-width:4; stroke-opacity:1; fill:none" points="
  219.033,1410.9 219.033,47.2441 
  "/>
<polyline clip-path="url(#clip360)" style="stroke:#000000; stroke-linecap:round; stroke-linejoin:round; stroke-width:4; stroke-opacity:1; fill:none" points="
  219.033,1308.38 237.931,1308.38 
  "/>
<polyline clip-path="url(#clip360)" style="stroke:#000000; stroke-linecap:round; stroke-linejoin:round; stroke-width:4; stroke-opacity:1; fill:none" points="
  219.033,963.641 237.931,963.641 
  "/>
<polyline clip-path="url(#clip360)" style="stroke:#000000; stroke-linecap:round; stroke-linejoin:round; stroke-width:4; stroke-opacity:1; fill:none" points="
  219.033,618.903 237.931,618.903 
  "/>
<polyline clip-path="url(#clip360)" style="stroke:#000000; stroke-linecap:round; stroke-linejoin:round; stroke-width:4; stroke-opacity:1; fill:none" points="
  219.033,274.165 237.931,274.165 
  "/>
<path clip-path="url(#clip360)" d="M116.668 1321.72 L124.306 1321.72 L124.306 1295.36 L115.996 1297.02 L115.996 1292.77 L124.26 1291.1 L128.936 1291.1 L128.936 1321.72 L136.575 1321.72 L136.575 1325.66 L116.668 1325.66 L116.668 1321.72 Z" fill="#000000" fill-rule="evenodd" fill-opacity="1" /><path clip-path="url(#clip360)" d="M146.019 1319.78 L150.903 1319.78 L150.903 1325.66 L146.019 1325.66 L146.019 1319.78 Z" fill="#000000" fill-rule="evenodd" fill-opacity="1" /><path clip-path="url(#clip360)" d="M171.089 1294.18 Q167.477 1294.18 165.649 1297.74 Q163.843 1301.28 163.843 1308.41 Q163.843 1315.52 165.649 1319.08 Q167.477 1322.63 171.089 1322.63 Q174.723 1322.63 176.528 1319.08 Q178.357 1315.52 178.357 1308.41 Q178.357 1301.28 176.528 1297.74 Q174.723 1294.18 171.089 1294.18 M171.089 1290.47 Q176.899 1290.47 179.954 1295.08 Q183.033 1299.66 183.033 1308.41 Q183.033 1317.14 179.954 1321.75 Q176.899 1326.33 171.089 1326.33 Q165.278 1326.33 162.2 1321.75 Q159.144 1317.14 159.144 1308.41 Q159.144 1299.66 162.2 1295.08 Q165.278 1290.47 171.089 1290.47 Z" fill="#000000" fill-rule="evenodd" fill-opacity="1" /><path clip-path="url(#clip360)" d="M117.663 976.986 L125.302 976.986 L125.302 950.62 L116.992 952.287 L116.992 948.027 L125.255 946.361 L129.931 946.361 L129.931 976.986 L137.57 976.986 L137.57 980.921 L117.663 980.921 L117.663 976.986 Z" fill="#000000" fill-rule="evenodd" fill-opacity="1" /><path clip-path="url(#clip360)" d="M147.015 975.041 L151.899 975.041 L151.899 980.921 L147.015 980.921 L147.015 975.041 Z" fill="#000000" fill-rule="evenodd" fill-opacity="1" /><path clip-path="url(#clip360)" d="M162.13 946.361 L180.487 946.361 L180.487 950.296 L166.413 950.296 L166.413 958.768 Q167.431 958.421 168.45 958.259 Q169.468 958.074 170.487 958.074 Q176.274 958.074 179.653 961.245 Q183.033 964.416 183.033 969.833 Q183.033 975.411 179.561 978.513 Q176.089 981.592 169.769 981.592 Q167.593 981.592 165.325 981.222 Q163.079 980.851 160.672 980.111 L160.672 975.411 Q162.755 976.546 164.977 977.101 Q167.2 977.657 169.677 977.657 Q173.681 977.657 176.019 975.55 Q178.357 973.444 178.357 969.833 Q178.357 966.222 176.019 964.115 Q173.681 962.009 169.677 962.009 Q167.802 962.009 165.927 962.425 Q164.075 962.842 162.13 963.722 L162.13 946.361 Z" fill="#000000" fill-rule="evenodd" fill-opacity="1" /><path clip-path="url(#clip360)" d="M119.885 632.248 L136.204 632.248 L136.204 636.183 L114.26 636.183 L114.26 632.248 Q116.922 629.493 121.505 624.864 Q126.112 620.211 127.292 618.868 Q129.538 616.345 130.417 614.609 Q131.32 612.85 131.32 611.16 Q131.32 608.405 129.376 606.669 Q127.455 604.933 124.353 604.933 Q122.154 604.933 119.7 605.697 Q117.269 606.461 114.492 608.012 L114.492 603.29 Q117.316 602.155 119.769 601.577 Q122.223 600.998 124.26 600.998 Q129.63 600.998 132.825 603.683 Q136.019 606.368 136.019 610.859 Q136.019 612.989 135.209 614.91 Q134.422 616.808 132.316 619.401 Q131.737 620.072 128.635 623.29 Q125.533 626.484 119.885 632.248 Z" fill="#000000" fill-rule="evenodd" fill-opacity="1" /><path clip-path="url(#clip360)" d="M146.019 630.303 L150.903 630.303 L150.903 636.183 L146.019 636.183 L146.019 630.303 Z" fill="#000000" fill-rule="evenodd" fill-opacity="1" /><path clip-path="url(#clip360)" d="M171.089 604.702 Q167.477 604.702 165.649 608.267 Q163.843 611.808 163.843 618.938 Q163.843 626.044 165.649 629.609 Q167.477 633.151 171.089 633.151 Q174.723 633.151 176.528 629.609 Q178.357 626.044 178.357 618.938 Q178.357 611.808 176.528 608.267 Q174.723 604.702 171.089 604.702 M171.089 600.998 Q176.899 600.998 179.954 605.605 Q183.033 610.188 183.033 618.938 Q183.033 627.665 179.954 632.271 Q176.899 636.854 171.089 636.854 Q165.278 636.854 162.2 632.271 Q159.144 627.665 159.144 618.938 Q159.144 610.188 162.2 605.605 Q165.278 600.998 171.089 600.998 Z" fill="#000000" fill-rule="evenodd" fill-opacity="1" /><path clip-path="url(#clip360)" d="M120.88 287.51 L137.2 287.51 L137.2 291.445 L115.256 291.445 L115.256 287.51 Q117.918 284.756 122.501 280.126 Q127.107 275.473 128.288 274.131 Q130.533 271.608 131.413 269.871 Q132.316 268.112 132.316 266.422 Q132.316 263.668 130.371 261.932 Q128.45 260.196 125.348 260.196 Q123.149 260.196 120.695 260.959 Q118.265 261.723 115.487 263.274 L115.487 258.552 Q118.311 257.418 120.765 256.839 Q123.218 256.26 125.255 256.26 Q130.626 256.26 133.82 258.946 Q137.015 261.631 137.015 266.121 Q137.015 268.251 136.204 270.172 Q135.417 272.07 133.311 274.663 Q132.732 275.334 129.63 278.552 Q126.529 281.746 120.88 287.51 Z" fill="#000000" fill-rule="evenodd" fill-opacity="1" /><path clip-path="url(#clip360)" d="M147.015 285.566 L151.899 285.566 L151.899 291.445 L147.015 291.445 L147.015 285.566 Z" fill="#000000" fill-rule="evenodd" fill-opacity="1" /><path clip-path="url(#clip360)" d="M162.13 256.885 L180.487 256.885 L180.487 260.821 L166.413 260.821 L166.413 269.293 Q167.431 268.946 168.45 268.783 Q169.468 268.598 170.487 268.598 Q176.274 268.598 179.653 271.77 Q183.033 274.941 183.033 280.357 Q183.033 285.936 179.561 289.038 Q176.089 292.117 169.769 292.117 Q167.593 292.117 165.325 291.746 Q163.079 291.376 160.672 290.635 L160.672 285.936 Q162.755 287.07 164.977 287.626 Q167.2 288.182 169.677 288.182 Q173.681 288.182 176.019 286.075 Q178.357 283.969 178.357 280.357 Q178.357 276.746 176.019 274.64 Q173.681 272.533 169.677 272.533 Q167.802 272.533 165.927 272.95 Q164.075 273.367 162.13 274.246 L162.13 256.885 Z" fill="#000000" fill-rule="evenodd" fill-opacity="1" /><path clip-path="url(#clip360)" d="M22.818 978.129 L46.4666 986.85 L46.4666 969.376 L22.818 978.129 M16.4842 981.757 L16.4842 974.468 L64.0042 956.358 L64.0042 963.042 L51.8138 967.371 L51.8138 988.791 L64.0042 993.12 L64.0042 999.899 L16.4842 981.757 Z" fill="#000000" fill-rule="evenodd" fill-opacity="1" /><path clip-path="url(#clip360)" d="M28.3562 957.695 L28.3562 951.488 L58.275 940.348 L28.3562 929.208 L28.3562 923.002 L64.0042 936.37 L64.0042 944.327 L28.3562 957.695 Z" fill="#000000" fill-rule="evenodd" fill-opacity="1" /><path clip-path="url(#clip360)" d="M44.7161 884.425 L47.5806 884.425 L47.5806 911.352 Q53.6281 910.97 56.8109 907.724 Q59.9619 904.446 59.9619 898.621 Q59.9619 895.247 59.1344 892.096 Q58.3069 888.913 56.6518 885.794 L62.1899 885.794 Q63.5267 888.945 64.227 892.255 Q64.9272 895.565 64.9272 898.971 Q64.9272 907.501 59.9619 912.498 Q54.9967 917.463 46.5303 917.463 Q37.7774 917.463 32.6531 912.753 Q27.4968 908.01 27.4968 899.99 Q27.4968 892.796 32.1438 888.627 Q36.7589 884.425 44.7161 884.425 M42.9973 890.282 Q38.1912 890.346 35.3266 892.987 Q32.4621 895.597 32.4621 899.926 Q32.4621 904.828 35.2312 907.788 Q38.0002 910.716 43.0292 911.161 L42.9973 890.282 Z" fill="#000000" fill-rule="evenodd" fill-opacity="1" /><path clip-path="url(#clip360)" d="M33.8307 854.157 Q33.2578 855.143 33.0032 856.321 Q32.7167 857.467 32.7167 858.867 Q32.7167 863.832 35.9632 866.506 Q39.1779 869.148 45.2253 869.148 L64.0042 869.148 L64.0042 875.036 L28.3562 875.036 L28.3562 869.148 L33.8944 869.148 Q30.6479 867.302 29.0883 864.342 Q27.4968 861.382 27.4968 857.148 Q27.4968 856.544 27.5923 855.812 Q27.656 855.08 27.8151 854.188 L33.8307 854.157 Z" fill="#000000" fill-rule="evenodd" fill-opacity="1" /><path clip-path="url(#clip360)" d="M46.0847 831.813 Q46.0847 838.911 47.7079 841.648 Q49.3312 844.385 53.2461 844.385 Q56.3653 844.385 58.2114 842.348 Q60.0256 840.279 60.0256 836.746 Q60.0256 831.877 56.5881 828.948 Q53.1188 825.988 47.3897 825.988 L46.0847 825.988 L46.0847 831.813 M43.6657 820.132 L64.0042 820.132 L64.0042 825.988 L58.5933 825.988 Q61.8398 827.993 63.3994 830.985 Q64.9272 833.977 64.9272 838.306 Q64.9272 843.78 61.8716 847.027 Q58.7843 850.242 53.6281 850.242 Q47.6125 850.242 44.5569 846.231 Q41.5014 842.189 41.5014 834.2 L41.5014 825.988 L40.9285 825.988 Q36.8862 825.988 34.6901 828.662 Q32.4621 831.304 32.4621 836.11 Q32.4621 839.165 33.1941 842.062 Q33.9262 844.958 35.3903 847.632 L29.9795 847.632 Q28.7381 844.417 28.1334 841.393 Q27.4968 838.37 27.4968 835.505 Q27.4968 827.771 31.5072 823.951 Q35.5176 820.132 43.6657 820.132 Z" fill="#000000" fill-rule="evenodd" fill-opacity="1" /><path clip-path="url(#clip360)" d="M45.7664 784.611 Q39.4007 784.611 35.8996 787.253 Q32.3984 789.863 32.3984 794.605 Q32.3984 799.316 35.8996 801.958 Q39.4007 804.568 45.7664 804.568 Q52.1003 804.568 55.6014 801.958 Q59.1026 799.316 59.1026 794.605 Q59.1026 789.863 55.6014 787.253 Q52.1003 784.611 45.7664 784.611 M59.58 778.755 Q68.683 778.755 73.1071 782.797 Q77.5631 786.839 77.5631 795.178 Q77.5631 798.266 77.0857 801.003 Q76.6401 803.74 75.6852 806.318 L69.9879 806.318 Q71.3884 803.74 72.0568 801.226 Q72.7252 798.711 72.7252 796.101 Q72.7252 790.34 69.7015 787.476 Q66.7096 784.611 60.6303 784.611 L57.7339 784.611 Q60.885 786.425 62.4446 789.258 Q64.0042 792.091 64.0042 796.038 Q64.0042 802.594 59.0071 806.605 Q54.01 810.615 45.7664 810.615 Q37.491 810.615 32.4939 806.605 Q27.4968 802.594 27.4968 796.038 Q27.4968 792.091 29.0564 789.258 Q30.616 786.425 33.7671 784.611 L28.3562 784.611 L28.3562 778.755 L59.58 778.755 Z" fill="#000000" fill-rule="evenodd" fill-opacity="1" /><path clip-path="url(#clip360)" d="M44.7161 736.2 L47.5806 736.2 L47.5806 763.127 Q53.6281 762.745 56.8109 759.498 Q59.9619 756.22 59.9619 750.395 Q59.9619 747.022 59.1344 743.871 Q58.3069 740.688 56.6518 737.569 L62.1899 737.569 Q63.5267 740.72 64.227 744.03 Q64.9272 747.34 64.9272 750.746 Q64.9272 759.276 59.9619 764.273 Q54.9967 769.238 46.5303 769.238 Q37.7774 769.238 32.6531 764.527 Q27.4968 759.785 27.4968 751.764 Q27.4968 744.571 32.1438 740.401 Q36.7589 736.2 44.7161 736.2 M42.9973 742.056 Q38.1912 742.12 35.3266 744.762 Q32.4621 747.372 32.4621 751.7 Q32.4621 756.602 35.2312 759.562 Q38.0002 762.49 43.0292 762.936 L42.9973 742.056 Z" fill="#000000" fill-rule="evenodd" fill-opacity="1" /><path clip-path="url(#clip360)" d="M64.0042 693.359 L16.4842 711.501 L16.4842 704.785 L56.4926 689.73 L16.4842 674.644 L16.4842 667.96 L64.0042 686.07 L64.0042 693.359 Z" fill="#000000" fill-rule="evenodd" fill-opacity="1" /><path clip-path="url(#clip360)" d="M44.7161 635.845 L47.5806 635.845 L47.5806 662.772 Q53.6281 662.39 56.8109 659.143 Q59.9619 655.865 59.9619 650.04 Q59.9619 646.666 59.1344 643.515 Q58.3069 640.332 56.6518 637.213 L62.1899 637.213 Q63.5267 640.364 64.227 643.674 Q64.9272 646.985 64.9272 650.39 Q64.9272 658.92 59.9619 663.917 Q54.9967 668.883 46.5303 668.883 Q37.7774 668.883 32.6531 664.172 Q27.4968 659.43 27.4968 651.409 Q27.4968 644.215 32.1438 640.046 Q36.7589 635.845 44.7161 635.845 M42.9973 641.701 Q38.1912 641.765 35.3266 644.406 Q32.4621 647.016 32.4621 651.345 Q32.4621 656.247 35.2312 659.207 Q38.0002 662.135 43.0292 662.581 L42.9973 641.701 Z" fill="#000000" fill-rule="evenodd" fill-opacity="1" /><path clip-path="url(#clip360)" d="M14.479 626.232 L14.479 620.376 L64.0042 620.376 L64.0042 626.232 L14.479 626.232 Z" fill="#000000" fill-rule="evenodd" fill-opacity="1" /><path clip-path="url(#clip360)" d="M32.4621 594.308 Q32.4621 599.019 36.1542 601.756 Q39.8145 604.493 46.212 604.493 Q52.6095 604.493 56.3017 601.788 Q59.9619 599.051 59.9619 594.308 Q59.9619 589.63 56.2698 586.892 Q52.5777 584.155 46.212 584.155 Q39.8781 584.155 36.186 586.892 Q32.4621 589.63 32.4621 594.308 M27.4968 594.308 Q27.4968 586.67 32.4621 582.309 Q37.4273 577.948 46.212 577.948 Q54.9649 577.948 59.9619 582.309 Q64.9272 586.67 64.9272 594.308 Q64.9272 601.979 59.9619 606.34 Q54.9649 610.668 46.212 610.668 Q37.4273 610.668 32.4621 606.34 Q27.4968 601.979 27.4968 594.308 Z" fill="#000000" fill-rule="evenodd" fill-opacity="1" /><path clip-path="url(#clip360)" d="M29.7248 542.587 L35.1993 542.587 Q33.8307 545.07 33.1623 547.584 Q32.4621 550.067 32.4621 552.613 Q32.4621 558.31 36.0905 561.461 Q39.6872 564.612 46.212 564.612 Q52.7369 564.612 56.3653 561.461 Q59.9619 558.31 59.9619 552.613 Q59.9619 550.067 59.2935 547.584 Q58.5933 545.07 57.2247 542.587 L62.6355 542.587 Q63.7814 545.038 64.3543 547.68 Q64.9272 550.289 64.9272 553.25 Q64.9272 561.302 59.8664 566.045 Q54.8057 570.787 46.212 570.787 Q37.491 570.787 32.4939 566.013 Q27.4968 561.207 27.4968 552.868 Q27.4968 550.162 28.0697 547.584 Q28.6108 545.006 29.7248 542.587 Z" fill="#000000" fill-rule="evenodd" fill-opacity="1" /><path clip-path="url(#clip360)" d="M28.3562 532.402 L28.3562 526.545 L64.0042 526.545 L64.0042 532.402 L28.3562 532.402 M14.479 532.402 L14.479 526.545 L21.895 526.545 L21.895 532.402 L14.479 532.402 Z" fill="#000000" fill-rule="evenodd" fill-opacity="1" /><path clip-path="url(#clip360)" d="M18.2347 508.499 L28.3562 508.499 L28.3562 496.436 L32.9077 496.436 L32.9077 508.499 L52.2594 508.499 Q56.6199 508.499 57.8613 507.321 Q59.1026 506.111 59.1026 502.451 L59.1026 496.436 L64.0042 496.436 L64.0042 502.451 Q64.0042 509.231 61.4897 511.809 Q58.9434 514.387 52.2594 514.387 L32.9077 514.387 L32.9077 518.684 L28.3562 518.684 L28.3562 514.387 L18.2347 514.387 L18.2347 508.499 Z" fill="#000000" fill-rule="evenodd" fill-opacity="1" /><path clip-path="url(#clip360)" d="M67.3143 473.901 Q73.68 476.384 75.6216 478.739 Q77.5631 481.094 77.5631 485.041 L77.5631 489.72 L72.6615 489.72 L72.6615 486.282 Q72.6615 483.863 71.5157 482.527 Q70.3699 481.19 66.1048 479.566 L63.4312 478.516 L28.3562 492.934 L28.3562 486.728 L56.238 475.588 L28.3562 464.448 L28.3562 458.241 L67.3143 473.901 Z" fill="#000000" fill-rule="evenodd" fill-opacity="1" /><polyline clip-path="url(#clip362)" style="stroke:#009af9; stroke-linecap:round; stroke-linejoin:round; stroke-width:4; stroke-opacity:1; fill:none" points="
  809.144,409.715 814.189,1308.97 
  "/>
<polyline clip-path="url(#clip362)" style="stroke:#009af9; stroke-linecap:round; stroke-linejoin:round; stroke-width:4; stroke-opacity:1; fill:none" points="
  824.279,1197.2 829.324,1372.3 834.369,916.797 839.414,1052.03 844.459,792.447 849.504,1265.7 854.549,978.276 859.594,945.119 864.639,744.283 869.684,842.303 
  874.729,904.591 879.774,822.832 884.819,760.602 889.864,679.893 894.909,776.521 899.954,653.47 904.999,720.705 910.044,624.758 915.089,663.61 920.134,649.39 
  925.178,612.854 930.223,578.064 935.268,542.434 940.313,550.906 945.358,489.728 950.403,500.089 955.448,508.119 960.493,435.995 965.538,399.425 970.583,416.635 
  975.628,358.19 980.673,402.343 985.718,399.509 990.763,374.442 995.808,394.759 1000.85,320.799 1005.9,338.99 1010.94,314.557 1015.99,272.893 1021.03,270.616 
  1026.08,309.973 1031.12,276.771 1036.17,242.133 1041.21,279.291 1046.26,254.332 1051.3,302.168 1056.35,186.332 1061.39,255.247 1066.44,266.204 1071.48,282.055 
  1076.53,278.533 1081.57,231.698 1086.62,285.066 1091.66,243.059 1096.71,222.089 1101.75,219.555 1106.8,217.982 1111.84,223.198 1116.89,267.721 1121.93,232.033 
  1126.98,194.436 1132.02,213.95 1137.07,246.827 1142.11,265.864 1147.16,244.206 1152.2,246.162 1157.25,234.066 1162.29,231.316 1167.34,210.391 1172.38,212.637 
  1177.43,202.217 1182.47,191.521 1187.52,198.205 1192.56,177.219 1197.61,166.397 1202.65,166.486 1207.7,155.493 1212.74,183.423 1217.79,200.074 1222.83,201.76 
  1227.88,197.366 1232.92,213.979 1237.97,241.893 1243.01,232.655 1248.06,218.49 1253.1,227.749 1258.15,203.595 1263.19,190.236 1268.24,175.705 1273.28,155.696 
  1278.33,159.171 1283.37,184.814 1288.42,190.749 1293.46,135.576 1298.51,208.754 1303.55,186.298 1308.6,191.264 1313.64,195.228 1318.69,190.749 1323.73,165.123 
  1328.78,195.036 1333.82,216.285 1338.87,193.272 1343.91,218.625 1348.96,256.513 1354,157.398 1359.05,167.6 1364.09,182.72 1369.14,135.776 1374.18,156.205 
  1379.23,137.146 1384.27,174.345 1389.32,177.107 1394.36,181.812 1399.41,168.507 1404.45,167.946 1409.5,177.245 1414.54,208.004 1419.59,196.606 1424.63,140.597 
  1429.68,211.045 1434.72,232.843 1439.77,193.502 1444.81,223.894 1449.86,172.326 1454.9,156.058 1459.95,209.921 1464.99,200.674 1470.04,195.285 1475.08,190.084 
  1480.13,223.62 1485.17,175.904 1490.22,181.268 1495.26,157.515 1500.31,158.546 1505.35,167.959 1510.4,168.969 1515.44,174.702 1520.49,112.263 1525.53,145.826 
  1530.58,144.534 1535.62,178.234 1540.67,179.533 1545.71,210.177 1550.76,161.695 1555.8,139.423 1560.85,109.19 1565.89,110.841 1570.94,108.736 1575.98,124.59 
  1581.03,156.674 1586.07,161.992 1591.12,181.903 1596.16,164.881 1601.21,121.305 1606.25,155.196 1611.3,132.303 1616.34,131.892 1621.39,176.047 1626.43,162.647 
  1631.48,128.383 1636.52,138.968 1641.57,150.902 1646.61,158.145 1651.66,201.193 1656.7,136.431 1661.75,143.249 1666.79,109.442 1671.84,104.165 1676.88,85.838 
  1681.93,133.962 1686.97,143.525 1692.02,143.601 1697.06,137.295 1702.11,143.892 1707.15,141.602 1712.2,156.593 1717.24,134.917 1722.29,176.926 1727.33,219.129 
  1732.37,181.602 1737.42,121.984 1742.46,111.242 1747.51,126.561 1752.55,152.292 1757.6,149.214 1762.64,133.656 1767.69,144.19 1772.73,124.112 1777.78,95.4602 
  1782.82,145.422 1787.87,173.821 1792.91,175.466 1797.96,182.1 1803,183.057 1808.05,203.952 1813.09,194.264 1818.14,172.671 1823.18,188.177 1828.23,202.217 
  1833.27,159.752 1838.32,149.997 1843.36,217.796 1848.41,182.964 1853.45,161.17 1858.5,179.254 1863.54,201.82 1868.59,176.822 1873.63,181.402 1878.68,185.569 
  1883.72,192.912 1888.77,218.526 1893.81,213.459 1898.86,238.079 1903.9,226.213 1908.95,213.979 1913.99,153.218 1919.04,170.985 1924.08,157.867 1929.13,148.506 
  1934.17,150.094 1939.22,189.108 1944.26,146.187 1949.31,168.542 1954.35,151.848 1959.4,194.036 1964.44,112.869 1969.49,127.065 1974.53,151.471 1979.58,209.874 
  1984.62,195.231 1989.67,200.958 1994.71,189.91 1999.76,194.633 2004.8,209.25 2009.85,156.279 2014.89,171.784 2019.94,150.116 2024.98,181.787 2030.03,189.658 
  2035.07,151.345 2040.12,151.873 2045.16,162.466 2050.21,197.852 2055.25,167.215 2060.3,152.02 2065.34,188.517 2070.39,176.575 2075.43,200.625 2080.48,187.147 
  2085.52,181.594 2090.57,168.858 2095.61,160.433 2100.66,124.495 2105.7,121.876 2110.75,151.187 2115.79,176.826 2120.84,206.944 2125.88,166.975 2130.93,131.513 
  2135.97,160.017 2141.02,140.457 2146.06,168.97 2151.11,151.939 2156.15,163.444 2161.2,199.336 2166.24,170.178 2171.29,161.341 2176.33,181.147 2181.38,144.84 
  2186.42,142.116 2191.47,183.915 2196.51,186.555 2201.56,250.592 2206.6,236.136 2211.65,218.321 2216.69,185.275 2221.74,158.2 2226.78,216.787 2231.83,180.26 
  2236.87,238.139 2241.92,213.481 2246.96,186.132 2252.01,188.823 2257.05,212.614 2262.1,198.195 2267.14,194.567 2272.19,194.874 2277.23,239.322 2282.28,235.733 
  2287.32,219.663 2292.37,210.337 
  "/>
</svg>
