<?xml version="1.0" encoding="utf-8"?>
<svg xmlns="http://www.w3.org/2000/svg" xmlns:xlink="http://www.w3.org/1999/xlink" width="600" height="400" viewBox="0 0 2400 1600">
<defs>
  <clipPath id="clip200">
    <rect x="0" y="0" width="2400" height="1600"/>
  </clipPath>
</defs>
<path clip-path="url(#clip200)" d="
M0 1600 L2400 1600 L2400 0 L0 0  Z
  " fill="#ffffff" fill-rule="evenodd" fill-opacity="1"/>
<defs>
  <clipPath id="clip201">
    <rect x="480" y="0" width="1681" height="1600"/>
  </clipPath>
</defs>
<path clip-path="url(#clip200)" d="
M232.389 1410.9 L2352.76 1410.9 L2352.76 47.2441 L232.389 47.2441  Z
  " fill="#ffffff" fill-rule="evenodd" fill-opacity="1"/>
<defs>
  <clipPath id="clip202">
    <rect x="232" y="47" width="2121" height="1365"/>
  </clipPath>
</defs>
<polyline clip-path="url(#clip202)" style="stroke:#000000; stroke-linecap:round; stroke-linejoin:round; stroke-width:2; stroke-opacity:0.1; fill:none" points="
  287.386,1410.9 287.386,47.2441 
  "/>
<polyline clip-path="url(#clip202)" style="stroke:#000000; stroke-linecap:round; stroke-linejoin:round; stroke-width:2; stroke-opacity:0.1; fill:none" points="
  788.726,1410.9 788.726,47.2441 
  "/>
<polyline clip-path="url(#clip202)" style="stroke:#000000; stroke-linecap:round; stroke-linejoin:round; stroke-width:2; stroke-opacity:0.1; fill:none" points="
  1290.07,1410.9 1290.07,47.2441 
  "/>
<polyline clip-path="url(#clip202)" style="stroke:#000000; stroke-linecap:round; stroke-linejoin:round; stroke-width:2; stroke-opacity:0.1; fill:none" points="
  1791.41,1410.9 1791.41,47.2441 
  "/>
<polyline clip-path="url(#clip202)" style="stroke:#000000; stroke-linecap:round; stroke-linejoin:round; stroke-width:2; stroke-opacity:0.1; fill:none" points="
  2292.75,1410.9 2292.75,47.2441 
  "/>
<polyline clip-path="url(#clip200)" style="stroke:#000000; stroke-linecap:round; stroke-linejoin:round; stroke-width:4; stroke-opacity:1; fill:none" points="
  232.389,1410.9 2352.76,1410.9 
  "/>
<polyline clip-path="url(#clip200)" style="stroke:#000000; stroke-linecap:round; stroke-linejoin:round; stroke-width:4; stroke-opacity:1; fill:none" points="
  287.386,1410.9 287.386,1392 
  "/>
<polyline clip-path="url(#clip200)" style="stroke:#000000; stroke-linecap:round; stroke-linejoin:round; stroke-width:4; stroke-opacity:1; fill:none" points="
  788.726,1410.9 788.726,1392 
  "/>
<polyline clip-path="url(#clip200)" style="stroke:#000000; stroke-linecap:round; stroke-linejoin:round; stroke-width:4; stroke-opacity:1; fill:none" points="
  1290.07,1410.9 1290.07,1392 
  "/>
<polyline clip-path="url(#clip200)" style="stroke:#000000; stroke-linecap:round; stroke-linejoin:round; stroke-width:4; stroke-opacity:1; fill:none" points="
  1791.41,1410.9 1791.41,1392 
  "/>
<polyline clip-path="url(#clip200)" style="stroke:#000000; stroke-linecap:round; stroke-linejoin:round; stroke-width:4; stroke-opacity:1; fill:none" points="
  2292.75,1410.9 2292.75,1392 
  "/>
<path clip-path="url(#clip200)" d="M287.386 1441.82 Q283.775 1441.82 281.947 1445.38 Q280.141 1448.92 280.141 1456.05 Q280.141 1463.16 281.947 1466.72 Q283.775 1470.26 287.386 1470.26 Q291.021 1470.26 292.826 1466.72 Q294.655 1463.16 294.655 1456.05 Q294.655 1448.92 292.826 1445.38 Q291.021 1441.82 287.386 1441.82 M287.386 1438.11 Q293.196 1438.11 296.252 1442.72 Q299.331 1447.3 299.331 1456.05 Q299.331 1464.78 296.252 1469.38 Q293.196 1473.97 287.386 1473.97 Q281.576 1473.97 278.497 1469.38 Q275.442 1464.78 275.442 1456.05 Q275.442 1447.3 278.497 1442.72 Q281.576 1438.11 287.386 1438.11 Z" fill="#000000" fill-rule="evenodd" fill-opacity="1" /><path clip-path="url(#clip200)" d="M696.828 1485.02 L704.467 1485.02 L704.467 1458.66 L696.157 1460.32 L696.157 1456.06 L704.421 1454.4 L709.097 1454.4 L709.097 1485.02 L716.736 1485.02 L716.736 1488.96 L696.828 1488.96 L696.828 1485.02 Z" fill="#000000" fill-rule="evenodd" fill-opacity="1" /><path clip-path="url(#clip200)" d="M726.18 1483.08 L731.064 1483.08 L731.064 1488.96 L726.18 1488.96 L726.18 1483.08 Z" fill="#000000" fill-rule="evenodd" fill-opacity="1" /><path clip-path="url(#clip200)" d="M751.249 1457.48 Q747.638 1457.48 745.81 1461.04 Q744.004 1464.58 744.004 1471.71 Q744.004 1478.82 745.81 1482.38 Q747.638 1485.92 751.249 1485.92 Q754.884 1485.92 756.689 1482.38 Q758.518 1478.82 758.518 1471.71 Q758.518 1464.58 756.689 1461.04 Q754.884 1457.48 751.249 1457.48 M751.249 1453.77 Q757.06 1453.77 760.115 1458.38 Q763.194 1462.96 763.194 1471.71 Q763.194 1480.44 760.115 1485.04 Q757.06 1489.63 751.249 1489.63 Q745.439 1489.63 742.361 1485.04 Q739.305 1480.44 739.305 1471.71 Q739.305 1462.96 742.361 1458.38 Q745.439 1453.77 751.249 1453.77 Z" fill="#000000" fill-rule="evenodd" fill-opacity="1" /><path clip-path="url(#clip200)" d="M799.583 1463.49 L789.004 1474.12 L799.583 1484.7 L796.828 1487.5 L786.203 1476.87 L775.578 1487.5 L772.847 1484.7 L783.402 1474.12 L772.847 1463.49 L775.578 1460.69 L786.203 1471.32 L796.828 1460.69 L799.583 1463.49 Z" fill="#000000" fill-rule="evenodd" fill-opacity="1" /><path clip-path="url(#clip200)" d="M811.944 1485.02 L819.582 1485.02 L819.582 1458.66 L811.272 1460.32 L811.272 1456.06 L819.536 1454.4 L824.212 1454.4 L824.212 1485.02 L831.851 1485.02 L831.851 1488.96 L811.944 1488.96 L811.944 1485.02 Z" fill="#000000" fill-rule="evenodd" fill-opacity="1" /><path clip-path="url(#clip200)" d="M851.295 1457.48 Q847.684 1457.48 845.855 1461.04 Q844.05 1464.58 844.05 1471.71 Q844.05 1478.82 845.855 1482.38 Q847.684 1485.92 851.295 1485.92 Q854.929 1485.92 856.735 1482.38 Q858.564 1478.82 858.564 1471.71 Q858.564 1464.58 856.735 1461.04 Q854.929 1457.48 851.295 1457.48 M851.295 1453.77 Q857.105 1453.77 860.161 1458.38 Q863.24 1462.96 863.24 1471.71 Q863.24 1480.44 860.161 1485.04 Q857.105 1489.63 851.295 1489.63 Q845.485 1489.63 842.406 1485.04 Q839.351 1480.44 839.351 1471.71 Q839.351 1462.96 842.406 1458.38 Q845.485 1453.77 851.295 1453.77 Z" fill="#000000" fill-rule="evenodd" fill-opacity="1" /><path clip-path="url(#clip200)" d="M863.24 1433.47 L881.295 1433.47 L881.295 1435.08 L871.101 1461.55 L867.133 1461.55 L876.725 1436.66 L863.24 1436.66 L863.24 1433.47 Z" fill="#000000" fill-rule="evenodd" fill-opacity="1" /><path clip-path="url(#clip200)" d="M1202.25 1485.02 L1218.57 1485.02 L1218.57 1488.96 L1196.63 1488.96 L1196.63 1485.02 Q1199.29 1482.27 1203.87 1477.64 Q1208.48 1472.98 1209.66 1471.64 Q1211.91 1469.12 1212.79 1467.38 Q1213.69 1465.62 1213.69 1463.93 Q1213.69 1461.18 1211.74 1459.44 Q1209.82 1457.71 1206.72 1457.71 Q1204.52 1457.71 1202.07 1458.47 Q1199.64 1459.23 1196.86 1460.79 L1196.86 1456.06 Q1199.68 1454.93 1202.14 1454.35 Q1204.59 1453.77 1206.63 1453.77 Q1212 1453.77 1215.19 1456.46 Q1218.39 1459.14 1218.39 1463.63 Q1218.39 1465.76 1217.58 1467.68 Q1216.79 1469.58 1214.68 1472.17 Q1214.11 1472.85 1211 1476.06 Q1207.9 1479.26 1202.25 1485.02 Z" fill="#000000" fill-rule="evenodd" fill-opacity="1" /><path clip-path="url(#clip200)" d="M1228.39 1483.08 L1233.27 1483.08 L1233.27 1488.96 L1228.39 1488.96 L1228.39 1483.08 Z" fill="#000000" fill-rule="evenodd" fill-opacity="1" /><path clip-path="url(#clip200)" d="M1253.46 1457.48 Q1249.85 1457.48 1248.02 1461.04 Q1246.21 1464.58 1246.21 1471.71 Q1246.21 1478.82 1248.02 1482.38 Q1249.85 1485.92 1253.46 1485.92 Q1257.09 1485.92 1258.9 1482.38 Q1260.73 1478.82 1260.73 1471.71 Q1260.73 1464.58 1258.9 1461.04 Q1257.09 1457.48 1253.46 1457.48 M1253.46 1453.77 Q1259.27 1453.77 1262.32 1458.38 Q1265.4 1462.96 1265.4 1471.71 Q1265.4 1480.44 1262.32 1485.04 Q1259.27 1489.63 1253.46 1489.63 Q1247.65 1489.63 1244.57 1485.04 Q1241.51 1480.44 1241.51 1471.71 Q1241.51 1462.96 1244.57 1458.38 Q1247.65 1453.77 1253.46 1453.77 Z" fill="#000000" fill-rule="evenodd" fill-opacity="1" /><path clip-path="url(#clip200)" d="M1301.79 1463.49 L1291.21 1474.12 L1301.79 1484.7 L1299.04 1487.5 L1288.41 1476.87 L1277.79 1487.5 L1275.05 1484.7 L1285.61 1474.12 L1275.05 1463.49 L1277.79 1460.69 L1288.41 1471.32 L1299.04 1460.69 L1301.79 1463.49 Z" fill="#000000" fill-rule="evenodd" fill-opacity="1" /><path clip-path="url(#clip200)" d="M1314.15 1485.02 L1321.79 1485.02 L1321.79 1458.66 L1313.48 1460.32 L1313.48 1456.06 L1321.74 1454.4 L1326.42 1454.4 L1326.42 1485.02 L1334.06 1485.02 L1334.06 1488.96 L1314.15 1488.96 L1314.15 1485.02 Z" fill="#000000" fill-rule="evenodd" fill-opacity="1" /><path clip-path="url(#clip200)" d="M1353.5 1457.48 Q1349.89 1457.48 1348.06 1461.04 Q1346.26 1464.58 1346.26 1471.71 Q1346.26 1478.82 1348.06 1482.38 Q1349.89 1485.92 1353.5 1485.92 Q1357.14 1485.92 1358.94 1482.38 Q1360.77 1478.82 1360.77 1471.71 Q1360.77 1464.58 1358.94 1461.04 Q1357.14 1457.48 1353.5 1457.48 M1353.5 1453.77 Q1359.31 1453.77 1362.37 1458.38 Q1365.45 1462.96 1365.45 1471.71 Q1365.45 1480.44 1362.37 1485.04 Q1359.31 1489.63 1353.5 1489.63 Q1347.69 1489.63 1344.61 1485.04 Q1341.56 1480.44 1341.56 1471.71 Q1341.56 1462.96 1344.61 1458.38 Q1347.69 1453.77 1353.5 1453.77 Z" fill="#000000" fill-rule="evenodd" fill-opacity="1" /><path clip-path="url(#clip200)" d="M1365.45 1433.47 L1383.5 1433.47 L1383.5 1435.08 L1373.31 1461.55 L1369.34 1461.55 L1378.93 1436.66 L1365.45 1436.66 L1365.45 1433.47 Z" fill="#000000" fill-rule="evenodd" fill-opacity="1" /><path clip-path="url(#clip200)" d="M1713.66 1470.32 Q1717.02 1471.04 1718.89 1473.31 Q1720.79 1475.58 1720.79 1478.91 Q1720.79 1484.03 1717.27 1486.83 Q1713.76 1489.63 1707.27 1489.63 Q1705.1 1489.63 1702.78 1489.19 Q1700.49 1488.77 1698.04 1487.91 L1698.04 1483.4 Q1699.98 1484.54 1702.3 1485.11 Q1704.61 1485.69 1707.14 1485.69 Q1711.53 1485.69 1713.83 1483.96 Q1716.14 1482.22 1716.14 1478.91 Q1716.14 1475.85 1713.99 1474.14 Q1711.86 1472.41 1708.04 1472.41 L1704.01 1472.41 L1704.01 1468.56 L1708.22 1468.56 Q1711.67 1468.56 1713.5 1467.2 Q1715.33 1465.81 1715.33 1463.22 Q1715.33 1460.55 1713.43 1459.14 Q1711.56 1457.71 1708.04 1457.71 Q1706.12 1457.71 1703.92 1458.12 Q1701.72 1458.54 1699.08 1459.42 L1699.08 1455.25 Q1701.74 1454.51 1704.06 1454.14 Q1706.39 1453.77 1708.45 1453.77 Q1713.78 1453.77 1716.88 1456.2 Q1719.98 1458.61 1719.98 1462.73 Q1719.98 1465.6 1718.34 1467.59 Q1716.7 1469.56 1713.66 1470.32 Z" fill="#000000" fill-rule="evenodd" fill-opacity="1" /><path clip-path="url(#clip200)" d="M1729.66 1483.08 L1734.54 1483.08 L1734.54 1488.96 L1729.66 1488.96 L1729.66 1483.08 Z" fill="#000000" fill-rule="evenodd" fill-opacity="1" /><path clip-path="url(#clip200)" d="M1754.73 1457.48 Q1751.12 1457.48 1749.29 1461.04 Q1747.48 1464.58 1747.48 1471.71 Q1747.48 1478.82 1749.29 1482.38 Q1751.12 1485.92 1754.73 1485.92 Q1758.36 1485.92 1760.17 1482.38 Q1762 1478.82 1762 1471.71 Q1762 1464.58 1760.17 1461.04 Q1758.36 1457.48 1754.73 1457.48 M1754.73 1453.77 Q1760.54 1453.77 1763.59 1458.38 Q1766.67 1462.96 1766.67 1471.71 Q1766.67 1480.44 1763.59 1485.04 Q1760.54 1489.63 1754.73 1489.63 Q1748.92 1489.63 1745.84 1485.04 Q1742.78 1480.44 1742.78 1471.71 Q1742.78 1462.96 1745.84 1458.38 Q1748.92 1453.77 1754.73 1453.77 Z" fill="#000000" fill-rule="evenodd" fill-opacity="1" /><path clip-path="url(#clip200)" d="M1803.06 1463.49 L1792.48 1474.12 L1803.06 1484.7 L1800.31 1487.5 L1789.68 1476.87 L1779.06 1487.5 L1776.32 1484.7 L1786.88 1474.12 L1776.32 1463.49 L1779.06 1460.69 L1789.68 1471.32 L1800.31 1460.69 L1803.06 1463.49 Z" fill="#000000" fill-rule="evenodd" fill-opacity="1" /><path clip-path="url(#clip200)" d="M1815.42 1485.02 L1823.06 1485.02 L1823.06 1458.66 L1814.75 1460.32 L1814.75 1456.06 L1823.01 1454.4 L1827.69 1454.4 L1827.69 1485.02 L1835.33 1485.02 L1835.33 1488.96 L1815.42 1488.96 L1815.42 1485.02 Z" fill="#000000" fill-rule="evenodd" fill-opacity="1" /><path clip-path="url(#clip200)" d="M1854.77 1457.48 Q1851.16 1457.48 1849.33 1461.04 Q1847.53 1464.58 1847.53 1471.71 Q1847.53 1478.82 1849.33 1482.38 Q1851.16 1485.92 1854.77 1485.92 Q1858.41 1485.92 1860.21 1482.38 Q1862.04 1478.82 1862.04 1471.71 Q1862.04 1464.58 1860.21 1461.04 Q1858.41 1457.48 1854.77 1457.48 M1854.77 1453.77 Q1860.58 1453.77 1863.64 1458.38 Q1866.72 1462.96 1866.72 1471.71 Q1866.72 1480.44 1863.64 1485.04 Q1860.58 1489.63 1854.77 1489.63 Q1848.96 1489.63 1845.88 1485.04 Q1842.83 1480.44 1842.83 1471.71 Q1842.83 1462.96 1845.88 1458.38 Q1848.96 1453.77 1854.77 1453.77 Z" fill="#000000" fill-rule="evenodd" fill-opacity="1" /><path clip-path="url(#clip200)" d="M1866.72 1433.47 L1884.77 1433.47 L1884.77 1435.08 L1874.58 1461.55 L1870.61 1461.55 L1880.2 1436.66 L1866.72 1436.66 L1866.72 1433.47 Z" fill="#000000" fill-rule="evenodd" fill-opacity="1" /><path clip-path="url(#clip200)" d="M2214.33 1458.47 L2202.53 1476.92 L2214.33 1476.92 L2214.33 1458.47 M2213.1 1454.4 L2218.98 1454.4 L2218.98 1476.92 L2223.91 1476.92 L2223.91 1480.81 L2218.98 1480.81 L2218.98 1488.96 L2214.33 1488.96 L2214.33 1480.81 L2198.73 1480.81 L2198.73 1476.29 L2213.1 1454.4 Z" fill="#000000" fill-rule="evenodd" fill-opacity="1" /><path clip-path="url(#clip200)" d="M2231.65 1483.08 L2236.53 1483.08 L2236.53 1488.96 L2231.65 1488.96 L2231.65 1483.08 Z" fill="#000000" fill-rule="evenodd" fill-opacity="1" /><path clip-path="url(#clip200)" d="M2256.72 1457.48 Q2253.1 1457.48 2251.28 1461.04 Q2249.47 1464.58 2249.47 1471.71 Q2249.47 1478.82 2251.28 1482.38 Q2253.1 1485.92 2256.72 1485.92 Q2260.35 1485.92 2262.16 1482.38 Q2263.98 1478.82 2263.98 1471.71 Q2263.98 1464.58 2262.16 1461.04 Q2260.35 1457.48 2256.72 1457.48 M2256.72 1453.77 Q2262.53 1453.77 2265.58 1458.38 Q2268.66 1462.96 2268.66 1471.71 Q2268.66 1480.44 2265.58 1485.04 Q2262.53 1489.63 2256.72 1489.63 Q2250.91 1489.63 2247.83 1485.04 Q2244.77 1480.44 2244.77 1471.71 Q2244.77 1462.96 2247.83 1458.38 Q2250.91 1453.77 2256.72 1453.77 Z" fill="#000000" fill-rule="evenodd" fill-opacity="1" /><path clip-path="url(#clip200)" d="M2305.05 1463.49 L2294.47 1474.12 L2305.05 1484.7 L2302.29 1487.5 L2291.67 1476.87 L2281.04 1487.5 L2278.31 1484.7 L2288.87 1474.12 L2278.31 1463.49 L2281.04 1460.69 L2291.67 1471.32 L2302.29 1460.69 L2305.05 1463.49 Z" fill="#000000" fill-rule="evenodd" fill-opacity="1" /><path clip-path="url(#clip200)" d="M2317.41 1485.02 L2325.05 1485.02 L2325.05 1458.66 L2316.74 1460.32 L2316.74 1456.06 L2325 1454.4 L2329.68 1454.4 L2329.68 1485.02 L2337.32 1485.02 L2337.32 1488.96 L2317.41 1488.96 L2317.41 1485.02 Z" fill="#000000" fill-rule="evenodd" fill-opacity="1" /><path clip-path="url(#clip200)" d="M2356.76 1457.48 Q2353.15 1457.48 2351.32 1461.04 Q2349.52 1464.58 2349.52 1471.71 Q2349.52 1478.82 2351.32 1482.38 Q2353.15 1485.92 2356.76 1485.92 Q2360.4 1485.92 2362.2 1482.38 Q2364.03 1478.82 2364.03 1471.71 Q2364.03 1464.58 2362.2 1461.04 Q2360.4 1457.48 2356.76 1457.48 M2356.76 1453.77 Q2362.57 1453.77 2365.63 1458.38 Q2368.71 1462.96 2368.71 1471.71 Q2368.71 1480.44 2365.63 1485.04 Q2362.57 1489.63 2356.76 1489.63 Q2350.95 1489.63 2347.87 1485.04 Q2344.82 1480.44 2344.82 1471.71 Q2344.82 1462.96 2347.87 1458.38 Q2350.95 1453.77 2356.76 1453.77 Z" fill="#000000" fill-rule="evenodd" fill-opacity="1" /><path clip-path="url(#clip200)" d="M2368.71 1433.47 L2386.76 1433.47 L2386.76 1435.08 L2376.57 1461.55 L2372.6 1461.55 L2382.19 1436.66 L2368.71 1436.66 L2368.71 1433.47 Z" fill="#000000" fill-rule="evenodd" fill-opacity="1" /><path clip-path="url(#clip200)" d="M1142.14 1526.67 L1148.56 1526.67 L1148.56 1574.19 L1142.14 1574.19 L1142.14 1526.67 Z" fill="#000000" fill-rule="evenodd" fill-opacity="1" /><path clip-path="url(#clip200)" d="M1166.9 1528.42 L1166.9 1538.54 L1178.96 1538.54 L1178.96 1543.09 L1166.9 1543.09 L1166.9 1562.44 Q1166.9 1566.8 1168.08 1568.04 Q1169.28 1569.28 1172.95 1569.28 L1178.96 1569.28 L1178.96 1574.19 L1172.95 1574.19 Q1166.17 1574.19 1163.59 1571.67 Q1161.01 1569.12 1161.01 1562.44 L1161.01 1543.09 L1156.71 1543.09 L1156.71 1538.54 L1161.01 1538.54 L1161.01 1528.42 L1166.9 1528.42 Z" fill="#000000" fill-rule="evenodd" fill-opacity="1" /><path clip-path="url(#clip200)" d="M1217.15 1554.9 L1217.15 1557.76 L1190.23 1557.76 Q1190.61 1563.81 1193.86 1566.99 Q1197.13 1570.14 1202.96 1570.14 Q1206.33 1570.14 1209.48 1569.32 Q1212.67 1568.49 1215.79 1566.83 L1215.79 1572.37 Q1212.64 1573.71 1209.33 1574.41 Q1206.01 1575.11 1202.61 1575.11 Q1194.08 1575.11 1189.08 1570.14 Q1184.12 1565.18 1184.12 1556.71 Q1184.12 1547.96 1188.83 1542.83 Q1193.57 1537.68 1201.59 1537.68 Q1208.78 1537.68 1212.95 1542.33 Q1217.15 1546.94 1217.15 1554.9 M1211.3 1553.18 Q1211.23 1548.37 1208.59 1545.51 Q1205.98 1542.64 1201.65 1542.64 Q1196.75 1542.64 1193.79 1545.41 Q1190.86 1548.18 1190.42 1553.21 L1211.3 1553.18 Z" fill="#000000" fill-rule="evenodd" fill-opacity="1" /><path clip-path="url(#clip200)" d="M1247.42 1544.01 Q1246.44 1543.44 1245.26 1543.18 Q1244.11 1542.9 1242.71 1542.9 Q1237.75 1542.9 1235.07 1546.14 Q1232.43 1549.36 1232.43 1555.41 L1232.43 1574.19 L1226.54 1574.19 L1226.54 1538.54 L1232.43 1538.54 L1232.43 1544.08 Q1234.28 1540.83 1237.24 1539.27 Q1240.2 1537.68 1244.43 1537.68 Q1245.04 1537.68 1245.77 1537.77 Q1246.5 1537.84 1247.39 1538 L1247.42 1544.01 Z" fill="#000000" fill-rule="evenodd" fill-opacity="1" /><path clip-path="url(#clip200)" d="M1269.77 1556.27 Q1262.67 1556.27 1259.93 1557.89 Q1257.2 1559.51 1257.2 1563.43 Q1257.2 1566.55 1259.23 1568.39 Q1261.3 1570.21 1264.83 1570.21 Q1269.7 1570.21 1272.63 1566.77 Q1275.59 1563.3 1275.59 1557.57 L1275.59 1556.27 L1269.77 1556.27 M1281.45 1553.85 L1281.45 1574.19 L1275.59 1574.19 L1275.59 1568.77 Q1273.59 1572.02 1270.6 1573.58 Q1267.6 1575.11 1263.27 1575.11 Q1257.8 1575.11 1254.55 1572.05 Q1251.34 1568.97 1251.34 1563.81 Q1251.34 1557.79 1255.35 1554.74 Q1259.39 1551.68 1267.38 1551.68 L1275.59 1551.68 L1275.59 1551.11 Q1275.59 1547.07 1272.92 1544.87 Q1270.28 1542.64 1265.47 1542.64 Q1262.42 1542.64 1259.52 1543.38 Q1256.62 1544.11 1253.95 1545.57 L1253.95 1540.16 Q1257.16 1538.92 1260.19 1538.31 Q1263.21 1537.68 1266.08 1537.68 Q1273.81 1537.68 1277.63 1541.69 Q1281.45 1545.7 1281.45 1553.85 Z" fill="#000000" fill-rule="evenodd" fill-opacity="1" /><path clip-path="url(#clip200)" d="M1299.3 1528.42 L1299.3 1538.54 L1311.37 1538.54 L1311.37 1543.09 L1299.3 1543.09 L1299.3 1562.44 Q1299.3 1566.8 1300.48 1568.04 Q1301.69 1569.28 1305.35 1569.28 L1311.37 1569.28 L1311.37 1574.19 L1305.35 1574.19 Q1298.57 1574.19 1295.99 1571.67 Q1293.42 1569.12 1293.42 1562.44 L1293.42 1543.09 L1289.12 1543.09 L1289.12 1538.54 L1293.42 1538.54 L1293.42 1528.42 L1299.3 1528.42 Z" fill="#000000" fill-rule="evenodd" fill-opacity="1" /><path clip-path="url(#clip200)" d="M1319.07 1538.54 L1324.93 1538.54 L1324.93 1574.19 L1319.07 1574.19 L1319.07 1538.54 M1319.07 1524.66 L1324.93 1524.66 L1324.93 1532.08 L1319.07 1532.08 L1319.07 1524.66 Z" fill="#000000" fill-rule="evenodd" fill-opacity="1" /><path clip-path="url(#clip200)" d="M1350.99 1542.64 Q1346.28 1542.64 1343.55 1546.34 Q1340.81 1550 1340.81 1556.39 Q1340.81 1562.79 1343.51 1566.48 Q1346.25 1570.14 1350.99 1570.14 Q1355.67 1570.14 1358.41 1566.45 Q1361.15 1562.76 1361.15 1556.39 Q1361.15 1550.06 1358.41 1546.37 Q1355.67 1542.64 1350.99 1542.64 M1350.99 1537.68 Q1358.63 1537.68 1362.99 1542.64 Q1367.35 1547.61 1367.35 1556.39 Q1367.35 1565.15 1362.99 1570.14 Q1358.63 1575.11 1350.99 1575.11 Q1343.32 1575.11 1338.96 1570.14 Q1334.63 1565.15 1334.63 1556.39 Q1334.63 1547.61 1338.96 1542.64 Q1343.32 1537.68 1350.99 1537.68 Z" fill="#000000" fill-rule="evenodd" fill-opacity="1" /><path clip-path="url(#clip200)" d="M1406.69 1552.67 L1406.69 1574.19 L1400.84 1574.19 L1400.84 1552.86 Q1400.84 1547.8 1398.86 1545.29 Q1396.89 1542.77 1392.94 1542.77 Q1388.2 1542.77 1385.46 1545.79 Q1382.73 1548.82 1382.73 1554.04 L1382.73 1574.19 L1376.84 1574.19 L1376.84 1538.54 L1382.73 1538.54 L1382.73 1544.08 Q1384.83 1540.86 1387.66 1539.27 Q1390.52 1537.68 1394.25 1537.68 Q1400.39 1537.68 1403.54 1541.5 Q1406.69 1545.29 1406.69 1552.67 Z" fill="#000000" fill-rule="evenodd" fill-opacity="1" /><path clip-path="url(#clip200)" d="M1441.1 1539.59 L1441.1 1545.13 Q1438.62 1543.85 1435.94 1543.22 Q1433.27 1542.58 1430.41 1542.58 Q1426.05 1542.58 1423.85 1543.92 Q1421.69 1545.25 1421.69 1547.93 Q1421.69 1549.96 1423.24 1551.14 Q1424.8 1552.29 1429.51 1553.34 L1431.52 1553.78 Q1437.76 1555.12 1440.37 1557.57 Q1443.01 1559.99 1443.01 1564.35 Q1443.01 1569.32 1439.06 1572.21 Q1435.15 1575.11 1428.27 1575.11 Q1425.41 1575.11 1422.29 1574.54 Q1419.2 1573.99 1415.76 1572.88 L1415.76 1566.83 Q1419.01 1568.52 1422.16 1569.38 Q1425.31 1570.21 1428.4 1570.21 Q1432.54 1570.21 1434.77 1568.81 Q1436.99 1567.37 1436.99 1564.8 Q1436.99 1562.41 1435.37 1561.14 Q1433.78 1559.86 1428.34 1558.68 L1426.3 1558.21 Q1420.86 1557.06 1418.44 1554.71 Q1416.02 1552.32 1416.02 1548.18 Q1416.02 1543.15 1419.58 1540.42 Q1423.15 1537.68 1429.71 1537.68 Q1432.95 1537.68 1435.82 1538.16 Q1438.68 1538.63 1441.1 1539.59 Z" fill="#000000" fill-rule="evenodd" fill-opacity="1" /><polyline clip-path="url(#clip202)" style="stroke:#000000; stroke-linecap:round; stroke-linejoin:round; stroke-width:2; stroke-opacity:0.1; fill:none" points="
  232.389,1353.5 2352.76,1353.5 
  "/>
<polyline clip-path="url(#clip202)" style="stroke:#000000; stroke-linecap:round; stroke-linejoin:round; stroke-width:2; stroke-opacity:0.1; fill:none" points="
  232.389,1046.94 2352.76,1046.94 
  "/>
<polyline clip-path="url(#clip202)" style="stroke:#000000; stroke-linecap:round; stroke-linejoin:round; stroke-width:2; stroke-opacity:0.1; fill:none" points="
  232.389,740.377 2352.76,740.377 
  "/>
<polyline clip-path="url(#clip202)" style="stroke:#000000; stroke-linecap:round; stroke-linejoin:round; stroke-width:2; stroke-opacity:0.1; fill:none" points="
  232.389,433.814 2352.76,433.814 
  "/>
<polyline clip-path="url(#clip202)" style="stroke:#000000; stroke-linecap:round; stroke-linejoin:round; stroke-width:2; stroke-opacity:0.1; fill:none" points="
  232.389,127.252 2352.76,127.252 
  "/>
<polyline clip-path="url(#clip200)" style="stroke:#000000; stroke-linecap:round; stroke-linejoin:round; stroke-width:4; stroke-opacity:1; fill:none" points="
  232.389,1410.9 232.389,47.2441 
  "/>
<polyline clip-path="url(#clip200)" style="stroke:#000000; stroke-linecap:round; stroke-linejoin:round; stroke-width:4; stroke-opacity:1; fill:none" points="
  232.389,1353.5 251.287,1353.5 
  "/>
<polyline clip-path="url(#clip200)" style="stroke:#000000; stroke-linecap:round; stroke-linejoin:round; stroke-width:4; stroke-opacity:1; fill:none" points="
  232.389,1046.94 251.287,1046.94 
  "/>
<polyline clip-path="url(#clip200)" style="stroke:#000000; stroke-linecap:round; stroke-linejoin:round; stroke-width:4; stroke-opacity:1; fill:none" points="
  232.389,740.377 251.287,740.377 
  "/>
<polyline clip-path="url(#clip200)" style="stroke:#000000; stroke-linecap:round; stroke-linejoin:round; stroke-width:4; stroke-opacity:1; fill:none" points="
  232.389,433.814 251.287,433.814 
  "/>
<polyline clip-path="url(#clip200)" style="stroke:#000000; stroke-linecap:round; stroke-linejoin:round; stroke-width:4; stroke-opacity:1; fill:none" points="
  232.389,127.252 251.287,127.252 
  "/>
<path clip-path="url(#clip200)" d="M184.445 1339.3 Q180.834 1339.3 179.005 1342.86 Q177.2 1346.41 177.2 1353.54 Q177.2 1360.64 179.005 1364.21 Q180.834 1367.75 184.445 1367.75 Q188.079 1367.75 189.885 1364.21 Q191.713 1360.64 191.713 1353.54 Q191.713 1346.41 189.885 1342.86 Q188.079 1339.3 184.445 1339.3 M184.445 1335.6 Q190.255 1335.6 193.311 1340.2 Q196.389 1344.79 196.389 1353.54 Q196.389 1362.26 193.311 1366.87 Q190.255 1371.45 184.445 1371.45 Q178.635 1371.45 175.556 1366.87 Q172.501 1362.26 172.501 1353.54 Q172.501 1344.79 175.556 1340.2 Q178.635 1335.6 184.445 1335.6 Z" fill="#000000" fill-rule="evenodd" fill-opacity="1" /><path clip-path="url(#clip200)" d="M149.306 1060.28 L165.626 1060.28 L165.626 1064.22 L143.681 1064.22 L143.681 1060.28 Q146.343 1057.53 150.927 1052.9 Q155.533 1048.25 156.714 1046.9 Q158.959 1044.38 159.839 1042.65 Q160.741 1040.89 160.741 1039.2 Q160.741 1036.44 158.797 1034.71 Q156.876 1032.97 153.774 1032.97 Q151.575 1032.97 149.121 1033.73 Q146.691 1034.5 143.913 1036.05 L143.913 1031.33 Q146.737 1030.19 149.191 1029.61 Q151.644 1029.03 153.681 1029.03 Q159.052 1029.03 162.246 1031.72 Q165.44 1034.4 165.44 1038.9 Q165.44 1041.02 164.63 1042.95 Q163.843 1044.84 161.737 1047.44 Q161.158 1048.11 158.056 1051.33 Q154.954 1054.52 149.306 1060.28 Z" fill="#000000" fill-rule="evenodd" fill-opacity="1" /><path clip-path="url(#clip200)" d="M175.487 1029.66 L193.843 1029.66 L193.843 1033.59 L179.769 1033.59 L179.769 1042.07 Q180.788 1041.72 181.806 1041.56 Q182.825 1041.37 183.843 1041.37 Q189.63 1041.37 193.01 1044.54 Q196.389 1047.71 196.389 1053.13 Q196.389 1058.71 192.917 1061.81 Q189.445 1064.89 183.126 1064.89 Q180.95 1064.89 178.681 1064.52 Q176.436 1064.15 174.028 1063.41 L174.028 1058.71 Q176.112 1059.84 178.334 1060.4 Q180.556 1060.96 183.033 1060.96 Q187.038 1060.96 189.375 1058.85 Q191.713 1056.74 191.713 1053.13 Q191.713 1049.52 189.375 1047.41 Q187.038 1045.31 183.033 1045.31 Q181.158 1045.31 179.283 1045.72 Q177.431 1046.14 175.487 1047.02 L175.487 1029.66 Z" fill="#000000" fill-rule="evenodd" fill-opacity="1" /><path clip-path="url(#clip200)" d="M144.329 723.097 L162.686 723.097 L162.686 727.032 L148.612 727.032 L148.612 735.504 Q149.63 735.157 150.649 734.995 Q151.667 734.81 152.686 734.81 Q158.473 734.81 161.852 737.981 Q165.232 741.152 165.232 746.569 Q165.232 752.148 161.76 755.249 Q158.288 758.328 151.968 758.328 Q149.792 758.328 147.524 757.958 Q145.279 757.587 142.871 756.847 L142.871 752.148 Q144.954 753.282 147.177 753.837 Q149.399 754.393 151.876 754.393 Q155.88 754.393 158.218 752.286 Q160.556 750.18 160.556 746.569 Q160.556 742.958 158.218 740.851 Q155.88 738.745 151.876 738.745 Q150.001 738.745 148.126 739.162 Q146.274 739.578 144.329 740.458 L144.329 723.097 Z" fill="#000000" fill-rule="evenodd" fill-opacity="1" /><path clip-path="url(#clip200)" d="M184.445 726.175 Q180.834 726.175 179.005 729.74 Q177.2 733.282 177.2 740.412 Q177.2 747.518 179.005 751.083 Q180.834 754.624 184.445 754.624 Q188.079 754.624 189.885 751.083 Q191.713 747.518 191.713 740.412 Q191.713 733.282 189.885 729.74 Q188.079 726.175 184.445 726.175 M184.445 722.472 Q190.255 722.472 193.311 727.078 Q196.389 731.662 196.389 740.412 Q196.389 749.138 193.311 753.745 Q190.255 758.328 184.445 758.328 Q178.635 758.328 175.556 753.745 Q172.501 749.138 172.501 740.412 Q172.501 731.662 175.556 727.078 Q178.635 722.472 184.445 722.472 Z" fill="#000000" fill-rule="evenodd" fill-opacity="1" /><path clip-path="url(#clip200)" d="M144.098 416.534 L166.32 416.534 L166.32 418.525 L153.774 451.094 L148.89 451.094 L160.695 420.47 L144.098 420.47 L144.098 416.534 Z" fill="#000000" fill-rule="evenodd" fill-opacity="1" /><path clip-path="url(#clip200)" d="M175.487 416.534 L193.843 416.534 L193.843 420.47 L179.769 420.47 L179.769 428.942 Q180.788 428.595 181.806 428.433 Q182.825 428.247 183.843 428.247 Q189.63 428.247 193.01 431.419 Q196.389 434.59 196.389 440.007 Q196.389 445.585 192.917 448.687 Q189.445 451.766 183.126 451.766 Q180.95 451.766 178.681 451.395 Q176.436 451.025 174.028 450.284 L174.028 445.585 Q176.112 446.719 178.334 447.275 Q180.556 447.831 183.033 447.831 Q187.038 447.831 189.375 445.724 Q191.713 443.618 191.713 440.007 Q191.713 436.395 189.375 434.289 Q187.038 432.183 183.033 432.183 Q181.158 432.183 179.283 432.599 Q177.431 433.016 175.487 433.895 L175.487 416.534 Z" fill="#000000" fill-rule="evenodd" fill-opacity="1" /><path clip-path="url(#clip200)" d="M114.931 140.597 L122.57 140.597 L122.57 114.231 L114.26 115.898 L114.26 111.639 L122.524 109.972 L127.2 109.972 L127.2 140.597 L134.839 140.597 L134.839 144.532 L114.931 144.532 L114.931 140.597 Z" fill="#000000" fill-rule="evenodd" fill-opacity="1" /><path clip-path="url(#clip200)" d="M154.283 113.051 Q150.672 113.051 148.843 116.616 Q147.038 120.157 147.038 127.287 Q147.038 134.393 148.843 137.958 Q150.672 141.5 154.283 141.5 Q157.917 141.5 159.723 137.958 Q161.552 134.393 161.552 127.287 Q161.552 120.157 159.723 116.616 Q157.917 113.051 154.283 113.051 M154.283 109.347 Q160.093 109.347 163.149 113.954 Q166.227 118.537 166.227 127.287 Q166.227 136.014 163.149 140.62 Q160.093 145.203 154.283 145.203 Q148.473 145.203 145.394 140.62 Q142.339 136.014 142.339 127.287 Q142.339 118.537 145.394 113.954 Q148.473 109.347 154.283 109.347 Z" fill="#000000" fill-rule="evenodd" fill-opacity="1" /><path clip-path="url(#clip200)" d="M184.445 113.051 Q180.834 113.051 179.005 116.616 Q177.2 120.157 177.2 127.287 Q177.2 134.393 179.005 137.958 Q180.834 141.5 184.445 141.5 Q188.079 141.5 189.885 137.958 Q191.713 134.393 191.713 127.287 Q191.713 120.157 189.885 116.616 Q188.079 113.051 184.445 113.051 M184.445 109.347 Q190.255 109.347 193.311 113.954 Q196.389 118.537 196.389 127.287 Q196.389 136.014 193.311 140.62 Q190.255 145.203 184.445 145.203 Q178.635 145.203 175.556 140.62 Q172.501 136.014 172.501 127.287 Q172.501 118.537 175.556 113.954 Q178.635 109.347 184.445 109.347 Z" fill="#000000" fill-rule="evenodd" fill-opacity="1" /><path clip-path="url(#clip200)" d="M41.7242 821.755 Q42.4244 819.686 44.7161 817.745 Q47.0077 815.771 51.0181 813.798 L64.0042 807.273 L64.0042 814.18 L51.8138 820.259 Q47.0395 822.614 45.48 824.842 Q43.9204 827.039 43.9204 830.858 L43.9204 837.86 L64.0042 837.86 L64.0042 844.29 L16.4842 844.29 L16.4842 829.776 Q16.4842 821.628 19.8898 817.617 Q23.2955 813.607 30.1704 813.607 Q34.6582 813.607 37.6183 815.708 Q40.5784 817.776 41.7242 821.755 M21.7677 837.86 L38.6368 837.86 L38.6368 829.776 Q38.6368 825.129 36.5043 822.774 Q34.34 820.386 30.1704 820.386 Q26.0009 820.386 23.9002 822.774 Q21.7677 825.129 21.7677 829.776 L21.7677 837.86 Z" fill="#000000" fill-rule="evenodd" fill-opacity="1" /><path clip-path="url(#clip200)" d="M44.7161 771.689 L47.5806 771.689 L47.5806 798.616 Q53.6281 798.234 56.8109 794.987 Q59.9619 791.709 59.9619 785.884 Q59.9619 782.51 59.1344 779.359 Q58.3069 776.177 56.6518 773.057 L62.1899 773.057 Q63.5267 776.208 64.227 779.519 Q64.9272 782.829 64.9272 786.234 Q64.9272 794.764 59.9619 799.762 Q54.9967 804.727 46.5303 804.727 Q37.7774 804.727 32.6531 800.016 Q27.4968 795.274 27.4968 787.253 Q27.4968 780.06 32.1438 775.89 Q36.7589 771.689 44.7161 771.689 M42.9973 777.545 Q38.1912 777.609 35.3266 780.251 Q32.4621 782.861 32.4621 787.189 Q32.4621 792.091 35.2312 795.051 Q38.0002 797.979 43.0292 798.425 L42.9973 777.545 Z" fill="#000000" fill-rule="evenodd" fill-opacity="1" /><path clip-path="url(#clip200)" d="M28.3562 765.482 L28.3562 759.626 L56.1743 752.305 L28.3562 745.016 L28.3562 738.11 L56.1743 730.789 L28.3562 723.5 L28.3562 717.644 L64.0042 726.97 L64.0042 733.876 L34.7856 741.547 L64.0042 749.25 L64.0042 756.156 L28.3562 765.482 Z" fill="#000000" fill-rule="evenodd" fill-opacity="1" /><path clip-path="url(#clip200)" d="M46.0847 692.563 Q46.0847 699.661 47.7079 702.398 Q49.3312 705.135 53.2461 705.135 Q56.3653 705.135 58.2114 703.098 Q60.0256 701.029 60.0256 697.496 Q60.0256 692.627 56.5881 689.698 Q53.1188 686.738 47.3897 686.738 L46.0847 686.738 L46.0847 692.563 M43.6657 680.882 L64.0042 680.882 L64.0042 686.738 L58.5933 686.738 Q61.8398 688.744 63.3994 691.735 Q64.9272 694.727 64.9272 699.056 Q64.9272 704.531 61.8716 707.777 Q58.7843 710.992 53.6281 710.992 Q47.6125 710.992 44.5569 706.981 Q41.5014 702.939 41.5014 694.95 L41.5014 686.738 L40.9285 686.738 Q36.8862 686.738 34.6901 689.412 Q32.4621 692.054 32.4621 696.86 Q32.4621 699.915 33.1941 702.812 Q33.9262 705.708 35.3903 708.382 L29.9795 708.382 Q28.7381 705.167 28.1334 702.143 Q27.4968 699.12 27.4968 696.255 Q27.4968 688.521 31.5072 684.701 Q35.5176 680.882 43.6657 680.882 Z" fill="#000000" fill-rule="evenodd" fill-opacity="1" /><path clip-path="url(#clip200)" d="M33.8307 648.162 Q33.2578 649.149 33.0032 650.327 Q32.7167 651.472 32.7167 652.873 Q32.7167 657.838 35.9632 660.512 Q39.1779 663.153 45.2253 663.153 L64.0042 663.153 L64.0042 669.042 L28.3562 669.042 L28.3562 663.153 L33.8944 663.153 Q30.6479 661.307 29.0883 658.347 Q27.4968 655.387 27.4968 651.154 Q27.4968 650.549 27.5923 649.817 Q27.656 649.085 27.8151 648.194 L33.8307 648.162 Z" fill="#000000" fill-rule="evenodd" fill-opacity="1" /><path clip-path="url(#clip200)" d="M33.7671 619.708 L14.479 619.708 L14.479 613.851 L64.0042 613.851 L64.0042 619.708 L58.657 619.708 Q61.8398 621.554 63.3994 624.386 Q64.9272 627.187 64.9272 631.134 Q64.9272 637.595 59.771 641.669 Q54.6147 645.711 46.212 645.711 Q37.8093 645.711 32.6531 641.669 Q27.4968 637.595 27.4968 631.134 Q27.4968 627.187 29.0564 624.386 Q30.5842 621.554 33.7671 619.708 M46.212 639.664 Q52.6732 639.664 56.3653 637.022 Q60.0256 634.349 60.0256 629.702 Q60.0256 625.055 56.3653 622.381 Q52.6732 619.708 46.212 619.708 Q39.7508 619.708 36.0905 622.381 Q32.3984 625.055 32.3984 629.702 Q32.3984 634.349 36.0905 637.022 Q39.7508 639.664 46.212 639.664 Z" fill="#000000" fill-rule="evenodd" fill-opacity="1" /><polyline clip-path="url(#clip202)" style="stroke:#009af9; stroke-linecap:round; stroke-linejoin:round; stroke-width:4; stroke-opacity:1; fill:none" points="
  292.4,1372.3 297.413,1369.98 302.427,1367.54 307.44,1367.56 312.453,1363.5 317.467,1364.93 322.48,1362 327.494,1362.14 332.507,1362.87 337.52,1363.33 
  342.534,1361.15 347.547,1359.61 352.56,1359.49 357.574,1361 362.587,1360.17 367.601,1357.7 372.614,1358.32 377.627,1358.12 382.641,1357.47 387.654,1359.1 
  392.668,1358.79 397.681,1357.6 402.694,1358.5 407.708,1355.84 412.721,1359.51 417.735,1355.56 422.748,1354.82 427.761,1356.08 432.775,1352.02 437.788,1355.23 
  442.802,1353.96 447.815,1354.21 452.828,1354.54 457.842,1347.54 462.855,1350.92 467.869,1344.66 472.882,1346.16 477.895,1350.1 482.909,1339.13 487.922,1347.04 
  492.936,1344.26 497.949,1347.98 502.962,1341.3 507.976,1342.49 512.989,1339.85 518.003,1340.62 523.016,1333.49 528.029,1344.23 533.043,1328.96 538.056,1336.19 
  543.07,1328.1 548.083,1322.74 553.096,1340.12 558.11,1331.86 563.123,1331.9 568.137,1323.69 573.15,1335.35 578.163,1334.59 583.177,1307.2 588.19,1335 
  593.204,1316.98 598.217,1310.98 603.23,1315.39 608.244,1320.91 613.257,1311.86 618.271,1305.2 623.284,1310.01 628.297,1308.92 633.311,1306.12 638.324,1310.8 
  643.338,1295.84 648.351,1300.43 653.364,1286.18 658.378,1309.46 663.391,1282.32 668.405,1289.41 673.418,1284.42 678.431,1282.12 683.445,1283.08 688.458,1283.41 
  693.472,1268.23 698.485,1258.77 703.498,1248.75 708.512,1250.29 713.525,1249.57 718.539,1246.65 723.552,1217.19 728.565,1226.92 733.579,1231.92 738.592,1234.75 
  743.606,1215 748.619,1195.19 753.632,1205.5 758.646,1170.82 763.659,1182.44 768.673,1186.21 773.686,1172.34 778.699,1146.41 783.713,1132.39 788.726,1129.25 
  793.74,1125.28 798.753,1130.79 803.766,1113.13 808.78,1121.01 813.793,1088.86 818.807,1062.32 823.82,1046.85 828.833,1104.21 833.847,1016.81 838.86,1012.78 
  843.874,1015.29 848.887,987.018 853.9,964.114 858.914,940.433 863.927,912.29 868.94,875.827 873.954,846.743 878.967,788.668 883.981,777.762 888.994,710.819 
  894.007,696.744 899.021,668.653 904.034,622.544 909.048,574.681 914.061,571.809 919.074,476.82 924.088,518.082 929.101,498.616 934.115,469.628 939.128,436.934 
  944.141,429.978 949.155,374.866 954.168,401.042 959.182,387.052 964.195,357.399 969.208,362.464 974.222,327.993 979.235,344.216 984.249,335.555 989.262,304.106 
  994.275,312.745 999.289,280.316 1004.3,282.369 1009.32,291.892 1014.33,279.954 1019.34,280.063 1024.36,269.625 1029.37,272.802 1034.38,300.557 1039.4,266.711 
  1044.41,265.3 1049.42,281.146 1054.44,278.354 1059.45,267.769 1064.46,258.989 1069.48,246.43 1074.49,249.666 1079.5,266.287 1084.52,261.258 1089.53,249.304 
  1094.54,233.458 1099.56,248.294 1104.57,238.497 1109.58,227.046 1114.6,228.989 1119.61,205.933 1124.62,211.65 1129.64,227.428 1134.65,220.893 1139.66,210.903 
  1144.68,206.064 1149.69,207.662 1154.7,199.241 1159.72,201.978 1164.73,193.346 1169.74,196.718 1174.76,199.002 1179.77,212.855 1184.78,211.31 1189.8,195.983 
  1194.81,198.731 1199.82,197.014 1204.84,191.781 1209.85,201.778 1214.86,193.785 1219.88,199.436 1224.89,191.767 1229.91,185.499 1234.92,192.417 1239.93,181.124 
  1244.95,187.783 1249.96,178.69 1254.97,179.616 1259.99,182.048 1265,184.492 1270.01,186.241 1275.03,181.311 1280.04,191.645 1285.05,186.152 1290.07,182.421 
  1295.08,182.705 1300.09,189.448 1305.11,199.973 1310.12,181.165 1315.13,183.035 1320.15,188.201 1325.16,185.516 1330.17,180.036 1335.19,175.484 1340.2,177.087 
  1345.21,164.128 1350.23,173.142 1355.24,163.509 1360.25,169.261 1365.27,175.827 1370.28,173 1375.29,168.706 1380.31,175.848 1385.32,174.176 1390.33,164.351 
  1395.35,167.912 1400.36,136.438 1405.37,152.105 1410.39,148.42 1415.4,137 1420.41,146.224 1425.43,157.547 1430.44,156.138 1435.45,159.033 1440.47,150.603 
  1445.48,145.901 1450.49,146.514 1455.51,150.175 1460.52,147.757 1465.53,140.81 1470.55,157.514 1475.56,140.887 1480.58,143.118 1485.59,130.251 1490.6,160.001 
  1495.62,151.177 1500.63,153.316 1505.64,162.38 1510.66,154.547 1515.67,129.702 1520.68,134.879 1525.7,151.515 1530.71,147.936 1535.72,142.339 1540.74,150.082 
  1545.75,125.757 1550.76,126.697 1555.78,132.571 1560.79,135.235 1565.8,144.704 1570.82,138.057 1575.83,127.108 1580.84,147.184 1585.86,147.71 1590.87,136.203 
  1595.88,134.678 1600.9,139.731 1605.91,128.36 1610.92,127.256 1615.94,151.641 1620.95,143.95 1625.96,133.539 1630.98,114.805 1635.99,126.145 1641,133.659 
  1646.02,119.181 1651.03,121.326 1656.04,130.019 1661.06,130.445 1666.07,123.324 1671.08,138.687 1676.1,146.709 1681.11,149.37 1686.12,132.438 1691.14,106.564 
  1696.15,136.648 1701.16,118.044 1706.18,114.317 1711.19,112.46 1716.2,111.186 1721.22,122.485 1726.23,124.363 1731.24,135.675 1736.26,108.283 1741.27,120.757 
  1746.29,118.503 1751.3,119.443 1756.31,116.751 1761.33,117.875 1766.34,124.612 1771.35,140.471 1776.37,127.581 1781.38,131.395 1786.39,113.138 1791.41,111.987 
  1796.42,121.35 1801.43,118.81 1806.45,118.838 1811.46,115.057 1816.47,109.703 1821.49,108.384 1826.5,112.922 1831.51,109.21 1836.53,110.994 1841.54,105.46 
  1846.55,107.782 1851.57,88.421 1856.58,100.401 1861.59,100.544 1866.61,118.266 1871.62,124.801 1876.63,123.019 1881.65,109.002 1886.66,119.783 1891.67,98.1166 
  1896.69,117.309 1901.7,103.176 1906.71,106.055 1911.73,119.747 1916.74,122.535 1921.75,129.343 1926.77,129.353 1931.78,128.535 1936.79,130.989 1941.81,99.5355 
  1946.82,120.222 1951.83,123.806 1956.85,111.684 1961.86,108.269 1966.87,124.033 1971.89,103.281 1976.9,128.248 1981.91,106.128 1986.93,134.877 1991.94,118.186 
  1996.96,102.879 2001.97,106.532 2006.98,85.838 2012,101.057 2017.01,102.972 2022.02,111.017 2027.04,99.0571 2032.05,93.3976 2037.06,108.964 2042.08,117.241 
  2047.09,104.141 2052.1,94.9816 2057.12,105.361 2062.13,108.358 2067.14,105.025 2072.16,116.958 2077.17,109.808 2082.18,108.836 2087.2,117.923 2092.21,126.901 
  2097.22,115.605 2102.24,149.738 2107.25,145.502 2112.26,109.84 2117.28,117.639 2122.29,130.817 2127.3,140.865 2132.32,123.694 2137.33,122.822 2142.34,128.835 
  2147.36,110.954 2152.37,130.34 2157.38,118.004 2162.4,127.91 2167.41,142.957 2172.42,117.388 2177.44,119.461 2182.45,114.83 2187.46,112.042 2192.48,111.158 
  2197.49,116.887 2202.5,101.472 2207.52,98.0032 2212.53,103.803 2217.54,112.952 2222.56,121.038 2227.57,103.373 2232.58,111.527 2237.6,99.0867 2242.61,102.281 
  2247.62,93.4597 2252.64,107.106 2257.65,99.219 2262.67,103.318 2267.68,92.4254 2272.69,99.1561 2277.71,119.558 2282.72,89.6489 2287.73,111.424 2292.75,108.726 
  
  "/>
</svg>
