<?xml version="1.0" encoding="utf-8"?>
<svg xmlns="http://www.w3.org/2000/svg" xmlns:xlink="http://www.w3.org/1999/xlink" width="600" height="400" viewBox="0 0 2400 1600">
<defs>
  <clipPath id="clip280">
    <rect x="0" y="0" width="2400" height="1600"/>
  </clipPath>
</defs>
<path clip-path="url(#clip280)" d="
M0 1600 L2400 1600 L2400 0 L0 0  Z
  " fill="#ffffff" fill-rule="evenodd" fill-opacity="1"/>
<defs>
  <clipPath id="clip281">
    <rect x="480" y="0" width="1681" height="1600"/>
  </clipPath>
</defs>
<path clip-path="url(#clip280)" d="
M249.542 1410.9 L2352.76 1410.9 L2352.76 47.2441 L249.542 47.2441  Z
  " fill="#ffffff" fill-rule="evenodd" fill-opacity="1"/>
<defs>
  <clipPath id="clip282">
    <rect x="249" y="47" width="2104" height="1365"/>
  </clipPath>
</defs>
<polyline clip-path="url(#clip282)" style="stroke:#000000; stroke-linecap:round; stroke-linejoin:round; stroke-width:2; stroke-opacity:0.1; fill:none" points="
  304.094,1410.9 304.094,47.2441 
  "/>
<polyline clip-path="url(#clip282)" style="stroke:#000000; stroke-linecap:round; stroke-linejoin:round; stroke-width:2; stroke-opacity:0.1; fill:none" points="
  801.378,1410.9 801.378,47.2441 
  "/>
<polyline clip-path="url(#clip282)" style="stroke:#000000; stroke-linecap:round; stroke-linejoin:round; stroke-width:2; stroke-opacity:0.1; fill:none" points="
  1298.66,1410.9 1298.66,47.2441 
  "/>
<polyline clip-path="url(#clip282)" style="stroke:#000000; stroke-linecap:round; stroke-linejoin:round; stroke-width:2; stroke-opacity:0.1; fill:none" points="
  1795.95,1410.9 1795.95,47.2441 
  "/>
<polyline clip-path="url(#clip282)" style="stroke:#000000; stroke-linecap:round; stroke-linejoin:round; stroke-width:2; stroke-opacity:0.1; fill:none" points="
  2293.23,1410.9 2293.23,47.2441 
  "/>
<polyline clip-path="url(#clip280)" style="stroke:#000000; stroke-linecap:round; stroke-linejoin:round; stroke-width:4; stroke-opacity:1; fill:none" points="
  249.542,1410.9 2352.76,1410.9 
  "/>
<polyline clip-path="url(#clip280)" style="stroke:#000000; stroke-linecap:round; stroke-linejoin:round; stroke-width:4; stroke-opacity:1; fill:none" points="
  304.094,1410.9 304.094,1392 
  "/>
<polyline clip-path="url(#clip280)" style="stroke:#000000; stroke-linecap:round; stroke-linejoin:round; stroke-width:4; stroke-opacity:1; fill:none" points="
  801.378,1410.9 801.378,1392 
  "/>
<polyline clip-path="url(#clip280)" style="stroke:#000000; stroke-linecap:round; stroke-linejoin:round; stroke-width:4; stroke-opacity:1; fill:none" points="
  1298.66,1410.9 1298.66,1392 
  "/>
<polyline clip-path="url(#clip280)" style="stroke:#000000; stroke-linecap:round; stroke-linejoin:round; stroke-width:4; stroke-opacity:1; fill:none" points="
  1795.95,1410.9 1795.95,1392 
  "/>
<polyline clip-path="url(#clip280)" style="stroke:#000000; stroke-linecap:round; stroke-linejoin:round; stroke-width:4; stroke-opacity:1; fill:none" points="
  2293.23,1410.9 2293.23,1392 
  "/>
<path clip-path="url(#clip280)" d="M304.094 1441.82 Q300.483 1441.82 298.654 1445.38 Q296.849 1448.92 296.849 1456.05 Q296.849 1463.16 298.654 1466.72 Q300.483 1470.26 304.094 1470.26 Q307.728 1470.26 309.534 1466.72 Q311.363 1463.16 311.363 1456.05 Q311.363 1448.92 309.534 1445.38 Q307.728 1441.82 304.094 1441.82 M304.094 1438.11 Q309.904 1438.11 312.96 1442.72 Q316.038 1447.3 316.038 1456.05 Q316.038 1464.78 312.96 1469.38 Q309.904 1473.97 304.094 1473.97 Q298.284 1473.97 295.205 1469.38 Q292.15 1464.78 292.15 1456.05 Q292.15 1447.3 295.205 1442.72 Q298.284 1438.11 304.094 1438.11 Z" fill="#000000" fill-rule="evenodd" fill-opacity="1" /><path clip-path="url(#clip280)" d="M709.481 1485.02 L717.12 1485.02 L717.12 1458.66 L708.809 1460.32 L708.809 1456.06 L717.073 1454.4 L721.749 1454.4 L721.749 1485.02 L729.388 1485.02 L729.388 1488.96 L709.481 1488.96 L709.481 1485.02 Z" fill="#000000" fill-rule="evenodd" fill-opacity="1" /><path clip-path="url(#clip280)" d="M738.832 1483.08 L743.717 1483.08 L743.717 1488.96 L738.832 1488.96 L738.832 1483.08 Z" fill="#000000" fill-rule="evenodd" fill-opacity="1" /><path clip-path="url(#clip280)" d="M763.902 1457.48 Q760.291 1457.48 758.462 1461.04 Q756.656 1464.58 756.656 1471.71 Q756.656 1478.82 758.462 1482.38 Q760.291 1485.92 763.902 1485.92 Q767.536 1485.92 769.341 1482.38 Q771.17 1478.82 771.17 1471.71 Q771.17 1464.58 769.341 1461.04 Q767.536 1457.48 763.902 1457.48 M763.902 1453.77 Q769.712 1453.77 772.767 1458.38 Q775.846 1462.96 775.846 1471.71 Q775.846 1480.44 772.767 1485.04 Q769.712 1489.63 763.902 1489.63 Q758.092 1489.63 755.013 1485.04 Q751.957 1480.44 751.957 1471.71 Q751.957 1462.96 755.013 1458.38 Q758.092 1453.77 763.902 1453.77 Z" fill="#000000" fill-rule="evenodd" fill-opacity="1" /><path clip-path="url(#clip280)" d="M812.235 1463.49 L801.656 1474.12 L812.235 1484.7 L809.48 1487.5 L798.855 1476.87 L788.23 1487.5 L785.499 1484.7 L796.054 1474.12 L785.499 1463.49 L788.23 1460.69 L798.855 1471.32 L809.48 1460.69 L812.235 1463.49 Z" fill="#000000" fill-rule="evenodd" fill-opacity="1" /><path clip-path="url(#clip280)" d="M824.596 1485.02 L832.235 1485.02 L832.235 1458.66 L823.925 1460.32 L823.925 1456.06 L832.188 1454.4 L836.864 1454.4 L836.864 1485.02 L844.503 1485.02 L844.503 1488.96 L824.596 1488.96 L824.596 1485.02 Z" fill="#000000" fill-rule="evenodd" fill-opacity="1" /><path clip-path="url(#clip280)" d="M863.947 1457.48 Q860.336 1457.48 858.508 1461.04 Q856.702 1464.58 856.702 1471.71 Q856.702 1478.82 858.508 1482.38 Q860.336 1485.92 863.947 1485.92 Q867.582 1485.92 869.387 1482.38 Q871.216 1478.82 871.216 1471.71 Q871.216 1464.58 869.387 1461.04 Q867.582 1457.48 863.947 1457.48 M863.947 1453.77 Q869.758 1453.77 872.813 1458.38 Q875.892 1462.96 875.892 1471.71 Q875.892 1480.44 872.813 1485.04 Q869.758 1489.63 863.947 1489.63 Q858.137 1489.63 855.059 1485.04 Q852.003 1480.44 852.003 1471.71 Q852.003 1462.96 855.059 1458.38 Q858.137 1453.77 863.947 1453.77 Z" fill="#000000" fill-rule="evenodd" fill-opacity="1" /><path clip-path="url(#clip280)" d="M875.892 1433.47 L893.947 1433.47 L893.947 1435.08 L883.753 1461.55 L879.785 1461.55 L889.377 1436.66 L875.892 1436.66 L875.892 1433.47 Z" fill="#000000" fill-rule="evenodd" fill-opacity="1" /><path clip-path="url(#clip280)" d="M1210.85 1485.02 L1227.17 1485.02 L1227.17 1488.96 L1205.23 1488.96 L1205.23 1485.02 Q1207.89 1482.27 1212.47 1477.64 Q1217.08 1472.98 1218.26 1471.64 Q1220.5 1469.12 1221.38 1467.38 Q1222.29 1465.62 1222.29 1463.93 Q1222.29 1461.18 1220.34 1459.44 Q1218.42 1457.71 1215.32 1457.71 Q1213.12 1457.71 1210.67 1458.47 Q1208.23 1459.23 1205.46 1460.79 L1205.46 1456.06 Q1208.28 1454.93 1210.73 1454.35 Q1213.19 1453.77 1215.23 1453.77 Q1220.6 1453.77 1223.79 1456.46 Q1226.98 1459.14 1226.98 1463.63 Q1226.98 1465.76 1226.17 1467.68 Q1225.39 1469.58 1223.28 1472.17 Q1222.7 1472.85 1219.6 1476.06 Q1216.5 1479.26 1210.85 1485.02 Z" fill="#000000" fill-rule="evenodd" fill-opacity="1" /><path clip-path="url(#clip280)" d="M1236.98 1483.08 L1241.87 1483.08 L1241.87 1488.96 L1236.98 1488.96 L1236.98 1483.08 Z" fill="#000000" fill-rule="evenodd" fill-opacity="1" /><path clip-path="url(#clip280)" d="M1262.05 1457.48 Q1258.44 1457.48 1256.61 1461.04 Q1254.81 1464.58 1254.81 1471.71 Q1254.81 1478.82 1256.61 1482.38 Q1258.44 1485.92 1262.05 1485.92 Q1265.69 1485.92 1267.49 1482.38 Q1269.32 1478.82 1269.32 1471.71 Q1269.32 1464.58 1267.49 1461.04 Q1265.69 1457.48 1262.05 1457.48 M1262.05 1453.77 Q1267.86 1453.77 1270.92 1458.38 Q1274 1462.96 1274 1471.71 Q1274 1480.44 1270.92 1485.04 Q1267.86 1489.63 1262.05 1489.63 Q1256.24 1489.63 1253.17 1485.04 Q1250.11 1480.44 1250.11 1471.71 Q1250.11 1462.96 1253.17 1458.38 Q1256.24 1453.77 1262.05 1453.77 Z" fill="#000000" fill-rule="evenodd" fill-opacity="1" /><path clip-path="url(#clip280)" d="M1310.39 1463.49 L1299.81 1474.12 L1310.39 1484.7 L1307.63 1487.5 L1297.01 1476.87 L1286.38 1487.5 L1283.65 1484.7 L1294.21 1474.12 L1283.65 1463.49 L1286.38 1460.69 L1297.01 1471.32 L1307.63 1460.69 L1310.39 1463.49 Z" fill="#000000" fill-rule="evenodd" fill-opacity="1" /><path clip-path="url(#clip280)" d="M1322.75 1485.02 L1330.39 1485.02 L1330.39 1458.66 L1322.08 1460.32 L1322.08 1456.06 L1330.34 1454.4 L1335.02 1454.4 L1335.02 1485.02 L1342.66 1485.02 L1342.66 1488.96 L1322.75 1488.96 L1322.75 1485.02 Z" fill="#000000" fill-rule="evenodd" fill-opacity="1" /><path clip-path="url(#clip280)" d="M1362.1 1457.48 Q1358.49 1457.48 1356.66 1461.04 Q1354.85 1464.58 1354.85 1471.71 Q1354.85 1478.82 1356.66 1482.38 Q1358.49 1485.92 1362.1 1485.92 Q1365.73 1485.92 1367.54 1482.38 Q1369.37 1478.82 1369.37 1471.71 Q1369.37 1464.58 1367.54 1461.04 Q1365.73 1457.48 1362.1 1457.48 M1362.1 1453.77 Q1367.91 1453.77 1370.97 1458.38 Q1374.04 1462.96 1374.04 1471.71 Q1374.04 1480.44 1370.97 1485.04 Q1367.91 1489.63 1362.1 1489.63 Q1356.29 1489.63 1353.21 1485.04 Q1350.16 1480.44 1350.16 1471.71 Q1350.16 1462.96 1353.21 1458.38 Q1356.29 1453.77 1362.1 1453.77 Z" fill="#000000" fill-rule="evenodd" fill-opacity="1" /><path clip-path="url(#clip280)" d="M1374.04 1433.47 L1392.1 1433.47 L1392.1 1435.08 L1381.91 1461.55 L1377.94 1461.55 L1387.53 1436.66 L1374.04 1436.66 L1374.04 1433.47 Z" fill="#000000" fill-rule="evenodd" fill-opacity="1" /><path clip-path="url(#clip280)" d="M1718.2 1470.32 Q1721.56 1471.04 1723.44 1473.31 Q1725.33 1475.58 1725.33 1478.91 Q1725.33 1484.03 1721.82 1486.83 Q1718.3 1489.63 1711.82 1489.63 Q1709.64 1489.63 1707.32 1489.19 Q1705.03 1488.77 1702.58 1487.91 L1702.58 1483.4 Q1704.52 1484.54 1706.84 1485.11 Q1709.15 1485.69 1711.68 1485.69 Q1716.07 1485.69 1718.37 1483.96 Q1720.68 1482.22 1720.68 1478.91 Q1720.68 1475.85 1718.53 1474.14 Q1716.4 1472.41 1712.58 1472.41 L1708.55 1472.41 L1708.55 1468.56 L1712.76 1468.56 Q1716.21 1468.56 1718.04 1467.2 Q1719.87 1465.81 1719.87 1463.22 Q1719.87 1460.55 1717.97 1459.14 Q1716.1 1457.71 1712.58 1457.71 Q1710.66 1457.71 1708.46 1458.12 Q1706.26 1458.54 1703.62 1459.42 L1703.62 1455.25 Q1706.28 1454.51 1708.6 1454.14 Q1710.94 1453.77 1713 1453.77 Q1718.32 1453.77 1721.42 1456.2 Q1724.52 1458.61 1724.52 1462.73 Q1724.52 1465.6 1722.88 1467.59 Q1721.24 1469.56 1718.2 1470.32 Z" fill="#000000" fill-rule="evenodd" fill-opacity="1" /><path clip-path="url(#clip280)" d="M1734.2 1483.08 L1739.08 1483.08 L1739.08 1488.96 L1734.2 1488.96 L1734.2 1483.08 Z" fill="#000000" fill-rule="evenodd" fill-opacity="1" /><path clip-path="url(#clip280)" d="M1759.27 1457.48 Q1755.66 1457.48 1753.83 1461.04 Q1752.02 1464.58 1752.02 1471.71 Q1752.02 1478.82 1753.83 1482.38 Q1755.66 1485.92 1759.27 1485.92 Q1762.9 1485.92 1764.71 1482.38 Q1766.54 1478.82 1766.54 1471.71 Q1766.54 1464.58 1764.71 1461.04 Q1762.9 1457.48 1759.27 1457.48 M1759.27 1453.77 Q1765.08 1453.77 1768.13 1458.38 Q1771.21 1462.96 1771.21 1471.71 Q1771.21 1480.44 1768.13 1485.04 Q1765.08 1489.63 1759.27 1489.63 Q1753.46 1489.63 1750.38 1485.04 Q1747.32 1480.44 1747.32 1471.71 Q1747.32 1462.96 1750.38 1458.38 Q1753.46 1453.77 1759.27 1453.77 Z" fill="#000000" fill-rule="evenodd" fill-opacity="1" /><path clip-path="url(#clip280)" d="M1807.6 1463.49 L1797.02 1474.12 L1807.6 1484.7 L1804.85 1487.5 L1794.22 1476.87 L1783.6 1487.5 L1780.87 1484.7 L1791.42 1474.12 L1780.87 1463.49 L1783.6 1460.69 L1794.22 1471.32 L1804.85 1460.69 L1807.6 1463.49 Z" fill="#000000" fill-rule="evenodd" fill-opacity="1" /><path clip-path="url(#clip280)" d="M1819.96 1485.02 L1827.6 1485.02 L1827.6 1458.66 L1819.29 1460.32 L1819.29 1456.06 L1827.56 1454.4 L1832.23 1454.4 L1832.23 1485.02 L1839.87 1485.02 L1839.87 1488.96 L1819.96 1488.96 L1819.96 1485.02 Z" fill="#000000" fill-rule="evenodd" fill-opacity="1" /><path clip-path="url(#clip280)" d="M1859.31 1457.48 Q1855.7 1457.48 1853.87 1461.04 Q1852.07 1464.58 1852.07 1471.71 Q1852.07 1478.82 1853.87 1482.38 Q1855.7 1485.92 1859.31 1485.92 Q1862.95 1485.92 1864.75 1482.38 Q1866.58 1478.82 1866.58 1471.71 Q1866.58 1464.58 1864.75 1461.04 Q1862.95 1457.48 1859.31 1457.48 M1859.31 1453.77 Q1865.12 1453.77 1868.18 1458.38 Q1871.26 1462.96 1871.26 1471.71 Q1871.26 1480.44 1868.18 1485.04 Q1865.12 1489.63 1859.31 1489.63 Q1853.5 1489.63 1850.43 1485.04 Q1847.37 1480.44 1847.37 1471.71 Q1847.37 1462.96 1850.43 1458.38 Q1853.5 1453.77 1859.31 1453.77 Z" fill="#000000" fill-rule="evenodd" fill-opacity="1" /><path clip-path="url(#clip280)" d="M1871.26 1433.47 L1889.31 1433.47 L1889.31 1435.08 L1879.12 1461.55 L1875.15 1461.55 L1884.74 1436.66 L1871.26 1436.66 L1871.26 1433.47 Z" fill="#000000" fill-rule="evenodd" fill-opacity="1" /><path clip-path="url(#clip280)" d="M2214.82 1458.47 L2203.01 1476.92 L2214.82 1476.92 L2214.82 1458.47 M2213.59 1454.4 L2219.47 1454.4 L2219.47 1476.92 L2224.4 1476.92 L2224.4 1480.81 L2219.47 1480.81 L2219.47 1488.96 L2214.82 1488.96 L2214.82 1480.81 L2199.22 1480.81 L2199.22 1476.29 L2213.59 1454.4 Z" fill="#000000" fill-rule="evenodd" fill-opacity="1" /><path clip-path="url(#clip280)" d="M2232.13 1483.08 L2237.02 1483.08 L2237.02 1488.96 L2232.13 1488.96 L2232.13 1483.08 Z" fill="#000000" fill-rule="evenodd" fill-opacity="1" /><path clip-path="url(#clip280)" d="M2257.2 1457.48 Q2253.59 1457.48 2251.76 1461.04 Q2249.96 1464.58 2249.96 1471.71 Q2249.96 1478.82 2251.76 1482.38 Q2253.59 1485.92 2257.2 1485.92 Q2260.84 1485.92 2262.64 1482.38 Q2264.47 1478.82 2264.47 1471.71 Q2264.47 1464.58 2262.64 1461.04 Q2260.84 1457.48 2257.2 1457.48 M2257.2 1453.77 Q2263.01 1453.77 2266.07 1458.38 Q2269.15 1462.96 2269.15 1471.71 Q2269.15 1480.44 2266.07 1485.04 Q2263.01 1489.63 2257.2 1489.63 Q2251.39 1489.63 2248.31 1485.04 Q2245.26 1480.44 2245.26 1471.71 Q2245.26 1462.96 2248.31 1458.38 Q2251.39 1453.77 2257.2 1453.77 Z" fill="#000000" fill-rule="evenodd" fill-opacity="1" /><path clip-path="url(#clip280)" d="M2305.53 1463.49 L2294.96 1474.12 L2305.53 1484.7 L2302.78 1487.5 L2292.15 1476.87 L2281.53 1487.5 L2278.8 1484.7 L2289.35 1474.12 L2278.8 1463.49 L2281.53 1460.69 L2292.15 1471.32 L2302.78 1460.69 L2305.53 1463.49 Z" fill="#000000" fill-rule="evenodd" fill-opacity="1" /><path clip-path="url(#clip280)" d="M2317.9 1485.02 L2325.53 1485.02 L2325.53 1458.66 L2317.22 1460.32 L2317.22 1456.06 L2325.49 1454.4 L2330.16 1454.4 L2330.16 1485.02 L2337.8 1485.02 L2337.8 1488.96 L2317.9 1488.96 L2317.9 1485.02 Z" fill="#000000" fill-rule="evenodd" fill-opacity="1" /><path clip-path="url(#clip280)" d="M2357.25 1457.48 Q2353.64 1457.48 2351.81 1461.04 Q2350 1464.58 2350 1471.71 Q2350 1478.82 2351.81 1482.38 Q2353.64 1485.92 2357.25 1485.92 Q2360.88 1485.92 2362.69 1482.38 Q2364.52 1478.82 2364.52 1471.71 Q2364.52 1464.58 2362.69 1461.04 Q2360.88 1457.48 2357.25 1457.48 M2357.25 1453.77 Q2363.06 1453.77 2366.11 1458.38 Q2369.19 1462.96 2369.19 1471.71 Q2369.19 1480.44 2366.11 1485.04 Q2363.06 1489.63 2357.25 1489.63 Q2351.44 1489.63 2348.36 1485.04 Q2345.3 1480.44 2345.3 1471.71 Q2345.3 1462.96 2348.36 1458.38 Q2351.44 1453.77 2357.25 1453.77 Z" fill="#000000" fill-rule="evenodd" fill-opacity="1" /><path clip-path="url(#clip280)" d="M2369.19 1433.47 L2387.25 1433.47 L2387.25 1435.08 L2377.05 1461.55 L2373.08 1461.55 L2382.68 1436.66 L2369.19 1436.66 L2369.19 1433.47 Z" fill="#000000" fill-rule="evenodd" fill-opacity="1" /><path clip-path="url(#clip280)" d="M1150.71 1526.67 L1157.14 1526.67 L1157.14 1574.19 L1150.71 1574.19 L1150.71 1526.67 Z" fill="#000000" fill-rule="evenodd" fill-opacity="1" /><path clip-path="url(#clip280)" d="M1175.47 1528.42 L1175.47 1538.54 L1187.54 1538.54 L1187.54 1543.09 L1175.47 1543.09 L1175.47 1562.44 Q1175.47 1566.8 1176.65 1568.04 Q1177.86 1569.28 1181.52 1569.28 L1187.54 1569.28 L1187.54 1574.19 L1181.52 1574.19 Q1174.74 1574.19 1172.16 1571.67 Q1169.59 1569.12 1169.59 1562.44 L1169.59 1543.09 L1165.29 1543.09 L1165.29 1538.54 L1169.59 1538.54 L1169.59 1528.42 L1175.47 1528.42 Z" fill="#000000" fill-rule="evenodd" fill-opacity="1" /><path clip-path="url(#clip280)" d="M1225.73 1554.9 L1225.73 1557.76 L1198.8 1557.76 Q1199.19 1563.81 1202.43 1566.99 Q1205.71 1570.14 1211.54 1570.14 Q1214.91 1570.14 1218.06 1569.32 Q1221.24 1568.49 1224.36 1566.83 L1224.36 1572.37 Q1221.21 1573.71 1217.9 1574.41 Q1214.59 1575.11 1211.19 1575.11 Q1202.66 1575.11 1197.66 1570.14 Q1192.69 1565.18 1192.69 1556.71 Q1192.69 1547.96 1197.4 1542.83 Q1202.15 1537.68 1210.17 1537.68 Q1217.36 1537.68 1221.53 1542.33 Q1225.73 1546.94 1225.73 1554.9 M1219.87 1553.18 Q1219.81 1548.37 1217.17 1545.51 Q1214.56 1542.64 1210.23 1542.64 Q1205.33 1542.64 1202.37 1545.41 Q1199.44 1548.18 1199 1553.21 L1219.87 1553.18 Z" fill="#000000" fill-rule="evenodd" fill-opacity="1" /><path clip-path="url(#clip280)" d="M1256 1544.01 Q1255.01 1543.44 1253.84 1543.18 Q1252.69 1542.9 1251.29 1542.9 Q1246.32 1542.9 1243.65 1546.14 Q1241.01 1549.36 1241.01 1555.41 L1241.01 1574.19 L1235.12 1574.19 L1235.12 1538.54 L1241.01 1538.54 L1241.01 1544.08 Q1242.86 1540.83 1245.82 1539.27 Q1248.78 1537.68 1253.01 1537.68 Q1253.61 1537.68 1254.35 1537.77 Q1255.08 1537.84 1255.97 1538 L1256 1544.01 Z" fill="#000000" fill-rule="evenodd" fill-opacity="1" /><path clip-path="url(#clip280)" d="M1278.34 1556.27 Q1271.25 1556.27 1268.51 1557.89 Q1265.77 1559.51 1265.77 1563.43 Q1265.77 1566.55 1267.81 1568.39 Q1269.88 1570.21 1273.41 1570.21 Q1278.28 1570.21 1281.21 1566.77 Q1284.17 1563.3 1284.17 1557.57 L1284.17 1556.27 L1278.34 1556.27 M1290.02 1553.85 L1290.02 1574.19 L1284.17 1574.19 L1284.17 1568.77 Q1282.16 1572.02 1279.17 1573.58 Q1276.18 1575.11 1271.85 1575.11 Q1266.38 1575.11 1263.13 1572.05 Q1259.92 1568.97 1259.92 1563.81 Q1259.92 1557.79 1263.93 1554.74 Q1267.97 1551.68 1275.96 1551.68 L1284.17 1551.68 L1284.17 1551.11 Q1284.17 1547.07 1281.49 1544.87 Q1278.85 1542.64 1274.05 1542.64 Q1270.99 1542.64 1268.1 1543.38 Q1265.2 1544.11 1262.53 1545.57 L1262.53 1540.16 Q1265.74 1538.92 1268.76 1538.31 Q1271.79 1537.68 1274.65 1537.68 Q1282.39 1537.68 1286.21 1541.69 Q1290.02 1545.7 1290.02 1553.85 Z" fill="#000000" fill-rule="evenodd" fill-opacity="1" /><path clip-path="url(#clip280)" d="M1307.88 1528.42 L1307.88 1538.54 L1319.94 1538.54 L1319.94 1543.09 L1307.88 1543.09 L1307.88 1562.44 Q1307.88 1566.8 1309.06 1568.04 Q1310.27 1569.28 1313.93 1569.28 L1319.94 1569.28 L1319.94 1574.19 L1313.93 1574.19 Q1307.15 1574.19 1304.57 1571.67 Q1301.99 1569.12 1301.99 1562.44 L1301.99 1543.09 L1297.7 1543.09 L1297.7 1538.54 L1301.99 1538.54 L1301.99 1528.42 L1307.88 1528.42 Z" fill="#000000" fill-rule="evenodd" fill-opacity="1" /><path clip-path="url(#clip280)" d="M1327.65 1538.54 L1333.5 1538.54 L1333.5 1574.19 L1327.65 1574.19 L1327.65 1538.54 M1327.65 1524.66 L1333.5 1524.66 L1333.5 1532.08 L1327.65 1532.08 L1327.65 1524.66 Z" fill="#000000" fill-rule="evenodd" fill-opacity="1" /><path clip-path="url(#clip280)" d="M1359.57 1542.64 Q1354.86 1542.64 1352.12 1546.34 Q1349.39 1550 1349.39 1556.39 Q1349.39 1562.79 1352.09 1566.48 Q1354.83 1570.14 1359.57 1570.14 Q1364.25 1570.14 1366.99 1566.45 Q1369.72 1562.76 1369.72 1556.39 Q1369.72 1550.06 1366.99 1546.37 Q1364.25 1542.64 1359.57 1542.64 M1359.57 1537.68 Q1367.21 1537.68 1371.57 1542.64 Q1375.93 1547.61 1375.93 1556.39 Q1375.93 1565.15 1371.57 1570.14 Q1367.21 1575.11 1359.57 1575.11 Q1351.9 1575.11 1347.54 1570.14 Q1343.21 1565.15 1343.21 1556.39 Q1343.21 1547.61 1347.54 1542.64 Q1351.9 1537.68 1359.57 1537.68 Z" fill="#000000" fill-rule="evenodd" fill-opacity="1" /><path clip-path="url(#clip280)" d="M1415.27 1552.67 L1415.27 1574.19 L1409.41 1574.19 L1409.41 1552.86 Q1409.41 1547.8 1407.44 1545.29 Q1405.47 1542.77 1401.52 1542.77 Q1396.78 1542.77 1394.04 1545.79 Q1391.3 1548.82 1391.3 1554.04 L1391.3 1574.19 L1385.42 1574.19 L1385.42 1538.54 L1391.3 1538.54 L1391.3 1544.08 Q1393.4 1540.86 1396.24 1539.27 Q1399.1 1537.68 1402.83 1537.68 Q1408.97 1537.68 1412.12 1541.5 Q1415.27 1545.29 1415.27 1552.67 Z" fill="#000000" fill-rule="evenodd" fill-opacity="1" /><path clip-path="url(#clip280)" d="M1449.68 1539.59 L1449.68 1545.13 Q1447.19 1543.85 1444.52 1543.22 Q1441.85 1542.58 1438.98 1542.58 Q1434.62 1542.58 1432.43 1543.92 Q1430.26 1545.25 1430.26 1547.93 Q1430.26 1549.96 1431.82 1551.14 Q1433.38 1552.29 1438.09 1553.34 L1440.1 1553.78 Q1446.33 1555.12 1448.94 1557.57 Q1451.59 1559.99 1451.59 1564.35 Q1451.59 1569.32 1447.64 1572.21 Q1443.72 1575.11 1436.85 1575.11 Q1433.99 1575.11 1430.87 1574.54 Q1427.78 1573.99 1424.34 1572.88 L1424.34 1566.83 Q1427.59 1568.52 1430.74 1569.38 Q1433.89 1570.21 1436.98 1570.21 Q1441.11 1570.21 1443.34 1568.81 Q1445.57 1567.37 1445.57 1564.8 Q1445.57 1562.41 1443.95 1561.14 Q1442.36 1559.86 1436.91 1558.68 L1434.88 1558.21 Q1429.43 1557.06 1427.01 1554.71 Q1424.6 1552.32 1424.6 1548.18 Q1424.6 1543.15 1428.16 1540.42 Q1431.73 1537.68 1438.28 1537.68 Q1441.53 1537.68 1444.39 1538.16 Q1447.26 1538.63 1449.68 1539.59 Z" fill="#000000" fill-rule="evenodd" fill-opacity="1" /><polyline clip-path="url(#clip282)" style="stroke:#000000; stroke-linecap:round; stroke-linejoin:round; stroke-width:2; stroke-opacity:0.1; fill:none" points="
  249.542,1372.3 2352.76,1372.3 
  "/>
<polyline clip-path="url(#clip282)" style="stroke:#000000; stroke-linecap:round; stroke-linejoin:round; stroke-width:2; stroke-opacity:0.1; fill:none" points="
  249.542,1050.69 2352.76,1050.69 
  "/>
<polyline clip-path="url(#clip282)" style="stroke:#000000; stroke-linecap:round; stroke-linejoin:round; stroke-width:2; stroke-opacity:0.1; fill:none" points="
  249.542,729.07 2352.76,729.07 
  "/>
<polyline clip-path="url(#clip282)" style="stroke:#000000; stroke-linecap:round; stroke-linejoin:round; stroke-width:2; stroke-opacity:0.1; fill:none" points="
  249.542,407.454 2352.76,407.454 
  "/>
<polyline clip-path="url(#clip282)" style="stroke:#000000; stroke-linecap:round; stroke-linejoin:round; stroke-width:2; stroke-opacity:0.1; fill:none" points="
  249.542,85.838 2352.76,85.838 
  "/>
<polyline clip-path="url(#clip280)" style="stroke:#000000; stroke-linecap:round; stroke-linejoin:round; stroke-width:4; stroke-opacity:1; fill:none" points="
  249.542,1410.9 249.542,47.2441 
  "/>
<polyline clip-path="url(#clip280)" style="stroke:#000000; stroke-linecap:round; stroke-linejoin:round; stroke-width:4; stroke-opacity:1; fill:none" points="
  249.542,1372.3 268.44,1372.3 
  "/>
<polyline clip-path="url(#clip280)" style="stroke:#000000; stroke-linecap:round; stroke-linejoin:round; stroke-width:4; stroke-opacity:1; fill:none" points="
  249.542,1050.69 268.44,1050.69 
  "/>
<polyline clip-path="url(#clip280)" style="stroke:#000000; stroke-linecap:round; stroke-linejoin:round; stroke-width:4; stroke-opacity:1; fill:none" points="
  249.542,729.07 268.44,729.07 
  "/>
<polyline clip-path="url(#clip280)" style="stroke:#000000; stroke-linecap:round; stroke-linejoin:round; stroke-width:4; stroke-opacity:1; fill:none" points="
  249.542,407.454 268.44,407.454 
  "/>
<polyline clip-path="url(#clip280)" style="stroke:#000000; stroke-linecap:round; stroke-linejoin:round; stroke-width:4; stroke-opacity:1; fill:none" points="
  249.542,85.838 268.44,85.838 
  "/>
<path clip-path="url(#clip280)" d="M126.205 1358.1 Q122.593 1358.1 120.765 1361.67 Q118.959 1365.21 118.959 1372.34 Q118.959 1379.44 120.765 1383.01 Q122.593 1386.55 126.205 1386.55 Q129.839 1386.55 131.644 1383.01 Q133.473 1379.44 133.473 1372.34 Q133.473 1365.21 131.644 1361.67 Q129.839 1358.1 126.205 1358.1 M126.205 1354.4 Q132.015 1354.4 135.07 1359 Q138.149 1363.59 138.149 1372.34 Q138.149 1381.06 135.07 1385.67 Q132.015 1390.25 126.205 1390.25 Q120.394 1390.25 117.316 1385.67 Q114.26 1381.06 114.26 1372.34 Q114.26 1363.59 117.316 1359 Q120.394 1354.4 126.205 1354.4 Z" fill="#000000" fill-rule="evenodd" fill-opacity="1" /><path clip-path="url(#clip280)" d="M146.366 1383.7 L151.251 1383.7 L151.251 1389.58 L146.366 1389.58 L146.366 1383.7 Z" fill="#000000" fill-rule="evenodd" fill-opacity="1" /><path clip-path="url(#clip280)" d="M171.436 1358.1 Q167.825 1358.1 165.996 1361.67 Q164.19 1365.21 164.19 1372.34 Q164.19 1379.44 165.996 1383.01 Q167.825 1386.55 171.436 1386.55 Q175.07 1386.55 176.876 1383.01 Q178.704 1379.44 178.704 1372.34 Q178.704 1365.21 176.876 1361.67 Q175.07 1358.1 171.436 1358.1 M171.436 1354.4 Q177.246 1354.4 180.301 1359 Q183.38 1363.59 183.38 1372.34 Q183.38 1381.06 180.301 1385.67 Q177.246 1390.25 171.436 1390.25 Q165.626 1390.25 162.547 1385.67 Q159.491 1381.06 159.491 1372.34 Q159.491 1363.59 162.547 1359 Q165.626 1354.4 171.436 1354.4 Z" fill="#000000" fill-rule="evenodd" fill-opacity="1" /><path clip-path="url(#clip280)" d="M201.598 1358.1 Q197.987 1358.1 196.158 1361.67 Q194.352 1365.21 194.352 1372.34 Q194.352 1379.44 196.158 1383.01 Q197.987 1386.55 201.598 1386.55 Q205.232 1386.55 207.037 1383.01 Q208.866 1379.44 208.866 1372.34 Q208.866 1365.21 207.037 1361.67 Q205.232 1358.1 201.598 1358.1 M201.598 1354.4 Q207.408 1354.4 210.463 1359 Q213.542 1363.59 213.542 1372.34 Q213.542 1381.06 210.463 1385.67 Q207.408 1390.25 201.598 1390.25 Q195.787 1390.25 192.709 1385.67 Q189.653 1381.06 189.653 1372.34 Q189.653 1363.59 192.709 1359 Q195.787 1354.4 201.598 1354.4 Z" fill="#000000" fill-rule="evenodd" fill-opacity="1" /><path clip-path="url(#clip280)" d="M127.2 1036.49 Q123.589 1036.49 121.76 1040.05 Q119.955 1043.59 119.955 1050.72 Q119.955 1057.83 121.76 1061.39 Q123.589 1064.93 127.2 1064.93 Q130.834 1064.93 132.64 1061.39 Q134.468 1057.83 134.468 1050.72 Q134.468 1043.59 132.64 1040.05 Q130.834 1036.49 127.2 1036.49 M127.2 1032.78 Q133.01 1032.78 136.066 1037.39 Q139.144 1041.97 139.144 1050.72 Q139.144 1059.45 136.066 1064.05 Q133.01 1068.64 127.2 1068.64 Q121.39 1068.64 118.311 1064.05 Q115.256 1059.45 115.256 1050.72 Q115.256 1041.97 118.311 1037.39 Q121.39 1032.78 127.2 1032.78 Z" fill="#000000" fill-rule="evenodd" fill-opacity="1" /><path clip-path="url(#clip280)" d="M147.362 1062.09 L152.246 1062.09 L152.246 1067.97 L147.362 1067.97 L147.362 1062.09 Z" fill="#000000" fill-rule="evenodd" fill-opacity="1" /><path clip-path="url(#clip280)" d="M166.459 1064.03 L182.778 1064.03 L182.778 1067.97 L160.834 1067.97 L160.834 1064.03 Q163.496 1061.28 168.079 1056.65 Q172.686 1051.99 173.866 1050.65 Q176.112 1048.13 176.991 1046.39 Q177.894 1044.63 177.894 1042.94 Q177.894 1040.19 175.95 1038.45 Q174.028 1036.72 170.927 1036.72 Q168.727 1036.72 166.274 1037.48 Q163.843 1038.24 161.065 1039.8 L161.065 1035.07 Q163.89 1033.94 166.343 1033.36 Q168.797 1032.78 170.834 1032.78 Q176.204 1032.78 179.399 1035.47 Q182.593 1038.15 182.593 1042.64 Q182.593 1044.77 181.783 1046.69 Q180.996 1048.59 178.889 1051.18 Q178.311 1051.86 175.209 1055.07 Q172.107 1058.27 166.459 1064.03 Z" fill="#000000" fill-rule="evenodd" fill-opacity="1" /><path clip-path="url(#clip280)" d="M192.639 1033.41 L210.996 1033.41 L210.996 1037.34 L196.922 1037.34 L196.922 1045.81 Q197.94 1045.47 198.959 1045.3 Q199.977 1045.12 200.996 1045.12 Q206.783 1045.12 210.162 1048.29 Q213.542 1051.46 213.542 1056.88 Q213.542 1062.46 210.07 1065.56 Q206.598 1068.64 200.278 1068.64 Q198.102 1068.64 195.834 1068.27 Q193.588 1067.9 191.181 1067.16 L191.181 1062.46 Q193.264 1063.59 195.487 1064.15 Q197.709 1064.7 200.186 1064.7 Q204.19 1064.7 206.528 1062.6 Q208.866 1060.49 208.866 1056.88 Q208.866 1053.27 206.528 1051.16 Q204.19 1049.05 200.186 1049.05 Q198.311 1049.05 196.436 1049.47 Q194.584 1049.89 192.639 1050.77 L192.639 1033.41 Z" fill="#000000" fill-rule="evenodd" fill-opacity="1" /><path clip-path="url(#clip280)" d="M126.205 714.869 Q122.593 714.869 120.765 718.434 Q118.959 721.975 118.959 729.105 Q118.959 736.212 120.765 739.776 Q122.593 743.318 126.205 743.318 Q129.839 743.318 131.644 739.776 Q133.473 736.212 133.473 729.105 Q133.473 721.975 131.644 718.434 Q129.839 714.869 126.205 714.869 M126.205 711.165 Q132.015 711.165 135.07 715.772 Q138.149 720.355 138.149 729.105 Q138.149 737.832 135.07 742.438 Q132.015 747.022 126.205 747.022 Q120.394 747.022 117.316 742.438 Q114.26 737.832 114.26 729.105 Q114.26 720.355 117.316 715.772 Q120.394 711.165 126.205 711.165 Z" fill="#000000" fill-rule="evenodd" fill-opacity="1" /><path clip-path="url(#clip280)" d="M146.366 740.471 L151.251 740.471 L151.251 746.35 L146.366 746.35 L146.366 740.471 Z" fill="#000000" fill-rule="evenodd" fill-opacity="1" /><path clip-path="url(#clip280)" d="M161.482 711.79 L179.839 711.79 L179.839 715.726 L165.765 715.726 L165.765 724.198 Q166.783 723.85 167.802 723.688 Q168.82 723.503 169.839 723.503 Q175.626 723.503 179.005 726.675 Q182.385 729.846 182.385 735.262 Q182.385 740.841 178.913 743.943 Q175.44 747.022 169.121 747.022 Q166.945 747.022 164.677 746.651 Q162.431 746.281 160.024 745.54 L160.024 740.841 Q162.107 741.975 164.329 742.531 Q166.552 743.086 169.028 743.086 Q173.033 743.086 175.371 740.98 Q177.709 738.874 177.709 735.262 Q177.709 731.651 175.371 729.545 Q173.033 727.438 169.028 727.438 Q167.153 727.438 165.278 727.855 Q163.427 728.272 161.482 729.151 L161.482 711.79 Z" fill="#000000" fill-rule="evenodd" fill-opacity="1" /><path clip-path="url(#clip280)" d="M201.598 714.869 Q197.987 714.869 196.158 718.434 Q194.352 721.975 194.352 729.105 Q194.352 736.212 196.158 739.776 Q197.987 743.318 201.598 743.318 Q205.232 743.318 207.037 739.776 Q208.866 736.212 208.866 729.105 Q208.866 721.975 207.037 718.434 Q205.232 714.869 201.598 714.869 M201.598 711.165 Q207.408 711.165 210.463 715.772 Q213.542 720.355 213.542 729.105 Q213.542 737.832 210.463 742.438 Q207.408 747.022 201.598 747.022 Q195.787 747.022 192.709 742.438 Q189.653 737.832 189.653 729.105 Q189.653 720.355 192.709 715.772 Q195.787 711.165 201.598 711.165 Z" fill="#000000" fill-rule="evenodd" fill-opacity="1" /><path clip-path="url(#clip280)" d="M127.2 393.253 Q123.589 393.253 121.76 396.818 Q119.955 400.359 119.955 407.489 Q119.955 414.595 121.76 418.16 Q123.589 421.702 127.2 421.702 Q130.834 421.702 132.64 418.16 Q134.468 414.595 134.468 407.489 Q134.468 400.359 132.64 396.818 Q130.834 393.253 127.2 393.253 M127.2 389.549 Q133.01 389.549 136.066 394.156 Q139.144 398.739 139.144 407.489 Q139.144 416.216 136.066 420.822 Q133.01 425.405 127.2 425.405 Q121.39 425.405 118.311 420.822 Q115.256 416.216 115.256 407.489 Q115.256 398.739 118.311 394.156 Q121.39 389.549 127.2 389.549 Z" fill="#000000" fill-rule="evenodd" fill-opacity="1" /><path clip-path="url(#clip280)" d="M147.362 418.855 L152.246 418.855 L152.246 424.734 L147.362 424.734 L147.362 418.855 Z" fill="#000000" fill-rule="evenodd" fill-opacity="1" /><path clip-path="url(#clip280)" d="M161.251 390.174 L183.473 390.174 L183.473 392.165 L170.927 424.734 L166.042 424.734 L177.848 394.109 L161.251 394.109 L161.251 390.174 Z" fill="#000000" fill-rule="evenodd" fill-opacity="1" /><path clip-path="url(#clip280)" d="M192.639 390.174 L210.996 390.174 L210.996 394.109 L196.922 394.109 L196.922 402.582 Q197.94 402.234 198.959 402.072 Q199.977 401.887 200.996 401.887 Q206.783 401.887 210.162 405.058 Q213.542 408.23 213.542 413.646 Q213.542 419.225 210.07 422.327 Q206.598 425.405 200.278 425.405 Q198.102 425.405 195.834 425.035 Q193.588 424.665 191.181 423.924 L191.181 419.225 Q193.264 420.359 195.487 420.915 Q197.709 421.47 200.186 421.47 Q204.19 421.47 206.528 419.364 Q208.866 417.257 208.866 413.646 Q208.866 410.035 206.528 407.929 Q204.19 405.822 200.186 405.822 Q198.311 405.822 196.436 406.239 Q194.584 406.656 192.639 407.535 L192.639 390.174 Z" fill="#000000" fill-rule="evenodd" fill-opacity="1" /><path clip-path="url(#clip280)" d="M117.015 99.1829 L124.654 99.1829 L124.654 72.8173 L116.343 74.4839 L116.343 70.2247 L124.607 68.558 L129.283 68.558 L129.283 99.1829 L136.922 99.1829 L136.922 103.118 L117.015 103.118 L117.015 99.1829 Z" fill="#000000" fill-rule="evenodd" fill-opacity="1" /><path clip-path="url(#clip280)" d="M146.366 97.2384 L151.251 97.2384 L151.251 103.118 L146.366 103.118 L146.366 97.2384 Z" fill="#000000" fill-rule="evenodd" fill-opacity="1" /><path clip-path="url(#clip280)" d="M171.436 71.6367 Q167.825 71.6367 165.996 75.2015 Q164.19 78.7432 164.19 85.8728 Q164.19 92.9792 165.996 96.544 Q167.825 100.086 171.436 100.086 Q175.07 100.086 176.876 96.544 Q178.704 92.9792 178.704 85.8728 Q178.704 78.7432 176.876 75.2015 Q175.07 71.6367 171.436 71.6367 M171.436 67.933 Q177.246 67.933 180.301 72.5395 Q183.38 77.1228 183.38 85.8728 Q183.38 94.5996 180.301 99.206 Q177.246 103.789 171.436 103.789 Q165.626 103.789 162.547 99.206 Q159.491 94.5996 159.491 85.8728 Q159.491 77.1228 162.547 72.5395 Q165.626 67.933 171.436 67.933 Z" fill="#000000" fill-rule="evenodd" fill-opacity="1" /><path clip-path="url(#clip280)" d="M201.598 71.6367 Q197.987 71.6367 196.158 75.2015 Q194.352 78.7432 194.352 85.8728 Q194.352 92.9792 196.158 96.544 Q197.987 100.086 201.598 100.086 Q205.232 100.086 207.037 96.544 Q208.866 92.9792 208.866 85.8728 Q208.866 78.7432 207.037 75.2015 Q205.232 71.6367 201.598 71.6367 M201.598 67.933 Q207.408 67.933 210.463 72.5395 Q213.542 77.1228 213.542 85.8728 Q213.542 94.5996 210.463 99.206 Q207.408 103.789 201.598 103.789 Q195.787 103.789 192.709 99.206 Q189.653 94.5996 189.653 85.8728 Q189.653 77.1228 192.709 72.5395 Q195.787 67.933 201.598 67.933 Z" fill="#000000" fill-rule="evenodd" fill-opacity="1" /><path clip-path="url(#clip280)" d="M18.0438 910.891 L24.314 910.891 Q22.5634 914.551 21.704 917.798 Q20.8447 921.044 20.8447 924.068 Q20.8447 929.32 22.8817 932.184 Q24.9187 935.017 28.6745 935.017 Q31.8255 935.017 33.4488 933.139 Q35.0402 931.229 36.0269 925.946 L36.8226 922.063 Q38.1912 914.869 41.6605 911.464 Q45.098 908.026 50.8908 908.026 Q57.7976 908.026 61.3624 912.673 Q64.9272 917.288 64.9272 926.232 Q64.9272 929.606 64.1633 933.425 Q63.3994 937.213 61.9035 941.287 L55.2831 941.287 Q57.4793 937.372 58.5933 933.616 Q59.7073 929.861 59.7073 926.232 Q59.7073 920.726 57.543 917.734 Q55.3786 914.742 51.3682 914.742 Q47.8671 914.742 45.8937 916.906 Q43.9204 919.039 42.9337 923.941 L42.1698 927.855 Q40.7375 935.049 37.682 938.263 Q34.6264 941.478 29.1837 941.478 Q22.8817 941.478 19.2532 937.054 Q15.6248 932.598 15.6248 924.8 Q15.6248 921.458 16.2295 917.989 Q16.8343 914.519 18.0438 910.891 Z" fill="#000000" fill-rule="evenodd" fill-opacity="1" /><path clip-path="url(#clip280)" d="M49.9359 898.86 L28.3562 898.86 L28.3562 893.003 L49.7131 893.003 Q54.7739 893.003 57.3202 891.03 Q59.8346 889.056 59.8346 885.11 Q59.8346 880.367 56.8109 877.63 Q53.7872 874.861 48.5673 874.861 L28.3562 874.861 L28.3562 869.005 L64.0042 869.005 L64.0042 874.861 L58.5296 874.861 Q61.7762 876.993 63.3676 879.826 Q64.9272 882.627 64.9272 886.351 Q64.9272 892.494 61.1078 895.677 Q57.2883 898.86 49.9359 898.86 M27.4968 884.123 L27.4968 884.123 Z" fill="#000000" fill-rule="evenodd" fill-opacity="1" /><path clip-path="url(#clip280)" d="M29.7248 831.288 L35.1993 831.288 Q33.8307 833.77 33.1623 836.285 Q32.4621 838.767 32.4621 841.314 Q32.4621 847.011 36.0905 850.162 Q39.6872 853.313 46.212 853.313 Q52.7369 853.313 56.3653 850.162 Q59.9619 847.011 59.9619 841.314 Q59.9619 838.767 59.2935 836.285 Q58.5933 833.77 57.2247 831.288 L62.6355 831.288 Q63.7814 833.738 64.3543 836.38 Q64.9272 838.99 64.9272 841.95 Q64.9272 850.003 59.8664 854.745 Q54.8057 859.488 46.212 859.488 Q37.491 859.488 32.4939 854.714 Q27.4968 849.907 27.4968 841.568 Q27.4968 838.863 28.0697 836.285 Q28.6108 833.707 29.7248 831.288 Z" fill="#000000" fill-rule="evenodd" fill-opacity="1" /><path clip-path="url(#clip280)" d="M29.7248 795.449 L35.1993 795.449 Q33.8307 797.931 33.1623 800.446 Q32.4621 802.928 32.4621 805.475 Q32.4621 811.172 36.0905 814.323 Q39.6872 817.474 46.212 817.474 Q52.7369 817.474 56.3653 814.323 Q59.9619 811.172 59.9619 805.475 Q59.9619 802.928 59.2935 800.446 Q58.5933 797.931 57.2247 795.449 L62.6355 795.449 Q63.7814 797.9 64.3543 800.541 Q64.9272 803.151 64.9272 806.111 Q64.9272 814.164 59.8664 818.906 Q54.8057 823.649 46.212 823.649 Q37.491 823.649 32.4939 818.875 Q27.4968 814.068 27.4968 805.729 Q27.4968 803.024 28.0697 800.446 Q28.6108 797.868 29.7248 795.449 Z" fill="#000000" fill-rule="evenodd" fill-opacity="1" /><path clip-path="url(#clip280)" d="M44.7161 754.772 L47.5806 754.772 L47.5806 781.699 Q53.6281 781.317 56.8109 778.07 Q59.9619 774.792 59.9619 768.967 Q59.9619 765.594 59.1344 762.443 Q58.3069 759.26 56.6518 756.141 L62.1899 756.141 Q63.5267 759.292 64.227 762.602 Q64.9272 765.912 64.9272 769.318 Q64.9272 777.848 59.9619 782.845 Q54.9967 787.81 46.5303 787.81 Q37.7774 787.81 32.6531 783.099 Q27.4968 778.357 27.4968 770.336 Q27.4968 763.143 32.1438 758.973 Q36.7589 754.772 44.7161 754.772 M42.9973 760.628 Q38.1912 760.692 35.3266 763.334 Q32.4621 765.944 32.4621 770.272 Q32.4621 775.174 35.2312 778.134 Q38.0002 781.062 43.0292 781.508 L42.9973 760.628 Z" fill="#000000" fill-rule="evenodd" fill-opacity="1" /><path clip-path="url(#clip280)" d="M29.4065 722.434 L34.9447 722.434 Q33.6716 724.917 33.035 727.59 Q32.3984 730.264 32.3984 733.129 Q32.3984 737.489 33.7352 739.685 Q35.072 741.85 37.7456 741.85 Q39.7826 741.85 40.9603 740.29 Q42.1061 738.73 43.1565 734.02 L43.6021 732.015 Q44.9389 725.776 47.3897 723.166 Q49.8086 720.524 54.1691 720.524 Q59.1344 720.524 62.0308 724.471 Q64.9272 728.386 64.9272 735.261 Q64.9272 738.126 64.3543 741.245 Q63.8132 744.332 62.6992 747.77 L56.6518 747.77 Q58.3387 744.523 59.198 741.372 Q60.0256 738.221 60.0256 735.134 Q60.0256 730.996 58.6251 728.768 Q57.1929 726.54 54.6147 726.54 Q52.2276 726.54 50.9545 728.163 Q49.6813 729.755 48.5037 735.197 L48.0262 737.234 Q46.8804 742.677 44.5251 745.096 Q42.138 747.515 38.0002 747.515 Q32.9713 747.515 30.2341 743.95 Q27.4968 740.385 27.4968 733.829 Q27.4968 730.582 27.9743 727.718 Q28.4517 724.853 29.4065 722.434 Z" fill="#000000" fill-rule="evenodd" fill-opacity="1" /><path clip-path="url(#clip280)" d="M29.4065 688.473 L34.9447 688.473 Q33.6716 690.956 33.035 693.629 Q32.3984 696.303 32.3984 699.167 Q32.3984 703.528 33.7352 705.724 Q35.072 707.888 37.7456 707.888 Q39.7826 707.888 40.9603 706.329 Q42.1061 704.769 43.1565 700.059 L43.6021 698.053 Q44.9389 691.815 47.3897 689.205 Q49.8086 686.563 54.1691 686.563 Q59.1344 686.563 62.0308 690.51 Q64.9272 694.425 64.9272 701.3 Q64.9272 704.165 64.3543 707.284 Q63.8132 710.371 62.6992 713.809 L56.6518 713.809 Q58.3387 710.562 59.198 707.411 Q60.0256 704.26 60.0256 701.173 Q60.0256 697.035 58.6251 694.807 Q57.1929 692.579 54.6147 692.579 Q52.2276 692.579 50.9545 694.202 Q49.6813 695.794 48.5037 701.236 L48.0262 703.273 Q46.8804 708.716 44.5251 711.135 Q42.138 713.554 38.0002 713.554 Q32.9713 713.554 30.2341 709.989 Q27.4968 706.424 27.4968 699.868 Q27.4968 696.621 27.9743 693.757 Q28.4517 690.892 29.4065 688.473 Z" fill="#000000" fill-rule="evenodd" fill-opacity="1" /><path clip-path="url(#clip280)" d="M41.7242 633.728 Q42.4244 631.659 44.7161 629.718 Q47.0077 627.744 51.0181 625.771 L64.0042 619.246 L64.0042 626.153 L51.8138 632.232 Q47.0395 634.587 45.48 636.815 Q43.9204 639.012 43.9204 642.831 L43.9204 649.833 L64.0042 649.833 L64.0042 656.263 L16.4842 656.263 L16.4842 641.749 Q16.4842 633.601 19.8898 629.59 Q23.2955 625.58 30.1704 625.58 Q34.6582 625.58 37.6183 627.681 Q40.5784 629.749 41.7242 633.728 M21.7677 649.833 L38.6368 649.833 L38.6368 641.749 Q38.6368 637.102 36.5043 634.747 Q34.34 632.359 30.1704 632.359 Q26.0009 632.359 23.9002 634.747 Q21.7677 637.102 21.7677 641.749 L21.7677 649.833 Z" fill="#000000" fill-rule="evenodd" fill-opacity="1" /><path clip-path="url(#clip280)" d="M46.0847 596.457 Q46.0847 603.555 47.7079 606.292 Q49.3312 609.029 53.2461 609.029 Q56.3653 609.029 58.2114 606.992 Q60.0256 604.923 60.0256 601.39 Q60.0256 596.52 56.5881 593.592 Q53.1188 590.632 47.3897 590.632 L46.0847 590.632 L46.0847 596.457 M43.6657 584.776 L64.0042 584.776 L64.0042 590.632 L58.5933 590.632 Q61.8398 592.637 63.3994 595.629 Q64.9272 598.621 64.9272 602.95 Q64.9272 608.424 61.8716 611.671 Q58.7843 614.886 53.6281 614.886 Q47.6125 614.886 44.5569 610.875 Q41.5014 606.833 41.5014 598.844 L41.5014 590.632 L40.9285 590.632 Q36.8862 590.632 34.6901 593.306 Q32.4621 595.948 32.4621 600.754 Q32.4621 603.809 33.1941 606.706 Q33.9262 609.602 35.3903 612.276 L29.9795 612.276 Q28.7381 609.061 28.1334 606.037 Q27.4968 603.013 27.4968 600.149 Q27.4968 592.415 31.5072 588.595 Q35.5176 584.776 43.6657 584.776 Z" fill="#000000" fill-rule="evenodd" fill-opacity="1" /><path clip-path="url(#clip280)" d="M18.2347 566.92 L28.3562 566.92 L28.3562 554.857 L32.9077 554.857 L32.9077 566.92 L52.2594 566.92 Q56.6199 566.92 57.8613 565.742 Q59.1026 564.533 59.1026 560.872 L59.1026 554.857 L64.0042 554.857 L64.0042 560.872 Q64.0042 567.652 61.4897 570.23 Q58.9434 572.808 52.2594 572.808 L32.9077 572.808 L32.9077 577.105 L28.3562 577.105 L28.3562 572.808 L18.2347 572.808 L18.2347 566.92 Z" fill="#000000" fill-rule="evenodd" fill-opacity="1" /><path clip-path="url(#clip280)" d="M44.7161 516.663 L47.5806 516.663 L47.5806 543.59 Q53.6281 543.208 56.8109 539.961 Q59.9619 536.683 59.9619 530.858 Q59.9619 527.484 59.1344 524.333 Q58.3069 521.15 56.6518 518.031 L62.1899 518.031 Q63.5267 521.182 64.227 524.492 Q64.9272 527.803 64.9272 531.208 Q64.9272 539.738 59.9619 544.735 Q54.9967 549.701 46.5303 549.701 Q37.7774 549.701 32.6531 544.99 Q27.4968 540.248 27.4968 532.227 Q27.4968 525.034 32.1438 520.864 Q36.7589 516.663 44.7161 516.663 M42.9973 522.519 Q38.1912 522.583 35.3266 525.225 Q32.4621 527.834 32.4621 532.163 Q32.4621 537.065 35.2312 540.025 Q38.0002 542.953 43.0292 543.399 L42.9973 522.519 Z" fill="#000000" fill-rule="evenodd" fill-opacity="1" /><polyline clip-path="url(#clip282)" style="stroke:#009af9; stroke-linecap:round; stroke-linejoin:round; stroke-width:4; stroke-opacity:1; fill:none" points="
  309.067,1372.3 314.04,1372.3 319.013,1372.3 323.985,1372.3 328.958,1372.3 333.931,1372.3 338.904,1372.3 343.877,1372.3 348.85,1372.3 353.823,1372.3 
  358.795,1372.3 363.768,1372.3 368.741,1372.3 373.714,1372.3 378.687,1372.3 383.66,1372.3 388.632,1372.3 393.605,1372.3 398.578,1372.3 403.551,1372.3 
  408.524,1372.3 413.497,1372.3 418.469,1372.3 423.442,1372.3 428.415,1372.3 433.388,1372.3 438.361,1372.3 443.334,1372.3 448.307,1372.3 453.279,1372.3 
  458.252,1372.3 463.225,1372.3 468.198,1372.3 473.171,1372.3 478.144,1372.3 483.116,1372.3 488.089,1372.3 493.062,1372.3 498.035,1372.3 503.008,1372.3 
  507.981,1372.3 512.953,1372.3 517.926,1372.3 522.899,1372.3 527.872,1372.3 532.845,1372.3 537.818,1372.3 542.791,1372.3 547.763,1372.3 552.736,1372.3 
  557.709,1372.3 562.682,1372.3 567.655,1372.3 572.628,1372.3 577.6,1372.3 582.573,1372.3 587.546,1372.3 592.519,1372.3 597.492,1372.3 602.465,1372.3 
  607.437,1372.3 612.41,1372.3 617.383,1372.3 622.356,1372.3 627.329,1372.3 632.302,1372.3 637.275,1372.3 642.247,1372.3 647.22,1372.3 652.193,1372.3 
  657.166,1372.3 662.139,1372.3 667.112,1372.3 672.084,1372.3 677.057,1372.3 682.03,1372.3 687.003,1372.3 691.976,1372.3 696.949,1372.3 701.921,1372.3 
  706.894,1372.3 711.867,1372.3 716.84,1372.3 721.813,1372.3 726.786,1372.3 731.759,1372.3 736.731,1372.3 741.704,1372.3 746.677,1372.3 751.65,1372.3 
  756.623,1372.3 761.596,1372.3 766.568,1372.3 771.541,1372.3 776.514,1372.3 781.487,1372.3 786.46,1365.87 791.433,1372.3 796.405,1372.3 801.378,1372.3 
  806.351,1372.3 811.324,1372.3 816.297,1372.3 821.27,1372.3 826.243,1372.3 831.215,1359.44 836.188,1359.44 841.161,1372.3 846.134,1359.44 851.107,1365.87 
  856.08,1301.55 861.052,1301.55 866.025,1288.68 870.998,1295.11 875.971,1243.66 880.944,1205.06 885.917,1153.6 890.889,1089.28 895.862,1044.25 900.835,947.769 
  905.808,992.796 910.781,864.149 915.754,889.878 920.727,780.529 925.699,735.503 930.672,581.127 935.645,548.965 940.618,542.533 945.591,484.642 950.564,452.48 
  955.536,381.725 960.509,310.969 965.482,375.293 970.455,355.996 975.428,317.402 980.401,285.24 985.373,265.943 990.346,265.943 995.319,208.052 1000.29,169.458 
  1005.26,143.729 1010.24,118 1015.21,111.567 1020.18,124.432 1025.16,118 1030.13,111.567 1035.1,111.567 1040.07,105.135 1045.05,143.729 1050.02,111.567 
  1054.99,105.135 1059.97,92.2704 1064.94,118 1069.91,105.135 1074.88,111.567 1079.86,98.7027 1084.83,98.7027 1089.8,111.567 1094.78,92.2704 1099.75,98.7027 
  1104.72,85.838 1109.69,111.567 1114.67,85.838 1119.64,85.838 1124.61,85.838 1129.59,85.838 1134.56,92.2704 1139.53,85.838 1144.5,92.2704 1149.48,85.838 
  1154.45,85.838 1159.42,85.838 1164.4,85.838 1169.37,92.2704 1174.34,85.838 1179.31,85.838 1184.29,85.838 1189.26,85.838 1194.23,92.2704 1199.21,85.838 
  1204.18,85.838 1209.15,92.2704 1214.12,85.838 1219.1,85.838 1224.07,85.838 1229.04,85.838 1234.02,85.838 1238.99,85.838 1243.96,85.838 1248.93,92.2704 
  1253.91,92.2704 1258.88,85.838 1263.85,92.2704 1268.83,92.2704 1273.8,85.838 1278.77,98.7027 1283.74,85.838 1288.72,85.838 1293.69,92.2704 1298.66,85.838 
  1303.64,85.838 1308.61,92.2704 1313.58,85.838 1318.55,85.838 1323.53,85.838 1328.5,85.838 1333.47,85.838 1338.45,92.2704 1343.42,98.7027 1348.39,85.838 
  1353.36,85.838 1358.34,85.838 1363.31,85.838 1368.28,85.838 1373.26,85.838 1378.23,85.838 1383.2,85.838 1388.17,85.838 1393.15,85.838 1398.12,92.2704 
  1403.09,85.838 1408.07,85.838 1413.04,85.838 1418.01,85.838 1422.98,85.838 1427.96,92.2704 1432.93,85.838 1437.9,92.2704 1442.87,85.838 1447.85,85.838 
  1452.82,92.2704 1457.79,85.838 1462.77,85.838 1467.74,85.838 1472.71,92.2704 1477.68,92.2704 1482.66,92.2704 1487.63,92.2704 1492.6,85.838 1497.58,85.838 
  1502.55,92.2704 1507.52,92.2704 1512.49,92.2704 1517.47,92.2704 1522.44,98.7027 1527.41,85.838 1532.39,85.838 1537.36,85.838 1542.33,85.838 1547.3,85.838 
  1552.28,85.838 1557.25,85.838 1562.22,85.838 1567.2,85.838 1572.17,85.838 1577.14,92.2704 1582.11,85.838 1587.09,85.838 1592.06,92.2704 1597.03,92.2704 
  1602.01,85.838 1606.98,98.7027 1611.95,92.2704 1616.92,85.838 1621.9,98.7027 1626.87,92.2704 1631.84,92.2704 1636.82,85.838 1641.79,85.838 1646.76,85.838 
  1651.73,85.838 1656.71,92.2704 1661.68,85.838 1666.65,92.2704 1671.63,105.135 1676.6,92.2704 1681.57,92.2704 1686.54,92.2704 1691.52,105.135 1696.49,85.838 
  1701.46,111.567 1706.44,92.2704 1711.41,92.2704 1716.38,85.838 1721.35,92.2704 1726.33,85.838 1731.3,85.838 1736.27,85.838 1741.25,92.2704 1746.22,85.838 
  1751.19,85.838 1756.16,85.838 1761.14,85.838 1766.11,85.838 1771.08,85.838 1776.06,92.2704 1781.03,85.838 1786,85.838 1790.97,85.838 1795.95,85.838 
  1800.92,85.838 1805.89,98.7027 1810.87,98.7027 1815.84,85.838 1820.81,92.2704 1825.78,85.838 1830.76,85.838 1835.73,85.838 1840.7,85.838 1845.68,85.838 
  1850.65,85.838 1855.62,85.838 1860.59,92.2704 1865.57,85.838 1870.54,85.838 1875.51,85.838 1880.49,92.2704 1885.46,85.838 1890.43,92.2704 1895.4,85.838 
  1900.38,85.838 1905.35,85.838 1910.32,85.838 1915.29,92.2704 1920.27,92.2704 1925.24,92.2704 1930.21,85.838 1935.19,92.2704 1940.16,85.838 1945.13,85.838 
  1950.1,92.2704 1955.08,85.838 1960.05,85.838 1965.02,85.838 1970,85.838 1974.97,85.838 1979.94,85.838 1984.91,85.838 1989.89,85.838 1994.86,85.838 
  1999.83,85.838 2004.81,85.838 2009.78,85.838 2014.75,85.838 2019.72,85.838 2024.7,85.838 2029.67,85.838 2034.64,85.838 2039.62,98.7027 2044.59,92.2704 
  2049.56,85.838 2054.53,85.838 2059.51,92.2704 2064.48,85.838 2069.45,85.838 2074.43,85.838 2079.4,92.2704 2084.37,85.838 2089.34,85.838 2094.32,85.838 
  2099.29,98.7027 2104.26,85.838 2109.24,92.2704 2114.21,85.838 2119.18,85.838 2124.15,85.838 2129.13,92.2704 2134.1,98.7027 2139.07,92.2704 2144.05,85.838 
  2149.02,85.838 2153.99,85.838 2158.96,85.838 2163.94,92.2704 2168.91,85.838 2173.88,85.838 2178.86,85.838 2183.83,85.838 2188.8,85.838 2193.77,92.2704 
  2198.75,85.838 2203.72,85.838 2208.69,85.838 2213.67,85.838 2218.64,85.838 2223.61,92.2704 2228.58,92.2704 2233.56,92.2704 2238.53,98.7027 2243.5,85.838 
  2248.48,85.838 2253.45,92.2704 2258.42,85.838 2263.39,85.838 2268.37,85.838 2273.34,85.838 2278.31,92.2704 2283.29,85.838 2288.26,85.838 2293.23,98.7027 
  
  "/>
</svg>
