<?xml version="1.0" encoding="utf-8"?>
<svg xmlns="http://www.w3.org/2000/svg" xmlns:xlink="http://www.w3.org/1999/xlink" width="600" height="400" viewBox="0 0 2400 1600">
<defs>
  <clipPath id="clip580">
    <rect x="0" y="0" width="2400" height="1600"/>
  </clipPath>
</defs>
<path clip-path="url(#clip580)" d="
M0 1600 L2400 1600 L2400 0 L0 0  Z
  " fill="#ffffff" fill-rule="evenodd" fill-opacity="1"/>
<defs>
  <clipPath id="clip581">
    <rect x="480" y="0" width="1681" height="1600"/>
  </clipPath>
</defs>
<path clip-path="url(#clip580)" d="
M232.389 1410.9 L2352.76 1410.9 L2352.76 47.2441 L232.389 47.2441  Z
  " fill="#ffffff" fill-rule="evenodd" fill-opacity="1"/>
<defs>
  <clipPath id="clip582">
    <rect x="232" y="47" width="2121" height="1365"/>
  </clipPath>
</defs>
<polyline clip-path="url(#clip582)" style="stroke:#000000; stroke-linecap:butt; stroke-linejoin:round; stroke-width:2; stroke-opacity:0.1; fill:none" points="
  282.348,1410.9 282.348,47.2441 
  "/>
<polyline clip-path="url(#clip582)" style="stroke:#000000; stroke-linecap:butt; stroke-linejoin:round; stroke-width:2; stroke-opacity:0.1; fill:none" points="
  784.947,1410.9 784.947,47.2441 
  "/>
<polyline clip-path="url(#clip582)" style="stroke:#000000; stroke-linecap:butt; stroke-linejoin:round; stroke-width:2; stroke-opacity:0.1; fill:none" points="
  1287.55,1410.9 1287.55,47.2441 
  "/>
<polyline clip-path="url(#clip582)" style="stroke:#000000; stroke-linecap:butt; stroke-linejoin:round; stroke-width:2; stroke-opacity:0.1; fill:none" points="
  1790.15,1410.9 1790.15,47.2441 
  "/>
<polyline clip-path="url(#clip582)" style="stroke:#000000; stroke-linecap:butt; stroke-linejoin:round; stroke-width:2; stroke-opacity:0.1; fill:none" points="
  2292.75,1410.9 2292.75,47.2441 
  "/>
<polyline clip-path="url(#clip580)" style="stroke:#000000; stroke-linecap:butt; stroke-linejoin:round; stroke-width:4; stroke-opacity:1; fill:none" points="
  232.389,1410.9 2352.76,1410.9 
  "/>
<polyline clip-path="url(#clip580)" style="stroke:#000000; stroke-linecap:butt; stroke-linejoin:round; stroke-width:4; stroke-opacity:1; fill:none" points="
  282.348,1410.9 282.348,1392 
  "/>
<polyline clip-path="url(#clip580)" style="stroke:#000000; stroke-linecap:butt; stroke-linejoin:round; stroke-width:4; stroke-opacity:1; fill:none" points="
  784.947,1410.9 784.947,1392 
  "/>
<polyline clip-path="url(#clip580)" style="stroke:#000000; stroke-linecap:butt; stroke-linejoin:round; stroke-width:4; stroke-opacity:1; fill:none" points="
  1287.55,1410.9 1287.55,1392 
  "/>
<polyline clip-path="url(#clip580)" style="stroke:#000000; stroke-linecap:butt; stroke-linejoin:round; stroke-width:4; stroke-opacity:1; fill:none" points="
  1790.15,1410.9 1790.15,1392 
  "/>
<polyline clip-path="url(#clip580)" style="stroke:#000000; stroke-linecap:butt; stroke-linejoin:round; stroke-width:4; stroke-opacity:1; fill:none" points="
  2292.75,1410.9 2292.75,1392 
  "/>
<path clip-path="url(#clip580)" d="M282.348 1441.82 Q278.737 1441.82 276.908 1445.38 Q275.102 1448.92 275.102 1456.05 Q275.102 1463.16 276.908 1466.72 Q278.737 1470.26 282.348 1470.26 Q285.982 1470.26 287.788 1466.72 Q289.616 1463.16 289.616 1456.05 Q289.616 1448.92 287.788 1445.38 Q285.982 1441.82 282.348 1441.82 M282.348 1438.11 Q288.158 1438.11 291.213 1442.72 Q294.292 1447.3 294.292 1456.05 Q294.292 1464.78 291.213 1469.38 Q288.158 1473.97 282.348 1473.97 Q276.538 1473.97 273.459 1469.38 Q270.403 1464.78 270.403 1456.05 Q270.403 1447.3 273.459 1442.72 Q276.538 1438.11 282.348 1438.11 Z" fill="#000000" fill-rule="evenodd" fill-opacity="1" /><path clip-path="url(#clip580)" d="M677.924 1454.4 L696.28 1454.4 L696.28 1458.33 L682.206 1458.33 L682.206 1466.8 Q683.225 1466.46 684.243 1466.29 Q685.262 1466.11 686.28 1466.11 Q692.067 1466.11 695.447 1469.28 Q698.826 1472.45 698.826 1477.87 Q698.826 1483.45 695.354 1486.55 Q691.882 1489.63 685.563 1489.63 Q683.387 1489.63 681.118 1489.26 Q678.873 1488.89 676.465 1488.15 L676.465 1483.45 Q678.549 1484.58 680.771 1485.14 Q682.993 1485.69 685.47 1485.69 Q689.475 1485.69 691.813 1483.59 Q694.151 1481.48 694.151 1477.87 Q694.151 1474.26 691.813 1472.15 Q689.475 1470.04 685.47 1470.04 Q683.595 1470.04 681.72 1470.46 Q679.868 1470.88 677.924 1471.76 L677.924 1454.4 Z" fill="#000000" fill-rule="evenodd" fill-opacity="1" /><path clip-path="url(#clip580)" d="M708.039 1483.08 L712.924 1483.08 L712.924 1488.96 L708.039 1488.96 L708.039 1483.08 Z" fill="#000000" fill-rule="evenodd" fill-opacity="1" /><path clip-path="url(#clip580)" d="M733.109 1457.48 Q729.498 1457.48 727.669 1461.04 Q725.863 1464.58 725.863 1471.71 Q725.863 1478.82 727.669 1482.38 Q729.498 1485.92 733.109 1485.92 Q736.743 1485.92 738.548 1482.38 Q740.377 1478.82 740.377 1471.71 Q740.377 1464.58 738.548 1461.04 Q736.743 1457.48 733.109 1457.48 M733.109 1453.77 Q738.919 1453.77 741.974 1458.38 Q745.053 1462.96 745.053 1471.71 Q745.053 1480.44 741.974 1485.04 Q738.919 1489.63 733.109 1489.63 Q727.298 1489.63 724.22 1485.04 Q721.164 1480.44 721.164 1471.71 Q721.164 1462.96 724.22 1458.38 Q727.298 1453.77 733.109 1453.77 Z" fill="#000000" fill-rule="evenodd" fill-opacity="1" /><path clip-path="url(#clip580)" d="M763.271 1457.48 Q759.659 1457.48 757.831 1461.04 Q756.025 1464.58 756.025 1471.71 Q756.025 1478.82 757.831 1482.38 Q759.659 1485.92 763.271 1485.92 Q766.905 1485.92 768.71 1482.38 Q770.539 1478.82 770.539 1471.71 Q770.539 1464.58 768.71 1461.04 Q766.905 1457.48 763.271 1457.48 M763.271 1453.77 Q769.081 1453.77 772.136 1458.38 Q775.215 1462.96 775.215 1471.71 Q775.215 1480.44 772.136 1485.04 Q769.081 1489.63 763.271 1489.63 Q757.46 1489.63 754.382 1485.04 Q751.326 1480.44 751.326 1471.71 Q751.326 1462.96 754.382 1458.38 Q757.46 1453.77 763.271 1453.77 Z" fill="#000000" fill-rule="evenodd" fill-opacity="1" /><path clip-path="url(#clip580)" d="M811.604 1463.49 L801.025 1474.12 L811.604 1484.7 L808.849 1487.5 L798.224 1476.87 L787.599 1487.5 L784.868 1484.7 L795.423 1474.12 L784.868 1463.49 L787.599 1460.69 L798.224 1471.32 L808.849 1460.69 L811.604 1463.49 Z" fill="#000000" fill-rule="evenodd" fill-opacity="1" /><path clip-path="url(#clip580)" d="M823.965 1485.02 L831.603 1485.02 L831.603 1458.66 L823.293 1460.32 L823.293 1456.06 L831.557 1454.4 L836.233 1454.4 L836.233 1485.02 L843.872 1485.02 L843.872 1488.96 L823.965 1488.96 L823.965 1485.02 Z" fill="#000000" fill-rule="evenodd" fill-opacity="1" /><path clip-path="url(#clip580)" d="M863.316 1457.48 Q859.705 1457.48 857.876 1461.04 Q856.071 1464.58 856.071 1471.71 Q856.071 1478.82 857.876 1482.38 Q859.705 1485.92 863.316 1485.92 Q866.951 1485.92 868.756 1482.38 Q870.585 1478.82 870.585 1471.71 Q870.585 1464.58 868.756 1461.04 Q866.951 1457.48 863.316 1457.48 M863.316 1453.77 Q869.126 1453.77 872.182 1458.38 Q875.261 1462.96 875.261 1471.71 Q875.261 1480.44 872.182 1485.04 Q869.126 1489.63 863.316 1489.63 Q857.506 1489.63 854.427 1485.04 Q851.372 1480.44 851.372 1471.71 Q851.372 1462.96 854.427 1458.38 Q857.506 1453.77 863.316 1453.77 Z" fill="#000000" fill-rule="evenodd" fill-opacity="1" /><path clip-path="url(#clip580)" d="M876.446 1433.47 L891.36 1433.47 L891.36 1436.66 L879.925 1436.66 L879.925 1443.55 Q880.753 1443.27 881.58 1443.13 Q882.408 1442.98 883.235 1442.98 Q887.937 1442.98 890.683 1445.56 Q893.429 1448.14 893.429 1452.54 Q893.429 1457.07 890.608 1459.59 Q887.787 1462.09 882.652 1462.09 Q880.884 1462.09 879.041 1461.79 Q877.217 1461.49 875.261 1460.89 L875.261 1457.07 Q876.953 1457.99 878.759 1458.44 Q880.564 1458.89 882.577 1458.89 Q885.831 1458.89 887.73 1457.18 Q889.63 1455.47 889.63 1452.54 Q889.63 1449.6 887.73 1447.89 Q885.831 1446.18 882.577 1446.18 Q881.053 1446.18 879.53 1446.52 Q878.025 1446.86 876.446 1447.57 L876.446 1433.47 Z" fill="#000000" fill-rule="evenodd" fill-opacity="1" /><path clip-path="url(#clip580)" d="M1179.9 1485.02 L1187.54 1485.02 L1187.54 1458.66 L1179.23 1460.32 L1179.23 1456.06 L1187.49 1454.4 L1192.17 1454.4 L1192.17 1485.02 L1199.81 1485.02 L1199.81 1488.96 L1179.9 1488.96 L1179.9 1485.02 Z" fill="#000000" fill-rule="evenodd" fill-opacity="1" /><path clip-path="url(#clip580)" d="M1209.25 1483.08 L1214.14 1483.08 L1214.14 1488.96 L1209.25 1488.96 L1209.25 1483.08 Z" fill="#000000" fill-rule="evenodd" fill-opacity="1" /><path clip-path="url(#clip580)" d="M1234.32 1457.48 Q1230.71 1457.48 1228.88 1461.04 Q1227.08 1464.58 1227.08 1471.71 Q1227.08 1478.82 1228.88 1482.38 Q1230.71 1485.92 1234.32 1485.92 Q1237.96 1485.92 1239.76 1482.38 Q1241.59 1478.82 1241.59 1471.71 Q1241.59 1464.58 1239.76 1461.04 Q1237.96 1457.48 1234.32 1457.48 M1234.32 1453.77 Q1240.13 1453.77 1243.19 1458.38 Q1246.27 1462.96 1246.27 1471.71 Q1246.27 1480.44 1243.19 1485.04 Q1240.13 1489.63 1234.32 1489.63 Q1228.51 1489.63 1225.43 1485.04 Q1222.38 1480.44 1222.38 1471.71 Q1222.38 1462.96 1225.43 1458.38 Q1228.51 1453.77 1234.32 1453.77 Z" fill="#000000" fill-rule="evenodd" fill-opacity="1" /><path clip-path="url(#clip580)" d="M1264.48 1457.48 Q1260.87 1457.48 1259.04 1461.04 Q1257.24 1464.58 1257.24 1471.71 Q1257.24 1478.82 1259.04 1482.38 Q1260.87 1485.92 1264.48 1485.92 Q1268.12 1485.92 1269.92 1482.38 Q1271.75 1478.82 1271.75 1471.71 Q1271.75 1464.58 1269.92 1461.04 Q1268.12 1457.48 1264.48 1457.48 M1264.48 1453.77 Q1270.29 1453.77 1273.35 1458.38 Q1276.43 1462.96 1276.43 1471.71 Q1276.43 1480.44 1273.35 1485.04 Q1270.29 1489.63 1264.48 1489.63 Q1258.67 1489.63 1255.59 1485.04 Q1252.54 1480.44 1252.54 1471.71 Q1252.54 1462.96 1255.59 1458.38 Q1258.67 1453.77 1264.48 1453.77 Z" fill="#000000" fill-rule="evenodd" fill-opacity="1" /><path clip-path="url(#clip580)" d="M1312.82 1463.49 L1302.24 1474.12 L1312.82 1484.7 L1310.06 1487.5 L1299.44 1476.87 L1288.81 1487.5 L1286.08 1484.7 L1296.64 1474.12 L1286.08 1463.49 L1288.81 1460.69 L1299.44 1471.32 L1310.06 1460.69 L1312.82 1463.49 Z" fill="#000000" fill-rule="evenodd" fill-opacity="1" /><path clip-path="url(#clip580)" d="M1325.18 1485.02 L1332.82 1485.02 L1332.82 1458.66 L1324.51 1460.32 L1324.51 1456.06 L1332.77 1454.4 L1337.45 1454.4 L1337.45 1485.02 L1345.08 1485.02 L1345.08 1488.96 L1325.18 1488.96 L1325.18 1485.02 Z" fill="#000000" fill-rule="evenodd" fill-opacity="1" /><path clip-path="url(#clip580)" d="M1364.53 1457.48 Q1360.92 1457.48 1359.09 1461.04 Q1357.28 1464.58 1357.28 1471.71 Q1357.28 1478.82 1359.09 1482.38 Q1360.92 1485.92 1364.53 1485.92 Q1368.16 1485.92 1369.97 1482.38 Q1371.8 1478.82 1371.8 1471.71 Q1371.8 1464.58 1369.97 1461.04 Q1368.16 1457.48 1364.53 1457.48 M1364.53 1453.77 Q1370.34 1453.77 1373.39 1458.38 Q1376.47 1462.96 1376.47 1471.71 Q1376.47 1480.44 1373.39 1485.04 Q1370.34 1489.63 1364.53 1489.63 Q1358.72 1489.63 1355.64 1485.04 Q1352.58 1480.44 1352.58 1471.71 Q1352.58 1462.96 1355.64 1458.38 Q1358.72 1453.77 1364.53 1453.77 Z" fill="#000000" fill-rule="evenodd" fill-opacity="1" /><path clip-path="url(#clip580)" d="M1386.5 1445.99 Q1383.94 1445.99 1382.44 1447.74 Q1380.95 1449.49 1380.95 1452.54 Q1380.95 1455.57 1382.44 1457.33 Q1383.94 1459.08 1386.5 1459.08 Q1389.06 1459.08 1390.54 1457.33 Q1392.05 1455.57 1392.05 1452.54 Q1392.05 1449.49 1390.54 1447.74 Q1389.06 1445.99 1386.5 1445.99 M1394.04 1434.09 L1394.04 1437.55 Q1392.61 1436.87 1391.14 1436.51 Q1389.7 1436.16 1388.27 1436.16 Q1384.5 1436.16 1382.51 1438.69 Q1380.54 1441.23 1380.25 1446.37 Q1381.36 1444.73 1383.04 1443.87 Q1384.71 1442.98 1386.72 1442.98 Q1390.96 1442.98 1393.4 1445.56 Q1395.86 1448.12 1395.86 1452.54 Q1395.86 1456.86 1393.31 1459.48 Q1390.75 1462.09 1386.5 1462.09 Q1381.63 1462.09 1379.05 1458.37 Q1376.47 1454.62 1376.47 1447.53 Q1376.47 1440.88 1379.63 1436.93 Q1382.79 1432.96 1388.12 1432.96 Q1389.54 1432.96 1390.99 1433.24 Q1392.46 1433.52 1394.04 1434.09 Z" fill="#000000" fill-rule="evenodd" fill-opacity="1" /><path clip-path="url(#clip580)" d="M1682.5 1485.02 L1690.14 1485.02 L1690.14 1458.66 L1681.83 1460.32 L1681.83 1456.06 L1690.09 1454.4 L1694.77 1454.4 L1694.77 1485.02 L1702.41 1485.02 L1702.41 1488.96 L1682.5 1488.96 L1682.5 1485.02 Z" fill="#000000" fill-rule="evenodd" fill-opacity="1" /><path clip-path="url(#clip580)" d="M1711.85 1483.08 L1716.74 1483.08 L1716.74 1488.96 L1711.85 1488.96 L1711.85 1483.08 Z" fill="#000000" fill-rule="evenodd" fill-opacity="1" /><path clip-path="url(#clip580)" d="M1726.97 1454.4 L1745.32 1454.4 L1745.32 1458.33 L1731.25 1458.33 L1731.25 1466.8 Q1732.27 1466.46 1733.29 1466.29 Q1734.31 1466.11 1735.32 1466.11 Q1741.11 1466.11 1744.49 1469.28 Q1747.87 1472.45 1747.87 1477.87 Q1747.87 1483.45 1744.4 1486.55 Q1740.93 1489.63 1734.61 1489.63 Q1732.43 1489.63 1730.16 1489.26 Q1727.92 1488.89 1725.51 1488.15 L1725.51 1483.45 Q1727.59 1484.58 1729.81 1485.14 Q1732.04 1485.69 1734.51 1485.69 Q1738.52 1485.69 1740.86 1483.59 Q1743.19 1481.48 1743.19 1477.87 Q1743.19 1474.26 1740.86 1472.15 Q1738.52 1470.04 1734.51 1470.04 Q1732.64 1470.04 1730.76 1470.46 Q1728.91 1470.88 1726.97 1471.76 L1726.97 1454.4 Z" fill="#000000" fill-rule="evenodd" fill-opacity="1" /><path clip-path="url(#clip580)" d="M1767.08 1457.48 Q1763.47 1457.48 1761.64 1461.04 Q1759.84 1464.58 1759.84 1471.71 Q1759.84 1478.82 1761.64 1482.38 Q1763.47 1485.92 1767.08 1485.92 Q1770.72 1485.92 1772.52 1482.38 Q1774.35 1478.82 1774.35 1471.71 Q1774.35 1464.58 1772.52 1461.04 Q1770.72 1457.48 1767.08 1457.48 M1767.08 1453.77 Q1772.89 1453.77 1775.95 1458.38 Q1779.03 1462.96 1779.03 1471.71 Q1779.03 1480.44 1775.95 1485.04 Q1772.89 1489.63 1767.08 1489.63 Q1761.27 1489.63 1758.19 1485.04 Q1755.14 1480.44 1755.14 1471.71 Q1755.14 1462.96 1758.19 1458.38 Q1761.27 1453.77 1767.08 1453.77 Z" fill="#000000" fill-rule="evenodd" fill-opacity="1" /><path clip-path="url(#clip580)" d="M1815.42 1463.49 L1804.84 1474.12 L1815.42 1484.7 L1812.66 1487.5 L1802.04 1476.87 L1791.41 1487.5 L1788.68 1484.7 L1799.24 1474.12 L1788.68 1463.49 L1791.41 1460.69 L1802.04 1471.32 L1812.66 1460.69 L1815.42 1463.49 Z" fill="#000000" fill-rule="evenodd" fill-opacity="1" /><path clip-path="url(#clip580)" d="M1827.78 1485.02 L1835.42 1485.02 L1835.42 1458.66 L1827.11 1460.32 L1827.11 1456.06 L1835.37 1454.4 L1840.05 1454.4 L1840.05 1485.02 L1847.68 1485.02 L1847.68 1488.96 L1827.78 1488.96 L1827.78 1485.02 Z" fill="#000000" fill-rule="evenodd" fill-opacity="1" /><path clip-path="url(#clip580)" d="M1867.13 1457.48 Q1863.52 1457.48 1861.69 1461.04 Q1859.88 1464.58 1859.88 1471.71 Q1859.88 1478.82 1861.69 1482.38 Q1863.52 1485.92 1867.13 1485.92 Q1870.76 1485.92 1872.57 1482.38 Q1874.4 1478.82 1874.4 1471.71 Q1874.4 1464.58 1872.57 1461.04 Q1870.76 1457.48 1867.13 1457.48 M1867.13 1453.77 Q1872.94 1453.77 1875.99 1458.38 Q1879.07 1462.96 1879.07 1471.71 Q1879.07 1480.44 1875.99 1485.04 Q1872.94 1489.63 1867.13 1489.63 Q1861.32 1489.63 1858.24 1485.04 Q1855.18 1480.44 1855.18 1471.71 Q1855.18 1462.96 1858.24 1458.38 Q1861.32 1453.77 1867.13 1453.77 Z" fill="#000000" fill-rule="evenodd" fill-opacity="1" /><path clip-path="url(#clip580)" d="M1889.1 1445.99 Q1886.54 1445.99 1885.03 1447.74 Q1883.55 1449.49 1883.55 1452.54 Q1883.55 1455.57 1885.03 1457.33 Q1886.54 1459.08 1889.1 1459.08 Q1891.66 1459.08 1893.14 1457.33 Q1894.65 1455.57 1894.65 1452.54 Q1894.65 1449.49 1893.14 1447.74 Q1891.66 1445.99 1889.1 1445.99 M1896.64 1434.09 L1896.64 1437.55 Q1895.21 1436.87 1893.74 1436.51 Q1892.29 1436.16 1890.87 1436.16 Q1887.1 1436.16 1885.11 1438.69 Q1883.14 1441.23 1882.85 1446.37 Q1883.96 1444.73 1885.64 1443.87 Q1887.31 1442.98 1889.32 1442.98 Q1893.55 1442.98 1896 1445.56 Q1898.46 1448.12 1898.46 1452.54 Q1898.46 1456.86 1895.91 1459.48 Q1893.35 1462.09 1889.1 1462.09 Q1884.23 1462.09 1881.65 1458.37 Q1879.07 1454.62 1879.07 1447.53 Q1879.07 1440.88 1882.23 1436.93 Q1885.39 1432.96 1890.71 1432.96 Q1892.14 1432.96 1893.59 1433.24 Q1895.06 1433.52 1896.64 1434.09 Z" fill="#000000" fill-rule="evenodd" fill-opacity="1" /><path clip-path="url(#clip580)" d="M2189.18 1485.02 L2205.5 1485.02 L2205.5 1488.96 L2183.56 1488.96 L2183.56 1485.02 Q2186.22 1482.27 2190.81 1477.64 Q2195.41 1472.98 2196.59 1471.64 Q2198.84 1469.12 2199.72 1467.38 Q2200.62 1465.62 2200.62 1463.93 Q2200.62 1461.18 2198.68 1459.44 Q2196.75 1457.71 2193.65 1457.71 Q2191.45 1457.71 2189 1458.47 Q2186.57 1459.23 2183.79 1460.79 L2183.79 1456.06 Q2186.62 1454.93 2189.07 1454.35 Q2191.52 1453.77 2193.56 1453.77 Q2198.93 1453.77 2202.12 1456.46 Q2205.32 1459.14 2205.32 1463.63 Q2205.32 1465.76 2204.51 1467.68 Q2203.72 1469.58 2201.62 1472.17 Q2201.04 1472.85 2197.93 1476.06 Q2194.83 1479.26 2189.18 1485.02 Z" fill="#000000" fill-rule="evenodd" fill-opacity="1" /><path clip-path="url(#clip580)" d="M2215.32 1483.08 L2220.2 1483.08 L2220.2 1488.96 L2215.32 1488.96 L2215.32 1483.08 Z" fill="#000000" fill-rule="evenodd" fill-opacity="1" /><path clip-path="url(#clip580)" d="M2240.39 1457.48 Q2236.78 1457.48 2234.95 1461.04 Q2233.14 1464.58 2233.14 1471.71 Q2233.14 1478.82 2234.95 1482.38 Q2236.78 1485.92 2240.39 1485.92 Q2244.02 1485.92 2245.83 1482.38 Q2247.66 1478.82 2247.66 1471.71 Q2247.66 1464.58 2245.83 1461.04 Q2244.02 1457.48 2240.39 1457.48 M2240.39 1453.77 Q2246.2 1453.77 2249.25 1458.38 Q2252.33 1462.96 2252.33 1471.71 Q2252.33 1480.44 2249.25 1485.04 Q2246.2 1489.63 2240.39 1489.63 Q2234.58 1489.63 2231.5 1485.04 Q2228.44 1480.44 2228.44 1471.71 Q2228.44 1462.96 2231.5 1458.38 Q2234.58 1453.77 2240.39 1453.77 Z" fill="#000000" fill-rule="evenodd" fill-opacity="1" /><path clip-path="url(#clip580)" d="M2270.55 1457.48 Q2266.94 1457.48 2265.11 1461.04 Q2263.3 1464.58 2263.3 1471.71 Q2263.3 1478.82 2265.11 1482.38 Q2266.94 1485.92 2270.55 1485.92 Q2274.18 1485.92 2275.99 1482.38 Q2277.82 1478.82 2277.82 1471.71 Q2277.82 1464.58 2275.99 1461.04 Q2274.18 1457.48 2270.55 1457.48 M2270.55 1453.77 Q2276.36 1453.77 2279.42 1458.38 Q2282.49 1462.96 2282.49 1471.71 Q2282.49 1480.44 2279.42 1485.04 Q2276.36 1489.63 2270.55 1489.63 Q2264.74 1489.63 2261.66 1485.04 Q2258.61 1480.44 2258.61 1471.71 Q2258.61 1462.96 2261.66 1458.38 Q2264.74 1453.77 2270.55 1453.77 Z" fill="#000000" fill-rule="evenodd" fill-opacity="1" /><path clip-path="url(#clip580)" d="M2318.88 1463.49 L2308.3 1474.12 L2318.88 1484.7 L2316.13 1487.5 L2305.5 1476.87 L2294.88 1487.5 L2292.15 1484.7 L2302.7 1474.12 L2292.15 1463.49 L2294.88 1460.69 L2305.5 1471.32 L2316.13 1460.69 L2318.88 1463.49 Z" fill="#000000" fill-rule="evenodd" fill-opacity="1" /><path clip-path="url(#clip580)" d="M2331.24 1485.02 L2338.88 1485.02 L2338.88 1458.66 L2330.57 1460.32 L2330.57 1456.06 L2338.84 1454.4 L2343.51 1454.4 L2343.51 1485.02 L2351.15 1485.02 L2351.15 1488.96 L2331.24 1488.96 L2331.24 1485.02 Z" fill="#000000" fill-rule="evenodd" fill-opacity="1" /><path clip-path="url(#clip580)" d="M2370.6 1457.48 Q2366.98 1457.48 2365.16 1461.04 Q2363.35 1464.58 2363.35 1471.71 Q2363.35 1478.82 2365.16 1482.38 Q2366.98 1485.92 2370.6 1485.92 Q2374.23 1485.92 2376.04 1482.38 Q2377.86 1478.82 2377.86 1471.71 Q2377.86 1464.58 2376.04 1461.04 Q2374.23 1457.48 2370.6 1457.48 M2370.6 1453.77 Q2376.41 1453.77 2379.46 1458.38 Q2382.54 1462.96 2382.54 1471.71 Q2382.54 1480.44 2379.46 1485.04 Q2376.41 1489.63 2370.6 1489.63 Q2364.79 1489.63 2361.71 1485.04 Q2358.65 1480.44 2358.65 1471.71 Q2358.65 1462.96 2361.71 1458.38 Q2364.79 1453.77 2370.6 1453.77 Z" fill="#000000" fill-rule="evenodd" fill-opacity="1" /><path clip-path="url(#clip580)" d="M2392.56 1445.99 Q2390.01 1445.99 2388.5 1447.74 Q2387.02 1449.49 2387.02 1452.54 Q2387.02 1455.57 2388.5 1457.33 Q2390.01 1459.08 2392.56 1459.08 Q2395.12 1459.08 2396.61 1457.33 Q2398.11 1455.57 2398.11 1452.54 Q2398.11 1449.49 2396.61 1447.74 Q2395.12 1445.99 2392.56 1445.99 M2400.11 1434.09 L2400.11 1437.55 Q2398.68 1436.87 2397.21 1436.51 Q2395.76 1436.16 2394.33 1436.16 Q2390.57 1436.16 2388.58 1438.69 Q2386.6 1441.23 2386.32 1446.37 Q2387.43 1444.73 2389.1 1443.87 Q2390.78 1442.98 2392.79 1442.98 Q2397.02 1442.98 2399.47 1445.56 Q2401.93 1448.12 2401.93 1452.54 Q2401.93 1456.86 2399.37 1459.48 Q2396.82 1462.09 2392.56 1462.09 Q2387.69 1462.09 2385.12 1458.37 Q2382.54 1454.62 2382.54 1447.53 Q2382.54 1440.88 2385.7 1436.93 Q2388.86 1432.96 2394.18 1432.96 Q2395.61 1432.96 2397.06 1433.24 Q2398.53 1433.52 2400.11 1434.09 Z" fill="#000000" fill-rule="evenodd" fill-opacity="1" /><path clip-path="url(#clip580)" d="M1235.71 1528.23 L1235.71 1534.5 Q1232.05 1532.74 1228.8 1531.89 Q1225.56 1531.03 1222.53 1531.03 Q1217.28 1531.03 1214.42 1533.06 Q1211.58 1535.1 1211.58 1538.86 Q1211.58 1542.01 1213.46 1543.63 Q1215.37 1545.22 1220.66 1546.21 L1224.54 1547 Q1231.73 1548.37 1235.14 1551.84 Q1238.58 1555.28 1238.58 1561.07 Q1238.58 1567.98 1233.93 1571.54 Q1229.31 1575.11 1220.37 1575.11 Q1217 1575.11 1213.18 1574.34 Q1209.39 1573.58 1205.31 1572.08 L1205.31 1565.46 Q1209.23 1567.66 1212.99 1568.77 Q1216.74 1569.89 1220.37 1569.89 Q1225.88 1569.89 1228.87 1567.72 Q1231.86 1565.56 1231.86 1561.55 Q1231.86 1558.05 1229.7 1556.08 Q1227.56 1554.1 1222.66 1553.11 L1218.75 1552.35 Q1211.55 1550.92 1208.34 1547.86 Q1205.12 1544.81 1205.12 1539.37 Q1205.12 1533.06 1209.55 1529.43 Q1214 1525.81 1221.8 1525.81 Q1225.14 1525.81 1228.61 1526.41 Q1232.08 1527.02 1235.71 1528.23 Z" fill="#000000" fill-rule="evenodd" fill-opacity="1" /><path clip-path="url(#clip580)" d="M1254.14 1528.42 L1254.14 1538.54 L1266.2 1538.54 L1266.2 1543.09 L1254.14 1543.09 L1254.14 1562.44 Q1254.14 1566.8 1255.32 1568.04 Q1256.53 1569.28 1260.19 1569.28 L1266.2 1569.28 L1266.2 1574.19 L1260.19 1574.19 Q1253.41 1574.19 1250.83 1571.67 Q1248.25 1569.12 1248.25 1562.44 L1248.25 1543.09 L1243.95 1543.09 L1243.95 1538.54 L1248.25 1538.54 L1248.25 1528.42 L1254.14 1528.42 Z" fill="#000000" fill-rule="evenodd" fill-opacity="1" /><path clip-path="url(#clip580)" d="M1304.4 1554.9 L1304.4 1557.76 L1277.47 1557.76 Q1277.85 1563.81 1281.1 1566.99 Q1284.38 1570.14 1290.2 1570.14 Q1293.58 1570.14 1296.73 1569.32 Q1299.91 1568.49 1303.03 1566.83 L1303.03 1572.37 Q1299.88 1573.71 1296.57 1574.41 Q1293.26 1575.11 1289.85 1575.11 Q1281.32 1575.11 1276.32 1570.14 Q1271.36 1565.18 1271.36 1556.71 Q1271.36 1547.96 1276.07 1542.83 Q1280.81 1537.68 1288.83 1537.68 Q1296.03 1537.68 1300.2 1542.33 Q1304.4 1546.94 1304.4 1554.9 M1298.54 1553.18 Q1298.48 1548.37 1295.84 1545.51 Q1293.23 1542.64 1288.9 1542.64 Q1283.99 1542.64 1281.03 1545.41 Q1278.11 1548.18 1277.66 1553.21 L1298.54 1553.18 Z" fill="#000000" fill-rule="evenodd" fill-opacity="1" /><path clip-path="url(#clip580)" d="M1319.67 1568.84 L1319.67 1587.74 L1313.79 1587.74 L1313.79 1538.54 L1319.67 1538.54 L1319.67 1543.95 Q1321.52 1540.77 1324.32 1539.24 Q1327.15 1537.68 1331.07 1537.68 Q1337.56 1537.68 1341.6 1542.83 Q1345.68 1547.99 1345.68 1556.39 Q1345.68 1564.8 1341.6 1569.95 Q1337.56 1575.11 1331.07 1575.11 Q1327.15 1575.11 1324.32 1573.58 Q1321.52 1572.02 1319.67 1568.84 M1339.6 1556.39 Q1339.6 1549.93 1336.93 1546.27 Q1334.28 1542.58 1329.64 1542.58 Q1324.99 1542.58 1322.32 1546.27 Q1319.67 1549.93 1319.67 1556.39 Q1319.67 1562.85 1322.32 1566.55 Q1324.99 1570.21 1329.64 1570.21 Q1334.28 1570.21 1336.93 1566.55 Q1339.6 1562.85 1339.6 1556.39 Z" fill="#000000" fill-rule="evenodd" fill-opacity="1" /><path clip-path="url(#clip580)" d="M1378.11 1539.59 L1378.11 1545.13 Q1375.63 1543.85 1372.96 1543.22 Q1370.28 1542.58 1367.42 1542.58 Q1363.06 1542.58 1360.86 1543.92 Q1358.7 1545.25 1358.7 1547.93 Q1358.7 1549.96 1360.26 1551.14 Q1361.82 1552.29 1366.53 1553.34 L1368.53 1553.78 Q1374.77 1555.12 1377.38 1557.57 Q1380.02 1559.99 1380.02 1564.35 Q1380.02 1569.32 1376.07 1572.21 Q1372.16 1575.11 1365.28 1575.11 Q1362.42 1575.11 1359.3 1574.54 Q1356.21 1573.99 1352.78 1572.88 L1352.78 1566.83 Q1356.02 1568.52 1359.17 1569.38 Q1362.32 1570.21 1365.41 1570.21 Q1369.55 1570.21 1371.78 1568.81 Q1374.01 1567.37 1374.01 1564.8 Q1374.01 1562.41 1372.38 1561.14 Q1370.79 1559.86 1365.35 1558.68 L1363.31 1558.21 Q1357.87 1557.06 1355.45 1554.71 Q1353.03 1552.32 1353.03 1548.18 Q1353.03 1543.15 1356.6 1540.42 Q1360.16 1537.68 1366.72 1537.68 Q1369.96 1537.68 1372.83 1538.16 Q1375.69 1538.63 1378.11 1539.59 Z" fill="#000000" fill-rule="evenodd" fill-opacity="1" /><polyline clip-path="url(#clip582)" style="stroke:#000000; stroke-linecap:butt; stroke-linejoin:round; stroke-width:2; stroke-opacity:0.1; fill:none" points="
  232.389,1251.62 2352.76,1251.62 
  "/>
<polyline clip-path="url(#clip582)" style="stroke:#000000; stroke-linecap:butt; stroke-linejoin:round; stroke-width:2; stroke-opacity:0.1; fill:none" points="
  232.389,915.049 2352.76,915.049 
  "/>
<polyline clip-path="url(#clip582)" style="stroke:#000000; stroke-linecap:butt; stroke-linejoin:round; stroke-width:2; stroke-opacity:0.1; fill:none" points="
  232.389,578.48 2352.76,578.48 
  "/>
<polyline clip-path="url(#clip582)" style="stroke:#000000; stroke-linecap:butt; stroke-linejoin:round; stroke-width:2; stroke-opacity:0.1; fill:none" points="
  232.389,241.911 2352.76,241.911 
  "/>
<polyline clip-path="url(#clip580)" style="stroke:#000000; stroke-linecap:butt; stroke-linejoin:round; stroke-width:4; stroke-opacity:1; fill:none" points="
  232.389,1410.9 232.389,47.2441 
  "/>
<polyline clip-path="url(#clip580)" style="stroke:#000000; stroke-linecap:butt; stroke-linejoin:round; stroke-width:4; stroke-opacity:1; fill:none" points="
  232.389,1251.62 251.287,1251.62 
  "/>
<polyline clip-path="url(#clip580)" style="stroke:#000000; stroke-linecap:butt; stroke-linejoin:round; stroke-width:4; stroke-opacity:1; fill:none" points="
  232.389,915.049 251.287,915.049 
  "/>
<polyline clip-path="url(#clip580)" style="stroke:#000000; stroke-linecap:butt; stroke-linejoin:round; stroke-width:4; stroke-opacity:1; fill:none" points="
  232.389,578.48 251.287,578.48 
  "/>
<polyline clip-path="url(#clip580)" style="stroke:#000000; stroke-linecap:butt; stroke-linejoin:round; stroke-width:4; stroke-opacity:1; fill:none" points="
  232.389,241.911 251.287,241.911 
  "/>
<path clip-path="url(#clip580)" d="M184.445 1237.42 Q180.834 1237.42 179.005 1240.98 Q177.2 1244.52 177.2 1251.65 Q177.2 1258.76 179.005 1262.32 Q180.834 1265.87 184.445 1265.87 Q188.079 1265.87 189.885 1262.32 Q191.713 1258.76 191.713 1251.65 Q191.713 1244.52 189.885 1240.98 Q188.079 1237.42 184.445 1237.42 M184.445 1233.71 Q190.255 1233.71 193.311 1238.32 Q196.389 1242.9 196.389 1251.65 Q196.389 1260.38 193.311 1264.99 Q190.255 1269.57 184.445 1269.57 Q178.635 1269.57 175.556 1264.99 Q172.501 1260.38 172.501 1251.65 Q172.501 1242.9 175.556 1238.32 Q178.635 1233.71 184.445 1233.71 Z" fill="#000000" fill-rule="evenodd" fill-opacity="1" /><path clip-path="url(#clip580)" d="M144.329 897.769 L162.686 897.769 L162.686 901.704 L148.612 901.704 L148.612 910.176 Q149.63 909.829 150.649 909.667 Q151.667 909.482 152.686 909.482 Q158.473 909.482 161.852 912.653 Q165.232 915.824 165.232 921.241 Q165.232 926.82 161.76 929.921 Q158.288 933 151.968 933 Q149.792 933 147.524 932.63 Q145.279 932.259 142.871 931.519 L142.871 926.82 Q144.954 927.954 147.177 928.509 Q149.399 929.065 151.876 929.065 Q155.88 929.065 158.218 926.958 Q160.556 924.852 160.556 921.241 Q160.556 917.63 158.218 915.523 Q155.88 913.417 151.876 913.417 Q150.001 913.417 148.126 913.834 Q146.274 914.25 144.329 915.13 L144.329 897.769 Z" fill="#000000" fill-rule="evenodd" fill-opacity="1" /><path clip-path="url(#clip580)" d="M184.445 900.848 Q180.834 900.848 179.005 904.412 Q177.2 907.954 177.2 915.084 Q177.2 922.19 179.005 925.755 Q180.834 929.296 184.445 929.296 Q188.079 929.296 189.885 925.755 Q191.713 922.19 191.713 915.084 Q191.713 907.954 189.885 904.412 Q188.079 900.848 184.445 900.848 M184.445 897.144 Q190.255 897.144 193.311 901.75 Q196.389 906.334 196.389 915.084 Q196.389 923.81 193.311 928.417 Q190.255 933 184.445 933 Q178.635 933 175.556 928.417 Q172.501 923.81 172.501 915.084 Q172.501 906.334 175.556 901.75 Q178.635 897.144 184.445 897.144 Z" fill="#000000" fill-rule="evenodd" fill-opacity="1" /><path clip-path="url(#clip580)" d="M114.931 591.825 L122.57 591.825 L122.57 565.459 L114.26 567.126 L114.26 562.867 L122.524 561.2 L127.2 561.2 L127.2 591.825 L134.839 591.825 L134.839 595.76 L114.931 595.76 L114.931 591.825 Z" fill="#000000" fill-rule="evenodd" fill-opacity="1" /><path clip-path="url(#clip580)" d="M154.283 564.279 Q150.672 564.279 148.843 567.843 Q147.038 571.385 147.038 578.515 Q147.038 585.621 148.843 589.186 Q150.672 592.728 154.283 592.728 Q157.917 592.728 159.723 589.186 Q161.552 585.621 161.552 578.515 Q161.552 571.385 159.723 567.843 Q157.917 564.279 154.283 564.279 M154.283 560.575 Q160.093 560.575 163.149 565.181 Q166.227 569.765 166.227 578.515 Q166.227 587.241 163.149 591.848 Q160.093 596.431 154.283 596.431 Q148.473 596.431 145.394 591.848 Q142.339 587.241 142.339 578.515 Q142.339 569.765 145.394 565.181 Q148.473 560.575 154.283 560.575 Z" fill="#000000" fill-rule="evenodd" fill-opacity="1" /><path clip-path="url(#clip580)" d="M184.445 564.279 Q180.834 564.279 179.005 567.843 Q177.2 571.385 177.2 578.515 Q177.2 585.621 179.005 589.186 Q180.834 592.728 184.445 592.728 Q188.079 592.728 189.885 589.186 Q191.713 585.621 191.713 578.515 Q191.713 571.385 189.885 567.843 Q188.079 564.279 184.445 564.279 M184.445 560.575 Q190.255 560.575 193.311 565.181 Q196.389 569.765 196.389 578.515 Q196.389 587.241 193.311 591.848 Q190.255 596.431 184.445 596.431 Q178.635 596.431 175.556 591.848 Q172.501 587.241 172.501 578.515 Q172.501 569.765 175.556 565.181 Q178.635 560.575 184.445 560.575 Z" fill="#000000" fill-rule="evenodd" fill-opacity="1" /><path clip-path="url(#clip580)" d="M114.931 255.256 L122.57 255.256 L122.57 228.89 L114.26 230.557 L114.26 226.298 L122.524 224.631 L127.2 224.631 L127.2 255.256 L134.839 255.256 L134.839 259.191 L114.931 259.191 L114.931 255.256 Z" fill="#000000" fill-rule="evenodd" fill-opacity="1" /><path clip-path="url(#clip580)" d="M144.329 224.631 L162.686 224.631 L162.686 228.566 L148.612 228.566 L148.612 237.038 Q149.63 236.691 150.649 236.529 Q151.667 236.344 152.686 236.344 Q158.473 236.344 161.852 239.515 Q165.232 242.687 165.232 248.103 Q165.232 253.682 161.76 256.784 Q158.288 259.862 151.968 259.862 Q149.792 259.862 147.524 259.492 Q145.279 259.122 142.871 258.381 L142.871 253.682 Q144.954 254.816 147.177 255.372 Q149.399 255.927 151.876 255.927 Q155.88 255.927 158.218 253.821 Q160.556 251.714 160.556 248.103 Q160.556 244.492 158.218 242.386 Q155.88 240.279 151.876 240.279 Q150.001 240.279 148.126 240.696 Q146.274 241.112 144.329 241.992 L144.329 224.631 Z" fill="#000000" fill-rule="evenodd" fill-opacity="1" /><path clip-path="url(#clip580)" d="M184.445 227.71 Q180.834 227.71 179.005 231.275 Q177.2 234.816 177.2 241.946 Q177.2 249.052 179.005 252.617 Q180.834 256.159 184.445 256.159 Q188.079 256.159 189.885 252.617 Q191.713 249.052 191.713 241.946 Q191.713 234.816 189.885 231.275 Q188.079 227.71 184.445 227.71 M184.445 224.006 Q190.255 224.006 193.311 228.613 Q196.389 233.196 196.389 241.946 Q196.389 250.673 193.311 255.279 Q190.255 259.862 184.445 259.862 Q178.635 259.862 175.556 255.279 Q172.501 250.673 172.501 241.946 Q172.501 233.196 175.556 228.613 Q178.635 224.006 184.445 224.006 Z" fill="#000000" fill-rule="evenodd" fill-opacity="1" /><path clip-path="url(#clip580)" d="M41.7242 821.755 Q42.4244 819.686 44.7161 817.745 Q47.0077 815.771 51.0181 813.798 L64.0042 807.273 L64.0042 814.18 L51.8138 820.259 Q47.0395 822.614 45.48 824.842 Q43.9204 827.039 43.9204 830.858 L43.9204 837.86 L64.0042 837.86 L64.0042 844.29 L16.4842 844.29 L16.4842 829.776 Q16.4842 821.628 19.8898 817.617 Q23.2955 813.607 30.1704 813.607 Q34.6582 813.607 37.6183 815.708 Q40.5784 817.776 41.7242 821.755 M21.7677 837.86 L38.6368 837.86 L38.6368 829.776 Q38.6368 825.129 36.5043 822.774 Q34.34 820.386 30.1704 820.386 Q26.0009 820.386 23.9002 822.774 Q21.7677 825.129 21.7677 829.776 L21.7677 837.86 Z" fill="#000000" fill-rule="evenodd" fill-opacity="1" /><path clip-path="url(#clip580)" d="M44.7161 771.689 L47.5806 771.689 L47.5806 798.616 Q53.6281 798.234 56.8109 794.987 Q59.9619 791.709 59.9619 785.884 Q59.9619 782.51 59.1344 779.359 Q58.3069 776.177 56.6518 773.057 L62.1899 773.057 Q63.5267 776.208 64.227 779.519 Q64.9272 782.829 64.9272 786.234 Q64.9272 794.764 59.9619 799.762 Q54.9967 804.727 46.5303 804.727 Q37.7774 804.727 32.6531 800.016 Q27.4968 795.274 27.4968 787.253 Q27.4968 780.06 32.1438 775.89 Q36.7589 771.689 44.7161 771.689 M42.9973 777.545 Q38.1912 777.609 35.3266 780.251 Q32.4621 782.861 32.4621 787.189 Q32.4621 792.091 35.2312 795.051 Q38.0002 797.979 43.0292 798.425 L42.9973 777.545 Z" fill="#000000" fill-rule="evenodd" fill-opacity="1" /><path clip-path="url(#clip580)" d="M28.3562 765.482 L28.3562 759.626 L56.1743 752.305 L28.3562 745.016 L28.3562 738.11 L56.1743 730.789 L28.3562 723.5 L28.3562 717.644 L64.0042 726.97 L64.0042 733.876 L34.7856 741.547 L64.0042 749.25 L64.0042 756.156 L28.3562 765.482 Z" fill="#000000" fill-rule="evenodd" fill-opacity="1" /><path clip-path="url(#clip580)" d="M46.0847 692.563 Q46.0847 699.661 47.7079 702.398 Q49.3312 705.135 53.2461 705.135 Q56.3653 705.135 58.2114 703.098 Q60.0256 701.029 60.0256 697.496 Q60.0256 692.627 56.5881 689.698 Q53.1188 686.738 47.3897 686.738 L46.0847 686.738 L46.0847 692.563 M43.6657 680.882 L64.0042 680.882 L64.0042 686.738 L58.5933 686.738 Q61.8398 688.744 63.3994 691.735 Q64.9272 694.727 64.9272 699.056 Q64.9272 704.531 61.8716 707.777 Q58.7843 710.992 53.6281 710.992 Q47.6125 710.992 44.5569 706.981 Q41.5014 702.939 41.5014 694.95 L41.5014 686.738 L40.9285 686.738 Q36.8862 686.738 34.6901 689.412 Q32.4621 692.054 32.4621 696.86 Q32.4621 699.915 33.1941 702.812 Q33.9262 705.708 35.3903 708.382 L29.9795 708.382 Q28.7381 705.167 28.1334 702.143 Q27.4968 699.12 27.4968 696.255 Q27.4968 688.521 31.5072 684.701 Q35.5176 680.882 43.6657 680.882 Z" fill="#000000" fill-rule="evenodd" fill-opacity="1" /><path clip-path="url(#clip580)" d="M33.8307 648.162 Q33.2578 649.149 33.0032 650.327 Q32.7167 651.472 32.7167 652.873 Q32.7167 657.838 35.9632 660.512 Q39.1779 663.153 45.2253 663.153 L64.0042 663.153 L64.0042 669.042 L28.3562 669.042 L28.3562 663.153 L33.8944 663.153 Q30.6479 661.307 29.0883 658.347 Q27.4968 655.387 27.4968 651.154 Q27.4968 650.549 27.5923 649.817 Q27.656 649.085 27.8151 648.194 L33.8307 648.162 Z" fill="#000000" fill-rule="evenodd" fill-opacity="1" /><path clip-path="url(#clip580)" d="M33.7671 619.708 L14.479 619.708 L14.479 613.851 L64.0042 613.851 L64.0042 619.708 L58.657 619.708 Q61.8398 621.554 63.3994 624.386 Q64.9272 627.187 64.9272 631.134 Q64.9272 637.595 59.771 641.669 Q54.6147 645.711 46.212 645.711 Q37.8093 645.711 32.6531 641.669 Q27.4968 637.595 27.4968 631.134 Q27.4968 627.187 29.0564 624.386 Q30.5842 621.554 33.7671 619.708 M46.212 639.664 Q52.6732 639.664 56.3653 637.022 Q60.0256 634.349 60.0256 629.702 Q60.0256 625.055 56.3653 622.381 Q52.6732 619.708 46.212 619.708 Q39.7508 619.708 36.0905 622.381 Q32.3984 625.055 32.3984 629.702 Q32.3984 634.349 36.0905 637.022 Q39.7508 639.664 46.212 639.664 Z" fill="#000000" fill-rule="evenodd" fill-opacity="1" /><polyline clip-path="url(#clip582)" style="stroke:#009af9; stroke-linecap:butt; stroke-linejoin:round; stroke-width:4; stroke-opacity:1; fill:none" points="
  292.4,1358.42 302.452,1319.46 312.504,1372.3 322.556,1242.89 332.608,1229.28 342.66,1225.57 352.712,1215.83 362.764,1217.9 372.816,1214.31 382.868,1221.52 
  392.92,1112.74 402.972,1101.13 413.024,1093.56 423.076,1073.14 433.128,1179.14 443.18,1023.12 453.232,1120.96 463.284,993.501 473.336,487.807 483.388,587.693 
  493.44,1048.17 503.491,589.18 513.543,989.842 523.595,466.509 533.647,404.153 543.699,342.369 553.751,662.679 563.803,608.105 573.855,248.295 583.907,287.217 
  593.959,330.206 604.011,503.302 614.063,380.305 624.115,709.884 634.167,362.74 644.219,325.89 654.271,323.306 664.323,220.643 674.375,285.566 684.427,427.753 
  694.479,346.268 704.531,498.737 714.583,250.834 724.635,139.667 734.687,286.516 744.739,479.3 754.791,618.842 764.843,308.384 774.895,345.775 784.947,355.728 
  794.999,248.626 805.051,353.403 815.103,273.727 825.155,354.757 835.207,232.031 845.259,233.598 855.311,388.597 865.363,314.198 875.415,142.809 885.467,478.293 
  895.519,437.627 905.571,252.731 915.623,355.033 925.675,363.144 935.727,448.426 945.779,238.35 955.831,219.27 965.883,362.53 975.935,290.557 985.987,531.083 
  996.039,242.581 1006.09,187.992 1016.14,392.475 1026.19,402.27 1036.25,85.838 1046.3,357.311 1056.35,261.744 1066.4,119.632 1076.45,274.781 1086.51,105.171 
  1096.56,417.343 1106.61,154.523 1116.66,339.396 1126.71,477.422 1136.77,316.393 1146.82,238.026 1156.87,222.571 1166.92,215.882 1176.97,260.371 1187.03,500.613 
  1197.08,364.323 1207.13,286.536 1217.18,416.621 1227.23,544.154 1237.29,326.177 1247.34,381.134 1257.39,464.97 1267.44,164.833 1277.49,302.775 1287.55,322.473 
  1297.6,235.277 1307.65,246.63 1317.7,275.729 1327.75,331.287 1337.81,264.362 1347.86,134.756 1357.91,177.096 1367.96,227.626 1378.01,272.244 1388.07,132.495 
  1398.12,269.729 1408.17,250.077 1418.22,337.345 1428.27,366.929 1438.33,396.452 1448.38,144.252 1458.43,270.356 1468.48,367.372 1478.53,286.424 1488.59,286.654 
  1498.64,236.531 1508.69,212.921 1518.74,259.924 1528.79,280.487 1538.85,259.604 1548.9,500.489 1558.95,365.601 1569,330.244 1579.05,102.091 1589.11,402.675 
  1599.16,391.392 1609.21,319.466 1619.26,181.601 1629.31,361.729 1639.37,123.259 1649.42,353.426 1659.47,476.044 1669.52,410.801 1679.57,230.967 1689.63,181.154 
  1699.68,452.705 1709.73,270.845 1719.78,177.869 1729.83,409.073 1739.89,177.593 1749.94,413.213 1759.99,262.827 1770.04,347.971 1780.09,213.763 1790.15,307.861 
  1800.2,456.609 1810.25,157.808 1820.3,378.749 1830.35,117.902 1840.41,457.152 1850.46,391.305 1860.51,261.73 1870.56,229.291 1880.61,517.615 1890.67,385.061 
  1900.72,385.841 1910.77,109.571 1920.82,303.999 1930.87,151.577 1940.93,128.189 1950.98,459.524 1961.03,230.15 1971.08,335.367 1981.13,273.638 1991.19,236.474 
  2001.24,268.731 2011.29,280.693 2021.34,264.054 2031.39,324.231 2041.45,327.86 2051.5,384.304 2061.55,342.254 2071.6,593.885 2081.65,253.776 2091.71,204.156 
  2101.76,297.456 2111.81,681.607 2121.86,508.212 2131.91,181.117 2141.97,420.044 2152.02,180.278 2162.07,165.541 2172.12,376.502 2182.17,197.112 2192.23,138.101 
  2202.28,256.68 2212.33,380.282 2222.38,236.134 2232.43,401.037 2242.49,334.222 2252.54,291.569 2262.59,256.843 2272.64,277.771 2282.69,219.874 2292.75,177.212 
  
  "/>
</svg>
