<?xml version="1.0" encoding="utf-8"?>
<svg xmlns="http://www.w3.org/2000/svg" xmlns:xlink="http://www.w3.org/1999/xlink" width="600" height="400" viewBox="0 0 2400 1600">
<defs>
  <clipPath id="clip790">
    <rect x="0" y="0" width="2400" height="1600"/>
  </clipPath>
</defs>
<path clip-path="url(#clip790)" d="
M0 1600 L2400 1600 L2400 0 L0 0  Z
  " fill="#ffffff" fill-rule="evenodd" fill-opacity="1"/>
<defs>
  <clipPath id="clip791">
    <rect x="480" y="0" width="1681" height="1600"/>
  </clipPath>
</defs>
<path clip-path="url(#clip790)" d="
M249.195 1410.9 L2352.76 1410.9 L2352.76 47.2441 L249.195 47.2441  Z
  " fill="#ffffff" fill-rule="evenodd" fill-opacity="1"/>
<defs>
  <clipPath id="clip792">
    <rect x="249" y="47" width="2105" height="1365"/>
  </clipPath>
</defs>
<polyline clip-path="url(#clip792)" style="stroke:#000000; stroke-linecap:round; stroke-linejoin:round; stroke-width:2; stroke-opacity:0.1; fill:none" points="
  726.517,1410.9 726.517,47.2441 
  "/>
<polyline clip-path="url(#clip792)" style="stroke:#000000; stroke-linecap:round; stroke-linejoin:round; stroke-width:2; stroke-opacity:0.1; fill:none" points="
  1248.75,1410.9 1248.75,47.2441 
  "/>
<polyline clip-path="url(#clip792)" style="stroke:#000000; stroke-linecap:round; stroke-linejoin:round; stroke-width:2; stroke-opacity:0.1; fill:none" points="
  1770.99,1410.9 1770.99,47.2441 
  "/>
<polyline clip-path="url(#clip792)" style="stroke:#000000; stroke-linecap:round; stroke-linejoin:round; stroke-width:2; stroke-opacity:0.1; fill:none" points="
  2293.22,1410.9 2293.22,47.2441 
  "/>
<polyline clip-path="url(#clip790)" style="stroke:#000000; stroke-linecap:round; stroke-linejoin:round; stroke-width:4; stroke-opacity:1; fill:none" points="
  249.195,1410.9 2352.76,1410.9 
  "/>
<polyline clip-path="url(#clip790)" style="stroke:#000000; stroke-linecap:round; stroke-linejoin:round; stroke-width:4; stroke-opacity:1; fill:none" points="
  726.517,1410.9 726.517,1392 
  "/>
<polyline clip-path="url(#clip790)" style="stroke:#000000; stroke-linecap:round; stroke-linejoin:round; stroke-width:4; stroke-opacity:1; fill:none" points="
  1248.75,1410.9 1248.75,1392 
  "/>
<polyline clip-path="url(#clip790)" style="stroke:#000000; stroke-linecap:round; stroke-linejoin:round; stroke-width:4; stroke-opacity:1; fill:none" points="
  1770.99,1410.9 1770.99,1392 
  "/>
<polyline clip-path="url(#clip790)" style="stroke:#000000; stroke-linecap:round; stroke-linejoin:round; stroke-width:4; stroke-opacity:1; fill:none" points="
  2293.22,1410.9 2293.22,1392 
  "/>
<path clip-path="url(#clip790)" d="M619.494 1454.4 L637.85 1454.4 L637.85 1458.33 L623.776 1458.33 L623.776 1466.8 Q624.795 1466.46 625.813 1466.29 Q626.832 1466.11 627.85 1466.11 Q633.637 1466.11 637.017 1469.28 Q640.396 1472.45 640.396 1477.87 Q640.396 1483.45 636.924 1486.55 Q633.452 1489.63 627.133 1489.63 Q624.957 1489.63 622.688 1489.26 Q620.443 1488.89 618.035 1488.15 L618.035 1483.45 Q620.119 1484.58 622.341 1485.14 Q624.563 1485.69 627.04 1485.69 Q631.045 1485.69 633.383 1483.59 Q635.721 1481.48 635.721 1477.87 Q635.721 1474.26 633.383 1472.15 Q631.045 1470.04 627.04 1470.04 Q625.165 1470.04 623.29 1470.46 Q621.438 1470.88 619.494 1471.76 L619.494 1454.4 Z" fill="#000000" fill-rule="evenodd" fill-opacity="1" /><path clip-path="url(#clip790)" d="M649.609 1483.08 L654.494 1483.08 L654.494 1488.96 L649.609 1488.96 L649.609 1483.08 Z" fill="#000000" fill-rule="evenodd" fill-opacity="1" /><path clip-path="url(#clip790)" d="M674.679 1457.48 Q671.068 1457.48 669.239 1461.04 Q667.433 1464.58 667.433 1471.71 Q667.433 1478.82 669.239 1482.38 Q671.068 1485.92 674.679 1485.92 Q678.313 1485.92 680.118 1482.38 Q681.947 1478.82 681.947 1471.71 Q681.947 1464.58 680.118 1461.04 Q678.313 1457.48 674.679 1457.48 M674.679 1453.77 Q680.489 1453.77 683.544 1458.38 Q686.623 1462.96 686.623 1471.71 Q686.623 1480.44 683.544 1485.04 Q680.489 1489.63 674.679 1489.63 Q668.869 1489.63 665.79 1485.04 Q662.734 1480.44 662.734 1471.71 Q662.734 1462.96 665.79 1458.38 Q668.869 1453.77 674.679 1453.77 Z" fill="#000000" fill-rule="evenodd" fill-opacity="1" /><path clip-path="url(#clip790)" d="M704.841 1457.48 Q701.229 1457.48 699.401 1461.04 Q697.595 1464.58 697.595 1471.71 Q697.595 1478.82 699.401 1482.38 Q701.229 1485.92 704.841 1485.92 Q708.475 1485.92 710.28 1482.38 Q712.109 1478.82 712.109 1471.71 Q712.109 1464.58 710.28 1461.04 Q708.475 1457.48 704.841 1457.48 M704.841 1453.77 Q710.651 1453.77 713.706 1458.38 Q716.785 1462.96 716.785 1471.71 Q716.785 1480.44 713.706 1485.04 Q710.651 1489.63 704.841 1489.63 Q699.03 1489.63 695.952 1485.04 Q692.896 1480.44 692.896 1471.71 Q692.896 1462.96 695.952 1458.38 Q699.03 1453.77 704.841 1453.77 Z" fill="#000000" fill-rule="evenodd" fill-opacity="1" /><path clip-path="url(#clip790)" d="M753.174 1463.49 L742.595 1474.12 L753.174 1484.7 L750.419 1487.5 L739.794 1476.87 L729.169 1487.5 L726.438 1484.7 L736.993 1474.12 L726.438 1463.49 L729.169 1460.69 L739.794 1471.32 L750.419 1460.69 L753.174 1463.49 Z" fill="#000000" fill-rule="evenodd" fill-opacity="1" /><path clip-path="url(#clip790)" d="M765.535 1485.02 L773.174 1485.02 L773.174 1458.66 L764.863 1460.32 L764.863 1456.06 L773.127 1454.4 L777.803 1454.4 L777.803 1485.02 L785.442 1485.02 L785.442 1488.96 L765.535 1488.96 L765.535 1485.02 Z" fill="#000000" fill-rule="evenodd" fill-opacity="1" /><path clip-path="url(#clip790)" d="M804.886 1457.48 Q801.275 1457.48 799.447 1461.04 Q797.641 1464.58 797.641 1471.71 Q797.641 1478.82 799.447 1482.38 Q801.275 1485.92 804.886 1485.92 Q808.521 1485.92 810.326 1482.38 Q812.155 1478.82 812.155 1471.71 Q812.155 1464.58 810.326 1461.04 Q808.521 1457.48 804.886 1457.48 M804.886 1453.77 Q810.697 1453.77 813.752 1458.38 Q816.831 1462.96 816.831 1471.71 Q816.831 1480.44 813.752 1485.04 Q810.697 1489.63 804.886 1489.63 Q799.076 1489.63 795.998 1485.04 Q792.942 1480.44 792.942 1471.71 Q792.942 1462.96 795.998 1458.38 Q799.076 1453.77 804.886 1453.77 Z" fill="#000000" fill-rule="evenodd" fill-opacity="1" /><path clip-path="url(#clip790)" d="M818.016 1433.47 L832.93 1433.47 L832.93 1436.66 L821.495 1436.66 L821.495 1443.55 Q822.323 1443.27 823.15 1443.13 Q823.978 1442.98 824.805 1442.98 Q829.507 1442.98 832.253 1445.56 Q834.999 1448.14 834.999 1452.54 Q834.999 1457.07 832.178 1459.59 Q829.357 1462.09 824.222 1462.09 Q822.454 1462.09 820.611 1461.79 Q818.787 1461.49 816.831 1460.89 L816.831 1457.07 Q818.523 1457.99 820.329 1458.44 Q822.135 1458.89 824.147 1458.89 Q827.401 1458.89 829.3 1457.18 Q831.2 1455.47 831.2 1452.54 Q831.2 1449.6 829.3 1447.89 Q827.401 1446.18 824.147 1446.18 Q822.624 1446.18 821.1 1446.52 Q819.595 1446.86 818.016 1447.57 L818.016 1433.47 Z" fill="#000000" fill-rule="evenodd" fill-opacity="1" /><path clip-path="url(#clip790)" d="M1141.11 1485.02 L1148.74 1485.02 L1148.74 1458.66 L1140.43 1460.32 L1140.43 1456.06 L1148.7 1454.4 L1153.37 1454.4 L1153.37 1485.02 L1161.01 1485.02 L1161.01 1488.96 L1141.11 1488.96 L1141.11 1485.02 Z" fill="#000000" fill-rule="evenodd" fill-opacity="1" /><path clip-path="url(#clip790)" d="M1170.46 1483.08 L1175.34 1483.08 L1175.34 1488.96 L1170.46 1488.96 L1170.46 1483.08 Z" fill="#000000" fill-rule="evenodd" fill-opacity="1" /><path clip-path="url(#clip790)" d="M1195.53 1457.48 Q1191.92 1457.48 1190.09 1461.04 Q1188.28 1464.58 1188.28 1471.71 Q1188.28 1478.82 1190.09 1482.38 Q1191.92 1485.92 1195.53 1485.92 Q1199.16 1485.92 1200.97 1482.38 Q1202.8 1478.82 1202.8 1471.71 Q1202.8 1464.58 1200.97 1461.04 Q1199.16 1457.48 1195.53 1457.48 M1195.53 1453.77 Q1201.34 1453.77 1204.39 1458.38 Q1207.47 1462.96 1207.47 1471.71 Q1207.47 1480.44 1204.39 1485.04 Q1201.34 1489.63 1195.53 1489.63 Q1189.72 1489.63 1186.64 1485.04 Q1183.58 1480.44 1183.58 1471.71 Q1183.58 1462.96 1186.64 1458.38 Q1189.72 1453.77 1195.53 1453.77 Z" fill="#000000" fill-rule="evenodd" fill-opacity="1" /><path clip-path="url(#clip790)" d="M1225.69 1457.48 Q1222.08 1457.48 1220.25 1461.04 Q1218.44 1464.58 1218.44 1471.71 Q1218.44 1478.82 1220.25 1482.38 Q1222.08 1485.92 1225.69 1485.92 Q1229.32 1485.92 1231.13 1482.38 Q1232.96 1478.82 1232.96 1471.71 Q1232.96 1464.58 1231.13 1461.04 Q1229.32 1457.48 1225.69 1457.48 M1225.69 1453.77 Q1231.5 1453.77 1234.55 1458.38 Q1237.63 1462.96 1237.63 1471.71 Q1237.63 1480.44 1234.55 1485.04 Q1231.5 1489.63 1225.69 1489.63 Q1219.88 1489.63 1216.8 1485.04 Q1213.74 1480.44 1213.74 1471.71 Q1213.74 1462.96 1216.8 1458.38 Q1219.88 1453.77 1225.69 1453.77 Z" fill="#000000" fill-rule="evenodd" fill-opacity="1" /><path clip-path="url(#clip790)" d="M1274.02 1463.49 L1263.44 1474.12 L1274.02 1484.7 L1271.27 1487.5 L1260.64 1476.87 L1250.02 1487.5 L1247.29 1484.7 L1257.84 1474.12 L1247.29 1463.49 L1250.02 1460.69 L1260.64 1471.32 L1271.27 1460.69 L1274.02 1463.49 Z" fill="#000000" fill-rule="evenodd" fill-opacity="1" /><path clip-path="url(#clip790)" d="M1286.38 1485.02 L1294.02 1485.02 L1294.02 1458.66 L1285.71 1460.32 L1285.71 1456.06 L1293.98 1454.4 L1298.65 1454.4 L1298.65 1485.02 L1306.29 1485.02 L1306.29 1488.96 L1286.38 1488.96 L1286.38 1485.02 Z" fill="#000000" fill-rule="evenodd" fill-opacity="1" /><path clip-path="url(#clip790)" d="M1325.73 1457.48 Q1322.12 1457.48 1320.29 1461.04 Q1318.49 1464.58 1318.49 1471.71 Q1318.49 1478.82 1320.29 1482.38 Q1322.12 1485.92 1325.73 1485.92 Q1329.37 1485.92 1331.17 1482.38 Q1333 1478.82 1333 1471.71 Q1333 1464.58 1331.17 1461.04 Q1329.37 1457.48 1325.73 1457.48 M1325.73 1453.77 Q1331.54 1453.77 1334.6 1458.38 Q1337.68 1462.96 1337.68 1471.71 Q1337.68 1480.44 1334.6 1485.04 Q1331.54 1489.63 1325.73 1489.63 Q1319.92 1489.63 1316.85 1485.04 Q1313.79 1480.44 1313.79 1471.71 Q1313.79 1462.96 1316.85 1458.38 Q1319.92 1453.77 1325.73 1453.77 Z" fill="#000000" fill-rule="evenodd" fill-opacity="1" /><path clip-path="url(#clip790)" d="M1347.7 1445.99 Q1345.15 1445.99 1343.64 1447.74 Q1342.15 1449.49 1342.15 1452.54 Q1342.15 1455.57 1343.64 1457.33 Q1345.15 1459.08 1347.7 1459.08 Q1350.26 1459.08 1351.75 1457.33 Q1353.25 1455.57 1353.25 1452.54 Q1353.25 1449.49 1351.75 1447.74 Q1350.26 1445.99 1347.7 1445.99 M1355.25 1434.09 L1355.25 1437.55 Q1353.82 1436.87 1352.35 1436.51 Q1350.9 1436.16 1349.47 1436.16 Q1345.71 1436.16 1343.72 1438.69 Q1341.74 1441.23 1341.46 1446.37 Q1342.57 1444.73 1344.24 1443.87 Q1345.92 1442.98 1347.93 1442.98 Q1352.16 1442.98 1354.61 1445.56 Q1357.07 1448.12 1357.07 1452.54 Q1357.07 1456.86 1354.51 1459.48 Q1351.95 1462.09 1347.7 1462.09 Q1342.83 1462.09 1340.26 1458.37 Q1337.68 1454.62 1337.68 1447.53 Q1337.68 1440.88 1340.84 1436.93 Q1344 1432.96 1349.32 1432.96 Q1350.75 1432.96 1352.2 1433.24 Q1353.67 1433.52 1355.25 1434.09 Z" fill="#000000" fill-rule="evenodd" fill-opacity="1" /><path clip-path="url(#clip790)" d="M1663.34 1485.02 L1670.98 1485.02 L1670.98 1458.66 L1662.67 1460.32 L1662.67 1456.06 L1670.93 1454.4 L1675.61 1454.4 L1675.61 1485.02 L1683.25 1485.02 L1683.25 1488.96 L1663.34 1488.96 L1663.34 1485.02 Z" fill="#000000" fill-rule="evenodd" fill-opacity="1" /><path clip-path="url(#clip790)" d="M1692.69 1483.08 L1697.58 1483.08 L1697.58 1488.96 L1692.69 1488.96 L1692.69 1483.08 Z" fill="#000000" fill-rule="evenodd" fill-opacity="1" /><path clip-path="url(#clip790)" d="M1707.81 1454.4 L1726.16 1454.4 L1726.16 1458.33 L1712.09 1458.33 L1712.09 1466.8 Q1713.11 1466.46 1714.13 1466.29 Q1715.15 1466.11 1716.16 1466.11 Q1721.95 1466.11 1725.33 1469.28 Q1728.71 1472.45 1728.71 1477.87 Q1728.71 1483.45 1725.24 1486.55 Q1721.77 1489.63 1715.45 1489.63 Q1713.27 1489.63 1711 1489.26 Q1708.76 1488.89 1706.35 1488.15 L1706.35 1483.45 Q1708.43 1484.58 1710.65 1485.14 Q1712.88 1485.69 1715.35 1485.69 Q1719.36 1485.69 1721.7 1483.59 Q1724.03 1481.48 1724.03 1477.87 Q1724.03 1474.26 1721.7 1472.15 Q1719.36 1470.04 1715.35 1470.04 Q1713.48 1470.04 1711.6 1470.46 Q1709.75 1470.88 1707.81 1471.76 L1707.81 1454.4 Z" fill="#000000" fill-rule="evenodd" fill-opacity="1" /><path clip-path="url(#clip790)" d="M1747.92 1457.48 Q1744.31 1457.48 1742.48 1461.04 Q1740.68 1464.58 1740.68 1471.71 Q1740.68 1478.82 1742.48 1482.38 Q1744.31 1485.92 1747.92 1485.92 Q1751.56 1485.92 1753.36 1482.38 Q1755.19 1478.82 1755.19 1471.71 Q1755.19 1464.58 1753.36 1461.04 Q1751.56 1457.48 1747.92 1457.48 M1747.92 1453.77 Q1753.73 1453.77 1756.79 1458.38 Q1759.87 1462.96 1759.87 1471.71 Q1759.87 1480.44 1756.79 1485.04 Q1753.73 1489.63 1747.92 1489.63 Q1742.11 1489.63 1739.03 1485.04 Q1735.98 1480.44 1735.98 1471.71 Q1735.98 1462.96 1739.03 1458.38 Q1742.11 1453.77 1747.92 1453.77 Z" fill="#000000" fill-rule="evenodd" fill-opacity="1" /><path clip-path="url(#clip790)" d="M1796.26 1463.49 L1785.68 1474.12 L1796.26 1484.7 L1793.5 1487.5 L1782.88 1476.87 L1772.25 1487.5 L1769.52 1484.7 L1780.08 1474.12 L1769.52 1463.49 L1772.25 1460.69 L1782.88 1471.32 L1793.5 1460.69 L1796.26 1463.49 Z" fill="#000000" fill-rule="evenodd" fill-opacity="1" /><path clip-path="url(#clip790)" d="M1808.62 1485.02 L1816.26 1485.02 L1816.26 1458.66 L1807.95 1460.32 L1807.95 1456.06 L1816.21 1454.4 L1820.89 1454.4 L1820.89 1485.02 L1828.52 1485.02 L1828.52 1488.96 L1808.62 1488.96 L1808.62 1485.02 Z" fill="#000000" fill-rule="evenodd" fill-opacity="1" /><path clip-path="url(#clip790)" d="M1847.97 1457.48 Q1844.36 1457.48 1842.53 1461.04 Q1840.72 1464.58 1840.72 1471.71 Q1840.72 1478.82 1842.53 1482.38 Q1844.36 1485.92 1847.97 1485.92 Q1851.6 1485.92 1853.41 1482.38 Q1855.24 1478.82 1855.24 1471.71 Q1855.24 1464.58 1853.41 1461.04 Q1851.6 1457.48 1847.97 1457.48 M1847.97 1453.77 Q1853.78 1453.77 1856.83 1458.38 Q1859.91 1462.96 1859.91 1471.71 Q1859.91 1480.44 1856.83 1485.04 Q1853.78 1489.63 1847.97 1489.63 Q1842.16 1489.63 1839.08 1485.04 Q1836.02 1480.44 1836.02 1471.71 Q1836.02 1462.96 1839.08 1458.38 Q1842.16 1453.77 1847.97 1453.77 Z" fill="#000000" fill-rule="evenodd" fill-opacity="1" /><path clip-path="url(#clip790)" d="M1869.94 1445.99 Q1867.38 1445.99 1865.88 1447.74 Q1864.39 1449.49 1864.39 1452.54 Q1864.39 1455.57 1865.88 1457.33 Q1867.38 1459.08 1869.94 1459.08 Q1872.5 1459.08 1873.98 1457.33 Q1875.49 1455.57 1875.49 1452.54 Q1875.49 1449.49 1873.98 1447.74 Q1872.5 1445.99 1869.94 1445.99 M1877.48 1434.09 L1877.48 1437.55 Q1876.05 1436.87 1874.58 1436.51 Q1873.14 1436.16 1871.71 1436.16 Q1867.94 1436.16 1865.95 1438.69 Q1863.98 1441.23 1863.69 1446.37 Q1864.8 1444.73 1866.48 1443.87 Q1868.15 1442.98 1870.16 1442.98 Q1874.4 1442.98 1876.84 1445.56 Q1879.3 1448.12 1879.3 1452.54 Q1879.3 1456.86 1876.75 1459.48 Q1874.19 1462.09 1869.94 1462.09 Q1865.07 1462.09 1862.49 1458.37 Q1859.91 1454.62 1859.91 1447.53 Q1859.91 1440.88 1863.07 1436.93 Q1866.23 1432.96 1871.56 1432.96 Q1872.98 1432.96 1874.43 1433.24 Q1875.9 1433.52 1877.48 1434.09 Z" fill="#000000" fill-rule="evenodd" fill-opacity="1" /><path clip-path="url(#clip790)" d="M2189.66 1485.02 L2205.98 1485.02 L2205.98 1488.96 L2184.04 1488.96 L2184.04 1485.02 Q2186.7 1482.27 2191.28 1477.64 Q2195.89 1472.98 2197.07 1471.64 Q2199.31 1469.12 2200.19 1467.38 Q2201.1 1465.62 2201.1 1463.93 Q2201.1 1461.18 2199.15 1459.44 Q2197.23 1457.71 2194.13 1457.71 Q2191.93 1457.71 2189.48 1458.47 Q2187.04 1459.23 2184.27 1460.79 L2184.27 1456.06 Q2187.09 1454.93 2189.54 1454.35 Q2192 1453.77 2194.04 1453.77 Q2199.41 1453.77 2202.6 1456.46 Q2205.79 1459.14 2205.79 1463.63 Q2205.79 1465.76 2204.98 1467.68 Q2204.2 1469.58 2202.09 1472.17 Q2201.51 1472.85 2198.41 1476.06 Q2195.31 1479.26 2189.66 1485.02 Z" fill="#000000" fill-rule="evenodd" fill-opacity="1" /><path clip-path="url(#clip790)" d="M2215.79 1483.08 L2220.68 1483.08 L2220.68 1488.96 L2215.79 1488.96 L2215.79 1483.08 Z" fill="#000000" fill-rule="evenodd" fill-opacity="1" /><path clip-path="url(#clip790)" d="M2240.86 1457.48 Q2237.25 1457.48 2235.42 1461.04 Q2233.62 1464.58 2233.62 1471.71 Q2233.62 1478.82 2235.42 1482.38 Q2237.25 1485.92 2240.86 1485.92 Q2244.5 1485.92 2246.3 1482.38 Q2248.13 1478.82 2248.13 1471.71 Q2248.13 1464.58 2246.3 1461.04 Q2244.5 1457.48 2240.86 1457.48 M2240.86 1453.77 Q2246.67 1453.77 2249.73 1458.38 Q2252.81 1462.96 2252.81 1471.71 Q2252.81 1480.44 2249.73 1485.04 Q2246.67 1489.63 2240.86 1489.63 Q2235.05 1489.63 2231.98 1485.04 Q2228.92 1480.44 2228.92 1471.71 Q2228.92 1462.96 2231.98 1458.38 Q2235.05 1453.77 2240.86 1453.77 Z" fill="#000000" fill-rule="evenodd" fill-opacity="1" /><path clip-path="url(#clip790)" d="M2271.03 1457.48 Q2267.41 1457.48 2265.59 1461.04 Q2263.78 1464.58 2263.78 1471.71 Q2263.78 1478.82 2265.59 1482.38 Q2267.41 1485.92 2271.03 1485.92 Q2274.66 1485.92 2276.47 1482.38 Q2278.29 1478.82 2278.29 1471.71 Q2278.29 1464.58 2276.47 1461.04 Q2274.66 1457.48 2271.03 1457.48 M2271.03 1453.77 Q2276.84 1453.77 2279.89 1458.38 Q2282.97 1462.96 2282.97 1471.71 Q2282.97 1480.44 2279.89 1485.04 Q2276.84 1489.63 2271.03 1489.63 Q2265.22 1489.63 2262.14 1485.04 Q2259.08 1480.44 2259.08 1471.71 Q2259.08 1462.96 2262.14 1458.38 Q2265.22 1453.77 2271.03 1453.77 Z" fill="#000000" fill-rule="evenodd" fill-opacity="1" /><path clip-path="url(#clip790)" d="M2319.36 1463.49 L2308.78 1474.12 L2319.36 1484.7 L2316.6 1487.5 L2305.98 1476.87 L2295.35 1487.5 L2292.62 1484.7 L2303.18 1474.12 L2292.62 1463.49 L2295.35 1460.69 L2305.98 1471.32 L2316.6 1460.69 L2319.36 1463.49 Z" fill="#000000" fill-rule="evenodd" fill-opacity="1" /><path clip-path="url(#clip790)" d="M2331.72 1485.02 L2339.36 1485.02 L2339.36 1458.66 L2331.05 1460.32 L2331.05 1456.06 L2339.31 1454.4 L2343.99 1454.4 L2343.99 1485.02 L2351.63 1485.02 L2351.63 1488.96 L2331.72 1488.96 L2331.72 1485.02 Z" fill="#000000" fill-rule="evenodd" fill-opacity="1" /><path clip-path="url(#clip790)" d="M2371.07 1457.48 Q2367.46 1457.48 2365.63 1461.04 Q2363.83 1464.58 2363.83 1471.71 Q2363.83 1478.82 2365.63 1482.38 Q2367.46 1485.92 2371.07 1485.92 Q2374.71 1485.92 2376.51 1482.38 Q2378.34 1478.82 2378.34 1471.71 Q2378.34 1464.58 2376.51 1461.04 Q2374.71 1457.48 2371.07 1457.48 M2371.07 1453.77 Q2376.88 1453.77 2379.94 1458.38 Q2383.02 1462.96 2383.02 1471.71 Q2383.02 1480.44 2379.94 1485.04 Q2376.88 1489.63 2371.07 1489.63 Q2365.26 1489.63 2362.18 1485.04 Q2359.13 1480.44 2359.13 1471.71 Q2359.13 1462.96 2362.18 1458.38 Q2365.26 1453.77 2371.07 1453.77 Z" fill="#000000" fill-rule="evenodd" fill-opacity="1" /><path clip-path="url(#clip790)" d="M2393.04 1445.99 Q2390.48 1445.99 2388.98 1447.74 Q2387.49 1449.49 2387.49 1452.54 Q2387.49 1455.57 2388.98 1457.33 Q2390.48 1459.08 2393.04 1459.08 Q2395.6 1459.08 2397.08 1457.33 Q2398.59 1455.57 2398.59 1452.54 Q2398.59 1449.49 2397.08 1447.74 Q2395.6 1445.99 2393.04 1445.99 M2400.58 1434.09 L2400.58 1437.55 Q2399.15 1436.87 2397.69 1436.51 Q2396.24 1436.16 2394.81 1436.16 Q2391.05 1436.16 2389.05 1438.69 Q2387.08 1441.23 2386.8 1446.37 Q2387.91 1444.73 2389.58 1443.87 Q2391.25 1442.98 2393.27 1442.98 Q2397.5 1442.98 2399.94 1445.56 Q2402.41 1448.12 2402.41 1452.54 Q2402.41 1456.86 2399.85 1459.48 Q2397.29 1462.09 2393.04 1462.09 Q2388.17 1462.09 2385.59 1458.37 Q2383.02 1454.62 2383.02 1447.53 Q2383.02 1440.88 2386.18 1436.93 Q2389.34 1432.96 2394.66 1432.96 Q2396.09 1432.96 2397.54 1433.24 Q2399 1433.52 2400.58 1434.09 Z" fill="#000000" fill-rule="evenodd" fill-opacity="1" /><path clip-path="url(#clip790)" d="M1150.54 1526.67 L1156.97 1526.67 L1156.97 1574.19 L1150.54 1574.19 L1150.54 1526.67 Z" fill="#000000" fill-rule="evenodd" fill-opacity="1" /><path clip-path="url(#clip790)" d="M1175.3 1528.42 L1175.3 1538.54 L1187.36 1538.54 L1187.36 1543.09 L1175.3 1543.09 L1175.3 1562.44 Q1175.3 1566.8 1176.48 1568.04 Q1177.69 1569.28 1181.35 1569.28 L1187.36 1569.28 L1187.36 1574.19 L1181.35 1574.19 Q1174.57 1574.19 1171.99 1571.67 Q1169.41 1569.12 1169.41 1562.44 L1169.41 1543.09 L1165.12 1543.09 L1165.12 1538.54 L1169.41 1538.54 L1169.41 1528.42 L1175.3 1528.42 Z" fill="#000000" fill-rule="evenodd" fill-opacity="1" /><path clip-path="url(#clip790)" d="M1225.56 1554.9 L1225.56 1557.76 L1198.63 1557.76 Q1199.01 1563.81 1202.26 1566.99 Q1205.54 1570.14 1211.36 1570.14 Q1214.74 1570.14 1217.89 1569.32 Q1221.07 1568.49 1224.19 1566.83 L1224.19 1572.37 Q1221.04 1573.71 1217.73 1574.41 Q1214.42 1575.11 1211.01 1575.11 Q1202.48 1575.11 1197.48 1570.14 Q1192.52 1565.18 1192.52 1556.71 Q1192.52 1547.96 1197.23 1542.83 Q1201.97 1537.68 1209.99 1537.68 Q1217.19 1537.68 1221.36 1542.33 Q1225.56 1546.94 1225.56 1554.9 M1219.7 1553.18 Q1219.64 1548.37 1217 1545.51 Q1214.39 1542.64 1210.06 1542.64 Q1205.16 1542.64 1202.2 1545.41 Q1199.27 1548.18 1198.82 1553.21 L1219.7 1553.18 Z" fill="#000000" fill-rule="evenodd" fill-opacity="1" /><path clip-path="url(#clip790)" d="M1255.83 1544.01 Q1254.84 1543.44 1253.66 1543.18 Q1252.52 1542.9 1251.12 1542.9 Q1246.15 1542.9 1243.48 1546.14 Q1240.84 1549.36 1240.84 1555.41 L1240.84 1574.19 L1234.95 1574.19 L1234.95 1538.54 L1240.84 1538.54 L1240.84 1544.08 Q1242.68 1540.83 1245.64 1539.27 Q1248.6 1537.68 1252.83 1537.68 Q1253.44 1537.68 1254.17 1537.77 Q1254.9 1537.84 1255.79 1538 L1255.83 1544.01 Z" fill="#000000" fill-rule="evenodd" fill-opacity="1" /><path clip-path="url(#clip790)" d="M1278.17 1556.27 Q1271.07 1556.27 1268.34 1557.89 Q1265.6 1559.51 1265.6 1563.43 Q1265.6 1566.55 1267.63 1568.39 Q1269.7 1570.21 1273.24 1570.21 Q1278.11 1570.21 1281.03 1566.77 Q1283.99 1563.3 1283.99 1557.57 L1283.99 1556.27 L1278.17 1556.27 M1289.85 1553.85 L1289.85 1574.19 L1283.99 1574.19 L1283.99 1568.77 Q1281.99 1572.02 1279 1573.58 Q1276.01 1575.11 1271.68 1575.11 Q1266.2 1575.11 1262.96 1572.05 Q1259.74 1568.97 1259.74 1563.81 Q1259.74 1557.79 1263.75 1554.74 Q1267.79 1551.68 1275.78 1551.68 L1283.99 1551.68 L1283.99 1551.11 Q1283.99 1547.07 1281.32 1544.87 Q1278.68 1542.64 1273.87 1542.64 Q1270.82 1542.64 1267.92 1543.38 Q1265.03 1544.11 1262.35 1545.57 L1262.35 1540.16 Q1265.57 1538.92 1268.59 1538.31 Q1271.61 1537.68 1274.48 1537.68 Q1282.21 1537.68 1286.03 1541.69 Q1289.85 1545.7 1289.85 1553.85 Z" fill="#000000" fill-rule="evenodd" fill-opacity="1" /><path clip-path="url(#clip790)" d="M1307.71 1528.42 L1307.71 1538.54 L1319.77 1538.54 L1319.77 1543.09 L1307.71 1543.09 L1307.71 1562.44 Q1307.71 1566.8 1308.88 1568.04 Q1310.09 1569.28 1313.75 1569.28 L1319.77 1569.28 L1319.77 1574.19 L1313.75 1574.19 Q1306.98 1574.19 1304.4 1571.67 Q1301.82 1569.12 1301.82 1562.44 L1301.82 1543.09 L1297.52 1543.09 L1297.52 1538.54 L1301.82 1538.54 L1301.82 1528.42 L1307.71 1528.42 Z" fill="#000000" fill-rule="evenodd" fill-opacity="1" /><path clip-path="url(#clip790)" d="M1327.47 1538.54 L1333.33 1538.54 L1333.33 1574.19 L1327.47 1574.19 L1327.47 1538.54 M1327.47 1524.66 L1333.33 1524.66 L1333.33 1532.08 L1327.47 1532.08 L1327.47 1524.66 Z" fill="#000000" fill-rule="evenodd" fill-opacity="1" /><path clip-path="url(#clip790)" d="M1359.4 1542.64 Q1354.69 1542.64 1351.95 1546.34 Q1349.21 1550 1349.21 1556.39 Q1349.21 1562.79 1351.92 1566.48 Q1354.65 1570.14 1359.4 1570.14 Q1364.08 1570.14 1366.81 1566.45 Q1369.55 1562.76 1369.55 1556.39 Q1369.55 1550.06 1366.81 1546.37 Q1364.08 1542.64 1359.4 1542.64 M1359.4 1537.68 Q1367.04 1537.68 1371.4 1542.64 Q1375.76 1547.61 1375.76 1556.39 Q1375.76 1565.15 1371.4 1570.14 Q1367.04 1575.11 1359.4 1575.11 Q1351.73 1575.11 1347.37 1570.14 Q1343.04 1565.15 1343.04 1556.39 Q1343.04 1547.61 1347.37 1542.64 Q1351.73 1537.68 1359.4 1537.68 Z" fill="#000000" fill-rule="evenodd" fill-opacity="1" /><path clip-path="url(#clip790)" d="M1415.1 1552.67 L1415.1 1574.19 L1409.24 1574.19 L1409.24 1552.86 Q1409.24 1547.8 1407.27 1545.29 Q1405.29 1542.77 1401.35 1542.77 Q1396.6 1542.77 1393.87 1545.79 Q1391.13 1548.82 1391.13 1554.04 L1391.13 1574.19 L1385.24 1574.19 L1385.24 1538.54 L1391.13 1538.54 L1391.13 1544.08 Q1393.23 1540.86 1396.06 1539.27 Q1398.93 1537.68 1402.65 1537.68 Q1408.79 1537.68 1411.95 1541.5 Q1415.1 1545.29 1415.1 1552.67 Z" fill="#000000" fill-rule="evenodd" fill-opacity="1" /><path clip-path="url(#clip790)" d="M1449.5 1539.59 L1449.5 1545.13 Q1447.02 1543.85 1444.35 1543.22 Q1441.67 1542.58 1438.81 1542.58 Q1434.45 1542.58 1432.25 1543.92 Q1430.09 1545.25 1430.09 1547.93 Q1430.09 1549.96 1431.65 1551.14 Q1433.21 1552.29 1437.92 1553.34 L1439.92 1553.78 Q1446.16 1555.12 1448.77 1557.57 Q1451.41 1559.99 1451.41 1564.35 Q1451.41 1569.32 1447.47 1572.21 Q1443.55 1575.11 1436.68 1575.11 Q1433.81 1575.11 1430.69 1574.54 Q1427.61 1573.99 1424.17 1572.88 L1424.17 1566.83 Q1427.41 1568.52 1430.57 1569.38 Q1433.72 1570.21 1436.8 1570.21 Q1440.94 1570.21 1443.17 1568.81 Q1445.4 1567.37 1445.4 1564.8 Q1445.4 1562.41 1443.77 1561.14 Q1442.18 1559.86 1436.74 1558.68 L1434.7 1558.21 Q1429.26 1557.06 1426.84 1554.71 Q1424.42 1552.32 1424.42 1548.18 Q1424.42 1543.15 1427.99 1540.42 Q1431.55 1537.68 1438.11 1537.68 Q1441.36 1537.68 1444.22 1538.16 Q1447.08 1538.63 1449.5 1539.59 Z" fill="#000000" fill-rule="evenodd" fill-opacity="1" /><polyline clip-path="url(#clip792)" style="stroke:#000000; stroke-linecap:round; stroke-linejoin:round; stroke-width:2; stroke-opacity:0.1; fill:none" points="
  249.195,1317.82 2352.76,1317.82 
  "/>
<polyline clip-path="url(#clip792)" style="stroke:#000000; stroke-linecap:round; stroke-linejoin:round; stroke-width:2; stroke-opacity:0.1; fill:none" points="
  249.195,1132.53 2352.76,1132.53 
  "/>
<polyline clip-path="url(#clip792)" style="stroke:#000000; stroke-linecap:round; stroke-linejoin:round; stroke-width:2; stroke-opacity:0.1; fill:none" points="
  249.195,947.24 2352.76,947.24 
  "/>
<polyline clip-path="url(#clip792)" style="stroke:#000000; stroke-linecap:round; stroke-linejoin:round; stroke-width:2; stroke-opacity:0.1; fill:none" points="
  249.195,761.95 2352.76,761.95 
  "/>
<polyline clip-path="url(#clip792)" style="stroke:#000000; stroke-linecap:round; stroke-linejoin:round; stroke-width:2; stroke-opacity:0.1; fill:none" points="
  249.195,576.66 2352.76,576.66 
  "/>
<polyline clip-path="url(#clip792)" style="stroke:#000000; stroke-linecap:round; stroke-linejoin:round; stroke-width:2; stroke-opacity:0.1; fill:none" points="
  249.195,391.37 2352.76,391.37 
  "/>
<polyline clip-path="url(#clip792)" style="stroke:#000000; stroke-linecap:round; stroke-linejoin:round; stroke-width:2; stroke-opacity:0.1; fill:none" points="
  249.195,206.08 2352.76,206.08 
  "/>
<polyline clip-path="url(#clip790)" style="stroke:#000000; stroke-linecap:round; stroke-linejoin:round; stroke-width:4; stroke-opacity:1; fill:none" points="
  249.195,1410.9 249.195,47.2441 
  "/>
<polyline clip-path="url(#clip790)" style="stroke:#000000; stroke-linecap:round; stroke-linejoin:round; stroke-width:4; stroke-opacity:1; fill:none" points="
  249.195,1317.82 268.092,1317.82 
  "/>
<polyline clip-path="url(#clip790)" style="stroke:#000000; stroke-linecap:round; stroke-linejoin:round; stroke-width:4; stroke-opacity:1; fill:none" points="
  249.195,1132.53 268.092,1132.53 
  "/>
<polyline clip-path="url(#clip790)" style="stroke:#000000; stroke-linecap:round; stroke-linejoin:round; stroke-width:4; stroke-opacity:1; fill:none" points="
  249.195,947.24 268.092,947.24 
  "/>
<polyline clip-path="url(#clip790)" style="stroke:#000000; stroke-linecap:round; stroke-linejoin:round; stroke-width:4; stroke-opacity:1; fill:none" points="
  249.195,761.95 268.092,761.95 
  "/>
<polyline clip-path="url(#clip790)" style="stroke:#000000; stroke-linecap:round; stroke-linejoin:round; stroke-width:4; stroke-opacity:1; fill:none" points="
  249.195,576.66 268.092,576.66 
  "/>
<polyline clip-path="url(#clip790)" style="stroke:#000000; stroke-linecap:round; stroke-linejoin:round; stroke-width:4; stroke-opacity:1; fill:none" points="
  249.195,391.37 268.092,391.37 
  "/>
<polyline clip-path="url(#clip790)" style="stroke:#000000; stroke-linecap:round; stroke-linejoin:round; stroke-width:4; stroke-opacity:1; fill:none" points="
  249.195,206.08 268.092,206.08 
  "/>
<path clip-path="url(#clip790)" d="M117.663 1331.16 L125.302 1331.16 L125.302 1304.8 L116.992 1306.47 L116.992 1302.21 L125.255 1300.54 L129.931 1300.54 L129.931 1331.16 L137.57 1331.16 L137.57 1335.1 L117.663 1335.1 L117.663 1331.16 Z" fill="#000000" fill-rule="evenodd" fill-opacity="1" /><path clip-path="url(#clip790)" d="M147.015 1329.22 L151.899 1329.22 L151.899 1335.1 L147.015 1335.1 L147.015 1329.22 Z" fill="#000000" fill-rule="evenodd" fill-opacity="1" /><path clip-path="url(#clip790)" d="M162.223 1334.38 L162.223 1330.12 Q163.982 1330.96 165.788 1331.4 Q167.593 1331.84 169.329 1331.84 Q173.959 1331.84 176.389 1328.73 Q178.843 1325.61 179.19 1319.27 Q177.848 1321.26 175.788 1322.32 Q173.727 1323.39 171.227 1323.39 Q166.042 1323.39 163.01 1320.26 Q160.001 1317.11 160.001 1311.67 Q160.001 1306.35 163.149 1303.13 Q166.297 1299.91 171.528 1299.91 Q177.524 1299.91 180.672 1304.52 Q183.843 1309.1 183.843 1317.85 Q183.843 1326.03 179.954 1330.91 Q176.089 1335.77 169.538 1335.77 Q167.778 1335.77 165.973 1335.42 Q164.167 1335.08 162.223 1334.38 M171.528 1319.73 Q174.677 1319.73 176.505 1317.58 Q178.357 1315.42 178.357 1311.67 Q178.357 1307.95 176.505 1305.79 Q174.677 1303.62 171.528 1303.62 Q168.38 1303.62 166.528 1305.79 Q164.7 1307.95 164.7 1311.67 Q164.7 1315.42 166.528 1317.58 Q168.38 1319.73 171.528 1319.73 Z" fill="#000000" fill-rule="evenodd" fill-opacity="1" /><path clip-path="url(#clip790)" d="M192.292 1300.54 L210.649 1300.54 L210.649 1304.47 L196.575 1304.47 L196.575 1312.95 Q197.593 1312.6 198.612 1312.44 Q199.63 1312.25 200.649 1312.25 Q206.436 1312.25 209.815 1315.42 Q213.195 1318.59 213.195 1324.01 Q213.195 1329.59 209.723 1332.69 Q206.25 1335.77 199.931 1335.77 Q197.755 1335.77 195.487 1335.4 Q193.241 1335.03 190.834 1334.29 L190.834 1329.59 Q192.917 1330.72 195.139 1331.28 Q197.362 1331.84 199.838 1331.84 Q203.843 1331.84 206.181 1329.73 Q208.519 1327.62 208.519 1324.01 Q208.519 1320.4 206.181 1318.29 Q203.843 1316.19 199.838 1316.19 Q197.963 1316.19 196.088 1316.6 Q194.237 1317.02 192.292 1317.9 L192.292 1300.54 Z" fill="#000000" fill-rule="evenodd" fill-opacity="1" /><path clip-path="url(#clip790)" d="M119.885 1145.87 L136.204 1145.87 L136.204 1149.81 L114.26 1149.81 L114.26 1145.87 Q116.922 1143.12 121.505 1138.49 Q126.112 1133.84 127.292 1132.49 Q129.538 1129.97 130.417 1128.24 Q131.32 1126.48 131.32 1124.79 Q131.32 1122.03 129.376 1120.3 Q127.455 1118.56 124.353 1118.56 Q122.154 1118.56 119.7 1119.32 Q117.269 1120.09 114.492 1121.64 L114.492 1116.92 Q117.316 1115.78 119.769 1115.2 Q122.223 1114.62 124.26 1114.62 Q129.63 1114.62 132.825 1117.31 Q136.019 1119.99 136.019 1124.49 Q136.019 1126.62 135.209 1128.54 Q134.422 1130.43 132.316 1133.03 Q131.737 1133.7 128.635 1136.92 Q125.533 1140.11 119.885 1145.87 Z" fill="#000000" fill-rule="evenodd" fill-opacity="1" /><path clip-path="url(#clip790)" d="M146.019 1143.93 L150.903 1143.93 L150.903 1149.81 L146.019 1149.81 L146.019 1143.93 Z" fill="#000000" fill-rule="evenodd" fill-opacity="1" /><path clip-path="url(#clip790)" d="M171.089 1118.33 Q167.477 1118.33 165.649 1121.89 Q163.843 1125.43 163.843 1132.56 Q163.843 1139.67 165.649 1143.24 Q167.477 1146.78 171.089 1146.78 Q174.723 1146.78 176.528 1143.24 Q178.357 1139.67 178.357 1132.56 Q178.357 1125.43 176.528 1121.89 Q174.723 1118.33 171.089 1118.33 M171.089 1114.62 Q176.899 1114.62 179.954 1119.23 Q183.033 1123.81 183.033 1132.56 Q183.033 1141.29 179.954 1145.9 Q176.899 1150.48 171.089 1150.48 Q165.278 1150.48 162.2 1145.9 Q159.144 1141.29 159.144 1132.56 Q159.144 1123.81 162.2 1119.23 Q165.278 1114.62 171.089 1114.62 Z" fill="#000000" fill-rule="evenodd" fill-opacity="1" /><path clip-path="url(#clip790)" d="M201.25 1118.33 Q197.639 1118.33 195.811 1121.89 Q194.005 1125.43 194.005 1132.56 Q194.005 1139.67 195.811 1143.24 Q197.639 1146.78 201.25 1146.78 Q204.885 1146.78 206.69 1143.24 Q208.519 1139.67 208.519 1132.56 Q208.519 1125.43 206.69 1121.89 Q204.885 1118.33 201.25 1118.33 M201.25 1114.62 Q207.061 1114.62 210.116 1119.23 Q213.195 1123.81 213.195 1132.56 Q213.195 1141.29 210.116 1145.9 Q207.061 1150.48 201.25 1150.48 Q195.44 1150.48 192.362 1145.9 Q189.306 1141.29 189.306 1132.56 Q189.306 1123.81 192.362 1119.23 Q195.44 1114.62 201.25 1114.62 Z" fill="#000000" fill-rule="evenodd" fill-opacity="1" /><path clip-path="url(#clip790)" d="M120.88 960.584 L137.2 960.584 L137.2 964.52 L115.256 964.52 L115.256 960.584 Q117.918 957.83 122.501 953.2 Q127.107 948.547 128.288 947.205 Q130.533 944.682 131.413 942.946 Q132.316 941.186 132.316 939.497 Q132.316 936.742 130.371 935.006 Q128.45 933.27 125.348 933.27 Q123.149 933.27 120.695 934.034 Q118.265 934.798 115.487 936.348 L115.487 931.626 Q118.311 930.492 120.765 929.913 Q123.218 929.335 125.255 929.335 Q130.626 929.335 133.82 932.02 Q137.015 934.705 137.015 939.196 Q137.015 941.325 136.204 943.247 Q135.417 945.145 133.311 947.737 Q132.732 948.409 129.63 951.626 Q126.529 954.821 120.88 960.584 Z" fill="#000000" fill-rule="evenodd" fill-opacity="1" /><path clip-path="url(#clip790)" d="M147.015 958.64 L151.899 958.64 L151.899 964.52 L147.015 964.52 L147.015 958.64 Z" fill="#000000" fill-rule="evenodd" fill-opacity="1" /><path clip-path="url(#clip790)" d="M172.084 933.038 Q168.473 933.038 166.644 936.603 Q164.839 940.145 164.839 947.274 Q164.839 954.381 166.644 957.946 Q168.473 961.487 172.084 961.487 Q175.718 961.487 177.524 957.946 Q179.352 954.381 179.352 947.274 Q179.352 940.145 177.524 936.603 Q175.718 933.038 172.084 933.038 M172.084 929.335 Q177.894 929.335 180.95 933.941 Q184.028 938.524 184.028 947.274 Q184.028 956.001 180.95 960.608 Q177.894 965.191 172.084 965.191 Q166.274 965.191 163.195 960.608 Q160.14 956.001 160.14 947.274 Q160.14 938.524 163.195 933.941 Q166.274 929.335 172.084 929.335 Z" fill="#000000" fill-rule="evenodd" fill-opacity="1" /><path clip-path="url(#clip790)" d="M192.292 929.96 L210.649 929.96 L210.649 933.895 L196.575 933.895 L196.575 942.367 Q197.593 942.02 198.612 941.858 Q199.63 941.673 200.649 941.673 Q206.436 941.673 209.815 944.844 Q213.195 948.015 213.195 953.432 Q213.195 959.01 209.723 962.112 Q206.25 965.191 199.931 965.191 Q197.755 965.191 195.487 964.821 Q193.241 964.45 190.834 963.709 L190.834 959.01 Q192.917 960.145 195.139 960.7 Q197.362 961.256 199.838 961.256 Q203.843 961.256 206.181 959.149 Q208.519 957.043 208.519 953.432 Q208.519 949.821 206.181 947.714 Q203.843 945.608 199.838 945.608 Q197.963 945.608 196.088 946.024 Q194.237 946.441 192.292 947.321 L192.292 929.96 Z" fill="#000000" fill-rule="evenodd" fill-opacity="1" /><path clip-path="url(#clip790)" d="M119.885 775.295 L136.204 775.295 L136.204 779.23 L114.26 779.23 L114.26 775.295 Q116.922 772.54 121.505 767.91 Q126.112 763.258 127.292 761.915 Q129.538 759.392 130.417 757.656 Q131.32 755.897 131.32 754.207 Q131.32 751.452 129.376 749.716 Q127.455 747.98 124.353 747.98 Q122.154 747.98 119.7 748.744 Q117.269 749.508 114.492 751.059 L114.492 746.336 Q117.316 745.202 119.769 744.624 Q122.223 744.045 124.26 744.045 Q129.63 744.045 132.825 746.73 Q136.019 749.415 136.019 753.906 Q136.019 756.036 135.209 757.957 Q134.422 759.855 132.316 762.448 Q131.737 763.119 128.635 766.336 Q125.533 769.531 119.885 775.295 Z" fill="#000000" fill-rule="evenodd" fill-opacity="1" /><path clip-path="url(#clip790)" d="M146.019 773.35 L150.903 773.35 L150.903 779.23 L146.019 779.23 L146.019 773.35 Z" fill="#000000" fill-rule="evenodd" fill-opacity="1" /><path clip-path="url(#clip790)" d="M161.899 775.295 L169.538 775.295 L169.538 748.929 L161.227 750.596 L161.227 746.336 L169.491 744.67 L174.167 744.67 L174.167 775.295 L181.806 775.295 L181.806 779.23 L161.899 779.23 L161.899 775.295 Z" fill="#000000" fill-rule="evenodd" fill-opacity="1" /><path clip-path="url(#clip790)" d="M201.25 747.749 Q197.639 747.749 195.811 751.313 Q194.005 754.855 194.005 761.985 Q194.005 769.091 195.811 772.656 Q197.639 776.197 201.25 776.197 Q204.885 776.197 206.69 772.656 Q208.519 769.091 208.519 761.985 Q208.519 754.855 206.69 751.313 Q204.885 747.749 201.25 747.749 M201.25 744.045 Q207.061 744.045 210.116 748.651 Q213.195 753.235 213.195 761.985 Q213.195 770.711 210.116 775.318 Q207.061 779.901 201.25 779.901 Q195.44 779.901 192.362 775.318 Q189.306 770.711 189.306 761.985 Q189.306 753.235 192.362 748.651 Q195.44 744.045 201.25 744.045 Z" fill="#000000" fill-rule="evenodd" fill-opacity="1" /><path clip-path="url(#clip790)" d="M120.88 590.005 L137.2 590.005 L137.2 593.94 L115.256 593.94 L115.256 590.005 Q117.918 587.25 122.501 582.621 Q127.107 577.968 128.288 576.625 Q130.533 574.102 131.413 572.366 Q132.316 570.607 132.316 568.917 Q132.316 566.162 130.371 564.426 Q128.45 562.69 125.348 562.69 Q123.149 562.69 120.695 563.454 Q118.265 564.218 115.487 565.769 L115.487 561.047 Q118.311 559.912 120.765 559.334 Q123.218 558.755 125.255 558.755 Q130.626 558.755 133.82 561.44 Q137.015 564.125 137.015 568.616 Q137.015 570.746 136.204 572.667 Q135.417 574.565 133.311 577.158 Q132.732 577.829 129.63 581.047 Q126.529 584.241 120.88 590.005 Z" fill="#000000" fill-rule="evenodd" fill-opacity="1" /><path clip-path="url(#clip790)" d="M147.015 588.06 L151.899 588.06 L151.899 593.94 L147.015 593.94 L147.015 588.06 Z" fill="#000000" fill-rule="evenodd" fill-opacity="1" /><path clip-path="url(#clip790)" d="M162.894 590.005 L170.533 590.005 L170.533 563.639 L162.223 565.306 L162.223 561.047 L170.487 559.38 L175.163 559.38 L175.163 590.005 L182.801 590.005 L182.801 593.94 L162.894 593.94 L162.894 590.005 Z" fill="#000000" fill-rule="evenodd" fill-opacity="1" /><path clip-path="url(#clip790)" d="M192.292 559.38 L210.649 559.38 L210.649 563.315 L196.575 563.315 L196.575 571.787 Q197.593 571.44 198.612 571.278 Q199.63 571.093 200.649 571.093 Q206.436 571.093 209.815 574.264 Q213.195 577.435 213.195 582.852 Q213.195 588.431 209.723 591.533 Q206.25 594.611 199.931 594.611 Q197.755 594.611 195.487 594.241 Q193.241 593.871 190.834 593.13 L190.834 588.431 Q192.917 589.565 195.139 590.121 Q197.362 590.676 199.838 590.676 Q203.843 590.676 206.181 588.57 Q208.519 586.463 208.519 582.852 Q208.519 579.241 206.181 577.135 Q203.843 575.028 199.838 575.028 Q197.963 575.028 196.088 575.445 Q194.237 575.861 192.292 576.741 L192.292 559.38 Z" fill="#000000" fill-rule="evenodd" fill-opacity="1" /><path clip-path="url(#clip790)" d="M119.885 404.715 L136.204 404.715 L136.204 408.65 L114.26 408.65 L114.26 404.715 Q116.922 401.96 121.505 397.331 Q126.112 392.678 127.292 391.336 Q129.538 388.812 130.417 387.076 Q131.32 385.317 131.32 383.627 Q131.32 380.873 129.376 379.137 Q127.455 377.4 124.353 377.4 Q122.154 377.4 119.7 378.164 Q117.269 378.928 114.492 380.479 L114.492 375.757 Q117.316 374.623 119.769 374.044 Q122.223 373.465 124.26 373.465 Q129.63 373.465 132.825 376.15 Q136.019 378.836 136.019 383.326 Q136.019 385.456 135.209 387.377 Q134.422 389.275 132.316 391.868 Q131.737 392.539 128.635 395.757 Q125.533 398.951 119.885 404.715 Z" fill="#000000" fill-rule="evenodd" fill-opacity="1" /><path clip-path="url(#clip790)" d="M146.019 402.771 L150.903 402.771 L150.903 408.65 L146.019 408.65 L146.019 402.771 Z" fill="#000000" fill-rule="evenodd" fill-opacity="1" /><path clip-path="url(#clip790)" d="M165.116 404.715 L181.436 404.715 L181.436 408.65 L159.491 408.65 L159.491 404.715 Q162.153 401.96 166.737 397.331 Q171.343 392.678 172.524 391.336 Q174.769 388.812 175.649 387.076 Q176.551 385.317 176.551 383.627 Q176.551 380.873 174.607 379.137 Q172.686 377.4 169.584 377.4 Q167.385 377.4 164.931 378.164 Q162.501 378.928 159.723 380.479 L159.723 375.757 Q162.547 374.623 165.001 374.044 Q167.454 373.465 169.491 373.465 Q174.862 373.465 178.056 376.15 Q181.251 378.836 181.251 383.326 Q181.251 385.456 180.44 387.377 Q179.653 389.275 177.547 391.868 Q176.968 392.539 173.866 395.757 Q170.764 398.951 165.116 404.715 Z" fill="#000000" fill-rule="evenodd" fill-opacity="1" /><path clip-path="url(#clip790)" d="M201.25 377.169 Q197.639 377.169 195.811 380.734 Q194.005 384.275 194.005 391.405 Q194.005 398.511 195.811 402.076 Q197.639 405.618 201.25 405.618 Q204.885 405.618 206.69 402.076 Q208.519 398.511 208.519 391.405 Q208.519 384.275 206.69 380.734 Q204.885 377.169 201.25 377.169 M201.25 373.465 Q207.061 373.465 210.116 378.072 Q213.195 382.655 213.195 391.405 Q213.195 400.132 210.116 404.738 Q207.061 409.322 201.25 409.322 Q195.44 409.322 192.362 404.738 Q189.306 400.132 189.306 391.405 Q189.306 382.655 192.362 378.072 Q195.44 373.465 201.25 373.465 Z" fill="#000000" fill-rule="evenodd" fill-opacity="1" /><path clip-path="url(#clip790)" d="M120.88 219.425 L137.2 219.425 L137.2 223.36 L115.256 223.36 L115.256 219.425 Q117.918 216.671 122.501 212.041 Q127.107 207.388 128.288 206.046 Q130.533 203.523 131.413 201.786 Q132.316 200.027 132.316 198.337 Q132.316 195.583 130.371 193.847 Q128.45 192.111 125.348 192.111 Q123.149 192.111 120.695 192.875 Q118.265 193.638 115.487 195.189 L115.487 190.467 Q118.311 189.333 120.765 188.754 Q123.218 188.175 125.255 188.175 Q130.626 188.175 133.82 190.861 Q137.015 193.546 137.015 198.037 Q137.015 200.166 136.204 202.087 Q135.417 203.986 133.311 206.578 Q132.732 207.249 129.63 210.467 Q126.529 213.661 120.88 219.425 Z" fill="#000000" fill-rule="evenodd" fill-opacity="1" /><path clip-path="url(#clip790)" d="M147.015 217.481 L151.899 217.481 L151.899 223.36 L147.015 223.36 L147.015 217.481 Z" fill="#000000" fill-rule="evenodd" fill-opacity="1" /><path clip-path="url(#clip790)" d="M166.112 219.425 L182.431 219.425 L182.431 223.36 L160.487 223.36 L160.487 219.425 Q163.149 216.671 167.732 212.041 Q172.339 207.388 173.519 206.046 Q175.764 203.523 176.644 201.786 Q177.547 200.027 177.547 198.337 Q177.547 195.583 175.602 193.847 Q173.681 192.111 170.579 192.111 Q168.38 192.111 165.927 192.875 Q163.496 193.638 160.718 195.189 L160.718 190.467 Q163.542 189.333 165.996 188.754 Q168.45 188.175 170.487 188.175 Q175.857 188.175 179.051 190.861 Q182.246 193.546 182.246 198.037 Q182.246 200.166 181.436 202.087 Q180.649 203.986 178.542 206.578 Q177.964 207.249 174.862 210.467 Q171.76 213.661 166.112 219.425 Z" fill="#000000" fill-rule="evenodd" fill-opacity="1" /><path clip-path="url(#clip790)" d="M192.292 188.8 L210.649 188.8 L210.649 192.736 L196.575 192.736 L196.575 201.208 Q197.593 200.861 198.612 200.699 Q199.63 200.513 200.649 200.513 Q206.436 200.513 209.815 203.685 Q213.195 206.856 213.195 212.273 Q213.195 217.851 209.723 220.953 Q206.25 224.032 199.931 224.032 Q197.755 224.032 195.487 223.661 Q193.241 223.291 190.834 222.55 L190.834 217.851 Q192.917 218.985 195.139 219.541 Q197.362 220.097 199.838 220.097 Q203.843 220.097 206.181 217.99 Q208.519 215.884 208.519 212.273 Q208.519 208.661 206.181 206.555 Q203.843 204.449 199.838 204.449 Q197.963 204.449 196.088 204.865 Q194.237 205.282 192.292 206.161 L192.292 188.8 Z" fill="#000000" fill-rule="evenodd" fill-opacity="1" /><path clip-path="url(#clip790)" d="M22.818 978.129 L46.4666 986.85 L46.4666 969.376 L22.818 978.129 M16.4842 981.757 L16.4842 974.468 L64.0042 956.358 L64.0042 963.042 L51.8138 967.371 L51.8138 988.791 L64.0042 993.12 L64.0042 999.899 L16.4842 981.757 Z" fill="#000000" fill-rule="evenodd" fill-opacity="1" /><path clip-path="url(#clip790)" d="M28.3562 957.695 L28.3562 951.488 L58.275 940.348 L28.3562 929.208 L28.3562 923.002 L64.0042 936.37 L64.0042 944.327 L28.3562 957.695 Z" fill="#000000" fill-rule="evenodd" fill-opacity="1" /><path clip-path="url(#clip790)" d="M44.7161 884.425 L47.5806 884.425 L47.5806 911.352 Q53.6281 910.97 56.8109 907.724 Q59.9619 904.446 59.9619 898.621 Q59.9619 895.247 59.1344 892.096 Q58.3069 888.913 56.6518 885.794 L62.1899 885.794 Q63.5267 888.945 64.227 892.255 Q64.9272 895.565 64.9272 898.971 Q64.9272 907.501 59.9619 912.498 Q54.9967 917.463 46.5303 917.463 Q37.7774 917.463 32.6531 912.753 Q27.4968 908.01 27.4968 899.99 Q27.4968 892.796 32.1438 888.627 Q36.7589 884.425 44.7161 884.425 M42.9973 890.282 Q38.1912 890.346 35.3266 892.987 Q32.4621 895.597 32.4621 899.926 Q32.4621 904.828 35.2312 907.788 Q38.0002 910.716 43.0292 911.161 L42.9973 890.282 Z" fill="#000000" fill-rule="evenodd" fill-opacity="1" /><path clip-path="url(#clip790)" d="M33.8307 854.157 Q33.2578 855.143 33.0032 856.321 Q32.7167 857.467 32.7167 858.867 Q32.7167 863.832 35.9632 866.506 Q39.1779 869.148 45.2253 869.148 L64.0042 869.148 L64.0042 875.036 L28.3562 875.036 L28.3562 869.148 L33.8944 869.148 Q30.6479 867.302 29.0883 864.342 Q27.4968 861.382 27.4968 857.148 Q27.4968 856.544 27.5923 855.812 Q27.656 855.08 27.8151 854.188 L33.8307 854.157 Z" fill="#000000" fill-rule="evenodd" fill-opacity="1" /><path clip-path="url(#clip790)" d="M46.0847 831.813 Q46.0847 838.911 47.7079 841.648 Q49.3312 844.385 53.2461 844.385 Q56.3653 844.385 58.2114 842.348 Q60.0256 840.279 60.0256 836.746 Q60.0256 831.877 56.5881 828.948 Q53.1188 825.988 47.3897 825.988 L46.0847 825.988 L46.0847 831.813 M43.6657 820.132 L64.0042 820.132 L64.0042 825.988 L58.5933 825.988 Q61.8398 827.993 63.3994 830.985 Q64.9272 833.977 64.9272 838.306 Q64.9272 843.78 61.8716 847.027 Q58.7843 850.242 53.6281 850.242 Q47.6125 850.242 44.5569 846.231 Q41.5014 842.189 41.5014 834.2 L41.5014 825.988 L40.9285 825.988 Q36.8862 825.988 34.6901 828.662 Q32.4621 831.304 32.4621 836.11 Q32.4621 839.165 33.1941 842.062 Q33.9262 844.958 35.3903 847.632 L29.9795 847.632 Q28.7381 844.417 28.1334 841.393 Q27.4968 838.37 27.4968 835.505 Q27.4968 827.771 31.5072 823.951 Q35.5176 820.132 43.6657 820.132 Z" fill="#000000" fill-rule="evenodd" fill-opacity="1" /><path clip-path="url(#clip790)" d="M45.7664 784.611 Q39.4007 784.611 35.8996 787.253 Q32.3984 789.863 32.3984 794.605 Q32.3984 799.316 35.8996 801.958 Q39.4007 804.568 45.7664 804.568 Q52.1003 804.568 55.6014 801.958 Q59.1026 799.316 59.1026 794.605 Q59.1026 789.863 55.6014 787.253 Q52.1003 784.611 45.7664 784.611 M59.58 778.755 Q68.683 778.755 73.1071 782.797 Q77.5631 786.839 77.5631 795.178 Q77.5631 798.266 77.0857 801.003 Q76.6401 803.74 75.6852 806.318 L69.9879 806.318 Q71.3884 803.74 72.0568 801.226 Q72.7252 798.711 72.7252 796.101 Q72.7252 790.34 69.7015 787.476 Q66.7096 784.611 60.6303 784.611 L57.7339 784.611 Q60.885 786.425 62.4446 789.258 Q64.0042 792.091 64.0042 796.038 Q64.0042 802.594 59.0071 806.605 Q54.01 810.615 45.7664 810.615 Q37.491 810.615 32.4939 806.605 Q27.4968 802.594 27.4968 796.038 Q27.4968 792.091 29.0564 789.258 Q30.616 786.425 33.7671 784.611 L28.3562 784.611 L28.3562 778.755 L59.58 778.755 Z" fill="#000000" fill-rule="evenodd" fill-opacity="1" /><path clip-path="url(#clip790)" d="M44.7161 736.2 L47.5806 736.2 L47.5806 763.127 Q53.6281 762.745 56.8109 759.498 Q59.9619 756.22 59.9619 750.395 Q59.9619 747.022 59.1344 743.871 Q58.3069 740.688 56.6518 737.569 L62.1899 737.569 Q63.5267 740.72 64.227 744.03 Q64.9272 747.34 64.9272 750.746 Q64.9272 759.276 59.9619 764.273 Q54.9967 769.238 46.5303 769.238 Q37.7774 769.238 32.6531 764.527 Q27.4968 759.785 27.4968 751.764 Q27.4968 744.571 32.1438 740.401 Q36.7589 736.2 44.7161 736.2 M42.9973 742.056 Q38.1912 742.12 35.3266 744.762 Q32.4621 747.372 32.4621 751.7 Q32.4621 756.602 35.2312 759.562 Q38.0002 762.49 43.0292 762.936 L42.9973 742.056 Z" fill="#000000" fill-rule="evenodd" fill-opacity="1" /><path clip-path="url(#clip790)" d="M64.0042 693.359 L16.4842 711.501 L16.4842 704.785 L56.4926 689.73 L16.4842 674.644 L16.4842 667.96 L64.0042 686.07 L64.0042 693.359 Z" fill="#000000" fill-rule="evenodd" fill-opacity="1" /><path clip-path="url(#clip790)" d="M44.7161 635.845 L47.5806 635.845 L47.5806 662.772 Q53.6281 662.39 56.8109 659.143 Q59.9619 655.865 59.9619 650.04 Q59.9619 646.666 59.1344 643.515 Q58.3069 640.332 56.6518 637.213 L62.1899 637.213 Q63.5267 640.364 64.227 643.674 Q64.9272 646.985 64.9272 650.39 Q64.9272 658.92 59.9619 663.917 Q54.9967 668.883 46.5303 668.883 Q37.7774 668.883 32.6531 664.172 Q27.4968 659.43 27.4968 651.409 Q27.4968 644.215 32.1438 640.046 Q36.7589 635.845 44.7161 635.845 M42.9973 641.701 Q38.1912 641.765 35.3266 644.406 Q32.4621 647.016 32.4621 651.345 Q32.4621 656.247 35.2312 659.207 Q38.0002 662.135 43.0292 662.581 L42.9973 641.701 Z" fill="#000000" fill-rule="evenodd" fill-opacity="1" /><path clip-path="url(#clip790)" d="M14.479 626.232 L14.479 620.376 L64.0042 620.376 L64.0042 626.232 L14.479 626.232 Z" fill="#000000" fill-rule="evenodd" fill-opacity="1" /><path clip-path="url(#clip790)" d="M32.4621 594.308 Q32.4621 599.019 36.1542 601.756 Q39.8145 604.493 46.212 604.493 Q52.6095 604.493 56.3017 601.788 Q59.9619 599.051 59.9619 594.308 Q59.9619 589.63 56.2698 586.892 Q52.5777 584.155 46.212 584.155 Q39.8781 584.155 36.186 586.892 Q32.4621 589.63 32.4621 594.308 M27.4968 594.308 Q27.4968 586.67 32.4621 582.309 Q37.4273 577.948 46.212 577.948 Q54.9649 577.948 59.9619 582.309 Q64.9272 586.67 64.9272 594.308 Q64.9272 601.979 59.9619 606.34 Q54.9649 610.668 46.212 610.668 Q37.4273 610.668 32.4621 606.34 Q27.4968 601.979 27.4968 594.308 Z" fill="#000000" fill-rule="evenodd" fill-opacity="1" /><path clip-path="url(#clip790)" d="M29.7248 542.587 L35.1993 542.587 Q33.8307 545.07 33.1623 547.584 Q32.4621 550.067 32.4621 552.613 Q32.4621 558.31 36.0905 561.461 Q39.6872 564.612 46.212 564.612 Q52.7369 564.612 56.3653 561.461 Q59.9619 558.31 59.9619 552.613 Q59.9619 550.067 59.2935 547.584 Q58.5933 545.07 57.2247 542.587 L62.6355 542.587 Q63.7814 545.038 64.3543 547.68 Q64.9272 550.289 64.9272 553.25 Q64.9272 561.302 59.8664 566.045 Q54.8057 570.787 46.212 570.787 Q37.491 570.787 32.4939 566.013 Q27.4968 561.207 27.4968 552.868 Q27.4968 550.162 28.0697 547.584 Q28.6108 545.006 29.7248 542.587 Z" fill="#000000" fill-rule="evenodd" fill-opacity="1" /><path clip-path="url(#clip790)" d="M28.3562 532.402 L28.3562 526.545 L64.0042 526.545 L64.0042 532.402 L28.3562 532.402 M14.479 532.402 L14.479 526.545 L21.895 526.545 L21.895 532.402 L14.479 532.402 Z" fill="#000000" fill-rule="evenodd" fill-opacity="1" /><path clip-path="url(#clip790)" d="M18.2347 508.499 L28.3562 508.499 L28.3562 496.436 L32.9077 496.436 L32.9077 508.499 L52.2594 508.499 Q56.6199 508.499 57.8613 507.321 Q59.1026 506.111 59.1026 502.451 L59.1026 496.436 L64.0042 496.436 L64.0042 502.451 Q64.0042 509.231 61.4897 511.809 Q58.9434 514.387 52.2594 514.387 L32.9077 514.387 L32.9077 518.684 L28.3562 518.684 L28.3562 514.387 L18.2347 514.387 L18.2347 508.499 Z" fill="#000000" fill-rule="evenodd" fill-opacity="1" /><path clip-path="url(#clip790)" d="M67.3143 473.901 Q73.68 476.384 75.6216 478.739 Q77.5631 481.094 77.5631 485.041 L77.5631 489.72 L72.6615 489.72 L72.6615 486.282 Q72.6615 483.863 71.5157 482.527 Q70.3699 481.19 66.1048 479.566 L63.4312 478.516 L28.3562 492.934 L28.3562 486.728 L56.238 475.588 L28.3562 464.448 L28.3562 458.241 L67.3143 473.901 Z" fill="#000000" fill-rule="evenodd" fill-opacity="1" /><polyline clip-path="url(#clip792)" style="stroke:#009af9; stroke-linecap:round; stroke-linejoin:round; stroke-width:4; stroke-opacity:1; fill:none" points="
  935.411,910.43 1039.86,1372.3 1144.3,1071.48 1248.75,807.32 1353.2,552.467 1457.65,578.613 1562.09,416.087 1666.54,306.018 1770.99,624.967 1875.43,282.419 
  1979.88,85.838 2084.33,260.993 2188.77,315.96 2293.22,157.156 
  "/>
</svg>
