<?xml version="1.0" encoding="utf-8"?>
<svg xmlns="http://www.w3.org/2000/svg" xmlns:xlink="http://www.w3.org/1999/xlink" width="600" height="400" viewBox="0 0 2400 1600">
<defs>
  <clipPath id="clip630">
    <rect x="0" y="0" width="2400" height="1600"/>
  </clipPath>
</defs>
<path clip-path="url(#clip630)" d="
M0 1600 L2400 1600 L2400 0 L0 0  Z
  " fill="#ffffff" fill-rule="evenodd" fill-opacity="1"/>
<defs>
  <clipPath id="clip631">
    <rect x="480" y="0" width="1681" height="1600"/>
  </clipPath>
</defs>
<path clip-path="url(#clip630)" d="
M234.125 1410.9 L2352.76 1410.9 L2352.76 47.2441 L234.125 47.2441  Z
  " fill="#ffffff" fill-rule="evenodd" fill-opacity="1"/>
<defs>
  <clipPath id="clip632">
    <rect x="234" y="47" width="2120" height="1365"/>
  </clipPath>
</defs>
<polyline clip-path="url(#clip632)" style="stroke:#000000; stroke-linecap:round; stroke-linejoin:round; stroke-width:2; stroke-opacity:0.1; fill:none" points="
  714.867,1410.9 714.867,47.2441 
  "/>
<polyline clip-path="url(#clip632)" style="stroke:#000000; stroke-linecap:round; stroke-linejoin:round; stroke-width:2; stroke-opacity:0.1; fill:none" points="
  1240.84,1410.9 1240.84,47.2441 
  "/>
<polyline clip-path="url(#clip632)" style="stroke:#000000; stroke-linecap:round; stroke-linejoin:round; stroke-width:2; stroke-opacity:0.1; fill:none" points="
  1766.82,1410.9 1766.82,47.2441 
  "/>
<polyline clip-path="url(#clip632)" style="stroke:#000000; stroke-linecap:round; stroke-linejoin:round; stroke-width:2; stroke-opacity:0.1; fill:none" points="
  2292.79,1410.9 2292.79,47.2441 
  "/>
<polyline clip-path="url(#clip630)" style="stroke:#000000; stroke-linecap:round; stroke-linejoin:round; stroke-width:4; stroke-opacity:1; fill:none" points="
  234.125,1410.9 2352.76,1410.9 
  "/>
<polyline clip-path="url(#clip630)" style="stroke:#000000; stroke-linecap:round; stroke-linejoin:round; stroke-width:4; stroke-opacity:1; fill:none" points="
  714.867,1410.9 714.867,1392 
  "/>
<polyline clip-path="url(#clip630)" style="stroke:#000000; stroke-linecap:round; stroke-linejoin:round; stroke-width:4; stroke-opacity:1; fill:none" points="
  1240.84,1410.9 1240.84,1392 
  "/>
<polyline clip-path="url(#clip630)" style="stroke:#000000; stroke-linecap:round; stroke-linejoin:round; stroke-width:4; stroke-opacity:1; fill:none" points="
  1766.82,1410.9 1766.82,1392 
  "/>
<polyline clip-path="url(#clip630)" style="stroke:#000000; stroke-linecap:round; stroke-linejoin:round; stroke-width:4; stroke-opacity:1; fill:none" points="
  2292.79,1410.9 2292.79,1392 
  "/>
<path clip-path="url(#clip630)" d="M607.844 1454.4 L626.2 1454.4 L626.2 1458.33 L612.126 1458.33 L612.126 1466.8 Q613.145 1466.46 614.163 1466.29 Q615.182 1466.11 616.2 1466.11 Q621.987 1466.11 625.367 1469.28 Q628.747 1472.45 628.747 1477.87 Q628.747 1483.45 625.274 1486.55 Q621.802 1489.63 615.483 1489.63 Q613.307 1489.63 611.038 1489.26 Q608.793 1488.89 606.386 1488.15 L606.386 1483.45 Q608.469 1484.58 610.691 1485.14 Q612.913 1485.69 615.39 1485.69 Q619.395 1485.69 621.733 1483.59 Q624.071 1481.48 624.071 1477.87 Q624.071 1474.26 621.733 1472.15 Q619.395 1470.04 615.39 1470.04 Q613.515 1470.04 611.64 1470.46 Q609.788 1470.88 607.844 1471.76 L607.844 1454.4 Z" fill="#000000" fill-rule="evenodd" fill-opacity="1" /><path clip-path="url(#clip630)" d="M637.959 1483.08 L642.844 1483.08 L642.844 1488.96 L637.959 1488.96 L637.959 1483.08 Z" fill="#000000" fill-rule="evenodd" fill-opacity="1" /><path clip-path="url(#clip630)" d="M663.029 1457.48 Q659.418 1457.48 657.589 1461.04 Q655.783 1464.58 655.783 1471.71 Q655.783 1478.82 657.589 1482.38 Q659.418 1485.92 663.029 1485.92 Q666.663 1485.92 668.469 1482.38 Q670.297 1478.82 670.297 1471.71 Q670.297 1464.58 668.469 1461.04 Q666.663 1457.48 663.029 1457.48 M663.029 1453.77 Q668.839 1453.77 671.894 1458.38 Q674.973 1462.96 674.973 1471.71 Q674.973 1480.44 671.894 1485.04 Q668.839 1489.63 663.029 1489.63 Q657.219 1489.63 654.14 1485.04 Q651.084 1480.44 651.084 1471.71 Q651.084 1462.96 654.14 1458.38 Q657.219 1453.77 663.029 1453.77 Z" fill="#000000" fill-rule="evenodd" fill-opacity="1" /><path clip-path="url(#clip630)" d="M693.191 1457.48 Q689.58 1457.48 687.751 1461.04 Q685.945 1464.58 685.945 1471.71 Q685.945 1478.82 687.751 1482.38 Q689.58 1485.92 693.191 1485.92 Q696.825 1485.92 698.63 1482.38 Q700.459 1478.82 700.459 1471.71 Q700.459 1464.58 698.63 1461.04 Q696.825 1457.48 693.191 1457.48 M693.191 1453.77 Q699.001 1453.77 702.056 1458.38 Q705.135 1462.96 705.135 1471.71 Q705.135 1480.44 702.056 1485.04 Q699.001 1489.63 693.191 1489.63 Q687.38 1489.63 684.302 1485.04 Q681.246 1480.44 681.246 1471.71 Q681.246 1462.96 684.302 1458.38 Q687.38 1453.77 693.191 1453.77 Z" fill="#000000" fill-rule="evenodd" fill-opacity="1" /><path clip-path="url(#clip630)" d="M741.524 1463.49 L730.945 1474.12 L741.524 1484.7 L738.769 1487.5 L728.144 1476.87 L717.519 1487.5 L714.788 1484.7 L725.343 1474.12 L714.788 1463.49 L717.519 1460.69 L728.144 1471.32 L738.769 1460.69 L741.524 1463.49 Z" fill="#000000" fill-rule="evenodd" fill-opacity="1" /><path clip-path="url(#clip630)" d="M753.885 1485.02 L761.524 1485.02 L761.524 1458.66 L753.213 1460.32 L753.213 1456.06 L761.477 1454.4 L766.153 1454.4 L766.153 1485.02 L773.792 1485.02 L773.792 1488.96 L753.885 1488.96 L753.885 1485.02 Z" fill="#000000" fill-rule="evenodd" fill-opacity="1" /><path clip-path="url(#clip630)" d="M793.236 1457.48 Q789.625 1457.48 787.797 1461.04 Q785.991 1464.58 785.991 1471.71 Q785.991 1478.82 787.797 1482.38 Q789.625 1485.92 793.236 1485.92 Q796.871 1485.92 798.676 1482.38 Q800.505 1478.82 800.505 1471.71 Q800.505 1464.58 798.676 1461.04 Q796.871 1457.48 793.236 1457.48 M793.236 1453.77 Q799.047 1453.77 802.102 1458.38 Q805.181 1462.96 805.181 1471.71 Q805.181 1480.44 802.102 1485.04 Q799.047 1489.63 793.236 1489.63 Q787.426 1489.63 784.348 1485.04 Q781.292 1480.44 781.292 1471.71 Q781.292 1462.96 784.348 1458.38 Q787.426 1453.77 793.236 1453.77 Z" fill="#000000" fill-rule="evenodd" fill-opacity="1" /><path clip-path="url(#clip630)" d="M806.366 1433.47 L821.28 1433.47 L821.28 1436.66 L809.845 1436.66 L809.845 1443.55 Q810.673 1443.27 811.5 1443.13 Q812.328 1442.98 813.155 1442.98 Q817.857 1442.98 820.603 1445.56 Q823.349 1448.14 823.349 1452.54 Q823.349 1457.07 820.528 1459.59 Q817.707 1462.09 812.572 1462.09 Q810.804 1462.09 808.961 1461.79 Q807.137 1461.49 805.181 1460.89 L805.181 1457.07 Q806.873 1457.99 808.679 1458.44 Q810.485 1458.89 812.497 1458.89 Q815.751 1458.89 817.65 1457.18 Q819.55 1455.47 819.55 1452.54 Q819.55 1449.6 817.65 1447.89 Q815.751 1446.18 812.497 1446.18 Q810.974 1446.18 809.45 1446.52 Q807.946 1446.86 806.366 1447.57 L806.366 1433.47 Z" fill="#000000" fill-rule="evenodd" fill-opacity="1" /><path clip-path="url(#clip630)" d="M1133.2 1485.02 L1140.84 1485.02 L1140.84 1458.66 L1132.53 1460.32 L1132.53 1456.06 L1140.79 1454.4 L1145.47 1454.4 L1145.47 1485.02 L1153.1 1485.02 L1153.1 1488.96 L1133.2 1488.96 L1133.2 1485.02 Z" fill="#000000" fill-rule="evenodd" fill-opacity="1" /><path clip-path="url(#clip630)" d="M1162.55 1483.08 L1167.43 1483.08 L1167.43 1488.96 L1162.55 1488.96 L1162.55 1483.08 Z" fill="#000000" fill-rule="evenodd" fill-opacity="1" /><path clip-path="url(#clip630)" d="M1187.62 1457.48 Q1184.01 1457.48 1182.18 1461.04 Q1180.37 1464.58 1180.37 1471.71 Q1180.37 1478.82 1182.18 1482.38 Q1184.01 1485.92 1187.62 1485.92 Q1191.25 1485.92 1193.06 1482.38 Q1194.89 1478.82 1194.89 1471.71 Q1194.89 1464.58 1193.06 1461.04 Q1191.25 1457.48 1187.62 1457.48 M1187.62 1453.77 Q1193.43 1453.77 1196.48 1458.38 Q1199.56 1462.96 1199.56 1471.71 Q1199.56 1480.44 1196.48 1485.04 Q1193.43 1489.63 1187.62 1489.63 Q1181.81 1489.63 1178.73 1485.04 Q1175.67 1480.44 1175.67 1471.71 Q1175.67 1462.96 1178.73 1458.38 Q1181.81 1453.77 1187.62 1453.77 Z" fill="#000000" fill-rule="evenodd" fill-opacity="1" /><path clip-path="url(#clip630)" d="M1217.78 1457.48 Q1214.17 1457.48 1212.34 1461.04 Q1210.53 1464.58 1210.53 1471.71 Q1210.53 1478.82 1212.34 1482.38 Q1214.17 1485.92 1217.78 1485.92 Q1221.41 1485.92 1223.22 1482.38 Q1225.05 1478.82 1225.05 1471.71 Q1225.05 1464.58 1223.22 1461.04 Q1221.41 1457.48 1217.78 1457.48 M1217.78 1453.77 Q1223.59 1453.77 1226.65 1458.38 Q1229.72 1462.96 1229.72 1471.71 Q1229.72 1480.44 1226.65 1485.04 Q1223.59 1489.63 1217.78 1489.63 Q1211.97 1489.63 1208.89 1485.04 Q1205.84 1480.44 1205.84 1471.71 Q1205.84 1462.96 1208.89 1458.38 Q1211.97 1453.77 1217.78 1453.77 Z" fill="#000000" fill-rule="evenodd" fill-opacity="1" /><path clip-path="url(#clip630)" d="M1266.11 1463.49 L1255.53 1474.12 L1266.11 1484.7 L1263.36 1487.5 L1252.73 1476.87 L1242.11 1487.5 L1239.38 1484.7 L1249.93 1474.12 L1239.38 1463.49 L1242.11 1460.69 L1252.73 1471.32 L1263.36 1460.69 L1266.11 1463.49 Z" fill="#000000" fill-rule="evenodd" fill-opacity="1" /><path clip-path="url(#clip630)" d="M1278.47 1485.02 L1286.11 1485.02 L1286.11 1458.66 L1277.8 1460.32 L1277.8 1456.06 L1286.07 1454.4 L1290.74 1454.4 L1290.74 1485.02 L1298.38 1485.02 L1298.38 1488.96 L1278.47 1488.96 L1278.47 1485.02 Z" fill="#000000" fill-rule="evenodd" fill-opacity="1" /><path clip-path="url(#clip630)" d="M1317.83 1457.48 Q1314.21 1457.48 1312.39 1461.04 Q1310.58 1464.58 1310.58 1471.71 Q1310.58 1478.82 1312.39 1482.38 Q1314.21 1485.92 1317.83 1485.92 Q1321.46 1485.92 1323.27 1482.38 Q1325.09 1478.82 1325.09 1471.71 Q1325.09 1464.58 1323.27 1461.04 Q1321.46 1457.48 1317.83 1457.48 M1317.83 1453.77 Q1323.64 1453.77 1326.69 1458.38 Q1329.77 1462.96 1329.77 1471.71 Q1329.77 1480.44 1326.69 1485.04 Q1323.64 1489.63 1317.83 1489.63 Q1312.02 1489.63 1308.94 1485.04 Q1305.88 1480.44 1305.88 1471.71 Q1305.88 1462.96 1308.94 1458.38 Q1312.02 1453.77 1317.83 1453.77 Z" fill="#000000" fill-rule="evenodd" fill-opacity="1" /><path clip-path="url(#clip630)" d="M1339.79 1445.99 Q1337.24 1445.99 1335.73 1447.74 Q1334.25 1449.49 1334.25 1452.54 Q1334.25 1455.57 1335.73 1457.33 Q1337.24 1459.08 1339.79 1459.08 Q1342.35 1459.08 1343.84 1457.33 Q1345.34 1455.57 1345.34 1452.54 Q1345.34 1449.49 1343.84 1447.74 Q1342.35 1445.99 1339.79 1445.99 M1347.34 1434.09 L1347.34 1437.55 Q1345.91 1436.87 1344.44 1436.51 Q1342.99 1436.16 1341.56 1436.16 Q1337.8 1436.16 1335.81 1438.69 Q1333.83 1441.23 1333.55 1446.37 Q1334.66 1444.73 1336.33 1443.87 Q1338.01 1442.98 1340.02 1442.98 Q1344.25 1442.98 1346.7 1445.56 Q1349.16 1448.12 1349.16 1452.54 Q1349.16 1456.86 1346.6 1459.48 Q1344.04 1462.09 1339.79 1462.09 Q1334.92 1462.09 1332.35 1458.37 Q1329.77 1454.62 1329.77 1447.53 Q1329.77 1440.88 1332.93 1436.93 Q1336.09 1432.96 1341.41 1432.96 Q1342.84 1432.96 1344.29 1433.24 Q1345.76 1433.52 1347.34 1434.09 Z" fill="#000000" fill-rule="evenodd" fill-opacity="1" /><path clip-path="url(#clip630)" d="M1659.17 1485.02 L1666.81 1485.02 L1666.81 1458.66 L1658.5 1460.32 L1658.5 1456.06 L1666.77 1454.4 L1671.44 1454.4 L1671.44 1485.02 L1679.08 1485.02 L1679.08 1488.96 L1659.17 1488.96 L1659.17 1485.02 Z" fill="#000000" fill-rule="evenodd" fill-opacity="1" /><path clip-path="url(#clip630)" d="M1688.52 1483.08 L1693.41 1483.08 L1693.41 1488.96 L1688.52 1488.96 L1688.52 1483.08 Z" fill="#000000" fill-rule="evenodd" fill-opacity="1" /><path clip-path="url(#clip630)" d="M1703.64 1454.4 L1722 1454.4 L1722 1458.33 L1707.92 1458.33 L1707.92 1466.8 Q1708.94 1466.46 1709.96 1466.29 Q1710.98 1466.11 1712 1466.11 Q1717.78 1466.11 1721.16 1469.28 Q1724.54 1472.45 1724.54 1477.87 Q1724.54 1483.45 1721.07 1486.55 Q1717.6 1489.63 1711.28 1489.63 Q1709.1 1489.63 1706.83 1489.26 Q1704.59 1488.89 1702.18 1488.15 L1702.18 1483.45 Q1704.26 1484.58 1706.49 1485.14 Q1708.71 1485.69 1711.19 1485.69 Q1715.19 1485.69 1717.53 1483.59 Q1719.87 1481.48 1719.87 1477.87 Q1719.87 1474.26 1717.53 1472.15 Q1715.19 1470.04 1711.19 1470.04 Q1709.31 1470.04 1707.44 1470.46 Q1705.58 1470.88 1703.64 1471.76 L1703.64 1454.4 Z" fill="#000000" fill-rule="evenodd" fill-opacity="1" /><path clip-path="url(#clip630)" d="M1743.76 1457.48 Q1740.14 1457.48 1738.32 1461.04 Q1736.51 1464.58 1736.51 1471.71 Q1736.51 1478.82 1738.32 1482.38 Q1740.14 1485.92 1743.76 1485.92 Q1747.39 1485.92 1749.2 1482.38 Q1751.02 1478.82 1751.02 1471.71 Q1751.02 1464.58 1749.2 1461.04 Q1747.39 1457.48 1743.76 1457.48 M1743.76 1453.77 Q1749.57 1453.77 1752.62 1458.38 Q1755.7 1462.96 1755.7 1471.71 Q1755.7 1480.44 1752.62 1485.04 Q1749.57 1489.63 1743.76 1489.63 Q1737.95 1489.63 1734.87 1485.04 Q1731.81 1480.44 1731.81 1471.71 Q1731.81 1462.96 1734.87 1458.38 Q1737.95 1453.77 1743.76 1453.77 Z" fill="#000000" fill-rule="evenodd" fill-opacity="1" /><path clip-path="url(#clip630)" d="M1792.09 1463.49 L1781.51 1474.12 L1792.09 1484.7 L1789.33 1487.5 L1778.71 1476.87 L1768.08 1487.5 L1765.35 1484.7 L1775.91 1474.12 L1765.35 1463.49 L1768.08 1460.69 L1778.71 1471.32 L1789.33 1460.69 L1792.09 1463.49 Z" fill="#000000" fill-rule="evenodd" fill-opacity="1" /><path clip-path="url(#clip630)" d="M1804.45 1485.02 L1812.09 1485.02 L1812.09 1458.66 L1803.78 1460.32 L1803.78 1456.06 L1812.04 1454.4 L1816.72 1454.4 L1816.72 1485.02 L1824.36 1485.02 L1824.36 1488.96 L1804.45 1488.96 L1804.45 1485.02 Z" fill="#000000" fill-rule="evenodd" fill-opacity="1" /><path clip-path="url(#clip630)" d="M1843.8 1457.48 Q1840.19 1457.48 1838.36 1461.04 Q1836.56 1464.58 1836.56 1471.71 Q1836.56 1478.82 1838.36 1482.38 Q1840.19 1485.92 1843.8 1485.92 Q1847.44 1485.92 1849.24 1482.38 Q1851.07 1478.82 1851.07 1471.71 Q1851.07 1464.58 1849.24 1461.04 Q1847.44 1457.48 1843.8 1457.48 M1843.8 1453.77 Q1849.61 1453.77 1852.67 1458.38 Q1855.75 1462.96 1855.75 1471.71 Q1855.75 1480.44 1852.67 1485.04 Q1849.61 1489.63 1843.8 1489.63 Q1837.99 1489.63 1834.91 1485.04 Q1831.86 1480.44 1831.86 1471.71 Q1831.86 1462.96 1834.91 1458.38 Q1837.99 1453.77 1843.8 1453.77 Z" fill="#000000" fill-rule="evenodd" fill-opacity="1" /><path clip-path="url(#clip630)" d="M1865.77 1445.99 Q1863.21 1445.99 1861.71 1447.74 Q1860.22 1449.49 1860.22 1452.54 Q1860.22 1455.57 1861.71 1457.33 Q1863.21 1459.08 1865.77 1459.08 Q1868.33 1459.08 1869.81 1457.33 Q1871.32 1455.57 1871.32 1452.54 Q1871.32 1449.49 1869.81 1447.74 Q1868.33 1445.99 1865.77 1445.99 M1873.31 1434.09 L1873.31 1437.55 Q1871.88 1436.87 1870.42 1436.51 Q1868.97 1436.16 1867.54 1436.16 Q1863.78 1436.16 1861.78 1438.69 Q1859.81 1441.23 1859.53 1446.37 Q1860.64 1444.73 1862.31 1443.87 Q1863.98 1442.98 1866 1442.98 Q1870.23 1442.98 1872.67 1445.56 Q1875.14 1448.12 1875.14 1452.54 Q1875.14 1456.86 1872.58 1459.48 Q1870.02 1462.09 1865.77 1462.09 Q1860.9 1462.09 1858.32 1458.37 Q1855.75 1454.62 1855.75 1447.53 Q1855.75 1440.88 1858.91 1436.93 Q1862.07 1432.96 1867.39 1432.96 Q1868.82 1432.96 1870.27 1433.24 Q1871.73 1433.52 1873.31 1434.09 Z" fill="#000000" fill-rule="evenodd" fill-opacity="1" /><path clip-path="url(#clip630)" d="M2189.23 1485.02 L2205.55 1485.02 L2205.55 1488.96 L2183.61 1488.96 L2183.61 1485.02 Q2186.27 1482.27 2190.85 1477.64 Q2195.46 1472.98 2196.64 1471.64 Q2198.89 1469.12 2199.77 1467.38 Q2200.67 1465.62 2200.67 1463.93 Q2200.67 1461.18 2198.72 1459.44 Q2196.8 1457.71 2193.7 1457.71 Q2191.5 1457.71 2189.05 1458.47 Q2186.62 1459.23 2183.84 1460.79 L2183.84 1456.06 Q2186.66 1454.93 2189.12 1454.35 Q2191.57 1453.77 2193.61 1453.77 Q2198.98 1453.77 2202.17 1456.46 Q2205.37 1459.14 2205.37 1463.63 Q2205.37 1465.76 2204.56 1467.68 Q2203.77 1469.58 2201.66 1472.17 Q2201.09 1472.85 2197.98 1476.06 Q2194.88 1479.26 2189.23 1485.02 Z" fill="#000000" fill-rule="evenodd" fill-opacity="1" /><path clip-path="url(#clip630)" d="M2215.37 1483.08 L2220.25 1483.08 L2220.25 1488.96 L2215.37 1488.96 L2215.37 1483.08 Z" fill="#000000" fill-rule="evenodd" fill-opacity="1" /><path clip-path="url(#clip630)" d="M2240.44 1457.48 Q2236.83 1457.48 2235 1461.04 Q2233.19 1464.58 2233.19 1471.71 Q2233.19 1478.82 2235 1482.38 Q2236.83 1485.92 2240.44 1485.92 Q2244.07 1485.92 2245.88 1482.38 Q2247.71 1478.82 2247.71 1471.71 Q2247.71 1464.58 2245.88 1461.04 Q2244.07 1457.48 2240.44 1457.48 M2240.44 1453.77 Q2246.25 1453.77 2249.3 1458.38 Q2252.38 1462.96 2252.38 1471.71 Q2252.38 1480.44 2249.3 1485.04 Q2246.25 1489.63 2240.44 1489.63 Q2234.63 1489.63 2231.55 1485.04 Q2228.49 1480.44 2228.49 1471.71 Q2228.49 1462.96 2231.55 1458.38 Q2234.63 1453.77 2240.44 1453.77 Z" fill="#000000" fill-rule="evenodd" fill-opacity="1" /><path clip-path="url(#clip630)" d="M2270.6 1457.48 Q2266.99 1457.48 2265.16 1461.04 Q2263.35 1464.58 2263.35 1471.71 Q2263.35 1478.82 2265.16 1482.38 Q2266.99 1485.92 2270.6 1485.92 Q2274.23 1485.92 2276.04 1482.38 Q2277.87 1478.82 2277.87 1471.71 Q2277.87 1464.58 2276.04 1461.04 Q2274.23 1457.48 2270.6 1457.48 M2270.6 1453.77 Q2276.41 1453.77 2279.47 1458.38 Q2282.54 1462.96 2282.54 1471.71 Q2282.54 1480.44 2279.47 1485.04 Q2276.41 1489.63 2270.6 1489.63 Q2264.79 1489.63 2261.71 1485.04 Q2258.65 1480.44 2258.65 1471.71 Q2258.65 1462.96 2261.71 1458.38 Q2264.79 1453.77 2270.6 1453.77 Z" fill="#000000" fill-rule="evenodd" fill-opacity="1" /><path clip-path="url(#clip630)" d="M2318.93 1463.49 L2308.35 1474.12 L2318.93 1484.7 L2316.18 1487.5 L2305.55 1476.87 L2294.93 1487.5 L2292.2 1484.7 L2302.75 1474.12 L2292.2 1463.49 L2294.93 1460.69 L2305.55 1471.32 L2316.18 1460.69 L2318.93 1463.49 Z" fill="#000000" fill-rule="evenodd" fill-opacity="1" /><path clip-path="url(#clip630)" d="M2331.29 1485.02 L2338.93 1485.02 L2338.93 1458.66 L2330.62 1460.32 L2330.62 1456.06 L2338.89 1454.4 L2343.56 1454.4 L2343.56 1485.02 L2351.2 1485.02 L2351.2 1488.96 L2331.29 1488.96 L2331.29 1485.02 Z" fill="#000000" fill-rule="evenodd" fill-opacity="1" /><path clip-path="url(#clip630)" d="M2370.65 1457.48 Q2367.03 1457.48 2365.21 1461.04 Q2363.4 1464.58 2363.4 1471.71 Q2363.4 1478.82 2365.21 1482.38 Q2367.03 1485.92 2370.65 1485.92 Q2374.28 1485.92 2376.08 1482.38 Q2377.91 1478.82 2377.91 1471.71 Q2377.91 1464.58 2376.08 1461.04 Q2374.28 1457.48 2370.65 1457.48 M2370.65 1453.77 Q2376.46 1453.77 2379.51 1458.38 Q2382.59 1462.96 2382.59 1471.71 Q2382.59 1480.44 2379.51 1485.04 Q2376.46 1489.63 2370.65 1489.63 Q2364.83 1489.63 2361.76 1485.04 Q2358.7 1480.44 2358.7 1471.71 Q2358.7 1462.96 2361.76 1458.38 Q2364.83 1453.77 2370.65 1453.77 Z" fill="#000000" fill-rule="evenodd" fill-opacity="1" /><path clip-path="url(#clip630)" d="M2392.61 1445.99 Q2390.06 1445.99 2388.55 1447.74 Q2387.07 1449.49 2387.07 1452.54 Q2387.07 1455.57 2388.55 1457.33 Q2390.06 1459.08 2392.61 1459.08 Q2395.17 1459.08 2396.66 1457.33 Q2398.16 1455.57 2398.16 1452.54 Q2398.16 1449.49 2396.66 1447.74 Q2395.17 1445.99 2392.61 1445.99 M2400.16 1434.09 L2400.16 1437.55 Q2398.73 1436.87 2397.26 1436.51 Q2395.81 1436.16 2394.38 1436.16 Q2390.62 1436.16 2388.63 1438.69 Q2386.65 1441.23 2386.37 1446.37 Q2387.48 1444.73 2389.15 1443.87 Q2390.83 1442.98 2392.84 1442.98 Q2397.07 1442.98 2399.52 1445.56 Q2401.98 1448.12 2401.98 1452.54 Q2401.98 1456.86 2399.42 1459.48 Q2396.86 1462.09 2392.61 1462.09 Q2387.74 1462.09 2385.17 1458.37 Q2382.59 1454.62 2382.59 1447.53 Q2382.59 1440.88 2385.75 1436.93 Q2388.91 1432.96 2394.23 1432.96 Q2395.66 1432.96 2397.11 1433.24 Q2398.58 1433.52 2400.16 1434.09 Z" fill="#000000" fill-rule="evenodd" fill-opacity="1" /><path clip-path="url(#clip630)" d="M1143 1526.67 L1149.43 1526.67 L1149.43 1574.19 L1143 1574.19 L1143 1526.67 Z" fill="#000000" fill-rule="evenodd" fill-opacity="1" /><path clip-path="url(#clip630)" d="M1167.77 1528.42 L1167.77 1538.54 L1179.83 1538.54 L1179.83 1543.09 L1167.77 1543.09 L1167.77 1562.44 Q1167.77 1566.8 1168.94 1568.04 Q1170.15 1569.28 1173.81 1569.28 L1179.83 1569.28 L1179.83 1574.19 L1173.81 1574.19 Q1167.03 1574.19 1164.46 1571.67 Q1161.88 1569.12 1161.88 1562.44 L1161.88 1543.09 L1157.58 1543.09 L1157.58 1538.54 L1161.88 1538.54 L1161.88 1528.42 L1167.77 1528.42 Z" fill="#000000" fill-rule="evenodd" fill-opacity="1" /><path clip-path="url(#clip630)" d="M1218.02 1554.9 L1218.02 1557.76 L1191.1 1557.76 Q1191.48 1563.81 1194.72 1566.99 Q1198 1570.14 1203.83 1570.14 Q1207.2 1570.14 1210.35 1569.32 Q1213.54 1568.49 1216.65 1566.83 L1216.65 1572.37 Q1213.5 1573.71 1210.19 1574.41 Q1206.88 1575.11 1203.48 1575.11 Q1194.95 1575.11 1189.95 1570.14 Q1184.98 1565.18 1184.98 1556.71 Q1184.98 1547.96 1189.7 1542.83 Q1194.44 1537.68 1202.46 1537.68 Q1209.65 1537.68 1213.82 1542.33 Q1218.02 1546.94 1218.02 1554.9 M1212.17 1553.18 Q1212.1 1548.37 1209.46 1545.51 Q1206.85 1542.64 1202.52 1542.64 Q1197.62 1542.64 1194.66 1545.41 Q1191.73 1548.18 1191.29 1553.21 L1212.17 1553.18 Z" fill="#000000" fill-rule="evenodd" fill-opacity="1" /><path clip-path="url(#clip630)" d="M1248.29 1544.01 Q1247.31 1543.44 1246.13 1543.18 Q1244.98 1542.9 1243.58 1542.9 Q1238.62 1542.9 1235.94 1546.14 Q1233.3 1549.36 1233.3 1555.41 L1233.3 1574.19 L1227.41 1574.19 L1227.41 1538.54 L1233.3 1538.54 L1233.3 1544.08 Q1235.15 1540.83 1238.11 1539.27 Q1241.07 1537.68 1245.3 1537.68 Q1245.9 1537.68 1246.64 1537.77 Q1247.37 1537.84 1248.26 1538 L1248.29 1544.01 Z" fill="#000000" fill-rule="evenodd" fill-opacity="1" /><path clip-path="url(#clip630)" d="M1270.64 1556.27 Q1263.54 1556.27 1260.8 1557.89 Q1258.06 1559.51 1258.06 1563.43 Q1258.06 1566.55 1260.1 1568.39 Q1262.17 1570.21 1265.7 1570.21 Q1270.57 1570.21 1273.5 1566.77 Q1276.46 1563.3 1276.46 1557.57 L1276.46 1556.27 L1270.64 1556.27 M1282.32 1553.85 L1282.32 1574.19 L1276.46 1574.19 L1276.46 1568.77 Q1274.45 1572.02 1271.46 1573.58 Q1268.47 1575.11 1264.14 1575.11 Q1258.67 1575.11 1255.42 1572.05 Q1252.21 1568.97 1252.21 1563.81 Q1252.21 1557.79 1256.22 1554.74 Q1260.26 1551.68 1268.25 1551.68 L1276.46 1551.68 L1276.46 1551.11 Q1276.46 1547.07 1273.79 1544.87 Q1271.14 1542.64 1266.34 1542.64 Q1263.28 1542.64 1260.39 1543.38 Q1257.49 1544.11 1254.82 1545.57 L1254.82 1540.16 Q1258.03 1538.92 1261.06 1538.31 Q1264.08 1537.68 1266.94 1537.68 Q1274.68 1537.68 1278.5 1541.69 Q1282.32 1545.7 1282.32 1553.85 Z" fill="#000000" fill-rule="evenodd" fill-opacity="1" /><path clip-path="url(#clip630)" d="M1300.17 1528.42 L1300.17 1538.54 L1312.24 1538.54 L1312.24 1543.09 L1300.17 1543.09 L1300.17 1562.44 Q1300.17 1566.8 1301.35 1568.04 Q1302.56 1569.28 1306.22 1569.28 L1312.24 1569.28 L1312.24 1574.19 L1306.22 1574.19 Q1299.44 1574.19 1296.86 1571.67 Q1294.28 1569.12 1294.28 1562.44 L1294.28 1543.09 L1289.99 1543.09 L1289.99 1538.54 L1294.28 1538.54 L1294.28 1528.42 L1300.17 1528.42 Z" fill="#000000" fill-rule="evenodd" fill-opacity="1" /><path clip-path="url(#clip630)" d="M1319.94 1538.54 L1325.79 1538.54 L1325.79 1574.19 L1319.94 1574.19 L1319.94 1538.54 M1319.94 1524.66 L1325.79 1524.66 L1325.79 1532.08 L1319.94 1532.08 L1319.94 1524.66 Z" fill="#000000" fill-rule="evenodd" fill-opacity="1" /><path clip-path="url(#clip630)" d="M1351.86 1542.64 Q1347.15 1542.64 1344.41 1546.34 Q1341.68 1550 1341.68 1556.39 Q1341.68 1562.79 1344.38 1566.48 Q1347.12 1570.14 1351.86 1570.14 Q1356.54 1570.14 1359.28 1566.45 Q1362.02 1562.76 1362.02 1556.39 Q1362.02 1550.06 1359.28 1546.37 Q1356.54 1542.64 1351.86 1542.64 M1351.86 1537.68 Q1359.5 1537.68 1363.86 1542.64 Q1368.22 1547.61 1368.22 1556.39 Q1368.22 1565.15 1363.86 1570.14 Q1359.5 1575.11 1351.86 1575.11 Q1344.19 1575.11 1339.83 1570.14 Q1335.5 1565.15 1335.5 1556.39 Q1335.5 1547.61 1339.83 1542.64 Q1344.19 1537.68 1351.86 1537.68 Z" fill="#000000" fill-rule="evenodd" fill-opacity="1" /><path clip-path="url(#clip630)" d="M1407.56 1552.67 L1407.56 1574.19 L1401.71 1574.19 L1401.71 1552.86 Q1401.71 1547.8 1399.73 1545.29 Q1397.76 1542.77 1393.81 1542.77 Q1389.07 1542.77 1386.33 1545.79 Q1383.59 1548.82 1383.59 1554.04 L1383.59 1574.19 L1377.71 1574.19 L1377.71 1538.54 L1383.59 1538.54 L1383.59 1544.08 Q1385.7 1540.86 1388.53 1539.27 Q1391.39 1537.68 1395.12 1537.68 Q1401.26 1537.68 1404.41 1541.5 Q1407.56 1545.29 1407.56 1552.67 Z" fill="#000000" fill-rule="evenodd" fill-opacity="1" /><path clip-path="url(#clip630)" d="M1441.97 1539.59 L1441.97 1545.13 Q1439.49 1543.85 1436.81 1543.22 Q1434.14 1542.58 1431.27 1542.58 Q1426.91 1542.58 1424.72 1543.92 Q1422.55 1545.25 1422.55 1547.93 Q1422.55 1549.96 1424.11 1551.14 Q1425.67 1552.29 1430.38 1553.34 L1432.39 1553.78 Q1438.63 1555.12 1441.24 1557.57 Q1443.88 1559.99 1443.88 1564.35 Q1443.88 1569.32 1439.93 1572.21 Q1436.02 1575.11 1429.14 1575.11 Q1426.28 1575.11 1423.16 1574.54 Q1420.07 1573.99 1416.63 1572.88 L1416.63 1566.83 Q1419.88 1568.52 1423.03 1569.38 Q1426.18 1570.21 1429.27 1570.21 Q1433.41 1570.21 1435.63 1568.81 Q1437.86 1567.37 1437.86 1564.8 Q1437.86 1562.41 1436.24 1561.14 Q1434.65 1559.86 1429.21 1558.68 L1427.17 1558.21 Q1421.73 1557.06 1419.31 1554.71 Q1416.89 1552.32 1416.89 1548.18 Q1416.89 1543.15 1420.45 1540.42 Q1424.02 1537.68 1430.57 1537.68 Q1433.82 1537.68 1436.68 1538.16 Q1439.55 1538.63 1441.97 1539.59 Z" fill="#000000" fill-rule="evenodd" fill-opacity="1" /><polyline clip-path="url(#clip632)" style="stroke:#000000; stroke-linecap:round; stroke-linejoin:round; stroke-width:2; stroke-opacity:0.1; fill:none" points="
  234.125,1277.25 2352.76,1277.25 
  "/>
<polyline clip-path="url(#clip632)" style="stroke:#000000; stroke-linecap:round; stroke-linejoin:round; stroke-width:2; stroke-opacity:0.1; fill:none" points="
  234.125,1057.33 2352.76,1057.33 
  "/>
<polyline clip-path="url(#clip632)" style="stroke:#000000; stroke-linecap:round; stroke-linejoin:round; stroke-width:2; stroke-opacity:0.1; fill:none" points="
  234.125,837.401 2352.76,837.401 
  "/>
<polyline clip-path="url(#clip632)" style="stroke:#000000; stroke-linecap:round; stroke-linejoin:round; stroke-width:2; stroke-opacity:0.1; fill:none" points="
  234.125,617.477 2352.76,617.477 
  "/>
<polyline clip-path="url(#clip632)" style="stroke:#000000; stroke-linecap:round; stroke-linejoin:round; stroke-width:2; stroke-opacity:0.1; fill:none" points="
  234.125,397.552 2352.76,397.552 
  "/>
<polyline clip-path="url(#clip632)" style="stroke:#000000; stroke-linecap:round; stroke-linejoin:round; stroke-width:2; stroke-opacity:0.1; fill:none" points="
  234.125,177.627 2352.76,177.627 
  "/>
<polyline clip-path="url(#clip630)" style="stroke:#000000; stroke-linecap:round; stroke-linejoin:round; stroke-width:4; stroke-opacity:1; fill:none" points="
  234.125,1410.9 234.125,47.2441 
  "/>
<polyline clip-path="url(#clip630)" style="stroke:#000000; stroke-linecap:round; stroke-linejoin:round; stroke-width:4; stroke-opacity:1; fill:none" points="
  234.125,1277.25 253.023,1277.25 
  "/>
<polyline clip-path="url(#clip630)" style="stroke:#000000; stroke-linecap:round; stroke-linejoin:round; stroke-width:4; stroke-opacity:1; fill:none" points="
  234.125,1057.33 253.023,1057.33 
  "/>
<polyline clip-path="url(#clip630)" style="stroke:#000000; stroke-linecap:round; stroke-linejoin:round; stroke-width:4; stroke-opacity:1; fill:none" points="
  234.125,837.401 253.023,837.401 
  "/>
<polyline clip-path="url(#clip630)" style="stroke:#000000; stroke-linecap:round; stroke-linejoin:round; stroke-width:4; stroke-opacity:1; fill:none" points="
  234.125,617.477 253.023,617.477 
  "/>
<polyline clip-path="url(#clip630)" style="stroke:#000000; stroke-linecap:round; stroke-linejoin:round; stroke-width:4; stroke-opacity:1; fill:none" points="
  234.125,397.552 253.023,397.552 
  "/>
<polyline clip-path="url(#clip630)" style="stroke:#000000; stroke-linecap:round; stroke-linejoin:round; stroke-width:4; stroke-opacity:1; fill:none" points="
  234.125,177.627 253.023,177.627 
  "/>
<path clip-path="url(#clip630)" d="M186.181 1263.05 Q182.57 1263.05 180.741 1266.61 Q178.936 1270.16 178.936 1277.29 Q178.936 1284.39 180.741 1287.96 Q182.57 1291.5 186.181 1291.5 Q189.815 1291.5 191.621 1287.96 Q193.45 1284.39 193.45 1277.29 Q193.45 1270.16 191.621 1266.61 Q189.815 1263.05 186.181 1263.05 M186.181 1259.35 Q191.991 1259.35 195.047 1263.95 Q198.125 1268.54 198.125 1277.29 Q198.125 1286.01 195.047 1290.62 Q191.991 1295.2 186.181 1295.2 Q180.371 1295.2 177.292 1290.62 Q174.237 1286.01 174.237 1277.29 Q174.237 1268.54 177.292 1263.95 Q180.371 1259.35 186.181 1259.35 Z" fill="#000000" fill-rule="evenodd" fill-opacity="1" /><path clip-path="url(#clip630)" d="M146.066 1040.05 L164.422 1040.05 L164.422 1043.98 L150.348 1043.98 L150.348 1052.45 Q151.366 1052.11 152.385 1051.94 Q153.403 1051.76 154.422 1051.76 Q160.209 1051.76 163.589 1054.93 Q166.968 1058.1 166.968 1063.52 Q166.968 1069.1 163.496 1072.2 Q160.024 1075.28 153.704 1075.28 Q151.528 1075.28 149.26 1074.91 Q147.015 1074.54 144.607 1073.8 L144.607 1069.1 Q146.691 1070.23 148.913 1070.79 Q151.135 1071.34 153.612 1071.34 Q157.616 1071.34 159.954 1069.24 Q162.292 1067.13 162.292 1063.52 Q162.292 1059.91 159.954 1057.8 Q157.616 1055.69 153.612 1055.69 Q151.737 1055.69 149.862 1056.11 Q148.01 1056.53 146.066 1057.41 L146.066 1040.05 Z" fill="#000000" fill-rule="evenodd" fill-opacity="1" /><path clip-path="url(#clip630)" d="M186.181 1043.12 Q182.57 1043.12 180.741 1046.69 Q178.936 1050.23 178.936 1057.36 Q178.936 1064.47 180.741 1068.03 Q182.57 1071.57 186.181 1071.57 Q189.815 1071.57 191.621 1068.03 Q193.45 1064.47 193.45 1057.36 Q193.45 1050.23 191.621 1046.69 Q189.815 1043.12 186.181 1043.12 M186.181 1039.42 Q191.991 1039.42 195.047 1044.03 Q198.125 1048.61 198.125 1057.36 Q198.125 1066.09 195.047 1070.69 Q191.991 1075.28 186.181 1075.28 Q180.371 1075.28 177.292 1070.69 Q174.237 1066.09 174.237 1057.36 Q174.237 1048.61 177.292 1044.03 Q180.371 1039.42 186.181 1039.42 Z" fill="#000000" fill-rule="evenodd" fill-opacity="1" /><path clip-path="url(#clip630)" d="M116.668 850.746 L124.306 850.746 L124.306 824.38 L115.996 826.047 L115.996 821.788 L124.26 820.121 L128.936 820.121 L128.936 850.746 L136.575 850.746 L136.575 854.681 L116.668 854.681 L116.668 850.746 Z" fill="#000000" fill-rule="evenodd" fill-opacity="1" /><path clip-path="url(#clip630)" d="M156.019 823.2 Q152.408 823.2 150.579 826.765 Q148.774 830.306 148.774 837.436 Q148.774 844.542 150.579 848.107 Q152.408 851.649 156.019 851.649 Q159.653 851.649 161.459 848.107 Q163.288 844.542 163.288 837.436 Q163.288 830.306 161.459 826.765 Q159.653 823.2 156.019 823.2 M156.019 819.496 Q161.829 819.496 164.885 824.103 Q167.964 828.686 167.964 837.436 Q167.964 846.163 164.885 850.769 Q161.829 855.353 156.019 855.353 Q150.209 855.353 147.13 850.769 Q144.075 846.163 144.075 837.436 Q144.075 828.686 147.13 824.103 Q150.209 819.496 156.019 819.496 Z" fill="#000000" fill-rule="evenodd" fill-opacity="1" /><path clip-path="url(#clip630)" d="M186.181 823.2 Q182.57 823.2 180.741 826.765 Q178.936 830.306 178.936 837.436 Q178.936 844.542 180.741 848.107 Q182.57 851.649 186.181 851.649 Q189.815 851.649 191.621 848.107 Q193.45 844.542 193.45 837.436 Q193.45 830.306 191.621 826.765 Q189.815 823.2 186.181 823.2 M186.181 819.496 Q191.991 819.496 195.047 824.103 Q198.125 828.686 198.125 837.436 Q198.125 846.163 195.047 850.769 Q191.991 855.353 186.181 855.353 Q180.371 855.353 177.292 850.769 Q174.237 846.163 174.237 837.436 Q174.237 828.686 177.292 824.103 Q180.371 819.496 186.181 819.496 Z" fill="#000000" fill-rule="evenodd" fill-opacity="1" /><path clip-path="url(#clip630)" d="M116.668 630.821 L124.306 630.821 L124.306 604.456 L115.996 606.123 L115.996 601.863 L124.26 600.197 L128.936 600.197 L128.936 630.821 L136.575 630.821 L136.575 634.757 L116.668 634.757 L116.668 630.821 Z" fill="#000000" fill-rule="evenodd" fill-opacity="1" /><path clip-path="url(#clip630)" d="M146.066 600.197 L164.422 600.197 L164.422 604.132 L150.348 604.132 L150.348 612.604 Q151.366 612.257 152.385 612.095 Q153.403 611.91 154.422 611.91 Q160.209 611.91 163.589 615.081 Q166.968 618.252 166.968 623.669 Q166.968 629.247 163.496 632.349 Q160.024 635.428 153.704 635.428 Q151.528 635.428 149.26 635.058 Q147.015 634.687 144.607 633.946 L144.607 629.247 Q146.691 630.382 148.913 630.937 Q151.135 631.493 153.612 631.493 Q157.616 631.493 159.954 629.386 Q162.292 627.28 162.292 623.669 Q162.292 620.058 159.954 617.951 Q157.616 615.845 153.612 615.845 Q151.737 615.845 149.862 616.261 Q148.01 616.678 146.066 617.558 L146.066 600.197 Z" fill="#000000" fill-rule="evenodd" fill-opacity="1" /><path clip-path="url(#clip630)" d="M186.181 603.275 Q182.57 603.275 180.741 606.84 Q178.936 610.382 178.936 617.511 Q178.936 624.618 180.741 628.183 Q182.57 631.724 186.181 631.724 Q189.815 631.724 191.621 628.183 Q193.45 624.618 193.45 617.511 Q193.45 610.382 191.621 606.84 Q189.815 603.275 186.181 603.275 M186.181 599.572 Q191.991 599.572 195.047 604.178 Q198.125 608.761 198.125 617.511 Q198.125 626.238 195.047 630.845 Q191.991 635.428 186.181 635.428 Q180.371 635.428 177.292 630.845 Q174.237 626.238 174.237 617.511 Q174.237 608.761 177.292 604.178 Q180.371 599.572 186.181 599.572 Z" fill="#000000" fill-rule="evenodd" fill-opacity="1" /><path clip-path="url(#clip630)" d="M119.885 410.897 L136.204 410.897 L136.204 414.832 L114.26 414.832 L114.26 410.897 Q116.922 408.142 121.505 403.513 Q126.112 398.86 127.292 397.517 Q129.538 394.994 130.417 393.258 Q131.32 391.499 131.32 389.809 Q131.32 387.054 129.376 385.318 Q127.455 383.582 124.353 383.582 Q122.154 383.582 119.7 384.346 Q117.269 385.11 114.492 386.661 L114.492 381.939 Q117.316 380.804 119.769 380.226 Q122.223 379.647 124.26 379.647 Q129.63 379.647 132.825 382.332 Q136.019 385.017 136.019 389.508 Q136.019 391.638 135.209 393.559 Q134.422 395.457 132.316 398.05 Q131.737 398.721 128.635 401.939 Q125.533 405.133 119.885 410.897 Z" fill="#000000" fill-rule="evenodd" fill-opacity="1" /><path clip-path="url(#clip630)" d="M156.019 383.351 Q152.408 383.351 150.579 386.916 Q148.774 390.457 148.774 397.587 Q148.774 404.693 150.579 408.258 Q152.408 411.8 156.019 411.8 Q159.653 411.8 161.459 408.258 Q163.288 404.693 163.288 397.587 Q163.288 390.457 161.459 386.916 Q159.653 383.351 156.019 383.351 M156.019 379.647 Q161.829 379.647 164.885 384.254 Q167.964 388.837 167.964 397.587 Q167.964 406.314 164.885 410.92 Q161.829 415.503 156.019 415.503 Q150.209 415.503 147.13 410.92 Q144.075 406.314 144.075 397.587 Q144.075 388.837 147.13 384.254 Q150.209 379.647 156.019 379.647 Z" fill="#000000" fill-rule="evenodd" fill-opacity="1" /><path clip-path="url(#clip630)" d="M186.181 383.351 Q182.57 383.351 180.741 386.916 Q178.936 390.457 178.936 397.587 Q178.936 404.693 180.741 408.258 Q182.57 411.8 186.181 411.8 Q189.815 411.8 191.621 408.258 Q193.45 404.693 193.45 397.587 Q193.45 390.457 191.621 386.916 Q189.815 383.351 186.181 383.351 M186.181 379.647 Q191.991 379.647 195.047 384.254 Q198.125 388.837 198.125 397.587 Q198.125 406.314 195.047 410.92 Q191.991 415.503 186.181 415.503 Q180.371 415.503 177.292 410.92 Q174.237 406.314 174.237 397.587 Q174.237 388.837 177.292 384.254 Q180.371 379.647 186.181 379.647 Z" fill="#000000" fill-rule="evenodd" fill-opacity="1" /><path clip-path="url(#clip630)" d="M119.885 190.972 L136.204 190.972 L136.204 194.907 L114.26 194.907 L114.26 190.972 Q116.922 188.218 121.505 183.588 Q126.112 178.935 127.292 177.593 Q129.538 175.07 130.417 173.334 Q131.32 171.574 131.32 169.884 Q131.32 167.13 129.376 165.394 Q127.455 163.658 124.353 163.658 Q122.154 163.658 119.7 164.422 Q117.269 165.185 114.492 166.736 L114.492 162.014 Q117.316 160.88 119.769 160.301 Q122.223 159.722 124.26 159.722 Q129.63 159.722 132.825 162.408 Q136.019 165.093 136.019 169.584 Q136.019 171.713 135.209 173.634 Q134.422 175.533 132.316 178.125 Q131.737 178.796 128.635 182.014 Q125.533 185.208 119.885 190.972 Z" fill="#000000" fill-rule="evenodd" fill-opacity="1" /><path clip-path="url(#clip630)" d="M146.066 160.347 L164.422 160.347 L164.422 164.283 L150.348 164.283 L150.348 172.755 Q151.366 172.408 152.385 172.246 Q153.403 172.06 154.422 172.06 Q160.209 172.06 163.589 175.232 Q166.968 178.403 166.968 183.82 Q166.968 189.398 163.496 192.5 Q160.024 195.579 153.704 195.579 Q151.528 195.579 149.26 195.208 Q147.015 194.838 144.607 194.097 L144.607 189.398 Q146.691 190.532 148.913 191.088 Q151.135 191.644 153.612 191.644 Q157.616 191.644 159.954 189.537 Q162.292 187.431 162.292 183.82 Q162.292 180.208 159.954 178.102 Q157.616 175.996 153.612 175.996 Q151.737 175.996 149.862 176.412 Q148.01 176.829 146.066 177.708 L146.066 160.347 Z" fill="#000000" fill-rule="evenodd" fill-opacity="1" /><path clip-path="url(#clip630)" d="M186.181 163.426 Q182.57 163.426 180.741 166.991 Q178.936 170.533 178.936 177.662 Q178.936 184.769 180.741 188.333 Q182.57 191.875 186.181 191.875 Q189.815 191.875 191.621 188.333 Q193.45 184.769 193.45 177.662 Q193.45 170.533 191.621 166.991 Q189.815 163.426 186.181 163.426 M186.181 159.722 Q191.991 159.722 195.047 164.329 Q198.125 168.912 198.125 177.662 Q198.125 186.389 195.047 190.995 Q191.991 195.579 186.181 195.579 Q180.371 195.579 177.292 190.995 Q174.237 186.389 174.237 177.662 Q174.237 168.912 177.292 164.329 Q180.371 159.722 186.181 159.722 Z" fill="#000000" fill-rule="evenodd" fill-opacity="1" /><path clip-path="url(#clip630)" d="M41.7242 821.755 Q42.4244 819.686 44.7161 817.745 Q47.0077 815.771 51.0181 813.798 L64.0042 807.273 L64.0042 814.18 L51.8138 820.259 Q47.0395 822.614 45.48 824.842 Q43.9204 827.039 43.9204 830.858 L43.9204 837.86 L64.0042 837.86 L64.0042 844.29 L16.4842 844.29 L16.4842 829.776 Q16.4842 821.628 19.8898 817.617 Q23.2955 813.607 30.1704 813.607 Q34.6582 813.607 37.6183 815.708 Q40.5784 817.776 41.7242 821.755 M21.7677 837.86 L38.6368 837.86 L38.6368 829.776 Q38.6368 825.129 36.5043 822.774 Q34.34 820.386 30.1704 820.386 Q26.0009 820.386 23.9002 822.774 Q21.7677 825.129 21.7677 829.776 L21.7677 837.86 Z" fill="#000000" fill-rule="evenodd" fill-opacity="1" /><path clip-path="url(#clip630)" d="M44.7161 771.689 L47.5806 771.689 L47.5806 798.616 Q53.6281 798.234 56.8109 794.987 Q59.9619 791.709 59.9619 785.884 Q59.9619 782.51 59.1344 779.359 Q58.3069 776.177 56.6518 773.057 L62.1899 773.057 Q63.5267 776.208 64.227 779.519 Q64.9272 782.829 64.9272 786.234 Q64.9272 794.764 59.9619 799.762 Q54.9967 804.727 46.5303 804.727 Q37.7774 804.727 32.6531 800.016 Q27.4968 795.274 27.4968 787.253 Q27.4968 780.06 32.1438 775.89 Q36.7589 771.689 44.7161 771.689 M42.9973 777.545 Q38.1912 777.609 35.3266 780.251 Q32.4621 782.861 32.4621 787.189 Q32.4621 792.091 35.2312 795.051 Q38.0002 797.979 43.0292 798.425 L42.9973 777.545 Z" fill="#000000" fill-rule="evenodd" fill-opacity="1" /><path clip-path="url(#clip630)" d="M28.3562 765.482 L28.3562 759.626 L56.1743 752.305 L28.3562 745.016 L28.3562 738.11 L56.1743 730.789 L28.3562 723.5 L28.3562 717.644 L64.0042 726.97 L64.0042 733.876 L34.7856 741.547 L64.0042 749.25 L64.0042 756.156 L28.3562 765.482 Z" fill="#000000" fill-rule="evenodd" fill-opacity="1" /><path clip-path="url(#clip630)" d="M46.0847 692.563 Q46.0847 699.661 47.7079 702.398 Q49.3312 705.135 53.2461 705.135 Q56.3653 705.135 58.2114 703.098 Q60.0256 701.029 60.0256 697.496 Q60.0256 692.627 56.5881 689.698 Q53.1188 686.738 47.3897 686.738 L46.0847 686.738 L46.0847 692.563 M43.6657 680.882 L64.0042 680.882 L64.0042 686.738 L58.5933 686.738 Q61.8398 688.744 63.3994 691.735 Q64.9272 694.727 64.9272 699.056 Q64.9272 704.531 61.8716 707.777 Q58.7843 710.992 53.6281 710.992 Q47.6125 710.992 44.5569 706.981 Q41.5014 702.939 41.5014 694.95 L41.5014 686.738 L40.9285 686.738 Q36.8862 686.738 34.6901 689.412 Q32.4621 692.054 32.4621 696.86 Q32.4621 699.915 33.1941 702.812 Q33.9262 705.708 35.3903 708.382 L29.9795 708.382 Q28.7381 705.167 28.1334 702.143 Q27.4968 699.12 27.4968 696.255 Q27.4968 688.521 31.5072 684.701 Q35.5176 680.882 43.6657 680.882 Z" fill="#000000" fill-rule="evenodd" fill-opacity="1" /><path clip-path="url(#clip630)" d="M33.8307 648.162 Q33.2578 649.149 33.0032 650.327 Q32.7167 651.472 32.7167 652.873 Q32.7167 657.838 35.9632 660.512 Q39.1779 663.153 45.2253 663.153 L64.0042 663.153 L64.0042 669.042 L28.3562 669.042 L28.3562 663.153 L33.8944 663.153 Q30.6479 661.307 29.0883 658.347 Q27.4968 655.387 27.4968 651.154 Q27.4968 650.549 27.5923 649.817 Q27.656 649.085 27.8151 648.194 L33.8307 648.162 Z" fill="#000000" fill-rule="evenodd" fill-opacity="1" /><path clip-path="url(#clip630)" d="M33.7671 619.708 L14.479 619.708 L14.479 613.851 L64.0042 613.851 L64.0042 619.708 L58.657 619.708 Q61.8398 621.554 63.3994 624.386 Q64.9272 627.187 64.9272 631.134 Q64.9272 637.595 59.771 641.669 Q54.6147 645.711 46.212 645.711 Q37.8093 645.711 32.6531 641.669 Q27.4968 637.595 27.4968 631.134 Q27.4968 627.187 29.0564 624.386 Q30.5842 621.554 33.7671 619.708 M46.212 639.664 Q52.6732 639.664 56.3653 637.022 Q60.0256 634.349 60.0256 629.702 Q60.0256 625.055 56.3653 622.381 Q52.6732 619.708 46.212 619.708 Q39.7508 619.708 36.0905 622.381 Q32.3984 625.055 32.3984 629.702 Q32.3984 634.349 36.0905 637.022 Q39.7508 639.664 46.212 639.664 Z" fill="#000000" fill-rule="evenodd" fill-opacity="1" /><polyline clip-path="url(#clip632)" style="stroke:#009af9; stroke-linecap:round; stroke-linejoin:round; stroke-width:4; stroke-opacity:1; fill:none" points="
  294.087,1372.3 399.282,1099.02 504.477,1110.94 609.672,1108.68 714.867,1079.53 820.062,1081.42 925.258,1038.49 1030.45,833.685 1135.65,322.828 1240.84,222.54 
  1346.04,212.563 1451.23,227.147 1556.43,193.338 1661.62,124.17 1766.82,213.539 1872.01,221.37 1977.21,154.933 2082.4,101.887 2187.6,92.9668 2292.79,85.838 
  
  "/>
</svg>
