<?xml version="1.0" encoding="utf-8"?>
<svg xmlns="http://www.w3.org/2000/svg" xmlns:xlink="http://www.w3.org/1999/xlink" width="600" height="400" viewBox="0 0 2400 1600">
<defs>
  <clipPath id="clip320">
    <rect x="0" y="0" width="2400" height="1600"/>
  </clipPath>
</defs>
<path clip-path="url(#clip320)" d="
M0 1600 L2400 1600 L2400 0 L0 0  Z
  " fill="#ffffff" fill-rule="evenodd" fill-opacity="1"/>
<defs>
  <clipPath id="clip321">
    <rect x="480" y="0" width="1681" height="1600"/>
  </clipPath>
</defs>
<path clip-path="url(#clip320)" d="
M232.531 1418.86 L2352.76 1418.86 L2352.76 47.2441 L232.531 47.2441  Z
  " fill="#ffffff" fill-rule="evenodd" fill-opacity="1"/>
<defs>
  <clipPath id="clip322">
    <rect x="232" y="47" width="2121" height="1373"/>
  </clipPath>
</defs>
<polyline clip-path="url(#clip322)" style="stroke:#000000; stroke-linecap:round; stroke-linejoin:round; stroke-width:2; stroke-opacity:0.1; fill:none" points="
  287.524,1418.86 287.524,47.2441 
  "/>
<polyline clip-path="url(#clip322)" style="stroke:#000000; stroke-linecap:round; stroke-linejoin:round; stroke-width:2; stroke-opacity:0.1; fill:none" points="
  788.831,1418.86 788.831,47.2441 
  "/>
<polyline clip-path="url(#clip322)" style="stroke:#000000; stroke-linecap:round; stroke-linejoin:round; stroke-width:2; stroke-opacity:0.1; fill:none" points="
  1290.14,1418.86 1290.14,47.2441 
  "/>
<polyline clip-path="url(#clip322)" style="stroke:#000000; stroke-linecap:round; stroke-linejoin:round; stroke-width:2; stroke-opacity:0.1; fill:none" points="
  1791.44,1418.86 1791.44,47.2441 
  "/>
<polyline clip-path="url(#clip322)" style="stroke:#000000; stroke-linecap:round; stroke-linejoin:round; stroke-width:2; stroke-opacity:0.1; fill:none" points="
  2292.75,1418.86 2292.75,47.2441 
  "/>
<polyline clip-path="url(#clip320)" style="stroke:#000000; stroke-linecap:round; stroke-linejoin:round; stroke-width:4; stroke-opacity:1; fill:none" points="
  232.531,1418.86 2352.76,1418.86 
  "/>
<polyline clip-path="url(#clip320)" style="stroke:#000000; stroke-linecap:round; stroke-linejoin:round; stroke-width:4; stroke-opacity:1; fill:none" points="
  287.524,1418.86 287.524,1399.96 
  "/>
<polyline clip-path="url(#clip320)" style="stroke:#000000; stroke-linecap:round; stroke-linejoin:round; stroke-width:4; stroke-opacity:1; fill:none" points="
  788.831,1418.86 788.831,1399.96 
  "/>
<polyline clip-path="url(#clip320)" style="stroke:#000000; stroke-linecap:round; stroke-linejoin:round; stroke-width:4; stroke-opacity:1; fill:none" points="
  1290.14,1418.86 1290.14,1399.96 
  "/>
<polyline clip-path="url(#clip320)" style="stroke:#000000; stroke-linecap:round; stroke-linejoin:round; stroke-width:4; stroke-opacity:1; fill:none" points="
  1791.44,1418.86 1791.44,1399.96 
  "/>
<polyline clip-path="url(#clip320)" style="stroke:#000000; stroke-linecap:round; stroke-linejoin:round; stroke-width:4; stroke-opacity:1; fill:none" points="
  2292.75,1418.86 2292.75,1399.96 
  "/>
<path clip-path="url(#clip320)" d="M195.326 1449.78 Q191.715 1449.78 189.886 1453.34 Q188.081 1456.88 188.081 1464.01 Q188.081 1471.12 189.886 1474.69 Q191.715 1478.23 195.326 1478.23 Q198.96 1478.23 200.766 1474.69 Q202.594 1471.12 202.594 1464.01 Q202.594 1456.88 200.766 1453.34 Q198.96 1449.78 195.326 1449.78 M195.326 1446.07 Q201.136 1446.07 204.192 1450.68 Q207.27 1455.26 207.27 1464.01 Q207.27 1472.74 204.192 1477.35 Q201.136 1481.93 195.326 1481.93 Q189.516 1481.93 186.437 1477.35 Q183.381 1472.74 183.381 1464.01 Q183.381 1455.26 186.437 1450.68 Q189.516 1446.07 195.326 1446.07 Z" fill="#000000" fill-rule="evenodd" fill-opacity="1" /><path clip-path="url(#clip320)" d="M215.488 1475.38 L220.372 1475.38 L220.372 1481.26 L215.488 1481.26 L215.488 1475.38 Z" fill="#000000" fill-rule="evenodd" fill-opacity="1" /><path clip-path="url(#clip320)" d="M240.557 1449.78 Q236.946 1449.78 235.117 1453.34 Q233.312 1456.88 233.312 1464.01 Q233.312 1471.12 235.117 1474.69 Q236.946 1478.23 240.557 1478.23 Q244.191 1478.23 245.997 1474.69 Q247.826 1471.12 247.826 1464.01 Q247.826 1456.88 245.997 1453.34 Q244.191 1449.78 240.557 1449.78 M240.557 1446.07 Q246.367 1446.07 249.423 1450.68 Q252.501 1455.26 252.501 1464.01 Q252.501 1472.74 249.423 1477.35 Q246.367 1481.93 240.557 1481.93 Q234.747 1481.93 231.668 1477.35 Q228.613 1472.74 228.613 1464.01 Q228.613 1455.26 231.668 1450.68 Q234.747 1446.07 240.557 1446.07 Z" fill="#000000" fill-rule="evenodd" fill-opacity="1" /><path clip-path="url(#clip320)" d="M270.719 1449.78 Q267.108 1449.78 265.279 1453.34 Q263.474 1456.88 263.474 1464.01 Q263.474 1471.12 265.279 1474.69 Q267.108 1478.23 270.719 1478.23 Q274.353 1478.23 276.159 1474.69 Q277.987 1471.12 277.987 1464.01 Q277.987 1456.88 276.159 1453.34 Q274.353 1449.78 270.719 1449.78 M270.719 1446.07 Q276.529 1446.07 279.585 1450.68 Q282.663 1455.26 282.663 1464.01 Q282.663 1472.74 279.585 1477.35 Q276.529 1481.93 270.719 1481.93 Q264.909 1481.93 261.83 1477.35 Q258.775 1472.74 258.775 1464.01 Q258.775 1455.26 261.83 1450.68 Q264.909 1446.07 270.719 1446.07 Z" fill="#000000" fill-rule="evenodd" fill-opacity="1" /><path clip-path="url(#clip320)" d="M311.83 1455.33 L302.455 1467.95 L312.316 1481.26 L307.293 1481.26 L299.747 1471.07 L292.2 1481.26 L287.177 1481.26 L297.247 1467.7 L288.034 1455.33 L293.057 1455.33 L299.932 1464.57 L306.807 1455.33 L311.83 1455.33 Z" fill="#000000" fill-rule="evenodd" fill-opacity="1" /><path clip-path="url(#clip320)" d="M319.746 1477.32 L327.385 1477.32 L327.385 1450.96 L319.075 1452.63 L319.075 1448.37 L327.339 1446.7 L332.015 1446.7 L332.015 1477.32 L339.654 1477.32 L339.654 1481.26 L319.746 1481.26 L319.746 1477.32 Z" fill="#000000" fill-rule="evenodd" fill-opacity="1" /><path clip-path="url(#clip320)" d="M359.098 1449.78 Q355.487 1449.78 353.658 1453.34 Q351.853 1456.88 351.853 1464.01 Q351.853 1471.12 353.658 1474.69 Q355.487 1478.23 359.098 1478.23 Q362.732 1478.23 364.538 1474.69 Q366.367 1471.12 366.367 1464.01 Q366.367 1456.88 364.538 1453.34 Q362.732 1449.78 359.098 1449.78 M359.098 1446.07 Q364.908 1446.07 367.964 1450.68 Q371.042 1455.26 371.042 1464.01 Q371.042 1472.74 367.964 1477.35 Q364.908 1481.93 359.098 1481.93 Q353.288 1481.93 350.209 1477.35 Q347.154 1472.74 347.154 1464.01 Q347.154 1455.26 350.209 1450.68 Q353.288 1446.07 359.098 1446.07 Z" fill="#000000" fill-rule="evenodd" fill-opacity="1" /><path clip-path="url(#clip320)" d="M384.26 1455.03 Q382.223 1455.03 381.042 1456.24 Q379.862 1457.46 379.862 1459.57 Q379.862 1461.65 381.042 1462.86 Q382.223 1464.08 384.26 1464.08 Q386.274 1464.08 387.454 1462.86 Q388.635 1461.65 388.635 1459.57 Q388.635 1457.46 387.454 1456.24 Q386.274 1455.03 384.26 1455.03 M390.232 1446.84 L390.232 1449.22 Q389.098 1448.76 387.941 1448.53 Q386.783 1448.27 385.649 1448.27 Q382.686 1448.27 381.112 1450.01 Q379.538 1451.77 379.306 1455.31 Q380.186 1454.18 381.505 1453.57 Q382.848 1452.97 384.422 1452.97 Q387.779 1452.97 389.723 1454.73 Q391.667 1456.51 391.667 1459.57 Q391.667 1462.51 389.63 1464.34 Q387.616 1466.14 384.26 1466.14 Q380.394 1466.14 378.357 1463.57 Q376.32 1461.01 376.32 1456.1 Q376.32 1451.51 378.82 1448.81 Q381.32 1446.07 385.533 1446.07 Q386.667 1446.07 387.825 1446.26 Q388.982 1446.47 390.232 1446.84 Z" fill="#000000" fill-rule="evenodd" fill-opacity="1" /><path clip-path="url(#clip320)" d="M671.32 1477.32 L678.959 1477.32 L678.959 1450.96 L670.648 1452.63 L670.648 1448.37 L678.912 1446.7 L683.588 1446.7 L683.588 1477.32 L691.227 1477.32 L691.227 1481.26 L671.32 1481.26 L671.32 1477.32 Z" fill="#000000" fill-rule="evenodd" fill-opacity="1" /><path clip-path="url(#clip320)" d="M710.671 1449.78 Q707.06 1449.78 705.232 1453.34 Q703.426 1456.88 703.426 1464.01 Q703.426 1471.12 705.232 1474.69 Q707.06 1478.23 710.671 1478.23 Q714.306 1478.23 716.111 1474.69 Q717.94 1471.12 717.94 1464.01 Q717.94 1456.88 716.111 1453.34 Q714.306 1449.78 710.671 1449.78 M710.671 1446.07 Q716.482 1446.07 719.537 1450.68 Q722.616 1455.26 722.616 1464.01 Q722.616 1472.74 719.537 1477.35 Q716.482 1481.93 710.671 1481.93 Q704.861 1481.93 701.783 1477.35 Q698.727 1472.74 698.727 1464.01 Q698.727 1455.26 701.783 1450.68 Q704.861 1446.07 710.671 1446.07 Z" fill="#000000" fill-rule="evenodd" fill-opacity="1" /><path clip-path="url(#clip320)" d="M730.833 1475.38 L735.718 1475.38 L735.718 1481.26 L730.833 1481.26 L730.833 1475.38 Z" fill="#000000" fill-rule="evenodd" fill-opacity="1" /><path clip-path="url(#clip320)" d="M755.903 1449.78 Q752.292 1449.78 750.463 1453.34 Q748.657 1456.88 748.657 1464.01 Q748.657 1471.12 750.463 1474.69 Q752.292 1478.23 755.903 1478.23 Q759.537 1478.23 761.342 1474.69 Q763.171 1471.12 763.171 1464.01 Q763.171 1456.88 761.342 1453.34 Q759.537 1449.78 755.903 1449.78 M755.903 1446.07 Q761.713 1446.07 764.768 1450.68 Q767.847 1455.26 767.847 1464.01 Q767.847 1472.74 764.768 1477.35 Q761.713 1481.93 755.903 1481.93 Q750.092 1481.93 747.014 1477.35 Q743.958 1472.74 743.958 1464.01 Q743.958 1455.26 747.014 1450.68 Q750.092 1446.07 755.903 1446.07 Z" fill="#000000" fill-rule="evenodd" fill-opacity="1" /><path clip-path="url(#clip320)" d="M786.065 1449.78 Q782.453 1449.78 780.625 1453.34 Q778.819 1456.88 778.819 1464.01 Q778.819 1471.12 780.625 1474.69 Q782.453 1478.23 786.065 1478.23 Q789.699 1478.23 791.504 1474.69 Q793.333 1471.12 793.333 1464.01 Q793.333 1456.88 791.504 1453.34 Q789.699 1449.78 786.065 1449.78 M786.065 1446.07 Q791.875 1446.07 794.93 1450.68 Q798.009 1455.26 798.009 1464.01 Q798.009 1472.74 794.93 1477.35 Q791.875 1481.93 786.065 1481.93 Q780.254 1481.93 777.176 1477.35 Q774.12 1472.74 774.12 1464.01 Q774.12 1455.26 777.176 1450.68 Q780.254 1446.07 786.065 1446.07 Z" fill="#000000" fill-rule="evenodd" fill-opacity="1" /><path clip-path="url(#clip320)" d="M827.175 1455.33 L817.8 1467.95 L827.662 1481.26 L822.638 1481.26 L815.092 1471.07 L807.546 1481.26 L802.523 1481.26 L812.592 1467.7 L803.379 1455.33 L808.402 1455.33 L815.277 1464.57 L822.152 1455.33 L827.175 1455.33 Z" fill="#000000" fill-rule="evenodd" fill-opacity="1" /><path clip-path="url(#clip320)" d="M835.092 1477.32 L842.731 1477.32 L842.731 1450.96 L834.421 1452.63 L834.421 1448.37 L842.685 1446.7 L847.36 1446.7 L847.36 1477.32 L854.999 1477.32 L854.999 1481.26 L835.092 1481.26 L835.092 1477.32 Z" fill="#000000" fill-rule="evenodd" fill-opacity="1" /><path clip-path="url(#clip320)" d="M874.444 1449.78 Q870.833 1449.78 869.004 1453.34 Q867.198 1456.88 867.198 1464.01 Q867.198 1471.12 869.004 1474.69 Q870.833 1478.23 874.444 1478.23 Q878.078 1478.23 879.883 1474.69 Q881.712 1471.12 881.712 1464.01 Q881.712 1456.88 879.883 1453.34 Q878.078 1449.78 874.444 1449.78 M874.444 1446.07 Q880.254 1446.07 883.309 1450.68 Q886.388 1455.26 886.388 1464.01 Q886.388 1472.74 883.309 1477.35 Q880.254 1481.93 874.444 1481.93 Q868.634 1481.93 865.555 1477.35 Q862.499 1472.74 862.499 1464.01 Q862.499 1455.26 865.555 1450.68 Q868.634 1446.07 874.444 1446.07 Z" fill="#000000" fill-rule="evenodd" fill-opacity="1" /><path clip-path="url(#clip320)" d="M899.606 1455.03 Q897.569 1455.03 896.388 1456.24 Q895.207 1457.46 895.207 1459.57 Q895.207 1461.65 896.388 1462.86 Q897.569 1464.08 899.606 1464.08 Q901.619 1464.08 902.8 1462.86 Q903.981 1461.65 903.981 1459.57 Q903.981 1457.46 902.8 1456.24 Q901.619 1455.03 899.606 1455.03 M905.578 1446.84 L905.578 1449.22 Q904.444 1448.76 903.286 1448.53 Q902.129 1448.27 900.994 1448.27 Q898.032 1448.27 896.457 1450.01 Q894.883 1451.77 894.652 1455.31 Q895.532 1454.18 896.851 1453.57 Q898.194 1452.97 899.768 1452.97 Q903.124 1452.97 905.069 1454.73 Q907.013 1456.51 907.013 1459.57 Q907.013 1462.51 904.976 1464.34 Q902.962 1466.14 899.606 1466.14 Q895.74 1466.14 893.703 1463.57 Q891.666 1461.01 891.666 1456.1 Q891.666 1451.51 894.166 1448.81 Q896.666 1446.07 900.879 1446.07 Q902.013 1446.07 903.17 1446.26 Q904.328 1446.47 905.578 1446.84 Z" fill="#000000" fill-rule="evenodd" fill-opacity="1" /><path clip-path="url(#clip320)" d="M1176.71 1477.32 L1193.03 1477.32 L1193.03 1481.26 L1171.09 1481.26 L1171.09 1477.32 Q1173.75 1474.57 1178.33 1469.94 Q1182.94 1465.29 1184.12 1463.95 Q1186.36 1461.42 1187.24 1459.69 Q1188.15 1457.93 1188.15 1456.24 Q1188.15 1453.48 1186.2 1451.75 Q1184.28 1450.01 1181.18 1450.01 Q1178.98 1450.01 1176.53 1450.77 Q1174.1 1451.54 1171.32 1453.09 L1171.32 1448.37 Q1174.14 1447.23 1176.6 1446.65 Q1179.05 1446.07 1181.09 1446.07 Q1186.46 1446.07 1189.65 1448.76 Q1192.85 1451.45 1192.85 1455.94 Q1192.85 1458.07 1192.04 1459.99 Q1191.25 1461.88 1189.14 1464.48 Q1188.56 1465.15 1185.46 1468.37 Q1182.36 1471.56 1176.71 1477.32 Z" fill="#000000" fill-rule="evenodd" fill-opacity="1" /><path clip-path="url(#clip320)" d="M1212.85 1449.78 Q1209.23 1449.78 1207.41 1453.34 Q1205.6 1456.88 1205.6 1464.01 Q1205.6 1471.12 1207.41 1474.69 Q1209.23 1478.23 1212.85 1478.23 Q1216.48 1478.23 1218.29 1474.69 Q1220.11 1471.12 1220.11 1464.01 Q1220.11 1456.88 1218.29 1453.34 Q1216.48 1449.78 1212.85 1449.78 M1212.85 1446.07 Q1218.66 1446.07 1221.71 1450.68 Q1224.79 1455.26 1224.79 1464.01 Q1224.79 1472.74 1221.71 1477.35 Q1218.66 1481.93 1212.85 1481.93 Q1207.04 1481.93 1203.96 1477.35 Q1200.9 1472.74 1200.9 1464.01 Q1200.9 1455.26 1203.96 1450.68 Q1207.04 1446.07 1212.85 1446.07 Z" fill="#000000" fill-rule="evenodd" fill-opacity="1" /><path clip-path="url(#clip320)" d="M1233.01 1475.38 L1237.89 1475.38 L1237.89 1481.26 L1233.01 1481.26 L1233.01 1475.38 Z" fill="#000000" fill-rule="evenodd" fill-opacity="1" /><path clip-path="url(#clip320)" d="M1258.08 1449.78 Q1254.47 1449.78 1252.64 1453.34 Q1250.83 1456.88 1250.83 1464.01 Q1250.83 1471.12 1252.64 1474.69 Q1254.47 1478.23 1258.08 1478.23 Q1261.71 1478.23 1263.52 1474.69 Q1265.35 1471.12 1265.35 1464.01 Q1265.35 1456.88 1263.52 1453.34 Q1261.71 1449.78 1258.08 1449.78 M1258.08 1446.07 Q1263.89 1446.07 1266.94 1450.68 Q1270.02 1455.26 1270.02 1464.01 Q1270.02 1472.74 1266.94 1477.35 Q1263.89 1481.93 1258.08 1481.93 Q1252.27 1481.93 1249.19 1477.35 Q1246.13 1472.74 1246.13 1464.01 Q1246.13 1455.26 1249.19 1450.68 Q1252.27 1446.07 1258.08 1446.07 Z" fill="#000000" fill-rule="evenodd" fill-opacity="1" /><path clip-path="url(#clip320)" d="M1288.24 1449.78 Q1284.63 1449.78 1282.8 1453.34 Q1280.99 1456.88 1280.99 1464.01 Q1280.99 1471.12 1282.8 1474.69 Q1284.63 1478.23 1288.24 1478.23 Q1291.87 1478.23 1293.68 1474.69 Q1295.51 1471.12 1295.51 1464.01 Q1295.51 1456.88 1293.68 1453.34 Q1291.87 1449.78 1288.24 1449.78 M1288.24 1446.07 Q1294.05 1446.07 1297.1 1450.68 Q1300.18 1455.26 1300.18 1464.01 Q1300.18 1472.74 1297.1 1477.35 Q1294.05 1481.93 1288.24 1481.93 Q1282.43 1481.93 1279.35 1477.35 Q1276.29 1472.74 1276.29 1464.01 Q1276.29 1455.26 1279.35 1450.68 Q1282.43 1446.07 1288.24 1446.07 Z" fill="#000000" fill-rule="evenodd" fill-opacity="1" /><path clip-path="url(#clip320)" d="M1329.35 1455.33 L1319.97 1467.95 L1329.84 1481.26 L1324.81 1481.26 L1317.27 1471.07 L1309.72 1481.26 L1304.7 1481.26 L1314.77 1467.7 L1305.55 1455.33 L1310.58 1455.33 L1317.45 1464.57 L1324.33 1455.33 L1329.35 1455.33 Z" fill="#000000" fill-rule="evenodd" fill-opacity="1" /><path clip-path="url(#clip320)" d="M1337.27 1477.32 L1344.91 1477.32 L1344.91 1450.96 L1336.6 1452.63 L1336.6 1448.37 L1344.86 1446.7 L1349.53 1446.7 L1349.53 1477.32 L1357.17 1477.32 L1357.17 1481.26 L1337.27 1481.26 L1337.27 1477.32 Z" fill="#000000" fill-rule="evenodd" fill-opacity="1" /><path clip-path="url(#clip320)" d="M1376.62 1449.78 Q1373.01 1449.78 1371.18 1453.34 Q1369.37 1456.88 1369.37 1464.01 Q1369.37 1471.12 1371.18 1474.69 Q1373.01 1478.23 1376.62 1478.23 Q1380.25 1478.23 1382.06 1474.69 Q1383.89 1471.12 1383.89 1464.01 Q1383.89 1456.88 1382.06 1453.34 Q1380.25 1449.78 1376.62 1449.78 M1376.62 1446.07 Q1382.43 1446.07 1385.48 1450.68 Q1388.56 1455.26 1388.56 1464.01 Q1388.56 1472.74 1385.48 1477.35 Q1382.43 1481.93 1376.62 1481.93 Q1370.81 1481.93 1367.73 1477.35 Q1364.67 1472.74 1364.67 1464.01 Q1364.67 1455.26 1367.73 1450.68 Q1370.81 1446.07 1376.62 1446.07 Z" fill="#000000" fill-rule="evenodd" fill-opacity="1" /><path clip-path="url(#clip320)" d="M1401.78 1455.03 Q1399.74 1455.03 1398.56 1456.24 Q1397.38 1457.46 1397.38 1459.57 Q1397.38 1461.65 1398.56 1462.86 Q1399.74 1464.08 1401.78 1464.08 Q1403.79 1464.08 1404.97 1462.86 Q1406.15 1461.65 1406.15 1459.57 Q1406.15 1457.46 1404.97 1456.24 Q1403.79 1455.03 1401.78 1455.03 M1407.75 1446.84 L1407.75 1449.22 Q1406.62 1448.76 1405.46 1448.53 Q1404.3 1448.27 1403.17 1448.27 Q1400.21 1448.27 1398.63 1450.01 Q1397.06 1451.77 1396.83 1455.31 Q1397.71 1454.18 1399.03 1453.57 Q1400.37 1452.97 1401.94 1452.97 Q1405.3 1452.97 1407.24 1454.73 Q1409.19 1456.51 1409.19 1459.57 Q1409.19 1462.51 1407.15 1464.34 Q1405.14 1466.14 1401.78 1466.14 Q1397.91 1466.14 1395.88 1463.57 Q1393.84 1461.01 1393.84 1456.1 Q1393.84 1451.51 1396.34 1448.81 Q1398.84 1446.07 1403.05 1446.07 Q1404.19 1446.07 1405.34 1446.26 Q1406.5 1446.47 1407.75 1446.84 Z" fill="#000000" fill-rule="evenodd" fill-opacity="1" /><path clip-path="url(#clip320)" d="M1688.09 1462.63 Q1691.44 1463.34 1693.32 1465.61 Q1695.22 1467.88 1695.22 1471.21 Q1695.22 1476.33 1691.7 1479.13 Q1688.18 1481.93 1681.7 1481.93 Q1679.52 1481.93 1677.21 1481.49 Q1674.92 1481.07 1672.46 1480.22 L1672.46 1475.7 Q1674.41 1476.84 1676.72 1477.42 Q1679.04 1478 1681.56 1478 Q1685.96 1478 1688.25 1476.26 Q1690.56 1474.52 1690.56 1471.21 Q1690.56 1468.16 1688.41 1466.45 Q1686.28 1464.71 1682.46 1464.71 L1678.43 1464.71 L1678.43 1460.87 L1682.65 1460.87 Q1686.1 1460.87 1687.93 1459.5 Q1689.75 1458.11 1689.75 1455.52 Q1689.75 1452.86 1687.86 1451.45 Q1685.98 1450.01 1682.46 1450.01 Q1680.54 1450.01 1678.34 1450.43 Q1676.14 1450.84 1673.5 1451.72 L1673.5 1447.56 Q1676.17 1446.82 1678.48 1446.45 Q1680.82 1446.07 1682.88 1446.07 Q1688.2 1446.07 1691.3 1448.51 Q1694.41 1450.91 1694.41 1455.03 Q1694.41 1457.9 1692.76 1459.89 Q1691.12 1461.86 1688.09 1462.63 Z" fill="#000000" fill-rule="evenodd" fill-opacity="1" /><path clip-path="url(#clip320)" d="M1714.08 1449.78 Q1710.47 1449.78 1708.64 1453.34 Q1706.84 1456.88 1706.84 1464.01 Q1706.84 1471.12 1708.64 1474.69 Q1710.47 1478.23 1714.08 1478.23 Q1717.72 1478.23 1719.52 1474.69 Q1721.35 1471.12 1721.35 1464.01 Q1721.35 1456.88 1719.52 1453.34 Q1717.72 1449.78 1714.08 1449.78 M1714.08 1446.07 Q1719.89 1446.07 1722.95 1450.68 Q1726.03 1455.26 1726.03 1464.01 Q1726.03 1472.74 1722.95 1477.35 Q1719.89 1481.93 1714.08 1481.93 Q1708.27 1481.93 1705.19 1477.35 Q1702.14 1472.74 1702.14 1464.01 Q1702.14 1455.26 1705.19 1450.68 Q1708.27 1446.07 1714.08 1446.07 Z" fill="#000000" fill-rule="evenodd" fill-opacity="1" /><path clip-path="url(#clip320)" d="M1734.24 1475.38 L1739.13 1475.38 L1739.13 1481.26 L1734.24 1481.26 L1734.24 1475.38 Z" fill="#000000" fill-rule="evenodd" fill-opacity="1" /><path clip-path="url(#clip320)" d="M1759.31 1449.78 Q1755.7 1449.78 1753.87 1453.34 Q1752.07 1456.88 1752.07 1464.01 Q1752.07 1471.12 1753.87 1474.69 Q1755.7 1478.23 1759.31 1478.23 Q1762.95 1478.23 1764.75 1474.69 Q1766.58 1471.12 1766.58 1464.01 Q1766.58 1456.88 1764.75 1453.34 Q1762.95 1449.78 1759.31 1449.78 M1759.31 1446.07 Q1765.12 1446.07 1768.18 1450.68 Q1771.26 1455.26 1771.26 1464.01 Q1771.26 1472.74 1768.18 1477.35 Q1765.12 1481.93 1759.31 1481.93 Q1753.5 1481.93 1750.42 1477.35 Q1747.37 1472.74 1747.37 1464.01 Q1747.37 1455.26 1750.42 1450.68 Q1753.5 1446.07 1759.31 1446.07 Z" fill="#000000" fill-rule="evenodd" fill-opacity="1" /><path clip-path="url(#clip320)" d="M1789.48 1449.78 Q1785.86 1449.78 1784.04 1453.34 Q1782.23 1456.88 1782.23 1464.01 Q1782.23 1471.12 1784.04 1474.69 Q1785.86 1478.23 1789.48 1478.23 Q1793.11 1478.23 1794.92 1474.69 Q1796.74 1471.12 1796.74 1464.01 Q1796.74 1456.88 1794.92 1453.34 Q1793.11 1449.78 1789.48 1449.78 M1789.48 1446.07 Q1795.29 1446.07 1798.34 1450.68 Q1801.42 1455.26 1801.42 1464.01 Q1801.42 1472.74 1798.34 1477.35 Q1795.29 1481.93 1789.48 1481.93 Q1783.67 1481.93 1780.59 1477.35 Q1777.53 1472.74 1777.53 1464.01 Q1777.53 1455.26 1780.59 1450.68 Q1783.67 1446.07 1789.48 1446.07 Z" fill="#000000" fill-rule="evenodd" fill-opacity="1" /><path clip-path="url(#clip320)" d="M1830.59 1455.33 L1821.21 1467.95 L1831.07 1481.26 L1826.05 1481.26 L1818.5 1471.07 L1810.96 1481.26 L1805.93 1481.26 L1816 1467.7 L1806.79 1455.33 L1811.81 1455.33 L1818.69 1464.57 L1825.56 1455.33 L1830.59 1455.33 Z" fill="#000000" fill-rule="evenodd" fill-opacity="1" /><path clip-path="url(#clip320)" d="M1838.5 1477.32 L1846.14 1477.32 L1846.14 1450.96 L1837.83 1452.63 L1837.83 1448.37 L1846.1 1446.7 L1850.77 1446.7 L1850.77 1477.32 L1858.41 1477.32 L1858.41 1481.26 L1838.5 1481.26 L1838.5 1477.32 Z" fill="#000000" fill-rule="evenodd" fill-opacity="1" /><path clip-path="url(#clip320)" d="M1877.85 1449.78 Q1874.24 1449.78 1872.42 1453.34 Q1870.61 1456.88 1870.61 1464.01 Q1870.61 1471.12 1872.42 1474.69 Q1874.24 1478.23 1877.85 1478.23 Q1881.49 1478.23 1883.29 1474.69 Q1885.12 1471.12 1885.12 1464.01 Q1885.12 1456.88 1883.29 1453.34 Q1881.49 1449.78 1877.85 1449.78 M1877.85 1446.07 Q1883.66 1446.07 1886.72 1450.68 Q1889.8 1455.26 1889.8 1464.01 Q1889.8 1472.74 1886.72 1477.35 Q1883.66 1481.93 1877.85 1481.93 Q1872.04 1481.93 1868.97 1477.35 Q1865.91 1472.74 1865.91 1464.01 Q1865.91 1455.26 1868.97 1450.68 Q1872.04 1446.07 1877.85 1446.07 Z" fill="#000000" fill-rule="evenodd" fill-opacity="1" /><path clip-path="url(#clip320)" d="M1903.02 1455.03 Q1900.98 1455.03 1899.8 1456.24 Q1898.62 1457.46 1898.62 1459.57 Q1898.62 1461.65 1899.8 1462.86 Q1900.98 1464.08 1903.02 1464.08 Q1905.03 1464.08 1906.21 1462.86 Q1907.39 1461.65 1907.39 1459.57 Q1907.39 1457.46 1906.21 1456.24 Q1905.03 1455.03 1903.02 1455.03 M1908.99 1446.84 L1908.99 1449.22 Q1907.85 1448.76 1906.7 1448.53 Q1905.54 1448.27 1904.41 1448.27 Q1901.44 1448.27 1899.87 1450.01 Q1898.29 1451.77 1898.06 1455.31 Q1898.94 1454.18 1900.26 1453.57 Q1901.6 1452.97 1903.18 1452.97 Q1906.54 1452.97 1908.48 1454.73 Q1910.42 1456.51 1910.42 1459.57 Q1910.42 1462.51 1908.39 1464.34 Q1906.37 1466.14 1903.02 1466.14 Q1899.15 1466.14 1897.11 1463.57 Q1895.08 1461.01 1895.08 1456.1 Q1895.08 1451.51 1897.58 1448.81 Q1900.08 1446.07 1904.29 1446.07 Q1905.42 1446.07 1906.58 1446.26 Q1907.74 1446.47 1908.99 1446.84 Z" fill="#000000" fill-rule="evenodd" fill-opacity="1" /><path clip-path="url(#clip320)" d="M2188.72 1450.77 L2176.92 1469.22 L2188.72 1469.22 L2188.72 1450.77 M2187.5 1446.7 L2193.38 1446.7 L2193.38 1469.22 L2198.31 1469.22 L2198.31 1473.11 L2193.38 1473.11 L2193.38 1481.26 L2188.72 1481.26 L2188.72 1473.11 L2173.12 1473.11 L2173.12 1468.6 L2187.5 1446.7 Z" fill="#000000" fill-rule="evenodd" fill-opacity="1" /><path clip-path="url(#clip320)" d="M2216.04 1449.78 Q2212.43 1449.78 2210.6 1453.34 Q2208.79 1456.88 2208.79 1464.01 Q2208.79 1471.12 2210.6 1474.69 Q2212.43 1478.23 2216.04 1478.23 Q2219.67 1478.23 2221.48 1474.69 Q2223.31 1471.12 2223.31 1464.01 Q2223.31 1456.88 2221.48 1453.34 Q2219.67 1449.78 2216.04 1449.78 M2216.04 1446.07 Q2221.85 1446.07 2224.9 1450.68 Q2227.98 1455.26 2227.98 1464.01 Q2227.98 1472.74 2224.9 1477.35 Q2221.85 1481.93 2216.04 1481.93 Q2210.23 1481.93 2207.15 1477.35 Q2204.09 1472.74 2204.09 1464.01 Q2204.09 1455.26 2207.15 1450.68 Q2210.23 1446.07 2216.04 1446.07 Z" fill="#000000" fill-rule="evenodd" fill-opacity="1" /><path clip-path="url(#clip320)" d="M2236.2 1475.38 L2241.08 1475.38 L2241.08 1481.26 L2236.2 1481.26 L2236.2 1475.38 Z" fill="#000000" fill-rule="evenodd" fill-opacity="1" /><path clip-path="url(#clip320)" d="M2261.27 1449.78 Q2257.66 1449.78 2255.83 1453.34 Q2254.02 1456.88 2254.02 1464.01 Q2254.02 1471.12 2255.83 1474.69 Q2257.66 1478.23 2261.27 1478.23 Q2264.9 1478.23 2266.71 1474.69 Q2268.54 1471.12 2268.54 1464.01 Q2268.54 1456.88 2266.71 1453.34 Q2264.9 1449.78 2261.27 1449.78 M2261.27 1446.07 Q2267.08 1446.07 2270.13 1450.68 Q2273.21 1455.26 2273.21 1464.01 Q2273.21 1472.74 2270.13 1477.35 Q2267.08 1481.93 2261.27 1481.93 Q2255.46 1481.93 2252.38 1477.35 Q2249.32 1472.74 2249.32 1464.01 Q2249.32 1455.26 2252.38 1450.68 Q2255.46 1446.07 2261.27 1446.07 Z" fill="#000000" fill-rule="evenodd" fill-opacity="1" /><path clip-path="url(#clip320)" d="M2291.43 1449.78 Q2287.82 1449.78 2285.99 1453.34 Q2284.18 1456.88 2284.18 1464.01 Q2284.18 1471.12 2285.99 1474.69 Q2287.82 1478.23 2291.43 1478.23 Q2295.06 1478.23 2296.87 1474.69 Q2298.7 1471.12 2298.7 1464.01 Q2298.7 1456.88 2296.87 1453.34 Q2295.06 1449.78 2291.43 1449.78 M2291.43 1446.07 Q2297.24 1446.07 2300.3 1450.68 Q2303.37 1455.26 2303.37 1464.01 Q2303.37 1472.74 2300.3 1477.35 Q2297.24 1481.93 2291.43 1481.93 Q2285.62 1481.93 2282.54 1477.35 Q2279.49 1472.74 2279.49 1464.01 Q2279.49 1455.26 2282.54 1450.68 Q2285.62 1446.07 2291.43 1446.07 Z" fill="#000000" fill-rule="evenodd" fill-opacity="1" /><path clip-path="url(#clip320)" d="M2332.54 1455.33 L2323.17 1467.95 L2333.03 1481.26 L2328 1481.26 L2320.46 1471.07 L2312.91 1481.26 L2307.89 1481.26 L2317.96 1467.7 L2308.74 1455.33 L2313.77 1455.33 L2320.64 1464.57 L2327.52 1455.33 L2332.54 1455.33 Z" fill="#000000" fill-rule="evenodd" fill-opacity="1" /><path clip-path="url(#clip320)" d="M2340.46 1477.32 L2348.1 1477.32 L2348.1 1450.96 L2339.79 1452.63 L2339.79 1448.37 L2348.05 1446.7 L2352.73 1446.7 L2352.73 1477.32 L2360.36 1477.32 L2360.36 1481.26 L2340.46 1481.26 L2340.46 1477.32 Z" fill="#000000" fill-rule="evenodd" fill-opacity="1" /><path clip-path="url(#clip320)" d="M2379.81 1449.78 Q2376.2 1449.78 2374.37 1453.34 Q2372.56 1456.88 2372.56 1464.01 Q2372.56 1471.12 2374.37 1474.69 Q2376.2 1478.23 2379.81 1478.23 Q2383.44 1478.23 2385.25 1474.69 Q2387.08 1471.12 2387.08 1464.01 Q2387.08 1456.88 2385.25 1453.34 Q2383.44 1449.78 2379.81 1449.78 M2379.81 1446.07 Q2385.62 1446.07 2388.67 1450.68 Q2391.75 1455.26 2391.75 1464.01 Q2391.75 1472.74 2388.67 1477.35 Q2385.62 1481.93 2379.81 1481.93 Q2374 1481.93 2370.92 1477.35 Q2367.86 1472.74 2367.86 1464.01 Q2367.86 1455.26 2370.92 1450.68 Q2374 1446.07 2379.81 1446.07 Z" fill="#000000" fill-rule="evenodd" fill-opacity="1" /><path clip-path="url(#clip320)" d="M2404.97 1455.03 Q2402.93 1455.03 2401.75 1456.24 Q2400.57 1457.46 2400.57 1459.57 Q2400.57 1461.65 2401.75 1462.86 Q2402.93 1464.08 2404.97 1464.08 Q2406.99 1464.08 2408.17 1462.86 Q2409.35 1461.65 2409.35 1459.57 Q2409.35 1457.46 2408.17 1456.24 Q2406.99 1455.03 2404.97 1455.03 M2410.94 1446.84 L2410.94 1449.22 Q2409.81 1448.76 2408.65 1448.53 Q2407.49 1448.27 2406.36 1448.27 Q2403.4 1448.27 2401.82 1450.01 Q2400.25 1451.77 2400.02 1455.31 Q2400.9 1454.18 2402.22 1453.57 Q2403.56 1452.97 2405.13 1452.97 Q2408.49 1452.97 2410.43 1454.73 Q2412.38 1456.51 2412.38 1459.57 Q2412.38 1462.51 2410.34 1464.34 Q2408.33 1466.14 2404.97 1466.14 Q2401.11 1466.14 2399.07 1463.57 Q2397.03 1461.01 2397.03 1456.1 Q2397.03 1451.51 2399.53 1448.81 Q2402.03 1446.07 2406.24 1446.07 Q2407.38 1446.07 2408.54 1446.26 Q2409.69 1446.47 2410.94 1446.84 Z" fill="#000000" fill-rule="evenodd" fill-opacity="1" /><path clip-path="url(#clip320)" d="M1128.53 1517.07 L1135.54 1517.07 L1135.54 1568.91 L1128.53 1568.91 L1128.53 1517.07 Z" fill="#000000" fill-rule="evenodd" fill-opacity="1" /><path clip-path="url(#clip320)" d="M1155.54 1518.98 L1155.54 1530.02 L1168.7 1530.02 L1168.7 1534.98 L1155.54 1534.98 L1155.54 1556.1 Q1155.54 1560.85 1156.83 1562.21 Q1158.15 1563.56 1162.14 1563.56 L1168.7 1563.56 L1168.7 1568.91 L1162.14 1568.91 Q1154.74 1568.91 1151.93 1566.16 Q1149.12 1563.39 1149.12 1556.1 L1149.12 1534.98 L1144.43 1534.98 L1144.43 1530.02 L1149.12 1530.02 L1149.12 1518.98 L1155.54 1518.98 Z" fill="#000000" fill-rule="evenodd" fill-opacity="1" /><path clip-path="url(#clip320)" d="M1210.37 1547.87 L1210.37 1550.99 L1180.99 1550.99 Q1181.41 1557.59 1184.95 1561.06 Q1188.53 1564.5 1194.88 1564.5 Q1198.56 1564.5 1202 1563.6 Q1205.47 1562.69 1208.88 1560.89 L1208.88 1566.93 Q1205.44 1568.39 1201.83 1569.15 Q1198.22 1569.91 1194.5 1569.91 Q1185.2 1569.91 1179.74 1564.5 Q1174.33 1559.08 1174.33 1549.85 Q1174.33 1540.3 1179.47 1534.71 Q1184.64 1529.08 1193.39 1529.08 Q1201.24 1529.08 1205.79 1534.15 Q1210.37 1539.19 1210.37 1547.87 M1203.98 1545.99 Q1203.91 1540.75 1201.03 1537.62 Q1198.18 1534.5 1193.46 1534.5 Q1188.11 1534.5 1184.88 1537.52 Q1181.69 1540.54 1181.2 1546.03 L1203.98 1545.99 Z" fill="#000000" fill-rule="evenodd" fill-opacity="1" /><path clip-path="url(#clip320)" d="M1243.39 1535.99 Q1242.31 1535.37 1241.03 1535.09 Q1239.78 1534.78 1238.25 1534.78 Q1232.83 1534.78 1229.92 1538.32 Q1227.04 1541.82 1227.04 1548.42 L1227.04 1568.91 L1220.61 1568.91 L1220.61 1530.02 L1227.04 1530.02 L1227.04 1536.06 Q1229.05 1532.52 1232.28 1530.82 Q1235.51 1529.08 1240.13 1529.08 Q1240.79 1529.08 1241.58 1529.19 Q1242.38 1529.26 1243.36 1529.43 L1243.39 1535.99 Z" fill="#000000" fill-rule="evenodd" fill-opacity="1" /><path clip-path="url(#clip320)" d="M1267.77 1549.36 Q1260.02 1549.36 1257.04 1551.13 Q1254.05 1552.9 1254.05 1557.17 Q1254.05 1560.57 1256.27 1562.59 Q1258.53 1564.57 1262.38 1564.57 Q1267.7 1564.57 1270.89 1560.82 Q1274.12 1557.03 1274.12 1550.78 L1274.12 1549.36 L1267.77 1549.36 M1280.51 1546.72 L1280.51 1568.91 L1274.12 1568.91 L1274.12 1563.01 Q1271.93 1566.55 1268.67 1568.25 Q1265.4 1569.91 1260.68 1569.91 Q1254.71 1569.91 1251.17 1566.58 Q1247.66 1563.21 1247.66 1557.59 Q1247.66 1551.03 1252.04 1547.69 Q1256.45 1544.36 1265.16 1544.36 L1274.12 1544.36 L1274.12 1543.73 Q1274.12 1539.32 1271.2 1536.93 Q1268.32 1534.5 1263.08 1534.5 Q1259.74 1534.5 1256.58 1535.3 Q1253.42 1536.1 1250.51 1537.69 L1250.51 1531.79 Q1254.02 1530.44 1257.31 1529.78 Q1260.61 1529.08 1263.74 1529.08 Q1272.17 1529.08 1276.34 1533.46 Q1280.51 1537.83 1280.51 1546.72 Z" fill="#000000" fill-rule="evenodd" fill-opacity="1" /><path clip-path="url(#clip320)" d="M1299.99 1518.98 L1299.99 1530.02 L1313.15 1530.02 L1313.15 1534.98 L1299.99 1534.98 L1299.99 1556.1 Q1299.99 1560.85 1301.27 1562.21 Q1302.59 1563.56 1306.58 1563.56 L1313.15 1563.56 L1313.15 1568.91 L1306.58 1568.91 Q1299.19 1568.91 1296.38 1566.16 Q1293.56 1563.39 1293.56 1556.1 L1293.56 1534.98 L1288.88 1534.98 L1288.88 1530.02 L1293.56 1530.02 L1293.56 1518.98 L1299.99 1518.98 Z" fill="#000000" fill-rule="evenodd" fill-opacity="1" /><path clip-path="url(#clip320)" d="M1321.55 1530.02 L1327.94 1530.02 L1327.94 1568.91 L1321.55 1568.91 L1321.55 1530.02 M1321.55 1514.88 L1327.94 1514.88 L1327.94 1522.97 L1321.55 1522.97 L1321.55 1514.88 Z" fill="#000000" fill-rule="evenodd" fill-opacity="1" /><path clip-path="url(#clip320)" d="M1356.38 1534.5 Q1351.24 1534.5 1348.25 1538.53 Q1345.26 1542.52 1345.26 1549.5 Q1345.26 1556.48 1348.22 1560.51 Q1351.2 1564.5 1356.38 1564.5 Q1361.48 1564.5 1364.47 1560.47 Q1367.45 1556.44 1367.45 1549.5 Q1367.45 1542.59 1364.47 1538.56 Q1361.48 1534.5 1356.38 1534.5 M1356.38 1529.08 Q1364.71 1529.08 1369.47 1534.5 Q1374.22 1539.91 1374.22 1549.5 Q1374.22 1559.05 1369.47 1564.5 Q1364.71 1569.91 1356.38 1569.91 Q1348.01 1569.91 1343.25 1564.5 Q1338.53 1559.05 1338.53 1549.5 Q1338.53 1539.91 1343.25 1534.5 Q1348.01 1529.08 1356.38 1529.08 Z" fill="#000000" fill-rule="evenodd" fill-opacity="1" /><path clip-path="url(#clip320)" d="M1417.14 1545.44 L1417.14 1568.91 L1410.75 1568.91 L1410.75 1545.64 Q1410.75 1540.12 1408.6 1537.38 Q1406.44 1534.64 1402.14 1534.64 Q1396.97 1534.64 1393.98 1537.94 Q1390.99 1541.23 1390.99 1546.93 L1390.99 1568.91 L1384.57 1568.91 L1384.57 1530.02 L1390.99 1530.02 L1390.99 1536.06 Q1393.29 1532.55 1396.38 1530.82 Q1399.5 1529.08 1403.56 1529.08 Q1410.26 1529.08 1413.7 1533.25 Q1417.14 1537.38 1417.14 1545.44 Z" fill="#000000" fill-rule="evenodd" fill-opacity="1" /><path clip-path="url(#clip320)" d="M1454.67 1531.16 L1454.67 1537.21 Q1451.97 1535.82 1449.05 1535.12 Q1446.13 1534.43 1443.01 1534.43 Q1438.25 1534.43 1435.85 1535.89 Q1433.49 1537.35 1433.49 1540.26 Q1433.49 1542.48 1435.19 1543.77 Q1436.9 1545.02 1442.04 1546.16 L1444.22 1546.65 Q1451.03 1548.11 1453.88 1550.78 Q1456.76 1553.42 1456.76 1558.18 Q1456.76 1563.6 1452.45 1566.76 Q1448.18 1569.91 1440.68 1569.91 Q1437.56 1569.91 1434.15 1569.29 Q1430.79 1568.7 1427.04 1567.48 L1427.04 1560.89 Q1430.58 1562.73 1434.01 1563.66 Q1437.45 1564.57 1440.82 1564.57 Q1445.33 1564.57 1447.76 1563.04 Q1450.19 1561.48 1450.19 1558.66 Q1450.19 1556.06 1448.42 1554.67 Q1446.69 1553.28 1440.75 1552 L1438.53 1551.48 Q1432.59 1550.23 1429.95 1547.66 Q1427.31 1545.05 1427.31 1540.54 Q1427.31 1535.05 1431.2 1532.07 Q1435.09 1529.08 1442.24 1529.08 Q1445.79 1529.08 1448.91 1529.6 Q1452.04 1530.12 1454.67 1531.16 Z" fill="#000000" fill-rule="evenodd" fill-opacity="1" /><polyline clip-path="url(#clip322)" style="stroke:#000000; stroke-linecap:round; stroke-linejoin:round; stroke-width:2; stroke-opacity:0.1; fill:none" points="
  232.531,1095.24 2352.76,1095.24 
  "/>
<polyline clip-path="url(#clip322)" style="stroke:#000000; stroke-linecap:round; stroke-linejoin:round; stroke-width:2; stroke-opacity:0.1; fill:none" points="
  232.531,748.745 2352.76,748.745 
  "/>
<polyline clip-path="url(#clip322)" style="stroke:#000000; stroke-linecap:round; stroke-linejoin:round; stroke-width:2; stroke-opacity:0.1; fill:none" points="
  232.531,402.245 2352.76,402.245 
  "/>
<polyline clip-path="url(#clip322)" style="stroke:#000000; stroke-linecap:round; stroke-linejoin:round; stroke-width:2; stroke-opacity:0.1; fill:none" points="
  232.531,55.7447 2352.76,55.7447 
  "/>
<polyline clip-path="url(#clip320)" style="stroke:#000000; stroke-linecap:round; stroke-linejoin:round; stroke-width:4; stroke-opacity:1; fill:none" points="
  232.531,1418.86 232.531,47.2441 
  "/>
<polyline clip-path="url(#clip320)" style="stroke:#000000; stroke-linecap:round; stroke-linejoin:round; stroke-width:4; stroke-opacity:1; fill:none" points="
  232.531,1095.24 251.429,1095.24 
  "/>
<polyline clip-path="url(#clip320)" style="stroke:#000000; stroke-linecap:round; stroke-linejoin:round; stroke-width:4; stroke-opacity:1; fill:none" points="
  232.531,748.745 251.429,748.745 
  "/>
<polyline clip-path="url(#clip320)" style="stroke:#000000; stroke-linecap:round; stroke-linejoin:round; stroke-width:4; stroke-opacity:1; fill:none" points="
  232.531,402.245 251.429,402.245 
  "/>
<polyline clip-path="url(#clip320)" style="stroke:#000000; stroke-linecap:round; stroke-linejoin:round; stroke-width:4; stroke-opacity:1; fill:none" points="
  232.531,55.7447 251.429,55.7447 
  "/>
<path clip-path="url(#clip320)" d="M182.156 1075.44 L164.448 1103.11 L182.156 1103.11 L182.156 1075.44 M180.316 1069.32 L189.135 1069.32 L189.135 1103.11 L196.531 1103.11 L196.531 1108.94 L189.135 1108.94 L189.135 1121.16 L182.156 1121.16 L182.156 1108.94 L158.754 1108.94 L158.754 1102.17 L180.316 1069.32 Z" fill="#000000" fill-rule="evenodd" fill-opacity="1" /><path clip-path="url(#clip320)" d="M179.24 745.949 Q174.517 745.949 171.74 749.179 Q168.997 752.408 168.997 758.033 Q168.997 763.623 171.74 766.887 Q174.517 770.116 179.24 770.116 Q183.962 770.116 186.705 766.887 Q189.483 763.623 189.483 758.033 Q189.483 752.408 186.705 749.179 Q183.962 745.949 179.24 745.949 M193.163 723.97 L193.163 730.359 Q190.524 729.109 187.816 728.45 Q185.142 727.79 182.503 727.79 Q175.559 727.79 171.878 732.477 Q168.233 737.165 167.712 746.644 Q169.76 743.623 172.851 742.026 Q175.941 740.394 179.656 740.394 Q187.469 740.394 191.983 745.151 Q196.531 749.873 196.531 758.033 Q196.531 766.019 191.809 770.845 Q187.087 775.672 179.24 775.672 Q170.247 775.672 165.49 768.797 Q160.733 761.887 160.733 748.797 Q160.733 736.505 166.566 729.213 Q172.399 721.887 182.226 721.887 Q184.865 721.887 187.538 722.408 Q190.246 722.929 193.163 723.97 Z" fill="#000000" fill-rule="evenodd" fill-opacity="1" /><path clip-path="url(#clip320)" d="M178.753 403.547 Q173.753 403.547 170.872 406.22 Q168.024 408.894 168.024 413.581 Q168.024 418.269 170.872 420.942 Q173.753 423.616 178.753 423.616 Q183.753 423.616 186.635 420.942 Q189.517 418.234 189.517 413.581 Q189.517 408.894 186.635 406.22 Q183.788 403.547 178.753 403.547 M171.74 400.561 Q167.226 399.449 164.691 396.359 Q162.191 393.269 162.191 388.825 Q162.191 382.609 166.601 378.998 Q171.045 375.387 178.753 375.387 Q186.496 375.387 190.906 378.998 Q195.316 382.609 195.316 388.825 Q195.316 393.269 192.781 396.359 Q190.281 399.449 185.802 400.561 Q190.871 401.741 193.684 405.179 Q196.531 408.616 196.531 413.581 Q196.531 421.116 191.913 425.144 Q187.33 429.172 178.753 429.172 Q170.177 429.172 165.559 425.144 Q160.976 421.116 160.976 413.581 Q160.976 408.616 163.823 405.179 Q166.67 401.741 171.74 400.561 M169.17 389.484 Q169.17 393.512 171.67 395.769 Q174.205 398.026 178.753 398.026 Q183.267 398.026 185.802 395.769 Q188.371 393.512 188.371 389.484 Q188.371 385.457 185.802 383.2 Q183.267 380.943 178.753 380.943 Q174.205 380.943 171.67 383.2 Q169.17 385.457 169.17 389.484 Z" fill="#000000" fill-rule="evenodd" fill-opacity="1" /><path clip-path="url(#clip320)" d="M119.587 75.7619 L131.045 75.7619 L131.045 36.2135 L118.58 38.7135 L118.58 32.3246 L130.976 29.8247 L137.99 29.8247 L137.99 75.7619 L149.448 75.7619 L149.448 81.6647 L119.587 81.6647 L119.587 75.7619 Z" fill="#000000" fill-rule="evenodd" fill-opacity="1" /><path clip-path="url(#clip320)" d="M178.615 34.4427 Q173.198 34.4427 170.455 39.7899 Q167.747 45.1024 167.747 55.7967 Q167.747 66.4564 170.455 71.8036 Q173.198 77.1161 178.615 77.1161 Q184.066 77.1161 186.774 71.8036 Q189.517 66.4564 189.517 55.7967 Q189.517 45.1024 186.774 39.7899 Q184.066 34.4427 178.615 34.4427 M178.615 28.8872 Q187.33 28.8872 191.913 35.7969 Q196.531 42.6718 196.531 55.7967 Q196.531 68.887 191.913 75.7966 Q187.33 82.6716 178.615 82.6716 Q169.899 82.6716 165.281 75.7966 Q160.698 68.887 160.698 55.7967 Q160.698 42.6718 165.281 35.7969 Q169.899 28.8872 178.615 28.8872 Z" fill="#000000" fill-rule="evenodd" fill-opacity="1" /><path clip-path="url(#clip320)" d="M22.0978 1166.4 L47.8963 1175.91 L47.8963 1156.85 L22.0978 1166.4 M15.1882 1170.36 L15.1882 1162.41 L67.0282 1142.65 L67.0282 1149.94 L53.7296 1154.66 L53.7296 1178.03 L67.0282 1182.75 L67.0282 1190.15 L15.1882 1170.36 Z" fill="#000000" fill-rule="evenodd" fill-opacity="1" /><path clip-path="url(#clip320)" d="M28.1395 1144.11 L28.1395 1137.34 L60.7782 1125.19 L28.1395 1113.03 L28.1395 1106.26 L67.0282 1120.85 L67.0282 1129.53 L28.1395 1144.11 Z" fill="#000000" fill-rule="evenodd" fill-opacity="1" /><path clip-path="url(#clip320)" d="M45.9866 1064.18 L49.1116 1064.18 L49.1116 1093.55 Q55.7088 1093.14 59.181 1089.6 Q62.6185 1086.02 62.6185 1079.66 Q62.6185 1075.98 61.7157 1072.55 Q60.8129 1069.07 59.0074 1065.67 L65.049 1065.67 Q66.5073 1069.11 67.2712 1072.72 Q68.0351 1076.33 68.0351 1080.05 Q68.0351 1089.35 62.6185 1094.8 Q57.2018 1100.22 47.9658 1100.22 Q38.4172 1100.22 32.827 1095.08 Q27.202 1089.91 27.202 1081.16 Q27.202 1073.31 32.2714 1068.76 Q37.3061 1064.18 45.9866 1064.18 M44.1116 1070.57 Q38.8686 1070.64 35.7436 1073.52 Q32.6186 1076.37 32.6186 1081.09 Q32.6186 1086.44 35.6394 1089.66 Q38.6603 1092.86 44.1463 1093.35 L44.1116 1070.57 Z" fill="#000000" fill-rule="evenodd" fill-opacity="1" /><path clip-path="url(#clip320)" d="M34.1117 1031.16 Q33.4867 1032.23 33.2089 1033.52 Q32.8964 1034.77 32.8964 1036.3 Q32.8964 1041.71 36.438 1044.63 Q39.945 1047.51 46.5422 1047.51 L67.0282 1047.51 L67.0282 1053.94 L28.1395 1053.94 L28.1395 1047.51 L34.1811 1047.51 Q30.6395 1045.5 28.9381 1042.27 Q27.202 1039.04 27.202 1034.42 Q27.202 1033.76 27.3061 1032.96 Q27.3756 1032.16 27.5492 1031.19 L34.1117 1031.16 Z" fill="#000000" fill-rule="evenodd" fill-opacity="1" /><path clip-path="url(#clip320)" d="M47.4797 1006.78 Q47.4797 1014.53 49.2505 1017.51 Q51.0213 1020.5 55.2921 1020.5 Q58.6949 1020.5 60.7087 1018.28 Q62.6879 1016.02 62.6879 1012.17 Q62.6879 1006.85 58.9379 1003.66 Q55.1532 1000.43 48.9033 1000.43 L47.4797 1000.43 L47.4797 1006.78 M44.8408 994.04 L67.0282 994.04 L67.0282 1000.43 L61.1254 1000.43 Q64.6671 1002.62 66.3684 1005.88 Q68.0351 1009.14 68.0351 1013.87 Q68.0351 1019.84 64.7018 1023.38 Q61.3337 1026.89 55.7088 1026.89 Q49.1463 1026.89 45.813 1022.51 Q42.4797 1018.1 42.4797 1009.39 L42.4797 1000.43 L41.8547 1000.43 Q37.445 1000.43 35.0492 1003.35 Q32.6186 1006.23 32.6186 1011.47 Q32.6186 1014.8 33.4172 1017.96 Q34.2158 1021.12 35.813 1024.04 L29.9103 1024.04 Q28.5561 1020.53 27.8964 1017.23 Q27.202 1013.94 27.202 1010.81 Q27.202 1002.37 31.577 998.207 Q35.9519 994.04 44.8408 994.04 Z" fill="#000000" fill-rule="evenodd" fill-opacity="1" /><path clip-path="url(#clip320)" d="M47.1324 955.29 Q40.188 955.29 36.3686 958.172 Q32.5492 961.019 32.5492 966.193 Q32.5492 971.332 36.3686 974.214 Q40.188 977.061 47.1324 977.061 Q54.0421 977.061 57.8615 974.214 Q61.681 971.332 61.681 966.193 Q61.681 961.019 57.8615 958.172 Q54.0421 955.29 47.1324 955.29 M62.2018 948.902 Q72.1323 948.902 76.9587 953.311 Q81.8197 957.721 81.8197 966.818 Q81.8197 970.186 81.2989 973.172 Q80.8128 976.158 79.7711 978.971 L73.5559 978.971 Q75.0837 976.158 75.8128 973.415 Q76.542 970.672 76.542 967.825 Q76.542 961.54 73.2434 958.415 Q69.9795 955.29 63.3476 955.29 L60.1879 955.29 Q63.6254 957.27 65.3268 960.36 Q67.0282 963.45 67.0282 967.756 Q67.0282 974.908 61.5768 979.283 Q56.1254 983.658 47.1324 983.658 Q38.1047 983.658 32.6533 979.283 Q27.202 974.908 27.202 967.756 Q27.202 963.45 28.9034 960.36 Q30.6047 957.27 34.0422 955.29 L28.1395 955.29 L28.1395 948.902 L62.2018 948.902 Z" fill="#000000" fill-rule="evenodd" fill-opacity="1" /><path clip-path="url(#clip320)" d="M45.9866 902.478 L49.1116 902.478 L49.1116 931.853 Q55.7088 931.436 59.181 927.895 Q62.6185 924.318 62.6185 917.964 Q62.6185 914.284 61.7157 910.846 Q60.8129 907.374 59.0074 903.971 L65.049 903.971 Q66.5073 907.409 67.2712 911.02 Q68.0351 914.631 68.0351 918.346 Q68.0351 927.652 62.6185 933.103 Q57.2018 938.52 47.9658 938.52 Q38.4172 938.52 32.827 933.381 Q27.202 928.207 27.202 919.457 Q27.202 911.61 32.2714 907.061 Q37.3061 902.478 45.9866 902.478 M44.1116 908.867 Q38.8686 908.936 35.7436 911.818 Q32.6186 914.666 32.6186 919.388 Q32.6186 924.735 35.6394 927.964 Q38.6603 931.159 44.1463 931.645 L44.1116 908.867 Z" fill="#000000" fill-rule="evenodd" fill-opacity="1" /><path clip-path="url(#clip320)" d="M19.1812 830.291 L26.577 830.291 Q23.2784 833.833 21.6465 837.86 Q20.0145 841.853 20.0145 846.367 Q20.0145 855.256 25.4659 859.978 Q30.8825 864.701 41.1602 864.701 Q51.4032 864.701 56.8546 859.978 Q62.2712 855.256 62.2712 846.367 Q62.2712 841.853 60.6393 837.86 Q59.0074 833.833 55.7088 830.291 L63.0351 830.291 Q65.5351 833.972 66.7851 838.103 Q68.0351 842.201 68.0351 846.784 Q68.0351 858.555 60.8476 865.326 Q53.6255 872.096 41.1602 872.096 Q28.6603 872.096 21.4728 865.326 Q14.2507 858.555 14.2507 846.784 Q14.2507 842.131 15.5007 838.034 Q16.7159 833.902 19.1812 830.291 Z" fill="#000000" fill-rule="evenodd" fill-opacity="1" /><path clip-path="url(#clip320)" d="M32.6186 804.666 Q32.6186 809.805 36.6464 812.791 Q40.6394 815.777 47.6185 815.777 Q54.5977 815.777 58.6254 812.826 Q62.6185 809.84 62.6185 804.666 Q62.6185 799.562 58.5907 796.576 Q54.5629 793.59 47.6185 793.59 Q40.7089 793.59 36.6811 796.576 Q32.6186 799.562 32.6186 804.666 M27.202 804.666 Q27.202 796.333 32.6186 791.576 Q38.0353 786.819 47.6185 786.819 Q57.1671 786.819 62.6185 791.576 Q68.0351 796.333 68.0351 804.666 Q68.0351 813.034 62.6185 817.791 Q57.1671 822.513 47.6185 822.513 Q38.0353 822.513 32.6186 817.791 Q27.202 813.034 27.202 804.666 Z" fill="#000000" fill-rule="evenodd" fill-opacity="1" /><path clip-path="url(#clip320)" d="M35.6047 745.951 Q31.2992 743.555 29.2506 740.222 Q27.202 736.889 27.202 732.375 Q27.202 726.299 31.4728 723 Q35.7089 719.701 43.5561 719.701 L67.0282 719.701 L67.0282 726.125 L43.7644 726.125 Q38.1741 726.125 35.4658 728.104 Q32.7575 730.083 32.7575 734.146 Q32.7575 739.111 36.0561 741.993 Q39.3547 744.875 45.0491 744.875 L67.0282 744.875 L67.0282 751.298 L43.7644 751.298 Q38.1394 751.298 35.4658 753.278 Q32.7575 755.257 32.7575 759.389 Q32.7575 764.284 36.0908 767.166 Q39.3894 770.048 45.0491 770.048 L67.0282 770.048 L67.0282 776.472 L28.1395 776.472 L28.1395 770.048 L34.1811 770.048 Q30.6047 767.861 28.9034 764.805 Q27.202 761.75 27.202 757.548 Q27.202 753.312 29.3547 750.361 Q31.5075 747.375 35.6047 745.951 Z" fill="#000000" fill-rule="evenodd" fill-opacity="1" /><path clip-path="url(#clip320)" d="M61.1949 700.778 L81.8197 700.778 L81.8197 707.201 L28.1395 707.201 L28.1395 700.778 L34.0422 700.778 Q30.57 698.764 28.9034 695.708 Q27.202 692.618 27.202 688.347 Q27.202 681.264 32.827 676.854 Q38.4519 672.41 47.6185 672.41 Q56.7852 672.41 62.4101 676.854 Q68.0351 681.264 68.0351 688.347 Q68.0351 692.618 66.3684 695.708 Q64.6671 698.764 61.1949 700.778 M47.6185 679.042 Q40.57 679.042 36.5769 681.958 Q32.5492 684.84 32.5492 689.91 Q32.5492 694.979 36.5769 697.896 Q40.57 700.778 47.6185 700.778 Q54.6671 700.778 58.6949 697.896 Q62.6879 694.979 62.6879 689.91 Q62.6879 684.84 58.6949 681.958 Q54.6671 679.042 47.6185 679.042 Z" fill="#000000" fill-rule="evenodd" fill-opacity="1" /><path clip-path="url(#clip320)" d="M13.0007 661.82 L13.0007 655.431 L67.0282 655.431 L67.0282 661.82 L13.0007 661.82 Z" fill="#000000" fill-rule="evenodd" fill-opacity="1" /><path clip-path="url(#clip320)" d="M45.9866 608.799 L49.1116 608.799 L49.1116 638.174 Q55.7088 637.757 59.181 634.216 Q62.6185 630.639 62.6185 624.285 Q62.6185 620.605 61.7157 617.167 Q60.8129 613.695 59.0074 610.292 L65.049 610.292 Q66.5073 613.73 67.2712 617.341 Q68.0351 620.952 68.0351 624.667 Q68.0351 633.973 62.6185 639.424 Q57.2018 644.841 47.9658 644.841 Q38.4172 644.841 32.827 639.702 Q27.202 634.528 27.202 625.778 Q27.202 617.931 32.2714 613.382 Q37.3061 608.799 45.9866 608.799 M44.1116 615.188 Q38.8686 615.257 35.7436 618.139 Q32.6186 620.987 32.6186 625.709 Q32.6186 631.056 35.6394 634.285 Q38.6603 637.48 44.1463 637.966 L44.1116 615.188 Z" fill="#000000" fill-rule="evenodd" fill-opacity="1" /><path clip-path="url(#clip320)" d="M17.0979 591.994 L28.1395 591.994 L28.1395 578.834 L33.1047 578.834 L33.1047 591.994 L54.2157 591.994 Q58.9726 591.994 60.3268 590.709 Q61.681 589.39 61.681 585.397 L61.681 578.834 L67.0282 578.834 L67.0282 585.397 Q67.0282 592.792 64.2851 595.605 Q61.5074 598.417 54.2157 598.417 L33.1047 598.417 L33.1047 603.105 L28.1395 603.105 L28.1395 598.417 L17.0979 598.417 L17.0979 591.994 Z" fill="#000000" fill-rule="evenodd" fill-opacity="1" /><path clip-path="url(#clip320)" d="M28.1395 570.431 L28.1395 564.042 L67.0282 564.042 L67.0282 570.431 L28.1395 570.431 M13.0007 570.431 L13.0007 564.042 L21.0909 564.042 L21.0909 570.431 L13.0007 570.431 Z" fill="#000000" fill-rule="evenodd" fill-opacity="1" /><path clip-path="url(#clip320)" d="M32.6186 535.605 Q32.6186 540.744 36.6464 543.73 Q40.6394 546.716 47.6185 546.716 Q54.5977 546.716 58.6254 543.765 Q62.6185 540.779 62.6185 535.605 Q62.6185 530.501 58.5907 527.515 Q54.5629 524.529 47.6185 524.529 Q40.7089 524.529 36.6811 527.515 Q32.6186 530.501 32.6186 535.605 M27.202 535.605 Q27.202 527.272 32.6186 522.515 Q38.0353 517.758 47.6185 517.758 Q57.1671 517.758 62.6185 522.515 Q68.0351 527.272 68.0351 535.605 Q68.0351 543.973 62.6185 548.73 Q57.1671 553.452 47.6185 553.452 Q38.0353 553.452 32.6186 548.73 Q27.202 543.973 27.202 535.605 Z" fill="#000000" fill-rule="evenodd" fill-opacity="1" /><path clip-path="url(#clip320)" d="M43.5561 474.842 L67.0282 474.842 L67.0282 481.23 L43.7644 481.23 Q38.2436 481.23 35.5005 483.383 Q32.7575 485.536 32.7575 489.841 Q32.7575 495.015 36.0561 498.001 Q39.3547 500.987 45.0491 500.987 L67.0282 500.987 L67.0282 507.411 L28.1395 507.411 L28.1395 500.987 L34.1811 500.987 Q30.6742 498.696 28.9381 495.605 Q27.202 492.48 27.202 488.418 Q27.202 481.717 31.3686 478.279 Q35.5005 474.842 43.5561 474.842 Z" fill="#000000" fill-rule="evenodd" fill-opacity="1" /><path clip-path="url(#clip320)" d="M15.1882 446.404 L15.1882 402.55 L21.0909 402.55 L21.0909 420.953 L67.0282 420.953 L67.0282 428.002 L21.0909 428.002 L21.0909 446.404 L15.1882 446.404 Z" fill="#000000" fill-rule="evenodd" fill-opacity="1" /><path clip-path="url(#clip320)" d="M28.1395 398.245 L28.1395 391.856 L67.0282 391.856 L67.0282 398.245 L28.1395 398.245 M13.0007 398.245 L13.0007 391.856 L21.0909 391.856 L21.0909 398.245 L13.0007 398.245 Z" fill="#000000" fill-rule="evenodd" fill-opacity="1" /><path clip-path="url(#clip320)" d="M35.6047 348.21 Q31.2992 345.814 29.2506 342.481 Q27.202 339.148 27.202 334.634 Q27.202 328.558 31.4728 325.259 Q35.7089 321.96 43.5561 321.96 L67.0282 321.96 L67.0282 328.384 L43.7644 328.384 Q38.1741 328.384 35.4658 330.363 Q32.7575 332.342 32.7575 336.405 Q32.7575 341.37 36.0561 344.252 Q39.3547 347.134 45.0491 347.134 L67.0282 347.134 L67.0282 353.557 L43.7644 353.557 Q38.1394 353.557 35.4658 355.537 Q32.7575 357.516 32.7575 361.648 Q32.7575 366.544 36.0908 369.425 Q39.3894 372.307 45.0491 372.307 L67.0282 372.307 L67.0282 378.731 L28.1395 378.731 L28.1395 372.307 L34.1811 372.307 Q30.6047 370.12 28.9034 367.064 Q27.202 364.009 27.202 359.807 Q27.202 355.571 29.3547 352.62 Q31.5075 349.634 35.6047 348.21 Z" fill="#000000" fill-rule="evenodd" fill-opacity="1" /><path clip-path="url(#clip320)" d="M45.9866 275.954 L49.1116 275.954 L49.1116 305.329 Q55.7088 304.912 59.181 301.37 Q62.6185 297.794 62.6185 291.44 Q62.6185 287.759 61.7157 284.322 Q60.8129 280.85 59.0074 277.447 L65.049 277.447 Q66.5073 280.884 67.2712 284.495 Q68.0351 288.106 68.0351 291.822 Q68.0351 301.127 62.6185 306.579 Q57.2018 311.995 47.9658 311.995 Q38.4172 311.995 32.827 306.856 Q27.202 301.683 27.202 292.933 Q27.202 285.086 32.2714 280.537 Q37.3061 275.954 45.9866 275.954 M44.1116 282.343 Q38.8686 282.412 35.7436 285.294 Q32.6186 288.141 32.6186 292.863 Q32.6186 298.211 35.6394 301.44 Q38.6603 304.634 44.1463 305.12 L44.1116 282.343 Z" fill="#000000" fill-rule="evenodd" fill-opacity="1" /><polyline clip-path="url(#clip322)" style="stroke:#009af9; stroke-linecap:round; stroke-linejoin:round; stroke-width:4; stroke-opacity:1; fill:none" points="
  818.909,1186.2 823.922,620.973 
  "/>
<polyline clip-path="url(#clip322)" style="stroke:#009af9; stroke-linecap:round; stroke-linejoin:round; stroke-width:4; stroke-opacity:1; fill:none" points="
  833.948,380.588 838.961,86.0634 843.974,652.276 848.987,700.313 854.001,864.689 859.014,525.324 864.027,680.527 869.04,668.616 874.053,959.065 879.066,821.884 
  884.079,791.802 889.092,882.423 894.105,871.928 899.118,936.688 904.131,915.296 909.144,984.327 914.157,906.07 919.17,984.569 924.183,943.414 929.196,935.022 
  934.21,1003.63 939.223,991.385 944.236,1012.08 949.249,1002.14 954.262,1047.43 959.275,1052.32 964.288,1024.57 969.301,1088.94 974.314,1095.62 979.327,1069.31 
  984.34,1107.07 989.353,1078.15 994.366,1098.26 999.379,1103.49 1004.39,1079.09 1009.41,1134.09 1014.42,1104.33 1019.43,1129.3 1024.44,1150.98 1029.46,1139.13 
  1034.47,1126.65 1039.48,1141.83 1044.5,1143.28 1049.51,1122.69 1054.52,1136.09 1059.54,1102.04 1064.55,1170.25 1069.56,1162.18 1074.58,1139.76 1079.59,1136.77 
  1084.6,1137.86 1089.61,1164.19 1094.63,1132.34 1099.64,1161.05 1104.65,1171.24 1109.67,1163.48 1114.68,1165.5 1119.69,1170.39 1124.71,1146.31 1129.72,1170.52 
  1134.73,1180.74 1139.75,1182.41 1144.76,1158.48 1149.77,1143.67 1154.78,1165.48 1159.8,1169.4 1164.81,1156.36 1169.82,1162.68 1174.84,1165.43 1179.85,1165.82 
  1184.86,1165.65 1189.88,1179.47 1194.89,1178.36 1199.9,1191.45 1204.91,1182.65 1209.93,1184.64 1214.94,1193.5 1219.95,1193.11 1224.97,1194.73 1229.98,1175.29 
  1234.99,1191.59 1240.01,1178.37 1245.02,1168.83 1250.03,1164.93 1255.05,1172.29 1260.06,1157.17 1265.07,1164.96 1270.08,1189.18 1275.1,1200.88 1280.11,1194.21 
  1285.12,1186.74 1290.14,1180.29 1295.15,1192.98 1300.16,1204.72 1305.18,1186.44 1310.19,1194.19 1315.2,1189.58 1320.22,1180.94 1325.23,1186.46 1330.24,1202 
  1335.25,1177.98 1340.27,1167.79 1345.28,1186.76 1350.29,1174.98 1355.31,1146.18 1360.32,1202.14 1365.33,1202.25 1370.35,1181.07 1375.36,1208.74 1380.37,1210.85 
  1385.39,1202.72 1390.4,1186.53 1395.41,1197.07 1400.42,1172.71 1405.44,1191.31 1410.45,1192.5 1415.46,1173.19 1420.48,1154.45 1425.49,1166.73 1430.5,1206.77 
  1435.52,1180.25 1440.53,1166.75 1445.54,1187.9 1450.55,1170.95 1455.57,1195.88 1460.58,1207.01 1465.59,1187.94 1470.61,1184.92 1475.62,1164.15 1480.63,1174.21 
  1485.65,1168.59 1490.66,1188.8 1495.67,1194.34 1500.69,1199.35 1505.7,1191.58 1510.71,1195.63 1515.72,1182.74 1520.74,1191.18 1525.75,1218.6 1530.76,1214.35 
  1535.78,1200.13 1540.79,1183.99 1545.8,1182.43 1550.82,1161.56 1555.83,1191.01 1560.84,1199.04 1565.86,1207.81 1570.87,1204.05 1575.88,1205.09 1580.89,1215.29 
  1585.91,1216.82 1590.92,1195.49 1595.93,1180.35 1600.95,1198.41 1605.96,1201.48 1610.97,1202.46 1615.99,1196.26 1621,1210.19 1626.01,1198 1631.03,1195.1 
  1636.04,1209.44 1641.05,1213.83 1646.06,1195.45 1651.08,1192.69 1656.09,1183.91 1661.1,1201.74 1666.12,1192.66 1671.13,1206.07 1676.14,1213.21 1681.16,1223.57 
  1686.17,1198.8 1691.18,1200.54 1696.2,1219.64 1701.21,1197.65 1706.22,1199.11 1711.23,1200.78 1716.25,1200 1721.26,1213.25 1726.27,1198.07 1731.29,1173.6 
  1736.3,1185.44 1741.31,1219.16 1746.33,1206.56 1751.34,1205.17 1756.35,1207.12 1761.36,1198.52 1766.38,1205.21 1771.39,1200.65 1776.4,1213.23 1781.42,1222.19 
  1786.43,1205.45 1791.44,1185.38 1796.46,1189.25 1801.47,1187.4 1806.48,1177.54 1811.5,1177.15 1816.51,1177.23 1821.52,1174.14 1826.53,1186.68 1831.55,1168.23 
  1836.56,1200.6 1841.57,1188.47 1846.59,1180.57 1851.6,1180.16 1856.61,1195.04 1861.63,1185.83 1866.64,1191.68 1871.65,1192.61 1876.67,1195.67 1881.68,1185.7 
  1886.69,1171.84 1891.7,1167.49 1896.72,1180.55 1901.73,1164.74 1906.74,1178.86 1911.76,1172.99 1916.77,1202.37 1921.78,1186.66 1926.8,1196.23 1931.81,1208.53 
  1936.82,1212.71 1941.84,1186.63 1946.85,1197.34 1951.86,1194.39 1956.87,1194.43 1961.89,1181.98 1966.9,1211.37 1971.91,1202.51 1976.93,1209.98 1981.94,1168.16 
  1986.95,1182.74 1991.97,1191.87 1996.98,1178.77 2001.99,1173.12 2007,1156.47 2012.02,1191.46 2017.03,1199.04 2022.04,1199.35 2027.06,1187.91 2032.07,1176.28 
  2037.08,1202.65 2042.1,1207.16 2047.11,1196.83 2052.12,1183.69 2057.14,1196.95 2062.15,1199.26 2067.16,1181.63 2072.17,1193.07 2077.19,1175.17 2082.2,1173.79 
  2087.21,1190.1 2092.23,1197.07 2097.24,1197.01 2102.25,1212.25 2107.27,1210.77 2112.28,1202.49 2117.29,1200.62 2122.31,1177.43 2127.32,1201.78 2132.33,1198.78 
  2137.34,1196.3 2142.36,1203.24 2147.37,1191.51 2152.38,1190.92 2157.4,1182.02 2162.41,1181.72 2167.42,1180.07 2172.44,1183.56 2177.45,1178.1 2182.46,1196.83 
  2187.48,1190.79 2192.49,1178.04 2197.5,1186.94 2202.51,1164.5 2207.53,1168.85 2212.54,1175.18 2217.55,1188.8 2222.57,1195.21 2227.58,1173.45 2232.59,1194.99 
  2237.61,1150.35 2242.62,1162.25 2247.63,1184.25 2252.65,1186.14 2257.66,1171.6 2262.67,1183.3 2267.68,1168.07 2272.7,1179.49 2277.71,1169.77 2282.72,1161.04 
  2287.74,1175.35 2292.75,1176.75 
  "/>
<polyline clip-path="url(#clip322)" style="stroke:#ffa500; stroke-linecap:round; stroke-linejoin:round; stroke-width:4; stroke-opacity:1; fill:none" points="
  292.537,1228.84 297.551,1224.27 302.564,1250.36 307.577,1261.24 312.59,1259.64 317.603,1257.96 322.616,1270.06 327.629,1283.86 332.642,1278.65 337.655,1275.15 
  342.668,1276.74 347.681,1280.28 352.694,1292.48 357.707,1273.35 362.72,1301.48 367.733,1311.65 372.746,1295.64 377.76,1293.96 382.773,1310.02 387.786,1314.77 
  392.799,1298.83 397.812,1308.72 402.825,1307.69 407.838,1311.72 412.851,1313.07 417.864,1304.38 422.877,1314.43 427.89,1303.56 432.903,1313.69 437.916,1311.92 
  442.929,1313.2 447.942,1317.55 452.955,1304.49 457.969,1308.82 462.982,1307.61 467.995,1312.18 473.008,1306.02 478.021,1324.8 483.034,1312.76 488.047,1287.29 
  493.06,1297.83 498.073,1277.98 503.086,1290.11 508.099,1316.25 513.112,1321.26 518.125,1297.54 523.138,1320.04 528.151,1312.86 533.165,1332.07 538.178,1339.03 
  543.191,1334.13 548.204,1337.25 553.217,1324.08 558.23,1318.69 563.243,1309.77 568.256,1308.28 573.269,1340.19 578.282,1331.9 583.295,1336.45 588.308,1338.81 
  593.321,1311.87 598.334,1326.38 603.347,1330.57 608.36,1330.02 613.374,1321.57 618.387,1312.5 623.4,1312.29 628.413,1330.28 633.426,1314.34 638.439,1348.64 
  643.452,1316.92 648.465,1311.85 653.478,1338.86 658.491,1329.18 663.504,1308.55 668.517,1338.69 673.53,1355.53 678.543,1347.63 683.556,1352.55 688.569,1357.39 
  693.583,1356.92 698.596,1347.39 703.609,1356.97 708.622,1349.2 713.635,1344.74 718.648,1338.58 723.661,1331.58 728.674,1330.72 733.687,1332.53 738.7,1331.77 
  743.713,1330.05 748.726,1350.68 753.739,1324.27 758.752,1335.51 763.765,1324.8 768.778,1294.72 773.792,1345.46 778.805,1335.14 783.818,1331.11 788.831,1344.03 
  793.844,1349.07 798.857,1339.5 803.87,1349.25 808.883,1369.66 813.896,1350.2 818.909,1362.81 823.922,1325.36 828.935,1345.11 833.948,1355.58 838.961,1324.37 
  843.974,1348.11 848.987,1375.14 854.001,1361.94 859.014,1345.5 864.027,1342.1 869.04,1364.17 874.053,1359.45 879.066,1338.77 884.079,1348.97 889.092,1360.48 
  894.105,1360.19 899.118,1364.68 904.131,1349.92 909.144,1354.16 914.157,1345.09 919.17,1344.49 924.183,1352.39 929.196,1356.68 934.21,1353.42 939.223,1328.8 
  944.236,1349.23 949.249,1344.75 954.262,1339.59 959.275,1360.93 964.288,1362.9 969.301,1351.05 974.314,1349.56 979.327,1350.72 984.34,1338.91 989.353,1307.69 
  994.366,1338.17 999.379,1342.3 1004.39,1342.54 1009.41,1351.05 1014.42,1326.03 1019.43,1350.1 1024.44,1360.29 1029.46,1335.79 1034.47,1361.64 1039.48,1348.46 
  1044.5,1363.19 1049.51,1359.39 1054.52,1342.3 1059.54,1352.66 1064.55,1359.15 1069.56,1353.25 1074.58,1361.84 1079.59,1348.3 1084.6,1353.13 1089.61,1363.89 
  1094.63,1342.19 1099.64,1353.57 1104.65,1354.44 1109.67,1366.21 1114.68,1373.66 1119.69,1368.46 1124.71,1376.8 1129.72,1379.02 1134.73,1362.64 1139.75,1366.65 
  1144.76,1354.88 1149.77,1347.61 1154.78,1359.03 1159.8,1353.92 1164.81,1354.1 1169.82,1333.77 1174.84,1341.26 1179.85,1350.23 1184.86,1346.7 1189.88,1344.5 
  1194.89,1366.63 1199.9,1360.53 1204.91,1349.56 1209.93,1352.3 1214.94,1361.9 1219.95,1353.99 1224.97,1356.36 1229.98,1362.28 1234.99,1363.06 1240.01,1357.9 
  1245.02,1362.61 1250.03,1354.01 1255.05,1342.85 1260.06,1358.5 1265.07,1341.3 1270.08,1324.08 1275.1,1325.45 1280.11,1346.57 1285.12,1336.04 1290.14,1345.5 
  1295.15,1331.83 1300.16,1359.54 1305.18,1354.59 1310.19,1372.29 1315.2,1370.92 1320.22,1359.04 1325.23,1350.74 1330.24,1360.45 1335.25,1333.57 1340.27,1345.14 
  1345.28,1348.85 1350.29,1345.27 1355.31,1354.64 1360.32,1327.09 1365.33,1331.3 1370.35,1337.73 1375.36,1329.55 1380.37,1325.43 1385.39,1359.32 1390.4,1348.52 
  1395.41,1355.23 1400.42,1377.8 1405.44,1358.53 1410.45,1343.79 1415.46,1347.59 1420.48,1343.54 1425.49,1336.7 1430.5,1347.11 1435.52,1345.93 1440.53,1348.85 
  1445.54,1351.03 1450.55,1362.32 1455.57,1343.96 1460.58,1321.02 1465.59,1335.04 1470.61,1350.1 1475.62,1359.12 1480.63,1350.99 1485.65,1341.08 1490.66,1366.02 
  1495.67,1348.19 1500.69,1356.28 1505.7,1341.8 1510.71,1361.62 1515.72,1366.22 1520.74,1378.43 1525.75,1379.1 1530.76,1368.09 1535.78,1369.88 1540.79,1349.1 
  1545.8,1346.76 1550.82,1352.07 1555.83,1368.89 1560.84,1350 1565.86,1337.53 1570.87,1347.87 1575.88,1365.1 1580.89,1356.17 1585.91,1359.41 1590.92,1380.04 
  1595.93,1353 1600.95,1358.04 1605.96,1348.93 1610.97,1349.88 1615.99,1361.74 1621,1346.17 1626.01,1371.22 1631.03,1376.69 1636.04,1359.98 1641.05,1358.16 
  1646.06,1348.95 1651.08,1346.97 1656.09,1350.1 1661.1,1352.72 1666.12,1378.42 1671.13,1349.21 1676.14,1356.08 1681.16,1368.11 1686.17,1367.79 1691.18,1348.47 
  1696.2,1347.24 1701.21,1345.82 1706.22,1355.51 1711.23,1352.78 1716.25,1362.6 1721.26,1362.2 1726.27,1362.21 1731.29,1372.86 1736.3,1328.34 1741.31,1360.22 
  1746.33,1346.61 1751.34,1374.98 1756.35,1360.92 1761.36,1371.13 1766.38,1369.56 1771.39,1326.08 1776.4,1338.53 1781.42,1361.63 1786.43,1334.45 1791.44,1352.57 
  1796.46,1364.33 1801.47,1355.75 1806.48,1336.22 1811.5,1349.39 1816.51,1357.84 1821.52,1362.84 1826.53,1378.73 1831.55,1351.29 1836.56,1364 1841.57,1354.5 
  1846.59,1357.93 1851.6,1352.78 1856.61,1369.98 1861.63,1341.9 1866.64,1348.13 1871.65,1346.22 1876.67,1345.72 1881.68,1345.15 1886.69,1358.77 1891.7,1351.99 
  1896.72,1369.43 1901.73,1347.89 1906.74,1364.07 1911.76,1357 1916.77,1356.33 1921.78,1346.65 1926.8,1347.05 1931.81,1336.51 1936.82,1351.21 1941.84,1345.91 
  1946.85,1341.08 1951.86,1357.81 1956.87,1352.73 1961.89,1349.24 1966.9,1361.44 1971.91,1354.09 1976.93,1374.95 1981.94,1348.25 1986.95,1368.44 1991.97,1317.41 
  1996.98,1357.64 2001.99,1347.05 2007,1343.84 2012.02,1325.99 2017.03,1350.52 2022.04,1342.08 2027.06,1338.49 2032.07,1345.22 2037.08,1352.72 2042.1,1367.22 
  2047.11,1345.05 2052.12,1348.56 2057.14,1345.25 2062.15,1312.14 2067.16,1347.59 2072.17,1331.23 2077.19,1331.84 2082.2,1351.88 2087.21,1342.6 2092.23,1340.79 
  2097.24,1321.2 2102.25,1326.84 2107.27,1344.74 2112.28,1344.52 2117.29,1346.83 2122.31,1340.15 2127.32,1317.02 2132.33,1319.53 2137.34,1348.47 2142.36,1339.75 
  2147.37,1345.18 2152.38,1370.96 2157.4,1351.77 2162.41,1349.63 2167.42,1363.85 2172.44,1318.39 2177.45,1326.92 2182.46,1303.06 2187.48,1310.04 2192.49,1291.47 
  2197.5,1299.16 2202.51,1324.6 2207.53,1330.28 2212.54,1287.87 2217.55,1310.45 2222.57,1319.79 2227.58,1317.82 2232.59,1312.46 2237.61,1347.35 2242.62,1341.11 
  2247.63,1345.93 2252.65,1340.69 2257.66,1347.75 2262.67,1350.15 2267.68,1333.12 2272.7,1336.18 2277.71,1354.04 2282.72,1365.83 2287.74,1352.31 2292.75,1363.06 
  
  "/>
<path clip-path="url(#clip320)" d="
M1694.96 856.532 L2282.08 856.532 L2282.08 623.252 L1694.96 623.252  Z
  " fill="#ffffff" fill-rule="evenodd" fill-opacity="1"/>
<polyline clip-path="url(#clip320)" style="stroke:#000000; stroke-linecap:round; stroke-linejoin:round; stroke-width:4; stroke-opacity:1; fill:none" points="
  1694.96,856.532 2282.08,856.532 2282.08,623.252 1694.96,623.252 1694.96,856.532 
  "/>
<polyline clip-path="url(#clip320)" style="stroke:#009af9; stroke-linecap:round; stroke-linejoin:round; stroke-width:6; stroke-opacity:1; fill:none" points="
  1718.52,701.012 1859.86,701.012 
  "/>
<path clip-path="url(#clip320)" d="M1911.06 689.19 L1911.06 695.231 Q1908.35 693.842 1905.44 693.148 Q1902.52 692.454 1899.39 692.454 Q1894.64 692.454 1892.24 693.912 Q1889.88 695.37 1889.88 698.287 Q1889.88 700.509 1891.58 701.794 Q1893.28 703.044 1898.42 704.19 L1900.61 704.676 Q1907.41 706.134 1910.26 708.808 Q1913.14 711.446 1913.14 716.203 Q1913.14 721.62 1908.84 724.78 Q1904.57 727.939 1897.07 727.939 Q1893.94 727.939 1890.54 727.314 Q1887.17 726.724 1883.42 725.509 L1883.42 718.912 Q1886.96 720.752 1890.4 721.689 Q1893.84 722.592 1897.21 722.592 Q1901.72 722.592 1904.15 721.064 Q1906.58 719.502 1906.58 716.689 Q1906.58 714.085 1904.81 712.696 Q1903.07 711.308 1897.14 710.023 L1894.91 709.502 Q1888.98 708.252 1886.34 705.683 Q1883.7 703.078 1883.7 698.565 Q1883.7 693.079 1887.59 690.092 Q1891.48 687.106 1898.63 687.106 Q1902.17 687.106 1905.3 687.627 Q1908.42 688.148 1911.06 689.19 Z" fill="#000000" fill-rule="evenodd" fill-opacity="1" /><path clip-path="url(#clip320)" d="M1923.32 672.905 L1929.71 672.905 L1929.71 726.932 L1923.32 726.932 L1923.32 672.905 Z" fill="#000000" fill-rule="evenodd" fill-opacity="1" /><path clip-path="url(#clip320)" d="M1958.14 692.523 Q1953 692.523 1950.02 696.551 Q1947.03 700.544 1947.03 707.523 Q1947.03 714.502 1949.98 718.53 Q1952.97 722.523 1958.14 722.523 Q1963.25 722.523 1966.23 718.495 Q1969.22 714.467 1969.22 707.523 Q1969.22 700.613 1966.23 696.585 Q1963.25 692.523 1958.14 692.523 M1958.14 687.106 Q1966.48 687.106 1971.23 692.523 Q1975.99 697.94 1975.99 707.523 Q1975.99 717.071 1971.23 722.523 Q1966.48 727.939 1958.14 727.939 Q1949.78 727.939 1945.02 722.523 Q1940.3 717.071 1940.3 707.523 Q1940.3 697.94 1945.02 692.523 Q1949.78 687.106 1958.14 687.106 Z" fill="#000000" fill-rule="evenodd" fill-opacity="1" /><path clip-path="url(#clip320)" d="M1982.87 688.044 L1989.25 688.044 L1997.24 718.391 L2005.19 688.044 L2012.73 688.044 L2020.71 718.391 L2028.66 688.044 L2035.05 688.044 L2024.88 726.932 L2017.34 726.932 L2008.98 695.058 L2000.57 726.932 L1993.04 726.932 L1982.87 688.044 Z" fill="#000000" fill-rule="evenodd" fill-opacity="1" /><path clip-path="url(#clip320)" d="M2097.62 695.509 Q2100.02 691.204 2103.35 689.155 Q2106.68 687.106 2111.2 687.106 Q2117.27 687.106 2120.57 691.377 Q2123.87 695.613 2123.87 703.46 L2123.87 726.932 L2117.45 726.932 L2117.45 703.669 Q2117.45 698.078 2115.47 695.37 Q2113.49 692.662 2109.43 692.662 Q2104.46 692.662 2101.58 695.96 Q2098.7 699.259 2098.7 704.953 L2098.7 726.932 L2092.27 726.932 L2092.27 703.669 Q2092.27 698.044 2090.3 695.37 Q2088.32 692.662 2084.18 692.662 Q2079.29 692.662 2076.41 695.995 Q2073.52 699.294 2073.52 704.953 L2073.52 726.932 L2067.1 726.932 L2067.1 688.044 L2073.52 688.044 L2073.52 694.085 Q2075.71 690.509 2078.77 688.808 Q2081.82 687.106 2086.02 687.106 Q2090.26 687.106 2093.21 689.259 Q2096.2 691.412 2097.62 695.509 Z" fill="#000000" fill-rule="evenodd" fill-opacity="1" /><path clip-path="url(#clip320)" d="M2151.68 692.523 Q2146.55 692.523 2143.56 696.551 Q2140.57 700.544 2140.57 707.523 Q2140.57 714.502 2143.52 718.53 Q2146.51 722.523 2151.68 722.523 Q2156.79 722.523 2159.77 718.495 Q2162.76 714.467 2162.76 707.523 Q2162.76 700.613 2159.77 696.585 Q2156.79 692.523 2151.68 692.523 M2151.68 687.106 Q2160.02 687.106 2164.77 692.523 Q2169.53 697.94 2169.53 707.523 Q2169.53 717.071 2164.77 722.523 Q2160.02 727.939 2151.68 727.939 Q2143.32 727.939 2138.56 722.523 Q2133.84 717.071 2133.84 707.523 Q2133.84 697.94 2138.56 692.523 Q2143.32 687.106 2151.68 687.106 Z" fill="#000000" fill-rule="evenodd" fill-opacity="1" /><path clip-path="url(#clip320)" d="M2205.71 693.947 L2205.71 672.905 L2212.1 672.905 L2212.1 726.932 L2205.71 726.932 L2205.71 721.099 Q2203.7 724.571 2200.61 726.273 Q2197.55 727.939 2193.25 727.939 Q2186.2 727.939 2181.75 722.314 Q2177.34 716.689 2177.34 707.523 Q2177.34 698.356 2181.75 692.731 Q2186.2 687.106 2193.25 687.106 Q2197.55 687.106 2200.61 688.808 Q2203.7 690.474 2205.71 693.947 M2183.94 707.523 Q2183.94 714.571 2186.82 718.599 Q2189.74 722.592 2194.81 722.592 Q2199.88 722.592 2202.79 718.599 Q2205.71 714.571 2205.71 707.523 Q2205.71 700.474 2202.79 696.481 Q2199.88 692.454 2194.81 692.454 Q2189.74 692.454 2186.82 696.481 Q2183.94 700.474 2183.94 707.523 Z" fill="#000000" fill-rule="evenodd" fill-opacity="1" /><path clip-path="url(#clip320)" d="M2258.52 705.891 L2258.52 709.016 L2229.15 709.016 Q2229.57 715.613 2233.11 719.085 Q2236.68 722.523 2243.04 722.523 Q2246.72 722.523 2250.16 721.62 Q2253.63 720.717 2257.03 718.912 L2257.03 724.953 Q2253.59 726.412 2249.98 727.176 Q2246.37 727.939 2242.66 727.939 Q2233.35 727.939 2227.9 722.523 Q2222.48 717.106 2222.48 707.87 Q2222.48 698.322 2227.62 692.731 Q2232.79 687.106 2241.54 687.106 Q2249.39 687.106 2253.94 692.176 Q2258.52 697.21 2258.52 705.891 M2252.13 704.016 Q2252.07 698.773 2249.18 695.648 Q2246.34 692.523 2241.61 692.523 Q2236.27 692.523 2233.04 695.544 Q2229.84 698.565 2229.36 704.051 L2252.13 704.016 Z" fill="#000000" fill-rule="evenodd" fill-opacity="1" /><polyline clip-path="url(#clip320)" style="stroke:#ffa500; stroke-linecap:round; stroke-linejoin:round; stroke-width:6; stroke-opacity:1; fill:none" points="
  1718.52,778.772 1859.86,778.772 
  "/>
<path clip-path="url(#clip320)" d="M1908.18 750.665 L1908.18 755.977 L1902.07 755.977 Q1898.63 755.977 1897.28 757.366 Q1895.96 758.755 1895.96 762.366 L1895.96 765.804 L1906.48 765.804 L1906.48 770.769 L1895.96 770.769 L1895.96 804.692 L1889.53 804.692 L1889.53 770.769 L1883.42 770.769 L1883.42 765.804 L1889.53 765.804 L1889.53 763.095 Q1889.53 756.602 1892.55 753.651 Q1895.57 750.665 1902.14 750.665 L1908.18 750.665 Z" fill="#000000" fill-rule="evenodd" fill-opacity="1" /><path clip-path="url(#clip320)" d="M1931.2 785.144 Q1923.46 785.144 1920.47 786.915 Q1917.48 788.686 1917.48 792.956 Q1917.48 796.359 1919.71 798.373 Q1921.96 800.352 1925.82 800.352 Q1931.13 800.352 1934.32 796.602 Q1937.55 792.818 1937.55 786.568 L1937.55 785.144 L1931.2 785.144 M1943.94 782.505 L1943.94 804.692 L1937.55 804.692 L1937.55 798.79 Q1935.37 802.331 1932.1 804.033 Q1928.84 805.699 1924.12 805.699 Q1918.14 805.699 1914.6 802.366 Q1911.09 798.998 1911.09 793.373 Q1911.09 786.811 1915.47 783.477 Q1919.88 780.144 1928.59 780.144 L1937.55 780.144 L1937.55 779.519 Q1937.55 775.109 1934.64 772.713 Q1931.75 770.283 1926.51 770.283 Q1923.18 770.283 1920.02 771.082 Q1916.86 771.88 1913.94 773.477 L1913.94 767.575 Q1917.45 766.22 1920.75 765.561 Q1924.05 764.866 1927.17 764.866 Q1935.61 764.866 1939.78 769.241 Q1943.94 773.616 1943.94 782.505 Z" fill="#000000" fill-rule="evenodd" fill-opacity="1" /><path clip-path="url(#clip320)" d="M1981.89 766.95 L1981.89 772.991 Q1979.18 771.602 1976.27 770.908 Q1973.35 770.214 1970.23 770.214 Q1965.47 770.214 1963.07 771.672 Q1960.71 773.13 1960.71 776.047 Q1960.71 778.269 1962.41 779.554 Q1964.12 780.804 1969.25 781.95 L1971.44 782.436 Q1978.25 783.894 1981.09 786.568 Q1983.98 789.206 1983.98 793.963 Q1983.98 799.38 1979.67 802.54 Q1975.4 805.699 1967.9 805.699 Q1964.78 805.699 1961.37 805.074 Q1958 804.484 1954.25 803.269 L1954.25 796.672 Q1957.8 798.512 1961.23 799.449 Q1964.67 800.352 1968.04 800.352 Q1972.55 800.352 1974.98 798.824 Q1977.41 797.262 1977.41 794.449 Q1977.41 791.845 1975.64 790.456 Q1973.91 789.068 1967.97 787.783 L1965.75 787.262 Q1959.81 786.012 1957.17 783.443 Q1954.53 780.838 1954.53 776.325 Q1954.53 770.839 1958.42 767.852 Q1962.31 764.866 1969.46 764.866 Q1973 764.866 1976.13 765.387 Q1979.25 765.908 1981.89 766.95 Z" fill="#000000" fill-rule="evenodd" fill-opacity="1" /><path clip-path="url(#clip320)" d="M2000.47 754.762 L2000.47 765.804 L2013.63 765.804 L2013.63 770.769 L2000.47 770.769 L2000.47 791.88 Q2000.47 796.637 2001.75 797.991 Q2003.07 799.345 2007.07 799.345 L2013.63 799.345 L2013.63 804.692 L2007.07 804.692 Q1999.67 804.692 1996.86 801.949 Q1994.05 799.172 1994.05 791.88 L1994.05 770.769 L1989.36 770.769 L1989.36 765.804 L1994.05 765.804 L1994.05 754.762 L2000.47 754.762 Z" fill="#000000" fill-rule="evenodd" fill-opacity="1" /><path clip-path="url(#clip320)" d="M2074.91 773.269 Q2077.31 768.964 2080.64 766.915 Q2083.98 764.866 2088.49 764.866 Q2094.57 764.866 2097.86 769.137 Q2101.16 773.373 2101.16 781.22 L2101.16 804.692 L2094.74 804.692 L2094.74 781.429 Q2094.74 775.838 2092.76 773.13 Q2090.78 770.422 2086.72 770.422 Q2081.75 770.422 2078.87 773.72 Q2075.99 777.019 2075.99 782.713 L2075.99 804.692 L2069.57 804.692 L2069.57 781.429 Q2069.57 775.804 2067.59 773.13 Q2065.61 770.422 2061.48 770.422 Q2056.58 770.422 2053.7 773.755 Q2050.82 777.054 2050.82 782.713 L2050.82 804.692 L2044.39 804.692 L2044.39 765.804 L2050.82 765.804 L2050.82 771.845 Q2053 768.269 2056.06 766.568 Q2059.12 764.866 2063.32 764.866 Q2067.55 764.866 2070.5 767.019 Q2073.49 769.172 2074.91 773.269 Z" fill="#000000" fill-rule="evenodd" fill-opacity="1" /><path clip-path="url(#clip320)" d="M2128.98 770.283 Q2123.84 770.283 2120.85 774.311 Q2117.86 778.304 2117.86 785.283 Q2117.86 792.262 2120.82 796.29 Q2123.8 800.283 2128.98 800.283 Q2134.08 800.283 2137.07 796.255 Q2140.05 792.227 2140.05 785.283 Q2140.05 778.373 2137.07 774.345 Q2134.08 770.283 2128.98 770.283 M2128.98 764.866 Q2137.31 764.866 2142.07 770.283 Q2146.82 775.7 2146.82 785.283 Q2146.82 794.831 2142.07 800.283 Q2137.31 805.699 2128.98 805.699 Q2120.61 805.699 2115.85 800.283 Q2111.13 794.831 2111.13 785.283 Q2111.13 775.7 2115.85 770.283 Q2120.61 764.866 2128.98 764.866 Z" fill="#000000" fill-rule="evenodd" fill-opacity="1" /><path clip-path="url(#clip320)" d="M2183 771.707 L2183 750.665 L2189.39 750.665 L2189.39 804.692 L2183 804.692 L2183 798.859 Q2180.99 802.331 2177.9 804.033 Q2174.84 805.699 2170.54 805.699 Q2163.49 805.699 2159.05 800.074 Q2154.64 794.449 2154.64 785.283 Q2154.64 776.116 2159.05 770.491 Q2163.49 764.866 2170.54 764.866 Q2174.84 764.866 2177.9 766.568 Q2180.99 768.234 2183 771.707 M2161.23 785.283 Q2161.23 792.331 2164.11 796.359 Q2167.03 800.352 2172.1 800.352 Q2177.17 800.352 2180.09 796.359 Q2183 792.331 2183 785.283 Q2183 778.234 2180.09 774.241 Q2177.17 770.214 2172.1 770.214 Q2167.03 770.214 2164.11 774.241 Q2161.23 778.234 2161.23 785.283 Z" fill="#000000" fill-rule="evenodd" fill-opacity="1" /><path clip-path="url(#clip320)" d="M2235.82 783.651 L2235.82 786.776 L2206.44 786.776 Q2206.86 793.373 2210.4 796.845 Q2213.98 800.283 2220.33 800.283 Q2224.01 800.283 2227.45 799.38 Q2230.92 798.477 2234.32 796.672 L2234.32 802.713 Q2230.88 804.172 2227.27 804.936 Q2223.66 805.699 2219.95 805.699 Q2210.64 805.699 2205.19 800.283 Q2199.77 794.866 2199.77 785.63 Q2199.77 776.082 2204.91 770.491 Q2210.09 764.866 2218.84 764.866 Q2226.68 764.866 2231.23 769.936 Q2235.82 774.97 2235.82 783.651 M2229.43 781.776 Q2229.36 776.533 2226.48 773.408 Q2223.63 770.283 2218.91 770.283 Q2213.56 770.283 2210.33 773.304 Q2207.14 776.325 2206.65 781.811 L2229.43 781.776 Z" fill="#000000" fill-rule="evenodd" fill-opacity="1" /></svg>
