<?xml version="1.0" encoding="utf-8"?>
<svg xmlns="http://www.w3.org/2000/svg" xmlns:xlink="http://www.w3.org/1999/xlink" width="600" height="400" viewBox="0 0 2400 1600">
<defs>
  <clipPath id="clip080">
    <rect x="0" y="0" width="2400" height="1600"/>
  </clipPath>
</defs>
<path clip-path="url(#clip080)" d="
M0 1600 L2400 1600 L2400 0 L0 0  Z
  " fill="#ffffff" fill-rule="evenodd" fill-opacity="1"/>
<defs>
  <clipPath id="clip081">
    <rect x="480" y="0" width="1681" height="1600"/>
  </clipPath>
</defs>
<path clip-path="url(#clip080)" d="
M235.517 1418.86 L2352.76 1418.86 L2352.76 47.2441 L235.517 47.2441  Z
  " fill="#ffffff" fill-rule="evenodd" fill-opacity="1"/>
<defs>
  <clipPath id="clip082">
    <rect x="235" y="47" width="2118" height="1373"/>
  </clipPath>
</defs>
<polyline clip-path="url(#clip082)" style="stroke:#000000; stroke-linecap:round; stroke-linejoin:round; stroke-width:2; stroke-opacity:0.1; fill:none" points="
  290.433,1418.86 290.433,47.2441 
  "/>
<polyline clip-path="url(#clip082)" style="stroke:#000000; stroke-linecap:round; stroke-linejoin:round; stroke-width:2; stroke-opacity:0.1; fill:none" points="
  791.033,1418.86 791.033,47.2441 
  "/>
<polyline clip-path="url(#clip082)" style="stroke:#000000; stroke-linecap:round; stroke-linejoin:round; stroke-width:2; stroke-opacity:0.1; fill:none" points="
  1291.63,1418.86 1291.63,47.2441 
  "/>
<polyline clip-path="url(#clip082)" style="stroke:#000000; stroke-linecap:round; stroke-linejoin:round; stroke-width:2; stroke-opacity:0.1; fill:none" points="
  1792.23,1418.86 1792.23,47.2441 
  "/>
<polyline clip-path="url(#clip082)" style="stroke:#000000; stroke-linecap:round; stroke-linejoin:round; stroke-width:2; stroke-opacity:0.1; fill:none" points="
  2292.83,1418.86 2292.83,47.2441 
  "/>
<polyline clip-path="url(#clip080)" style="stroke:#000000; stroke-linecap:round; stroke-linejoin:round; stroke-width:4; stroke-opacity:1; fill:none" points="
  235.517,1418.86 2352.76,1418.86 
  "/>
<polyline clip-path="url(#clip080)" style="stroke:#000000; stroke-linecap:round; stroke-linejoin:round; stroke-width:4; stroke-opacity:1; fill:none" points="
  290.433,1418.86 290.433,1399.96 
  "/>
<polyline clip-path="url(#clip080)" style="stroke:#000000; stroke-linecap:round; stroke-linejoin:round; stroke-width:4; stroke-opacity:1; fill:none" points="
  791.033,1418.86 791.033,1399.96 
  "/>
<polyline clip-path="url(#clip080)" style="stroke:#000000; stroke-linecap:round; stroke-linejoin:round; stroke-width:4; stroke-opacity:1; fill:none" points="
  1291.63,1418.86 1291.63,1399.96 
  "/>
<polyline clip-path="url(#clip080)" style="stroke:#000000; stroke-linecap:round; stroke-linejoin:round; stroke-width:4; stroke-opacity:1; fill:none" points="
  1792.23,1418.86 1792.23,1399.96 
  "/>
<polyline clip-path="url(#clip080)" style="stroke:#000000; stroke-linecap:round; stroke-linejoin:round; stroke-width:4; stroke-opacity:1; fill:none" points="
  2292.83,1418.86 2292.83,1399.96 
  "/>
<path clip-path="url(#clip080)" d="M198.234 1449.78 Q194.623 1449.78 192.795 1453.34 Q190.989 1456.88 190.989 1464.01 Q190.989 1471.12 192.795 1474.69 Q194.623 1478.23 198.234 1478.23 Q201.869 1478.23 203.674 1474.69 Q205.503 1471.12 205.503 1464.01 Q205.503 1456.88 203.674 1453.34 Q201.869 1449.78 198.234 1449.78 M198.234 1446.07 Q204.045 1446.07 207.1 1450.68 Q210.179 1455.26 210.179 1464.01 Q210.179 1472.74 207.1 1477.35 Q204.045 1481.93 198.234 1481.93 Q192.424 1481.93 189.346 1477.35 Q186.29 1472.74 186.29 1464.01 Q186.29 1455.26 189.346 1450.68 Q192.424 1446.07 198.234 1446.07 Z" fill="#000000" fill-rule="evenodd" fill-opacity="1" /><path clip-path="url(#clip080)" d="M218.396 1475.38 L223.281 1475.38 L223.281 1481.26 L218.396 1481.26 L218.396 1475.38 Z" fill="#000000" fill-rule="evenodd" fill-opacity="1" /><path clip-path="url(#clip080)" d="M243.466 1449.78 Q239.855 1449.78 238.026 1453.34 Q236.22 1456.88 236.22 1464.01 Q236.22 1471.12 238.026 1474.69 Q239.855 1478.23 243.466 1478.23 Q247.1 1478.23 248.906 1474.69 Q250.734 1471.12 250.734 1464.01 Q250.734 1456.88 248.906 1453.34 Q247.1 1449.78 243.466 1449.78 M243.466 1446.07 Q249.276 1446.07 252.331 1450.68 Q255.41 1455.26 255.41 1464.01 Q255.41 1472.74 252.331 1477.35 Q249.276 1481.93 243.466 1481.93 Q237.656 1481.93 234.577 1477.35 Q231.521 1472.74 231.521 1464.01 Q231.521 1455.26 234.577 1450.68 Q237.656 1446.07 243.466 1446.07 Z" fill="#000000" fill-rule="evenodd" fill-opacity="1" /><path clip-path="url(#clip080)" d="M273.628 1449.78 Q270.017 1449.78 268.188 1453.34 Q266.382 1456.88 266.382 1464.01 Q266.382 1471.12 268.188 1474.69 Q270.017 1478.23 273.628 1478.23 Q277.262 1478.23 279.067 1474.69 Q280.896 1471.12 280.896 1464.01 Q280.896 1456.88 279.067 1453.34 Q277.262 1449.78 273.628 1449.78 M273.628 1446.07 Q279.438 1446.07 282.493 1450.68 Q285.572 1455.26 285.572 1464.01 Q285.572 1472.74 282.493 1477.35 Q279.438 1481.93 273.628 1481.93 Q267.817 1481.93 264.739 1477.35 Q261.683 1472.74 261.683 1464.01 Q261.683 1455.26 264.739 1450.68 Q267.817 1446.07 273.628 1446.07 Z" fill="#000000" fill-rule="evenodd" fill-opacity="1" /><path clip-path="url(#clip080)" d="M314.738 1455.33 L305.364 1467.95 L315.225 1481.26 L310.201 1481.26 L302.655 1471.07 L295.109 1481.26 L290.086 1481.26 L300.155 1467.7 L290.942 1455.33 L295.965 1455.33 L302.84 1464.57 L309.715 1455.33 L314.738 1455.33 Z" fill="#000000" fill-rule="evenodd" fill-opacity="1" /><path clip-path="url(#clip080)" d="M322.655 1477.32 L330.294 1477.32 L330.294 1450.96 L321.984 1452.63 L321.984 1448.37 L330.248 1446.7 L334.924 1446.7 L334.924 1477.32 L342.562 1477.32 L342.562 1481.26 L322.655 1481.26 L322.655 1477.32 Z" fill="#000000" fill-rule="evenodd" fill-opacity="1" /><path clip-path="url(#clip080)" d="M362.007 1449.78 Q358.396 1449.78 356.567 1453.34 Q354.761 1456.88 354.761 1464.01 Q354.761 1471.12 356.567 1474.69 Q358.396 1478.23 362.007 1478.23 Q365.641 1478.23 367.447 1474.69 Q369.275 1471.12 369.275 1464.01 Q369.275 1456.88 367.447 1453.34 Q365.641 1449.78 362.007 1449.78 M362.007 1446.07 Q367.817 1446.07 370.872 1450.68 Q373.951 1455.26 373.951 1464.01 Q373.951 1472.74 370.872 1477.35 Q367.817 1481.93 362.007 1481.93 Q356.197 1481.93 353.118 1477.35 Q350.062 1472.74 350.062 1464.01 Q350.062 1455.26 353.118 1450.68 Q356.197 1446.07 362.007 1446.07 Z" fill="#000000" fill-rule="evenodd" fill-opacity="1" /><path clip-path="url(#clip080)" d="M387.169 1455.03 Q385.132 1455.03 383.951 1456.24 Q382.771 1457.46 382.771 1459.57 Q382.771 1461.65 383.951 1462.86 Q385.132 1464.08 387.169 1464.08 Q389.183 1464.08 390.363 1462.86 Q391.544 1461.65 391.544 1459.57 Q391.544 1457.46 390.363 1456.24 Q389.183 1455.03 387.169 1455.03 M393.141 1446.84 L393.141 1449.22 Q392.007 1448.76 390.849 1448.53 Q389.692 1448.27 388.558 1448.27 Q385.595 1448.27 384.021 1450.01 Q382.446 1451.77 382.215 1455.31 Q383.095 1454.18 384.414 1453.57 Q385.757 1452.97 387.331 1452.97 Q390.687 1452.97 392.632 1454.73 Q394.576 1456.51 394.576 1459.57 Q394.576 1462.51 392.539 1464.34 Q390.525 1466.14 387.169 1466.14 Q383.303 1466.14 381.266 1463.57 Q379.229 1461.01 379.229 1456.1 Q379.229 1451.51 381.729 1448.81 Q384.229 1446.07 388.442 1446.07 Q389.576 1446.07 390.733 1446.26 Q391.891 1446.47 393.141 1446.84 Z" fill="#000000" fill-rule="evenodd" fill-opacity="1" /><path clip-path="url(#clip080)" d="M673.522 1477.32 L681.161 1477.32 L681.161 1450.96 L672.851 1452.63 L672.851 1448.37 L681.115 1446.7 L685.791 1446.7 L685.791 1477.32 L693.43 1477.32 L693.43 1481.26 L673.522 1481.26 L673.522 1477.32 Z" fill="#000000" fill-rule="evenodd" fill-opacity="1" /><path clip-path="url(#clip080)" d="M712.874 1449.78 Q709.263 1449.78 707.434 1453.34 Q705.629 1456.88 705.629 1464.01 Q705.629 1471.12 707.434 1474.69 Q709.263 1478.23 712.874 1478.23 Q716.508 1478.23 718.314 1474.69 Q720.142 1471.12 720.142 1464.01 Q720.142 1456.88 718.314 1453.34 Q716.508 1449.78 712.874 1449.78 M712.874 1446.07 Q718.684 1446.07 721.74 1450.68 Q724.818 1455.26 724.818 1464.01 Q724.818 1472.74 721.74 1477.35 Q718.684 1481.93 712.874 1481.93 Q707.064 1481.93 703.985 1477.35 Q700.93 1472.74 700.93 1464.01 Q700.93 1455.26 703.985 1450.68 Q707.064 1446.07 712.874 1446.07 Z" fill="#000000" fill-rule="evenodd" fill-opacity="1" /><path clip-path="url(#clip080)" d="M733.036 1475.38 L737.92 1475.38 L737.92 1481.26 L733.036 1481.26 L733.036 1475.38 Z" fill="#000000" fill-rule="evenodd" fill-opacity="1" /><path clip-path="url(#clip080)" d="M758.105 1449.78 Q754.494 1449.78 752.665 1453.34 Q750.86 1456.88 750.86 1464.01 Q750.86 1471.12 752.665 1474.69 Q754.494 1478.23 758.105 1478.23 Q761.739 1478.23 763.545 1474.69 Q765.374 1471.12 765.374 1464.01 Q765.374 1456.88 763.545 1453.34 Q761.739 1449.78 758.105 1449.78 M758.105 1446.07 Q763.915 1446.07 766.971 1450.68 Q770.05 1455.26 770.05 1464.01 Q770.05 1472.74 766.971 1477.35 Q763.915 1481.93 758.105 1481.93 Q752.295 1481.93 749.216 1477.35 Q746.161 1472.74 746.161 1464.01 Q746.161 1455.26 749.216 1450.68 Q752.295 1446.07 758.105 1446.07 Z" fill="#000000" fill-rule="evenodd" fill-opacity="1" /><path clip-path="url(#clip080)" d="M788.267 1449.78 Q784.656 1449.78 782.827 1453.34 Q781.022 1456.88 781.022 1464.01 Q781.022 1471.12 782.827 1474.69 Q784.656 1478.23 788.267 1478.23 Q791.901 1478.23 793.707 1474.69 Q795.536 1471.12 795.536 1464.01 Q795.536 1456.88 793.707 1453.34 Q791.901 1449.78 788.267 1449.78 M788.267 1446.07 Q794.077 1446.07 797.133 1450.68 Q800.212 1455.26 800.212 1464.01 Q800.212 1472.74 797.133 1477.35 Q794.077 1481.93 788.267 1481.93 Q782.457 1481.93 779.378 1477.35 Q776.323 1472.74 776.323 1464.01 Q776.323 1455.26 779.378 1450.68 Q782.457 1446.07 788.267 1446.07 Z" fill="#000000" fill-rule="evenodd" fill-opacity="1" /><path clip-path="url(#clip080)" d="M829.378 1455.33 L820.003 1467.95 L829.864 1481.26 L824.841 1481.26 L817.295 1471.07 L809.748 1481.26 L804.725 1481.26 L814.795 1467.7 L805.582 1455.33 L810.605 1455.33 L817.48 1464.57 L824.355 1455.33 L829.378 1455.33 Z" fill="#000000" fill-rule="evenodd" fill-opacity="1" /><path clip-path="url(#clip080)" d="M837.295 1477.32 L844.933 1477.32 L844.933 1450.96 L836.623 1452.63 L836.623 1448.37 L844.887 1446.7 L849.563 1446.7 L849.563 1477.32 L857.202 1477.32 L857.202 1481.26 L837.295 1481.26 L837.295 1477.32 Z" fill="#000000" fill-rule="evenodd" fill-opacity="1" /><path clip-path="url(#clip080)" d="M876.646 1449.78 Q873.035 1449.78 871.206 1453.34 Q869.401 1456.88 869.401 1464.01 Q869.401 1471.12 871.206 1474.69 Q873.035 1478.23 876.646 1478.23 Q880.281 1478.23 882.086 1474.69 Q883.915 1471.12 883.915 1464.01 Q883.915 1456.88 882.086 1453.34 Q880.281 1449.78 876.646 1449.78 M876.646 1446.07 Q882.456 1446.07 885.512 1450.68 Q888.591 1455.26 888.591 1464.01 Q888.591 1472.74 885.512 1477.35 Q882.456 1481.93 876.646 1481.93 Q870.836 1481.93 867.757 1477.35 Q864.702 1472.74 864.702 1464.01 Q864.702 1455.26 867.757 1450.68 Q870.836 1446.07 876.646 1446.07 Z" fill="#000000" fill-rule="evenodd" fill-opacity="1" /><path clip-path="url(#clip080)" d="M901.808 1455.03 Q899.771 1455.03 898.591 1456.24 Q897.41 1457.46 897.41 1459.57 Q897.41 1461.65 898.591 1462.86 Q899.771 1464.08 901.808 1464.08 Q903.822 1464.08 905.003 1462.86 Q906.183 1461.65 906.183 1459.57 Q906.183 1457.46 905.003 1456.24 Q903.822 1455.03 901.808 1455.03 M907.78 1446.84 L907.78 1449.22 Q906.646 1448.76 905.489 1448.53 Q904.331 1448.27 903.197 1448.27 Q900.234 1448.27 898.66 1450.01 Q897.086 1451.77 896.855 1455.31 Q897.734 1454.18 899.054 1453.57 Q900.396 1452.97 901.97 1452.97 Q905.327 1452.97 907.271 1454.73 Q909.216 1456.51 909.216 1459.57 Q909.216 1462.51 907.179 1464.34 Q905.165 1466.14 901.808 1466.14 Q897.942 1466.14 895.905 1463.57 Q893.868 1461.01 893.868 1456.1 Q893.868 1451.51 896.368 1448.81 Q898.868 1446.07 903.081 1446.07 Q904.216 1446.07 905.373 1446.26 Q906.53 1446.47 907.78 1446.84 Z" fill="#000000" fill-rule="evenodd" fill-opacity="1" /><path clip-path="url(#clip080)" d="M1178.21 1477.32 L1194.53 1477.32 L1194.53 1481.26 L1172.58 1481.26 L1172.58 1477.32 Q1175.25 1474.57 1179.83 1469.94 Q1184.44 1465.29 1185.62 1463.95 Q1187.86 1461.42 1188.74 1459.69 Q1189.64 1457.93 1189.64 1456.24 Q1189.64 1453.48 1187.7 1451.75 Q1185.78 1450.01 1182.68 1450.01 Q1180.48 1450.01 1178.02 1450.77 Q1175.59 1451.54 1172.81 1453.09 L1172.81 1448.37 Q1175.64 1447.23 1178.09 1446.65 Q1180.55 1446.07 1182.58 1446.07 Q1187.95 1446.07 1191.15 1448.76 Q1194.34 1451.45 1194.34 1455.94 Q1194.34 1458.07 1193.53 1459.99 Q1192.75 1461.88 1190.64 1464.48 Q1190.06 1465.15 1186.96 1468.37 Q1183.86 1471.56 1178.21 1477.32 Z" fill="#000000" fill-rule="evenodd" fill-opacity="1" /><path clip-path="url(#clip080)" d="M1214.34 1449.78 Q1210.73 1449.78 1208.9 1453.34 Q1207.1 1456.88 1207.1 1464.01 Q1207.1 1471.12 1208.9 1474.69 Q1210.73 1478.23 1214.34 1478.23 Q1217.98 1478.23 1219.78 1474.69 Q1221.61 1471.12 1221.61 1464.01 Q1221.61 1456.88 1219.78 1453.34 Q1217.98 1449.78 1214.34 1449.78 M1214.34 1446.07 Q1220.15 1446.07 1223.21 1450.68 Q1226.29 1455.26 1226.29 1464.01 Q1226.29 1472.74 1223.21 1477.35 Q1220.15 1481.93 1214.34 1481.93 Q1208.53 1481.93 1205.45 1477.35 Q1202.4 1472.74 1202.4 1464.01 Q1202.4 1455.26 1205.45 1450.68 Q1208.53 1446.07 1214.34 1446.07 Z" fill="#000000" fill-rule="evenodd" fill-opacity="1" /><path clip-path="url(#clip080)" d="M1234.5 1475.38 L1239.39 1475.38 L1239.39 1481.26 L1234.5 1481.26 L1234.5 1475.38 Z" fill="#000000" fill-rule="evenodd" fill-opacity="1" /><path clip-path="url(#clip080)" d="M1259.57 1449.78 Q1255.96 1449.78 1254.13 1453.34 Q1252.33 1456.88 1252.33 1464.01 Q1252.33 1471.12 1254.13 1474.69 Q1255.96 1478.23 1259.57 1478.23 Q1263.21 1478.23 1265.01 1474.69 Q1266.84 1471.12 1266.84 1464.01 Q1266.84 1456.88 1265.01 1453.34 Q1263.21 1449.78 1259.57 1449.78 M1259.57 1446.07 Q1265.38 1446.07 1268.44 1450.68 Q1271.52 1455.26 1271.52 1464.01 Q1271.52 1472.74 1268.44 1477.35 Q1265.38 1481.93 1259.57 1481.93 Q1253.76 1481.93 1250.68 1477.35 Q1247.63 1472.74 1247.63 1464.01 Q1247.63 1455.26 1250.68 1450.68 Q1253.76 1446.07 1259.57 1446.07 Z" fill="#000000" fill-rule="evenodd" fill-opacity="1" /><path clip-path="url(#clip080)" d="M1289.74 1449.78 Q1286.12 1449.78 1284.3 1453.34 Q1282.49 1456.88 1282.49 1464.01 Q1282.49 1471.12 1284.3 1474.69 Q1286.12 1478.23 1289.74 1478.23 Q1293.37 1478.23 1295.18 1474.69 Q1297 1471.12 1297 1464.01 Q1297 1456.88 1295.18 1453.34 Q1293.37 1449.78 1289.74 1449.78 M1289.74 1446.07 Q1295.55 1446.07 1298.6 1450.68 Q1301.68 1455.26 1301.68 1464.01 Q1301.68 1472.74 1298.6 1477.35 Q1295.55 1481.93 1289.74 1481.93 Q1283.93 1481.93 1280.85 1477.35 Q1277.79 1472.74 1277.79 1464.01 Q1277.79 1455.26 1280.85 1450.68 Q1283.93 1446.07 1289.74 1446.07 Z" fill="#000000" fill-rule="evenodd" fill-opacity="1" /><path clip-path="url(#clip080)" d="M1330.85 1455.33 L1321.47 1467.95 L1331.33 1481.26 L1326.31 1481.26 L1318.76 1471.07 L1311.22 1481.26 L1306.19 1481.26 L1316.26 1467.7 L1307.05 1455.33 L1312.07 1455.33 L1318.95 1464.57 L1325.82 1455.33 L1330.85 1455.33 Z" fill="#000000" fill-rule="evenodd" fill-opacity="1" /><path clip-path="url(#clip080)" d="M1338.76 1477.32 L1346.4 1477.32 L1346.4 1450.96 L1338.09 1452.63 L1338.09 1448.37 L1346.36 1446.7 L1351.03 1446.7 L1351.03 1477.32 L1358.67 1477.32 L1358.67 1481.26 L1338.76 1481.26 L1338.76 1477.32 Z" fill="#000000" fill-rule="evenodd" fill-opacity="1" /><path clip-path="url(#clip080)" d="M1378.11 1449.78 Q1374.5 1449.78 1372.67 1453.34 Q1370.87 1456.88 1370.87 1464.01 Q1370.87 1471.12 1372.67 1474.69 Q1374.5 1478.23 1378.11 1478.23 Q1381.75 1478.23 1383.55 1474.69 Q1385.38 1471.12 1385.38 1464.01 Q1385.38 1456.88 1383.55 1453.34 Q1381.75 1449.78 1378.11 1449.78 M1378.11 1446.07 Q1383.92 1446.07 1386.98 1450.68 Q1390.06 1455.26 1390.06 1464.01 Q1390.06 1472.74 1386.98 1477.35 Q1383.92 1481.93 1378.11 1481.93 Q1372.3 1481.93 1369.23 1477.35 Q1366.17 1472.74 1366.17 1464.01 Q1366.17 1455.26 1369.23 1450.68 Q1372.3 1446.07 1378.11 1446.07 Z" fill="#000000" fill-rule="evenodd" fill-opacity="1" /><path clip-path="url(#clip080)" d="M1403.28 1455.03 Q1401.24 1455.03 1400.06 1456.24 Q1398.88 1457.46 1398.88 1459.57 Q1398.88 1461.65 1400.06 1462.86 Q1401.24 1464.08 1403.28 1464.08 Q1405.29 1464.08 1406.47 1462.86 Q1407.65 1461.65 1407.65 1459.57 Q1407.65 1457.46 1406.47 1456.24 Q1405.29 1455.03 1403.28 1455.03 M1409.25 1446.84 L1409.25 1449.22 Q1408.11 1448.76 1406.96 1448.53 Q1405.8 1448.27 1404.67 1448.27 Q1401.7 1448.27 1400.13 1450.01 Q1398.55 1451.77 1398.32 1455.31 Q1399.2 1454.18 1400.52 1453.57 Q1401.86 1452.97 1403.44 1452.97 Q1406.79 1452.97 1408.74 1454.73 Q1410.68 1456.51 1410.68 1459.57 Q1410.68 1462.51 1408.65 1464.34 Q1406.63 1466.14 1403.28 1466.14 Q1399.41 1466.14 1397.37 1463.57 Q1395.34 1461.01 1395.34 1456.1 Q1395.34 1451.51 1397.84 1448.81 Q1400.34 1446.07 1404.55 1446.07 Q1405.68 1446.07 1406.84 1446.26 Q1408 1446.47 1409.25 1446.84 Z" fill="#000000" fill-rule="evenodd" fill-opacity="1" /><path clip-path="url(#clip080)" d="M1688.88 1462.63 Q1692.23 1463.34 1694.11 1465.61 Q1696.01 1467.88 1696.01 1471.21 Q1696.01 1476.33 1692.49 1479.13 Q1688.97 1481.93 1682.49 1481.93 Q1680.31 1481.93 1678 1481.49 Q1675.71 1481.07 1673.25 1480.22 L1673.25 1475.7 Q1675.2 1476.84 1677.51 1477.42 Q1679.83 1478 1682.35 1478 Q1686.75 1478 1689.04 1476.26 Q1691.35 1474.52 1691.35 1471.21 Q1691.35 1468.16 1689.2 1466.45 Q1687.07 1464.71 1683.25 1464.71 L1679.23 1464.71 L1679.23 1460.87 L1683.44 1460.87 Q1686.89 1460.87 1688.72 1459.5 Q1690.54 1458.11 1690.54 1455.52 Q1690.54 1452.86 1688.65 1451.45 Q1686.77 1450.01 1683.25 1450.01 Q1681.33 1450.01 1679.13 1450.43 Q1676.93 1450.84 1674.29 1451.72 L1674.29 1447.56 Q1676.96 1446.82 1679.27 1446.45 Q1681.61 1446.07 1683.67 1446.07 Q1688.99 1446.07 1692.1 1448.51 Q1695.2 1450.91 1695.2 1455.03 Q1695.2 1457.9 1693.55 1459.89 Q1691.91 1461.86 1688.88 1462.63 Z" fill="#000000" fill-rule="evenodd" fill-opacity="1" /><path clip-path="url(#clip080)" d="M1714.87 1449.78 Q1711.26 1449.78 1709.43 1453.34 Q1707.63 1456.88 1707.63 1464.01 Q1707.63 1471.12 1709.43 1474.69 Q1711.26 1478.23 1714.87 1478.23 Q1718.51 1478.23 1720.31 1474.69 Q1722.14 1471.12 1722.14 1464.01 Q1722.14 1456.88 1720.31 1453.34 Q1718.51 1449.78 1714.87 1449.78 M1714.87 1446.07 Q1720.68 1446.07 1723.74 1450.68 Q1726.82 1455.26 1726.82 1464.01 Q1726.82 1472.74 1723.74 1477.35 Q1720.68 1481.93 1714.87 1481.93 Q1709.06 1481.93 1705.98 1477.35 Q1702.93 1472.74 1702.93 1464.01 Q1702.93 1455.26 1705.98 1450.68 Q1709.06 1446.07 1714.87 1446.07 Z" fill="#000000" fill-rule="evenodd" fill-opacity="1" /><path clip-path="url(#clip080)" d="M1735.04 1475.38 L1739.92 1475.38 L1739.92 1481.26 L1735.04 1481.26 L1735.04 1475.38 Z" fill="#000000" fill-rule="evenodd" fill-opacity="1" /><path clip-path="url(#clip080)" d="M1760.1 1449.78 Q1756.49 1449.78 1754.66 1453.34 Q1752.86 1456.88 1752.86 1464.01 Q1752.86 1471.12 1754.66 1474.69 Q1756.49 1478.23 1760.1 1478.23 Q1763.74 1478.23 1765.54 1474.69 Q1767.37 1471.12 1767.37 1464.01 Q1767.37 1456.88 1765.54 1453.34 Q1763.74 1449.78 1760.1 1449.78 M1760.1 1446.07 Q1765.91 1446.07 1768.97 1450.68 Q1772.05 1455.26 1772.05 1464.01 Q1772.05 1472.74 1768.97 1477.35 Q1765.91 1481.93 1760.1 1481.93 Q1754.29 1481.93 1751.22 1477.35 Q1748.16 1472.74 1748.16 1464.01 Q1748.16 1455.26 1751.22 1450.68 Q1754.29 1446.07 1760.1 1446.07 Z" fill="#000000" fill-rule="evenodd" fill-opacity="1" /><path clip-path="url(#clip080)" d="M1790.27 1449.78 Q1786.66 1449.78 1784.83 1453.34 Q1783.02 1456.88 1783.02 1464.01 Q1783.02 1471.12 1784.83 1474.69 Q1786.66 1478.23 1790.27 1478.23 Q1793.9 1478.23 1795.71 1474.69 Q1797.53 1471.12 1797.53 1464.01 Q1797.53 1456.88 1795.71 1453.34 Q1793.9 1449.78 1790.27 1449.78 M1790.27 1446.07 Q1796.08 1446.07 1799.13 1450.68 Q1802.21 1455.26 1802.21 1464.01 Q1802.21 1472.74 1799.13 1477.35 Q1796.08 1481.93 1790.27 1481.93 Q1784.46 1481.93 1781.38 1477.35 Q1778.32 1472.74 1778.32 1464.01 Q1778.32 1455.26 1781.38 1450.68 Q1784.46 1446.07 1790.27 1446.07 Z" fill="#000000" fill-rule="evenodd" fill-opacity="1" /><path clip-path="url(#clip080)" d="M1831.38 1455.33 L1822 1467.95 L1831.86 1481.26 L1826.84 1481.26 L1819.29 1471.07 L1811.75 1481.26 L1806.72 1481.26 L1816.79 1467.7 L1807.58 1455.33 L1812.6 1455.33 L1819.48 1464.57 L1826.35 1455.33 L1831.38 1455.33 Z" fill="#000000" fill-rule="evenodd" fill-opacity="1" /><path clip-path="url(#clip080)" d="M1839.29 1477.32 L1846.93 1477.32 L1846.93 1450.96 L1838.62 1452.63 L1838.62 1448.37 L1846.89 1446.7 L1851.56 1446.7 L1851.56 1477.32 L1859.2 1477.32 L1859.2 1481.26 L1839.29 1481.26 L1839.29 1477.32 Z" fill="#000000" fill-rule="evenodd" fill-opacity="1" /><path clip-path="url(#clip080)" d="M1878.65 1449.78 Q1875.03 1449.78 1873.21 1453.34 Q1871.4 1456.88 1871.4 1464.01 Q1871.4 1471.12 1873.21 1474.69 Q1875.03 1478.23 1878.65 1478.23 Q1882.28 1478.23 1884.09 1474.69 Q1885.91 1471.12 1885.91 1464.01 Q1885.91 1456.88 1884.09 1453.34 Q1882.28 1449.78 1878.65 1449.78 M1878.65 1446.07 Q1884.46 1446.07 1887.51 1450.68 Q1890.59 1455.26 1890.59 1464.01 Q1890.59 1472.74 1887.51 1477.35 Q1884.46 1481.93 1878.65 1481.93 Q1872.84 1481.93 1869.76 1477.35 Q1866.7 1472.74 1866.7 1464.01 Q1866.7 1455.26 1869.76 1450.68 Q1872.84 1446.07 1878.65 1446.07 Z" fill="#000000" fill-rule="evenodd" fill-opacity="1" /><path clip-path="url(#clip080)" d="M1903.81 1455.03 Q1901.77 1455.03 1900.59 1456.24 Q1899.41 1457.46 1899.41 1459.57 Q1899.41 1461.65 1900.59 1462.86 Q1901.77 1464.08 1903.81 1464.08 Q1905.82 1464.08 1907 1462.86 Q1908.18 1461.65 1908.18 1459.57 Q1908.18 1457.46 1907 1456.24 Q1905.82 1455.03 1903.81 1455.03 M1909.78 1446.84 L1909.78 1449.22 Q1908.65 1448.76 1907.49 1448.53 Q1906.33 1448.27 1905.2 1448.27 Q1902.23 1448.27 1900.66 1450.01 Q1899.09 1451.77 1898.85 1455.31 Q1899.73 1454.18 1901.05 1453.57 Q1902.4 1452.97 1903.97 1452.97 Q1907.33 1452.97 1909.27 1454.73 Q1911.21 1456.51 1911.21 1459.57 Q1911.21 1462.51 1909.18 1464.34 Q1907.16 1466.14 1903.81 1466.14 Q1899.94 1466.14 1897.9 1463.57 Q1895.87 1461.01 1895.87 1456.1 Q1895.87 1451.51 1898.37 1448.81 Q1900.87 1446.07 1905.08 1446.07 Q1906.21 1446.07 1907.37 1446.26 Q1908.53 1446.47 1909.78 1446.84 Z" fill="#000000" fill-rule="evenodd" fill-opacity="1" /><path clip-path="url(#clip080)" d="M2188.81 1450.77 L2177 1469.22 L2188.81 1469.22 L2188.81 1450.77 M2187.58 1446.7 L2193.46 1446.7 L2193.46 1469.22 L2198.39 1469.22 L2198.39 1473.11 L2193.46 1473.11 L2193.46 1481.26 L2188.81 1481.26 L2188.81 1473.11 L2173.21 1473.11 L2173.21 1468.6 L2187.58 1446.7 Z" fill="#000000" fill-rule="evenodd" fill-opacity="1" /><path clip-path="url(#clip080)" d="M2216.12 1449.78 Q2212.51 1449.78 2210.68 1453.34 Q2208.88 1456.88 2208.88 1464.01 Q2208.88 1471.12 2210.68 1474.69 Q2212.51 1478.23 2216.12 1478.23 Q2219.76 1478.23 2221.56 1474.69 Q2223.39 1471.12 2223.39 1464.01 Q2223.39 1456.88 2221.56 1453.34 Q2219.76 1449.78 2216.12 1449.78 M2216.12 1446.07 Q2221.93 1446.07 2224.99 1450.68 Q2228.07 1455.26 2228.07 1464.01 Q2228.07 1472.74 2224.99 1477.35 Q2221.93 1481.93 2216.12 1481.93 Q2210.31 1481.93 2207.23 1477.35 Q2204.18 1472.74 2204.18 1464.01 Q2204.18 1455.26 2207.23 1450.68 Q2210.31 1446.07 2216.12 1446.07 Z" fill="#000000" fill-rule="evenodd" fill-opacity="1" /><path clip-path="url(#clip080)" d="M2236.28 1475.38 L2241.17 1475.38 L2241.17 1481.26 L2236.28 1481.26 L2236.28 1475.38 Z" fill="#000000" fill-rule="evenodd" fill-opacity="1" /><path clip-path="url(#clip080)" d="M2261.35 1449.78 Q2257.74 1449.78 2255.91 1453.34 Q2254.11 1456.88 2254.11 1464.01 Q2254.11 1471.12 2255.91 1474.69 Q2257.74 1478.23 2261.35 1478.23 Q2264.99 1478.23 2266.79 1474.69 Q2268.62 1471.12 2268.62 1464.01 Q2268.62 1456.88 2266.79 1453.34 Q2264.99 1449.78 2261.35 1449.78 M2261.35 1446.07 Q2267.16 1446.07 2270.22 1450.68 Q2273.3 1455.26 2273.3 1464.01 Q2273.3 1472.74 2270.22 1477.35 Q2267.16 1481.93 2261.35 1481.93 Q2255.54 1481.93 2252.46 1477.35 Q2249.41 1472.74 2249.41 1464.01 Q2249.41 1455.26 2252.46 1450.68 Q2255.54 1446.07 2261.35 1446.07 Z" fill="#000000" fill-rule="evenodd" fill-opacity="1" /><path clip-path="url(#clip080)" d="M2291.51 1449.78 Q2287.9 1449.78 2286.07 1453.34 Q2284.27 1456.88 2284.27 1464.01 Q2284.27 1471.12 2286.07 1474.69 Q2287.9 1478.23 2291.51 1478.23 Q2295.15 1478.23 2296.95 1474.69 Q2298.78 1471.12 2298.78 1464.01 Q2298.78 1456.88 2296.95 1453.34 Q2295.15 1449.78 2291.51 1449.78 M2291.51 1446.07 Q2297.32 1446.07 2300.38 1450.68 Q2303.46 1455.26 2303.46 1464.01 Q2303.46 1472.74 2300.38 1477.35 Q2297.32 1481.93 2291.51 1481.93 Q2285.7 1481.93 2282.63 1477.35 Q2279.57 1472.74 2279.57 1464.01 Q2279.57 1455.26 2282.63 1450.68 Q2285.7 1446.07 2291.51 1446.07 Z" fill="#000000" fill-rule="evenodd" fill-opacity="1" /><path clip-path="url(#clip080)" d="M2332.63 1455.33 L2323.25 1467.95 L2333.11 1481.26 L2328.09 1481.26 L2320.54 1471.07 L2313 1481.26 L2307.97 1481.26 L2318.04 1467.7 L2308.83 1455.33 L2313.85 1455.33 L2320.73 1464.57 L2327.6 1455.33 L2332.63 1455.33 Z" fill="#000000" fill-rule="evenodd" fill-opacity="1" /><path clip-path="url(#clip080)" d="M2340.54 1477.32 L2348.18 1477.32 L2348.18 1450.96 L2339.87 1452.63 L2339.87 1448.37 L2348.13 1446.7 L2352.81 1446.7 L2352.81 1477.32 L2360.45 1477.32 L2360.45 1481.26 L2340.54 1481.26 L2340.54 1477.32 Z" fill="#000000" fill-rule="evenodd" fill-opacity="1" /><path clip-path="url(#clip080)" d="M2379.89 1449.78 Q2376.28 1449.78 2374.45 1453.34 Q2372.65 1456.88 2372.65 1464.01 Q2372.65 1471.12 2374.45 1474.69 Q2376.28 1478.23 2379.89 1478.23 Q2383.53 1478.23 2385.33 1474.69 Q2387.16 1471.12 2387.16 1464.01 Q2387.16 1456.88 2385.33 1453.34 Q2383.53 1449.78 2379.89 1449.78 M2379.89 1446.07 Q2385.7 1446.07 2388.76 1450.68 Q2391.84 1455.26 2391.84 1464.01 Q2391.84 1472.74 2388.76 1477.35 Q2385.7 1481.93 2379.89 1481.93 Q2374.08 1481.93 2371 1477.35 Q2367.95 1472.74 2367.95 1464.01 Q2367.95 1455.26 2371 1450.68 Q2374.08 1446.07 2379.89 1446.07 Z" fill="#000000" fill-rule="evenodd" fill-opacity="1" /><path clip-path="url(#clip080)" d="M2405.06 1455.03 Q2403.02 1455.03 2401.84 1456.24 Q2400.66 1457.46 2400.66 1459.57 Q2400.66 1461.65 2401.84 1462.86 Q2403.02 1464.08 2405.06 1464.08 Q2407.07 1464.08 2408.25 1462.86 Q2409.43 1461.65 2409.43 1459.57 Q2409.43 1457.46 2408.25 1456.24 Q2407.07 1455.03 2405.06 1455.03 M2411.03 1446.84 L2411.03 1449.22 Q2409.89 1448.76 2408.74 1448.53 Q2407.58 1448.27 2406.44 1448.27 Q2403.48 1448.27 2401.91 1450.01 Q2400.33 1451.77 2400.1 1455.31 Q2400.98 1454.18 2402.3 1453.57 Q2403.64 1452.97 2405.22 1452.97 Q2408.57 1452.97 2410.52 1454.73 Q2412.46 1456.51 2412.46 1459.57 Q2412.46 1462.51 2410.43 1464.34 Q2408.41 1466.14 2405.06 1466.14 Q2401.19 1466.14 2399.15 1463.57 Q2397.12 1461.01 2397.12 1456.1 Q2397.12 1451.51 2399.62 1448.81 Q2402.12 1446.07 2406.33 1446.07 Q2407.46 1446.07 2408.62 1446.26 Q2409.78 1446.47 2411.03 1446.84 Z" fill="#000000" fill-rule="evenodd" fill-opacity="1" /><path clip-path="url(#clip080)" d="M1130.02 1517.07 L1137.04 1517.07 L1137.04 1568.91 L1130.02 1568.91 L1130.02 1517.07 Z" fill="#000000" fill-rule="evenodd" fill-opacity="1" /><path clip-path="url(#clip080)" d="M1157.04 1518.98 L1157.04 1530.02 L1170.2 1530.02 L1170.2 1534.98 L1157.04 1534.98 L1157.04 1556.1 Q1157.04 1560.85 1158.32 1562.21 Q1159.64 1563.56 1163.63 1563.56 L1170.2 1563.56 L1170.2 1568.91 L1163.63 1568.91 Q1156.24 1568.91 1153.43 1566.16 Q1150.61 1563.39 1150.61 1556.1 L1150.61 1534.98 L1145.93 1534.98 L1145.93 1530.02 L1150.61 1530.02 L1150.61 1518.98 L1157.04 1518.98 Z" fill="#000000" fill-rule="evenodd" fill-opacity="1" /><path clip-path="url(#clip080)" d="M1211.86 1547.87 L1211.86 1550.99 L1182.49 1550.99 Q1182.9 1557.59 1186.45 1561.06 Q1190.02 1564.5 1196.38 1564.5 Q1200.06 1564.5 1203.49 1563.6 Q1206.97 1562.69 1210.37 1560.89 L1210.37 1566.93 Q1206.93 1568.39 1203.32 1569.15 Q1199.71 1569.91 1195.99 1569.91 Q1186.69 1569.91 1181.24 1564.5 Q1175.82 1559.08 1175.82 1549.85 Q1175.82 1540.3 1180.96 1534.71 Q1186.13 1529.08 1194.88 1529.08 Q1202.73 1529.08 1207.28 1534.15 Q1211.86 1539.19 1211.86 1547.87 M1205.47 1545.99 Q1205.4 1540.75 1202.52 1537.62 Q1199.68 1534.5 1194.95 1534.5 Q1189.61 1534.5 1186.38 1537.52 Q1183.18 1540.54 1182.7 1546.03 L1205.47 1545.99 Z" fill="#000000" fill-rule="evenodd" fill-opacity="1" /><path clip-path="url(#clip080)" d="M1244.88 1535.99 Q1243.81 1535.37 1242.52 1535.09 Q1241.27 1534.78 1239.74 1534.78 Q1234.33 1534.78 1231.41 1538.32 Q1228.53 1541.82 1228.53 1548.42 L1228.53 1568.91 L1222.11 1568.91 L1222.11 1530.02 L1228.53 1530.02 L1228.53 1536.06 Q1230.54 1532.52 1233.77 1530.82 Q1237 1529.08 1241.62 1529.08 Q1242.28 1529.08 1243.08 1529.19 Q1243.88 1529.26 1244.85 1529.43 L1244.88 1535.99 Z" fill="#000000" fill-rule="evenodd" fill-opacity="1" /><path clip-path="url(#clip080)" d="M1269.26 1549.36 Q1261.52 1549.36 1258.53 1551.13 Q1255.54 1552.9 1255.54 1557.17 Q1255.54 1560.57 1257.77 1562.59 Q1260.02 1564.57 1263.88 1564.57 Q1269.19 1564.57 1272.38 1560.82 Q1275.61 1557.03 1275.61 1550.78 L1275.61 1549.36 L1269.26 1549.36 M1282 1546.72 L1282 1568.91 L1275.61 1568.91 L1275.61 1563.01 Q1273.42 1566.55 1270.16 1568.25 Q1266.9 1569.91 1262.17 1569.91 Q1256.2 1569.91 1252.66 1566.58 Q1249.15 1563.21 1249.15 1557.59 Q1249.15 1551.03 1253.53 1547.69 Q1257.94 1544.36 1266.65 1544.36 L1275.61 1544.36 L1275.61 1543.73 Q1275.61 1539.32 1272.7 1536.93 Q1269.81 1534.5 1264.57 1534.5 Q1261.24 1534.5 1258.08 1535.3 Q1254.92 1536.1 1252 1537.69 L1252 1531.79 Q1255.51 1530.44 1258.81 1529.78 Q1262.11 1529.08 1265.23 1529.08 Q1273.67 1529.08 1277.83 1533.46 Q1282 1537.83 1282 1546.72 Z" fill="#000000" fill-rule="evenodd" fill-opacity="1" /><path clip-path="url(#clip080)" d="M1301.48 1518.98 L1301.48 1530.02 L1314.64 1530.02 L1314.64 1534.98 L1301.48 1534.98 L1301.48 1556.1 Q1301.48 1560.85 1302.76 1562.21 Q1304.08 1563.56 1308.08 1563.56 L1314.64 1563.56 L1314.64 1568.91 L1308.08 1568.91 Q1300.68 1568.91 1297.87 1566.16 Q1295.06 1563.39 1295.06 1556.1 L1295.06 1534.98 L1290.37 1534.98 L1290.37 1530.02 L1295.06 1530.02 L1295.06 1518.98 L1301.48 1518.98 Z" fill="#000000" fill-rule="evenodd" fill-opacity="1" /><path clip-path="url(#clip080)" d="M1323.04 1530.02 L1329.43 1530.02 L1329.43 1568.91 L1323.04 1568.91 L1323.04 1530.02 M1323.04 1514.88 L1329.43 1514.88 L1329.43 1522.97 L1323.04 1522.97 L1323.04 1514.88 Z" fill="#000000" fill-rule="evenodd" fill-opacity="1" /><path clip-path="url(#clip080)" d="M1357.87 1534.5 Q1352.73 1534.5 1349.74 1538.53 Q1346.76 1542.52 1346.76 1549.5 Q1346.76 1556.48 1349.71 1560.51 Q1352.7 1564.5 1357.87 1564.5 Q1362.97 1564.5 1365.96 1560.47 Q1368.95 1556.44 1368.95 1549.5 Q1368.95 1542.59 1365.96 1538.56 Q1362.97 1534.5 1357.87 1534.5 M1357.87 1529.08 Q1366.2 1529.08 1370.96 1534.5 Q1375.72 1539.91 1375.72 1549.5 Q1375.72 1559.05 1370.96 1564.5 Q1366.2 1569.91 1357.87 1569.91 Q1349.5 1569.91 1344.74 1564.5 Q1340.02 1559.05 1340.02 1549.5 Q1340.02 1539.91 1344.74 1534.5 Q1349.5 1529.08 1357.87 1529.08 Z" fill="#000000" fill-rule="evenodd" fill-opacity="1" /><path clip-path="url(#clip080)" d="M1418.63 1545.44 L1418.63 1568.91 L1412.24 1568.91 L1412.24 1545.64 Q1412.24 1540.12 1410.09 1537.38 Q1407.94 1534.64 1403.63 1534.64 Q1398.46 1534.64 1395.47 1537.94 Q1392.49 1541.23 1392.49 1546.93 L1392.49 1568.91 L1386.06 1568.91 L1386.06 1530.02 L1392.49 1530.02 L1392.49 1536.06 Q1394.78 1532.55 1397.87 1530.82 Q1400.99 1529.08 1405.06 1529.08 Q1411.76 1529.08 1415.19 1533.25 Q1418.63 1537.38 1418.63 1545.44 Z" fill="#000000" fill-rule="evenodd" fill-opacity="1" /><path clip-path="url(#clip080)" d="M1456.17 1531.16 L1456.17 1537.21 Q1453.46 1535.82 1450.54 1535.12 Q1447.63 1534.43 1444.5 1534.43 Q1439.74 1534.43 1437.35 1535.89 Q1434.99 1537.35 1434.99 1540.26 Q1434.99 1542.48 1436.69 1543.77 Q1438.39 1545.02 1443.53 1546.16 L1445.72 1546.65 Q1452.52 1548.11 1455.37 1550.78 Q1458.25 1553.42 1458.25 1558.18 Q1458.25 1563.6 1453.94 1566.76 Q1449.67 1569.91 1442.17 1569.91 Q1439.05 1569.91 1435.65 1569.29 Q1432.28 1568.7 1428.53 1567.48 L1428.53 1560.89 Q1432.07 1562.73 1435.51 1563.66 Q1438.94 1564.57 1442.31 1564.57 Q1446.83 1564.57 1449.26 1563.04 Q1451.69 1561.48 1451.69 1558.66 Q1451.69 1556.06 1449.92 1554.67 Q1448.18 1553.28 1442.24 1552 L1440.02 1551.48 Q1434.08 1550.23 1431.44 1547.66 Q1428.81 1545.05 1428.81 1540.54 Q1428.81 1535.05 1432.69 1532.07 Q1436.58 1529.08 1443.74 1529.08 Q1447.28 1529.08 1450.4 1529.6 Q1453.53 1530.12 1456.17 1531.16 Z" fill="#000000" fill-rule="evenodd" fill-opacity="1" /><polyline clip-path="url(#clip082)" style="stroke:#000000; stroke-linecap:round; stroke-linejoin:round; stroke-width:2; stroke-opacity:0.1; fill:none" points="
  235.517,1395.14 2352.76,1395.14 
  "/>
<polyline clip-path="url(#clip082)" style="stroke:#000000; stroke-linecap:round; stroke-linejoin:round; stroke-width:2; stroke-opacity:0.1; fill:none" points="
  235.517,1061.36 2352.76,1061.36 
  "/>
<polyline clip-path="url(#clip082)" style="stroke:#000000; stroke-linecap:round; stroke-linejoin:round; stroke-width:2; stroke-opacity:0.1; fill:none" points="
  235.517,727.58 2352.76,727.58 
  "/>
<polyline clip-path="url(#clip082)" style="stroke:#000000; stroke-linecap:round; stroke-linejoin:round; stroke-width:2; stroke-opacity:0.1; fill:none" points="
  235.517,393.798 2352.76,393.798 
  "/>
<polyline clip-path="url(#clip082)" style="stroke:#000000; stroke-linecap:round; stroke-linejoin:round; stroke-width:2; stroke-opacity:0.1; fill:none" points="
  235.517,60.0158 2352.76,60.0158 
  "/>
<polyline clip-path="url(#clip080)" style="stroke:#000000; stroke-linecap:round; stroke-linejoin:round; stroke-width:4; stroke-opacity:1; fill:none" points="
  235.517,1418.86 235.517,47.2441 
  "/>
<polyline clip-path="url(#clip080)" style="stroke:#000000; stroke-linecap:round; stroke-linejoin:round; stroke-width:4; stroke-opacity:1; fill:none" points="
  235.517,1395.14 254.415,1395.14 
  "/>
<polyline clip-path="url(#clip080)" style="stroke:#000000; stroke-linecap:round; stroke-linejoin:round; stroke-width:4; stroke-opacity:1; fill:none" points="
  235.517,1061.36 254.415,1061.36 
  "/>
<polyline clip-path="url(#clip080)" style="stroke:#000000; stroke-linecap:round; stroke-linejoin:round; stroke-width:4; stroke-opacity:1; fill:none" points="
  235.517,727.58 254.415,727.58 
  "/>
<polyline clip-path="url(#clip080)" style="stroke:#000000; stroke-linecap:round; stroke-linejoin:round; stroke-width:4; stroke-opacity:1; fill:none" points="
  235.517,393.798 254.415,393.798 
  "/>
<polyline clip-path="url(#clip080)" style="stroke:#000000; stroke-linecap:round; stroke-linejoin:round; stroke-width:4; stroke-opacity:1; fill:none" points="
  235.517,60.0158 254.415,60.0158 
  "/>
<path clip-path="url(#clip080)" d="M137.226 1392.35 Q132.504 1392.35 129.726 1395.58 Q126.983 1398.81 126.983 1404.43 Q126.983 1410.02 129.726 1413.29 Q132.504 1416.52 137.226 1416.52 Q141.948 1416.52 144.691 1413.29 Q147.469 1410.02 147.469 1404.43 Q147.469 1398.81 144.691 1395.58 Q141.948 1392.35 137.226 1392.35 M151.149 1370.37 L151.149 1376.76 Q148.511 1375.51 145.802 1374.85 Q143.129 1374.19 140.49 1374.19 Q133.545 1374.19 129.865 1378.88 Q126.219 1383.56 125.698 1393.04 Q127.747 1390.02 130.837 1388.43 Q133.927 1386.79 137.643 1386.79 Q145.455 1386.79 149.969 1391.55 Q154.517 1396.27 154.517 1404.43 Q154.517 1412.42 149.795 1417.25 Q145.073 1422.07 137.226 1422.07 Q128.233 1422.07 123.476 1415.2 Q118.719 1408.29 118.719 1395.2 Q118.719 1382.91 124.552 1375.61 Q130.386 1368.29 140.212 1368.29 Q142.851 1368.29 145.524 1368.81 Q148.233 1369.33 151.149 1370.37 Z" fill="#000000" fill-rule="evenodd" fill-opacity="1" /><path clip-path="url(#clip080)" d="M181.601 1373.84 Q176.184 1373.84 173.441 1379.19 Q170.733 1384.5 170.733 1395.2 Q170.733 1405.86 173.441 1411.2 Q176.184 1416.52 181.601 1416.52 Q187.052 1416.52 189.76 1411.2 Q192.503 1405.86 192.503 1395.2 Q192.503 1384.5 189.76 1379.19 Q187.052 1373.84 181.601 1373.84 M181.601 1368.29 Q190.316 1368.29 194.899 1375.2 Q199.517 1382.07 199.517 1395.2 Q199.517 1408.29 194.899 1415.2 Q190.316 1422.07 181.601 1422.07 Q172.885 1422.07 168.267 1415.2 Q163.684 1408.29 163.684 1395.2 Q163.684 1382.07 168.267 1375.2 Q172.885 1368.29 181.601 1368.29 Z" fill="#000000" fill-rule="evenodd" fill-opacity="1" /><path clip-path="url(#clip080)" d="M138.719 1058.57 Q133.997 1058.57 131.219 1061.8 Q128.476 1065.03 128.476 1070.65 Q128.476 1076.24 131.219 1079.5 Q133.997 1082.73 138.719 1082.73 Q143.441 1082.73 146.184 1079.5 Q148.962 1076.24 148.962 1070.65 Q148.962 1065.03 146.184 1061.8 Q143.441 1058.57 138.719 1058.57 M152.642 1036.59 L152.642 1042.98 Q150.004 1041.73 147.295 1041.07 Q144.622 1040.41 141.983 1040.41 Q135.038 1040.41 131.358 1045.1 Q127.712 1049.78 127.191 1059.26 Q129.24 1056.24 132.33 1054.64 Q135.42 1053.01 139.136 1053.01 Q146.948 1053.01 151.462 1057.77 Q156.011 1062.49 156.011 1070.65 Q156.011 1078.64 151.288 1083.46 Q146.566 1088.29 138.719 1088.29 Q129.726 1088.29 124.969 1081.41 Q120.212 1074.5 120.212 1061.41 Q120.212 1049.12 126.045 1041.83 Q131.879 1034.5 141.705 1034.5 Q144.344 1034.5 147.018 1035.03 Q149.726 1035.55 152.642 1036.59 Z" fill="#000000" fill-rule="evenodd" fill-opacity="1" /><path clip-path="url(#clip080)" d="M168.163 1035.44 L195.698 1035.44 L195.698 1041.35 L174.587 1041.35 L174.587 1054.05 Q176.115 1053.53 177.642 1053.29 Q179.17 1053.01 180.698 1053.01 Q189.378 1053.01 194.448 1057.77 Q199.517 1062.53 199.517 1070.65 Q199.517 1079.02 194.309 1083.67 Q189.101 1088.29 179.621 1088.29 Q176.358 1088.29 172.955 1087.73 Q169.587 1087.18 165.976 1086.07 L165.976 1079.02 Q169.101 1080.72 172.434 1081.55 Q175.767 1082.39 179.483 1082.39 Q185.49 1082.39 188.996 1079.23 Q192.503 1076.07 192.503 1070.65 Q192.503 1065.23 188.996 1062.07 Q185.49 1058.91 179.483 1058.91 Q176.67 1058.91 173.858 1059.54 Q171.08 1060.16 168.163 1061.48 L168.163 1035.44 Z" fill="#000000" fill-rule="evenodd" fill-opacity="1" /><path clip-path="url(#clip080)" d="M119.587 701.66 L152.92 701.66 L152.92 704.646 L134.101 753.5 L126.775 753.5 L144.483 707.563 L119.587 707.563 L119.587 701.66 Z" fill="#000000" fill-rule="evenodd" fill-opacity="1" /><path clip-path="url(#clip080)" d="M181.601 706.278 Q176.184 706.278 173.441 711.625 Q170.733 716.938 170.733 727.632 Q170.733 738.292 173.441 743.639 Q176.184 748.952 181.601 748.952 Q187.052 748.952 189.76 743.639 Q192.503 738.292 192.503 727.632 Q192.503 716.938 189.76 711.625 Q187.052 706.278 181.601 706.278 M181.601 700.723 Q190.316 700.723 194.899 707.632 Q199.517 714.507 199.517 727.632 Q199.517 740.722 194.899 747.632 Q190.316 754.507 181.601 754.507 Q172.885 754.507 168.267 747.632 Q163.684 740.722 163.684 727.632 Q163.684 714.507 168.267 707.632 Q172.885 700.723 181.601 700.723 Z" fill="#000000" fill-rule="evenodd" fill-opacity="1" /><path clip-path="url(#clip080)" d="M121.08 367.878 L154.413 367.878 L154.413 370.864 L135.594 419.718 L128.268 419.718 L145.976 373.781 L121.08 373.781 L121.08 367.878 Z" fill="#000000" fill-rule="evenodd" fill-opacity="1" /><path clip-path="url(#clip080)" d="M168.163 367.878 L195.698 367.878 L195.698 373.781 L174.587 373.781 L174.587 386.489 Q176.115 385.968 177.642 385.725 Q179.17 385.447 180.698 385.447 Q189.378 385.447 194.448 390.204 Q199.517 394.961 199.517 403.086 Q199.517 411.454 194.309 416.107 Q189.101 420.725 179.621 420.725 Q176.358 420.725 172.955 420.169 Q169.587 419.614 165.976 418.503 L165.976 411.454 Q169.101 413.156 172.434 413.989 Q175.767 414.822 179.483 414.822 Q185.49 414.822 188.996 411.662 Q192.503 408.503 192.503 403.086 Q192.503 397.669 188.996 394.51 Q185.49 391.35 179.483 391.35 Q176.67 391.35 173.858 391.975 Q171.08 392.6 168.163 393.919 L168.163 367.878 Z" fill="#000000" fill-rule="evenodd" fill-opacity="1" /><path clip-path="url(#clip080)" d="M136.358 61.3178 Q131.358 61.3178 128.476 63.9914 Q125.629 66.665 125.629 71.3525 Q125.629 76.04 128.476 78.7136 Q131.358 81.3872 136.358 81.3872 Q141.358 81.3872 144.24 78.7136 Q147.122 76.0053 147.122 71.3525 Q147.122 66.665 144.24 63.9914 Q141.393 61.3178 136.358 61.3178 M129.344 58.3317 Q124.83 57.2206 122.295 54.1304 Q119.795 51.0401 119.795 46.5957 Q119.795 40.3805 124.205 36.7694 Q128.65 33.1583 136.358 33.1583 Q144.101 33.1583 148.511 36.7694 Q152.92 40.3805 152.92 46.5957 Q152.92 51.0401 150.386 54.1304 Q147.886 57.2206 143.406 58.3317 Q148.476 59.5123 151.288 62.9498 Q154.136 66.3873 154.136 71.3525 Q154.136 78.8872 149.517 82.9149 Q144.934 86.9427 136.358 86.9427 Q127.781 86.9427 123.163 82.9149 Q118.58 78.8872 118.58 71.3525 Q118.58 66.3873 121.427 62.9498 Q124.275 59.5123 129.344 58.3317 M126.775 47.2554 Q126.775 51.2832 129.275 53.5401 Q131.809 55.797 136.358 55.797 Q140.872 55.797 143.406 53.5401 Q145.976 51.2832 145.976 47.2554 Q145.976 43.2277 143.406 40.9707 Q140.872 38.7138 136.358 38.7138 Q131.809 38.7138 129.275 40.9707 Q126.775 43.2277 126.775 47.2554 Z" fill="#000000" fill-rule="evenodd" fill-opacity="1" /><path clip-path="url(#clip080)" d="M181.601 38.7138 Q176.184 38.7138 173.441 44.061 Q170.733 49.3735 170.733 60.0678 Q170.733 70.7275 173.441 76.0747 Q176.184 81.3872 181.601 81.3872 Q187.052 81.3872 189.76 76.0747 Q192.503 70.7275 192.503 60.0678 Q192.503 49.3735 189.76 44.061 Q187.052 38.7138 181.601 38.7138 M181.601 33.1583 Q190.316 33.1583 194.899 40.068 Q199.517 46.9429 199.517 60.0678 Q199.517 73.1581 194.899 80.0677 Q190.316 86.9427 181.601 86.9427 Q172.885 86.9427 168.267 80.0677 Q163.684 73.1581 163.684 60.0678 Q163.684 46.9429 168.267 40.068 Q172.885 33.1583 181.601 33.1583 Z" fill="#000000" fill-rule="evenodd" fill-opacity="1" /><path clip-path="url(#clip080)" d="M42.7227 834.163 Q43.4866 831.906 45.9866 829.788 Q48.4866 827.635 52.8616 825.482 L67.0282 818.364 L67.0282 825.899 L53.7296 832.531 Q48.5213 835.1 46.8199 837.531 Q45.1186 839.926 45.1186 844.093 L45.1186 851.732 L67.0282 851.732 L67.0282 858.746 L15.1882 858.746 L15.1882 842.912 Q15.1882 834.024 18.9034 829.649 Q22.6187 825.274 30.1186 825.274 Q35.0144 825.274 38.2436 827.565 Q41.4727 829.822 42.7227 834.163 M20.952 851.732 L39.3547 851.732 L39.3547 842.912 Q39.3547 837.843 37.0283 835.274 Q34.6672 832.669 30.1186 832.669 Q25.57 832.669 23.2784 835.274 Q20.952 837.843 20.952 842.912 L20.952 851.732 Z" fill="#000000" fill-rule="evenodd" fill-opacity="1" /><path clip-path="url(#clip080)" d="M45.9866 779.545 L49.1116 779.545 L49.1116 808.92 Q55.7088 808.503 59.181 804.961 Q62.6185 801.385 62.6185 795.031 Q62.6185 791.35 61.7157 787.913 Q60.8129 784.441 59.0074 781.038 L65.049 781.038 Q66.5073 784.475 67.2712 788.086 Q68.0351 791.697 68.0351 795.413 Q68.0351 804.718 62.6185 810.17 Q57.2018 815.586 47.9658 815.586 Q38.4172 815.586 32.827 810.447 Q27.202 805.274 27.202 796.524 Q27.202 788.677 32.2714 784.128 Q37.3061 779.545 45.9866 779.545 M44.1116 785.934 Q38.8686 786.003 35.7436 788.885 Q32.6186 791.732 32.6186 796.454 Q32.6186 801.802 35.6394 805.031 Q38.6603 808.225 44.1463 808.711 L44.1116 785.934 Z" fill="#000000" fill-rule="evenodd" fill-opacity="1" /><path clip-path="url(#clip080)" d="M28.1395 772.774 L28.1395 766.385 L58.4865 758.399 L28.1395 750.448 L28.1395 742.913 L58.4865 734.927 L28.1395 726.976 L28.1395 720.587 L67.0282 730.76 L67.0282 738.295 L35.1533 746.663 L67.0282 755.066 L67.0282 762.6 L28.1395 772.774 Z" fill="#000000" fill-rule="evenodd" fill-opacity="1" /><path clip-path="url(#clip080)" d="M47.4797 693.226 Q47.4797 700.969 49.2505 703.955 Q51.0213 706.941 55.2921 706.941 Q58.6949 706.941 60.7087 704.719 Q62.6879 702.462 62.6879 698.608 Q62.6879 693.295 58.9379 690.101 Q55.1532 686.872 48.9033 686.872 L47.4797 686.872 L47.4797 693.226 M44.8408 680.483 L67.0282 680.483 L67.0282 686.872 L61.1254 686.872 Q64.6671 689.059 66.3684 692.323 Q68.0351 695.587 68.0351 700.309 Q68.0351 706.281 64.7018 709.823 Q61.3337 713.33 55.7088 713.33 Q49.1463 713.33 45.813 708.955 Q42.4797 704.545 42.4797 695.83 L42.4797 686.872 L41.8547 686.872 Q37.445 686.872 35.0492 689.788 Q32.6186 692.67 32.6186 697.913 Q32.6186 701.247 33.4172 704.406 Q34.2158 707.566 35.813 710.483 L29.9103 710.483 Q28.5561 706.976 27.8964 703.677 Q27.202 700.379 27.202 697.254 Q27.202 688.816 31.577 684.649 Q35.9519 680.483 44.8408 680.483 Z" fill="#000000" fill-rule="evenodd" fill-opacity="1" /><path clip-path="url(#clip080)" d="M34.1117 644.789 Q33.4867 645.865 33.2089 647.15 Q32.8964 648.4 32.8964 649.927 Q32.8964 655.344 36.438 658.261 Q39.945 661.143 46.5422 661.143 L67.0282 661.143 L67.0282 667.566 L28.1395 667.566 L28.1395 661.143 L34.1811 661.143 Q30.6395 659.129 28.9381 655.9 Q27.202 652.67 27.202 648.052 Q27.202 647.393 27.3061 646.594 Q27.3756 645.795 27.5492 644.823 L34.1117 644.789 Z" fill="#000000" fill-rule="evenodd" fill-opacity="1" /><path clip-path="url(#clip080)" d="M34.0422 613.747 L13.0007 613.747 L13.0007 607.358 L67.0282 607.358 L67.0282 613.747 L61.1949 613.747 Q64.6671 615.761 66.3684 618.851 Q68.0351 621.907 68.0351 626.212 Q68.0351 633.261 62.4101 637.705 Q56.7852 642.115 47.6185 642.115 Q38.4519 642.115 32.827 637.705 Q27.202 633.261 27.202 626.212 Q27.202 621.907 28.9034 618.851 Q30.57 615.761 34.0422 613.747 M47.6185 635.518 Q54.6671 635.518 58.6949 632.636 Q62.6879 629.719 62.6879 624.65 Q62.6879 619.58 58.6949 616.664 Q54.6671 613.747 47.6185 613.747 Q40.57 613.747 36.5769 616.664 Q32.5492 619.58 32.5492 624.65 Q32.5492 629.719 36.5769 632.636 Q40.57 635.518 47.6185 635.518 Z" fill="#000000" fill-rule="evenodd" fill-opacity="1" /><polyline clip-path="url(#clip082)" style="stroke:#ffa500; stroke-linecap:round; stroke-linejoin:round; stroke-width:4; stroke-opacity:1; fill:none" points="
  295.439,1380.04 300.445,1186.73 305.451,1002.59 310.457,994.291 315.463,906.848 320.469,869.406 325.475,843.76 330.481,772.151 335.487,729.182 340.493,671.037 
  345.499,680.943 350.505,625.777 355.511,648.777 360.517,657.198 365.523,656.022 370.529,628.946 375.535,654.962 380.541,621.329 385.547,632.547 390.553,608.367 
  395.559,594.859 400.565,611.608 405.571,644.402 410.577,681.476 415.583,627.228 420.589,575.994 425.595,589.62 430.601,577.479 435.607,595.955 440.613,522.465 
  445.619,616.478 450.625,577.714 455.631,510.096 460.637,547.08 465.643,547.626 470.649,545.321 475.655,511.872 480.661,538.009 485.667,520.37 490.673,517.287 
  495.679,486.428 500.685,479.758 505.691,474.623 510.697,462.801 515.703,514.976 520.709,448.82 525.715,460.146 530.721,504.163 535.727,496.823 540.733,479.88 
  545.739,493.21 550.745,489.302 555.751,480.611 560.757,444.817 565.763,492.486 570.769,486.219 575.775,450.373 580.781,466.22 585.787,492.632 590.793,470.841 
  595.799,482.545 600.805,479.503 605.811,460.409 610.817,418.381 615.823,405.863 620.829,449.065 625.835,476.166 630.841,420.53 635.847,410.737 640.853,399.903 
  645.859,433.525 650.865,410.452 655.871,452.601 660.877,347.917 665.883,412.39 670.889,409.113 675.895,423.952 680.901,396.312 685.907,401.353 690.913,366.998 
  695.919,375.754 700.925,390.155 705.931,358.675 710.937,373.941 715.943,374.688 720.949,391.05 725.955,440.423 730.961,377.703 735.967,382.126 740.973,378.756 
  745.979,383.605 750.985,373.986 755.991,397.619 760.997,384.361 766.003,375.969 771.009,347.026 776.015,387.46 781.021,350.917 786.027,349.678 791.033,321.07 
  796.039,351.267 801.045,385.761 806.051,416.708 811.057,386.34 816.063,377.85 821.069,403.731 826.075,332.571 831.081,368.54 836.087,372.233 841.093,367.646 
  846.099,382.079 851.105,396.41 856.111,362.76 861.117,404.688 866.123,337.856 871.129,308.455 876.135,362.481 881.141,357.242 886.147,369.762 891.153,367.044 
  896.159,361.444 901.165,371.511 906.171,357.486 911.177,291.308 916.183,359.787 921.189,305.973 926.195,346.107 931.201,357.367 936.207,373.252 941.213,372.528 
  946.219,354.219 951.225,295.927 956.231,314.076 961.237,372.769 966.243,331.561 971.249,317.425 976.255,300.324 981.261,319.739 986.267,328.715 991.273,304.539 
  996.279,335.806 1001.29,338.682 1006.29,248.561 1011.3,308.559 1016.3,309.17 1021.31,331.649 1026.32,322.266 1031.32,334.112 1036.33,289.573 1041.33,295.183 
  1046.34,322.93 1051.35,327.73 1056.35,301.468 1061.36,330.801 1066.36,313.661 1071.37,329.069 1076.38,366.889 1081.38,302.063 1086.39,285.799 1091.39,357.138 
  1096.4,309.148 1101.41,327.788 1106.41,314.047 1111.42,306.056 1116.42,310.116 1121.43,301.016 1126.44,334.946 1131.44,293.1 1136.45,347.907 1141.45,319.888 
  1146.46,305.283 1151.47,295.685 1156.47,323.795 1161.48,330.544 1166.48,294.245 1171.49,319.858 1176.5,244.759 1181.5,273.515 1186.51,253.272 1191.51,307.751 
  1196.52,297.077 1201.53,307.483 1206.53,302.275 1211.54,275.005 1216.54,299.786 1221.55,298.321 1226.56,289.528 1231.56,333.425 1236.57,330.271 1241.57,256.165 
  1246.58,294.103 1251.59,312.866 1256.59,309.612 1261.6,270.815 1266.6,249.045 1271.61,243.163 1276.62,256.483 1281.62,307.769 1286.63,253.92 1291.63,229.036 
  1296.64,283.649 1301.65,264.919 1306.65,295.341 1311.66,275.976 1316.66,296.595 1321.67,313.941 1326.68,304.048 1331.68,274.219 1336.69,278.256 1341.69,257.144 
  1346.7,269.809 1351.71,253.697 1356.71,255.854 1361.72,239.894 1366.72,247.472 1371.73,226.208 1376.74,256.978 1381.74,216.989 1386.75,293.534 1391.75,254.547 
  1396.76,304.74 1401.77,270.761 1406.77,233.937 1411.78,247.003 1416.78,240.18 1421.79,215.3 1426.8,236.364 1431.8,229.65 1436.81,242.62 1441.81,251.786 
  1446.82,211.22 1451.83,254.913 1456.83,255.993 1461.84,236.59 1466.84,245.983 1471.85,254.425 1476.86,257.659 1481.86,255.619 1486.87,215.632 1491.87,239.747 
  1496.88,221.475 1501.89,271.352 1506.89,226.948 1511.9,278.702 1516.9,315.814 1521.91,236.246 1526.92,327.192 1531.92,247.8 1536.93,245.962 1541.93,202.892 
  1546.94,203.091 1551.95,222.527 1556.95,309.569 1561.96,256.578 1566.96,189.27 1571.97,238.368 1576.98,228.263 1581.98,229.292 1586.99,286.485 1591.99,256.179 
  1597,247.891 1602.01,216.478 1607.01,226.424 1612.02,253.219 1617.02,242.603 1622.03,262.119 1627.04,228.092 1632.04,245.241 1637.05,256.415 1642.05,231.047 
  1647.06,230.722 1652.07,247.994 1657.07,227.752 1662.08,243.154 1667.08,223.334 1672.09,228.676 1677.1,197.598 1682.1,196.332 1687.11,248.724 1692.11,222.015 
  1697.12,220.305 1702.13,232.358 1707.13,203.762 1712.14,258.795 1717.14,223.694 1722.15,192.992 1727.16,185.974 1732.16,227.014 1737.17,202.523 1742.17,210.84 
  1747.18,193.478 1752.19,218.093 1757.19,185.355 1762.2,258.674 1767.2,253.492 1772.21,159.82 1777.22,140.561 1782.22,244.377 1787.23,162.053 1792.23,181.56 
  1797.24,211.86 1802.25,182.143 1807.25,219.802 1812.26,211.856 1817.26,198.927 1822.27,197.935 1827.28,203.087 1832.28,217.611 1837.29,231.853 1842.29,202.818 
  1847.3,174.34 1852.31,197.88 1857.31,257.434 1862.32,205.328 1867.32,183.823 1872.33,235.875 1877.34,176.981 1882.34,204.594 1887.35,232.66 1892.35,198.303 
  1897.36,208.903 1902.37,213.429 1907.37,207.842 1912.38,175.226 1917.38,178.886 1922.39,161.349 1927.4,270.794 1932.4,181.303 1937.41,163.482 1942.41,164.419 
  1947.42,212.703 1952.43,205.29 1957.43,158.995 1962.44,186.95 1967.44,149.138 1972.45,205.524 1977.46,263.826 1982.46,131.666 1987.47,261.722 1992.47,167.378 
  1997.48,165.334 2002.49,187.619 2007.49,179.002 2012.5,177.369 2017.5,242.32 2022.51,150.14 2027.52,142.377 2032.52,198.335 2037.53,143.688 2042.53,154.754 
  2047.54,133.568 2052.55,222.487 2057.55,172.656 2062.56,150.824 2067.56,101.418 2072.57,147.112 2077.58,108.316 2082.58,199.754 2087.59,146.327 2092.59,161.711 
  2097.6,132.557 2102.61,181.605 2107.61,150.072 2112.62,172.818 2117.62,133.803 2122.63,121.05 2127.64,104.687 2132.64,105.246 2137.65,175.032 2142.65,141.319 
  2147.66,137.853 2152.67,253.371 2157.67,183.554 2162.68,201.176 2167.68,184.809 2172.69,149.619 2177.7,90.2047 2182.7,109.525 2187.71,129.715 2192.71,130.849 
  2197.72,131.443 2202.73,144.4 2207.73,140.983 2212.74,86.0634 2217.74,122.082 2222.75,141.427 2227.76,110.048 2232.76,144.838 2237.77,186.688 2242.77,183.184 
  2247.78,187.662 2252.79,143.035 2257.79,170.055 2262.8,173.252 2267.8,181.341 2272.81,132.466 2277.82,166.344 2282.82,162.991 2287.83,145.234 2292.83,222.106 
  
  "/>
<path clip-path="url(#clip080)" d="
M1718.06 817.652 L2282.18 817.652 L2282.18 662.132 L1718.06 662.132  Z
  " fill="#ffffff" fill-rule="evenodd" fill-opacity="1"/>
<polyline clip-path="url(#clip080)" style="stroke:#000000; stroke-linecap:round; stroke-linejoin:round; stroke-width:4; stroke-opacity:1; fill:none" points="
  1718.06,817.652 2282.18,817.652 2282.18,662.132 1718.06,662.132 1718.06,817.652 
  "/>
<polyline clip-path="url(#clip080)" style="stroke:#ffa500; stroke-linecap:round; stroke-linejoin:round; stroke-width:6; stroke-opacity:1; fill:none" points="
  1741.59,739.892 1882.74,739.892 
  "/>
<path clip-path="url(#clip080)" d="M1931.02 711.785 L1931.02 717.097 L1924.91 717.097 Q1921.47 717.097 1920.12 718.486 Q1918.8 719.875 1918.8 723.486 L1918.8 726.924 L1929.32 726.924 L1929.32 731.889 L1918.8 731.889 L1918.8 765.812 L1912.37 765.812 L1912.37 731.889 L1906.26 731.889 L1906.26 726.924 L1912.37 726.924 L1912.37 724.215 Q1912.37 717.722 1915.39 714.771 Q1918.42 711.785 1924.98 711.785 L1931.02 711.785 Z" fill="#000000" fill-rule="evenodd" fill-opacity="1" /><path clip-path="url(#clip080)" d="M1954.04 746.264 Q1946.3 746.264 1943.31 748.035 Q1940.32 749.806 1940.32 754.076 Q1940.32 757.479 1942.55 759.493 Q1944.8 761.472 1948.66 761.472 Q1953.97 761.472 1957.16 757.722 Q1960.39 753.938 1960.39 747.688 L1960.39 746.264 L1954.04 746.264 M1966.78 743.625 L1966.78 765.812 L1960.39 765.812 L1960.39 759.91 Q1958.21 763.451 1954.94 765.153 Q1951.68 766.819 1946.96 766.819 Q1940.98 766.819 1937.44 763.486 Q1933.94 760.118 1933.94 754.493 Q1933.94 747.931 1938.31 744.597 Q1942.72 741.264 1951.44 741.264 L1960.39 741.264 L1960.39 740.639 Q1960.39 736.229 1957.48 733.833 Q1954.6 731.403 1949.35 731.403 Q1946.02 731.403 1942.86 732.202 Q1939.7 733 1936.78 734.597 L1936.78 728.695 Q1940.29 727.34 1943.59 726.681 Q1946.89 725.986 1950.01 725.986 Q1958.45 725.986 1962.62 730.361 Q1966.78 734.736 1966.78 743.625 Z" fill="#000000" fill-rule="evenodd" fill-opacity="1" /><path clip-path="url(#clip080)" d="M2004.73 728.07 L2004.73 734.111 Q2002.03 732.722 1999.11 732.028 Q1996.19 731.334 1993.07 731.334 Q1988.31 731.334 1985.91 732.792 Q1983.55 734.25 1983.55 737.167 Q1983.55 739.389 1985.26 740.674 Q1986.96 741.924 1992.1 743.07 L1994.28 743.556 Q2001.09 745.014 2003.94 747.688 Q2006.82 750.326 2006.82 755.083 Q2006.82 760.5 2002.51 763.66 Q1998.24 766.819 1990.74 766.819 Q1987.62 766.819 1984.21 766.194 Q1980.85 765.604 1977.1 764.389 L1977.1 757.792 Q1980.64 759.632 1984.07 760.569 Q1987.51 761.472 1990.88 761.472 Q1995.39 761.472 1997.82 759.944 Q2000.26 758.382 2000.26 755.569 Q2000.26 752.965 1998.48 751.576 Q1996.75 750.188 1990.81 748.903 L1988.59 748.382 Q1982.65 747.132 1980.01 744.563 Q1977.37 741.958 1977.37 737.445 Q1977.37 731.959 1981.26 728.972 Q1985.15 725.986 1992.3 725.986 Q1995.85 725.986 1998.97 726.507 Q2002.1 727.028 2004.73 728.07 Z" fill="#000000" fill-rule="evenodd" fill-opacity="1" /><path clip-path="url(#clip080)" d="M2023.31 715.882 L2023.31 726.924 L2036.47 726.924 L2036.47 731.889 L2023.31 731.889 L2023.31 753 Q2023.31 757.757 2024.6 759.111 Q2025.91 760.465 2029.91 760.465 L2036.47 760.465 L2036.47 765.812 L2029.91 765.812 Q2022.51 765.812 2019.7 763.069 Q2016.89 760.292 2016.89 753 L2016.89 731.889 L2012.2 731.889 L2012.2 726.924 L2016.89 726.924 L2016.89 715.882 L2023.31 715.882 Z" fill="#000000" fill-rule="evenodd" fill-opacity="1" /><path clip-path="url(#clip080)" d="M2097.75 734.389 Q2100.15 730.084 2103.48 728.035 Q2106.82 725.986 2111.33 725.986 Q2117.41 725.986 2120.71 730.257 Q2124 734.493 2124 742.34 L2124 765.812 L2117.58 765.812 L2117.58 742.549 Q2117.58 736.958 2115.6 734.25 Q2113.62 731.542 2109.56 731.542 Q2104.59 731.542 2101.71 734.84 Q2098.83 738.139 2098.83 743.833 L2098.83 765.812 L2092.41 765.812 L2092.41 742.549 Q2092.41 736.924 2090.43 734.25 Q2088.45 731.542 2084.32 731.542 Q2079.42 731.542 2076.54 734.875 Q2073.66 738.174 2073.66 743.833 L2073.66 765.812 L2067.23 765.812 L2067.23 726.924 L2073.66 726.924 L2073.66 732.965 Q2075.84 729.389 2078.9 727.688 Q2081.96 725.986 2086.16 725.986 Q2090.39 725.986 2093.34 728.139 Q2096.33 730.292 2097.75 734.389 Z" fill="#000000" fill-rule="evenodd" fill-opacity="1" /><path clip-path="url(#clip080)" d="M2151.82 731.403 Q2146.68 731.403 2143.69 735.431 Q2140.71 739.424 2140.71 746.403 Q2140.71 753.382 2143.66 757.41 Q2146.64 761.403 2151.82 761.403 Q2156.92 761.403 2159.91 757.375 Q2162.89 753.347 2162.89 746.403 Q2162.89 739.493 2159.91 735.465 Q2156.92 731.403 2151.82 731.403 M2151.82 725.986 Q2160.15 725.986 2164.91 731.403 Q2169.66 736.82 2169.66 746.403 Q2169.66 755.951 2164.91 761.403 Q2160.15 766.819 2151.82 766.819 Q2143.45 766.819 2138.69 761.403 Q2133.97 755.951 2133.97 746.403 Q2133.97 736.82 2138.69 731.403 Q2143.45 725.986 2151.82 725.986 Z" fill="#000000" fill-rule="evenodd" fill-opacity="1" /><path clip-path="url(#clip080)" d="M2205.84 732.827 L2205.84 711.785 L2212.23 711.785 L2212.23 765.812 L2205.84 765.812 L2205.84 759.979 Q2203.83 763.451 2200.74 765.153 Q2197.68 766.819 2193.38 766.819 Q2186.33 766.819 2181.89 761.194 Q2177.48 755.569 2177.48 746.403 Q2177.48 737.236 2181.89 731.611 Q2186.33 725.986 2193.38 725.986 Q2197.68 725.986 2200.74 727.688 Q2203.83 729.354 2205.84 732.827 M2184.07 746.403 Q2184.07 753.451 2186.96 757.479 Q2189.87 761.472 2194.94 761.472 Q2200.01 761.472 2202.93 757.479 Q2205.84 753.451 2205.84 746.403 Q2205.84 739.354 2202.93 735.361 Q2200.01 731.334 2194.94 731.334 Q2189.87 731.334 2186.96 735.361 Q2184.07 739.354 2184.07 746.403 Z" fill="#000000" fill-rule="evenodd" fill-opacity="1" /><path clip-path="url(#clip080)" d="M2258.66 744.771 L2258.66 747.896 L2229.28 747.896 Q2229.7 754.493 2233.24 757.965 Q2236.82 761.403 2243.17 761.403 Q2246.85 761.403 2250.29 760.5 Q2253.76 759.597 2257.16 757.792 L2257.16 763.833 Q2253.73 765.292 2250.11 766.056 Q2246.5 766.819 2242.79 766.819 Q2233.48 766.819 2228.03 761.403 Q2222.61 755.986 2222.61 746.75 Q2222.61 737.202 2227.75 731.611 Q2232.93 725.986 2241.68 725.986 Q2249.52 725.986 2254.07 731.056 Q2258.66 736.09 2258.66 744.771 M2252.27 742.896 Q2252.2 737.653 2249.32 734.528 Q2246.47 731.403 2241.75 731.403 Q2236.4 731.403 2233.17 734.424 Q2229.98 737.445 2229.49 742.931 L2252.27 742.896 Z" fill="#000000" fill-rule="evenodd" fill-opacity="1" /></svg>
