<?xml version="1.0" encoding="utf-8"?>
<svg xmlns="http://www.w3.org/2000/svg" xmlns:xlink="http://www.w3.org/1999/xlink" width="600" height="400" viewBox="0 0 2400 1600">
<defs>
  <clipPath id="clip160">
    <rect x="0" y="0" width="2400" height="1600"/>
  </clipPath>
</defs>
<path clip-path="url(#clip160)" d="
M0 1600 L2400 1600 L2400 0 L0 0  Z
  " fill="#ffffff" fill-rule="evenodd" fill-opacity="1"/>
<defs>
  <clipPath id="clip161">
    <rect x="480" y="0" width="1681" height="1600"/>
  </clipPath>
</defs>
<path clip-path="url(#clip160)" d="
M258.989 1418.86 L2352.76 1418.86 L2352.76 47.2441 L258.989 47.2441  Z
  " fill="#ffffff" fill-rule="evenodd" fill-opacity="1"/>
<defs>
  <clipPath id="clip162">
    <rect x="258" y="47" width="2095" height="1373"/>
  </clipPath>
</defs>
<polyline clip-path="url(#clip162)" style="stroke:#000000; stroke-linecap:round; stroke-linejoin:round; stroke-width:2; stroke-opacity:0.1; fill:none" points="
  313.296,1418.86 313.296,47.2441 
  "/>
<polyline clip-path="url(#clip162)" style="stroke:#000000; stroke-linecap:round; stroke-linejoin:round; stroke-width:2; stroke-opacity:0.1; fill:none" points="
  808.347,1418.86 808.347,47.2441 
  "/>
<polyline clip-path="url(#clip162)" style="stroke:#000000; stroke-linecap:round; stroke-linejoin:round; stroke-width:2; stroke-opacity:0.1; fill:none" points="
  1303.4,1418.86 1303.4,47.2441 
  "/>
<polyline clip-path="url(#clip162)" style="stroke:#000000; stroke-linecap:round; stroke-linejoin:round; stroke-width:2; stroke-opacity:0.1; fill:none" points="
  1798.45,1418.86 1798.45,47.2441 
  "/>
<polyline clip-path="url(#clip162)" style="stroke:#000000; stroke-linecap:round; stroke-linejoin:round; stroke-width:2; stroke-opacity:0.1; fill:none" points="
  2293.5,1418.86 2293.5,47.2441 
  "/>
<polyline clip-path="url(#clip160)" style="stroke:#000000; stroke-linecap:round; stroke-linejoin:round; stroke-width:4; stroke-opacity:1; fill:none" points="
  258.989,1418.86 2352.76,1418.86 
  "/>
<polyline clip-path="url(#clip160)" style="stroke:#000000; stroke-linecap:round; stroke-linejoin:round; stroke-width:4; stroke-opacity:1; fill:none" points="
  313.296,1418.86 313.296,1399.96 
  "/>
<polyline clip-path="url(#clip160)" style="stroke:#000000; stroke-linecap:round; stroke-linejoin:round; stroke-width:4; stroke-opacity:1; fill:none" points="
  808.347,1418.86 808.347,1399.96 
  "/>
<polyline clip-path="url(#clip160)" style="stroke:#000000; stroke-linecap:round; stroke-linejoin:round; stroke-width:4; stroke-opacity:1; fill:none" points="
  1303.4,1418.86 1303.4,1399.96 
  "/>
<polyline clip-path="url(#clip160)" style="stroke:#000000; stroke-linecap:round; stroke-linejoin:round; stroke-width:4; stroke-opacity:1; fill:none" points="
  1798.45,1418.86 1798.45,1399.96 
  "/>
<polyline clip-path="url(#clip160)" style="stroke:#000000; stroke-linecap:round; stroke-linejoin:round; stroke-width:4; stroke-opacity:1; fill:none" points="
  2293.5,1418.86 2293.5,1399.96 
  "/>
<path clip-path="url(#clip160)" d="M221.098 1449.78 Q217.487 1449.78 215.658 1453.34 Q213.852 1456.88 213.852 1464.01 Q213.852 1471.12 215.658 1474.69 Q217.487 1478.23 221.098 1478.23 Q224.732 1478.23 226.538 1474.69 Q228.366 1471.12 228.366 1464.01 Q228.366 1456.88 226.538 1453.34 Q224.732 1449.78 221.098 1449.78 M221.098 1446.07 Q226.908 1446.07 229.963 1450.68 Q233.042 1455.26 233.042 1464.01 Q233.042 1472.74 229.963 1477.35 Q226.908 1481.93 221.098 1481.93 Q215.288 1481.93 212.209 1477.35 Q209.153 1472.74 209.153 1464.01 Q209.153 1455.26 212.209 1450.68 Q215.288 1446.07 221.098 1446.07 Z" fill="#000000" fill-rule="evenodd" fill-opacity="1" /><path clip-path="url(#clip160)" d="M241.26 1475.38 L246.144 1475.38 L246.144 1481.26 L241.26 1481.26 L241.26 1475.38 Z" fill="#000000" fill-rule="evenodd" fill-opacity="1" /><path clip-path="url(#clip160)" d="M266.329 1449.78 Q262.718 1449.78 260.889 1453.34 Q259.084 1456.88 259.084 1464.01 Q259.084 1471.12 260.889 1474.69 Q262.718 1478.23 266.329 1478.23 Q269.963 1478.23 271.769 1474.69 Q273.597 1471.12 273.597 1464.01 Q273.597 1456.88 271.769 1453.34 Q269.963 1449.78 266.329 1449.78 M266.329 1446.07 Q272.139 1446.07 275.195 1450.68 Q278.273 1455.26 278.273 1464.01 Q278.273 1472.74 275.195 1477.35 Q272.139 1481.93 266.329 1481.93 Q260.519 1481.93 257.44 1477.35 Q254.385 1472.74 254.385 1464.01 Q254.385 1455.26 257.44 1450.68 Q260.519 1446.07 266.329 1446.07 Z" fill="#000000" fill-rule="evenodd" fill-opacity="1" /><path clip-path="url(#clip160)" d="M296.491 1449.78 Q292.88 1449.78 291.051 1453.34 Q289.246 1456.88 289.246 1464.01 Q289.246 1471.12 291.051 1474.69 Q292.88 1478.23 296.491 1478.23 Q300.125 1478.23 301.931 1474.69 Q303.759 1471.12 303.759 1464.01 Q303.759 1456.88 301.931 1453.34 Q300.125 1449.78 296.491 1449.78 M296.491 1446.07 Q302.301 1446.07 305.357 1450.68 Q308.435 1455.26 308.435 1464.01 Q308.435 1472.74 305.357 1477.35 Q302.301 1481.93 296.491 1481.93 Q290.681 1481.93 287.602 1477.35 Q284.547 1472.74 284.547 1464.01 Q284.547 1455.26 287.602 1450.68 Q290.681 1446.07 296.491 1446.07 Z" fill="#000000" fill-rule="evenodd" fill-opacity="1" /><path clip-path="url(#clip160)" d="M337.602 1455.33 L328.227 1467.95 L338.088 1481.26 L333.065 1481.26 L325.519 1471.07 L317.972 1481.26 L312.949 1481.26 L323.019 1467.7 L313.806 1455.33 L318.829 1455.33 L325.704 1464.57 L332.579 1455.33 L337.602 1455.33 Z" fill="#000000" fill-rule="evenodd" fill-opacity="1" /><path clip-path="url(#clip160)" d="M345.518 1477.32 L353.157 1477.32 L353.157 1450.96 L344.847 1452.63 L344.847 1448.37 L353.111 1446.7 L357.787 1446.7 L357.787 1477.32 L365.426 1477.32 L365.426 1481.26 L345.518 1481.26 L345.518 1477.32 Z" fill="#000000" fill-rule="evenodd" fill-opacity="1" /><path clip-path="url(#clip160)" d="M384.87 1449.78 Q381.259 1449.78 379.43 1453.34 Q377.625 1456.88 377.625 1464.01 Q377.625 1471.12 379.43 1474.69 Q381.259 1478.23 384.87 1478.23 Q388.504 1478.23 390.31 1474.69 Q392.139 1471.12 392.139 1464.01 Q392.139 1456.88 390.31 1453.34 Q388.504 1449.78 384.87 1449.78 M384.87 1446.07 Q390.68 1446.07 393.736 1450.68 Q396.814 1455.26 396.814 1464.01 Q396.814 1472.74 393.736 1477.35 Q390.68 1481.93 384.87 1481.93 Q379.06 1481.93 375.981 1477.35 Q372.926 1472.74 372.926 1464.01 Q372.926 1455.26 375.981 1450.68 Q379.06 1446.07 384.87 1446.07 Z" fill="#000000" fill-rule="evenodd" fill-opacity="1" /><path clip-path="url(#clip160)" d="M410.032 1455.03 Q407.995 1455.03 406.814 1456.24 Q405.634 1457.46 405.634 1459.57 Q405.634 1461.65 406.814 1462.86 Q407.995 1464.08 410.032 1464.08 Q412.046 1464.08 413.226 1462.86 Q414.407 1461.65 414.407 1459.57 Q414.407 1457.46 413.226 1456.24 Q412.046 1455.03 410.032 1455.03 M416.004 1446.84 L416.004 1449.22 Q414.87 1448.76 413.712 1448.53 Q412.555 1448.27 411.421 1448.27 Q408.458 1448.27 406.884 1450.01 Q405.31 1451.77 405.078 1455.31 Q405.958 1454.18 407.277 1453.57 Q408.62 1452.97 410.194 1452.97 Q413.55 1452.97 415.495 1454.73 Q417.439 1456.51 417.439 1459.57 Q417.439 1462.51 415.402 1464.34 Q413.388 1466.14 410.032 1466.14 Q406.166 1466.14 404.129 1463.57 Q402.092 1461.01 402.092 1456.1 Q402.092 1451.51 404.592 1448.81 Q407.092 1446.07 411.305 1446.07 Q412.439 1446.07 413.597 1446.26 Q414.754 1446.47 416.004 1446.84 Z" fill="#000000" fill-rule="evenodd" fill-opacity="1" /><path clip-path="url(#clip160)" d="M690.836 1477.32 L698.475 1477.32 L698.475 1450.96 L690.165 1452.63 L690.165 1448.37 L698.428 1446.7 L703.104 1446.7 L703.104 1477.32 L710.743 1477.32 L710.743 1481.26 L690.836 1481.26 L690.836 1477.32 Z" fill="#000000" fill-rule="evenodd" fill-opacity="1" /><path clip-path="url(#clip160)" d="M730.188 1449.78 Q726.576 1449.78 724.748 1453.34 Q722.942 1456.88 722.942 1464.01 Q722.942 1471.12 724.748 1474.69 Q726.576 1478.23 730.188 1478.23 Q733.822 1478.23 735.627 1474.69 Q737.456 1471.12 737.456 1464.01 Q737.456 1456.88 735.627 1453.34 Q733.822 1449.78 730.188 1449.78 M730.188 1446.07 Q735.998 1446.07 739.053 1450.68 Q742.132 1455.26 742.132 1464.01 Q742.132 1472.74 739.053 1477.35 Q735.998 1481.93 730.188 1481.93 Q724.377 1481.93 721.299 1477.35 Q718.243 1472.74 718.243 1464.01 Q718.243 1455.26 721.299 1450.68 Q724.377 1446.07 730.188 1446.07 Z" fill="#000000" fill-rule="evenodd" fill-opacity="1" /><path clip-path="url(#clip160)" d="M750.349 1475.38 L755.234 1475.38 L755.234 1481.26 L750.349 1481.26 L750.349 1475.38 Z" fill="#000000" fill-rule="evenodd" fill-opacity="1" /><path clip-path="url(#clip160)" d="M775.419 1449.78 Q771.808 1449.78 769.979 1453.34 Q768.173 1456.88 768.173 1464.01 Q768.173 1471.12 769.979 1474.69 Q771.808 1478.23 775.419 1478.23 Q779.053 1478.23 780.859 1474.69 Q782.687 1471.12 782.687 1464.01 Q782.687 1456.88 780.859 1453.34 Q779.053 1449.78 775.419 1449.78 M775.419 1446.07 Q781.229 1446.07 784.284 1450.68 Q787.363 1455.26 787.363 1464.01 Q787.363 1472.74 784.284 1477.35 Q781.229 1481.93 775.419 1481.93 Q769.609 1481.93 766.53 1477.35 Q763.474 1472.74 763.474 1464.01 Q763.474 1455.26 766.53 1450.68 Q769.609 1446.07 775.419 1446.07 Z" fill="#000000" fill-rule="evenodd" fill-opacity="1" /><path clip-path="url(#clip160)" d="M805.581 1449.78 Q801.97 1449.78 800.141 1453.34 Q798.335 1456.88 798.335 1464.01 Q798.335 1471.12 800.141 1474.69 Q801.97 1478.23 805.581 1478.23 Q809.215 1478.23 811.02 1474.69 Q812.849 1471.12 812.849 1464.01 Q812.849 1456.88 811.02 1453.34 Q809.215 1449.78 805.581 1449.78 M805.581 1446.07 Q811.391 1446.07 814.446 1450.68 Q817.525 1455.26 817.525 1464.01 Q817.525 1472.74 814.446 1477.35 Q811.391 1481.93 805.581 1481.93 Q799.771 1481.93 796.692 1477.35 Q793.636 1472.74 793.636 1464.01 Q793.636 1455.26 796.692 1450.68 Q799.771 1446.07 805.581 1446.07 Z" fill="#000000" fill-rule="evenodd" fill-opacity="1" /><path clip-path="url(#clip160)" d="M846.692 1455.33 L837.317 1467.95 L847.178 1481.26 L842.155 1481.26 L834.608 1471.07 L827.062 1481.26 L822.039 1481.26 L832.108 1467.7 L822.895 1455.33 L827.919 1455.33 L834.793 1464.57 L841.668 1455.33 L846.692 1455.33 Z" fill="#000000" fill-rule="evenodd" fill-opacity="1" /><path clip-path="url(#clip160)" d="M854.608 1477.32 L862.247 1477.32 L862.247 1450.96 L853.937 1452.63 L853.937 1448.37 L862.201 1446.7 L866.877 1446.7 L866.877 1477.32 L874.515 1477.32 L874.515 1481.26 L854.608 1481.26 L854.608 1477.32 Z" fill="#000000" fill-rule="evenodd" fill-opacity="1" /><path clip-path="url(#clip160)" d="M893.96 1449.78 Q890.349 1449.78 888.52 1453.34 Q886.714 1456.88 886.714 1464.01 Q886.714 1471.12 888.52 1474.69 Q890.349 1478.23 893.96 1478.23 Q897.594 1478.23 899.4 1474.69 Q901.228 1471.12 901.228 1464.01 Q901.228 1456.88 899.4 1453.34 Q897.594 1449.78 893.96 1449.78 M893.96 1446.07 Q899.77 1446.07 902.826 1450.68 Q905.904 1455.26 905.904 1464.01 Q905.904 1472.74 902.826 1477.35 Q899.77 1481.93 893.96 1481.93 Q888.15 1481.93 885.071 1477.35 Q882.015 1472.74 882.015 1464.01 Q882.015 1455.26 885.071 1450.68 Q888.15 1446.07 893.96 1446.07 Z" fill="#000000" fill-rule="evenodd" fill-opacity="1" /><path clip-path="url(#clip160)" d="M919.122 1455.03 Q917.085 1455.03 915.904 1456.24 Q914.724 1457.46 914.724 1459.57 Q914.724 1461.65 915.904 1462.86 Q917.085 1464.08 919.122 1464.08 Q921.136 1464.08 922.316 1462.86 Q923.497 1461.65 923.497 1459.57 Q923.497 1457.46 922.316 1456.24 Q921.136 1455.03 919.122 1455.03 M925.094 1446.84 L925.094 1449.22 Q923.96 1448.76 922.802 1448.53 Q921.645 1448.27 920.511 1448.27 Q917.548 1448.27 915.974 1450.01 Q914.4 1451.77 914.168 1455.31 Q915.048 1454.18 916.367 1453.57 Q917.71 1452.97 919.284 1452.97 Q922.64 1452.97 924.585 1454.73 Q926.529 1456.51 926.529 1459.57 Q926.529 1462.51 924.492 1464.34 Q922.478 1466.14 919.122 1466.14 Q915.256 1466.14 913.219 1463.57 Q911.182 1461.01 911.182 1456.1 Q911.182 1451.51 913.682 1448.81 Q916.182 1446.07 920.395 1446.07 Q921.529 1446.07 922.687 1446.26 Q923.844 1446.47 925.094 1446.84 Z" fill="#000000" fill-rule="evenodd" fill-opacity="1" /><path clip-path="url(#clip160)" d="M1189.97 1477.32 L1206.29 1477.32 L1206.29 1481.26 L1184.35 1481.26 L1184.35 1477.32 Q1187.01 1474.57 1191.59 1469.94 Q1196.2 1465.29 1197.38 1463.95 Q1199.62 1461.42 1200.5 1459.69 Q1201.41 1457.93 1201.41 1456.24 Q1201.41 1453.48 1199.46 1451.75 Q1197.54 1450.01 1194.44 1450.01 Q1192.24 1450.01 1189.79 1450.77 Q1187.36 1451.54 1184.58 1453.09 L1184.58 1448.37 Q1187.4 1447.23 1189.86 1446.65 Q1192.31 1446.07 1194.35 1446.07 Q1199.72 1446.07 1202.91 1448.76 Q1206.11 1451.45 1206.11 1455.94 Q1206.11 1458.07 1205.3 1459.99 Q1204.51 1461.88 1202.4 1464.48 Q1201.82 1465.15 1198.72 1468.37 Q1195.62 1471.56 1189.97 1477.32 Z" fill="#000000" fill-rule="evenodd" fill-opacity="1" /><path clip-path="url(#clip160)" d="M1226.11 1449.78 Q1222.5 1449.78 1220.67 1453.34 Q1218.86 1456.88 1218.86 1464.01 Q1218.86 1471.12 1220.67 1474.69 Q1222.5 1478.23 1226.11 1478.23 Q1229.74 1478.23 1231.55 1474.69 Q1233.37 1471.12 1233.37 1464.01 Q1233.37 1456.88 1231.55 1453.34 Q1229.74 1449.78 1226.11 1449.78 M1226.11 1446.07 Q1231.92 1446.07 1234.97 1450.68 Q1238.05 1455.26 1238.05 1464.01 Q1238.05 1472.74 1234.97 1477.35 Q1231.92 1481.93 1226.11 1481.93 Q1220.3 1481.93 1217.22 1477.35 Q1214.16 1472.74 1214.16 1464.01 Q1214.16 1455.26 1217.22 1450.68 Q1220.3 1446.07 1226.11 1446.07 Z" fill="#000000" fill-rule="evenodd" fill-opacity="1" /><path clip-path="url(#clip160)" d="M1246.27 1475.38 L1251.15 1475.38 L1251.15 1481.26 L1246.27 1481.26 L1246.27 1475.38 Z" fill="#000000" fill-rule="evenodd" fill-opacity="1" /><path clip-path="url(#clip160)" d="M1271.34 1449.78 Q1267.73 1449.78 1265.9 1453.34 Q1264.09 1456.88 1264.09 1464.01 Q1264.09 1471.12 1265.9 1474.69 Q1267.73 1478.23 1271.34 1478.23 Q1274.97 1478.23 1276.78 1474.69 Q1278.61 1471.12 1278.61 1464.01 Q1278.61 1456.88 1276.78 1453.34 Q1274.97 1449.78 1271.34 1449.78 M1271.34 1446.07 Q1277.15 1446.07 1280.2 1450.68 Q1283.28 1455.26 1283.28 1464.01 Q1283.28 1472.74 1280.2 1477.35 Q1277.15 1481.93 1271.34 1481.93 Q1265.53 1481.93 1262.45 1477.35 Q1259.39 1472.74 1259.39 1464.01 Q1259.39 1455.26 1262.45 1450.68 Q1265.53 1446.07 1271.34 1446.07 Z" fill="#000000" fill-rule="evenodd" fill-opacity="1" /><path clip-path="url(#clip160)" d="M1301.5 1449.78 Q1297.89 1449.78 1296.06 1453.34 Q1294.25 1456.88 1294.25 1464.01 Q1294.25 1471.12 1296.06 1474.69 Q1297.89 1478.23 1301.5 1478.23 Q1305.13 1478.23 1306.94 1474.69 Q1308.77 1471.12 1308.77 1464.01 Q1308.77 1456.88 1306.94 1453.34 Q1305.13 1449.78 1301.5 1449.78 M1301.5 1446.07 Q1307.31 1446.07 1310.36 1450.68 Q1313.44 1455.26 1313.44 1464.01 Q1313.44 1472.74 1310.36 1477.35 Q1307.31 1481.93 1301.5 1481.93 Q1295.69 1481.93 1292.61 1477.35 Q1289.55 1472.74 1289.55 1464.01 Q1289.55 1455.26 1292.61 1450.68 Q1295.69 1446.07 1301.5 1446.07 Z" fill="#000000" fill-rule="evenodd" fill-opacity="1" /><path clip-path="url(#clip160)" d="M1342.61 1455.33 L1333.24 1467.95 L1343.1 1481.26 L1338.07 1481.26 L1330.53 1471.07 L1322.98 1481.26 L1317.96 1481.26 L1328.03 1467.7 L1318.81 1455.33 L1323.84 1455.33 L1330.71 1464.57 L1337.59 1455.33 L1342.61 1455.33 Z" fill="#000000" fill-rule="evenodd" fill-opacity="1" /><path clip-path="url(#clip160)" d="M1350.53 1477.32 L1358.17 1477.32 L1358.17 1450.96 L1349.86 1452.63 L1349.86 1448.37 L1358.12 1446.7 L1362.8 1446.7 L1362.8 1477.32 L1370.43 1477.32 L1370.43 1481.26 L1350.53 1481.26 L1350.53 1477.32 Z" fill="#000000" fill-rule="evenodd" fill-opacity="1" /><path clip-path="url(#clip160)" d="M1389.88 1449.78 Q1386.27 1449.78 1384.44 1453.34 Q1382.63 1456.88 1382.63 1464.01 Q1382.63 1471.12 1384.44 1474.69 Q1386.27 1478.23 1389.88 1478.23 Q1393.51 1478.23 1395.32 1474.69 Q1397.15 1471.12 1397.15 1464.01 Q1397.15 1456.88 1395.32 1453.34 Q1393.51 1449.78 1389.88 1449.78 M1389.88 1446.07 Q1395.69 1446.07 1398.74 1450.68 Q1401.82 1455.26 1401.82 1464.01 Q1401.82 1472.74 1398.74 1477.35 Q1395.69 1481.93 1389.88 1481.93 Q1384.07 1481.93 1380.99 1477.35 Q1377.93 1472.74 1377.93 1464.01 Q1377.93 1455.26 1380.99 1450.68 Q1384.07 1446.07 1389.88 1446.07 Z" fill="#000000" fill-rule="evenodd" fill-opacity="1" /><path clip-path="url(#clip160)" d="M1415.04 1455.03 Q1413 1455.03 1411.82 1456.24 Q1410.64 1457.46 1410.64 1459.57 Q1410.64 1461.65 1411.82 1462.86 Q1413 1464.08 1415.04 1464.08 Q1417.05 1464.08 1418.23 1462.86 Q1419.42 1461.65 1419.42 1459.57 Q1419.42 1457.46 1418.23 1456.24 Q1417.05 1455.03 1415.04 1455.03 M1421.01 1446.84 L1421.01 1449.22 Q1419.88 1448.76 1418.72 1448.53 Q1417.56 1448.27 1416.43 1448.27 Q1413.47 1448.27 1411.89 1450.01 Q1410.32 1451.77 1410.09 1455.31 Q1410.97 1454.18 1412.29 1453.57 Q1413.63 1452.97 1415.2 1452.97 Q1418.56 1452.97 1420.5 1454.73 Q1422.45 1456.51 1422.45 1459.57 Q1422.45 1462.51 1420.41 1464.34 Q1418.4 1466.14 1415.04 1466.14 Q1411.17 1466.14 1409.14 1463.57 Q1407.1 1461.01 1407.1 1456.1 Q1407.1 1451.51 1409.6 1448.81 Q1412.1 1446.07 1416.31 1446.07 Q1417.45 1446.07 1418.61 1446.26 Q1419.76 1446.47 1421.01 1446.84 Z" fill="#000000" fill-rule="evenodd" fill-opacity="1" /><path clip-path="url(#clip160)" d="M1695.09 1462.63 Q1698.45 1463.34 1700.32 1465.61 Q1702.22 1467.88 1702.22 1471.21 Q1702.22 1476.33 1698.7 1479.13 Q1695.18 1481.93 1688.7 1481.93 Q1686.53 1481.93 1684.21 1481.49 Q1681.92 1481.07 1679.47 1480.22 L1679.47 1475.7 Q1681.41 1476.84 1683.73 1477.42 Q1686.04 1478 1688.56 1478 Q1692.96 1478 1695.25 1476.26 Q1697.57 1474.52 1697.57 1471.21 Q1697.57 1468.16 1695.42 1466.45 Q1693.29 1464.71 1689.47 1464.71 L1685.44 1464.71 L1685.44 1460.87 L1689.65 1460.87 Q1693.1 1460.87 1694.93 1459.5 Q1696.76 1458.11 1696.76 1455.52 Q1696.76 1452.86 1694.86 1451.45 Q1692.99 1450.01 1689.47 1450.01 Q1687.55 1450.01 1685.35 1450.43 Q1683.15 1450.84 1680.51 1451.72 L1680.51 1447.56 Q1683.17 1446.82 1685.49 1446.45 Q1687.82 1446.07 1689.88 1446.07 Q1695.21 1446.07 1698.31 1448.51 Q1701.41 1450.91 1701.41 1455.03 Q1701.41 1457.9 1699.77 1459.89 Q1698.12 1461.86 1695.09 1462.63 Z" fill="#000000" fill-rule="evenodd" fill-opacity="1" /><path clip-path="url(#clip160)" d="M1721.09 1449.78 Q1717.48 1449.78 1715.65 1453.34 Q1713.84 1456.88 1713.84 1464.01 Q1713.84 1471.12 1715.65 1474.69 Q1717.48 1478.23 1721.09 1478.23 Q1724.72 1478.23 1726.53 1474.69 Q1728.36 1471.12 1728.36 1464.01 Q1728.36 1456.88 1726.53 1453.34 Q1724.72 1449.78 1721.09 1449.78 M1721.09 1446.07 Q1726.9 1446.07 1729.95 1450.68 Q1733.03 1455.26 1733.03 1464.01 Q1733.03 1472.74 1729.95 1477.35 Q1726.9 1481.93 1721.09 1481.93 Q1715.28 1481.93 1712.2 1477.35 Q1709.14 1472.74 1709.14 1464.01 Q1709.14 1455.26 1712.2 1450.68 Q1715.28 1446.07 1721.09 1446.07 Z" fill="#000000" fill-rule="evenodd" fill-opacity="1" /><path clip-path="url(#clip160)" d="M1741.25 1475.38 L1746.13 1475.38 L1746.13 1481.26 L1741.25 1481.26 L1741.25 1475.38 Z" fill="#000000" fill-rule="evenodd" fill-opacity="1" /><path clip-path="url(#clip160)" d="M1766.32 1449.78 Q1762.71 1449.78 1760.88 1453.34 Q1759.07 1456.88 1759.07 1464.01 Q1759.07 1471.12 1760.88 1474.69 Q1762.71 1478.23 1766.32 1478.23 Q1769.95 1478.23 1771.76 1474.69 Q1773.59 1471.12 1773.59 1464.01 Q1773.59 1456.88 1771.76 1453.34 Q1769.95 1449.78 1766.32 1449.78 M1766.32 1446.07 Q1772.13 1446.07 1775.18 1450.68 Q1778.26 1455.26 1778.26 1464.01 Q1778.26 1472.74 1775.18 1477.35 Q1772.13 1481.93 1766.32 1481.93 Q1760.51 1481.93 1757.43 1477.35 Q1754.37 1472.74 1754.37 1464.01 Q1754.37 1455.26 1757.43 1450.68 Q1760.51 1446.07 1766.32 1446.07 Z" fill="#000000" fill-rule="evenodd" fill-opacity="1" /><path clip-path="url(#clip160)" d="M1796.48 1449.78 Q1792.87 1449.78 1791.04 1453.34 Q1789.23 1456.88 1789.23 1464.01 Q1789.23 1471.12 1791.04 1474.69 Q1792.87 1478.23 1796.48 1478.23 Q1800.11 1478.23 1801.92 1474.69 Q1803.75 1471.12 1803.75 1464.01 Q1803.75 1456.88 1801.92 1453.34 Q1800.11 1449.78 1796.48 1449.78 M1796.48 1446.07 Q1802.29 1446.07 1805.35 1450.68 Q1808.42 1455.26 1808.42 1464.01 Q1808.42 1472.74 1805.35 1477.35 Q1802.29 1481.93 1796.48 1481.93 Q1790.67 1481.93 1787.59 1477.35 Q1784.54 1472.74 1784.54 1464.01 Q1784.54 1455.26 1787.59 1450.68 Q1790.67 1446.07 1796.48 1446.07 Z" fill="#000000" fill-rule="evenodd" fill-opacity="1" /><path clip-path="url(#clip160)" d="M1837.59 1455.33 L1828.22 1467.95 L1838.08 1481.26 L1833.05 1481.26 L1825.51 1471.07 L1817.96 1481.26 L1812.94 1481.26 L1823.01 1467.7 L1813.8 1455.33 L1818.82 1455.33 L1825.69 1464.57 L1832.57 1455.33 L1837.59 1455.33 Z" fill="#000000" fill-rule="evenodd" fill-opacity="1" /><path clip-path="url(#clip160)" d="M1845.51 1477.32 L1853.15 1477.32 L1853.15 1450.96 L1844.84 1452.63 L1844.84 1448.37 L1853.1 1446.7 L1857.78 1446.7 L1857.78 1477.32 L1865.42 1477.32 L1865.42 1481.26 L1845.51 1481.26 L1845.51 1477.32 Z" fill="#000000" fill-rule="evenodd" fill-opacity="1" /><path clip-path="url(#clip160)" d="M1884.86 1449.78 Q1881.25 1449.78 1879.42 1453.34 Q1877.61 1456.88 1877.61 1464.01 Q1877.61 1471.12 1879.42 1474.69 Q1881.25 1478.23 1884.86 1478.23 Q1888.49 1478.23 1890.3 1474.69 Q1892.13 1471.12 1892.13 1464.01 Q1892.13 1456.88 1890.3 1453.34 Q1888.49 1449.78 1884.86 1449.78 M1884.86 1446.07 Q1890.67 1446.07 1893.73 1450.68 Q1896.8 1455.26 1896.8 1464.01 Q1896.8 1472.74 1893.73 1477.35 Q1890.67 1481.93 1884.86 1481.93 Q1879.05 1481.93 1875.97 1477.35 Q1872.92 1472.74 1872.92 1464.01 Q1872.92 1455.26 1875.97 1450.68 Q1879.05 1446.07 1884.86 1446.07 Z" fill="#000000" fill-rule="evenodd" fill-opacity="1" /><path clip-path="url(#clip160)" d="M1910.02 1455.03 Q1907.98 1455.03 1906.8 1456.24 Q1905.62 1457.46 1905.62 1459.57 Q1905.62 1461.65 1906.8 1462.86 Q1907.98 1464.08 1910.02 1464.08 Q1912.04 1464.08 1913.22 1462.86 Q1914.4 1461.65 1914.4 1459.57 Q1914.4 1457.46 1913.22 1456.24 Q1912.04 1455.03 1910.02 1455.03 M1915.99 1446.84 L1915.99 1449.22 Q1914.86 1448.76 1913.7 1448.53 Q1912.54 1448.27 1911.41 1448.27 Q1908.45 1448.27 1906.87 1450.01 Q1905.3 1451.77 1905.07 1455.31 Q1905.95 1454.18 1907.27 1453.57 Q1908.61 1452.97 1910.18 1452.97 Q1913.54 1452.97 1915.48 1454.73 Q1917.43 1456.51 1917.43 1459.57 Q1917.43 1462.51 1915.39 1464.34 Q1913.38 1466.14 1910.02 1466.14 Q1906.16 1466.14 1904.12 1463.57 Q1902.08 1461.01 1902.08 1456.1 Q1902.08 1451.51 1904.58 1448.81 Q1907.08 1446.07 1911.29 1446.07 Q1912.43 1446.07 1913.59 1446.26 Q1914.74 1446.47 1915.99 1446.84 Z" fill="#000000" fill-rule="evenodd" fill-opacity="1" /><path clip-path="url(#clip160)" d="M2189.47 1450.77 L2177.67 1469.22 L2189.47 1469.22 L2189.47 1450.77 M2188.24 1446.7 L2194.12 1446.7 L2194.12 1469.22 L2199.05 1469.22 L2199.05 1473.11 L2194.12 1473.11 L2194.12 1481.26 L2189.47 1481.26 L2189.47 1473.11 L2173.87 1473.11 L2173.87 1468.6 L2188.24 1446.7 Z" fill="#000000" fill-rule="evenodd" fill-opacity="1" /><path clip-path="url(#clip160)" d="M2216.79 1449.78 Q2213.17 1449.78 2211.35 1453.34 Q2209.54 1456.88 2209.54 1464.01 Q2209.54 1471.12 2211.35 1474.69 Q2213.17 1478.23 2216.79 1478.23 Q2220.42 1478.23 2222.23 1474.69 Q2224.05 1471.12 2224.05 1464.01 Q2224.05 1456.88 2222.23 1453.34 Q2220.42 1449.78 2216.79 1449.78 M2216.79 1446.07 Q2222.6 1446.07 2225.65 1450.68 Q2228.73 1455.26 2228.73 1464.01 Q2228.73 1472.74 2225.65 1477.35 Q2222.6 1481.93 2216.79 1481.93 Q2210.98 1481.93 2207.9 1477.35 Q2204.84 1472.74 2204.84 1464.01 Q2204.84 1455.26 2207.9 1450.68 Q2210.98 1446.07 2216.79 1446.07 Z" fill="#000000" fill-rule="evenodd" fill-opacity="1" /><path clip-path="url(#clip160)" d="M2236.95 1475.38 L2241.83 1475.38 L2241.83 1481.26 L2236.95 1481.26 L2236.95 1475.38 Z" fill="#000000" fill-rule="evenodd" fill-opacity="1" /><path clip-path="url(#clip160)" d="M2262.02 1449.78 Q2258.41 1449.78 2256.58 1453.34 Q2254.77 1456.88 2254.77 1464.01 Q2254.77 1471.12 2256.58 1474.69 Q2258.41 1478.23 2262.02 1478.23 Q2265.65 1478.23 2267.46 1474.69 Q2269.29 1471.12 2269.29 1464.01 Q2269.29 1456.88 2267.46 1453.34 Q2265.65 1449.78 2262.02 1449.78 M2262.02 1446.07 Q2267.83 1446.07 2270.88 1450.68 Q2273.96 1455.26 2273.96 1464.01 Q2273.96 1472.74 2270.88 1477.35 Q2267.83 1481.93 2262.02 1481.93 Q2256.21 1481.93 2253.13 1477.35 Q2250.07 1472.74 2250.07 1464.01 Q2250.07 1455.26 2253.13 1450.68 Q2256.21 1446.07 2262.02 1446.07 Z" fill="#000000" fill-rule="evenodd" fill-opacity="1" /><path clip-path="url(#clip160)" d="M2292.18 1449.78 Q2288.57 1449.78 2286.74 1453.34 Q2284.93 1456.88 2284.93 1464.01 Q2284.93 1471.12 2286.74 1474.69 Q2288.57 1478.23 2292.18 1478.23 Q2295.81 1478.23 2297.62 1474.69 Q2299.45 1471.12 2299.45 1464.01 Q2299.45 1456.88 2297.62 1453.34 Q2295.81 1449.78 2292.18 1449.78 M2292.18 1446.07 Q2297.99 1446.07 2301.04 1450.68 Q2304.12 1455.26 2304.12 1464.01 Q2304.12 1472.74 2301.04 1477.35 Q2297.99 1481.93 2292.18 1481.93 Q2286.37 1481.93 2283.29 1477.35 Q2280.23 1472.74 2280.23 1464.01 Q2280.23 1455.26 2283.29 1450.68 Q2286.37 1446.07 2292.18 1446.07 Z" fill="#000000" fill-rule="evenodd" fill-opacity="1" /><path clip-path="url(#clip160)" d="M2333.29 1455.33 L2323.91 1467.95 L2333.78 1481.26 L2328.75 1481.26 L2321.21 1471.07 L2313.66 1481.26 L2308.64 1481.26 L2318.71 1467.7 L2309.49 1455.33 L2314.52 1455.33 L2321.39 1464.57 L2328.27 1455.33 L2333.29 1455.33 Z" fill="#000000" fill-rule="evenodd" fill-opacity="1" /><path clip-path="url(#clip160)" d="M2341.21 1477.32 L2348.85 1477.32 L2348.85 1450.96 L2340.54 1452.63 L2340.54 1448.37 L2348.8 1446.7 L2353.47 1446.7 L2353.47 1477.32 L2361.11 1477.32 L2361.11 1481.26 L2341.21 1481.26 L2341.21 1477.32 Z" fill="#000000" fill-rule="evenodd" fill-opacity="1" /><path clip-path="url(#clip160)" d="M2380.56 1449.78 Q2376.95 1449.78 2375.12 1453.34 Q2373.31 1456.88 2373.31 1464.01 Q2373.31 1471.12 2375.12 1474.69 Q2376.95 1478.23 2380.56 1478.23 Q2384.19 1478.23 2386 1474.69 Q2387.83 1471.12 2387.83 1464.01 Q2387.83 1456.88 2386 1453.34 Q2384.19 1449.78 2380.56 1449.78 M2380.56 1446.07 Q2386.37 1446.07 2389.42 1450.68 Q2392.5 1455.26 2392.5 1464.01 Q2392.5 1472.74 2389.42 1477.35 Q2386.37 1481.93 2380.56 1481.93 Q2374.75 1481.93 2371.67 1477.35 Q2368.61 1472.74 2368.61 1464.01 Q2368.61 1455.26 2371.67 1450.68 Q2374.75 1446.07 2380.56 1446.07 Z" fill="#000000" fill-rule="evenodd" fill-opacity="1" /><path clip-path="url(#clip160)" d="M2405.72 1455.03 Q2403.68 1455.03 2402.5 1456.24 Q2401.32 1457.46 2401.32 1459.57 Q2401.32 1461.65 2402.5 1462.86 Q2403.68 1464.08 2405.72 1464.08 Q2407.73 1464.08 2408.91 1462.86 Q2410.09 1461.65 2410.09 1459.57 Q2410.09 1457.46 2408.91 1456.24 Q2407.73 1455.03 2405.72 1455.03 M2411.69 1446.84 L2411.69 1449.22 Q2410.56 1448.76 2409.4 1448.53 Q2408.24 1448.27 2407.11 1448.27 Q2404.15 1448.27 2402.57 1450.01 Q2401 1451.77 2400.77 1455.31 Q2401.65 1454.18 2402.97 1453.57 Q2404.31 1452.97 2405.88 1452.97 Q2409.24 1452.97 2411.18 1454.73 Q2413.13 1456.51 2413.13 1459.57 Q2413.13 1462.51 2411.09 1464.34 Q2409.08 1466.14 2405.72 1466.14 Q2401.85 1466.14 2399.82 1463.57 Q2397.78 1461.01 2397.78 1456.1 Q2397.78 1451.51 2400.28 1448.81 Q2402.78 1446.07 2406.99 1446.07 Q2408.13 1446.07 2409.28 1446.26 Q2410.44 1446.47 2411.69 1446.84 Z" fill="#000000" fill-rule="evenodd" fill-opacity="1" /><path clip-path="url(#clip160)" d="M1141.76 1517.07 L1148.77 1517.07 L1148.77 1568.91 L1141.76 1568.91 L1141.76 1517.07 Z" fill="#000000" fill-rule="evenodd" fill-opacity="1" /><path clip-path="url(#clip160)" d="M1168.77 1518.98 L1168.77 1530.02 L1181.93 1530.02 L1181.93 1534.98 L1168.77 1534.98 L1168.77 1556.1 Q1168.77 1560.85 1170.06 1562.21 Q1171.38 1563.56 1175.37 1563.56 L1181.93 1563.56 L1181.93 1568.91 L1175.37 1568.91 Q1167.97 1568.91 1165.16 1566.16 Q1162.35 1563.39 1162.35 1556.1 L1162.35 1534.98 L1157.66 1534.98 L1157.66 1530.02 L1162.35 1530.02 L1162.35 1518.98 L1168.77 1518.98 Z" fill="#000000" fill-rule="evenodd" fill-opacity="1" /><path clip-path="url(#clip160)" d="M1223.6 1547.87 L1223.6 1550.99 L1194.22 1550.99 Q1194.64 1557.59 1198.18 1561.06 Q1201.76 1564.5 1208.11 1564.5 Q1211.79 1564.5 1215.23 1563.6 Q1218.7 1562.69 1222.11 1560.89 L1222.11 1566.93 Q1218.67 1568.39 1215.06 1569.15 Q1211.45 1569.91 1207.73 1569.91 Q1198.43 1569.91 1192.97 1564.5 Q1187.56 1559.08 1187.56 1549.85 Q1187.56 1540.3 1192.7 1534.71 Q1197.87 1529.08 1206.62 1529.08 Q1214.47 1529.08 1219.02 1534.15 Q1223.6 1539.19 1223.6 1547.87 M1217.21 1545.99 Q1217.14 1540.75 1214.26 1537.62 Q1211.41 1534.5 1206.69 1534.5 Q1201.34 1534.5 1198.11 1537.52 Q1194.92 1540.54 1194.43 1546.03 L1217.21 1545.99 Z" fill="#000000" fill-rule="evenodd" fill-opacity="1" /><path clip-path="url(#clip160)" d="M1256.62 1535.99 Q1255.54 1535.37 1254.26 1535.09 Q1253.01 1534.78 1251.48 1534.78 Q1246.06 1534.78 1243.15 1538.32 Q1240.27 1541.82 1240.27 1548.42 L1240.27 1568.91 L1233.84 1568.91 L1233.84 1530.02 L1240.27 1530.02 L1240.27 1536.06 Q1242.28 1532.52 1245.51 1530.82 Q1248.74 1529.08 1253.36 1529.08 Q1254.02 1529.08 1254.81 1529.19 Q1255.61 1529.26 1256.58 1529.43 L1256.62 1535.99 Z" fill="#000000" fill-rule="evenodd" fill-opacity="1" /><path clip-path="url(#clip160)" d="M1280.99 1549.36 Q1273.25 1549.36 1270.27 1551.13 Q1267.28 1552.9 1267.28 1557.17 Q1267.28 1560.57 1269.5 1562.59 Q1271.76 1564.57 1275.61 1564.57 Q1280.92 1564.57 1284.12 1560.82 Q1287.35 1557.03 1287.35 1550.78 L1287.35 1549.36 L1280.99 1549.36 M1293.74 1546.72 L1293.74 1568.91 L1287.35 1568.91 L1287.35 1563.01 Q1285.16 1566.55 1281.9 1568.25 Q1278.63 1569.91 1273.91 1569.91 Q1267.94 1569.91 1264.4 1566.58 Q1260.89 1563.21 1260.89 1557.59 Q1260.89 1551.03 1265.27 1547.69 Q1269.67 1544.36 1278.39 1544.36 L1287.35 1544.36 L1287.35 1543.73 Q1287.35 1539.32 1284.43 1536.93 Q1281.55 1534.5 1276.31 1534.5 Q1272.97 1534.5 1269.81 1535.3 Q1266.65 1536.1 1263.74 1537.69 L1263.74 1531.79 Q1267.24 1530.44 1270.54 1529.78 Q1273.84 1529.08 1276.97 1529.08 Q1285.4 1529.08 1289.57 1533.46 Q1293.74 1537.83 1293.74 1546.72 Z" fill="#000000" fill-rule="evenodd" fill-opacity="1" /><path clip-path="url(#clip160)" d="M1313.22 1518.98 L1313.22 1530.02 L1326.38 1530.02 L1326.38 1534.98 L1313.22 1534.98 L1313.22 1556.1 Q1313.22 1560.85 1314.5 1562.21 Q1315.82 1563.56 1319.81 1563.56 L1326.38 1563.56 L1326.38 1568.91 L1319.81 1568.91 Q1312.42 1568.91 1309.61 1566.16 Q1306.79 1563.39 1306.79 1556.1 L1306.79 1534.98 L1302.11 1534.98 L1302.11 1530.02 L1306.79 1530.02 L1306.79 1518.98 L1313.22 1518.98 Z" fill="#000000" fill-rule="evenodd" fill-opacity="1" /><path clip-path="url(#clip160)" d="M1334.78 1530.02 L1341.17 1530.02 L1341.17 1568.91 L1334.78 1568.91 L1334.78 1530.02 M1334.78 1514.88 L1341.17 1514.88 L1341.17 1522.97 L1334.78 1522.97 L1334.78 1514.88 Z" fill="#000000" fill-rule="evenodd" fill-opacity="1" /><path clip-path="url(#clip160)" d="M1369.6 1534.5 Q1364.47 1534.5 1361.48 1538.53 Q1358.49 1542.52 1358.49 1549.5 Q1358.49 1556.48 1361.45 1560.51 Q1364.43 1564.5 1369.6 1564.5 Q1374.71 1564.5 1377.7 1560.47 Q1380.68 1556.44 1380.68 1549.5 Q1380.68 1542.59 1377.7 1538.56 Q1374.71 1534.5 1369.6 1534.5 M1369.6 1529.08 Q1377.94 1529.08 1382.7 1534.5 Q1387.45 1539.91 1387.45 1549.5 Q1387.45 1559.05 1382.7 1564.5 Q1377.94 1569.91 1369.6 1569.91 Q1361.24 1569.91 1356.48 1564.5 Q1351.76 1559.05 1351.76 1549.5 Q1351.76 1539.91 1356.48 1534.5 Q1361.24 1529.08 1369.6 1529.08 Z" fill="#000000" fill-rule="evenodd" fill-opacity="1" /><path clip-path="url(#clip160)" d="M1430.37 1545.44 L1430.37 1568.91 L1423.98 1568.91 L1423.98 1545.64 Q1423.98 1540.12 1421.83 1537.38 Q1419.67 1534.64 1415.37 1534.64 Q1410.19 1534.64 1407.21 1537.94 Q1404.22 1541.23 1404.22 1546.93 L1404.22 1568.91 L1397.8 1568.91 L1397.8 1530.02 L1404.22 1530.02 L1404.22 1536.06 Q1406.51 1532.55 1409.6 1530.82 Q1412.73 1529.08 1416.79 1529.08 Q1423.49 1529.08 1426.93 1533.25 Q1430.37 1537.38 1430.37 1545.44 Z" fill="#000000" fill-rule="evenodd" fill-opacity="1" /><path clip-path="url(#clip160)" d="M1467.9 1531.16 L1467.9 1537.21 Q1465.19 1535.82 1462.28 1535.12 Q1459.36 1534.43 1456.24 1534.43 Q1451.48 1534.43 1449.08 1535.89 Q1446.72 1537.35 1446.72 1540.26 Q1446.72 1542.48 1448.42 1543.77 Q1450.13 1545.02 1455.26 1546.16 L1457.45 1546.65 Q1464.26 1548.11 1467.1 1550.78 Q1469.99 1553.42 1469.99 1558.18 Q1469.99 1563.6 1465.68 1566.76 Q1461.41 1569.91 1453.91 1569.91 Q1450.79 1569.91 1447.38 1569.29 Q1444.01 1568.7 1440.26 1567.48 L1440.26 1560.89 Q1443.81 1562.73 1447.24 1563.66 Q1450.68 1564.57 1454.05 1564.57 Q1458.56 1564.57 1460.99 1563.04 Q1463.42 1561.48 1463.42 1558.66 Q1463.42 1556.06 1461.65 1554.67 Q1459.92 1553.28 1453.98 1552 L1451.76 1551.48 Q1445.82 1550.23 1443.18 1547.66 Q1440.54 1545.05 1440.54 1540.54 Q1440.54 1535.05 1444.43 1532.07 Q1448.32 1529.08 1455.47 1529.08 Q1459.01 1529.08 1462.14 1529.6 Q1465.26 1530.12 1467.9 1531.16 Z" fill="#000000" fill-rule="evenodd" fill-opacity="1" /><polyline clip-path="url(#clip162)" style="stroke:#000000; stroke-linecap:round; stroke-linejoin:round; stroke-width:2; stroke-opacity:0.1; fill:none" points="
  258.989,1380.04 2352.76,1380.04 
  "/>
<polyline clip-path="url(#clip162)" style="stroke:#000000; stroke-linecap:round; stroke-linejoin:round; stroke-width:2; stroke-opacity:0.1; fill:none" points="
  258.989,1250.64 2352.76,1250.64 
  "/>
<polyline clip-path="url(#clip162)" style="stroke:#000000; stroke-linecap:round; stroke-linejoin:round; stroke-width:2; stroke-opacity:0.1; fill:none" points="
  258.989,1121.25 2352.76,1121.25 
  "/>
<polyline clip-path="url(#clip162)" style="stroke:#000000; stroke-linecap:round; stroke-linejoin:round; stroke-width:2; stroke-opacity:0.1; fill:none" points="
  258.989,991.847 2352.76,991.847 
  "/>
<polyline clip-path="url(#clip162)" style="stroke:#000000; stroke-linecap:round; stroke-linejoin:round; stroke-width:2; stroke-opacity:0.1; fill:none" points="
  258.989,862.45 2352.76,862.45 
  "/>
<polyline clip-path="url(#clip162)" style="stroke:#000000; stroke-linecap:round; stroke-linejoin:round; stroke-width:2; stroke-opacity:0.1; fill:none" points="
  258.989,733.052 2352.76,733.052 
  "/>
<polyline clip-path="url(#clip162)" style="stroke:#000000; stroke-linecap:round; stroke-linejoin:round; stroke-width:2; stroke-opacity:0.1; fill:none" points="
  258.989,603.654 2352.76,603.654 
  "/>
<polyline clip-path="url(#clip162)" style="stroke:#000000; stroke-linecap:round; stroke-linejoin:round; stroke-width:2; stroke-opacity:0.1; fill:none" points="
  258.989,474.257 2352.76,474.257 
  "/>
<polyline clip-path="url(#clip162)" style="stroke:#000000; stroke-linecap:round; stroke-linejoin:round; stroke-width:2; stroke-opacity:0.1; fill:none" points="
  258.989,344.859 2352.76,344.859 
  "/>
<polyline clip-path="url(#clip162)" style="stroke:#000000; stroke-linecap:round; stroke-linejoin:round; stroke-width:2; stroke-opacity:0.1; fill:none" points="
  258.989,215.461 2352.76,215.461 
  "/>
<polyline clip-path="url(#clip162)" style="stroke:#000000; stroke-linecap:round; stroke-linejoin:round; stroke-width:2; stroke-opacity:0.1; fill:none" points="
  258.989,86.0634 2352.76,86.0634 
  "/>
<polyline clip-path="url(#clip160)" style="stroke:#000000; stroke-linecap:round; stroke-linejoin:round; stroke-width:4; stroke-opacity:1; fill:none" points="
  258.989,1418.86 258.989,47.2441 
  "/>
<polyline clip-path="url(#clip160)" style="stroke:#000000; stroke-linecap:round; stroke-linejoin:round; stroke-width:4; stroke-opacity:1; fill:none" points="
  258.989,1380.04 277.887,1380.04 
  "/>
<polyline clip-path="url(#clip160)" style="stroke:#000000; stroke-linecap:round; stroke-linejoin:round; stroke-width:4; stroke-opacity:1; fill:none" points="
  258.989,1250.64 277.887,1250.64 
  "/>
<polyline clip-path="url(#clip160)" style="stroke:#000000; stroke-linecap:round; stroke-linejoin:round; stroke-width:4; stroke-opacity:1; fill:none" points="
  258.989,1121.25 277.887,1121.25 
  "/>
<polyline clip-path="url(#clip160)" style="stroke:#000000; stroke-linecap:round; stroke-linejoin:round; stroke-width:4; stroke-opacity:1; fill:none" points="
  258.989,991.847 277.887,991.847 
  "/>
<polyline clip-path="url(#clip160)" style="stroke:#000000; stroke-linecap:round; stroke-linejoin:round; stroke-width:4; stroke-opacity:1; fill:none" points="
  258.989,862.45 277.887,862.45 
  "/>
<polyline clip-path="url(#clip160)" style="stroke:#000000; stroke-linecap:round; stroke-linejoin:round; stroke-width:4; stroke-opacity:1; fill:none" points="
  258.989,733.052 277.887,733.052 
  "/>
<polyline clip-path="url(#clip160)" style="stroke:#000000; stroke-linecap:round; stroke-linejoin:round; stroke-width:4; stroke-opacity:1; fill:none" points="
  258.989,603.654 277.887,603.654 
  "/>
<polyline clip-path="url(#clip160)" style="stroke:#000000; stroke-linecap:round; stroke-linejoin:round; stroke-width:4; stroke-opacity:1; fill:none" points="
  258.989,474.257 277.887,474.257 
  "/>
<polyline clip-path="url(#clip160)" style="stroke:#000000; stroke-linecap:round; stroke-linejoin:round; stroke-width:4; stroke-opacity:1; fill:none" points="
  258.989,344.859 277.887,344.859 
  "/>
<polyline clip-path="url(#clip160)" style="stroke:#000000; stroke-linecap:round; stroke-linejoin:round; stroke-width:4; stroke-opacity:1; fill:none" points="
  258.989,215.461 277.887,215.461 
  "/>
<polyline clip-path="url(#clip160)" style="stroke:#000000; stroke-linecap:round; stroke-linejoin:round; stroke-width:4; stroke-opacity:1; fill:none" points="
  258.989,86.0634 277.887,86.0634 
  "/>
<path clip-path="url(#clip160)" d="M137.226 1358.74 Q131.809 1358.74 129.066 1364.09 Q126.358 1369.4 126.358 1380.09 Q126.358 1390.75 129.066 1396.1 Q131.809 1401.41 137.226 1401.41 Q142.677 1401.41 145.386 1396.1 Q148.129 1390.75 148.129 1380.09 Q148.129 1369.4 145.386 1364.09 Q142.677 1358.74 137.226 1358.74 M137.226 1353.18 Q145.941 1353.18 150.524 1360.09 Q155.142 1366.97 155.142 1380.09 Q155.142 1393.18 150.524 1400.09 Q145.941 1406.97 137.226 1406.97 Q128.511 1406.97 123.893 1400.09 Q119.309 1393.18 119.309 1380.09 Q119.309 1366.97 123.893 1360.09 Q128.511 1353.18 137.226 1353.18 Z" fill="#000000" fill-rule="evenodd" fill-opacity="1" /><path clip-path="url(#clip160)" d="M167.469 1397.14 L174.795 1397.14 L174.795 1405.96 L167.469 1405.96 L167.469 1397.14 Z" fill="#000000" fill-rule="evenodd" fill-opacity="1" /><path clip-path="url(#clip160)" d="M205.073 1358.74 Q199.656 1358.74 196.913 1364.09 Q194.205 1369.4 194.205 1380.09 Q194.205 1390.75 196.913 1396.1 Q199.656 1401.41 205.073 1401.41 Q210.524 1401.41 213.232 1396.1 Q215.975 1390.75 215.975 1380.09 Q215.975 1369.4 213.232 1364.09 Q210.524 1358.74 205.073 1358.74 M205.073 1353.18 Q213.788 1353.18 218.371 1360.09 Q222.989 1366.97 222.989 1380.09 Q222.989 1393.18 218.371 1400.09 Q213.788 1406.97 205.073 1406.97 Q196.358 1406.97 191.739 1400.09 Q187.156 1393.18 187.156 1380.09 Q187.156 1366.97 191.739 1360.09 Q196.358 1353.18 205.073 1353.18 Z" fill="#000000" fill-rule="evenodd" fill-opacity="1" /><path clip-path="url(#clip160)" d="M139.066 1229.34 Q133.65 1229.34 130.906 1234.69 Q128.198 1240 128.198 1250.69 Q128.198 1261.35 130.906 1266.7 Q133.65 1272.01 139.066 1272.01 Q144.518 1272.01 147.226 1266.7 Q149.969 1261.35 149.969 1250.69 Q149.969 1240 147.226 1234.69 Q144.518 1229.34 139.066 1229.34 M139.066 1223.79 Q147.781 1223.79 152.365 1230.7 Q156.983 1237.57 156.983 1250.69 Q156.983 1263.79 152.365 1270.69 Q147.781 1277.57 139.066 1277.57 Q130.351 1277.57 125.733 1270.69 Q121.15 1263.79 121.15 1250.69 Q121.15 1237.57 125.733 1230.7 Q130.351 1223.79 139.066 1223.79 Z" fill="#000000" fill-rule="evenodd" fill-opacity="1" /><path clip-path="url(#clip160)" d="M169.309 1267.74 L176.635 1267.74 L176.635 1276.56 L169.309 1276.56 L169.309 1267.74 Z" fill="#000000" fill-rule="evenodd" fill-opacity="1" /><path clip-path="url(#clip160)" d="M193.128 1270.66 L204.587 1270.66 L204.587 1231.11 L192.121 1233.61 L192.121 1227.22 L204.517 1224.72 L211.531 1224.72 L211.531 1270.66 L222.989 1270.66 L222.989 1276.56 L193.128 1276.56 L193.128 1270.66 Z" fill="#000000" fill-rule="evenodd" fill-opacity="1" /><path clip-path="url(#clip160)" d="M139.622 1099.94 Q134.205 1099.94 131.462 1105.29 Q128.754 1110.6 128.754 1121.3 Q128.754 1131.96 131.462 1137.3 Q134.205 1142.62 139.622 1142.62 Q145.073 1142.62 147.781 1137.3 Q150.524 1131.96 150.524 1121.3 Q150.524 1110.6 147.781 1105.29 Q145.073 1099.94 139.622 1099.94 M139.622 1094.39 Q148.337 1094.39 152.92 1101.3 Q157.538 1108.17 157.538 1121.3 Q157.538 1134.39 152.92 1141.3 Q148.337 1148.17 139.622 1148.17 Q130.906 1148.17 126.288 1141.3 Q121.705 1134.39 121.705 1121.3 Q121.705 1108.17 126.288 1101.3 Q130.906 1094.39 139.622 1094.39 Z" fill="#000000" fill-rule="evenodd" fill-opacity="1" /><path clip-path="url(#clip160)" d="M169.865 1138.35 L177.191 1138.35 L177.191 1147.17 L169.865 1147.17 L169.865 1138.35 Z" fill="#000000" fill-rule="evenodd" fill-opacity="1" /><path clip-path="url(#clip160)" d="M198.51 1141.26 L222.989 1141.26 L222.989 1147.17 L190.073 1147.17 L190.073 1141.26 Q194.066 1137.13 200.941 1130.19 Q207.851 1123.21 209.621 1121.19 Q212.989 1117.41 214.309 1114.8 Q215.663 1112.17 215.663 1109.63 Q215.663 1105.5 212.746 1102.89 Q209.864 1100.29 205.212 1100.29 Q201.913 1100.29 198.233 1101.44 Q194.587 1102.58 190.42 1104.91 L190.42 1097.83 Q194.656 1096.12 198.337 1095.26 Q202.017 1094.39 205.073 1094.39 Q213.128 1094.39 217.92 1098.42 Q222.712 1102.44 222.712 1109.18 Q222.712 1112.37 221.496 1115.26 Q220.316 1118.1 217.156 1121.99 Q216.288 1123 211.635 1127.82 Q206.982 1132.62 198.51 1141.26 Z" fill="#000000" fill-rule="evenodd" fill-opacity="1" /><path clip-path="url(#clip160)" d="M138.198 970.545 Q132.781 970.545 130.038 975.893 Q127.33 981.205 127.33 991.899 Q127.33 1002.56 130.038 1007.91 Q132.781 1013.22 138.198 1013.22 Q143.649 1013.22 146.358 1007.91 Q149.101 1002.56 149.101 991.899 Q149.101 981.205 146.358 975.893 Q143.649 970.545 138.198 970.545 M138.198 964.99 Q146.913 964.99 151.497 971.9 Q156.115 978.775 156.115 991.899 Q156.115 1004.99 151.497 1011.9 Q146.913 1018.77 138.198 1018.77 Q129.483 1018.77 124.865 1011.9 Q120.282 1004.99 120.282 991.899 Q120.282 978.775 124.865 971.9 Q129.483 964.99 138.198 964.99 Z" fill="#000000" fill-rule="evenodd" fill-opacity="1" /><path clip-path="url(#clip160)" d="M168.441 1008.95 L175.767 1008.95 L175.767 1017.77 L168.441 1017.77 L168.441 1008.95 Z" fill="#000000" fill-rule="evenodd" fill-opacity="1" /><path clip-path="url(#clip160)" d="M212.295 989.816 Q217.33 990.893 220.142 994.295 Q222.989 997.698 222.989 1002.7 Q222.989 1010.37 217.712 1014.57 Q212.434 1018.77 202.712 1018.77 Q199.448 1018.77 195.976 1018.11 Q192.538 1017.49 188.858 1016.2 L188.858 1009.43 Q191.774 1011.14 195.246 1012 Q198.719 1012.87 202.503 1012.87 Q209.101 1012.87 212.538 1010.27 Q216.01 1007.66 216.01 1002.7 Q216.01 998.115 212.781 995.545 Q209.587 992.941 203.857 992.941 L197.816 992.941 L197.816 987.177 L204.135 987.177 Q209.309 987.177 212.052 985.129 Q214.795 983.045 214.795 979.156 Q214.795 975.163 211.948 973.045 Q209.135 970.893 203.857 970.893 Q200.976 970.893 197.677 971.518 Q194.378 972.143 190.42 973.462 L190.42 967.212 Q194.413 966.101 197.885 965.545 Q201.392 964.99 204.482 964.99 Q212.469 964.99 217.121 968.636 Q221.774 972.247 221.774 978.427 Q221.774 982.733 219.309 985.719 Q216.844 988.67 212.295 989.816 Z" fill="#000000" fill-rule="evenodd" fill-opacity="1" /><path clip-path="url(#clip160)" d="M136.497 841.148 Q131.08 841.148 128.337 846.495 Q125.629 851.807 125.629 862.502 Q125.629 873.161 128.337 878.509 Q131.08 883.821 136.497 883.821 Q141.948 883.821 144.656 878.509 Q147.399 873.161 147.399 862.502 Q147.399 851.807 144.656 846.495 Q141.948 841.148 136.497 841.148 M136.497 835.592 Q145.212 835.592 149.795 842.502 Q154.413 849.377 154.413 862.502 Q154.413 875.592 149.795 882.502 Q145.212 889.377 136.497 889.377 Q127.781 889.377 123.163 882.502 Q118.58 875.592 118.58 862.502 Q118.58 849.377 123.163 842.502 Q127.781 835.592 136.497 835.592 Z" fill="#000000" fill-rule="evenodd" fill-opacity="1" /><path clip-path="url(#clip160)" d="M166.74 879.55 L174.066 879.55 L174.066 888.37 L166.74 888.37 L166.74 879.55 Z" fill="#000000" fill-rule="evenodd" fill-opacity="1" /><path clip-path="url(#clip160)" d="M208.614 842.641 L190.906 870.314 L208.614 870.314 L208.614 842.641 M206.774 836.53 L215.594 836.53 L215.594 870.314 L222.989 870.314 L222.989 876.148 L215.594 876.148 L215.594 888.37 L208.614 888.37 L208.614 876.148 L185.212 876.148 L185.212 869.377 L206.774 836.53 Z" fill="#000000" fill-rule="evenodd" fill-opacity="1" /><path clip-path="url(#clip160)" d="M138.719 711.75 Q133.302 711.75 130.559 717.097 Q127.851 722.41 127.851 733.104 Q127.851 743.764 130.559 749.111 Q133.302 754.423 138.719 754.423 Q144.17 754.423 146.879 749.111 Q149.622 743.764 149.622 733.104 Q149.622 722.41 146.879 717.097 Q144.17 711.75 138.719 711.75 M138.719 706.194 Q147.434 706.194 152.017 713.104 Q156.636 719.979 156.636 733.104 Q156.636 746.194 152.017 753.104 Q147.434 759.979 138.719 759.979 Q130.004 759.979 125.386 753.104 Q120.802 746.194 120.802 733.104 Q120.802 719.979 125.386 713.104 Q130.004 706.194 138.719 706.194 Z" fill="#000000" fill-rule="evenodd" fill-opacity="1" /><path clip-path="url(#clip160)" d="M168.962 750.153 L176.288 750.153 L176.288 758.972 L168.962 758.972 L168.962 750.153 Z" fill="#000000" fill-rule="evenodd" fill-opacity="1" /><path clip-path="url(#clip160)" d="M191.635 707.132 L219.17 707.132 L219.17 713.035 L198.059 713.035 L198.059 725.743 Q199.587 725.222 201.114 724.979 Q202.642 724.701 204.17 724.701 Q212.85 724.701 217.92 729.458 Q222.989 734.215 222.989 742.34 Q222.989 750.708 217.781 755.361 Q212.573 759.979 203.094 759.979 Q199.83 759.979 196.427 759.423 Q193.059 758.868 189.448 757.757 L189.448 750.708 Q192.573 752.41 195.906 753.243 Q199.239 754.076 202.955 754.076 Q208.962 754.076 212.469 750.916 Q215.975 747.757 215.975 742.34 Q215.975 736.923 212.469 733.764 Q208.962 730.604 202.955 730.604 Q200.142 730.604 197.33 731.229 Q194.552 731.854 191.635 733.173 L191.635 707.132 Z" fill="#000000" fill-rule="evenodd" fill-opacity="1" /><path clip-path="url(#clip160)" d="M136.983 582.352 Q131.566 582.352 128.823 587.699 Q126.115 593.012 126.115 603.706 Q126.115 614.366 128.823 619.713 Q131.566 625.026 136.983 625.026 Q142.434 625.026 145.143 619.713 Q147.886 614.366 147.886 603.706 Q147.886 593.012 145.143 587.699 Q142.434 582.352 136.983 582.352 M136.983 576.797 Q145.698 576.797 150.281 583.706 Q154.899 590.581 154.899 603.706 Q154.899 616.797 150.281 623.706 Q145.698 630.581 136.983 630.581 Q128.268 630.581 123.65 623.706 Q119.066 616.797 119.066 603.706 Q119.066 590.581 123.65 583.706 Q128.268 576.797 136.983 576.797 Z" fill="#000000" fill-rule="evenodd" fill-opacity="1" /><path clip-path="url(#clip160)" d="M167.226 620.755 L174.552 620.755 L174.552 629.574 L167.226 629.574 L167.226 620.755 Z" fill="#000000" fill-rule="evenodd" fill-opacity="1" /><path clip-path="url(#clip160)" d="M205.698 600.859 Q200.976 600.859 198.198 604.088 Q195.455 607.317 195.455 612.942 Q195.455 618.533 198.198 621.797 Q200.976 625.026 205.698 625.026 Q210.42 625.026 213.163 621.797 Q215.941 618.533 215.941 612.942 Q215.941 607.317 213.163 604.088 Q210.42 600.859 205.698 600.859 M219.621 578.88 L219.621 585.269 Q216.982 584.019 214.274 583.359 Q211.6 582.7 208.962 582.7 Q202.017 582.7 198.337 587.387 Q194.691 592.074 194.17 601.554 Q196.219 598.533 199.309 596.936 Q202.399 595.304 206.114 595.304 Q213.927 595.304 218.441 600.061 Q222.989 604.783 222.989 612.942 Q222.989 620.928 218.267 625.755 Q213.545 630.581 205.698 630.581 Q196.705 630.581 191.948 623.706 Q187.191 616.797 187.191 603.706 Q187.191 591.415 193.024 584.123 Q198.858 576.797 208.684 576.797 Q211.323 576.797 213.996 577.318 Q216.705 577.838 219.621 578.88 Z" fill="#000000" fill-rule="evenodd" fill-opacity="1" /><path clip-path="url(#clip160)" d="M138.58 452.955 Q133.163 452.955 130.42 458.302 Q127.712 463.614 127.712 474.309 Q127.712 484.968 130.42 490.315 Q133.163 495.628 138.58 495.628 Q144.031 495.628 146.74 490.315 Q149.483 484.968 149.483 474.309 Q149.483 463.614 146.74 458.302 Q144.031 452.955 138.58 452.955 M138.58 447.399 Q147.295 447.399 151.879 454.309 Q156.497 461.184 156.497 474.309 Q156.497 487.399 151.879 494.309 Q147.295 501.183 138.58 501.183 Q129.865 501.183 125.247 494.309 Q120.663 487.399 120.663 474.309 Q120.663 461.184 125.247 454.309 Q129.865 447.399 138.58 447.399 Z" fill="#000000" fill-rule="evenodd" fill-opacity="1" /><path clip-path="url(#clip160)" d="M168.823 491.357 L176.149 491.357 L176.149 500.177 L168.823 500.177 L168.823 491.357 Z" fill="#000000" fill-rule="evenodd" fill-opacity="1" /><path clip-path="url(#clip160)" d="M189.656 448.337 L222.989 448.337 L222.989 451.323 L204.17 500.177 L196.844 500.177 L214.552 454.239 L189.656 454.239 L189.656 448.337 Z" fill="#000000" fill-rule="evenodd" fill-opacity="1" /><path clip-path="url(#clip160)" d="M137.365 323.557 Q131.948 323.557 129.205 328.904 Q126.497 334.217 126.497 344.911 Q126.497 355.571 129.205 360.918 Q131.948 366.23 137.365 366.23 Q142.816 366.23 145.524 360.918 Q148.267 355.571 148.267 344.911 Q148.267 334.217 145.524 328.904 Q142.816 323.557 137.365 323.557 M137.365 318.001 Q146.08 318.001 150.663 324.911 Q155.281 331.786 155.281 344.911 Q155.281 358.001 150.663 364.911 Q146.08 371.786 137.365 371.786 Q128.65 371.786 124.032 364.911 Q119.448 358.001 119.448 344.911 Q119.448 331.786 124.032 324.911 Q128.65 318.001 137.365 318.001 Z" fill="#000000" fill-rule="evenodd" fill-opacity="1" /><path clip-path="url(#clip160)" d="M167.608 361.959 L174.934 361.959 L174.934 370.779 L167.608 370.779 L167.608 361.959 Z" fill="#000000" fill-rule="evenodd" fill-opacity="1" /><path clip-path="url(#clip160)" d="M205.212 346.161 Q200.212 346.161 197.33 348.835 Q194.483 351.508 194.483 356.196 Q194.483 360.883 197.33 363.557 Q200.212 366.23 205.212 366.23 Q210.212 366.23 213.094 363.557 Q215.975 360.848 215.975 356.196 Q215.975 351.508 213.094 348.835 Q210.246 346.161 205.212 346.161 M198.198 343.175 Q193.684 342.064 191.149 338.973 Q188.649 335.883 188.649 331.439 Q188.649 325.224 193.059 321.612 Q197.503 318.001 205.212 318.001 Q212.955 318.001 217.364 321.612 Q221.774 325.224 221.774 331.439 Q221.774 335.883 219.239 338.973 Q216.739 342.064 212.26 343.175 Q217.33 344.355 220.142 347.793 Q222.989 351.23 222.989 356.196 Q222.989 363.73 218.371 367.758 Q213.788 371.786 205.212 371.786 Q196.635 371.786 192.017 367.758 Q187.434 363.73 187.434 356.196 Q187.434 351.23 190.281 347.793 Q193.128 344.355 198.198 343.175 M195.628 332.098 Q195.628 336.126 198.128 338.383 Q200.663 340.64 205.212 340.64 Q209.726 340.64 212.26 338.383 Q214.83 336.126 214.83 332.098 Q214.83 328.071 212.26 325.814 Q209.726 323.557 205.212 323.557 Q200.663 323.557 198.128 325.814 Q195.628 328.071 195.628 332.098 Z" fill="#000000" fill-rule="evenodd" fill-opacity="1" /><path clip-path="url(#clip160)" d="M137.504 194.159 Q132.087 194.159 129.344 199.506 Q126.636 204.819 126.636 215.513 Q126.636 226.173 129.344 231.52 Q132.087 236.833 137.504 236.833 Q142.955 236.833 145.663 231.52 Q148.406 226.173 148.406 215.513 Q148.406 204.819 145.663 199.506 Q142.955 194.159 137.504 194.159 M137.504 188.604 Q146.219 188.604 150.802 195.513 Q155.42 202.388 155.42 215.513 Q155.42 228.603 150.802 235.513 Q146.219 242.388 137.504 242.388 Q128.788 242.388 124.17 235.513 Q119.587 228.603 119.587 215.513 Q119.587 202.388 124.17 195.513 Q128.788 188.604 137.504 188.604 Z" fill="#000000" fill-rule="evenodd" fill-opacity="1" /><path clip-path="url(#clip160)" d="M167.747 232.562 L175.073 232.562 L175.073 241.381 L167.747 241.381 L167.747 232.562 Z" fill="#000000" fill-rule="evenodd" fill-opacity="1" /><path clip-path="url(#clip160)" d="M190.559 240.305 L190.559 233.916 Q193.198 235.166 195.906 235.826 Q198.614 236.485 201.219 236.485 Q208.163 236.485 211.809 231.833 Q215.489 227.145 216.01 217.631 Q213.996 220.617 210.906 222.215 Q207.816 223.812 204.066 223.812 Q196.288 223.812 191.739 219.124 Q187.226 214.402 187.226 206.242 Q187.226 198.256 191.948 193.43 Q196.67 188.604 204.517 188.604 Q213.51 188.604 218.232 195.513 Q222.989 202.388 222.989 215.513 Q222.989 227.77 217.156 235.096 Q211.357 242.388 201.531 242.388 Q198.892 242.388 196.184 241.867 Q193.476 241.346 190.559 240.305 M204.517 218.326 Q209.239 218.326 211.982 215.097 Q214.76 211.867 214.76 206.242 Q214.76 200.652 211.982 197.423 Q209.239 194.159 204.517 194.159 Q199.795 194.159 197.017 197.423 Q194.274 200.652 194.274 206.242 Q194.274 211.867 197.017 215.097 Q199.795 218.326 204.517 218.326 Z" fill="#000000" fill-rule="evenodd" fill-opacity="1" /><path clip-path="url(#clip160)" d="M123.441 106.081 L134.9 106.081 L134.9 66.5323 L122.434 69.0322 L122.434 62.6434 L134.83 60.1434 L141.844 60.1434 L141.844 106.081 L153.302 106.081 L153.302 111.983 L123.441 111.983 L123.441 106.081 Z" fill="#000000" fill-rule="evenodd" fill-opacity="1" /><path clip-path="url(#clip160)" d="M167.469 103.164 L174.795 103.164 L174.795 111.983 L167.469 111.983 L167.469 103.164 Z" fill="#000000" fill-rule="evenodd" fill-opacity="1" /><path clip-path="url(#clip160)" d="M205.073 64.7614 Q199.656 64.7614 196.913 70.1086 Q194.205 75.4211 194.205 86.1155 Q194.205 96.7752 196.913 102.122 Q199.656 107.435 205.073 107.435 Q210.524 107.435 213.232 102.122 Q215.975 96.7752 215.975 86.1155 Q215.975 75.4211 213.232 70.1086 Q210.524 64.7614 205.073 64.7614 M205.073 59.2059 Q213.788 59.2059 218.371 66.1156 Q222.989 72.9906 222.989 86.1155 Q222.989 99.2057 218.371 106.115 Q213.788 112.99 205.073 112.99 Q196.358 112.99 191.739 106.115 Q187.156 99.2057 187.156 86.1155 Q187.156 72.9906 191.739 66.1156 Q196.358 59.2059 205.073 59.2059 Z" fill="#000000" fill-rule="evenodd" fill-opacity="1" /><path clip-path="url(#clip160)" d="M16.8895 931.402 L23.7298 931.402 Q21.8201 935.395 20.8826 938.936 Q19.9451 942.478 19.9451 945.777 Q19.9451 951.506 22.1673 954.631 Q24.3895 957.721 28.4867 957.721 Q31.9242 957.721 33.695 955.672 Q35.4311 953.589 36.5075 947.825 L37.3755 943.589 Q38.8686 935.742 42.6533 932.027 Q46.4033 928.277 52.7227 928.277 Q60.2574 928.277 64.1462 933.346 Q68.0351 938.381 68.0351 948.138 Q68.0351 951.818 67.2018 955.985 Q66.3684 960.117 64.7365 964.561 L57.5143 964.561 Q59.9101 960.29 61.1254 956.193 Q62.3407 952.096 62.3407 948.138 Q62.3407 942.131 59.9796 938.867 Q57.6185 935.603 53.2435 935.603 Q49.4241 935.603 47.2713 937.964 Q45.1186 940.29 44.0422 945.638 L43.2088 949.908 Q41.6463 957.756 38.313 961.263 Q34.9797 964.769 29.0422 964.769 Q22.1673 964.769 18.209 959.943 Q14.2507 955.082 14.2507 946.575 Q14.2507 942.929 14.9104 939.145 Q15.5701 935.36 16.8895 931.402 Z" fill="#000000" fill-rule="evenodd" fill-opacity="1" /><path clip-path="url(#clip160)" d="M51.681 918.277 L28.1395 918.277 L28.1395 911.888 L51.438 911.888 Q56.9588 911.888 59.7365 909.735 Q62.4796 907.582 62.4796 903.277 Q62.4796 898.103 59.181 895.117 Q55.8824 892.096 50.188 892.096 L28.1395 892.096 L28.1395 885.707 L67.0282 885.707 L67.0282 892.096 L61.056 892.096 Q64.5976 894.423 66.3337 897.513 Q68.0351 900.568 68.0351 904.631 Q68.0351 911.332 63.8685 914.804 Q59.7018 918.277 51.681 918.277 M27.202 902.2 L27.202 902.2 Z" fill="#000000" fill-rule="evenodd" fill-opacity="1" /><path clip-path="url(#clip160)" d="M29.6325 844.562 L35.6047 844.562 Q34.1117 847.27 33.3825 850.013 Q32.6186 852.721 32.6186 855.499 Q32.6186 861.714 36.5769 865.152 Q40.5005 868.589 47.6185 868.589 Q54.7366 868.589 58.6949 865.152 Q62.6185 861.714 62.6185 855.499 Q62.6185 852.721 61.8893 850.013 Q61.1254 847.27 59.6324 844.562 L65.5351 844.562 Q66.7851 847.235 67.4101 850.117 Q68.0351 852.965 68.0351 856.194 Q68.0351 864.978 62.5143 870.152 Q56.9935 875.326 47.6185 875.326 Q38.1047 875.326 32.6533 870.117 Q27.202 864.874 27.202 855.777 Q27.202 852.826 27.827 850.013 Q28.4173 847.201 29.6325 844.562 Z" fill="#000000" fill-rule="evenodd" fill-opacity="1" /><path clip-path="url(#clip160)" d="M29.6325 805.465 L35.6047 805.465 Q34.1117 808.173 33.3825 810.916 Q32.6186 813.624 32.6186 816.402 Q32.6186 822.617 36.5769 826.055 Q40.5005 829.492 47.6185 829.492 Q54.7366 829.492 58.6949 826.055 Q62.6185 822.617 62.6185 816.402 Q62.6185 813.624 61.8893 810.916 Q61.1254 808.173 59.6324 805.465 L65.5351 805.465 Q66.7851 808.138 67.4101 811.02 Q68.0351 813.868 68.0351 817.097 Q68.0351 825.881 62.5143 831.055 Q56.9935 836.228 47.6185 836.228 Q38.1047 836.228 32.6533 831.02 Q27.202 825.777 27.202 816.68 Q27.202 813.729 27.827 810.916 Q28.4173 808.104 29.6325 805.465 Z" fill="#000000" fill-rule="evenodd" fill-opacity="1" /><path clip-path="url(#clip160)" d="M45.9866 761.09 L49.1116 761.09 L49.1116 790.465 Q55.7088 790.048 59.181 786.507 Q62.6185 782.93 62.6185 776.576 Q62.6185 772.896 61.7157 769.458 Q60.8129 765.986 59.0074 762.583 L65.049 762.583 Q66.5073 766.021 67.2712 769.632 Q68.0351 773.243 68.0351 776.958 Q68.0351 786.263 62.6185 791.715 Q57.2018 797.131 47.9658 797.131 Q38.4172 797.131 32.827 791.993 Q27.202 786.819 27.202 778.069 Q27.202 770.222 32.2714 765.673 Q37.3061 761.09 45.9866 761.09 M44.1116 767.479 Q38.8686 767.548 35.7436 770.43 Q32.6186 773.277 32.6186 778 Q32.6186 783.347 35.6394 786.576 Q38.6603 789.77 44.1463 790.257 L44.1116 767.479 Z" fill="#000000" fill-rule="evenodd" fill-opacity="1" /><path clip-path="url(#clip160)" d="M29.2853 725.812 L35.3269 725.812 Q33.9381 728.521 33.2436 731.437 Q32.5492 734.354 32.5492 737.479 Q32.5492 742.236 34.0075 744.632 Q35.4658 746.993 38.3825 746.993 Q40.6047 746.993 41.8894 745.291 Q43.1394 743.59 44.2852 738.451 L44.7713 736.264 Q46.2297 729.458 48.9033 726.611 Q51.5421 723.729 56.299 723.729 Q61.7157 723.729 64.8754 728.035 Q68.0351 732.305 68.0351 739.805 Q68.0351 742.93 67.4101 746.333 Q66.8198 749.701 65.6046 753.451 L59.0074 753.451 Q60.8476 749.91 61.7851 746.472 Q62.6879 743.035 62.6879 739.667 Q62.6879 735.153 61.1601 732.722 Q59.5976 730.292 56.7852 730.292 Q54.181 730.292 52.7921 732.062 Q51.4032 733.798 50.1185 739.736 L49.5977 741.958 Q48.3477 747.896 45.7783 750.535 Q43.1741 753.173 38.6603 753.173 Q33.1742 753.173 30.1881 749.285 Q27.202 745.396 27.202 738.243 Q27.202 734.701 27.7228 731.576 Q28.2436 728.451 29.2853 725.812 Z" fill="#000000" fill-rule="evenodd" fill-opacity="1" /><path clip-path="url(#clip160)" d="M29.2853 688.764 L35.3269 688.764 Q33.9381 691.472 33.2436 694.389 Q32.5492 697.306 32.5492 700.431 Q32.5492 705.188 34.0075 707.583 Q35.4658 709.944 38.3825 709.944 Q40.6047 709.944 41.8894 708.243 Q43.1394 706.542 44.2852 701.403 L44.7713 699.215 Q46.2297 692.41 48.9033 689.563 Q51.5421 686.681 56.299 686.681 Q61.7157 686.681 64.8754 690.986 Q68.0351 695.257 68.0351 702.757 Q68.0351 705.882 67.4101 709.285 Q66.8198 712.653 65.6046 716.403 L59.0074 716.403 Q60.8476 712.861 61.7851 709.424 Q62.6879 705.986 62.6879 702.618 Q62.6879 698.104 61.1601 695.674 Q59.5976 693.243 56.7852 693.243 Q54.181 693.243 52.7921 695.014 Q51.4032 696.75 50.1185 702.688 L49.5977 704.91 Q48.3477 710.847 45.7783 713.486 Q43.1741 716.125 38.6603 716.125 Q33.1742 716.125 30.1881 712.236 Q27.202 708.347 27.202 701.195 Q27.202 697.653 27.7228 694.528 Q28.2436 691.403 29.2853 688.764 Z" fill="#000000" fill-rule="evenodd" fill-opacity="1" /><path clip-path="url(#clip160)" d="M42.7227 629.042 Q43.4866 626.785 45.9866 624.667 Q48.4866 622.514 52.8616 620.362 L67.0282 613.244 L67.0282 620.778 L53.7296 627.41 Q48.5213 629.98 46.8199 632.41 Q45.1186 634.806 45.1186 638.973 L45.1186 646.611 L67.0282 646.611 L67.0282 653.625 L15.1882 653.625 L15.1882 637.792 Q15.1882 628.903 18.9034 624.528 Q22.6187 620.153 30.1186 620.153 Q35.0144 620.153 38.2436 622.445 Q41.4727 624.702 42.7227 629.042 M20.952 646.611 L39.3547 646.611 L39.3547 637.792 Q39.3547 632.723 37.0283 630.153 Q34.6672 627.549 30.1186 627.549 Q25.57 627.549 23.2784 630.153 Q20.952 632.723 20.952 637.792 L20.952 646.611 Z" fill="#000000" fill-rule="evenodd" fill-opacity="1" /><path clip-path="url(#clip160)" d="M47.4797 588.383 Q47.4797 596.126 49.2505 599.112 Q51.0213 602.098 55.2921 602.098 Q58.6949 602.098 60.7087 599.876 Q62.6879 597.619 62.6879 593.765 Q62.6879 588.452 58.9379 585.258 Q55.1532 582.028 48.9033 582.028 L47.4797 582.028 L47.4797 588.383 M44.8408 575.64 L67.0282 575.64 L67.0282 582.028 L61.1254 582.028 Q64.6671 584.216 66.3684 587.48 Q68.0351 590.744 68.0351 595.466 Q68.0351 601.438 64.7018 604.98 Q61.3337 608.487 55.7088 608.487 Q49.1463 608.487 45.813 604.112 Q42.4797 599.702 42.4797 590.987 L42.4797 582.028 L41.8547 582.028 Q37.445 582.028 35.0492 584.945 Q32.6186 587.827 32.6186 593.07 Q32.6186 596.403 33.4172 599.563 Q34.2158 602.723 35.813 605.639 L29.9103 605.639 Q28.5561 602.133 27.8964 598.834 Q27.202 595.535 27.202 592.41 Q27.202 583.973 31.577 579.806 Q35.9519 575.64 44.8408 575.64 Z" fill="#000000" fill-rule="evenodd" fill-opacity="1" /><path clip-path="url(#clip160)" d="M17.0979 556.161 L28.1395 556.161 L28.1395 543.001 L33.1047 543.001 L33.1047 556.161 L54.2157 556.161 Q58.9726 556.161 60.3268 554.876 Q61.681 553.556 61.681 549.563 L61.681 543.001 L67.0282 543.001 L67.0282 549.563 Q67.0282 556.959 64.2851 559.772 Q61.5074 562.584 54.2157 562.584 L33.1047 562.584 L33.1047 567.272 L28.1395 567.272 L28.1395 562.584 L17.0979 562.584 L17.0979 556.161 Z" fill="#000000" fill-rule="evenodd" fill-opacity="1" /><path clip-path="url(#clip160)" d="M45.9866 501.334 L49.1116 501.334 L49.1116 530.709 Q55.7088 530.293 59.181 526.751 Q62.6185 523.175 62.6185 516.82 Q62.6185 513.14 61.7157 509.702 Q60.8129 506.23 59.0074 502.828 L65.049 502.828 Q66.5073 506.265 67.2712 509.876 Q68.0351 513.487 68.0351 517.202 Q68.0351 526.508 62.6185 531.959 Q57.2018 537.376 47.9658 537.376 Q38.4172 537.376 32.827 532.237 Q27.202 527.063 27.202 518.314 Q27.202 510.466 32.2714 505.918 Q37.3061 501.334 45.9866 501.334 M44.1116 507.723 Q38.8686 507.793 35.7436 510.675 Q32.6186 513.522 32.6186 518.244 Q32.6186 523.591 35.6394 526.82 Q38.6603 530.015 44.1463 530.501 L44.1116 507.723 Z" fill="#000000" fill-rule="evenodd" fill-opacity="1" /><polyline clip-path="url(#clip162)" style="stroke:#009af9; stroke-linecap:round; stroke-linejoin:round; stroke-width:4; stroke-opacity:1; fill:none" points="
  318.247,1380.04 323.197,1380.04 328.148,1380.04 333.098,1380.04 338.049,1380.04 342.999,1380.04 347.95,1380.04 352.9,1380.04 357.851,1380.04 362.801,1380.04 
  367.752,1380.04 372.702,1380.04 377.653,1380.04 382.603,1380.04 387.554,1380.04 392.504,1380.04 397.455,1380.04 402.405,1380.04 407.356,1380.04 412.306,1380.04 
  417.257,1380.04 422.207,1380.04 427.158,1380.04 432.108,1380.04 437.059,1380.04 442.009,1380.04 446.96,1380.04 451.911,1380.04 456.861,1380.04 461.812,1380.04 
  466.762,1380.04 471.713,1380.04 476.663,1380.04 481.614,1380.04 486.564,1380.04 491.515,1380.04 496.465,1380.04 501.416,1380.04 506.366,1380.04 511.317,1380.04 
  516.267,1380.04 521.218,1380.04 526.168,1380.04 531.119,1380.04 536.069,1380.04 541.02,1380.04 545.97,1380.04 550.921,1380.04 555.871,1380.04 560.822,1380.04 
  565.772,1380.04 570.723,1380.04 575.673,1380.04 580.624,1380.04 585.574,1380.04 590.525,1380.04 595.475,1380.04 600.426,1380.04 605.376,1380.04 610.327,1380.04 
  615.277,1380.04 620.228,1380.04 625.178,1380.04 630.129,1380.04 635.079,1380.04 640.03,1380.04 644.98,1380.04 649.931,1380.04 654.881,1380.04 659.832,1380.04 
  664.782,1380.04 669.733,1380.04 674.683,1380.04 679.634,1380.04 684.584,1380.04 689.535,1380.04 694.485,1380.04 699.436,1380.04 704.386,1380.04 709.337,1380.04 
  714.287,1380.04 719.238,1380.04 724.188,1380.04 729.139,1380.04 734.089,1380.04 739.04,1380.04 743.99,1380.04 748.941,1380.04 753.891,1380.04 758.842,1380.04 
  763.792,1380.04 768.743,1380.04 773.693,1380.04 778.644,1380.04 783.594,1380.04 788.545,1380.04 793.495,1373.57 798.446,1380.04 803.396,1380.04 808.347,1380.04 
  813.297,1380.04 818.248,1380.04 823.198,1380.04 828.149,1380.04 833.099,1380.04 838.05,1367.1 843,1367.1 847.951,1380.04 852.901,1367.1 857.852,1373.57 
  862.802,1308.87 867.753,1308.87 872.703,1295.93 877.654,1302.4 882.604,1250.64 887.555,1211.82 892.505,1160.06 897.456,1095.37 902.406,1050.08 907.357,953.028 
  912.307,998.317 917.258,868.92 922.208,894.799 927.159,784.811 932.109,739.522 937.06,584.245 942.01,551.895 946.961,545.425 951.912,487.196 956.862,454.847 
  961.813,383.678 966.763,312.509 971.714,377.208 976.664,357.799 981.615,318.979 986.565,286.63 991.516,267.22 996.466,267.22 1001.42,208.991 1006.37,170.172 
  1011.32,144.292 1016.27,118.413 1021.22,111.943 1026.17,124.883 1031.12,118.413 1036.07,111.943 1041.02,111.943 1045.97,105.473 1050.92,144.292 1055.87,111.943 
  1060.82,105.473 1065.77,92.5333 1070.72,118.413 1075.67,105.473 1080.62,111.943 1085.58,99.0032 1090.53,99.0032 1095.48,111.943 1100.43,92.5333 1105.38,99.0032 
  1110.33,86.0634 1115.28,111.943 1120.23,86.0634 1125.18,86.0634 1130.13,86.0634 1135.08,86.0634 1140.03,92.5333 1144.98,86.0634 1149.93,92.5333 1154.88,86.0634 
  1159.83,86.0634 1164.78,86.0634 1169.73,86.0634 1174.68,92.5333 1179.63,86.0634 1184.59,86.0634 1189.54,86.0634 1194.49,86.0634 1199.44,92.5333 1204.39,86.0634 
  1209.34,86.0634 1214.29,92.5333 1219.24,86.0634 1224.19,86.0634 1229.14,86.0634 1234.09,86.0634 1239.04,86.0634 1243.99,86.0634 1248.94,86.0634 1253.89,92.5333 
  1258.84,92.5333 1263.79,86.0634 1268.74,92.5333 1273.69,92.5333 1278.64,86.0634 1283.6,99.0032 1288.55,86.0634 1293.5,86.0634 1298.45,92.5333 1303.4,86.0634 
  1308.35,86.0634 1313.3,92.5333 1318.25,86.0634 1323.2,86.0634 1328.15,86.0634 1333.1,86.0634 1338.05,86.0634 1343,92.5333 1347.95,99.0032 1352.9,86.0634 
  1357.85,86.0634 1362.8,86.0634 1367.75,86.0634 1372.7,86.0634 1377.65,86.0634 1382.61,86.0634 1387.56,86.0634 1392.51,86.0634 1397.46,86.0634 1402.41,92.5333 
  1407.36,86.0634 1412.31,86.0634 1417.26,86.0634 1422.21,86.0634 1427.16,86.0634 1432.11,92.5333 1437.06,86.0634 1442.01,92.5333 1446.96,86.0634 1451.91,86.0634 
  1456.86,92.5333 1461.81,86.0634 1466.76,86.0634 1471.71,86.0634 1476.67,92.5333 1481.62,92.5333 1486.57,92.5333 1491.52,92.5333 1496.47,86.0634 1501.42,86.0634 
  1506.37,92.5333 1511.32,92.5333 1516.27,92.5333 1521.22,92.5333 1526.17,99.0032 1531.12,86.0634 1536.07,86.0634 1541.02,86.0634 1545.97,86.0634 1550.92,86.0634 
  1555.87,86.0634 1560.82,86.0634 1565.77,86.0634 1570.72,86.0634 1575.68,86.0634 1580.63,92.5333 1585.58,86.0634 1590.53,86.0634 1595.48,92.5333 1600.43,92.5333 
  1605.38,86.0634 1610.33,99.0032 1615.28,92.5333 1620.23,86.0634 1625.18,99.0032 1630.13,92.5333 1635.08,92.5333 1640.03,86.0634 1644.98,86.0634 1649.93,86.0634 
  1654.88,86.0634 1659.83,92.5333 1664.78,86.0634 1669.73,92.5333 1674.69,105.473 1679.64,92.5333 1684.59,92.5333 1689.54,92.5333 1694.49,105.473 1699.44,86.0634 
  1704.39,111.943 1709.34,92.5333 1714.29,92.5333 1719.24,86.0634 1724.19,92.5333 1729.14,86.0634 1734.09,86.0634 1739.04,86.0634 1743.99,92.5333 1748.94,86.0634 
  1753.89,86.0634 1758.84,86.0634 1763.79,86.0634 1768.74,86.0634 1773.7,86.0634 1778.65,92.5333 1783.6,86.0634 1788.55,86.0634 1793.5,86.0634 1798.45,86.0634 
  1803.4,86.0634 1808.35,99.0032 1813.3,99.0032 1818.25,86.0634 1823.2,92.5333 1828.15,86.0634 1833.1,86.0634 1838.05,86.0634 1843,86.0634 1847.95,86.0634 
  1852.9,86.0634 1857.85,86.0634 1862.8,92.5333 1867.75,86.0634 1872.71,86.0634 1877.66,86.0634 1882.61,92.5333 1887.56,86.0634 1892.51,92.5333 1897.46,86.0634 
  1902.41,86.0634 1907.36,86.0634 1912.31,86.0634 1917.26,92.5333 1922.21,92.5333 1927.16,92.5333 1932.11,86.0634 1937.06,92.5333 1942.01,86.0634 1946.96,86.0634 
  1951.91,92.5333 1956.86,86.0634 1961.81,86.0634 1966.77,86.0634 1971.72,86.0634 1976.67,86.0634 1981.62,86.0634 1986.57,86.0634 1991.52,86.0634 1996.47,86.0634 
  2001.42,86.0634 2006.37,86.0634 2011.32,86.0634 2016.27,86.0634 2021.22,86.0634 2026.17,86.0634 2031.12,86.0634 2036.07,86.0634 2041.02,99.0032 2045.97,92.5333 
  2050.92,86.0634 2055.87,86.0634 2060.82,92.5333 2065.78,86.0634 2070.73,86.0634 2075.68,86.0634 2080.63,92.5333 2085.58,86.0634 2090.53,86.0634 2095.48,86.0634 
  2100.43,99.0032 2105.38,86.0634 2110.33,92.5333 2115.28,86.0634 2120.23,86.0634 2125.18,86.0634 2130.13,92.5333 2135.08,99.0032 2140.03,92.5333 2144.98,86.0634 
  2149.93,86.0634 2154.88,86.0634 2159.83,86.0634 2164.79,92.5333 2169.74,86.0634 2174.69,86.0634 2179.64,86.0634 2184.59,86.0634 2189.54,86.0634 2194.49,92.5333 
  2199.44,86.0634 2204.39,86.0634 2209.34,86.0634 2214.29,86.0634 2219.24,86.0634 2224.19,92.5333 2229.14,92.5333 2234.09,92.5333 2239.04,99.0032 2243.99,86.0634 
  2248.94,86.0634 2253.89,92.5333 2258.84,86.0634 2263.8,86.0634 2268.75,86.0634 2273.7,86.0634 2278.65,92.5333 2283.6,86.0634 2288.55,86.0634 2293.5,99.0032 
  
  "/>
<polyline clip-path="url(#clip162)" style="stroke:#ffa500; stroke-linecap:round; stroke-linejoin:round; stroke-width:4; stroke-opacity:1; fill:none" points="
  318.247,86.0634 323.197,92.5333 328.148,92.5333 333.098,86.0634 338.049,86.0634 342.999,92.5333 347.95,111.943 352.9,92.5333 357.851,105.473 362.801,92.5333 
  367.752,92.5333 372.702,86.0634 377.653,92.5333 382.603,99.0032 387.554,99.0032 392.504,92.5333 397.455,92.5333 402.405,86.0634 407.356,92.5333 412.306,86.0634 
  417.257,86.0634 422.207,99.0032 427.158,99.0032 432.108,111.943 437.059,92.5333 442.009,86.0634 446.96,86.0634 451.911,86.0634 456.861,99.0032 461.812,86.0634 
  466.762,111.943 471.713,86.0634 476.663,86.0634 481.614,86.0634 486.564,92.5333 491.515,92.5333 496.465,92.5333 501.416,92.5333 506.366,92.5333 511.317,99.0032 
  516.267,92.5333 521.218,86.0634 526.168,92.5333 531.119,92.5333 536.069,105.473 541.02,86.0634 545.97,86.0634 550.921,99.0032 555.871,92.5333 560.822,86.0634 
  565.772,86.0634 570.723,86.0634 575.673,99.0032 580.624,86.0634 585.574,86.0634 590.525,86.0634 595.475,92.5333 600.426,86.0634 605.376,92.5333 610.327,86.0634 
  615.277,92.5333 620.228,99.0032 625.178,92.5333 630.129,86.0634 635.079,86.0634 640.03,92.5333 644.98,99.0032 649.931,86.0634 654.881,99.0032 659.832,99.0032 
  664.782,118.413 669.733,99.0032 674.683,111.943 679.634,86.0634 684.584,99.0032 689.535,99.0032 694.485,92.5333 699.436,86.0634 704.386,92.5333 709.337,86.0634 
  714.287,86.0634 719.238,92.5333 724.188,92.5333 729.139,92.5333 734.089,105.473 739.04,99.0032 743.99,111.943 748.941,92.5333 753.891,118.413 758.842,92.5333 
  763.792,92.5333 768.743,92.5333 773.693,105.473 778.644,105.473 783.594,99.0032 788.545,99.0032 793.495,92.5333 798.446,92.5333 803.396,92.5333 808.347,86.0634 
  813.297,92.5333 818.248,111.943 823.198,105.473 828.149,111.943 833.099,86.0634 838.05,111.943 843,86.0634 847.951,92.5333 852.901,92.5333 857.852,86.0634 
  862.802,105.473 867.753,99.0032 872.703,99.0032 877.654,118.413 882.604,99.0032 887.555,92.5333 892.505,99.0032 897.456,86.0634 902.406,99.0032 907.357,105.473 
  912.307,92.5333 917.258,105.473 922.208,92.5333 927.159,92.5333 932.109,111.943 937.06,86.0634 942.01,99.0032 946.961,86.0634 951.912,92.5333 956.862,111.943 
  961.813,105.473 966.763,86.0634 971.714,86.0634 976.664,92.5333 981.615,105.473 986.565,92.5333 991.516,105.473 996.466,105.473 1001.42,99.0032 1006.37,99.0032 
  1011.32,105.473 1016.27,92.5333 1021.22,86.0634 1026.17,111.943 1031.12,105.473 1036.07,111.943 1041.02,105.473 1045.97,105.473 1050.92,86.0634 1055.87,92.5333 
  1060.82,99.0032 1065.77,99.0032 1070.72,105.473 1075.67,105.473 1080.62,92.5333 1085.58,105.473 1090.53,92.5333 1095.48,105.473 1100.43,86.0634 1105.38,99.0032 
  1110.33,99.0032 1115.28,111.943 1120.23,92.5333 1125.18,86.0634 1130.13,86.0634 1135.08,92.5333 1140.03,105.473 1144.98,92.5333 1149.93,105.473 1154.88,99.0032 
  1159.83,99.0032 1164.78,92.5333 1169.73,118.413 1174.68,99.0032 1179.63,92.5333 1184.59,105.473 1189.54,92.5333 1194.49,86.0634 1199.44,92.5333 1204.39,105.473 
  1209.34,92.5333 1214.29,105.473 1219.24,105.473 1224.19,86.0634 1229.14,99.0032 1234.09,92.5333 1239.04,92.5333 1243.99,92.5333 1248.94,92.5333 1253.89,111.943 
  1258.84,92.5333 1263.79,111.943 1268.74,99.0032 1273.69,111.943 1278.64,86.0634 1283.6,105.473 1288.55,92.5333 1293.5,105.473 1298.45,99.0032 1303.4,92.5333 
  1308.35,92.5333 1313.3,86.0634 1318.25,111.943 1323.2,92.5333 1328.15,92.5333 1333.1,92.5333 1338.05,111.943 1343,92.5333 1347.95,105.473 1352.9,105.473 
  1357.85,105.473 1362.8,86.0634 1367.75,105.473 1372.7,92.5333 1377.65,99.0032 1382.61,99.0032 1387.56,92.5333 1392.51,92.5333 1397.46,111.943 1402.41,105.473 
  1407.36,111.943 1412.31,99.0032 1417.26,99.0032 1422.21,99.0032 1427.16,99.0032 1432.11,92.5333 1437.06,99.0032 1442.01,86.0634 1446.96,105.473 1451.91,105.473 
  1456.86,105.473 1461.81,99.0032 1466.76,111.943 1471.71,118.413 1476.67,99.0032 1481.62,86.0634 1486.57,92.5333 1491.52,99.0032 1496.47,92.5333 1501.42,92.5333 
  1506.37,86.0634 1511.32,99.0032 1516.27,92.5333 1521.22,86.0634 1526.17,124.883 1531.12,92.5333 1536.07,124.883 1541.02,92.5333 1545.97,92.5333 1550.92,86.0634 
  1555.87,99.0032 1560.82,86.0634 1565.77,111.943 1570.72,99.0032 1575.68,92.5333 1580.63,92.5333 1585.58,105.473 1590.53,99.0032 1595.48,118.413 1600.43,92.5333 
  1605.38,124.883 1610.33,105.473 1615.28,99.0032 1620.23,111.943 1625.18,92.5333 1630.13,118.413 1635.08,99.0032 1640.03,118.413 1644.98,105.473 1649.93,99.0032 
  1654.88,111.943 1659.83,118.413 1664.78,124.883 1669.73,105.473 1674.69,105.473 1679.64,86.0634 1684.59,92.5333 1689.54,92.5333 1694.49,92.5333 1699.44,111.943 
  1704.39,86.0634 1709.34,105.473 1714.29,86.0634 1719.24,99.0032 1724.19,99.0032 1729.14,86.0634 1734.09,92.5333 1739.04,99.0032 1743.99,105.473 1748.94,105.473 
  1753.89,105.473 1758.84,99.0032 1763.79,86.0634 1768.74,105.473 1773.7,99.0032 1778.65,86.0634 1783.6,92.5333 1788.55,118.413 1793.5,99.0032 1798.45,92.5333 
  1803.4,92.5333 1808.35,92.5333 1813.3,99.0032 1818.25,99.0032 1823.2,92.5333 1828.15,99.0032 1833.1,92.5333 1838.05,92.5333 1843,111.943 1847.95,105.473 
  1852.9,92.5333 1857.85,99.0032 1862.8,118.413 1867.75,118.413 1872.71,92.5333 1877.66,105.473 1882.61,92.5333 1887.56,111.943 1892.51,99.0032 1897.46,99.0032 
  1902.41,105.473 1907.36,92.5333 1912.31,105.473 1917.26,99.0032 1922.21,86.0634 1927.16,92.5333 1932.11,105.473 1937.06,118.413 1942.01,105.473 1946.96,92.5333 
  1951.91,99.0032 1956.86,99.0032 1961.81,92.5333 1966.77,99.0032 1971.72,86.0634 1976.67,105.473 1981.62,105.473 1986.57,99.0032 1991.52,99.0032 1996.47,105.473 
  2001.42,99.0032 2006.37,105.473 2011.32,118.413 2016.27,111.943 2021.22,124.883 2026.17,111.943 2031.12,86.0634 2036.07,92.5333 2041.02,86.0634 2045.97,92.5333 
  2050.92,86.0634 2055.87,99.0032 2060.82,99.0032 2065.78,111.943 2070.73,92.5333 2075.68,111.943 2080.63,86.0634 2085.58,99.0032 2090.53,92.5333 2095.48,99.0032 
  2100.43,111.943 2105.38,118.413 2110.33,92.5333 2115.28,105.473 2120.23,99.0032 2125.18,92.5333 2130.13,105.473 2135.08,92.5333 2140.03,111.943 2144.98,92.5333 
  2149.93,105.473 2154.88,118.413 2159.83,99.0032 2164.79,99.0032 2169.74,92.5333 2174.69,111.943 2179.64,86.0634 2184.59,105.473 2189.54,92.5333 2194.49,105.473 
  2199.44,99.0032 2204.39,105.473 2209.34,105.473 2214.29,92.5333 2219.24,99.0032 2224.19,92.5333 2229.14,111.943 2234.09,99.0032 2239.04,99.0032 2243.99,105.473 
  2248.94,92.5333 2253.89,92.5333 2258.84,99.0032 2263.8,105.473 2268.75,92.5333 2273.7,92.5333 2278.65,86.0634 2283.6,92.5333 2288.55,92.5333 2293.5,99.0032 
  
  "/>
<path clip-path="url(#clip160)" d="
M1698.48 856.532 L2282.96 856.532 L2282.96 623.252 L1698.48 623.252  Z
  " fill="#ffffff" fill-rule="evenodd" fill-opacity="1"/>
<polyline clip-path="url(#clip160)" style="stroke:#000000; stroke-linecap:round; stroke-linejoin:round; stroke-width:4; stroke-opacity:1; fill:none" points="
  1698.48,856.532 2282.96,856.532 2282.96,623.252 1698.48,623.252 1698.48,856.532 
  "/>
<polyline clip-path="url(#clip160)" style="stroke:#009af9; stroke-linecap:round; stroke-linejoin:round; stroke-width:6; stroke-opacity:1; fill:none" points="
  1721.75,701.012 1861.33,701.012 
  "/>
<path clip-path="url(#clip160)" d="M1912.24 689.19 L1912.24 695.231 Q1909.53 693.842 1906.61 693.148 Q1903.69 692.454 1900.57 692.454 Q1895.81 692.454 1893.42 693.912 Q1891.06 695.37 1891.06 698.287 Q1891.06 700.509 1892.76 701.794 Q1894.46 703.044 1899.6 704.19 L1901.78 704.676 Q1908.59 706.134 1911.44 708.808 Q1914.32 711.446 1914.32 716.203 Q1914.32 721.62 1910.01 724.78 Q1905.74 727.939 1898.24 727.939 Q1895.12 727.939 1891.72 727.314 Q1888.35 726.724 1884.6 725.509 L1884.6 718.912 Q1888.14 720.752 1891.58 721.689 Q1895.01 722.592 1898.38 722.592 Q1902.9 722.592 1905.33 721.064 Q1907.76 719.502 1907.76 716.689 Q1907.76 714.085 1905.99 712.696 Q1904.25 711.308 1898.31 710.023 L1896.09 709.502 Q1890.15 708.252 1887.51 705.683 Q1884.88 703.078 1884.88 698.565 Q1884.88 693.079 1888.76 690.092 Q1892.65 687.106 1899.81 687.106 Q1903.35 687.106 1906.47 687.627 Q1909.6 688.148 1912.24 689.19 Z" fill="#000000" fill-rule="evenodd" fill-opacity="1" /><path clip-path="url(#clip160)" d="M1924.49 672.905 L1930.88 672.905 L1930.88 726.932 L1924.49 726.932 L1924.49 672.905 Z" fill="#000000" fill-rule="evenodd" fill-opacity="1" /><path clip-path="url(#clip160)" d="M1959.32 692.523 Q1954.18 692.523 1951.19 696.551 Q1948.21 700.544 1948.21 707.523 Q1948.21 714.502 1951.16 718.53 Q1954.15 722.523 1959.32 722.523 Q1964.42 722.523 1967.41 718.495 Q1970.4 714.467 1970.4 707.523 Q1970.4 700.613 1967.41 696.585 Q1964.42 692.523 1959.32 692.523 M1959.32 687.106 Q1967.65 687.106 1972.41 692.523 Q1977.17 697.94 1977.17 707.523 Q1977.17 717.071 1972.41 722.523 Q1967.65 727.939 1959.32 727.939 Q1950.95 727.939 1946.19 722.523 Q1941.47 717.071 1941.47 707.523 Q1941.47 697.94 1946.19 692.523 Q1950.95 687.106 1959.32 687.106 Z" fill="#000000" fill-rule="evenodd" fill-opacity="1" /><path clip-path="url(#clip160)" d="M1984.04 688.044 L1990.43 688.044 L1998.42 718.391 L2006.37 688.044 L2013.9 688.044 L2021.89 718.391 L2029.84 688.044 L2036.23 688.044 L2026.06 726.932 L2018.52 726.932 L2010.15 695.058 L2001.75 726.932 L1994.21 726.932 L1984.04 688.044 Z" fill="#000000" fill-rule="evenodd" fill-opacity="1" /><path clip-path="url(#clip160)" d="M2098.8 695.509 Q2101.19 691.204 2104.53 689.155 Q2107.86 687.106 2112.37 687.106 Q2118.45 687.106 2121.75 691.377 Q2125.05 695.613 2125.05 703.46 L2125.05 726.932 L2118.62 726.932 L2118.62 703.669 Q2118.62 698.078 2116.64 695.37 Q2114.67 692.662 2110.6 692.662 Q2105.64 692.662 2102.76 695.96 Q2099.87 699.259 2099.87 704.953 L2099.87 726.932 L2093.45 726.932 L2093.45 703.669 Q2093.45 698.044 2091.47 695.37 Q2089.49 692.662 2085.36 692.662 Q2080.46 692.662 2077.58 695.995 Q2074.7 699.294 2074.7 704.953 L2074.7 726.932 L2068.28 726.932 L2068.28 688.044 L2074.7 688.044 L2074.7 694.085 Q2076.89 690.509 2079.94 688.808 Q2083 687.106 2087.2 687.106 Q2091.44 687.106 2094.39 689.259 Q2097.37 691.412 2098.8 695.509 Z" fill="#000000" fill-rule="evenodd" fill-opacity="1" /><path clip-path="url(#clip160)" d="M2152.86 692.523 Q2147.72 692.523 2144.73 696.551 Q2141.75 700.544 2141.75 707.523 Q2141.75 714.502 2144.7 718.53 Q2147.69 722.523 2152.86 722.523 Q2157.96 722.523 2160.95 718.495 Q2163.94 714.467 2163.94 707.523 Q2163.94 700.613 2160.95 696.585 Q2157.96 692.523 2152.86 692.523 M2152.86 687.106 Q2161.19 687.106 2165.95 692.523 Q2170.71 697.94 2170.71 707.523 Q2170.71 717.071 2165.95 722.523 Q2161.19 727.939 2152.86 727.939 Q2144.49 727.939 2139.73 722.523 Q2135.01 717.071 2135.01 707.523 Q2135.01 697.94 2139.73 692.523 Q2144.49 687.106 2152.86 687.106 Z" fill="#000000" fill-rule="evenodd" fill-opacity="1" /><path clip-path="url(#clip160)" d="M2206.89 693.947 L2206.89 672.905 L2213.28 672.905 L2213.28 726.932 L2206.89 726.932 L2206.89 721.099 Q2204.87 724.571 2201.78 726.273 Q2198.73 727.939 2194.42 727.939 Q2187.37 727.939 2182.93 722.314 Q2178.52 716.689 2178.52 707.523 Q2178.52 698.356 2182.93 692.731 Q2187.37 687.106 2194.42 687.106 Q2198.73 687.106 2201.78 688.808 Q2204.87 690.474 2206.89 693.947 M2185.12 707.523 Q2185.12 714.571 2188 718.599 Q2190.92 722.592 2195.98 722.592 Q2201.05 722.592 2203.97 718.599 Q2206.89 714.571 2206.89 707.523 Q2206.89 700.474 2203.97 696.481 Q2201.05 692.454 2195.98 692.454 Q2190.92 692.454 2188 696.481 Q2185.12 700.474 2185.12 707.523 Z" fill="#000000" fill-rule="evenodd" fill-opacity="1" /><path clip-path="url(#clip160)" d="M2259.7 705.891 L2259.7 709.016 L2230.32 709.016 Q2230.74 715.613 2234.28 719.085 Q2237.86 722.523 2244.21 722.523 Q2247.89 722.523 2251.33 721.62 Q2254.8 720.717 2258.21 718.912 L2258.21 724.953 Q2254.77 726.412 2251.16 727.176 Q2247.55 727.939 2243.83 727.939 Q2234.53 727.939 2229.07 722.523 Q2223.66 717.106 2223.66 707.87 Q2223.66 698.322 2228.8 692.731 Q2233.97 687.106 2242.72 687.106 Q2250.57 687.106 2255.12 692.176 Q2259.7 697.21 2259.7 705.891 M2253.31 704.016 Q2253.24 698.773 2250.36 695.648 Q2247.51 692.523 2242.79 692.523 Q2237.44 692.523 2234.21 695.544 Q2231.02 698.565 2230.53 704.051 L2253.31 704.016 Z" fill="#000000" fill-rule="evenodd" fill-opacity="1" /><polyline clip-path="url(#clip160)" style="stroke:#ffa500; stroke-linecap:round; stroke-linejoin:round; stroke-width:6; stroke-opacity:1; fill:none" points="
  1721.75,778.772 1861.33,778.772 
  "/>
<path clip-path="url(#clip160)" d="M1909.35 750.665 L1909.35 755.977 L1903.24 755.977 Q1899.81 755.977 1898.45 757.366 Q1897.13 758.755 1897.13 762.366 L1897.13 765.804 L1907.65 765.804 L1907.65 770.769 L1897.13 770.769 L1897.13 804.692 L1890.71 804.692 L1890.71 770.769 L1884.6 770.769 L1884.6 765.804 L1890.71 765.804 L1890.71 763.095 Q1890.71 756.602 1893.73 753.651 Q1896.75 750.665 1903.31 750.665 L1909.35 750.665 Z" fill="#000000" fill-rule="evenodd" fill-opacity="1" /><path clip-path="url(#clip160)" d="M1932.37 785.144 Q1924.63 785.144 1921.65 786.915 Q1918.66 788.686 1918.66 792.956 Q1918.66 796.359 1920.88 798.373 Q1923.14 800.352 1926.99 800.352 Q1932.31 800.352 1935.5 796.602 Q1938.73 792.818 1938.73 786.568 L1938.73 785.144 L1932.37 785.144 M1945.12 782.505 L1945.12 804.692 L1938.73 804.692 L1938.73 798.79 Q1936.54 802.331 1933.28 804.033 Q1930.01 805.699 1925.29 805.699 Q1919.32 805.699 1915.78 802.366 Q1912.27 798.998 1912.27 793.373 Q1912.27 786.811 1916.65 783.477 Q1921.06 780.144 1929.77 780.144 L1938.73 780.144 L1938.73 779.519 Q1938.73 775.109 1935.81 772.713 Q1932.93 770.283 1927.69 770.283 Q1924.35 770.283 1921.19 771.082 Q1918.03 771.88 1915.12 773.477 L1915.12 767.575 Q1918.63 766.22 1921.92 765.561 Q1925.22 764.866 1928.35 764.866 Q1936.78 764.866 1940.95 769.241 Q1945.12 773.616 1945.12 782.505 Z" fill="#000000" fill-rule="evenodd" fill-opacity="1" /><path clip-path="url(#clip160)" d="M1983.07 766.95 L1983.07 772.991 Q1980.36 771.602 1977.44 770.908 Q1974.53 770.214 1971.4 770.214 Q1966.65 770.214 1964.25 771.672 Q1961.89 773.13 1961.89 776.047 Q1961.89 778.269 1963.59 779.554 Q1965.29 780.804 1970.43 781.95 L1972.62 782.436 Q1979.42 783.894 1982.27 786.568 Q1985.15 789.206 1985.15 793.963 Q1985.15 799.38 1980.85 802.54 Q1976.58 805.699 1969.08 805.699 Q1965.95 805.699 1962.55 805.074 Q1959.18 804.484 1955.43 803.269 L1955.43 796.672 Q1958.97 798.512 1962.41 799.449 Q1965.85 800.352 1969.22 800.352 Q1973.73 800.352 1976.16 798.824 Q1978.59 797.262 1978.59 794.449 Q1978.59 791.845 1976.82 790.456 Q1975.08 789.068 1969.15 787.783 L1966.92 787.262 Q1960.99 786.012 1958.35 783.443 Q1955.71 780.838 1955.71 776.325 Q1955.71 770.839 1959.6 767.852 Q1963.49 764.866 1970.64 764.866 Q1974.18 764.866 1977.31 765.387 Q1980.43 765.908 1983.07 766.95 Z" fill="#000000" fill-rule="evenodd" fill-opacity="1" /><path clip-path="url(#clip160)" d="M2001.65 754.762 L2001.65 765.804 L2014.81 765.804 L2014.81 770.769 L2001.65 770.769 L2001.65 791.88 Q2001.65 796.637 2002.93 797.991 Q2004.25 799.345 2008.24 799.345 L2014.81 799.345 L2014.81 804.692 L2008.24 804.692 Q2000.85 804.692 1998.03 801.949 Q1995.22 799.172 1995.22 791.88 L1995.22 770.769 L1990.53 770.769 L1990.53 765.804 L1995.22 765.804 L1995.22 754.762 L2001.65 754.762 Z" fill="#000000" fill-rule="evenodd" fill-opacity="1" /><path clip-path="url(#clip160)" d="M2076.09 773.269 Q2078.49 768.964 2081.82 766.915 Q2085.15 764.866 2089.67 764.866 Q2095.74 764.866 2099.04 769.137 Q2102.34 773.373 2102.34 781.22 L2102.34 804.692 L2095.92 804.692 L2095.92 781.429 Q2095.92 775.838 2093.94 773.13 Q2091.96 770.422 2087.89 770.422 Q2082.93 770.422 2080.05 773.72 Q2077.17 777.019 2077.17 782.713 L2077.17 804.692 L2070.74 804.692 L2070.74 781.429 Q2070.74 775.804 2068.76 773.13 Q2066.78 770.422 2062.65 770.422 Q2057.76 770.422 2054.87 773.755 Q2051.99 777.054 2051.99 782.713 L2051.99 804.692 L2045.57 804.692 L2045.57 765.804 L2051.99 765.804 L2051.99 771.845 Q2054.18 768.269 2057.24 766.568 Q2060.29 764.866 2064.49 764.866 Q2068.73 764.866 2071.68 767.019 Q2074.67 769.172 2076.09 773.269 Z" fill="#000000" fill-rule="evenodd" fill-opacity="1" /><path clip-path="url(#clip160)" d="M2130.15 770.283 Q2125.01 770.283 2122.03 774.311 Q2119.04 778.304 2119.04 785.283 Q2119.04 792.262 2121.99 796.29 Q2124.98 800.283 2130.15 800.283 Q2135.26 800.283 2138.24 796.255 Q2141.23 792.227 2141.23 785.283 Q2141.23 778.373 2138.24 774.345 Q2135.26 770.283 2130.15 770.283 M2130.15 764.866 Q2138.48 764.866 2143.24 770.283 Q2148 775.7 2148 785.283 Q2148 794.831 2143.24 800.283 Q2138.48 805.699 2130.15 805.699 Q2121.78 805.699 2117.03 800.283 Q2112.3 794.831 2112.3 785.283 Q2112.3 775.7 2117.03 770.283 Q2121.78 764.866 2130.15 764.866 Z" fill="#000000" fill-rule="evenodd" fill-opacity="1" /><path clip-path="url(#clip160)" d="M2184.18 771.707 L2184.18 750.665 L2190.57 750.665 L2190.57 804.692 L2184.18 804.692 L2184.18 798.859 Q2182.17 802.331 2179.08 804.033 Q2176.02 805.699 2171.71 805.699 Q2164.67 805.699 2160.22 800.074 Q2155.81 794.449 2155.81 785.283 Q2155.81 776.116 2160.22 770.491 Q2164.67 764.866 2171.71 764.866 Q2176.02 764.866 2179.08 766.568 Q2182.17 768.234 2184.18 771.707 M2162.41 785.283 Q2162.41 792.331 2165.29 796.359 Q2168.21 800.352 2173.28 800.352 Q2178.35 800.352 2181.26 796.359 Q2184.18 792.331 2184.18 785.283 Q2184.18 778.234 2181.26 774.241 Q2178.35 770.214 2173.28 770.214 Q2168.21 770.214 2165.29 774.241 Q2162.41 778.234 2162.41 785.283 Z" fill="#000000" fill-rule="evenodd" fill-opacity="1" /><path clip-path="url(#clip160)" d="M2236.99 783.651 L2236.99 786.776 L2207.62 786.776 Q2208.03 793.373 2211.57 796.845 Q2215.15 800.283 2221.51 800.283 Q2225.19 800.283 2228.62 799.38 Q2232.1 798.477 2235.5 796.672 L2235.5 802.713 Q2232.06 804.172 2228.45 804.936 Q2224.84 805.699 2221.12 805.699 Q2211.82 805.699 2206.37 800.283 Q2200.95 794.866 2200.95 785.63 Q2200.95 776.082 2206.09 770.491 Q2211.26 764.866 2220.01 764.866 Q2227.86 764.866 2232.41 769.936 Q2236.99 774.97 2236.99 783.651 M2230.6 781.776 Q2230.53 776.533 2227.65 773.408 Q2224.8 770.283 2220.08 770.283 Q2214.73 770.283 2211.51 773.304 Q2208.31 776.325 2207.82 781.811 L2230.6 781.776 Z" fill="#000000" fill-rule="evenodd" fill-opacity="1" /></svg>
