<?xml version="1.0" encoding="utf-8"?>
<svg xmlns="http://www.w3.org/2000/svg" xmlns:xlink="http://www.w3.org/1999/xlink" width="600" height="400" viewBox="0 0 2400 1600">
<defs>
  <clipPath id="clip410">
    <rect x="0" y="0" width="2400" height="1600"/>
  </clipPath>
</defs>
<path clip-path="url(#clip410)" d="
M0 1600 L2400 1600 L2400 0 L0 0  Z
  " fill="#ffffff" fill-rule="evenodd" fill-opacity="1"/>
<defs>
  <clipPath id="clip411">
    <rect x="480" y="0" width="1681" height="1600"/>
  </clipPath>
</defs>
<path clip-path="url(#clip410)" d="
M175.445 1410.9 L2352.76 1410.9 L2352.76 47.2441 L175.445 47.2441  Z
  " fill="#ffffff" fill-rule="evenodd" fill-opacity="1"/>
<defs>
  <clipPath id="clip412">
    <rect x="175" y="47" width="2178" height="1365"/>
  </clipPath>
</defs>
<polyline clip-path="url(#clip412)" style="stroke:#000000; stroke-linecap:round; stroke-linejoin:round; stroke-width:2; stroke-opacity:0.1; fill:none" points="
  223.282,1410.9 223.282,47.2441 
  "/>
<polyline clip-path="url(#clip412)" style="stroke:#000000; stroke-linecap:round; stroke-linejoin:round; stroke-width:2; stroke-opacity:0.1; fill:none" points="
  912.566,1410.9 912.566,47.2441 
  "/>
<polyline clip-path="url(#clip412)" style="stroke:#000000; stroke-linecap:round; stroke-linejoin:round; stroke-width:2; stroke-opacity:0.1; fill:none" points="
  1601.85,1410.9 1601.85,47.2441 
  "/>
<polyline clip-path="url(#clip412)" style="stroke:#000000; stroke-linecap:round; stroke-linejoin:round; stroke-width:2; stroke-opacity:0.1; fill:none" points="
  2291.13,1410.9 2291.13,47.2441 
  "/>
<polyline clip-path="url(#clip410)" style="stroke:#000000; stroke-linecap:round; stroke-linejoin:round; stroke-width:4; stroke-opacity:1; fill:none" points="
  175.445,1410.9 2352.76,1410.9 
  "/>
<polyline clip-path="url(#clip410)" style="stroke:#000000; stroke-linecap:round; stroke-linejoin:round; stroke-width:4; stroke-opacity:1; fill:none" points="
  223.282,1410.9 223.282,1392 
  "/>
<polyline clip-path="url(#clip410)" style="stroke:#000000; stroke-linecap:round; stroke-linejoin:round; stroke-width:4; stroke-opacity:1; fill:none" points="
  912.566,1410.9 912.566,1392 
  "/>
<polyline clip-path="url(#clip410)" style="stroke:#000000; stroke-linecap:round; stroke-linejoin:round; stroke-width:4; stroke-opacity:1; fill:none" points="
  1601.85,1410.9 1601.85,1392 
  "/>
<polyline clip-path="url(#clip410)" style="stroke:#000000; stroke-linecap:round; stroke-linejoin:round; stroke-width:4; stroke-opacity:1; fill:none" points="
  2291.13,1410.9 2291.13,1392 
  "/>
<path clip-path="url(#clip410)" d="M223.282 1441.82 Q219.67 1441.82 217.842 1445.38 Q216.036 1448.92 216.036 1456.05 Q216.036 1463.16 217.842 1466.72 Q219.67 1470.26 223.282 1470.26 Q226.916 1470.26 228.721 1466.72 Q230.55 1463.16 230.55 1456.05 Q230.55 1448.92 228.721 1445.38 Q226.916 1441.82 223.282 1441.82 M223.282 1438.11 Q229.092 1438.11 232.147 1442.72 Q235.226 1447.3 235.226 1456.05 Q235.226 1464.78 232.147 1469.38 Q229.092 1473.97 223.282 1473.97 Q217.471 1473.97 214.393 1469.38 Q211.337 1464.78 211.337 1456.05 Q211.337 1447.3 214.393 1442.72 Q217.471 1438.11 223.282 1438.11 Z" fill="#000000" fill-rule="evenodd" fill-opacity="1" /><path clip-path="url(#clip410)" d="M805.542 1454.4 L823.899 1454.4 L823.899 1458.33 L809.825 1458.33 L809.825 1466.8 Q810.843 1466.46 811.862 1466.29 Q812.88 1466.11 813.899 1466.11 Q819.686 1466.11 823.065 1469.28 Q826.445 1472.45 826.445 1477.87 Q826.445 1483.45 822.973 1486.55 Q819.5 1489.63 813.181 1489.63 Q811.005 1489.63 808.737 1489.26 Q806.491 1488.89 804.084 1488.15 L804.084 1483.45 Q806.167 1484.58 808.389 1485.14 Q810.612 1485.69 813.088 1485.69 Q817.093 1485.69 819.431 1483.59 Q821.769 1481.48 821.769 1477.87 Q821.769 1474.26 819.431 1472.15 Q817.093 1470.04 813.088 1470.04 Q811.213 1470.04 809.338 1470.46 Q807.487 1470.88 805.542 1471.76 L805.542 1454.4 Z" fill="#000000" fill-rule="evenodd" fill-opacity="1" /><path clip-path="url(#clip410)" d="M835.658 1483.08 L840.542 1483.08 L840.542 1488.96 L835.658 1488.96 L835.658 1483.08 Z" fill="#000000" fill-rule="evenodd" fill-opacity="1" /><path clip-path="url(#clip410)" d="M860.727 1457.48 Q857.116 1457.48 855.287 1461.04 Q853.482 1464.58 853.482 1471.71 Q853.482 1478.82 855.287 1482.38 Q857.116 1485.92 860.727 1485.92 Q864.361 1485.92 866.167 1482.38 Q867.996 1478.82 867.996 1471.71 Q867.996 1464.58 866.167 1461.04 Q864.361 1457.48 860.727 1457.48 M860.727 1453.77 Q866.537 1453.77 869.593 1458.38 Q872.671 1462.96 872.671 1471.71 Q872.671 1480.44 869.593 1485.04 Q866.537 1489.63 860.727 1489.63 Q854.917 1489.63 851.838 1485.04 Q848.783 1480.44 848.783 1471.71 Q848.783 1462.96 851.838 1458.38 Q854.917 1453.77 860.727 1453.77 Z" fill="#000000" fill-rule="evenodd" fill-opacity="1" /><path clip-path="url(#clip410)" d="M890.889 1457.48 Q887.278 1457.48 885.449 1461.04 Q883.644 1464.58 883.644 1471.71 Q883.644 1478.82 885.449 1482.38 Q887.278 1485.92 890.889 1485.92 Q894.523 1485.92 896.329 1482.38 Q898.157 1478.82 898.157 1471.71 Q898.157 1464.58 896.329 1461.04 Q894.523 1457.48 890.889 1457.48 M890.889 1453.77 Q896.699 1453.77 899.755 1458.38 Q902.833 1462.96 902.833 1471.71 Q902.833 1480.44 899.755 1485.04 Q896.699 1489.63 890.889 1489.63 Q885.079 1489.63 882 1485.04 Q878.945 1480.44 878.945 1471.71 Q878.945 1462.96 882 1458.38 Q885.079 1453.77 890.889 1453.77 Z" fill="#000000" fill-rule="evenodd" fill-opacity="1" /><path clip-path="url(#clip410)" d="M939.222 1463.49 L928.643 1474.12 L939.222 1484.7 L936.467 1487.5 L925.842 1476.87 L915.218 1487.5 L912.486 1484.7 L923.042 1474.12 L912.486 1463.49 L915.218 1460.69 L925.842 1471.32 L936.467 1460.69 L939.222 1463.49 Z" fill="#000000" fill-rule="evenodd" fill-opacity="1" /><path clip-path="url(#clip410)" d="M951.583 1485.02 L959.222 1485.02 L959.222 1458.66 L950.912 1460.32 L950.912 1456.06 L959.176 1454.4 L963.852 1454.4 L963.852 1485.02 L971.49 1485.02 L971.49 1488.96 L951.583 1488.96 L951.583 1485.02 Z" fill="#000000" fill-rule="evenodd" fill-opacity="1" /><path clip-path="url(#clip410)" d="M990.935 1457.48 Q987.324 1457.48 985.495 1461.04 Q983.689 1464.58 983.689 1471.71 Q983.689 1478.82 985.495 1482.38 Q987.324 1485.92 990.935 1485.92 Q994.569 1485.92 996.375 1482.38 Q998.203 1478.82 998.203 1471.71 Q998.203 1464.58 996.375 1461.04 Q994.569 1457.48 990.935 1457.48 M990.935 1453.77 Q996.745 1453.77 999.8 1458.38 Q1002.88 1462.96 1002.88 1471.71 Q1002.88 1480.44 999.8 1485.04 Q996.745 1489.63 990.935 1489.63 Q985.125 1489.63 982.046 1485.04 Q978.99 1480.44 978.99 1471.71 Q978.99 1462.96 982.046 1458.38 Q985.125 1453.77 990.935 1453.77 Z" fill="#000000" fill-rule="evenodd" fill-opacity="1" /><path clip-path="url(#clip410)" d="M1004.06 1433.47 L1018.98 1433.47 L1018.98 1436.66 L1007.54 1436.66 L1007.54 1443.55 Q1008.37 1443.27 1009.2 1443.13 Q1010.03 1442.98 1010.85 1442.98 Q1015.56 1442.98 1018.3 1445.56 Q1021.05 1448.14 1021.05 1452.54 Q1021.05 1457.07 1018.23 1459.59 Q1015.41 1462.09 1010.27 1462.09 Q1008.5 1462.09 1006.66 1461.79 Q1004.84 1461.49 1002.88 1460.89 L1002.88 1457.07 Q1004.57 1457.99 1006.38 1458.44 Q1008.18 1458.89 1010.2 1458.89 Q1013.45 1458.89 1015.35 1457.18 Q1017.25 1455.47 1017.25 1452.54 Q1017.25 1449.6 1015.35 1447.89 Q1013.45 1446.18 1010.2 1446.18 Q1008.67 1446.18 1007.15 1446.52 Q1005.64 1446.86 1004.06 1447.57 L1004.06 1433.47 Z" fill="#000000" fill-rule="evenodd" fill-opacity="1" /><path clip-path="url(#clip410)" d="M1494.2 1485.02 L1501.84 1485.02 L1501.84 1458.66 L1493.53 1460.32 L1493.53 1456.06 L1501.8 1454.4 L1506.47 1454.4 L1506.47 1485.02 L1514.11 1485.02 L1514.11 1488.96 L1494.2 1488.96 L1494.2 1485.02 Z" fill="#000000" fill-rule="evenodd" fill-opacity="1" /><path clip-path="url(#clip410)" d="M1523.56 1483.08 L1528.44 1483.08 L1528.44 1488.96 L1523.56 1488.96 L1523.56 1483.08 Z" fill="#000000" fill-rule="evenodd" fill-opacity="1" /><path clip-path="url(#clip410)" d="M1548.62 1457.48 Q1545.01 1457.48 1543.18 1461.04 Q1541.38 1464.58 1541.38 1471.71 Q1541.38 1478.82 1543.18 1482.38 Q1545.01 1485.92 1548.62 1485.92 Q1552.26 1485.92 1554.06 1482.38 Q1555.89 1478.82 1555.89 1471.71 Q1555.89 1464.58 1554.06 1461.04 Q1552.26 1457.48 1548.62 1457.48 M1548.62 1453.77 Q1554.43 1453.77 1557.49 1458.38 Q1560.57 1462.96 1560.57 1471.71 Q1560.57 1480.44 1557.49 1485.04 Q1554.43 1489.63 1548.62 1489.63 Q1542.81 1489.63 1539.74 1485.04 Q1536.68 1480.44 1536.68 1471.71 Q1536.68 1462.96 1539.74 1458.38 Q1542.81 1453.77 1548.62 1453.77 Z" fill="#000000" fill-rule="evenodd" fill-opacity="1" /><path clip-path="url(#clip410)" d="M1578.79 1457.48 Q1575.18 1457.48 1573.35 1461.04 Q1571.54 1464.58 1571.54 1471.71 Q1571.54 1478.82 1573.35 1482.38 Q1575.18 1485.92 1578.79 1485.92 Q1582.42 1485.92 1584.23 1482.38 Q1586.05 1478.82 1586.05 1471.71 Q1586.05 1464.58 1584.23 1461.04 Q1582.42 1457.48 1578.79 1457.48 M1578.79 1453.77 Q1584.6 1453.77 1587.65 1458.38 Q1590.73 1462.96 1590.73 1471.71 Q1590.73 1480.44 1587.65 1485.04 Q1584.6 1489.63 1578.79 1489.63 Q1572.98 1489.63 1569.9 1485.04 Q1566.84 1480.44 1566.84 1471.71 Q1566.84 1462.96 1569.9 1458.38 Q1572.98 1453.77 1578.79 1453.77 Z" fill="#000000" fill-rule="evenodd" fill-opacity="1" /><path clip-path="url(#clip410)" d="M1627.12 1463.49 L1616.54 1474.12 L1627.12 1484.7 L1624.36 1487.5 L1613.74 1476.87 L1603.11 1487.5 L1600.38 1484.7 L1610.94 1474.12 L1600.38 1463.49 L1603.11 1460.69 L1613.74 1471.32 L1624.36 1460.69 L1627.12 1463.49 Z" fill="#000000" fill-rule="evenodd" fill-opacity="1" /><path clip-path="url(#clip410)" d="M1639.48 1485.02 L1647.12 1485.02 L1647.12 1458.66 L1638.81 1460.32 L1638.81 1456.06 L1647.07 1454.4 L1651.75 1454.4 L1651.75 1485.02 L1659.39 1485.02 L1659.39 1488.96 L1639.48 1488.96 L1639.48 1485.02 Z" fill="#000000" fill-rule="evenodd" fill-opacity="1" /><path clip-path="url(#clip410)" d="M1678.83 1457.48 Q1675.22 1457.48 1673.39 1461.04 Q1671.59 1464.58 1671.59 1471.71 Q1671.59 1478.82 1673.39 1482.38 Q1675.22 1485.92 1678.83 1485.92 Q1682.47 1485.92 1684.27 1482.38 Q1686.1 1478.82 1686.1 1471.71 Q1686.1 1464.58 1684.27 1461.04 Q1682.47 1457.48 1678.83 1457.48 M1678.83 1453.77 Q1684.64 1453.77 1687.7 1458.38 Q1690.78 1462.96 1690.78 1471.71 Q1690.78 1480.44 1687.7 1485.04 Q1684.64 1489.63 1678.83 1489.63 Q1673.02 1489.63 1669.94 1485.04 Q1666.89 1480.44 1666.89 1471.71 Q1666.89 1462.96 1669.94 1458.38 Q1673.02 1453.77 1678.83 1453.77 Z" fill="#000000" fill-rule="evenodd" fill-opacity="1" /><path clip-path="url(#clip410)" d="M1700.8 1445.99 Q1698.24 1445.99 1696.74 1447.74 Q1695.25 1449.49 1695.25 1452.54 Q1695.25 1455.57 1696.74 1457.33 Q1698.24 1459.08 1700.8 1459.08 Q1703.36 1459.08 1704.84 1457.33 Q1706.35 1455.57 1706.35 1452.54 Q1706.35 1449.49 1704.84 1447.74 Q1703.36 1445.99 1700.8 1445.99 M1708.34 1434.09 L1708.34 1437.55 Q1706.91 1436.87 1705.45 1436.51 Q1704 1436.16 1702.57 1436.16 Q1698.81 1436.16 1696.81 1438.69 Q1694.84 1441.23 1694.56 1446.37 Q1695.67 1444.73 1697.34 1443.87 Q1699.01 1442.98 1701.03 1442.98 Q1705.26 1442.98 1707.7 1445.56 Q1710.17 1448.12 1710.17 1452.54 Q1710.17 1456.86 1707.61 1459.48 Q1705.05 1462.09 1700.8 1462.09 Q1695.93 1462.09 1693.35 1458.37 Q1690.78 1454.62 1690.78 1447.53 Q1690.78 1440.88 1693.94 1436.93 Q1697.1 1432.96 1702.42 1432.96 Q1703.85 1432.96 1705.3 1433.24 Q1706.76 1433.52 1708.34 1434.09 Z" fill="#000000" fill-rule="evenodd" fill-opacity="1" /><path clip-path="url(#clip410)" d="M2183.49 1485.02 L2191.13 1485.02 L2191.13 1458.66 L2182.82 1460.32 L2182.82 1456.06 L2191.08 1454.4 L2195.76 1454.4 L2195.76 1485.02 L2203.39 1485.02 L2203.39 1488.96 L2183.49 1488.96 L2183.49 1485.02 Z" fill="#000000" fill-rule="evenodd" fill-opacity="1" /><path clip-path="url(#clip410)" d="M2212.84 1483.08 L2217.72 1483.08 L2217.72 1488.96 L2212.84 1488.96 L2212.84 1483.08 Z" fill="#000000" fill-rule="evenodd" fill-opacity="1" /><path clip-path="url(#clip410)" d="M2227.95 1454.4 L2246.31 1454.4 L2246.31 1458.33 L2232.24 1458.33 L2232.24 1466.8 Q2233.26 1466.46 2234.27 1466.29 Q2235.29 1466.11 2236.31 1466.11 Q2242.1 1466.11 2245.48 1469.28 Q2248.86 1472.45 2248.86 1477.87 Q2248.86 1483.45 2245.39 1486.55 Q2241.91 1489.63 2235.59 1489.63 Q2233.42 1489.63 2231.15 1489.26 Q2228.9 1488.89 2226.5 1488.15 L2226.5 1483.45 Q2228.58 1484.58 2230.8 1485.14 Q2233.02 1485.69 2235.5 1485.69 Q2239.51 1485.69 2241.84 1483.59 Q2244.18 1481.48 2244.18 1477.87 Q2244.18 1474.26 2241.84 1472.15 Q2239.51 1470.04 2235.5 1470.04 Q2233.63 1470.04 2231.75 1470.46 Q2229.9 1470.88 2227.95 1471.76 L2227.95 1454.4 Z" fill="#000000" fill-rule="evenodd" fill-opacity="1" /><path clip-path="url(#clip410)" d="M2268.07 1457.48 Q2264.46 1457.48 2262.63 1461.04 Q2260.83 1464.58 2260.83 1471.71 Q2260.83 1478.82 2262.63 1482.38 Q2264.46 1485.92 2268.07 1485.92 Q2271.7 1485.92 2273.51 1482.38 Q2275.34 1478.82 2275.34 1471.71 Q2275.34 1464.58 2273.51 1461.04 Q2271.7 1457.48 2268.07 1457.48 M2268.07 1453.77 Q2273.88 1453.77 2276.94 1458.38 Q2280.01 1462.96 2280.01 1471.71 Q2280.01 1480.44 2276.94 1485.04 Q2273.88 1489.63 2268.07 1489.63 Q2262.26 1489.63 2259.18 1485.04 Q2256.13 1480.44 2256.13 1471.71 Q2256.13 1462.96 2259.18 1458.38 Q2262.26 1453.77 2268.07 1453.77 Z" fill="#000000" fill-rule="evenodd" fill-opacity="1" /><path clip-path="url(#clip410)" d="M2316.4 1463.49 L2305.82 1474.12 L2316.4 1484.7 L2313.65 1487.5 L2303.02 1476.87 L2292.4 1487.5 L2289.67 1484.7 L2300.22 1474.12 L2289.67 1463.49 L2292.4 1460.69 L2303.02 1471.32 L2313.65 1460.69 L2316.4 1463.49 Z" fill="#000000" fill-rule="evenodd" fill-opacity="1" /><path clip-path="url(#clip410)" d="M2328.76 1485.02 L2336.4 1485.02 L2336.4 1458.66 L2328.09 1460.32 L2328.09 1456.06 L2336.36 1454.4 L2341.03 1454.4 L2341.03 1485.02 L2348.67 1485.02 L2348.67 1488.96 L2328.76 1488.96 L2328.76 1485.02 Z" fill="#000000" fill-rule="evenodd" fill-opacity="1" /><path clip-path="url(#clip410)" d="M2368.12 1457.48 Q2364.51 1457.48 2362.68 1461.04 Q2360.87 1464.58 2360.87 1471.71 Q2360.87 1478.82 2362.68 1482.38 Q2364.51 1485.92 2368.12 1485.92 Q2371.75 1485.92 2373.56 1482.38 Q2375.38 1478.82 2375.38 1471.71 Q2375.38 1464.58 2373.56 1461.04 Q2371.75 1457.48 2368.12 1457.48 M2368.12 1453.77 Q2373.93 1453.77 2376.98 1458.38 Q2380.06 1462.96 2380.06 1471.71 Q2380.06 1480.44 2376.98 1485.04 Q2373.93 1489.63 2368.12 1489.63 Q2362.31 1489.63 2359.23 1485.04 Q2356.17 1480.44 2356.17 1471.71 Q2356.17 1462.96 2359.23 1458.38 Q2362.31 1453.77 2368.12 1453.77 Z" fill="#000000" fill-rule="evenodd" fill-opacity="1" /><path clip-path="url(#clip410)" d="M2390.09 1445.99 Q2387.53 1445.99 2386.02 1447.74 Q2384.54 1449.49 2384.54 1452.54 Q2384.54 1455.57 2386.02 1457.33 Q2387.53 1459.08 2390.09 1459.08 Q2392.64 1459.08 2394.13 1457.33 Q2395.63 1455.57 2395.63 1452.54 Q2395.63 1449.49 2394.13 1447.74 Q2392.64 1445.99 2390.09 1445.99 M2397.63 1434.09 L2397.63 1437.55 Q2396.2 1436.87 2394.73 1436.51 Q2393.28 1436.16 2391.85 1436.16 Q2388.09 1436.16 2386.1 1438.69 Q2384.12 1441.23 2383.84 1446.37 Q2384.95 1444.73 2386.62 1443.87 Q2388.3 1442.98 2390.31 1442.98 Q2394.54 1442.98 2396.99 1445.56 Q2399.45 1448.12 2399.45 1452.54 Q2399.45 1456.86 2396.89 1459.48 Q2394.34 1462.09 2390.09 1462.09 Q2385.21 1462.09 2382.64 1458.37 Q2380.06 1454.62 2380.06 1447.53 Q2380.06 1440.88 2383.22 1436.93 Q2386.38 1432.96 2391.7 1432.96 Q2393.13 1432.96 2394.58 1433.24 Q2396.05 1433.52 2397.63 1434.09 Z" fill="#000000" fill-rule="evenodd" fill-opacity="1" /><path clip-path="url(#clip410)" d="M1113.66 1526.67 L1120.09 1526.67 L1120.09 1574.19 L1113.66 1574.19 L1113.66 1526.67 Z" fill="#000000" fill-rule="evenodd" fill-opacity="1" /><path clip-path="url(#clip410)" d="M1138.43 1528.42 L1138.43 1538.54 L1150.49 1538.54 L1150.49 1543.09 L1138.43 1543.09 L1138.43 1562.44 Q1138.43 1566.8 1139.6 1568.04 Q1140.81 1569.28 1144.47 1569.28 L1150.49 1569.28 L1150.49 1574.19 L1144.47 1574.19 Q1137.69 1574.19 1135.12 1571.67 Q1132.54 1569.12 1132.54 1562.44 L1132.54 1543.09 L1128.24 1543.09 L1128.24 1538.54 L1132.54 1538.54 L1132.54 1528.42 L1138.43 1528.42 Z" fill="#000000" fill-rule="evenodd" fill-opacity="1" /><path clip-path="url(#clip410)" d="M1188.68 1554.9 L1188.68 1557.76 L1161.76 1557.76 Q1162.14 1563.81 1165.38 1566.99 Q1168.66 1570.14 1174.49 1570.14 Q1177.86 1570.14 1181.01 1569.32 Q1184.2 1568.49 1187.31 1566.83 L1187.31 1572.37 Q1184.16 1573.71 1180.85 1574.41 Q1177.54 1575.11 1174.14 1575.11 Q1165.61 1575.11 1160.61 1570.14 Q1155.64 1565.18 1155.64 1556.71 Q1155.64 1547.96 1160.36 1542.83 Q1165.1 1537.68 1173.12 1537.68 Q1180.31 1537.68 1184.48 1542.33 Q1188.68 1546.94 1188.68 1554.9 M1182.83 1553.18 Q1182.76 1548.37 1180.12 1545.51 Q1177.51 1542.64 1173.18 1542.64 Q1168.28 1542.64 1165.32 1545.41 Q1162.39 1548.18 1161.95 1553.21 L1182.83 1553.18 Z" fill="#000000" fill-rule="evenodd" fill-opacity="1" /><path clip-path="url(#clip410)" d="M1218.95 1544.01 Q1217.97 1543.44 1216.79 1543.18 Q1215.64 1542.9 1214.24 1542.9 Q1209.28 1542.9 1206.6 1546.14 Q1203.96 1549.36 1203.96 1555.41 L1203.96 1574.19 L1198.07 1574.19 L1198.07 1538.54 L1203.96 1538.54 L1203.96 1544.08 Q1205.81 1540.83 1208.77 1539.27 Q1211.73 1537.68 1215.96 1537.68 Q1216.56 1537.68 1217.3 1537.77 Q1218.03 1537.84 1218.92 1538 L1218.95 1544.01 Z" fill="#000000" fill-rule="evenodd" fill-opacity="1" /><path clip-path="url(#clip410)" d="M1241.3 1556.27 Q1234.2 1556.27 1231.46 1557.89 Q1228.72 1559.51 1228.72 1563.43 Q1228.72 1566.55 1230.76 1568.39 Q1232.83 1570.21 1236.36 1570.21 Q1241.23 1570.21 1244.16 1566.77 Q1247.12 1563.3 1247.12 1557.57 L1247.12 1556.27 L1241.3 1556.27 M1252.98 1553.85 L1252.98 1574.19 L1247.12 1574.19 L1247.12 1568.77 Q1245.11 1572.02 1242.12 1573.58 Q1239.13 1575.11 1234.8 1575.11 Q1229.33 1575.11 1226.08 1572.05 Q1222.87 1568.97 1222.87 1563.81 Q1222.87 1557.79 1226.88 1554.74 Q1230.92 1551.68 1238.91 1551.68 L1247.12 1551.68 L1247.12 1551.11 Q1247.12 1547.07 1244.45 1544.87 Q1241.8 1542.64 1237 1542.64 Q1233.94 1542.64 1231.05 1543.38 Q1228.15 1544.11 1225.48 1545.57 L1225.48 1540.16 Q1228.69 1538.92 1231.72 1538.31 Q1234.74 1537.68 1237.6 1537.68 Q1245.34 1537.68 1249.16 1541.69 Q1252.98 1545.7 1252.98 1553.85 Z" fill="#000000" fill-rule="evenodd" fill-opacity="1" /><path clip-path="url(#clip410)" d="M1270.83 1528.42 L1270.83 1538.54 L1282.9 1538.54 L1282.9 1543.09 L1270.83 1543.09 L1270.83 1562.44 Q1270.83 1566.8 1272.01 1568.04 Q1273.22 1569.28 1276.88 1569.28 L1282.9 1569.28 L1282.9 1574.19 L1276.88 1574.19 Q1270.1 1574.19 1267.52 1571.67 Q1264.94 1569.12 1264.94 1562.44 L1264.94 1543.09 L1260.65 1543.09 L1260.65 1538.54 L1264.94 1538.54 L1264.94 1528.42 L1270.83 1528.42 Z" fill="#000000" fill-rule="evenodd" fill-opacity="1" /><path clip-path="url(#clip410)" d="M1290.6 1538.54 L1296.45 1538.54 L1296.45 1574.19 L1290.6 1574.19 L1290.6 1538.54 M1290.6 1524.66 L1296.45 1524.66 L1296.45 1532.08 L1290.6 1532.08 L1290.6 1524.66 Z" fill="#000000" fill-rule="evenodd" fill-opacity="1" /><path clip-path="url(#clip410)" d="M1322.52 1542.64 Q1317.81 1542.64 1315.07 1546.34 Q1312.34 1550 1312.34 1556.39 Q1312.34 1562.79 1315.04 1566.48 Q1317.78 1570.14 1322.52 1570.14 Q1327.2 1570.14 1329.94 1566.45 Q1332.68 1562.76 1332.68 1556.39 Q1332.68 1550.06 1329.94 1546.37 Q1327.2 1542.64 1322.52 1542.64 M1322.52 1537.68 Q1330.16 1537.68 1334.52 1542.64 Q1338.88 1547.61 1338.88 1556.39 Q1338.88 1565.15 1334.52 1570.14 Q1330.16 1575.11 1322.52 1575.11 Q1314.85 1575.11 1310.49 1570.14 Q1306.16 1565.15 1306.16 1556.39 Q1306.16 1547.61 1310.49 1542.64 Q1314.85 1537.68 1322.52 1537.68 Z" fill="#000000" fill-rule="evenodd" fill-opacity="1" /><path clip-path="url(#clip410)" d="M1378.22 1552.67 L1378.22 1574.19 L1372.37 1574.19 L1372.37 1552.86 Q1372.37 1547.8 1370.39 1545.29 Q1368.42 1542.77 1364.47 1542.77 Q1359.73 1542.77 1356.99 1545.79 Q1354.25 1548.82 1354.25 1554.04 L1354.25 1574.19 L1348.37 1574.19 L1348.37 1538.54 L1354.25 1538.54 L1354.25 1544.08 Q1356.36 1540.86 1359.19 1539.27 Q1362.05 1537.68 1365.78 1537.68 Q1371.92 1537.68 1375.07 1541.5 Q1378.22 1545.29 1378.22 1552.67 Z" fill="#000000" fill-rule="evenodd" fill-opacity="1" /><path clip-path="url(#clip410)" d="M1412.63 1539.59 L1412.63 1545.13 Q1410.15 1543.85 1407.47 1543.22 Q1404.8 1542.58 1401.93 1542.58 Q1397.57 1542.58 1395.38 1543.92 Q1393.21 1545.25 1393.21 1547.93 Q1393.21 1549.96 1394.77 1551.14 Q1396.33 1552.29 1401.04 1553.34 L1403.05 1553.78 Q1409.29 1555.12 1411.9 1557.57 Q1414.54 1559.99 1414.54 1564.35 Q1414.54 1569.32 1410.59 1572.21 Q1406.68 1575.11 1399.8 1575.11 Q1396.94 1575.11 1393.82 1574.54 Q1390.73 1573.99 1387.29 1572.88 L1387.29 1566.83 Q1390.54 1568.52 1393.69 1569.38 Q1396.84 1570.21 1399.93 1570.21 Q1404.07 1570.21 1406.29 1568.81 Q1408.52 1567.37 1408.52 1564.8 Q1408.52 1562.41 1406.9 1561.14 Q1405.31 1559.86 1399.87 1558.68 L1397.83 1558.21 Q1392.39 1557.06 1389.97 1554.71 Q1387.55 1552.32 1387.55 1548.18 Q1387.55 1543.15 1391.11 1540.42 Q1394.68 1537.68 1401.23 1537.68 Q1404.48 1537.68 1407.34 1538.16 Q1410.21 1538.63 1412.63 1539.59 Z" fill="#000000" fill-rule="evenodd" fill-opacity="1" /><polyline clip-path="url(#clip412)" style="stroke:#000000; stroke-linecap:round; stroke-linejoin:round; stroke-width:2; stroke-opacity:0.1; fill:none" points="
  175.445,1297.26 2352.76,1297.26 
  "/>
<polyline clip-path="url(#clip412)" style="stroke:#000000; stroke-linecap:round; stroke-linejoin:round; stroke-width:2; stroke-opacity:0.1; fill:none" points="
  175.445,1069.98 2352.76,1069.98 
  "/>
<polyline clip-path="url(#clip412)" style="stroke:#000000; stroke-linecap:round; stroke-linejoin:round; stroke-width:2; stroke-opacity:0.1; fill:none" points="
  175.445,842.708 2352.76,842.708 
  "/>
<polyline clip-path="url(#clip412)" style="stroke:#000000; stroke-linecap:round; stroke-linejoin:round; stroke-width:2; stroke-opacity:0.1; fill:none" points="
  175.445,615.433 2352.76,615.433 
  "/>
<polyline clip-path="url(#clip412)" style="stroke:#000000; stroke-linecap:round; stroke-linejoin:round; stroke-width:2; stroke-opacity:0.1; fill:none" points="
  175.445,388.157 2352.76,388.157 
  "/>
<polyline clip-path="url(#clip412)" style="stroke:#000000; stroke-linecap:round; stroke-linejoin:round; stroke-width:2; stroke-opacity:0.1; fill:none" points="
  175.445,160.882 2352.76,160.882 
  "/>
<polyline clip-path="url(#clip410)" style="stroke:#000000; stroke-linecap:round; stroke-linejoin:round; stroke-width:4; stroke-opacity:1; fill:none" points="
  175.445,1410.9 175.445,47.2441 
  "/>
<polyline clip-path="url(#clip410)" style="stroke:#000000; stroke-linecap:round; stroke-linejoin:round; stroke-width:4; stroke-opacity:1; fill:none" points="
  175.445,1297.26 194.343,1297.26 
  "/>
<polyline clip-path="url(#clip410)" style="stroke:#000000; stroke-linecap:round; stroke-linejoin:round; stroke-width:4; stroke-opacity:1; fill:none" points="
  175.445,1069.98 194.343,1069.98 
  "/>
<polyline clip-path="url(#clip410)" style="stroke:#000000; stroke-linecap:round; stroke-linejoin:round; stroke-width:4; stroke-opacity:1; fill:none" points="
  175.445,842.708 194.343,842.708 
  "/>
<polyline clip-path="url(#clip410)" style="stroke:#000000; stroke-linecap:round; stroke-linejoin:round; stroke-width:4; stroke-opacity:1; fill:none" points="
  175.445,615.433 194.343,615.433 
  "/>
<polyline clip-path="url(#clip410)" style="stroke:#000000; stroke-linecap:round; stroke-linejoin:round; stroke-width:4; stroke-opacity:1; fill:none" points="
  175.445,388.157 194.343,388.157 
  "/>
<polyline clip-path="url(#clip410)" style="stroke:#000000; stroke-linecap:round; stroke-linejoin:round; stroke-width:4; stroke-opacity:1; fill:none" points="
  175.445,160.882 194.343,160.882 
  "/>
<path clip-path="url(#clip410)" d="M132.316 1295.9 Q135.672 1296.62 137.547 1298.89 Q139.445 1301.16 139.445 1304.49 Q139.445 1309.61 135.927 1312.41 Q132.408 1315.21 125.927 1315.21 Q123.751 1315.21 121.436 1314.77 Q119.144 1314.35 116.691 1313.5 L116.691 1308.98 Q118.635 1310.12 120.95 1310.7 Q123.265 1311.28 125.788 1311.28 Q130.186 1311.28 132.478 1309.54 Q134.792 1307.8 134.792 1304.49 Q134.792 1301.44 132.64 1299.72 Q130.51 1297.99 126.691 1297.99 L122.663 1297.99 L122.663 1294.15 L126.876 1294.15 Q130.325 1294.15 132.154 1292.78 Q133.982 1291.39 133.982 1288.8 Q133.982 1286.14 132.084 1284.72 Q130.209 1283.29 126.691 1283.29 Q124.769 1283.29 122.57 1283.71 Q120.371 1284.12 117.732 1285 L117.732 1280.84 Q120.394 1280.09 122.709 1279.72 Q125.047 1279.35 127.107 1279.35 Q132.431 1279.35 135.533 1281.78 Q138.635 1284.19 138.635 1288.31 Q138.635 1291.18 136.992 1293.17 Q135.348 1295.14 132.316 1295.9 Z" fill="#000000" fill-rule="evenodd" fill-opacity="1" /><path clip-path="url(#clip410)" d="M129.862 1056.78 L118.056 1075.23 L129.862 1075.23 L129.862 1056.78 M128.635 1052.7 L134.515 1052.7 L134.515 1075.23 L139.445 1075.23 L139.445 1079.12 L134.515 1079.12 L134.515 1087.26 L129.862 1087.26 L129.862 1079.12 L114.26 1079.12 L114.26 1074.6 L128.635 1052.7 Z" fill="#000000" fill-rule="evenodd" fill-opacity="1" /><path clip-path="url(#clip410)" d="M118.543 825.428 L136.899 825.428 L136.899 829.363 L122.825 829.363 L122.825 837.835 Q123.843 837.488 124.862 837.326 Q125.88 837.141 126.899 837.141 Q132.686 837.141 136.066 840.312 Q139.445 843.484 139.445 848.9 Q139.445 854.479 135.973 857.581 Q132.501 860.659 126.181 860.659 Q124.005 860.659 121.737 860.289 Q119.492 859.919 117.084 859.178 L117.084 854.479 Q119.168 855.613 121.39 856.169 Q123.612 856.724 126.089 856.724 Q130.093 856.724 132.431 854.618 Q134.769 852.511 134.769 848.9 Q134.769 845.289 132.431 843.183 Q130.093 841.076 126.089 841.076 Q124.214 841.076 122.339 841.493 Q120.487 841.909 118.543 842.789 L118.543 825.428 Z" fill="#000000" fill-rule="evenodd" fill-opacity="1" /><path clip-path="url(#clip410)" d="M127.917 613.569 Q124.769 613.569 122.918 615.722 Q121.089 617.875 121.089 621.625 Q121.089 625.352 122.918 627.527 Q124.769 629.68 127.917 629.68 Q131.066 629.68 132.894 627.527 Q134.746 625.352 134.746 621.625 Q134.746 617.875 132.894 615.722 Q131.066 613.569 127.917 613.569 M137.2 598.917 L137.2 603.176 Q135.441 602.342 133.635 601.903 Q131.853 601.463 130.093 601.463 Q125.464 601.463 123.01 604.588 Q120.58 607.713 120.232 614.032 Q121.598 612.018 123.658 610.954 Q125.718 609.866 128.195 609.866 Q133.404 609.866 136.413 613.037 Q139.445 616.185 139.445 621.625 Q139.445 626.949 136.297 630.166 Q133.149 633.384 127.917 633.384 Q121.922 633.384 118.751 628.801 Q115.58 624.194 115.58 615.467 Q115.58 607.273 119.468 602.412 Q123.357 597.528 129.908 597.528 Q131.667 597.528 133.45 597.875 Q135.255 598.222 137.2 598.917 Z" fill="#000000" fill-rule="evenodd" fill-opacity="1" /><path clip-path="url(#clip410)" d="M117.223 370.877 L139.445 370.877 L139.445 372.868 L126.899 405.437 L122.015 405.437 L133.82 374.812 L117.223 374.812 L117.223 370.877 Z" fill="#000000" fill-rule="evenodd" fill-opacity="1" /><path clip-path="url(#clip410)" d="M127.593 161.75 Q124.26 161.75 122.339 163.532 Q120.441 165.315 120.441 168.44 Q120.441 171.565 122.339 173.347 Q124.26 175.129 127.593 175.129 Q130.927 175.129 132.848 173.347 Q134.769 171.541 134.769 168.44 Q134.769 165.315 132.848 163.532 Q130.95 161.75 127.593 161.75 M122.918 159.759 Q119.908 159.018 118.218 156.958 Q116.552 154.898 116.552 151.935 Q116.552 147.792 119.492 145.384 Q122.455 142.977 127.593 142.977 Q132.755 142.977 135.695 145.384 Q138.635 147.792 138.635 151.935 Q138.635 154.898 136.945 156.958 Q135.279 159.018 132.292 159.759 Q135.672 160.546 137.547 162.838 Q139.445 165.129 139.445 168.44 Q139.445 173.463 136.367 176.148 Q133.311 178.833 127.593 178.833 Q121.876 178.833 118.797 176.148 Q115.742 173.463 115.742 168.44 Q115.742 165.129 117.64 162.838 Q119.538 160.546 122.918 159.759 M121.205 152.375 Q121.205 155.06 122.871 156.565 Q124.561 158.069 127.593 158.069 Q130.603 158.069 132.292 156.565 Q134.005 155.06 134.005 152.375 Q134.005 149.69 132.292 148.185 Q130.603 146.68 127.593 146.68 Q124.561 146.68 122.871 148.185 Q121.205 149.69 121.205 152.375 Z" fill="#000000" fill-rule="evenodd" fill-opacity="1" /><path clip-path="url(#clip410)" d="M22.818 1126.31 L46.4666 1135.03 L46.4666 1117.55 L22.818 1126.31 M16.4842 1129.93 L16.4842 1122.65 L64.0042 1104.54 L64.0042 1111.22 L51.8138 1115.55 L51.8138 1136.97 L64.0042 1141.3 L64.0042 1148.08 L16.4842 1129.93 Z" fill="#000000" fill-rule="evenodd" fill-opacity="1" /><path clip-path="url(#clip410)" d="M28.3562 1105.87 L28.3562 1099.67 L58.275 1088.53 L28.3562 1077.39 L28.3562 1071.18 L64.0042 1084.55 L64.0042 1092.5 L28.3562 1105.87 Z" fill="#000000" fill-rule="evenodd" fill-opacity="1" /><path clip-path="url(#clip410)" d="M44.7161 1032.6 L47.5806 1032.6 L47.5806 1059.53 Q53.6281 1059.15 56.8109 1055.9 Q59.9619 1052.62 59.9619 1046.8 Q59.9619 1043.42 59.1344 1040.27 Q58.3069 1037.09 56.6518 1033.97 L62.1899 1033.97 Q63.5267 1037.12 64.227 1040.43 Q64.9272 1043.74 64.9272 1047.15 Q64.9272 1055.68 59.9619 1060.68 Q54.9967 1065.64 46.5303 1065.64 Q37.7774 1065.64 32.6531 1060.93 Q27.4968 1056.19 27.4968 1048.17 Q27.4968 1040.97 32.1438 1036.8 Q36.7589 1032.6 44.7161 1032.6 M42.9973 1038.46 Q38.1912 1038.52 35.3266 1041.17 Q32.4621 1043.77 32.4621 1048.1 Q32.4621 1053.01 35.2312 1055.97 Q38.0002 1058.89 43.0292 1059.34 L42.9973 1038.46 Z" fill="#000000" fill-rule="evenodd" fill-opacity="1" /><path clip-path="url(#clip410)" d="M33.8307 1002.33 Q33.2578 1003.32 33.0032 1004.5 Q32.7167 1005.64 32.7167 1007.04 Q32.7167 1012.01 35.9632 1014.68 Q39.1779 1017.33 45.2253 1017.33 L64.0042 1017.33 L64.0042 1023.21 L28.3562 1023.21 L28.3562 1017.33 L33.8944 1017.33 Q30.6479 1015.48 29.0883 1012.52 Q27.4968 1009.56 27.4968 1005.33 Q27.4968 1004.72 27.5923 1003.99 Q27.656 1003.26 27.8151 1002.37 L33.8307 1002.33 Z" fill="#000000" fill-rule="evenodd" fill-opacity="1" /><path clip-path="url(#clip410)" d="M46.0847 979.991 Q46.0847 987.088 47.7079 989.826 Q49.3312 992.563 53.2461 992.563 Q56.3653 992.563 58.2114 990.526 Q60.0256 988.457 60.0256 984.924 Q60.0256 980.054 56.5881 977.126 Q53.1188 974.166 47.3897 974.166 L46.0847 974.166 L46.0847 979.991 M43.6657 968.31 L64.0042 968.31 L64.0042 974.166 L58.5933 974.166 Q61.8398 976.171 63.3994 979.163 Q64.9272 982.155 64.9272 986.484 Q64.9272 991.958 61.8716 995.205 Q58.7843 998.419 53.6281 998.419 Q47.6125 998.419 44.5569 994.409 Q41.5014 990.367 41.5014 982.378 L41.5014 974.166 L40.9285 974.166 Q36.8862 974.166 34.6901 976.84 Q32.4621 979.481 32.4621 984.287 Q32.4621 987.343 33.1941 990.239 Q33.9262 993.136 35.3903 995.809 L29.9795 995.809 Q28.7381 992.595 28.1334 989.571 Q27.4968 986.547 27.4968 983.683 Q27.4968 975.948 31.5072 972.129 Q35.5176 968.31 43.6657 968.31 Z" fill="#000000" fill-rule="evenodd" fill-opacity="1" /><path clip-path="url(#clip410)" d="M45.7664 932.789 Q39.4007 932.789 35.8996 935.431 Q32.3984 938.041 32.3984 942.783 Q32.3984 947.494 35.8996 950.135 Q39.4007 952.745 45.7664 952.745 Q52.1003 952.745 55.6014 950.135 Q59.1026 947.494 59.1026 942.783 Q59.1026 938.041 55.6014 935.431 Q52.1003 932.789 45.7664 932.789 M59.58 926.932 Q68.683 926.932 73.1071 930.975 Q77.5631 935.017 77.5631 943.356 Q77.5631 946.443 77.0857 949.181 Q76.6401 951.918 75.6852 954.496 L69.9879 954.496 Q71.3884 951.918 72.0568 949.403 Q72.7252 946.889 72.7252 944.279 Q72.7252 938.518 69.7015 935.653 Q66.7096 932.789 60.6303 932.789 L57.7339 932.789 Q60.885 934.603 62.4446 937.436 Q64.0042 940.269 64.0042 944.215 Q64.0042 950.772 59.0071 954.782 Q54.01 958.793 45.7664 958.793 Q37.491 958.793 32.4939 954.782 Q27.4968 950.772 27.4968 944.215 Q27.4968 940.269 29.0564 937.436 Q30.616 934.603 33.7671 932.789 L28.3562 932.789 L28.3562 926.932 L59.58 926.932 Z" fill="#000000" fill-rule="evenodd" fill-opacity="1" /><path clip-path="url(#clip410)" d="M44.7161 884.378 L47.5806 884.378 L47.5806 911.305 Q53.6281 910.923 56.8109 907.676 Q59.9619 904.398 59.9619 898.573 Q59.9619 895.199 59.1344 892.048 Q58.3069 888.866 56.6518 885.746 L62.1899 885.746 Q63.5267 888.897 64.227 892.208 Q64.9272 895.518 64.9272 898.923 Q64.9272 907.453 59.9619 912.45 Q54.9967 917.416 46.5303 917.416 Q37.7774 917.416 32.6531 912.705 Q27.4968 907.963 27.4968 899.942 Q27.4968 892.749 32.1438 888.579 Q36.7589 884.378 44.7161 884.378 M42.9973 890.234 Q38.1912 890.298 35.3266 892.94 Q32.4621 895.55 32.4621 899.878 Q32.4621 904.78 35.2312 907.74 Q38.0002 910.668 43.0292 911.114 L42.9973 890.234 Z" fill="#000000" fill-rule="evenodd" fill-opacity="1" /><path clip-path="url(#clip410)" d="M20.1444 818.206 L26.9239 818.206 Q23.9002 821.453 22.4043 825.145 Q20.9083 828.805 20.9083 832.943 Q20.9083 841.091 25.9054 845.42 Q30.8707 849.748 40.2919 849.748 Q49.6813 849.748 54.6784 845.42 Q59.6436 841.091 59.6436 832.943 Q59.6436 828.805 58.1477 825.145 Q56.6518 821.453 53.6281 818.206 L60.3439 818.206 Q62.6355 821.58 63.7814 825.368 Q64.9272 829.123 64.9272 833.325 Q64.9272 844.115 58.3387 850.321 Q51.7183 856.528 40.2919 856.528 Q28.8336 856.528 22.2451 850.321 Q15.6248 844.115 15.6248 833.325 Q15.6248 829.06 16.7706 825.304 Q17.8846 821.516 20.1444 818.206 Z" fill="#000000" fill-rule="evenodd" fill-opacity="1" /><path clip-path="url(#clip410)" d="M32.4621 794.717 Q32.4621 799.427 36.1542 802.165 Q39.8145 804.902 46.212 804.902 Q52.6095 804.902 56.3017 802.196 Q59.9619 799.459 59.9619 794.717 Q59.9619 790.038 56.2698 787.301 Q52.5777 784.563 46.212 784.563 Q39.8781 784.563 36.186 787.301 Q32.4621 790.038 32.4621 794.717 M27.4968 794.717 Q27.4968 787.078 32.4621 782.717 Q37.4273 778.357 46.212 778.357 Q54.9649 778.357 59.9619 782.717 Q64.9272 787.078 64.9272 794.717 Q64.9272 802.387 59.9619 806.748 Q54.9649 811.077 46.212 811.077 Q37.4273 811.077 32.4621 806.748 Q27.4968 802.387 27.4968 794.717 Z" fill="#000000" fill-rule="evenodd" fill-opacity="1" /><path clip-path="url(#clip410)" d="M35.1993 740.895 Q31.2526 738.698 29.3747 735.643 Q27.4968 732.587 27.4968 728.45 Q27.4968 722.88 31.4117 719.856 Q35.2948 716.832 42.4881 716.832 L64.0042 716.832 L64.0042 722.721 L42.679 722.721 Q37.5546 722.721 35.072 724.535 Q32.5894 726.349 32.5894 730.073 Q32.5894 734.624 35.6131 737.266 Q38.6368 739.908 43.8567 739.908 L64.0042 739.908 L64.0042 745.796 L42.679 745.796 Q37.5228 745.796 35.072 747.61 Q32.5894 749.425 32.5894 753.212 Q32.5894 757.7 35.6449 760.342 Q38.6686 762.984 43.8567 762.984 L64.0042 762.984 L64.0042 768.872 L28.3562 768.872 L28.3562 762.984 L33.8944 762.984 Q30.616 760.978 29.0564 758.178 Q27.4968 755.377 27.4968 751.525 Q27.4968 747.642 29.4702 744.937 Q31.4436 742.2 35.1993 740.895 Z" fill="#000000" fill-rule="evenodd" fill-opacity="1" /><path clip-path="url(#clip410)" d="M58.657 699.486 L77.5631 699.486 L77.5631 705.374 L28.3562 705.374 L28.3562 699.486 L33.7671 699.486 Q30.5842 697.64 29.0564 694.839 Q27.4968 692.006 27.4968 688.091 Q27.4968 681.598 32.6531 677.556 Q37.8093 673.482 46.212 673.482 Q54.6147 673.482 59.771 677.556 Q64.9272 681.598 64.9272 688.091 Q64.9272 692.006 63.3994 694.839 Q61.8398 697.64 58.657 699.486 M46.212 679.561 Q39.7508 679.561 36.0905 682.235 Q32.3984 684.876 32.3984 689.523 Q32.3984 694.17 36.0905 696.844 Q39.7508 699.486 46.212 699.486 Q52.6732 699.486 56.3653 696.844 Q60.0256 694.17 60.0256 689.523 Q60.0256 684.876 56.3653 682.235 Q52.6732 679.561 46.212 679.561 Z" fill="#000000" fill-rule="evenodd" fill-opacity="1" /><path clip-path="url(#clip410)" d="M14.479 663.774 L14.479 657.918 L64.0042 657.918 L64.0042 663.774 L14.479 663.774 Z" fill="#000000" fill-rule="evenodd" fill-opacity="1" /><path clip-path="url(#clip410)" d="M44.7161 615.172 L47.5806 615.172 L47.5806 642.099 Q53.6281 641.717 56.8109 638.47 Q59.9619 635.192 59.9619 629.367 Q59.9619 625.994 59.1344 622.843 Q58.3069 619.66 56.6518 616.541 L62.1899 616.541 Q63.5267 619.692 64.227 623.002 Q64.9272 626.312 64.9272 629.718 Q64.9272 638.248 59.9619 643.245 Q54.9967 648.21 46.5303 648.21 Q37.7774 648.21 32.6531 643.499 Q27.4968 638.757 27.4968 630.736 Q27.4968 623.543 32.1438 619.373 Q36.7589 615.172 44.7161 615.172 M42.9973 621.028 Q38.1912 621.092 35.3266 623.734 Q32.4621 626.344 32.4621 630.672 Q32.4621 635.574 35.2312 638.534 Q38.0002 641.462 43.0292 641.908 L42.9973 621.028 Z" fill="#000000" fill-rule="evenodd" fill-opacity="1" /><path clip-path="url(#clip410)" d="M18.2347 599.767 L28.3562 599.767 L28.3562 587.704 L32.9077 587.704 L32.9077 599.767 L52.2594 599.767 Q56.6199 599.767 57.8613 598.589 Q59.1026 597.38 59.1026 593.72 L59.1026 587.704 L64.0042 587.704 L64.0042 593.72 Q64.0042 600.499 61.4897 603.077 Q58.9434 605.655 52.2594 605.655 L32.9077 605.655 L32.9077 609.952 L28.3562 609.952 L28.3562 605.655 L18.2347 605.655 L18.2347 599.767 Z" fill="#000000" fill-rule="evenodd" fill-opacity="1" /><path clip-path="url(#clip410)" d="M28.3562 580.001 L28.3562 574.145 L64.0042 574.145 L64.0042 580.001 L28.3562 580.001 M14.479 580.001 L14.479 574.145 L21.895 574.145 L21.895 580.001 L14.479 580.001 Z" fill="#000000" fill-rule="evenodd" fill-opacity="1" /><path clip-path="url(#clip410)" d="M32.4621 548.077 Q32.4621 552.788 36.1542 555.525 Q39.8145 558.263 46.212 558.263 Q52.6095 558.263 56.3017 555.557 Q59.9619 552.82 59.9619 548.077 Q59.9619 543.399 56.2698 540.661 Q52.5777 537.924 46.212 537.924 Q39.8781 537.924 36.186 540.661 Q32.4621 543.399 32.4621 548.077 M27.4968 548.077 Q27.4968 540.439 32.4621 536.078 Q37.4273 531.718 46.212 531.718 Q54.9649 531.718 59.9619 536.078 Q64.9272 540.439 64.9272 548.077 Q64.9272 555.748 59.9619 560.109 Q54.9649 564.437 46.212 564.437 Q37.4273 564.437 32.4621 560.109 Q27.4968 555.748 27.4968 548.077 Z" fill="#000000" fill-rule="evenodd" fill-opacity="1" /><path clip-path="url(#clip410)" d="M42.4881 492.377 L64.0042 492.377 L64.0042 498.234 L42.679 498.234 Q37.6183 498.234 35.1038 500.207 Q32.5894 502.181 32.5894 506.127 Q32.5894 510.87 35.6131 513.607 Q38.6368 516.344 43.8567 516.344 L64.0042 516.344 L64.0042 522.233 L28.3562 522.233 L28.3562 516.344 L33.8944 516.344 Q30.6797 514.244 29.0883 511.411 Q27.4968 508.546 27.4968 504.822 Q27.4968 498.68 31.3163 495.529 Q35.1038 492.377 42.4881 492.377 Z" fill="#000000" fill-rule="evenodd" fill-opacity="1" /><path clip-path="url(#clip410)" d="M16.4842 466.31 L16.4842 426.11 L21.895 426.11 L21.895 442.98 L64.0042 442.98 L64.0042 449.441 L21.895 449.441 L21.895 466.31 L16.4842 466.31 Z" fill="#000000" fill-rule="evenodd" fill-opacity="1" /><path clip-path="url(#clip410)" d="M28.3562 422.164 L28.3562 416.307 L64.0042 416.307 L64.0042 422.164 L28.3562 422.164 M14.479 422.164 L14.479 416.307 L21.895 416.307 L21.895 422.164 L14.479 422.164 Z" fill="#000000" fill-rule="evenodd" fill-opacity="1" /><path clip-path="url(#clip410)" d="M35.1993 376.299 Q31.2526 374.103 29.3747 371.047 Q27.4968 367.992 27.4968 363.854 Q27.4968 358.284 31.4117 355.26 Q35.2948 352.236 42.4881 352.236 L64.0042 352.236 L64.0042 358.125 L42.679 358.125 Q37.5546 358.125 35.072 359.939 Q32.5894 361.753 32.5894 365.477 Q32.5894 370.029 35.6131 372.67 Q38.6368 375.312 43.8567 375.312 L64.0042 375.312 L64.0042 381.2 L42.679 381.2 Q37.5228 381.2 35.072 383.015 Q32.5894 384.829 32.5894 388.616 Q32.5894 393.104 35.6449 395.746 Q38.6686 398.388 43.8567 398.388 L64.0042 398.388 L64.0042 404.276 L28.3562 404.276 L28.3562 398.388 L33.8944 398.388 Q30.616 396.383 29.0564 393.582 Q27.4968 390.781 27.4968 386.93 Q27.4968 383.046 29.4702 380.341 Q31.4436 377.604 35.1993 376.299 Z" fill="#000000" fill-rule="evenodd" fill-opacity="1" /><path clip-path="url(#clip410)" d="M44.7161 310.064 L47.5806 310.064 L47.5806 336.991 Q53.6281 336.609 56.8109 333.362 Q59.9619 330.084 59.9619 324.259 Q59.9619 320.885 59.1344 317.734 Q58.3069 314.551 56.6518 311.432 L62.1899 311.432 Q63.5267 314.583 64.227 317.893 Q64.9272 321.204 64.9272 324.609 Q64.9272 333.139 59.9619 338.136 Q54.9967 343.102 46.5303 343.102 Q37.7774 343.102 32.6531 338.391 Q27.4968 333.649 27.4968 325.628 Q27.4968 318.435 32.1438 314.265 Q36.7589 310.064 44.7161 310.064 M42.9973 315.92 Q38.1912 315.984 35.3266 318.626 Q32.4621 321.235 32.4621 325.564 Q32.4621 330.466 35.2312 333.426 Q38.0002 336.354 43.0292 336.8 L42.9973 315.92 Z" fill="#000000" fill-rule="evenodd" fill-opacity="1" /><polyline clip-path="url(#clip412)" style="stroke:#009af9; stroke-linecap:round; stroke-linejoin:round; stroke-width:4; stroke-opacity:1; fill:none" points="
  237.067,542.675 250.853,806.627 264.639,890.156 278.424,967.769 292.21,984.996 305.996,1046.07 319.781,1029.31 333.567,1030.27 347.353,1039.25 361.138,998.625 
  374.924,966.952 388.71,1100.86 402.495,1128.89 416.281,1119.23 430.067,1091.38 443.852,1033.04 457.638,1079.37 471.424,1089.06 485.209,1120.46 498.995,1144.08 
  512.781,1127.48 526.567,1135.82 540.352,1123.82 554.138,1166.6 567.924,1151.95 581.709,1161.88 595.495,1130.62 609.281,1172.82 623.066,1191.8 636.852,1138.69 
  650.638,1154.95 664.423,1154.39 678.209,1184.41 691.995,1133.36 705.78,1107.34 719.566,1148.99 733.352,1110.85 747.137,1205.97 760.923,1181.9 774.709,1144.62 
  788.495,1196.93 802.28,1173.63 816.066,1178.68 829.852,1203.9 843.637,1219.79 857.423,1210.92 871.209,1235.47 884.994,1223.13 898.78,1202.71 912.566,1186.42 
  926.351,1191.16 940.137,1230.03 953.923,1191.74 967.708,1192.17 981.494,1200 995.28,1229.67 1009.07,1232.08 1022.85,1209.09 1036.64,1205.09 1050.42,1232.79 
  1064.21,1208.46 1077.99,1202.7 1091.78,1212.83 1105.57,1212.51 1119.35,1231.48 1133.14,1221.03 1146.92,1179.71 1160.71,1199.19 1174.49,1212.83 1188.28,1234.38 
  1202.06,1201.44 1215.85,1217.04 1229.64,1212.42 1243.42,1188.08 1257.21,1204.47 1270.99,1194.21 1284.78,1188.87 1298.56,1212.18 1312.35,1186.26 1326.14,1176.55 
  1339.92,1213.56 1353.71,1236.06 1367.49,1245.42 1381.28,1210.25 1395.06,1217.47 1408.85,1214.45 1422.64,1211.97 1436.42,1220.94 1450.21,1209.5 1463.99,1221.28 
  1477.78,1182.74 1491.56,1171.28 1505.35,1156.12 1519.14,1194.27 1532.92,1141.5 1546.71,1137.67 1560.49,1178.09 1574.28,1229.05 1588.06,1258.14 1601.85,1239.52 
  1615.64,1217.4 1629.42,1197.31 1643.21,1196.8 1656.99,1232.51 1670.78,1204.23 1684.56,1245.61 1698.35,1199.42 1712.14,1216.68 1725.92,1209.56 1739.71,1176.65 
  1753.49,1243.06 1767.28,1224.65 1781.06,1215.5 1794.85,1166.75 1808.64,1226.21 1822.42,1196.94 1836.21,1247.96 1849.99,1286.78 1863.78,1225.1 1877.56,1231.24 
  1891.35,1267.19 1905.13,1211.33 1918.92,1213.93 1932.71,1242.43 1946.49,1229.71 1960.28,1273.21 1974.06,1260.92 1987.85,1215.03 2001.63,1226.87 2015.42,1204.7 
  2029.21,1209.02 2042.99,1222.11 2056.78,1189.27 2070.56,1213.3 2084.35,1243.51 2098.13,1251.63 2111.92,1238.09 2125.71,1268.05 2139.49,1208.82 2153.28,1273.93 
  2167.06,1277.88 2180.85,1311 2194.63,1236.15 2208.42,1217.74 2222.21,1237.43 2235.99,1269.22 2249.78,1259.93 2263.56,1269.19 2277.35,1265.53 2291.13,1235.26 
  
  "/>
</svg>
