<?xml version="1.0" encoding="utf-8"?>
<svg xmlns="http://www.w3.org/2000/svg" xmlns:xlink="http://www.w3.org/1999/xlink" width="600" height="400" viewBox="0 0 2400 1600">
<defs>
  <clipPath id="clip330">
    <rect x="0" y="0" width="2400" height="1600"/>
  </clipPath>
</defs>
<path clip-path="url(#clip330)" d="
M0 1600 L2400 1600 L2400 0 L0 0  Z
  " fill="#ffffff" fill-rule="evenodd" fill-opacity="1"/>
<defs>
  <clipPath id="clip331">
    <rect x="480" y="0" width="1681" height="1600"/>
  </clipPath>
</defs>
<path clip-path="url(#clip330)" d="
M175.445 1410.9 L2352.76 1410.9 L2352.76 47.2441 L175.445 47.2441  Z
  " fill="#ffffff" fill-rule="evenodd" fill-opacity="1"/>
<defs>
  <clipPath id="clip332">
    <rect x="175" y="47" width="2178" height="1365"/>
  </clipPath>
</defs>
<polyline clip-path="url(#clip332)" style="stroke:#000000; stroke-linecap:round; stroke-linejoin:round; stroke-width:2; stroke-opacity:0.1; fill:none" points="
  223.282,1410.9 223.282,47.2441 
  "/>
<polyline clip-path="url(#clip332)" style="stroke:#000000; stroke-linecap:round; stroke-linejoin:round; stroke-width:2; stroke-opacity:0.1; fill:none" points="
  912.566,1410.9 912.566,47.2441 
  "/>
<polyline clip-path="url(#clip332)" style="stroke:#000000; stroke-linecap:round; stroke-linejoin:round; stroke-width:2; stroke-opacity:0.1; fill:none" points="
  1601.85,1410.9 1601.85,47.2441 
  "/>
<polyline clip-path="url(#clip332)" style="stroke:#000000; stroke-linecap:round; stroke-linejoin:round; stroke-width:2; stroke-opacity:0.1; fill:none" points="
  2291.13,1410.9 2291.13,47.2441 
  "/>
<polyline clip-path="url(#clip330)" style="stroke:#000000; stroke-linecap:round; stroke-linejoin:round; stroke-width:4; stroke-opacity:1; fill:none" points="
  175.445,1410.9 2352.76,1410.9 
  "/>
<polyline clip-path="url(#clip330)" style="stroke:#000000; stroke-linecap:round; stroke-linejoin:round; stroke-width:4; stroke-opacity:1; fill:none" points="
  223.282,1410.9 223.282,1392 
  "/>
<polyline clip-path="url(#clip330)" style="stroke:#000000; stroke-linecap:round; stroke-linejoin:round; stroke-width:4; stroke-opacity:1; fill:none" points="
  912.566,1410.9 912.566,1392 
  "/>
<polyline clip-path="url(#clip330)" style="stroke:#000000; stroke-linecap:round; stroke-linejoin:round; stroke-width:4; stroke-opacity:1; fill:none" points="
  1601.85,1410.9 1601.85,1392 
  "/>
<polyline clip-path="url(#clip330)" style="stroke:#000000; stroke-linecap:round; stroke-linejoin:round; stroke-width:4; stroke-opacity:1; fill:none" points="
  2291.13,1410.9 2291.13,1392 
  "/>
<path clip-path="url(#clip330)" d="M223.282 1441.82 Q219.67 1441.82 217.842 1445.38 Q216.036 1448.92 216.036 1456.05 Q216.036 1463.16 217.842 1466.72 Q219.67 1470.26 223.282 1470.26 Q226.916 1470.26 228.721 1466.72 Q230.55 1463.16 230.55 1456.05 Q230.55 1448.92 228.721 1445.38 Q226.916 1441.82 223.282 1441.82 M223.282 1438.11 Q229.092 1438.11 232.147 1442.72 Q235.226 1447.3 235.226 1456.05 Q235.226 1464.78 232.147 1469.38 Q229.092 1473.97 223.282 1473.97 Q217.471 1473.97 214.393 1469.38 Q211.337 1464.78 211.337 1456.05 Q211.337 1447.3 214.393 1442.72 Q217.471 1438.11 223.282 1438.11 Z" fill="#000000" fill-rule="evenodd" fill-opacity="1" /><path clip-path="url(#clip330)" d="M805.542 1454.4 L823.899 1454.4 L823.899 1458.33 L809.825 1458.33 L809.825 1466.8 Q810.843 1466.46 811.862 1466.29 Q812.88 1466.11 813.899 1466.11 Q819.686 1466.11 823.065 1469.28 Q826.445 1472.45 826.445 1477.87 Q826.445 1483.45 822.973 1486.55 Q819.5 1489.63 813.181 1489.63 Q811.005 1489.63 808.737 1489.26 Q806.491 1488.89 804.084 1488.15 L804.084 1483.45 Q806.167 1484.58 808.389 1485.14 Q810.612 1485.69 813.088 1485.69 Q817.093 1485.69 819.431 1483.59 Q821.769 1481.48 821.769 1477.87 Q821.769 1474.26 819.431 1472.15 Q817.093 1470.04 813.088 1470.04 Q811.213 1470.04 809.338 1470.46 Q807.487 1470.88 805.542 1471.76 L805.542 1454.4 Z" fill="#000000" fill-rule="evenodd" fill-opacity="1" /><path clip-path="url(#clip330)" d="M835.658 1483.08 L840.542 1483.08 L840.542 1488.96 L835.658 1488.96 L835.658 1483.08 Z" fill="#000000" fill-rule="evenodd" fill-opacity="1" /><path clip-path="url(#clip330)" d="M860.727 1457.48 Q857.116 1457.48 855.287 1461.04 Q853.482 1464.58 853.482 1471.71 Q853.482 1478.82 855.287 1482.38 Q857.116 1485.92 860.727 1485.92 Q864.361 1485.92 866.167 1482.38 Q867.996 1478.82 867.996 1471.71 Q867.996 1464.58 866.167 1461.04 Q864.361 1457.48 860.727 1457.48 M860.727 1453.77 Q866.537 1453.77 869.593 1458.38 Q872.671 1462.96 872.671 1471.71 Q872.671 1480.44 869.593 1485.04 Q866.537 1489.63 860.727 1489.63 Q854.917 1489.63 851.838 1485.04 Q848.783 1480.44 848.783 1471.71 Q848.783 1462.96 851.838 1458.38 Q854.917 1453.77 860.727 1453.77 Z" fill="#000000" fill-rule="evenodd" fill-opacity="1" /><path clip-path="url(#clip330)" d="M890.889 1457.48 Q887.278 1457.48 885.449 1461.04 Q883.644 1464.58 883.644 1471.71 Q883.644 1478.82 885.449 1482.38 Q887.278 1485.92 890.889 1485.92 Q894.523 1485.92 896.329 1482.38 Q898.157 1478.82 898.157 1471.71 Q898.157 1464.58 896.329 1461.04 Q894.523 1457.48 890.889 1457.48 M890.889 1453.77 Q896.699 1453.77 899.755 1458.38 Q902.833 1462.96 902.833 1471.71 Q902.833 1480.44 899.755 1485.04 Q896.699 1489.63 890.889 1489.63 Q885.079 1489.63 882 1485.04 Q878.945 1480.44 878.945 1471.71 Q878.945 1462.96 882 1458.38 Q885.079 1453.77 890.889 1453.77 Z" fill="#000000" fill-rule="evenodd" fill-opacity="1" /><path clip-path="url(#clip330)" d="M939.222 1463.49 L928.643 1474.12 L939.222 1484.7 L936.467 1487.5 L925.842 1476.87 L915.218 1487.5 L912.486 1484.7 L923.042 1474.12 L912.486 1463.49 L915.218 1460.69 L925.842 1471.32 L936.467 1460.69 L939.222 1463.49 Z" fill="#000000" fill-rule="evenodd" fill-opacity="1" /><path clip-path="url(#clip330)" d="M951.583 1485.02 L959.222 1485.02 L959.222 1458.66 L950.912 1460.32 L950.912 1456.06 L959.176 1454.4 L963.852 1454.4 L963.852 1485.02 L971.49 1485.02 L971.49 1488.96 L951.583 1488.96 L951.583 1485.02 Z" fill="#000000" fill-rule="evenodd" fill-opacity="1" /><path clip-path="url(#clip330)" d="M990.935 1457.48 Q987.324 1457.48 985.495 1461.04 Q983.689 1464.58 983.689 1471.71 Q983.689 1478.82 985.495 1482.38 Q987.324 1485.92 990.935 1485.92 Q994.569 1485.92 996.375 1482.38 Q998.203 1478.82 998.203 1471.71 Q998.203 1464.58 996.375 1461.04 Q994.569 1457.48 990.935 1457.48 M990.935 1453.77 Q996.745 1453.77 999.8 1458.38 Q1002.88 1462.96 1002.88 1471.71 Q1002.88 1480.44 999.8 1485.04 Q996.745 1489.63 990.935 1489.63 Q985.125 1489.63 982.046 1485.04 Q978.99 1480.44 978.99 1471.71 Q978.99 1462.96 982.046 1458.38 Q985.125 1453.77 990.935 1453.77 Z" fill="#000000" fill-rule="evenodd" fill-opacity="1" /><path clip-path="url(#clip330)" d="M1004.06 1433.47 L1018.98 1433.47 L1018.98 1436.66 L1007.54 1436.66 L1007.54 1443.55 Q1008.37 1443.27 1009.2 1443.13 Q1010.03 1442.98 1010.85 1442.98 Q1015.56 1442.98 1018.3 1445.56 Q1021.05 1448.14 1021.05 1452.54 Q1021.05 1457.07 1018.23 1459.59 Q1015.41 1462.09 1010.27 1462.09 Q1008.5 1462.09 1006.66 1461.79 Q1004.84 1461.49 1002.88 1460.89 L1002.88 1457.07 Q1004.57 1457.99 1006.38 1458.44 Q1008.18 1458.89 1010.2 1458.89 Q1013.45 1458.89 1015.35 1457.18 Q1017.25 1455.47 1017.25 1452.54 Q1017.25 1449.6 1015.35 1447.89 Q1013.45 1446.18 1010.2 1446.18 Q1008.67 1446.18 1007.15 1446.52 Q1005.64 1446.86 1004.06 1447.57 L1004.06 1433.47 Z" fill="#000000" fill-rule="evenodd" fill-opacity="1" /><path clip-path="url(#clip330)" d="M1494.2 1485.02 L1501.84 1485.02 L1501.84 1458.66 L1493.53 1460.32 L1493.53 1456.06 L1501.8 1454.4 L1506.47 1454.4 L1506.47 1485.02 L1514.11 1485.02 L1514.11 1488.96 L1494.2 1488.96 L1494.2 1485.02 Z" fill="#000000" fill-rule="evenodd" fill-opacity="1" /><path clip-path="url(#clip330)" d="M1523.56 1483.08 L1528.44 1483.08 L1528.44 1488.96 L1523.56 1488.96 L1523.56 1483.08 Z" fill="#000000" fill-rule="evenodd" fill-opacity="1" /><path clip-path="url(#clip330)" d="M1548.62 1457.48 Q1545.01 1457.48 1543.18 1461.04 Q1541.38 1464.58 1541.38 1471.71 Q1541.38 1478.82 1543.18 1482.38 Q1545.01 1485.92 1548.62 1485.92 Q1552.26 1485.92 1554.06 1482.38 Q1555.89 1478.82 1555.89 1471.71 Q1555.89 1464.58 1554.06 1461.04 Q1552.26 1457.48 1548.62 1457.48 M1548.62 1453.77 Q1554.43 1453.77 1557.49 1458.38 Q1560.57 1462.96 1560.57 1471.71 Q1560.57 1480.44 1557.49 1485.04 Q1554.43 1489.63 1548.62 1489.63 Q1542.81 1489.63 1539.74 1485.04 Q1536.68 1480.44 1536.68 1471.71 Q1536.68 1462.96 1539.74 1458.38 Q1542.81 1453.77 1548.62 1453.77 Z" fill="#000000" fill-rule="evenodd" fill-opacity="1" /><path clip-path="url(#clip330)" d="M1578.79 1457.48 Q1575.18 1457.48 1573.35 1461.04 Q1571.54 1464.58 1571.54 1471.71 Q1571.54 1478.82 1573.35 1482.38 Q1575.18 1485.92 1578.79 1485.92 Q1582.42 1485.92 1584.23 1482.38 Q1586.05 1478.82 1586.05 1471.71 Q1586.05 1464.58 1584.23 1461.04 Q1582.42 1457.48 1578.79 1457.48 M1578.79 1453.77 Q1584.6 1453.77 1587.65 1458.38 Q1590.73 1462.96 1590.73 1471.71 Q1590.73 1480.44 1587.65 1485.04 Q1584.6 1489.63 1578.79 1489.63 Q1572.98 1489.63 1569.9 1485.04 Q1566.84 1480.44 1566.84 1471.71 Q1566.84 1462.96 1569.9 1458.38 Q1572.98 1453.77 1578.79 1453.77 Z" fill="#000000" fill-rule="evenodd" fill-opacity="1" /><path clip-path="url(#clip330)" d="M1627.12 1463.49 L1616.54 1474.12 L1627.12 1484.7 L1624.36 1487.5 L1613.74 1476.87 L1603.11 1487.5 L1600.38 1484.7 L1610.94 1474.12 L1600.38 1463.49 L1603.11 1460.69 L1613.74 1471.32 L1624.36 1460.69 L1627.12 1463.49 Z" fill="#000000" fill-rule="evenodd" fill-opacity="1" /><path clip-path="url(#clip330)" d="M1639.48 1485.02 L1647.12 1485.02 L1647.12 1458.66 L1638.81 1460.32 L1638.81 1456.06 L1647.07 1454.4 L1651.75 1454.4 L1651.75 1485.02 L1659.39 1485.02 L1659.39 1488.96 L1639.48 1488.96 L1639.48 1485.02 Z" fill="#000000" fill-rule="evenodd" fill-opacity="1" /><path clip-path="url(#clip330)" d="M1678.83 1457.48 Q1675.22 1457.48 1673.39 1461.04 Q1671.59 1464.58 1671.59 1471.71 Q1671.59 1478.82 1673.39 1482.38 Q1675.22 1485.92 1678.83 1485.92 Q1682.47 1485.92 1684.27 1482.38 Q1686.1 1478.82 1686.1 1471.71 Q1686.1 1464.58 1684.27 1461.04 Q1682.47 1457.48 1678.83 1457.48 M1678.83 1453.77 Q1684.64 1453.77 1687.7 1458.38 Q1690.78 1462.96 1690.78 1471.71 Q1690.78 1480.44 1687.7 1485.04 Q1684.64 1489.63 1678.83 1489.63 Q1673.02 1489.63 1669.94 1485.04 Q1666.89 1480.44 1666.89 1471.71 Q1666.89 1462.96 1669.94 1458.38 Q1673.02 1453.77 1678.83 1453.77 Z" fill="#000000" fill-rule="evenodd" fill-opacity="1" /><path clip-path="url(#clip330)" d="M1700.8 1445.99 Q1698.24 1445.99 1696.74 1447.74 Q1695.25 1449.49 1695.25 1452.54 Q1695.25 1455.57 1696.74 1457.33 Q1698.24 1459.08 1700.8 1459.08 Q1703.36 1459.08 1704.84 1457.33 Q1706.35 1455.57 1706.35 1452.54 Q1706.35 1449.49 1704.84 1447.74 Q1703.36 1445.99 1700.8 1445.99 M1708.34 1434.09 L1708.34 1437.55 Q1706.91 1436.87 1705.45 1436.51 Q1704 1436.16 1702.57 1436.16 Q1698.81 1436.16 1696.81 1438.69 Q1694.84 1441.23 1694.56 1446.37 Q1695.67 1444.73 1697.34 1443.87 Q1699.01 1442.98 1701.03 1442.98 Q1705.26 1442.98 1707.7 1445.56 Q1710.17 1448.12 1710.17 1452.54 Q1710.17 1456.86 1707.61 1459.48 Q1705.05 1462.09 1700.8 1462.09 Q1695.93 1462.09 1693.35 1458.37 Q1690.78 1454.62 1690.78 1447.53 Q1690.78 1440.88 1693.94 1436.93 Q1697.1 1432.96 1702.42 1432.96 Q1703.85 1432.96 1705.3 1433.24 Q1706.76 1433.52 1708.34 1434.09 Z" fill="#000000" fill-rule="evenodd" fill-opacity="1" /><path clip-path="url(#clip330)" d="M2183.49 1485.02 L2191.13 1485.02 L2191.13 1458.66 L2182.82 1460.32 L2182.82 1456.06 L2191.08 1454.4 L2195.76 1454.4 L2195.76 1485.02 L2203.39 1485.02 L2203.39 1488.96 L2183.49 1488.96 L2183.49 1485.02 Z" fill="#000000" fill-rule="evenodd" fill-opacity="1" /><path clip-path="url(#clip330)" d="M2212.84 1483.08 L2217.72 1483.08 L2217.72 1488.96 L2212.84 1488.96 L2212.84 1483.08 Z" fill="#000000" fill-rule="evenodd" fill-opacity="1" /><path clip-path="url(#clip330)" d="M2227.95 1454.4 L2246.31 1454.4 L2246.31 1458.33 L2232.24 1458.33 L2232.24 1466.8 Q2233.26 1466.46 2234.27 1466.29 Q2235.29 1466.11 2236.31 1466.11 Q2242.1 1466.11 2245.48 1469.28 Q2248.86 1472.45 2248.86 1477.87 Q2248.86 1483.45 2245.39 1486.55 Q2241.91 1489.63 2235.59 1489.63 Q2233.42 1489.63 2231.15 1489.26 Q2228.9 1488.89 2226.5 1488.15 L2226.5 1483.45 Q2228.58 1484.58 2230.8 1485.14 Q2233.02 1485.69 2235.5 1485.69 Q2239.51 1485.69 2241.84 1483.59 Q2244.18 1481.48 2244.18 1477.87 Q2244.18 1474.26 2241.84 1472.15 Q2239.51 1470.04 2235.5 1470.04 Q2233.63 1470.04 2231.75 1470.46 Q2229.9 1470.88 2227.95 1471.76 L2227.95 1454.4 Z" fill="#000000" fill-rule="evenodd" fill-opacity="1" /><path clip-path="url(#clip330)" d="M2268.07 1457.48 Q2264.46 1457.48 2262.63 1461.04 Q2260.83 1464.58 2260.83 1471.71 Q2260.83 1478.82 2262.63 1482.38 Q2264.46 1485.92 2268.07 1485.92 Q2271.7 1485.92 2273.51 1482.38 Q2275.34 1478.82 2275.34 1471.71 Q2275.34 1464.58 2273.51 1461.04 Q2271.7 1457.48 2268.07 1457.48 M2268.07 1453.77 Q2273.88 1453.77 2276.94 1458.38 Q2280.01 1462.96 2280.01 1471.71 Q2280.01 1480.44 2276.94 1485.04 Q2273.88 1489.63 2268.07 1489.63 Q2262.26 1489.63 2259.18 1485.04 Q2256.13 1480.44 2256.13 1471.71 Q2256.13 1462.96 2259.18 1458.38 Q2262.26 1453.77 2268.07 1453.77 Z" fill="#000000" fill-rule="evenodd" fill-opacity="1" /><path clip-path="url(#clip330)" d="M2316.4 1463.49 L2305.82 1474.12 L2316.4 1484.7 L2313.65 1487.5 L2303.02 1476.87 L2292.4 1487.5 L2289.67 1484.7 L2300.22 1474.12 L2289.67 1463.49 L2292.4 1460.69 L2303.02 1471.32 L2313.65 1460.69 L2316.4 1463.49 Z" fill="#000000" fill-rule="evenodd" fill-opacity="1" /><path clip-path="url(#clip330)" d="M2328.76 1485.02 L2336.4 1485.02 L2336.4 1458.66 L2328.09 1460.32 L2328.09 1456.06 L2336.36 1454.4 L2341.03 1454.4 L2341.03 1485.02 L2348.67 1485.02 L2348.67 1488.96 L2328.76 1488.96 L2328.76 1485.02 Z" fill="#000000" fill-rule="evenodd" fill-opacity="1" /><path clip-path="url(#clip330)" d="M2368.12 1457.48 Q2364.51 1457.48 2362.68 1461.04 Q2360.87 1464.58 2360.87 1471.71 Q2360.87 1478.82 2362.68 1482.38 Q2364.51 1485.92 2368.12 1485.92 Q2371.75 1485.92 2373.56 1482.38 Q2375.38 1478.82 2375.38 1471.71 Q2375.38 1464.58 2373.56 1461.04 Q2371.75 1457.48 2368.12 1457.48 M2368.12 1453.77 Q2373.93 1453.77 2376.98 1458.38 Q2380.06 1462.96 2380.06 1471.71 Q2380.06 1480.44 2376.98 1485.04 Q2373.93 1489.63 2368.12 1489.63 Q2362.31 1489.63 2359.23 1485.04 Q2356.17 1480.44 2356.17 1471.71 Q2356.17 1462.96 2359.23 1458.38 Q2362.31 1453.77 2368.12 1453.77 Z" fill="#000000" fill-rule="evenodd" fill-opacity="1" /><path clip-path="url(#clip330)" d="M2390.09 1445.99 Q2387.53 1445.99 2386.02 1447.74 Q2384.54 1449.49 2384.54 1452.54 Q2384.54 1455.57 2386.02 1457.33 Q2387.53 1459.08 2390.09 1459.08 Q2392.64 1459.08 2394.13 1457.33 Q2395.63 1455.57 2395.63 1452.54 Q2395.63 1449.49 2394.13 1447.74 Q2392.64 1445.99 2390.09 1445.99 M2397.63 1434.09 L2397.63 1437.55 Q2396.2 1436.87 2394.73 1436.51 Q2393.28 1436.16 2391.85 1436.16 Q2388.09 1436.16 2386.1 1438.69 Q2384.12 1441.23 2383.84 1446.37 Q2384.95 1444.73 2386.62 1443.87 Q2388.3 1442.98 2390.31 1442.98 Q2394.54 1442.98 2396.99 1445.56 Q2399.45 1448.12 2399.45 1452.54 Q2399.45 1456.86 2396.89 1459.48 Q2394.34 1462.09 2390.09 1462.09 Q2385.21 1462.09 2382.64 1458.37 Q2380.06 1454.62 2380.06 1447.53 Q2380.06 1440.88 2383.22 1436.93 Q2386.38 1432.96 2391.7 1432.96 Q2393.13 1432.96 2394.58 1433.24 Q2396.05 1433.52 2397.63 1434.09 Z" fill="#000000" fill-rule="evenodd" fill-opacity="1" /><path clip-path="url(#clip330)" d="M1113.66 1526.67 L1120.09 1526.67 L1120.09 1574.19 L1113.66 1574.19 L1113.66 1526.67 Z" fill="#000000" fill-rule="evenodd" fill-opacity="1" /><path clip-path="url(#clip330)" d="M1138.43 1528.42 L1138.43 1538.54 L1150.49 1538.54 L1150.49 1543.09 L1138.43 1543.09 L1138.43 1562.44 Q1138.43 1566.8 1139.6 1568.04 Q1140.81 1569.28 1144.47 1569.28 L1150.49 1569.28 L1150.49 1574.19 L1144.47 1574.19 Q1137.69 1574.19 1135.12 1571.67 Q1132.54 1569.12 1132.54 1562.44 L1132.54 1543.09 L1128.24 1543.09 L1128.24 1538.54 L1132.54 1538.54 L1132.54 1528.42 L1138.43 1528.42 Z" fill="#000000" fill-rule="evenodd" fill-opacity="1" /><path clip-path="url(#clip330)" d="M1188.68 1554.9 L1188.68 1557.76 L1161.76 1557.76 Q1162.14 1563.81 1165.38 1566.99 Q1168.66 1570.14 1174.49 1570.14 Q1177.86 1570.14 1181.01 1569.32 Q1184.2 1568.49 1187.31 1566.83 L1187.31 1572.37 Q1184.16 1573.71 1180.85 1574.41 Q1177.54 1575.11 1174.14 1575.11 Q1165.61 1575.11 1160.61 1570.14 Q1155.64 1565.18 1155.64 1556.71 Q1155.64 1547.96 1160.36 1542.83 Q1165.1 1537.68 1173.12 1537.68 Q1180.31 1537.68 1184.48 1542.33 Q1188.68 1546.94 1188.68 1554.9 M1182.83 1553.18 Q1182.76 1548.37 1180.12 1545.51 Q1177.51 1542.64 1173.18 1542.64 Q1168.28 1542.64 1165.32 1545.41 Q1162.39 1548.18 1161.95 1553.21 L1182.83 1553.18 Z" fill="#000000" fill-rule="evenodd" fill-opacity="1" /><path clip-path="url(#clip330)" d="M1218.95 1544.01 Q1217.97 1543.44 1216.79 1543.18 Q1215.64 1542.9 1214.24 1542.9 Q1209.28 1542.9 1206.6 1546.14 Q1203.96 1549.36 1203.96 1555.41 L1203.96 1574.19 L1198.07 1574.19 L1198.07 1538.54 L1203.96 1538.54 L1203.96 1544.08 Q1205.81 1540.83 1208.77 1539.27 Q1211.73 1537.68 1215.96 1537.68 Q1216.56 1537.68 1217.3 1537.77 Q1218.03 1537.84 1218.92 1538 L1218.95 1544.01 Z" fill="#000000" fill-rule="evenodd" fill-opacity="1" /><path clip-path="url(#clip330)" d="M1241.3 1556.27 Q1234.2 1556.27 1231.46 1557.89 Q1228.72 1559.51 1228.72 1563.43 Q1228.72 1566.55 1230.76 1568.39 Q1232.83 1570.21 1236.36 1570.21 Q1241.23 1570.21 1244.16 1566.77 Q1247.12 1563.3 1247.12 1557.57 L1247.12 1556.27 L1241.3 1556.27 M1252.98 1553.85 L1252.98 1574.19 L1247.12 1574.19 L1247.12 1568.77 Q1245.11 1572.02 1242.12 1573.58 Q1239.13 1575.11 1234.8 1575.11 Q1229.33 1575.11 1226.08 1572.05 Q1222.87 1568.97 1222.87 1563.81 Q1222.87 1557.79 1226.88 1554.74 Q1230.92 1551.68 1238.91 1551.68 L1247.12 1551.68 L1247.12 1551.11 Q1247.12 1547.07 1244.45 1544.87 Q1241.8 1542.64 1237 1542.64 Q1233.94 1542.64 1231.05 1543.38 Q1228.15 1544.11 1225.48 1545.57 L1225.48 1540.16 Q1228.69 1538.92 1231.72 1538.31 Q1234.74 1537.68 1237.6 1537.68 Q1245.34 1537.68 1249.16 1541.69 Q1252.98 1545.7 1252.98 1553.85 Z" fill="#000000" fill-rule="evenodd" fill-opacity="1" /><path clip-path="url(#clip330)" d="M1270.83 1528.42 L1270.83 1538.54 L1282.9 1538.54 L1282.9 1543.09 L1270.83 1543.09 L1270.83 1562.44 Q1270.83 1566.8 1272.01 1568.04 Q1273.22 1569.28 1276.88 1569.28 L1282.9 1569.28 L1282.9 1574.19 L1276.88 1574.19 Q1270.1 1574.19 1267.52 1571.67 Q1264.94 1569.12 1264.94 1562.44 L1264.94 1543.09 L1260.65 1543.09 L1260.65 1538.54 L1264.94 1538.54 L1264.94 1528.42 L1270.83 1528.42 Z" fill="#000000" fill-rule="evenodd" fill-opacity="1" /><path clip-path="url(#clip330)" d="M1290.6 1538.54 L1296.45 1538.54 L1296.45 1574.19 L1290.6 1574.19 L1290.6 1538.54 M1290.6 1524.66 L1296.45 1524.66 L1296.45 1532.08 L1290.6 1532.08 L1290.6 1524.66 Z" fill="#000000" fill-rule="evenodd" fill-opacity="1" /><path clip-path="url(#clip330)" d="M1322.52 1542.64 Q1317.81 1542.64 1315.07 1546.34 Q1312.34 1550 1312.34 1556.39 Q1312.34 1562.79 1315.04 1566.48 Q1317.78 1570.14 1322.52 1570.14 Q1327.2 1570.14 1329.94 1566.45 Q1332.68 1562.76 1332.68 1556.39 Q1332.68 1550.06 1329.94 1546.37 Q1327.2 1542.64 1322.52 1542.64 M1322.52 1537.68 Q1330.16 1537.68 1334.52 1542.64 Q1338.88 1547.61 1338.88 1556.39 Q1338.88 1565.15 1334.52 1570.14 Q1330.16 1575.11 1322.52 1575.11 Q1314.85 1575.11 1310.49 1570.14 Q1306.16 1565.15 1306.16 1556.39 Q1306.16 1547.61 1310.49 1542.64 Q1314.85 1537.68 1322.52 1537.68 Z" fill="#000000" fill-rule="evenodd" fill-opacity="1" /><path clip-path="url(#clip330)" d="M1378.22 1552.67 L1378.22 1574.19 L1372.37 1574.19 L1372.37 1552.86 Q1372.37 1547.8 1370.39 1545.29 Q1368.42 1542.77 1364.47 1542.77 Q1359.73 1542.77 1356.99 1545.79 Q1354.25 1548.82 1354.25 1554.04 L1354.25 1574.19 L1348.37 1574.19 L1348.37 1538.54 L1354.25 1538.54 L1354.25 1544.08 Q1356.36 1540.86 1359.19 1539.27 Q1362.05 1537.68 1365.78 1537.68 Q1371.92 1537.68 1375.07 1541.5 Q1378.22 1545.29 1378.22 1552.67 Z" fill="#000000" fill-rule="evenodd" fill-opacity="1" /><path clip-path="url(#clip330)" d="M1412.63 1539.59 L1412.63 1545.13 Q1410.15 1543.85 1407.47 1543.22 Q1404.8 1542.58 1401.93 1542.58 Q1397.57 1542.58 1395.38 1543.92 Q1393.21 1545.25 1393.21 1547.93 Q1393.21 1549.96 1394.77 1551.14 Q1396.33 1552.29 1401.04 1553.34 L1403.05 1553.78 Q1409.29 1555.12 1411.9 1557.57 Q1414.54 1559.99 1414.54 1564.35 Q1414.54 1569.32 1410.59 1572.21 Q1406.68 1575.11 1399.8 1575.11 Q1396.94 1575.11 1393.82 1574.54 Q1390.73 1573.99 1387.29 1572.88 L1387.29 1566.83 Q1390.54 1568.52 1393.69 1569.38 Q1396.84 1570.21 1399.93 1570.21 Q1404.07 1570.21 1406.29 1568.81 Q1408.52 1567.37 1408.52 1564.8 Q1408.52 1562.41 1406.9 1561.14 Q1405.31 1559.86 1399.87 1558.68 L1397.83 1558.21 Q1392.39 1557.06 1389.97 1554.71 Q1387.55 1552.32 1387.55 1548.18 Q1387.55 1543.15 1391.11 1540.42 Q1394.68 1537.68 1401.23 1537.68 Q1404.48 1537.68 1407.34 1538.16 Q1410.21 1538.63 1412.63 1539.59 Z" fill="#000000" fill-rule="evenodd" fill-opacity="1" /><polyline clip-path="url(#clip332)" style="stroke:#000000; stroke-linecap:round; stroke-linejoin:round; stroke-width:2; stroke-opacity:0.1; fill:none" points="
  175.445,1104.07 2352.76,1104.07 
  "/>
<polyline clip-path="url(#clip332)" style="stroke:#000000; stroke-linecap:round; stroke-linejoin:round; stroke-width:2; stroke-opacity:0.1; fill:none" points="
  175.445,763.162 2352.76,763.162 
  "/>
<polyline clip-path="url(#clip332)" style="stroke:#000000; stroke-linecap:round; stroke-linejoin:round; stroke-width:2; stroke-opacity:0.1; fill:none" points="
  175.445,422.249 2352.76,422.249 
  "/>
<polyline clip-path="url(#clip332)" style="stroke:#000000; stroke-linecap:round; stroke-linejoin:round; stroke-width:2; stroke-opacity:0.1; fill:none" points="
  175.445,81.3354 2352.76,81.3354 
  "/>
<polyline clip-path="url(#clip330)" style="stroke:#000000; stroke-linecap:round; stroke-linejoin:round; stroke-width:4; stroke-opacity:1; fill:none" points="
  175.445,1410.9 175.445,47.2441 
  "/>
<polyline clip-path="url(#clip330)" style="stroke:#000000; stroke-linecap:round; stroke-linejoin:round; stroke-width:4; stroke-opacity:1; fill:none" points="
  175.445,1104.07 194.343,1104.07 
  "/>
<polyline clip-path="url(#clip330)" style="stroke:#000000; stroke-linecap:round; stroke-linejoin:round; stroke-width:4; stroke-opacity:1; fill:none" points="
  175.445,763.162 194.343,763.162 
  "/>
<polyline clip-path="url(#clip330)" style="stroke:#000000; stroke-linecap:round; stroke-linejoin:round; stroke-width:4; stroke-opacity:1; fill:none" points="
  175.445,422.249 194.343,422.249 
  "/>
<polyline clip-path="url(#clip330)" style="stroke:#000000; stroke-linecap:round; stroke-linejoin:round; stroke-width:4; stroke-opacity:1; fill:none" points="
  175.445,81.3354 194.343,81.3354 
  "/>
<path clip-path="url(#clip330)" d="M132.316 1102.72 Q135.672 1103.44 137.547 1105.71 Q139.445 1107.98 139.445 1111.31 Q139.445 1116.42 135.927 1119.23 Q132.408 1122.03 125.927 1122.03 Q123.751 1122.03 121.436 1121.59 Q119.144 1121.17 116.691 1120.31 L116.691 1115.8 Q118.635 1116.93 120.95 1117.51 Q123.265 1118.09 125.788 1118.09 Q130.186 1118.09 132.478 1116.35 Q134.792 1114.62 134.792 1111.31 Q134.792 1108.25 132.64 1106.54 Q130.51 1104.8 126.691 1104.8 L122.663 1104.8 L122.663 1100.96 L126.876 1100.96 Q130.325 1100.96 132.154 1099.6 Q133.982 1098.21 133.982 1095.61 Q133.982 1092.95 132.084 1091.54 Q130.209 1090.1 126.691 1090.1 Q124.769 1090.1 122.57 1090.52 Q120.371 1090.94 117.732 1091.82 L117.732 1087.65 Q120.394 1086.91 122.709 1086.54 Q125.047 1086.17 127.107 1086.17 Q132.431 1086.17 135.533 1088.6 Q138.635 1091.01 138.635 1095.13 Q138.635 1098 136.992 1099.99 Q135.348 1101.96 132.316 1102.72 Z" fill="#000000" fill-rule="evenodd" fill-opacity="1" /><path clip-path="url(#clip330)" d="M129.862 749.956 L118.056 768.405 L129.862 768.405 L129.862 749.956 M128.635 745.882 L134.515 745.882 L134.515 768.405 L139.445 768.405 L139.445 772.294 L134.515 772.294 L134.515 780.442 L129.862 780.442 L129.862 772.294 L114.26 772.294 L114.26 767.78 L128.635 745.882 Z" fill="#000000" fill-rule="evenodd" fill-opacity="1" /><path clip-path="url(#clip330)" d="M118.543 404.969 L136.899 404.969 L136.899 408.904 L122.825 408.904 L122.825 417.376 Q123.843 417.029 124.862 416.867 Q125.88 416.681 126.899 416.681 Q132.686 416.681 136.066 419.853 Q139.445 423.024 139.445 428.441 Q139.445 434.019 135.973 437.121 Q132.501 440.2 126.181 440.2 Q124.005 440.2 121.737 439.829 Q119.492 439.459 117.084 438.718 L117.084 434.019 Q119.168 435.154 121.39 435.709 Q123.612 436.265 126.089 436.265 Q130.093 436.265 132.431 434.158 Q134.769 432.052 134.769 428.441 Q134.769 424.83 132.431 422.723 Q130.093 420.617 126.089 420.617 Q124.214 420.617 122.339 421.033 Q120.487 421.45 118.543 422.33 L118.543 404.969 Z" fill="#000000" fill-rule="evenodd" fill-opacity="1" /><path clip-path="url(#clip330)" d="M127.917 79.472 Q124.769 79.472 122.918 81.6248 Q121.089 83.7775 121.089 87.5275 Q121.089 91.2543 122.918 93.4303 Q124.769 95.583 127.917 95.583 Q131.066 95.583 132.894 93.4303 Q134.746 91.2543 134.746 87.5275 Q134.746 83.7775 132.894 81.6248 Q131.066 79.472 127.917 79.472 M137.2 64.8193 L137.2 69.0785 Q135.441 68.2452 133.635 67.8054 Q131.853 67.3656 130.093 67.3656 Q125.464 67.3656 123.01 70.4906 Q120.58 73.6155 120.232 79.935 Q121.598 77.9211 123.658 76.8563 Q125.718 75.7683 128.195 75.7683 Q133.404 75.7683 136.413 78.9396 Q139.445 82.0877 139.445 87.5275 Q139.445 92.8516 136.297 96.0691 Q133.149 99.2867 127.917 99.2867 Q121.922 99.2867 118.751 94.7034 Q115.58 90.0969 115.58 81.3701 Q115.58 73.1757 119.468 68.3146 Q123.357 63.4304 129.908 63.4304 Q131.667 63.4304 133.45 63.7776 Q135.255 64.1249 137.2 64.8193 Z" fill="#000000" fill-rule="evenodd" fill-opacity="1" /><path clip-path="url(#clip330)" d="M22.818 978.129 L46.4666 986.85 L46.4666 969.376 L22.818 978.129 M16.4842 981.757 L16.4842 974.468 L64.0042 956.358 L64.0042 963.042 L51.8138 967.371 L51.8138 988.791 L64.0042 993.12 L64.0042 999.899 L16.4842 981.757 Z" fill="#000000" fill-rule="evenodd" fill-opacity="1" /><path clip-path="url(#clip330)" d="M28.3562 957.695 L28.3562 951.488 L58.275 940.348 L28.3562 929.208 L28.3562 923.002 L64.0042 936.37 L64.0042 944.327 L28.3562 957.695 Z" fill="#000000" fill-rule="evenodd" fill-opacity="1" /><path clip-path="url(#clip330)" d="M44.7161 884.425 L47.5806 884.425 L47.5806 911.352 Q53.6281 910.97 56.8109 907.724 Q59.9619 904.446 59.9619 898.621 Q59.9619 895.247 59.1344 892.096 Q58.3069 888.913 56.6518 885.794 L62.1899 885.794 Q63.5267 888.945 64.227 892.255 Q64.9272 895.565 64.9272 898.971 Q64.9272 907.501 59.9619 912.498 Q54.9967 917.463 46.5303 917.463 Q37.7774 917.463 32.6531 912.753 Q27.4968 908.01 27.4968 899.99 Q27.4968 892.796 32.1438 888.627 Q36.7589 884.425 44.7161 884.425 M42.9973 890.282 Q38.1912 890.346 35.3266 892.987 Q32.4621 895.597 32.4621 899.926 Q32.4621 904.828 35.2312 907.788 Q38.0002 910.716 43.0292 911.161 L42.9973 890.282 Z" fill="#000000" fill-rule="evenodd" fill-opacity="1" /><path clip-path="url(#clip330)" d="M33.8307 854.157 Q33.2578 855.143 33.0032 856.321 Q32.7167 857.467 32.7167 858.867 Q32.7167 863.832 35.9632 866.506 Q39.1779 869.148 45.2253 869.148 L64.0042 869.148 L64.0042 875.036 L28.3562 875.036 L28.3562 869.148 L33.8944 869.148 Q30.6479 867.302 29.0883 864.342 Q27.4968 861.382 27.4968 857.148 Q27.4968 856.544 27.5923 855.812 Q27.656 855.08 27.8151 854.188 L33.8307 854.157 Z" fill="#000000" fill-rule="evenodd" fill-opacity="1" /><path clip-path="url(#clip330)" d="M46.0847 831.813 Q46.0847 838.911 47.7079 841.648 Q49.3312 844.385 53.2461 844.385 Q56.3653 844.385 58.2114 842.348 Q60.0256 840.279 60.0256 836.746 Q60.0256 831.877 56.5881 828.948 Q53.1188 825.988 47.3897 825.988 L46.0847 825.988 L46.0847 831.813 M43.6657 820.132 L64.0042 820.132 L64.0042 825.988 L58.5933 825.988 Q61.8398 827.993 63.3994 830.985 Q64.9272 833.977 64.9272 838.306 Q64.9272 843.78 61.8716 847.027 Q58.7843 850.242 53.6281 850.242 Q47.6125 850.242 44.5569 846.231 Q41.5014 842.189 41.5014 834.2 L41.5014 825.988 L40.9285 825.988 Q36.8862 825.988 34.6901 828.662 Q32.4621 831.304 32.4621 836.11 Q32.4621 839.165 33.1941 842.062 Q33.9262 844.958 35.3903 847.632 L29.9795 847.632 Q28.7381 844.417 28.1334 841.393 Q27.4968 838.37 27.4968 835.505 Q27.4968 827.771 31.5072 823.951 Q35.5176 820.132 43.6657 820.132 Z" fill="#000000" fill-rule="evenodd" fill-opacity="1" /><path clip-path="url(#clip330)" d="M45.7664 784.611 Q39.4007 784.611 35.8996 787.253 Q32.3984 789.863 32.3984 794.605 Q32.3984 799.316 35.8996 801.958 Q39.4007 804.568 45.7664 804.568 Q52.1003 804.568 55.6014 801.958 Q59.1026 799.316 59.1026 794.605 Q59.1026 789.863 55.6014 787.253 Q52.1003 784.611 45.7664 784.611 M59.58 778.755 Q68.683 778.755 73.1071 782.797 Q77.5631 786.839 77.5631 795.178 Q77.5631 798.266 77.0857 801.003 Q76.6401 803.74 75.6852 806.318 L69.9879 806.318 Q71.3884 803.74 72.0568 801.226 Q72.7252 798.711 72.7252 796.101 Q72.7252 790.34 69.7015 787.476 Q66.7096 784.611 60.6303 784.611 L57.7339 784.611 Q60.885 786.425 62.4446 789.258 Q64.0042 792.091 64.0042 796.038 Q64.0042 802.594 59.0071 806.605 Q54.01 810.615 45.7664 810.615 Q37.491 810.615 32.4939 806.605 Q27.4968 802.594 27.4968 796.038 Q27.4968 792.091 29.0564 789.258 Q30.616 786.425 33.7671 784.611 L28.3562 784.611 L28.3562 778.755 L59.58 778.755 Z" fill="#000000" fill-rule="evenodd" fill-opacity="1" /><path clip-path="url(#clip330)" d="M44.7161 736.2 L47.5806 736.2 L47.5806 763.127 Q53.6281 762.745 56.8109 759.498 Q59.9619 756.22 59.9619 750.395 Q59.9619 747.022 59.1344 743.871 Q58.3069 740.688 56.6518 737.569 L62.1899 737.569 Q63.5267 740.72 64.227 744.03 Q64.9272 747.34 64.9272 750.746 Q64.9272 759.276 59.9619 764.273 Q54.9967 769.238 46.5303 769.238 Q37.7774 769.238 32.6531 764.527 Q27.4968 759.785 27.4968 751.764 Q27.4968 744.571 32.1438 740.401 Q36.7589 736.2 44.7161 736.2 M42.9973 742.056 Q38.1912 742.12 35.3266 744.762 Q32.4621 747.372 32.4621 751.7 Q32.4621 756.602 35.2312 759.562 Q38.0002 762.49 43.0292 762.936 L42.9973 742.056 Z" fill="#000000" fill-rule="evenodd" fill-opacity="1" /><path clip-path="url(#clip330)" d="M64.0042 693.359 L16.4842 711.501 L16.4842 704.785 L56.4926 689.73 L16.4842 674.644 L16.4842 667.96 L64.0042 686.07 L64.0042 693.359 Z" fill="#000000" fill-rule="evenodd" fill-opacity="1" /><path clip-path="url(#clip330)" d="M44.7161 635.845 L47.5806 635.845 L47.5806 662.772 Q53.6281 662.39 56.8109 659.143 Q59.9619 655.865 59.9619 650.04 Q59.9619 646.666 59.1344 643.515 Q58.3069 640.332 56.6518 637.213 L62.1899 637.213 Q63.5267 640.364 64.227 643.674 Q64.9272 646.985 64.9272 650.39 Q64.9272 658.92 59.9619 663.917 Q54.9967 668.883 46.5303 668.883 Q37.7774 668.883 32.6531 664.172 Q27.4968 659.43 27.4968 651.409 Q27.4968 644.215 32.1438 640.046 Q36.7589 635.845 44.7161 635.845 M42.9973 641.701 Q38.1912 641.765 35.3266 644.406 Q32.4621 647.016 32.4621 651.345 Q32.4621 656.247 35.2312 659.207 Q38.0002 662.135 43.0292 662.581 L42.9973 641.701 Z" fill="#000000" fill-rule="evenodd" fill-opacity="1" /><path clip-path="url(#clip330)" d="M14.479 626.232 L14.479 620.376 L64.0042 620.376 L64.0042 626.232 L14.479 626.232 Z" fill="#000000" fill-rule="evenodd" fill-opacity="1" /><path clip-path="url(#clip330)" d="M32.4621 594.308 Q32.4621 599.019 36.1542 601.756 Q39.8145 604.493 46.212 604.493 Q52.6095 604.493 56.3017 601.788 Q59.9619 599.051 59.9619 594.308 Q59.9619 589.63 56.2698 586.892 Q52.5777 584.155 46.212 584.155 Q39.8781 584.155 36.186 586.892 Q32.4621 589.63 32.4621 594.308 M27.4968 594.308 Q27.4968 586.67 32.4621 582.309 Q37.4273 577.948 46.212 577.948 Q54.9649 577.948 59.9619 582.309 Q64.9272 586.67 64.9272 594.308 Q64.9272 601.979 59.9619 606.34 Q54.9649 610.668 46.212 610.668 Q37.4273 610.668 32.4621 606.34 Q27.4968 601.979 27.4968 594.308 Z" fill="#000000" fill-rule="evenodd" fill-opacity="1" /><path clip-path="url(#clip330)" d="M29.7248 542.587 L35.1993 542.587 Q33.8307 545.07 33.1623 547.584 Q32.4621 550.067 32.4621 552.613 Q32.4621 558.31 36.0905 561.461 Q39.6872 564.612 46.212 564.612 Q52.7369 564.612 56.3653 561.461 Q59.9619 558.31 59.9619 552.613 Q59.9619 550.067 59.2935 547.584 Q58.5933 545.07 57.2247 542.587 L62.6355 542.587 Q63.7814 545.038 64.3543 547.68 Q64.9272 550.289 64.9272 553.25 Q64.9272 561.302 59.8664 566.045 Q54.8057 570.787 46.212 570.787 Q37.491 570.787 32.4939 566.013 Q27.4968 561.207 27.4968 552.868 Q27.4968 550.162 28.0697 547.584 Q28.6108 545.006 29.7248 542.587 Z" fill="#000000" fill-rule="evenodd" fill-opacity="1" /><path clip-path="url(#clip330)" d="M28.3562 532.402 L28.3562 526.545 L64.0042 526.545 L64.0042 532.402 L28.3562 532.402 M14.479 532.402 L14.479 526.545 L21.895 526.545 L21.895 532.402 L14.479 532.402 Z" fill="#000000" fill-rule="evenodd" fill-opacity="1" /><path clip-path="url(#clip330)" d="M18.2347 508.499 L28.3562 508.499 L28.3562 496.436 L32.9077 496.436 L32.9077 508.499 L52.2594 508.499 Q56.6199 508.499 57.8613 507.321 Q59.1026 506.111 59.1026 502.451 L59.1026 496.436 L64.0042 496.436 L64.0042 502.451 Q64.0042 509.231 61.4897 511.809 Q58.9434 514.387 52.2594 514.387 L32.9077 514.387 L32.9077 518.684 L28.3562 518.684 L28.3562 514.387 L18.2347 514.387 L18.2347 508.499 Z" fill="#000000" fill-rule="evenodd" fill-opacity="1" /><path clip-path="url(#clip330)" d="M67.3143 473.901 Q73.68 476.384 75.6216 478.739 Q77.5631 481.094 77.5631 485.041 L77.5631 489.72 L72.6615 489.72 L72.6615 486.282 Q72.6615 483.863 71.5157 482.527 Q70.3699 481.19 66.1048 479.566 L63.4312 478.516 L28.3562 492.934 L28.3562 486.728 L56.238 475.588 L28.3562 464.448 L28.3562 458.241 L67.3143 473.901 Z" fill="#000000" fill-rule="evenodd" fill-opacity="1" /><polyline clip-path="url(#clip332)" style="stroke:#009af9; stroke-linecap:round; stroke-linejoin:round; stroke-width:4; stroke-opacity:1; fill:none" points="
  237.067,1178.34 250.853,937.63 264.639,827.03 278.424,727.147 292.21,667.071 305.996,612.687 319.781,596.577 333.567,575.59 347.353,575.521 361.138,584.976 
  374.924,627.004 388.71,514.972 402.495,438.695 416.281,441.373 430.067,496.805 443.852,550.453 457.638,520.699 471.424,493.889 485.209,461.03 498.995,410.093 
  512.781,453.135 526.567,391.806 540.352,440.845 554.138,401.571 567.924,391.845 581.709,380.809 595.495,412.176 609.281,362.382 623.066,342.584 636.852,398.015 
  650.638,393.027 664.423,394.059 678.209,370.64 691.995,430.19 705.78,472.967 719.566,389.095 733.352,462.75 747.137,321.785 760.923,337.534 774.709,435.913 
  788.495,321.724 802.28,363.512 816.066,334.7 829.852,306.518 843.637,263.01 857.423,274.266 871.209,265.846 884.994,258.662 898.78,304.098 912.566,254.207 
  926.351,274.076 940.137,228.688 953.923,296.5 967.708,317.833 981.494,287.351 995.28,245.112 1009.07,212.72 1022.85,218.346 1036.64,275.163 1050.42,245.187 
  1064.21,271.125 1077.99,294.34 1091.78,259.054 1105.57,275.735 1119.35,200.713 1133.14,223.491 1146.92,312.347 1160.71,256.906 1174.49,261.226 1188.28,194.414 
  1202.06,288.247 1215.85,205.877 1229.64,258.353 1243.42,236.96 1257.21,264.569 1270.99,257.334 1284.78,328.343 1298.56,255.049 1312.35,351.725 1326.14,303.814 
  1339.92,225.595 1353.71,219.132 1367.49,182.829 1381.28,260.172 1395.06,245.997 1408.85,264.475 1422.64,277.483 1436.42,260.905 1450.21,298.11 1463.99,270.488 
  1477.78,268.274 1491.56,399.824 1505.35,304.003 1519.14,275.46 1532.92,354.416 1546.71,370.441 1560.49,286.788 1574.28,269.773 1588.06,175.008 1601.85,201.677 
  1615.64,194.983 1629.42,278.24 1643.21,265.245 1656.99,189.785 1670.78,243.021 1684.56,194.059 1698.35,266.073 1712.14,228.51 1725.92,207.39 1739.71,247.94 
  1753.49,179.891 1767.28,219.156 1781.06,232.426 1794.85,269.5 1808.64,236.993 1822.42,253.676 1836.21,218.393 1849.99,116.576 1863.78,182.754 1877.56,180.724 
  1891.35,197.573 1905.13,200.291 1918.92,248.096 1932.71,130.464 1946.49,188.874 1960.28,121.259 1974.06,95.7055 1987.85,273.784 2001.63,157.983 2015.42,247.26 
  2029.21,202.91 2042.99,228.142 2056.78,214.462 2070.56,260.239 2084.35,161.425 2098.13,151.852 2111.92,178.587 2125.71,136.702 2139.49,233.709 2153.28,133.587 
  2167.06,123.725 2180.85,72.8986 2194.63,162.269 2208.42,229.176 2222.21,165.583 2235.99,141.145 2249.78,146.848 2263.56,171.267 2277.35,155.62 2291.13,219.212 
  
  "/>
</svg>
