<?xml version="1.0" encoding="utf-8"?>
<svg xmlns="http://www.w3.org/2000/svg" xmlns:xlink="http://www.w3.org/1999/xlink" width="600" height="400" viewBox="0 0 2400 1600">
<defs>
  <clipPath id="clip170">
    <rect x="0" y="0" width="2400" height="1600"/>
  </clipPath>
</defs>
<path clip-path="url(#clip170)" d="
M0 1600 L2400 1600 L2400 0 L0 0  Z
  " fill="#ffffff" fill-rule="evenodd" fill-opacity="1"/>
<defs>
  <clipPath id="clip171">
    <rect x="480" y="0" width="1681" height="1600"/>
  </clipPath>
</defs>
<path clip-path="url(#clip170)" d="
M204.612 1410.9 L2352.76 1410.9 L2352.76 47.2441 L204.612 47.2441  Z
  " fill="#ffffff" fill-rule="evenodd" fill-opacity="1"/>
<defs>
  <clipPath id="clip172">
    <rect x="204" y="47" width="2149" height="1365"/>
  </clipPath>
</defs>
<polyline clip-path="url(#clip172)" style="stroke:#000000; stroke-linecap:round; stroke-linejoin:round; stroke-width:2; stroke-opacity:0.1; fill:none" points="
  251.807,1410.9 251.807,47.2441 
  "/>
<polyline clip-path="url(#clip172)" style="stroke:#000000; stroke-linecap:round; stroke-linejoin:round; stroke-width:2; stroke-opacity:0.1; fill:none" points="
  931.858,1410.9 931.858,47.2441 
  "/>
<polyline clip-path="url(#clip172)" style="stroke:#000000; stroke-linecap:round; stroke-linejoin:round; stroke-width:2; stroke-opacity:0.1; fill:none" points="
  1611.91,1410.9 1611.91,47.2441 
  "/>
<polyline clip-path="url(#clip172)" style="stroke:#000000; stroke-linecap:round; stroke-linejoin:round; stroke-width:2; stroke-opacity:0.1; fill:none" points="
  2291.96,1410.9 2291.96,47.2441 
  "/>
<polyline clip-path="url(#clip170)" style="stroke:#000000; stroke-linecap:round; stroke-linejoin:round; stroke-width:4; stroke-opacity:1; fill:none" points="
  204.612,1410.9 2352.76,1410.9 
  "/>
<polyline clip-path="url(#clip170)" style="stroke:#000000; stroke-linecap:round; stroke-linejoin:round; stroke-width:4; stroke-opacity:1; fill:none" points="
  251.807,1410.9 251.807,1392 
  "/>
<polyline clip-path="url(#clip170)" style="stroke:#000000; stroke-linecap:round; stroke-linejoin:round; stroke-width:4; stroke-opacity:1; fill:none" points="
  931.858,1410.9 931.858,1392 
  "/>
<polyline clip-path="url(#clip170)" style="stroke:#000000; stroke-linecap:round; stroke-linejoin:round; stroke-width:4; stroke-opacity:1; fill:none" points="
  1611.91,1410.9 1611.91,1392 
  "/>
<polyline clip-path="url(#clip170)" style="stroke:#000000; stroke-linecap:round; stroke-linejoin:round; stroke-width:4; stroke-opacity:1; fill:none" points="
  2291.96,1410.9 2291.96,1392 
  "/>
<path clip-path="url(#clip170)" d="M251.807 1441.82 Q248.196 1441.82 246.367 1445.38 Q244.562 1448.92 244.562 1456.05 Q244.562 1463.16 246.367 1466.72 Q248.196 1470.26 251.807 1470.26 Q255.441 1470.26 257.247 1466.72 Q259.076 1463.16 259.076 1456.05 Q259.076 1448.92 257.247 1445.38 Q255.441 1441.82 251.807 1441.82 M251.807 1438.11 Q257.617 1438.11 260.673 1442.72 Q263.752 1447.3 263.752 1456.05 Q263.752 1464.78 260.673 1469.38 Q257.617 1473.97 251.807 1473.97 Q245.997 1473.97 242.918 1469.38 Q239.863 1464.78 239.863 1456.05 Q239.863 1447.3 242.918 1442.72 Q245.997 1438.11 251.807 1438.11 Z" fill="#000000" fill-rule="evenodd" fill-opacity="1" /><path clip-path="url(#clip170)" d="M824.835 1454.4 L843.191 1454.4 L843.191 1458.33 L829.117 1458.33 L829.117 1466.8 Q830.135 1466.46 831.154 1466.29 Q832.172 1466.11 833.191 1466.11 Q838.978 1466.11 842.358 1469.28 Q845.737 1472.45 845.737 1477.87 Q845.737 1483.45 842.265 1486.55 Q838.793 1489.63 832.473 1489.63 Q830.297 1489.63 828.029 1489.26 Q825.784 1488.89 823.376 1488.15 L823.376 1483.45 Q825.46 1484.58 827.682 1485.14 Q829.904 1485.69 832.381 1485.69 Q836.385 1485.69 838.723 1483.59 Q841.061 1481.48 841.061 1477.87 Q841.061 1474.26 838.723 1472.15 Q836.385 1470.04 832.381 1470.04 Q830.506 1470.04 828.631 1470.46 Q826.779 1470.88 824.835 1471.76 L824.835 1454.4 Z" fill="#000000" fill-rule="evenodd" fill-opacity="1" /><path clip-path="url(#clip170)" d="M854.95 1483.08 L859.834 1483.08 L859.834 1488.96 L854.95 1488.96 L854.95 1483.08 Z" fill="#000000" fill-rule="evenodd" fill-opacity="1" /><path clip-path="url(#clip170)" d="M880.019 1457.48 Q876.408 1457.48 874.58 1461.04 Q872.774 1464.58 872.774 1471.71 Q872.774 1478.82 874.58 1482.38 Q876.408 1485.92 880.019 1485.92 Q883.654 1485.92 885.459 1482.38 Q887.288 1478.82 887.288 1471.71 Q887.288 1464.58 885.459 1461.04 Q883.654 1457.48 880.019 1457.48 M880.019 1453.77 Q885.83 1453.77 888.885 1458.38 Q891.964 1462.96 891.964 1471.71 Q891.964 1480.44 888.885 1485.04 Q885.83 1489.63 880.019 1489.63 Q874.209 1489.63 871.131 1485.04 Q868.075 1480.44 868.075 1471.71 Q868.075 1462.96 871.131 1458.38 Q874.209 1453.77 880.019 1453.77 Z" fill="#000000" fill-rule="evenodd" fill-opacity="1" /><path clip-path="url(#clip170)" d="M910.181 1457.48 Q906.57 1457.48 904.741 1461.04 Q902.936 1464.58 902.936 1471.71 Q902.936 1478.82 904.741 1482.38 Q906.57 1485.92 910.181 1485.92 Q913.816 1485.92 915.621 1482.38 Q917.45 1478.82 917.45 1471.71 Q917.45 1464.58 915.621 1461.04 Q913.816 1457.48 910.181 1457.48 M910.181 1453.77 Q915.991 1453.77 919.047 1458.38 Q922.126 1462.96 922.126 1471.71 Q922.126 1480.44 919.047 1485.04 Q915.991 1489.63 910.181 1489.63 Q904.371 1489.63 901.292 1485.04 Q898.237 1480.44 898.237 1471.71 Q898.237 1462.96 901.292 1458.38 Q904.371 1453.77 910.181 1453.77 Z" fill="#000000" fill-rule="evenodd" fill-opacity="1" /><path clip-path="url(#clip170)" d="M958.514 1463.49 L947.936 1474.12 L958.514 1484.7 L955.76 1487.5 L945.135 1476.87 L934.51 1487.5 L931.778 1484.7 L942.334 1474.12 L931.778 1463.49 L934.51 1460.69 L945.135 1471.32 L955.76 1460.69 L958.514 1463.49 Z" fill="#000000" fill-rule="evenodd" fill-opacity="1" /><path clip-path="url(#clip170)" d="M970.875 1485.02 L978.514 1485.02 L978.514 1458.66 L970.204 1460.32 L970.204 1456.06 L978.468 1454.4 L983.144 1454.4 L983.144 1485.02 L990.783 1485.02 L990.783 1488.96 L970.875 1488.96 L970.875 1485.02 Z" fill="#000000" fill-rule="evenodd" fill-opacity="1" /><path clip-path="url(#clip170)" d="M1010.23 1457.48 Q1006.62 1457.48 1004.79 1461.04 Q1002.98 1464.58 1002.98 1471.71 Q1002.98 1478.82 1004.79 1482.38 Q1006.62 1485.92 1010.23 1485.92 Q1013.86 1485.92 1015.67 1482.38 Q1017.5 1478.82 1017.5 1471.71 Q1017.5 1464.58 1015.67 1461.04 Q1013.86 1457.48 1010.23 1457.48 M1010.23 1453.77 Q1016.04 1453.77 1019.09 1458.38 Q1022.17 1462.96 1022.17 1471.71 Q1022.17 1480.44 1019.09 1485.04 Q1016.04 1489.63 1010.23 1489.63 Q1004.42 1489.63 1001.34 1485.04 Q998.283 1480.44 998.283 1471.71 Q998.283 1462.96 1001.34 1458.38 Q1004.42 1453.77 1010.23 1453.77 Z" fill="#000000" fill-rule="evenodd" fill-opacity="1" /><path clip-path="url(#clip170)" d="M1023.36 1433.47 L1038.27 1433.47 L1038.27 1436.66 L1026.84 1436.66 L1026.84 1443.55 Q1027.66 1443.27 1028.49 1443.13 Q1029.32 1442.98 1030.15 1442.98 Q1034.85 1442.98 1037.59 1445.56 Q1040.34 1448.14 1040.34 1452.54 Q1040.34 1457.07 1037.52 1459.59 Q1034.7 1462.09 1029.56 1462.09 Q1027.79 1462.09 1025.95 1461.79 Q1024.13 1461.49 1022.17 1460.89 L1022.17 1457.07 Q1023.86 1457.99 1025.67 1458.44 Q1027.48 1458.89 1029.49 1458.89 Q1032.74 1458.89 1034.64 1457.18 Q1036.54 1455.47 1036.54 1452.54 Q1036.54 1449.6 1034.64 1447.89 Q1032.74 1446.18 1029.49 1446.18 Q1027.96 1446.18 1026.44 1446.52 Q1024.94 1446.86 1023.36 1447.57 L1023.36 1433.47 Z" fill="#000000" fill-rule="evenodd" fill-opacity="1" /><path clip-path="url(#clip170)" d="M1504.26 1485.02 L1511.9 1485.02 L1511.9 1458.66 L1503.59 1460.32 L1503.59 1456.06 L1511.85 1454.4 L1516.53 1454.4 L1516.53 1485.02 L1524.17 1485.02 L1524.17 1488.96 L1504.26 1488.96 L1504.26 1485.02 Z" fill="#000000" fill-rule="evenodd" fill-opacity="1" /><path clip-path="url(#clip170)" d="M1533.61 1483.08 L1538.5 1483.08 L1538.5 1488.96 L1533.61 1488.96 L1533.61 1483.08 Z" fill="#000000" fill-rule="evenodd" fill-opacity="1" /><path clip-path="url(#clip170)" d="M1558.68 1457.48 Q1555.07 1457.48 1553.24 1461.04 Q1551.44 1464.58 1551.44 1471.71 Q1551.44 1478.82 1553.24 1482.38 Q1555.07 1485.92 1558.68 1485.92 Q1562.32 1485.92 1564.12 1482.38 Q1565.95 1478.82 1565.95 1471.71 Q1565.95 1464.58 1564.12 1461.04 Q1562.32 1457.48 1558.68 1457.48 M1558.68 1453.77 Q1564.49 1453.77 1567.55 1458.38 Q1570.63 1462.96 1570.63 1471.71 Q1570.63 1480.44 1567.55 1485.04 Q1564.49 1489.63 1558.68 1489.63 Q1552.87 1489.63 1549.79 1485.04 Q1546.74 1480.44 1546.74 1471.71 Q1546.74 1462.96 1549.79 1458.38 Q1552.87 1453.77 1558.68 1453.77 Z" fill="#000000" fill-rule="evenodd" fill-opacity="1" /><path clip-path="url(#clip170)" d="M1588.85 1457.48 Q1585.23 1457.48 1583.41 1461.04 Q1581.6 1464.58 1581.6 1471.71 Q1581.6 1478.82 1583.41 1482.38 Q1585.23 1485.92 1588.85 1485.92 Q1592.48 1485.92 1594.29 1482.38 Q1596.11 1478.82 1596.11 1471.71 Q1596.11 1464.58 1594.29 1461.04 Q1592.48 1457.48 1588.85 1457.48 M1588.85 1453.77 Q1594.66 1453.77 1597.71 1458.38 Q1600.79 1462.96 1600.79 1471.71 Q1600.79 1480.44 1597.71 1485.04 Q1594.66 1489.63 1588.85 1489.63 Q1583.04 1489.63 1579.96 1485.04 Q1576.9 1480.44 1576.9 1471.71 Q1576.9 1462.96 1579.96 1458.38 Q1583.04 1453.77 1588.85 1453.77 Z" fill="#000000" fill-rule="evenodd" fill-opacity="1" /><path clip-path="url(#clip170)" d="M1637.18 1463.49 L1626.6 1474.12 L1637.18 1484.7 L1634.42 1487.5 L1623.8 1476.87 L1613.17 1487.5 L1610.44 1484.7 L1621 1474.12 L1610.44 1463.49 L1613.17 1460.69 L1623.8 1471.32 L1634.42 1460.69 L1637.18 1463.49 Z" fill="#000000" fill-rule="evenodd" fill-opacity="1" /><path clip-path="url(#clip170)" d="M1649.54 1485.02 L1657.18 1485.02 L1657.18 1458.66 L1648.87 1460.32 L1648.87 1456.06 L1657.13 1454.4 L1661.81 1454.4 L1661.81 1485.02 L1669.45 1485.02 L1669.45 1488.96 L1649.54 1488.96 L1649.54 1485.02 Z" fill="#000000" fill-rule="evenodd" fill-opacity="1" /><path clip-path="url(#clip170)" d="M1688.89 1457.48 Q1685.28 1457.48 1683.45 1461.04 Q1681.65 1464.58 1681.65 1471.71 Q1681.65 1478.82 1683.45 1482.38 Q1685.28 1485.92 1688.89 1485.92 Q1692.53 1485.92 1694.33 1482.38 Q1696.16 1478.82 1696.16 1471.71 Q1696.16 1464.58 1694.33 1461.04 Q1692.53 1457.48 1688.89 1457.48 M1688.89 1453.77 Q1694.7 1453.77 1697.76 1458.38 Q1700.84 1462.96 1700.84 1471.71 Q1700.84 1480.44 1697.76 1485.04 Q1694.7 1489.63 1688.89 1489.63 Q1683.08 1489.63 1680 1485.04 Q1676.95 1480.44 1676.95 1471.71 Q1676.95 1462.96 1680 1458.38 Q1683.08 1453.77 1688.89 1453.77 Z" fill="#000000" fill-rule="evenodd" fill-opacity="1" /><path clip-path="url(#clip170)" d="M1710.86 1445.99 Q1708.3 1445.99 1706.8 1447.74 Q1705.31 1449.49 1705.31 1452.54 Q1705.31 1455.57 1706.8 1457.33 Q1708.3 1459.08 1710.86 1459.08 Q1713.42 1459.08 1714.9 1457.33 Q1716.41 1455.57 1716.41 1452.54 Q1716.41 1449.49 1714.9 1447.74 Q1713.42 1445.99 1710.86 1445.99 M1718.4 1434.09 L1718.4 1437.55 Q1716.97 1436.87 1715.51 1436.51 Q1714.06 1436.16 1712.63 1436.16 Q1708.87 1436.16 1706.87 1438.69 Q1704.9 1441.23 1704.62 1446.37 Q1705.73 1444.73 1707.4 1443.87 Q1709.07 1442.98 1711.09 1442.98 Q1715.32 1442.98 1717.76 1445.56 Q1720.23 1448.12 1720.23 1452.54 Q1720.23 1456.86 1717.67 1459.48 Q1715.11 1462.09 1710.86 1462.09 Q1705.99 1462.09 1703.41 1458.37 Q1700.84 1454.62 1700.84 1447.53 Q1700.84 1440.88 1704 1436.93 Q1707.15 1432.96 1712.48 1432.96 Q1713.91 1432.96 1715.36 1433.24 Q1716.82 1433.52 1718.4 1434.09 Z" fill="#000000" fill-rule="evenodd" fill-opacity="1" /><path clip-path="url(#clip170)" d="M2184.31 1485.02 L2191.95 1485.02 L2191.95 1458.66 L2183.64 1460.32 L2183.64 1456.06 L2191.91 1454.4 L2196.58 1454.4 L2196.58 1485.02 L2204.22 1485.02 L2204.22 1488.96 L2184.31 1488.96 L2184.31 1485.02 Z" fill="#000000" fill-rule="evenodd" fill-opacity="1" /><path clip-path="url(#clip170)" d="M2213.66 1483.08 L2218.55 1483.08 L2218.55 1488.96 L2213.66 1488.96 L2213.66 1483.08 Z" fill="#000000" fill-rule="evenodd" fill-opacity="1" /><path clip-path="url(#clip170)" d="M2228.78 1454.4 L2247.14 1454.4 L2247.14 1458.33 L2233.06 1458.33 L2233.06 1466.8 Q2234.08 1466.46 2235.1 1466.29 Q2236.12 1466.11 2237.14 1466.11 Q2242.92 1466.11 2246.3 1469.28 Q2249.68 1472.45 2249.68 1477.87 Q2249.68 1483.45 2246.21 1486.55 Q2242.74 1489.63 2236.42 1489.63 Q2234.24 1489.63 2231.97 1489.26 Q2229.73 1488.89 2227.32 1488.15 L2227.32 1483.45 Q2229.41 1484.58 2231.63 1485.14 Q2233.85 1485.69 2236.33 1485.69 Q2240.33 1485.69 2242.67 1483.59 Q2245.01 1481.48 2245.01 1477.87 Q2245.01 1474.26 2242.67 1472.15 Q2240.33 1470.04 2236.33 1470.04 Q2234.45 1470.04 2232.58 1470.46 Q2230.72 1470.88 2228.78 1471.76 L2228.78 1454.4 Z" fill="#000000" fill-rule="evenodd" fill-opacity="1" /><path clip-path="url(#clip170)" d="M2268.9 1457.48 Q2265.28 1457.48 2263.46 1461.04 Q2261.65 1464.58 2261.65 1471.71 Q2261.65 1478.82 2263.46 1482.38 Q2265.28 1485.92 2268.9 1485.92 Q2272.53 1485.92 2274.34 1482.38 Q2276.16 1478.82 2276.16 1471.71 Q2276.16 1464.58 2274.34 1461.04 Q2272.53 1457.48 2268.9 1457.48 M2268.9 1453.77 Q2274.71 1453.77 2277.76 1458.38 Q2280.84 1462.96 2280.84 1471.71 Q2280.84 1480.44 2277.76 1485.04 Q2274.71 1489.63 2268.9 1489.63 Q2263.09 1489.63 2260.01 1485.04 Q2256.95 1480.44 2256.95 1471.71 Q2256.95 1462.96 2260.01 1458.38 Q2263.09 1453.77 2268.9 1453.77 Z" fill="#000000" fill-rule="evenodd" fill-opacity="1" /><path clip-path="url(#clip170)" d="M2317.23 1463.49 L2306.65 1474.12 L2317.23 1484.7 L2314.47 1487.5 L2303.85 1476.87 L2293.22 1487.5 L2290.49 1484.7 L2301.05 1474.12 L2290.49 1463.49 L2293.22 1460.69 L2303.85 1471.32 L2314.47 1460.69 L2317.23 1463.49 Z" fill="#000000" fill-rule="evenodd" fill-opacity="1" /><path clip-path="url(#clip170)" d="M2329.59 1485.02 L2337.23 1485.02 L2337.23 1458.66 L2328.92 1460.32 L2328.92 1456.06 L2337.18 1454.4 L2341.86 1454.4 L2341.86 1485.02 L2349.5 1485.02 L2349.5 1488.96 L2329.59 1488.96 L2329.59 1485.02 Z" fill="#000000" fill-rule="evenodd" fill-opacity="1" /><path clip-path="url(#clip170)" d="M2368.94 1457.48 Q2365.33 1457.48 2363.5 1461.04 Q2361.7 1464.58 2361.7 1471.71 Q2361.7 1478.82 2363.5 1482.38 Q2365.33 1485.92 2368.94 1485.92 Q2372.58 1485.92 2374.38 1482.38 Q2376.21 1478.82 2376.21 1471.71 Q2376.21 1464.58 2374.38 1461.04 Q2372.58 1457.48 2368.94 1457.48 M2368.94 1453.77 Q2374.75 1453.77 2377.81 1458.38 Q2380.89 1462.96 2380.89 1471.71 Q2380.89 1480.44 2377.81 1485.04 Q2374.75 1489.63 2368.94 1489.63 Q2363.13 1489.63 2360.05 1485.04 Q2357 1480.44 2357 1471.71 Q2357 1462.96 2360.05 1458.38 Q2363.13 1453.77 2368.94 1453.77 Z" fill="#000000" fill-rule="evenodd" fill-opacity="1" /><path clip-path="url(#clip170)" d="M2390.91 1445.99 Q2388.35 1445.99 2386.85 1447.74 Q2385.36 1449.49 2385.36 1452.54 Q2385.36 1455.57 2386.85 1457.33 Q2388.35 1459.08 2390.91 1459.08 Q2393.47 1459.08 2394.95 1457.33 Q2396.46 1455.57 2396.46 1452.54 Q2396.46 1449.49 2394.95 1447.74 Q2393.47 1445.99 2390.91 1445.99 M2398.45 1434.09 L2398.45 1437.55 Q2397.02 1436.87 2395.56 1436.51 Q2394.11 1436.16 2392.68 1436.16 Q2388.92 1436.16 2386.92 1438.69 Q2384.95 1441.23 2384.67 1446.37 Q2385.78 1444.73 2387.45 1443.87 Q2389.12 1442.98 2391.14 1442.98 Q2395.37 1442.98 2397.81 1445.56 Q2400.28 1448.12 2400.28 1452.54 Q2400.28 1456.86 2397.72 1459.48 Q2395.16 1462.09 2390.91 1462.09 Q2386.04 1462.09 2383.46 1458.37 Q2380.89 1454.62 2380.89 1447.53 Q2380.89 1440.88 2384.05 1436.93 Q2387.21 1432.96 2392.53 1432.96 Q2393.96 1432.96 2395.41 1433.24 Q2396.87 1433.52 2398.45 1434.09 Z" fill="#000000" fill-rule="evenodd" fill-opacity="1" /><path clip-path="url(#clip170)" d="M1128.25 1526.67 L1134.68 1526.67 L1134.68 1574.19 L1128.25 1574.19 L1128.25 1526.67 Z" fill="#000000" fill-rule="evenodd" fill-opacity="1" /><path clip-path="url(#clip170)" d="M1153.01 1528.42 L1153.01 1538.54 L1165.07 1538.54 L1165.07 1543.09 L1153.01 1543.09 L1153.01 1562.44 Q1153.01 1566.8 1154.19 1568.04 Q1155.4 1569.28 1159.06 1569.28 L1165.07 1569.28 L1165.07 1574.19 L1159.06 1574.19 Q1152.28 1574.19 1149.7 1571.67 Q1147.12 1569.12 1147.12 1562.44 L1147.12 1543.09 L1142.82 1543.09 L1142.82 1538.54 L1147.12 1538.54 L1147.12 1528.42 L1153.01 1528.42 Z" fill="#000000" fill-rule="evenodd" fill-opacity="1" /><path clip-path="url(#clip170)" d="M1203.27 1554.9 L1203.27 1557.76 L1176.34 1557.76 Q1176.72 1563.81 1179.97 1566.99 Q1183.25 1570.14 1189.07 1570.14 Q1192.44 1570.14 1195.6 1569.32 Q1198.78 1568.49 1201.9 1566.83 L1201.9 1572.37 Q1198.75 1573.71 1195.44 1574.41 Q1192.13 1575.11 1188.72 1575.11 Q1180.19 1575.11 1175.19 1570.14 Q1170.23 1565.18 1170.23 1556.71 Q1170.23 1547.96 1174.94 1542.83 Q1179.68 1537.68 1187.7 1537.68 Q1194.9 1537.68 1199.06 1542.33 Q1203.27 1546.94 1203.27 1554.9 M1197.41 1553.18 Q1197.35 1548.37 1194.7 1545.51 Q1192.09 1542.64 1187.77 1542.64 Q1182.86 1542.64 1179.9 1545.41 Q1176.98 1548.18 1176.53 1553.21 L1197.41 1553.18 Z" fill="#000000" fill-rule="evenodd" fill-opacity="1" /><path clip-path="url(#clip170)" d="M1233.54 1544.01 Q1232.55 1543.44 1231.37 1543.18 Q1230.22 1542.9 1228.82 1542.9 Q1223.86 1542.9 1221.19 1546.14 Q1218.54 1549.36 1218.54 1555.41 L1218.54 1574.19 L1212.66 1574.19 L1212.66 1538.54 L1218.54 1538.54 L1218.54 1544.08 Q1220.39 1540.83 1223.35 1539.27 Q1226.31 1537.68 1230.54 1537.68 Q1231.15 1537.68 1231.88 1537.77 Q1232.61 1537.84 1233.5 1538 L1233.54 1544.01 Z" fill="#000000" fill-rule="evenodd" fill-opacity="1" /><path clip-path="url(#clip170)" d="M1255.88 1556.27 Q1248.78 1556.27 1246.04 1557.89 Q1243.31 1559.51 1243.31 1563.43 Q1243.31 1566.55 1245.34 1568.39 Q1247.41 1570.21 1250.95 1570.21 Q1255.82 1570.21 1258.74 1566.77 Q1261.7 1563.3 1261.7 1557.57 L1261.7 1556.27 L1255.88 1556.27 M1267.56 1553.85 L1267.56 1574.19 L1261.7 1574.19 L1261.7 1568.77 Q1259.7 1572.02 1256.71 1573.58 Q1253.71 1575.11 1249.39 1575.11 Q1243.91 1575.11 1240.66 1572.05 Q1237.45 1568.97 1237.45 1563.81 Q1237.45 1557.79 1241.46 1554.74 Q1245.5 1551.68 1253.49 1551.68 L1261.7 1551.68 L1261.7 1551.11 Q1261.7 1547.07 1259.03 1544.87 Q1256.39 1542.64 1251.58 1542.64 Q1248.53 1542.64 1245.63 1543.38 Q1242.73 1544.11 1240.06 1545.57 L1240.06 1540.16 Q1243.27 1538.92 1246.3 1538.31 Q1249.32 1537.68 1252.19 1537.68 Q1259.92 1537.68 1263.74 1541.69 Q1267.56 1545.7 1267.56 1553.85 Z" fill="#000000" fill-rule="evenodd" fill-opacity="1" /><path clip-path="url(#clip170)" d="M1285.42 1528.42 L1285.42 1538.54 L1297.48 1538.54 L1297.48 1543.09 L1285.42 1543.09 L1285.42 1562.44 Q1285.42 1566.8 1286.59 1568.04 Q1287.8 1569.28 1291.46 1569.28 L1297.48 1569.28 L1297.48 1574.19 L1291.46 1574.19 Q1284.68 1574.19 1282.11 1571.67 Q1279.53 1569.12 1279.53 1562.44 L1279.53 1543.09 L1275.23 1543.09 L1275.23 1538.54 L1279.53 1538.54 L1279.53 1528.42 L1285.42 1528.42 Z" fill="#000000" fill-rule="evenodd" fill-opacity="1" /><path clip-path="url(#clip170)" d="M1305.18 1538.54 L1311.04 1538.54 L1311.04 1574.19 L1305.18 1574.19 L1305.18 1538.54 M1305.18 1524.66 L1311.04 1524.66 L1311.04 1532.08 L1305.18 1532.08 L1305.18 1524.66 Z" fill="#000000" fill-rule="evenodd" fill-opacity="1" /><path clip-path="url(#clip170)" d="M1337.11 1542.64 Q1332.39 1542.64 1329.66 1546.34 Q1326.92 1550 1326.92 1556.39 Q1326.92 1562.79 1329.63 1566.48 Q1332.36 1570.14 1337.11 1570.14 Q1341.78 1570.14 1344.52 1566.45 Q1347.26 1562.76 1347.26 1556.39 Q1347.26 1550.06 1344.52 1546.37 Q1341.78 1542.64 1337.11 1542.64 M1337.11 1537.68 Q1344.74 1537.68 1349.1 1542.64 Q1353.46 1547.61 1353.46 1556.39 Q1353.46 1565.15 1349.1 1570.14 Q1344.74 1575.11 1337.11 1575.11 Q1329.43 1575.11 1325.07 1570.14 Q1320.75 1565.15 1320.75 1556.39 Q1320.75 1547.61 1325.07 1542.64 Q1329.43 1537.68 1337.11 1537.68 Z" fill="#000000" fill-rule="evenodd" fill-opacity="1" /><path clip-path="url(#clip170)" d="M1392.81 1552.67 L1392.81 1574.19 L1386.95 1574.19 L1386.95 1552.86 Q1386.95 1547.8 1384.98 1545.29 Q1383 1542.77 1379.06 1542.77 Q1374.31 1542.77 1371.58 1545.79 Q1368.84 1548.82 1368.84 1554.04 L1368.84 1574.19 L1362.95 1574.19 L1362.95 1538.54 L1368.84 1538.54 L1368.84 1544.08 Q1370.94 1540.86 1373.77 1539.27 Q1376.64 1537.68 1380.36 1537.68 Q1386.5 1537.68 1389.65 1541.5 Q1392.81 1545.29 1392.81 1552.67 Z" fill="#000000" fill-rule="evenodd" fill-opacity="1" /><path clip-path="url(#clip170)" d="M1427.21 1539.59 L1427.21 1545.13 Q1424.73 1543.85 1422.06 1543.22 Q1419.38 1542.58 1416.52 1542.58 Q1412.16 1542.58 1409.96 1543.92 Q1407.8 1545.25 1407.8 1547.93 Q1407.8 1549.96 1409.36 1551.14 Q1410.92 1552.29 1415.63 1553.34 L1417.63 1553.78 Q1423.87 1555.12 1426.48 1557.57 Q1429.12 1559.99 1429.12 1564.35 Q1429.12 1569.32 1425.17 1572.21 Q1421.26 1575.11 1414.38 1575.11 Q1411.52 1575.11 1408.4 1574.54 Q1405.31 1573.99 1401.88 1572.88 L1401.88 1566.83 Q1405.12 1568.52 1408.27 1569.38 Q1411.42 1570.21 1414.51 1570.21 Q1418.65 1570.21 1420.88 1568.81 Q1423.11 1567.37 1423.11 1564.8 Q1423.11 1562.41 1421.48 1561.14 Q1419.89 1559.86 1414.45 1558.68 L1412.41 1558.21 Q1406.97 1557.06 1404.55 1554.71 Q1402.13 1552.32 1402.13 1548.18 Q1402.13 1543.15 1405.7 1540.42 Q1409.26 1537.68 1415.82 1537.68 Q1419.06 1537.68 1421.93 1538.16 Q1424.79 1538.63 1427.21 1539.59 Z" fill="#000000" fill-rule="evenodd" fill-opacity="1" /><polyline clip-path="url(#clip172)" style="stroke:#000000; stroke-linecap:round; stroke-linejoin:round; stroke-width:2; stroke-opacity:0.1; fill:none" points="
  204.612,1283.99 2352.76,1283.99 
  "/>
<polyline clip-path="url(#clip172)" style="stroke:#000000; stroke-linecap:round; stroke-linejoin:round; stroke-width:2; stroke-opacity:0.1; fill:none" points="
  204.612,1102.81 2352.76,1102.81 
  "/>
<polyline clip-path="url(#clip172)" style="stroke:#000000; stroke-linecap:round; stroke-linejoin:round; stroke-width:2; stroke-opacity:0.1; fill:none" points="
  204.612,921.634 2352.76,921.634 
  "/>
<polyline clip-path="url(#clip172)" style="stroke:#000000; stroke-linecap:round; stroke-linejoin:round; stroke-width:2; stroke-opacity:0.1; fill:none" points="
  204.612,740.457 2352.76,740.457 
  "/>
<polyline clip-path="url(#clip172)" style="stroke:#000000; stroke-linecap:round; stroke-linejoin:round; stroke-width:2; stroke-opacity:0.1; fill:none" points="
  204.612,559.279 2352.76,559.279 
  "/>
<polyline clip-path="url(#clip172)" style="stroke:#000000; stroke-linecap:round; stroke-linejoin:round; stroke-width:2; stroke-opacity:0.1; fill:none" points="
  204.612,378.102 2352.76,378.102 
  "/>
<polyline clip-path="url(#clip172)" style="stroke:#000000; stroke-linecap:round; stroke-linejoin:round; stroke-width:2; stroke-opacity:0.1; fill:none" points="
  204.612,196.925 2352.76,196.925 
  "/>
<polyline clip-path="url(#clip170)" style="stroke:#000000; stroke-linecap:round; stroke-linejoin:round; stroke-width:4; stroke-opacity:1; fill:none" points="
  204.612,1410.9 204.612,47.2441 
  "/>
<polyline clip-path="url(#clip170)" style="stroke:#000000; stroke-linecap:round; stroke-linejoin:round; stroke-width:4; stroke-opacity:1; fill:none" points="
  204.612,1283.99 223.509,1283.99 
  "/>
<polyline clip-path="url(#clip170)" style="stroke:#000000; stroke-linecap:round; stroke-linejoin:round; stroke-width:4; stroke-opacity:1; fill:none" points="
  204.612,1102.81 223.509,1102.81 
  "/>
<polyline clip-path="url(#clip170)" style="stroke:#000000; stroke-linecap:round; stroke-linejoin:round; stroke-width:4; stroke-opacity:1; fill:none" points="
  204.612,921.634 223.509,921.634 
  "/>
<polyline clip-path="url(#clip170)" style="stroke:#000000; stroke-linecap:round; stroke-linejoin:round; stroke-width:4; stroke-opacity:1; fill:none" points="
  204.612,740.457 223.509,740.457 
  "/>
<polyline clip-path="url(#clip170)" style="stroke:#000000; stroke-linecap:round; stroke-linejoin:round; stroke-width:4; stroke-opacity:1; fill:none" points="
  204.612,559.279 223.509,559.279 
  "/>
<polyline clip-path="url(#clip170)" style="stroke:#000000; stroke-linecap:round; stroke-linejoin:round; stroke-width:4; stroke-opacity:1; fill:none" points="
  204.612,378.102 223.509,378.102 
  "/>
<polyline clip-path="url(#clip170)" style="stroke:#000000; stroke-linecap:round; stroke-linejoin:round; stroke-width:4; stroke-opacity:1; fill:none" points="
  204.612,196.925 223.509,196.925 
  "/>
<path clip-path="url(#clip170)" d="M116.644 1266.71 L135.001 1266.71 L135.001 1270.64 L120.927 1270.64 L120.927 1279.12 Q121.945 1278.77 122.964 1278.61 Q123.982 1278.42 125.001 1278.42 Q130.788 1278.42 134.167 1281.59 Q137.547 1284.76 137.547 1290.18 Q137.547 1295.76 134.075 1298.86 Q130.603 1301.94 124.283 1301.94 Q122.107 1301.94 119.839 1301.57 Q117.593 1301.2 115.186 1300.46 L115.186 1295.76 Q117.269 1296.89 119.492 1297.45 Q121.714 1298 124.191 1298 Q128.195 1298 130.533 1295.9 Q132.871 1293.79 132.871 1290.18 Q132.871 1286.57 130.533 1284.46 Q128.195 1282.36 124.191 1282.36 Q122.316 1282.36 120.441 1282.77 Q118.589 1283.19 116.644 1284.07 L116.644 1266.71 Z" fill="#000000" fill-rule="evenodd" fill-opacity="1" /><path clip-path="url(#clip170)" d="M156.76 1284.86 Q153.427 1284.86 151.505 1286.64 Q149.607 1288.42 149.607 1291.55 Q149.607 1294.67 151.505 1296.45 Q153.427 1298.24 156.76 1298.24 Q160.093 1298.24 162.015 1296.45 Q163.936 1294.65 163.936 1291.55 Q163.936 1288.42 162.015 1286.64 Q160.116 1284.86 156.76 1284.86 M152.084 1282.87 Q149.075 1282.13 147.385 1280.07 Q145.718 1278.01 145.718 1275.04 Q145.718 1270.9 148.658 1268.49 Q151.621 1266.08 156.76 1266.08 Q161.922 1266.08 164.862 1268.49 Q167.802 1270.9 167.802 1275.04 Q167.802 1278.01 166.112 1280.07 Q164.445 1282.13 161.459 1282.87 Q164.839 1283.65 166.714 1285.94 Q168.612 1288.24 168.612 1291.55 Q168.612 1296.57 165.533 1299.25 Q162.477 1301.94 156.76 1301.94 Q151.042 1301.94 147.964 1299.25 Q144.908 1296.57 144.908 1291.55 Q144.908 1288.24 146.806 1285.94 Q148.704 1283.65 152.084 1282.87 M150.371 1275.48 Q150.371 1278.17 152.038 1279.67 Q153.728 1281.18 156.76 1281.18 Q159.769 1281.18 161.459 1279.67 Q163.172 1278.17 163.172 1275.48 Q163.172 1272.8 161.459 1271.29 Q159.769 1269.79 156.76 1269.79 Q153.728 1269.79 152.038 1271.29 Q150.371 1272.8 150.371 1275.48 Z" fill="#000000" fill-rule="evenodd" fill-opacity="1" /><path clip-path="url(#clip170)" d="M127.084 1100.95 Q123.936 1100.95 122.084 1103.1 Q120.255 1105.25 120.255 1109 Q120.255 1112.73 122.084 1114.91 Q123.936 1117.06 127.084 1117.06 Q130.232 1117.06 132.061 1114.91 Q133.913 1112.73 133.913 1109 Q133.913 1105.25 132.061 1103.1 Q130.232 1100.95 127.084 1100.95 M136.367 1086.3 L136.367 1090.55 Q134.607 1089.72 132.802 1089.28 Q131.019 1088.84 129.26 1088.84 Q124.63 1088.84 122.177 1091.97 Q119.746 1095.09 119.399 1101.41 Q120.765 1099.4 122.825 1098.33 Q124.885 1097.24 127.362 1097.24 Q132.57 1097.24 135.579 1100.42 Q138.612 1103.56 138.612 1109 Q138.612 1114.33 135.464 1117.55 Q132.316 1120.76 127.084 1120.76 Q121.089 1120.76 117.918 1116.18 Q114.746 1111.57 114.746 1102.85 Q114.746 1094.65 118.635 1089.79 Q122.524 1084.91 129.075 1084.91 Q130.834 1084.91 132.617 1085.25 Q134.422 1085.6 136.367 1086.3 Z" fill="#000000" fill-rule="evenodd" fill-opacity="1" /><path clip-path="url(#clip170)" d="M156.667 1088.61 Q153.056 1088.61 151.228 1092.17 Q149.422 1095.72 149.422 1102.85 Q149.422 1109.95 151.228 1113.52 Q153.056 1117.06 156.667 1117.06 Q160.302 1117.06 162.107 1113.52 Q163.936 1109.95 163.936 1102.85 Q163.936 1095.72 162.107 1092.17 Q160.302 1088.61 156.667 1088.61 M156.667 1084.91 Q162.477 1084.91 165.533 1089.51 Q168.612 1094.1 168.612 1102.85 Q168.612 1111.57 165.533 1116.18 Q162.477 1120.76 156.667 1120.76 Q150.857 1120.76 147.778 1116.18 Q144.723 1111.57 144.723 1102.85 Q144.723 1094.1 147.778 1089.51 Q150.857 1084.91 156.667 1084.91 Z" fill="#000000" fill-rule="evenodd" fill-opacity="1" /><path clip-path="url(#clip170)" d="M128.681 919.771 Q125.533 919.771 123.681 921.923 Q121.853 924.076 121.853 927.826 Q121.853 931.553 123.681 933.729 Q125.533 935.882 128.681 935.882 Q131.83 935.882 133.658 933.729 Q135.51 931.553 135.51 927.826 Q135.51 924.076 133.658 921.923 Q131.83 919.771 128.681 919.771 M137.964 905.118 L137.964 909.377 Q136.204 908.544 134.399 908.104 Q132.617 907.664 130.857 907.664 Q126.228 907.664 123.774 910.789 Q121.343 913.914 120.996 920.234 Q122.362 918.22 124.422 917.155 Q126.482 916.067 128.959 916.067 Q134.167 916.067 137.177 919.238 Q140.209 922.386 140.209 927.826 Q140.209 933.15 137.061 936.368 Q133.913 939.585 128.681 939.585 Q122.686 939.585 119.515 935.002 Q116.343 930.396 116.343 921.669 Q116.343 913.474 120.232 908.613 Q124.121 903.729 130.672 903.729 Q132.431 903.729 134.214 904.076 Q136.019 904.424 137.964 905.118 Z" fill="#000000" fill-rule="evenodd" fill-opacity="1" /><path clip-path="url(#clip170)" d="M152.292 934.979 L168.612 934.979 L168.612 938.914 L146.667 938.914 L146.667 934.979 Q149.329 932.224 153.913 927.595 Q158.519 922.942 159.7 921.599 Q161.945 919.076 162.825 917.34 Q163.727 915.581 163.727 913.891 Q163.727 911.136 161.783 909.4 Q159.862 907.664 156.76 907.664 Q154.561 907.664 152.107 908.428 Q149.677 909.192 146.899 910.743 L146.899 906.021 Q149.723 904.887 152.177 904.308 Q154.63 903.729 156.667 903.729 Q162.038 903.729 165.232 906.414 Q168.427 909.099 168.427 913.59 Q168.427 915.72 167.616 917.641 Q166.829 919.539 164.723 922.132 Q164.144 922.803 161.042 926.021 Q157.94 929.215 152.292 934.979 Z" fill="#000000" fill-rule="evenodd" fill-opacity="1" /><path clip-path="url(#clip170)" d="M126.598 738.593 Q123.45 738.593 121.598 740.746 Q119.769 742.899 119.769 746.649 Q119.769 750.376 121.598 752.552 Q123.45 754.704 126.598 754.704 Q129.746 754.704 131.575 752.552 Q133.427 750.376 133.427 746.649 Q133.427 742.899 131.575 740.746 Q129.746 738.593 126.598 738.593 M135.88 723.941 L135.88 728.2 Q134.121 727.367 132.316 726.927 Q130.533 726.487 128.774 726.487 Q124.144 726.487 121.691 729.612 Q119.26 732.737 118.913 739.056 Q120.279 737.042 122.339 735.978 Q124.399 734.89 126.876 734.89 Q132.084 734.89 135.093 738.061 Q138.126 741.209 138.126 746.649 Q138.126 751.973 134.978 755.19 Q131.83 758.408 126.598 758.408 Q120.603 758.408 117.431 753.825 Q114.26 749.218 114.26 740.491 Q114.26 732.297 118.149 727.436 Q122.038 722.552 128.589 722.552 Q130.348 722.552 132.13 722.899 Q133.936 723.246 135.88 723.941 Z" fill="#000000" fill-rule="evenodd" fill-opacity="1" /><path clip-path="url(#clip170)" d="M159.028 727.251 L147.223 745.7 L159.028 745.7 L159.028 727.251 M157.802 723.177 L163.681 723.177 L163.681 745.7 L168.612 745.7 L168.612 749.589 L163.681 749.589 L163.681 757.737 L159.028 757.737 L159.028 749.589 L143.427 749.589 L143.427 745.075 L157.802 723.177 Z" fill="#000000" fill-rule="evenodd" fill-opacity="1" /><path clip-path="url(#clip170)" d="M126.922 557.416 Q123.774 557.416 121.922 559.569 Q120.093 561.722 120.093 565.472 Q120.093 569.198 121.922 571.374 Q123.774 573.527 126.922 573.527 Q130.07 573.527 131.899 571.374 Q133.751 569.198 133.751 565.472 Q133.751 561.722 131.899 559.569 Q130.07 557.416 126.922 557.416 M136.204 542.763 L136.204 547.023 Q134.445 546.189 132.64 545.749 Q130.857 545.31 129.098 545.31 Q124.468 545.31 122.015 548.435 Q119.584 551.56 119.237 557.879 Q120.603 555.865 122.663 554.8 Q124.723 553.712 127.2 553.712 Q132.408 553.712 135.417 556.884 Q138.45 560.032 138.45 565.472 Q138.45 570.796 135.302 574.013 Q132.154 577.231 126.922 577.231 Q120.927 577.231 117.756 572.647 Q114.584 568.041 114.584 559.314 Q114.584 551.12 118.473 546.259 Q122.362 541.374 128.913 541.374 Q130.672 541.374 132.455 541.722 Q134.26 542.069 136.204 542.763 Z" fill="#000000" fill-rule="evenodd" fill-opacity="1" /><path clip-path="url(#clip170)" d="M157.084 557.416 Q153.936 557.416 152.084 559.569 Q150.255 561.722 150.255 565.472 Q150.255 569.198 152.084 571.374 Q153.936 573.527 157.084 573.527 Q160.232 573.527 162.061 571.374 Q163.913 569.198 163.913 565.472 Q163.913 561.722 162.061 559.569 Q160.232 557.416 157.084 557.416 M166.366 542.763 L166.366 547.023 Q164.607 546.189 162.802 545.749 Q161.019 545.31 159.26 545.31 Q154.63 545.31 152.177 548.435 Q149.746 551.56 149.399 557.879 Q150.765 555.865 152.825 554.8 Q154.885 553.712 157.362 553.712 Q162.57 553.712 165.579 556.884 Q168.612 560.032 168.612 565.472 Q168.612 570.796 165.464 574.013 Q162.315 577.231 157.084 577.231 Q151.089 577.231 147.917 572.647 Q144.746 568.041 144.746 559.314 Q144.746 551.12 148.635 546.259 Q152.524 541.374 159.075 541.374 Q160.834 541.374 162.616 541.722 Q164.422 542.069 166.366 542.763 Z" fill="#000000" fill-rule="evenodd" fill-opacity="1" /><path clip-path="url(#clip170)" d="M127.177 376.239 Q124.029 376.239 122.177 378.391 Q120.348 380.544 120.348 384.294 Q120.348 388.021 122.177 390.197 Q124.029 392.35 127.177 392.35 Q130.325 392.35 132.154 390.197 Q134.005 388.021 134.005 384.294 Q134.005 380.544 132.154 378.391 Q130.325 376.239 127.177 376.239 M136.459 361.586 L136.459 365.845 Q134.7 365.012 132.894 364.572 Q131.112 364.132 129.353 364.132 Q124.723 364.132 122.269 367.257 Q119.839 370.382 119.492 376.702 Q120.857 374.688 122.918 373.623 Q124.978 372.535 127.455 372.535 Q132.663 372.535 135.672 375.706 Q138.704 378.854 138.704 384.294 Q138.704 389.618 135.556 392.836 Q132.408 396.053 127.177 396.053 Q121.181 396.053 118.01 391.47 Q114.839 386.864 114.839 378.137 Q114.839 369.942 118.728 365.081 Q122.617 360.197 129.167 360.197 Q130.927 360.197 132.709 360.544 Q134.515 360.892 136.459 361.586 Z" fill="#000000" fill-rule="evenodd" fill-opacity="1" /><path clip-path="url(#clip170)" d="M156.76 378.97 Q153.427 378.97 151.505 380.753 Q149.607 382.535 149.607 385.66 Q149.607 388.785 151.505 390.567 Q153.427 392.35 156.76 392.35 Q160.093 392.35 162.015 390.567 Q163.936 388.762 163.936 385.66 Q163.936 382.535 162.015 380.753 Q160.116 378.97 156.76 378.97 M152.084 376.979 Q149.075 376.239 147.385 374.179 Q145.718 372.118 145.718 369.155 Q145.718 365.012 148.658 362.604 Q151.621 360.197 156.76 360.197 Q161.922 360.197 164.862 362.604 Q167.802 365.012 167.802 369.155 Q167.802 372.118 166.112 374.179 Q164.445 376.239 161.459 376.979 Q164.839 377.766 166.714 380.058 Q168.612 382.35 168.612 385.66 Q168.612 390.683 165.533 393.368 Q162.477 396.053 156.76 396.053 Q151.042 396.053 147.964 393.368 Q144.908 390.683 144.908 385.66 Q144.908 382.35 146.806 380.058 Q148.704 377.766 152.084 376.979 M150.371 369.595 Q150.371 372.28 152.038 373.785 Q153.728 375.29 156.76 375.29 Q159.769 375.29 161.459 373.785 Q163.172 372.28 163.172 369.595 Q163.172 366.91 161.459 365.405 Q159.769 363.901 156.76 363.901 Q153.728 363.901 152.038 365.405 Q150.371 366.91 150.371 369.595 Z" fill="#000000" fill-rule="evenodd" fill-opacity="1" /><path clip-path="url(#clip170)" d="M115.325 179.645 L137.547 179.645 L137.547 181.635 L125.001 214.205 L120.117 214.205 L131.922 183.58 L115.325 183.58 L115.325 179.645 Z" fill="#000000" fill-rule="evenodd" fill-opacity="1" /><path clip-path="url(#clip170)" d="M156.667 182.723 Q153.056 182.723 151.228 186.288 Q149.422 189.83 149.422 196.959 Q149.422 204.066 151.228 207.631 Q153.056 211.172 156.667 211.172 Q160.302 211.172 162.107 207.631 Q163.936 204.066 163.936 196.959 Q163.936 189.83 162.107 186.288 Q160.302 182.723 156.667 182.723 M156.667 179.02 Q162.477 179.02 165.533 183.626 Q168.612 188.21 168.612 196.959 Q168.612 205.686 165.533 210.293 Q162.477 214.876 156.667 214.876 Q150.857 214.876 147.778 210.293 Q144.723 205.686 144.723 196.959 Q144.723 188.21 147.778 183.626 Q150.857 179.02 156.667 179.02 Z" fill="#000000" fill-rule="evenodd" fill-opacity="1" /><path clip-path="url(#clip170)" d="M41.7242 821.755 Q42.4244 819.686 44.7161 817.745 Q47.0077 815.771 51.0181 813.798 L64.0042 807.273 L64.0042 814.18 L51.8138 820.259 Q47.0395 822.614 45.48 824.842 Q43.9204 827.039 43.9204 830.858 L43.9204 837.86 L64.0042 837.86 L64.0042 844.29 L16.4842 844.29 L16.4842 829.776 Q16.4842 821.628 19.8898 817.617 Q23.2955 813.607 30.1704 813.607 Q34.6582 813.607 37.6183 815.708 Q40.5784 817.776 41.7242 821.755 M21.7677 837.86 L38.6368 837.86 L38.6368 829.776 Q38.6368 825.129 36.5043 822.774 Q34.34 820.386 30.1704 820.386 Q26.0009 820.386 23.9002 822.774 Q21.7677 825.129 21.7677 829.776 L21.7677 837.86 Z" fill="#000000" fill-rule="evenodd" fill-opacity="1" /><path clip-path="url(#clip170)" d="M44.7161 771.689 L47.5806 771.689 L47.5806 798.616 Q53.6281 798.234 56.8109 794.987 Q59.9619 791.709 59.9619 785.884 Q59.9619 782.51 59.1344 779.359 Q58.3069 776.177 56.6518 773.057 L62.1899 773.057 Q63.5267 776.208 64.227 779.519 Q64.9272 782.829 64.9272 786.234 Q64.9272 794.764 59.9619 799.762 Q54.9967 804.727 46.5303 804.727 Q37.7774 804.727 32.6531 800.016 Q27.4968 795.274 27.4968 787.253 Q27.4968 780.06 32.1438 775.89 Q36.7589 771.689 44.7161 771.689 M42.9973 777.545 Q38.1912 777.609 35.3266 780.251 Q32.4621 782.861 32.4621 787.189 Q32.4621 792.091 35.2312 795.051 Q38.0002 797.979 43.0292 798.425 L42.9973 777.545 Z" fill="#000000" fill-rule="evenodd" fill-opacity="1" /><path clip-path="url(#clip170)" d="M28.3562 765.482 L28.3562 759.626 L56.1743 752.305 L28.3562 745.016 L28.3562 738.11 L56.1743 730.789 L28.3562 723.5 L28.3562 717.644 L64.0042 726.97 L64.0042 733.876 L34.7856 741.547 L64.0042 749.25 L64.0042 756.156 L28.3562 765.482 Z" fill="#000000" fill-rule="evenodd" fill-opacity="1" /><path clip-path="url(#clip170)" d="M46.0847 692.563 Q46.0847 699.661 47.7079 702.398 Q49.3312 705.135 53.2461 705.135 Q56.3653 705.135 58.2114 703.098 Q60.0256 701.029 60.0256 697.496 Q60.0256 692.627 56.5881 689.698 Q53.1188 686.738 47.3897 686.738 L46.0847 686.738 L46.0847 692.563 M43.6657 680.882 L64.0042 680.882 L64.0042 686.738 L58.5933 686.738 Q61.8398 688.744 63.3994 691.735 Q64.9272 694.727 64.9272 699.056 Q64.9272 704.531 61.8716 707.777 Q58.7843 710.992 53.6281 710.992 Q47.6125 710.992 44.5569 706.981 Q41.5014 702.939 41.5014 694.95 L41.5014 686.738 L40.9285 686.738 Q36.8862 686.738 34.6901 689.412 Q32.4621 692.054 32.4621 696.86 Q32.4621 699.915 33.1941 702.812 Q33.9262 705.708 35.3903 708.382 L29.9795 708.382 Q28.7381 705.167 28.1334 702.143 Q27.4968 699.12 27.4968 696.255 Q27.4968 688.521 31.5072 684.701 Q35.5176 680.882 43.6657 680.882 Z" fill="#000000" fill-rule="evenodd" fill-opacity="1" /><path clip-path="url(#clip170)" d="M33.8307 648.162 Q33.2578 649.149 33.0032 650.327 Q32.7167 651.472 32.7167 652.873 Q32.7167 657.838 35.9632 660.512 Q39.1779 663.153 45.2253 663.153 L64.0042 663.153 L64.0042 669.042 L28.3562 669.042 L28.3562 663.153 L33.8944 663.153 Q30.6479 661.307 29.0883 658.347 Q27.4968 655.387 27.4968 651.154 Q27.4968 650.549 27.5923 649.817 Q27.656 649.085 27.8151 648.194 L33.8307 648.162 Z" fill="#000000" fill-rule="evenodd" fill-opacity="1" /><path clip-path="url(#clip170)" d="M33.7671 619.708 L14.479 619.708 L14.479 613.851 L64.0042 613.851 L64.0042 619.708 L58.657 619.708 Q61.8398 621.554 63.3994 624.386 Q64.9272 627.187 64.9272 631.134 Q64.9272 637.595 59.771 641.669 Q54.6147 645.711 46.212 645.711 Q37.8093 645.711 32.6531 641.669 Q27.4968 637.595 27.4968 631.134 Q27.4968 627.187 29.0564 624.386 Q30.5842 621.554 33.7671 619.708 M46.212 639.664 Q52.6732 639.664 56.3653 637.022 Q60.0256 634.349 60.0256 629.702 Q60.0256 625.055 56.3653 622.381 Q52.6732 619.708 46.212 619.708 Q39.7508 619.708 36.0905 622.381 Q32.3984 625.055 32.3984 629.702 Q32.3984 634.349 36.0905 637.022 Q39.7508 639.664 46.212 639.664 Z" fill="#000000" fill-rule="evenodd" fill-opacity="1" /><polyline clip-path="url(#clip172)" style="stroke:#009af9; stroke-linecap:round; stroke-linejoin:round; stroke-width:4; stroke-opacity:1; fill:none" points="
  265.408,1372.3 279.009,481.271 292.61,285.779 306.211,280.469 319.812,293.025 333.413,256.341 347.014,317.145 360.615,203.235 374.216,272.767 387.817,168.559 
  401.418,160.687 415.019,145.116 428.62,182.885 442.221,154.494 455.822,301.468 469.423,224.674 483.024,264.596 496.625,242.623 510.227,144.803 523.828,185.794 
  537.429,162.906 551.03,224.7 564.631,178.105 578.232,144.033 591.833,175.965 605.434,181.231 619.035,242.442 632.636,244.56 646.237,290.043 659.838,164.738 
  673.439,249.657 687.04,195.664 700.641,168.127 714.242,272.853 727.843,375.016 741.444,225.647 755.045,310.71 768.646,230.996 782.247,219.795 795.848,358.213 
  809.449,213.398 823.05,197.48 836.651,224.994 850.252,221.976 863.853,160.605 877.454,241.867 891.055,235.371 904.656,180.46 918.257,206.813 931.858,196.04 
  945.459,244.131 959.06,213.421 972.661,239.498 986.262,200.179 999.863,214.649 1013.46,247.891 1027.07,267.302 1040.67,243.367 1054.27,174.817 1067.87,294.876 
  1081.47,189.081 1095.07,241.273 1108.67,224.467 1122.27,185.794 1135.87,207.127 1149.47,225.21 1163.08,199.256 1176.68,209.729 1190.28,204.856 1203.88,157.874 
  1217.48,182.779 1231.08,162.24 1244.68,176.729 1258.28,155.759 1271.88,155.823 1285.48,141.844 1299.09,181.449 1312.69,167.007 1326.29,190.976 1339.89,159.569 
  1353.49,149.429 1367.09,132.001 1380.69,167.61 1394.29,190.5 1407.89,254.97 1421.49,152.443 1435.1,233.359 1448.7,217.298 1462.3,188.363 1475.9,202.055 
  1489.5,173.502 1503.1,179.175 1516.7,283.335 1530.3,212.846 1543.9,148.399 1557.5,118.057 1571.11,153.843 1584.71,142.795 1598.31,145.904 1611.91,132.82 
  1625.51,112.284 1639.11,121.853 1652.71,119.956 1666.31,142.5 1679.91,155.415 1693.51,216.553 1707.12,175.816 1720.72,220.233 1734.32,241.962 1747.92,177.935 
  1761.52,133.924 1775.12,204.894 1788.72,199.353 1802.32,120.51 1815.92,190.67 1829.52,204.214 1843.13,237.233 1856.73,196.236 1870.33,161.493 1883.93,162.264 
  1897.53,198.08 1911.13,132.614 1924.73,210.627 1938.33,208.346 1951.93,189.36 1965.54,196.428 1979.14,170.883 1992.74,114.319 2006.34,240.317 2019.94,157.855 
  2033.54,211.693 2047.14,198.25 2060.74,180.671 2074.34,212.875 2087.94,121.425 2101.55,205.252 2115.15,170.518 2128.75,263.342 2142.35,183.211 2155.95,138.473 
  2169.55,115.282 2183.15,145.274 2196.75,153.538 2210.35,173.775 2223.95,125.877 2237.56,85.838 2251.16,184.778 2264.76,124.5 2278.36,170.44 2291.96,130.652 
  
  "/>
</svg>
