<?xml version="1.0" encoding="utf-8"?>
<svg xmlns="http://www.w3.org/2000/svg" xmlns:xlink="http://www.w3.org/1999/xlink" width="600" height="400" viewBox="0 0 2400 1600">
<defs>
  <clipPath id="clip080">
    <rect x="0" y="0" width="2400" height="1600"/>
  </clipPath>
</defs>
<path clip-path="url(#clip080)" d="
M0 1600 L2400 1600 L2400 0 L0 0  Z
  " fill="#ffffff" fill-rule="evenodd" fill-opacity="1"/>
<defs>
  <clipPath id="clip081">
    <rect x="480" y="0" width="1681" height="1600"/>
  </clipPath>
</defs>
<path clip-path="url(#clip080)" d="
M175.445 1423.18 L2352.76 1423.18 L2352.76 47.2441 L175.445 47.2441  Z
  " fill="#ffffff" fill-rule="evenodd" fill-opacity="1"/>
<defs>
  <clipPath id="clip082">
    <rect x="175" y="47" width="2178" height="1377"/>
  </clipPath>
</defs>
<polyline clip-path="url(#clip082)" style="stroke:#000000; stroke-linecap:round; stroke-linejoin:round; stroke-width:2; stroke-opacity:0.1; fill:none" points="
  223.282,1423.18 223.282,47.2441 
  "/>
<polyline clip-path="url(#clip082)" style="stroke:#000000; stroke-linecap:round; stroke-linejoin:round; stroke-width:2; stroke-opacity:0.1; fill:none" points="
  567.924,1423.18 567.924,47.2441 
  "/>
<polyline clip-path="url(#clip082)" style="stroke:#000000; stroke-linecap:round; stroke-linejoin:round; stroke-width:2; stroke-opacity:0.1; fill:none" points="
  912.566,1423.18 912.566,47.2441 
  "/>
<polyline clip-path="url(#clip082)" style="stroke:#000000; stroke-linecap:round; stroke-linejoin:round; stroke-width:2; stroke-opacity:0.1; fill:none" points="
  1257.21,1423.18 1257.21,47.2441 
  "/>
<polyline clip-path="url(#clip082)" style="stroke:#000000; stroke-linecap:round; stroke-linejoin:round; stroke-width:2; stroke-opacity:0.1; fill:none" points="
  1601.85,1423.18 1601.85,47.2441 
  "/>
<polyline clip-path="url(#clip082)" style="stroke:#000000; stroke-linecap:round; stroke-linejoin:round; stroke-width:2; stroke-opacity:0.1; fill:none" points="
  1946.49,1423.18 1946.49,47.2441 
  "/>
<polyline clip-path="url(#clip082)" style="stroke:#000000; stroke-linecap:round; stroke-linejoin:round; stroke-width:2; stroke-opacity:0.1; fill:none" points="
  2291.13,1423.18 2291.13,47.2441 
  "/>
<polyline clip-path="url(#clip080)" style="stroke:#000000; stroke-linecap:round; stroke-linejoin:round; stroke-width:4; stroke-opacity:1; fill:none" points="
  175.445,1423.18 2352.76,1423.18 
  "/>
<polyline clip-path="url(#clip080)" style="stroke:#000000; stroke-linecap:round; stroke-linejoin:round; stroke-width:4; stroke-opacity:1; fill:none" points="
  223.282,1423.18 223.282,1404.28 
  "/>
<polyline clip-path="url(#clip080)" style="stroke:#000000; stroke-linecap:round; stroke-linejoin:round; stroke-width:4; stroke-opacity:1; fill:none" points="
  567.924,1423.18 567.924,1404.28 
  "/>
<polyline clip-path="url(#clip080)" style="stroke:#000000; stroke-linecap:round; stroke-linejoin:round; stroke-width:4; stroke-opacity:1; fill:none" points="
  912.566,1423.18 912.566,1404.28 
  "/>
<polyline clip-path="url(#clip080)" style="stroke:#000000; stroke-linecap:round; stroke-linejoin:round; stroke-width:4; stroke-opacity:1; fill:none" points="
  1257.21,1423.18 1257.21,1404.28 
  "/>
<polyline clip-path="url(#clip080)" style="stroke:#000000; stroke-linecap:round; stroke-linejoin:round; stroke-width:4; stroke-opacity:1; fill:none" points="
  1601.85,1423.18 1601.85,1404.28 
  "/>
<polyline clip-path="url(#clip080)" style="stroke:#000000; stroke-linecap:round; stroke-linejoin:round; stroke-width:4; stroke-opacity:1; fill:none" points="
  1946.49,1423.18 1946.49,1404.28 
  "/>
<polyline clip-path="url(#clip080)" style="stroke:#000000; stroke-linecap:round; stroke-linejoin:round; stroke-width:4; stroke-opacity:1; fill:none" points="
  2291.13,1423.18 2291.13,1404.28 
  "/>
<path clip-path="url(#clip080)" d="M131.083 1454.1 Q127.472 1454.1 125.643 1457.66 Q123.838 1461.2 123.838 1468.33 Q123.838 1475.44 125.643 1479.01 Q127.472 1482.55 131.083 1482.55 Q134.717 1482.55 136.523 1479.01 Q138.351 1475.44 138.351 1468.33 Q138.351 1461.2 136.523 1457.66 Q134.717 1454.1 131.083 1454.1 M131.083 1450.39 Q136.893 1450.39 139.949 1455 Q143.027 1459.58 143.027 1468.33 Q143.027 1477.06 139.949 1481.67 Q136.893 1486.25 131.083 1486.25 Q125.273 1486.25 122.194 1481.67 Q119.139 1477.06 119.139 1468.33 Q119.139 1459.58 122.194 1455 Q125.273 1450.39 131.083 1450.39 Z" fill="#000000" fill-rule="evenodd" fill-opacity="1" /><path clip-path="url(#clip080)" d="M151.245 1479.7 L156.129 1479.7 L156.129 1485.58 L151.245 1485.58 L151.245 1479.7 Z" fill="#000000" fill-rule="evenodd" fill-opacity="1" /><path clip-path="url(#clip080)" d="M176.314 1454.1 Q172.703 1454.1 170.874 1457.66 Q169.069 1461.2 169.069 1468.33 Q169.069 1475.44 170.874 1479.01 Q172.703 1482.55 176.314 1482.55 Q179.948 1482.55 181.754 1479.01 Q183.583 1475.44 183.583 1468.33 Q183.583 1461.2 181.754 1457.66 Q179.948 1454.1 176.314 1454.1 M176.314 1450.39 Q182.124 1450.39 185.18 1455 Q188.259 1459.58 188.259 1468.33 Q188.259 1477.06 185.18 1481.67 Q182.124 1486.25 176.314 1486.25 Q170.504 1486.25 167.425 1481.67 Q164.37 1477.06 164.37 1468.33 Q164.37 1459.58 167.425 1455 Q170.504 1450.39 176.314 1450.39 Z" fill="#000000" fill-rule="evenodd" fill-opacity="1" /><path clip-path="url(#clip080)" d="M206.476 1454.1 Q202.865 1454.1 201.036 1457.66 Q199.231 1461.2 199.231 1468.33 Q199.231 1475.44 201.036 1479.01 Q202.865 1482.55 206.476 1482.55 Q210.11 1482.55 211.916 1479.01 Q213.745 1475.44 213.745 1468.33 Q213.745 1461.2 211.916 1457.66 Q210.11 1454.1 206.476 1454.1 M206.476 1450.39 Q212.286 1450.39 215.342 1455 Q218.42 1459.58 218.42 1468.33 Q218.42 1477.06 215.342 1481.67 Q212.286 1486.25 206.476 1486.25 Q200.666 1486.25 197.587 1481.67 Q194.532 1477.06 194.532 1468.33 Q194.532 1459.58 197.587 1455 Q200.666 1450.39 206.476 1450.39 Z" fill="#000000" fill-rule="evenodd" fill-opacity="1" /><path clip-path="url(#clip080)" d="M247.587 1459.65 L238.212 1472.27 L248.073 1485.58 L243.05 1485.58 L235.504 1475.39 L227.957 1485.58 L222.934 1485.58 L233.004 1472.02 L223.791 1459.65 L228.814 1459.65 L235.689 1468.89 L242.564 1459.65 L247.587 1459.65 Z" fill="#000000" fill-rule="evenodd" fill-opacity="1" /><path clip-path="url(#clip080)" d="M255.504 1481.64 L263.142 1481.64 L263.142 1455.28 L254.832 1456.95 L254.832 1452.69 L263.096 1451.02 L267.772 1451.02 L267.772 1481.64 L275.411 1481.64 L275.411 1485.58 L255.504 1485.58 L255.504 1481.64 Z" fill="#000000" fill-rule="evenodd" fill-opacity="1" /><path clip-path="url(#clip080)" d="M294.855 1454.1 Q291.244 1454.1 289.415 1457.66 Q287.61 1461.2 287.61 1468.33 Q287.61 1475.44 289.415 1479.01 Q291.244 1482.55 294.855 1482.55 Q298.489 1482.55 300.295 1479.01 Q302.124 1475.44 302.124 1468.33 Q302.124 1461.2 300.295 1457.66 Q298.489 1454.1 294.855 1454.1 M294.855 1450.39 Q300.665 1450.39 303.721 1455 Q306.8 1459.58 306.8 1468.33 Q306.8 1477.06 303.721 1481.67 Q300.665 1486.25 294.855 1486.25 Q289.045 1486.25 285.966 1481.67 Q282.911 1477.06 282.911 1468.33 Q282.911 1459.58 285.966 1455 Q289.045 1450.39 294.855 1450.39 Z" fill="#000000" fill-rule="evenodd" fill-opacity="1" /><path clip-path="url(#clip080)" d="M320.017 1459.35 Q317.98 1459.35 316.8 1460.56 Q315.619 1461.78 315.619 1463.89 Q315.619 1465.97 316.8 1467.18 Q317.98 1468.4 320.017 1468.4 Q322.031 1468.4 323.212 1467.18 Q324.392 1465.97 324.392 1463.89 Q324.392 1461.78 323.212 1460.56 Q322.031 1459.35 320.017 1459.35 M325.989 1451.16 L325.989 1453.54 Q324.855 1453.08 323.698 1452.85 Q322.54 1452.59 321.406 1452.59 Q318.443 1452.59 316.869 1454.33 Q315.295 1456.09 315.063 1459.63 Q315.943 1458.5 317.263 1457.89 Q318.605 1457.29 320.179 1457.29 Q323.536 1457.29 325.48 1459.05 Q327.424 1460.83 327.424 1463.89 Q327.424 1466.83 325.387 1468.66 Q323.374 1470.46 320.017 1470.46 Q316.151 1470.46 314.114 1467.89 Q312.077 1465.33 312.077 1460.42 Q312.077 1455.83 314.577 1453.13 Q317.077 1450.39 321.29 1450.39 Q322.425 1450.39 323.582 1450.58 Q324.739 1450.79 325.989 1451.16 Z" fill="#000000" fill-rule="evenodd" fill-opacity="1" /><path clip-path="url(#clip080)" d="M475.725 1454.1 Q472.114 1454.1 470.285 1457.66 Q468.48 1461.2 468.48 1468.33 Q468.48 1475.44 470.285 1479.01 Q472.114 1482.55 475.725 1482.55 Q479.359 1482.55 481.165 1479.01 Q482.993 1475.44 482.993 1468.33 Q482.993 1461.2 481.165 1457.66 Q479.359 1454.1 475.725 1454.1 M475.725 1450.39 Q481.535 1450.39 484.591 1455 Q487.669 1459.58 487.669 1468.33 Q487.669 1477.06 484.591 1481.67 Q481.535 1486.25 475.725 1486.25 Q469.915 1486.25 466.836 1481.67 Q463.781 1477.06 463.781 1468.33 Q463.781 1459.58 466.836 1455 Q469.915 1450.39 475.725 1450.39 Z" fill="#000000" fill-rule="evenodd" fill-opacity="1" /><path clip-path="url(#clip080)" d="M495.887 1479.7 L500.771 1479.7 L500.771 1485.58 L495.887 1485.58 L495.887 1479.7 Z" fill="#000000" fill-rule="evenodd" fill-opacity="1" /><path clip-path="url(#clip080)" d="M514.984 1481.64 L531.303 1481.64 L531.303 1485.58 L509.359 1485.58 L509.359 1481.64 Q512.021 1478.89 516.604 1474.26 Q521.211 1469.61 522.391 1468.27 Q524.637 1465.74 525.516 1464.01 Q526.419 1462.25 526.419 1460.56 Q526.419 1457.8 524.475 1456.07 Q522.553 1454.33 519.452 1454.33 Q517.253 1454.33 514.799 1455.09 Q512.368 1455.86 509.591 1457.41 L509.591 1452.69 Q512.415 1451.55 514.868 1450.97 Q517.322 1450.39 519.359 1450.39 Q524.729 1450.39 527.924 1453.08 Q531.118 1455.77 531.118 1460.26 Q531.118 1462.39 530.308 1464.31 Q529.521 1466.2 527.415 1468.8 Q526.836 1469.47 523.734 1472.69 Q520.632 1475.88 514.984 1481.64 Z" fill="#000000" fill-rule="evenodd" fill-opacity="1" /><path clip-path="url(#clip080)" d="M541.164 1451.02 L559.521 1451.02 L559.521 1454.96 L545.447 1454.96 L545.447 1463.43 Q546.465 1463.08 547.484 1462.92 Q548.502 1462.73 549.521 1462.73 Q555.308 1462.73 558.688 1465.9 Q562.067 1469.08 562.067 1474.49 Q562.067 1480.07 558.595 1483.17 Q555.123 1486.25 548.803 1486.25 Q546.627 1486.25 544.359 1485.88 Q542.114 1485.51 539.706 1484.77 L539.706 1480.07 Q541.789 1481.2 544.012 1481.76 Q546.234 1482.32 548.711 1482.32 Q552.715 1482.32 555.053 1480.21 Q557.391 1478.1 557.391 1474.49 Q557.391 1470.88 555.053 1468.77 Q552.715 1466.67 548.711 1466.67 Q546.836 1466.67 544.961 1467.08 Q543.109 1467.5 541.164 1468.38 L541.164 1451.02 Z" fill="#000000" fill-rule="evenodd" fill-opacity="1" /><path clip-path="url(#clip080)" d="M592.229 1459.65 L582.854 1472.27 L592.715 1485.58 L587.692 1485.58 L580.146 1475.39 L572.599 1485.58 L567.576 1485.58 L577.646 1472.02 L568.433 1459.65 L573.456 1459.65 L580.331 1468.89 L587.206 1459.65 L592.229 1459.65 Z" fill="#000000" fill-rule="evenodd" fill-opacity="1" /><path clip-path="url(#clip080)" d="M600.146 1481.64 L607.784 1481.64 L607.784 1455.28 L599.474 1456.95 L599.474 1452.69 L607.738 1451.02 L612.414 1451.02 L612.414 1481.64 L620.053 1481.64 L620.053 1485.58 L600.146 1485.58 L600.146 1481.64 Z" fill="#000000" fill-rule="evenodd" fill-opacity="1" /><path clip-path="url(#clip080)" d="M639.497 1454.1 Q635.886 1454.1 634.057 1457.66 Q632.252 1461.2 632.252 1468.33 Q632.252 1475.44 634.057 1479.01 Q635.886 1482.55 639.497 1482.55 Q643.132 1482.55 644.937 1479.01 Q646.766 1475.44 646.766 1468.33 Q646.766 1461.2 644.937 1457.66 Q643.132 1454.1 639.497 1454.1 M639.497 1450.39 Q645.307 1450.39 648.363 1455 Q651.442 1459.58 651.442 1468.33 Q651.442 1477.06 648.363 1481.67 Q645.307 1486.25 639.497 1486.25 Q633.687 1486.25 630.608 1481.67 Q627.553 1477.06 627.553 1468.33 Q627.553 1459.58 630.608 1455 Q633.687 1450.39 639.497 1450.39 Z" fill="#000000" fill-rule="evenodd" fill-opacity="1" /><path clip-path="url(#clip080)" d="M664.659 1459.35 Q662.622 1459.35 661.442 1460.56 Q660.261 1461.78 660.261 1463.89 Q660.261 1465.97 661.442 1467.18 Q662.622 1468.4 664.659 1468.4 Q666.673 1468.4 667.854 1467.18 Q669.034 1465.97 669.034 1463.89 Q669.034 1461.78 667.854 1460.56 Q666.673 1459.35 664.659 1459.35 M670.631 1451.16 L670.631 1453.54 Q669.497 1453.08 668.34 1452.85 Q667.182 1452.59 666.048 1452.59 Q663.085 1452.59 661.511 1454.33 Q659.937 1456.09 659.706 1459.63 Q660.585 1458.5 661.905 1457.89 Q663.247 1457.29 664.821 1457.29 Q668.178 1457.29 670.122 1459.05 Q672.067 1460.83 672.067 1463.89 Q672.067 1466.83 670.03 1468.66 Q668.016 1470.46 664.659 1470.46 Q660.793 1470.46 658.756 1467.89 Q656.719 1465.33 656.719 1460.42 Q656.719 1455.83 659.219 1453.13 Q661.719 1450.39 665.932 1450.39 Q667.067 1450.39 668.224 1450.58 Q669.381 1450.79 670.631 1451.16 Z" fill="#000000" fill-rule="evenodd" fill-opacity="1" /><path clip-path="url(#clip080)" d="M820.367 1454.1 Q816.756 1454.1 814.927 1457.66 Q813.122 1461.2 813.122 1468.33 Q813.122 1475.44 814.927 1479.01 Q816.756 1482.55 820.367 1482.55 Q824.001 1482.55 825.807 1479.01 Q827.636 1475.44 827.636 1468.33 Q827.636 1461.2 825.807 1457.66 Q824.001 1454.1 820.367 1454.1 M820.367 1450.39 Q826.177 1450.39 829.233 1455 Q832.311 1459.58 832.311 1468.33 Q832.311 1477.06 829.233 1481.67 Q826.177 1486.25 820.367 1486.25 Q814.557 1486.25 811.478 1481.67 Q808.423 1477.06 808.423 1468.33 Q808.423 1459.58 811.478 1455 Q814.557 1450.39 820.367 1450.39 Z" fill="#000000" fill-rule="evenodd" fill-opacity="1" /><path clip-path="url(#clip080)" d="M840.529 1479.7 L845.413 1479.7 L845.413 1485.58 L840.529 1485.58 L840.529 1479.7 Z" fill="#000000" fill-rule="evenodd" fill-opacity="1" /><path clip-path="url(#clip080)" d="M855.645 1451.02 L874.001 1451.02 L874.001 1454.96 L859.927 1454.96 L859.927 1463.43 Q860.946 1463.08 861.964 1462.92 Q862.983 1462.73 864.001 1462.73 Q869.788 1462.73 873.168 1465.9 Q876.547 1469.08 876.547 1474.49 Q876.547 1480.07 873.075 1483.17 Q869.603 1486.25 863.284 1486.25 Q861.108 1486.25 858.839 1485.88 Q856.594 1485.51 854.186 1484.77 L854.186 1480.07 Q856.27 1481.2 858.492 1481.76 Q860.714 1482.32 863.191 1482.32 Q867.196 1482.32 869.533 1480.21 Q871.871 1478.1 871.871 1474.49 Q871.871 1470.88 869.533 1468.77 Q867.196 1466.67 863.191 1466.67 Q861.316 1466.67 859.441 1467.08 Q857.589 1467.5 855.645 1468.38 L855.645 1451.02 Z" fill="#000000" fill-rule="evenodd" fill-opacity="1" /><path clip-path="url(#clip080)" d="M895.76 1454.1 Q892.149 1454.1 890.32 1457.66 Q888.515 1461.2 888.515 1468.33 Q888.515 1475.44 890.32 1479.01 Q892.149 1482.55 895.76 1482.55 Q899.394 1482.55 901.2 1479.01 Q903.029 1475.44 903.029 1468.33 Q903.029 1461.2 901.2 1457.66 Q899.394 1454.1 895.76 1454.1 M895.76 1450.39 Q901.57 1450.39 904.626 1455 Q907.705 1459.58 907.705 1468.33 Q907.705 1477.06 904.626 1481.67 Q901.57 1486.25 895.76 1486.25 Q889.95 1486.25 886.871 1481.67 Q883.816 1477.06 883.816 1468.33 Q883.816 1459.58 886.871 1455 Q889.95 1450.39 895.76 1450.39 Z" fill="#000000" fill-rule="evenodd" fill-opacity="1" /><path clip-path="url(#clip080)" d="M936.871 1459.65 L927.496 1472.27 L937.357 1485.58 L932.334 1485.58 L924.788 1475.39 L917.242 1485.58 L912.218 1485.58 L922.288 1472.02 L913.075 1459.65 L918.098 1459.65 L924.973 1468.89 L931.848 1459.65 L936.871 1459.65 Z" fill="#000000" fill-rule="evenodd" fill-opacity="1" /><path clip-path="url(#clip080)" d="M944.788 1481.64 L952.427 1481.64 L952.427 1455.28 L944.116 1456.95 L944.116 1452.69 L952.38 1451.02 L957.056 1451.02 L957.056 1481.64 L964.695 1481.64 L964.695 1485.58 L944.788 1485.58 L944.788 1481.64 Z" fill="#000000" fill-rule="evenodd" fill-opacity="1" /><path clip-path="url(#clip080)" d="M984.139 1454.1 Q980.528 1454.1 978.7 1457.66 Q976.894 1461.2 976.894 1468.33 Q976.894 1475.44 978.7 1479.01 Q980.528 1482.55 984.139 1482.55 Q987.774 1482.55 989.579 1479.01 Q991.408 1475.44 991.408 1468.33 Q991.408 1461.2 989.579 1457.66 Q987.774 1454.1 984.139 1454.1 M984.139 1450.39 Q989.949 1450.39 993.005 1455 Q996.084 1459.58 996.084 1468.33 Q996.084 1477.06 993.005 1481.67 Q989.949 1486.25 984.139 1486.25 Q978.329 1486.25 975.251 1481.67 Q972.195 1477.06 972.195 1468.33 Q972.195 1459.58 975.251 1455 Q978.329 1450.39 984.139 1450.39 Z" fill="#000000" fill-rule="evenodd" fill-opacity="1" /><path clip-path="url(#clip080)" d="M1009.3 1459.35 Q1007.26 1459.35 1006.08 1460.56 Q1004.9 1461.78 1004.9 1463.89 Q1004.9 1465.97 1006.08 1467.18 Q1007.26 1468.4 1009.3 1468.4 Q1011.32 1468.4 1012.5 1467.18 Q1013.68 1465.97 1013.68 1463.89 Q1013.68 1461.78 1012.5 1460.56 Q1011.32 1459.35 1009.3 1459.35 M1015.27 1451.16 L1015.27 1453.54 Q1014.14 1453.08 1012.98 1452.85 Q1011.82 1452.59 1010.69 1452.59 Q1007.73 1452.59 1006.15 1454.33 Q1004.58 1456.09 1004.35 1459.63 Q1005.23 1458.5 1006.55 1457.89 Q1007.89 1457.29 1009.46 1457.29 Q1012.82 1457.29 1014.76 1459.05 Q1016.71 1460.83 1016.71 1463.89 Q1016.71 1466.83 1014.67 1468.66 Q1012.66 1470.46 1009.3 1470.46 Q1005.44 1470.46 1003.4 1467.89 Q1001.36 1465.33 1001.36 1460.42 Q1001.36 1455.83 1003.86 1453.13 Q1006.36 1450.39 1010.57 1450.39 Q1011.71 1450.39 1012.87 1450.58 Q1014.02 1450.79 1015.27 1451.16 Z" fill="#000000" fill-rule="evenodd" fill-opacity="1" /><path clip-path="url(#clip080)" d="M1165.01 1454.1 Q1161.4 1454.1 1159.57 1457.66 Q1157.76 1461.2 1157.76 1468.33 Q1157.76 1475.44 1159.57 1479.01 Q1161.4 1482.55 1165.01 1482.55 Q1168.64 1482.55 1170.45 1479.01 Q1172.28 1475.44 1172.28 1468.33 Q1172.28 1461.2 1170.45 1457.66 Q1168.64 1454.1 1165.01 1454.1 M1165.01 1450.39 Q1170.82 1450.39 1173.87 1455 Q1176.95 1459.58 1176.95 1468.33 Q1176.95 1477.06 1173.87 1481.67 Q1170.82 1486.25 1165.01 1486.25 Q1159.2 1486.25 1156.12 1481.67 Q1153.06 1477.06 1153.06 1468.33 Q1153.06 1459.58 1156.12 1455 Q1159.2 1450.39 1165.01 1450.39 Z" fill="#000000" fill-rule="evenodd" fill-opacity="1" /><path clip-path="url(#clip080)" d="M1185.17 1479.7 L1190.06 1479.7 L1190.06 1485.58 L1185.17 1485.58 L1185.17 1479.7 Z" fill="#000000" fill-rule="evenodd" fill-opacity="1" /><path clip-path="url(#clip080)" d="M1199.06 1451.02 L1221.28 1451.02 L1221.28 1453.01 L1208.74 1485.58 L1203.85 1485.58 L1215.66 1454.96 L1199.06 1454.96 L1199.06 1451.02 Z" fill="#000000" fill-rule="evenodd" fill-opacity="1" /><path clip-path="url(#clip080)" d="M1230.45 1451.02 L1248.8 1451.02 L1248.8 1454.96 L1234.73 1454.96 L1234.73 1463.43 Q1235.75 1463.08 1236.77 1462.92 Q1237.79 1462.73 1238.81 1462.73 Q1244.59 1462.73 1247.97 1465.9 Q1251.35 1469.08 1251.35 1474.49 Q1251.35 1480.07 1247.88 1483.17 Q1244.41 1486.25 1238.09 1486.25 Q1235.91 1486.25 1233.64 1485.88 Q1231.4 1485.51 1228.99 1484.77 L1228.99 1480.07 Q1231.07 1481.2 1233.3 1481.76 Q1235.52 1482.32 1237.99 1482.32 Q1242 1482.32 1244.34 1480.21 Q1246.68 1478.1 1246.68 1474.49 Q1246.68 1470.88 1244.34 1468.77 Q1242 1466.67 1237.99 1466.67 Q1236.12 1466.67 1234.24 1467.08 Q1232.39 1467.5 1230.45 1468.38 L1230.45 1451.02 Z" fill="#000000" fill-rule="evenodd" fill-opacity="1" /><path clip-path="url(#clip080)" d="M1281.51 1459.65 L1272.14 1472.27 L1282 1485.58 L1276.98 1485.58 L1269.43 1475.39 L1261.88 1485.58 L1256.86 1485.58 L1266.93 1472.02 L1257.72 1459.65 L1262.74 1459.65 L1269.62 1468.89 L1276.49 1459.65 L1281.51 1459.65 Z" fill="#000000" fill-rule="evenodd" fill-opacity="1" /><path clip-path="url(#clip080)" d="M1289.43 1481.64 L1297.07 1481.64 L1297.07 1455.28 L1288.76 1456.95 L1288.76 1452.69 L1297.02 1451.02 L1301.7 1451.02 L1301.7 1481.64 L1309.34 1481.64 L1309.34 1485.58 L1289.43 1485.58 L1289.43 1481.64 Z" fill="#000000" fill-rule="evenodd" fill-opacity="1" /><path clip-path="url(#clip080)" d="M1328.78 1454.1 Q1325.17 1454.1 1323.34 1457.66 Q1321.54 1461.2 1321.54 1468.33 Q1321.54 1475.44 1323.34 1479.01 Q1325.17 1482.55 1328.78 1482.55 Q1332.42 1482.55 1334.22 1479.01 Q1336.05 1475.44 1336.05 1468.33 Q1336.05 1461.2 1334.22 1457.66 Q1332.42 1454.1 1328.78 1454.1 M1328.78 1450.39 Q1334.59 1450.39 1337.65 1455 Q1340.73 1459.58 1340.73 1468.33 Q1340.73 1477.06 1337.65 1481.67 Q1334.59 1486.25 1328.78 1486.25 Q1322.97 1486.25 1319.89 1481.67 Q1316.84 1477.06 1316.84 1468.33 Q1316.84 1459.58 1319.89 1455 Q1322.97 1450.39 1328.78 1450.39 Z" fill="#000000" fill-rule="evenodd" fill-opacity="1" /><path clip-path="url(#clip080)" d="M1353.94 1459.35 Q1351.91 1459.35 1350.73 1460.56 Q1349.55 1461.78 1349.55 1463.89 Q1349.55 1465.97 1350.73 1467.18 Q1351.91 1468.4 1353.94 1468.4 Q1355.96 1468.4 1357.14 1467.18 Q1358.32 1465.97 1358.32 1463.89 Q1358.32 1461.78 1357.14 1460.56 Q1355.96 1459.35 1353.94 1459.35 M1359.92 1451.16 L1359.92 1453.54 Q1358.78 1453.08 1357.62 1452.85 Q1356.47 1452.59 1355.33 1452.59 Q1352.37 1452.59 1350.8 1454.33 Q1349.22 1456.09 1348.99 1459.63 Q1349.87 1458.5 1351.19 1457.89 Q1352.53 1457.29 1354.11 1457.29 Q1357.46 1457.29 1359.41 1459.05 Q1361.35 1460.83 1361.35 1463.89 Q1361.35 1466.83 1359.31 1468.66 Q1357.3 1470.46 1353.94 1470.46 Q1350.08 1470.46 1348.04 1467.89 Q1346 1465.33 1346 1460.42 Q1346 1455.83 1348.5 1453.13 Q1351 1450.39 1355.22 1450.39 Q1356.35 1450.39 1357.51 1450.58 Q1358.67 1450.79 1359.92 1451.16 Z" fill="#000000" fill-rule="evenodd" fill-opacity="1" /><path clip-path="url(#clip080)" d="M1499.42 1481.64 L1507.06 1481.64 L1507.06 1455.28 L1498.75 1456.95 L1498.75 1452.69 L1507.01 1451.02 L1511.69 1451.02 L1511.69 1481.64 L1519.33 1481.64 L1519.33 1485.58 L1499.42 1485.58 L1499.42 1481.64 Z" fill="#000000" fill-rule="evenodd" fill-opacity="1" /><path clip-path="url(#clip080)" d="M1528.77 1479.7 L1533.66 1479.7 L1533.66 1485.58 L1528.77 1485.58 L1528.77 1479.7 Z" fill="#000000" fill-rule="evenodd" fill-opacity="1" /><path clip-path="url(#clip080)" d="M1553.84 1454.1 Q1550.23 1454.1 1548.4 1457.66 Q1546.6 1461.2 1546.6 1468.33 Q1546.6 1475.44 1548.4 1479.01 Q1550.23 1482.55 1553.84 1482.55 Q1557.48 1482.55 1559.28 1479.01 Q1561.11 1475.44 1561.11 1468.33 Q1561.11 1461.2 1559.28 1457.66 Q1557.48 1454.1 1553.84 1454.1 M1553.84 1450.39 Q1559.65 1450.39 1562.71 1455 Q1565.79 1459.58 1565.79 1468.33 Q1565.79 1477.06 1562.71 1481.67 Q1559.65 1486.25 1553.84 1486.25 Q1548.03 1486.25 1544.95 1481.67 Q1541.9 1477.06 1541.9 1468.33 Q1541.9 1459.58 1544.95 1455 Q1548.03 1450.39 1553.84 1450.39 Z" fill="#000000" fill-rule="evenodd" fill-opacity="1" /><path clip-path="url(#clip080)" d="M1584 1454.1 Q1580.39 1454.1 1578.56 1457.66 Q1576.76 1461.2 1576.76 1468.33 Q1576.76 1475.44 1578.56 1479.01 Q1580.39 1482.55 1584 1482.55 Q1587.64 1482.55 1589.44 1479.01 Q1591.27 1475.44 1591.27 1468.33 Q1591.27 1461.2 1589.44 1457.66 Q1587.64 1454.1 1584 1454.1 M1584 1450.39 Q1589.81 1450.39 1592.87 1455 Q1595.95 1459.58 1595.95 1468.33 Q1595.95 1477.06 1592.87 1481.67 Q1589.81 1486.25 1584 1486.25 Q1578.19 1486.25 1575.11 1481.67 Q1572.06 1477.06 1572.06 1468.33 Q1572.06 1459.58 1575.11 1455 Q1578.19 1450.39 1584 1450.39 Z" fill="#000000" fill-rule="evenodd" fill-opacity="1" /><path clip-path="url(#clip080)" d="M1625.11 1459.65 L1615.74 1472.27 L1625.6 1485.58 L1620.58 1485.58 L1613.03 1475.39 L1605.48 1485.58 L1600.46 1485.58 L1610.53 1472.02 L1601.32 1459.65 L1606.34 1459.65 L1613.22 1468.89 L1620.09 1459.65 L1625.11 1459.65 Z" fill="#000000" fill-rule="evenodd" fill-opacity="1" /><path clip-path="url(#clip080)" d="M1633.03 1481.64 L1640.67 1481.64 L1640.67 1455.28 L1632.36 1456.95 L1632.36 1452.69 L1640.62 1451.02 L1645.3 1451.02 L1645.3 1481.64 L1652.94 1481.64 L1652.94 1485.58 L1633.03 1485.58 L1633.03 1481.64 Z" fill="#000000" fill-rule="evenodd" fill-opacity="1" /><path clip-path="url(#clip080)" d="M1672.38 1454.1 Q1668.77 1454.1 1666.94 1457.66 Q1665.14 1461.2 1665.14 1468.33 Q1665.14 1475.44 1666.94 1479.01 Q1668.77 1482.55 1672.38 1482.55 Q1676.02 1482.55 1677.82 1479.01 Q1679.65 1475.44 1679.65 1468.33 Q1679.65 1461.2 1677.82 1457.66 Q1676.02 1454.1 1672.38 1454.1 M1672.38 1450.39 Q1678.19 1450.39 1681.25 1455 Q1684.33 1459.58 1684.33 1468.33 Q1684.33 1477.06 1681.25 1481.67 Q1678.19 1486.25 1672.38 1486.25 Q1666.57 1486.25 1663.49 1481.67 Q1660.44 1477.06 1660.44 1468.33 Q1660.44 1459.58 1663.49 1455 Q1666.57 1450.39 1672.38 1450.39 Z" fill="#000000" fill-rule="evenodd" fill-opacity="1" /><path clip-path="url(#clip080)" d="M1697.54 1459.35 Q1695.51 1459.35 1694.33 1460.56 Q1693.15 1461.78 1693.15 1463.89 Q1693.15 1465.97 1694.33 1467.18 Q1695.51 1468.4 1697.54 1468.4 Q1699.56 1468.4 1700.74 1467.18 Q1701.92 1465.97 1701.92 1463.89 Q1701.92 1461.78 1700.74 1460.56 Q1699.56 1459.35 1697.54 1459.35 M1703.52 1451.16 L1703.52 1453.54 Q1702.38 1453.08 1701.22 1452.85 Q1700.07 1452.59 1698.93 1452.59 Q1695.97 1452.59 1694.4 1454.33 Q1692.82 1456.09 1692.59 1459.63 Q1693.47 1458.5 1694.79 1457.89 Q1696.13 1457.29 1697.71 1457.29 Q1701.06 1457.29 1703.01 1459.05 Q1704.95 1460.83 1704.95 1463.89 Q1704.95 1466.83 1702.91 1468.66 Q1700.9 1470.46 1697.54 1470.46 Q1693.68 1470.46 1691.64 1467.89 Q1689.6 1465.33 1689.6 1460.42 Q1689.6 1455.83 1692.1 1453.13 Q1694.6 1450.39 1698.82 1450.39 Q1699.95 1450.39 1701.11 1450.58 Q1702.27 1450.79 1703.52 1451.16 Z" fill="#000000" fill-rule="evenodd" fill-opacity="1" /><path clip-path="url(#clip080)" d="M1844.06 1481.64 L1851.7 1481.64 L1851.7 1455.28 L1843.39 1456.95 L1843.39 1452.69 L1851.65 1451.02 L1856.33 1451.02 L1856.33 1481.64 L1863.97 1481.64 L1863.97 1485.58 L1844.06 1485.58 L1844.06 1481.64 Z" fill="#000000" fill-rule="evenodd" fill-opacity="1" /><path clip-path="url(#clip080)" d="M1873.41 1479.7 L1878.3 1479.7 L1878.3 1485.58 L1873.41 1485.58 L1873.41 1479.7 Z" fill="#000000" fill-rule="evenodd" fill-opacity="1" /><path clip-path="url(#clip080)" d="M1892.51 1481.64 L1908.83 1481.64 L1908.83 1485.58 L1886.89 1485.58 L1886.89 1481.64 Q1889.55 1478.89 1894.13 1474.26 Q1898.74 1469.61 1899.92 1468.27 Q1902.16 1465.74 1903.04 1464.01 Q1903.95 1462.25 1903.95 1460.56 Q1903.95 1457.8 1902 1456.07 Q1900.08 1454.33 1896.98 1454.33 Q1894.78 1454.33 1892.33 1455.09 Q1889.89 1455.86 1887.12 1457.41 L1887.12 1452.69 Q1889.94 1451.55 1892.39 1450.97 Q1894.85 1450.39 1896.89 1450.39 Q1902.26 1450.39 1905.45 1453.08 Q1908.64 1455.77 1908.64 1460.26 Q1908.64 1462.39 1907.83 1464.31 Q1907.05 1466.2 1904.94 1468.8 Q1904.36 1469.47 1901.26 1472.69 Q1898.16 1475.88 1892.51 1481.64 Z" fill="#000000" fill-rule="evenodd" fill-opacity="1" /><path clip-path="url(#clip080)" d="M1918.69 1451.02 L1937.05 1451.02 L1937.05 1454.96 L1922.97 1454.96 L1922.97 1463.43 Q1923.99 1463.08 1925.01 1462.92 Q1926.03 1462.73 1927.05 1462.73 Q1932.83 1462.73 1936.21 1465.9 Q1939.59 1469.08 1939.59 1474.49 Q1939.59 1480.07 1936.12 1483.17 Q1932.65 1486.25 1926.33 1486.25 Q1924.15 1486.25 1921.89 1485.88 Q1919.64 1485.51 1917.23 1484.77 L1917.23 1480.07 Q1919.32 1481.2 1921.54 1481.76 Q1923.76 1482.32 1926.24 1482.32 Q1930.24 1482.32 1932.58 1480.21 Q1934.92 1478.1 1934.92 1474.49 Q1934.92 1470.88 1932.58 1468.77 Q1930.24 1466.67 1926.24 1466.67 Q1924.36 1466.67 1922.49 1467.08 Q1920.64 1467.5 1918.69 1468.38 L1918.69 1451.02 Z" fill="#000000" fill-rule="evenodd" fill-opacity="1" /><path clip-path="url(#clip080)" d="M1969.76 1459.65 L1960.38 1472.27 L1970.24 1485.58 L1965.22 1485.58 L1957.67 1475.39 L1950.13 1485.58 L1945.1 1485.58 L1955.17 1472.02 L1945.96 1459.65 L1950.98 1459.65 L1957.86 1468.89 L1964.73 1459.65 L1969.76 1459.65 Z" fill="#000000" fill-rule="evenodd" fill-opacity="1" /><path clip-path="url(#clip080)" d="M1977.67 1481.64 L1985.31 1481.64 L1985.31 1455.28 L1977 1456.95 L1977 1452.69 L1985.26 1451.02 L1989.94 1451.02 L1989.94 1481.64 L1997.58 1481.64 L1997.58 1485.58 L1977.67 1485.58 L1977.67 1481.64 Z" fill="#000000" fill-rule="evenodd" fill-opacity="1" /><path clip-path="url(#clip080)" d="M2017.02 1454.1 Q2013.41 1454.1 2011.58 1457.66 Q2009.78 1461.2 2009.78 1468.33 Q2009.78 1475.44 2011.58 1479.01 Q2013.41 1482.55 2017.02 1482.55 Q2020.66 1482.55 2022.46 1479.01 Q2024.29 1475.44 2024.29 1468.33 Q2024.29 1461.2 2022.46 1457.66 Q2020.66 1454.1 2017.02 1454.1 M2017.02 1450.39 Q2022.83 1450.39 2025.89 1455 Q2028.97 1459.58 2028.97 1468.33 Q2028.97 1477.06 2025.89 1481.67 Q2022.83 1486.25 2017.02 1486.25 Q2011.21 1486.25 2008.14 1481.67 Q2005.08 1477.06 2005.08 1468.33 Q2005.08 1459.58 2008.14 1455 Q2011.21 1450.39 2017.02 1450.39 Z" fill="#000000" fill-rule="evenodd" fill-opacity="1" /><path clip-path="url(#clip080)" d="M2042.19 1459.35 Q2040.15 1459.35 2038.97 1460.56 Q2037.79 1461.78 2037.79 1463.89 Q2037.79 1465.97 2038.97 1467.18 Q2040.15 1468.4 2042.19 1468.4 Q2044.2 1468.4 2045.38 1467.18 Q2046.56 1465.97 2046.56 1463.89 Q2046.56 1461.78 2045.38 1460.56 Q2044.2 1459.35 2042.19 1459.35 M2048.16 1451.16 L2048.16 1453.54 Q2047.02 1453.08 2045.87 1452.85 Q2044.71 1452.59 2043.57 1452.59 Q2040.61 1452.59 2039.04 1454.33 Q2037.46 1456.09 2037.23 1459.63 Q2038.11 1458.5 2039.43 1457.89 Q2040.77 1457.29 2042.35 1457.29 Q2045.7 1457.29 2047.65 1459.05 Q2049.59 1460.83 2049.59 1463.89 Q2049.59 1466.83 2047.56 1468.66 Q2045.54 1470.46 2042.19 1470.46 Q2038.32 1470.46 2036.28 1467.89 Q2034.25 1465.33 2034.25 1460.42 Q2034.25 1455.83 2036.75 1453.13 Q2039.25 1450.39 2043.46 1450.39 Q2044.59 1450.39 2045.75 1450.58 Q2046.91 1450.79 2048.16 1451.16 Z" fill="#000000" fill-rule="evenodd" fill-opacity="1" /><path clip-path="url(#clip080)" d="M2188.7 1481.64 L2196.34 1481.64 L2196.34 1455.28 L2188.03 1456.95 L2188.03 1452.69 L2196.3 1451.02 L2200.97 1451.02 L2200.97 1481.64 L2208.61 1481.64 L2208.61 1485.58 L2188.7 1485.58 L2188.7 1481.64 Z" fill="#000000" fill-rule="evenodd" fill-opacity="1" /><path clip-path="url(#clip080)" d="M2218.06 1479.7 L2222.94 1479.7 L2222.94 1485.58 L2218.06 1485.58 L2218.06 1479.7 Z" fill="#000000" fill-rule="evenodd" fill-opacity="1" /><path clip-path="url(#clip080)" d="M2233.17 1451.02 L2251.53 1451.02 L2251.53 1454.96 L2237.45 1454.96 L2237.45 1463.43 Q2238.47 1463.08 2239.49 1462.92 Q2240.51 1462.73 2241.53 1462.73 Q2247.31 1462.73 2250.69 1465.9 Q2254.07 1469.08 2254.07 1474.49 Q2254.07 1480.07 2250.6 1483.17 Q2247.13 1486.25 2240.81 1486.25 Q2238.63 1486.25 2236.37 1485.88 Q2234.12 1485.51 2231.71 1484.77 L2231.71 1480.07 Q2233.8 1481.2 2236.02 1481.76 Q2238.24 1482.32 2240.72 1482.32 Q2244.72 1482.32 2247.06 1480.21 Q2249.4 1478.1 2249.4 1474.49 Q2249.4 1470.88 2247.06 1468.77 Q2244.72 1466.67 2240.72 1466.67 Q2238.84 1466.67 2236.97 1467.08 Q2235.12 1467.5 2233.17 1468.38 L2233.17 1451.02 Z" fill="#000000" fill-rule="evenodd" fill-opacity="1" /><path clip-path="url(#clip080)" d="M2273.29 1454.1 Q2269.68 1454.1 2267.85 1457.66 Q2266.04 1461.2 2266.04 1468.33 Q2266.04 1475.44 2267.85 1479.01 Q2269.68 1482.55 2273.29 1482.55 Q2276.92 1482.55 2278.73 1479.01 Q2280.56 1475.44 2280.56 1468.33 Q2280.56 1461.2 2278.73 1457.66 Q2276.92 1454.1 2273.29 1454.1 M2273.29 1450.39 Q2279.1 1450.39 2282.15 1455 Q2285.23 1459.58 2285.23 1468.33 Q2285.23 1477.06 2282.15 1481.67 Q2279.1 1486.25 2273.29 1486.25 Q2267.48 1486.25 2264.4 1481.67 Q2261.34 1477.06 2261.34 1468.33 Q2261.34 1459.58 2264.4 1455 Q2267.48 1450.39 2273.29 1450.39 Z" fill="#000000" fill-rule="evenodd" fill-opacity="1" /><path clip-path="url(#clip080)" d="M2314.4 1459.65 L2305.02 1472.27 L2314.88 1485.58 L2309.86 1485.58 L2302.31 1475.39 L2294.77 1485.58 L2289.75 1485.58 L2299.81 1472.02 L2290.6 1459.65 L2295.62 1459.65 L2302.5 1468.89 L2309.37 1459.65 L2314.4 1459.65 Z" fill="#000000" fill-rule="evenodd" fill-opacity="1" /><path clip-path="url(#clip080)" d="M2322.31 1481.64 L2329.95 1481.64 L2329.95 1455.28 L2321.64 1456.95 L2321.64 1452.69 L2329.91 1451.02 L2334.58 1451.02 L2334.58 1481.64 L2342.22 1481.64 L2342.22 1485.58 L2322.31 1485.58 L2322.31 1481.64 Z" fill="#000000" fill-rule="evenodd" fill-opacity="1" /><path clip-path="url(#clip080)" d="M2361.67 1454.1 Q2358.05 1454.1 2356.23 1457.66 Q2354.42 1461.2 2354.42 1468.33 Q2354.42 1475.44 2356.23 1479.01 Q2358.05 1482.55 2361.67 1482.55 Q2365.3 1482.55 2367.11 1479.01 Q2368.93 1475.44 2368.93 1468.33 Q2368.93 1461.2 2367.11 1457.66 Q2365.3 1454.1 2361.67 1454.1 M2361.67 1450.39 Q2367.48 1450.39 2370.53 1455 Q2373.61 1459.58 2373.61 1468.33 Q2373.61 1477.06 2370.53 1481.67 Q2367.48 1486.25 2361.67 1486.25 Q2355.86 1486.25 2352.78 1481.67 Q2349.72 1477.06 2349.72 1468.33 Q2349.72 1459.58 2352.78 1455 Q2355.86 1450.39 2361.67 1450.39 Z" fill="#000000" fill-rule="evenodd" fill-opacity="1" /><path clip-path="url(#clip080)" d="M2386.83 1459.35 Q2384.79 1459.35 2383.61 1460.56 Q2382.43 1461.78 2382.43 1463.89 Q2382.43 1465.97 2383.61 1467.18 Q2384.79 1468.4 2386.83 1468.4 Q2388.84 1468.4 2390.02 1467.18 Q2391.2 1465.97 2391.2 1463.89 Q2391.2 1461.78 2390.02 1460.56 Q2388.84 1459.35 2386.83 1459.35 M2392.8 1451.16 L2392.8 1453.54 Q2391.67 1453.08 2390.51 1452.85 Q2389.35 1452.59 2388.22 1452.59 Q2385.25 1452.59 2383.68 1454.33 Q2382.11 1456.09 2381.87 1459.63 Q2382.75 1458.5 2384.07 1457.89 Q2385.42 1457.29 2386.99 1457.29 Q2390.35 1457.29 2392.29 1459.05 Q2394.24 1460.83 2394.24 1463.89 Q2394.24 1466.83 2392.2 1468.66 Q2390.18 1470.46 2386.83 1470.46 Q2382.96 1470.46 2380.93 1467.89 Q2378.89 1465.33 2378.89 1460.42 Q2378.89 1455.83 2381.39 1453.13 Q2383.89 1450.39 2388.1 1450.39 Q2389.24 1450.39 2390.39 1450.58 Q2391.55 1450.79 2392.8 1451.16 Z" fill="#000000" fill-rule="evenodd" fill-opacity="1" /><path clip-path="url(#clip080)" d="M1113.66 1520.52 L1120.09 1520.52 L1120.09 1568.04 L1113.66 1568.04 L1113.66 1520.52 Z" fill="#000000" fill-rule="evenodd" fill-opacity="1" /><path clip-path="url(#clip080)" d="M1138.43 1522.27 L1138.43 1532.4 L1150.49 1532.4 L1150.49 1536.95 L1138.43 1536.95 L1138.43 1556.3 Q1138.43 1560.66 1139.6 1561.9 Q1140.81 1563.14 1144.47 1563.14 L1150.49 1563.14 L1150.49 1568.04 L1144.47 1568.04 Q1137.69 1568.04 1135.12 1565.53 Q1132.54 1562.98 1132.54 1556.3 L1132.54 1536.95 L1128.24 1536.95 L1128.24 1532.4 L1132.54 1532.4 L1132.54 1522.27 L1138.43 1522.27 Z" fill="#000000" fill-rule="evenodd" fill-opacity="1" /><path clip-path="url(#clip080)" d="M1188.68 1548.76 L1188.68 1551.62 L1161.76 1551.62 Q1162.14 1557.67 1165.38 1560.85 Q1168.66 1564 1174.49 1564 Q1177.86 1564 1181.01 1563.17 Q1184.2 1562.35 1187.31 1560.69 L1187.31 1566.23 Q1184.16 1567.57 1180.85 1568.27 Q1177.54 1568.97 1174.14 1568.97 Q1165.61 1568.97 1160.61 1564 Q1155.64 1559.04 1155.64 1550.57 Q1155.64 1541.82 1160.36 1536.69 Q1165.1 1531.54 1173.12 1531.54 Q1180.31 1531.54 1184.48 1536.18 Q1188.68 1540.8 1188.68 1548.76 M1182.83 1547.04 Q1182.76 1542.23 1180.12 1539.37 Q1177.51 1536.5 1173.18 1536.5 Q1168.28 1536.5 1165.32 1539.27 Q1162.39 1542.04 1161.95 1547.07 L1182.83 1547.04 Z" fill="#000000" fill-rule="evenodd" fill-opacity="1" /><path clip-path="url(#clip080)" d="M1218.95 1537.87 Q1217.97 1537.3 1216.79 1537.04 Q1215.64 1536.76 1214.24 1536.76 Q1209.28 1536.76 1206.6 1540 Q1203.96 1543.22 1203.96 1549.27 L1203.96 1568.04 L1198.07 1568.04 L1198.07 1532.4 L1203.96 1532.4 L1203.96 1537.93 Q1205.81 1534.69 1208.77 1533.13 Q1211.73 1531.54 1215.96 1531.54 Q1216.56 1531.54 1217.3 1531.63 Q1218.03 1531.7 1218.92 1531.85 L1218.95 1537.87 Z" fill="#000000" fill-rule="evenodd" fill-opacity="1" /><path clip-path="url(#clip080)" d="M1241.3 1550.12 Q1234.2 1550.12 1231.46 1551.75 Q1228.72 1553.37 1228.72 1557.29 Q1228.72 1560.4 1230.76 1562.25 Q1232.83 1564.07 1236.36 1564.07 Q1241.23 1564.07 1244.16 1560.63 Q1247.12 1557.16 1247.12 1551.43 L1247.12 1550.12 L1241.3 1550.12 M1252.98 1547.71 L1252.98 1568.04 L1247.12 1568.04 L1247.12 1562.63 Q1245.11 1565.88 1242.12 1567.44 Q1239.13 1568.97 1234.8 1568.97 Q1229.33 1568.97 1226.08 1565.91 Q1222.87 1562.82 1222.87 1557.67 Q1222.87 1551.65 1226.88 1548.6 Q1230.92 1545.54 1238.91 1545.54 L1247.12 1545.54 L1247.12 1544.97 Q1247.12 1540.93 1244.45 1538.73 Q1241.8 1536.5 1237 1536.5 Q1233.94 1536.5 1231.05 1537.23 Q1228.15 1537.97 1225.48 1539.43 L1225.48 1534.02 Q1228.69 1532.78 1231.72 1532.17 Q1234.74 1531.54 1237.6 1531.54 Q1245.34 1531.54 1249.16 1535.55 Q1252.98 1539.56 1252.98 1547.71 Z" fill="#000000" fill-rule="evenodd" fill-opacity="1" /><path clip-path="url(#clip080)" d="M1270.83 1522.27 L1270.83 1532.4 L1282.9 1532.4 L1282.9 1536.95 L1270.83 1536.95 L1270.83 1556.3 Q1270.83 1560.66 1272.01 1561.9 Q1273.22 1563.14 1276.88 1563.14 L1282.9 1563.14 L1282.9 1568.04 L1276.88 1568.04 Q1270.1 1568.04 1267.52 1565.53 Q1264.94 1562.98 1264.94 1556.3 L1264.94 1536.95 L1260.65 1536.95 L1260.65 1532.4 L1264.94 1532.4 L1264.94 1522.27 L1270.83 1522.27 Z" fill="#000000" fill-rule="evenodd" fill-opacity="1" /><path clip-path="url(#clip080)" d="M1290.6 1532.4 L1296.45 1532.4 L1296.45 1568.04 L1290.6 1568.04 L1290.6 1532.4 M1290.6 1518.52 L1296.45 1518.52 L1296.45 1525.93 L1290.6 1525.93 L1290.6 1518.52 Z" fill="#000000" fill-rule="evenodd" fill-opacity="1" /><path clip-path="url(#clip080)" d="M1322.52 1536.5 Q1317.81 1536.5 1315.07 1540.19 Q1312.34 1543.85 1312.34 1550.25 Q1312.34 1556.65 1315.04 1560.34 Q1317.78 1564 1322.52 1564 Q1327.2 1564 1329.94 1560.31 Q1332.68 1556.62 1332.68 1550.25 Q1332.68 1543.92 1329.94 1540.23 Q1327.2 1536.5 1322.52 1536.5 M1322.52 1531.54 Q1330.16 1531.54 1334.52 1536.5 Q1338.88 1541.47 1338.88 1550.25 Q1338.88 1559 1334.52 1564 Q1330.16 1568.97 1322.52 1568.97 Q1314.85 1568.97 1310.49 1564 Q1306.16 1559 1306.16 1550.25 Q1306.16 1541.47 1310.49 1536.5 Q1314.85 1531.54 1322.52 1531.54 Z" fill="#000000" fill-rule="evenodd" fill-opacity="1" /><path clip-path="url(#clip080)" d="M1378.22 1546.53 L1378.22 1568.04 L1372.37 1568.04 L1372.37 1546.72 Q1372.37 1541.66 1370.39 1539.14 Q1368.42 1536.63 1364.47 1536.63 Q1359.73 1536.63 1356.99 1539.65 Q1354.25 1542.68 1354.25 1547.9 L1354.25 1568.04 L1348.37 1568.04 L1348.37 1532.4 L1354.25 1532.4 L1354.25 1537.93 Q1356.36 1534.72 1359.19 1533.13 Q1362.05 1531.54 1365.78 1531.54 Q1371.92 1531.54 1375.07 1535.36 Q1378.22 1539.14 1378.22 1546.53 Z" fill="#000000" fill-rule="evenodd" fill-opacity="1" /><path clip-path="url(#clip080)" d="M1412.63 1533.45 L1412.63 1538.98 Q1410.15 1537.71 1407.47 1537.07 Q1404.8 1536.44 1401.93 1536.44 Q1397.57 1536.44 1395.38 1537.77 Q1393.21 1539.11 1393.21 1541.79 Q1393.21 1543.82 1394.77 1545 Q1396.33 1546.15 1401.04 1547.2 L1403.05 1547.64 Q1409.29 1548.98 1411.9 1551.43 Q1414.54 1553.85 1414.54 1558.21 Q1414.54 1563.17 1410.59 1566.07 Q1406.68 1568.97 1399.8 1568.97 Q1396.94 1568.97 1393.82 1568.39 Q1390.73 1567.85 1387.29 1566.74 L1387.29 1560.69 Q1390.54 1562.38 1393.69 1563.24 Q1396.84 1564.07 1399.93 1564.07 Q1404.07 1564.07 1406.29 1562.66 Q1408.52 1561.23 1408.52 1558.65 Q1408.52 1556.27 1406.9 1554.99 Q1405.31 1553.72 1399.87 1552.54 L1397.83 1552.07 Q1392.39 1550.92 1389.97 1548.56 Q1387.55 1546.18 1387.55 1542.04 Q1387.55 1537.01 1391.11 1534.27 Q1394.68 1531.54 1401.23 1531.54 Q1404.48 1531.54 1407.34 1532.01 Q1410.21 1532.49 1412.63 1533.45 Z" fill="#000000" fill-rule="evenodd" fill-opacity="1" /><polyline clip-path="url(#clip082)" style="stroke:#000000; stroke-linecap:round; stroke-linejoin:round; stroke-width:2; stroke-opacity:0.1; fill:none" points="
  175.445,1414.9 2352.76,1414.9 
  "/>
<polyline clip-path="url(#clip082)" style="stroke:#000000; stroke-linecap:round; stroke-linejoin:round; stroke-width:2; stroke-opacity:0.1; fill:none" points="
  175.445,1084.76 2352.76,1084.76 
  "/>
<polyline clip-path="url(#clip082)" style="stroke:#000000; stroke-linecap:round; stroke-linejoin:round; stroke-width:2; stroke-opacity:0.1; fill:none" points="
  175.445,754.627 2352.76,754.627 
  "/>
<polyline clip-path="url(#clip082)" style="stroke:#000000; stroke-linecap:round; stroke-linejoin:round; stroke-width:2; stroke-opacity:0.1; fill:none" points="
  175.445,424.492 2352.76,424.492 
  "/>
<polyline clip-path="url(#clip082)" style="stroke:#000000; stroke-linecap:round; stroke-linejoin:round; stroke-width:2; stroke-opacity:0.1; fill:none" points="
  175.445,94.3558 2352.76,94.3558 
  "/>
<polyline clip-path="url(#clip080)" style="stroke:#000000; stroke-linecap:round; stroke-linejoin:round; stroke-width:4; stroke-opacity:1; fill:none" points="
  175.445,1423.18 175.445,47.2441 
  "/>
<polyline clip-path="url(#clip080)" style="stroke:#000000; stroke-linecap:round; stroke-linejoin:round; stroke-width:4; stroke-opacity:1; fill:none" points="
  175.445,1414.9 194.343,1414.9 
  "/>
<polyline clip-path="url(#clip080)" style="stroke:#000000; stroke-linecap:round; stroke-linejoin:round; stroke-width:4; stroke-opacity:1; fill:none" points="
  175.445,1084.76 194.343,1084.76 
  "/>
<polyline clip-path="url(#clip080)" style="stroke:#000000; stroke-linecap:round; stroke-linejoin:round; stroke-width:4; stroke-opacity:1; fill:none" points="
  175.445,754.627 194.343,754.627 
  "/>
<polyline clip-path="url(#clip080)" style="stroke:#000000; stroke-linecap:round; stroke-linejoin:round; stroke-width:4; stroke-opacity:1; fill:none" points="
  175.445,424.492 194.343,424.492 
  "/>
<polyline clip-path="url(#clip080)" style="stroke:#000000; stroke-linecap:round; stroke-linejoin:round; stroke-width:4; stroke-opacity:1; fill:none" points="
  175.445,94.3558 194.343,94.3558 
  "/>
<path clip-path="url(#clip080)" d="M123.126 1428.24 L139.445 1428.24 L139.445 1432.18 L117.501 1432.18 L117.501 1428.24 Q120.163 1425.49 124.746 1420.86 Q129.353 1416.21 130.533 1414.86 Q132.779 1412.34 133.658 1410.6 Q134.561 1408.85 134.561 1407.16 Q134.561 1404.4 132.617 1402.67 Q130.695 1400.93 127.593 1400.93 Q125.394 1400.93 122.941 1401.69 Q120.51 1402.46 117.732 1404.01 L117.732 1399.29 Q120.556 1398.15 123.01 1397.57 Q125.464 1396.99 127.501 1396.99 Q132.871 1396.99 136.066 1399.68 Q139.26 1402.36 139.26 1406.85 Q139.26 1408.98 138.45 1410.91 Q137.663 1412.8 135.556 1415.4 Q134.978 1416.07 131.876 1419.29 Q128.774 1422.48 123.126 1428.24 Z" fill="#000000" fill-rule="evenodd" fill-opacity="1" /><path clip-path="url(#clip080)" d="M132.316 1083.41 Q135.672 1084.13 137.547 1086.4 Q139.445 1088.66 139.445 1092 Q139.445 1097.11 135.927 1099.91 Q132.408 1102.71 125.927 1102.71 Q123.751 1102.71 121.436 1102.27 Q119.144 1101.86 116.691 1101 L116.691 1096.49 Q118.635 1097.62 120.95 1098.2 Q123.265 1098.78 125.788 1098.78 Q130.186 1098.78 132.478 1097.04 Q134.792 1095.31 134.792 1092 Q134.792 1088.94 132.64 1087.23 Q130.51 1085.49 126.691 1085.49 L122.663 1085.49 L122.663 1081.65 L126.876 1081.65 Q130.325 1081.65 132.154 1080.28 Q133.982 1078.9 133.982 1076.3 Q133.982 1073.64 132.084 1072.23 Q130.209 1070.79 126.691 1070.79 Q124.769 1070.79 122.57 1071.21 Q120.371 1071.63 117.732 1072.51 L117.732 1068.34 Q120.394 1067.6 122.709 1067.23 Q125.047 1066.86 127.107 1066.86 Q132.431 1066.86 135.533 1069.29 Q138.635 1071.7 138.635 1075.82 Q138.635 1078.69 136.992 1080.68 Q135.348 1082.65 132.316 1083.41 Z" fill="#000000" fill-rule="evenodd" fill-opacity="1" /><path clip-path="url(#clip080)" d="M129.862 741.421 L118.056 759.87 L129.862 759.87 L129.862 741.421 M128.635 737.347 L134.515 737.347 L134.515 759.87 L139.445 759.87 L139.445 763.759 L134.515 763.759 L134.515 771.907 L129.862 771.907 L129.862 763.759 L114.26 763.759 L114.26 759.245 L128.635 737.347 Z" fill="#000000" fill-rule="evenodd" fill-opacity="1" /><path clip-path="url(#clip080)" d="M118.543 407.212 L136.899 407.212 L136.899 411.147 L122.825 411.147 L122.825 419.619 Q123.843 419.272 124.862 419.11 Q125.88 418.924 126.899 418.924 Q132.686 418.924 136.066 422.096 Q139.445 425.267 139.445 430.684 Q139.445 436.262 135.973 439.364 Q132.501 442.443 126.181 442.443 Q124.005 442.443 121.737 442.072 Q119.492 441.702 117.084 440.961 L117.084 436.262 Q119.168 437.397 121.39 437.952 Q123.612 438.508 126.089 438.508 Q130.093 438.508 132.431 436.401 Q134.769 434.295 134.769 430.684 Q134.769 427.073 132.431 424.966 Q130.093 422.86 126.089 422.86 Q124.214 422.86 122.339 423.276 Q120.487 423.693 118.543 424.573 L118.543 407.212 Z" fill="#000000" fill-rule="evenodd" fill-opacity="1" /><path clip-path="url(#clip080)" d="M127.917 92.4923 Q124.769 92.4923 122.918 94.6451 Q121.089 96.7979 121.089 100.548 Q121.089 104.275 122.918 106.451 Q124.769 108.603 127.917 108.603 Q131.066 108.603 132.894 106.451 Q134.746 104.275 134.746 100.548 Q134.746 96.7979 132.894 94.6451 Q131.066 92.4923 127.917 92.4923 M137.2 77.8396 L137.2 82.0989 Q135.441 81.2655 133.635 80.8257 Q131.853 80.3859 130.093 80.3859 Q125.464 80.3859 123.01 83.5109 Q120.58 86.6359 120.232 92.9553 Q121.598 90.9414 123.658 89.8766 Q125.718 88.7887 128.195 88.7887 Q133.404 88.7887 136.413 91.9599 Q139.445 95.1081 139.445 100.548 Q139.445 105.872 136.297 109.089 Q133.149 112.307 127.917 112.307 Q121.922 112.307 118.751 107.724 Q115.58 103.117 115.58 94.3905 Q115.58 86.1961 119.468 81.335 Q123.357 76.4508 129.908 76.4508 Q131.667 76.4508 133.45 76.798 Q135.255 77.1452 137.2 77.8396 Z" fill="#000000" fill-rule="evenodd" fill-opacity="1" /><path clip-path="url(#clip080)" d="M22.818 984.27 L46.4666 992.991 L46.4666 975.517 L22.818 984.27 M16.4842 987.899 L16.4842 980.61 L64.0042 962.5 L64.0042 969.184 L51.8138 973.512 L51.8138 994.933 L64.0042 999.261 L64.0042 1006.04 L16.4842 987.899 Z" fill="#000000" fill-rule="evenodd" fill-opacity="1" /><path clip-path="url(#clip080)" d="M28.3562 963.836 L28.3562 957.63 L58.275 946.49 L28.3562 935.35 L28.3562 929.143 L64.0042 942.511 L64.0042 950.468 L28.3562 963.836 Z" fill="#000000" fill-rule="evenodd" fill-opacity="1" /><path clip-path="url(#clip080)" d="M44.7161 890.567 L47.5806 890.567 L47.5806 917.494 Q53.6281 917.112 56.8109 913.866 Q59.9619 910.587 59.9619 904.763 Q59.9619 901.389 59.1344 898.238 Q58.3069 895.055 56.6518 891.936 L62.1899 891.936 Q63.5267 895.087 64.227 898.397 Q64.9272 901.707 64.9272 905.113 Q64.9272 913.643 59.9619 918.64 Q54.9967 923.605 46.5303 923.605 Q37.7774 923.605 32.6531 918.894 Q27.4968 914.152 27.4968 906.131 Q27.4968 898.938 32.1438 894.768 Q36.7589 890.567 44.7161 890.567 M42.9973 896.423 Q38.1912 896.487 35.3266 899.129 Q32.4621 901.739 32.4621 906.068 Q32.4621 910.969 35.2312 913.929 Q38.0002 916.857 43.0292 917.303 L42.9973 896.423 Z" fill="#000000" fill-rule="evenodd" fill-opacity="1" /><path clip-path="url(#clip080)" d="M33.8307 860.298 Q33.2578 861.285 33.0032 862.462 Q32.7167 863.608 32.7167 865.009 Q32.7167 869.974 35.9632 872.648 Q39.1779 875.289 45.2253 875.289 L64.0042 875.289 L64.0042 881.178 L28.3562 881.178 L28.3562 875.289 L33.8944 875.289 Q30.6479 873.443 29.0883 870.483 Q27.4968 867.523 27.4968 863.29 Q27.4968 862.685 27.5923 861.953 Q27.656 861.221 27.8151 860.33 L33.8307 860.298 Z" fill="#000000" fill-rule="evenodd" fill-opacity="1" /><path clip-path="url(#clip080)" d="M46.0847 837.954 Q46.0847 845.052 47.7079 847.789 Q49.3312 850.527 53.2461 850.527 Q56.3653 850.527 58.2114 848.49 Q60.0256 846.421 60.0256 842.888 Q60.0256 838.018 56.5881 835.09 Q53.1188 832.13 47.3897 832.13 L46.0847 832.13 L46.0847 837.954 M43.6657 826.273 L64.0042 826.273 L64.0042 832.13 L58.5933 832.13 Q61.8398 834.135 63.3994 837.127 Q64.9272 840.119 64.9272 844.447 Q64.9272 849.922 61.8716 853.169 Q58.7843 856.383 53.6281 856.383 Q47.6125 856.383 44.5569 852.373 Q41.5014 848.331 41.5014 840.342 L41.5014 832.13 L40.9285 832.13 Q36.8862 832.13 34.6901 834.803 Q32.4621 837.445 32.4621 842.251 Q32.4621 845.307 33.1941 848.203 Q33.9262 851.1 35.3903 853.773 L29.9795 853.773 Q28.7381 850.559 28.1334 847.535 Q27.4968 844.511 27.4968 841.647 Q27.4968 833.912 31.5072 830.093 Q35.5176 826.273 43.6657 826.273 Z" fill="#000000" fill-rule="evenodd" fill-opacity="1" /><path clip-path="url(#clip080)" d="M45.7664 790.753 Q39.4007 790.753 35.8996 793.395 Q32.3984 796.004 32.3984 800.747 Q32.3984 805.458 35.8996 808.099 Q39.4007 810.709 45.7664 810.709 Q52.1003 810.709 55.6014 808.099 Q59.1026 805.458 59.1026 800.747 Q59.1026 796.004 55.6014 793.395 Q52.1003 790.753 45.7664 790.753 M59.58 784.896 Q68.683 784.896 73.1071 788.939 Q77.5631 792.981 77.5631 801.32 Q77.5631 804.407 77.0857 807.144 Q76.6401 809.882 75.6852 812.46 L69.9879 812.46 Q71.3884 809.882 72.0568 807.367 Q72.7252 804.853 72.7252 802.243 Q72.7252 796.482 69.7015 793.617 Q66.7096 790.753 60.6303 790.753 L57.7339 790.753 Q60.885 792.567 62.4446 795.4 Q64.0042 798.232 64.0042 802.179 Q64.0042 808.736 59.0071 812.746 Q54.01 816.757 45.7664 816.757 Q37.491 816.757 32.4939 812.746 Q27.4968 808.736 27.4968 802.179 Q27.4968 798.232 29.0564 795.4 Q30.616 792.567 33.7671 790.753 L28.3562 790.753 L28.3562 784.896 L59.58 784.896 Z" fill="#000000" fill-rule="evenodd" fill-opacity="1" /><path clip-path="url(#clip080)" d="M44.7161 742.342 L47.5806 742.342 L47.5806 769.268 Q53.6281 768.887 56.8109 765.64 Q59.9619 762.362 59.9619 756.537 Q59.9619 753.163 59.1344 750.012 Q58.3069 746.829 56.6518 743.71 L62.1899 743.71 Q63.5267 746.861 64.227 750.171 Q64.9272 753.482 64.9272 756.887 Q64.9272 765.417 59.9619 770.414 Q54.9967 775.38 46.5303 775.38 Q37.7774 775.38 32.6531 770.669 Q27.4968 765.927 27.4968 757.906 Q27.4968 750.712 32.1438 746.543 Q36.7589 742.342 44.7161 742.342 M42.9973 748.198 Q38.1912 748.262 35.3266 750.903 Q32.4621 753.513 32.4621 757.842 Q32.4621 762.744 35.2312 765.704 Q38.0002 768.632 43.0292 769.078 L42.9973 748.198 Z" fill="#000000" fill-rule="evenodd" fill-opacity="1" /><path clip-path="url(#clip080)" d="M64.0042 699.5 L16.4842 717.643 L16.4842 710.927 L56.4926 695.872 L16.4842 680.785 L16.4842 674.101 L64.0042 692.212 L64.0042 699.5 Z" fill="#000000" fill-rule="evenodd" fill-opacity="1" /><path clip-path="url(#clip080)" d="M44.7161 641.986 L47.5806 641.986 L47.5806 668.913 Q53.6281 668.531 56.8109 665.285 Q59.9619 662.006 59.9619 656.182 Q59.9619 652.808 59.1344 649.657 Q58.3069 646.474 56.6518 643.355 L62.1899 643.355 Q63.5267 646.506 64.227 649.816 Q64.9272 653.126 64.9272 656.532 Q64.9272 665.062 59.9619 670.059 Q54.9967 675.024 46.5303 675.024 Q37.7774 675.024 32.6531 670.314 Q27.4968 665.571 27.4968 657.55 Q27.4968 650.357 32.1438 646.188 Q36.7589 641.986 44.7161 641.986 M42.9973 647.843 Q38.1912 647.906 35.3266 650.548 Q32.4621 653.158 32.4621 657.487 Q32.4621 662.388 35.2312 665.348 Q38.0002 668.277 43.0292 668.722 L42.9973 647.843 Z" fill="#000000" fill-rule="evenodd" fill-opacity="1" /><path clip-path="url(#clip080)" d="M14.479 632.374 L14.479 626.518 L64.0042 626.518 L64.0042 632.374 L14.479 632.374 Z" fill="#000000" fill-rule="evenodd" fill-opacity="1" /><path clip-path="url(#clip080)" d="M32.4621 600.45 Q32.4621 605.161 36.1542 607.898 Q39.8145 610.635 46.212 610.635 Q52.6095 610.635 56.3017 607.93 Q59.9619 605.192 59.9619 600.45 Q59.9619 595.771 56.2698 593.034 Q52.5777 590.297 46.212 590.297 Q39.8781 590.297 36.186 593.034 Q32.4621 595.771 32.4621 600.45 M27.4968 600.45 Q27.4968 592.811 32.4621 588.451 Q37.4273 584.09 46.212 584.09 Q54.9649 584.09 59.9619 588.451 Q64.9272 592.811 64.9272 600.45 Q64.9272 608.121 59.9619 612.481 Q54.9649 616.81 46.212 616.81 Q37.4273 616.81 32.4621 612.481 Q27.4968 608.121 27.4968 600.45 Z" fill="#000000" fill-rule="evenodd" fill-opacity="1" /><path clip-path="url(#clip080)" d="M29.7248 548.729 L35.1993 548.729 Q33.8307 551.211 33.1623 553.726 Q32.4621 556.208 32.4621 558.755 Q32.4621 564.452 36.0905 567.603 Q39.6872 570.754 46.212 570.754 Q52.7369 570.754 56.3653 567.603 Q59.9619 564.452 59.9619 558.755 Q59.9619 556.208 59.2935 553.726 Q58.5933 551.211 57.2247 548.729 L62.6355 548.729 Q63.7814 551.179 64.3543 553.821 Q64.9272 556.431 64.9272 559.391 Q64.9272 567.444 59.8664 572.186 Q54.8057 576.929 46.212 576.929 Q37.491 576.929 32.4939 572.154 Q27.4968 567.348 27.4968 559.009 Q27.4968 556.304 28.0697 553.726 Q28.6108 551.148 29.7248 548.729 Z" fill="#000000" fill-rule="evenodd" fill-opacity="1" /><path clip-path="url(#clip080)" d="M28.3562 538.543 L28.3562 532.687 L64.0042 532.687 L64.0042 538.543 L28.3562 538.543 M14.479 538.543 L14.479 532.687 L21.895 532.687 L21.895 538.543 L14.479 538.543 Z" fill="#000000" fill-rule="evenodd" fill-opacity="1" /><path clip-path="url(#clip080)" d="M18.2347 514.64 L28.3562 514.64 L28.3562 502.577 L32.9077 502.577 L32.9077 514.64 L52.2594 514.64 Q56.6199 514.64 57.8613 513.463 Q59.1026 512.253 59.1026 508.593 L59.1026 502.577 L64.0042 502.577 L64.0042 508.593 Q64.0042 515.372 61.4897 517.95 Q58.9434 520.529 52.2594 520.529 L32.9077 520.529 L32.9077 524.825 L28.3562 524.825 L28.3562 520.529 L18.2347 520.529 L18.2347 514.64 Z" fill="#000000" fill-rule="evenodd" fill-opacity="1" /><path clip-path="url(#clip080)" d="M67.3143 480.043 Q73.68 482.525 75.6216 484.881 Q77.5631 487.236 77.5631 491.183 L77.5631 495.861 L72.6615 495.861 L72.6615 492.424 Q72.6615 490.005 71.5157 488.668 Q70.3699 487.331 66.1048 485.708 L63.4312 484.658 L28.3562 499.076 L28.3562 492.87 L56.238 481.73 L28.3562 470.59 L28.3562 464.383 L67.3143 480.043 Z" fill="#000000" fill-rule="evenodd" fill-opacity="1" /><polyline clip-path="url(#clip082)" style="stroke:#009af9; stroke-linecap:round; stroke-linejoin:round; stroke-width:4; stroke-opacity:1; fill:none" points="
  333.567,1005.74 347.353,981.931 361.138,1349.31 374.924,1384.24 388.71,1345.79 402.495,1346.69 416.281,1273.87 430.067,1248.48 443.852,1233.26 457.638,1233.67 
  471.424,1208.78 485.209,1222.31 498.995,1292.09 512.781,1274.77 526.567,1167.38 540.352,1175.13 554.138,1200.69 567.924,1197.92 581.709,1192.77 595.495,1176.67 
  609.281,1216.71 623.066,1213.12 636.852,1189.76 650.638,1191.81 664.423,1143.76 678.209,1164.33 691.995,1182.11 705.78,1175.88 719.566,1156.67 733.352,1186.66 
  747.137,1169.66 760.923,1162.32 774.709,1125.8 788.495,1166.41 802.28,1158.81 816.066,1146.77 829.852,1163.41 843.637,1194.85 857.423,1158.15 871.209,1182.34 
  884.994,1176.15 898.78,1180.87 912.566,1152.37 926.351,1120.51 940.137,1130.14 953.923,1142.46 967.708,1124.02 981.494,1159.94 995.28,1171.11 1009.07,1186.09 
  1022.85,1158.45 1036.64,1162.76 1050.42,1133.43 1064.21,1134.58 1077.99,1162.79 1091.78,1161.75 1105.57,1137.37 1119.35,1144.6 1133.14,1153.91 1146.92,1151.28 
  1160.71,1173.11 1174.49,1155.03 1188.28,1119.31 1202.06,1134 1215.85,1153.23 1229.64,1148.28 1243.42,1134.88 1257.21,1139.57 1270.99,1185.83 1284.78,1178.63 
  1298.56,1196.16 1312.35,1154.01 1326.14,1148.55 1339.92,1134.15 1353.71,1136.47 1367.49,1128.42 1381.28,1140.49 1395.06,1169.42 1408.85,1157.89 1422.64,1157.17 
  1436.42,1134.96 1450.21,1128.18 1463.99,1125.35 1477.78,1162.75 1491.56,1159.23 1505.35,1164.78 1519.14,1148.09 1532.92,1183.39 1546.71,1161.97 1560.49,1138.45 
  1574.28,1170.91 1588.06,1172.53 1601.85,1158.96 1615.64,1150.43 1629.42,1166.35 1643.21,1166.64 1656.99,1150.09 1670.78,1176.15 1684.56,1177.86 1698.35,1198.28 
  1712.14,1232.18 1725.92,1247.72 1739.71,1220.67 1753.49,1154.63 1767.28,1183.41 1781.06,1140.11 1794.85,1237.11 1808.64,1200.63 1822.42,1156.82 1836.21,1175.63 
  1849.99,1194.61 1863.78,1164.01 1877.56,1129 1891.35,1143.45 1905.13,1118.25 1918.92,1160.42 1932.71,1130.04 1946.49,1143.86 1960.28,1135.94 1974.06,1122.5 
  1987.85,1147.12 2001.63,1147.42 2015.42,1149.55 2029.21,1129.37 2042.99,1123.2 2056.78,1104.69 2070.56,1135.64 2084.35,1097.2 2098.13,1093.39 2111.92,1127.19 
  2125.71,1126.66 2139.49,1140.78 2153.28,1148.91 2167.06,1151.36 2180.85,1151.52 2194.63,1141.2 2208.42,1144.07 2222.21,1138.81 2235.99,1139.4 2249.78,1109.98 
  2263.56,1102.21 2277.35,1122.24 2291.13,1121.95 
  "/>
<polyline clip-path="url(#clip082)" style="stroke:#e26f46; stroke-linecap:round; stroke-linejoin:round; stroke-width:4; stroke-opacity:1; fill:none" points="
  237.067,1156.68 250.853,923.58 264.639,816.476 278.424,719.751 292.21,661.575 305.996,608.91 319.781,593.309 333.567,572.985 347.353,572.919 361.138,582.075 
  374.924,622.774 388.71,514.284 402.495,440.418 416.281,443.011 430.067,496.691 443.852,548.643 457.638,519.83 471.424,493.867 485.209,462.047 498.995,412.72 
  512.781,454.402 526.567,395.011 540.352,442.5 554.138,404.467 567.924,395.049 581.709,384.362 595.495,414.738 609.281,366.518 623.066,347.345 636.852,401.024 
  650.638,396.193 664.423,397.193 678.209,374.515 691.995,432.182 705.78,473.607 719.566,392.386 733.352,463.713 747.137,327.204 760.923,342.455 774.709,437.724 
  788.495,327.145 802.28,367.611 816.066,339.711 829.852,312.42 843.637,270.287 857.423,281.188 871.209,273.033 884.994,266.076 898.78,310.076 912.566,261.763 
  926.351,281.003 940.137,237.05 953.923,302.719 967.708,323.377 981.494,293.858 995.28,252.955 1009.07,221.587 1022.85,227.035 1036.64,282.056 1050.42,253.028 
  1064.21,278.146 1077.99,300.626 1091.78,266.456 1105.57,282.61 1119.35,209.959 1133.14,232.017 1146.92,318.064 1160.71,264.376 1174.49,268.56 1188.28,203.86 
  1202.06,294.726 1215.85,214.96 1229.64,265.777 1243.42,245.061 1257.21,271.797 1270.99,264.791 1284.78,333.555 1298.56,262.578 1312.35,356.198 1326.14,309.801 
  1339.92,234.055 1353.71,227.797 1367.49,192.641 1381.28,267.539 1395.06,253.812 1408.85,271.706 1422.64,284.303 1436.42,268.249 1450.21,304.277 1463.99,277.529 
  1477.78,275.385 1491.56,402.776 1505.35,309.985 1519.14,282.344 1532.92,358.804 1546.71,374.322 1560.49,293.314 1574.28,276.836 1588.06,185.067 1601.85,210.893 
  1615.64,204.411 1629.42,285.035 1643.21,272.452 1656.99,199.377 1670.78,250.93 1684.56,203.516 1698.35,273.253 1712.14,236.878 1725.92,216.425 1739.71,255.694 
  1753.49,189.796 1767.28,227.82 1781.06,240.669 1794.85,276.572 1808.64,245.093 1822.42,261.248 1836.21,227.08 1849.99,128.482 1863.78,192.568 1877.56,190.603 
  1891.35,206.919 1905.13,209.55 1918.92,255.844 1932.71,141.931 1946.49,198.495 1960.28,133.018 1974.06,108.272 1987.85,280.72 2001.63,168.58 2015.42,255.035 
  2029.21,212.087 2042.99,236.521 2056.78,223.274 2070.56,267.604 2084.35,171.914 2098.13,162.643 2111.92,188.533 2125.71,147.972 2139.49,241.912 2153.28,144.956 
  2167.06,135.405 2180.85,86.1857 2194.63,172.73 2208.42,237.522 2222.21,175.94 2235.99,152.275 2249.78,157.797 2263.56,181.445 2277.35,166.292 2291.13,227.874 
  
  "/>
<path clip-path="url(#clip080)" d="
M1812.38 1377.32 L2280.18 1377.32 L2280.18 1221.8 L1812.38 1221.8  Z
  " fill="#ffffff" fill-rule="evenodd" fill-opacity="1"/>
<polyline clip-path="url(#clip080)" style="stroke:#000000; stroke-linecap:round; stroke-linejoin:round; stroke-width:4; stroke-opacity:1; fill:none" points="
  1812.38,1377.32 2280.18,1377.32 2280.18,1221.8 1812.38,1221.8 1812.38,1377.32 
  "/>
<polyline clip-path="url(#clip080)" style="stroke:#009af9; stroke-linecap:round; stroke-linejoin:round; stroke-width:4; stroke-opacity:1; fill:none" points="
  1836.57,1273.64 1981.73,1273.64 
  "/>
<path clip-path="url(#clip080)" d="M2024.34 1265.75 L2024.34 1269.78 Q2022.54 1268.86 2020.59 1268.39 Q2018.65 1267.93 2016.57 1267.93 Q2013.4 1267.93 2011.8 1268.9 Q2010.22 1269.87 2010.22 1271.82 Q2010.22 1273.3 2011.36 1274.16 Q2012.49 1274.99 2015.92 1275.75 L2017.38 1276.08 Q2021.91 1277.05 2023.81 1278.83 Q2025.73 1280.59 2025.73 1283.76 Q2025.73 1287.37 2022.86 1289.48 Q2020.02 1291.59 2015.02 1291.59 Q2012.93 1291.59 2010.66 1291.17 Q2008.42 1290.78 2005.92 1289.97 L2005.92 1285.57 Q2008.28 1286.79 2010.57 1287.42 Q2012.86 1288.02 2015.11 1288.02 Q2018.12 1288.02 2019.74 1287 Q2021.36 1285.96 2021.36 1284.09 Q2021.36 1282.35 2020.18 1281.42 Q2019.02 1280.5 2015.06 1279.64 L2013.58 1279.3 Q2009.62 1278.46 2007.86 1276.75 Q2006.1 1275.01 2006.1 1272 Q2006.1 1268.35 2008.7 1266.36 Q2011.29 1264.36 2016.06 1264.36 Q2018.42 1264.36 2020.5 1264.71 Q2022.59 1265.06 2024.34 1265.75 Z" fill="#000000" fill-rule="evenodd" fill-opacity="1" /><path clip-path="url(#clip080)" d="M2032.52 1254.9 L2036.77 1254.9 L2036.77 1290.92 L2032.52 1290.92 L2032.52 1254.9 Z" fill="#000000" fill-rule="evenodd" fill-opacity="1" /><path clip-path="url(#clip080)" d="M2055.73 1267.98 Q2052.31 1267.98 2050.32 1270.66 Q2048.33 1273.32 2048.33 1277.98 Q2048.33 1282.63 2050.29 1285.31 Q2052.28 1287.98 2055.73 1287.98 Q2059.14 1287.98 2061.13 1285.29 Q2063.12 1282.61 2063.12 1277.98 Q2063.12 1273.37 2061.13 1270.68 Q2059.14 1267.98 2055.73 1267.98 M2055.73 1264.36 Q2061.29 1264.36 2064.46 1267.98 Q2067.63 1271.59 2067.63 1277.98 Q2067.63 1284.34 2064.46 1287.98 Q2061.29 1291.59 2055.73 1291.59 Q2050.15 1291.59 2046.98 1287.98 Q2043.83 1284.34 2043.83 1277.98 Q2043.83 1271.59 2046.98 1267.98 Q2050.15 1264.36 2055.73 1264.36 Z" fill="#000000" fill-rule="evenodd" fill-opacity="1" /><path clip-path="url(#clip080)" d="M2072.21 1264.99 L2076.47 1264.99 L2081.8 1285.22 L2087.1 1264.99 L2092.12 1264.99 L2097.45 1285.22 L2102.75 1264.99 L2107.01 1264.99 L2100.22 1290.92 L2095.2 1290.92 L2089.62 1269.67 L2084.02 1290.92 L2079 1290.92 L2072.21 1264.99 Z" fill="#000000" fill-rule="evenodd" fill-opacity="1" /><path clip-path="url(#clip080)" d="M2148.72 1269.97 Q2150.32 1267.1 2152.54 1265.73 Q2154.76 1264.36 2157.77 1264.36 Q2161.82 1264.36 2164.02 1267.21 Q2166.22 1270.04 2166.22 1275.27 L2166.22 1290.92 L2161.94 1290.92 L2161.94 1275.41 Q2161.94 1271.68 2160.62 1269.87 Q2159.3 1268.07 2156.59 1268.07 Q2153.28 1268.07 2151.36 1270.27 Q2149.44 1272.47 2149.44 1276.26 L2149.44 1290.92 L2145.15 1290.92 L2145.15 1275.41 Q2145.15 1271.66 2143.83 1269.87 Q2142.51 1268.07 2139.76 1268.07 Q2136.5 1268.07 2134.58 1270.29 Q2132.65 1272.49 2132.65 1276.26 L2132.65 1290.92 L2128.37 1290.92 L2128.37 1264.99 L2132.65 1264.99 L2132.65 1269.02 Q2134.11 1266.63 2136.15 1265.5 Q2138.19 1264.36 2140.99 1264.36 Q2143.81 1264.36 2145.78 1265.8 Q2147.77 1267.23 2148.72 1269.97 Z" fill="#000000" fill-rule="evenodd" fill-opacity="1" /><path clip-path="url(#clip080)" d="M2184.76 1267.98 Q2181.33 1267.98 2179.34 1270.66 Q2177.35 1273.32 2177.35 1277.98 Q2177.35 1282.63 2179.32 1285.31 Q2181.31 1287.98 2184.76 1287.98 Q2188.16 1287.98 2190.15 1285.29 Q2192.14 1282.61 2192.14 1277.98 Q2192.14 1273.37 2190.15 1270.68 Q2188.16 1267.98 2184.76 1267.98 M2184.76 1264.36 Q2190.32 1264.36 2193.49 1267.98 Q2196.66 1271.59 2196.66 1277.98 Q2196.66 1284.34 2193.49 1287.98 Q2190.32 1291.59 2184.76 1291.59 Q2179.18 1291.59 2176.01 1287.98 Q2172.86 1284.34 2172.86 1277.98 Q2172.86 1271.59 2176.01 1267.98 Q2179.18 1264.36 2184.76 1264.36 Z" fill="#000000" fill-rule="evenodd" fill-opacity="1" /><path clip-path="url(#clip080)" d="M2220.78 1268.92 L2220.78 1254.9 L2225.04 1254.9 L2225.04 1290.92 L2220.78 1290.92 L2220.78 1287.03 Q2219.44 1289.34 2217.38 1290.48 Q2215.34 1291.59 2212.47 1291.59 Q2207.77 1291.59 2204.81 1287.84 Q2201.87 1284.09 2201.87 1277.98 Q2201.87 1271.86 2204.81 1268.11 Q2207.77 1264.36 2212.47 1264.36 Q2215.34 1264.36 2217.38 1265.5 Q2219.44 1266.61 2220.78 1268.92 M2206.26 1277.98 Q2206.26 1282.67 2208.19 1285.36 Q2210.13 1288.02 2213.51 1288.02 Q2216.89 1288.02 2218.83 1285.36 Q2220.78 1282.67 2220.78 1277.98 Q2220.78 1273.28 2218.83 1270.61 Q2216.89 1267.93 2213.51 1267.93 Q2210.13 1267.93 2208.19 1270.61 Q2206.26 1273.28 2206.26 1277.98 Z" fill="#000000" fill-rule="evenodd" fill-opacity="1" /><path clip-path="url(#clip080)" d="M2255.99 1276.89 L2255.99 1278.97 L2236.4 1278.97 Q2236.68 1283.37 2239.04 1285.68 Q2241.43 1287.98 2245.66 1287.98 Q2248.12 1287.98 2250.41 1287.37 Q2252.72 1286.77 2254.99 1285.57 L2254.99 1289.6 Q2252.7 1290.57 2250.29 1291.08 Q2247.88 1291.59 2245.41 1291.59 Q2239.2 1291.59 2235.57 1287.98 Q2231.96 1284.36 2231.96 1278.21 Q2231.96 1271.84 2235.38 1268.11 Q2238.83 1264.36 2244.67 1264.36 Q2249.9 1264.36 2252.93 1267.74 Q2255.99 1271.1 2255.99 1276.89 M2251.73 1275.64 Q2251.68 1272.14 2249.76 1270.06 Q2247.86 1267.98 2244.71 1267.98 Q2241.15 1267.98 2239 1269.99 Q2236.87 1272 2236.54 1275.66 L2251.73 1275.64 Z" fill="#000000" fill-rule="evenodd" fill-opacity="1" /><polyline clip-path="url(#clip080)" style="stroke:#e26f46; stroke-linecap:round; stroke-linejoin:round; stroke-width:4; stroke-opacity:1; fill:none" points="
  1836.57,1325.48 1981.73,1325.48 
  "/>
<path clip-path="url(#clip080)" d="M2022.42 1306.74 L2022.42 1310.28 L2018.35 1310.28 Q2016.06 1310.28 2015.15 1311.2 Q2014.27 1312.13 2014.27 1314.54 L2014.27 1316.83 L2021.29 1316.83 L2021.29 1320.14 L2014.27 1320.14 L2014.27 1342.76 L2009.99 1342.76 L2009.99 1320.14 L2005.92 1320.14 L2005.92 1316.83 L2009.99 1316.83 L2009.99 1315.02 Q2009.99 1310.7 2012.01 1308.73 Q2014.02 1306.74 2018.4 1306.74 L2022.42 1306.74 Z" fill="#000000" fill-rule="evenodd" fill-opacity="1" /><path clip-path="url(#clip080)" d="M2037.77 1329.72 Q2032.61 1329.72 2030.62 1330.9 Q2028.63 1332.08 2028.63 1334.93 Q2028.63 1337.2 2030.11 1338.54 Q2031.61 1339.86 2034.18 1339.86 Q2037.72 1339.86 2039.85 1337.36 Q2042.01 1334.84 2042.01 1330.67 L2042.01 1329.72 L2037.77 1329.72 M2046.27 1327.96 L2046.27 1342.76 L2042.01 1342.76 L2042.01 1338.82 Q2040.55 1341.18 2038.37 1342.32 Q2036.2 1343.43 2033.05 1343.43 Q2029.07 1343.43 2026.71 1341.2 Q2024.37 1338.96 2024.37 1335.21 Q2024.37 1330.83 2027.28 1328.61 Q2030.22 1326.39 2036.03 1326.39 L2042.01 1326.39 L2042.01 1325.97 Q2042.01 1323.03 2040.06 1321.44 Q2038.14 1319.82 2034.65 1319.82 Q2032.42 1319.82 2030.32 1320.35 Q2028.21 1320.88 2026.27 1321.95 L2026.27 1318.01 Q2028.6 1317.11 2030.8 1316.67 Q2033 1316.2 2035.08 1316.2 Q2040.71 1316.2 2043.49 1319.12 Q2046.27 1322.04 2046.27 1327.96 Z" fill="#000000" fill-rule="evenodd" fill-opacity="1" /><path clip-path="url(#clip080)" d="M2071.57 1317.59 L2071.57 1321.62 Q2069.76 1320.7 2067.82 1320.23 Q2065.87 1319.77 2063.79 1319.77 Q2060.62 1319.77 2059.02 1320.74 Q2057.45 1321.71 2057.45 1323.66 Q2057.45 1325.14 2058.58 1326 Q2059.71 1326.83 2063.14 1327.59 L2064.6 1327.92 Q2069.14 1328.89 2071.03 1330.67 Q2072.96 1332.43 2072.96 1335.6 Q2072.96 1339.21 2070.08 1341.32 Q2067.24 1343.43 2062.24 1343.43 Q2060.15 1343.43 2057.89 1343.01 Q2055.64 1342.62 2053.14 1341.81 L2053.14 1337.41 Q2055.5 1338.63 2057.79 1339.26 Q2060.08 1339.86 2062.33 1339.86 Q2065.34 1339.86 2066.96 1338.84 Q2068.58 1337.8 2068.58 1335.93 Q2068.58 1334.19 2067.4 1333.26 Q2066.24 1332.34 2062.28 1331.48 L2060.8 1331.14 Q2056.84 1330.3 2055.08 1328.59 Q2053.33 1326.85 2053.33 1323.84 Q2053.33 1320.19 2055.92 1318.2 Q2058.51 1316.2 2063.28 1316.2 Q2065.64 1316.2 2067.72 1316.55 Q2069.81 1316.9 2071.57 1317.59 Z" fill="#000000" fill-rule="evenodd" fill-opacity="1" /><path clip-path="url(#clip080)" d="M2083.95 1309.47 L2083.95 1316.83 L2092.72 1316.83 L2092.72 1320.14 L2083.95 1320.14 L2083.95 1334.21 Q2083.95 1337.38 2084.81 1338.29 Q2085.69 1339.19 2088.35 1339.19 L2092.72 1339.19 L2092.72 1342.76 L2088.35 1342.76 Q2083.42 1342.76 2081.54 1340.93 Q2079.67 1339.07 2079.67 1334.21 L2079.67 1320.14 L2076.54 1320.14 L2076.54 1316.83 L2079.67 1316.83 L2079.67 1309.47 L2083.95 1309.47 Z" fill="#000000" fill-rule="evenodd" fill-opacity="1" /><path clip-path="url(#clip080)" d="M2133.58 1321.81 Q2135.18 1318.94 2137.4 1317.57 Q2139.62 1316.2 2142.63 1316.2 Q2146.68 1316.2 2148.88 1319.05 Q2151.08 1321.88 2151.08 1327.11 L2151.08 1342.76 L2146.8 1342.76 L2146.8 1327.25 Q2146.8 1323.52 2145.48 1321.71 Q2144.16 1319.91 2141.45 1319.91 Q2138.14 1319.91 2136.22 1322.11 Q2134.3 1324.31 2134.3 1328.1 L2134.3 1342.76 L2130.01 1342.76 L2130.01 1327.25 Q2130.01 1323.5 2128.7 1321.71 Q2127.38 1319.91 2124.62 1319.91 Q2121.36 1319.91 2119.44 1322.13 Q2117.52 1324.33 2117.52 1328.1 L2117.52 1342.76 L2113.23 1342.76 L2113.23 1316.83 L2117.52 1316.83 L2117.52 1320.86 Q2118.97 1318.47 2121.01 1317.34 Q2123.05 1316.2 2125.85 1316.2 Q2128.67 1316.2 2130.64 1317.64 Q2132.63 1319.07 2133.58 1321.81 Z" fill="#000000" fill-rule="evenodd" fill-opacity="1" /><path clip-path="url(#clip080)" d="M2169.62 1319.82 Q2166.2 1319.82 2164.2 1322.5 Q2162.21 1325.16 2162.21 1329.82 Q2162.21 1334.47 2164.18 1337.15 Q2166.17 1339.82 2169.62 1339.82 Q2173.02 1339.82 2175.01 1337.13 Q2177.01 1334.45 2177.01 1329.82 Q2177.01 1325.21 2175.01 1322.52 Q2173.02 1319.82 2169.62 1319.82 M2169.62 1316.2 Q2175.18 1316.2 2178.35 1319.82 Q2181.52 1323.43 2181.52 1329.82 Q2181.52 1336.18 2178.35 1339.82 Q2175.18 1343.43 2169.62 1343.43 Q2164.04 1343.43 2160.87 1339.82 Q2157.72 1336.18 2157.72 1329.82 Q2157.72 1323.43 2160.87 1319.82 Q2164.04 1316.2 2169.62 1316.2 Z" fill="#000000" fill-rule="evenodd" fill-opacity="1" /><path clip-path="url(#clip080)" d="M2205.64 1320.76 L2205.64 1306.74 L2209.9 1306.74 L2209.9 1342.76 L2205.64 1342.76 L2205.64 1338.87 Q2204.3 1341.18 2202.24 1342.32 Q2200.2 1343.43 2197.33 1343.43 Q2192.63 1343.43 2189.67 1339.68 Q2186.73 1335.93 2186.73 1329.82 Q2186.73 1323.7 2189.67 1319.95 Q2192.63 1316.2 2197.33 1316.2 Q2200.2 1316.2 2202.24 1317.34 Q2204.3 1318.45 2205.64 1320.76 M2191.13 1329.82 Q2191.13 1334.51 2193.05 1337.2 Q2194.99 1339.86 2198.37 1339.86 Q2201.75 1339.86 2203.7 1337.2 Q2205.64 1334.51 2205.64 1329.82 Q2205.64 1325.12 2203.7 1322.45 Q2201.75 1319.77 2198.37 1319.77 Q2194.99 1319.77 2193.05 1322.45 Q2191.13 1325.12 2191.13 1329.82 Z" fill="#000000" fill-rule="evenodd" fill-opacity="1" /><path clip-path="url(#clip080)" d="M2240.85 1328.73 L2240.85 1330.81 L2221.26 1330.81 Q2221.54 1335.21 2223.9 1337.52 Q2226.29 1339.82 2230.52 1339.82 Q2232.98 1339.82 2235.27 1339.21 Q2237.58 1338.61 2239.85 1337.41 L2239.85 1341.44 Q2237.56 1342.41 2235.15 1342.92 Q2232.75 1343.43 2230.27 1343.43 Q2224.07 1343.43 2220.43 1339.82 Q2216.82 1336.2 2216.82 1330.05 Q2216.82 1323.68 2220.25 1319.95 Q2223.7 1316.2 2229.53 1316.2 Q2234.76 1316.2 2237.79 1319.58 Q2240.85 1322.94 2240.85 1328.73 M2236.59 1327.48 Q2236.54 1323.98 2234.62 1321.9 Q2232.72 1319.82 2229.57 1319.82 Q2226.01 1319.82 2223.86 1321.83 Q2221.73 1323.84 2221.4 1327.5 L2236.59 1327.48 Z" fill="#000000" fill-rule="evenodd" fill-opacity="1" /></svg>
