<?xml version="1.0" encoding="utf-8"?>
<svg xmlns="http://www.w3.org/2000/svg" xmlns:xlink="http://www.w3.org/1999/xlink" width="600" height="400" viewBox="0 0 2400 1600">
<defs>
  <clipPath id="clip820">
    <rect x="0" y="0" width="2400" height="1600"/>
  </clipPath>
</defs>
<path clip-path="url(#clip820)" d="
M0 1600 L2400 1600 L2400 0 L0 0  Z
  " fill="#ffffff" fill-rule="evenodd" fill-opacity="1"/>
<defs>
  <clipPath id="clip821">
    <rect x="480" y="0" width="1681" height="1600"/>
  </clipPath>
</defs>
<path clip-path="url(#clip820)" d="
M232.389 1410.9 L2352.76 1410.9 L2352.76 47.2441 L232.389 47.2441  Z
  " fill="#ffffff" fill-rule="evenodd" fill-opacity="1"/>
<defs>
  <clipPath id="clip822">
    <rect x="232" y="47" width="2121" height="1365"/>
  </clipPath>
</defs>
<polyline clip-path="url(#clip822)" style="stroke:#000000; stroke-linecap:round; stroke-linejoin:round; stroke-width:2; stroke-opacity:0.1; fill:none" points="
  278.975,1410.9 278.975,47.2441 
  "/>
<polyline clip-path="url(#clip822)" style="stroke:#000000; stroke-linecap:round; stroke-linejoin:round; stroke-width:2; stroke-opacity:0.1; fill:none" points="
  950.232,1410.9 950.232,47.2441 
  "/>
<polyline clip-path="url(#clip822)" style="stroke:#000000; stroke-linecap:round; stroke-linejoin:round; stroke-width:2; stroke-opacity:0.1; fill:none" points="
  1621.49,1410.9 1621.49,47.2441 
  "/>
<polyline clip-path="url(#clip822)" style="stroke:#000000; stroke-linecap:round; stroke-linejoin:round; stroke-width:2; stroke-opacity:0.1; fill:none" points="
  2292.75,1410.9 2292.75,47.2441 
  "/>
<polyline clip-path="url(#clip820)" style="stroke:#000000; stroke-linecap:round; stroke-linejoin:round; stroke-width:4; stroke-opacity:1; fill:none" points="
  232.389,1410.9 2352.76,1410.9 
  "/>
<polyline clip-path="url(#clip820)" style="stroke:#000000; stroke-linecap:round; stroke-linejoin:round; stroke-width:4; stroke-opacity:1; fill:none" points="
  278.975,1410.9 278.975,1392 
  "/>
<polyline clip-path="url(#clip820)" style="stroke:#000000; stroke-linecap:round; stroke-linejoin:round; stroke-width:4; stroke-opacity:1; fill:none" points="
  950.232,1410.9 950.232,1392 
  "/>
<polyline clip-path="url(#clip820)" style="stroke:#000000; stroke-linecap:round; stroke-linejoin:round; stroke-width:4; stroke-opacity:1; fill:none" points="
  1621.49,1410.9 1621.49,1392 
  "/>
<polyline clip-path="url(#clip820)" style="stroke:#000000; stroke-linecap:round; stroke-linejoin:round; stroke-width:4; stroke-opacity:1; fill:none" points="
  2292.75,1410.9 2292.75,1392 
  "/>
<path clip-path="url(#clip820)" d="M278.975 1441.82 Q275.363 1441.82 273.535 1445.38 Q271.729 1448.92 271.729 1456.05 Q271.729 1463.16 273.535 1466.72 Q275.363 1470.26 278.975 1470.26 Q282.609 1470.26 284.414 1466.72 Q286.243 1463.16 286.243 1456.05 Q286.243 1448.92 284.414 1445.38 Q282.609 1441.82 278.975 1441.82 M278.975 1438.11 Q284.785 1438.11 287.84 1442.72 Q290.919 1447.3 290.919 1456.05 Q290.919 1464.78 287.84 1469.38 Q284.785 1473.97 278.975 1473.97 Q273.164 1473.97 270.086 1469.38 Q267.03 1464.78 267.03 1456.05 Q267.03 1447.3 270.086 1442.72 Q273.164 1438.11 278.975 1438.11 Z" fill="#000000" fill-rule="evenodd" fill-opacity="1" /><path clip-path="url(#clip820)" d="M843.208 1454.4 L861.565 1454.4 L861.565 1458.33 L847.491 1458.33 L847.491 1466.8 Q848.509 1466.46 849.528 1466.29 Q850.546 1466.11 851.565 1466.11 Q857.352 1466.11 860.731 1469.28 Q864.111 1472.45 864.111 1477.87 Q864.111 1483.45 860.639 1486.55 Q857.166 1489.63 850.847 1489.63 Q848.671 1489.63 846.403 1489.26 Q844.157 1488.89 841.75 1488.15 L841.75 1483.45 Q843.833 1484.58 846.055 1485.14 Q848.278 1485.69 850.754 1485.69 Q854.759 1485.69 857.097 1483.59 Q859.435 1481.48 859.435 1477.87 Q859.435 1474.26 857.097 1472.15 Q854.759 1470.04 850.754 1470.04 Q848.879 1470.04 847.004 1470.46 Q845.153 1470.88 843.208 1471.76 L843.208 1454.4 Z" fill="#000000" fill-rule="evenodd" fill-opacity="1" /><path clip-path="url(#clip820)" d="M873.324 1483.08 L878.208 1483.08 L878.208 1488.96 L873.324 1488.96 L873.324 1483.08 Z" fill="#000000" fill-rule="evenodd" fill-opacity="1" /><path clip-path="url(#clip820)" d="M898.393 1457.48 Q894.782 1457.48 892.953 1461.04 Q891.148 1464.58 891.148 1471.71 Q891.148 1478.82 892.953 1482.38 Q894.782 1485.92 898.393 1485.92 Q902.027 1485.92 903.833 1482.38 Q905.661 1478.82 905.661 1471.71 Q905.661 1464.58 903.833 1461.04 Q902.027 1457.48 898.393 1457.48 M898.393 1453.77 Q904.203 1453.77 907.259 1458.38 Q910.337 1462.96 910.337 1471.71 Q910.337 1480.44 907.259 1485.04 Q904.203 1489.63 898.393 1489.63 Q892.583 1489.63 889.504 1485.04 Q886.449 1480.44 886.449 1471.71 Q886.449 1462.96 889.504 1458.38 Q892.583 1453.77 898.393 1453.77 Z" fill="#000000" fill-rule="evenodd" fill-opacity="1" /><path clip-path="url(#clip820)" d="M928.555 1457.48 Q924.944 1457.48 923.115 1461.04 Q921.31 1464.58 921.31 1471.71 Q921.31 1478.82 923.115 1482.38 Q924.944 1485.92 928.555 1485.92 Q932.189 1485.92 933.995 1482.38 Q935.823 1478.82 935.823 1471.71 Q935.823 1464.58 933.995 1461.04 Q932.189 1457.48 928.555 1457.48 M928.555 1453.77 Q934.365 1453.77 937.421 1458.38 Q940.499 1462.96 940.499 1471.71 Q940.499 1480.44 937.421 1485.04 Q934.365 1489.63 928.555 1489.63 Q922.745 1489.63 919.666 1485.04 Q916.611 1480.44 916.611 1471.71 Q916.611 1462.96 919.666 1458.38 Q922.745 1453.77 928.555 1453.77 Z" fill="#000000" fill-rule="evenodd" fill-opacity="1" /><path clip-path="url(#clip820)" d="M976.888 1463.49 L966.309 1474.12 L976.888 1484.7 L974.133 1487.5 L963.508 1476.87 L952.883 1487.5 L950.152 1484.7 L960.707 1474.12 L950.152 1463.49 L952.883 1460.69 L963.508 1471.32 L974.133 1460.69 L976.888 1463.49 Z" fill="#000000" fill-rule="evenodd" fill-opacity="1" /><path clip-path="url(#clip820)" d="M989.249 1485.02 L996.888 1485.02 L996.888 1458.66 L988.578 1460.32 L988.578 1456.06 L996.842 1454.4 L1001.52 1454.4 L1001.52 1485.02 L1009.16 1485.02 L1009.16 1488.96 L989.249 1488.96 L989.249 1485.02 Z" fill="#000000" fill-rule="evenodd" fill-opacity="1" /><path clip-path="url(#clip820)" d="M1028.6 1457.48 Q1024.99 1457.48 1023.16 1461.04 Q1021.36 1464.58 1021.36 1471.71 Q1021.36 1478.82 1023.16 1482.38 Q1024.99 1485.92 1028.6 1485.92 Q1032.23 1485.92 1034.04 1482.38 Q1035.87 1478.82 1035.87 1471.71 Q1035.87 1464.58 1034.04 1461.04 Q1032.23 1457.48 1028.6 1457.48 M1028.6 1453.77 Q1034.41 1453.77 1037.47 1458.38 Q1040.55 1462.96 1040.55 1471.71 Q1040.55 1480.44 1037.47 1485.04 Q1034.41 1489.63 1028.6 1489.63 Q1022.79 1489.63 1019.71 1485.04 Q1016.66 1480.44 1016.66 1471.71 Q1016.66 1462.96 1019.71 1458.38 Q1022.79 1453.77 1028.6 1453.77 Z" fill="#000000" fill-rule="evenodd" fill-opacity="1" /><path clip-path="url(#clip820)" d="M1041.73 1433.47 L1056.64 1433.47 L1056.64 1436.66 L1045.21 1436.66 L1045.21 1443.55 Q1046.04 1443.27 1046.86 1443.13 Q1047.69 1442.98 1048.52 1442.98 Q1053.22 1442.98 1055.97 1445.56 Q1058.71 1448.14 1058.71 1452.54 Q1058.71 1457.07 1055.89 1459.59 Q1053.07 1462.09 1047.94 1462.09 Q1046.17 1462.09 1044.33 1461.79 Q1042.5 1461.49 1040.55 1460.89 L1040.55 1457.07 Q1042.24 1457.99 1044.04 1458.44 Q1045.85 1458.89 1047.86 1458.89 Q1051.11 1458.89 1053.01 1457.18 Q1054.91 1455.47 1054.91 1452.54 Q1054.91 1449.6 1053.01 1447.89 Q1051.11 1446.18 1047.86 1446.18 Q1046.34 1446.18 1044.81 1446.52 Q1043.31 1446.86 1041.73 1447.57 L1041.73 1433.47 Z" fill="#000000" fill-rule="evenodd" fill-opacity="1" /><path clip-path="url(#clip820)" d="M1513.84 1485.02 L1521.48 1485.02 L1521.48 1458.66 L1513.17 1460.32 L1513.17 1456.06 L1521.43 1454.4 L1526.11 1454.4 L1526.11 1485.02 L1533.75 1485.02 L1533.75 1488.96 L1513.84 1488.96 L1513.84 1485.02 Z" fill="#000000" fill-rule="evenodd" fill-opacity="1" /><path clip-path="url(#clip820)" d="M1543.19 1483.08 L1548.08 1483.08 L1548.08 1488.96 L1543.19 1488.96 L1543.19 1483.08 Z" fill="#000000" fill-rule="evenodd" fill-opacity="1" /><path clip-path="url(#clip820)" d="M1568.26 1457.48 Q1564.65 1457.48 1562.82 1461.04 Q1561.02 1464.58 1561.02 1471.71 Q1561.02 1478.82 1562.82 1482.38 Q1564.65 1485.92 1568.26 1485.92 Q1571.9 1485.92 1573.7 1482.38 Q1575.53 1478.82 1575.53 1471.71 Q1575.53 1464.58 1573.7 1461.04 Q1571.9 1457.48 1568.26 1457.48 M1568.26 1453.77 Q1574.07 1453.77 1577.13 1458.38 Q1580.21 1462.96 1580.21 1471.71 Q1580.21 1480.44 1577.13 1485.04 Q1574.07 1489.63 1568.26 1489.63 Q1562.45 1489.63 1559.37 1485.04 Q1556.32 1480.44 1556.32 1471.71 Q1556.32 1462.96 1559.37 1458.38 Q1562.45 1453.77 1568.26 1453.77 Z" fill="#000000" fill-rule="evenodd" fill-opacity="1" /><path clip-path="url(#clip820)" d="M1598.43 1457.48 Q1594.81 1457.48 1592.99 1461.04 Q1591.18 1464.58 1591.18 1471.71 Q1591.18 1478.82 1592.99 1482.38 Q1594.81 1485.92 1598.43 1485.92 Q1602.06 1485.92 1603.86 1482.38 Q1605.69 1478.82 1605.69 1471.71 Q1605.69 1464.58 1603.86 1461.04 Q1602.06 1457.48 1598.43 1457.48 M1598.43 1453.77 Q1604.24 1453.77 1607.29 1458.38 Q1610.37 1462.96 1610.37 1471.71 Q1610.37 1480.44 1607.29 1485.04 Q1604.24 1489.63 1598.43 1489.63 Q1592.62 1489.63 1589.54 1485.04 Q1586.48 1480.44 1586.48 1471.71 Q1586.48 1462.96 1589.54 1458.38 Q1592.62 1453.77 1598.43 1453.77 Z" fill="#000000" fill-rule="evenodd" fill-opacity="1" /><path clip-path="url(#clip820)" d="M1646.76 1463.49 L1636.18 1474.12 L1646.76 1484.7 L1644 1487.5 L1633.38 1476.87 L1622.75 1487.5 L1620.02 1484.7 L1630.58 1474.12 L1620.02 1463.49 L1622.75 1460.69 L1633.38 1471.32 L1644 1460.69 L1646.76 1463.49 Z" fill="#000000" fill-rule="evenodd" fill-opacity="1" /><path clip-path="url(#clip820)" d="M1659.12 1485.02 L1666.76 1485.02 L1666.76 1458.66 L1658.45 1460.32 L1658.45 1456.06 L1666.71 1454.4 L1671.39 1454.4 L1671.39 1485.02 L1679.03 1485.02 L1679.03 1488.96 L1659.12 1488.96 L1659.12 1485.02 Z" fill="#000000" fill-rule="evenodd" fill-opacity="1" /><path clip-path="url(#clip820)" d="M1698.47 1457.48 Q1694.86 1457.48 1693.03 1461.04 Q1691.23 1464.58 1691.23 1471.71 Q1691.23 1478.82 1693.03 1482.38 Q1694.86 1485.92 1698.47 1485.92 Q1702.11 1485.92 1703.91 1482.38 Q1705.74 1478.82 1705.74 1471.71 Q1705.74 1464.58 1703.91 1461.04 Q1702.11 1457.48 1698.47 1457.48 M1698.47 1453.77 Q1704.28 1453.77 1707.34 1458.38 Q1710.42 1462.96 1710.42 1471.71 Q1710.42 1480.44 1707.34 1485.04 Q1704.28 1489.63 1698.47 1489.63 Q1692.66 1489.63 1689.58 1485.04 Q1686.53 1480.44 1686.53 1471.71 Q1686.53 1462.96 1689.58 1458.38 Q1692.66 1453.77 1698.47 1453.77 Z" fill="#000000" fill-rule="evenodd" fill-opacity="1" /><path clip-path="url(#clip820)" d="M1720.44 1445.99 Q1717.88 1445.99 1716.38 1447.74 Q1714.89 1449.49 1714.89 1452.54 Q1714.89 1455.57 1716.38 1457.33 Q1717.88 1459.08 1720.44 1459.08 Q1723 1459.08 1724.48 1457.33 Q1725.99 1455.57 1725.99 1452.54 Q1725.99 1449.49 1724.48 1447.74 Q1723 1445.99 1720.44 1445.99 M1727.98 1434.09 L1727.98 1437.55 Q1726.55 1436.87 1725.09 1436.51 Q1723.64 1436.16 1722.21 1436.16 Q1718.45 1436.16 1716.45 1438.69 Q1714.48 1441.23 1714.2 1446.37 Q1715.31 1444.73 1716.98 1443.87 Q1718.65 1442.98 1720.67 1442.98 Q1724.9 1442.98 1727.34 1445.56 Q1729.81 1448.12 1729.81 1452.54 Q1729.81 1456.86 1727.25 1459.48 Q1724.69 1462.09 1720.44 1462.09 Q1715.57 1462.09 1712.99 1458.37 Q1710.42 1454.62 1710.42 1447.53 Q1710.42 1440.88 1713.58 1436.93 Q1716.73 1432.96 1722.06 1432.96 Q1723.49 1432.96 1724.93 1433.24 Q1726.4 1433.52 1727.98 1434.09 Z" fill="#000000" fill-rule="evenodd" fill-opacity="1" /><path clip-path="url(#clip820)" d="M2185.1 1485.02 L2192.74 1485.02 L2192.74 1458.66 L2184.43 1460.32 L2184.43 1456.06 L2192.69 1454.4 L2197.37 1454.4 L2197.37 1485.02 L2205.01 1485.02 L2205.01 1488.96 L2185.1 1488.96 L2185.1 1485.02 Z" fill="#000000" fill-rule="evenodd" fill-opacity="1" /><path clip-path="url(#clip820)" d="M2214.45 1483.08 L2219.34 1483.08 L2219.34 1488.96 L2214.45 1488.96 L2214.45 1483.08 Z" fill="#000000" fill-rule="evenodd" fill-opacity="1" /><path clip-path="url(#clip820)" d="M2229.57 1454.4 L2247.92 1454.4 L2247.92 1458.33 L2233.85 1458.33 L2233.85 1466.8 Q2234.87 1466.46 2235.89 1466.29 Q2236.9 1466.11 2237.92 1466.11 Q2243.71 1466.11 2247.09 1469.28 Q2250.47 1472.45 2250.47 1477.87 Q2250.47 1483.45 2247 1486.55 Q2243.52 1489.63 2237.21 1489.63 Q2235.03 1489.63 2232.76 1489.26 Q2230.52 1488.89 2228.11 1488.15 L2228.11 1483.45 Q2230.19 1484.58 2232.41 1485.14 Q2234.64 1485.69 2237.11 1485.69 Q2241.12 1485.69 2243.46 1483.59 Q2245.79 1481.48 2245.79 1477.87 Q2245.79 1474.26 2243.46 1472.15 Q2241.12 1470.04 2237.11 1470.04 Q2235.24 1470.04 2233.36 1470.46 Q2231.51 1470.88 2229.57 1471.76 L2229.57 1454.4 Z" fill="#000000" fill-rule="evenodd" fill-opacity="1" /><path clip-path="url(#clip820)" d="M2269.68 1457.48 Q2266.07 1457.48 2264.24 1461.04 Q2262.44 1464.58 2262.44 1471.71 Q2262.44 1478.82 2264.24 1482.38 Q2266.07 1485.92 2269.68 1485.92 Q2273.32 1485.92 2275.12 1482.38 Q2276.95 1478.82 2276.95 1471.71 Q2276.95 1464.58 2275.12 1461.04 Q2273.32 1457.48 2269.68 1457.48 M2269.68 1453.77 Q2275.49 1453.77 2278.55 1458.38 Q2281.63 1462.96 2281.63 1471.71 Q2281.63 1480.44 2278.55 1485.04 Q2275.49 1489.63 2269.68 1489.63 Q2263.87 1489.63 2260.79 1485.04 Q2257.74 1480.44 2257.74 1471.71 Q2257.74 1462.96 2260.79 1458.38 Q2263.87 1453.77 2269.68 1453.77 Z" fill="#000000" fill-rule="evenodd" fill-opacity="1" /><path clip-path="url(#clip820)" d="M2318.02 1463.49 L2307.44 1474.12 L2318.02 1484.7 L2315.26 1487.5 L2304.64 1476.87 L2294.01 1487.5 L2291.28 1484.7 L2301.83 1474.12 L2291.28 1463.49 L2294.01 1460.69 L2304.64 1471.32 L2315.26 1460.69 L2318.02 1463.49 Z" fill="#000000" fill-rule="evenodd" fill-opacity="1" /><path clip-path="url(#clip820)" d="M2330.38 1485.02 L2338.02 1485.02 L2338.02 1458.66 L2329.7 1460.32 L2329.7 1456.06 L2337.97 1454.4 L2342.64 1454.4 L2342.64 1485.02 L2350.28 1485.02 L2350.28 1488.96 L2330.38 1488.96 L2330.38 1485.02 Z" fill="#000000" fill-rule="evenodd" fill-opacity="1" /><path clip-path="url(#clip820)" d="M2369.73 1457.48 Q2366.12 1457.48 2364.29 1461.04 Q2362.48 1464.58 2362.48 1471.71 Q2362.48 1478.82 2364.29 1482.38 Q2366.12 1485.92 2369.73 1485.92 Q2373.36 1485.92 2375.17 1482.38 Q2377 1478.82 2377 1471.71 Q2377 1464.58 2375.17 1461.04 Q2373.36 1457.48 2369.73 1457.48 M2369.73 1453.77 Q2375.54 1453.77 2378.59 1458.38 Q2381.67 1462.96 2381.67 1471.71 Q2381.67 1480.44 2378.59 1485.04 Q2375.54 1489.63 2369.73 1489.63 Q2363.92 1489.63 2360.84 1485.04 Q2357.78 1480.44 2357.78 1471.71 Q2357.78 1462.96 2360.84 1458.38 Q2363.92 1453.77 2369.73 1453.77 Z" fill="#000000" fill-rule="evenodd" fill-opacity="1" /><path clip-path="url(#clip820)" d="M2391.7 1445.99 Q2389.14 1445.99 2387.63 1447.74 Q2386.15 1449.49 2386.15 1452.54 Q2386.15 1455.57 2387.63 1457.33 Q2389.14 1459.08 2391.7 1459.08 Q2394.25 1459.08 2395.74 1457.33 Q2397.25 1455.57 2397.25 1452.54 Q2397.25 1449.49 2395.74 1447.74 Q2394.25 1445.99 2391.7 1445.99 M2399.24 1434.09 L2399.24 1437.55 Q2397.81 1436.87 2396.34 1436.51 Q2394.89 1436.16 2393.46 1436.16 Q2389.7 1436.16 2387.71 1438.69 Q2385.73 1441.23 2385.45 1446.37 Q2386.56 1444.73 2388.24 1443.87 Q2389.91 1442.98 2391.92 1442.98 Q2396.15 1442.98 2398.6 1445.56 Q2401.06 1448.12 2401.06 1452.54 Q2401.06 1456.86 2398.51 1459.48 Q2395.95 1462.09 2391.7 1462.09 Q2386.83 1462.09 2384.25 1458.37 Q2381.67 1454.62 2381.67 1447.53 Q2381.67 1440.88 2384.83 1436.93 Q2387.99 1432.96 2393.31 1432.96 Q2394.74 1432.96 2396.19 1433.24 Q2397.66 1433.52 2399.24 1434.09 Z" fill="#000000" fill-rule="evenodd" fill-opacity="1" /><path clip-path="url(#clip820)" d="M1142.14 1526.67 L1148.56 1526.67 L1148.56 1574.19 L1142.14 1574.19 L1142.14 1526.67 Z" fill="#000000" fill-rule="evenodd" fill-opacity="1" /><path clip-path="url(#clip820)" d="M1166.9 1528.42 L1166.9 1538.54 L1178.96 1538.54 L1178.96 1543.09 L1166.9 1543.09 L1166.9 1562.44 Q1166.9 1566.8 1168.08 1568.04 Q1169.28 1569.28 1172.95 1569.28 L1178.96 1569.28 L1178.96 1574.19 L1172.95 1574.19 Q1166.17 1574.19 1163.59 1571.67 Q1161.01 1569.12 1161.01 1562.44 L1161.01 1543.09 L1156.71 1543.09 L1156.71 1538.54 L1161.01 1538.54 L1161.01 1528.42 L1166.9 1528.42 Z" fill="#000000" fill-rule="evenodd" fill-opacity="1" /><path clip-path="url(#clip820)" d="M1217.15 1554.9 L1217.15 1557.76 L1190.23 1557.76 Q1190.61 1563.81 1193.86 1566.99 Q1197.13 1570.14 1202.96 1570.14 Q1206.33 1570.14 1209.48 1569.32 Q1212.67 1568.49 1215.79 1566.83 L1215.79 1572.37 Q1212.64 1573.71 1209.33 1574.41 Q1206.01 1575.11 1202.61 1575.11 Q1194.08 1575.11 1189.08 1570.14 Q1184.12 1565.18 1184.12 1556.71 Q1184.12 1547.96 1188.83 1542.83 Q1193.57 1537.68 1201.59 1537.68 Q1208.78 1537.68 1212.95 1542.33 Q1217.15 1546.94 1217.15 1554.9 M1211.3 1553.18 Q1211.23 1548.37 1208.59 1545.51 Q1205.98 1542.64 1201.65 1542.64 Q1196.75 1542.64 1193.79 1545.41 Q1190.86 1548.18 1190.42 1553.21 L1211.3 1553.18 Z" fill="#000000" fill-rule="evenodd" fill-opacity="1" /><path clip-path="url(#clip820)" d="M1247.42 1544.01 Q1246.44 1543.44 1245.26 1543.18 Q1244.11 1542.9 1242.71 1542.9 Q1237.75 1542.9 1235.07 1546.14 Q1232.43 1549.36 1232.43 1555.41 L1232.43 1574.19 L1226.54 1574.19 L1226.54 1538.54 L1232.43 1538.54 L1232.43 1544.08 Q1234.28 1540.83 1237.24 1539.27 Q1240.2 1537.68 1244.43 1537.68 Q1245.04 1537.68 1245.77 1537.77 Q1246.5 1537.84 1247.39 1538 L1247.42 1544.01 Z" fill="#000000" fill-rule="evenodd" fill-opacity="1" /><path clip-path="url(#clip820)" d="M1269.77 1556.27 Q1262.67 1556.27 1259.93 1557.89 Q1257.2 1559.51 1257.2 1563.43 Q1257.2 1566.55 1259.23 1568.39 Q1261.3 1570.21 1264.83 1570.21 Q1269.7 1570.21 1272.63 1566.77 Q1275.59 1563.3 1275.59 1557.57 L1275.59 1556.27 L1269.77 1556.27 M1281.45 1553.85 L1281.45 1574.19 L1275.59 1574.19 L1275.59 1568.77 Q1273.59 1572.02 1270.6 1573.58 Q1267.6 1575.11 1263.27 1575.11 Q1257.8 1575.11 1254.55 1572.05 Q1251.34 1568.97 1251.34 1563.81 Q1251.34 1557.79 1255.35 1554.74 Q1259.39 1551.68 1267.38 1551.68 L1275.59 1551.68 L1275.59 1551.11 Q1275.59 1547.07 1272.92 1544.87 Q1270.28 1542.64 1265.47 1542.64 Q1262.42 1542.64 1259.52 1543.38 Q1256.62 1544.11 1253.95 1545.57 L1253.95 1540.16 Q1257.16 1538.92 1260.19 1538.31 Q1263.21 1537.68 1266.08 1537.68 Q1273.81 1537.68 1277.63 1541.69 Q1281.45 1545.7 1281.45 1553.85 Z" fill="#000000" fill-rule="evenodd" fill-opacity="1" /><path clip-path="url(#clip820)" d="M1299.3 1528.42 L1299.3 1538.54 L1311.37 1538.54 L1311.37 1543.09 L1299.3 1543.09 L1299.3 1562.44 Q1299.3 1566.8 1300.48 1568.04 Q1301.69 1569.28 1305.35 1569.28 L1311.37 1569.28 L1311.37 1574.19 L1305.35 1574.19 Q1298.57 1574.19 1295.99 1571.67 Q1293.42 1569.12 1293.42 1562.44 L1293.42 1543.09 L1289.12 1543.09 L1289.12 1538.54 L1293.42 1538.54 L1293.42 1528.42 L1299.3 1528.42 Z" fill="#000000" fill-rule="evenodd" fill-opacity="1" /><path clip-path="url(#clip820)" d="M1319.07 1538.54 L1324.93 1538.54 L1324.93 1574.19 L1319.07 1574.19 L1319.07 1538.54 M1319.07 1524.66 L1324.93 1524.66 L1324.93 1532.08 L1319.07 1532.08 L1319.07 1524.66 Z" fill="#000000" fill-rule="evenodd" fill-opacity="1" /><path clip-path="url(#clip820)" d="M1350.99 1542.64 Q1346.28 1542.64 1343.55 1546.34 Q1340.81 1550 1340.81 1556.39 Q1340.81 1562.79 1343.51 1566.48 Q1346.25 1570.14 1350.99 1570.14 Q1355.67 1570.14 1358.41 1566.45 Q1361.15 1562.76 1361.15 1556.39 Q1361.15 1550.06 1358.41 1546.37 Q1355.67 1542.64 1350.99 1542.64 M1350.99 1537.68 Q1358.63 1537.68 1362.99 1542.64 Q1367.35 1547.61 1367.35 1556.39 Q1367.35 1565.15 1362.99 1570.14 Q1358.63 1575.11 1350.99 1575.11 Q1343.32 1575.11 1338.96 1570.14 Q1334.63 1565.15 1334.63 1556.39 Q1334.63 1547.61 1338.96 1542.64 Q1343.32 1537.68 1350.99 1537.68 Z" fill="#000000" fill-rule="evenodd" fill-opacity="1" /><path clip-path="url(#clip820)" d="M1406.69 1552.67 L1406.69 1574.19 L1400.84 1574.19 L1400.84 1552.86 Q1400.84 1547.8 1398.86 1545.29 Q1396.89 1542.77 1392.94 1542.77 Q1388.2 1542.77 1385.46 1545.79 Q1382.73 1548.82 1382.73 1554.04 L1382.73 1574.19 L1376.84 1574.19 L1376.84 1538.54 L1382.73 1538.54 L1382.73 1544.08 Q1384.83 1540.86 1387.66 1539.27 Q1390.52 1537.68 1394.25 1537.68 Q1400.39 1537.68 1403.54 1541.5 Q1406.69 1545.29 1406.69 1552.67 Z" fill="#000000" fill-rule="evenodd" fill-opacity="1" /><path clip-path="url(#clip820)" d="M1441.1 1539.59 L1441.1 1545.13 Q1438.62 1543.85 1435.94 1543.22 Q1433.27 1542.58 1430.41 1542.58 Q1426.05 1542.58 1423.85 1543.92 Q1421.69 1545.25 1421.69 1547.93 Q1421.69 1549.96 1423.24 1551.14 Q1424.8 1552.29 1429.51 1553.34 L1431.52 1553.78 Q1437.76 1555.12 1440.37 1557.57 Q1443.01 1559.99 1443.01 1564.35 Q1443.01 1569.32 1439.06 1572.21 Q1435.15 1575.11 1428.27 1575.11 Q1425.41 1575.11 1422.29 1574.54 Q1419.2 1573.99 1415.76 1572.88 L1415.76 1566.83 Q1419.01 1568.52 1422.16 1569.38 Q1425.31 1570.21 1428.4 1570.21 Q1432.54 1570.21 1434.77 1568.81 Q1436.99 1567.37 1436.99 1564.8 Q1436.99 1562.41 1435.37 1561.14 Q1433.78 1559.86 1428.34 1558.68 L1426.3 1558.21 Q1420.86 1557.06 1418.44 1554.71 Q1416.02 1552.32 1416.02 1548.18 Q1416.02 1543.15 1419.58 1540.42 Q1423.15 1537.68 1429.71 1537.68 Q1432.95 1537.68 1435.82 1538.16 Q1438.68 1538.63 1441.1 1539.59 Z" fill="#000000" fill-rule="evenodd" fill-opacity="1" /><polyline clip-path="url(#clip822)" style="stroke:#000000; stroke-linecap:round; stroke-linejoin:round; stroke-width:2; stroke-opacity:0.1; fill:none" points="
  232.389,1235.76 2352.76,1235.76 
  "/>
<polyline clip-path="url(#clip822)" style="stroke:#000000; stroke-linecap:round; stroke-linejoin:round; stroke-width:2; stroke-opacity:0.1; fill:none" points="
  232.389,861.096 2352.76,861.096 
  "/>
<polyline clip-path="url(#clip822)" style="stroke:#000000; stroke-linecap:round; stroke-linejoin:round; stroke-width:2; stroke-opacity:0.1; fill:none" points="
  232.389,486.428 2352.76,486.428 
  "/>
<polyline clip-path="url(#clip822)" style="stroke:#000000; stroke-linecap:round; stroke-linejoin:round; stroke-width:2; stroke-opacity:0.1; fill:none" points="
  232.389,111.759 2352.76,111.759 
  "/>
<polyline clip-path="url(#clip820)" style="stroke:#000000; stroke-linecap:round; stroke-linejoin:round; stroke-width:4; stroke-opacity:1; fill:none" points="
  232.389,1410.9 232.389,47.2441 
  "/>
<polyline clip-path="url(#clip820)" style="stroke:#000000; stroke-linecap:round; stroke-linejoin:round; stroke-width:4; stroke-opacity:1; fill:none" points="
  232.389,1235.76 251.287,1235.76 
  "/>
<polyline clip-path="url(#clip820)" style="stroke:#000000; stroke-linecap:round; stroke-linejoin:round; stroke-width:4; stroke-opacity:1; fill:none" points="
  232.389,861.096 251.287,861.096 
  "/>
<polyline clip-path="url(#clip820)" style="stroke:#000000; stroke-linecap:round; stroke-linejoin:round; stroke-width:4; stroke-opacity:1; fill:none" points="
  232.389,486.428 251.287,486.428 
  "/>
<polyline clip-path="url(#clip820)" style="stroke:#000000; stroke-linecap:round; stroke-linejoin:round; stroke-width:4; stroke-opacity:1; fill:none" points="
  232.389,111.759 251.287,111.759 
  "/>
<path clip-path="url(#clip820)" d="M184.445 1221.56 Q180.834 1221.56 179.005 1225.13 Q177.2 1228.67 177.2 1235.8 Q177.2 1242.91 179.005 1246.47 Q180.834 1250.01 184.445 1250.01 Q188.079 1250.01 189.885 1246.47 Q191.713 1242.91 191.713 1235.8 Q191.713 1228.67 189.885 1225.13 Q188.079 1221.56 184.445 1221.56 M184.445 1217.86 Q190.255 1217.86 193.311 1222.47 Q196.389 1227.05 196.389 1235.8 Q196.389 1244.53 193.311 1249.13 Q190.255 1253.72 184.445 1253.72 Q178.635 1253.72 175.556 1249.13 Q172.501 1244.53 172.501 1235.8 Q172.501 1227.05 175.556 1222.47 Q178.635 1217.86 184.445 1217.86 Z" fill="#000000" fill-rule="evenodd" fill-opacity="1" /><path clip-path="url(#clip820)" d="M144.329 843.816 L162.686 843.816 L162.686 847.752 L148.612 847.752 L148.612 856.224 Q149.63 855.876 150.649 855.714 Q151.667 855.529 152.686 855.529 Q158.473 855.529 161.852 858.701 Q165.232 861.872 165.232 867.288 Q165.232 872.867 161.76 875.969 Q158.288 879.048 151.968 879.048 Q149.792 879.048 147.524 878.677 Q145.279 878.307 142.871 877.566 L142.871 872.867 Q144.954 874.001 147.177 874.557 Q149.399 875.112 151.876 875.112 Q155.88 875.112 158.218 873.006 Q160.556 870.9 160.556 867.288 Q160.556 863.677 158.218 861.571 Q155.88 859.464 151.876 859.464 Q150.001 859.464 148.126 859.881 Q146.274 860.298 144.329 861.177 L144.329 843.816 Z" fill="#000000" fill-rule="evenodd" fill-opacity="1" /><path clip-path="url(#clip820)" d="M184.445 846.895 Q180.834 846.895 179.005 850.46 Q177.2 854.001 177.2 861.131 Q177.2 868.238 179.005 871.802 Q180.834 875.344 184.445 875.344 Q188.079 875.344 189.885 871.802 Q191.713 868.238 191.713 861.131 Q191.713 854.001 189.885 850.46 Q188.079 846.895 184.445 846.895 M184.445 843.191 Q190.255 843.191 193.311 847.798 Q196.389 852.381 196.389 861.131 Q196.389 869.858 193.311 874.464 Q190.255 879.048 184.445 879.048 Q178.635 879.048 175.556 874.464 Q172.501 869.858 172.501 861.131 Q172.501 852.381 175.556 847.798 Q178.635 843.191 184.445 843.191 Z" fill="#000000" fill-rule="evenodd" fill-opacity="1" /><path clip-path="url(#clip820)" d="M114.931 499.773 L122.57 499.773 L122.57 473.407 L114.26 475.074 L114.26 470.814 L122.524 469.148 L127.2 469.148 L127.2 499.773 L134.839 499.773 L134.839 503.708 L114.931 503.708 L114.931 499.773 Z" fill="#000000" fill-rule="evenodd" fill-opacity="1" /><path clip-path="url(#clip820)" d="M154.283 472.226 Q150.672 472.226 148.843 475.791 Q147.038 479.333 147.038 486.462 Q147.038 493.569 148.843 497.134 Q150.672 500.675 154.283 500.675 Q157.917 500.675 159.723 497.134 Q161.552 493.569 161.552 486.462 Q161.552 479.333 159.723 475.791 Q157.917 472.226 154.283 472.226 M154.283 468.523 Q160.093 468.523 163.149 473.129 Q166.227 477.713 166.227 486.462 Q166.227 495.189 163.149 499.796 Q160.093 504.379 154.283 504.379 Q148.473 504.379 145.394 499.796 Q142.339 495.189 142.339 486.462 Q142.339 477.713 145.394 473.129 Q148.473 468.523 154.283 468.523 Z" fill="#000000" fill-rule="evenodd" fill-opacity="1" /><path clip-path="url(#clip820)" d="M184.445 472.226 Q180.834 472.226 179.005 475.791 Q177.2 479.333 177.2 486.462 Q177.2 493.569 179.005 497.134 Q180.834 500.675 184.445 500.675 Q188.079 500.675 189.885 497.134 Q191.713 493.569 191.713 486.462 Q191.713 479.333 189.885 475.791 Q188.079 472.226 184.445 472.226 M184.445 468.523 Q190.255 468.523 193.311 473.129 Q196.389 477.713 196.389 486.462 Q196.389 495.189 193.311 499.796 Q190.255 504.379 184.445 504.379 Q178.635 504.379 175.556 499.796 Q172.501 495.189 172.501 486.462 Q172.501 477.713 175.556 473.129 Q178.635 468.523 184.445 468.523 Z" fill="#000000" fill-rule="evenodd" fill-opacity="1" /><path clip-path="url(#clip820)" d="M114.931 125.104 L122.57 125.104 L122.57 98.7384 L114.26 100.405 L114.26 96.1458 L122.524 94.4791 L127.2 94.4791 L127.2 125.104 L134.839 125.104 L134.839 129.039 L114.931 129.039 L114.931 125.104 Z" fill="#000000" fill-rule="evenodd" fill-opacity="1" /><path clip-path="url(#clip820)" d="M144.329 94.4791 L162.686 94.4791 L162.686 98.4143 L148.612 98.4143 L148.612 106.886 Q149.63 106.539 150.649 106.377 Q151.667 106.192 152.686 106.192 Q158.473 106.192 161.852 109.363 Q165.232 112.535 165.232 117.951 Q165.232 123.53 161.76 126.632 Q158.288 129.71 151.968 129.71 Q149.792 129.71 147.524 129.34 Q145.279 128.97 142.871 128.229 L142.871 123.53 Q144.954 124.664 147.177 125.22 Q149.399 125.775 151.876 125.775 Q155.88 125.775 158.218 123.669 Q160.556 121.562 160.556 117.951 Q160.556 114.34 158.218 112.234 Q155.88 110.127 151.876 110.127 Q150.001 110.127 148.126 110.544 Q146.274 110.961 144.329 111.84 L144.329 94.4791 Z" fill="#000000" fill-rule="evenodd" fill-opacity="1" /><path clip-path="url(#clip820)" d="M184.445 97.5578 Q180.834 97.5578 179.005 101.123 Q177.2 104.664 177.2 111.794 Q177.2 118.9 179.005 122.465 Q180.834 126.007 184.445 126.007 Q188.079 126.007 189.885 122.465 Q191.713 118.9 191.713 111.794 Q191.713 104.664 189.885 101.123 Q188.079 97.5578 184.445 97.5578 M184.445 93.8541 Q190.255 93.8541 193.311 98.4606 Q196.389 103.044 196.389 111.794 Q196.389 120.521 193.311 125.127 Q190.255 129.71 184.445 129.71 Q178.635 129.71 175.556 125.127 Q172.501 120.521 172.501 111.794 Q172.501 103.044 175.556 98.4606 Q178.635 93.8541 184.445 93.8541 Z" fill="#000000" fill-rule="evenodd" fill-opacity="1" /><path clip-path="url(#clip820)" d="M41.7242 821.755 Q42.4244 819.686 44.7161 817.745 Q47.0077 815.771 51.0181 813.798 L64.0042 807.273 L64.0042 814.18 L51.8138 820.259 Q47.0395 822.614 45.48 824.842 Q43.9204 827.039 43.9204 830.858 L43.9204 837.86 L64.0042 837.86 L64.0042 844.29 L16.4842 844.29 L16.4842 829.776 Q16.4842 821.628 19.8898 817.617 Q23.2955 813.607 30.1704 813.607 Q34.6582 813.607 37.6183 815.708 Q40.5784 817.776 41.7242 821.755 M21.7677 837.86 L38.6368 837.86 L38.6368 829.776 Q38.6368 825.129 36.5043 822.774 Q34.34 820.386 30.1704 820.386 Q26.0009 820.386 23.9002 822.774 Q21.7677 825.129 21.7677 829.776 L21.7677 837.86 Z" fill="#000000" fill-rule="evenodd" fill-opacity="1" /><path clip-path="url(#clip820)" d="M44.7161 771.689 L47.5806 771.689 L47.5806 798.616 Q53.6281 798.234 56.8109 794.987 Q59.9619 791.709 59.9619 785.884 Q59.9619 782.51 59.1344 779.359 Q58.3069 776.177 56.6518 773.057 L62.1899 773.057 Q63.5267 776.208 64.227 779.519 Q64.9272 782.829 64.9272 786.234 Q64.9272 794.764 59.9619 799.762 Q54.9967 804.727 46.5303 804.727 Q37.7774 804.727 32.6531 800.016 Q27.4968 795.274 27.4968 787.253 Q27.4968 780.06 32.1438 775.89 Q36.7589 771.689 44.7161 771.689 M42.9973 777.545 Q38.1912 777.609 35.3266 780.251 Q32.4621 782.861 32.4621 787.189 Q32.4621 792.091 35.2312 795.051 Q38.0002 797.979 43.0292 798.425 L42.9973 777.545 Z" fill="#000000" fill-rule="evenodd" fill-opacity="1" /><path clip-path="url(#clip820)" d="M28.3562 765.482 L28.3562 759.626 L56.1743 752.305 L28.3562 745.016 L28.3562 738.11 L56.1743 730.789 L28.3562 723.5 L28.3562 717.644 L64.0042 726.97 L64.0042 733.876 L34.7856 741.547 L64.0042 749.25 L64.0042 756.156 L28.3562 765.482 Z" fill="#000000" fill-rule="evenodd" fill-opacity="1" /><path clip-path="url(#clip820)" d="M46.0847 692.563 Q46.0847 699.661 47.7079 702.398 Q49.3312 705.135 53.2461 705.135 Q56.3653 705.135 58.2114 703.098 Q60.0256 701.029 60.0256 697.496 Q60.0256 692.627 56.5881 689.698 Q53.1188 686.738 47.3897 686.738 L46.0847 686.738 L46.0847 692.563 M43.6657 680.882 L64.0042 680.882 L64.0042 686.738 L58.5933 686.738 Q61.8398 688.744 63.3994 691.735 Q64.9272 694.727 64.9272 699.056 Q64.9272 704.531 61.8716 707.777 Q58.7843 710.992 53.6281 710.992 Q47.6125 710.992 44.5569 706.981 Q41.5014 702.939 41.5014 694.95 L41.5014 686.738 L40.9285 686.738 Q36.8862 686.738 34.6901 689.412 Q32.4621 692.054 32.4621 696.86 Q32.4621 699.915 33.1941 702.812 Q33.9262 705.708 35.3903 708.382 L29.9795 708.382 Q28.7381 705.167 28.1334 702.143 Q27.4968 699.12 27.4968 696.255 Q27.4968 688.521 31.5072 684.701 Q35.5176 680.882 43.6657 680.882 Z" fill="#000000" fill-rule="evenodd" fill-opacity="1" /><path clip-path="url(#clip820)" d="M33.8307 648.162 Q33.2578 649.149 33.0032 650.327 Q32.7167 651.472 32.7167 652.873 Q32.7167 657.838 35.9632 660.512 Q39.1779 663.153 45.2253 663.153 L64.0042 663.153 L64.0042 669.042 L28.3562 669.042 L28.3562 663.153 L33.8944 663.153 Q30.6479 661.307 29.0883 658.347 Q27.4968 655.387 27.4968 651.154 Q27.4968 650.549 27.5923 649.817 Q27.656 649.085 27.8151 648.194 L33.8307 648.162 Z" fill="#000000" fill-rule="evenodd" fill-opacity="1" /><path clip-path="url(#clip820)" d="M33.7671 619.708 L14.479 619.708 L14.479 613.851 L64.0042 613.851 L64.0042 619.708 L58.657 619.708 Q61.8398 621.554 63.3994 624.386 Q64.9272 627.187 64.9272 631.134 Q64.9272 637.595 59.771 641.669 Q54.6147 645.711 46.212 645.711 Q37.8093 645.711 32.6531 641.669 Q27.4968 637.595 27.4968 631.134 Q27.4968 627.187 29.0564 624.386 Q30.5842 621.554 33.7671 619.708 M46.212 639.664 Q52.6732 639.664 56.3653 637.022 Q60.0256 634.349 60.0256 629.702 Q60.0256 625.055 56.3653 622.381 Q52.6732 619.708 46.212 619.708 Q39.7508 619.708 36.0905 622.381 Q32.3984 625.055 32.3984 629.702 Q32.3984 634.349 36.0905 637.022 Q39.7508 639.664 46.212 639.664 Z" fill="#000000" fill-rule="evenodd" fill-opacity="1" /><polyline clip-path="url(#clip822)" style="stroke:#009af9; stroke-linecap:round; stroke-linejoin:round; stroke-width:4; stroke-opacity:1; fill:none" points="
  292.4,1372.3 305.825,1359.85 319.25,1294.38 332.675,1238.26 346.1,1197.41 359.525,1153.81 372.951,1117.17 386.376,1038.34 399.801,1016.03 413.226,818.126 
  426.651,554.591 440.076,488.639 453.501,351.886 466.927,364.837 480.352,398.624 493.777,284.991 507.202,224.699 520.627,224.386 534.052,171.014 547.477,215.238 
  560.903,178.954 574.328,236.214 587.753,180.987 601.178,174.401 614.603,181.584 628.028,201.145 641.453,176.607 654.878,112.492 668.304,139.576 681.729,149.132 
  695.154,163.823 708.579,191.189 722.004,150.68 735.429,187.123 748.854,139.045 762.28,148.295 775.705,154.644 789.13,134.502 802.555,141.677 815.98,159.466 
  829.405,126.025 842.83,149.948 856.256,137.978 869.681,133.744 883.106,147.484 896.531,146.003 909.956,172.607 923.381,159.95 936.806,85.838 950.232,137.023 
  963.657,175.14 977.082,162.483 990.507,150.479 1003.93,210.882 1017.36,124.614 1030.78,159.334 1044.21,112.428 1057.63,139.072 1071.06,131.829 1084.48,133.229 
  1097.91,145.544 1111.33,128.254 1124.76,122.815 1138.18,126.316 1151.61,133.727 1165.03,147.336 1178.46,151.448 1191.88,129.135 1205.31,154.343 1218.73,157.941 
  1232.16,133.377 1245.58,125.453 1259.01,135.501 1272.43,130.647 1285.86,121.687 1299.29,116.063 1312.71,116.141 1326.14,105.639 1339.56,125.87 1352.99,169.653 
  1366.41,168.446 1379.84,161.649 1393.26,175.801 1406.69,147.5 1420.11,111.434 1433.54,104.332 1446.96,149.325 1460.39,190.162 1473.81,191.44 1487.24,177.49 
  1500.66,149.645 1514.09,130.676 1527.51,124.35 1540.94,141.915 1554.36,133.743 1567.79,150.835 1581.21,174.049 1594.64,151.479 1608.06,193.733 1621.49,179.553 
  1634.91,134.72 1648.34,139.557 1661.76,133.474 1675.19,158.605 1688.61,169.923 1702.04,174.149 1715.46,159.379 1728.89,192.818 1742.31,143.359 1755.74,165.322 
  1769.17,186.338 1782.59,151.909 1796.02,185.115 1809.44,143.353 1822.87,147.594 1836.29,161.336 1849.72,151.498 1863.14,119.753 1876.57,137.906 1889.99,188.641 
  1903.42,152.677 1916.84,182.527 1930.27,195.117 1943.69,196.957 1957.12,130.65 1970.54,131.093 1983.97,147.799 1997.39,166.28 2010.82,158.725 2024.24,129.009 
  2037.67,148.91 2051.09,212.078 2064.52,206.672 2077.94,158.818 2091.37,242.781 2104.79,242.356 2118.22,199.156 2131.64,208.133 2145.07,185.461 2158.49,178.376 
  2171.92,188.474 2185.34,173.104 2198.77,207.58 2212.19,262.091 2225.62,200.97 2239.04,197.675 2252.47,198.184 2265.9,212.545 2279.32,162.579 2292.75,192.203 
  
  "/>
<polyline clip-path="url(#clip822)" style="stroke:#e26f46; stroke-linecap:round; stroke-linejoin:round; stroke-width:4; stroke-opacity:1; fill:none" points="
  292.4,808.455 305.825,734.75 319.25,718.579 332.675,718.14 346.1,719.178 359.525,716.144 372.951,721.173 386.376,711.751 399.801,717.502 413.226,708.883 
  426.651,708.231 440.076,706.943 453.501,710.068 466.927,707.719 480.352,719.877 493.777,713.524 507.202,716.827 520.627,715.009 534.052,706.917 547.477,710.308 
  560.903,708.415 574.328,713.526 587.753,709.672 601.178,706.854 614.603,709.495 628.028,709.931 641.453,714.994 654.878,715.169 668.304,718.932 681.729,708.566 
  695.154,715.591 708.579,711.125 722.004,708.847 735.429,717.51 748.854,725.96 762.28,713.605 775.705,720.641 789.13,714.047 802.555,713.121 815.98,724.57 
  829.405,712.592 842.83,711.275 856.256,713.551 869.681,713.301 883.106,708.225 896.531,714.946 909.956,714.409 923.381,709.867 936.806,712.047 950.232,711.156 
  963.657,715.134 977.082,712.593 990.507,714.751 1003.93,711.498 1017.36,712.695 1030.78,715.445 1044.21,717.05 1057.63,715.071 1071.06,709.4 1084.48,719.331 
  1097.91,710.58 1111.33,714.897 1124.76,713.507 1138.18,710.308 1151.61,712.073 1165.03,713.569 1178.46,711.422 1191.88,712.288 1205.31,711.885 1218.73,707.999 
  1232.16,710.059 1245.58,708.36 1259.01,709.558 1272.43,707.824 1285.86,707.829 1299.29,706.673 1312.71,709.949 1326.14,708.754 1339.56,710.737 1352.99,708.139 
  1366.41,707.3 1379.84,705.859 1393.26,708.804 1406.69,710.697 1420.11,716.03 1433.54,707.549 1446.96,714.243 1460.39,712.914 1473.81,710.521 1487.24,711.653 
  1500.66,709.291 1514.09,709.761 1527.51,718.377 1540.94,712.546 1554.36,707.215 1567.79,704.705 1581.21,707.665 1594.64,706.751 1608.06,707.009 1621.49,705.926 
  1634.91,704.228 1648.34,705.019 1661.76,704.862 1675.19,706.727 1688.61,707.795 1702.04,712.853 1715.46,709.483 1728.89,713.157 1742.31,714.954 1755.74,709.658 
  1769.17,706.018 1782.59,711.888 1796.02,711.43 1809.44,704.908 1822.87,710.712 1836.29,711.832 1849.72,714.563 1863.14,711.172 1876.57,708.298 1889.99,708.362 
  1903.42,711.325 1916.84,705.909 1930.27,712.362 1943.69,712.174 1957.12,710.603 1970.54,711.188 1983.97,709.075 1997.39,704.396 2010.82,714.818 2024.24,707.997 
  2037.67,712.451 2051.09,711.339 2064.52,709.884 2077.94,712.548 2091.37,704.984 2104.79,711.918 2118.22,709.045 2131.64,716.723 2145.07,710.095 2158.49,706.394 
  2171.92,704.476 2185.34,706.956 2198.77,707.64 2212.19,709.314 2225.62,705.352 2239.04,702.04 2252.47,710.224 2265.9,705.238 2279.32,709.038 2292.75,705.747 
  
  "/>
</svg>
