<?xml version="1.0" encoding="utf-8"?>
<svg xmlns="http://www.w3.org/2000/svg" xmlns:xlink="http://www.w3.org/1999/xlink" width="600" height="400" viewBox="0 0 2400 1600">
<defs>
  <clipPath id="clip920">
    <rect x="0" y="0" width="2400" height="1600"/>
  </clipPath>
</defs>
<path clip-path="url(#clip920)" d="
M0 1600 L2400 1600 L2400 0 L0 0  Z
  " fill="#ffffff" fill-rule="evenodd" fill-opacity="1"/>
<defs>
  <clipPath id="clip921">
    <rect x="480" y="0" width="1681" height="1600"/>
  </clipPath>
</defs>
<path clip-path="url(#clip920)" d="
M204.612 1423.18 L2352.76 1423.18 L2352.76 47.2441 L204.612 47.2441  Z
  " fill="#ffffff" fill-rule="evenodd" fill-opacity="1"/>
<defs>
  <clipPath id="clip922">
    <rect x="204" y="47" width="2149" height="1377"/>
  </clipPath>
</defs>
<polyline clip-path="url(#clip922)" style="stroke:#000000; stroke-linecap:round; stroke-linejoin:round; stroke-width:2; stroke-opacity:0.1; fill:none" points="
  251.807,1423.18 251.807,47.2441 
  "/>
<polyline clip-path="url(#clip922)" style="stroke:#000000; stroke-linecap:round; stroke-linejoin:round; stroke-width:2; stroke-opacity:0.1; fill:none" points="
  591.833,1423.18 591.833,47.2441 
  "/>
<polyline clip-path="url(#clip922)" style="stroke:#000000; stroke-linecap:round; stroke-linejoin:round; stroke-width:2; stroke-opacity:0.1; fill:none" points="
  931.858,1423.18 931.858,47.2441 
  "/>
<polyline clip-path="url(#clip922)" style="stroke:#000000; stroke-linecap:round; stroke-linejoin:round; stroke-width:2; stroke-opacity:0.1; fill:none" points="
  1271.88,1423.18 1271.88,47.2441 
  "/>
<polyline clip-path="url(#clip922)" style="stroke:#000000; stroke-linecap:round; stroke-linejoin:round; stroke-width:2; stroke-opacity:0.1; fill:none" points="
  1611.91,1423.18 1611.91,47.2441 
  "/>
<polyline clip-path="url(#clip922)" style="stroke:#000000; stroke-linecap:round; stroke-linejoin:round; stroke-width:2; stroke-opacity:0.1; fill:none" points="
  1951.93,1423.18 1951.93,47.2441 
  "/>
<polyline clip-path="url(#clip922)" style="stroke:#000000; stroke-linecap:round; stroke-linejoin:round; stroke-width:2; stroke-opacity:0.1; fill:none" points="
  2291.96,1423.18 2291.96,47.2441 
  "/>
<polyline clip-path="url(#clip920)" style="stroke:#000000; stroke-linecap:round; stroke-linejoin:round; stroke-width:4; stroke-opacity:1; fill:none" points="
  204.612,1423.18 2352.76,1423.18 
  "/>
<polyline clip-path="url(#clip920)" style="stroke:#000000; stroke-linecap:round; stroke-linejoin:round; stroke-width:4; stroke-opacity:1; fill:none" points="
  251.807,1423.18 251.807,1404.28 
  "/>
<polyline clip-path="url(#clip920)" style="stroke:#000000; stroke-linecap:round; stroke-linejoin:round; stroke-width:4; stroke-opacity:1; fill:none" points="
  591.833,1423.18 591.833,1404.28 
  "/>
<polyline clip-path="url(#clip920)" style="stroke:#000000; stroke-linecap:round; stroke-linejoin:round; stroke-width:4; stroke-opacity:1; fill:none" points="
  931.858,1423.18 931.858,1404.28 
  "/>
<polyline clip-path="url(#clip920)" style="stroke:#000000; stroke-linecap:round; stroke-linejoin:round; stroke-width:4; stroke-opacity:1; fill:none" points="
  1271.88,1423.18 1271.88,1404.28 
  "/>
<polyline clip-path="url(#clip920)" style="stroke:#000000; stroke-linecap:round; stroke-linejoin:round; stroke-width:4; stroke-opacity:1; fill:none" points="
  1611.91,1423.18 1611.91,1404.28 
  "/>
<polyline clip-path="url(#clip920)" style="stroke:#000000; stroke-linecap:round; stroke-linejoin:round; stroke-width:4; stroke-opacity:1; fill:none" points="
  1951.93,1423.18 1951.93,1404.28 
  "/>
<polyline clip-path="url(#clip920)" style="stroke:#000000; stroke-linecap:round; stroke-linejoin:round; stroke-width:4; stroke-opacity:1; fill:none" points="
  2291.96,1423.18 2291.96,1404.28 
  "/>
<path clip-path="url(#clip920)" d="M159.609 1454.1 Q155.998 1454.1 154.169 1457.66 Q152.363 1461.2 152.363 1468.33 Q152.363 1475.44 154.169 1479.01 Q155.998 1482.55 159.609 1482.55 Q163.243 1482.55 165.048 1479.01 Q166.877 1475.44 166.877 1468.33 Q166.877 1461.2 165.048 1457.66 Q163.243 1454.1 159.609 1454.1 M159.609 1450.39 Q165.419 1450.39 168.474 1455 Q171.553 1459.58 171.553 1468.33 Q171.553 1477.06 168.474 1481.67 Q165.419 1486.25 159.609 1486.25 Q153.799 1486.25 150.72 1481.67 Q147.664 1477.06 147.664 1468.33 Q147.664 1459.58 150.72 1455 Q153.799 1450.39 159.609 1450.39 Z" fill="#000000" fill-rule="evenodd" fill-opacity="1" /><path clip-path="url(#clip920)" d="M179.771 1479.7 L184.655 1479.7 L184.655 1485.58 L179.771 1485.58 L179.771 1479.7 Z" fill="#000000" fill-rule="evenodd" fill-opacity="1" /><path clip-path="url(#clip920)" d="M204.84 1454.1 Q201.229 1454.1 199.4 1457.66 Q197.595 1461.2 197.595 1468.33 Q197.595 1475.44 199.4 1479.01 Q201.229 1482.55 204.84 1482.55 Q208.474 1482.55 210.28 1479.01 Q212.108 1475.44 212.108 1468.33 Q212.108 1461.2 210.28 1457.66 Q208.474 1454.1 204.84 1454.1 M204.84 1450.39 Q210.65 1450.39 213.706 1455 Q216.784 1459.58 216.784 1468.33 Q216.784 1477.06 213.706 1481.67 Q210.65 1486.25 204.84 1486.25 Q199.03 1486.25 195.951 1481.67 Q192.896 1477.06 192.896 1468.33 Q192.896 1459.58 195.951 1455 Q199.03 1450.39 204.84 1450.39 Z" fill="#000000" fill-rule="evenodd" fill-opacity="1" /><path clip-path="url(#clip920)" d="M235.002 1454.1 Q231.391 1454.1 229.562 1457.66 Q227.756 1461.2 227.756 1468.33 Q227.756 1475.44 229.562 1479.01 Q231.391 1482.55 235.002 1482.55 Q238.636 1482.55 240.442 1479.01 Q242.27 1475.44 242.27 1468.33 Q242.27 1461.2 240.442 1457.66 Q238.636 1454.1 235.002 1454.1 M235.002 1450.39 Q240.812 1450.39 243.867 1455 Q246.946 1459.58 246.946 1468.33 Q246.946 1477.06 243.867 1481.67 Q240.812 1486.25 235.002 1486.25 Q229.192 1486.25 226.113 1481.67 Q223.057 1477.06 223.057 1468.33 Q223.057 1459.58 226.113 1455 Q229.192 1450.39 235.002 1450.39 Z" fill="#000000" fill-rule="evenodd" fill-opacity="1" /><path clip-path="url(#clip920)" d="M276.113 1459.65 L266.738 1472.27 L276.599 1485.58 L271.576 1485.58 L264.029 1475.39 L256.483 1485.58 L251.46 1485.58 L261.529 1472.02 L252.316 1459.65 L257.34 1459.65 L264.215 1468.89 L271.09 1459.65 L276.113 1459.65 Z" fill="#000000" fill-rule="evenodd" fill-opacity="1" /><path clip-path="url(#clip920)" d="M284.029 1481.64 L291.668 1481.64 L291.668 1455.28 L283.358 1456.95 L283.358 1452.69 L291.622 1451.02 L296.298 1451.02 L296.298 1481.64 L303.937 1481.64 L303.937 1485.58 L284.029 1485.58 L284.029 1481.64 Z" fill="#000000" fill-rule="evenodd" fill-opacity="1" /><path clip-path="url(#clip920)" d="M323.381 1454.1 Q319.77 1454.1 317.941 1457.66 Q316.136 1461.2 316.136 1468.33 Q316.136 1475.44 317.941 1479.01 Q319.77 1482.55 323.381 1482.55 Q327.015 1482.55 328.821 1479.01 Q330.649 1475.44 330.649 1468.33 Q330.649 1461.2 328.821 1457.66 Q327.015 1454.1 323.381 1454.1 M323.381 1450.39 Q329.191 1450.39 332.247 1455 Q335.325 1459.58 335.325 1468.33 Q335.325 1477.06 332.247 1481.67 Q329.191 1486.25 323.381 1486.25 Q317.571 1486.25 314.492 1481.67 Q311.437 1477.06 311.437 1468.33 Q311.437 1459.58 314.492 1455 Q317.571 1450.39 323.381 1450.39 Z" fill="#000000" fill-rule="evenodd" fill-opacity="1" /><path clip-path="url(#clip920)" d="M348.543 1459.35 Q346.506 1459.35 345.325 1460.56 Q344.145 1461.78 344.145 1463.89 Q344.145 1465.97 345.325 1467.18 Q346.506 1468.4 348.543 1468.4 Q350.557 1468.4 351.737 1467.18 Q352.918 1465.97 352.918 1463.89 Q352.918 1461.78 351.737 1460.56 Q350.557 1459.35 348.543 1459.35 M354.515 1451.16 L354.515 1453.54 Q353.381 1453.08 352.223 1452.85 Q351.066 1452.59 349.932 1452.59 Q346.969 1452.59 345.395 1454.33 Q343.821 1456.09 343.589 1459.63 Q344.469 1458.5 345.788 1457.89 Q347.131 1457.29 348.705 1457.29 Q352.061 1457.29 354.006 1459.05 Q355.95 1460.83 355.95 1463.89 Q355.95 1466.83 353.913 1468.66 Q351.899 1470.46 348.543 1470.46 Q344.677 1470.46 342.64 1467.89 Q340.603 1465.33 340.603 1460.42 Q340.603 1455.83 343.103 1453.13 Q345.603 1450.39 349.816 1450.39 Q350.95 1450.39 352.108 1450.58 Q353.265 1450.79 354.515 1451.16 Z" fill="#000000" fill-rule="evenodd" fill-opacity="1" /><path clip-path="url(#clip920)" d="M499.634 1454.1 Q496.023 1454.1 494.194 1457.66 Q492.389 1461.2 492.389 1468.33 Q492.389 1475.44 494.194 1479.01 Q496.023 1482.55 499.634 1482.55 Q503.268 1482.55 505.074 1479.01 Q506.902 1475.44 506.902 1468.33 Q506.902 1461.2 505.074 1457.66 Q503.268 1454.1 499.634 1454.1 M499.634 1450.39 Q505.444 1450.39 508.5 1455 Q511.578 1459.58 511.578 1468.33 Q511.578 1477.06 508.5 1481.67 Q505.444 1486.25 499.634 1486.25 Q493.824 1486.25 490.745 1481.67 Q487.69 1477.06 487.69 1468.33 Q487.69 1459.58 490.745 1455 Q493.824 1450.39 499.634 1450.39 Z" fill="#000000" fill-rule="evenodd" fill-opacity="1" /><path clip-path="url(#clip920)" d="M519.796 1479.7 L524.68 1479.7 L524.68 1485.58 L519.796 1485.58 L519.796 1479.7 Z" fill="#000000" fill-rule="evenodd" fill-opacity="1" /><path clip-path="url(#clip920)" d="M538.893 1481.64 L555.212 1481.64 L555.212 1485.58 L533.268 1485.58 L533.268 1481.64 Q535.93 1478.89 540.513 1474.26 Q545.12 1469.61 546.3 1468.27 Q548.546 1465.74 549.425 1464.01 Q550.328 1462.25 550.328 1460.56 Q550.328 1457.8 548.384 1456.07 Q546.462 1454.33 543.361 1454.33 Q541.162 1454.33 538.708 1455.09 Q536.277 1455.86 533.5 1457.41 L533.5 1452.69 Q536.324 1451.55 538.777 1450.97 Q541.231 1450.39 543.268 1450.39 Q548.638 1450.39 551.833 1453.08 Q555.027 1455.77 555.027 1460.26 Q555.027 1462.39 554.217 1464.31 Q553.43 1466.2 551.324 1468.8 Q550.745 1469.47 547.643 1472.69 Q544.541 1475.88 538.893 1481.64 Z" fill="#000000" fill-rule="evenodd" fill-opacity="1" /><path clip-path="url(#clip920)" d="M565.073 1451.02 L583.43 1451.02 L583.43 1454.96 L569.356 1454.96 L569.356 1463.43 Q570.374 1463.08 571.393 1462.92 Q572.411 1462.73 573.43 1462.73 Q579.217 1462.73 582.597 1465.9 Q585.976 1469.08 585.976 1474.49 Q585.976 1480.07 582.504 1483.17 Q579.032 1486.25 572.712 1486.25 Q570.536 1486.25 568.268 1485.88 Q566.023 1485.51 563.615 1484.77 L563.615 1480.07 Q565.698 1481.2 567.921 1481.76 Q570.143 1482.32 572.62 1482.32 Q576.624 1482.32 578.962 1480.21 Q581.3 1478.1 581.3 1474.49 Q581.3 1470.88 578.962 1468.77 Q576.624 1466.67 572.62 1466.67 Q570.745 1466.67 568.87 1467.08 Q567.018 1467.5 565.073 1468.38 L565.073 1451.02 Z" fill="#000000" fill-rule="evenodd" fill-opacity="1" /><path clip-path="url(#clip920)" d="M616.138 1459.65 L606.763 1472.27 L616.624 1485.58 L611.601 1485.58 L604.055 1475.39 L596.508 1485.58 L591.485 1485.58 L601.555 1472.02 L592.342 1459.65 L597.365 1459.65 L604.24 1468.89 L611.115 1459.65 L616.138 1459.65 Z" fill="#000000" fill-rule="evenodd" fill-opacity="1" /><path clip-path="url(#clip920)" d="M624.055 1481.64 L631.693 1481.64 L631.693 1455.28 L623.383 1456.95 L623.383 1452.69 L631.647 1451.02 L636.323 1451.02 L636.323 1481.64 L643.962 1481.64 L643.962 1485.58 L624.055 1485.58 L624.055 1481.64 Z" fill="#000000" fill-rule="evenodd" fill-opacity="1" /><path clip-path="url(#clip920)" d="M663.406 1454.1 Q659.795 1454.1 657.966 1457.66 Q656.161 1461.2 656.161 1468.33 Q656.161 1475.44 657.966 1479.01 Q659.795 1482.55 663.406 1482.55 Q667.041 1482.55 668.846 1479.01 Q670.675 1475.44 670.675 1468.33 Q670.675 1461.2 668.846 1457.66 Q667.041 1454.1 663.406 1454.1 M663.406 1450.39 Q669.216 1450.39 672.272 1455 Q675.351 1459.58 675.351 1468.33 Q675.351 1477.06 672.272 1481.67 Q669.216 1486.25 663.406 1486.25 Q657.596 1486.25 654.517 1481.67 Q651.462 1477.06 651.462 1468.33 Q651.462 1459.58 654.517 1455 Q657.596 1450.39 663.406 1450.39 Z" fill="#000000" fill-rule="evenodd" fill-opacity="1" /><path clip-path="url(#clip920)" d="M688.568 1459.35 Q686.531 1459.35 685.351 1460.56 Q684.17 1461.78 684.17 1463.89 Q684.17 1465.97 685.351 1467.18 Q686.531 1468.4 688.568 1468.4 Q690.582 1468.4 691.763 1467.18 Q692.943 1465.97 692.943 1463.89 Q692.943 1461.78 691.763 1460.56 Q690.582 1459.35 688.568 1459.35 M694.54 1451.16 L694.54 1453.54 Q693.406 1453.08 692.249 1452.85 Q691.091 1452.59 689.957 1452.59 Q686.994 1452.59 685.42 1454.33 Q683.846 1456.09 683.615 1459.63 Q684.494 1458.5 685.814 1457.89 Q687.156 1457.29 688.73 1457.29 Q692.087 1457.29 694.031 1459.05 Q695.976 1460.83 695.976 1463.89 Q695.976 1466.83 693.939 1468.66 Q691.925 1470.46 688.568 1470.46 Q684.702 1470.46 682.665 1467.89 Q680.628 1465.33 680.628 1460.42 Q680.628 1455.83 683.128 1453.13 Q685.628 1450.39 689.841 1450.39 Q690.976 1450.39 692.133 1450.58 Q693.29 1450.79 694.54 1451.16 Z" fill="#000000" fill-rule="evenodd" fill-opacity="1" /><path clip-path="url(#clip920)" d="M839.659 1454.1 Q836.048 1454.1 834.22 1457.66 Q832.414 1461.2 832.414 1468.33 Q832.414 1475.44 834.22 1479.01 Q836.048 1482.55 839.659 1482.55 Q843.294 1482.55 845.099 1479.01 Q846.928 1475.44 846.928 1468.33 Q846.928 1461.2 845.099 1457.66 Q843.294 1454.1 839.659 1454.1 M839.659 1450.39 Q845.47 1450.39 848.525 1455 Q851.604 1459.58 851.604 1468.33 Q851.604 1477.06 848.525 1481.67 Q845.47 1486.25 839.659 1486.25 Q833.849 1486.25 830.771 1481.67 Q827.715 1477.06 827.715 1468.33 Q827.715 1459.58 830.771 1455 Q833.849 1450.39 839.659 1450.39 Z" fill="#000000" fill-rule="evenodd" fill-opacity="1" /><path clip-path="url(#clip920)" d="M859.821 1479.7 L864.706 1479.7 L864.706 1485.58 L859.821 1485.58 L859.821 1479.7 Z" fill="#000000" fill-rule="evenodd" fill-opacity="1" /><path clip-path="url(#clip920)" d="M874.937 1451.02 L893.293 1451.02 L893.293 1454.96 L879.219 1454.96 L879.219 1463.43 Q880.238 1463.08 881.256 1462.92 Q882.275 1462.73 883.293 1462.73 Q889.08 1462.73 892.46 1465.9 Q895.84 1469.08 895.84 1474.49 Q895.84 1480.07 892.367 1483.17 Q888.895 1486.25 882.576 1486.25 Q880.4 1486.25 878.131 1485.88 Q875.886 1485.51 873.479 1484.77 L873.479 1480.07 Q875.562 1481.2 877.784 1481.76 Q880.006 1482.32 882.483 1482.32 Q886.488 1482.32 888.826 1480.21 Q891.164 1478.1 891.164 1474.49 Q891.164 1470.88 888.826 1468.77 Q886.488 1466.67 882.483 1466.67 Q880.608 1466.67 878.733 1467.08 Q876.881 1467.5 874.937 1468.38 L874.937 1451.02 Z" fill="#000000" fill-rule="evenodd" fill-opacity="1" /><path clip-path="url(#clip920)" d="M915.052 1454.1 Q911.441 1454.1 909.613 1457.66 Q907.807 1461.2 907.807 1468.33 Q907.807 1475.44 909.613 1479.01 Q911.441 1482.55 915.052 1482.55 Q918.687 1482.55 920.492 1479.01 Q922.321 1475.44 922.321 1468.33 Q922.321 1461.2 920.492 1457.66 Q918.687 1454.1 915.052 1454.1 M915.052 1450.39 Q920.863 1450.39 923.918 1455 Q926.997 1459.58 926.997 1468.33 Q926.997 1477.06 923.918 1481.67 Q920.863 1486.25 915.052 1486.25 Q909.242 1486.25 906.164 1481.67 Q903.108 1477.06 903.108 1468.33 Q903.108 1459.58 906.164 1455 Q909.242 1450.39 915.052 1450.39 Z" fill="#000000" fill-rule="evenodd" fill-opacity="1" /><path clip-path="url(#clip920)" d="M956.163 1459.65 L946.788 1472.27 L956.649 1485.58 L951.626 1485.58 L944.08 1475.39 L936.534 1485.58 L931.511 1485.58 L941.58 1472.02 L932.367 1459.65 L937.39 1459.65 L944.265 1468.89 L951.14 1459.65 L956.163 1459.65 Z" fill="#000000" fill-rule="evenodd" fill-opacity="1" /><path clip-path="url(#clip920)" d="M964.08 1481.64 L971.719 1481.64 L971.719 1455.28 L963.409 1456.95 L963.409 1452.69 L971.673 1451.02 L976.348 1451.02 L976.348 1481.64 L983.987 1481.64 L983.987 1485.58 L964.08 1485.58 L964.08 1481.64 Z" fill="#000000" fill-rule="evenodd" fill-opacity="1" /><path clip-path="url(#clip920)" d="M1003.43 1454.1 Q999.821 1454.1 997.992 1457.66 Q996.186 1461.2 996.186 1468.33 Q996.186 1475.44 997.992 1479.01 Q999.821 1482.55 1003.43 1482.55 Q1007.07 1482.55 1008.87 1479.01 Q1010.7 1475.44 1010.7 1468.33 Q1010.7 1461.2 1008.87 1457.66 Q1007.07 1454.1 1003.43 1454.1 M1003.43 1450.39 Q1009.24 1450.39 1012.3 1455 Q1015.38 1459.58 1015.38 1468.33 Q1015.38 1477.06 1012.3 1481.67 Q1009.24 1486.25 1003.43 1486.25 Q997.621 1486.25 994.543 1481.67 Q991.487 1477.06 991.487 1468.33 Q991.487 1459.58 994.543 1455 Q997.621 1450.39 1003.43 1450.39 Z" fill="#000000" fill-rule="evenodd" fill-opacity="1" /><path clip-path="url(#clip920)" d="M1028.59 1459.35 Q1026.56 1459.35 1025.38 1460.56 Q1024.2 1461.78 1024.2 1463.89 Q1024.2 1465.97 1025.38 1467.18 Q1026.56 1468.4 1028.59 1468.4 Q1030.61 1468.4 1031.79 1467.18 Q1032.97 1465.97 1032.97 1463.89 Q1032.97 1461.78 1031.79 1460.56 Q1030.61 1459.35 1028.59 1459.35 M1034.57 1451.16 L1034.57 1453.54 Q1033.43 1453.08 1032.27 1452.85 Q1031.12 1452.59 1029.98 1452.59 Q1027.02 1452.59 1025.45 1454.33 Q1023.87 1456.09 1023.64 1459.63 Q1024.52 1458.5 1025.84 1457.89 Q1027.18 1457.29 1028.76 1457.29 Q1032.11 1457.29 1034.06 1459.05 Q1036 1460.83 1036 1463.89 Q1036 1466.83 1033.96 1468.66 Q1031.95 1470.46 1028.59 1470.46 Q1024.73 1470.46 1022.69 1467.89 Q1020.65 1465.33 1020.65 1460.42 Q1020.65 1455.83 1023.15 1453.13 Q1025.65 1450.39 1029.87 1450.39 Q1031 1450.39 1032.16 1450.58 Q1033.32 1450.79 1034.57 1451.16 Z" fill="#000000" fill-rule="evenodd" fill-opacity="1" /><path clip-path="url(#clip920)" d="M1179.68 1454.1 Q1176.07 1454.1 1174.24 1457.66 Q1172.44 1461.2 1172.44 1468.33 Q1172.44 1475.44 1174.24 1479.01 Q1176.07 1482.55 1179.68 1482.55 Q1183.32 1482.55 1185.12 1479.01 Q1186.95 1475.44 1186.95 1468.33 Q1186.95 1461.2 1185.12 1457.66 Q1183.32 1454.1 1179.68 1454.1 M1179.68 1450.39 Q1185.49 1450.39 1188.55 1455 Q1191.63 1459.58 1191.63 1468.33 Q1191.63 1477.06 1188.55 1481.67 Q1185.49 1486.25 1179.68 1486.25 Q1173.87 1486.25 1170.8 1481.67 Q1167.74 1477.06 1167.74 1468.33 Q1167.74 1459.58 1170.8 1455 Q1173.87 1450.39 1179.68 1450.39 Z" fill="#000000" fill-rule="evenodd" fill-opacity="1" /><path clip-path="url(#clip920)" d="M1199.85 1479.7 L1204.73 1479.7 L1204.73 1485.58 L1199.85 1485.58 L1199.85 1479.7 Z" fill="#000000" fill-rule="evenodd" fill-opacity="1" /><path clip-path="url(#clip920)" d="M1213.74 1451.02 L1235.96 1451.02 L1235.96 1453.01 L1223.41 1485.58 L1218.53 1485.58 L1230.33 1454.96 L1213.74 1454.96 L1213.74 1451.02 Z" fill="#000000" fill-rule="evenodd" fill-opacity="1" /><path clip-path="url(#clip920)" d="M1245.12 1451.02 L1263.48 1451.02 L1263.48 1454.96 L1249.41 1454.96 L1249.41 1463.43 Q1250.43 1463.08 1251.44 1462.92 Q1252.46 1462.73 1253.48 1462.73 Q1259.27 1462.73 1262.65 1465.9 Q1266.03 1469.08 1266.03 1474.49 Q1266.03 1480.07 1262.55 1483.17 Q1259.08 1486.25 1252.76 1486.25 Q1250.59 1486.25 1248.32 1485.88 Q1246.07 1485.51 1243.67 1484.77 L1243.67 1480.07 Q1245.75 1481.2 1247.97 1481.76 Q1250.19 1482.32 1252.67 1482.32 Q1256.68 1482.32 1259.01 1480.21 Q1261.35 1478.1 1261.35 1474.49 Q1261.35 1470.88 1259.01 1468.77 Q1256.68 1466.67 1252.67 1466.67 Q1250.8 1466.67 1248.92 1467.08 Q1247.07 1467.5 1245.12 1468.38 L1245.12 1451.02 Z" fill="#000000" fill-rule="evenodd" fill-opacity="1" /><path clip-path="url(#clip920)" d="M1296.19 1459.65 L1286.81 1472.27 L1296.67 1485.58 L1291.65 1485.58 L1284.11 1475.39 L1276.56 1485.58 L1271.54 1485.58 L1281.61 1472.02 L1272.39 1459.65 L1277.42 1459.65 L1284.29 1468.89 L1291.17 1459.65 L1296.19 1459.65 Z" fill="#000000" fill-rule="evenodd" fill-opacity="1" /><path clip-path="url(#clip920)" d="M1304.11 1481.64 L1311.74 1481.64 L1311.74 1455.28 L1303.43 1456.95 L1303.43 1452.69 L1311.7 1451.02 L1316.37 1451.02 L1316.37 1481.64 L1324.01 1481.64 L1324.01 1485.58 L1304.11 1485.58 L1304.11 1481.64 Z" fill="#000000" fill-rule="evenodd" fill-opacity="1" /><path clip-path="url(#clip920)" d="M1343.46 1454.1 Q1339.85 1454.1 1338.02 1457.66 Q1336.21 1461.2 1336.21 1468.33 Q1336.21 1475.44 1338.02 1479.01 Q1339.85 1482.55 1343.46 1482.55 Q1347.09 1482.55 1348.9 1479.01 Q1350.73 1475.44 1350.73 1468.33 Q1350.73 1461.2 1348.9 1457.66 Q1347.09 1454.1 1343.46 1454.1 M1343.46 1450.39 Q1349.27 1450.39 1352.32 1455 Q1355.4 1459.58 1355.4 1468.33 Q1355.4 1477.06 1352.32 1481.67 Q1349.27 1486.25 1343.46 1486.25 Q1337.65 1486.25 1334.57 1481.67 Q1331.51 1477.06 1331.51 1468.33 Q1331.51 1459.58 1334.57 1455 Q1337.65 1450.39 1343.46 1450.39 Z" fill="#000000" fill-rule="evenodd" fill-opacity="1" /><path clip-path="url(#clip920)" d="M1368.62 1459.35 Q1366.58 1459.35 1365.4 1460.56 Q1364.22 1461.78 1364.22 1463.89 Q1364.22 1465.97 1365.4 1467.18 Q1366.58 1468.4 1368.62 1468.4 Q1370.63 1468.4 1371.81 1467.18 Q1372.99 1465.97 1372.99 1463.89 Q1372.99 1461.78 1371.81 1460.56 Q1370.63 1459.35 1368.62 1459.35 M1374.59 1451.16 L1374.59 1453.54 Q1373.46 1453.08 1372.3 1452.85 Q1371.14 1452.59 1370.01 1452.59 Q1367.04 1452.59 1365.47 1454.33 Q1363.9 1456.09 1363.67 1459.63 Q1364.54 1458.5 1365.86 1457.89 Q1367.21 1457.29 1368.78 1457.29 Q1372.14 1457.29 1374.08 1459.05 Q1376.03 1460.83 1376.03 1463.89 Q1376.03 1466.83 1373.99 1468.66 Q1371.98 1470.46 1368.62 1470.46 Q1364.75 1470.46 1362.72 1467.89 Q1360.68 1465.33 1360.68 1460.42 Q1360.68 1455.83 1363.18 1453.13 Q1365.68 1450.39 1369.89 1450.39 Q1371.03 1450.39 1372.18 1450.58 Q1373.34 1450.79 1374.59 1451.16 Z" fill="#000000" fill-rule="evenodd" fill-opacity="1" /><path clip-path="url(#clip920)" d="M1509.48 1481.64 L1517.12 1481.64 L1517.12 1455.28 L1508.81 1456.95 L1508.81 1452.69 L1517.07 1451.02 L1521.75 1451.02 L1521.75 1481.64 L1529.39 1481.64 L1529.39 1485.58 L1509.48 1485.58 L1509.48 1481.64 Z" fill="#000000" fill-rule="evenodd" fill-opacity="1" /><path clip-path="url(#clip920)" d="M1538.83 1479.7 L1543.71 1479.7 L1543.71 1485.58 L1538.83 1485.58 L1538.83 1479.7 Z" fill="#000000" fill-rule="evenodd" fill-opacity="1" /><path clip-path="url(#clip920)" d="M1563.9 1454.1 Q1560.29 1454.1 1558.46 1457.66 Q1556.65 1461.2 1556.65 1468.33 Q1556.65 1475.44 1558.46 1479.01 Q1560.29 1482.55 1563.9 1482.55 Q1567.53 1482.55 1569.34 1479.01 Q1571.17 1475.44 1571.17 1468.33 Q1571.17 1461.2 1569.34 1457.66 Q1567.53 1454.1 1563.9 1454.1 M1563.9 1450.39 Q1569.71 1450.39 1572.77 1455 Q1575.84 1459.58 1575.84 1468.33 Q1575.84 1477.06 1572.77 1481.67 Q1569.71 1486.25 1563.9 1486.25 Q1558.09 1486.25 1555.01 1481.67 Q1551.96 1477.06 1551.96 1468.33 Q1551.96 1459.58 1555.01 1455 Q1558.09 1450.39 1563.9 1450.39 Z" fill="#000000" fill-rule="evenodd" fill-opacity="1" /><path clip-path="url(#clip920)" d="M1594.06 1454.1 Q1590.45 1454.1 1588.62 1457.66 Q1586.82 1461.2 1586.82 1468.33 Q1586.82 1475.44 1588.62 1479.01 Q1590.45 1482.55 1594.06 1482.55 Q1597.7 1482.55 1599.5 1479.01 Q1601.33 1475.44 1601.33 1468.33 Q1601.33 1461.2 1599.5 1457.66 Q1597.7 1454.1 1594.06 1454.1 M1594.06 1450.39 Q1599.87 1450.39 1602.93 1455 Q1606.01 1459.58 1606.01 1468.33 Q1606.01 1477.06 1602.93 1481.67 Q1599.87 1486.25 1594.06 1486.25 Q1588.25 1486.25 1585.17 1481.67 Q1582.12 1477.06 1582.12 1468.33 Q1582.12 1459.58 1585.17 1455 Q1588.25 1450.39 1594.06 1450.39 Z" fill="#000000" fill-rule="evenodd" fill-opacity="1" /><path clip-path="url(#clip920)" d="M1635.17 1459.65 L1625.8 1472.27 L1635.66 1485.58 L1630.64 1485.58 L1623.09 1475.39 L1615.54 1485.58 L1610.52 1485.58 L1620.59 1472.02 L1611.38 1459.65 L1616.4 1459.65 L1623.27 1468.89 L1630.15 1459.65 L1635.17 1459.65 Z" fill="#000000" fill-rule="evenodd" fill-opacity="1" /><path clip-path="url(#clip920)" d="M1643.09 1481.64 L1650.73 1481.64 L1650.73 1455.28 L1642.42 1456.95 L1642.42 1452.69 L1650.68 1451.02 L1655.36 1451.02 L1655.36 1481.64 L1663 1481.64 L1663 1485.58 L1643.09 1485.58 L1643.09 1481.64 Z" fill="#000000" fill-rule="evenodd" fill-opacity="1" /><path clip-path="url(#clip920)" d="M1682.44 1454.1 Q1678.83 1454.1 1677 1457.66 Q1675.2 1461.2 1675.2 1468.33 Q1675.2 1475.44 1677 1479.01 Q1678.83 1482.55 1682.44 1482.55 Q1686.07 1482.55 1687.88 1479.01 Q1689.71 1475.44 1689.71 1468.33 Q1689.71 1461.2 1687.88 1457.66 Q1686.07 1454.1 1682.44 1454.1 M1682.44 1450.39 Q1688.25 1450.39 1691.31 1455 Q1694.39 1459.58 1694.39 1468.33 Q1694.39 1477.06 1691.31 1481.67 Q1688.25 1486.25 1682.44 1486.25 Q1676.63 1486.25 1673.55 1481.67 Q1670.5 1477.06 1670.5 1468.33 Q1670.5 1459.58 1673.55 1455 Q1676.63 1450.39 1682.44 1450.39 Z" fill="#000000" fill-rule="evenodd" fill-opacity="1" /><path clip-path="url(#clip920)" d="M1707.6 1459.35 Q1705.57 1459.35 1704.39 1460.56 Q1703.2 1461.78 1703.2 1463.89 Q1703.2 1465.97 1704.39 1467.18 Q1705.57 1468.4 1707.6 1468.4 Q1709.62 1468.4 1710.8 1467.18 Q1711.98 1465.97 1711.98 1463.89 Q1711.98 1461.78 1710.8 1460.56 Q1709.62 1459.35 1707.6 1459.35 M1713.57 1451.16 L1713.57 1453.54 Q1712.44 1453.08 1711.28 1452.85 Q1710.13 1452.59 1708.99 1452.59 Q1706.03 1452.59 1704.45 1454.33 Q1702.88 1456.09 1702.65 1459.63 Q1703.53 1458.5 1704.85 1457.89 Q1706.19 1457.29 1707.76 1457.29 Q1711.12 1457.29 1713.07 1459.05 Q1715.01 1460.83 1715.01 1463.89 Q1715.01 1466.83 1712.97 1468.66 Q1710.96 1470.46 1707.6 1470.46 Q1703.74 1470.46 1701.7 1467.89 Q1699.66 1465.33 1699.66 1460.42 Q1699.66 1455.83 1702.16 1453.13 Q1704.66 1450.39 1708.88 1450.39 Q1710.01 1450.39 1711.17 1450.58 Q1712.32 1450.79 1713.57 1451.16 Z" fill="#000000" fill-rule="evenodd" fill-opacity="1" /><path clip-path="url(#clip920)" d="M1849.5 1481.64 L1857.14 1481.64 L1857.14 1455.28 L1848.83 1456.95 L1848.83 1452.69 L1857.1 1451.02 L1861.77 1451.02 L1861.77 1481.64 L1869.41 1481.64 L1869.41 1485.58 L1849.5 1485.58 L1849.5 1481.64 Z" fill="#000000" fill-rule="evenodd" fill-opacity="1" /><path clip-path="url(#clip920)" d="M1878.86 1479.7 L1883.74 1479.7 L1883.74 1485.58 L1878.86 1485.58 L1878.86 1479.7 Z" fill="#000000" fill-rule="evenodd" fill-opacity="1" /><path clip-path="url(#clip920)" d="M1897.95 1481.64 L1914.27 1481.64 L1914.27 1485.58 L1892.33 1485.58 L1892.33 1481.64 Q1894.99 1478.89 1899.57 1474.26 Q1904.18 1469.61 1905.36 1468.27 Q1907.61 1465.74 1908.49 1464.01 Q1909.39 1462.25 1909.39 1460.56 Q1909.39 1457.8 1907.44 1456.07 Q1905.52 1454.33 1902.42 1454.33 Q1900.22 1454.33 1897.77 1455.09 Q1895.34 1455.86 1892.56 1457.41 L1892.56 1452.69 Q1895.38 1451.55 1897.84 1450.97 Q1900.29 1450.39 1902.33 1450.39 Q1907.7 1450.39 1910.89 1453.08 Q1914.09 1455.77 1914.09 1460.26 Q1914.09 1462.39 1913.28 1464.31 Q1912.49 1466.2 1910.38 1468.8 Q1909.8 1469.47 1906.7 1472.69 Q1903.6 1475.88 1897.95 1481.64 Z" fill="#000000" fill-rule="evenodd" fill-opacity="1" /><path clip-path="url(#clip920)" d="M1924.13 1451.02 L1942.49 1451.02 L1942.49 1454.96 L1928.42 1454.96 L1928.42 1463.43 Q1929.43 1463.08 1930.45 1462.92 Q1931.47 1462.73 1932.49 1462.73 Q1938.28 1462.73 1941.66 1465.9 Q1945.04 1469.08 1945.04 1474.49 Q1945.04 1480.07 1941.56 1483.17 Q1938.09 1486.25 1931.77 1486.25 Q1929.6 1486.25 1927.33 1485.88 Q1925.08 1485.51 1922.67 1484.77 L1922.67 1480.07 Q1924.76 1481.2 1926.98 1481.76 Q1929.2 1482.32 1931.68 1482.32 Q1935.68 1482.32 1938.02 1480.21 Q1940.36 1478.1 1940.36 1474.49 Q1940.36 1470.88 1938.02 1468.77 Q1935.68 1466.67 1931.68 1466.67 Q1929.8 1466.67 1927.93 1467.08 Q1926.08 1467.5 1924.13 1468.38 L1924.13 1451.02 Z" fill="#000000" fill-rule="evenodd" fill-opacity="1" /><path clip-path="url(#clip920)" d="M1975.2 1459.65 L1965.82 1472.27 L1975.68 1485.58 L1970.66 1485.58 L1963.11 1475.39 L1955.57 1485.58 L1950.55 1485.58 L1960.61 1472.02 L1951.4 1459.65 L1956.42 1459.65 L1963.3 1468.89 L1970.17 1459.65 L1975.2 1459.65 Z" fill="#000000" fill-rule="evenodd" fill-opacity="1" /><path clip-path="url(#clip920)" d="M1983.11 1481.64 L1990.75 1481.64 L1990.75 1455.28 L1982.44 1456.95 L1982.44 1452.69 L1990.71 1451.02 L1995.38 1451.02 L1995.38 1481.64 L2003.02 1481.64 L2003.02 1485.58 L1983.11 1485.58 L1983.11 1481.64 Z" fill="#000000" fill-rule="evenodd" fill-opacity="1" /><path clip-path="url(#clip920)" d="M2022.47 1454.1 Q2018.85 1454.1 2017.03 1457.66 Q2015.22 1461.2 2015.22 1468.33 Q2015.22 1475.44 2017.03 1479.01 Q2018.85 1482.55 2022.47 1482.55 Q2026.1 1482.55 2027.91 1479.01 Q2029.73 1475.44 2029.73 1468.33 Q2029.73 1461.2 2027.91 1457.66 Q2026.1 1454.1 2022.47 1454.1 M2022.47 1450.39 Q2028.28 1450.39 2031.33 1455 Q2034.41 1459.58 2034.41 1468.33 Q2034.41 1477.06 2031.33 1481.67 Q2028.28 1486.25 2022.47 1486.25 Q2016.66 1486.25 2013.58 1481.67 Q2010.52 1477.06 2010.52 1468.33 Q2010.52 1459.58 2013.58 1455 Q2016.66 1450.39 2022.47 1450.39 Z" fill="#000000" fill-rule="evenodd" fill-opacity="1" /><path clip-path="url(#clip920)" d="M2047.63 1459.35 Q2045.59 1459.35 2044.41 1460.56 Q2043.23 1461.78 2043.23 1463.89 Q2043.23 1465.97 2044.41 1467.18 Q2045.59 1468.4 2047.63 1468.4 Q2049.64 1468.4 2050.82 1467.18 Q2052 1465.97 2052 1463.89 Q2052 1461.78 2050.82 1460.56 Q2049.64 1459.35 2047.63 1459.35 M2053.6 1451.16 L2053.6 1453.54 Q2052.47 1453.08 2051.31 1452.85 Q2050.15 1452.59 2049.02 1452.59 Q2046.05 1452.59 2044.48 1454.33 Q2042.91 1456.09 2042.67 1459.63 Q2043.55 1458.5 2044.87 1457.89 Q2046.22 1457.29 2047.79 1457.29 Q2051.15 1457.29 2053.09 1459.05 Q2055.04 1460.83 2055.04 1463.89 Q2055.04 1466.83 2053 1468.66 Q2050.98 1470.46 2047.63 1470.46 Q2043.76 1470.46 2041.73 1467.89 Q2039.69 1465.33 2039.69 1460.42 Q2039.69 1455.83 2042.19 1453.13 Q2044.69 1450.39 2048.9 1450.39 Q2050.04 1450.39 2051.19 1450.58 Q2052.35 1450.79 2053.6 1451.16 Z" fill="#000000" fill-rule="evenodd" fill-opacity="1" /><path clip-path="url(#clip920)" d="M2189.53 1481.64 L2197.17 1481.64 L2197.17 1455.28 L2188.86 1456.95 L2188.86 1452.69 L2197.12 1451.02 L2201.8 1451.02 L2201.8 1481.64 L2209.44 1481.64 L2209.44 1485.58 L2189.53 1485.58 L2189.53 1481.64 Z" fill="#000000" fill-rule="evenodd" fill-opacity="1" /><path clip-path="url(#clip920)" d="M2218.88 1479.7 L2223.77 1479.7 L2223.77 1485.58 L2218.88 1485.58 L2218.88 1479.7 Z" fill="#000000" fill-rule="evenodd" fill-opacity="1" /><path clip-path="url(#clip920)" d="M2234 1451.02 L2252.35 1451.02 L2252.35 1454.96 L2238.28 1454.96 L2238.28 1463.43 Q2239.3 1463.08 2240.32 1462.92 Q2241.33 1462.73 2242.35 1462.73 Q2248.14 1462.73 2251.52 1465.9 Q2254.9 1469.08 2254.9 1474.49 Q2254.9 1480.07 2251.43 1483.17 Q2247.95 1486.25 2241.64 1486.25 Q2239.46 1486.25 2237.19 1485.88 Q2234.95 1485.51 2232.54 1484.77 L2232.54 1480.07 Q2234.62 1481.2 2236.84 1481.76 Q2239.07 1482.32 2241.54 1482.32 Q2245.55 1482.32 2247.89 1480.21 Q2250.22 1478.1 2250.22 1474.49 Q2250.22 1470.88 2247.89 1468.77 Q2245.55 1466.67 2241.54 1466.67 Q2239.67 1466.67 2237.79 1467.08 Q2235.94 1467.5 2234 1468.38 L2234 1451.02 Z" fill="#000000" fill-rule="evenodd" fill-opacity="1" /><path clip-path="url(#clip920)" d="M2274.11 1454.1 Q2270.5 1454.1 2268.67 1457.66 Q2266.87 1461.2 2266.87 1468.33 Q2266.87 1475.44 2268.67 1479.01 Q2270.5 1482.55 2274.11 1482.55 Q2277.75 1482.55 2279.55 1479.01 Q2281.38 1475.44 2281.38 1468.33 Q2281.38 1461.2 2279.55 1457.66 Q2277.75 1454.1 2274.11 1454.1 M2274.11 1450.39 Q2279.92 1450.39 2282.98 1455 Q2286.06 1459.58 2286.06 1468.33 Q2286.06 1477.06 2282.98 1481.67 Q2279.92 1486.25 2274.11 1486.25 Q2268.3 1486.25 2265.22 1481.67 Q2262.17 1477.06 2262.17 1468.33 Q2262.17 1459.58 2265.22 1455 Q2268.3 1450.39 2274.11 1450.39 Z" fill="#000000" fill-rule="evenodd" fill-opacity="1" /><path clip-path="url(#clip920)" d="M2315.22 1459.65 L2305.85 1472.27 L2315.71 1485.58 L2310.69 1485.58 L2303.14 1475.39 L2295.59 1485.58 L2290.57 1485.58 L2300.64 1472.02 L2291.43 1459.65 L2296.45 1459.65 L2303.33 1468.89 L2310.2 1459.65 L2315.22 1459.65 Z" fill="#000000" fill-rule="evenodd" fill-opacity="1" /><path clip-path="url(#clip920)" d="M2323.14 1481.64 L2330.78 1481.64 L2330.78 1455.28 L2322.47 1456.95 L2322.47 1452.69 L2330.73 1451.02 L2335.41 1451.02 L2335.41 1481.64 L2343.05 1481.64 L2343.05 1485.58 L2323.14 1485.58 L2323.14 1481.64 Z" fill="#000000" fill-rule="evenodd" fill-opacity="1" /><path clip-path="url(#clip920)" d="M2362.49 1454.1 Q2358.88 1454.1 2357.05 1457.66 Q2355.25 1461.2 2355.25 1468.33 Q2355.25 1475.44 2357.05 1479.01 Q2358.88 1482.55 2362.49 1482.55 Q2366.13 1482.55 2367.93 1479.01 Q2369.76 1475.44 2369.76 1468.33 Q2369.76 1461.2 2367.93 1457.66 Q2366.13 1454.1 2362.49 1454.1 M2362.49 1450.39 Q2368.3 1450.39 2371.36 1455 Q2374.44 1459.58 2374.44 1468.33 Q2374.44 1477.06 2371.36 1481.67 Q2368.3 1486.25 2362.49 1486.25 Q2356.68 1486.25 2353.6 1481.67 Q2350.55 1477.06 2350.55 1468.33 Q2350.55 1459.58 2353.6 1455 Q2356.68 1450.39 2362.49 1450.39 Z" fill="#000000" fill-rule="evenodd" fill-opacity="1" /><path clip-path="url(#clip920)" d="M2387.65 1459.35 Q2385.62 1459.35 2384.44 1460.56 Q2383.26 1461.78 2383.26 1463.89 Q2383.26 1465.97 2384.44 1467.18 Q2385.62 1468.4 2387.65 1468.4 Q2389.67 1468.4 2390.85 1467.18 Q2392.03 1465.97 2392.03 1463.89 Q2392.03 1461.78 2390.85 1460.56 Q2389.67 1459.35 2387.65 1459.35 M2393.63 1451.16 L2393.63 1453.54 Q2392.49 1453.08 2391.33 1452.85 Q2390.18 1452.59 2389.04 1452.59 Q2386.08 1452.59 2384.51 1454.33 Q2382.93 1456.09 2382.7 1459.63 Q2383.58 1458.5 2384.9 1457.89 Q2386.24 1457.29 2387.82 1457.29 Q2391.17 1457.29 2393.12 1459.05 Q2395.06 1460.83 2395.06 1463.89 Q2395.06 1466.83 2393.02 1468.66 Q2391.01 1470.46 2387.65 1470.46 Q2383.79 1470.46 2381.75 1467.89 Q2379.71 1465.33 2379.71 1460.42 Q2379.71 1455.83 2382.21 1453.13 Q2384.71 1450.39 2388.93 1450.39 Q2390.06 1450.39 2391.22 1450.58 Q2392.38 1450.79 2393.63 1451.16 Z" fill="#000000" fill-rule="evenodd" fill-opacity="1" /><path clip-path="url(#clip920)" d="M1128.25 1520.52 L1134.68 1520.52 L1134.68 1568.04 L1128.25 1568.04 L1128.25 1520.52 Z" fill="#000000" fill-rule="evenodd" fill-opacity="1" /><path clip-path="url(#clip920)" d="M1153.01 1522.27 L1153.01 1532.4 L1165.07 1532.4 L1165.07 1536.95 L1153.01 1536.95 L1153.01 1556.3 Q1153.01 1560.66 1154.19 1561.9 Q1155.4 1563.14 1159.06 1563.14 L1165.07 1563.14 L1165.07 1568.04 L1159.06 1568.04 Q1152.28 1568.04 1149.7 1565.53 Q1147.12 1562.98 1147.12 1556.3 L1147.12 1536.95 L1142.82 1536.95 L1142.82 1532.4 L1147.12 1532.4 L1147.12 1522.27 L1153.01 1522.27 Z" fill="#000000" fill-rule="evenodd" fill-opacity="1" /><path clip-path="url(#clip920)" d="M1203.27 1548.76 L1203.27 1551.62 L1176.34 1551.62 Q1176.72 1557.67 1179.97 1560.85 Q1183.25 1564 1189.07 1564 Q1192.44 1564 1195.6 1563.17 Q1198.78 1562.35 1201.9 1560.69 L1201.9 1566.23 Q1198.75 1567.57 1195.44 1568.27 Q1192.13 1568.97 1188.72 1568.97 Q1180.19 1568.97 1175.19 1564 Q1170.23 1559.04 1170.23 1550.57 Q1170.23 1541.82 1174.94 1536.69 Q1179.68 1531.54 1187.7 1531.54 Q1194.9 1531.54 1199.06 1536.18 Q1203.27 1540.8 1203.27 1548.76 M1197.41 1547.04 Q1197.35 1542.23 1194.7 1539.37 Q1192.09 1536.5 1187.77 1536.5 Q1182.86 1536.5 1179.9 1539.27 Q1176.98 1542.04 1176.53 1547.07 L1197.41 1547.04 Z" fill="#000000" fill-rule="evenodd" fill-opacity="1" /><path clip-path="url(#clip920)" d="M1233.54 1537.87 Q1232.55 1537.3 1231.37 1537.04 Q1230.22 1536.76 1228.82 1536.76 Q1223.86 1536.76 1221.19 1540 Q1218.54 1543.22 1218.54 1549.27 L1218.54 1568.04 L1212.66 1568.04 L1212.66 1532.4 L1218.54 1532.4 L1218.54 1537.93 Q1220.39 1534.69 1223.35 1533.13 Q1226.31 1531.54 1230.54 1531.54 Q1231.15 1531.54 1231.88 1531.63 Q1232.61 1531.7 1233.5 1531.85 L1233.54 1537.87 Z" fill="#000000" fill-rule="evenodd" fill-opacity="1" /><path clip-path="url(#clip920)" d="M1255.88 1550.12 Q1248.78 1550.12 1246.04 1551.75 Q1243.31 1553.37 1243.31 1557.29 Q1243.31 1560.4 1245.34 1562.25 Q1247.41 1564.07 1250.95 1564.07 Q1255.82 1564.07 1258.74 1560.63 Q1261.7 1557.16 1261.7 1551.43 L1261.7 1550.12 L1255.88 1550.12 M1267.56 1547.71 L1267.56 1568.04 L1261.7 1568.04 L1261.7 1562.63 Q1259.7 1565.88 1256.71 1567.44 Q1253.71 1568.97 1249.39 1568.97 Q1243.91 1568.97 1240.66 1565.91 Q1237.45 1562.82 1237.45 1557.67 Q1237.45 1551.65 1241.46 1548.6 Q1245.5 1545.54 1253.49 1545.54 L1261.7 1545.54 L1261.7 1544.97 Q1261.7 1540.93 1259.03 1538.73 Q1256.39 1536.5 1251.58 1536.5 Q1248.53 1536.5 1245.63 1537.23 Q1242.73 1537.97 1240.06 1539.43 L1240.06 1534.02 Q1243.27 1532.78 1246.3 1532.17 Q1249.32 1531.54 1252.19 1531.54 Q1259.92 1531.54 1263.74 1535.55 Q1267.56 1539.56 1267.56 1547.71 Z" fill="#000000" fill-rule="evenodd" fill-opacity="1" /><path clip-path="url(#clip920)" d="M1285.42 1522.27 L1285.42 1532.4 L1297.48 1532.4 L1297.48 1536.95 L1285.42 1536.95 L1285.42 1556.3 Q1285.42 1560.66 1286.59 1561.9 Q1287.8 1563.14 1291.46 1563.14 L1297.48 1563.14 L1297.48 1568.04 L1291.46 1568.04 Q1284.68 1568.04 1282.11 1565.53 Q1279.53 1562.98 1279.53 1556.3 L1279.53 1536.95 L1275.23 1536.95 L1275.23 1532.4 L1279.53 1532.4 L1279.53 1522.27 L1285.42 1522.27 Z" fill="#000000" fill-rule="evenodd" fill-opacity="1" /><path clip-path="url(#clip920)" d="M1305.18 1532.4 L1311.04 1532.4 L1311.04 1568.04 L1305.18 1568.04 L1305.18 1532.4 M1305.18 1518.52 L1311.04 1518.52 L1311.04 1525.93 L1305.18 1525.93 L1305.18 1518.52 Z" fill="#000000" fill-rule="evenodd" fill-opacity="1" /><path clip-path="url(#clip920)" d="M1337.11 1536.5 Q1332.39 1536.5 1329.66 1540.19 Q1326.92 1543.85 1326.92 1550.25 Q1326.92 1556.65 1329.63 1560.34 Q1332.36 1564 1337.11 1564 Q1341.78 1564 1344.52 1560.31 Q1347.26 1556.62 1347.26 1550.25 Q1347.26 1543.92 1344.52 1540.23 Q1341.78 1536.5 1337.11 1536.5 M1337.11 1531.54 Q1344.74 1531.54 1349.1 1536.5 Q1353.46 1541.47 1353.46 1550.25 Q1353.46 1559 1349.1 1564 Q1344.74 1568.97 1337.11 1568.97 Q1329.43 1568.97 1325.07 1564 Q1320.75 1559 1320.75 1550.25 Q1320.75 1541.47 1325.07 1536.5 Q1329.43 1531.54 1337.11 1531.54 Z" fill="#000000" fill-rule="evenodd" fill-opacity="1" /><path clip-path="url(#clip920)" d="M1392.81 1546.53 L1392.81 1568.04 L1386.95 1568.04 L1386.95 1546.72 Q1386.95 1541.66 1384.98 1539.14 Q1383 1536.63 1379.06 1536.63 Q1374.31 1536.63 1371.58 1539.65 Q1368.84 1542.68 1368.84 1547.9 L1368.84 1568.04 L1362.95 1568.04 L1362.95 1532.4 L1368.84 1532.4 L1368.84 1537.93 Q1370.94 1534.72 1373.77 1533.13 Q1376.64 1531.54 1380.36 1531.54 Q1386.5 1531.54 1389.65 1535.36 Q1392.81 1539.14 1392.81 1546.53 Z" fill="#000000" fill-rule="evenodd" fill-opacity="1" /><path clip-path="url(#clip920)" d="M1427.21 1533.45 L1427.21 1538.98 Q1424.73 1537.71 1422.06 1537.07 Q1419.38 1536.44 1416.52 1536.44 Q1412.16 1536.44 1409.96 1537.77 Q1407.8 1539.11 1407.8 1541.79 Q1407.8 1543.82 1409.36 1545 Q1410.92 1546.15 1415.63 1547.2 L1417.63 1547.64 Q1423.87 1548.98 1426.48 1551.43 Q1429.12 1553.85 1429.12 1558.21 Q1429.12 1563.17 1425.17 1566.07 Q1421.26 1568.97 1414.38 1568.97 Q1411.52 1568.97 1408.4 1568.39 Q1405.31 1567.85 1401.88 1566.74 L1401.88 1560.69 Q1405.12 1562.38 1408.27 1563.24 Q1411.42 1564.07 1414.51 1564.07 Q1418.65 1564.07 1420.88 1562.66 Q1423.11 1561.23 1423.11 1558.65 Q1423.11 1556.27 1421.48 1554.99 Q1419.89 1553.72 1414.45 1552.54 L1412.41 1552.07 Q1406.97 1550.92 1404.55 1548.56 Q1402.13 1546.18 1402.13 1542.04 Q1402.13 1537.01 1405.7 1534.27 Q1409.26 1531.54 1415.82 1531.54 Q1419.06 1531.54 1421.93 1532.01 Q1424.79 1532.49 1427.21 1533.45 Z" fill="#000000" fill-rule="evenodd" fill-opacity="1" /><polyline clip-path="url(#clip922)" style="stroke:#000000; stroke-linecap:round; stroke-linejoin:round; stroke-width:2; stroke-opacity:0.1; fill:none" points="
  204.612,1295.13 2352.76,1295.13 
  "/>
<polyline clip-path="url(#clip922)" style="stroke:#000000; stroke-linecap:round; stroke-linejoin:round; stroke-width:2; stroke-opacity:0.1; fill:none" points="
  204.612,1112.32 2352.76,1112.32 
  "/>
<polyline clip-path="url(#clip922)" style="stroke:#000000; stroke-linecap:round; stroke-linejoin:round; stroke-width:2; stroke-opacity:0.1; fill:none" points="
  204.612,929.51 2352.76,929.51 
  "/>
<polyline clip-path="url(#clip922)" style="stroke:#000000; stroke-linecap:round; stroke-linejoin:round; stroke-width:2; stroke-opacity:0.1; fill:none" points="
  204.612,746.701 2352.76,746.701 
  "/>
<polyline clip-path="url(#clip922)" style="stroke:#000000; stroke-linecap:round; stroke-linejoin:round; stroke-width:2; stroke-opacity:0.1; fill:none" points="
  204.612,563.892 2352.76,563.892 
  "/>
<polyline clip-path="url(#clip922)" style="stroke:#000000; stroke-linecap:round; stroke-linejoin:round; stroke-width:2; stroke-opacity:0.1; fill:none" points="
  204.612,381.082 2352.76,381.082 
  "/>
<polyline clip-path="url(#clip922)" style="stroke:#000000; stroke-linecap:round; stroke-linejoin:round; stroke-width:2; stroke-opacity:0.1; fill:none" points="
  204.612,198.273 2352.76,198.273 
  "/>
<polyline clip-path="url(#clip920)" style="stroke:#000000; stroke-linecap:round; stroke-linejoin:round; stroke-width:4; stroke-opacity:1; fill:none" points="
  204.612,1423.18 204.612,47.2441 
  "/>
<polyline clip-path="url(#clip920)" style="stroke:#000000; stroke-linecap:round; stroke-linejoin:round; stroke-width:4; stroke-opacity:1; fill:none" points="
  204.612,1295.13 223.509,1295.13 
  "/>
<polyline clip-path="url(#clip920)" style="stroke:#000000; stroke-linecap:round; stroke-linejoin:round; stroke-width:4; stroke-opacity:1; fill:none" points="
  204.612,1112.32 223.509,1112.32 
  "/>
<polyline clip-path="url(#clip920)" style="stroke:#000000; stroke-linecap:round; stroke-linejoin:round; stroke-width:4; stroke-opacity:1; fill:none" points="
  204.612,929.51 223.509,929.51 
  "/>
<polyline clip-path="url(#clip920)" style="stroke:#000000; stroke-linecap:round; stroke-linejoin:round; stroke-width:4; stroke-opacity:1; fill:none" points="
  204.612,746.701 223.509,746.701 
  "/>
<polyline clip-path="url(#clip920)" style="stroke:#000000; stroke-linecap:round; stroke-linejoin:round; stroke-width:4; stroke-opacity:1; fill:none" points="
  204.612,563.892 223.509,563.892 
  "/>
<polyline clip-path="url(#clip920)" style="stroke:#000000; stroke-linecap:round; stroke-linejoin:round; stroke-width:4; stroke-opacity:1; fill:none" points="
  204.612,381.082 223.509,381.082 
  "/>
<polyline clip-path="url(#clip920)" style="stroke:#000000; stroke-linecap:round; stroke-linejoin:round; stroke-width:4; stroke-opacity:1; fill:none" points="
  204.612,198.273 223.509,198.273 
  "/>
<path clip-path="url(#clip920)" d="M116.644 1277.85 L135.001 1277.85 L135.001 1281.78 L120.927 1281.78 L120.927 1290.26 Q121.945 1289.91 122.964 1289.75 Q123.982 1289.56 125.001 1289.56 Q130.788 1289.56 134.167 1292.73 Q137.547 1295.9 137.547 1301.32 Q137.547 1306.9 134.075 1310 Q130.603 1313.08 124.283 1313.08 Q122.107 1313.08 119.839 1312.71 Q117.593 1312.34 115.186 1311.6 L115.186 1306.9 Q117.269 1308.03 119.492 1308.59 Q121.714 1309.14 124.191 1309.14 Q128.195 1309.14 130.533 1307.04 Q132.871 1304.93 132.871 1301.32 Q132.871 1297.71 130.533 1295.6 Q128.195 1293.5 124.191 1293.5 Q122.316 1293.5 120.441 1293.91 Q118.589 1294.33 116.644 1295.21 L116.644 1277.85 Z" fill="#000000" fill-rule="evenodd" fill-opacity="1" /><path clip-path="url(#clip920)" d="M156.76 1296 Q153.427 1296 151.505 1297.78 Q149.607 1299.56 149.607 1302.69 Q149.607 1305.81 151.505 1307.59 Q153.427 1309.38 156.76 1309.38 Q160.093 1309.38 162.015 1307.59 Q163.936 1305.79 163.936 1302.69 Q163.936 1299.56 162.015 1297.78 Q160.116 1296 156.76 1296 M152.084 1294.01 Q149.075 1293.27 147.385 1291.21 Q145.718 1289.15 145.718 1286.18 Q145.718 1282.04 148.658 1279.63 Q151.621 1277.22 156.76 1277.22 Q161.922 1277.22 164.862 1279.63 Q167.802 1282.04 167.802 1286.18 Q167.802 1289.15 166.112 1291.21 Q164.445 1293.27 161.459 1294.01 Q164.839 1294.79 166.714 1297.08 Q168.612 1299.38 168.612 1302.69 Q168.612 1307.71 165.533 1310.39 Q162.477 1313.08 156.76 1313.08 Q151.042 1313.08 147.964 1310.39 Q144.908 1307.71 144.908 1302.69 Q144.908 1299.38 146.806 1297.08 Q148.704 1294.79 152.084 1294.01 M150.371 1286.62 Q150.371 1289.31 152.038 1290.81 Q153.728 1292.32 156.76 1292.32 Q159.769 1292.32 161.459 1290.81 Q163.172 1289.31 163.172 1286.62 Q163.172 1283.94 161.459 1282.43 Q159.769 1280.93 156.76 1280.93 Q153.728 1280.93 152.038 1282.43 Q150.371 1283.94 150.371 1286.62 Z" fill="#000000" fill-rule="evenodd" fill-opacity="1" /><path clip-path="url(#clip920)" d="M127.084 1110.46 Q123.936 1110.46 122.084 1112.61 Q120.255 1114.76 120.255 1118.51 Q120.255 1122.24 122.084 1124.41 Q123.936 1126.57 127.084 1126.57 Q130.232 1126.57 132.061 1124.41 Q133.913 1122.24 133.913 1118.51 Q133.913 1114.76 132.061 1112.61 Q130.232 1110.46 127.084 1110.46 M136.367 1095.8 L136.367 1100.06 Q134.607 1099.23 132.802 1098.79 Q131.019 1098.35 129.26 1098.35 Q124.63 1098.35 122.177 1101.47 Q119.746 1104.6 119.399 1110.92 Q120.765 1108.91 122.825 1107.84 Q124.885 1106.75 127.362 1106.75 Q132.57 1106.75 135.579 1109.92 Q138.612 1113.07 138.612 1118.51 Q138.612 1123.84 135.464 1127.05 Q132.316 1130.27 127.084 1130.27 Q121.089 1130.27 117.918 1125.69 Q114.746 1121.08 114.746 1112.35 Q114.746 1104.16 118.635 1099.3 Q122.524 1094.41 129.075 1094.41 Q130.834 1094.41 132.617 1094.76 Q134.422 1095.11 136.367 1095.8 Z" fill="#000000" fill-rule="evenodd" fill-opacity="1" /><path clip-path="url(#clip920)" d="M156.667 1098.12 Q153.056 1098.12 151.228 1101.68 Q149.422 1105.22 149.422 1112.35 Q149.422 1119.46 151.228 1123.03 Q153.056 1126.57 156.667 1126.57 Q160.302 1126.57 162.107 1123.03 Q163.936 1119.46 163.936 1112.35 Q163.936 1105.22 162.107 1101.68 Q160.302 1098.12 156.667 1098.12 M156.667 1094.41 Q162.477 1094.41 165.533 1099.02 Q168.612 1103.6 168.612 1112.35 Q168.612 1121.08 165.533 1125.69 Q162.477 1130.27 156.667 1130.27 Q150.857 1130.27 147.778 1125.69 Q144.723 1121.08 144.723 1112.35 Q144.723 1103.6 147.778 1099.02 Q150.857 1094.41 156.667 1094.41 Z" fill="#000000" fill-rule="evenodd" fill-opacity="1" /><path clip-path="url(#clip920)" d="M128.681 927.647 Q125.533 927.647 123.681 929.8 Q121.853 931.952 121.853 935.702 Q121.853 939.429 123.681 941.605 Q125.533 943.758 128.681 943.758 Q131.83 943.758 133.658 941.605 Q135.51 939.429 135.51 935.702 Q135.51 931.952 133.658 929.8 Q131.83 927.647 128.681 927.647 M137.964 912.994 L137.964 917.253 Q136.204 916.42 134.399 915.98 Q132.617 915.54 130.857 915.54 Q126.228 915.54 123.774 918.665 Q121.343 921.79 120.996 928.11 Q122.362 926.096 124.422 925.031 Q126.482 923.943 128.959 923.943 Q134.167 923.943 137.177 927.114 Q140.209 930.263 140.209 935.702 Q140.209 941.026 137.061 944.244 Q133.913 947.462 128.681 947.462 Q122.686 947.462 119.515 942.878 Q116.343 938.272 116.343 929.545 Q116.343 921.351 120.232 916.489 Q124.121 911.605 130.672 911.605 Q132.431 911.605 134.214 911.952 Q136.019 912.3 137.964 912.994 Z" fill="#000000" fill-rule="evenodd" fill-opacity="1" /><path clip-path="url(#clip920)" d="M152.292 942.855 L168.612 942.855 L168.612 946.79 L146.667 946.79 L146.667 942.855 Q149.329 940.1 153.913 935.471 Q158.519 930.818 159.7 929.476 Q161.945 926.952 162.825 925.216 Q163.727 923.457 163.727 921.767 Q163.727 919.013 161.783 917.276 Q159.862 915.54 156.76 915.54 Q154.561 915.54 152.107 916.304 Q149.677 917.068 146.899 918.619 L146.899 913.897 Q149.723 912.763 152.177 912.184 Q154.63 911.605 156.667 911.605 Q162.038 911.605 165.232 914.29 Q168.427 916.976 168.427 921.466 Q168.427 923.596 167.616 925.517 Q166.829 927.415 164.723 930.008 Q164.144 930.679 161.042 933.897 Q157.94 937.091 152.292 942.855 Z" fill="#000000" fill-rule="evenodd" fill-opacity="1" /><path clip-path="url(#clip920)" d="M126.598 744.838 Q123.45 744.838 121.598 746.99 Q119.769 749.143 119.769 752.893 Q119.769 756.62 121.598 758.796 Q123.45 760.949 126.598 760.949 Q129.746 760.949 131.575 758.796 Q133.427 756.62 133.427 752.893 Q133.427 749.143 131.575 746.99 Q129.746 744.838 126.598 744.838 M135.88 730.185 L135.88 734.444 Q134.121 733.611 132.316 733.171 Q130.533 732.731 128.774 732.731 Q124.144 732.731 121.691 735.856 Q119.26 738.981 118.913 745.3 Q120.279 743.287 122.339 742.222 Q124.399 741.134 126.876 741.134 Q132.084 741.134 135.093 744.305 Q138.126 747.453 138.126 752.893 Q138.126 758.217 134.978 761.435 Q131.83 764.652 126.598 764.652 Q120.603 764.652 117.431 760.069 Q114.26 755.462 114.26 746.736 Q114.26 738.541 118.149 733.68 Q122.038 728.796 128.589 728.796 Q130.348 728.796 132.13 729.143 Q133.936 729.49 135.88 730.185 Z" fill="#000000" fill-rule="evenodd" fill-opacity="1" /><path clip-path="url(#clip920)" d="M159.028 733.495 L147.223 751.944 L159.028 751.944 L159.028 733.495 M157.802 729.421 L163.681 729.421 L163.681 751.944 L168.612 751.944 L168.612 755.833 L163.681 755.833 L163.681 763.981 L159.028 763.981 L159.028 755.833 L143.427 755.833 L143.427 751.319 L157.802 729.421 Z" fill="#000000" fill-rule="evenodd" fill-opacity="1" /><path clip-path="url(#clip920)" d="M126.922 562.028 Q123.774 562.028 121.922 564.181 Q120.093 566.334 120.093 570.084 Q120.093 573.811 121.922 575.986 Q123.774 578.139 126.922 578.139 Q130.07 578.139 131.899 575.986 Q133.751 573.811 133.751 570.084 Q133.751 566.334 131.899 564.181 Q130.07 562.028 126.922 562.028 M136.204 547.376 L136.204 551.635 Q134.445 550.801 132.64 550.362 Q130.857 549.922 129.098 549.922 Q124.468 549.922 122.015 553.047 Q119.584 556.172 119.237 562.491 Q120.603 560.477 122.663 559.412 Q124.723 558.325 127.2 558.325 Q132.408 558.325 135.417 561.496 Q138.45 564.644 138.45 570.084 Q138.45 575.408 135.302 578.625 Q132.154 581.843 126.922 581.843 Q120.927 581.843 117.756 577.26 Q114.584 572.653 114.584 563.926 Q114.584 555.732 118.473 550.871 Q122.362 545.987 128.913 545.987 Q130.672 545.987 132.455 546.334 Q134.26 546.681 136.204 547.376 Z" fill="#000000" fill-rule="evenodd" fill-opacity="1" /><path clip-path="url(#clip920)" d="M157.084 562.028 Q153.936 562.028 152.084 564.181 Q150.255 566.334 150.255 570.084 Q150.255 573.811 152.084 575.986 Q153.936 578.139 157.084 578.139 Q160.232 578.139 162.061 575.986 Q163.913 573.811 163.913 570.084 Q163.913 566.334 162.061 564.181 Q160.232 562.028 157.084 562.028 M166.366 547.376 L166.366 551.635 Q164.607 550.801 162.802 550.362 Q161.019 549.922 159.26 549.922 Q154.63 549.922 152.177 553.047 Q149.746 556.172 149.399 562.491 Q150.765 560.477 152.825 559.412 Q154.885 558.325 157.362 558.325 Q162.57 558.325 165.579 561.496 Q168.612 564.644 168.612 570.084 Q168.612 575.408 165.464 578.625 Q162.315 581.843 157.084 581.843 Q151.089 581.843 147.917 577.26 Q144.746 572.653 144.746 563.926 Q144.746 555.732 148.635 550.871 Q152.524 545.987 159.075 545.987 Q160.834 545.987 162.616 546.334 Q164.422 546.681 166.366 547.376 Z" fill="#000000" fill-rule="evenodd" fill-opacity="1" /><path clip-path="url(#clip920)" d="M127.177 379.219 Q124.029 379.219 122.177 381.372 Q120.348 383.524 120.348 387.274 Q120.348 391.001 122.177 393.177 Q124.029 395.33 127.177 395.33 Q130.325 395.33 132.154 393.177 Q134.005 391.001 134.005 387.274 Q134.005 383.524 132.154 381.372 Q130.325 379.219 127.177 379.219 M136.459 364.566 L136.459 368.825 Q134.7 367.992 132.894 367.552 Q131.112 367.112 129.353 367.112 Q124.723 367.112 122.269 370.237 Q119.839 373.362 119.492 379.682 Q120.857 377.668 122.918 376.603 Q124.978 375.515 127.455 375.515 Q132.663 375.515 135.672 378.686 Q138.704 381.835 138.704 387.274 Q138.704 392.598 135.556 395.816 Q132.408 399.034 127.177 399.034 Q121.181 399.034 118.01 394.45 Q114.839 389.844 114.839 381.117 Q114.839 372.923 118.728 368.062 Q122.617 363.177 129.167 363.177 Q130.927 363.177 132.709 363.525 Q134.515 363.872 136.459 364.566 Z" fill="#000000" fill-rule="evenodd" fill-opacity="1" /><path clip-path="url(#clip920)" d="M156.76 381.95 Q153.427 381.95 151.505 383.733 Q149.607 385.515 149.607 388.64 Q149.607 391.765 151.505 393.548 Q153.427 395.33 156.76 395.33 Q160.093 395.33 162.015 393.548 Q163.936 391.742 163.936 388.64 Q163.936 385.515 162.015 383.733 Q160.116 381.95 156.76 381.95 M152.084 379.96 Q149.075 379.219 147.385 377.159 Q145.718 375.099 145.718 372.136 Q145.718 367.992 148.658 365.585 Q151.621 363.177 156.76 363.177 Q161.922 363.177 164.862 365.585 Q167.802 367.992 167.802 372.136 Q167.802 375.099 166.112 377.159 Q164.445 379.219 161.459 379.96 Q164.839 380.747 166.714 383.038 Q168.612 385.33 168.612 388.64 Q168.612 393.663 165.533 396.348 Q162.477 399.034 156.76 399.034 Q151.042 399.034 147.964 396.348 Q144.908 393.663 144.908 388.64 Q144.908 385.33 146.806 383.038 Q148.704 380.747 152.084 379.96 M150.371 372.575 Q150.371 375.261 152.038 376.765 Q153.728 378.27 156.76 378.27 Q159.769 378.27 161.459 376.765 Q163.172 375.261 163.172 372.575 Q163.172 369.89 161.459 368.386 Q159.769 366.881 156.76 366.881 Q153.728 366.881 152.038 368.386 Q150.371 369.89 150.371 372.575 Z" fill="#000000" fill-rule="evenodd" fill-opacity="1" /><path clip-path="url(#clip920)" d="M115.325 180.993 L137.547 180.993 L137.547 182.984 L125.001 215.553 L120.117 215.553 L131.922 184.928 L115.325 184.928 L115.325 180.993 Z" fill="#000000" fill-rule="evenodd" fill-opacity="1" /><path clip-path="url(#clip920)" d="M156.667 184.072 Q153.056 184.072 151.228 187.636 Q149.422 191.178 149.422 198.308 Q149.422 205.414 151.228 208.979 Q153.056 212.521 156.667 212.521 Q160.302 212.521 162.107 208.979 Q163.936 205.414 163.936 198.308 Q163.936 191.178 162.107 187.636 Q160.302 184.072 156.667 184.072 M156.667 180.368 Q162.477 180.368 165.533 184.974 Q168.612 189.558 168.612 198.308 Q168.612 207.035 165.533 211.641 Q162.477 216.224 156.667 216.224 Q150.857 216.224 147.778 211.641 Q144.723 207.035 144.723 198.308 Q144.723 189.558 147.778 184.974 Q150.857 180.368 156.667 180.368 Z" fill="#000000" fill-rule="evenodd" fill-opacity="1" /><path clip-path="url(#clip920)" d="M41.7242 827.897 Q42.4244 825.828 44.7161 823.886 Q47.0077 821.913 51.0181 819.94 L64.0042 813.415 L64.0042 820.321 L51.8138 826.401 Q47.0395 828.756 45.48 830.984 Q43.9204 833.18 43.9204 837 L43.9204 844.002 L64.0042 844.002 L64.0042 850.431 L16.4842 850.431 L16.4842 835.917 Q16.4842 827.769 19.8898 823.759 Q23.2955 819.749 30.1704 819.749 Q34.6582 819.749 37.6183 821.849 Q40.5784 823.918 41.7242 827.897 M21.7677 844.002 L38.6368 844.002 L38.6368 835.917 Q38.6368 831.27 36.5043 828.915 Q34.34 826.528 30.1704 826.528 Q26.0009 826.528 23.9002 828.915 Q21.7677 831.27 21.7677 835.917 L21.7677 844.002 Z" fill="#000000" fill-rule="evenodd" fill-opacity="1" /><path clip-path="url(#clip920)" d="M44.7161 777.83 L47.5806 777.83 L47.5806 804.757 Q53.6281 804.375 56.8109 801.129 Q59.9619 797.851 59.9619 792.026 Q59.9619 788.652 59.1344 785.501 Q58.3069 782.318 56.6518 779.199 L62.1899 779.199 Q63.5267 782.35 64.227 785.66 Q64.9272 788.97 64.9272 792.376 Q64.9272 800.906 59.9619 805.903 Q54.9967 810.868 46.5303 810.868 Q37.7774 810.868 32.6531 806.158 Q27.4968 801.415 27.4968 793.395 Q27.4968 786.201 32.1438 782.032 Q36.7589 777.83 44.7161 777.83 M42.9973 783.687 Q38.1912 783.75 35.3266 786.392 Q32.4621 789.002 32.4621 793.331 Q32.4621 798.232 35.2312 801.193 Q38.0002 804.121 43.0292 804.566 L42.9973 783.687 Z" fill="#000000" fill-rule="evenodd" fill-opacity="1" /><path clip-path="url(#clip920)" d="M28.3562 771.624 L28.3562 765.767 L56.1743 758.447 L28.3562 751.158 L28.3562 744.251 L56.1743 736.931 L28.3562 729.642 L28.3562 723.786 L64.0042 733.111 L64.0042 740.018 L34.7856 747.689 L64.0042 755.391 L64.0042 762.298 L28.3562 771.624 Z" fill="#000000" fill-rule="evenodd" fill-opacity="1" /><path clip-path="url(#clip920)" d="M46.0847 698.705 Q46.0847 705.802 47.7079 708.54 Q49.3312 711.277 53.2461 711.277 Q56.3653 711.277 58.2114 709.24 Q60.0256 707.171 60.0256 703.638 Q60.0256 698.768 56.5881 695.84 Q53.1188 692.88 47.3897 692.88 L46.0847 692.88 L46.0847 698.705 M43.6657 687.024 L64.0042 687.024 L64.0042 692.88 L58.5933 692.88 Q61.8398 694.885 63.3994 697.877 Q64.9272 700.869 64.9272 705.198 Q64.9272 710.672 61.8716 713.919 Q58.7843 717.133 53.6281 717.133 Q47.6125 717.133 44.5569 713.123 Q41.5014 709.081 41.5014 701.092 L41.5014 692.88 L40.9285 692.88 Q36.8862 692.88 34.6901 695.554 Q32.4621 698.195 32.4621 703.001 Q32.4621 706.057 33.1941 708.953 Q33.9262 711.85 35.3903 714.523 L29.9795 714.523 Q28.7381 711.309 28.1334 708.285 Q27.4968 705.261 27.4968 702.397 Q27.4968 694.662 31.5072 690.843 Q35.5176 687.024 43.6657 687.024 Z" fill="#000000" fill-rule="evenodd" fill-opacity="1" /><path clip-path="url(#clip920)" d="M33.8307 654.304 Q33.2578 655.291 33.0032 656.468 Q32.7167 657.614 32.7167 659.014 Q32.7167 663.98 35.9632 666.653 Q39.1779 669.295 45.2253 669.295 L64.0042 669.295 L64.0042 675.183 L28.3562 675.183 L28.3562 669.295 L33.8944 669.295 Q30.6479 667.449 29.0883 664.489 Q27.4968 661.529 27.4968 657.296 Q27.4968 656.691 27.5923 655.959 Q27.656 655.227 27.8151 654.336 L33.8307 654.304 Z" fill="#000000" fill-rule="evenodd" fill-opacity="1" /><path clip-path="url(#clip920)" d="M33.7671 625.849 L14.479 625.849 L14.479 619.993 L64.0042 619.993 L64.0042 625.849 L58.657 625.849 Q61.8398 627.695 63.3994 630.528 Q64.9272 633.329 64.9272 637.276 Q64.9272 643.737 59.771 647.811 Q54.6147 651.853 46.212 651.853 Q37.8093 651.853 32.6531 647.811 Q27.4968 643.737 27.4968 637.276 Q27.4968 633.329 29.0564 630.528 Q30.5842 627.695 33.7671 625.849 M46.212 645.806 Q52.6732 645.806 56.3653 643.164 Q60.0256 640.49 60.0256 635.843 Q60.0256 631.196 56.3653 628.523 Q52.6732 625.849 46.212 625.849 Q39.7508 625.849 36.0905 628.523 Q32.3984 631.196 32.3984 635.843 Q32.3984 640.49 36.0905 643.164 Q39.7508 645.806 46.212 645.806 Z" fill="#000000" fill-rule="evenodd" fill-opacity="1" /><polyline clip-path="url(#clip922)" style="stroke:#ffa500; stroke-linecap:round; stroke-linejoin:round; stroke-width:4; stroke-opacity:1; fill:none" points="
  265.408,1384.24 279.009,485.18 292.61,287.928 306.211,282.569 319.812,295.239 333.413,258.225 347.014,319.576 360.615,204.64 374.216,274.798 387.817,169.652 
  401.418,161.709 415.019,145.998 428.62,184.106 442.221,155.46 455.822,303.757 469.423,226.272 483.024,266.554 496.625,244.383 510.227,145.682 523.828,187.042 
  537.429,163.948 551.03,226.298 564.631,179.283 578.232,144.905 591.833,177.124 605.434,182.438 619.035,244.201 632.636,246.337 646.237,292.23 659.838,165.797 
  673.439,251.48 687.04,197.001 700.641,169.215 714.242,274.886 727.843,377.968 741.444,227.254 755.045,313.083 768.646,232.651 782.247,221.349 795.848,361.014 
  809.449,214.894 823.05,198.833 836.651,226.595 850.252,223.55 863.853,161.626 877.454,243.62 891.055,237.065 904.656,181.66 918.257,208.251 931.858,197.381 
  945.459,245.905 959.06,214.918 972.661,241.23 986.262,201.557 999.863,216.157 1013.46,249.698 1027.07,269.285 1040.67,245.133 1054.27,175.966 1067.87,297.106 
  1081.47,190.359 1095.07,243.02 1108.67,226.063 1122.27,187.042 1135.87,208.567 1149.47,226.813 1163.08,200.625 1176.68,211.193 1190.28,206.275 1203.88,158.871 
  1217.48,183.999 1231.08,163.276 1244.68,177.895 1258.28,156.736 1271.88,156.801 1285.48,142.696 1299.09,182.658 1312.69,168.086 1326.29,192.271 1339.89,160.58 
  1353.49,150.349 1367.09,132.765 1380.69,168.694 1394.29,191.79 1407.89,256.841 1421.49,153.391 1435.1,235.036 1448.7,218.829 1462.3,189.634 1475.9,203.449 
  1489.5,174.639 1503.1,180.363 1516.7,285.462 1530.3,214.338 1543.9,149.31 1557.5,118.695 1571.11,154.803 1584.71,143.656 1598.31,146.793 1611.91,133.591 
  1625.51,112.87 1639.11,122.526 1652.71,120.611 1666.31,143.358 1679.91,156.389 1693.51,218.078 1707.12,176.974 1720.72,221.791 1734.32,243.716 1747.92,179.112 
  1761.52,134.705 1775.12,206.314 1788.72,200.723 1802.32,121.17 1815.92,191.962 1829.52,205.628 1843.13,238.944 1856.73,197.578 1870.33,162.522 1883.93,163.3 
  1897.53,199.439 1911.13,133.383 1924.73,212.099 1938.33,209.797 1951.93,190.64 1965.54,197.772 1979.14,171.997 1992.74,114.923 2006.34,242.057 2019.94,158.851 
  2033.54,213.174 2047.14,199.61 2060.74,181.873 2074.34,214.367 2087.94,122.093 2101.55,206.675 2115.15,171.628 2128.75,265.288 2142.35,184.436 2155.95,139.295 
  2169.55,115.895 2183.15,146.157 2196.75,154.495 2210.35,174.915 2223.95,126.585 2237.56,86.1857 2251.16,186.017 2264.76,125.196 2278.36,171.55 2291.96,131.403 
  
  "/>
<path clip-path="url(#clip920)" d="
M1831.41 1377.32 L2281.15 1377.32 L2281.15 1273.64 L1831.41 1273.64  Z
  " fill="#ffffff" fill-rule="evenodd" fill-opacity="1"/>
<polyline clip-path="url(#clip920)" style="stroke:#000000; stroke-linecap:round; stroke-linejoin:round; stroke-width:4; stroke-opacity:1; fill:none" points="
  1831.41,1377.32 2281.15,1377.32 2281.15,1273.64 1831.41,1273.64 1831.41,1377.32 
  "/>
<polyline clip-path="url(#clip920)" style="stroke:#ffa500; stroke-linecap:round; stroke-linejoin:round; stroke-width:4; stroke-opacity:1; fill:none" points="
  1855.28,1325.48 1998.49,1325.48 
  "/>
<path clip-path="url(#clip920)" d="M2038.86 1306.74 L2038.86 1310.28 L2034.78 1310.28 Q2032.49 1310.28 2031.59 1311.2 Q2030.71 1312.13 2030.71 1314.54 L2030.71 1316.83 L2037.72 1316.83 L2037.72 1320.14 L2030.71 1320.14 L2030.71 1342.76 L2026.43 1342.76 L2026.43 1320.14 L2022.35 1320.14 L2022.35 1316.83 L2026.43 1316.83 L2026.43 1315.02 Q2026.43 1310.7 2028.44 1308.73 Q2030.46 1306.74 2034.83 1306.74 L2038.86 1306.74 Z" fill="#000000" fill-rule="evenodd" fill-opacity="1" /><path clip-path="url(#clip920)" d="M2054.21 1329.72 Q2049.04 1329.72 2047.05 1330.9 Q2045.06 1332.08 2045.06 1334.93 Q2045.06 1337.2 2046.54 1338.54 Q2048.05 1339.86 2050.62 1339.86 Q2054.16 1339.86 2056.29 1337.36 Q2058.44 1334.84 2058.44 1330.67 L2058.44 1329.72 L2054.21 1329.72 M2062.7 1327.96 L2062.7 1342.76 L2058.44 1342.76 L2058.44 1338.82 Q2056.98 1341.18 2054.81 1342.32 Q2052.63 1343.43 2049.48 1343.43 Q2045.5 1343.43 2043.14 1341.2 Q2040.8 1338.96 2040.8 1335.21 Q2040.8 1330.83 2043.72 1328.61 Q2046.66 1326.39 2052.47 1326.39 L2058.44 1326.39 L2058.44 1325.97 Q2058.44 1323.03 2056.5 1321.44 Q2054.58 1319.82 2051.08 1319.82 Q2048.86 1319.82 2046.75 1320.35 Q2044.65 1320.88 2042.7 1321.95 L2042.7 1318.01 Q2045.04 1317.11 2047.24 1316.67 Q2049.44 1316.2 2051.52 1316.2 Q2057.15 1316.2 2059.92 1319.12 Q2062.7 1322.04 2062.7 1327.96 Z" fill="#000000" fill-rule="evenodd" fill-opacity="1" /><path clip-path="url(#clip920)" d="M2088 1317.59 L2088 1321.62 Q2086.2 1320.7 2084.25 1320.23 Q2082.31 1319.77 2080.22 1319.77 Q2077.05 1319.77 2075.46 1320.74 Q2073.88 1321.71 2073.88 1323.66 Q2073.88 1325.14 2075.02 1326 Q2076.15 1326.83 2079.58 1327.59 L2081.03 1327.92 Q2085.57 1328.89 2087.47 1330.67 Q2089.39 1332.43 2089.39 1335.6 Q2089.39 1339.21 2086.52 1341.32 Q2083.67 1343.43 2078.67 1343.43 Q2076.59 1343.43 2074.32 1343.01 Q2072.08 1342.62 2069.58 1341.81 L2069.58 1337.41 Q2071.94 1338.63 2074.23 1339.26 Q2076.52 1339.86 2078.77 1339.86 Q2081.77 1339.86 2083.39 1338.84 Q2085.02 1337.8 2085.02 1335.93 Q2085.02 1334.19 2083.83 1333.26 Q2082.68 1332.34 2078.72 1331.48 L2077.24 1331.14 Q2073.28 1330.3 2071.52 1328.59 Q2069.76 1326.85 2069.76 1323.84 Q2069.76 1320.19 2072.35 1318.2 Q2074.95 1316.2 2079.71 1316.2 Q2082.08 1316.2 2084.16 1316.55 Q2086.24 1316.9 2088 1317.59 Z" fill="#000000" fill-rule="evenodd" fill-opacity="1" /><path clip-path="url(#clip920)" d="M2100.39 1309.47 L2100.39 1316.83 L2109.16 1316.83 L2109.16 1320.14 L2100.39 1320.14 L2100.39 1334.21 Q2100.39 1337.38 2101.24 1338.29 Q2102.12 1339.19 2104.78 1339.19 L2109.16 1339.19 L2109.16 1342.76 L2104.78 1342.76 Q2099.85 1342.76 2097.98 1340.93 Q2096.1 1339.07 2096.1 1334.21 L2096.1 1320.14 L2092.98 1320.14 L2092.98 1316.83 L2096.1 1316.83 L2096.1 1309.47 L2100.39 1309.47 Z" fill="#000000" fill-rule="evenodd" fill-opacity="1" /><path clip-path="url(#clip920)" d="M2150.01 1321.81 Q2151.61 1318.94 2153.83 1317.57 Q2156.06 1316.2 2159.07 1316.2 Q2163.12 1316.2 2165.32 1319.05 Q2167.51 1321.88 2167.51 1327.11 L2167.51 1342.76 L2163.23 1342.76 L2163.23 1327.25 Q2163.23 1323.52 2161.91 1321.71 Q2160.59 1319.91 2157.89 1319.91 Q2154.58 1319.91 2152.65 1322.11 Q2150.73 1324.31 2150.73 1328.1 L2150.73 1342.76 L2146.45 1342.76 L2146.45 1327.25 Q2146.45 1323.5 2145.13 1321.71 Q2143.81 1319.91 2141.06 1319.91 Q2137.79 1319.91 2135.87 1322.13 Q2133.95 1324.33 2133.95 1328.1 L2133.95 1342.76 L2129.67 1342.76 L2129.67 1316.83 L2133.95 1316.83 L2133.95 1320.86 Q2135.41 1318.47 2137.45 1317.34 Q2139.48 1316.2 2142.28 1316.2 Q2145.11 1316.2 2147.08 1317.64 Q2149.07 1319.07 2150.01 1321.81 Z" fill="#000000" fill-rule="evenodd" fill-opacity="1" /><path clip-path="url(#clip920)" d="M2186.06 1319.82 Q2182.63 1319.82 2180.64 1322.5 Q2178.65 1325.16 2178.65 1329.82 Q2178.65 1334.47 2180.62 1337.15 Q2182.61 1339.82 2186.06 1339.82 Q2189.46 1339.82 2191.45 1337.13 Q2193.44 1334.45 2193.44 1329.82 Q2193.44 1325.21 2191.45 1322.52 Q2189.46 1319.82 2186.06 1319.82 M2186.06 1316.2 Q2191.61 1316.2 2194.78 1319.82 Q2197.95 1323.43 2197.95 1329.82 Q2197.95 1336.18 2194.78 1339.82 Q2191.61 1343.43 2186.06 1343.43 Q2180.48 1343.43 2177.31 1339.82 Q2174.16 1336.18 2174.16 1329.82 Q2174.16 1323.43 2177.31 1319.82 Q2180.48 1316.2 2186.06 1316.2 Z" fill="#000000" fill-rule="evenodd" fill-opacity="1" /><path clip-path="url(#clip920)" d="M2222.07 1320.76 L2222.07 1306.74 L2226.33 1306.74 L2226.33 1342.76 L2222.07 1342.76 L2222.07 1338.87 Q2220.73 1341.18 2218.67 1342.32 Q2216.63 1343.43 2213.76 1343.43 Q2209.07 1343.43 2206.1 1339.68 Q2203.16 1335.93 2203.16 1329.82 Q2203.16 1323.7 2206.1 1319.95 Q2209.07 1316.2 2213.76 1316.2 Q2216.63 1316.2 2218.67 1317.34 Q2220.73 1318.45 2222.07 1320.76 M2207.56 1329.82 Q2207.56 1334.51 2209.48 1337.2 Q2211.43 1339.86 2214.81 1339.86 Q2218.19 1339.86 2220.13 1337.2 Q2222.07 1334.51 2222.07 1329.82 Q2222.07 1325.12 2220.13 1322.45 Q2218.19 1319.77 2214.81 1319.77 Q2211.43 1319.77 2209.48 1322.45 Q2207.56 1325.12 2207.56 1329.82 Z" fill="#000000" fill-rule="evenodd" fill-opacity="1" /><path clip-path="url(#clip920)" d="M2257.28 1328.73 L2257.28 1330.81 L2237.7 1330.81 Q2237.98 1335.21 2240.34 1337.52 Q2242.72 1339.82 2246.96 1339.82 Q2249.41 1339.82 2251.7 1339.21 Q2254.02 1338.61 2256.29 1337.41 L2256.29 1341.44 Q2254 1342.41 2251.59 1342.92 Q2249.18 1343.43 2246.7 1343.43 Q2240.5 1343.43 2236.87 1339.82 Q2233.26 1336.2 2233.26 1330.05 Q2233.26 1323.68 2236.68 1319.95 Q2240.13 1316.2 2245.96 1316.2 Q2251.19 1316.2 2254.23 1319.58 Q2257.28 1322.94 2257.28 1328.73 M2253.02 1327.48 Q2252.98 1323.98 2251.06 1321.9 Q2249.16 1319.82 2246.01 1319.82 Q2242.44 1319.82 2240.29 1321.83 Q2238.16 1323.84 2237.84 1327.5 L2253.02 1327.48 Z" fill="#000000" fill-rule="evenodd" fill-opacity="1" /></svg>
