<?xml version="1.0" encoding="utf-8"?>
<svg xmlns="http://www.w3.org/2000/svg" xmlns:xlink="http://www.w3.org/1999/xlink" width="600" height="400" viewBox="0 0 2400 1600">
<defs>
  <clipPath id="clip790">
    <rect x="0" y="0" width="2400" height="1600"/>
  </clipPath>
</defs>
<path clip-path="url(#clip790)" d="
M0 1600 L2400 1600 L2400 0 L0 0  Z
  " fill="#ffffff" fill-rule="evenodd" fill-opacity="1"/>
<defs>
  <clipPath id="clip791">
    <rect x="480" y="0" width="1681" height="1600"/>
  </clipPath>
</defs>
<path clip-path="url(#clip790)" d="
M258.989 1418.86 L2352.76 1418.86 L2352.76 47.2441 L258.989 47.2441  Z
  " fill="#ffffff" fill-rule="evenodd" fill-opacity="1"/>
<defs>
  <clipPath id="clip792">
    <rect x="258" y="47" width="2095" height="1373"/>
  </clipPath>
</defs>
<polyline clip-path="url(#clip792)" style="stroke:#000000; stroke-linecap:round; stroke-linejoin:round; stroke-width:2; stroke-opacity:0.1; fill:none" points="
  304.99,1418.86 304.99,47.2441 
  "/>
<polyline clip-path="url(#clip792)" style="stroke:#000000; stroke-linecap:round; stroke-linejoin:round; stroke-width:2; stroke-opacity:0.1; fill:none" points="
  636.408,1418.86 636.408,47.2441 
  "/>
<polyline clip-path="url(#clip792)" style="stroke:#000000; stroke-linecap:round; stroke-linejoin:round; stroke-width:2; stroke-opacity:0.1; fill:none" points="
  967.826,1418.86 967.826,47.2441 
  "/>
<polyline clip-path="url(#clip792)" style="stroke:#000000; stroke-linecap:round; stroke-linejoin:round; stroke-width:2; stroke-opacity:0.1; fill:none" points="
  1299.24,1418.86 1299.24,47.2441 
  "/>
<polyline clip-path="url(#clip792)" style="stroke:#000000; stroke-linecap:round; stroke-linejoin:round; stroke-width:2; stroke-opacity:0.1; fill:none" points="
  1630.66,1418.86 1630.66,47.2441 
  "/>
<polyline clip-path="url(#clip792)" style="stroke:#000000; stroke-linecap:round; stroke-linejoin:round; stroke-width:2; stroke-opacity:0.1; fill:none" points="
  1962.08,1418.86 1962.08,47.2441 
  "/>
<polyline clip-path="url(#clip792)" style="stroke:#000000; stroke-linecap:round; stroke-linejoin:round; stroke-width:2; stroke-opacity:0.1; fill:none" points="
  2293.5,1418.86 2293.5,47.2441 
  "/>
<polyline clip-path="url(#clip790)" style="stroke:#000000; stroke-linecap:round; stroke-linejoin:round; stroke-width:4; stroke-opacity:1; fill:none" points="
  258.989,1418.86 2352.76,1418.86 
  "/>
<polyline clip-path="url(#clip790)" style="stroke:#000000; stroke-linecap:round; stroke-linejoin:round; stroke-width:4; stroke-opacity:1; fill:none" points="
  304.99,1418.86 304.99,1399.96 
  "/>
<polyline clip-path="url(#clip790)" style="stroke:#000000; stroke-linecap:round; stroke-linejoin:round; stroke-width:4; stroke-opacity:1; fill:none" points="
  636.408,1418.86 636.408,1399.96 
  "/>
<polyline clip-path="url(#clip790)" style="stroke:#000000; stroke-linecap:round; stroke-linejoin:round; stroke-width:4; stroke-opacity:1; fill:none" points="
  967.826,1418.86 967.826,1399.96 
  "/>
<polyline clip-path="url(#clip790)" style="stroke:#000000; stroke-linecap:round; stroke-linejoin:round; stroke-width:4; stroke-opacity:1; fill:none" points="
  1299.24,1418.86 1299.24,1399.96 
  "/>
<polyline clip-path="url(#clip790)" style="stroke:#000000; stroke-linecap:round; stroke-linejoin:round; stroke-width:4; stroke-opacity:1; fill:none" points="
  1630.66,1418.86 1630.66,1399.96 
  "/>
<polyline clip-path="url(#clip790)" style="stroke:#000000; stroke-linecap:round; stroke-linejoin:round; stroke-width:4; stroke-opacity:1; fill:none" points="
  1962.08,1418.86 1962.08,1399.96 
  "/>
<polyline clip-path="url(#clip790)" style="stroke:#000000; stroke-linecap:round; stroke-linejoin:round; stroke-width:4; stroke-opacity:1; fill:none" points="
  2293.5,1418.86 2293.5,1399.96 
  "/>
<path clip-path="url(#clip790)" d="M212.792 1449.78 Q209.18 1449.78 207.352 1453.34 Q205.546 1456.88 205.546 1464.01 Q205.546 1471.12 207.352 1474.69 Q209.18 1478.23 212.792 1478.23 Q216.426 1478.23 218.231 1474.69 Q220.06 1471.12 220.06 1464.01 Q220.06 1456.88 218.231 1453.34 Q216.426 1449.78 212.792 1449.78 M212.792 1446.07 Q218.602 1446.07 221.657 1450.68 Q224.736 1455.26 224.736 1464.01 Q224.736 1472.74 221.657 1477.35 Q218.602 1481.93 212.792 1481.93 Q206.981 1481.93 203.903 1477.35 Q200.847 1472.74 200.847 1464.01 Q200.847 1455.26 203.903 1450.68 Q206.981 1446.07 212.792 1446.07 Z" fill="#000000" fill-rule="evenodd" fill-opacity="1" /><path clip-path="url(#clip790)" d="M232.953 1475.38 L237.838 1475.38 L237.838 1481.26 L232.953 1481.26 L232.953 1475.38 Z" fill="#000000" fill-rule="evenodd" fill-opacity="1" /><path clip-path="url(#clip790)" d="M258.023 1449.78 Q254.412 1449.78 252.583 1453.34 Q250.777 1456.88 250.777 1464.01 Q250.777 1471.12 252.583 1474.69 Q254.412 1478.23 258.023 1478.23 Q261.657 1478.23 263.463 1474.69 Q265.291 1471.12 265.291 1464.01 Q265.291 1456.88 263.463 1453.34 Q261.657 1449.78 258.023 1449.78 M258.023 1446.07 Q263.833 1446.07 266.888 1450.68 Q269.967 1455.26 269.967 1464.01 Q269.967 1472.74 266.888 1477.35 Q263.833 1481.93 258.023 1481.93 Q252.213 1481.93 249.134 1477.35 Q246.078 1472.74 246.078 1464.01 Q246.078 1455.26 249.134 1450.68 Q252.213 1446.07 258.023 1446.07 Z" fill="#000000" fill-rule="evenodd" fill-opacity="1" /><path clip-path="url(#clip790)" d="M288.185 1449.78 Q284.574 1449.78 282.745 1453.34 Q280.939 1456.88 280.939 1464.01 Q280.939 1471.12 282.745 1474.69 Q284.574 1478.23 288.185 1478.23 Q291.819 1478.23 293.624 1474.69 Q295.453 1471.12 295.453 1464.01 Q295.453 1456.88 293.624 1453.34 Q291.819 1449.78 288.185 1449.78 M288.185 1446.07 Q293.995 1446.07 297.05 1450.68 Q300.129 1455.26 300.129 1464.01 Q300.129 1472.74 297.05 1477.35 Q293.995 1481.93 288.185 1481.93 Q282.375 1481.93 279.296 1477.35 Q276.24 1472.74 276.24 1464.01 Q276.24 1455.26 279.296 1450.68 Q282.375 1446.07 288.185 1446.07 Z" fill="#000000" fill-rule="evenodd" fill-opacity="1" /><path clip-path="url(#clip790)" d="M329.296 1455.33 L319.921 1467.95 L329.782 1481.26 L324.759 1481.26 L317.212 1471.07 L309.666 1481.26 L304.643 1481.26 L314.712 1467.7 L305.499 1455.33 L310.523 1455.33 L317.397 1464.57 L324.272 1455.33 L329.296 1455.33 Z" fill="#000000" fill-rule="evenodd" fill-opacity="1" /><path clip-path="url(#clip790)" d="M337.212 1477.32 L344.851 1477.32 L344.851 1450.96 L336.541 1452.63 L336.541 1448.37 L344.805 1446.7 L349.481 1446.7 L349.481 1477.32 L357.119 1477.32 L357.119 1481.26 L337.212 1481.26 L337.212 1477.32 Z" fill="#000000" fill-rule="evenodd" fill-opacity="1" /><path clip-path="url(#clip790)" d="M376.564 1449.78 Q372.953 1449.78 371.124 1453.34 Q369.319 1456.88 369.319 1464.01 Q369.319 1471.12 371.124 1474.69 Q372.953 1478.23 376.564 1478.23 Q380.198 1478.23 382.004 1474.69 Q383.832 1471.12 383.832 1464.01 Q383.832 1456.88 382.004 1453.34 Q380.198 1449.78 376.564 1449.78 M376.564 1446.07 Q382.374 1446.07 385.43 1450.68 Q388.508 1455.26 388.508 1464.01 Q388.508 1472.74 385.43 1477.35 Q382.374 1481.93 376.564 1481.93 Q370.754 1481.93 367.675 1477.35 Q364.619 1472.74 364.619 1464.01 Q364.619 1455.26 367.675 1450.68 Q370.754 1446.07 376.564 1446.07 Z" fill="#000000" fill-rule="evenodd" fill-opacity="1" /><path clip-path="url(#clip790)" d="M401.726 1455.03 Q399.689 1455.03 398.508 1456.24 Q397.328 1457.46 397.328 1459.57 Q397.328 1461.65 398.508 1462.86 Q399.689 1464.08 401.726 1464.08 Q403.74 1464.08 404.92 1462.86 Q406.101 1461.65 406.101 1459.57 Q406.101 1457.46 404.92 1456.24 Q403.74 1455.03 401.726 1455.03 M407.698 1446.84 L407.698 1449.22 Q406.564 1448.76 405.406 1448.53 Q404.249 1448.27 403.115 1448.27 Q400.152 1448.27 398.578 1450.01 Q397.004 1451.77 396.772 1455.31 Q397.652 1454.18 398.971 1453.57 Q400.314 1452.97 401.888 1452.97 Q405.244 1452.97 407.189 1454.73 Q409.133 1456.51 409.133 1459.57 Q409.133 1462.51 407.096 1464.34 Q405.082 1466.14 401.726 1466.14 Q397.86 1466.14 395.823 1463.57 Q393.786 1461.01 393.786 1456.1 Q393.786 1451.51 396.286 1448.81 Q398.786 1446.07 402.999 1446.07 Q404.133 1446.07 405.291 1446.26 Q406.448 1446.47 407.698 1446.84 Z" fill="#000000" fill-rule="evenodd" fill-opacity="1" /><path clip-path="url(#clip790)" d="M544.21 1449.78 Q540.599 1449.78 538.77 1453.34 Q536.964 1456.88 536.964 1464.01 Q536.964 1471.12 538.77 1474.69 Q540.599 1478.23 544.21 1478.23 Q547.844 1478.23 549.649 1474.69 Q551.478 1471.12 551.478 1464.01 Q551.478 1456.88 549.649 1453.34 Q547.844 1449.78 544.21 1449.78 M544.21 1446.07 Q550.02 1446.07 553.075 1450.68 Q556.154 1455.26 556.154 1464.01 Q556.154 1472.74 553.075 1477.35 Q550.02 1481.93 544.21 1481.93 Q538.399 1481.93 535.321 1477.35 Q532.265 1472.74 532.265 1464.01 Q532.265 1455.26 535.321 1450.68 Q538.399 1446.07 544.21 1446.07 Z" fill="#000000" fill-rule="evenodd" fill-opacity="1" /><path clip-path="url(#clip790)" d="M564.372 1475.38 L569.256 1475.38 L569.256 1481.26 L564.372 1481.26 L564.372 1475.38 Z" fill="#000000" fill-rule="evenodd" fill-opacity="1" /><path clip-path="url(#clip790)" d="M583.469 1477.32 L599.788 1477.32 L599.788 1481.26 L577.844 1481.26 L577.844 1477.32 Q580.506 1474.57 585.089 1469.94 Q589.695 1465.29 590.876 1463.95 Q593.121 1461.42 594.001 1459.69 Q594.904 1457.93 594.904 1456.24 Q594.904 1453.48 592.959 1451.75 Q591.038 1450.01 587.936 1450.01 Q585.737 1450.01 583.283 1450.77 Q580.853 1451.54 578.075 1453.09 L578.075 1448.37 Q580.899 1447.23 583.353 1446.65 Q585.807 1446.07 587.844 1446.07 Q593.214 1446.07 596.408 1448.76 Q599.603 1451.45 599.603 1455.94 Q599.603 1458.07 598.793 1459.99 Q598.006 1461.88 595.899 1464.48 Q595.32 1465.15 592.219 1468.37 Q589.117 1471.56 583.469 1477.32 Z" fill="#000000" fill-rule="evenodd" fill-opacity="1" /><path clip-path="url(#clip790)" d="M609.649 1446.7 L628.005 1446.7 L628.005 1450.64 L613.931 1450.64 L613.931 1459.11 Q614.95 1458.76 615.968 1458.6 Q616.987 1458.41 618.006 1458.41 Q623.793 1458.41 627.172 1461.58 Q630.552 1464.76 630.552 1470.17 Q630.552 1475.75 627.08 1478.85 Q623.607 1481.93 617.288 1481.93 Q615.112 1481.93 612.843 1481.56 Q610.598 1481.19 608.191 1480.45 L608.191 1475.75 Q610.274 1476.88 612.496 1477.44 Q614.718 1478 617.195 1478 Q621.2 1478 623.538 1475.89 Q625.876 1473.78 625.876 1470.17 Q625.876 1466.56 623.538 1464.45 Q621.2 1462.35 617.195 1462.35 Q615.32 1462.35 613.445 1462.76 Q611.593 1463.18 609.649 1464.06 L609.649 1446.7 Z" fill="#000000" fill-rule="evenodd" fill-opacity="1" /><path clip-path="url(#clip790)" d="M660.714 1455.33 L651.339 1467.95 L661.2 1481.26 L656.177 1481.26 L648.63 1471.07 L641.084 1481.26 L636.061 1481.26 L646.13 1467.7 L636.917 1455.33 L641.941 1455.33 L648.816 1464.57 L655.69 1455.33 L660.714 1455.33 Z" fill="#000000" fill-rule="evenodd" fill-opacity="1" /><path clip-path="url(#clip790)" d="M668.63 1477.32 L676.269 1477.32 L676.269 1450.96 L667.959 1452.63 L667.959 1448.37 L676.223 1446.7 L680.899 1446.7 L680.899 1477.32 L688.538 1477.32 L688.538 1481.26 L668.63 1481.26 L668.63 1477.32 Z" fill="#000000" fill-rule="evenodd" fill-opacity="1" /><path clip-path="url(#clip790)" d="M707.982 1449.78 Q704.371 1449.78 702.542 1453.34 Q700.737 1456.88 700.737 1464.01 Q700.737 1471.12 702.542 1474.69 Q704.371 1478.23 707.982 1478.23 Q711.616 1478.23 713.422 1474.69 Q715.25 1471.12 715.25 1464.01 Q715.25 1456.88 713.422 1453.34 Q711.616 1449.78 707.982 1449.78 M707.982 1446.07 Q713.792 1446.07 716.848 1450.68 Q719.926 1455.26 719.926 1464.01 Q719.926 1472.74 716.848 1477.35 Q713.792 1481.93 707.982 1481.93 Q702.172 1481.93 699.093 1477.35 Q696.037 1472.74 696.037 1464.01 Q696.037 1455.26 699.093 1450.68 Q702.172 1446.07 707.982 1446.07 Z" fill="#000000" fill-rule="evenodd" fill-opacity="1" /><path clip-path="url(#clip790)" d="M733.144 1455.03 Q731.107 1455.03 729.926 1456.24 Q728.746 1457.46 728.746 1459.57 Q728.746 1461.65 729.926 1462.86 Q731.107 1464.08 733.144 1464.08 Q735.158 1464.08 736.338 1462.86 Q737.519 1461.65 737.519 1459.57 Q737.519 1457.46 736.338 1456.24 Q735.158 1455.03 733.144 1455.03 M739.116 1446.84 L739.116 1449.22 Q737.982 1448.76 736.824 1448.53 Q735.667 1448.27 734.533 1448.27 Q731.57 1448.27 729.996 1450.01 Q728.422 1451.77 728.19 1455.31 Q729.07 1454.18 730.389 1453.57 Q731.732 1452.97 733.306 1452.97 Q736.662 1452.97 738.607 1454.73 Q740.551 1456.51 740.551 1459.57 Q740.551 1462.51 738.514 1464.34 Q736.5 1466.14 733.144 1466.14 Q729.278 1466.14 727.241 1463.57 Q725.204 1461.01 725.204 1456.1 Q725.204 1451.51 727.704 1448.81 Q730.204 1446.07 734.417 1446.07 Q735.551 1446.07 736.709 1446.26 Q737.866 1446.47 739.116 1446.84 Z" fill="#000000" fill-rule="evenodd" fill-opacity="1" /><path clip-path="url(#clip790)" d="M875.628 1449.78 Q872.017 1449.78 870.188 1453.34 Q868.382 1456.88 868.382 1464.01 Q868.382 1471.12 870.188 1474.69 Q872.017 1478.23 875.628 1478.23 Q879.262 1478.23 881.067 1474.69 Q882.896 1471.12 882.896 1464.01 Q882.896 1456.88 881.067 1453.34 Q879.262 1449.78 875.628 1449.78 M875.628 1446.07 Q881.438 1446.07 884.493 1450.68 Q887.572 1455.26 887.572 1464.01 Q887.572 1472.74 884.493 1477.35 Q881.438 1481.93 875.628 1481.93 Q869.817 1481.93 866.739 1477.35 Q863.683 1472.74 863.683 1464.01 Q863.683 1455.26 866.739 1450.68 Q869.817 1446.07 875.628 1446.07 Z" fill="#000000" fill-rule="evenodd" fill-opacity="1" /><path clip-path="url(#clip790)" d="M895.79 1475.38 L900.674 1475.38 L900.674 1481.26 L895.79 1481.26 L895.79 1475.38 Z" fill="#000000" fill-rule="evenodd" fill-opacity="1" /><path clip-path="url(#clip790)" d="M910.905 1446.7 L929.262 1446.7 L929.262 1450.64 L915.188 1450.64 L915.188 1459.11 Q916.206 1458.76 917.225 1458.6 Q918.243 1458.41 919.262 1458.41 Q925.049 1458.41 928.428 1461.58 Q931.808 1464.76 931.808 1470.17 Q931.808 1475.75 928.336 1478.85 Q924.863 1481.93 918.544 1481.93 Q916.368 1481.93 914.1 1481.56 Q911.854 1481.19 909.447 1480.45 L909.447 1475.75 Q911.53 1476.88 913.752 1477.44 Q915.975 1478 918.451 1478 Q922.456 1478 924.794 1475.89 Q927.132 1473.78 927.132 1470.17 Q927.132 1466.56 924.794 1464.45 Q922.456 1462.35 918.451 1462.35 Q916.576 1462.35 914.702 1462.76 Q912.85 1463.18 910.905 1464.06 L910.905 1446.7 Z" fill="#000000" fill-rule="evenodd" fill-opacity="1" /><path clip-path="url(#clip790)" d="M951.021 1449.78 Q947.41 1449.78 945.581 1453.34 Q943.775 1456.88 943.775 1464.01 Q943.775 1471.12 945.581 1474.69 Q947.41 1478.23 951.021 1478.23 Q954.655 1478.23 956.461 1474.69 Q958.289 1471.12 958.289 1464.01 Q958.289 1456.88 956.461 1453.34 Q954.655 1449.78 951.021 1449.78 M951.021 1446.07 Q956.831 1446.07 959.886 1450.68 Q962.965 1455.26 962.965 1464.01 Q962.965 1472.74 959.886 1477.35 Q956.831 1481.93 951.021 1481.93 Q945.211 1481.93 942.132 1477.35 Q939.076 1472.74 939.076 1464.01 Q939.076 1455.26 942.132 1450.68 Q945.211 1446.07 951.021 1446.07 Z" fill="#000000" fill-rule="evenodd" fill-opacity="1" /><path clip-path="url(#clip790)" d="M992.132 1455.33 L982.757 1467.95 L992.618 1481.26 L987.595 1481.26 L980.048 1471.07 L972.502 1481.26 L967.479 1481.26 L977.548 1467.7 L968.335 1455.33 L973.359 1455.33 L980.234 1464.57 L987.109 1455.33 L992.132 1455.33 Z" fill="#000000" fill-rule="evenodd" fill-opacity="1" /><path clip-path="url(#clip790)" d="M1000.05 1477.32 L1007.69 1477.32 L1007.69 1450.96 L999.377 1452.63 L999.377 1448.37 L1007.64 1446.7 L1012.32 1446.7 L1012.32 1477.32 L1019.96 1477.32 L1019.96 1481.26 L1000.05 1481.26 L1000.05 1477.32 Z" fill="#000000" fill-rule="evenodd" fill-opacity="1" /><path clip-path="url(#clip790)" d="M1039.4 1449.78 Q1035.79 1449.78 1033.96 1453.34 Q1032.15 1456.88 1032.15 1464.01 Q1032.15 1471.12 1033.96 1474.69 Q1035.79 1478.23 1039.4 1478.23 Q1043.03 1478.23 1044.84 1474.69 Q1046.67 1471.12 1046.67 1464.01 Q1046.67 1456.88 1044.84 1453.34 Q1043.03 1449.78 1039.4 1449.78 M1039.4 1446.07 Q1045.21 1446.07 1048.27 1450.68 Q1051.34 1455.26 1051.34 1464.01 Q1051.34 1472.74 1048.27 1477.35 Q1045.21 1481.93 1039.4 1481.93 Q1033.59 1481.93 1030.51 1477.35 Q1027.46 1472.74 1027.46 1464.01 Q1027.46 1455.26 1030.51 1450.68 Q1033.59 1446.07 1039.4 1446.07 Z" fill="#000000" fill-rule="evenodd" fill-opacity="1" /><path clip-path="url(#clip790)" d="M1064.56 1455.03 Q1062.52 1455.03 1061.34 1456.24 Q1060.16 1457.46 1060.16 1459.57 Q1060.16 1461.65 1061.34 1462.86 Q1062.52 1464.08 1064.56 1464.08 Q1066.58 1464.08 1067.76 1462.86 Q1068.94 1461.65 1068.94 1459.57 Q1068.94 1457.46 1067.76 1456.24 Q1066.58 1455.03 1064.56 1455.03 M1070.53 1446.84 L1070.53 1449.22 Q1069.4 1448.76 1068.24 1448.53 Q1067.08 1448.27 1065.95 1448.27 Q1062.99 1448.27 1061.41 1450.01 Q1059.84 1451.77 1059.61 1455.31 Q1060.49 1454.18 1061.81 1453.57 Q1063.15 1452.97 1064.72 1452.97 Q1068.08 1452.97 1070.02 1454.73 Q1071.97 1456.51 1071.97 1459.57 Q1071.97 1462.51 1069.93 1464.34 Q1067.92 1466.14 1064.56 1466.14 Q1060.7 1466.14 1058.66 1463.57 Q1056.62 1461.01 1056.62 1456.1 Q1056.62 1451.51 1059.12 1448.81 Q1061.62 1446.07 1065.83 1446.07 Q1066.97 1446.07 1068.13 1446.26 Q1069.28 1446.47 1070.53 1446.84 Z" fill="#000000" fill-rule="evenodd" fill-opacity="1" /><path clip-path="url(#clip790)" d="M1207.05 1449.78 Q1203.43 1449.78 1201.61 1453.34 Q1199.8 1456.88 1199.8 1464.01 Q1199.8 1471.12 1201.61 1474.69 Q1203.43 1478.23 1207.05 1478.23 Q1210.68 1478.23 1212.49 1474.69 Q1214.31 1471.12 1214.31 1464.01 Q1214.31 1456.88 1212.49 1453.34 Q1210.68 1449.78 1207.05 1449.78 M1207.05 1446.07 Q1212.86 1446.07 1215.91 1450.68 Q1218.99 1455.26 1218.99 1464.01 Q1218.99 1472.74 1215.91 1477.35 Q1212.86 1481.93 1207.05 1481.93 Q1201.24 1481.93 1198.16 1477.35 Q1195.1 1472.74 1195.1 1464.01 Q1195.1 1455.26 1198.16 1450.68 Q1201.24 1446.07 1207.05 1446.07 Z" fill="#000000" fill-rule="evenodd" fill-opacity="1" /><path clip-path="url(#clip790)" d="M1227.21 1475.38 L1232.09 1475.38 L1232.09 1481.26 L1227.21 1481.26 L1227.21 1475.38 Z" fill="#000000" fill-rule="evenodd" fill-opacity="1" /><path clip-path="url(#clip790)" d="M1241.1 1446.7 L1263.32 1446.7 L1263.32 1448.69 L1250.77 1481.26 L1245.89 1481.26 L1257.69 1450.64 L1241.1 1450.64 L1241.1 1446.7 Z" fill="#000000" fill-rule="evenodd" fill-opacity="1" /><path clip-path="url(#clip790)" d="M1272.49 1446.7 L1290.84 1446.7 L1290.84 1450.64 L1276.77 1450.64 L1276.77 1459.11 Q1277.79 1458.76 1278.8 1458.6 Q1279.82 1458.41 1280.84 1458.41 Q1286.63 1458.41 1290.01 1461.58 Q1293.39 1464.76 1293.39 1470.17 Q1293.39 1475.75 1289.92 1478.85 Q1286.44 1481.93 1280.12 1481.93 Q1277.95 1481.93 1275.68 1481.56 Q1273.43 1481.19 1271.03 1480.45 L1271.03 1475.75 Q1273.11 1476.88 1275.33 1477.44 Q1277.55 1478 1280.03 1478 Q1284.04 1478 1286.37 1475.89 Q1288.71 1473.78 1288.71 1470.17 Q1288.71 1466.56 1286.37 1464.45 Q1284.04 1462.35 1280.03 1462.35 Q1278.16 1462.35 1276.28 1462.76 Q1274.43 1463.18 1272.49 1464.06 L1272.49 1446.7 Z" fill="#000000" fill-rule="evenodd" fill-opacity="1" /><path clip-path="url(#clip790)" d="M1323.55 1455.33 L1314.17 1467.95 L1324.04 1481.26 L1319.01 1481.26 L1311.47 1471.07 L1303.92 1481.26 L1298.9 1481.26 L1308.97 1467.7 L1299.75 1455.33 L1304.78 1455.33 L1311.65 1464.57 L1318.53 1455.33 L1323.55 1455.33 Z" fill="#000000" fill-rule="evenodd" fill-opacity="1" /><path clip-path="url(#clip790)" d="M1331.47 1477.32 L1339.11 1477.32 L1339.11 1450.96 L1330.8 1452.63 L1330.8 1448.37 L1339.06 1446.7 L1343.73 1446.7 L1343.73 1477.32 L1351.37 1477.32 L1351.37 1481.26 L1331.47 1481.26 L1331.47 1477.32 Z" fill="#000000" fill-rule="evenodd" fill-opacity="1" /><path clip-path="url(#clip790)" d="M1370.82 1449.78 Q1367.21 1449.78 1365.38 1453.34 Q1363.57 1456.88 1363.57 1464.01 Q1363.57 1471.12 1365.38 1474.69 Q1367.21 1478.23 1370.82 1478.23 Q1374.45 1478.23 1376.26 1474.69 Q1378.09 1471.12 1378.09 1464.01 Q1378.09 1456.88 1376.26 1453.34 Q1374.45 1449.78 1370.82 1449.78 M1370.82 1446.07 Q1376.63 1446.07 1379.68 1450.68 Q1382.76 1455.26 1382.76 1464.01 Q1382.76 1472.74 1379.68 1477.35 Q1376.63 1481.93 1370.82 1481.93 Q1365.01 1481.93 1361.93 1477.35 Q1358.87 1472.74 1358.87 1464.01 Q1358.87 1455.26 1361.93 1450.68 Q1365.01 1446.07 1370.82 1446.07 Z" fill="#000000" fill-rule="evenodd" fill-opacity="1" /><path clip-path="url(#clip790)" d="M1395.98 1455.03 Q1393.94 1455.03 1392.76 1456.24 Q1391.58 1457.46 1391.58 1459.57 Q1391.58 1461.65 1392.76 1462.86 Q1393.94 1464.08 1395.98 1464.08 Q1397.99 1464.08 1399.17 1462.86 Q1400.35 1461.65 1400.35 1459.57 Q1400.35 1457.46 1399.17 1456.24 Q1397.99 1455.03 1395.98 1455.03 M1401.95 1446.84 L1401.95 1449.22 Q1400.82 1448.76 1399.66 1448.53 Q1398.5 1448.27 1397.37 1448.27 Q1394.41 1448.27 1392.83 1450.01 Q1391.26 1451.77 1391.03 1455.31 Q1391.91 1454.18 1393.23 1453.57 Q1394.57 1452.97 1396.14 1452.97 Q1399.5 1452.97 1401.44 1454.73 Q1403.39 1456.51 1403.39 1459.57 Q1403.39 1462.51 1401.35 1464.34 Q1399.34 1466.14 1395.98 1466.14 Q1392.11 1466.14 1390.08 1463.57 Q1388.04 1461.01 1388.04 1456.1 Q1388.04 1451.51 1390.54 1448.81 Q1393.04 1446.07 1397.25 1446.07 Q1398.39 1446.07 1399.54 1446.26 Q1400.7 1446.47 1401.95 1446.84 Z" fill="#000000" fill-rule="evenodd" fill-opacity="1" /><path clip-path="url(#clip790)" d="M1528.23 1477.32 L1535.87 1477.32 L1535.87 1450.96 L1527.56 1452.63 L1527.56 1448.37 L1535.82 1446.7 L1540.5 1446.7 L1540.5 1477.32 L1548.14 1477.32 L1548.14 1481.26 L1528.23 1481.26 L1528.23 1477.32 Z" fill="#000000" fill-rule="evenodd" fill-opacity="1" /><path clip-path="url(#clip790)" d="M1557.58 1475.38 L1562.47 1475.38 L1562.47 1481.26 L1557.58 1481.26 L1557.58 1475.38 Z" fill="#000000" fill-rule="evenodd" fill-opacity="1" /><path clip-path="url(#clip790)" d="M1582.65 1449.78 Q1579.04 1449.78 1577.21 1453.34 Q1575.41 1456.88 1575.41 1464.01 Q1575.41 1471.12 1577.21 1474.69 Q1579.04 1478.23 1582.65 1478.23 Q1586.29 1478.23 1588.09 1474.69 Q1589.92 1471.12 1589.92 1464.01 Q1589.92 1456.88 1588.09 1453.34 Q1586.29 1449.78 1582.65 1449.78 M1582.65 1446.07 Q1588.46 1446.07 1591.52 1450.68 Q1594.6 1455.26 1594.6 1464.01 Q1594.6 1472.74 1591.52 1477.35 Q1588.46 1481.93 1582.65 1481.93 Q1576.84 1481.93 1573.76 1477.35 Q1570.71 1472.74 1570.71 1464.01 Q1570.71 1455.26 1573.76 1450.68 Q1576.84 1446.07 1582.65 1446.07 Z" fill="#000000" fill-rule="evenodd" fill-opacity="1" /><path clip-path="url(#clip790)" d="M1612.82 1449.78 Q1609.2 1449.78 1607.38 1453.34 Q1605.57 1456.88 1605.57 1464.01 Q1605.57 1471.12 1607.38 1474.69 Q1609.2 1478.23 1612.82 1478.23 Q1616.45 1478.23 1618.25 1474.69 Q1620.08 1471.12 1620.08 1464.01 Q1620.08 1456.88 1618.25 1453.34 Q1616.45 1449.78 1612.82 1449.78 M1612.82 1446.07 Q1618.63 1446.07 1621.68 1450.68 Q1624.76 1455.26 1624.76 1464.01 Q1624.76 1472.74 1621.68 1477.35 Q1618.63 1481.93 1612.82 1481.93 Q1607.01 1481.93 1603.93 1477.35 Q1600.87 1472.74 1600.87 1464.01 Q1600.87 1455.26 1603.93 1450.68 Q1607.01 1446.07 1612.82 1446.07 Z" fill="#000000" fill-rule="evenodd" fill-opacity="1" /><path clip-path="url(#clip790)" d="M1653.93 1455.33 L1644.55 1467.95 L1654.41 1481.26 L1649.39 1481.26 L1641.84 1471.07 L1634.3 1481.26 L1629.27 1481.26 L1639.34 1467.7 L1630.13 1455.33 L1635.15 1455.33 L1642.03 1464.57 L1648.9 1455.33 L1653.93 1455.33 Z" fill="#000000" fill-rule="evenodd" fill-opacity="1" /><path clip-path="url(#clip790)" d="M1661.84 1477.32 L1669.48 1477.32 L1669.48 1450.96 L1661.17 1452.63 L1661.17 1448.37 L1669.44 1446.7 L1674.11 1446.7 L1674.11 1477.32 L1681.75 1477.32 L1681.75 1481.26 L1661.84 1481.26 L1661.84 1477.32 Z" fill="#000000" fill-rule="evenodd" fill-opacity="1" /><path clip-path="url(#clip790)" d="M1701.19 1449.78 Q1697.58 1449.78 1695.75 1453.34 Q1693.95 1456.88 1693.95 1464.01 Q1693.95 1471.12 1695.75 1474.69 Q1697.58 1478.23 1701.19 1478.23 Q1704.83 1478.23 1706.63 1474.69 Q1708.46 1471.12 1708.46 1464.01 Q1708.46 1456.88 1706.63 1453.34 Q1704.83 1449.78 1701.19 1449.78 M1701.19 1446.07 Q1707 1446.07 1710.06 1450.68 Q1713.14 1455.26 1713.14 1464.01 Q1713.14 1472.74 1710.06 1477.35 Q1707 1481.93 1701.19 1481.93 Q1695.38 1481.93 1692.31 1477.35 Q1689.25 1472.74 1689.25 1464.01 Q1689.25 1455.26 1692.31 1450.68 Q1695.38 1446.07 1701.19 1446.07 Z" fill="#000000" fill-rule="evenodd" fill-opacity="1" /><path clip-path="url(#clip790)" d="M1726.36 1455.03 Q1724.32 1455.03 1723.14 1456.24 Q1721.96 1457.46 1721.96 1459.57 Q1721.96 1461.65 1723.14 1462.86 Q1724.32 1464.08 1726.36 1464.08 Q1728.37 1464.08 1729.55 1462.86 Q1730.73 1461.65 1730.73 1459.57 Q1730.73 1457.46 1729.55 1456.24 Q1728.37 1455.03 1726.36 1455.03 M1732.33 1446.84 L1732.33 1449.22 Q1731.19 1448.76 1730.04 1448.53 Q1728.88 1448.27 1727.75 1448.27 Q1724.78 1448.27 1723.21 1450.01 Q1721.63 1451.77 1721.4 1455.31 Q1722.28 1454.18 1723.6 1453.57 Q1724.94 1452.97 1726.52 1452.97 Q1729.87 1452.97 1731.82 1454.73 Q1733.76 1456.51 1733.76 1459.57 Q1733.76 1462.51 1731.73 1464.34 Q1729.71 1466.14 1726.36 1466.14 Q1722.49 1466.14 1720.45 1463.57 Q1718.42 1461.01 1718.42 1456.1 Q1718.42 1451.51 1720.92 1448.81 Q1723.42 1446.07 1727.63 1446.07 Q1728.76 1446.07 1729.92 1446.26 Q1731.08 1446.47 1732.33 1446.84 Z" fill="#000000" fill-rule="evenodd" fill-opacity="1" /><path clip-path="url(#clip790)" d="M1859.65 1477.32 L1867.29 1477.32 L1867.29 1450.96 L1858.98 1452.63 L1858.98 1448.37 L1867.24 1446.7 L1871.92 1446.7 L1871.92 1477.32 L1879.56 1477.32 L1879.56 1481.26 L1859.65 1481.26 L1859.65 1477.32 Z" fill="#000000" fill-rule="evenodd" fill-opacity="1" /><path clip-path="url(#clip790)" d="M1889 1475.38 L1893.89 1475.38 L1893.89 1481.26 L1889 1481.26 L1889 1475.38 Z" fill="#000000" fill-rule="evenodd" fill-opacity="1" /><path clip-path="url(#clip790)" d="M1908.1 1477.32 L1924.42 1477.32 L1924.42 1481.26 L1902.47 1481.26 L1902.47 1477.32 Q1905.14 1474.57 1909.72 1469.94 Q1914.33 1465.29 1915.51 1463.95 Q1917.75 1461.42 1918.63 1459.69 Q1919.53 1457.93 1919.53 1456.24 Q1919.53 1453.48 1917.59 1451.75 Q1915.67 1450.01 1912.57 1450.01 Q1910.37 1450.01 1907.91 1450.77 Q1905.48 1451.54 1902.71 1453.09 L1902.71 1448.37 Q1905.53 1447.23 1907.98 1446.65 Q1910.44 1446.07 1912.47 1446.07 Q1917.84 1446.07 1921.04 1448.76 Q1924.23 1451.45 1924.23 1455.94 Q1924.23 1458.07 1923.42 1459.99 Q1922.64 1461.88 1920.53 1464.48 Q1919.95 1465.15 1916.85 1468.37 Q1913.75 1471.56 1908.1 1477.32 Z" fill="#000000" fill-rule="evenodd" fill-opacity="1" /><path clip-path="url(#clip790)" d="M1934.28 1446.7 L1952.64 1446.7 L1952.64 1450.64 L1938.56 1450.64 L1938.56 1459.11 Q1939.58 1458.76 1940.6 1458.6 Q1941.62 1458.41 1942.64 1458.41 Q1948.42 1458.41 1951.8 1461.58 Q1955.18 1464.76 1955.18 1470.17 Q1955.18 1475.75 1951.71 1478.85 Q1948.24 1481.93 1941.92 1481.93 Q1939.74 1481.93 1937.47 1481.56 Q1935.23 1481.19 1932.82 1480.45 L1932.82 1475.75 Q1934.9 1476.88 1937.13 1477.44 Q1939.35 1478 1941.83 1478 Q1945.83 1478 1948.17 1475.89 Q1950.51 1473.78 1950.51 1470.17 Q1950.51 1466.56 1948.17 1464.45 Q1945.83 1462.35 1941.83 1462.35 Q1939.95 1462.35 1938.08 1462.76 Q1936.22 1463.18 1934.28 1464.06 L1934.28 1446.7 Z" fill="#000000" fill-rule="evenodd" fill-opacity="1" /><path clip-path="url(#clip790)" d="M1985.34 1455.33 L1975.97 1467.95 L1985.83 1481.26 L1980.81 1481.26 L1973.26 1471.07 L1965.71 1481.26 L1960.69 1481.26 L1970.76 1467.7 L1961.55 1455.33 L1966.57 1455.33 L1973.45 1464.57 L1980.32 1455.33 L1985.34 1455.33 Z" fill="#000000" fill-rule="evenodd" fill-opacity="1" /><path clip-path="url(#clip790)" d="M1993.26 1477.32 L2000.9 1477.32 L2000.9 1450.96 L1992.59 1452.63 L1992.59 1448.37 L2000.85 1446.7 L2005.53 1446.7 L2005.53 1477.32 L2013.17 1477.32 L2013.17 1481.26 L1993.26 1481.26 L1993.26 1477.32 Z" fill="#000000" fill-rule="evenodd" fill-opacity="1" /><path clip-path="url(#clip790)" d="M2032.61 1449.78 Q2029 1449.78 2027.17 1453.34 Q2025.37 1456.88 2025.37 1464.01 Q2025.37 1471.12 2027.17 1474.69 Q2029 1478.23 2032.61 1478.23 Q2036.25 1478.23 2038.05 1474.69 Q2039.88 1471.12 2039.88 1464.01 Q2039.88 1456.88 2038.05 1453.34 Q2036.25 1449.78 2032.61 1449.78 M2032.61 1446.07 Q2038.42 1446.07 2041.48 1450.68 Q2044.56 1455.26 2044.56 1464.01 Q2044.56 1472.74 2041.48 1477.35 Q2038.42 1481.93 2032.61 1481.93 Q2026.8 1481.93 2023.72 1477.35 Q2020.67 1472.74 2020.67 1464.01 Q2020.67 1455.26 2023.72 1450.68 Q2026.8 1446.07 2032.61 1446.07 Z" fill="#000000" fill-rule="evenodd" fill-opacity="1" /><path clip-path="url(#clip790)" d="M2057.77 1455.03 Q2055.74 1455.03 2054.56 1456.24 Q2053.38 1457.46 2053.38 1459.57 Q2053.38 1461.65 2054.56 1462.86 Q2055.74 1464.08 2057.77 1464.08 Q2059.79 1464.08 2060.97 1462.86 Q2062.15 1461.65 2062.15 1459.57 Q2062.15 1457.46 2060.97 1456.24 Q2059.79 1455.03 2057.77 1455.03 M2063.75 1446.84 L2063.75 1449.22 Q2062.61 1448.76 2061.45 1448.53 Q2060.3 1448.27 2059.16 1448.27 Q2056.2 1448.27 2054.63 1450.01 Q2053.05 1451.77 2052.82 1455.31 Q2053.7 1454.18 2055.02 1453.57 Q2056.36 1452.97 2057.94 1452.97 Q2061.29 1452.97 2063.24 1454.73 Q2065.18 1456.51 2065.18 1459.57 Q2065.18 1462.51 2063.14 1464.34 Q2061.13 1466.14 2057.77 1466.14 Q2053.91 1466.14 2051.87 1463.57 Q2049.83 1461.01 2049.83 1456.1 Q2049.83 1451.51 2052.33 1448.81 Q2054.83 1446.07 2059.05 1446.07 Q2060.18 1446.07 2061.34 1446.26 Q2062.5 1446.47 2063.75 1446.84 Z" fill="#000000" fill-rule="evenodd" fill-opacity="1" /><path clip-path="url(#clip790)" d="M2191.07 1477.32 L2198.71 1477.32 L2198.71 1450.96 L2190.4 1452.63 L2190.4 1448.37 L2198.66 1446.7 L2203.34 1446.7 L2203.34 1477.32 L2210.98 1477.32 L2210.98 1481.26 L2191.07 1481.26 L2191.07 1477.32 Z" fill="#000000" fill-rule="evenodd" fill-opacity="1" /><path clip-path="url(#clip790)" d="M2220.42 1475.38 L2225.3 1475.38 L2225.3 1481.26 L2220.42 1481.26 L2220.42 1475.38 Z" fill="#000000" fill-rule="evenodd" fill-opacity="1" /><path clip-path="url(#clip790)" d="M2235.54 1446.7 L2253.89 1446.7 L2253.89 1450.64 L2239.82 1450.64 L2239.82 1459.11 Q2240.84 1458.76 2241.86 1458.6 Q2242.87 1458.41 2243.89 1458.41 Q2249.68 1458.41 2253.06 1461.58 Q2256.44 1464.76 2256.44 1470.17 Q2256.44 1475.75 2252.97 1478.85 Q2249.49 1481.93 2243.17 1481.93 Q2241 1481.93 2238.73 1481.56 Q2236.48 1481.19 2234.08 1480.45 L2234.08 1475.75 Q2236.16 1476.88 2238.38 1477.44 Q2240.61 1478 2243.08 1478 Q2247.09 1478 2249.42 1475.89 Q2251.76 1473.78 2251.76 1470.17 Q2251.76 1466.56 2249.42 1464.45 Q2247.09 1462.35 2243.08 1462.35 Q2241.21 1462.35 2239.33 1462.76 Q2237.48 1463.18 2235.54 1464.06 L2235.54 1446.7 Z" fill="#000000" fill-rule="evenodd" fill-opacity="1" /><path clip-path="url(#clip790)" d="M2275.65 1449.78 Q2272.04 1449.78 2270.21 1453.34 Q2268.41 1456.88 2268.41 1464.01 Q2268.41 1471.12 2270.21 1474.69 Q2272.04 1478.23 2275.65 1478.23 Q2279.29 1478.23 2281.09 1474.69 Q2282.92 1471.12 2282.92 1464.01 Q2282.92 1456.88 2281.09 1453.34 Q2279.29 1449.78 2275.65 1449.78 M2275.65 1446.07 Q2281.46 1446.07 2284.52 1450.68 Q2287.6 1455.26 2287.6 1464.01 Q2287.6 1472.74 2284.52 1477.35 Q2281.46 1481.93 2275.65 1481.93 Q2269.84 1481.93 2266.76 1477.35 Q2263.71 1472.74 2263.71 1464.01 Q2263.71 1455.26 2266.76 1450.68 Q2269.84 1446.07 2275.65 1446.07 Z" fill="#000000" fill-rule="evenodd" fill-opacity="1" /><path clip-path="url(#clip790)" d="M2316.76 1455.33 L2307.39 1467.95 L2317.25 1481.26 L2312.23 1481.26 L2304.68 1471.07 L2297.13 1481.26 L2292.11 1481.26 L2302.18 1467.7 L2292.97 1455.33 L2297.99 1455.33 L2304.86 1464.57 L2311.74 1455.33 L2316.76 1455.33 Z" fill="#000000" fill-rule="evenodd" fill-opacity="1" /><path clip-path="url(#clip790)" d="M2324.68 1477.32 L2332.32 1477.32 L2332.32 1450.96 L2324.01 1452.63 L2324.01 1448.37 L2332.27 1446.7 L2336.95 1446.7 L2336.95 1477.32 L2344.59 1477.32 L2344.59 1481.26 L2324.68 1481.26 L2324.68 1477.32 Z" fill="#000000" fill-rule="evenodd" fill-opacity="1" /><path clip-path="url(#clip790)" d="M2364.03 1449.78 Q2360.42 1449.78 2358.59 1453.34 Q2356.79 1456.88 2356.79 1464.01 Q2356.79 1471.12 2358.59 1474.69 Q2360.42 1478.23 2364.03 1478.23 Q2367.66 1478.23 2369.47 1474.69 Q2371.3 1471.12 2371.3 1464.01 Q2371.3 1456.88 2369.47 1453.34 Q2367.66 1449.78 2364.03 1449.78 M2364.03 1446.07 Q2369.84 1446.07 2372.9 1450.68 Q2375.97 1455.26 2375.97 1464.01 Q2375.97 1472.74 2372.9 1477.35 Q2369.84 1481.93 2364.03 1481.93 Q2358.22 1481.93 2355.14 1477.35 Q2352.09 1472.74 2352.09 1464.01 Q2352.09 1455.26 2355.14 1450.68 Q2358.22 1446.07 2364.03 1446.07 Z" fill="#000000" fill-rule="evenodd" fill-opacity="1" /><path clip-path="url(#clip790)" d="M2389.19 1455.03 Q2387.16 1455.03 2385.97 1456.24 Q2384.79 1457.46 2384.79 1459.57 Q2384.79 1461.65 2385.97 1462.86 Q2387.16 1464.08 2389.19 1464.08 Q2391.21 1464.08 2392.39 1462.86 Q2393.57 1461.65 2393.57 1459.57 Q2393.57 1457.46 2392.39 1456.24 Q2391.21 1455.03 2389.19 1455.03 M2395.16 1446.84 L2395.16 1449.22 Q2394.03 1448.76 2392.87 1448.53 Q2391.72 1448.27 2390.58 1448.27 Q2387.62 1448.27 2386.04 1450.01 Q2384.47 1451.77 2384.24 1455.31 Q2385.12 1454.18 2386.44 1453.57 Q2387.78 1452.97 2389.35 1452.97 Q2392.71 1452.97 2394.66 1454.73 Q2396.6 1456.51 2396.6 1459.57 Q2396.6 1462.51 2394.56 1464.34 Q2392.55 1466.14 2389.19 1466.14 Q2385.33 1466.14 2383.29 1463.57 Q2381.25 1461.01 2381.25 1456.1 Q2381.25 1451.51 2383.75 1448.81 Q2386.25 1446.07 2390.47 1446.07 Q2391.6 1446.07 2392.76 1446.26 Q2393.91 1446.47 2395.16 1446.84 Z" fill="#000000" fill-rule="evenodd" fill-opacity="1" /><path clip-path="url(#clip790)" d="M1141.76 1517.07 L1148.77 1517.07 L1148.77 1568.91 L1141.76 1568.91 L1141.76 1517.07 Z" fill="#000000" fill-rule="evenodd" fill-opacity="1" /><path clip-path="url(#clip790)" d="M1168.77 1518.98 L1168.77 1530.02 L1181.93 1530.02 L1181.93 1534.98 L1168.77 1534.98 L1168.77 1556.1 Q1168.77 1560.85 1170.06 1562.21 Q1171.38 1563.56 1175.37 1563.56 L1181.93 1563.56 L1181.93 1568.91 L1175.37 1568.91 Q1167.97 1568.91 1165.16 1566.16 Q1162.35 1563.39 1162.35 1556.1 L1162.35 1534.98 L1157.66 1534.98 L1157.66 1530.02 L1162.35 1530.02 L1162.35 1518.98 L1168.77 1518.98 Z" fill="#000000" fill-rule="evenodd" fill-opacity="1" /><path clip-path="url(#clip790)" d="M1223.6 1547.87 L1223.6 1550.99 L1194.22 1550.99 Q1194.64 1557.59 1198.18 1561.06 Q1201.76 1564.5 1208.11 1564.5 Q1211.79 1564.5 1215.23 1563.6 Q1218.7 1562.69 1222.11 1560.89 L1222.11 1566.93 Q1218.67 1568.39 1215.06 1569.15 Q1211.45 1569.91 1207.73 1569.91 Q1198.43 1569.91 1192.97 1564.5 Q1187.56 1559.08 1187.56 1549.85 Q1187.56 1540.3 1192.7 1534.71 Q1197.87 1529.08 1206.62 1529.08 Q1214.47 1529.08 1219.02 1534.15 Q1223.6 1539.19 1223.6 1547.87 M1217.21 1545.99 Q1217.14 1540.75 1214.26 1537.62 Q1211.41 1534.5 1206.69 1534.5 Q1201.34 1534.5 1198.11 1537.52 Q1194.92 1540.54 1194.43 1546.03 L1217.21 1545.99 Z" fill="#000000" fill-rule="evenodd" fill-opacity="1" /><path clip-path="url(#clip790)" d="M1256.62 1535.99 Q1255.54 1535.37 1254.26 1535.09 Q1253.01 1534.78 1251.48 1534.78 Q1246.06 1534.78 1243.15 1538.32 Q1240.27 1541.82 1240.27 1548.42 L1240.27 1568.91 L1233.84 1568.91 L1233.84 1530.02 L1240.27 1530.02 L1240.27 1536.06 Q1242.28 1532.52 1245.51 1530.82 Q1248.74 1529.08 1253.36 1529.08 Q1254.02 1529.08 1254.81 1529.19 Q1255.61 1529.26 1256.58 1529.43 L1256.62 1535.99 Z" fill="#000000" fill-rule="evenodd" fill-opacity="1" /><path clip-path="url(#clip790)" d="M1280.99 1549.36 Q1273.25 1549.36 1270.27 1551.13 Q1267.28 1552.9 1267.28 1557.17 Q1267.28 1560.57 1269.5 1562.59 Q1271.76 1564.57 1275.61 1564.57 Q1280.92 1564.57 1284.12 1560.82 Q1287.35 1557.03 1287.35 1550.78 L1287.35 1549.36 L1280.99 1549.36 M1293.74 1546.72 L1293.74 1568.91 L1287.35 1568.91 L1287.35 1563.01 Q1285.16 1566.55 1281.9 1568.25 Q1278.63 1569.91 1273.91 1569.91 Q1267.94 1569.91 1264.4 1566.58 Q1260.89 1563.21 1260.89 1557.59 Q1260.89 1551.03 1265.27 1547.69 Q1269.67 1544.36 1278.39 1544.36 L1287.35 1544.36 L1287.35 1543.73 Q1287.35 1539.32 1284.43 1536.93 Q1281.55 1534.5 1276.31 1534.5 Q1272.97 1534.5 1269.81 1535.3 Q1266.65 1536.1 1263.74 1537.69 L1263.74 1531.79 Q1267.24 1530.44 1270.54 1529.78 Q1273.84 1529.08 1276.97 1529.08 Q1285.4 1529.08 1289.57 1533.46 Q1293.74 1537.83 1293.74 1546.72 Z" fill="#000000" fill-rule="evenodd" fill-opacity="1" /><path clip-path="url(#clip790)" d="M1313.22 1518.98 L1313.22 1530.02 L1326.38 1530.02 L1326.38 1534.98 L1313.22 1534.98 L1313.22 1556.1 Q1313.22 1560.85 1314.5 1562.21 Q1315.82 1563.56 1319.81 1563.56 L1326.38 1563.56 L1326.38 1568.91 L1319.81 1568.91 Q1312.42 1568.91 1309.61 1566.16 Q1306.79 1563.39 1306.79 1556.1 L1306.79 1534.98 L1302.11 1534.98 L1302.11 1530.02 L1306.79 1530.02 L1306.79 1518.98 L1313.22 1518.98 Z" fill="#000000" fill-rule="evenodd" fill-opacity="1" /><path clip-path="url(#clip790)" d="M1334.78 1530.02 L1341.17 1530.02 L1341.17 1568.91 L1334.78 1568.91 L1334.78 1530.02 M1334.78 1514.88 L1341.17 1514.88 L1341.17 1522.97 L1334.78 1522.97 L1334.78 1514.88 Z" fill="#000000" fill-rule="evenodd" fill-opacity="1" /><path clip-path="url(#clip790)" d="M1369.6 1534.5 Q1364.47 1534.5 1361.48 1538.53 Q1358.49 1542.52 1358.49 1549.5 Q1358.49 1556.48 1361.45 1560.51 Q1364.43 1564.5 1369.6 1564.5 Q1374.71 1564.5 1377.7 1560.47 Q1380.68 1556.44 1380.68 1549.5 Q1380.68 1542.59 1377.7 1538.56 Q1374.71 1534.5 1369.6 1534.5 M1369.6 1529.08 Q1377.94 1529.08 1382.7 1534.5 Q1387.45 1539.91 1387.45 1549.5 Q1387.45 1559.05 1382.7 1564.5 Q1377.94 1569.91 1369.6 1569.91 Q1361.24 1569.91 1356.48 1564.5 Q1351.76 1559.05 1351.76 1549.5 Q1351.76 1539.91 1356.48 1534.5 Q1361.24 1529.08 1369.6 1529.08 Z" fill="#000000" fill-rule="evenodd" fill-opacity="1" /><path clip-path="url(#clip790)" d="M1430.37 1545.44 L1430.37 1568.91 L1423.98 1568.91 L1423.98 1545.64 Q1423.98 1540.12 1421.83 1537.38 Q1419.67 1534.64 1415.37 1534.64 Q1410.19 1534.64 1407.21 1537.94 Q1404.22 1541.23 1404.22 1546.93 L1404.22 1568.91 L1397.8 1568.91 L1397.8 1530.02 L1404.22 1530.02 L1404.22 1536.06 Q1406.51 1532.55 1409.6 1530.82 Q1412.73 1529.08 1416.79 1529.08 Q1423.49 1529.08 1426.93 1533.25 Q1430.37 1537.38 1430.37 1545.44 Z" fill="#000000" fill-rule="evenodd" fill-opacity="1" /><path clip-path="url(#clip790)" d="M1467.9 1531.16 L1467.9 1537.21 Q1465.19 1535.82 1462.28 1535.12 Q1459.36 1534.43 1456.24 1534.43 Q1451.48 1534.43 1449.08 1535.89 Q1446.72 1537.35 1446.72 1540.26 Q1446.72 1542.48 1448.42 1543.77 Q1450.13 1545.02 1455.26 1546.16 L1457.45 1546.65 Q1464.26 1548.11 1467.1 1550.78 Q1469.99 1553.42 1469.99 1558.18 Q1469.99 1563.6 1465.68 1566.76 Q1461.41 1569.91 1453.91 1569.91 Q1450.79 1569.91 1447.38 1569.29 Q1444.01 1568.7 1440.26 1567.48 L1440.26 1560.89 Q1443.81 1562.73 1447.24 1563.66 Q1450.68 1564.57 1454.05 1564.57 Q1458.56 1564.57 1460.99 1563.04 Q1463.42 1561.48 1463.42 1558.66 Q1463.42 1556.06 1461.65 1554.67 Q1459.92 1553.28 1453.98 1552 L1451.76 1551.48 Q1445.82 1550.23 1443.18 1547.66 Q1440.54 1545.05 1440.54 1540.54 Q1440.54 1535.05 1444.43 1532.07 Q1448.32 1529.08 1455.47 1529.08 Q1459.01 1529.08 1462.14 1529.6 Q1465.26 1530.12 1467.9 1531.16 Z" fill="#000000" fill-rule="evenodd" fill-opacity="1" /><polyline clip-path="url(#clip792)" style="stroke:#000000; stroke-linecap:round; stroke-linejoin:round; stroke-width:2; stroke-opacity:0.1; fill:none" points="
  258.989,1380.04 2352.76,1380.04 
  "/>
<polyline clip-path="url(#clip792)" style="stroke:#000000; stroke-linecap:round; stroke-linejoin:round; stroke-width:2; stroke-opacity:0.1; fill:none" points="
  258.989,1250.64 2352.76,1250.64 
  "/>
<polyline clip-path="url(#clip792)" style="stroke:#000000; stroke-linecap:round; stroke-linejoin:round; stroke-width:2; stroke-opacity:0.1; fill:none" points="
  258.989,1121.25 2352.76,1121.25 
  "/>
<polyline clip-path="url(#clip792)" style="stroke:#000000; stroke-linecap:round; stroke-linejoin:round; stroke-width:2; stroke-opacity:0.1; fill:none" points="
  258.989,991.847 2352.76,991.847 
  "/>
<polyline clip-path="url(#clip792)" style="stroke:#000000; stroke-linecap:round; stroke-linejoin:round; stroke-width:2; stroke-opacity:0.1; fill:none" points="
  258.989,862.45 2352.76,862.45 
  "/>
<polyline clip-path="url(#clip792)" style="stroke:#000000; stroke-linecap:round; stroke-linejoin:round; stroke-width:2; stroke-opacity:0.1; fill:none" points="
  258.989,733.052 2352.76,733.052 
  "/>
<polyline clip-path="url(#clip792)" style="stroke:#000000; stroke-linecap:round; stroke-linejoin:round; stroke-width:2; stroke-opacity:0.1; fill:none" points="
  258.989,603.654 2352.76,603.654 
  "/>
<polyline clip-path="url(#clip792)" style="stroke:#000000; stroke-linecap:round; stroke-linejoin:round; stroke-width:2; stroke-opacity:0.1; fill:none" points="
  258.989,474.257 2352.76,474.257 
  "/>
<polyline clip-path="url(#clip792)" style="stroke:#000000; stroke-linecap:round; stroke-linejoin:round; stroke-width:2; stroke-opacity:0.1; fill:none" points="
  258.989,344.859 2352.76,344.859 
  "/>
<polyline clip-path="url(#clip792)" style="stroke:#000000; stroke-linecap:round; stroke-linejoin:round; stroke-width:2; stroke-opacity:0.1; fill:none" points="
  258.989,215.461 2352.76,215.461 
  "/>
<polyline clip-path="url(#clip792)" style="stroke:#000000; stroke-linecap:round; stroke-linejoin:round; stroke-width:2; stroke-opacity:0.1; fill:none" points="
  258.989,86.0634 2352.76,86.0634 
  "/>
<polyline clip-path="url(#clip790)" style="stroke:#000000; stroke-linecap:round; stroke-linejoin:round; stroke-width:4; stroke-opacity:1; fill:none" points="
  258.989,1418.86 258.989,47.2441 
  "/>
<polyline clip-path="url(#clip790)" style="stroke:#000000; stroke-linecap:round; stroke-linejoin:round; stroke-width:4; stroke-opacity:1; fill:none" points="
  258.989,1380.04 277.887,1380.04 
  "/>
<polyline clip-path="url(#clip790)" style="stroke:#000000; stroke-linecap:round; stroke-linejoin:round; stroke-width:4; stroke-opacity:1; fill:none" points="
  258.989,1250.64 277.887,1250.64 
  "/>
<polyline clip-path="url(#clip790)" style="stroke:#000000; stroke-linecap:round; stroke-linejoin:round; stroke-width:4; stroke-opacity:1; fill:none" points="
  258.989,1121.25 277.887,1121.25 
  "/>
<polyline clip-path="url(#clip790)" style="stroke:#000000; stroke-linecap:round; stroke-linejoin:round; stroke-width:4; stroke-opacity:1; fill:none" points="
  258.989,991.847 277.887,991.847 
  "/>
<polyline clip-path="url(#clip790)" style="stroke:#000000; stroke-linecap:round; stroke-linejoin:round; stroke-width:4; stroke-opacity:1; fill:none" points="
  258.989,862.45 277.887,862.45 
  "/>
<polyline clip-path="url(#clip790)" style="stroke:#000000; stroke-linecap:round; stroke-linejoin:round; stroke-width:4; stroke-opacity:1; fill:none" points="
  258.989,733.052 277.887,733.052 
  "/>
<polyline clip-path="url(#clip790)" style="stroke:#000000; stroke-linecap:round; stroke-linejoin:round; stroke-width:4; stroke-opacity:1; fill:none" points="
  258.989,603.654 277.887,603.654 
  "/>
<polyline clip-path="url(#clip790)" style="stroke:#000000; stroke-linecap:round; stroke-linejoin:round; stroke-width:4; stroke-opacity:1; fill:none" points="
  258.989,474.257 277.887,474.257 
  "/>
<polyline clip-path="url(#clip790)" style="stroke:#000000; stroke-linecap:round; stroke-linejoin:round; stroke-width:4; stroke-opacity:1; fill:none" points="
  258.989,344.859 277.887,344.859 
  "/>
<polyline clip-path="url(#clip790)" style="stroke:#000000; stroke-linecap:round; stroke-linejoin:round; stroke-width:4; stroke-opacity:1; fill:none" points="
  258.989,215.461 277.887,215.461 
  "/>
<polyline clip-path="url(#clip790)" style="stroke:#000000; stroke-linecap:round; stroke-linejoin:round; stroke-width:4; stroke-opacity:1; fill:none" points="
  258.989,86.0634 277.887,86.0634 
  "/>
<path clip-path="url(#clip790)" d="M137.226 1358.74 Q131.809 1358.74 129.066 1364.09 Q126.358 1369.4 126.358 1380.09 Q126.358 1390.75 129.066 1396.1 Q131.809 1401.41 137.226 1401.41 Q142.677 1401.41 145.386 1396.1 Q148.129 1390.75 148.129 1380.09 Q148.129 1369.4 145.386 1364.09 Q142.677 1358.74 137.226 1358.74 M137.226 1353.18 Q145.941 1353.18 150.524 1360.09 Q155.142 1366.97 155.142 1380.09 Q155.142 1393.18 150.524 1400.09 Q145.941 1406.97 137.226 1406.97 Q128.511 1406.97 123.893 1400.09 Q119.309 1393.18 119.309 1380.09 Q119.309 1366.97 123.893 1360.09 Q128.511 1353.18 137.226 1353.18 Z" fill="#000000" fill-rule="evenodd" fill-opacity="1" /><path clip-path="url(#clip790)" d="M167.469 1397.14 L174.795 1397.14 L174.795 1405.96 L167.469 1405.96 L167.469 1397.14 Z" fill="#000000" fill-rule="evenodd" fill-opacity="1" /><path clip-path="url(#clip790)" d="M205.073 1358.74 Q199.656 1358.74 196.913 1364.09 Q194.205 1369.4 194.205 1380.09 Q194.205 1390.75 196.913 1396.1 Q199.656 1401.41 205.073 1401.41 Q210.524 1401.41 213.232 1396.1 Q215.975 1390.75 215.975 1380.09 Q215.975 1369.4 213.232 1364.09 Q210.524 1358.74 205.073 1358.74 M205.073 1353.18 Q213.788 1353.18 218.371 1360.09 Q222.989 1366.97 222.989 1380.09 Q222.989 1393.18 218.371 1400.09 Q213.788 1406.97 205.073 1406.97 Q196.358 1406.97 191.739 1400.09 Q187.156 1393.18 187.156 1380.09 Q187.156 1366.97 191.739 1360.09 Q196.358 1353.18 205.073 1353.18 Z" fill="#000000" fill-rule="evenodd" fill-opacity="1" /><path clip-path="url(#clip790)" d="M139.066 1229.34 Q133.65 1229.34 130.906 1234.69 Q128.198 1240 128.198 1250.69 Q128.198 1261.35 130.906 1266.7 Q133.65 1272.01 139.066 1272.01 Q144.518 1272.01 147.226 1266.7 Q149.969 1261.35 149.969 1250.69 Q149.969 1240 147.226 1234.69 Q144.518 1229.34 139.066 1229.34 M139.066 1223.79 Q147.781 1223.79 152.365 1230.7 Q156.983 1237.57 156.983 1250.69 Q156.983 1263.79 152.365 1270.69 Q147.781 1277.57 139.066 1277.57 Q130.351 1277.57 125.733 1270.69 Q121.15 1263.79 121.15 1250.69 Q121.15 1237.57 125.733 1230.7 Q130.351 1223.79 139.066 1223.79 Z" fill="#000000" fill-rule="evenodd" fill-opacity="1" /><path clip-path="url(#clip790)" d="M169.309 1267.74 L176.635 1267.74 L176.635 1276.56 L169.309 1276.56 L169.309 1267.74 Z" fill="#000000" fill-rule="evenodd" fill-opacity="1" /><path clip-path="url(#clip790)" d="M193.128 1270.66 L204.587 1270.66 L204.587 1231.11 L192.121 1233.61 L192.121 1227.22 L204.517 1224.72 L211.531 1224.72 L211.531 1270.66 L222.989 1270.66 L222.989 1276.56 L193.128 1276.56 L193.128 1270.66 Z" fill="#000000" fill-rule="evenodd" fill-opacity="1" /><path clip-path="url(#clip790)" d="M139.622 1099.94 Q134.205 1099.94 131.462 1105.29 Q128.754 1110.6 128.754 1121.3 Q128.754 1131.96 131.462 1137.3 Q134.205 1142.62 139.622 1142.62 Q145.073 1142.62 147.781 1137.3 Q150.524 1131.96 150.524 1121.3 Q150.524 1110.6 147.781 1105.29 Q145.073 1099.94 139.622 1099.94 M139.622 1094.39 Q148.337 1094.39 152.92 1101.3 Q157.538 1108.17 157.538 1121.3 Q157.538 1134.39 152.92 1141.3 Q148.337 1148.17 139.622 1148.17 Q130.906 1148.17 126.288 1141.3 Q121.705 1134.39 121.705 1121.3 Q121.705 1108.17 126.288 1101.3 Q130.906 1094.39 139.622 1094.39 Z" fill="#000000" fill-rule="evenodd" fill-opacity="1" /><path clip-path="url(#clip790)" d="M169.865 1138.35 L177.191 1138.35 L177.191 1147.17 L169.865 1147.17 L169.865 1138.35 Z" fill="#000000" fill-rule="evenodd" fill-opacity="1" /><path clip-path="url(#clip790)" d="M198.51 1141.26 L222.989 1141.26 L222.989 1147.17 L190.073 1147.17 L190.073 1141.26 Q194.066 1137.13 200.941 1130.19 Q207.851 1123.21 209.621 1121.19 Q212.989 1117.41 214.309 1114.8 Q215.663 1112.17 215.663 1109.63 Q215.663 1105.5 212.746 1102.89 Q209.864 1100.29 205.212 1100.29 Q201.913 1100.29 198.233 1101.44 Q194.587 1102.58 190.42 1104.91 L190.42 1097.83 Q194.656 1096.12 198.337 1095.26 Q202.017 1094.39 205.073 1094.39 Q213.128 1094.39 217.92 1098.42 Q222.712 1102.44 222.712 1109.18 Q222.712 1112.37 221.496 1115.26 Q220.316 1118.1 217.156 1121.99 Q216.288 1123 211.635 1127.82 Q206.982 1132.62 198.51 1141.26 Z" fill="#000000" fill-rule="evenodd" fill-opacity="1" /><path clip-path="url(#clip790)" d="M138.198 970.545 Q132.781 970.545 130.038 975.893 Q127.33 981.205 127.33 991.899 Q127.33 1002.56 130.038 1007.91 Q132.781 1013.22 138.198 1013.22 Q143.649 1013.22 146.358 1007.91 Q149.101 1002.56 149.101 991.899 Q149.101 981.205 146.358 975.893 Q143.649 970.545 138.198 970.545 M138.198 964.99 Q146.913 964.99 151.497 971.9 Q156.115 978.775 156.115 991.899 Q156.115 1004.99 151.497 1011.9 Q146.913 1018.77 138.198 1018.77 Q129.483 1018.77 124.865 1011.9 Q120.282 1004.99 120.282 991.899 Q120.282 978.775 124.865 971.9 Q129.483 964.99 138.198 964.99 Z" fill="#000000" fill-rule="evenodd" fill-opacity="1" /><path clip-path="url(#clip790)" d="M168.441 1008.95 L175.767 1008.95 L175.767 1017.77 L168.441 1017.77 L168.441 1008.95 Z" fill="#000000" fill-rule="evenodd" fill-opacity="1" /><path clip-path="url(#clip790)" d="M212.295 989.816 Q217.33 990.893 220.142 994.295 Q222.989 997.698 222.989 1002.7 Q222.989 1010.37 217.712 1014.57 Q212.434 1018.77 202.712 1018.77 Q199.448 1018.77 195.976 1018.11 Q192.538 1017.49 188.858 1016.2 L188.858 1009.43 Q191.774 1011.14 195.246 1012 Q198.719 1012.87 202.503 1012.87 Q209.101 1012.87 212.538 1010.27 Q216.01 1007.66 216.01 1002.7 Q216.01 998.115 212.781 995.545 Q209.587 992.941 203.857 992.941 L197.816 992.941 L197.816 987.177 L204.135 987.177 Q209.309 987.177 212.052 985.129 Q214.795 983.045 214.795 979.156 Q214.795 975.163 211.948 973.045 Q209.135 970.893 203.857 970.893 Q200.976 970.893 197.677 971.518 Q194.378 972.143 190.42 973.462 L190.42 967.212 Q194.413 966.101 197.885 965.545 Q201.392 964.99 204.482 964.99 Q212.469 964.99 217.121 968.636 Q221.774 972.247 221.774 978.427 Q221.774 982.733 219.309 985.719 Q216.844 988.67 212.295 989.816 Z" fill="#000000" fill-rule="evenodd" fill-opacity="1" /><path clip-path="url(#clip790)" d="M136.497 841.148 Q131.08 841.148 128.337 846.495 Q125.629 851.807 125.629 862.502 Q125.629 873.161 128.337 878.509 Q131.08 883.821 136.497 883.821 Q141.948 883.821 144.656 878.509 Q147.399 873.161 147.399 862.502 Q147.399 851.807 144.656 846.495 Q141.948 841.148 136.497 841.148 M136.497 835.592 Q145.212 835.592 149.795 842.502 Q154.413 849.377 154.413 862.502 Q154.413 875.592 149.795 882.502 Q145.212 889.377 136.497 889.377 Q127.781 889.377 123.163 882.502 Q118.58 875.592 118.58 862.502 Q118.58 849.377 123.163 842.502 Q127.781 835.592 136.497 835.592 Z" fill="#000000" fill-rule="evenodd" fill-opacity="1" /><path clip-path="url(#clip790)" d="M166.74 879.55 L174.066 879.55 L174.066 888.37 L166.74 888.37 L166.74 879.55 Z" fill="#000000" fill-rule="evenodd" fill-opacity="1" /><path clip-path="url(#clip790)" d="M208.614 842.641 L190.906 870.314 L208.614 870.314 L208.614 842.641 M206.774 836.53 L215.594 836.53 L215.594 870.314 L222.989 870.314 L222.989 876.148 L215.594 876.148 L215.594 888.37 L208.614 888.37 L208.614 876.148 L185.212 876.148 L185.212 869.377 L206.774 836.53 Z" fill="#000000" fill-rule="evenodd" fill-opacity="1" /><path clip-path="url(#clip790)" d="M138.719 711.75 Q133.302 711.75 130.559 717.097 Q127.851 722.41 127.851 733.104 Q127.851 743.764 130.559 749.111 Q133.302 754.423 138.719 754.423 Q144.17 754.423 146.879 749.111 Q149.622 743.764 149.622 733.104 Q149.622 722.41 146.879 717.097 Q144.17 711.75 138.719 711.75 M138.719 706.194 Q147.434 706.194 152.017 713.104 Q156.636 719.979 156.636 733.104 Q156.636 746.194 152.017 753.104 Q147.434 759.979 138.719 759.979 Q130.004 759.979 125.386 753.104 Q120.802 746.194 120.802 733.104 Q120.802 719.979 125.386 713.104 Q130.004 706.194 138.719 706.194 Z" fill="#000000" fill-rule="evenodd" fill-opacity="1" /><path clip-path="url(#clip790)" d="M168.962 750.153 L176.288 750.153 L176.288 758.972 L168.962 758.972 L168.962 750.153 Z" fill="#000000" fill-rule="evenodd" fill-opacity="1" /><path clip-path="url(#clip790)" d="M191.635 707.132 L219.17 707.132 L219.17 713.035 L198.059 713.035 L198.059 725.743 Q199.587 725.222 201.114 724.979 Q202.642 724.701 204.17 724.701 Q212.85 724.701 217.92 729.458 Q222.989 734.215 222.989 742.34 Q222.989 750.708 217.781 755.361 Q212.573 759.979 203.094 759.979 Q199.83 759.979 196.427 759.423 Q193.059 758.868 189.448 757.757 L189.448 750.708 Q192.573 752.41 195.906 753.243 Q199.239 754.076 202.955 754.076 Q208.962 754.076 212.469 750.916 Q215.975 747.757 215.975 742.34 Q215.975 736.923 212.469 733.764 Q208.962 730.604 202.955 730.604 Q200.142 730.604 197.33 731.229 Q194.552 731.854 191.635 733.173 L191.635 707.132 Z" fill="#000000" fill-rule="evenodd" fill-opacity="1" /><path clip-path="url(#clip790)" d="M136.983 582.352 Q131.566 582.352 128.823 587.699 Q126.115 593.012 126.115 603.706 Q126.115 614.366 128.823 619.713 Q131.566 625.026 136.983 625.026 Q142.434 625.026 145.143 619.713 Q147.886 614.366 147.886 603.706 Q147.886 593.012 145.143 587.699 Q142.434 582.352 136.983 582.352 M136.983 576.797 Q145.698 576.797 150.281 583.706 Q154.899 590.581 154.899 603.706 Q154.899 616.797 150.281 623.706 Q145.698 630.581 136.983 630.581 Q128.268 630.581 123.65 623.706 Q119.066 616.797 119.066 603.706 Q119.066 590.581 123.65 583.706 Q128.268 576.797 136.983 576.797 Z" fill="#000000" fill-rule="evenodd" fill-opacity="1" /><path clip-path="url(#clip790)" d="M167.226 620.755 L174.552 620.755 L174.552 629.574 L167.226 629.574 L167.226 620.755 Z" fill="#000000" fill-rule="evenodd" fill-opacity="1" /><path clip-path="url(#clip790)" d="M205.698 600.859 Q200.976 600.859 198.198 604.088 Q195.455 607.317 195.455 612.942 Q195.455 618.533 198.198 621.797 Q200.976 625.026 205.698 625.026 Q210.42 625.026 213.163 621.797 Q215.941 618.533 215.941 612.942 Q215.941 607.317 213.163 604.088 Q210.42 600.859 205.698 600.859 M219.621 578.88 L219.621 585.269 Q216.982 584.019 214.274 583.359 Q211.6 582.7 208.962 582.7 Q202.017 582.7 198.337 587.387 Q194.691 592.074 194.17 601.554 Q196.219 598.533 199.309 596.936 Q202.399 595.304 206.114 595.304 Q213.927 595.304 218.441 600.061 Q222.989 604.783 222.989 612.942 Q222.989 620.928 218.267 625.755 Q213.545 630.581 205.698 630.581 Q196.705 630.581 191.948 623.706 Q187.191 616.797 187.191 603.706 Q187.191 591.415 193.024 584.123 Q198.858 576.797 208.684 576.797 Q211.323 576.797 213.996 577.318 Q216.705 577.838 219.621 578.88 Z" fill="#000000" fill-rule="evenodd" fill-opacity="1" /><path clip-path="url(#clip790)" d="M138.58 452.955 Q133.163 452.955 130.42 458.302 Q127.712 463.614 127.712 474.309 Q127.712 484.968 130.42 490.315 Q133.163 495.628 138.58 495.628 Q144.031 495.628 146.74 490.315 Q149.483 484.968 149.483 474.309 Q149.483 463.614 146.74 458.302 Q144.031 452.955 138.58 452.955 M138.58 447.399 Q147.295 447.399 151.879 454.309 Q156.497 461.184 156.497 474.309 Q156.497 487.399 151.879 494.309 Q147.295 501.183 138.58 501.183 Q129.865 501.183 125.247 494.309 Q120.663 487.399 120.663 474.309 Q120.663 461.184 125.247 454.309 Q129.865 447.399 138.58 447.399 Z" fill="#000000" fill-rule="evenodd" fill-opacity="1" /><path clip-path="url(#clip790)" d="M168.823 491.357 L176.149 491.357 L176.149 500.177 L168.823 500.177 L168.823 491.357 Z" fill="#000000" fill-rule="evenodd" fill-opacity="1" /><path clip-path="url(#clip790)" d="M189.656 448.337 L222.989 448.337 L222.989 451.323 L204.17 500.177 L196.844 500.177 L214.552 454.239 L189.656 454.239 L189.656 448.337 Z" fill="#000000" fill-rule="evenodd" fill-opacity="1" /><path clip-path="url(#clip790)" d="M137.365 323.557 Q131.948 323.557 129.205 328.904 Q126.497 334.217 126.497 344.911 Q126.497 355.571 129.205 360.918 Q131.948 366.23 137.365 366.23 Q142.816 366.23 145.524 360.918 Q148.267 355.571 148.267 344.911 Q148.267 334.217 145.524 328.904 Q142.816 323.557 137.365 323.557 M137.365 318.001 Q146.08 318.001 150.663 324.911 Q155.281 331.786 155.281 344.911 Q155.281 358.001 150.663 364.911 Q146.08 371.786 137.365 371.786 Q128.65 371.786 124.032 364.911 Q119.448 358.001 119.448 344.911 Q119.448 331.786 124.032 324.911 Q128.65 318.001 137.365 318.001 Z" fill="#000000" fill-rule="evenodd" fill-opacity="1" /><path clip-path="url(#clip790)" d="M167.608 361.959 L174.934 361.959 L174.934 370.779 L167.608 370.779 L167.608 361.959 Z" fill="#000000" fill-rule="evenodd" fill-opacity="1" /><path clip-path="url(#clip790)" d="M205.212 346.161 Q200.212 346.161 197.33 348.835 Q194.483 351.508 194.483 356.196 Q194.483 360.883 197.33 363.557 Q200.212 366.23 205.212 366.23 Q210.212 366.23 213.094 363.557 Q215.975 360.848 215.975 356.196 Q215.975 351.508 213.094 348.835 Q210.246 346.161 205.212 346.161 M198.198 343.175 Q193.684 342.064 191.149 338.973 Q188.649 335.883 188.649 331.439 Q188.649 325.224 193.059 321.612 Q197.503 318.001 205.212 318.001 Q212.955 318.001 217.364 321.612 Q221.774 325.224 221.774 331.439 Q221.774 335.883 219.239 338.973 Q216.739 342.064 212.26 343.175 Q217.33 344.355 220.142 347.793 Q222.989 351.23 222.989 356.196 Q222.989 363.73 218.371 367.758 Q213.788 371.786 205.212 371.786 Q196.635 371.786 192.017 367.758 Q187.434 363.73 187.434 356.196 Q187.434 351.23 190.281 347.793 Q193.128 344.355 198.198 343.175 M195.628 332.098 Q195.628 336.126 198.128 338.383 Q200.663 340.64 205.212 340.64 Q209.726 340.64 212.26 338.383 Q214.83 336.126 214.83 332.098 Q214.83 328.071 212.26 325.814 Q209.726 323.557 205.212 323.557 Q200.663 323.557 198.128 325.814 Q195.628 328.071 195.628 332.098 Z" fill="#000000" fill-rule="evenodd" fill-opacity="1" /><path clip-path="url(#clip790)" d="M137.504 194.159 Q132.087 194.159 129.344 199.506 Q126.636 204.819 126.636 215.513 Q126.636 226.173 129.344 231.52 Q132.087 236.833 137.504 236.833 Q142.955 236.833 145.663 231.52 Q148.406 226.173 148.406 215.513 Q148.406 204.819 145.663 199.506 Q142.955 194.159 137.504 194.159 M137.504 188.604 Q146.219 188.604 150.802 195.513 Q155.42 202.388 155.42 215.513 Q155.42 228.603 150.802 235.513 Q146.219 242.388 137.504 242.388 Q128.788 242.388 124.17 235.513 Q119.587 228.603 119.587 215.513 Q119.587 202.388 124.17 195.513 Q128.788 188.604 137.504 188.604 Z" fill="#000000" fill-rule="evenodd" fill-opacity="1" /><path clip-path="url(#clip790)" d="M167.747 232.562 L175.073 232.562 L175.073 241.381 L167.747 241.381 L167.747 232.562 Z" fill="#000000" fill-rule="evenodd" fill-opacity="1" /><path clip-path="url(#clip790)" d="M190.559 240.305 L190.559 233.916 Q193.198 235.166 195.906 235.826 Q198.614 236.485 201.219 236.485 Q208.163 236.485 211.809 231.833 Q215.489 227.145 216.01 217.631 Q213.996 220.617 210.906 222.215 Q207.816 223.812 204.066 223.812 Q196.288 223.812 191.739 219.124 Q187.226 214.402 187.226 206.242 Q187.226 198.256 191.948 193.43 Q196.67 188.604 204.517 188.604 Q213.51 188.604 218.232 195.513 Q222.989 202.388 222.989 215.513 Q222.989 227.77 217.156 235.096 Q211.357 242.388 201.531 242.388 Q198.892 242.388 196.184 241.867 Q193.476 241.346 190.559 240.305 M204.517 218.326 Q209.239 218.326 211.982 215.097 Q214.76 211.867 214.76 206.242 Q214.76 200.652 211.982 197.423 Q209.239 194.159 204.517 194.159 Q199.795 194.159 197.017 197.423 Q194.274 200.652 194.274 206.242 Q194.274 211.867 197.017 215.097 Q199.795 218.326 204.517 218.326 Z" fill="#000000" fill-rule="evenodd" fill-opacity="1" /><path clip-path="url(#clip790)" d="M123.441 106.081 L134.9 106.081 L134.9 66.5323 L122.434 69.0322 L122.434 62.6434 L134.83 60.1434 L141.844 60.1434 L141.844 106.081 L153.302 106.081 L153.302 111.983 L123.441 111.983 L123.441 106.081 Z" fill="#000000" fill-rule="evenodd" fill-opacity="1" /><path clip-path="url(#clip790)" d="M167.469 103.164 L174.795 103.164 L174.795 111.983 L167.469 111.983 L167.469 103.164 Z" fill="#000000" fill-rule="evenodd" fill-opacity="1" /><path clip-path="url(#clip790)" d="M205.073 64.7614 Q199.656 64.7614 196.913 70.1086 Q194.205 75.4211 194.205 86.1155 Q194.205 96.7752 196.913 102.122 Q199.656 107.435 205.073 107.435 Q210.524 107.435 213.232 102.122 Q215.975 96.7752 215.975 86.1155 Q215.975 75.4211 213.232 70.1086 Q210.524 64.7614 205.073 64.7614 M205.073 59.2059 Q213.788 59.2059 218.371 66.1156 Q222.989 72.9906 222.989 86.1155 Q222.989 99.2057 218.371 106.115 Q213.788 112.99 205.073 112.99 Q196.358 112.99 191.739 106.115 Q187.156 99.2057 187.156 86.1155 Q187.156 72.9906 191.739 66.1156 Q196.358 59.2059 205.073 59.2059 Z" fill="#000000" fill-rule="evenodd" fill-opacity="1" /><path clip-path="url(#clip790)" d="M16.8895 931.402 L23.7298 931.402 Q21.8201 935.395 20.8826 938.936 Q19.9451 942.478 19.9451 945.777 Q19.9451 951.506 22.1673 954.631 Q24.3895 957.721 28.4867 957.721 Q31.9242 957.721 33.695 955.672 Q35.4311 953.589 36.5075 947.825 L37.3755 943.589 Q38.8686 935.742 42.6533 932.027 Q46.4033 928.277 52.7227 928.277 Q60.2574 928.277 64.1462 933.346 Q68.0351 938.381 68.0351 948.138 Q68.0351 951.818 67.2018 955.985 Q66.3684 960.117 64.7365 964.561 L57.5143 964.561 Q59.9101 960.29 61.1254 956.193 Q62.3407 952.096 62.3407 948.138 Q62.3407 942.131 59.9796 938.867 Q57.6185 935.603 53.2435 935.603 Q49.4241 935.603 47.2713 937.964 Q45.1186 940.29 44.0422 945.638 L43.2088 949.908 Q41.6463 957.756 38.313 961.263 Q34.9797 964.769 29.0422 964.769 Q22.1673 964.769 18.209 959.943 Q14.2507 955.082 14.2507 946.575 Q14.2507 942.929 14.9104 939.145 Q15.5701 935.36 16.8895 931.402 Z" fill="#000000" fill-rule="evenodd" fill-opacity="1" /><path clip-path="url(#clip790)" d="M51.681 918.277 L28.1395 918.277 L28.1395 911.888 L51.438 911.888 Q56.9588 911.888 59.7365 909.735 Q62.4796 907.582 62.4796 903.277 Q62.4796 898.103 59.181 895.117 Q55.8824 892.096 50.188 892.096 L28.1395 892.096 L28.1395 885.707 L67.0282 885.707 L67.0282 892.096 L61.056 892.096 Q64.5976 894.423 66.3337 897.513 Q68.0351 900.568 68.0351 904.631 Q68.0351 911.332 63.8685 914.804 Q59.7018 918.277 51.681 918.277 M27.202 902.2 L27.202 902.2 Z" fill="#000000" fill-rule="evenodd" fill-opacity="1" /><path clip-path="url(#clip790)" d="M29.6325 844.562 L35.6047 844.562 Q34.1117 847.27 33.3825 850.013 Q32.6186 852.721 32.6186 855.499 Q32.6186 861.714 36.5769 865.152 Q40.5005 868.589 47.6185 868.589 Q54.7366 868.589 58.6949 865.152 Q62.6185 861.714 62.6185 855.499 Q62.6185 852.721 61.8893 850.013 Q61.1254 847.27 59.6324 844.562 L65.5351 844.562 Q66.7851 847.235 67.4101 850.117 Q68.0351 852.965 68.0351 856.194 Q68.0351 864.978 62.5143 870.152 Q56.9935 875.326 47.6185 875.326 Q38.1047 875.326 32.6533 870.117 Q27.202 864.874 27.202 855.777 Q27.202 852.826 27.827 850.013 Q28.4173 847.201 29.6325 844.562 Z" fill="#000000" fill-rule="evenodd" fill-opacity="1" /><path clip-path="url(#clip790)" d="M29.6325 805.465 L35.6047 805.465 Q34.1117 808.173 33.3825 810.916 Q32.6186 813.624 32.6186 816.402 Q32.6186 822.617 36.5769 826.055 Q40.5005 829.492 47.6185 829.492 Q54.7366 829.492 58.6949 826.055 Q62.6185 822.617 62.6185 816.402 Q62.6185 813.624 61.8893 810.916 Q61.1254 808.173 59.6324 805.465 L65.5351 805.465 Q66.7851 808.138 67.4101 811.02 Q68.0351 813.868 68.0351 817.097 Q68.0351 825.881 62.5143 831.055 Q56.9935 836.228 47.6185 836.228 Q38.1047 836.228 32.6533 831.02 Q27.202 825.777 27.202 816.68 Q27.202 813.729 27.827 810.916 Q28.4173 808.104 29.6325 805.465 Z" fill="#000000" fill-rule="evenodd" fill-opacity="1" /><path clip-path="url(#clip790)" d="M45.9866 761.09 L49.1116 761.09 L49.1116 790.465 Q55.7088 790.048 59.181 786.507 Q62.6185 782.93 62.6185 776.576 Q62.6185 772.896 61.7157 769.458 Q60.8129 765.986 59.0074 762.583 L65.049 762.583 Q66.5073 766.021 67.2712 769.632 Q68.0351 773.243 68.0351 776.958 Q68.0351 786.263 62.6185 791.715 Q57.2018 797.131 47.9658 797.131 Q38.4172 797.131 32.827 791.993 Q27.202 786.819 27.202 778.069 Q27.202 770.222 32.2714 765.673 Q37.3061 761.09 45.9866 761.09 M44.1116 767.479 Q38.8686 767.548 35.7436 770.43 Q32.6186 773.277 32.6186 778 Q32.6186 783.347 35.6394 786.576 Q38.6603 789.77 44.1463 790.257 L44.1116 767.479 Z" fill="#000000" fill-rule="evenodd" fill-opacity="1" /><path clip-path="url(#clip790)" d="M29.2853 725.812 L35.3269 725.812 Q33.9381 728.521 33.2436 731.437 Q32.5492 734.354 32.5492 737.479 Q32.5492 742.236 34.0075 744.632 Q35.4658 746.993 38.3825 746.993 Q40.6047 746.993 41.8894 745.291 Q43.1394 743.59 44.2852 738.451 L44.7713 736.264 Q46.2297 729.458 48.9033 726.611 Q51.5421 723.729 56.299 723.729 Q61.7157 723.729 64.8754 728.035 Q68.0351 732.305 68.0351 739.805 Q68.0351 742.93 67.4101 746.333 Q66.8198 749.701 65.6046 753.451 L59.0074 753.451 Q60.8476 749.91 61.7851 746.472 Q62.6879 743.035 62.6879 739.667 Q62.6879 735.153 61.1601 732.722 Q59.5976 730.292 56.7852 730.292 Q54.181 730.292 52.7921 732.062 Q51.4032 733.798 50.1185 739.736 L49.5977 741.958 Q48.3477 747.896 45.7783 750.535 Q43.1741 753.173 38.6603 753.173 Q33.1742 753.173 30.1881 749.285 Q27.202 745.396 27.202 738.243 Q27.202 734.701 27.7228 731.576 Q28.2436 728.451 29.2853 725.812 Z" fill="#000000" fill-rule="evenodd" fill-opacity="1" /><path clip-path="url(#clip790)" d="M29.2853 688.764 L35.3269 688.764 Q33.9381 691.472 33.2436 694.389 Q32.5492 697.306 32.5492 700.431 Q32.5492 705.188 34.0075 707.583 Q35.4658 709.944 38.3825 709.944 Q40.6047 709.944 41.8894 708.243 Q43.1394 706.542 44.2852 701.403 L44.7713 699.215 Q46.2297 692.41 48.9033 689.563 Q51.5421 686.681 56.299 686.681 Q61.7157 686.681 64.8754 690.986 Q68.0351 695.257 68.0351 702.757 Q68.0351 705.882 67.4101 709.285 Q66.8198 712.653 65.6046 716.403 L59.0074 716.403 Q60.8476 712.861 61.7851 709.424 Q62.6879 705.986 62.6879 702.618 Q62.6879 698.104 61.1601 695.674 Q59.5976 693.243 56.7852 693.243 Q54.181 693.243 52.7921 695.014 Q51.4032 696.75 50.1185 702.688 L49.5977 704.91 Q48.3477 710.847 45.7783 713.486 Q43.1741 716.125 38.6603 716.125 Q33.1742 716.125 30.1881 712.236 Q27.202 708.347 27.202 701.195 Q27.202 697.653 27.7228 694.528 Q28.2436 691.403 29.2853 688.764 Z" fill="#000000" fill-rule="evenodd" fill-opacity="1" /><path clip-path="url(#clip790)" d="M42.7227 629.042 Q43.4866 626.785 45.9866 624.667 Q48.4866 622.514 52.8616 620.362 L67.0282 613.244 L67.0282 620.778 L53.7296 627.41 Q48.5213 629.98 46.8199 632.41 Q45.1186 634.806 45.1186 638.973 L45.1186 646.611 L67.0282 646.611 L67.0282 653.625 L15.1882 653.625 L15.1882 637.792 Q15.1882 628.903 18.9034 624.528 Q22.6187 620.153 30.1186 620.153 Q35.0144 620.153 38.2436 622.445 Q41.4727 624.702 42.7227 629.042 M20.952 646.611 L39.3547 646.611 L39.3547 637.792 Q39.3547 632.723 37.0283 630.153 Q34.6672 627.549 30.1186 627.549 Q25.57 627.549 23.2784 630.153 Q20.952 632.723 20.952 637.792 L20.952 646.611 Z" fill="#000000" fill-rule="evenodd" fill-opacity="1" /><path clip-path="url(#clip790)" d="M47.4797 588.383 Q47.4797 596.126 49.2505 599.112 Q51.0213 602.098 55.2921 602.098 Q58.6949 602.098 60.7087 599.876 Q62.6879 597.619 62.6879 593.765 Q62.6879 588.452 58.9379 585.258 Q55.1532 582.028 48.9033 582.028 L47.4797 582.028 L47.4797 588.383 M44.8408 575.64 L67.0282 575.64 L67.0282 582.028 L61.1254 582.028 Q64.6671 584.216 66.3684 587.48 Q68.0351 590.744 68.0351 595.466 Q68.0351 601.438 64.7018 604.98 Q61.3337 608.487 55.7088 608.487 Q49.1463 608.487 45.813 604.112 Q42.4797 599.702 42.4797 590.987 L42.4797 582.028 L41.8547 582.028 Q37.445 582.028 35.0492 584.945 Q32.6186 587.827 32.6186 593.07 Q32.6186 596.403 33.4172 599.563 Q34.2158 602.723 35.813 605.639 L29.9103 605.639 Q28.5561 602.133 27.8964 598.834 Q27.202 595.535 27.202 592.41 Q27.202 583.973 31.577 579.806 Q35.9519 575.64 44.8408 575.64 Z" fill="#000000" fill-rule="evenodd" fill-opacity="1" /><path clip-path="url(#clip790)" d="M17.0979 556.161 L28.1395 556.161 L28.1395 543.001 L33.1047 543.001 L33.1047 556.161 L54.2157 556.161 Q58.9726 556.161 60.3268 554.876 Q61.681 553.556 61.681 549.563 L61.681 543.001 L67.0282 543.001 L67.0282 549.563 Q67.0282 556.959 64.2851 559.772 Q61.5074 562.584 54.2157 562.584 L33.1047 562.584 L33.1047 567.272 L28.1395 567.272 L28.1395 562.584 L17.0979 562.584 L17.0979 556.161 Z" fill="#000000" fill-rule="evenodd" fill-opacity="1" /><path clip-path="url(#clip790)" d="M45.9866 501.334 L49.1116 501.334 L49.1116 530.709 Q55.7088 530.293 59.181 526.751 Q62.6185 523.175 62.6185 516.82 Q62.6185 513.14 61.7157 509.702 Q60.8129 506.23 59.0074 502.828 L65.049 502.828 Q66.5073 506.265 67.2712 509.876 Q68.0351 513.487 68.0351 517.202 Q68.0351 526.508 62.6185 531.959 Q57.2018 537.376 47.9658 537.376 Q38.4172 537.376 32.827 532.237 Q27.202 527.063 27.202 518.314 Q27.202 510.466 32.2714 505.918 Q37.3061 501.334 45.9866 501.334 M44.1116 507.723 Q38.8686 507.793 35.7436 510.675 Q32.6186 513.522 32.6186 518.244 Q32.6186 523.591 35.6394 526.82 Q38.6603 530.015 44.1463 530.501 L44.1116 507.723 Z" fill="#000000" fill-rule="evenodd" fill-opacity="1" /><polyline clip-path="url(#clip792)" style="stroke:#009af9; stroke-linecap:round; stroke-linejoin:round; stroke-width:4; stroke-opacity:1; fill:none" points="
  318.247,1380.04 331.504,1380.04 344.76,1380.04 358.017,1380.04 371.274,1380.04 384.53,1380.04 397.787,1380.04 411.044,1347.69 424.301,1341.22 437.557,1147.12 
  450.814,875.389 464.071,771.871 477.328,564.835 490.584,416.028 503.841,331.919 517.098,254.28 530.354,221.931 543.611,157.232 556.868,111.943 570.125,202.521 
  583.381,234.871 596.638,124.883 609.895,111.943 623.151,124.883 636.408,137.822 649.665,215.461 662.922,202.521 676.178,157.232 689.435,150.762 702.692,137.822 
  715.949,144.292 729.205,99.0032 742.462,86.0634 755.719,131.353 768.975,111.943 782.232,137.822 795.489,111.943 808.746,92.5333 822.002,86.0634 835.259,92.5333 
  848.516,111.943 861.772,137.822 875.029,105.473 888.286,131.353 901.543,131.353 914.799,86.0634 928.056,163.702 941.313,118.413 954.569,92.5333 967.826,124.883 
  981.083,124.883 994.34,144.292 1007.6,124.883 1020.85,189.582 1034.11,99.0032 1047.37,105.473 1060.62,99.0032 1073.88,86.0634 1087.14,131.353 1100.39,124.883 
  1113.65,118.413 1126.91,144.292 1140.16,111.943 1153.42,124.883 1166.68,208.991 1179.93,163.702 1193.19,170.172 1206.45,170.172 1219.7,157.232 1232.96,124.883 
  1246.22,163.702 1259.47,131.353 1272.73,105.473 1285.99,105.473 1299.24,86.0634 1312.5,111.943 1325.76,105.473 1339.01,111.943 1352.27,92.5333 1365.53,92.5333 
  1378.78,111.943 1392.04,111.943 1405.3,105.473 1418.55,92.5333 1431.81,99.0032 1445.07,86.0634 1458.32,111.943 1471.58,111.943 1484.84,131.353 1498.1,118.413 
  1511.35,131.353 1524.61,105.473 1537.87,137.822 1551.12,131.353 1564.38,150.762 1577.64,150.762 1590.89,131.353 1604.15,118.413 1617.41,137.822 1630.66,183.112 
  1643.92,124.883 1657.18,131.353 1670.43,111.943 1683.69,131.353 1696.95,137.822 1710.2,170.172 1723.46,176.642 1736.72,208.991 1749.97,202.521 1763.23,176.642 
  1776.49,118.413 1789.74,189.582 1803,183.112 1816.26,234.871 1829.51,183.112 1842.77,189.582 1856.03,183.112 1869.28,221.931 1882.54,111.943 1895.8,163.702 
  1909.05,163.702 1922.31,144.292 1935.57,215.461 1948.82,202.521 1962.08,144.292 1975.34,183.112 1988.59,202.521 2001.85,183.112 2015.11,150.762 2028.36,170.172 
  2041.62,189.582 2054.88,176.642 2068.13,144.292 2081.39,124.883 2094.65,202.521 2107.9,170.172 2121.16,183.112 2134.42,221.931 2147.67,208.991 2160.93,150.762 
  2174.19,228.401 2187.44,247.811 2200.7,196.051 2213.96,383.678 2227.21,208.991 2240.47,286.63 2253.73,254.28 2266.98,208.991 2280.24,215.461 2293.5,176.642 
  
  "/>
<polyline clip-path="url(#clip792)" style="stroke:#ffa500; stroke-linecap:round; stroke-linejoin:round; stroke-width:4; stroke-opacity:1; fill:none" points="
  318.247,150.762 331.504,105.473 344.76,144.292 358.017,137.822 371.274,157.232 384.53,144.292 397.787,189.582 411.044,131.353 424.301,176.642 437.557,118.413 
  450.814,118.413 464.071,99.0032 477.328,111.943 490.584,99.0032 503.841,189.582 517.098,170.172 530.354,189.582 543.611,150.762 556.868,99.0032 570.125,105.473 
  583.381,124.883 596.638,124.883 609.895,111.943 623.151,86.0634 636.408,105.473 649.665,118.413 662.922,137.822 676.178,137.822 689.435,144.292 702.692,105.473 
  715.949,137.822 729.205,124.883 742.462,118.413 755.719,163.702 768.975,254.28 782.232,150.762 795.489,170.172 808.746,131.353 822.002,137.822 835.259,189.582 
  848.516,150.762 861.772,150.762 875.029,137.822 888.286,150.762 901.543,105.473 914.799,157.232 928.056,137.822 941.313,137.822 954.569,137.822 967.826,131.353 
  981.083,150.762 994.34,144.292 1007.6,157.232 1020.85,124.883 1034.11,111.943 1047.37,144.292 1060.62,144.292 1073.88,131.353 1087.14,124.883 1100.39,163.702 
  1113.65,124.883 1126.91,131.353 1140.16,137.822 1153.42,144.292 1166.68,124.883 1179.93,150.762 1193.19,137.822 1206.45,157.232 1219.7,144.292 1232.96,105.473 
  1246.22,150.762 1259.47,124.883 1272.73,137.822 1285.99,118.413 1299.24,124.883 1312.5,99.0032 1325.76,111.943 1339.01,124.883 1352.27,137.822 1365.53,137.822 
  1378.78,105.473 1392.04,105.473 1405.3,118.413 1418.55,118.413 1431.81,150.762 1445.07,118.413 1458.32,170.172 1471.58,150.762 1484.84,144.292 1498.1,144.292 
  1511.35,131.353 1524.61,144.292 1537.87,202.521 1551.12,150.762 1564.38,144.292 1577.64,111.943 1590.89,124.883 1604.15,111.943 1617.41,92.5333 1630.66,105.473 
  1643.92,86.0634 1657.18,99.0032 1670.43,105.473 1683.69,105.473 1696.95,131.353 1710.2,150.762 1723.46,137.822 1736.72,170.172 1749.97,176.642 1763.23,157.232 
  1776.49,118.413 1789.74,150.762 1803,131.353 1816.26,105.473 1829.51,150.762 1842.77,157.232 1856.03,157.232 1869.28,137.822 1882.54,131.353 1895.8,137.822 
  1909.05,137.822 1922.31,124.883 1935.57,163.702 1948.82,176.642 1962.08,157.232 1975.34,124.883 1988.59,137.822 2001.85,118.413 2015.11,163.702 2028.36,157.232 
  2041.62,157.232 2054.88,150.762 2068.13,137.822 2081.39,137.822 2094.65,111.943 2107.9,137.822 2121.16,111.943 2134.42,144.292 2147.67,131.353 2160.93,105.473 
  2174.19,86.0634 2187.44,99.0032 2200.7,111.943 2213.96,111.943 2227.21,99.0032 2240.47,92.5333 2253.73,131.353 2266.98,99.0032 2280.24,118.413 2293.5,131.353 
  
  "/>
<path clip-path="url(#clip790)" d="
M1698.48 856.532 L2282.96 856.532 L2282.96 623.252 L1698.48 623.252  Z
  " fill="#ffffff" fill-rule="evenodd" fill-opacity="1"/>
<polyline clip-path="url(#clip790)" style="stroke:#000000; stroke-linecap:round; stroke-linejoin:round; stroke-width:4; stroke-opacity:1; fill:none" points="
  1698.48,856.532 2282.96,856.532 2282.96,623.252 1698.48,623.252 1698.48,856.532 
  "/>
<polyline clip-path="url(#clip790)" style="stroke:#009af9; stroke-linecap:round; stroke-linejoin:round; stroke-width:6; stroke-opacity:1; fill:none" points="
  1721.75,701.012 1861.33,701.012 
  "/>
<path clip-path="url(#clip790)" d="M1912.24 689.19 L1912.24 695.231 Q1909.53 693.842 1906.61 693.148 Q1903.69 692.454 1900.57 692.454 Q1895.81 692.454 1893.42 693.912 Q1891.06 695.37 1891.06 698.287 Q1891.06 700.509 1892.76 701.794 Q1894.46 703.044 1899.6 704.19 L1901.78 704.676 Q1908.59 706.134 1911.44 708.808 Q1914.32 711.446 1914.32 716.203 Q1914.32 721.62 1910.01 724.78 Q1905.74 727.939 1898.24 727.939 Q1895.12 727.939 1891.72 727.314 Q1888.35 726.724 1884.6 725.509 L1884.6 718.912 Q1888.14 720.752 1891.58 721.689 Q1895.01 722.592 1898.38 722.592 Q1902.9 722.592 1905.33 721.064 Q1907.76 719.502 1907.76 716.689 Q1907.76 714.085 1905.99 712.696 Q1904.25 711.308 1898.31 710.023 L1896.09 709.502 Q1890.15 708.252 1887.51 705.683 Q1884.88 703.078 1884.88 698.565 Q1884.88 693.079 1888.76 690.092 Q1892.65 687.106 1899.81 687.106 Q1903.35 687.106 1906.47 687.627 Q1909.6 688.148 1912.24 689.19 Z" fill="#000000" fill-rule="evenodd" fill-opacity="1" /><path clip-path="url(#clip790)" d="M1924.49 672.905 L1930.88 672.905 L1930.88 726.932 L1924.49 726.932 L1924.49 672.905 Z" fill="#000000" fill-rule="evenodd" fill-opacity="1" /><path clip-path="url(#clip790)" d="M1959.32 692.523 Q1954.18 692.523 1951.19 696.551 Q1948.21 700.544 1948.21 707.523 Q1948.21 714.502 1951.16 718.53 Q1954.15 722.523 1959.32 722.523 Q1964.42 722.523 1967.41 718.495 Q1970.4 714.467 1970.4 707.523 Q1970.4 700.613 1967.41 696.585 Q1964.42 692.523 1959.32 692.523 M1959.32 687.106 Q1967.65 687.106 1972.41 692.523 Q1977.17 697.94 1977.17 707.523 Q1977.17 717.071 1972.41 722.523 Q1967.65 727.939 1959.32 727.939 Q1950.95 727.939 1946.19 722.523 Q1941.47 717.071 1941.47 707.523 Q1941.47 697.94 1946.19 692.523 Q1950.95 687.106 1959.32 687.106 Z" fill="#000000" fill-rule="evenodd" fill-opacity="1" /><path clip-path="url(#clip790)" d="M1984.04 688.044 L1990.43 688.044 L1998.42 718.391 L2006.37 688.044 L2013.9 688.044 L2021.89 718.391 L2029.84 688.044 L2036.23 688.044 L2026.06 726.932 L2018.52 726.932 L2010.15 695.058 L2001.75 726.932 L1994.21 726.932 L1984.04 688.044 Z" fill="#000000" fill-rule="evenodd" fill-opacity="1" /><path clip-path="url(#clip790)" d="M2098.8 695.509 Q2101.19 691.204 2104.53 689.155 Q2107.86 687.106 2112.37 687.106 Q2118.45 687.106 2121.75 691.377 Q2125.05 695.613 2125.05 703.46 L2125.05 726.932 L2118.62 726.932 L2118.62 703.669 Q2118.62 698.078 2116.64 695.37 Q2114.67 692.662 2110.6 692.662 Q2105.64 692.662 2102.76 695.96 Q2099.87 699.259 2099.87 704.953 L2099.87 726.932 L2093.45 726.932 L2093.45 703.669 Q2093.45 698.044 2091.47 695.37 Q2089.49 692.662 2085.36 692.662 Q2080.46 692.662 2077.58 695.995 Q2074.7 699.294 2074.7 704.953 L2074.7 726.932 L2068.28 726.932 L2068.28 688.044 L2074.7 688.044 L2074.7 694.085 Q2076.89 690.509 2079.94 688.808 Q2083 687.106 2087.2 687.106 Q2091.44 687.106 2094.39 689.259 Q2097.37 691.412 2098.8 695.509 Z" fill="#000000" fill-rule="evenodd" fill-opacity="1" /><path clip-path="url(#clip790)" d="M2152.86 692.523 Q2147.72 692.523 2144.73 696.551 Q2141.75 700.544 2141.75 707.523 Q2141.75 714.502 2144.7 718.53 Q2147.69 722.523 2152.86 722.523 Q2157.96 722.523 2160.95 718.495 Q2163.94 714.467 2163.94 707.523 Q2163.94 700.613 2160.95 696.585 Q2157.96 692.523 2152.86 692.523 M2152.86 687.106 Q2161.19 687.106 2165.95 692.523 Q2170.71 697.94 2170.71 707.523 Q2170.71 717.071 2165.95 722.523 Q2161.19 727.939 2152.86 727.939 Q2144.49 727.939 2139.73 722.523 Q2135.01 717.071 2135.01 707.523 Q2135.01 697.94 2139.73 692.523 Q2144.49 687.106 2152.86 687.106 Z" fill="#000000" fill-rule="evenodd" fill-opacity="1" /><path clip-path="url(#clip790)" d="M2206.89 693.947 L2206.89 672.905 L2213.28 672.905 L2213.28 726.932 L2206.89 726.932 L2206.89 721.099 Q2204.87 724.571 2201.78 726.273 Q2198.73 727.939 2194.42 727.939 Q2187.37 727.939 2182.93 722.314 Q2178.52 716.689 2178.52 707.523 Q2178.52 698.356 2182.93 692.731 Q2187.37 687.106 2194.42 687.106 Q2198.73 687.106 2201.78 688.808 Q2204.87 690.474 2206.89 693.947 M2185.12 707.523 Q2185.12 714.571 2188 718.599 Q2190.92 722.592 2195.98 722.592 Q2201.05 722.592 2203.97 718.599 Q2206.89 714.571 2206.89 707.523 Q2206.89 700.474 2203.97 696.481 Q2201.05 692.454 2195.98 692.454 Q2190.92 692.454 2188 696.481 Q2185.12 700.474 2185.12 707.523 Z" fill="#000000" fill-rule="evenodd" fill-opacity="1" /><path clip-path="url(#clip790)" d="M2259.7 705.891 L2259.7 709.016 L2230.32 709.016 Q2230.74 715.613 2234.28 719.085 Q2237.86 722.523 2244.21 722.523 Q2247.89 722.523 2251.33 721.62 Q2254.8 720.717 2258.21 718.912 L2258.21 724.953 Q2254.77 726.412 2251.16 727.176 Q2247.55 727.939 2243.83 727.939 Q2234.53 727.939 2229.07 722.523 Q2223.66 717.106 2223.66 707.87 Q2223.66 698.322 2228.8 692.731 Q2233.97 687.106 2242.72 687.106 Q2250.57 687.106 2255.12 692.176 Q2259.7 697.21 2259.7 705.891 M2253.31 704.016 Q2253.24 698.773 2250.36 695.648 Q2247.51 692.523 2242.79 692.523 Q2237.44 692.523 2234.21 695.544 Q2231.02 698.565 2230.53 704.051 L2253.31 704.016 Z" fill="#000000" fill-rule="evenodd" fill-opacity="1" /><polyline clip-path="url(#clip790)" style="stroke:#ffa500; stroke-linecap:round; stroke-linejoin:round; stroke-width:6; stroke-opacity:1; fill:none" points="
  1721.75,778.772 1861.33,778.772 
  "/>
<path clip-path="url(#clip790)" d="M1909.35 750.665 L1909.35 755.977 L1903.24 755.977 Q1899.81 755.977 1898.45 757.366 Q1897.13 758.755 1897.13 762.366 L1897.13 765.804 L1907.65 765.804 L1907.65 770.769 L1897.13 770.769 L1897.13 804.692 L1890.71 804.692 L1890.71 770.769 L1884.6 770.769 L1884.6 765.804 L1890.71 765.804 L1890.71 763.095 Q1890.71 756.602 1893.73 753.651 Q1896.75 750.665 1903.31 750.665 L1909.35 750.665 Z" fill="#000000" fill-rule="evenodd" fill-opacity="1" /><path clip-path="url(#clip790)" d="M1932.37 785.144 Q1924.63 785.144 1921.65 786.915 Q1918.66 788.686 1918.66 792.956 Q1918.66 796.359 1920.88 798.373 Q1923.14 800.352 1926.99 800.352 Q1932.31 800.352 1935.5 796.602 Q1938.73 792.818 1938.73 786.568 L1938.73 785.144 L1932.37 785.144 M1945.12 782.505 L1945.12 804.692 L1938.73 804.692 L1938.73 798.79 Q1936.54 802.331 1933.28 804.033 Q1930.01 805.699 1925.29 805.699 Q1919.32 805.699 1915.78 802.366 Q1912.27 798.998 1912.27 793.373 Q1912.27 786.811 1916.65 783.477 Q1921.06 780.144 1929.77 780.144 L1938.73 780.144 L1938.73 779.519 Q1938.73 775.109 1935.81 772.713 Q1932.93 770.283 1927.69 770.283 Q1924.35 770.283 1921.19 771.082 Q1918.03 771.88 1915.12 773.477 L1915.12 767.575 Q1918.63 766.22 1921.92 765.561 Q1925.22 764.866 1928.35 764.866 Q1936.78 764.866 1940.95 769.241 Q1945.12 773.616 1945.12 782.505 Z" fill="#000000" fill-rule="evenodd" fill-opacity="1" /><path clip-path="url(#clip790)" d="M1983.07 766.95 L1983.07 772.991 Q1980.36 771.602 1977.44 770.908 Q1974.53 770.214 1971.4 770.214 Q1966.65 770.214 1964.25 771.672 Q1961.89 773.13 1961.89 776.047 Q1961.89 778.269 1963.59 779.554 Q1965.29 780.804 1970.43 781.95 L1972.62 782.436 Q1979.42 783.894 1982.27 786.568 Q1985.15 789.206 1985.15 793.963 Q1985.15 799.38 1980.85 802.54 Q1976.58 805.699 1969.08 805.699 Q1965.95 805.699 1962.55 805.074 Q1959.18 804.484 1955.43 803.269 L1955.43 796.672 Q1958.97 798.512 1962.41 799.449 Q1965.85 800.352 1969.22 800.352 Q1973.73 800.352 1976.16 798.824 Q1978.59 797.262 1978.59 794.449 Q1978.59 791.845 1976.82 790.456 Q1975.08 789.068 1969.15 787.783 L1966.92 787.262 Q1960.99 786.012 1958.35 783.443 Q1955.71 780.838 1955.71 776.325 Q1955.71 770.839 1959.6 767.852 Q1963.49 764.866 1970.64 764.866 Q1974.18 764.866 1977.31 765.387 Q1980.43 765.908 1983.07 766.95 Z" fill="#000000" fill-rule="evenodd" fill-opacity="1" /><path clip-path="url(#clip790)" d="M2001.65 754.762 L2001.65 765.804 L2014.81 765.804 L2014.81 770.769 L2001.65 770.769 L2001.65 791.88 Q2001.65 796.637 2002.93 797.991 Q2004.25 799.345 2008.24 799.345 L2014.81 799.345 L2014.81 804.692 L2008.24 804.692 Q2000.85 804.692 1998.03 801.949 Q1995.22 799.172 1995.22 791.88 L1995.22 770.769 L1990.53 770.769 L1990.53 765.804 L1995.22 765.804 L1995.22 754.762 L2001.65 754.762 Z" fill="#000000" fill-rule="evenodd" fill-opacity="1" /><path clip-path="url(#clip790)" d="M2076.09 773.269 Q2078.49 768.964 2081.82 766.915 Q2085.15 764.866 2089.67 764.866 Q2095.74 764.866 2099.04 769.137 Q2102.34 773.373 2102.34 781.22 L2102.34 804.692 L2095.92 804.692 L2095.92 781.429 Q2095.92 775.838 2093.94 773.13 Q2091.96 770.422 2087.89 770.422 Q2082.93 770.422 2080.05 773.72 Q2077.17 777.019 2077.17 782.713 L2077.17 804.692 L2070.74 804.692 L2070.74 781.429 Q2070.74 775.804 2068.76 773.13 Q2066.78 770.422 2062.65 770.422 Q2057.76 770.422 2054.87 773.755 Q2051.99 777.054 2051.99 782.713 L2051.99 804.692 L2045.57 804.692 L2045.57 765.804 L2051.99 765.804 L2051.99 771.845 Q2054.18 768.269 2057.24 766.568 Q2060.29 764.866 2064.49 764.866 Q2068.73 764.866 2071.68 767.019 Q2074.67 769.172 2076.09 773.269 Z" fill="#000000" fill-rule="evenodd" fill-opacity="1" /><path clip-path="url(#clip790)" d="M2130.15 770.283 Q2125.01 770.283 2122.03 774.311 Q2119.04 778.304 2119.04 785.283 Q2119.04 792.262 2121.99 796.29 Q2124.98 800.283 2130.15 800.283 Q2135.26 800.283 2138.24 796.255 Q2141.23 792.227 2141.23 785.283 Q2141.23 778.373 2138.24 774.345 Q2135.26 770.283 2130.15 770.283 M2130.15 764.866 Q2138.48 764.866 2143.24 770.283 Q2148 775.7 2148 785.283 Q2148 794.831 2143.24 800.283 Q2138.48 805.699 2130.15 805.699 Q2121.78 805.699 2117.03 800.283 Q2112.3 794.831 2112.3 785.283 Q2112.3 775.7 2117.03 770.283 Q2121.78 764.866 2130.15 764.866 Z" fill="#000000" fill-rule="evenodd" fill-opacity="1" /><path clip-path="url(#clip790)" d="M2184.18 771.707 L2184.18 750.665 L2190.57 750.665 L2190.57 804.692 L2184.18 804.692 L2184.18 798.859 Q2182.17 802.331 2179.08 804.033 Q2176.02 805.699 2171.71 805.699 Q2164.67 805.699 2160.22 800.074 Q2155.81 794.449 2155.81 785.283 Q2155.81 776.116 2160.22 770.491 Q2164.67 764.866 2171.71 764.866 Q2176.02 764.866 2179.08 766.568 Q2182.17 768.234 2184.18 771.707 M2162.41 785.283 Q2162.41 792.331 2165.29 796.359 Q2168.21 800.352 2173.28 800.352 Q2178.35 800.352 2181.26 796.359 Q2184.18 792.331 2184.18 785.283 Q2184.18 778.234 2181.26 774.241 Q2178.35 770.214 2173.28 770.214 Q2168.21 770.214 2165.29 774.241 Q2162.41 778.234 2162.41 785.283 Z" fill="#000000" fill-rule="evenodd" fill-opacity="1" /><path clip-path="url(#clip790)" d="M2236.99 783.651 L2236.99 786.776 L2207.62 786.776 Q2208.03 793.373 2211.57 796.845 Q2215.15 800.283 2221.51 800.283 Q2225.19 800.283 2228.62 799.38 Q2232.1 798.477 2235.5 796.672 L2235.5 802.713 Q2232.06 804.172 2228.45 804.936 Q2224.84 805.699 2221.12 805.699 Q2211.82 805.699 2206.37 800.283 Q2200.95 794.866 2200.95 785.63 Q2200.95 776.082 2206.09 770.491 Q2211.26 764.866 2220.01 764.866 Q2227.86 764.866 2232.41 769.936 Q2236.99 774.97 2236.99 783.651 M2230.6 781.776 Q2230.53 776.533 2227.65 773.408 Q2224.8 770.283 2220.08 770.283 Q2214.73 770.283 2211.51 773.304 Q2208.31 776.325 2207.82 781.811 L2230.6 781.776 Z" fill="#000000" fill-rule="evenodd" fill-opacity="1" /></svg>
