<?xml version="1.0" encoding="utf-8"?>
<svg xmlns="http://www.w3.org/2000/svg" xmlns:xlink="http://www.w3.org/1999/xlink" width="600" height="400" viewBox="0 0 2400 1600">
<defs>
  <clipPath id="clip870">
    <rect x="0" y="0" width="2400" height="1600"/>
  </clipPath>
</defs>
<path clip-path="url(#clip870)" d="
M0 1600 L2400 1600 L2400 0 L0 0  Z
  " fill="#ffffff" fill-rule="evenodd" fill-opacity="1"/>
<defs>
  <clipPath id="clip871">
    <rect x="480" y="0" width="1681" height="1600"/>
  </clipPath>
</defs>
<path clip-path="url(#clip870)" d="
M192.358 1418.86 L2352.76 1418.86 L2352.76 47.2441 L192.358 47.2441  Z
  " fill="#ffffff" fill-rule="evenodd" fill-opacity="1"/>
<defs>
  <clipPath id="clip872">
    <rect x="192" y="47" width="2161" height="1373"/>
  </clipPath>
</defs>
<polyline clip-path="url(#clip872)" style="stroke:#000000; stroke-linecap:round; stroke-linejoin:round; stroke-width:2; stroke-opacity:0.1; fill:none" points="
  239.822,1418.86 239.822,47.2441 
  "/>
<polyline clip-path="url(#clip872)" style="stroke:#000000; stroke-linecap:round; stroke-linejoin:round; stroke-width:2; stroke-opacity:0.1; fill:none" points="
  581.787,1418.86 581.787,47.2441 
  "/>
<polyline clip-path="url(#clip872)" style="stroke:#000000; stroke-linecap:round; stroke-linejoin:round; stroke-width:2; stroke-opacity:0.1; fill:none" points="
  923.753,1418.86 923.753,47.2441 
  "/>
<polyline clip-path="url(#clip872)" style="stroke:#000000; stroke-linecap:round; stroke-linejoin:round; stroke-width:2; stroke-opacity:0.1; fill:none" points="
  1265.72,1418.86 1265.72,47.2441 
  "/>
<polyline clip-path="url(#clip872)" style="stroke:#000000; stroke-linecap:round; stroke-linejoin:round; stroke-width:2; stroke-opacity:0.1; fill:none" points="
  1607.68,1418.86 1607.68,47.2441 
  "/>
<polyline clip-path="url(#clip872)" style="stroke:#000000; stroke-linecap:round; stroke-linejoin:round; stroke-width:2; stroke-opacity:0.1; fill:none" points="
  1949.65,1418.86 1949.65,47.2441 
  "/>
<polyline clip-path="url(#clip872)" style="stroke:#000000; stroke-linecap:round; stroke-linejoin:round; stroke-width:2; stroke-opacity:0.1; fill:none" points="
  2291.61,1418.86 2291.61,47.2441 
  "/>
<polyline clip-path="url(#clip870)" style="stroke:#000000; stroke-linecap:round; stroke-linejoin:round; stroke-width:4; stroke-opacity:1; fill:none" points="
  192.358,1418.86 2352.76,1418.86 
  "/>
<polyline clip-path="url(#clip870)" style="stroke:#000000; stroke-linecap:round; stroke-linejoin:round; stroke-width:4; stroke-opacity:1; fill:none" points="
  239.822,1418.86 239.822,1399.96 
  "/>
<polyline clip-path="url(#clip870)" style="stroke:#000000; stroke-linecap:round; stroke-linejoin:round; stroke-width:4; stroke-opacity:1; fill:none" points="
  581.787,1418.86 581.787,1399.96 
  "/>
<polyline clip-path="url(#clip870)" style="stroke:#000000; stroke-linecap:round; stroke-linejoin:round; stroke-width:4; stroke-opacity:1; fill:none" points="
  923.753,1418.86 923.753,1399.96 
  "/>
<polyline clip-path="url(#clip870)" style="stroke:#000000; stroke-linecap:round; stroke-linejoin:round; stroke-width:4; stroke-opacity:1; fill:none" points="
  1265.72,1418.86 1265.72,1399.96 
  "/>
<polyline clip-path="url(#clip870)" style="stroke:#000000; stroke-linecap:round; stroke-linejoin:round; stroke-width:4; stroke-opacity:1; fill:none" points="
  1607.68,1418.86 1607.68,1399.96 
  "/>
<polyline clip-path="url(#clip870)" style="stroke:#000000; stroke-linecap:round; stroke-linejoin:round; stroke-width:4; stroke-opacity:1; fill:none" points="
  1949.65,1418.86 1949.65,1399.96 
  "/>
<polyline clip-path="url(#clip870)" style="stroke:#000000; stroke-linecap:round; stroke-linejoin:round; stroke-width:4; stroke-opacity:1; fill:none" points="
  2291.61,1418.86 2291.61,1399.96 
  "/>
<path clip-path="url(#clip870)" d="M147.624 1449.78 Q144.013 1449.78 142.184 1453.34 Q140.379 1456.88 140.379 1464.01 Q140.379 1471.12 142.184 1474.69 Q144.013 1478.23 147.624 1478.23 Q151.258 1478.23 153.064 1474.69 Q154.892 1471.12 154.892 1464.01 Q154.892 1456.88 153.064 1453.34 Q151.258 1449.78 147.624 1449.78 M147.624 1446.07 Q153.434 1446.07 156.49 1450.68 Q159.568 1455.26 159.568 1464.01 Q159.568 1472.74 156.49 1477.35 Q153.434 1481.93 147.624 1481.93 Q141.814 1481.93 138.735 1477.35 Q135.68 1472.74 135.68 1464.01 Q135.68 1455.26 138.735 1450.68 Q141.814 1446.07 147.624 1446.07 Z" fill="#000000" fill-rule="evenodd" fill-opacity="1" /><path clip-path="url(#clip870)" d="M167.786 1475.38 L172.67 1475.38 L172.67 1481.26 L167.786 1481.26 L167.786 1475.38 Z" fill="#000000" fill-rule="evenodd" fill-opacity="1" /><path clip-path="url(#clip870)" d="M192.855 1449.78 Q189.244 1449.78 187.415 1453.34 Q185.61 1456.88 185.61 1464.01 Q185.61 1471.12 187.415 1474.69 Q189.244 1478.23 192.855 1478.23 Q196.489 1478.23 198.295 1474.69 Q200.124 1471.12 200.124 1464.01 Q200.124 1456.88 198.295 1453.34 Q196.489 1449.78 192.855 1449.78 M192.855 1446.07 Q198.665 1446.07 201.721 1450.68 Q204.8 1455.26 204.8 1464.01 Q204.8 1472.74 201.721 1477.35 Q198.665 1481.93 192.855 1481.93 Q187.045 1481.93 183.966 1477.35 Q180.911 1472.74 180.911 1464.01 Q180.911 1455.26 183.966 1450.68 Q187.045 1446.07 192.855 1446.07 Z" fill="#000000" fill-rule="evenodd" fill-opacity="1" /><path clip-path="url(#clip870)" d="M223.017 1449.78 Q219.406 1449.78 217.577 1453.34 Q215.772 1456.88 215.772 1464.01 Q215.772 1471.12 217.577 1474.69 Q219.406 1478.23 223.017 1478.23 Q226.651 1478.23 228.457 1474.69 Q230.285 1471.12 230.285 1464.01 Q230.285 1456.88 228.457 1453.34 Q226.651 1449.78 223.017 1449.78 M223.017 1446.07 Q228.827 1446.07 231.883 1450.68 Q234.961 1455.26 234.961 1464.01 Q234.961 1472.74 231.883 1477.35 Q228.827 1481.93 223.017 1481.93 Q217.207 1481.93 214.128 1477.35 Q211.073 1472.74 211.073 1464.01 Q211.073 1455.26 214.128 1450.68 Q217.207 1446.07 223.017 1446.07 Z" fill="#000000" fill-rule="evenodd" fill-opacity="1" /><path clip-path="url(#clip870)" d="M264.128 1455.33 L254.753 1467.95 L264.614 1481.26 L259.591 1481.26 L252.045 1471.07 L244.498 1481.26 L239.475 1481.26 L249.545 1467.7 L240.332 1455.33 L245.355 1455.33 L252.23 1464.57 L259.105 1455.33 L264.128 1455.33 Z" fill="#000000" fill-rule="evenodd" fill-opacity="1" /><path clip-path="url(#clip870)" d="M272.045 1477.32 L279.683 1477.32 L279.683 1450.96 L271.373 1452.63 L271.373 1448.37 L279.637 1446.7 L284.313 1446.7 L284.313 1477.32 L291.952 1477.32 L291.952 1481.26 L272.045 1481.26 L272.045 1477.32 Z" fill="#000000" fill-rule="evenodd" fill-opacity="1" /><path clip-path="url(#clip870)" d="M311.396 1449.78 Q307.785 1449.78 305.956 1453.34 Q304.151 1456.88 304.151 1464.01 Q304.151 1471.12 305.956 1474.69 Q307.785 1478.23 311.396 1478.23 Q315.03 1478.23 316.836 1474.69 Q318.665 1471.12 318.665 1464.01 Q318.665 1456.88 316.836 1453.34 Q315.03 1449.78 311.396 1449.78 M311.396 1446.07 Q317.206 1446.07 320.262 1450.68 Q323.341 1455.26 323.341 1464.01 Q323.341 1472.74 320.262 1477.35 Q317.206 1481.93 311.396 1481.93 Q305.586 1481.93 302.507 1477.35 Q299.452 1472.74 299.452 1464.01 Q299.452 1455.26 302.507 1450.68 Q305.586 1446.07 311.396 1446.07 Z" fill="#000000" fill-rule="evenodd" fill-opacity="1" /><path clip-path="url(#clip870)" d="M336.558 1455.03 Q334.521 1455.03 333.34 1456.24 Q332.16 1457.46 332.16 1459.57 Q332.16 1461.65 333.34 1462.86 Q334.521 1464.08 336.558 1464.08 Q338.572 1464.08 339.752 1462.86 Q340.933 1461.65 340.933 1459.57 Q340.933 1457.46 339.752 1456.24 Q338.572 1455.03 336.558 1455.03 M342.53 1446.84 L342.53 1449.22 Q341.396 1448.76 340.239 1448.53 Q339.081 1448.27 337.947 1448.27 Q334.984 1448.27 333.41 1450.01 Q331.836 1451.77 331.604 1455.31 Q332.484 1454.18 333.803 1453.57 Q335.146 1452.97 336.72 1452.97 Q340.077 1452.97 342.021 1454.73 Q343.965 1456.51 343.965 1459.57 Q343.965 1462.51 341.928 1464.34 Q339.915 1466.14 336.558 1466.14 Q332.692 1466.14 330.655 1463.57 Q328.618 1461.01 328.618 1456.1 Q328.618 1451.51 331.118 1448.81 Q333.618 1446.07 337.831 1446.07 Q338.965 1446.07 340.123 1446.26 Q341.28 1446.47 342.53 1446.84 Z" fill="#000000" fill-rule="evenodd" fill-opacity="1" /><path clip-path="url(#clip870)" d="M489.589 1449.78 Q485.978 1449.78 484.149 1453.34 Q482.344 1456.88 482.344 1464.01 Q482.344 1471.12 484.149 1474.69 Q485.978 1478.23 489.589 1478.23 Q493.223 1478.23 495.029 1474.69 Q496.857 1471.12 496.857 1464.01 Q496.857 1456.88 495.029 1453.34 Q493.223 1449.78 489.589 1449.78 M489.589 1446.07 Q495.399 1446.07 498.455 1450.68 Q501.533 1455.26 501.533 1464.01 Q501.533 1472.74 498.455 1477.35 Q495.399 1481.93 489.589 1481.93 Q483.779 1481.93 480.7 1477.35 Q477.645 1472.74 477.645 1464.01 Q477.645 1455.26 480.7 1450.68 Q483.779 1446.07 489.589 1446.07 Z" fill="#000000" fill-rule="evenodd" fill-opacity="1" /><path clip-path="url(#clip870)" d="M509.751 1475.38 L514.635 1475.38 L514.635 1481.26 L509.751 1481.26 L509.751 1475.38 Z" fill="#000000" fill-rule="evenodd" fill-opacity="1" /><path clip-path="url(#clip870)" d="M528.848 1477.32 L545.167 1477.32 L545.167 1481.26 L523.223 1481.26 L523.223 1477.32 Q525.885 1474.57 530.468 1469.94 Q535.075 1465.29 536.255 1463.95 Q538.501 1461.42 539.38 1459.69 Q540.283 1457.93 540.283 1456.24 Q540.283 1453.48 538.339 1451.75 Q536.417 1450.01 533.316 1450.01 Q531.116 1450.01 528.663 1450.77 Q526.232 1451.54 523.454 1453.09 L523.454 1448.37 Q526.279 1447.23 528.732 1446.65 Q531.186 1446.07 533.223 1446.07 Q538.593 1446.07 541.788 1448.76 Q544.982 1451.45 544.982 1455.94 Q544.982 1458.07 544.172 1459.99 Q543.385 1461.88 541.278 1464.48 Q540.7 1465.15 537.598 1468.37 Q534.496 1471.56 528.848 1477.32 Z" fill="#000000" fill-rule="evenodd" fill-opacity="1" /><path clip-path="url(#clip870)" d="M555.028 1446.7 L573.385 1446.7 L573.385 1450.64 L559.311 1450.64 L559.311 1459.11 Q560.329 1458.76 561.348 1458.6 Q562.366 1458.41 563.385 1458.41 Q569.172 1458.41 572.551 1461.58 Q575.931 1464.76 575.931 1470.17 Q575.931 1475.75 572.459 1478.85 Q568.987 1481.93 562.667 1481.93 Q560.491 1481.93 558.223 1481.56 Q555.977 1481.19 553.57 1480.45 L553.57 1475.75 Q555.653 1476.88 557.876 1477.44 Q560.098 1478 562.575 1478 Q566.579 1478 568.917 1475.89 Q571.255 1473.78 571.255 1470.17 Q571.255 1466.56 568.917 1464.45 Q566.579 1462.35 562.575 1462.35 Q560.7 1462.35 558.825 1462.76 Q556.973 1463.18 555.028 1464.06 L555.028 1446.7 Z" fill="#000000" fill-rule="evenodd" fill-opacity="1" /><path clip-path="url(#clip870)" d="M606.093 1455.33 L596.718 1467.95 L606.579 1481.26 L601.556 1481.26 L594.01 1471.07 L586.463 1481.26 L581.44 1481.26 L591.51 1467.7 L582.297 1455.33 L587.32 1455.33 L594.195 1464.57 L601.07 1455.33 L606.093 1455.33 Z" fill="#000000" fill-rule="evenodd" fill-opacity="1" /><path clip-path="url(#clip870)" d="M614.01 1477.32 L621.648 1477.32 L621.648 1450.96 L613.338 1452.63 L613.338 1448.37 L621.602 1446.7 L626.278 1446.7 L626.278 1477.32 L633.917 1477.32 L633.917 1481.26 L614.01 1481.26 L614.01 1477.32 Z" fill="#000000" fill-rule="evenodd" fill-opacity="1" /><path clip-path="url(#clip870)" d="M653.361 1449.78 Q649.75 1449.78 647.921 1453.34 Q646.116 1456.88 646.116 1464.01 Q646.116 1471.12 647.921 1474.69 Q649.75 1478.23 653.361 1478.23 Q656.995 1478.23 658.801 1474.69 Q660.63 1471.12 660.63 1464.01 Q660.63 1456.88 658.801 1453.34 Q656.995 1449.78 653.361 1449.78 M653.361 1446.07 Q659.171 1446.07 662.227 1450.68 Q665.306 1455.26 665.306 1464.01 Q665.306 1472.74 662.227 1477.35 Q659.171 1481.93 653.361 1481.93 Q647.551 1481.93 644.472 1477.35 Q641.417 1472.74 641.417 1464.01 Q641.417 1455.26 644.472 1450.68 Q647.551 1446.07 653.361 1446.07 Z" fill="#000000" fill-rule="evenodd" fill-opacity="1" /><path clip-path="url(#clip870)" d="M678.523 1455.03 Q676.486 1455.03 675.306 1456.24 Q674.125 1457.46 674.125 1459.57 Q674.125 1461.65 675.306 1462.86 Q676.486 1464.08 678.523 1464.08 Q680.537 1464.08 681.718 1462.86 Q682.898 1461.65 682.898 1459.57 Q682.898 1457.46 681.718 1456.24 Q680.537 1455.03 678.523 1455.03 M684.495 1446.84 L684.495 1449.22 Q683.361 1448.76 682.204 1448.53 Q681.046 1448.27 679.912 1448.27 Q676.949 1448.27 675.375 1450.01 Q673.801 1451.77 673.569 1455.31 Q674.449 1454.18 675.768 1453.57 Q677.111 1452.97 678.685 1452.97 Q682.042 1452.97 683.986 1454.73 Q685.93 1456.51 685.93 1459.57 Q685.93 1462.51 683.893 1464.34 Q681.88 1466.14 678.523 1466.14 Q674.657 1466.14 672.62 1463.57 Q670.583 1461.01 670.583 1456.1 Q670.583 1451.51 673.083 1448.81 Q675.583 1446.07 679.796 1446.07 Q680.93 1446.07 682.088 1446.26 Q683.245 1446.47 684.495 1446.84 Z" fill="#000000" fill-rule="evenodd" fill-opacity="1" /><path clip-path="url(#clip870)" d="M831.554 1449.78 Q827.943 1449.78 826.114 1453.34 Q824.309 1456.88 824.309 1464.01 Q824.309 1471.12 826.114 1474.69 Q827.943 1478.23 831.554 1478.23 Q835.188 1478.23 836.994 1474.69 Q838.822 1471.12 838.822 1464.01 Q838.822 1456.88 836.994 1453.34 Q835.188 1449.78 831.554 1449.78 M831.554 1446.07 Q837.364 1446.07 840.42 1450.68 Q843.498 1455.26 843.498 1464.01 Q843.498 1472.74 840.42 1477.35 Q837.364 1481.93 831.554 1481.93 Q825.744 1481.93 822.665 1477.35 Q819.61 1472.74 819.61 1464.01 Q819.61 1455.26 822.665 1450.68 Q825.744 1446.07 831.554 1446.07 Z" fill="#000000" fill-rule="evenodd" fill-opacity="1" /><path clip-path="url(#clip870)" d="M851.716 1475.38 L856.6 1475.38 L856.6 1481.26 L851.716 1481.26 L851.716 1475.38 Z" fill="#000000" fill-rule="evenodd" fill-opacity="1" /><path clip-path="url(#clip870)" d="M866.832 1446.7 L885.188 1446.7 L885.188 1450.64 L871.114 1450.64 L871.114 1459.11 Q872.132 1458.76 873.151 1458.6 Q874.169 1458.41 875.188 1458.41 Q880.975 1458.41 884.355 1461.58 Q887.734 1464.76 887.734 1470.17 Q887.734 1475.75 884.262 1478.85 Q880.79 1481.93 874.47 1481.93 Q872.294 1481.93 870.026 1481.56 Q867.781 1481.19 865.373 1480.45 L865.373 1475.75 Q867.457 1476.88 869.679 1477.44 Q871.901 1478 874.378 1478 Q878.382 1478 880.72 1475.89 Q883.058 1473.78 883.058 1470.17 Q883.058 1466.56 880.72 1464.45 Q878.382 1462.35 874.378 1462.35 Q872.503 1462.35 870.628 1462.76 Q868.776 1463.18 866.832 1464.06 L866.832 1446.7 Z" fill="#000000" fill-rule="evenodd" fill-opacity="1" /><path clip-path="url(#clip870)" d="M906.947 1449.78 Q903.336 1449.78 901.507 1453.34 Q899.702 1456.88 899.702 1464.01 Q899.702 1471.12 901.507 1474.69 Q903.336 1478.23 906.947 1478.23 Q910.581 1478.23 912.387 1474.69 Q914.216 1471.12 914.216 1464.01 Q914.216 1456.88 912.387 1453.34 Q910.581 1449.78 906.947 1449.78 M906.947 1446.07 Q912.757 1446.07 915.813 1450.68 Q918.891 1455.26 918.891 1464.01 Q918.891 1472.74 915.813 1477.35 Q912.757 1481.93 906.947 1481.93 Q901.137 1481.93 898.058 1477.35 Q895.003 1472.74 895.003 1464.01 Q895.003 1455.26 898.058 1450.68 Q901.137 1446.07 906.947 1446.07 Z" fill="#000000" fill-rule="evenodd" fill-opacity="1" /><path clip-path="url(#clip870)" d="M948.058 1455.33 L938.683 1467.95 L948.544 1481.26 L943.521 1481.26 L935.975 1471.07 L928.428 1481.26 L923.405 1481.26 L933.475 1467.7 L924.262 1455.33 L929.285 1455.33 L936.16 1464.57 L943.035 1455.33 L948.058 1455.33 Z" fill="#000000" fill-rule="evenodd" fill-opacity="1" /><path clip-path="url(#clip870)" d="M955.975 1477.32 L963.613 1477.32 L963.613 1450.96 L955.303 1452.63 L955.303 1448.37 L963.567 1446.7 L968.243 1446.7 L968.243 1477.32 L975.882 1477.32 L975.882 1481.26 L955.975 1481.26 L955.975 1477.32 Z" fill="#000000" fill-rule="evenodd" fill-opacity="1" /><path clip-path="url(#clip870)" d="M995.326 1449.78 Q991.715 1449.78 989.886 1453.34 Q988.081 1456.88 988.081 1464.01 Q988.081 1471.12 989.886 1474.69 Q991.715 1478.23 995.326 1478.23 Q998.96 1478.23 1000.77 1474.69 Q1002.59 1471.12 1002.59 1464.01 Q1002.59 1456.88 1000.77 1453.34 Q998.96 1449.78 995.326 1449.78 M995.326 1446.07 Q1001.14 1446.07 1004.19 1450.68 Q1007.27 1455.26 1007.27 1464.01 Q1007.27 1472.74 1004.19 1477.35 Q1001.14 1481.93 995.326 1481.93 Q989.516 1481.93 986.437 1477.35 Q983.382 1472.74 983.382 1464.01 Q983.382 1455.26 986.437 1450.68 Q989.516 1446.07 995.326 1446.07 Z" fill="#000000" fill-rule="evenodd" fill-opacity="1" /><path clip-path="url(#clip870)" d="M1020.49 1455.03 Q1018.45 1455.03 1017.27 1456.24 Q1016.09 1457.46 1016.09 1459.57 Q1016.09 1461.65 1017.27 1462.86 Q1018.45 1464.08 1020.49 1464.08 Q1022.5 1464.08 1023.68 1462.86 Q1024.86 1461.65 1024.86 1459.57 Q1024.86 1457.46 1023.68 1456.24 Q1022.5 1455.03 1020.49 1455.03 M1026.46 1446.84 L1026.46 1449.22 Q1025.33 1448.76 1024.17 1448.53 Q1023.01 1448.27 1021.88 1448.27 Q1018.91 1448.27 1017.34 1450.01 Q1015.77 1451.77 1015.53 1455.31 Q1016.41 1454.18 1017.73 1453.57 Q1019.08 1452.97 1020.65 1452.97 Q1024.01 1452.97 1025.95 1454.73 Q1027.9 1456.51 1027.9 1459.57 Q1027.9 1462.51 1025.86 1464.34 Q1023.84 1466.14 1020.49 1466.14 Q1016.62 1466.14 1014.59 1463.57 Q1012.55 1461.01 1012.55 1456.1 Q1012.55 1451.51 1015.05 1448.81 Q1017.55 1446.07 1021.76 1446.07 Q1022.9 1446.07 1024.05 1446.26 Q1025.21 1446.47 1026.46 1446.84 Z" fill="#000000" fill-rule="evenodd" fill-opacity="1" /><path clip-path="url(#clip870)" d="M1173.52 1449.78 Q1169.91 1449.78 1168.08 1453.34 Q1166.27 1456.88 1166.27 1464.01 Q1166.27 1471.12 1168.08 1474.69 Q1169.91 1478.23 1173.52 1478.23 Q1177.15 1478.23 1178.96 1474.69 Q1180.79 1471.12 1180.79 1464.01 Q1180.79 1456.88 1178.96 1453.34 Q1177.15 1449.78 1173.52 1449.78 M1173.52 1446.07 Q1179.33 1446.07 1182.38 1450.68 Q1185.46 1455.26 1185.46 1464.01 Q1185.46 1472.74 1182.38 1477.35 Q1179.33 1481.93 1173.52 1481.93 Q1167.71 1481.93 1164.63 1477.35 Q1161.57 1472.74 1161.57 1464.01 Q1161.57 1455.26 1164.63 1450.68 Q1167.71 1446.07 1173.52 1446.07 Z" fill="#000000" fill-rule="evenodd" fill-opacity="1" /><path clip-path="url(#clip870)" d="M1193.68 1475.38 L1198.57 1475.38 L1198.57 1481.26 L1193.68 1481.26 L1193.68 1475.38 Z" fill="#000000" fill-rule="evenodd" fill-opacity="1" /><path clip-path="url(#clip870)" d="M1207.57 1446.7 L1229.79 1446.7 L1229.79 1448.69 L1217.25 1481.26 L1212.36 1481.26 L1224.17 1450.64 L1207.57 1450.64 L1207.57 1446.7 Z" fill="#000000" fill-rule="evenodd" fill-opacity="1" /><path clip-path="url(#clip870)" d="M1238.96 1446.7 L1257.31 1446.7 L1257.31 1450.64 L1243.24 1450.64 L1243.24 1459.11 Q1244.26 1458.76 1245.28 1458.6 Q1246.3 1458.41 1247.31 1458.41 Q1253.1 1458.41 1256.48 1461.58 Q1259.86 1464.76 1259.86 1470.17 Q1259.86 1475.75 1256.39 1478.85 Q1252.92 1481.93 1246.6 1481.93 Q1244.42 1481.93 1242.15 1481.56 Q1239.91 1481.19 1237.5 1480.45 L1237.5 1475.75 Q1239.58 1476.88 1241.81 1477.44 Q1244.03 1478 1246.5 1478 Q1250.51 1478 1252.85 1475.89 Q1255.19 1473.78 1255.19 1470.17 Q1255.19 1466.56 1252.85 1464.45 Q1250.51 1462.35 1246.5 1462.35 Q1244.63 1462.35 1242.75 1462.76 Q1240.9 1463.18 1238.96 1464.06 L1238.96 1446.7 Z" fill="#000000" fill-rule="evenodd" fill-opacity="1" /><path clip-path="url(#clip870)" d="M1290.02 1455.33 L1280.65 1467.95 L1290.51 1481.26 L1285.49 1481.26 L1277.94 1471.07 L1270.39 1481.26 L1265.37 1481.26 L1275.44 1467.7 L1266.23 1455.33 L1271.25 1455.33 L1278.12 1464.57 L1285 1455.33 L1290.02 1455.33 Z" fill="#000000" fill-rule="evenodd" fill-opacity="1" /><path clip-path="url(#clip870)" d="M1297.94 1477.32 L1305.58 1477.32 L1305.58 1450.96 L1297.27 1452.63 L1297.27 1448.37 L1305.53 1446.7 L1310.21 1446.7 L1310.21 1477.32 L1317.85 1477.32 L1317.85 1481.26 L1297.94 1481.26 L1297.94 1477.32 Z" fill="#000000" fill-rule="evenodd" fill-opacity="1" /><path clip-path="url(#clip870)" d="M1337.29 1449.78 Q1333.68 1449.78 1331.85 1453.34 Q1330.05 1456.88 1330.05 1464.01 Q1330.05 1471.12 1331.85 1474.69 Q1333.68 1478.23 1337.29 1478.23 Q1340.93 1478.23 1342.73 1474.69 Q1344.56 1471.12 1344.56 1464.01 Q1344.56 1456.88 1342.73 1453.34 Q1340.93 1449.78 1337.29 1449.78 M1337.29 1446.07 Q1343.1 1446.07 1346.16 1450.68 Q1349.24 1455.26 1349.24 1464.01 Q1349.24 1472.74 1346.16 1477.35 Q1343.1 1481.93 1337.29 1481.93 Q1331.48 1481.93 1328.4 1477.35 Q1325.35 1472.74 1325.35 1464.01 Q1325.35 1455.26 1328.4 1450.68 Q1331.48 1446.07 1337.29 1446.07 Z" fill="#000000" fill-rule="evenodd" fill-opacity="1" /><path clip-path="url(#clip870)" d="M1362.45 1455.03 Q1360.42 1455.03 1359.24 1456.24 Q1358.05 1457.46 1358.05 1459.57 Q1358.05 1461.65 1359.24 1462.86 Q1360.42 1464.08 1362.45 1464.08 Q1364.47 1464.08 1365.65 1462.86 Q1366.83 1461.65 1366.83 1459.57 Q1366.83 1457.46 1365.65 1456.24 Q1364.47 1455.03 1362.45 1455.03 M1368.43 1446.84 L1368.43 1449.22 Q1367.29 1448.76 1366.13 1448.53 Q1364.98 1448.27 1363.84 1448.27 Q1360.88 1448.27 1359.3 1450.01 Q1357.73 1451.77 1357.5 1455.31 Q1358.38 1454.18 1359.7 1453.57 Q1361.04 1452.97 1362.62 1452.97 Q1365.97 1452.97 1367.92 1454.73 Q1369.86 1456.51 1369.86 1459.57 Q1369.86 1462.51 1367.82 1464.34 Q1365.81 1466.14 1362.45 1466.14 Q1358.59 1466.14 1356.55 1463.57 Q1354.51 1461.01 1354.51 1456.1 Q1354.51 1451.51 1357.01 1448.81 Q1359.51 1446.07 1363.73 1446.07 Q1364.86 1446.07 1366.02 1446.26 Q1367.18 1446.47 1368.43 1446.84 Z" fill="#000000" fill-rule="evenodd" fill-opacity="1" /><path clip-path="url(#clip870)" d="M1505.25 1477.32 L1512.89 1477.32 L1512.89 1450.96 L1504.58 1452.63 L1504.58 1448.37 L1512.85 1446.7 L1517.52 1446.7 L1517.52 1477.32 L1525.16 1477.32 L1525.16 1481.26 L1505.25 1481.26 L1505.25 1477.32 Z" fill="#000000" fill-rule="evenodd" fill-opacity="1" /><path clip-path="url(#clip870)" d="M1534.6 1475.38 L1539.49 1475.38 L1539.49 1481.26 L1534.6 1481.26 L1534.6 1475.38 Z" fill="#000000" fill-rule="evenodd" fill-opacity="1" /><path clip-path="url(#clip870)" d="M1559.67 1449.78 Q1556.06 1449.78 1554.23 1453.34 Q1552.43 1456.88 1552.43 1464.01 Q1552.43 1471.12 1554.23 1474.69 Q1556.06 1478.23 1559.67 1478.23 Q1563.31 1478.23 1565.11 1474.69 Q1566.94 1471.12 1566.94 1464.01 Q1566.94 1456.88 1565.11 1453.34 Q1563.31 1449.78 1559.67 1449.78 M1559.67 1446.07 Q1565.48 1446.07 1568.54 1450.68 Q1571.62 1455.26 1571.62 1464.01 Q1571.62 1472.74 1568.54 1477.35 Q1565.48 1481.93 1559.67 1481.93 Q1553.86 1481.93 1550.78 1477.35 Q1547.73 1472.74 1547.73 1464.01 Q1547.73 1455.26 1550.78 1450.68 Q1553.86 1446.07 1559.67 1446.07 Z" fill="#000000" fill-rule="evenodd" fill-opacity="1" /><path clip-path="url(#clip870)" d="M1589.84 1449.78 Q1586.22 1449.78 1584.4 1453.34 Q1582.59 1456.88 1582.59 1464.01 Q1582.59 1471.12 1584.4 1474.69 Q1586.22 1478.23 1589.84 1478.23 Q1593.47 1478.23 1595.28 1474.69 Q1597.1 1471.12 1597.1 1464.01 Q1597.1 1456.88 1595.28 1453.34 Q1593.47 1449.78 1589.84 1449.78 M1589.84 1446.07 Q1595.65 1446.07 1598.7 1450.68 Q1601.78 1455.26 1601.78 1464.01 Q1601.78 1472.74 1598.7 1477.35 Q1595.65 1481.93 1589.84 1481.93 Q1584.03 1481.93 1580.95 1477.35 Q1577.89 1472.74 1577.89 1464.01 Q1577.89 1455.26 1580.95 1450.68 Q1584.03 1446.07 1589.84 1446.07 Z" fill="#000000" fill-rule="evenodd" fill-opacity="1" /><path clip-path="url(#clip870)" d="M1630.95 1455.33 L1621.57 1467.95 L1631.43 1481.26 L1626.41 1481.26 L1618.86 1471.07 L1611.32 1481.26 L1606.29 1481.26 L1616.36 1467.7 L1607.15 1455.33 L1612.17 1455.33 L1619.05 1464.57 L1625.92 1455.33 L1630.95 1455.33 Z" fill="#000000" fill-rule="evenodd" fill-opacity="1" /><path clip-path="url(#clip870)" d="M1638.86 1477.32 L1646.5 1477.32 L1646.5 1450.96 L1638.19 1452.63 L1638.19 1448.37 L1646.46 1446.7 L1651.13 1446.7 L1651.13 1477.32 L1658.77 1477.32 L1658.77 1481.26 L1638.86 1481.26 L1638.86 1477.32 Z" fill="#000000" fill-rule="evenodd" fill-opacity="1" /><path clip-path="url(#clip870)" d="M1678.21 1449.78 Q1674.6 1449.78 1672.77 1453.34 Q1670.97 1456.88 1670.97 1464.01 Q1670.97 1471.12 1672.77 1474.69 Q1674.6 1478.23 1678.21 1478.23 Q1681.85 1478.23 1683.65 1474.69 Q1685.48 1471.12 1685.48 1464.01 Q1685.48 1456.88 1683.65 1453.34 Q1681.85 1449.78 1678.21 1449.78 M1678.21 1446.07 Q1684.02 1446.07 1687.08 1450.68 Q1690.16 1455.26 1690.16 1464.01 Q1690.16 1472.74 1687.08 1477.35 Q1684.02 1481.93 1678.21 1481.93 Q1672.4 1481.93 1669.33 1477.35 Q1666.27 1472.74 1666.27 1464.01 Q1666.27 1455.26 1669.33 1450.68 Q1672.4 1446.07 1678.21 1446.07 Z" fill="#000000" fill-rule="evenodd" fill-opacity="1" /><path clip-path="url(#clip870)" d="M1703.38 1455.03 Q1701.34 1455.03 1700.16 1456.24 Q1698.98 1457.46 1698.98 1459.57 Q1698.98 1461.65 1700.16 1462.86 Q1701.34 1464.08 1703.38 1464.08 Q1705.39 1464.08 1706.57 1462.86 Q1707.75 1461.65 1707.75 1459.57 Q1707.75 1457.46 1706.57 1456.24 Q1705.39 1455.03 1703.38 1455.03 M1709.35 1446.84 L1709.35 1449.22 Q1708.21 1448.76 1707.06 1448.53 Q1705.9 1448.27 1704.77 1448.27 Q1701.8 1448.27 1700.23 1450.01 Q1698.65 1451.77 1698.42 1455.31 Q1699.3 1454.18 1700.62 1453.57 Q1701.96 1452.97 1703.54 1452.97 Q1706.89 1452.97 1708.84 1454.73 Q1710.78 1456.51 1710.78 1459.57 Q1710.78 1462.51 1708.75 1464.34 Q1706.73 1466.14 1703.38 1466.14 Q1699.51 1466.14 1697.47 1463.57 Q1695.44 1461.01 1695.44 1456.1 Q1695.44 1451.51 1697.94 1448.81 Q1700.44 1446.07 1704.65 1446.07 Q1705.78 1446.07 1706.94 1446.26 Q1708.1 1446.47 1709.35 1446.84 Z" fill="#000000" fill-rule="evenodd" fill-opacity="1" /><path clip-path="url(#clip870)" d="M1847.22 1477.32 L1854.86 1477.32 L1854.86 1450.96 L1846.55 1452.63 L1846.55 1448.37 L1854.81 1446.7 L1859.49 1446.7 L1859.49 1477.32 L1867.12 1477.32 L1867.12 1481.26 L1847.22 1481.26 L1847.22 1477.32 Z" fill="#000000" fill-rule="evenodd" fill-opacity="1" /><path clip-path="url(#clip870)" d="M1876.57 1475.38 L1881.45 1475.38 L1881.45 1481.26 L1876.57 1481.26 L1876.57 1475.38 Z" fill="#000000" fill-rule="evenodd" fill-opacity="1" /><path clip-path="url(#clip870)" d="M1895.67 1477.32 L1911.99 1477.32 L1911.99 1481.26 L1890.04 1481.26 L1890.04 1477.32 Q1892.7 1474.57 1897.29 1469.94 Q1901.89 1465.29 1903.07 1463.95 Q1905.32 1461.42 1906.2 1459.69 Q1907.1 1457.93 1907.1 1456.24 Q1907.1 1453.48 1905.16 1451.75 Q1903.24 1450.01 1900.13 1450.01 Q1897.93 1450.01 1895.48 1450.77 Q1893.05 1451.54 1890.27 1453.09 L1890.27 1448.37 Q1893.1 1447.23 1895.55 1446.65 Q1898 1446.07 1900.04 1446.07 Q1905.41 1446.07 1908.61 1448.76 Q1911.8 1451.45 1911.8 1455.94 Q1911.8 1458.07 1910.99 1459.99 Q1910.2 1461.88 1908.1 1464.48 Q1907.52 1465.15 1904.42 1468.37 Q1901.31 1471.56 1895.67 1477.32 Z" fill="#000000" fill-rule="evenodd" fill-opacity="1" /><path clip-path="url(#clip870)" d="M1921.85 1446.7 L1940.2 1446.7 L1940.2 1450.64 L1926.13 1450.64 L1926.13 1459.11 Q1927.15 1458.76 1928.17 1458.6 Q1929.18 1458.41 1930.2 1458.41 Q1935.99 1458.41 1939.37 1461.58 Q1942.75 1464.76 1942.75 1470.17 Q1942.75 1475.75 1939.28 1478.85 Q1935.81 1481.93 1929.49 1481.93 Q1927.31 1481.93 1925.04 1481.56 Q1922.8 1481.19 1920.39 1480.45 L1920.39 1475.75 Q1922.47 1476.88 1924.69 1477.44 Q1926.92 1478 1929.39 1478 Q1933.4 1478 1935.74 1475.89 Q1938.07 1473.78 1938.07 1470.17 Q1938.07 1466.56 1935.74 1464.45 Q1933.4 1462.35 1929.39 1462.35 Q1927.52 1462.35 1925.64 1462.76 Q1923.79 1463.18 1921.85 1464.06 L1921.85 1446.7 Z" fill="#000000" fill-rule="evenodd" fill-opacity="1" /><path clip-path="url(#clip870)" d="M1972.91 1455.33 L1963.54 1467.95 L1973.4 1481.26 L1968.37 1481.26 L1960.83 1471.07 L1953.28 1481.26 L1948.26 1481.26 L1958.33 1467.7 L1949.12 1455.33 L1954.14 1455.33 L1961.01 1464.57 L1967.89 1455.33 L1972.91 1455.33 Z" fill="#000000" fill-rule="evenodd" fill-opacity="1" /><path clip-path="url(#clip870)" d="M1980.83 1477.32 L1988.47 1477.32 L1988.47 1450.96 L1980.16 1452.63 L1980.16 1448.37 L1988.42 1446.7 L1993.1 1446.7 L1993.1 1477.32 L2000.74 1477.32 L2000.74 1481.26 L1980.83 1481.26 L1980.83 1477.32 Z" fill="#000000" fill-rule="evenodd" fill-opacity="1" /><path clip-path="url(#clip870)" d="M2020.18 1449.78 Q2016.57 1449.78 2014.74 1453.34 Q2012.93 1456.88 2012.93 1464.01 Q2012.93 1471.12 2014.74 1474.69 Q2016.57 1478.23 2020.18 1478.23 Q2023.81 1478.23 2025.62 1474.69 Q2027.45 1471.12 2027.45 1464.01 Q2027.45 1456.88 2025.62 1453.34 Q2023.81 1449.78 2020.18 1449.78 M2020.18 1446.07 Q2025.99 1446.07 2029.05 1450.68 Q2032.12 1455.26 2032.12 1464.01 Q2032.12 1472.74 2029.05 1477.35 Q2025.99 1481.93 2020.18 1481.93 Q2014.37 1481.93 2011.29 1477.35 Q2008.24 1472.74 2008.24 1464.01 Q2008.24 1455.26 2011.29 1450.68 Q2014.37 1446.07 2020.18 1446.07 Z" fill="#000000" fill-rule="evenodd" fill-opacity="1" /><path clip-path="url(#clip870)" d="M2045.34 1455.03 Q2043.3 1455.03 2042.12 1456.24 Q2040.94 1457.46 2040.94 1459.57 Q2040.94 1461.65 2042.12 1462.86 Q2043.3 1464.08 2045.34 1464.08 Q2047.36 1464.08 2048.54 1462.86 Q2049.72 1461.65 2049.72 1459.57 Q2049.72 1457.46 2048.54 1456.24 Q2047.36 1455.03 2045.34 1455.03 M2051.31 1446.84 L2051.31 1449.22 Q2050.18 1448.76 2049.02 1448.53 Q2047.86 1448.27 2046.73 1448.27 Q2043.77 1448.27 2042.19 1450.01 Q2040.62 1451.77 2040.39 1455.31 Q2041.27 1454.18 2042.59 1453.57 Q2043.93 1452.97 2045.5 1452.97 Q2048.86 1452.97 2050.8 1454.73 Q2052.75 1456.51 2052.75 1459.57 Q2052.75 1462.51 2050.71 1464.34 Q2048.7 1466.14 2045.34 1466.14 Q2041.48 1466.14 2039.44 1463.57 Q2037.4 1461.01 2037.4 1456.1 Q2037.4 1451.51 2039.9 1448.81 Q2042.4 1446.07 2046.61 1446.07 Q2047.75 1446.07 2048.91 1446.26 Q2050.06 1446.47 2051.31 1446.84 Z" fill="#000000" fill-rule="evenodd" fill-opacity="1" /><path clip-path="url(#clip870)" d="M2189.18 1477.32 L2196.82 1477.32 L2196.82 1450.96 L2188.51 1452.63 L2188.51 1448.37 L2196.78 1446.7 L2201.45 1446.7 L2201.45 1477.32 L2209.09 1477.32 L2209.09 1481.26 L2189.18 1481.26 L2189.18 1477.32 Z" fill="#000000" fill-rule="evenodd" fill-opacity="1" /><path clip-path="url(#clip870)" d="M2218.53 1475.38 L2223.42 1475.38 L2223.42 1481.26 L2218.53 1481.26 L2218.53 1475.38 Z" fill="#000000" fill-rule="evenodd" fill-opacity="1" /><path clip-path="url(#clip870)" d="M2233.65 1446.7 L2252.01 1446.7 L2252.01 1450.64 L2237.93 1450.64 L2237.93 1459.11 Q2238.95 1458.76 2239.97 1458.6 Q2240.99 1458.41 2242.01 1458.41 Q2247.79 1458.41 2251.17 1461.58 Q2254.55 1464.76 2254.55 1470.17 Q2254.55 1475.75 2251.08 1478.85 Q2247.61 1481.93 2241.29 1481.93 Q2239.11 1481.93 2236.84 1481.56 Q2234.6 1481.19 2232.19 1480.45 L2232.19 1475.75 Q2234.27 1476.88 2236.5 1477.44 Q2238.72 1478 2241.2 1478 Q2245.2 1478 2247.54 1475.89 Q2249.88 1473.78 2249.88 1470.17 Q2249.88 1466.56 2247.54 1464.45 Q2245.2 1462.35 2241.2 1462.35 Q2239.32 1462.35 2237.45 1462.76 Q2235.59 1463.18 2233.65 1464.06 L2233.65 1446.7 Z" fill="#000000" fill-rule="evenodd" fill-opacity="1" /><path clip-path="url(#clip870)" d="M2273.77 1449.78 Q2270.15 1449.78 2268.33 1453.34 Q2266.52 1456.88 2266.52 1464.01 Q2266.52 1471.12 2268.33 1474.69 Q2270.15 1478.23 2273.77 1478.23 Q2277.4 1478.23 2279.21 1474.69 Q2281.03 1471.12 2281.03 1464.01 Q2281.03 1456.88 2279.21 1453.34 Q2277.4 1449.78 2273.77 1449.78 M2273.77 1446.07 Q2279.58 1446.07 2282.63 1450.68 Q2285.71 1455.26 2285.71 1464.01 Q2285.71 1472.74 2282.63 1477.35 Q2279.58 1481.93 2273.77 1481.93 Q2267.96 1481.93 2264.88 1477.35 Q2261.82 1472.74 2261.82 1464.01 Q2261.82 1455.26 2264.88 1450.68 Q2267.96 1446.07 2273.77 1446.07 Z" fill="#000000" fill-rule="evenodd" fill-opacity="1" /><path clip-path="url(#clip870)" d="M2314.88 1455.33 L2305.5 1467.95 L2315.36 1481.26 L2310.34 1481.26 L2302.79 1471.07 L2295.25 1481.26 L2290.22 1481.26 L2300.29 1467.7 L2291.08 1455.33 L2296.1 1455.33 L2302.98 1464.57 L2309.85 1455.33 L2314.88 1455.33 Z" fill="#000000" fill-rule="evenodd" fill-opacity="1" /><path clip-path="url(#clip870)" d="M2322.79 1477.32 L2330.43 1477.32 L2330.43 1450.96 L2322.12 1452.63 L2322.12 1448.37 L2330.39 1446.7 L2335.06 1446.7 L2335.06 1477.32 L2342.7 1477.32 L2342.7 1481.26 L2322.79 1481.26 L2322.79 1477.32 Z" fill="#000000" fill-rule="evenodd" fill-opacity="1" /><path clip-path="url(#clip870)" d="M2362.14 1449.78 Q2358.53 1449.78 2356.7 1453.34 Q2354.9 1456.88 2354.9 1464.01 Q2354.9 1471.12 2356.7 1474.69 Q2358.53 1478.23 2362.14 1478.23 Q2365.78 1478.23 2367.58 1474.69 Q2369.41 1471.12 2369.41 1464.01 Q2369.41 1456.88 2367.58 1453.34 Q2365.78 1449.78 2362.14 1449.78 M2362.14 1446.07 Q2367.95 1446.07 2371.01 1450.68 Q2374.09 1455.26 2374.09 1464.01 Q2374.09 1472.74 2371.01 1477.35 Q2367.95 1481.93 2362.14 1481.93 Q2356.33 1481.93 2353.26 1477.35 Q2350.2 1472.74 2350.2 1464.01 Q2350.2 1455.26 2353.26 1450.68 Q2356.33 1446.07 2362.14 1446.07 Z" fill="#000000" fill-rule="evenodd" fill-opacity="1" /><path clip-path="url(#clip870)" d="M2387.31 1455.03 Q2385.27 1455.03 2384.09 1456.24 Q2382.91 1457.46 2382.91 1459.57 Q2382.91 1461.65 2384.09 1462.86 Q2385.27 1464.08 2387.31 1464.08 Q2389.32 1464.08 2390.5 1462.86 Q2391.68 1461.65 2391.68 1459.57 Q2391.68 1457.46 2390.5 1456.24 Q2389.32 1455.03 2387.31 1455.03 M2393.28 1446.84 L2393.28 1449.22 Q2392.14 1448.76 2390.99 1448.53 Q2389.83 1448.27 2388.7 1448.27 Q2385.73 1448.27 2384.16 1450.01 Q2382.58 1451.77 2382.35 1455.31 Q2383.23 1454.18 2384.55 1453.57 Q2385.89 1452.97 2387.47 1452.97 Q2390.82 1452.97 2392.77 1454.73 Q2394.71 1456.51 2394.71 1459.57 Q2394.71 1462.51 2392.68 1464.34 Q2390.66 1466.14 2387.31 1466.14 Q2383.44 1466.14 2381.4 1463.57 Q2379.37 1461.01 2379.37 1456.1 Q2379.37 1451.51 2381.87 1448.81 Q2384.37 1446.07 2388.58 1446.07 Q2389.71 1446.07 2390.87 1446.26 Q2392.03 1446.47 2393.28 1446.84 Z" fill="#000000" fill-rule="evenodd" fill-opacity="1" /><path clip-path="url(#clip870)" d="M1108.44 1517.07 L1115.46 1517.07 L1115.46 1568.91 L1108.44 1568.91 L1108.44 1517.07 Z" fill="#000000" fill-rule="evenodd" fill-opacity="1" /><path clip-path="url(#clip870)" d="M1135.46 1518.98 L1135.46 1530.02 L1148.62 1530.02 L1148.62 1534.98 L1135.46 1534.98 L1135.46 1556.1 Q1135.46 1560.85 1136.74 1562.21 Q1138.06 1563.56 1142.05 1563.56 L1148.62 1563.56 L1148.62 1568.91 L1142.05 1568.91 Q1134.66 1568.91 1131.85 1566.16 Q1129.03 1563.39 1129.03 1556.1 L1129.03 1534.98 L1124.35 1534.98 L1124.35 1530.02 L1129.03 1530.02 L1129.03 1518.98 L1135.46 1518.98 Z" fill="#000000" fill-rule="evenodd" fill-opacity="1" /><path clip-path="url(#clip870)" d="M1190.28 1547.87 L1190.28 1550.99 L1160.91 1550.99 Q1161.32 1557.59 1164.87 1561.06 Q1168.44 1564.5 1174.8 1564.5 Q1178.48 1564.5 1181.91 1563.6 Q1185.39 1562.69 1188.79 1560.89 L1188.79 1566.93 Q1185.35 1568.39 1181.74 1569.15 Q1178.13 1569.91 1174.41 1569.91 Q1165.11 1569.91 1159.66 1564.5 Q1154.24 1559.08 1154.24 1549.85 Q1154.24 1540.3 1159.38 1534.71 Q1164.55 1529.08 1173.3 1529.08 Q1181.15 1529.08 1185.7 1534.15 Q1190.28 1539.19 1190.28 1547.87 M1183.89 1545.99 Q1183.82 1540.75 1180.94 1537.62 Q1178.1 1534.5 1173.37 1534.5 Q1168.03 1534.5 1164.8 1537.52 Q1161.6 1540.54 1161.12 1546.03 L1183.89 1545.99 Z" fill="#000000" fill-rule="evenodd" fill-opacity="1" /><path clip-path="url(#clip870)" d="M1223.3 1535.99 Q1222.23 1535.37 1220.94 1535.09 Q1219.69 1534.78 1218.16 1534.78 Q1212.75 1534.78 1209.83 1538.32 Q1206.95 1541.82 1206.95 1548.42 L1206.95 1568.91 L1200.53 1568.91 L1200.53 1530.02 L1206.95 1530.02 L1206.95 1536.06 Q1208.96 1532.52 1212.19 1530.82 Q1215.42 1529.08 1220.04 1529.08 Q1220.7 1529.08 1221.5 1529.19 Q1222.3 1529.26 1223.27 1529.43 L1223.3 1535.99 Z" fill="#000000" fill-rule="evenodd" fill-opacity="1" /><path clip-path="url(#clip870)" d="M1247.68 1549.36 Q1239.94 1549.36 1236.95 1551.13 Q1233.96 1552.9 1233.96 1557.17 Q1233.96 1560.57 1236.19 1562.59 Q1238.44 1564.57 1242.3 1564.57 Q1247.61 1564.57 1250.8 1560.82 Q1254.03 1557.03 1254.03 1550.78 L1254.03 1549.36 L1247.68 1549.36 M1260.42 1546.72 L1260.42 1568.91 L1254.03 1568.91 L1254.03 1563.01 Q1251.85 1566.55 1248.58 1568.25 Q1245.32 1569.91 1240.6 1569.91 Q1234.62 1569.91 1231.08 1566.58 Q1227.57 1563.21 1227.57 1557.59 Q1227.57 1551.03 1231.95 1547.69 Q1236.36 1544.36 1245.07 1544.36 L1254.03 1544.36 L1254.03 1543.73 Q1254.03 1539.32 1251.12 1536.93 Q1248.23 1534.5 1242.99 1534.5 Q1239.66 1534.5 1236.5 1535.3 Q1233.34 1536.1 1230.42 1537.69 L1230.42 1531.79 Q1233.93 1530.44 1237.23 1529.78 Q1240.53 1529.08 1243.65 1529.08 Q1252.09 1529.08 1256.25 1533.46 Q1260.42 1537.83 1260.42 1546.72 Z" fill="#000000" fill-rule="evenodd" fill-opacity="1" /><path clip-path="url(#clip870)" d="M1279.9 1518.98 L1279.9 1530.02 L1293.06 1530.02 L1293.06 1534.98 L1279.9 1534.98 L1279.9 1556.1 Q1279.9 1560.85 1281.19 1562.21 Q1282.5 1563.56 1286.5 1563.56 L1293.06 1563.56 L1293.06 1568.91 L1286.5 1568.91 Q1279.1 1568.91 1276.29 1566.16 Q1273.48 1563.39 1273.48 1556.1 L1273.48 1534.98 L1268.79 1534.98 L1268.79 1530.02 L1273.48 1530.02 L1273.48 1518.98 L1279.9 1518.98 Z" fill="#000000" fill-rule="evenodd" fill-opacity="1" /><path clip-path="url(#clip870)" d="M1301.46 1530.02 L1307.85 1530.02 L1307.85 1568.91 L1301.46 1568.91 L1301.46 1530.02 M1301.46 1514.88 L1307.85 1514.88 L1307.85 1522.97 L1301.46 1522.97 L1301.46 1514.88 Z" fill="#000000" fill-rule="evenodd" fill-opacity="1" /><path clip-path="url(#clip870)" d="M1336.29 1534.5 Q1331.15 1534.5 1328.16 1538.53 Q1325.18 1542.52 1325.18 1549.5 Q1325.18 1556.48 1328.13 1560.51 Q1331.12 1564.5 1336.29 1564.5 Q1341.39 1564.5 1344.38 1560.47 Q1347.37 1556.44 1347.37 1549.5 Q1347.37 1542.59 1344.38 1538.56 Q1341.39 1534.5 1336.29 1534.5 M1336.29 1529.08 Q1344.62 1529.08 1349.38 1534.5 Q1354.14 1539.91 1354.14 1549.5 Q1354.14 1559.05 1349.38 1564.5 Q1344.62 1569.91 1336.29 1569.91 Q1327.92 1569.91 1323.16 1564.5 Q1318.44 1559.05 1318.44 1549.5 Q1318.44 1539.91 1323.16 1534.5 Q1327.92 1529.08 1336.29 1529.08 Z" fill="#000000" fill-rule="evenodd" fill-opacity="1" /><path clip-path="url(#clip870)" d="M1397.05 1545.44 L1397.05 1568.91 L1390.66 1568.91 L1390.66 1545.64 Q1390.66 1540.12 1388.51 1537.38 Q1386.36 1534.64 1382.05 1534.64 Q1376.88 1534.64 1373.89 1537.94 Q1370.91 1541.23 1370.91 1546.93 L1370.91 1568.91 L1364.48 1568.91 L1364.48 1530.02 L1370.91 1530.02 L1370.91 1536.06 Q1373.2 1532.55 1376.29 1530.82 Q1379.41 1529.08 1383.48 1529.08 Q1390.18 1529.08 1393.62 1533.25 Q1397.05 1537.38 1397.05 1545.44 Z" fill="#000000" fill-rule="evenodd" fill-opacity="1" /><path clip-path="url(#clip870)" d="M1434.59 1531.16 L1434.59 1537.21 Q1431.88 1535.82 1428.96 1535.12 Q1426.05 1534.43 1422.92 1534.43 Q1418.16 1534.43 1415.77 1535.89 Q1413.41 1537.35 1413.41 1540.26 Q1413.41 1542.48 1415.11 1543.77 Q1416.81 1545.02 1421.95 1546.16 L1424.14 1546.65 Q1430.94 1548.11 1433.79 1550.78 Q1436.67 1553.42 1436.67 1558.18 Q1436.67 1563.6 1432.36 1566.76 Q1428.09 1569.91 1420.59 1569.91 Q1417.47 1569.91 1414.07 1569.29 Q1410.7 1568.7 1406.95 1567.48 L1406.95 1560.89 Q1410.49 1562.73 1413.93 1563.66 Q1417.37 1564.57 1420.73 1564.57 Q1425.25 1564.57 1427.68 1563.04 Q1430.11 1561.48 1430.11 1558.66 Q1430.11 1556.06 1428.34 1554.67 Q1426.6 1553.28 1420.66 1552 L1418.44 1551.48 Q1412.5 1550.23 1409.87 1547.66 Q1407.23 1545.05 1407.23 1540.54 Q1407.23 1535.05 1411.12 1532.07 Q1415 1529.08 1422.16 1529.08 Q1425.7 1529.08 1428.82 1529.6 Q1431.95 1530.12 1434.59 1531.16 Z" fill="#000000" fill-rule="evenodd" fill-opacity="1" /><polyline clip-path="url(#clip872)" style="stroke:#000000; stroke-linecap:round; stroke-linejoin:round; stroke-width:2; stroke-opacity:0.1; fill:none" points="
  192.358,1410.6 2352.76,1410.6 
  "/>
<polyline clip-path="url(#clip872)" style="stroke:#000000; stroke-linecap:round; stroke-linejoin:round; stroke-width:2; stroke-opacity:0.1; fill:none" points="
  192.358,1081.51 2352.76,1081.51 
  "/>
<polyline clip-path="url(#clip872)" style="stroke:#000000; stroke-linecap:round; stroke-linejoin:round; stroke-width:2; stroke-opacity:0.1; fill:none" points="
  192.358,752.406 2352.76,752.406 
  "/>
<polyline clip-path="url(#clip872)" style="stroke:#000000; stroke-linecap:round; stroke-linejoin:round; stroke-width:2; stroke-opacity:0.1; fill:none" points="
  192.358,423.307 2352.76,423.307 
  "/>
<polyline clip-path="url(#clip872)" style="stroke:#000000; stroke-linecap:round; stroke-linejoin:round; stroke-width:2; stroke-opacity:0.1; fill:none" points="
  192.358,94.2078 2352.76,94.2078 
  "/>
<polyline clip-path="url(#clip870)" style="stroke:#000000; stroke-linecap:round; stroke-linejoin:round; stroke-width:4; stroke-opacity:1; fill:none" points="
  192.358,1418.86 192.358,47.2441 
  "/>
<polyline clip-path="url(#clip870)" style="stroke:#000000; stroke-linecap:round; stroke-linejoin:round; stroke-width:4; stroke-opacity:1; fill:none" points="
  192.358,1410.6 211.255,1410.6 
  "/>
<polyline clip-path="url(#clip870)" style="stroke:#000000; stroke-linecap:round; stroke-linejoin:round; stroke-width:4; stroke-opacity:1; fill:none" points="
  192.358,1081.51 211.255,1081.51 
  "/>
<polyline clip-path="url(#clip870)" style="stroke:#000000; stroke-linecap:round; stroke-linejoin:round; stroke-width:4; stroke-opacity:1; fill:none" points="
  192.358,752.406 211.255,752.406 
  "/>
<polyline clip-path="url(#clip870)" style="stroke:#000000; stroke-linecap:round; stroke-linejoin:round; stroke-width:4; stroke-opacity:1; fill:none" points="
  192.358,423.307 211.255,423.307 
  "/>
<polyline clip-path="url(#clip870)" style="stroke:#000000; stroke-linecap:round; stroke-linejoin:round; stroke-width:4; stroke-opacity:1; fill:none" points="
  192.358,94.2078 211.255,94.2078 
  "/>
<path clip-path="url(#clip870)" d="M131.879 1430.62 L156.358 1430.62 L156.358 1436.52 L123.441 1436.52 L123.441 1430.62 Q127.434 1426.49 134.309 1419.55 Q141.219 1412.57 142.99 1410.55 Q146.358 1406.77 147.677 1404.16 Q149.031 1401.53 149.031 1398.99 Q149.031 1394.86 146.115 1392.25 Q143.233 1389.65 138.58 1389.65 Q135.281 1389.65 131.601 1390.8 Q127.955 1391.94 123.788 1394.27 L123.788 1387.18 Q128.025 1385.48 131.705 1384.62 Q135.386 1383.75 138.441 1383.75 Q146.497 1383.75 151.288 1387.78 Q156.08 1391.8 156.08 1398.54 Q156.08 1401.73 154.865 1404.62 Q153.684 1407.46 150.524 1411.35 Q149.656 1412.36 145.004 1417.18 Q140.351 1421.98 131.879 1430.62 Z" fill="#000000" fill-rule="evenodd" fill-opacity="1" /><path clip-path="url(#clip870)" d="M145.663 1079.47 Q150.698 1080.55 153.511 1083.95 Q156.358 1087.36 156.358 1092.36 Q156.358 1100.03 151.08 1104.23 Q145.802 1108.43 136.08 1108.43 Q132.816 1108.43 129.344 1107.77 Q125.907 1107.15 122.226 1105.86 L122.226 1099.09 Q125.143 1100.79 128.615 1101.66 Q132.087 1102.53 135.872 1102.53 Q142.469 1102.53 145.906 1099.93 Q149.379 1097.32 149.379 1092.36 Q149.379 1087.77 146.149 1085.2 Q142.955 1082.6 137.226 1082.6 L131.184 1082.6 L131.184 1076.84 L137.504 1076.84 Q142.677 1076.84 145.42 1074.79 Q148.163 1072.7 148.163 1068.81 Q148.163 1064.82 145.316 1062.7 Q142.504 1060.55 137.226 1060.55 Q134.344 1060.55 131.045 1061.18 Q127.747 1061.8 123.788 1063.12 L123.788 1056.87 Q127.781 1055.76 131.254 1055.2 Q134.761 1054.65 137.851 1054.65 Q145.837 1054.65 150.49 1058.29 Q155.142 1061.91 155.142 1068.09 Q155.142 1072.39 152.677 1075.38 Q150.212 1078.33 145.663 1079.47 Z" fill="#000000" fill-rule="evenodd" fill-opacity="1" /><path clip-path="url(#clip870)" d="M141.983 732.597 L124.275 760.271 L141.983 760.271 L141.983 732.597 M140.143 726.486 L148.962 726.486 L148.962 760.271 L156.358 760.271 L156.358 766.104 L148.962 766.104 L148.962 778.326 L141.983 778.326 L141.983 766.104 L118.58 766.104 L118.58 759.333 L140.143 726.486 Z" fill="#000000" fill-rule="evenodd" fill-opacity="1" /><path clip-path="url(#clip870)" d="M125.004 397.387 L152.538 397.387 L152.538 403.29 L131.427 403.29 L131.427 415.998 Q132.955 415.477 134.483 415.234 Q136.011 414.956 137.538 414.956 Q146.219 414.956 151.288 419.713 Q156.358 424.47 156.358 432.595 Q156.358 440.963 151.149 445.616 Q145.941 450.234 136.462 450.234 Q133.198 450.234 129.795 449.678 Q126.427 449.123 122.816 448.012 L122.816 440.963 Q125.941 442.665 129.275 443.498 Q132.608 444.331 136.323 444.331 Q142.33 444.331 145.837 441.172 Q149.344 438.012 149.344 432.595 Q149.344 427.179 145.837 424.019 Q142.33 420.859 136.323 420.859 Q133.511 420.859 130.698 421.484 Q127.92 422.109 125.004 423.429 L125.004 397.387 Z" fill="#000000" fill-rule="evenodd" fill-opacity="1" /><path clip-path="url(#clip870)" d="M139.066 91.4127 Q134.344 91.4127 131.566 94.6419 Q128.823 97.871 128.823 103.496 Q128.823 109.086 131.566 112.35 Q134.344 115.579 139.066 115.579 Q143.788 115.579 146.531 112.35 Q149.309 109.086 149.309 103.496 Q149.309 97.871 146.531 94.6419 Q143.788 91.4127 139.066 91.4127 M152.99 69.4337 L152.99 75.8225 Q150.351 74.5725 147.643 73.9128 Q144.969 73.2531 142.33 73.2531 Q135.386 73.2531 131.705 77.9406 Q128.059 82.628 127.538 92.1072 Q129.587 89.0863 132.677 87.4891 Q135.768 85.8572 139.483 85.8572 Q147.295 85.8572 151.809 90.6141 Q156.358 95.3363 156.358 103.496 Q156.358 111.482 151.636 116.308 Q146.913 121.135 139.066 121.135 Q130.073 121.135 125.316 114.26 Q120.559 107.35 120.559 94.2599 Q120.559 81.9683 126.393 74.6767 Q132.226 67.3503 142.052 67.3503 Q144.691 67.3503 147.365 67.8712 Q150.073 68.392 152.99 69.4337 Z" fill="#000000" fill-rule="evenodd" fill-opacity="1" /><path clip-path="url(#clip870)" d="M22.0978 1004.75 L47.8963 1014.27 L47.8963 995.203 L22.0978 1004.75 M15.1882 1008.71 L15.1882 1000.76 L67.0282 981.002 L67.0282 988.294 L53.7296 993.016 L53.7296 1016.38 L67.0282 1021.11 L67.0282 1028.5 L15.1882 1008.71 Z" fill="#000000" fill-rule="evenodd" fill-opacity="1" /><path clip-path="url(#clip870)" d="M28.1395 982.46 L28.1395 975.69 L60.7782 963.537 L28.1395 951.384 L28.1395 944.613 L67.0282 959.197 L67.0282 967.877 L28.1395 982.46 Z" fill="#000000" fill-rule="evenodd" fill-opacity="1" /><path clip-path="url(#clip870)" d="M45.9866 902.53 L49.1116 902.53 L49.1116 931.905 Q55.7088 931.488 59.181 927.947 Q62.6185 924.37 62.6185 918.016 Q62.6185 914.336 61.7157 910.898 Q60.8129 907.426 59.0074 904.023 L65.049 904.023 Q66.5073 907.461 67.2712 911.072 Q68.0351 914.683 68.0351 918.398 Q68.0351 927.704 62.6185 933.155 Q57.2018 938.572 47.9658 938.572 Q38.4172 938.572 32.827 933.433 Q27.202 928.259 27.202 919.509 Q27.202 911.662 32.2714 907.114 Q37.3061 902.53 45.9866 902.53 M44.1116 908.919 Q38.8686 908.989 35.7436 911.87 Q32.6186 914.718 32.6186 919.44 Q32.6186 924.787 35.6394 928.016 Q38.6603 931.211 44.1463 931.697 L44.1116 908.919 Z" fill="#000000" fill-rule="evenodd" fill-opacity="1" /><path clip-path="url(#clip870)" d="M34.1117 869.51 Q33.4867 870.586 33.2089 871.871 Q32.8964 873.121 32.8964 874.648 Q32.8964 880.065 36.438 882.982 Q39.945 885.864 46.5422 885.864 L67.0282 885.864 L67.0282 892.287 L28.1395 892.287 L28.1395 885.864 L34.1811 885.864 Q30.6395 883.85 28.9381 880.621 Q27.202 877.391 27.202 872.773 Q27.202 872.114 27.3061 871.315 Q27.3756 870.517 27.5492 869.544 L34.1117 869.51 Z" fill="#000000" fill-rule="evenodd" fill-opacity="1" /><path clip-path="url(#clip870)" d="M47.4797 845.135 Q47.4797 852.878 49.2505 855.864 Q51.0213 858.85 55.2921 858.85 Q58.6949 858.85 60.7087 856.628 Q62.6879 854.371 62.6879 850.517 Q62.6879 845.204 58.9379 842.01 Q55.1532 838.781 48.9033 838.781 L47.4797 838.781 L47.4797 845.135 M44.8408 832.392 L67.0282 832.392 L67.0282 838.781 L61.1254 838.781 Q64.6671 840.968 66.3684 844.232 Q68.0351 847.496 68.0351 852.218 Q68.0351 858.19 64.7018 861.732 Q61.3337 865.239 55.7088 865.239 Q49.1463 865.239 45.813 860.864 Q42.4797 856.454 42.4797 847.739 L42.4797 838.781 L41.8547 838.781 Q37.445 838.781 35.0492 841.697 Q32.6186 844.579 32.6186 849.822 Q32.6186 853.155 33.4172 856.315 Q34.2158 859.475 35.813 862.392 L29.9103 862.392 Q28.5561 858.885 27.8964 855.586 Q27.202 852.287 27.202 849.162 Q27.202 840.725 31.577 836.558 Q35.9519 832.392 44.8408 832.392 Z" fill="#000000" fill-rule="evenodd" fill-opacity="1" /><path clip-path="url(#clip870)" d="M47.1324 793.642 Q40.188 793.642 36.3686 796.524 Q32.5492 799.371 32.5492 804.545 Q32.5492 809.684 36.3686 812.565 Q40.188 815.413 47.1324 815.413 Q54.0421 815.413 57.8615 812.565 Q61.681 809.684 61.681 804.545 Q61.681 799.371 57.8615 796.524 Q54.0421 793.642 47.1324 793.642 M62.2018 787.253 Q72.1323 787.253 76.9587 791.663 Q81.8197 796.072 81.8197 805.17 Q81.8197 808.538 81.2989 811.524 Q80.8128 814.51 79.7711 817.322 L73.5559 817.322 Q75.0837 814.51 75.8128 811.767 Q76.542 809.024 76.542 806.177 Q76.542 799.892 73.2434 796.767 Q69.9795 793.642 63.3476 793.642 L60.1879 793.642 Q63.6254 795.621 65.3268 798.711 Q67.0282 801.802 67.0282 806.107 Q67.0282 813.26 61.5768 817.635 Q56.1254 822.01 47.1324 822.01 Q38.1047 822.01 32.6533 817.635 Q27.202 813.26 27.202 806.107 Q27.202 801.802 28.9034 798.711 Q30.6047 795.621 34.0422 793.642 L28.1395 793.642 L28.1395 787.253 L62.2018 787.253 Z" fill="#000000" fill-rule="evenodd" fill-opacity="1" /><path clip-path="url(#clip870)" d="M45.9866 740.83 L49.1116 740.83 L49.1116 770.205 Q55.7088 769.788 59.181 766.246 Q62.6185 762.67 62.6185 756.316 Q62.6185 752.635 61.7157 749.198 Q60.8129 745.726 59.0074 742.323 L65.049 742.323 Q66.5073 745.76 67.2712 749.371 Q68.0351 752.982 68.0351 756.698 Q68.0351 766.003 62.6185 771.455 Q57.2018 776.871 47.9658 776.871 Q38.4172 776.871 32.827 771.732 Q27.202 766.559 27.202 757.809 Q27.202 749.962 32.2714 745.413 Q37.3061 740.83 45.9866 740.83 M44.1116 747.219 Q38.8686 747.288 35.7436 750.17 Q32.6186 753.017 32.6186 757.739 Q32.6186 763.087 35.6394 766.316 Q38.6603 769.51 44.1463 769.996 L44.1116 747.219 Z" fill="#000000" fill-rule="evenodd" fill-opacity="1" /><path clip-path="url(#clip870)" d="M67.0282 694.094 L15.1882 713.885 L15.1882 706.559 L58.8338 690.136 L15.1882 673.677 L15.1882 666.386 L67.0282 686.142 L67.0282 694.094 Z" fill="#000000" fill-rule="evenodd" fill-opacity="1" /><path clip-path="url(#clip870)" d="M45.9866 631.351 L49.1116 631.351 L49.1116 660.726 Q55.7088 660.309 59.181 656.768 Q62.6185 653.191 62.6185 646.837 Q62.6185 643.157 61.7157 639.719 Q60.8129 636.247 59.0074 632.844 L65.049 632.844 Q66.5073 636.282 67.2712 639.893 Q68.0351 643.504 68.0351 647.219 Q68.0351 656.525 62.6185 661.976 Q57.2018 667.393 47.9658 667.393 Q38.4172 667.393 32.827 662.254 Q27.202 657.08 27.202 648.33 Q27.202 640.483 32.2714 635.934 Q37.3061 631.351 45.9866 631.351 M44.1116 637.74 Q38.8686 637.809 35.7436 640.691 Q32.6186 643.539 32.6186 648.261 Q32.6186 653.608 35.6394 656.837 Q38.6603 660.032 44.1463 660.518 L44.1116 637.74 Z" fill="#000000" fill-rule="evenodd" fill-opacity="1" /><path clip-path="url(#clip870)" d="M13.0007 620.865 L13.0007 614.476 L67.0282 614.476 L67.0282 620.865 L13.0007 620.865 Z" fill="#000000" fill-rule="evenodd" fill-opacity="1" /><path clip-path="url(#clip870)" d="M32.6186 586.039 Q32.6186 591.178 36.6464 594.164 Q40.6394 597.15 47.6185 597.15 Q54.5977 597.15 58.6254 594.199 Q62.6185 591.212 62.6185 586.039 Q62.6185 580.935 58.5907 577.949 Q54.5629 574.963 47.6185 574.963 Q40.7089 574.963 36.6811 577.949 Q32.6186 580.935 32.6186 586.039 M27.202 586.039 Q27.202 577.706 32.6186 572.949 Q38.0353 568.192 47.6185 568.192 Q57.1671 568.192 62.6185 572.949 Q68.0351 577.706 68.0351 586.039 Q68.0351 594.407 62.6185 599.164 Q57.1671 603.886 47.6185 603.886 Q38.0353 603.886 32.6186 599.164 Q27.202 594.407 27.202 586.039 Z" fill="#000000" fill-rule="evenodd" fill-opacity="1" /><path clip-path="url(#clip870)" d="M29.6325 529.616 L35.6047 529.616 Q34.1117 532.324 33.3825 535.067 Q32.6186 537.775 32.6186 540.553 Q32.6186 546.768 36.5769 550.206 Q40.5005 553.643 47.6185 553.643 Q54.7366 553.643 58.6949 550.206 Q62.6185 546.768 62.6185 540.553 Q62.6185 537.775 61.8893 535.067 Q61.1254 532.324 59.6324 529.616 L65.5351 529.616 Q66.7851 532.289 67.4101 535.171 Q68.0351 538.018 68.0351 541.247 Q68.0351 550.032 62.5143 555.206 Q56.9935 560.379 47.6185 560.379 Q38.1047 560.379 32.6533 555.171 Q27.202 549.928 27.202 540.831 Q27.202 537.879 27.827 535.067 Q28.4173 532.254 29.6325 529.616 Z" fill="#000000" fill-rule="evenodd" fill-opacity="1" /><path clip-path="url(#clip870)" d="M28.1395 518.505 L28.1395 512.116 L67.0282 512.116 L67.0282 518.505 L28.1395 518.505 M13.0007 518.505 L13.0007 512.116 L21.0909 512.116 L21.0909 518.505 L13.0007 518.505 Z" fill="#000000" fill-rule="evenodd" fill-opacity="1" /><path clip-path="url(#clip870)" d="M17.0979 492.428 L28.1395 492.428 L28.1395 479.269 L33.1047 479.269 L33.1047 492.428 L54.2157 492.428 Q58.9726 492.428 60.3268 491.144 Q61.681 489.824 61.681 485.831 L61.681 479.269 L67.0282 479.269 L67.0282 485.831 Q67.0282 493.227 64.2851 496.039 Q61.5074 498.852 54.2157 498.852 L33.1047 498.852 L33.1047 503.539 L28.1395 503.539 L28.1395 498.852 L17.0979 498.852 L17.0979 492.428 Z" fill="#000000" fill-rule="evenodd" fill-opacity="1" /><path clip-path="url(#clip870)" d="M70.6392 454.685 Q77.5837 457.394 79.7017 459.963 Q81.8197 462.533 81.8197 466.838 L81.8197 471.942 L76.4726 471.942 L76.4726 468.192 Q76.4726 465.553 75.2226 464.095 Q73.9726 462.637 69.3198 460.866 L66.4032 459.72 L28.1395 475.449 L28.1395 468.678 L58.556 456.526 L28.1395 444.373 L28.1395 437.602 L70.6392 454.685 Z" fill="#000000" fill-rule="evenodd" fill-opacity="1" /><polyline clip-path="url(#clip872)" style="stroke:#009af9; stroke-linecap:round; stroke-linejoin:round; stroke-width:4; stroke-opacity:1; fill:none" points="
  349.251,1002.73 362.93,978.996 376.608,1345.22 390.287,1380.04 403.966,1341.71 417.644,1342.61 431.323,1270.01 445.001,1244.71 458.68,1229.53 472.359,1229.94 
  486.037,1205.13 499.716,1218.62 513.394,1288.18 527.073,1270.91 540.752,1163.87 554.43,1171.59 568.109,1197.07 581.787,1194.3 595.466,1189.18 609.145,1173.12 
  622.823,1213.03 636.502,1209.46 650.18,1186.17 663.859,1188.21 677.538,1140.32 691.216,1160.83 704.895,1178.55 718.573,1172.34 732.252,1153.19 745.931,1183.08 
  759.609,1166.14 773.288,1158.82 786.966,1122.41 800.645,1162.9 814.324,1155.32 828.002,1143.32 841.681,1159.91 855.36,1191.25 869.038,1154.66 882.717,1178.78 
  896.395,1172.6 910.074,1177.31 923.753,1148.9 937.431,1117.14 951.11,1126.74 964.788,1139.03 978.467,1120.64 992.146,1156.44 1005.82,1167.58 1019.5,1182.52 
  1033.18,1154.96 1046.86,1159.26 1060.54,1130.02 1074.22,1131.17 1087.9,1159.29 1101.57,1158.25 1115.25,1133.95 1128.93,1141.16 1142.61,1150.44 1156.29,1147.81 
  1169.97,1169.57 1183.65,1151.55 1197.32,1115.94 1211,1130.59 1224.68,1149.76 1238.36,1144.82 1252.04,1131.47 1265.72,1136.14 1279.4,1182.25 1293.07,1175.08 
  1306.75,1192.55 1320.43,1150.54 1334.11,1145.1 1347.79,1130.74 1361.47,1133.05 1375.15,1125.03 1388.82,1137.05 1402.5,1165.9 1416.18,1154.4 1429.86,1153.68 
  1443.54,1131.55 1457.22,1124.79 1470.9,1121.97 1484.58,1159.25 1498.25,1155.74 1511.93,1161.27 1525.61,1144.64 1539.29,1179.83 1552.97,1158.47 1566.65,1135.02 
  1580.33,1167.38 1594,1169 1607.68,1155.47 1621.36,1146.97 1635.04,1162.84 1648.72,1163.13 1662.4,1146.63 1676.08,1172.61 1689.75,1174.31 1703.43,1194.66 
  1717.11,1228.45 1730.79,1243.95 1744.47,1216.98 1758.15,1151.15 1771.83,1179.84 1785.5,1136.68 1799.18,1233.38 1812.86,1197 1826.54,1153.33 1840.22,1172.09 
  1853.9,1191.01 1867.58,1160.51 1881.25,1125.61 1894.93,1140.01 1908.61,1114.89 1922.29,1156.92 1935.97,1126.64 1949.65,1140.42 1963.33,1132.53 1977,1119.12 
  1990.68,1143.67 2004.36,1143.97 2018.04,1146.09 2031.72,1125.97 2045.4,1119.83 2059.08,1101.37 2072.75,1132.22 2086.43,1093.9 2100.11,1090.11 2113.79,1123.8 
  2127.47,1123.27 2141.15,1137.34 2154.83,1145.45 2168.51,1147.89 2182.18,1148.06 2195.86,1137.76 2209.54,1140.62 2223.22,1135.39 2236.9,1135.97 2250.58,1106.64 
  2264.26,1098.9 2277.93,1118.86 2291.61,1118.57 
  "/>
<polyline clip-path="url(#clip872)" style="stroke:#ffa500; stroke-linecap:round; stroke-linejoin:round; stroke-width:4; stroke-opacity:1; fill:none" points="
  253.501,1153.2 267.18,920.829 280.858,814.061 294.537,717.64 308.215,659.646 321.894,607.147 335.573,591.595 349.251,571.334 362.93,571.268 376.608,580.395 
  390.287,620.967 403.966,512.817 417.644,439.184 431.323,441.769 445.001,495.28 458.68,547.068 472.359,518.346 486.037,492.465 499.716,460.745 513.394,411.573 
  527.073,453.124 540.752,393.919 554.43,441.259 568.109,403.346 581.787,393.957 595.466,383.304 609.145,413.584 622.823,365.515 636.502,346.403 650.18,399.913 
  663.859,395.098 677.538,396.095 691.216,373.487 704.895,430.973 718.573,472.268 732.252,391.303 745.931,462.405 759.609,326.325 773.288,341.528 786.966,436.498 
  800.645,326.266 814.324,366.606 828.002,338.793 841.681,311.587 855.36,269.586 869.038,280.453 882.717,272.324 896.395,265.389 910.074,309.251 923.753,261.089 
  937.431,280.269 951.11,236.454 964.788,301.917 978.467,322.51 992.146,293.084 1005.82,252.309 1019.5,221.039 1033.18,226.471 1046.86,281.319 1060.54,252.382 
  1074.22,277.421 1087.9,299.831 1101.57,265.768 1115.25,281.871 1128.93,209.448 1142.61,231.437 1156.29,317.214 1169.97,263.694 1183.65,267.865 1197.32,203.368 
  1211,293.949 1224.68,214.434 1238.36,265.091 1252.04,244.44 1265.72,271.092 1279.4,264.107 1293.07,332.656 1306.75,261.902 1320.43,355.228 1334.11,308.976 
  1347.79,233.468 1361.47,227.23 1375.15,192.184 1388.82,266.847 1402.5,253.163 1416.18,271.001 1429.86,283.559 1443.54,267.555 1457.22,303.47 1470.9,276.806 
  1484.58,274.668 1498.25,401.66 1511.93,309.16 1525.61,281.605 1539.29,357.825 1552.97,373.295 1566.65,292.541 1580.33,276.115 1594,184.635 1607.68,210.379 
  1621.36,203.917 1635.04,284.289 1648.72,271.745 1662.4,198.899 1676.08,250.291 1689.75,203.025 1703.43,272.544 1717.11,236.282 1730.79,215.894 1744.47,255.039 
  1758.15,189.348 1771.83,227.253 1785.5,240.062 1799.18,275.852 1812.86,244.472 1826.54,260.576 1840.22,226.516 1853.9,128.227 1867.58,192.112 1881.25,190.153 
  1894.93,206.418 1908.61,209.041 1922.29,255.189 1935.97,141.634 1949.65,198.02 1963.33,132.748 1977,108.08 1990.68,279.987 2004.36,168.199 2018.04,254.382 
  2031.72,211.57 2045.4,235.927 2059.08,222.721 2072.75,266.912 2086.43,171.522 2100.11,162.281 2113.79,188.09 2127.47,147.656 2141.15,241.301 2154.83,144.649 
  2168.51,135.128 2182.18,86.0634 2195.86,172.336 2209.54,236.925 2223.22,175.536 2236.9,151.945 2250.58,157.45 2264.26,181.023 2277.93,165.918 2291.61,227.307 
  
  "/>
<path clip-path="url(#clip870)" d="
M1689.6 856.532 L2280.74 856.532 L2280.74 623.252 L1689.6 623.252  Z
  " fill="#ffffff" fill-rule="evenodd" fill-opacity="1"/>
<polyline clip-path="url(#clip870)" style="stroke:#000000; stroke-linecap:round; stroke-linejoin:round; stroke-width:4; stroke-opacity:1; fill:none" points="
  1689.6,856.532 2280.74,856.532 2280.74,623.252 1689.6,623.252 1689.6,856.532 
  "/>
<polyline clip-path="url(#clip870)" style="stroke:#009af9; stroke-linecap:round; stroke-linejoin:round; stroke-width:6; stroke-opacity:1; fill:none" points="
  1713.61,701.012 1857.63,701.012 
  "/>
<path clip-path="url(#clip870)" d="M1909.27 689.19 L1909.27 695.231 Q1906.57 693.842 1903.65 693.148 Q1900.73 692.454 1897.61 692.454 Q1892.85 692.454 1890.46 693.912 Q1888.09 695.37 1888.09 698.287 Q1888.09 700.509 1889.8 701.794 Q1891.5 703.044 1896.64 704.19 L1898.82 704.676 Q1905.63 706.134 1908.48 708.808 Q1911.36 711.446 1911.36 716.203 Q1911.36 721.62 1907.05 724.78 Q1902.78 727.939 1895.28 727.939 Q1892.16 727.939 1888.75 727.314 Q1885.39 726.724 1881.64 725.509 L1881.64 718.912 Q1885.18 720.752 1888.62 721.689 Q1892.05 722.592 1895.42 722.592 Q1899.93 722.592 1902.37 721.064 Q1904.8 719.502 1904.8 716.689 Q1904.8 714.085 1903.02 712.696 Q1901.29 711.308 1895.35 710.023 L1893.13 709.502 Q1887.19 708.252 1884.55 705.683 Q1881.91 703.078 1881.91 698.565 Q1881.91 693.079 1885.8 690.092 Q1889.69 687.106 1896.84 687.106 Q1900.39 687.106 1903.51 687.627 Q1906.64 688.148 1909.27 689.19 Z" fill="#000000" fill-rule="evenodd" fill-opacity="1" /><path clip-path="url(#clip870)" d="M1921.53 672.905 L1927.92 672.905 L1927.92 726.932 L1921.53 726.932 L1921.53 672.905 Z" fill="#000000" fill-rule="evenodd" fill-opacity="1" /><path clip-path="url(#clip870)" d="M1956.36 692.523 Q1951.22 692.523 1948.23 696.551 Q1945.25 700.544 1945.25 707.523 Q1945.25 714.502 1948.2 718.53 Q1951.18 722.523 1956.36 722.523 Q1961.46 722.523 1964.45 718.495 Q1967.43 714.467 1967.43 707.523 Q1967.43 700.613 1964.45 696.585 Q1961.46 692.523 1956.36 692.523 M1956.36 687.106 Q1964.69 687.106 1969.45 692.523 Q1974.21 697.94 1974.21 707.523 Q1974.21 717.071 1969.45 722.523 Q1964.69 727.939 1956.36 727.939 Q1947.99 727.939 1943.23 722.523 Q1938.51 717.071 1938.51 707.523 Q1938.51 697.94 1943.23 692.523 Q1947.99 687.106 1956.36 687.106 Z" fill="#000000" fill-rule="evenodd" fill-opacity="1" /><path clip-path="url(#clip870)" d="M1981.08 688.044 L1987.47 688.044 L1995.45 718.391 L2003.41 688.044 L2010.94 688.044 L2018.93 718.391 L2026.88 688.044 L2033.27 688.044 L2023.09 726.932 L2015.56 726.932 L2007.19 695.058 L1998.79 726.932 L1991.25 726.932 L1981.08 688.044 Z" fill="#000000" fill-rule="evenodd" fill-opacity="1" /><path clip-path="url(#clip870)" d="M2095.84 695.509 Q2098.23 691.204 2101.57 689.155 Q2104.9 687.106 2109.41 687.106 Q2115.49 687.106 2118.79 691.377 Q2122.09 695.613 2122.09 703.46 L2122.09 726.932 L2115.66 726.932 L2115.66 703.669 Q2115.66 698.078 2113.68 695.37 Q2111.7 692.662 2107.64 692.662 Q2102.68 692.662 2099.79 695.96 Q2096.91 699.259 2096.91 704.953 L2096.91 726.932 L2090.49 726.932 L2090.49 703.669 Q2090.49 698.044 2088.51 695.37 Q2086.53 692.662 2082.4 692.662 Q2077.5 692.662 2074.62 695.995 Q2071.74 699.294 2071.74 704.953 L2071.74 726.932 L2065.32 726.932 L2065.32 688.044 L2071.74 688.044 L2071.74 694.085 Q2073.93 690.509 2076.98 688.808 Q2080.04 687.106 2084.24 687.106 Q2088.48 687.106 2091.43 689.259 Q2094.41 691.412 2095.84 695.509 Z" fill="#000000" fill-rule="evenodd" fill-opacity="1" /><path clip-path="url(#clip870)" d="M2149.9 692.523 Q2144.76 692.523 2141.77 696.551 Q2138.79 700.544 2138.79 707.523 Q2138.79 714.502 2141.74 718.53 Q2144.72 722.523 2149.9 722.523 Q2155 722.523 2157.99 718.495 Q2160.97 714.467 2160.97 707.523 Q2160.97 700.613 2157.99 696.585 Q2155 692.523 2149.9 692.523 M2149.9 687.106 Q2158.23 687.106 2162.99 692.523 Q2167.75 697.94 2167.75 707.523 Q2167.75 717.071 2162.99 722.523 Q2158.23 727.939 2149.9 727.939 Q2141.53 727.939 2136.77 722.523 Q2132.05 717.071 2132.05 707.523 Q2132.05 697.94 2136.77 692.523 Q2141.53 687.106 2149.9 687.106 Z" fill="#000000" fill-rule="evenodd" fill-opacity="1" /><path clip-path="url(#clip870)" d="M2203.93 693.947 L2203.93 672.905 L2210.31 672.905 L2210.31 726.932 L2203.93 726.932 L2203.93 721.099 Q2201.91 724.571 2198.82 726.273 Q2195.77 727.939 2191.46 727.939 Q2184.41 727.939 2179.97 722.314 Q2175.56 716.689 2175.56 707.523 Q2175.56 698.356 2179.97 692.731 Q2184.41 687.106 2191.46 687.106 Q2195.77 687.106 2198.82 688.808 Q2201.91 690.474 2203.93 693.947 M2182.16 707.523 Q2182.16 714.571 2185.04 718.599 Q2187.95 722.592 2193.02 722.592 Q2198.09 722.592 2201.01 718.599 Q2203.93 714.571 2203.93 707.523 Q2203.93 700.474 2201.01 696.481 Q2198.09 692.454 2193.02 692.454 Q2187.95 692.454 2185.04 696.481 Q2182.16 700.474 2182.16 707.523 Z" fill="#000000" fill-rule="evenodd" fill-opacity="1" /><path clip-path="url(#clip870)" d="M2256.74 705.891 L2256.74 709.016 L2227.36 709.016 Q2227.78 715.613 2231.32 719.085 Q2234.9 722.523 2241.25 722.523 Q2244.93 722.523 2248.37 721.62 Q2251.84 720.717 2255.25 718.912 L2255.25 724.953 Q2251.81 726.412 2248.2 727.176 Q2244.59 727.939 2240.87 727.939 Q2231.56 727.939 2226.11 722.523 Q2220.7 717.106 2220.7 707.87 Q2220.7 698.322 2225.84 692.731 Q2231.01 687.106 2239.76 687.106 Q2247.61 687.106 2252.15 692.176 Q2256.74 697.21 2256.74 705.891 M2250.35 704.016 Q2250.28 698.773 2247.4 695.648 Q2244.55 692.523 2239.83 692.523 Q2234.48 692.523 2231.25 695.544 Q2228.06 698.565 2227.57 704.051 L2250.35 704.016 Z" fill="#000000" fill-rule="evenodd" fill-opacity="1" /><polyline clip-path="url(#clip870)" style="stroke:#ffa500; stroke-linecap:round; stroke-linejoin:round; stroke-width:6; stroke-opacity:1; fill:none" points="
  1713.61,778.772 1857.63,778.772 
  "/>
<path clip-path="url(#clip870)" d="M1906.39 750.665 L1906.39 755.977 L1900.28 755.977 Q1896.84 755.977 1895.49 757.366 Q1894.17 758.755 1894.17 762.366 L1894.17 765.804 L1904.69 765.804 L1904.69 770.769 L1894.17 770.769 L1894.17 804.692 L1887.75 804.692 L1887.75 770.769 L1881.64 770.769 L1881.64 765.804 L1887.75 765.804 L1887.75 763.095 Q1887.75 756.602 1890.77 753.651 Q1893.79 750.665 1900.35 750.665 L1906.39 750.665 Z" fill="#000000" fill-rule="evenodd" fill-opacity="1" /><path clip-path="url(#clip870)" d="M1929.41 785.144 Q1921.67 785.144 1918.68 786.915 Q1915.7 788.686 1915.7 792.956 Q1915.7 796.359 1917.92 798.373 Q1920.18 800.352 1924.03 800.352 Q1929.34 800.352 1932.54 796.602 Q1935.77 792.818 1935.77 786.568 L1935.77 785.144 L1929.41 785.144 M1942.16 782.505 L1942.16 804.692 L1935.77 804.692 L1935.77 798.79 Q1933.58 802.331 1930.32 804.033 Q1927.05 805.699 1922.33 805.699 Q1916.36 805.699 1912.82 802.366 Q1909.31 798.998 1909.31 793.373 Q1909.31 786.811 1913.68 783.477 Q1918.09 780.144 1926.81 780.144 L1935.77 780.144 L1935.77 779.519 Q1935.77 775.109 1932.85 772.713 Q1929.97 770.283 1924.73 770.283 Q1921.39 770.283 1918.23 771.082 Q1915.07 771.88 1912.16 773.477 L1912.16 767.575 Q1915.66 766.22 1918.96 765.561 Q1922.26 764.866 1925.39 764.866 Q1933.82 764.866 1937.99 769.241 Q1942.16 773.616 1942.16 782.505 Z" fill="#000000" fill-rule="evenodd" fill-opacity="1" /><path clip-path="url(#clip870)" d="M1980.11 766.95 L1980.11 772.991 Q1977.4 771.602 1974.48 770.908 Q1971.57 770.214 1968.44 770.214 Q1963.68 770.214 1961.29 771.672 Q1958.93 773.13 1958.93 776.047 Q1958.93 778.269 1960.63 779.554 Q1962.33 780.804 1967.47 781.95 L1969.66 782.436 Q1976.46 783.894 1979.31 786.568 Q1982.19 789.206 1982.19 793.963 Q1982.19 799.38 1977.89 802.54 Q1973.61 805.699 1966.11 805.699 Q1962.99 805.699 1959.59 805.074 Q1956.22 804.484 1952.47 803.269 L1952.47 796.672 Q1956.01 798.512 1959.45 799.449 Q1962.89 800.352 1966.25 800.352 Q1970.77 800.352 1973.2 798.824 Q1975.63 797.262 1975.63 794.449 Q1975.63 791.845 1973.86 790.456 Q1972.12 789.068 1966.18 787.783 L1963.96 787.262 Q1958.02 786.012 1955.39 783.443 Q1952.75 780.838 1952.75 776.325 Q1952.75 770.839 1956.64 767.852 Q1960.52 764.866 1967.68 764.866 Q1971.22 764.866 1974.34 765.387 Q1977.47 765.908 1980.11 766.95 Z" fill="#000000" fill-rule="evenodd" fill-opacity="1" /><path clip-path="url(#clip870)" d="M1998.68 754.762 L1998.68 765.804 L2011.84 765.804 L2011.84 770.769 L1998.68 770.769 L1998.68 791.88 Q1998.68 796.637 1999.97 797.991 Q2001.29 799.345 2005.28 799.345 L2011.84 799.345 L2011.84 804.692 L2005.28 804.692 Q1997.89 804.692 1995.07 801.949 Q1992.26 799.172 1992.26 791.88 L1992.26 770.769 L1987.57 770.769 L1987.57 765.804 L1992.26 765.804 L1992.26 754.762 L1998.68 754.762 Z" fill="#000000" fill-rule="evenodd" fill-opacity="1" /><path clip-path="url(#clip870)" d="M2073.13 773.269 Q2075.52 768.964 2078.86 766.915 Q2082.19 764.866 2086.7 764.866 Q2092.78 764.866 2096.08 769.137 Q2099.38 773.373 2099.38 781.22 L2099.38 804.692 L2092.95 804.692 L2092.95 781.429 Q2092.95 775.838 2090.98 773.13 Q2089 770.422 2084.93 770.422 Q2079.97 770.422 2077.09 773.72 Q2074.2 777.019 2074.2 782.713 L2074.2 804.692 L2067.78 804.692 L2067.78 781.429 Q2067.78 775.804 2065.8 773.13 Q2063.82 770.422 2059.69 770.422 Q2054.79 770.422 2051.91 773.755 Q2049.03 777.054 2049.03 782.713 L2049.03 804.692 L2042.61 804.692 L2042.61 765.804 L2049.03 765.804 L2049.03 771.845 Q2051.22 768.269 2054.27 766.568 Q2057.33 764.866 2061.53 764.866 Q2065.77 764.866 2068.72 767.019 Q2071.7 769.172 2073.13 773.269 Z" fill="#000000" fill-rule="evenodd" fill-opacity="1" /><path clip-path="url(#clip870)" d="M2127.19 770.283 Q2122.05 770.283 2119.07 774.311 Q2116.08 778.304 2116.08 785.283 Q2116.08 792.262 2119.03 796.29 Q2122.02 800.283 2127.19 800.283 Q2132.29 800.283 2135.28 796.255 Q2138.27 792.227 2138.27 785.283 Q2138.27 778.373 2135.28 774.345 Q2132.29 770.283 2127.19 770.283 M2127.19 764.866 Q2135.52 764.866 2140.28 770.283 Q2145.04 775.7 2145.04 785.283 Q2145.04 794.831 2140.28 800.283 Q2135.52 805.699 2127.19 805.699 Q2118.82 805.699 2114.07 800.283 Q2109.34 794.831 2109.34 785.283 Q2109.34 775.7 2114.07 770.283 Q2118.82 764.866 2127.19 764.866 Z" fill="#000000" fill-rule="evenodd" fill-opacity="1" /><path clip-path="url(#clip870)" d="M2181.22 771.707 L2181.22 750.665 L2187.61 750.665 L2187.61 804.692 L2181.22 804.692 L2181.22 798.859 Q2179.2 802.331 2176.11 804.033 Q2173.06 805.699 2168.75 805.699 Q2161.7 805.699 2157.26 800.074 Q2152.85 794.449 2152.85 785.283 Q2152.85 776.116 2157.26 770.491 Q2161.7 764.866 2168.75 764.866 Q2173.06 764.866 2176.11 766.568 Q2179.2 768.234 2181.22 771.707 M2159.45 785.283 Q2159.45 792.331 2162.33 796.359 Q2165.25 800.352 2170.32 800.352 Q2175.38 800.352 2178.3 796.359 Q2181.22 792.331 2181.22 785.283 Q2181.22 778.234 2178.3 774.241 Q2175.38 770.214 2170.32 770.214 Q2165.25 770.214 2162.33 774.241 Q2159.45 778.234 2159.45 785.283 Z" fill="#000000" fill-rule="evenodd" fill-opacity="1" /><path clip-path="url(#clip870)" d="M2234.03 783.651 L2234.03 786.776 L2204.66 786.776 Q2205.07 793.373 2208.61 796.845 Q2212.19 800.283 2218.54 800.283 Q2222.22 800.283 2225.66 799.38 Q2229.13 798.477 2232.54 796.672 L2232.54 802.713 Q2229.1 804.172 2225.49 804.936 Q2221.88 805.699 2218.16 805.699 Q2208.86 805.699 2203.41 800.283 Q2197.99 794.866 2197.99 785.63 Q2197.99 776.082 2203.13 770.491 Q2208.3 764.866 2217.05 764.866 Q2224.9 764.866 2229.45 769.936 Q2234.03 774.97 2234.03 783.651 M2227.64 781.776 Q2227.57 776.533 2224.69 773.408 Q2221.84 770.283 2217.12 770.283 Q2211.77 770.283 2208.54 773.304 Q2205.35 776.325 2204.86 781.811 L2227.64 781.776 Z" fill="#000000" fill-rule="evenodd" fill-opacity="1" /></svg>
