<?xml version="1.0" encoding="utf-8"?>
<svg xmlns="http://www.w3.org/2000/svg" xmlns:xlink="http://www.w3.org/1999/xlink" width="600" height="400" viewBox="0 0 2400 1600">
<defs>
  <clipPath id="clip630">
    <rect x="0" y="0" width="2400" height="1600"/>
  </clipPath>
</defs>
<path clip-path="url(#clip630)" d="
M0 1600 L2400 1600 L2400 0 L0 0  Z
  " fill="#ffffff" fill-rule="evenodd" fill-opacity="1"/>
<defs>
  <clipPath id="clip631">
    <rect x="480" y="0" width="1681" height="1600"/>
  </clipPath>
</defs>
<path clip-path="url(#clip630)" d="
M277.774 1418.86 L2352.76 1418.86 L2352.76 47.2441 L277.774 47.2441  Z
  " fill="#ffffff" fill-rule="evenodd" fill-opacity="1"/>
<defs>
  <clipPath id="clip632">
    <rect x="277" y="47" width="2076" height="1373"/>
  </clipPath>
</defs>
<polyline clip-path="url(#clip632)" style="stroke:#000000; stroke-linecap:round; stroke-linejoin:round; stroke-width:2; stroke-opacity:0.1; fill:none" points="
  323.362,1418.86 323.362,47.2441 
  "/>
<polyline clip-path="url(#clip632)" style="stroke:#000000; stroke-linecap:round; stroke-linejoin:round; stroke-width:2; stroke-opacity:0.1; fill:none" points="
  651.807,1418.86 651.807,47.2441 
  "/>
<polyline clip-path="url(#clip632)" style="stroke:#000000; stroke-linecap:round; stroke-linejoin:round; stroke-width:2; stroke-opacity:0.1; fill:none" points="
  980.251,1418.86 980.251,47.2441 
  "/>
<polyline clip-path="url(#clip632)" style="stroke:#000000; stroke-linecap:round; stroke-linejoin:round; stroke-width:2; stroke-opacity:0.1; fill:none" points="
  1308.7,1418.86 1308.7,47.2441 
  "/>
<polyline clip-path="url(#clip632)" style="stroke:#000000; stroke-linecap:round; stroke-linejoin:round; stroke-width:2; stroke-opacity:0.1; fill:none" points="
  1637.14,1418.86 1637.14,47.2441 
  "/>
<polyline clip-path="url(#clip632)" style="stroke:#000000; stroke-linecap:round; stroke-linejoin:round; stroke-width:2; stroke-opacity:0.1; fill:none" points="
  1965.59,1418.86 1965.59,47.2441 
  "/>
<polyline clip-path="url(#clip632)" style="stroke:#000000; stroke-linecap:round; stroke-linejoin:round; stroke-width:2; stroke-opacity:0.1; fill:none" points="
  2294.03,1418.86 2294.03,47.2441 
  "/>
<polyline clip-path="url(#clip630)" style="stroke:#000000; stroke-linecap:round; stroke-linejoin:round; stroke-width:4; stroke-opacity:1; fill:none" points="
  277.774,1418.86 2352.76,1418.86 
  "/>
<polyline clip-path="url(#clip630)" style="stroke:#000000; stroke-linecap:round; stroke-linejoin:round; stroke-width:4; stroke-opacity:1; fill:none" points="
  323.362,1418.86 323.362,1399.96 
  "/>
<polyline clip-path="url(#clip630)" style="stroke:#000000; stroke-linecap:round; stroke-linejoin:round; stroke-width:4; stroke-opacity:1; fill:none" points="
  651.807,1418.86 651.807,1399.96 
  "/>
<polyline clip-path="url(#clip630)" style="stroke:#000000; stroke-linecap:round; stroke-linejoin:round; stroke-width:4; stroke-opacity:1; fill:none" points="
  980.251,1418.86 980.251,1399.96 
  "/>
<polyline clip-path="url(#clip630)" style="stroke:#000000; stroke-linecap:round; stroke-linejoin:round; stroke-width:4; stroke-opacity:1; fill:none" points="
  1308.7,1418.86 1308.7,1399.96 
  "/>
<polyline clip-path="url(#clip630)" style="stroke:#000000; stroke-linecap:round; stroke-linejoin:round; stroke-width:4; stroke-opacity:1; fill:none" points="
  1637.14,1418.86 1637.14,1399.96 
  "/>
<polyline clip-path="url(#clip630)" style="stroke:#000000; stroke-linecap:round; stroke-linejoin:round; stroke-width:4; stroke-opacity:1; fill:none" points="
  1965.59,1418.86 1965.59,1399.96 
  "/>
<polyline clip-path="url(#clip630)" style="stroke:#000000; stroke-linecap:round; stroke-linejoin:round; stroke-width:4; stroke-opacity:1; fill:none" points="
  2294.03,1418.86 2294.03,1399.96 
  "/>
<path clip-path="url(#clip630)" d="M231.163 1449.78 Q227.552 1449.78 225.724 1453.34 Q223.918 1456.88 223.918 1464.01 Q223.918 1471.12 225.724 1474.69 Q227.552 1478.23 231.163 1478.23 Q234.798 1478.23 236.603 1474.69 Q238.432 1471.12 238.432 1464.01 Q238.432 1456.88 236.603 1453.34 Q234.798 1449.78 231.163 1449.78 M231.163 1446.07 Q236.974 1446.07 240.029 1450.68 Q243.108 1455.26 243.108 1464.01 Q243.108 1472.74 240.029 1477.35 Q236.974 1481.93 231.163 1481.93 Q225.353 1481.93 222.275 1477.35 Q219.219 1472.74 219.219 1464.01 Q219.219 1455.26 222.275 1450.68 Q225.353 1446.07 231.163 1446.07 Z" fill="#000000" fill-rule="evenodd" fill-opacity="1" /><path clip-path="url(#clip630)" d="M251.325 1475.38 L256.21 1475.38 L256.21 1481.26 L251.325 1481.26 L251.325 1475.38 Z" fill="#000000" fill-rule="evenodd" fill-opacity="1" /><path clip-path="url(#clip630)" d="M276.395 1449.78 Q272.784 1449.78 270.955 1453.34 Q269.149 1456.88 269.149 1464.01 Q269.149 1471.12 270.955 1474.69 Q272.784 1478.23 276.395 1478.23 Q280.029 1478.23 281.835 1474.69 Q283.663 1471.12 283.663 1464.01 Q283.663 1456.88 281.835 1453.34 Q280.029 1449.78 276.395 1449.78 M276.395 1446.07 Q282.205 1446.07 285.26 1450.68 Q288.339 1455.26 288.339 1464.01 Q288.339 1472.74 285.26 1477.35 Q282.205 1481.93 276.395 1481.93 Q270.585 1481.93 267.506 1477.35 Q264.45 1472.74 264.45 1464.01 Q264.45 1455.26 267.506 1450.68 Q270.585 1446.07 276.395 1446.07 Z" fill="#000000" fill-rule="evenodd" fill-opacity="1" /><path clip-path="url(#clip630)" d="M306.557 1449.78 Q302.946 1449.78 301.117 1453.34 Q299.311 1456.88 299.311 1464.01 Q299.311 1471.12 301.117 1474.69 Q302.946 1478.23 306.557 1478.23 Q310.191 1478.23 311.996 1474.69 Q313.825 1471.12 313.825 1464.01 Q313.825 1456.88 311.996 1453.34 Q310.191 1449.78 306.557 1449.78 M306.557 1446.07 Q312.367 1446.07 315.422 1450.68 Q318.501 1455.26 318.501 1464.01 Q318.501 1472.74 315.422 1477.35 Q312.367 1481.93 306.557 1481.93 Q300.746 1481.93 297.668 1477.35 Q294.612 1472.74 294.612 1464.01 Q294.612 1455.26 297.668 1450.68 Q300.746 1446.07 306.557 1446.07 Z" fill="#000000" fill-rule="evenodd" fill-opacity="1" /><path clip-path="url(#clip630)" d="M347.667 1455.33 L338.293 1467.95 L348.154 1481.26 L343.13 1481.26 L335.584 1471.07 L328.038 1481.26 L323.015 1481.26 L333.084 1467.7 L323.871 1455.33 L328.894 1455.33 L335.769 1464.57 L342.644 1455.33 L347.667 1455.33 Z" fill="#000000" fill-rule="evenodd" fill-opacity="1" /><path clip-path="url(#clip630)" d="M355.584 1477.32 L363.223 1477.32 L363.223 1450.96 L354.913 1452.63 L354.913 1448.37 L363.177 1446.7 L367.853 1446.7 L367.853 1477.32 L375.491 1477.32 L375.491 1481.26 L355.584 1481.26 L355.584 1477.32 Z" fill="#000000" fill-rule="evenodd" fill-opacity="1" /><path clip-path="url(#clip630)" d="M394.936 1449.78 Q391.325 1449.78 389.496 1453.34 Q387.69 1456.88 387.69 1464.01 Q387.69 1471.12 389.496 1474.69 Q391.325 1478.23 394.936 1478.23 Q398.57 1478.23 400.376 1474.69 Q402.204 1471.12 402.204 1464.01 Q402.204 1456.88 400.376 1453.34 Q398.57 1449.78 394.936 1449.78 M394.936 1446.07 Q400.746 1446.07 403.801 1450.68 Q406.88 1455.26 406.88 1464.01 Q406.88 1472.74 403.801 1477.35 Q400.746 1481.93 394.936 1481.93 Q389.126 1481.93 386.047 1477.35 Q382.991 1472.74 382.991 1464.01 Q382.991 1455.26 386.047 1450.68 Q389.126 1446.07 394.936 1446.07 Z" fill="#000000" fill-rule="evenodd" fill-opacity="1" /><path clip-path="url(#clip630)" d="M420.098 1455.03 Q418.061 1455.03 416.88 1456.24 Q415.7 1457.46 415.7 1459.57 Q415.7 1461.65 416.88 1462.86 Q418.061 1464.08 420.098 1464.08 Q422.112 1464.08 423.292 1462.86 Q424.473 1461.65 424.473 1459.57 Q424.473 1457.46 423.292 1456.24 Q422.112 1455.03 420.098 1455.03 M426.07 1446.84 L426.07 1449.22 Q424.936 1448.76 423.778 1448.53 Q422.621 1448.27 421.487 1448.27 Q418.524 1448.27 416.95 1450.01 Q415.375 1451.77 415.144 1455.31 Q416.024 1454.18 417.343 1453.57 Q418.686 1452.97 420.26 1452.97 Q423.616 1452.97 425.561 1454.73 Q427.505 1456.51 427.505 1459.57 Q427.505 1462.51 425.468 1464.34 Q423.454 1466.14 420.098 1466.14 Q416.232 1466.14 414.195 1463.57 Q412.158 1461.01 412.158 1456.1 Q412.158 1451.51 414.658 1448.81 Q417.158 1446.07 421.371 1446.07 Q422.505 1446.07 423.662 1446.26 Q424.82 1446.47 426.07 1446.84 Z" fill="#000000" fill-rule="evenodd" fill-opacity="1" /><path clip-path="url(#clip630)" d="M559.608 1449.78 Q555.997 1449.78 554.168 1453.34 Q552.363 1456.88 552.363 1464.01 Q552.363 1471.12 554.168 1474.69 Q555.997 1478.23 559.608 1478.23 Q563.242 1478.23 565.048 1474.69 Q566.877 1471.12 566.877 1464.01 Q566.877 1456.88 565.048 1453.34 Q563.242 1449.78 559.608 1449.78 M559.608 1446.07 Q565.418 1446.07 568.474 1450.68 Q571.553 1455.26 571.553 1464.01 Q571.553 1472.74 568.474 1477.35 Q565.418 1481.93 559.608 1481.93 Q553.798 1481.93 550.719 1477.35 Q547.664 1472.74 547.664 1464.01 Q547.664 1455.26 550.719 1450.68 Q553.798 1446.07 559.608 1446.07 Z" fill="#000000" fill-rule="evenodd" fill-opacity="1" /><path clip-path="url(#clip630)" d="M579.77 1475.38 L584.654 1475.38 L584.654 1481.26 L579.77 1481.26 L579.77 1475.38 Z" fill="#000000" fill-rule="evenodd" fill-opacity="1" /><path clip-path="url(#clip630)" d="M598.867 1477.32 L615.187 1477.32 L615.187 1481.26 L593.242 1481.26 L593.242 1477.32 Q595.904 1474.57 600.488 1469.94 Q605.094 1465.29 606.275 1463.95 Q608.52 1461.42 609.4 1459.69 Q610.302 1457.93 610.302 1456.24 Q610.302 1453.48 608.358 1451.75 Q606.437 1450.01 603.335 1450.01 Q601.136 1450.01 598.682 1450.77 Q596.251 1451.54 593.474 1453.09 L593.474 1448.37 Q596.298 1447.23 598.751 1446.65 Q601.205 1446.07 603.242 1446.07 Q608.613 1446.07 611.807 1448.76 Q615.001 1451.45 615.001 1455.94 Q615.001 1458.07 614.191 1459.99 Q613.404 1461.88 611.298 1464.48 Q610.719 1465.15 607.617 1468.37 Q604.515 1471.56 598.867 1477.32 Z" fill="#000000" fill-rule="evenodd" fill-opacity="1" /><path clip-path="url(#clip630)" d="M625.048 1446.7 L643.404 1446.7 L643.404 1450.64 L629.33 1450.64 L629.33 1459.11 Q630.348 1458.76 631.367 1458.6 Q632.386 1458.41 633.404 1458.41 Q639.191 1458.41 642.571 1461.58 Q645.95 1464.76 645.95 1470.17 Q645.95 1475.75 642.478 1478.85 Q639.006 1481.93 632.686 1481.93 Q630.511 1481.93 628.242 1481.56 Q625.997 1481.19 623.589 1480.45 L623.589 1475.75 Q625.673 1476.88 627.895 1477.44 Q630.117 1478 632.594 1478 Q636.598 1478 638.936 1475.89 Q641.274 1473.78 641.274 1470.17 Q641.274 1466.56 638.936 1464.45 Q636.598 1462.35 632.594 1462.35 Q630.719 1462.35 628.844 1462.76 Q626.992 1463.18 625.048 1464.06 L625.048 1446.7 Z" fill="#000000" fill-rule="evenodd" fill-opacity="1" /><path clip-path="url(#clip630)" d="M676.112 1455.33 L666.737 1467.95 L676.598 1481.26 L671.575 1481.26 L664.029 1471.07 L656.483 1481.26 L651.459 1481.26 L661.529 1467.7 L652.316 1455.33 L657.339 1455.33 L664.214 1464.57 L671.089 1455.33 L676.112 1455.33 Z" fill="#000000" fill-rule="evenodd" fill-opacity="1" /><path clip-path="url(#clip630)" d="M684.029 1477.32 L691.668 1477.32 L691.668 1450.96 L683.357 1452.63 L683.357 1448.37 L691.621 1446.7 L696.297 1446.7 L696.297 1477.32 L703.936 1477.32 L703.936 1481.26 L684.029 1481.26 L684.029 1477.32 Z" fill="#000000" fill-rule="evenodd" fill-opacity="1" /><path clip-path="url(#clip630)" d="M723.38 1449.78 Q719.769 1449.78 717.941 1453.34 Q716.135 1456.88 716.135 1464.01 Q716.135 1471.12 717.941 1474.69 Q719.769 1478.23 723.38 1478.23 Q727.015 1478.23 728.82 1474.69 Q730.649 1471.12 730.649 1464.01 Q730.649 1456.88 728.82 1453.34 Q727.015 1449.78 723.38 1449.78 M723.38 1446.07 Q729.191 1446.07 732.246 1450.68 Q735.325 1455.26 735.325 1464.01 Q735.325 1472.74 732.246 1477.35 Q729.191 1481.93 723.38 1481.93 Q717.57 1481.93 714.492 1477.35 Q711.436 1472.74 711.436 1464.01 Q711.436 1455.26 714.492 1450.68 Q717.57 1446.07 723.38 1446.07 Z" fill="#000000" fill-rule="evenodd" fill-opacity="1" /><path clip-path="url(#clip630)" d="M748.542 1455.03 Q746.505 1455.03 745.325 1456.24 Q744.144 1457.46 744.144 1459.57 Q744.144 1461.65 745.325 1462.86 Q746.505 1464.08 748.542 1464.08 Q750.556 1464.08 751.737 1462.86 Q752.917 1461.65 752.917 1459.57 Q752.917 1457.46 751.737 1456.24 Q750.556 1455.03 748.542 1455.03 M754.514 1446.84 L754.514 1449.22 Q753.38 1448.76 752.223 1448.53 Q751.065 1448.27 749.931 1448.27 Q746.968 1448.27 745.394 1450.01 Q743.82 1451.77 743.589 1455.31 Q744.468 1454.18 745.788 1453.57 Q747.13 1452.97 748.704 1452.97 Q752.061 1452.97 754.005 1454.73 Q755.95 1456.51 755.95 1459.57 Q755.95 1462.51 753.913 1464.34 Q751.899 1466.14 748.542 1466.14 Q744.677 1466.14 742.64 1463.57 Q740.603 1461.01 740.603 1456.1 Q740.603 1451.51 743.103 1448.81 Q745.603 1446.07 749.815 1446.07 Q750.95 1446.07 752.107 1446.26 Q753.265 1446.47 754.514 1446.84 Z" fill="#000000" fill-rule="evenodd" fill-opacity="1" /><path clip-path="url(#clip630)" d="M888.053 1449.78 Q884.442 1449.78 882.613 1453.34 Q880.807 1456.88 880.807 1464.01 Q880.807 1471.12 882.613 1474.69 Q884.442 1478.23 888.053 1478.23 Q891.687 1478.23 893.493 1474.69 Q895.321 1471.12 895.321 1464.01 Q895.321 1456.88 893.493 1453.34 Q891.687 1449.78 888.053 1449.78 M888.053 1446.07 Q893.863 1446.07 896.918 1450.68 Q899.997 1455.26 899.997 1464.01 Q899.997 1472.74 896.918 1477.35 Q893.863 1481.93 888.053 1481.93 Q882.243 1481.93 879.164 1477.35 Q876.108 1472.74 876.108 1464.01 Q876.108 1455.26 879.164 1450.68 Q882.243 1446.07 888.053 1446.07 Z" fill="#000000" fill-rule="evenodd" fill-opacity="1" /><path clip-path="url(#clip630)" d="M908.215 1475.38 L913.099 1475.38 L913.099 1481.26 L908.215 1481.26 L908.215 1475.38 Z" fill="#000000" fill-rule="evenodd" fill-opacity="1" /><path clip-path="url(#clip630)" d="M923.33 1446.7 L941.687 1446.7 L941.687 1450.64 L927.613 1450.64 L927.613 1459.11 Q928.631 1458.76 929.65 1458.6 Q930.668 1458.41 931.687 1458.41 Q937.474 1458.41 940.853 1461.58 Q944.233 1464.76 944.233 1470.17 Q944.233 1475.75 940.761 1478.85 Q937.289 1481.93 930.969 1481.93 Q928.793 1481.93 926.525 1481.56 Q924.279 1481.19 921.872 1480.45 L921.872 1475.75 Q923.955 1476.88 926.178 1477.44 Q928.4 1478 930.877 1478 Q934.881 1478 937.219 1475.89 Q939.557 1473.78 939.557 1470.17 Q939.557 1466.56 937.219 1464.45 Q934.881 1462.35 930.877 1462.35 Q929.002 1462.35 927.127 1462.76 Q925.275 1463.18 923.33 1464.06 L923.33 1446.7 Z" fill="#000000" fill-rule="evenodd" fill-opacity="1" /><path clip-path="url(#clip630)" d="M963.446 1449.78 Q959.835 1449.78 958.006 1453.34 Q956.201 1456.88 956.201 1464.01 Q956.201 1471.12 958.006 1474.69 Q959.835 1478.23 963.446 1478.23 Q967.08 1478.23 968.886 1474.69 Q970.714 1471.12 970.714 1464.01 Q970.714 1456.88 968.886 1453.34 Q967.08 1449.78 963.446 1449.78 M963.446 1446.07 Q969.256 1446.07 972.312 1450.68 Q975.39 1455.26 975.39 1464.01 Q975.39 1472.74 972.312 1477.35 Q969.256 1481.93 963.446 1481.93 Q957.636 1481.93 954.557 1477.35 Q951.502 1472.74 951.502 1464.01 Q951.502 1455.26 954.557 1450.68 Q957.636 1446.07 963.446 1446.07 Z" fill="#000000" fill-rule="evenodd" fill-opacity="1" /><path clip-path="url(#clip630)" d="M1004.56 1455.33 L995.182 1467.95 L1005.04 1481.26 L1000.02 1481.26 L992.474 1471.07 L984.927 1481.26 L979.904 1481.26 L989.974 1467.7 L980.761 1455.33 L985.784 1455.33 L992.659 1464.57 L999.534 1455.33 L1004.56 1455.33 Z" fill="#000000" fill-rule="evenodd" fill-opacity="1" /><path clip-path="url(#clip630)" d="M1012.47 1477.32 L1020.11 1477.32 L1020.11 1450.96 L1011.8 1452.63 L1011.8 1448.37 L1020.07 1446.7 L1024.74 1446.7 L1024.74 1477.32 L1032.38 1477.32 L1032.38 1481.26 L1012.47 1481.26 L1012.47 1477.32 Z" fill="#000000" fill-rule="evenodd" fill-opacity="1" /><path clip-path="url(#clip630)" d="M1051.83 1449.78 Q1048.21 1449.78 1046.39 1453.34 Q1044.58 1456.88 1044.58 1464.01 Q1044.58 1471.12 1046.39 1474.69 Q1048.21 1478.23 1051.83 1478.23 Q1055.46 1478.23 1057.26 1474.69 Q1059.09 1471.12 1059.09 1464.01 Q1059.09 1456.88 1057.26 1453.34 Q1055.46 1449.78 1051.83 1449.78 M1051.83 1446.07 Q1057.64 1446.07 1060.69 1450.68 Q1063.77 1455.26 1063.77 1464.01 Q1063.77 1472.74 1060.69 1477.35 Q1057.64 1481.93 1051.83 1481.93 Q1046.01 1481.93 1042.94 1477.35 Q1039.88 1472.74 1039.88 1464.01 Q1039.88 1455.26 1042.94 1450.68 Q1046.01 1446.07 1051.83 1446.07 Z" fill="#000000" fill-rule="evenodd" fill-opacity="1" /><path clip-path="url(#clip630)" d="M1076.99 1455.03 Q1074.95 1455.03 1073.77 1456.24 Q1072.59 1457.46 1072.59 1459.57 Q1072.59 1461.65 1073.77 1462.86 Q1074.95 1464.08 1076.99 1464.08 Q1079 1464.08 1080.18 1462.86 Q1081.36 1461.65 1081.36 1459.57 Q1081.36 1457.46 1080.18 1456.24 Q1079 1455.03 1076.99 1455.03 M1082.96 1446.84 L1082.96 1449.22 Q1081.82 1448.76 1080.67 1448.53 Q1079.51 1448.27 1078.38 1448.27 Q1075.41 1448.27 1073.84 1450.01 Q1072.26 1451.77 1072.03 1455.31 Q1072.91 1454.18 1074.23 1453.57 Q1075.57 1452.97 1077.15 1452.97 Q1080.51 1452.97 1082.45 1454.73 Q1084.39 1456.51 1084.39 1459.57 Q1084.39 1462.51 1082.36 1464.34 Q1080.34 1466.14 1076.99 1466.14 Q1073.12 1466.14 1071.08 1463.57 Q1069.05 1461.01 1069.05 1456.1 Q1069.05 1451.51 1071.55 1448.81 Q1074.05 1446.07 1078.26 1446.07 Q1079.39 1446.07 1080.55 1446.26 Q1081.71 1446.47 1082.96 1446.84 Z" fill="#000000" fill-rule="evenodd" fill-opacity="1" /><path clip-path="url(#clip630)" d="M1216.5 1449.78 Q1212.89 1449.78 1211.06 1453.34 Q1209.25 1456.88 1209.25 1464.01 Q1209.25 1471.12 1211.06 1474.69 Q1212.89 1478.23 1216.5 1478.23 Q1220.13 1478.23 1221.94 1474.69 Q1223.77 1471.12 1223.77 1464.01 Q1223.77 1456.88 1221.94 1453.34 Q1220.13 1449.78 1216.5 1449.78 M1216.5 1446.07 Q1222.31 1446.07 1225.36 1450.68 Q1228.44 1455.26 1228.44 1464.01 Q1228.44 1472.74 1225.36 1477.35 Q1222.31 1481.93 1216.5 1481.93 Q1210.69 1481.93 1207.61 1477.35 Q1204.55 1472.74 1204.55 1464.01 Q1204.55 1455.26 1207.61 1450.68 Q1210.69 1446.07 1216.5 1446.07 Z" fill="#000000" fill-rule="evenodd" fill-opacity="1" /><path clip-path="url(#clip630)" d="M1236.66 1475.38 L1241.54 1475.38 L1241.54 1481.26 L1236.66 1481.26 L1236.66 1475.38 Z" fill="#000000" fill-rule="evenodd" fill-opacity="1" /><path clip-path="url(#clip630)" d="M1250.55 1446.7 L1272.77 1446.7 L1272.77 1448.69 L1260.22 1481.26 L1255.34 1481.26 L1267.15 1450.64 L1250.55 1450.64 L1250.55 1446.7 Z" fill="#000000" fill-rule="evenodd" fill-opacity="1" /><path clip-path="url(#clip630)" d="M1281.94 1446.7 L1300.29 1446.7 L1300.29 1450.64 L1286.22 1450.64 L1286.22 1459.11 Q1287.24 1458.76 1288.26 1458.6 Q1289.27 1458.41 1290.29 1458.41 Q1296.08 1458.41 1299.46 1461.58 Q1302.84 1464.76 1302.84 1470.17 Q1302.84 1475.75 1299.37 1478.85 Q1295.9 1481.93 1289.58 1481.93 Q1287.4 1481.93 1285.13 1481.56 Q1282.89 1481.19 1280.48 1480.45 L1280.48 1475.75 Q1282.56 1476.88 1284.78 1477.44 Q1287.01 1478 1289.48 1478 Q1293.49 1478 1295.83 1475.89 Q1298.16 1473.78 1298.16 1470.17 Q1298.16 1466.56 1295.83 1464.45 Q1293.49 1462.35 1289.48 1462.35 Q1287.61 1462.35 1285.73 1462.76 Q1283.88 1463.18 1281.94 1464.06 L1281.94 1446.7 Z" fill="#000000" fill-rule="evenodd" fill-opacity="1" /><path clip-path="url(#clip630)" d="M1333 1455.33 L1323.63 1467.95 L1333.49 1481.26 L1328.46 1481.26 L1320.92 1471.07 L1313.37 1481.26 L1308.35 1481.26 L1318.42 1467.7 L1309.21 1455.33 L1314.23 1455.33 L1321.1 1464.57 L1327.98 1455.33 L1333 1455.33 Z" fill="#000000" fill-rule="evenodd" fill-opacity="1" /><path clip-path="url(#clip630)" d="M1340.92 1477.32 L1348.56 1477.32 L1348.56 1450.96 L1340.25 1452.63 L1340.25 1448.37 L1348.51 1446.7 L1353.19 1446.7 L1353.19 1477.32 L1360.83 1477.32 L1360.83 1481.26 L1340.92 1481.26 L1340.92 1477.32 Z" fill="#000000" fill-rule="evenodd" fill-opacity="1" /><path clip-path="url(#clip630)" d="M1380.27 1449.78 Q1376.66 1449.78 1374.83 1453.34 Q1373.02 1456.88 1373.02 1464.01 Q1373.02 1471.12 1374.83 1474.69 Q1376.66 1478.23 1380.27 1478.23 Q1383.9 1478.23 1385.71 1474.69 Q1387.54 1471.12 1387.54 1464.01 Q1387.54 1456.88 1385.71 1453.34 Q1383.9 1449.78 1380.27 1449.78 M1380.27 1446.07 Q1386.08 1446.07 1389.14 1450.68 Q1392.21 1455.26 1392.21 1464.01 Q1392.21 1472.74 1389.14 1477.35 Q1386.08 1481.93 1380.27 1481.93 Q1374.46 1481.93 1371.38 1477.35 Q1368.33 1472.74 1368.33 1464.01 Q1368.33 1455.26 1371.38 1450.68 Q1374.46 1446.07 1380.27 1446.07 Z" fill="#000000" fill-rule="evenodd" fill-opacity="1" /><path clip-path="url(#clip630)" d="M1405.43 1455.03 Q1403.39 1455.03 1402.21 1456.24 Q1401.03 1457.46 1401.03 1459.57 Q1401.03 1461.65 1402.21 1462.86 Q1403.39 1464.08 1405.43 1464.08 Q1407.45 1464.08 1408.63 1462.86 Q1409.81 1461.65 1409.81 1459.57 Q1409.81 1457.46 1408.63 1456.24 Q1407.45 1455.03 1405.43 1455.03 M1411.4 1446.84 L1411.4 1449.22 Q1410.27 1448.76 1409.11 1448.53 Q1407.95 1448.27 1406.82 1448.27 Q1403.86 1448.27 1402.28 1450.01 Q1400.71 1451.77 1400.48 1455.31 Q1401.36 1454.18 1402.68 1453.57 Q1404.02 1452.97 1405.59 1452.97 Q1408.95 1452.97 1410.89 1454.73 Q1412.84 1456.51 1412.84 1459.57 Q1412.84 1462.51 1410.8 1464.34 Q1408.79 1466.14 1405.43 1466.14 Q1401.57 1466.14 1399.53 1463.57 Q1397.49 1461.01 1397.49 1456.1 Q1397.49 1451.51 1399.99 1448.81 Q1402.49 1446.07 1406.7 1446.07 Q1407.84 1446.07 1409 1446.26 Q1410.15 1446.47 1411.4 1446.84 Z" fill="#000000" fill-rule="evenodd" fill-opacity="1" /><path clip-path="url(#clip630)" d="M1534.71 1477.32 L1542.35 1477.32 L1542.35 1450.96 L1534.04 1452.63 L1534.04 1448.37 L1542.3 1446.7 L1546.98 1446.7 L1546.98 1477.32 L1554.62 1477.32 L1554.62 1481.26 L1534.71 1481.26 L1534.71 1477.32 Z" fill="#000000" fill-rule="evenodd" fill-opacity="1" /><path clip-path="url(#clip630)" d="M1564.06 1475.38 L1568.95 1475.38 L1568.95 1481.26 L1564.06 1481.26 L1564.06 1475.38 Z" fill="#000000" fill-rule="evenodd" fill-opacity="1" /><path clip-path="url(#clip630)" d="M1589.13 1449.78 Q1585.52 1449.78 1583.69 1453.34 Q1581.89 1456.88 1581.89 1464.01 Q1581.89 1471.12 1583.69 1474.69 Q1585.52 1478.23 1589.13 1478.23 Q1592.77 1478.23 1594.57 1474.69 Q1596.4 1471.12 1596.4 1464.01 Q1596.4 1456.88 1594.57 1453.34 Q1592.77 1449.78 1589.13 1449.78 M1589.13 1446.07 Q1594.94 1446.07 1598 1450.68 Q1601.08 1455.26 1601.08 1464.01 Q1601.08 1472.74 1598 1477.35 Q1594.94 1481.93 1589.13 1481.93 Q1583.32 1481.93 1580.24 1477.35 Q1577.19 1472.74 1577.19 1464.01 Q1577.19 1455.26 1580.24 1450.68 Q1583.32 1446.07 1589.13 1446.07 Z" fill="#000000" fill-rule="evenodd" fill-opacity="1" /><path clip-path="url(#clip630)" d="M1619.29 1449.78 Q1615.68 1449.78 1613.85 1453.34 Q1612.05 1456.88 1612.05 1464.01 Q1612.05 1471.12 1613.85 1474.69 Q1615.68 1478.23 1619.29 1478.23 Q1622.93 1478.23 1624.73 1474.69 Q1626.56 1471.12 1626.56 1464.01 Q1626.56 1456.88 1624.73 1453.34 Q1622.93 1449.78 1619.29 1449.78 M1619.29 1446.07 Q1625.1 1446.07 1628.16 1450.68 Q1631.24 1455.26 1631.24 1464.01 Q1631.24 1472.74 1628.16 1477.35 Q1625.1 1481.93 1619.29 1481.93 Q1613.48 1481.93 1610.4 1477.35 Q1607.35 1472.74 1607.35 1464.01 Q1607.35 1455.26 1610.4 1450.68 Q1613.48 1446.07 1619.29 1446.07 Z" fill="#000000" fill-rule="evenodd" fill-opacity="1" /><path clip-path="url(#clip630)" d="M1660.4 1455.33 L1651.03 1467.95 L1660.89 1481.26 L1655.87 1481.26 L1648.32 1471.07 L1640.77 1481.26 L1635.75 1481.26 L1645.82 1467.7 L1636.61 1455.33 L1641.63 1455.33 L1648.51 1464.57 L1655.38 1455.33 L1660.4 1455.33 Z" fill="#000000" fill-rule="evenodd" fill-opacity="1" /><path clip-path="url(#clip630)" d="M1668.32 1477.32 L1675.96 1477.32 L1675.96 1450.96 L1667.65 1452.63 L1667.65 1448.37 L1675.91 1446.7 L1680.59 1446.7 L1680.59 1477.32 L1688.23 1477.32 L1688.23 1481.26 L1668.32 1481.26 L1668.32 1477.32 Z" fill="#000000" fill-rule="evenodd" fill-opacity="1" /><path clip-path="url(#clip630)" d="M1707.67 1449.78 Q1704.06 1449.78 1702.23 1453.34 Q1700.43 1456.88 1700.43 1464.01 Q1700.43 1471.12 1702.23 1474.69 Q1704.06 1478.23 1707.67 1478.23 Q1711.31 1478.23 1713.11 1474.69 Q1714.94 1471.12 1714.94 1464.01 Q1714.94 1456.88 1713.11 1453.34 Q1711.31 1449.78 1707.67 1449.78 M1707.67 1446.07 Q1713.48 1446.07 1716.54 1450.68 Q1719.62 1455.26 1719.62 1464.01 Q1719.62 1472.74 1716.54 1477.35 Q1713.48 1481.93 1707.67 1481.93 Q1701.86 1481.93 1698.78 1477.35 Q1695.73 1472.74 1695.73 1464.01 Q1695.73 1455.26 1698.78 1450.68 Q1701.86 1446.07 1707.67 1446.07 Z" fill="#000000" fill-rule="evenodd" fill-opacity="1" /><path clip-path="url(#clip630)" d="M1732.83 1455.03 Q1730.8 1455.03 1729.62 1456.24 Q1728.44 1457.46 1728.44 1459.57 Q1728.44 1461.65 1729.62 1462.86 Q1730.8 1464.08 1732.83 1464.08 Q1734.85 1464.08 1736.03 1462.86 Q1737.21 1461.65 1737.21 1459.57 Q1737.21 1457.46 1736.03 1456.24 Q1734.85 1455.03 1732.83 1455.03 M1738.81 1446.84 L1738.81 1449.22 Q1737.67 1448.76 1736.52 1448.53 Q1735.36 1448.27 1734.22 1448.27 Q1731.26 1448.27 1729.69 1450.01 Q1728.11 1451.77 1727.88 1455.31 Q1728.76 1454.18 1730.08 1453.57 Q1731.42 1452.97 1733 1452.97 Q1736.35 1452.97 1738.3 1454.73 Q1740.24 1456.51 1740.24 1459.57 Q1740.24 1462.51 1738.2 1464.34 Q1736.19 1466.14 1732.83 1466.14 Q1728.97 1466.14 1726.93 1463.57 Q1724.89 1461.01 1724.89 1456.1 Q1724.89 1451.51 1727.39 1448.81 Q1729.89 1446.07 1734.11 1446.07 Q1735.24 1446.07 1736.4 1446.26 Q1737.56 1446.47 1738.81 1446.84 Z" fill="#000000" fill-rule="evenodd" fill-opacity="1" /><path clip-path="url(#clip630)" d="M1863.16 1477.32 L1870.79 1477.32 L1870.79 1450.96 L1862.48 1452.63 L1862.48 1448.37 L1870.75 1446.7 L1875.42 1446.7 L1875.42 1477.32 L1883.06 1477.32 L1883.06 1481.26 L1863.16 1481.26 L1863.16 1477.32 Z" fill="#000000" fill-rule="evenodd" fill-opacity="1" /><path clip-path="url(#clip630)" d="M1892.51 1475.38 L1897.39 1475.38 L1897.39 1481.26 L1892.51 1481.26 L1892.51 1475.38 Z" fill="#000000" fill-rule="evenodd" fill-opacity="1" /><path clip-path="url(#clip630)" d="M1911.6 1477.32 L1927.92 1477.32 L1927.92 1481.26 L1905.98 1481.26 L1905.98 1477.32 Q1908.64 1474.57 1913.22 1469.94 Q1917.83 1465.29 1919.01 1463.95 Q1921.26 1461.42 1922.14 1459.69 Q1923.04 1457.93 1923.04 1456.24 Q1923.04 1453.48 1921.09 1451.75 Q1919.17 1450.01 1916.07 1450.01 Q1913.87 1450.01 1911.42 1450.77 Q1908.99 1451.54 1906.21 1453.09 L1906.21 1448.37 Q1909.03 1447.23 1911.49 1446.65 Q1913.94 1446.07 1915.98 1446.07 Q1921.35 1446.07 1924.54 1448.76 Q1927.74 1451.45 1927.74 1455.94 Q1927.74 1458.07 1926.93 1459.99 Q1926.14 1461.88 1924.03 1464.48 Q1923.46 1465.15 1920.35 1468.37 Q1917.25 1471.56 1911.6 1477.32 Z" fill="#000000" fill-rule="evenodd" fill-opacity="1" /><path clip-path="url(#clip630)" d="M1937.78 1446.7 L1956.14 1446.7 L1956.14 1450.64 L1942.07 1450.64 L1942.07 1459.11 Q1943.09 1458.76 1944.1 1458.6 Q1945.12 1458.41 1946.14 1458.41 Q1951.93 1458.41 1955.31 1461.58 Q1958.69 1464.76 1958.69 1470.17 Q1958.69 1475.75 1955.22 1478.85 Q1951.74 1481.93 1945.42 1481.93 Q1943.25 1481.93 1940.98 1481.56 Q1938.73 1481.19 1936.33 1480.45 L1936.33 1475.75 Q1938.41 1476.88 1940.63 1477.44 Q1942.85 1478 1945.33 1478 Q1949.34 1478 1951.67 1475.89 Q1954.01 1473.78 1954.01 1470.17 Q1954.01 1466.56 1951.67 1464.45 Q1949.34 1462.35 1945.33 1462.35 Q1943.46 1462.35 1941.58 1462.76 Q1939.73 1463.18 1937.78 1464.06 L1937.78 1446.7 Z" fill="#000000" fill-rule="evenodd" fill-opacity="1" /><path clip-path="url(#clip630)" d="M1988.85 1455.33 L1979.47 1467.95 L1989.34 1481.26 L1984.31 1481.26 L1976.77 1471.07 L1969.22 1481.26 L1964.2 1481.26 L1974.27 1467.7 L1965.05 1455.33 L1970.08 1455.33 L1976.95 1464.57 L1983.83 1455.33 L1988.85 1455.33 Z" fill="#000000" fill-rule="evenodd" fill-opacity="1" /><path clip-path="url(#clip630)" d="M1996.77 1477.32 L2004.4 1477.32 L2004.4 1450.96 L1996.09 1452.63 L1996.09 1448.37 L2004.36 1446.7 L2009.03 1446.7 L2009.03 1477.32 L2016.67 1477.32 L2016.67 1481.26 L1996.77 1481.26 L1996.77 1477.32 Z" fill="#000000" fill-rule="evenodd" fill-opacity="1" /><path clip-path="url(#clip630)" d="M2036.12 1449.78 Q2032.51 1449.78 2030.68 1453.34 Q2028.87 1456.88 2028.87 1464.01 Q2028.87 1471.12 2030.68 1474.69 Q2032.51 1478.23 2036.12 1478.23 Q2039.75 1478.23 2041.56 1474.69 Q2043.39 1471.12 2043.39 1464.01 Q2043.39 1456.88 2041.56 1453.34 Q2039.75 1449.78 2036.12 1449.78 M2036.12 1446.07 Q2041.93 1446.07 2044.98 1450.68 Q2048.06 1455.26 2048.06 1464.01 Q2048.06 1472.74 2044.98 1477.35 Q2041.93 1481.93 2036.12 1481.93 Q2030.31 1481.93 2027.23 1477.35 Q2024.17 1472.74 2024.17 1464.01 Q2024.17 1455.26 2027.23 1450.68 Q2030.31 1446.07 2036.12 1446.07 Z" fill="#000000" fill-rule="evenodd" fill-opacity="1" /><path clip-path="url(#clip630)" d="M2061.28 1455.03 Q2059.24 1455.03 2058.06 1456.24 Q2056.88 1457.46 2056.88 1459.57 Q2056.88 1461.65 2058.06 1462.86 Q2059.24 1464.08 2061.28 1464.08 Q2063.29 1464.08 2064.47 1462.86 Q2065.65 1461.65 2065.65 1459.57 Q2065.65 1457.46 2064.47 1456.24 Q2063.29 1455.03 2061.28 1455.03 M2067.25 1446.84 L2067.25 1449.22 Q2066.12 1448.76 2064.96 1448.53 Q2063.8 1448.27 2062.67 1448.27 Q2059.71 1448.27 2058.13 1450.01 Q2056.56 1451.77 2056.33 1455.31 Q2057.21 1454.18 2058.52 1453.57 Q2059.87 1452.97 2061.44 1452.97 Q2064.8 1452.97 2066.74 1454.73 Q2068.69 1456.51 2068.69 1459.57 Q2068.69 1462.51 2066.65 1464.34 Q2064.64 1466.14 2061.28 1466.14 Q2057.41 1466.14 2055.38 1463.57 Q2053.34 1461.01 2053.34 1456.1 Q2053.34 1451.51 2055.84 1448.81 Q2058.34 1446.07 2062.55 1446.07 Q2063.69 1446.07 2064.84 1446.26 Q2066 1446.47 2067.25 1446.84 Z" fill="#000000" fill-rule="evenodd" fill-opacity="1" /><path clip-path="url(#clip630)" d="M2191.6 1477.32 L2199.24 1477.32 L2199.24 1450.96 L2190.93 1452.63 L2190.93 1448.37 L2199.19 1446.7 L2203.87 1446.7 L2203.87 1477.32 L2211.51 1477.32 L2211.51 1481.26 L2191.6 1481.26 L2191.6 1477.32 Z" fill="#000000" fill-rule="evenodd" fill-opacity="1" /><path clip-path="url(#clip630)" d="M2220.95 1475.38 L2225.84 1475.38 L2225.84 1481.26 L2220.95 1481.26 L2220.95 1475.38 Z" fill="#000000" fill-rule="evenodd" fill-opacity="1" /><path clip-path="url(#clip630)" d="M2236.07 1446.7 L2254.42 1446.7 L2254.42 1450.64 L2240.35 1450.64 L2240.35 1459.11 Q2241.37 1458.76 2242.39 1458.6 Q2243.41 1458.41 2244.42 1458.41 Q2250.21 1458.41 2253.59 1461.58 Q2256.97 1464.76 2256.97 1470.17 Q2256.97 1475.75 2253.5 1478.85 Q2250.03 1481.93 2243.71 1481.93 Q2241.53 1481.93 2239.26 1481.56 Q2237.02 1481.19 2234.61 1480.45 L2234.61 1475.75 Q2236.69 1476.88 2238.91 1477.44 Q2241.14 1478 2243.61 1478 Q2247.62 1478 2249.96 1475.89 Q2252.29 1473.78 2252.29 1470.17 Q2252.29 1466.56 2249.96 1464.45 Q2247.62 1462.35 2243.61 1462.35 Q2241.74 1462.35 2239.86 1462.76 Q2238.01 1463.18 2236.07 1464.06 L2236.07 1446.7 Z" fill="#000000" fill-rule="evenodd" fill-opacity="1" /><path clip-path="url(#clip630)" d="M2276.18 1449.78 Q2272.57 1449.78 2270.74 1453.34 Q2268.94 1456.88 2268.94 1464.01 Q2268.94 1471.12 2270.74 1474.69 Q2272.57 1478.23 2276.18 1478.23 Q2279.82 1478.23 2281.62 1474.69 Q2283.45 1471.12 2283.45 1464.01 Q2283.45 1456.88 2281.62 1453.34 Q2279.82 1449.78 2276.18 1449.78 M2276.18 1446.07 Q2281.99 1446.07 2285.05 1450.68 Q2288.13 1455.26 2288.13 1464.01 Q2288.13 1472.74 2285.05 1477.35 Q2281.99 1481.93 2276.18 1481.93 Q2270.37 1481.93 2267.29 1477.35 Q2264.24 1472.74 2264.24 1464.01 Q2264.24 1455.26 2267.29 1450.68 Q2270.37 1446.07 2276.18 1446.07 Z" fill="#000000" fill-rule="evenodd" fill-opacity="1" /><path clip-path="url(#clip630)" d="M2317.29 1455.33 L2307.92 1467.95 L2317.78 1481.26 L2312.76 1481.26 L2305.21 1471.07 L2297.66 1481.26 L2292.64 1481.26 L2302.71 1467.7 L2293.5 1455.33 L2298.52 1455.33 L2305.4 1464.57 L2312.27 1455.33 L2317.29 1455.33 Z" fill="#000000" fill-rule="evenodd" fill-opacity="1" /><path clip-path="url(#clip630)" d="M2325.21 1477.32 L2332.85 1477.32 L2332.85 1450.96 L2324.54 1452.63 L2324.54 1448.37 L2332.8 1446.7 L2337.48 1446.7 L2337.48 1477.32 L2345.12 1477.32 L2345.12 1481.26 L2325.21 1481.26 L2325.21 1477.32 Z" fill="#000000" fill-rule="evenodd" fill-opacity="1" /><path clip-path="url(#clip630)" d="M2364.56 1449.78 Q2360.95 1449.78 2359.12 1453.34 Q2357.32 1456.88 2357.32 1464.01 Q2357.32 1471.12 2359.12 1474.69 Q2360.95 1478.23 2364.56 1478.23 Q2368.2 1478.23 2370 1474.69 Q2371.83 1471.12 2371.83 1464.01 Q2371.83 1456.88 2370 1453.34 Q2368.2 1449.78 2364.56 1449.78 M2364.56 1446.07 Q2370.37 1446.07 2373.43 1450.68 Q2376.51 1455.26 2376.51 1464.01 Q2376.51 1472.74 2373.43 1477.35 Q2370.37 1481.93 2364.56 1481.93 Q2358.75 1481.93 2355.67 1477.35 Q2352.62 1472.74 2352.62 1464.01 Q2352.62 1455.26 2355.67 1450.68 Q2358.75 1446.07 2364.56 1446.07 Z" fill="#000000" fill-rule="evenodd" fill-opacity="1" /><path clip-path="url(#clip630)" d="M2389.72 1455.03 Q2387.69 1455.03 2386.51 1456.24 Q2385.33 1457.46 2385.33 1459.57 Q2385.33 1461.65 2386.51 1462.86 Q2387.69 1464.08 2389.72 1464.08 Q2391.74 1464.08 2392.92 1462.86 Q2394.1 1461.65 2394.1 1459.57 Q2394.1 1457.46 2392.92 1456.24 Q2391.74 1455.03 2389.72 1455.03 M2395.7 1446.84 L2395.7 1449.22 Q2394.56 1448.76 2393.4 1448.53 Q2392.25 1448.27 2391.11 1448.27 Q2388.15 1448.27 2386.58 1450.01 Q2385 1451.77 2384.77 1455.31 Q2385.65 1454.18 2386.97 1453.57 Q2388.31 1452.97 2389.89 1452.97 Q2393.24 1452.97 2395.19 1454.73 Q2397.13 1456.51 2397.13 1459.57 Q2397.13 1462.51 2395.09 1464.34 Q2393.08 1466.14 2389.72 1466.14 Q2385.86 1466.14 2383.82 1463.57 Q2381.78 1461.01 2381.78 1456.1 Q2381.78 1451.51 2384.28 1448.81 Q2386.78 1446.07 2391 1446.07 Q2392.13 1446.07 2393.29 1446.26 Q2394.45 1446.47 2395.7 1446.84 Z" fill="#000000" fill-rule="evenodd" fill-opacity="1" /><path clip-path="url(#clip630)" d="M1151.15 1517.07 L1158.17 1517.07 L1158.17 1568.91 L1151.15 1568.91 L1151.15 1517.07 Z" fill="#000000" fill-rule="evenodd" fill-opacity="1" /><path clip-path="url(#clip630)" d="M1178.16 1518.98 L1178.16 1530.02 L1191.32 1530.02 L1191.32 1534.98 L1178.16 1534.98 L1178.16 1556.1 Q1178.16 1560.85 1179.45 1562.21 Q1180.77 1563.56 1184.76 1563.56 L1191.32 1563.56 L1191.32 1568.91 L1184.76 1568.91 Q1177.37 1568.91 1174.55 1566.16 Q1171.74 1563.39 1171.74 1556.1 L1171.74 1534.98 L1167.05 1534.98 L1167.05 1530.02 L1171.74 1530.02 L1171.74 1518.98 L1178.16 1518.98 Z" fill="#000000" fill-rule="evenodd" fill-opacity="1" /><path clip-path="url(#clip630)" d="M1232.99 1547.87 L1232.99 1550.99 L1203.62 1550.99 Q1204.03 1557.59 1207.57 1561.06 Q1211.15 1564.5 1217.51 1564.5 Q1221.19 1564.5 1224.62 1563.6 Q1228.1 1562.69 1231.5 1560.89 L1231.5 1566.93 Q1228.06 1568.39 1224.45 1569.15 Q1220.84 1569.91 1217.12 1569.91 Q1207.82 1569.91 1202.37 1564.5 Q1196.95 1559.08 1196.95 1549.85 Q1196.95 1540.3 1202.09 1534.71 Q1207.26 1529.08 1216.01 1529.08 Q1223.86 1529.08 1228.41 1534.15 Q1232.99 1539.19 1232.99 1547.87 M1226.6 1545.99 Q1226.53 1540.75 1223.65 1537.62 Q1220.8 1534.5 1216.08 1534.5 Q1210.73 1534.5 1207.51 1537.52 Q1204.31 1540.54 1203.82 1546.03 L1226.6 1545.99 Z" fill="#000000" fill-rule="evenodd" fill-opacity="1" /><path clip-path="url(#clip630)" d="M1266.01 1535.99 Q1264.94 1535.37 1263.65 1535.09 Q1262.4 1534.78 1260.87 1534.78 Q1255.46 1534.78 1252.54 1538.32 Q1249.66 1541.82 1249.66 1548.42 L1249.66 1568.91 L1243.23 1568.91 L1243.23 1530.02 L1249.66 1530.02 L1249.66 1536.06 Q1251.67 1532.52 1254.9 1530.82 Q1258.13 1529.08 1262.75 1529.08 Q1263.41 1529.08 1264.21 1529.19 Q1265 1529.26 1265.98 1529.43 L1266.01 1535.99 Z" fill="#000000" fill-rule="evenodd" fill-opacity="1" /><path clip-path="url(#clip630)" d="M1290.39 1549.36 Q1282.64 1549.36 1279.66 1551.13 Q1276.67 1552.9 1276.67 1557.17 Q1276.67 1560.57 1278.89 1562.59 Q1281.15 1564.57 1285 1564.57 Q1290.32 1564.57 1293.51 1560.82 Q1296.74 1557.03 1296.74 1550.78 L1296.74 1549.36 L1290.39 1549.36 M1303.13 1546.72 L1303.13 1568.91 L1296.74 1568.91 L1296.74 1563.01 Q1294.55 1566.55 1291.29 1568.25 Q1288.03 1569.91 1283.3 1569.91 Q1277.33 1569.91 1273.79 1566.58 Q1270.28 1563.21 1270.28 1557.59 Q1270.28 1551.03 1274.66 1547.69 Q1279.07 1544.36 1287.78 1544.36 L1296.74 1544.36 L1296.74 1543.73 Q1296.74 1539.32 1293.82 1536.93 Q1290.94 1534.5 1285.7 1534.5 Q1282.37 1534.5 1279.21 1535.3 Q1276.05 1536.1 1273.13 1537.69 L1273.13 1531.79 Q1276.64 1530.44 1279.94 1529.78 Q1283.23 1529.08 1286.36 1529.08 Q1294.8 1529.08 1298.96 1533.46 Q1303.13 1537.83 1303.13 1546.72 Z" fill="#000000" fill-rule="evenodd" fill-opacity="1" /><path clip-path="url(#clip630)" d="M1322.61 1518.98 L1322.61 1530.02 L1335.77 1530.02 L1335.77 1534.98 L1322.61 1534.98 L1322.61 1556.1 Q1322.61 1560.85 1323.89 1562.21 Q1325.21 1563.56 1329.21 1563.56 L1335.77 1563.56 L1335.77 1568.91 L1329.21 1568.91 Q1321.81 1568.91 1319 1566.16 Q1316.19 1563.39 1316.19 1556.1 L1316.19 1534.98 L1311.5 1534.98 L1311.5 1530.02 L1316.19 1530.02 L1316.19 1518.98 L1322.61 1518.98 Z" fill="#000000" fill-rule="evenodd" fill-opacity="1" /><path clip-path="url(#clip630)" d="M1344.17 1530.02 L1350.56 1530.02 L1350.56 1568.91 L1344.17 1568.91 L1344.17 1530.02 M1344.17 1514.88 L1350.56 1514.88 L1350.56 1522.97 L1344.17 1522.97 L1344.17 1514.88 Z" fill="#000000" fill-rule="evenodd" fill-opacity="1" /><path clip-path="url(#clip630)" d="M1379 1534.5 Q1373.86 1534.5 1370.87 1538.53 Q1367.89 1542.52 1367.89 1549.5 Q1367.89 1556.48 1370.84 1560.51 Q1373.82 1564.5 1379 1564.5 Q1384.1 1564.5 1387.09 1560.47 Q1390.07 1556.44 1390.07 1549.5 Q1390.07 1542.59 1387.09 1538.56 Q1384.1 1534.5 1379 1534.5 M1379 1529.08 Q1387.33 1529.08 1392.09 1534.5 Q1396.84 1539.91 1396.84 1549.5 Q1396.84 1559.05 1392.09 1564.5 Q1387.33 1569.91 1379 1569.91 Q1370.63 1569.91 1365.87 1564.5 Q1361.15 1559.05 1361.15 1549.5 Q1361.15 1539.91 1365.87 1534.5 Q1370.63 1529.08 1379 1529.08 Z" fill="#000000" fill-rule="evenodd" fill-opacity="1" /><path clip-path="url(#clip630)" d="M1439.76 1545.44 L1439.76 1568.91 L1433.37 1568.91 L1433.37 1545.64 Q1433.37 1540.12 1431.22 1537.38 Q1429.07 1534.64 1424.76 1534.64 Q1419.59 1534.64 1416.6 1537.94 Q1413.62 1541.23 1413.62 1546.93 L1413.62 1568.91 L1407.19 1568.91 L1407.19 1530.02 L1413.62 1530.02 L1413.62 1536.06 Q1415.91 1532.55 1419 1530.82 Q1422.12 1529.08 1426.18 1529.08 Q1432.89 1529.08 1436.32 1533.25 Q1439.76 1537.38 1439.76 1545.44 Z" fill="#000000" fill-rule="evenodd" fill-opacity="1" /><path clip-path="url(#clip630)" d="M1477.3 1531.16 L1477.3 1537.21 Q1474.59 1535.82 1471.67 1535.12 Q1468.75 1534.43 1465.63 1534.43 Q1460.87 1534.43 1458.48 1535.89 Q1456.11 1537.35 1456.11 1540.26 Q1456.11 1542.48 1457.82 1543.77 Q1459.52 1545.02 1464.66 1546.16 L1466.84 1546.65 Q1473.65 1548.11 1476.5 1550.78 Q1479.38 1553.42 1479.38 1558.18 Q1479.38 1563.6 1475.07 1566.76 Q1470.8 1569.91 1463.3 1569.91 Q1460.18 1569.91 1456.77 1569.29 Q1453.41 1568.7 1449.66 1567.48 L1449.66 1560.89 Q1453.2 1562.73 1456.64 1563.66 Q1460.07 1564.57 1463.44 1564.57 Q1467.96 1564.57 1470.39 1563.04 Q1472.82 1561.48 1472.82 1558.66 Q1472.82 1556.06 1471.05 1554.67 Q1469.31 1553.28 1463.37 1552 L1461.15 1551.48 Q1455.21 1550.23 1452.57 1547.66 Q1449.93 1545.05 1449.93 1540.54 Q1449.93 1535.05 1453.82 1532.07 Q1457.71 1529.08 1464.86 1529.08 Q1468.41 1529.08 1471.53 1529.6 Q1474.66 1530.12 1477.3 1531.16 Z" fill="#000000" fill-rule="evenodd" fill-opacity="1" /><polyline clip-path="url(#clip632)" style="stroke:#000000; stroke-linecap:round; stroke-linejoin:round; stroke-width:2; stroke-opacity:0.1; fill:none" points="
  277.774,1242.71 2352.76,1242.71 
  "/>
<polyline clip-path="url(#clip632)" style="stroke:#000000; stroke-linecap:round; stroke-linejoin:round; stroke-width:2; stroke-opacity:0.1; fill:none" points="
  277.774,865.849 2352.76,865.849 
  "/>
<polyline clip-path="url(#clip632)" style="stroke:#000000; stroke-linecap:round; stroke-linejoin:round; stroke-width:2; stroke-opacity:0.1; fill:none" points="
  277.774,488.992 2352.76,488.992 
  "/>
<polyline clip-path="url(#clip632)" style="stroke:#000000; stroke-linecap:round; stroke-linejoin:round; stroke-width:2; stroke-opacity:0.1; fill:none" points="
  277.774,112.136 2352.76,112.136 
  "/>
<polyline clip-path="url(#clip630)" style="stroke:#000000; stroke-linecap:round; stroke-linejoin:round; stroke-width:4; stroke-opacity:1; fill:none" points="
  277.774,1418.86 277.774,47.2441 
  "/>
<polyline clip-path="url(#clip630)" style="stroke:#000000; stroke-linecap:round; stroke-linejoin:round; stroke-width:4; stroke-opacity:1; fill:none" points="
  277.774,1242.71 296.672,1242.71 
  "/>
<polyline clip-path="url(#clip630)" style="stroke:#000000; stroke-linecap:round; stroke-linejoin:round; stroke-width:4; stroke-opacity:1; fill:none" points="
  277.774,865.849 296.672,865.849 
  "/>
<polyline clip-path="url(#clip630)" style="stroke:#000000; stroke-linecap:round; stroke-linejoin:round; stroke-width:4; stroke-opacity:1; fill:none" points="
  277.774,488.992 296.672,488.992 
  "/>
<polyline clip-path="url(#clip630)" style="stroke:#000000; stroke-linecap:round; stroke-linejoin:round; stroke-width:4; stroke-opacity:1; fill:none" points="
  277.774,112.136 296.672,112.136 
  "/>
<path clip-path="url(#clip630)" d="M223.857 1221.4 Q218.441 1221.4 215.698 1226.75 Q212.989 1232.06 212.989 1242.76 Q212.989 1253.42 215.698 1258.76 Q218.441 1264.08 223.857 1264.08 Q229.309 1264.08 232.017 1258.76 Q234.76 1253.42 234.76 1242.76 Q234.76 1232.06 232.017 1226.75 Q229.309 1221.4 223.857 1221.4 M223.857 1215.85 Q232.573 1215.85 237.156 1222.76 Q241.774 1229.63 241.774 1242.76 Q241.774 1255.85 237.156 1262.76 Q232.573 1269.63 223.857 1269.63 Q215.142 1269.63 210.524 1262.76 Q205.941 1255.85 205.941 1242.76 Q205.941 1229.63 210.524 1222.76 Q215.142 1215.85 223.857 1215.85 Z" fill="#000000" fill-rule="evenodd" fill-opacity="1" /><path clip-path="url(#clip630)" d="M163.684 839.929 L191.219 839.929 L191.219 845.832 L170.108 845.832 L170.108 858.54 Q171.635 858.019 173.163 857.776 Q174.691 857.498 176.219 857.498 Q184.899 857.498 189.969 862.255 Q195.038 867.012 195.038 875.137 Q195.038 883.505 189.83 888.158 Q184.621 892.776 175.142 892.776 Q171.878 892.776 168.476 892.22 Q165.108 891.665 161.497 890.554 L161.497 883.505 Q164.622 885.206 167.955 886.04 Q171.288 886.873 175.003 886.873 Q181.01 886.873 184.517 883.713 Q188.024 880.554 188.024 875.137 Q188.024 869.72 184.517 866.561 Q181.01 863.401 175.003 863.401 Q172.191 863.401 169.378 864.026 Q166.601 864.651 163.684 865.97 L163.684 839.929 Z" fill="#000000" fill-rule="evenodd" fill-opacity="1" /><path clip-path="url(#clip630)" d="M223.857 844.547 Q218.441 844.547 215.698 849.894 Q212.989 855.207 212.989 865.901 Q212.989 876.561 215.698 881.908 Q218.441 887.22 223.857 887.22 Q229.309 887.22 232.017 881.908 Q234.76 876.561 234.76 865.901 Q234.76 855.207 232.017 849.894 Q229.309 844.547 223.857 844.547 M223.857 838.991 Q232.573 838.991 237.156 845.901 Q241.774 852.776 241.774 865.901 Q241.774 878.991 237.156 885.901 Q232.573 892.776 223.857 892.776 Q215.142 892.776 210.524 885.901 Q205.941 878.991 205.941 865.901 Q205.941 852.776 210.524 845.901 Q215.142 838.991 223.857 838.991 Z" fill="#000000" fill-rule="evenodd" fill-opacity="1" /><path clip-path="url(#clip630)" d="M119.587 509.01 L131.045 509.01 L131.045 469.461 L118.58 471.961 L118.58 465.572 L130.976 463.072 L137.99 463.072 L137.99 509.01 L149.448 509.01 L149.448 514.912 L119.587 514.912 L119.587 509.01 Z" fill="#000000" fill-rule="evenodd" fill-opacity="1" /><path clip-path="url(#clip630)" d="M178.615 467.69 Q173.198 467.69 170.455 473.038 Q167.747 478.35 167.747 489.044 Q167.747 499.704 170.455 505.051 Q173.198 510.364 178.615 510.364 Q184.066 510.364 186.774 505.051 Q189.517 499.704 189.517 489.044 Q189.517 478.35 186.774 473.038 Q184.066 467.69 178.615 467.69 M178.615 462.135 Q187.33 462.135 191.913 469.045 Q196.531 475.92 196.531 489.044 Q196.531 502.135 191.913 509.044 Q187.33 515.919 178.615 515.919 Q169.899 515.919 165.281 509.044 Q160.698 502.135 160.698 489.044 Q160.698 475.92 165.281 469.045 Q169.899 462.135 178.615 462.135 Z" fill="#000000" fill-rule="evenodd" fill-opacity="1" /><path clip-path="url(#clip630)" d="M223.857 467.69 Q218.441 467.69 215.698 473.038 Q212.989 478.35 212.989 489.044 Q212.989 499.704 215.698 505.051 Q218.441 510.364 223.857 510.364 Q229.309 510.364 232.017 505.051 Q234.76 499.704 234.76 489.044 Q234.76 478.35 232.017 473.038 Q229.309 467.69 223.857 467.69 M223.857 462.135 Q232.573 462.135 237.156 469.045 Q241.774 475.92 241.774 489.044 Q241.774 502.135 237.156 509.044 Q232.573 515.919 223.857 515.919 Q215.142 515.919 210.524 509.044 Q205.941 502.135 205.941 489.044 Q205.941 475.92 210.524 469.045 Q215.142 462.135 223.857 462.135 Z" fill="#000000" fill-rule="evenodd" fill-opacity="1" /><path clip-path="url(#clip630)" d="M119.587 132.153 L131.045 132.153 L131.045 92.6047 L118.58 95.1047 L118.58 88.7159 L130.976 86.2159 L137.99 86.2159 L137.99 132.153 L149.448 132.153 L149.448 138.056 L119.587 138.056 L119.587 132.153 Z" fill="#000000" fill-rule="evenodd" fill-opacity="1" /><path clip-path="url(#clip630)" d="M163.684 86.2159 L191.219 86.2159 L191.219 92.1186 L170.108 92.1186 L170.108 104.827 Q171.635 104.306 173.163 104.063 Q174.691 103.785 176.219 103.785 Q184.899 103.785 189.969 108.542 Q195.038 113.299 195.038 121.424 Q195.038 129.792 189.83 134.445 Q184.621 139.063 175.142 139.063 Q171.878 139.063 168.476 138.507 Q165.108 137.952 161.497 136.841 L161.497 129.792 Q164.622 131.493 167.955 132.327 Q171.288 133.16 175.003 133.16 Q181.01 133.16 184.517 130 Q188.024 126.841 188.024 121.424 Q188.024 116.007 184.517 112.848 Q181.01 109.688 175.003 109.688 Q172.191 109.688 169.378 110.313 Q166.601 110.938 163.684 112.257 L163.684 86.2159 Z" fill="#000000" fill-rule="evenodd" fill-opacity="1" /><path clip-path="url(#clip630)" d="M223.857 90.8339 Q218.441 90.8339 215.698 96.1811 Q212.989 101.494 212.989 112.188 Q212.989 122.848 215.698 128.195 Q218.441 133.507 223.857 133.507 Q229.309 133.507 232.017 128.195 Q234.76 122.848 234.76 112.188 Q234.76 101.494 232.017 96.1811 Q229.309 90.8339 223.857 90.8339 M223.857 85.2784 Q232.573 85.2784 237.156 92.1881 Q241.774 99.063 241.774 112.188 Q241.774 125.278 237.156 132.188 Q232.573 139.063 223.857 139.063 Q215.142 139.063 210.524 132.188 Q205.941 125.278 205.941 112.188 Q205.941 99.063 210.524 92.1881 Q215.142 85.2784 223.857 85.2784 Z" fill="#000000" fill-rule="evenodd" fill-opacity="1" /><path clip-path="url(#clip630)" d="M42.7227 834.163 Q43.4866 831.906 45.9866 829.788 Q48.4866 827.635 52.8616 825.482 L67.0282 818.364 L67.0282 825.899 L53.7296 832.531 Q48.5213 835.1 46.8199 837.531 Q45.1186 839.926 45.1186 844.093 L45.1186 851.732 L67.0282 851.732 L67.0282 858.746 L15.1882 858.746 L15.1882 842.912 Q15.1882 834.024 18.9034 829.649 Q22.6187 825.274 30.1186 825.274 Q35.0144 825.274 38.2436 827.565 Q41.4727 829.822 42.7227 834.163 M20.952 851.732 L39.3547 851.732 L39.3547 842.912 Q39.3547 837.843 37.0283 835.274 Q34.6672 832.669 30.1186 832.669 Q25.57 832.669 23.2784 835.274 Q20.952 837.843 20.952 842.912 L20.952 851.732 Z" fill="#000000" fill-rule="evenodd" fill-opacity="1" /><path clip-path="url(#clip630)" d="M45.9866 779.545 L49.1116 779.545 L49.1116 808.92 Q55.7088 808.503 59.181 804.961 Q62.6185 801.385 62.6185 795.031 Q62.6185 791.35 61.7157 787.913 Q60.8129 784.441 59.0074 781.038 L65.049 781.038 Q66.5073 784.475 67.2712 788.086 Q68.0351 791.697 68.0351 795.413 Q68.0351 804.718 62.6185 810.17 Q57.2018 815.586 47.9658 815.586 Q38.4172 815.586 32.827 810.447 Q27.202 805.274 27.202 796.524 Q27.202 788.677 32.2714 784.128 Q37.3061 779.545 45.9866 779.545 M44.1116 785.934 Q38.8686 786.003 35.7436 788.885 Q32.6186 791.732 32.6186 796.454 Q32.6186 801.802 35.6394 805.031 Q38.6603 808.225 44.1463 808.711 L44.1116 785.934 Z" fill="#000000" fill-rule="evenodd" fill-opacity="1" /><path clip-path="url(#clip630)" d="M28.1395 772.774 L28.1395 766.385 L58.4865 758.399 L28.1395 750.448 L28.1395 742.913 L58.4865 734.927 L28.1395 726.976 L28.1395 720.587 L67.0282 730.76 L67.0282 738.295 L35.1533 746.663 L67.0282 755.066 L67.0282 762.6 L28.1395 772.774 Z" fill="#000000" fill-rule="evenodd" fill-opacity="1" /><path clip-path="url(#clip630)" d="M47.4797 693.226 Q47.4797 700.969 49.2505 703.955 Q51.0213 706.941 55.2921 706.941 Q58.6949 706.941 60.7087 704.719 Q62.6879 702.462 62.6879 698.608 Q62.6879 693.295 58.9379 690.101 Q55.1532 686.872 48.9033 686.872 L47.4797 686.872 L47.4797 693.226 M44.8408 680.483 L67.0282 680.483 L67.0282 686.872 L61.1254 686.872 Q64.6671 689.059 66.3684 692.323 Q68.0351 695.587 68.0351 700.309 Q68.0351 706.281 64.7018 709.823 Q61.3337 713.33 55.7088 713.33 Q49.1463 713.33 45.813 708.955 Q42.4797 704.545 42.4797 695.83 L42.4797 686.872 L41.8547 686.872 Q37.445 686.872 35.0492 689.788 Q32.6186 692.67 32.6186 697.913 Q32.6186 701.247 33.4172 704.406 Q34.2158 707.566 35.813 710.483 L29.9103 710.483 Q28.5561 706.976 27.8964 703.677 Q27.202 700.379 27.202 697.254 Q27.202 688.816 31.577 684.649 Q35.9519 680.483 44.8408 680.483 Z" fill="#000000" fill-rule="evenodd" fill-opacity="1" /><path clip-path="url(#clip630)" d="M34.1117 644.789 Q33.4867 645.865 33.2089 647.15 Q32.8964 648.4 32.8964 649.927 Q32.8964 655.344 36.438 658.261 Q39.945 661.143 46.5422 661.143 L67.0282 661.143 L67.0282 667.566 L28.1395 667.566 L28.1395 661.143 L34.1811 661.143 Q30.6395 659.129 28.9381 655.9 Q27.202 652.67 27.202 648.052 Q27.202 647.393 27.3061 646.594 Q27.3756 645.795 27.5492 644.823 L34.1117 644.789 Z" fill="#000000" fill-rule="evenodd" fill-opacity="1" /><path clip-path="url(#clip630)" d="M34.0422 613.747 L13.0007 613.747 L13.0007 607.358 L67.0282 607.358 L67.0282 613.747 L61.1949 613.747 Q64.6671 615.761 66.3684 618.851 Q68.0351 621.907 68.0351 626.212 Q68.0351 633.261 62.4101 637.705 Q56.7852 642.115 47.6185 642.115 Q38.4519 642.115 32.827 637.705 Q27.202 633.261 27.202 626.212 Q27.202 621.907 28.9034 618.851 Q30.57 615.761 34.0422 613.747 M47.6185 635.518 Q54.6671 635.518 58.6949 632.636 Q62.6879 629.719 62.6879 624.65 Q62.6879 619.58 58.6949 616.664 Q54.6671 613.747 47.6185 613.747 Q40.57 613.747 36.5769 616.664 Q32.5492 619.58 32.5492 624.65 Q32.5492 629.719 36.5769 632.636 Q40.57 635.518 47.6185 635.518 Z" fill="#000000" fill-rule="evenodd" fill-opacity="1" /><polyline clip-path="url(#clip632)" style="stroke:#009af9; stroke-linecap:round; stroke-linejoin:round; stroke-width:4; stroke-opacity:1; fill:none" points="
  336.5,1380.04 349.638,1367.51 362.775,1301.66 375.913,1245.22 389.051,1204.12 402.189,1160.27 415.327,1123.42 428.464,1044.13 441.602,1021.68 454.74,822.628 
  467.878,557.554 481.015,491.216 494.153,353.665 507.291,366.692 520.429,400.675 533.567,286.38 546.704,225.735 559.842,225.42 572.98,171.737 586.118,216.219 
  599.256,179.723 612.393,237.318 625.531,181.768 638.669,175.143 651.807,182.368 664.945,202.043 678.082,177.363 691.22,112.873 704.358,140.115 717.496,149.727 
  730.633,164.504 743.771,192.03 756.909,151.284 770.047,187.94 783.185,139.581 796.322,148.885 809.46,155.271 822.598,135.012 835.736,142.228 848.874,160.121 
  862.011,126.485 875.149,150.548 888.287,138.507 901.425,134.25 914.562,148.069 927.7,146.58 940.838,173.339 953.976,160.608 967.114,86.0634 980.251,137.547 
  993.389,175.887 1006.53,163.156 1019.66,151.081 1032.8,211.838 1045.94,125.065 1059.08,159.988 1072.22,112.809 1085.35,139.608 1098.49,132.322 1111.63,133.731 
  1124.77,146.118 1137.9,128.727 1151.04,123.256 1164.18,126.778 1177.32,134.232 1190.46,147.921 1203.59,152.057 1216.73,129.613 1229.87,154.968 1243.01,158.588 
  1256.14,133.88 1269.28,125.909 1282.42,136.016 1295.56,131.134 1308.7,122.122 1321.83,116.465 1334.97,116.544 1348.11,105.98 1361.25,126.329 1374.38,170.368 
  1387.52,169.154 1400.66,162.317 1413.8,176.552 1426.94,148.086 1440.07,111.808 1453.21,104.666 1466.35,149.921 1479.49,190.997 1492.63,192.282 1505.76,178.251 
  1518.9,150.243 1532.04,131.163 1545.18,124.8 1558.31,142.468 1571.45,134.248 1584.59,151.44 1597.73,174.79 1610.87,152.088 1624,194.589 1637.14,180.326 
  1650.28,135.231 1663.42,140.096 1676.55,133.978 1689.69,159.256 1702.83,170.639 1715.97,174.89 1729.11,160.034 1742.24,193.668 1755.38,143.92 1768.52,166.012 
  1781.66,187.15 1794.79,152.521 1807.93,185.92 1821.07,143.914 1834.21,148.18 1847.35,162.002 1860.48,152.107 1873.62,120.176 1886.76,138.435 1899.9,189.467 
  1913.03,153.293 1926.17,183.317 1939.31,195.981 1952.45,197.831 1965.59,131.137 1978.72,131.583 1991.86,148.386 2005,166.975 2018.14,159.376 2031.27,129.487 
  2044.41,149.504 2057.55,213.041 2070.69,207.603 2083.83,159.469 2096.96,243.923 2110.1,243.496 2123.24,200.043 2136.38,209.073 2149.51,186.268 2162.65,179.142 
  2175.79,189.299 2188.93,173.839 2202.07,208.516 2215.2,263.346 2228.34,201.867 2241.48,198.554 2254.62,199.066 2267.75,213.51 2280.89,163.252 2294.03,193.05 
  
  "/>
<path clip-path="url(#clip630)" d="
M1700.99 817.652 L2283.59 817.652 L2283.59 662.132 L1700.99 662.132  Z
  " fill="#ffffff" fill-rule="evenodd" fill-opacity="1"/>
<polyline clip-path="url(#clip630)" style="stroke:#000000; stroke-linecap:round; stroke-linejoin:round; stroke-width:4; stroke-opacity:1; fill:none" points="
  1700.99,817.652 2283.59,817.652 2283.59,662.132 1700.99,662.132 1700.99,817.652 
  "/>
<polyline clip-path="url(#clip630)" style="stroke:#009af9; stroke-linecap:round; stroke-linejoin:round; stroke-width:6; stroke-opacity:1; fill:none" points="
  1724.04,739.892 1862.38,739.892 
  "/>
<path clip-path="url(#clip630)" d="M1913.07 728.07 L1913.07 734.111 Q1910.36 732.722 1907.45 732.028 Q1904.53 731.334 1901.4 731.334 Q1896.65 731.334 1894.25 732.792 Q1891.89 734.25 1891.89 737.167 Q1891.89 739.389 1893.59 740.674 Q1895.29 741.924 1900.43 743.07 L1902.62 743.556 Q1909.43 745.014 1912.27 747.688 Q1915.15 750.326 1915.15 755.083 Q1915.15 760.5 1910.85 763.66 Q1906.58 766.819 1899.08 766.819 Q1895.95 766.819 1892.55 766.194 Q1889.18 765.604 1885.43 764.389 L1885.43 757.792 Q1888.97 759.632 1892.41 760.569 Q1895.85 761.472 1899.22 761.472 Q1903.73 761.472 1906.16 759.944 Q1908.59 758.382 1908.59 755.569 Q1908.59 752.965 1906.82 751.576 Q1905.09 750.188 1899.15 748.903 L1896.93 748.382 Q1890.99 747.132 1888.35 744.563 Q1885.71 741.958 1885.71 737.445 Q1885.71 731.959 1889.6 728.972 Q1893.49 725.986 1900.64 725.986 Q1904.18 725.986 1907.31 726.507 Q1910.43 727.028 1913.07 728.07 Z" fill="#000000" fill-rule="evenodd" fill-opacity="1" /><path clip-path="url(#clip630)" d="M1925.33 711.785 L1931.72 711.785 L1931.72 765.812 L1925.33 765.812 L1925.33 711.785 Z" fill="#000000" fill-rule="evenodd" fill-opacity="1" /><path clip-path="url(#clip630)" d="M1960.15 731.403 Q1955.02 731.403 1952.03 735.431 Q1949.04 739.424 1949.04 746.403 Q1949.04 753.382 1951.99 757.41 Q1954.98 761.403 1960.15 761.403 Q1965.26 761.403 1968.24 757.375 Q1971.23 753.347 1971.23 746.403 Q1971.23 739.493 1968.24 735.465 Q1965.26 731.403 1960.15 731.403 M1960.15 725.986 Q1968.49 725.986 1973.24 731.403 Q1978 736.82 1978 746.403 Q1978 755.951 1973.24 761.403 Q1968.49 766.819 1960.15 766.819 Q1951.79 766.819 1947.03 761.403 Q1942.31 755.951 1942.31 746.403 Q1942.31 736.82 1947.03 731.403 Q1951.79 725.986 1960.15 725.986 Z" fill="#000000" fill-rule="evenodd" fill-opacity="1" /><path clip-path="url(#clip630)" d="M1984.88 726.924 L1991.27 726.924 L1999.25 757.271 L2007.2 726.924 L2014.74 726.924 L2022.72 757.271 L2030.67 726.924 L2037.06 726.924 L2026.89 765.812 L2019.36 765.812 L2010.99 733.938 L2002.58 765.812 L1995.05 765.812 L1984.88 726.924 Z" fill="#000000" fill-rule="evenodd" fill-opacity="1" /><path clip-path="url(#clip630)" d="M2099.63 734.389 Q2102.03 730.084 2105.36 728.035 Q2108.7 725.986 2113.21 725.986 Q2119.29 725.986 2122.58 730.257 Q2125.88 734.493 2125.88 742.34 L2125.88 765.812 L2119.46 765.812 L2119.46 742.549 Q2119.46 736.958 2117.48 734.25 Q2115.5 731.542 2111.44 731.542 Q2106.47 731.542 2103.59 734.84 Q2100.71 738.139 2100.71 743.833 L2100.71 765.812 L2094.29 765.812 L2094.29 742.549 Q2094.29 736.924 2092.31 734.25 Q2090.33 731.542 2086.2 731.542 Q2081.3 731.542 2078.42 734.875 Q2075.54 738.174 2075.54 743.833 L2075.54 765.812 L2069.11 765.812 L2069.11 726.924 L2075.54 726.924 L2075.54 732.965 Q2077.72 729.389 2080.78 727.688 Q2083.83 725.986 2088.04 725.986 Q2092.27 725.986 2095.22 728.139 Q2098.21 730.292 2099.63 734.389 Z" fill="#000000" fill-rule="evenodd" fill-opacity="1" /><path clip-path="url(#clip630)" d="M2153.69 731.403 Q2148.56 731.403 2145.57 735.431 Q2142.58 739.424 2142.58 746.403 Q2142.58 753.382 2145.54 757.41 Q2148.52 761.403 2153.69 761.403 Q2158.8 761.403 2161.79 757.375 Q2164.77 753.347 2164.77 746.403 Q2164.77 739.493 2161.79 735.465 Q2158.8 731.403 2153.69 731.403 M2153.69 725.986 Q2162.03 725.986 2166.78 731.403 Q2171.54 736.82 2171.54 746.403 Q2171.54 755.951 2166.78 761.403 Q2162.03 766.819 2153.69 766.819 Q2145.33 766.819 2140.57 761.403 Q2135.85 755.951 2135.85 746.403 Q2135.85 736.82 2140.57 731.403 Q2145.33 725.986 2153.69 725.986 Z" fill="#000000" fill-rule="evenodd" fill-opacity="1" /><path clip-path="url(#clip630)" d="M2207.72 732.827 L2207.72 711.785 L2214.11 711.785 L2214.11 765.812 L2207.72 765.812 L2207.72 759.979 Q2205.71 763.451 2202.62 765.153 Q2199.56 766.819 2195.26 766.819 Q2188.21 766.819 2183.76 761.194 Q2179.35 755.569 2179.35 746.403 Q2179.35 737.236 2183.76 731.611 Q2188.21 725.986 2195.26 725.986 Q2199.56 725.986 2202.62 727.688 Q2205.71 729.354 2207.72 732.827 M2185.95 746.403 Q2185.95 753.451 2188.83 757.479 Q2191.75 761.472 2196.82 761.472 Q2201.89 761.472 2204.81 757.479 Q2207.72 753.451 2207.72 746.403 Q2207.72 739.354 2204.81 735.361 Q2201.89 731.334 2196.82 731.334 Q2191.75 731.334 2188.83 735.361 Q2185.95 739.354 2185.95 746.403 Z" fill="#000000" fill-rule="evenodd" fill-opacity="1" /><path clip-path="url(#clip630)" d="M2260.53 744.771 L2260.53 747.896 L2231.16 747.896 Q2231.58 754.493 2235.12 757.965 Q2238.69 761.403 2245.05 761.403 Q2248.73 761.403 2252.17 760.5 Q2255.64 759.597 2259.04 757.792 L2259.04 763.833 Q2255.6 765.292 2251.99 766.056 Q2248.38 766.819 2244.67 766.819 Q2235.36 766.819 2229.91 761.403 Q2224.49 755.986 2224.49 746.75 Q2224.49 737.202 2229.63 731.611 Q2234.81 725.986 2243.56 725.986 Q2251.4 725.986 2255.95 731.056 Q2260.53 736.09 2260.53 744.771 M2254.15 742.896 Q2254.08 737.653 2251.19 734.528 Q2248.35 731.403 2243.62 731.403 Q2238.28 731.403 2235.05 734.424 Q2231.85 737.445 2231.37 742.931 L2254.15 742.896 Z" fill="#000000" fill-rule="evenodd" fill-opacity="1" /></svg>
