<?xml version="1.0" encoding="utf-8"?>
<svg xmlns="http://www.w3.org/2000/svg" xmlns:xlink="http://www.w3.org/1999/xlink" width="600" height="400" viewBox="0 0 2400 1600">
<defs>
  <clipPath id="clip710">
    <rect x="0" y="0" width="2400" height="1600"/>
  </clipPath>
</defs>
<path clip-path="url(#clip710)" d="
M0 1600 L2400 1600 L2400 0 L0 0  Z
  " fill="#ffffff" fill-rule="evenodd" fill-opacity="1"/>
<defs>
  <clipPath id="clip711">
    <rect x="480" y="0" width="1681" height="1600"/>
  </clipPath>
</defs>
<path clip-path="url(#clip710)" d="
M236.107 1418.86 L2352.76 1418.86 L2352.76 47.2441 L236.107 47.2441  Z
  " fill="#ffffff" fill-rule="evenodd" fill-opacity="1"/>
<defs>
  <clipPath id="clip712">
    <rect x="236" y="47" width="2118" height="1373"/>
  </clipPath>
</defs>
<polyline clip-path="url(#clip712)" style="stroke:#000000; stroke-linecap:round; stroke-linejoin:round; stroke-width:2; stroke-opacity:0.1; fill:none" points="
  282.611,1418.86 282.611,47.2441 
  "/>
<polyline clip-path="url(#clip712)" style="stroke:#000000; stroke-linecap:round; stroke-linejoin:round; stroke-width:2; stroke-opacity:0.1; fill:none" points="
  617.651,1418.86 617.651,47.2441 
  "/>
<polyline clip-path="url(#clip712)" style="stroke:#000000; stroke-linecap:round; stroke-linejoin:round; stroke-width:2; stroke-opacity:0.1; fill:none" points="
  952.691,1418.86 952.691,47.2441 
  "/>
<polyline clip-path="url(#clip712)" style="stroke:#000000; stroke-linecap:round; stroke-linejoin:round; stroke-width:2; stroke-opacity:0.1; fill:none" points="
  1287.73,1418.86 1287.73,47.2441 
  "/>
<polyline clip-path="url(#clip712)" style="stroke:#000000; stroke-linecap:round; stroke-linejoin:round; stroke-width:2; stroke-opacity:0.1; fill:none" points="
  1622.77,1418.86 1622.77,47.2441 
  "/>
<polyline clip-path="url(#clip712)" style="stroke:#000000; stroke-linecap:round; stroke-linejoin:round; stroke-width:2; stroke-opacity:0.1; fill:none" points="
  1957.81,1418.86 1957.81,47.2441 
  "/>
<polyline clip-path="url(#clip712)" style="stroke:#000000; stroke-linecap:round; stroke-linejoin:round; stroke-width:2; stroke-opacity:0.1; fill:none" points="
  2292.85,1418.86 2292.85,47.2441 
  "/>
<polyline clip-path="url(#clip710)" style="stroke:#000000; stroke-linecap:round; stroke-linejoin:round; stroke-width:4; stroke-opacity:1; fill:none" points="
  236.107,1418.86 2352.76,1418.86 
  "/>
<polyline clip-path="url(#clip710)" style="stroke:#000000; stroke-linecap:round; stroke-linejoin:round; stroke-width:4; stroke-opacity:1; fill:none" points="
  282.611,1418.86 282.611,1399.96 
  "/>
<polyline clip-path="url(#clip710)" style="stroke:#000000; stroke-linecap:round; stroke-linejoin:round; stroke-width:4; stroke-opacity:1; fill:none" points="
  617.651,1418.86 617.651,1399.96 
  "/>
<polyline clip-path="url(#clip710)" style="stroke:#000000; stroke-linecap:round; stroke-linejoin:round; stroke-width:4; stroke-opacity:1; fill:none" points="
  952.691,1418.86 952.691,1399.96 
  "/>
<polyline clip-path="url(#clip710)" style="stroke:#000000; stroke-linecap:round; stroke-linejoin:round; stroke-width:4; stroke-opacity:1; fill:none" points="
  1287.73,1418.86 1287.73,1399.96 
  "/>
<polyline clip-path="url(#clip710)" style="stroke:#000000; stroke-linecap:round; stroke-linejoin:round; stroke-width:4; stroke-opacity:1; fill:none" points="
  1622.77,1418.86 1622.77,1399.96 
  "/>
<polyline clip-path="url(#clip710)" style="stroke:#000000; stroke-linecap:round; stroke-linejoin:round; stroke-width:4; stroke-opacity:1; fill:none" points="
  1957.81,1418.86 1957.81,1399.96 
  "/>
<polyline clip-path="url(#clip710)" style="stroke:#000000; stroke-linecap:round; stroke-linejoin:round; stroke-width:4; stroke-opacity:1; fill:none" points="
  2292.85,1418.86 2292.85,1399.96 
  "/>
<path clip-path="url(#clip710)" d="M190.412 1449.78 Q186.801 1449.78 184.973 1453.34 Q183.167 1456.88 183.167 1464.01 Q183.167 1471.12 184.973 1474.69 Q186.801 1478.23 190.412 1478.23 Q194.047 1478.23 195.852 1474.69 Q197.681 1471.12 197.681 1464.01 Q197.681 1456.88 195.852 1453.34 Q194.047 1449.78 190.412 1449.78 M190.412 1446.07 Q196.223 1446.07 199.278 1450.68 Q202.357 1455.26 202.357 1464.01 Q202.357 1472.74 199.278 1477.35 Q196.223 1481.93 190.412 1481.93 Q184.602 1481.93 181.524 1477.35 Q178.468 1472.74 178.468 1464.01 Q178.468 1455.26 181.524 1450.68 Q184.602 1446.07 190.412 1446.07 Z" fill="#000000" fill-rule="evenodd" fill-opacity="1" /><path clip-path="url(#clip710)" d="M210.574 1475.38 L215.459 1475.38 L215.459 1481.26 L210.574 1481.26 L210.574 1475.38 Z" fill="#000000" fill-rule="evenodd" fill-opacity="1" /><path clip-path="url(#clip710)" d="M235.644 1449.78 Q232.033 1449.78 230.204 1453.34 Q228.398 1456.88 228.398 1464.01 Q228.398 1471.12 230.204 1474.69 Q232.033 1478.23 235.644 1478.23 Q239.278 1478.23 241.083 1474.69 Q242.912 1471.12 242.912 1464.01 Q242.912 1456.88 241.083 1453.34 Q239.278 1449.78 235.644 1449.78 M235.644 1446.07 Q241.454 1446.07 244.509 1450.68 Q247.588 1455.26 247.588 1464.01 Q247.588 1472.74 244.509 1477.35 Q241.454 1481.93 235.644 1481.93 Q229.834 1481.93 226.755 1477.35 Q223.699 1472.74 223.699 1464.01 Q223.699 1455.26 226.755 1450.68 Q229.834 1446.07 235.644 1446.07 Z" fill="#000000" fill-rule="evenodd" fill-opacity="1" /><path clip-path="url(#clip710)" d="M265.806 1449.78 Q262.194 1449.78 260.366 1453.34 Q258.56 1456.88 258.56 1464.01 Q258.56 1471.12 260.366 1474.69 Q262.194 1478.23 265.806 1478.23 Q269.44 1478.23 271.245 1474.69 Q273.074 1471.12 273.074 1464.01 Q273.074 1456.88 271.245 1453.34 Q269.44 1449.78 265.806 1449.78 M265.806 1446.07 Q271.616 1446.07 274.671 1450.68 Q277.75 1455.26 277.75 1464.01 Q277.75 1472.74 274.671 1477.35 Q271.616 1481.93 265.806 1481.93 Q259.995 1481.93 256.917 1477.35 Q253.861 1472.74 253.861 1464.01 Q253.861 1455.26 256.917 1450.68 Q259.995 1446.07 265.806 1446.07 Z" fill="#000000" fill-rule="evenodd" fill-opacity="1" /><path clip-path="url(#clip710)" d="M306.916 1455.33 L297.542 1467.95 L307.403 1481.26 L302.379 1481.26 L294.833 1471.07 L287.287 1481.26 L282.264 1481.26 L292.333 1467.7 L283.12 1455.33 L288.143 1455.33 L295.018 1464.57 L301.893 1455.33 L306.916 1455.33 Z" fill="#000000" fill-rule="evenodd" fill-opacity="1" /><path clip-path="url(#clip710)" d="M314.833 1477.32 L322.472 1477.32 L322.472 1450.96 L314.162 1452.63 L314.162 1448.37 L322.426 1446.7 L327.102 1446.7 L327.102 1477.32 L334.74 1477.32 L334.74 1481.26 L314.833 1481.26 L314.833 1477.32 Z" fill="#000000" fill-rule="evenodd" fill-opacity="1" /><path clip-path="url(#clip710)" d="M354.185 1449.78 Q350.574 1449.78 348.745 1453.34 Q346.939 1456.88 346.939 1464.01 Q346.939 1471.12 348.745 1474.69 Q350.574 1478.23 354.185 1478.23 Q357.819 1478.23 359.625 1474.69 Q361.453 1471.12 361.453 1464.01 Q361.453 1456.88 359.625 1453.34 Q357.819 1449.78 354.185 1449.78 M354.185 1446.07 Q359.995 1446.07 363.05 1450.68 Q366.129 1455.26 366.129 1464.01 Q366.129 1472.74 363.05 1477.35 Q359.995 1481.93 354.185 1481.93 Q348.375 1481.93 345.296 1477.35 Q342.24 1472.74 342.24 1464.01 Q342.24 1455.26 345.296 1450.68 Q348.375 1446.07 354.185 1446.07 Z" fill="#000000" fill-rule="evenodd" fill-opacity="1" /><path clip-path="url(#clip710)" d="M379.347 1455.03 Q377.31 1455.03 376.129 1456.24 Q374.949 1457.46 374.949 1459.57 Q374.949 1461.65 376.129 1462.86 Q377.31 1464.08 379.347 1464.08 Q381.361 1464.08 382.541 1462.86 Q383.722 1461.65 383.722 1459.57 Q383.722 1457.46 382.541 1456.24 Q381.361 1455.03 379.347 1455.03 M385.319 1446.84 L385.319 1449.22 Q384.185 1448.76 383.027 1448.53 Q381.87 1448.27 380.736 1448.27 Q377.773 1448.27 376.199 1450.01 Q374.624 1451.77 374.393 1455.31 Q375.273 1454.18 376.592 1453.57 Q377.935 1452.97 379.509 1452.97 Q382.865 1452.97 384.81 1454.73 Q386.754 1456.51 386.754 1459.57 Q386.754 1462.51 384.717 1464.34 Q382.703 1466.14 379.347 1466.14 Q375.481 1466.14 373.444 1463.57 Q371.407 1461.01 371.407 1456.1 Q371.407 1451.51 373.907 1448.81 Q376.407 1446.07 380.62 1446.07 Q381.754 1446.07 382.911 1446.26 Q384.069 1446.47 385.319 1446.84 Z" fill="#000000" fill-rule="evenodd" fill-opacity="1" /><path clip-path="url(#clip710)" d="M525.452 1449.78 Q521.841 1449.78 520.013 1453.34 Q518.207 1456.88 518.207 1464.01 Q518.207 1471.12 520.013 1474.69 Q521.841 1478.23 525.452 1478.23 Q529.087 1478.23 530.892 1474.69 Q532.721 1471.12 532.721 1464.01 Q532.721 1456.88 530.892 1453.34 Q529.087 1449.78 525.452 1449.78 M525.452 1446.07 Q531.263 1446.07 534.318 1450.68 Q537.397 1455.26 537.397 1464.01 Q537.397 1472.74 534.318 1477.35 Q531.263 1481.93 525.452 1481.93 Q519.642 1481.93 516.564 1477.35 Q513.508 1472.74 513.508 1464.01 Q513.508 1455.26 516.564 1450.68 Q519.642 1446.07 525.452 1446.07 Z" fill="#000000" fill-rule="evenodd" fill-opacity="1" /><path clip-path="url(#clip710)" d="M545.614 1475.38 L550.499 1475.38 L550.499 1481.26 L545.614 1481.26 L545.614 1475.38 Z" fill="#000000" fill-rule="evenodd" fill-opacity="1" /><path clip-path="url(#clip710)" d="M564.711 1477.32 L581.031 1477.32 L581.031 1481.26 L559.086 1481.26 L559.086 1477.32 Q561.749 1474.57 566.332 1469.94 Q570.938 1465.29 572.119 1463.95 Q574.364 1461.42 575.244 1459.69 Q576.147 1457.93 576.147 1456.24 Q576.147 1453.48 574.202 1451.75 Q572.281 1450.01 569.179 1450.01 Q566.98 1450.01 564.526 1450.77 Q562.096 1451.54 559.318 1453.09 L559.318 1448.37 Q562.142 1447.23 564.596 1446.65 Q567.049 1446.07 569.086 1446.07 Q574.457 1446.07 577.651 1448.76 Q580.846 1451.45 580.846 1455.94 Q580.846 1458.07 580.035 1459.99 Q579.248 1461.88 577.142 1464.48 Q576.563 1465.15 573.461 1468.37 Q570.36 1471.56 564.711 1477.32 Z" fill="#000000" fill-rule="evenodd" fill-opacity="1" /><path clip-path="url(#clip710)" d="M590.892 1446.7 L609.248 1446.7 L609.248 1450.64 L595.174 1450.64 L595.174 1459.11 Q596.193 1458.76 597.211 1458.6 Q598.23 1458.41 599.248 1458.41 Q605.035 1458.41 608.415 1461.58 Q611.795 1464.76 611.795 1470.17 Q611.795 1475.75 608.322 1478.85 Q604.85 1481.93 598.531 1481.93 Q596.355 1481.93 594.086 1481.56 Q591.841 1481.19 589.434 1480.45 L589.434 1475.75 Q591.517 1476.88 593.739 1477.44 Q595.961 1478 598.438 1478 Q602.443 1478 604.781 1475.89 Q607.119 1473.78 607.119 1470.17 Q607.119 1466.56 604.781 1464.45 Q602.443 1462.35 598.438 1462.35 Q596.563 1462.35 594.688 1462.76 Q592.836 1463.18 590.892 1464.06 L590.892 1446.7 Z" fill="#000000" fill-rule="evenodd" fill-opacity="1" /><path clip-path="url(#clip710)" d="M641.956 1455.33 L632.581 1467.95 L642.443 1481.26 L637.419 1481.26 L629.873 1471.07 L622.327 1481.26 L617.304 1481.26 L627.373 1467.7 L618.16 1455.33 L623.183 1455.33 L630.058 1464.57 L636.933 1455.33 L641.956 1455.33 Z" fill="#000000" fill-rule="evenodd" fill-opacity="1" /><path clip-path="url(#clip710)" d="M649.873 1477.32 L657.512 1477.32 L657.512 1450.96 L649.202 1452.63 L649.202 1448.37 L657.466 1446.7 L662.141 1446.7 L662.141 1477.32 L669.78 1477.32 L669.78 1481.26 L649.873 1481.26 L649.873 1477.32 Z" fill="#000000" fill-rule="evenodd" fill-opacity="1" /><path clip-path="url(#clip710)" d="M689.225 1449.78 Q685.614 1449.78 683.785 1453.34 Q681.979 1456.88 681.979 1464.01 Q681.979 1471.12 683.785 1474.69 Q685.614 1478.23 689.225 1478.23 Q692.859 1478.23 694.664 1474.69 Q696.493 1471.12 696.493 1464.01 Q696.493 1456.88 694.664 1453.34 Q692.859 1449.78 689.225 1449.78 M689.225 1446.07 Q695.035 1446.07 698.09 1450.68 Q701.169 1455.26 701.169 1464.01 Q701.169 1472.74 698.09 1477.35 Q695.035 1481.93 689.225 1481.93 Q683.415 1481.93 680.336 1477.35 Q677.28 1472.74 677.28 1464.01 Q677.28 1455.26 680.336 1450.68 Q683.415 1446.07 689.225 1446.07 Z" fill="#000000" fill-rule="evenodd" fill-opacity="1" /><path clip-path="url(#clip710)" d="M714.387 1455.03 Q712.35 1455.03 711.169 1456.24 Q709.988 1457.46 709.988 1459.57 Q709.988 1461.65 711.169 1462.86 Q712.35 1464.08 714.387 1464.08 Q716.4 1464.08 717.581 1462.86 Q718.762 1461.65 718.762 1459.57 Q718.762 1457.46 717.581 1456.24 Q716.4 1455.03 714.387 1455.03 M720.359 1446.84 L720.359 1449.22 Q719.225 1448.76 718.067 1448.53 Q716.91 1448.27 715.775 1448.27 Q712.813 1448.27 711.238 1450.01 Q709.664 1451.77 709.433 1455.31 Q710.313 1454.18 711.632 1453.57 Q712.975 1452.97 714.549 1452.97 Q717.905 1452.97 719.85 1454.73 Q721.794 1456.51 721.794 1459.57 Q721.794 1462.51 719.757 1464.34 Q717.743 1466.14 714.387 1466.14 Q710.521 1466.14 708.484 1463.57 Q706.447 1461.01 706.447 1456.1 Q706.447 1451.51 708.947 1448.81 Q711.447 1446.07 715.66 1446.07 Q716.794 1446.07 717.951 1446.26 Q719.109 1446.47 720.359 1446.84 Z" fill="#000000" fill-rule="evenodd" fill-opacity="1" /><path clip-path="url(#clip710)" d="M860.492 1449.78 Q856.881 1449.78 855.053 1453.34 Q853.247 1456.88 853.247 1464.01 Q853.247 1471.12 855.053 1474.69 Q856.881 1478.23 860.492 1478.23 Q864.127 1478.23 865.932 1474.69 Q867.761 1471.12 867.761 1464.01 Q867.761 1456.88 865.932 1453.34 Q864.127 1449.78 860.492 1449.78 M860.492 1446.07 Q866.303 1446.07 869.358 1450.68 Q872.437 1455.26 872.437 1464.01 Q872.437 1472.74 869.358 1477.35 Q866.303 1481.93 860.492 1481.93 Q854.682 1481.93 851.604 1477.35 Q848.548 1472.74 848.548 1464.01 Q848.548 1455.26 851.604 1450.68 Q854.682 1446.07 860.492 1446.07 Z" fill="#000000" fill-rule="evenodd" fill-opacity="1" /><path clip-path="url(#clip710)" d="M880.654 1475.38 L885.539 1475.38 L885.539 1481.26 L880.654 1481.26 L880.654 1475.38 Z" fill="#000000" fill-rule="evenodd" fill-opacity="1" /><path clip-path="url(#clip710)" d="M895.77 1446.7 L914.126 1446.7 L914.126 1450.64 L900.052 1450.64 L900.052 1459.11 Q901.071 1458.76 902.089 1458.6 Q903.108 1458.41 904.126 1458.41 Q909.913 1458.41 913.293 1461.58 Q916.673 1464.76 916.673 1470.17 Q916.673 1475.75 913.2 1478.85 Q909.728 1481.93 903.409 1481.93 Q901.233 1481.93 898.964 1481.56 Q896.719 1481.19 894.312 1480.45 L894.312 1475.75 Q896.395 1476.88 898.617 1477.44 Q900.839 1478 903.316 1478 Q907.321 1478 909.659 1475.89 Q911.997 1473.78 911.997 1470.17 Q911.997 1466.56 909.659 1464.45 Q907.321 1462.35 903.316 1462.35 Q901.441 1462.35 899.566 1462.76 Q897.714 1463.18 895.77 1464.06 L895.77 1446.7 Z" fill="#000000" fill-rule="evenodd" fill-opacity="1" /><path clip-path="url(#clip710)" d="M935.885 1449.78 Q932.274 1449.78 930.446 1453.34 Q928.64 1456.88 928.64 1464.01 Q928.64 1471.12 930.446 1474.69 Q932.274 1478.23 935.885 1478.23 Q939.52 1478.23 941.325 1474.69 Q943.154 1471.12 943.154 1464.01 Q943.154 1456.88 941.325 1453.34 Q939.52 1449.78 935.885 1449.78 M935.885 1446.07 Q941.696 1446.07 944.751 1450.68 Q947.83 1455.26 947.83 1464.01 Q947.83 1472.74 944.751 1477.35 Q941.696 1481.93 935.885 1481.93 Q930.075 1481.93 926.997 1477.35 Q923.941 1472.74 923.941 1464.01 Q923.941 1455.26 926.997 1450.68 Q930.075 1446.07 935.885 1446.07 Z" fill="#000000" fill-rule="evenodd" fill-opacity="1" /><path clip-path="url(#clip710)" d="M976.996 1455.33 L967.621 1467.95 L977.482 1481.26 L972.459 1481.26 L964.913 1471.07 L957.367 1481.26 L952.344 1481.26 L962.413 1467.7 L953.2 1455.33 L958.223 1455.33 L965.098 1464.57 L971.973 1455.33 L976.996 1455.33 Z" fill="#000000" fill-rule="evenodd" fill-opacity="1" /><path clip-path="url(#clip710)" d="M984.913 1477.32 L992.552 1477.32 L992.552 1450.96 L984.242 1452.63 L984.242 1448.37 L992.506 1446.7 L997.181 1446.7 L997.181 1477.32 L1004.82 1477.32 L1004.82 1481.26 L984.913 1481.26 L984.913 1477.32 Z" fill="#000000" fill-rule="evenodd" fill-opacity="1" /><path clip-path="url(#clip710)" d="M1024.26 1449.78 Q1020.65 1449.78 1018.82 1453.34 Q1017.02 1456.88 1017.02 1464.01 Q1017.02 1471.12 1018.82 1474.69 Q1020.65 1478.23 1024.26 1478.23 Q1027.9 1478.23 1029.7 1474.69 Q1031.53 1471.12 1031.53 1464.01 Q1031.53 1456.88 1029.7 1453.34 Q1027.9 1449.78 1024.26 1449.78 M1024.26 1446.07 Q1030.07 1446.07 1033.13 1450.68 Q1036.21 1455.26 1036.21 1464.01 Q1036.21 1472.74 1033.13 1477.35 Q1030.07 1481.93 1024.26 1481.93 Q1018.45 1481.93 1015.38 1477.35 Q1012.32 1472.74 1012.32 1464.01 Q1012.32 1455.26 1015.38 1450.68 Q1018.45 1446.07 1024.26 1446.07 Z" fill="#000000" fill-rule="evenodd" fill-opacity="1" /><path clip-path="url(#clip710)" d="M1049.43 1455.03 Q1047.39 1455.03 1046.21 1456.24 Q1045.03 1457.46 1045.03 1459.57 Q1045.03 1461.65 1046.21 1462.86 Q1047.39 1464.08 1049.43 1464.08 Q1051.44 1464.08 1052.62 1462.86 Q1053.8 1461.65 1053.8 1459.57 Q1053.8 1457.46 1052.62 1456.24 Q1051.44 1455.03 1049.43 1455.03 M1055.4 1446.84 L1055.4 1449.22 Q1054.26 1448.76 1053.11 1448.53 Q1051.95 1448.27 1050.82 1448.27 Q1047.85 1448.27 1046.28 1450.01 Q1044.7 1451.77 1044.47 1455.31 Q1045.35 1454.18 1046.67 1453.57 Q1048.01 1452.97 1049.59 1452.97 Q1052.95 1452.97 1054.89 1454.73 Q1056.83 1456.51 1056.83 1459.57 Q1056.83 1462.51 1054.8 1464.34 Q1052.78 1466.14 1049.43 1466.14 Q1045.56 1466.14 1043.52 1463.57 Q1041.49 1461.01 1041.49 1456.1 Q1041.49 1451.51 1043.99 1448.81 Q1046.49 1446.07 1050.7 1446.07 Q1051.83 1446.07 1052.99 1446.26 Q1054.15 1446.47 1055.4 1446.84 Z" fill="#000000" fill-rule="evenodd" fill-opacity="1" /><path clip-path="url(#clip710)" d="M1195.53 1449.78 Q1191.92 1449.78 1190.09 1453.34 Q1188.29 1456.88 1188.29 1464.01 Q1188.29 1471.12 1190.09 1474.69 Q1191.92 1478.23 1195.53 1478.23 Q1199.17 1478.23 1200.97 1474.69 Q1202.8 1471.12 1202.8 1464.01 Q1202.8 1456.88 1200.97 1453.34 Q1199.17 1449.78 1195.53 1449.78 M1195.53 1446.07 Q1201.34 1446.07 1204.4 1450.68 Q1207.48 1455.26 1207.48 1464.01 Q1207.48 1472.74 1204.4 1477.35 Q1201.34 1481.93 1195.53 1481.93 Q1189.72 1481.93 1186.64 1477.35 Q1183.59 1472.74 1183.59 1464.01 Q1183.59 1455.26 1186.64 1450.68 Q1189.72 1446.07 1195.53 1446.07 Z" fill="#000000" fill-rule="evenodd" fill-opacity="1" /><path clip-path="url(#clip710)" d="M1215.69 1475.38 L1220.58 1475.38 L1220.58 1481.26 L1215.69 1481.26 L1215.69 1475.38 Z" fill="#000000" fill-rule="evenodd" fill-opacity="1" /><path clip-path="url(#clip710)" d="M1229.58 1446.7 L1251.81 1446.7 L1251.81 1448.69 L1239.26 1481.26 L1234.37 1481.26 L1246.18 1450.64 L1229.58 1450.64 L1229.58 1446.7 Z" fill="#000000" fill-rule="evenodd" fill-opacity="1" /><path clip-path="url(#clip710)" d="M1260.97 1446.7 L1279.33 1446.7 L1279.33 1450.64 L1265.25 1450.64 L1265.25 1459.11 Q1266.27 1458.76 1267.29 1458.6 Q1268.31 1458.41 1269.33 1458.41 Q1275.12 1458.41 1278.49 1461.58 Q1281.87 1464.76 1281.87 1470.17 Q1281.87 1475.75 1278.4 1478.85 Q1274.93 1481.93 1268.61 1481.93 Q1266.43 1481.93 1264.17 1481.56 Q1261.92 1481.19 1259.51 1480.45 L1259.51 1475.75 Q1261.6 1476.88 1263.82 1477.44 Q1266.04 1478 1268.52 1478 Q1272.52 1478 1274.86 1475.89 Q1277.2 1473.78 1277.2 1470.17 Q1277.2 1466.56 1274.86 1464.45 Q1272.52 1462.35 1268.52 1462.35 Q1266.64 1462.35 1264.77 1462.76 Q1262.92 1463.18 1260.97 1464.06 L1260.97 1446.7 Z" fill="#000000" fill-rule="evenodd" fill-opacity="1" /><path clip-path="url(#clip710)" d="M1312.04 1455.33 L1302.66 1467.95 L1312.52 1481.26 L1307.5 1481.26 L1299.95 1471.07 L1292.41 1481.26 L1287.38 1481.26 L1297.45 1467.7 L1288.24 1455.33 L1293.26 1455.33 L1300.14 1464.57 L1307.01 1455.33 L1312.04 1455.33 Z" fill="#000000" fill-rule="evenodd" fill-opacity="1" /><path clip-path="url(#clip710)" d="M1319.95 1477.32 L1327.59 1477.32 L1327.59 1450.96 L1319.28 1452.63 L1319.28 1448.37 L1327.55 1446.7 L1332.22 1446.7 L1332.22 1477.32 L1339.86 1477.32 L1339.86 1481.26 L1319.95 1481.26 L1319.95 1477.32 Z" fill="#000000" fill-rule="evenodd" fill-opacity="1" /><path clip-path="url(#clip710)" d="M1359.3 1449.78 Q1355.69 1449.78 1353.86 1453.34 Q1352.06 1456.88 1352.06 1464.01 Q1352.06 1471.12 1353.86 1474.69 Q1355.69 1478.23 1359.3 1478.23 Q1362.94 1478.23 1364.74 1474.69 Q1366.57 1471.12 1366.57 1464.01 Q1366.57 1456.88 1364.74 1453.34 Q1362.94 1449.78 1359.3 1449.78 M1359.3 1446.07 Q1365.11 1446.07 1368.17 1450.68 Q1371.25 1455.26 1371.25 1464.01 Q1371.25 1472.74 1368.17 1477.35 Q1365.11 1481.93 1359.3 1481.93 Q1353.49 1481.93 1350.42 1477.35 Q1347.36 1472.74 1347.36 1464.01 Q1347.36 1455.26 1350.42 1450.68 Q1353.49 1446.07 1359.3 1446.07 Z" fill="#000000" fill-rule="evenodd" fill-opacity="1" /><path clip-path="url(#clip710)" d="M1384.47 1455.03 Q1382.43 1455.03 1381.25 1456.24 Q1380.07 1457.46 1380.07 1459.57 Q1380.07 1461.65 1381.25 1462.86 Q1382.43 1464.08 1384.47 1464.08 Q1386.48 1464.08 1387.66 1462.86 Q1388.84 1461.65 1388.84 1459.57 Q1388.84 1457.46 1387.66 1456.24 Q1386.48 1455.03 1384.47 1455.03 M1390.44 1446.84 L1390.44 1449.22 Q1389.3 1448.76 1388.15 1448.53 Q1386.99 1448.27 1385.86 1448.27 Q1382.89 1448.27 1381.32 1450.01 Q1379.74 1451.77 1379.51 1455.31 Q1380.39 1454.18 1381.71 1453.57 Q1383.05 1452.97 1384.63 1452.97 Q1387.98 1452.97 1389.93 1454.73 Q1391.87 1456.51 1391.87 1459.57 Q1391.87 1462.51 1389.84 1464.34 Q1387.82 1466.14 1384.47 1466.14 Q1380.6 1466.14 1378.56 1463.57 Q1376.53 1461.01 1376.53 1456.1 Q1376.53 1451.51 1379.03 1448.81 Q1381.53 1446.07 1385.74 1446.07 Q1386.87 1446.07 1388.03 1446.26 Q1389.19 1446.47 1390.44 1446.84 Z" fill="#000000" fill-rule="evenodd" fill-opacity="1" /><path clip-path="url(#clip710)" d="M1520.34 1477.32 L1527.98 1477.32 L1527.98 1450.96 L1519.67 1452.63 L1519.67 1448.37 L1527.93 1446.7 L1532.61 1446.7 L1532.61 1477.32 L1540.25 1477.32 L1540.25 1481.26 L1520.34 1481.26 L1520.34 1477.32 Z" fill="#000000" fill-rule="evenodd" fill-opacity="1" /><path clip-path="url(#clip710)" d="M1549.69 1475.38 L1554.58 1475.38 L1554.58 1481.26 L1549.69 1481.26 L1549.69 1475.38 Z" fill="#000000" fill-rule="evenodd" fill-opacity="1" /><path clip-path="url(#clip710)" d="M1574.76 1449.78 Q1571.15 1449.78 1569.32 1453.34 Q1567.52 1456.88 1567.52 1464.01 Q1567.52 1471.12 1569.32 1474.69 Q1571.15 1478.23 1574.76 1478.23 Q1578.4 1478.23 1580.2 1474.69 Q1582.03 1471.12 1582.03 1464.01 Q1582.03 1456.88 1580.2 1453.34 Q1578.4 1449.78 1574.76 1449.78 M1574.76 1446.07 Q1580.57 1446.07 1583.63 1450.68 Q1586.71 1455.26 1586.71 1464.01 Q1586.71 1472.74 1583.63 1477.35 Q1580.57 1481.93 1574.76 1481.93 Q1568.95 1481.93 1565.87 1477.35 Q1562.82 1472.74 1562.82 1464.01 Q1562.82 1455.26 1565.87 1450.68 Q1568.95 1446.07 1574.76 1446.07 Z" fill="#000000" fill-rule="evenodd" fill-opacity="1" /><path clip-path="url(#clip710)" d="M1604.92 1449.78 Q1601.31 1449.78 1599.48 1453.34 Q1597.68 1456.88 1597.68 1464.01 Q1597.68 1471.12 1599.48 1474.69 Q1601.31 1478.23 1604.92 1478.23 Q1608.56 1478.23 1610.36 1474.69 Q1612.19 1471.12 1612.19 1464.01 Q1612.19 1456.88 1610.36 1453.34 Q1608.56 1449.78 1604.92 1449.78 M1604.92 1446.07 Q1610.73 1446.07 1613.79 1450.68 Q1616.87 1455.26 1616.87 1464.01 Q1616.87 1472.74 1613.79 1477.35 Q1610.73 1481.93 1604.92 1481.93 Q1599.11 1481.93 1596.03 1477.35 Q1592.98 1472.74 1592.98 1464.01 Q1592.98 1455.26 1596.03 1450.68 Q1599.11 1446.07 1604.92 1446.07 Z" fill="#000000" fill-rule="evenodd" fill-opacity="1" /><path clip-path="url(#clip710)" d="M1646.03 1455.33 L1636.66 1467.95 L1646.52 1481.26 L1641.5 1481.26 L1633.95 1471.07 L1626.41 1481.26 L1621.38 1481.26 L1631.45 1467.7 L1622.24 1455.33 L1627.26 1455.33 L1634.14 1464.57 L1641.01 1455.33 L1646.03 1455.33 Z" fill="#000000" fill-rule="evenodd" fill-opacity="1" /><path clip-path="url(#clip710)" d="M1653.95 1477.32 L1661.59 1477.32 L1661.59 1450.96 L1653.28 1452.63 L1653.28 1448.37 L1661.54 1446.7 L1666.22 1446.7 L1666.22 1477.32 L1673.86 1477.32 L1673.86 1481.26 L1653.95 1481.26 L1653.95 1477.32 Z" fill="#000000" fill-rule="evenodd" fill-opacity="1" /><path clip-path="url(#clip710)" d="M1693.3 1449.78 Q1689.69 1449.78 1687.86 1453.34 Q1686.06 1456.88 1686.06 1464.01 Q1686.06 1471.12 1687.86 1474.69 Q1689.69 1478.23 1693.3 1478.23 Q1696.94 1478.23 1698.74 1474.69 Q1700.57 1471.12 1700.57 1464.01 Q1700.57 1456.88 1698.74 1453.34 Q1696.94 1449.78 1693.3 1449.78 M1693.3 1446.07 Q1699.11 1446.07 1702.17 1450.68 Q1705.25 1455.26 1705.25 1464.01 Q1705.25 1472.74 1702.17 1477.35 Q1699.11 1481.93 1693.3 1481.93 Q1687.49 1481.93 1684.41 1477.35 Q1681.36 1472.74 1681.36 1464.01 Q1681.36 1455.26 1684.41 1450.68 Q1687.49 1446.07 1693.3 1446.07 Z" fill="#000000" fill-rule="evenodd" fill-opacity="1" /><path clip-path="url(#clip710)" d="M1718.46 1455.03 Q1716.43 1455.03 1715.25 1456.24 Q1714.07 1457.46 1714.07 1459.57 Q1714.07 1461.65 1715.25 1462.86 Q1716.43 1464.08 1718.46 1464.08 Q1720.48 1464.08 1721.66 1462.86 Q1722.84 1461.65 1722.84 1459.57 Q1722.84 1457.46 1721.66 1456.24 Q1720.48 1455.03 1718.46 1455.03 M1724.44 1446.84 L1724.44 1449.22 Q1723.3 1448.76 1722.15 1448.53 Q1720.99 1448.27 1719.85 1448.27 Q1716.89 1448.27 1715.32 1450.01 Q1713.74 1451.77 1713.51 1455.31 Q1714.39 1454.18 1715.71 1453.57 Q1717.05 1452.97 1718.63 1452.97 Q1721.98 1452.97 1723.93 1454.73 Q1725.87 1456.51 1725.87 1459.57 Q1725.87 1462.51 1723.84 1464.34 Q1721.82 1466.14 1718.46 1466.14 Q1714.6 1466.14 1712.56 1463.57 Q1710.53 1461.01 1710.53 1456.1 Q1710.53 1451.51 1713.03 1448.81 Q1715.52 1446.07 1719.74 1446.07 Q1720.87 1446.07 1722.03 1446.26 Q1723.19 1446.47 1724.44 1446.84 Z" fill="#000000" fill-rule="evenodd" fill-opacity="1" /><path clip-path="url(#clip710)" d="M1855.38 1477.32 L1863.02 1477.32 L1863.02 1450.96 L1854.71 1452.63 L1854.71 1448.37 L1862.97 1446.7 L1867.65 1446.7 L1867.65 1477.32 L1875.29 1477.32 L1875.29 1481.26 L1855.38 1481.26 L1855.38 1477.32 Z" fill="#000000" fill-rule="evenodd" fill-opacity="1" /><path clip-path="url(#clip710)" d="M1884.73 1475.38 L1889.62 1475.38 L1889.62 1481.26 L1884.73 1481.26 L1884.73 1475.38 Z" fill="#000000" fill-rule="evenodd" fill-opacity="1" /><path clip-path="url(#clip710)" d="M1903.83 1477.32 L1920.15 1477.32 L1920.15 1481.26 L1898.2 1481.26 L1898.2 1477.32 Q1900.87 1474.57 1905.45 1469.94 Q1910.06 1465.29 1911.24 1463.95 Q1913.48 1461.42 1914.36 1459.69 Q1915.26 1457.93 1915.26 1456.24 Q1915.26 1453.48 1913.32 1451.75 Q1911.4 1450.01 1908.3 1450.01 Q1906.1 1450.01 1903.64 1450.77 Q1901.21 1451.54 1898.44 1453.09 L1898.44 1448.37 Q1901.26 1447.23 1903.71 1446.65 Q1906.17 1446.07 1908.2 1446.07 Q1913.57 1446.07 1916.77 1448.76 Q1919.96 1451.45 1919.96 1455.94 Q1919.96 1458.07 1919.15 1459.99 Q1918.37 1461.88 1916.26 1464.48 Q1915.68 1465.15 1912.58 1468.37 Q1909.48 1471.56 1903.83 1477.32 Z" fill="#000000" fill-rule="evenodd" fill-opacity="1" /><path clip-path="url(#clip710)" d="M1930.01 1446.7 L1948.37 1446.7 L1948.37 1450.64 L1934.29 1450.64 L1934.29 1459.11 Q1935.31 1458.76 1936.33 1458.6 Q1937.35 1458.41 1938.37 1458.41 Q1944.15 1458.41 1947.53 1461.58 Q1950.91 1464.76 1950.91 1470.17 Q1950.91 1475.75 1947.44 1478.85 Q1943.97 1481.93 1937.65 1481.93 Q1935.47 1481.93 1933.2 1481.56 Q1930.96 1481.19 1928.55 1480.45 L1928.55 1475.75 Q1930.64 1476.88 1932.86 1477.44 Q1935.08 1478 1937.56 1478 Q1941.56 1478 1943.9 1475.89 Q1946.24 1473.78 1946.24 1470.17 Q1946.24 1466.56 1943.9 1464.45 Q1941.56 1462.35 1937.56 1462.35 Q1935.68 1462.35 1933.81 1462.76 Q1931.95 1463.18 1930.01 1464.06 L1930.01 1446.7 Z" fill="#000000" fill-rule="evenodd" fill-opacity="1" /><path clip-path="url(#clip710)" d="M1981.07 1455.33 L1971.7 1467.95 L1981.56 1481.26 L1976.54 1481.26 L1968.99 1471.07 L1961.45 1481.26 L1956.42 1481.26 L1966.49 1467.7 L1957.28 1455.33 L1962.3 1455.33 L1969.18 1464.57 L1976.05 1455.33 L1981.07 1455.33 Z" fill="#000000" fill-rule="evenodd" fill-opacity="1" /><path clip-path="url(#clip710)" d="M1988.99 1477.32 L1996.63 1477.32 L1996.63 1450.96 L1988.32 1452.63 L1988.32 1448.37 L1996.58 1446.7 L2001.26 1446.7 L2001.26 1477.32 L2008.9 1477.32 L2008.9 1481.26 L1988.99 1481.26 L1988.99 1477.32 Z" fill="#000000" fill-rule="evenodd" fill-opacity="1" /><path clip-path="url(#clip710)" d="M2028.34 1449.78 Q2024.73 1449.78 2022.9 1453.34 Q2021.1 1456.88 2021.1 1464.01 Q2021.1 1471.12 2022.9 1474.69 Q2024.73 1478.23 2028.34 1478.23 Q2031.98 1478.23 2033.78 1474.69 Q2035.61 1471.12 2035.61 1464.01 Q2035.61 1456.88 2033.78 1453.34 Q2031.98 1449.78 2028.34 1449.78 M2028.34 1446.07 Q2034.15 1446.07 2037.21 1450.68 Q2040.29 1455.26 2040.29 1464.01 Q2040.29 1472.74 2037.21 1477.35 Q2034.15 1481.93 2028.34 1481.93 Q2022.53 1481.93 2019.45 1477.35 Q2016.4 1472.74 2016.4 1464.01 Q2016.4 1455.26 2019.45 1450.68 Q2022.53 1446.07 2028.34 1446.07 Z" fill="#000000" fill-rule="evenodd" fill-opacity="1" /><path clip-path="url(#clip710)" d="M2053.5 1455.03 Q2051.47 1455.03 2050.29 1456.24 Q2049.11 1457.46 2049.11 1459.57 Q2049.11 1461.65 2050.29 1462.86 Q2051.47 1464.08 2053.5 1464.08 Q2055.52 1464.08 2056.7 1462.86 Q2057.88 1461.65 2057.88 1459.57 Q2057.88 1457.46 2056.7 1456.24 Q2055.52 1455.03 2053.5 1455.03 M2059.48 1446.84 L2059.48 1449.22 Q2058.34 1448.76 2057.19 1448.53 Q2056.03 1448.27 2054.89 1448.27 Q2051.93 1448.27 2050.36 1450.01 Q2048.78 1451.77 2048.55 1455.31 Q2049.43 1454.18 2050.75 1453.57 Q2052.09 1452.97 2053.67 1452.97 Q2057.02 1452.97 2058.97 1454.73 Q2060.91 1456.51 2060.91 1459.57 Q2060.91 1462.51 2058.88 1464.34 Q2056.86 1466.14 2053.5 1466.14 Q2049.64 1466.14 2047.6 1463.57 Q2045.56 1461.01 2045.56 1456.1 Q2045.56 1451.51 2048.06 1448.81 Q2050.56 1446.07 2054.78 1446.07 Q2055.91 1446.07 2057.07 1446.26 Q2058.23 1446.47 2059.48 1446.84 Z" fill="#000000" fill-rule="evenodd" fill-opacity="1" /><path clip-path="url(#clip710)" d="M2190.42 1477.32 L2198.06 1477.32 L2198.06 1450.96 L2189.75 1452.63 L2189.75 1448.37 L2198.01 1446.7 L2202.69 1446.7 L2202.69 1477.32 L2210.33 1477.32 L2210.33 1481.26 L2190.42 1481.26 L2190.42 1477.32 Z" fill="#000000" fill-rule="evenodd" fill-opacity="1" /><path clip-path="url(#clip710)" d="M2219.77 1475.38 L2224.66 1475.38 L2224.66 1481.26 L2219.77 1481.26 L2219.77 1475.38 Z" fill="#000000" fill-rule="evenodd" fill-opacity="1" /><path clip-path="url(#clip710)" d="M2234.89 1446.7 L2253.24 1446.7 L2253.24 1450.64 L2239.17 1450.64 L2239.17 1459.11 Q2240.19 1458.76 2241.21 1458.6 Q2242.23 1458.41 2243.24 1458.41 Q2249.03 1458.41 2252.41 1461.58 Q2255.79 1464.76 2255.79 1470.17 Q2255.79 1475.75 2252.32 1478.85 Q2248.85 1481.93 2242.53 1481.93 Q2240.35 1481.93 2238.08 1481.56 Q2235.84 1481.19 2233.43 1480.45 L2233.43 1475.75 Q2235.51 1476.88 2237.74 1477.44 Q2239.96 1478 2242.43 1478 Q2246.44 1478 2248.78 1475.89 Q2251.11 1473.78 2251.11 1470.17 Q2251.11 1466.56 2248.78 1464.45 Q2246.44 1462.35 2242.43 1462.35 Q2240.56 1462.35 2238.68 1462.76 Q2236.83 1463.18 2234.89 1464.06 L2234.89 1446.7 Z" fill="#000000" fill-rule="evenodd" fill-opacity="1" /><path clip-path="url(#clip710)" d="M2275 1449.78 Q2271.39 1449.78 2269.56 1453.34 Q2267.76 1456.88 2267.76 1464.01 Q2267.76 1471.12 2269.56 1474.69 Q2271.39 1478.23 2275 1478.23 Q2278.64 1478.23 2280.44 1474.69 Q2282.27 1471.12 2282.27 1464.01 Q2282.27 1456.88 2280.44 1453.34 Q2278.64 1449.78 2275 1449.78 M2275 1446.07 Q2280.81 1446.07 2283.87 1450.68 Q2286.95 1455.26 2286.95 1464.01 Q2286.95 1472.74 2283.87 1477.35 Q2280.81 1481.93 2275 1481.93 Q2269.19 1481.93 2266.11 1477.35 Q2263.06 1472.74 2263.06 1464.01 Q2263.06 1455.26 2266.11 1450.68 Q2269.19 1446.07 2275 1446.07 Z" fill="#000000" fill-rule="evenodd" fill-opacity="1" /><path clip-path="url(#clip710)" d="M2316.11 1455.33 L2306.74 1467.95 L2316.6 1481.26 L2311.58 1481.26 L2304.03 1471.07 L2296.49 1481.26 L2291.46 1481.26 L2301.53 1467.7 L2292.32 1455.33 L2297.34 1455.33 L2304.22 1464.57 L2311.09 1455.33 L2316.11 1455.33 Z" fill="#000000" fill-rule="evenodd" fill-opacity="1" /><path clip-path="url(#clip710)" d="M2324.03 1477.32 L2331.67 1477.32 L2331.67 1450.96 L2323.36 1452.63 L2323.36 1448.37 L2331.62 1446.7 L2336.3 1446.7 L2336.3 1477.32 L2343.94 1477.32 L2343.94 1481.26 L2324.03 1481.26 L2324.03 1477.32 Z" fill="#000000" fill-rule="evenodd" fill-opacity="1" /><path clip-path="url(#clip710)" d="M2363.38 1449.78 Q2359.77 1449.78 2357.94 1453.34 Q2356.14 1456.88 2356.14 1464.01 Q2356.14 1471.12 2357.94 1474.69 Q2359.77 1478.23 2363.38 1478.23 Q2367.02 1478.23 2368.82 1474.69 Q2370.65 1471.12 2370.65 1464.01 Q2370.65 1456.88 2368.82 1453.34 Q2367.02 1449.78 2363.38 1449.78 M2363.38 1446.07 Q2369.19 1446.07 2372.25 1450.68 Q2375.33 1455.26 2375.33 1464.01 Q2375.33 1472.74 2372.25 1477.35 Q2369.19 1481.93 2363.38 1481.93 Q2357.57 1481.93 2354.49 1477.35 Q2351.44 1472.74 2351.44 1464.01 Q2351.44 1455.26 2354.49 1450.68 Q2357.57 1446.07 2363.38 1446.07 Z" fill="#000000" fill-rule="evenodd" fill-opacity="1" /><path clip-path="url(#clip710)" d="M2388.54 1455.03 Q2386.51 1455.03 2385.33 1456.24 Q2384.15 1457.46 2384.15 1459.57 Q2384.15 1461.65 2385.33 1462.86 Q2386.51 1464.08 2388.54 1464.08 Q2390.56 1464.08 2391.74 1462.86 Q2392.92 1461.65 2392.92 1459.57 Q2392.92 1457.46 2391.74 1456.24 Q2390.56 1455.03 2388.54 1455.03 M2394.52 1446.84 L2394.52 1449.22 Q2393.38 1448.76 2392.23 1448.53 Q2391.07 1448.27 2389.93 1448.27 Q2386.97 1448.27 2385.4 1450.01 Q2383.82 1451.77 2383.59 1455.31 Q2384.47 1454.18 2385.79 1453.57 Q2387.13 1452.97 2388.71 1452.97 Q2392.06 1452.97 2394.01 1454.73 Q2395.95 1456.51 2395.95 1459.57 Q2395.95 1462.51 2393.92 1464.34 Q2391.9 1466.14 2388.54 1466.14 Q2384.68 1466.14 2382.64 1463.57 Q2380.6 1461.01 2380.6 1456.1 Q2380.6 1451.51 2383.1 1448.81 Q2385.6 1446.07 2389.82 1446.07 Q2390.95 1446.07 2392.11 1446.26 Q2393.27 1446.47 2394.52 1446.84 Z" fill="#000000" fill-rule="evenodd" fill-opacity="1" /><path clip-path="url(#clip710)" d="M1130.32 1517.07 L1137.33 1517.07 L1137.33 1568.91 L1130.32 1568.91 L1130.32 1517.07 Z" fill="#000000" fill-rule="evenodd" fill-opacity="1" /><path clip-path="url(#clip710)" d="M1157.33 1518.98 L1157.33 1530.02 L1170.49 1530.02 L1170.49 1534.98 L1157.33 1534.98 L1157.33 1556.1 Q1157.33 1560.85 1158.62 1562.21 Q1159.94 1563.56 1163.93 1563.56 L1170.49 1563.56 L1170.49 1568.91 L1163.93 1568.91 Q1156.53 1568.91 1153.72 1566.16 Q1150.91 1563.39 1150.91 1556.1 L1150.91 1534.98 L1146.22 1534.98 L1146.22 1530.02 L1150.91 1530.02 L1150.91 1518.98 L1157.33 1518.98 Z" fill="#000000" fill-rule="evenodd" fill-opacity="1" /><path clip-path="url(#clip710)" d="M1212.16 1547.87 L1212.16 1550.99 L1182.78 1550.99 Q1183.2 1557.59 1186.74 1561.06 Q1190.32 1564.5 1196.67 1564.5 Q1200.35 1564.5 1203.79 1563.6 Q1207.26 1562.69 1210.66 1560.89 L1210.66 1566.93 Q1207.23 1568.39 1203.62 1569.15 Q1200.01 1569.91 1196.29 1569.91 Q1186.98 1569.91 1181.53 1564.5 Q1176.12 1559.08 1176.12 1549.85 Q1176.12 1540.3 1181.26 1534.71 Q1186.43 1529.08 1195.18 1529.08 Q1203.03 1529.08 1207.57 1534.15 Q1212.16 1539.19 1212.16 1547.87 M1205.77 1545.99 Q1205.7 1540.75 1202.82 1537.62 Q1199.97 1534.5 1195.25 1534.5 Q1189.9 1534.5 1186.67 1537.52 Q1183.48 1540.54 1182.99 1546.03 L1205.77 1545.99 Z" fill="#000000" fill-rule="evenodd" fill-opacity="1" /><path clip-path="url(#clip710)" d="M1245.18 1535.99 Q1244.1 1535.37 1242.82 1535.09 Q1241.57 1534.78 1240.04 1534.78 Q1234.62 1534.78 1231.71 1538.32 Q1228.82 1541.82 1228.82 1548.42 L1228.82 1568.91 L1222.4 1568.91 L1222.4 1530.02 L1228.82 1530.02 L1228.82 1536.06 Q1230.84 1532.52 1234.07 1530.82 Q1237.3 1529.08 1241.91 1529.08 Q1242.57 1529.08 1243.37 1529.19 Q1244.17 1529.26 1245.14 1529.43 L1245.18 1535.99 Z" fill="#000000" fill-rule="evenodd" fill-opacity="1" /><path clip-path="url(#clip710)" d="M1269.55 1549.36 Q1261.81 1549.36 1258.82 1551.13 Q1255.84 1552.9 1255.84 1557.17 Q1255.84 1560.57 1258.06 1562.59 Q1260.32 1564.57 1264.17 1564.57 Q1269.48 1564.57 1272.68 1560.82 Q1275.91 1557.03 1275.91 1550.78 L1275.91 1549.36 L1269.55 1549.36 M1282.3 1546.72 L1282.3 1568.91 L1275.91 1568.91 L1275.91 1563.01 Q1273.72 1566.55 1270.46 1568.25 Q1267.19 1569.91 1262.47 1569.91 Q1256.5 1569.91 1252.96 1566.58 Q1249.45 1563.21 1249.45 1557.59 Q1249.45 1551.03 1253.82 1547.69 Q1258.23 1544.36 1266.95 1544.36 L1275.91 1544.36 L1275.91 1543.73 Q1275.91 1539.32 1272.99 1536.93 Q1270.11 1534.5 1264.87 1534.5 Q1261.53 1534.5 1258.37 1535.3 Q1255.21 1536.1 1252.3 1537.69 L1252.3 1531.79 Q1255.8 1530.44 1259.1 1529.78 Q1262.4 1529.08 1265.53 1529.08 Q1273.96 1529.08 1278.13 1533.46 Q1282.3 1537.83 1282.3 1546.72 Z" fill="#000000" fill-rule="evenodd" fill-opacity="1" /><path clip-path="url(#clip710)" d="M1301.78 1518.98 L1301.78 1530.02 L1314.94 1530.02 L1314.94 1534.98 L1301.78 1534.98 L1301.78 1556.1 Q1301.78 1560.85 1303.06 1562.21 Q1304.38 1563.56 1308.37 1563.56 L1314.94 1563.56 L1314.94 1568.91 L1308.37 1568.91 Q1300.98 1568.91 1298.16 1566.16 Q1295.35 1563.39 1295.35 1556.1 L1295.35 1534.98 L1290.66 1534.98 L1290.66 1530.02 L1295.35 1530.02 L1295.35 1518.98 L1301.78 1518.98 Z" fill="#000000" fill-rule="evenodd" fill-opacity="1" /><path clip-path="url(#clip710)" d="M1323.34 1530.02 L1329.73 1530.02 L1329.73 1568.91 L1323.34 1568.91 L1323.34 1530.02 M1323.34 1514.88 L1329.73 1514.88 L1329.73 1522.97 L1323.34 1522.97 L1323.34 1514.88 Z" fill="#000000" fill-rule="evenodd" fill-opacity="1" /><path clip-path="url(#clip710)" d="M1358.16 1534.5 Q1353.03 1534.5 1350.04 1538.53 Q1347.05 1542.52 1347.05 1549.5 Q1347.05 1556.48 1350 1560.51 Q1352.99 1564.5 1358.16 1564.5 Q1363.27 1564.5 1366.25 1560.47 Q1369.24 1556.44 1369.24 1549.5 Q1369.24 1542.59 1366.25 1538.56 Q1363.27 1534.5 1358.16 1534.5 M1358.16 1529.08 Q1366.5 1529.08 1371.25 1534.5 Q1376.01 1539.91 1376.01 1549.5 Q1376.01 1559.05 1371.25 1564.5 Q1366.5 1569.91 1358.16 1569.91 Q1349.8 1569.91 1345.04 1564.5 Q1340.32 1559.05 1340.32 1549.5 Q1340.32 1539.91 1345.04 1534.5 Q1349.8 1529.08 1358.16 1529.08 Z" fill="#000000" fill-rule="evenodd" fill-opacity="1" /><path clip-path="url(#clip710)" d="M1418.93 1545.44 L1418.93 1568.91 L1412.54 1568.91 L1412.54 1545.64 Q1412.54 1540.12 1410.39 1537.38 Q1408.23 1534.64 1403.93 1534.64 Q1398.75 1534.64 1395.77 1537.94 Q1392.78 1541.23 1392.78 1546.93 L1392.78 1568.91 L1386.36 1568.91 L1386.36 1530.02 L1392.78 1530.02 L1392.78 1536.06 Q1395.07 1532.55 1398.16 1530.82 Q1401.29 1529.08 1405.35 1529.08 Q1412.05 1529.08 1415.49 1533.25 Q1418.93 1537.38 1418.93 1545.44 Z" fill="#000000" fill-rule="evenodd" fill-opacity="1" /><path clip-path="url(#clip710)" d="M1456.46 1531.16 L1456.46 1537.21 Q1453.75 1535.82 1450.84 1535.12 Q1447.92 1534.43 1444.8 1534.43 Q1440.04 1534.43 1437.64 1535.89 Q1435.28 1537.35 1435.28 1540.26 Q1435.28 1542.48 1436.98 1543.77 Q1438.68 1545.02 1443.82 1546.16 L1446.01 1546.65 Q1452.82 1548.11 1455.66 1550.78 Q1458.55 1553.42 1458.55 1558.18 Q1458.55 1563.6 1454.24 1566.76 Q1449.97 1569.91 1442.47 1569.91 Q1439.34 1569.91 1435.94 1569.29 Q1432.57 1568.7 1428.82 1567.48 L1428.82 1560.89 Q1432.36 1562.73 1435.8 1563.66 Q1439.24 1564.57 1442.61 1564.57 Q1447.12 1564.57 1449.55 1563.04 Q1451.98 1561.48 1451.98 1558.66 Q1451.98 1556.06 1450.21 1554.67 Q1448.48 1553.28 1442.54 1552 L1440.32 1551.48 Q1434.38 1550.23 1431.74 1547.66 Q1429.1 1545.05 1429.1 1540.54 Q1429.1 1535.05 1432.99 1532.07 Q1436.88 1529.08 1444.03 1529.08 Q1447.57 1529.08 1450.7 1529.6 Q1453.82 1530.12 1456.46 1531.16 Z" fill="#000000" fill-rule="evenodd" fill-opacity="1" /><polyline clip-path="url(#clip712)" style="stroke:#000000; stroke-linecap:round; stroke-linejoin:round; stroke-width:2; stroke-opacity:0.1; fill:none" points="
  236.107,1291.21 2352.76,1291.21 
  "/>
<polyline clip-path="url(#clip712)" style="stroke:#000000; stroke-linecap:round; stroke-linejoin:round; stroke-width:2; stroke-opacity:0.1; fill:none" points="
  236.107,1108.98 2352.76,1108.98 
  "/>
<polyline clip-path="url(#clip712)" style="stroke:#000000; stroke-linecap:round; stroke-linejoin:round; stroke-width:2; stroke-opacity:0.1; fill:none" points="
  236.107,926.74 2352.76,926.74 
  "/>
<polyline clip-path="url(#clip712)" style="stroke:#000000; stroke-linecap:round; stroke-linejoin:round; stroke-width:2; stroke-opacity:0.1; fill:none" points="
  236.107,744.505 2352.76,744.505 
  "/>
<polyline clip-path="url(#clip712)" style="stroke:#000000; stroke-linecap:round; stroke-linejoin:round; stroke-width:2; stroke-opacity:0.1; fill:none" points="
  236.107,562.27 2352.76,562.27 
  "/>
<polyline clip-path="url(#clip712)" style="stroke:#000000; stroke-linecap:round; stroke-linejoin:round; stroke-width:2; stroke-opacity:0.1; fill:none" points="
  236.107,380.034 2352.76,380.034 
  "/>
<polyline clip-path="url(#clip712)" style="stroke:#000000; stroke-linecap:round; stroke-linejoin:round; stroke-width:2; stroke-opacity:0.1; fill:none" points="
  236.107,197.799 2352.76,197.799 
  "/>
<polyline clip-path="url(#clip710)" style="stroke:#000000; stroke-linecap:round; stroke-linejoin:round; stroke-width:4; stroke-opacity:1; fill:none" points="
  236.107,1418.86 236.107,47.2441 
  "/>
<polyline clip-path="url(#clip710)" style="stroke:#000000; stroke-linecap:round; stroke-linejoin:round; stroke-width:4; stroke-opacity:1; fill:none" points="
  236.107,1291.21 255.005,1291.21 
  "/>
<polyline clip-path="url(#clip710)" style="stroke:#000000; stroke-linecap:round; stroke-linejoin:round; stroke-width:4; stroke-opacity:1; fill:none" points="
  236.107,1108.98 255.005,1108.98 
  "/>
<polyline clip-path="url(#clip710)" style="stroke:#000000; stroke-linecap:round; stroke-linejoin:round; stroke-width:4; stroke-opacity:1; fill:none" points="
  236.107,926.74 255.005,926.74 
  "/>
<polyline clip-path="url(#clip710)" style="stroke:#000000; stroke-linecap:round; stroke-linejoin:round; stroke-width:4; stroke-opacity:1; fill:none" points="
  236.107,744.505 255.005,744.505 
  "/>
<polyline clip-path="url(#clip710)" style="stroke:#000000; stroke-linecap:round; stroke-linejoin:round; stroke-width:4; stroke-opacity:1; fill:none" points="
  236.107,562.27 255.005,562.27 
  "/>
<polyline clip-path="url(#clip710)" style="stroke:#000000; stroke-linecap:round; stroke-linejoin:round; stroke-width:4; stroke-opacity:1; fill:none" points="
  236.107,380.034 255.005,380.034 
  "/>
<polyline clip-path="url(#clip710)" style="stroke:#000000; stroke-linecap:round; stroke-linejoin:round; stroke-width:4; stroke-opacity:1; fill:none" points="
  236.107,197.799 255.005,197.799 
  "/>
<path clip-path="url(#clip710)" d="M122.157 1265.29 L149.691 1265.29 L149.691 1271.19 L128.58 1271.19 L128.58 1283.9 Q130.108 1283.38 131.636 1283.14 Q133.163 1282.86 134.691 1282.86 Q143.372 1282.86 148.441 1287.62 Q153.511 1292.37 153.511 1300.5 Q153.511 1308.87 148.302 1313.52 Q143.094 1318.14 133.615 1318.14 Q130.351 1318.14 126.948 1317.58 Q123.58 1317.03 119.969 1315.92 L119.969 1308.87 Q123.094 1310.57 126.427 1311.4 Q129.761 1312.24 133.476 1312.24 Q139.483 1312.24 142.99 1309.08 Q146.497 1305.92 146.497 1300.5 Q146.497 1295.08 142.99 1291.92 Q139.483 1288.76 133.476 1288.76 Q130.663 1288.76 127.851 1289.39 Q125.073 1290.01 122.157 1291.33 L122.157 1265.29 Z" fill="#000000" fill-rule="evenodd" fill-opacity="1" /><path clip-path="url(#clip710)" d="M182.33 1292.51 Q177.33 1292.51 174.448 1295.19 Q171.601 1297.86 171.601 1302.55 Q171.601 1307.24 174.448 1309.91 Q177.33 1312.58 182.33 1312.58 Q187.33 1312.58 190.212 1309.91 Q193.094 1307.2 193.094 1302.55 Q193.094 1297.86 190.212 1295.19 Q187.365 1292.51 182.33 1292.51 M175.316 1289.53 Q170.802 1288.42 168.267 1285.33 Q165.767 1282.24 165.767 1277.79 Q165.767 1271.58 170.177 1267.96 Q174.622 1264.35 182.33 1264.35 Q190.073 1264.35 194.483 1267.96 Q198.892 1271.58 198.892 1277.79 Q198.892 1282.24 196.358 1285.33 Q193.858 1288.42 189.378 1289.53 Q194.448 1290.71 197.26 1294.14 Q200.107 1297.58 200.107 1302.55 Q200.107 1310.08 195.489 1314.11 Q190.906 1318.14 182.33 1318.14 Q173.753 1318.14 169.135 1314.11 Q164.552 1310.08 164.552 1302.55 Q164.552 1297.58 167.399 1294.14 Q170.247 1290.71 175.316 1289.53 M172.747 1278.45 Q172.747 1282.48 175.247 1284.74 Q177.781 1286.99 182.33 1286.99 Q186.844 1286.99 189.378 1284.74 Q191.948 1282.48 191.948 1278.45 Q191.948 1274.42 189.378 1272.17 Q186.844 1269.91 182.33 1269.91 Q177.781 1269.91 175.247 1272.17 Q172.747 1274.42 172.747 1278.45 Z" fill="#000000" fill-rule="evenodd" fill-opacity="1" /><path clip-path="url(#clip710)" d="M137.816 1106.18 Q133.094 1106.18 130.316 1109.41 Q127.573 1112.64 127.573 1118.26 Q127.573 1123.85 130.316 1127.12 Q133.094 1130.35 137.816 1130.35 Q142.538 1130.35 145.281 1127.12 Q148.059 1123.85 148.059 1118.26 Q148.059 1112.64 145.281 1109.41 Q142.538 1106.18 137.816 1106.18 M151.74 1084.2 L151.74 1090.59 Q149.101 1089.34 146.393 1088.68 Q143.719 1088.02 141.08 1088.02 Q134.136 1088.02 130.455 1092.71 Q126.809 1097.4 126.288 1106.87 Q128.337 1103.85 131.427 1102.26 Q134.518 1100.62 138.233 1100.62 Q146.045 1100.62 150.559 1105.38 Q155.108 1110.1 155.108 1118.26 Q155.108 1126.25 150.386 1131.08 Q145.663 1135.9 137.816 1135.9 Q128.823 1135.9 124.066 1129.03 Q119.309 1122.12 119.309 1109.03 Q119.309 1096.74 125.143 1089.44 Q130.976 1082.12 140.802 1082.12 Q143.441 1082.12 146.115 1082.64 Q148.823 1083.16 151.74 1084.2 Z" fill="#000000" fill-rule="evenodd" fill-opacity="1" /><path clip-path="url(#clip710)" d="M182.191 1087.67 Q176.774 1087.67 174.031 1093.02 Q171.323 1098.33 171.323 1109.03 Q171.323 1119.69 174.031 1125.03 Q176.774 1130.35 182.191 1130.35 Q187.642 1130.35 190.351 1125.03 Q193.094 1119.69 193.094 1109.03 Q193.094 1098.33 190.351 1093.02 Q187.642 1087.67 182.191 1087.67 M182.191 1082.12 Q190.906 1082.12 195.489 1089.03 Q200.107 1095.9 200.107 1109.03 Q200.107 1122.12 195.489 1129.03 Q190.906 1135.9 182.191 1135.9 Q173.476 1135.9 168.858 1129.03 Q164.274 1122.12 164.274 1109.03 Q164.274 1095.9 168.858 1089.03 Q173.476 1082.12 182.191 1082.12 Z" fill="#000000" fill-rule="evenodd" fill-opacity="1" /><path clip-path="url(#clip710)" d="M140.212 923.945 Q135.49 923.945 132.712 927.174 Q129.969 930.403 129.969 936.028 Q129.969 941.619 132.712 944.882 Q135.49 948.112 140.212 948.112 Q144.934 948.112 147.677 944.882 Q150.455 941.619 150.455 936.028 Q150.455 930.403 147.677 927.174 Q144.934 923.945 140.212 923.945 M154.136 901.966 L154.136 908.355 Q151.497 907.105 148.788 906.445 Q146.115 905.785 143.476 905.785 Q136.531 905.785 132.851 910.473 Q129.205 915.16 128.684 924.64 Q130.733 921.619 133.823 920.021 Q136.913 918.39 140.629 918.39 Q148.441 918.39 152.955 923.146 Q157.504 927.869 157.504 936.028 Q157.504 944.014 152.781 948.841 Q148.059 953.667 140.212 953.667 Q131.219 953.667 126.462 946.792 Q121.705 939.882 121.705 926.792 Q121.705 914.501 127.538 907.209 Q133.372 899.883 143.198 899.883 Q145.837 899.883 148.511 900.404 Q151.219 900.924 154.136 901.966 Z" fill="#000000" fill-rule="evenodd" fill-opacity="1" /><path clip-path="url(#clip710)" d="M175.628 946.757 L200.107 946.757 L200.107 952.66 L167.191 952.66 L167.191 946.757 Q171.184 942.626 178.059 935.681 Q184.969 928.702 186.74 926.688 Q190.108 922.903 191.427 920.299 Q192.781 917.66 192.781 915.126 Q192.781 910.994 189.864 908.39 Q186.983 905.785 182.33 905.785 Q179.031 905.785 175.351 906.931 Q171.705 908.077 167.538 910.403 L167.538 903.32 Q171.774 901.619 175.455 900.751 Q179.135 899.883 182.191 899.883 Q190.246 899.883 195.038 903.91 Q199.83 907.938 199.83 914.674 Q199.83 917.869 198.614 920.751 Q197.434 923.598 194.274 927.487 Q193.406 928.494 188.753 933.32 Q184.101 938.112 175.628 946.757 Z" fill="#000000" fill-rule="evenodd" fill-opacity="1" /><path clip-path="url(#clip710)" d="M137.087 741.71 Q132.365 741.71 129.587 744.939 Q126.844 748.168 126.844 753.793 Q126.844 759.383 129.587 762.647 Q132.365 765.876 137.087 765.876 Q141.809 765.876 144.552 762.647 Q147.33 759.383 147.33 753.793 Q147.33 748.168 144.552 744.939 Q141.809 741.71 137.087 741.71 M151.011 719.731 L151.011 726.12 Q148.372 724.87 145.663 724.21 Q142.99 723.55 140.351 723.55 Q133.406 723.55 129.726 728.238 Q126.08 732.925 125.559 742.404 Q127.608 739.383 130.698 737.786 Q133.788 736.154 137.504 736.154 Q145.316 736.154 149.83 740.911 Q154.379 745.633 154.379 753.793 Q154.379 761.779 149.656 766.605 Q144.934 771.432 137.087 771.432 Q128.094 771.432 123.337 764.557 Q118.58 757.647 118.58 744.557 Q118.58 732.265 124.413 724.974 Q130.247 717.647 140.073 717.647 Q142.712 717.647 145.386 718.168 Q148.094 718.689 151.011 719.731 Z" fill="#000000" fill-rule="evenodd" fill-opacity="1" /><path clip-path="url(#clip710)" d="M185.733 724.696 L168.024 752.369 L185.733 752.369 L185.733 724.696 M183.892 718.585 L192.712 718.585 L192.712 752.369 L200.107 752.369 L200.107 758.203 L192.712 758.203 L192.712 770.425 L185.733 770.425 L185.733 758.203 L162.33 758.203 L162.33 751.432 L183.892 718.585 Z" fill="#000000" fill-rule="evenodd" fill-opacity="1" /><path clip-path="url(#clip710)" d="M137.573 559.474 Q132.851 559.474 130.073 562.704 Q127.33 565.933 127.33 571.558 Q127.33 577.148 130.073 580.412 Q132.851 583.641 137.573 583.641 Q142.295 583.641 145.038 580.412 Q147.816 577.148 147.816 571.558 Q147.816 565.933 145.038 562.704 Q142.295 559.474 137.573 559.474 M151.497 537.495 L151.497 543.884 Q148.858 542.634 146.149 541.974 Q143.476 541.315 140.837 541.315 Q133.893 541.315 130.212 546.002 Q126.566 550.69 126.045 560.169 Q128.094 557.148 131.184 555.551 Q134.275 553.919 137.99 553.919 Q145.802 553.919 150.316 558.676 Q154.865 563.398 154.865 571.558 Q154.865 579.544 150.142 584.37 Q145.42 589.196 137.573 589.196 Q128.58 589.196 123.823 582.321 Q119.066 575.412 119.066 562.322 Q119.066 550.03 124.9 542.738 Q130.733 535.412 140.559 535.412 Q143.198 535.412 145.872 535.933 Q148.58 536.454 151.497 537.495 Z" fill="#000000" fill-rule="evenodd" fill-opacity="1" /><path clip-path="url(#clip710)" d="M182.816 559.474 Q178.094 559.474 175.316 562.704 Q172.573 565.933 172.573 571.558 Q172.573 577.148 175.316 580.412 Q178.094 583.641 182.816 583.641 Q187.538 583.641 190.281 580.412 Q193.059 577.148 193.059 571.558 Q193.059 565.933 190.281 562.704 Q187.538 559.474 182.816 559.474 M196.739 537.495 L196.739 543.884 Q194.101 542.634 191.392 541.974 Q188.719 541.315 186.08 541.315 Q179.135 541.315 175.455 546.002 Q171.809 550.69 171.288 560.169 Q173.337 557.148 176.427 555.551 Q179.517 553.919 183.233 553.919 Q191.045 553.919 195.559 558.676 Q200.107 563.398 200.107 571.558 Q200.107 579.544 195.385 584.37 Q190.663 589.196 182.816 589.196 Q173.823 589.196 169.066 582.321 Q164.309 575.412 164.309 562.322 Q164.309 550.03 170.142 542.738 Q175.976 535.412 185.802 535.412 Q188.441 535.412 191.114 535.933 Q193.823 536.454 196.739 537.495 Z" fill="#000000" fill-rule="evenodd" fill-opacity="1" /><path clip-path="url(#clip710)" d="M137.955 377.239 Q133.233 377.239 130.455 380.468 Q127.712 383.697 127.712 389.322 Q127.712 394.913 130.455 398.176 Q133.233 401.406 137.955 401.406 Q142.677 401.406 145.42 398.176 Q148.198 394.913 148.198 389.322 Q148.198 383.697 145.42 380.468 Q142.677 377.239 137.955 377.239 M151.879 355.26 L151.879 361.649 Q149.24 360.399 146.531 359.739 Q143.858 359.079 141.219 359.079 Q134.275 359.079 130.594 363.767 Q126.948 368.454 126.427 377.933 Q128.476 374.913 131.566 373.315 Q134.656 371.684 138.372 371.684 Q146.184 371.684 150.698 376.44 Q155.247 381.163 155.247 389.322 Q155.247 397.308 150.524 402.135 Q145.802 406.961 137.955 406.961 Q128.962 406.961 124.205 400.086 Q119.448 393.176 119.448 380.086 Q119.448 367.795 125.282 360.503 Q131.115 353.177 140.941 353.177 Q143.58 353.177 146.254 353.698 Q148.962 354.218 151.879 355.26 Z" fill="#000000" fill-rule="evenodd" fill-opacity="1" /><path clip-path="url(#clip710)" d="M182.33 381.336 Q177.33 381.336 174.448 384.01 Q171.601 386.683 171.601 391.371 Q171.601 396.058 174.448 398.732 Q177.33 401.406 182.33 401.406 Q187.33 401.406 190.212 398.732 Q193.094 396.024 193.094 391.371 Q193.094 386.683 190.212 384.01 Q187.365 381.336 182.33 381.336 M175.316 378.35 Q170.802 377.239 168.267 374.149 Q165.767 371.059 165.767 366.614 Q165.767 360.399 170.177 356.788 Q174.622 353.177 182.33 353.177 Q190.073 353.177 194.483 356.788 Q198.892 360.399 198.892 366.614 Q198.892 371.059 196.358 374.149 Q193.858 377.239 189.378 378.35 Q194.448 379.531 197.26 382.968 Q200.107 386.406 200.107 391.371 Q200.107 398.906 195.489 402.933 Q190.906 406.961 182.33 406.961 Q173.753 406.961 169.135 402.933 Q164.552 398.906 164.552 391.371 Q164.552 386.406 167.399 382.968 Q170.247 379.531 175.316 378.35 M172.747 367.274 Q172.747 371.302 175.247 373.559 Q177.781 375.815 182.33 375.815 Q186.844 375.815 189.378 373.559 Q191.948 371.302 191.948 367.274 Q191.948 363.246 189.378 360.989 Q186.844 358.732 182.33 358.732 Q177.781 358.732 175.247 360.989 Q172.747 363.246 172.747 367.274 Z" fill="#000000" fill-rule="evenodd" fill-opacity="1" /><path clip-path="url(#clip710)" d="M120.177 171.879 L153.511 171.879 L153.511 174.865 L134.691 223.719 L127.365 223.719 L145.073 177.782 L120.177 177.782 L120.177 171.879 Z" fill="#000000" fill-rule="evenodd" fill-opacity="1" /><path clip-path="url(#clip710)" d="M182.191 176.497 Q176.774 176.497 174.031 181.844 Q171.323 187.157 171.323 197.851 Q171.323 208.511 174.031 213.858 Q176.774 219.17 182.191 219.17 Q187.642 219.17 190.351 213.858 Q193.094 208.511 193.094 197.851 Q193.094 187.157 190.351 181.844 Q187.642 176.497 182.191 176.497 M182.191 170.941 Q190.906 170.941 195.489 177.851 Q200.107 184.726 200.107 197.851 Q200.107 210.941 195.489 217.851 Q190.906 224.726 182.191 224.726 Q173.476 224.726 168.858 217.851 Q164.274 210.941 164.274 197.851 Q164.274 184.726 168.858 177.851 Q173.476 170.941 182.191 170.941 Z" fill="#000000" fill-rule="evenodd" fill-opacity="1" /><path clip-path="url(#clip710)" d="M42.7227 834.163 Q43.4866 831.906 45.9866 829.788 Q48.4866 827.635 52.8616 825.482 L67.0282 818.364 L67.0282 825.899 L53.7296 832.531 Q48.5213 835.1 46.8199 837.531 Q45.1186 839.926 45.1186 844.093 L45.1186 851.732 L67.0282 851.732 L67.0282 858.746 L15.1882 858.746 L15.1882 842.912 Q15.1882 834.024 18.9034 829.649 Q22.6187 825.274 30.1186 825.274 Q35.0144 825.274 38.2436 827.565 Q41.4727 829.822 42.7227 834.163 M20.952 851.732 L39.3547 851.732 L39.3547 842.912 Q39.3547 837.843 37.0283 835.274 Q34.6672 832.669 30.1186 832.669 Q25.57 832.669 23.2784 835.274 Q20.952 837.843 20.952 842.912 L20.952 851.732 Z" fill="#000000" fill-rule="evenodd" fill-opacity="1" /><path clip-path="url(#clip710)" d="M45.9866 779.545 L49.1116 779.545 L49.1116 808.92 Q55.7088 808.503 59.181 804.961 Q62.6185 801.385 62.6185 795.031 Q62.6185 791.35 61.7157 787.913 Q60.8129 784.441 59.0074 781.038 L65.049 781.038 Q66.5073 784.475 67.2712 788.086 Q68.0351 791.697 68.0351 795.413 Q68.0351 804.718 62.6185 810.17 Q57.2018 815.586 47.9658 815.586 Q38.4172 815.586 32.827 810.447 Q27.202 805.274 27.202 796.524 Q27.202 788.677 32.2714 784.128 Q37.3061 779.545 45.9866 779.545 M44.1116 785.934 Q38.8686 786.003 35.7436 788.885 Q32.6186 791.732 32.6186 796.454 Q32.6186 801.802 35.6394 805.031 Q38.6603 808.225 44.1463 808.711 L44.1116 785.934 Z" fill="#000000" fill-rule="evenodd" fill-opacity="1" /><path clip-path="url(#clip710)" d="M28.1395 772.774 L28.1395 766.385 L58.4865 758.399 L28.1395 750.448 L28.1395 742.913 L58.4865 734.927 L28.1395 726.976 L28.1395 720.587 L67.0282 730.76 L67.0282 738.295 L35.1533 746.663 L67.0282 755.066 L67.0282 762.6 L28.1395 772.774 Z" fill="#000000" fill-rule="evenodd" fill-opacity="1" /><path clip-path="url(#clip710)" d="M47.4797 693.226 Q47.4797 700.969 49.2505 703.955 Q51.0213 706.941 55.2921 706.941 Q58.6949 706.941 60.7087 704.719 Q62.6879 702.462 62.6879 698.608 Q62.6879 693.295 58.9379 690.101 Q55.1532 686.872 48.9033 686.872 L47.4797 686.872 L47.4797 693.226 M44.8408 680.483 L67.0282 680.483 L67.0282 686.872 L61.1254 686.872 Q64.6671 689.059 66.3684 692.323 Q68.0351 695.587 68.0351 700.309 Q68.0351 706.281 64.7018 709.823 Q61.3337 713.33 55.7088 713.33 Q49.1463 713.33 45.813 708.955 Q42.4797 704.545 42.4797 695.83 L42.4797 686.872 L41.8547 686.872 Q37.445 686.872 35.0492 689.788 Q32.6186 692.67 32.6186 697.913 Q32.6186 701.247 33.4172 704.406 Q34.2158 707.566 35.813 710.483 L29.9103 710.483 Q28.5561 706.976 27.8964 703.677 Q27.202 700.379 27.202 697.254 Q27.202 688.816 31.577 684.649 Q35.9519 680.483 44.8408 680.483 Z" fill="#000000" fill-rule="evenodd" fill-opacity="1" /><path clip-path="url(#clip710)" d="M34.1117 644.789 Q33.4867 645.865 33.2089 647.15 Q32.8964 648.4 32.8964 649.927 Q32.8964 655.344 36.438 658.261 Q39.945 661.143 46.5422 661.143 L67.0282 661.143 L67.0282 667.566 L28.1395 667.566 L28.1395 661.143 L34.1811 661.143 Q30.6395 659.129 28.9381 655.9 Q27.202 652.67 27.202 648.052 Q27.202 647.393 27.3061 646.594 Q27.3756 645.795 27.5492 644.823 L34.1117 644.789 Z" fill="#000000" fill-rule="evenodd" fill-opacity="1" /><path clip-path="url(#clip710)" d="M34.0422 613.747 L13.0007 613.747 L13.0007 607.358 L67.0282 607.358 L67.0282 613.747 L61.1949 613.747 Q64.6671 615.761 66.3684 618.851 Q68.0351 621.907 68.0351 626.212 Q68.0351 633.261 62.4101 637.705 Q56.7852 642.115 47.6185 642.115 Q38.4519 642.115 32.827 637.705 Q27.202 633.261 27.202 626.212 Q27.202 621.907 28.9034 618.851 Q30.57 615.761 34.0422 613.747 M47.6185 635.518 Q54.6671 635.518 58.6949 632.636 Q62.6879 629.719 62.6879 624.65 Q62.6879 619.58 58.6949 616.664 Q54.6671 613.747 47.6185 613.747 Q40.57 613.747 36.5769 616.664 Q32.5492 619.58 32.5492 624.65 Q32.5492 629.719 36.5769 632.636 Q40.57 635.518 47.6185 635.518 Z" fill="#000000" fill-rule="evenodd" fill-opacity="1" /><polyline clip-path="url(#clip712)" style="stroke:#ffa500; stroke-linecap:round; stroke-linejoin:round; stroke-width:4; stroke-opacity:1; fill:none" points="
  296.013,1380.04 309.414,483.805 322.816,287.172 336.217,281.831 349.619,294.461 363.021,257.562 376.422,318.721 389.824,204.146 403.225,274.084 416.627,169.268 
  430.029,161.35 443.43,145.688 456.832,183.677 470.233,155.121 483.635,302.952 497.037,225.71 510.438,265.865 523.84,243.764 537.241,145.373 550.643,186.603 
  564.045,163.581 577.446,225.736 590.848,178.869 604.249,144.598 617.651,176.716 631.053,182.013 644.454,243.582 657.856,245.712 671.257,291.461 684.659,165.424 
  698.061,250.839 711.462,196.531 724.864,168.832 738.265,274.171 751.667,376.93 765.069,226.689 778.47,312.248 791.872,232.069 805.273,220.802 818.675,360.029 
  832.077,214.368 845.478,198.357 858.88,226.032 872.281,222.997 885.683,161.267 899.085,243.003 912.486,236.469 925.888,181.238 939.289,207.745 952.691,196.909 
  966.093,245.281 979.494,214.391 992.896,240.621 1006.3,201.073 1019.7,215.627 1033.1,249.063 1046.5,268.587 1059.9,244.512 1073.31,175.561 1086.71,296.322 
  1100.11,189.91 1113.51,242.406 1126.91,225.502 1140.31,186.603 1153.71,208.061 1167.12,226.25 1180.52,200.144 1193.92,210.678 1207.32,205.776 1220.72,158.52 
  1234.12,183.57 1247.53,162.911 1260.93,177.485 1274.33,156.392 1287.73,156.457 1301.13,142.397 1314.53,182.233 1327.94,167.707 1341.34,191.816 1354.74,160.225 
  1368.14,150.026 1381.54,132.496 1394.94,168.313 1408.35,191.337 1421.75,256.183 1435.15,153.058 1448.55,234.446 1461.95,218.291 1475.35,189.187 1488.75,202.959 
  1502.16,174.239 1515.56,179.945 1528.96,284.714 1542.36,213.813 1555.76,148.99 1569.16,118.471 1582.57,154.465 1595.97,143.353 1609.37,146.48 1622.77,133.32 
  1636.17,112.664 1649.57,122.289 1662.98,120.381 1676.38,143.057 1689.78,156.047 1703.18,217.542 1716.58,176.567 1729.98,221.243 1743.39,243.099 1756.79,178.698 
  1770.19,134.43 1783.59,205.814 1796.99,200.241 1810.39,120.937 1823.79,191.508 1837.2,205.131 1850.6,238.342 1864,197.106 1877.4,162.16 1890.8,162.936 
  1904.2,198.961 1917.61,133.113 1931.01,211.581 1944.41,209.286 1957.81,190.19 1971.21,197.299 1984.61,171.605 1998.02,114.71 2011.42,241.445 2024.82,158.501 
  2038.22,212.653 2051.62,199.132 2065.02,181.45 2078.43,213.842 2091.83,121.858 2105.23,206.174 2118.63,171.238 2132.03,264.603 2145.43,184.005 2158.83,139.006 
  2172.24,115.679 2185.64,145.847 2199.04,154.159 2212.44,174.514 2225.84,126.336 2239.24,86.0634 2252.65,185.581 2266.05,124.952 2279.45,171.159 2292.85,131.139 
  
  "/>
<path clip-path="url(#clip710)" d="
M1718.14 817.652 L2282.2 817.652 L2282.2 662.132 L1718.14 662.132  Z
  " fill="#ffffff" fill-rule="evenodd" fill-opacity="1"/>
<polyline clip-path="url(#clip710)" style="stroke:#000000; stroke-linecap:round; stroke-linejoin:round; stroke-width:4; stroke-opacity:1; fill:none" points="
  1718.14,817.652 2282.2,817.652 2282.2,662.132 1718.14,662.132 1718.14,817.652 
  "/>
<polyline clip-path="url(#clip710)" style="stroke:#ffa500; stroke-linecap:round; stroke-linejoin:round; stroke-width:6; stroke-opacity:1; fill:none" points="
  1741.66,739.892 1882.77,739.892 
  "/>
<path clip-path="url(#clip710)" d="M1931.05 711.785 L1931.05 717.097 L1924.93 717.097 Q1921.5 717.097 1920.14 718.486 Q1918.82 719.875 1918.82 723.486 L1918.82 726.924 L1929.34 726.924 L1929.34 731.889 L1918.82 731.889 L1918.82 765.812 L1912.4 765.812 L1912.4 731.889 L1906.29 731.889 L1906.29 726.924 L1912.4 726.924 L1912.4 724.215 Q1912.4 717.722 1915.42 714.771 Q1918.44 711.785 1925 711.785 L1931.05 711.785 Z" fill="#000000" fill-rule="evenodd" fill-opacity="1" /><path clip-path="url(#clip710)" d="M1954.07 746.264 Q1946.32 746.264 1943.34 748.035 Q1940.35 749.806 1940.35 754.076 Q1940.35 757.479 1942.57 759.493 Q1944.83 761.472 1948.68 761.472 Q1954 761.472 1957.19 757.722 Q1960.42 753.938 1960.42 747.688 L1960.42 746.264 L1954.07 746.264 M1966.81 743.625 L1966.81 765.812 L1960.42 765.812 L1960.42 759.91 Q1958.23 763.451 1954.97 765.153 Q1951.71 766.819 1946.98 766.819 Q1941.01 766.819 1937.47 763.486 Q1933.96 760.118 1933.96 754.493 Q1933.96 747.931 1938.34 744.597 Q1942.75 741.264 1951.46 741.264 L1960.42 741.264 L1960.42 740.639 Q1960.42 736.229 1957.5 733.833 Q1954.62 731.403 1949.38 731.403 Q1946.05 731.403 1942.89 732.202 Q1939.73 733 1936.81 734.597 L1936.81 728.695 Q1940.32 727.34 1943.61 726.681 Q1946.91 725.986 1950.04 725.986 Q1958.48 725.986 1962.64 730.361 Q1966.81 734.736 1966.81 743.625 Z" fill="#000000" fill-rule="evenodd" fill-opacity="1" /><path clip-path="url(#clip710)" d="M2004.76 728.07 L2004.76 734.111 Q2002.05 732.722 1999.14 732.028 Q1996.22 731.334 1993.09 731.334 Q1988.34 731.334 1985.94 732.792 Q1983.58 734.25 1983.58 737.167 Q1983.58 739.389 1985.28 740.674 Q1986.98 741.924 1992.12 743.07 L1994.31 743.556 Q2001.11 745.014 2003.96 747.688 Q2006.84 750.326 2006.84 755.083 Q2006.84 760.5 2002.54 763.66 Q1998.27 766.819 1990.77 766.819 Q1987.64 766.819 1984.24 766.194 Q1980.87 765.604 1977.12 764.389 L1977.12 757.792 Q1980.66 759.632 1984.1 760.569 Q1987.54 761.472 1990.91 761.472 Q1995.42 761.472 1997.85 759.944 Q2000.28 758.382 2000.28 755.569 Q2000.28 752.965 1998.51 751.576 Q1996.77 750.188 1990.84 748.903 L1988.61 748.382 Q1982.68 747.132 1980.04 744.563 Q1977.4 741.958 1977.4 737.445 Q1977.4 731.959 1981.29 728.972 Q1985.18 725.986 1992.33 725.986 Q1995.87 725.986 1999 726.507 Q2002.12 727.028 2004.76 728.07 Z" fill="#000000" fill-rule="evenodd" fill-opacity="1" /><path clip-path="url(#clip710)" d="M2023.34 715.882 L2023.34 726.924 L2036.5 726.924 L2036.5 731.889 L2023.34 731.889 L2023.34 753 Q2023.34 757.757 2024.62 759.111 Q2025.94 760.465 2029.93 760.465 L2036.5 760.465 L2036.5 765.812 L2029.93 765.812 Q2022.54 765.812 2019.73 763.069 Q2016.91 760.292 2016.91 753 L2016.91 731.889 L2012.23 731.889 L2012.23 726.924 L2016.91 726.924 L2016.91 715.882 L2023.34 715.882 Z" fill="#000000" fill-rule="evenodd" fill-opacity="1" /><path clip-path="url(#clip710)" d="M2097.78 734.389 Q2100.18 730.084 2103.51 728.035 Q2106.84 725.986 2111.36 725.986 Q2117.43 725.986 2120.73 730.257 Q2124.03 734.493 2124.03 742.34 L2124.03 765.812 L2117.61 765.812 L2117.61 742.549 Q2117.61 736.958 2115.63 734.25 Q2113.65 731.542 2109.59 731.542 Q2104.62 731.542 2101.74 734.84 Q2098.86 738.139 2098.86 743.833 L2098.86 765.812 L2092.43 765.812 L2092.43 742.549 Q2092.43 736.924 2090.45 734.25 Q2088.48 731.542 2084.34 731.542 Q2079.45 731.542 2076.57 734.875 Q2073.68 738.174 2073.68 743.833 L2073.68 765.812 L2067.26 765.812 L2067.26 726.924 L2073.68 726.924 L2073.68 732.965 Q2075.87 729.389 2078.93 727.688 Q2081.98 725.986 2086.18 725.986 Q2090.42 725.986 2093.37 728.139 Q2096.36 730.292 2097.78 734.389 Z" fill="#000000" fill-rule="evenodd" fill-opacity="1" /><path clip-path="url(#clip710)" d="M2151.84 731.403 Q2146.7 731.403 2143.72 735.431 Q2140.73 739.424 2140.73 746.403 Q2140.73 753.382 2143.68 757.41 Q2146.67 761.403 2151.84 761.403 Q2156.95 761.403 2159.93 757.375 Q2162.92 753.347 2162.92 746.403 Q2162.92 739.493 2159.93 735.465 Q2156.95 731.403 2151.84 731.403 M2151.84 725.986 Q2160.18 725.986 2164.93 731.403 Q2169.69 736.82 2169.69 746.403 Q2169.69 755.951 2164.93 761.403 Q2160.18 766.819 2151.84 766.819 Q2143.47 766.819 2138.72 761.403 Q2134 755.951 2134 746.403 Q2134 736.82 2138.72 731.403 Q2143.47 725.986 2151.84 725.986 Z" fill="#000000" fill-rule="evenodd" fill-opacity="1" /><path clip-path="url(#clip710)" d="M2205.87 732.827 L2205.87 711.785 L2212.26 711.785 L2212.26 765.812 L2205.87 765.812 L2205.87 759.979 Q2203.86 763.451 2200.77 765.153 Q2197.71 766.819 2193.41 766.819 Q2186.36 766.819 2181.91 761.194 Q2177.5 755.569 2177.5 746.403 Q2177.5 737.236 2181.91 731.611 Q2186.36 725.986 2193.41 725.986 Q2197.71 725.986 2200.77 727.688 Q2203.86 729.354 2205.87 732.827 M2184.1 746.403 Q2184.1 753.451 2186.98 757.479 Q2189.9 761.472 2194.97 761.472 Q2200.04 761.472 2202.95 757.479 Q2205.87 753.451 2205.87 746.403 Q2205.87 739.354 2202.95 735.361 Q2200.04 731.334 2194.97 731.334 Q2189.9 731.334 2186.98 735.361 Q2184.1 739.354 2184.1 746.403 Z" fill="#000000" fill-rule="evenodd" fill-opacity="1" /><path clip-path="url(#clip710)" d="M2258.68 744.771 L2258.68 747.896 L2229.31 747.896 Q2229.72 754.493 2233.27 757.965 Q2236.84 761.403 2243.2 761.403 Q2246.88 761.403 2250.31 760.5 Q2253.79 759.597 2257.19 757.792 L2257.19 763.833 Q2253.75 765.292 2250.14 766.056 Q2246.53 766.819 2242.81 766.819 Q2233.51 766.819 2228.06 761.403 Q2222.64 755.986 2222.64 746.75 Q2222.64 737.202 2227.78 731.611 Q2232.95 725.986 2241.7 725.986 Q2249.55 725.986 2254.1 731.056 Q2258.68 736.09 2258.68 744.771 M2252.29 742.896 Q2252.22 737.653 2249.34 734.528 Q2246.5 731.403 2241.77 731.403 Q2236.43 731.403 2233.2 734.424 Q2230 737.445 2229.52 742.931 L2252.29 742.896 Z" fill="#000000" fill-rule="evenodd" fill-opacity="1" /></svg>
