<?xml version="1.0" encoding="utf-8"?>
<svg xmlns="http://www.w3.org/2000/svg" xmlns:xlink="http://www.w3.org/1999/xlink" width="600" height="400" viewBox="0 0 2400 1600">
<defs>
  <clipPath id="clip850">
    <rect x="0" y="0" width="2400" height="1600"/>
  </clipPath>
</defs>
<path clip-path="url(#clip850)" d="
M0 1600 L2400 1600 L2400 0 L0 0  Z
  " fill="#ffffff" fill-rule="evenodd" fill-opacity="1"/>
<defs>
  <clipPath id="clip851">
    <rect x="480" y="0" width="1681" height="1600"/>
  </clipPath>
</defs>
<path clip-path="url(#clip850)" d="
M250.352 1410.9 L2352.76 1410.9 L2352.76 47.2441 L250.352 47.2441  Z
  " fill="#ffffff" fill-rule="evenodd" fill-opacity="1"/>
<defs>
  <clipPath id="clip852">
    <rect x="250" y="47" width="2103" height="1365"/>
  </clipPath>
</defs>
<polyline clip-path="url(#clip852)" style="stroke:#000000; stroke-linecap:round; stroke-linejoin:round; stroke-width:2; stroke-opacity:0.1; fill:none" points="
  304.883,1410.9 304.883,47.2441 
  "/>
<polyline clip-path="url(#clip852)" style="stroke:#000000; stroke-linecap:round; stroke-linejoin:round; stroke-width:2; stroke-opacity:0.1; fill:none" points="
  801.976,1410.9 801.976,47.2441 
  "/>
<polyline clip-path="url(#clip852)" style="stroke:#000000; stroke-linecap:round; stroke-linejoin:round; stroke-width:2; stroke-opacity:0.1; fill:none" points="
  1299.07,1410.9 1299.07,47.2441 
  "/>
<polyline clip-path="url(#clip852)" style="stroke:#000000; stroke-linecap:round; stroke-linejoin:round; stroke-width:2; stroke-opacity:0.1; fill:none" points="
  1796.16,1410.9 1796.16,47.2441 
  "/>
<polyline clip-path="url(#clip852)" style="stroke:#000000; stroke-linecap:round; stroke-linejoin:round; stroke-width:2; stroke-opacity:0.1; fill:none" points="
  2293.25,1410.9 2293.25,47.2441 
  "/>
<polyline clip-path="url(#clip850)" style="stroke:#000000; stroke-linecap:round; stroke-linejoin:round; stroke-width:4; stroke-opacity:1; fill:none" points="
  250.352,1410.9 2352.76,1410.9 
  "/>
<polyline clip-path="url(#clip850)" style="stroke:#000000; stroke-linecap:round; stroke-linejoin:round; stroke-width:4; stroke-opacity:1; fill:none" points="
  304.883,1410.9 304.883,1392 
  "/>
<polyline clip-path="url(#clip850)" style="stroke:#000000; stroke-linecap:round; stroke-linejoin:round; stroke-width:4; stroke-opacity:1; fill:none" points="
  801.976,1410.9 801.976,1392 
  "/>
<polyline clip-path="url(#clip850)" style="stroke:#000000; stroke-linecap:round; stroke-linejoin:round; stroke-width:4; stroke-opacity:1; fill:none" points="
  1299.07,1410.9 1299.07,1392 
  "/>
<polyline clip-path="url(#clip850)" style="stroke:#000000; stroke-linecap:round; stroke-linejoin:round; stroke-width:4; stroke-opacity:1; fill:none" points="
  1796.16,1410.9 1796.16,1392 
  "/>
<polyline clip-path="url(#clip850)" style="stroke:#000000; stroke-linecap:round; stroke-linejoin:round; stroke-width:4; stroke-opacity:1; fill:none" points="
  2293.25,1410.9 2293.25,1392 
  "/>
<path clip-path="url(#clip850)" d="M304.883 1441.82 Q301.272 1441.82 299.443 1445.38 Q297.638 1448.92 297.638 1456.05 Q297.638 1463.16 299.443 1466.72 Q301.272 1470.26 304.883 1470.26 Q308.518 1470.26 310.323 1466.72 Q312.152 1463.16 312.152 1456.05 Q312.152 1448.92 310.323 1445.38 Q308.518 1441.82 304.883 1441.82 M304.883 1438.11 Q310.693 1438.11 313.749 1442.72 Q316.828 1447.3 316.828 1456.05 Q316.828 1464.78 313.749 1469.38 Q310.693 1473.97 304.883 1473.97 Q299.073 1473.97 295.994 1469.38 Q292.939 1464.78 292.939 1456.05 Q292.939 1447.3 295.994 1442.72 Q299.073 1438.11 304.883 1438.11 Z" fill="#000000" fill-rule="evenodd" fill-opacity="1" /><path clip-path="url(#clip850)" d="M710.078 1485.02 L717.717 1485.02 L717.717 1458.66 L709.407 1460.32 L709.407 1456.06 L717.671 1454.4 L722.347 1454.4 L722.347 1485.02 L729.986 1485.02 L729.986 1488.96 L710.078 1488.96 L710.078 1485.02 Z" fill="#000000" fill-rule="evenodd" fill-opacity="1" /><path clip-path="url(#clip850)" d="M739.43 1483.08 L744.314 1483.08 L744.314 1488.96 L739.43 1488.96 L739.43 1483.08 Z" fill="#000000" fill-rule="evenodd" fill-opacity="1" /><path clip-path="url(#clip850)" d="M764.499 1457.48 Q760.888 1457.48 759.06 1461.04 Q757.254 1464.58 757.254 1471.71 Q757.254 1478.82 759.06 1482.38 Q760.888 1485.92 764.499 1485.92 Q768.134 1485.92 769.939 1482.38 Q771.768 1478.82 771.768 1471.71 Q771.768 1464.58 769.939 1461.04 Q768.134 1457.48 764.499 1457.48 M764.499 1453.77 Q770.309 1453.77 773.365 1458.38 Q776.444 1462.96 776.444 1471.71 Q776.444 1480.44 773.365 1485.04 Q770.309 1489.63 764.499 1489.63 Q758.689 1489.63 755.61 1485.04 Q752.555 1480.44 752.555 1471.71 Q752.555 1462.96 755.61 1458.38 Q758.689 1453.77 764.499 1453.77 Z" fill="#000000" fill-rule="evenodd" fill-opacity="1" /><path clip-path="url(#clip850)" d="M812.832 1463.49 L802.254 1474.12 L812.832 1484.7 L810.078 1487.5 L799.453 1476.87 L788.828 1487.5 L786.096 1484.7 L796.652 1474.12 L786.096 1463.49 L788.828 1460.69 L799.453 1471.32 L810.078 1460.69 L812.832 1463.49 Z" fill="#000000" fill-rule="evenodd" fill-opacity="1" /><path clip-path="url(#clip850)" d="M825.193 1485.02 L832.832 1485.02 L832.832 1458.66 L824.522 1460.32 L824.522 1456.06 L832.786 1454.4 L837.462 1454.4 L837.462 1485.02 L845.101 1485.02 L845.101 1488.96 L825.193 1488.96 L825.193 1485.02 Z" fill="#000000" fill-rule="evenodd" fill-opacity="1" /><path clip-path="url(#clip850)" d="M864.545 1457.48 Q860.934 1457.48 859.105 1461.04 Q857.3 1464.58 857.3 1471.71 Q857.3 1478.82 859.105 1482.38 Q860.934 1485.92 864.545 1485.92 Q868.179 1485.92 869.985 1482.38 Q871.814 1478.82 871.814 1471.71 Q871.814 1464.58 869.985 1461.04 Q868.179 1457.48 864.545 1457.48 M864.545 1453.77 Q870.355 1453.77 873.411 1458.38 Q876.489 1462.96 876.489 1471.71 Q876.489 1480.44 873.411 1485.04 Q870.355 1489.63 864.545 1489.63 Q858.735 1489.63 855.656 1485.04 Q852.601 1480.44 852.601 1471.71 Q852.601 1462.96 855.656 1458.38 Q858.735 1453.77 864.545 1453.77 Z" fill="#000000" fill-rule="evenodd" fill-opacity="1" /><path clip-path="url(#clip850)" d="M876.489 1433.47 L894.545 1433.47 L894.545 1435.08 L884.351 1461.55 L880.383 1461.55 L889.975 1436.66 L876.489 1436.66 L876.489 1433.47 Z" fill="#000000" fill-rule="evenodd" fill-opacity="1" /><path clip-path="url(#clip850)" d="M1211.26 1485.02 L1227.58 1485.02 L1227.58 1488.96 L1205.63 1488.96 L1205.63 1485.02 Q1208.29 1482.27 1212.88 1477.64 Q1217.48 1472.98 1218.66 1471.64 Q1220.91 1469.12 1221.79 1467.38 Q1222.69 1465.62 1222.69 1463.93 Q1222.69 1461.18 1220.75 1459.44 Q1218.83 1457.71 1215.72 1457.71 Q1213.53 1457.71 1211.07 1458.47 Q1208.64 1459.23 1205.86 1460.79 L1205.86 1456.06 Q1208.69 1454.93 1211.14 1454.35 Q1213.59 1453.77 1215.63 1453.77 Q1221 1453.77 1224.2 1456.46 Q1227.39 1459.14 1227.39 1463.63 Q1227.39 1465.76 1226.58 1467.68 Q1225.79 1469.58 1223.69 1472.17 Q1223.11 1472.85 1220.01 1476.06 Q1216.9 1479.26 1211.26 1485.02 Z" fill="#000000" fill-rule="evenodd" fill-opacity="1" /><path clip-path="url(#clip850)" d="M1237.39 1483.08 L1242.27 1483.08 L1242.27 1488.96 L1237.39 1488.96 L1237.39 1483.08 Z" fill="#000000" fill-rule="evenodd" fill-opacity="1" /><path clip-path="url(#clip850)" d="M1262.46 1457.48 Q1258.85 1457.48 1257.02 1461.04 Q1255.21 1464.58 1255.21 1471.71 Q1255.21 1478.82 1257.02 1482.38 Q1258.85 1485.92 1262.46 1485.92 Q1266.09 1485.92 1267.9 1482.38 Q1269.73 1478.82 1269.73 1471.71 Q1269.73 1464.58 1267.9 1461.04 Q1266.09 1457.48 1262.46 1457.48 M1262.46 1453.77 Q1268.27 1453.77 1271.33 1458.38 Q1274.4 1462.96 1274.4 1471.71 Q1274.4 1480.44 1271.33 1485.04 Q1268.27 1489.63 1262.46 1489.63 Q1256.65 1489.63 1253.57 1485.04 Q1250.52 1480.44 1250.52 1471.71 Q1250.52 1462.96 1253.57 1458.38 Q1256.65 1453.77 1262.46 1453.77 Z" fill="#000000" fill-rule="evenodd" fill-opacity="1" /><path clip-path="url(#clip850)" d="M1310.79 1463.49 L1300.21 1474.12 L1310.79 1484.7 L1308.04 1487.5 L1297.41 1476.87 L1286.79 1487.5 L1284.06 1484.7 L1294.61 1474.12 L1284.06 1463.49 L1286.79 1460.69 L1297.41 1471.32 L1308.04 1460.69 L1310.79 1463.49 Z" fill="#000000" fill-rule="evenodd" fill-opacity="1" /><path clip-path="url(#clip850)" d="M1323.15 1485.02 L1330.79 1485.02 L1330.79 1458.66 L1322.48 1460.32 L1322.48 1456.06 L1330.75 1454.4 L1335.42 1454.4 L1335.42 1485.02 L1343.06 1485.02 L1343.06 1488.96 L1323.15 1488.96 L1323.15 1485.02 Z" fill="#000000" fill-rule="evenodd" fill-opacity="1" /><path clip-path="url(#clip850)" d="M1362.51 1457.48 Q1358.89 1457.48 1357.07 1461.04 Q1355.26 1464.58 1355.26 1471.71 Q1355.26 1478.82 1357.07 1482.38 Q1358.89 1485.92 1362.51 1485.92 Q1366.14 1485.92 1367.95 1482.38 Q1369.77 1478.82 1369.77 1471.71 Q1369.77 1464.58 1367.95 1461.04 Q1366.14 1457.48 1362.51 1457.48 M1362.51 1453.77 Q1368.32 1453.77 1371.37 1458.38 Q1374.45 1462.96 1374.45 1471.71 Q1374.45 1480.44 1371.37 1485.04 Q1368.32 1489.63 1362.51 1489.63 Q1356.7 1489.63 1353.62 1485.04 Q1350.56 1480.44 1350.56 1471.71 Q1350.56 1462.96 1353.62 1458.38 Q1356.7 1453.77 1362.51 1453.77 Z" fill="#000000" fill-rule="evenodd" fill-opacity="1" /><path clip-path="url(#clip850)" d="M1374.45 1433.47 L1392.51 1433.47 L1392.51 1435.08 L1382.31 1461.55 L1378.34 1461.55 L1387.94 1436.66 L1374.45 1436.66 L1374.45 1433.47 Z" fill="#000000" fill-rule="evenodd" fill-opacity="1" /><path clip-path="url(#clip850)" d="M1718.42 1470.32 Q1721.78 1471.04 1723.65 1473.31 Q1725.55 1475.58 1725.55 1478.91 Q1725.55 1484.03 1722.03 1486.83 Q1718.51 1489.63 1712.03 1489.63 Q1709.85 1489.63 1707.54 1489.19 Q1705.25 1488.77 1702.79 1487.91 L1702.79 1483.4 Q1704.74 1484.54 1707.05 1485.11 Q1709.37 1485.69 1711.89 1485.69 Q1716.29 1485.69 1718.58 1483.96 Q1720.9 1482.22 1720.9 1478.91 Q1720.9 1475.85 1718.74 1474.14 Q1716.61 1472.41 1712.79 1472.41 L1708.77 1472.41 L1708.77 1468.56 L1712.98 1468.56 Q1716.43 1468.56 1718.26 1467.2 Q1720.09 1465.81 1720.09 1463.22 Q1720.09 1460.55 1718.19 1459.14 Q1716.31 1457.71 1712.79 1457.71 Q1710.87 1457.71 1708.67 1458.12 Q1706.47 1458.54 1703.84 1459.42 L1703.84 1455.25 Q1706.5 1454.51 1708.81 1454.14 Q1711.15 1453.77 1713.21 1453.77 Q1718.53 1453.77 1721.64 1456.2 Q1724.74 1458.61 1724.74 1462.73 Q1724.74 1465.6 1723.09 1467.59 Q1721.45 1469.56 1718.42 1470.32 Z" fill="#000000" fill-rule="evenodd" fill-opacity="1" /><path clip-path="url(#clip850)" d="M1734.41 1483.08 L1739.3 1483.08 L1739.3 1488.96 L1734.41 1488.96 L1734.41 1483.08 Z" fill="#000000" fill-rule="evenodd" fill-opacity="1" /><path clip-path="url(#clip850)" d="M1759.48 1457.48 Q1755.87 1457.48 1754.04 1461.04 Q1752.24 1464.58 1752.24 1471.71 Q1752.24 1478.82 1754.04 1482.38 Q1755.87 1485.92 1759.48 1485.92 Q1763.12 1485.92 1764.92 1482.38 Q1766.75 1478.82 1766.75 1471.71 Q1766.75 1464.58 1764.92 1461.04 Q1763.12 1457.48 1759.48 1457.48 M1759.48 1453.77 Q1765.29 1453.77 1768.35 1458.38 Q1771.43 1462.96 1771.43 1471.71 Q1771.43 1480.44 1768.35 1485.04 Q1765.29 1489.63 1759.48 1489.63 Q1753.67 1489.63 1750.59 1485.04 Q1747.54 1480.44 1747.54 1471.71 Q1747.54 1462.96 1750.59 1458.38 Q1753.67 1453.77 1759.48 1453.77 Z" fill="#000000" fill-rule="evenodd" fill-opacity="1" /><path clip-path="url(#clip850)" d="M1807.82 1463.49 L1797.24 1474.12 L1807.82 1484.7 L1805.06 1487.5 L1794.44 1476.87 L1783.81 1487.5 L1781.08 1484.7 L1791.64 1474.12 L1781.08 1463.49 L1783.81 1460.69 L1794.44 1471.32 L1805.06 1460.69 L1807.82 1463.49 Z" fill="#000000" fill-rule="evenodd" fill-opacity="1" /><path clip-path="url(#clip850)" d="M1820.18 1485.02 L1827.82 1485.02 L1827.82 1458.66 L1819.51 1460.32 L1819.51 1456.06 L1827.77 1454.4 L1832.45 1454.4 L1832.45 1485.02 L1840.08 1485.02 L1840.08 1488.96 L1820.18 1488.96 L1820.18 1485.02 Z" fill="#000000" fill-rule="evenodd" fill-opacity="1" /><path clip-path="url(#clip850)" d="M1859.53 1457.48 Q1855.92 1457.48 1854.09 1461.04 Q1852.28 1464.58 1852.28 1471.71 Q1852.28 1478.82 1854.09 1482.38 Q1855.92 1485.92 1859.53 1485.92 Q1863.16 1485.92 1864.97 1482.38 Q1866.8 1478.82 1866.8 1471.71 Q1866.8 1464.58 1864.97 1461.04 Q1863.16 1457.48 1859.53 1457.48 M1859.53 1453.77 Q1865.34 1453.77 1868.39 1458.38 Q1871.47 1462.96 1871.47 1471.71 Q1871.47 1480.44 1868.39 1485.04 Q1865.34 1489.63 1859.53 1489.63 Q1853.72 1489.63 1850.64 1485.04 Q1847.58 1480.44 1847.58 1471.71 Q1847.58 1462.96 1850.64 1458.38 Q1853.72 1453.77 1859.53 1453.77 Z" fill="#000000" fill-rule="evenodd" fill-opacity="1" /><path clip-path="url(#clip850)" d="M1871.47 1433.47 L1889.53 1433.47 L1889.53 1435.08 L1879.33 1461.55 L1875.37 1461.55 L1884.96 1436.66 L1871.47 1436.66 L1871.47 1433.47 Z" fill="#000000" fill-rule="evenodd" fill-opacity="1" /><path clip-path="url(#clip850)" d="M2214.84 1458.47 L2203.03 1476.92 L2214.84 1476.92 L2214.84 1458.47 M2213.61 1454.4 L2219.49 1454.4 L2219.49 1476.92 L2224.42 1476.92 L2224.42 1480.81 L2219.49 1480.81 L2219.49 1488.96 L2214.84 1488.96 L2214.84 1480.81 L2199.24 1480.81 L2199.24 1476.29 L2213.61 1454.4 Z" fill="#000000" fill-rule="evenodd" fill-opacity="1" /><path clip-path="url(#clip850)" d="M2232.15 1483.08 L2237.04 1483.08 L2237.04 1488.96 L2232.15 1488.96 L2232.15 1483.08 Z" fill="#000000" fill-rule="evenodd" fill-opacity="1" /><path clip-path="url(#clip850)" d="M2257.22 1457.48 Q2253.61 1457.48 2251.78 1461.04 Q2249.98 1464.58 2249.98 1471.71 Q2249.98 1478.82 2251.78 1482.38 Q2253.61 1485.92 2257.22 1485.92 Q2260.86 1485.92 2262.66 1482.38 Q2264.49 1478.82 2264.49 1471.71 Q2264.49 1464.58 2262.66 1461.04 Q2260.86 1457.48 2257.22 1457.48 M2257.22 1453.77 Q2263.03 1453.77 2266.09 1458.38 Q2269.17 1462.96 2269.17 1471.71 Q2269.17 1480.44 2266.09 1485.04 Q2263.03 1489.63 2257.22 1489.63 Q2251.41 1489.63 2248.34 1485.04 Q2245.28 1480.44 2245.28 1471.71 Q2245.28 1462.96 2248.34 1458.38 Q2251.41 1453.77 2257.22 1453.77 Z" fill="#000000" fill-rule="evenodd" fill-opacity="1" /><path clip-path="url(#clip850)" d="M2305.56 1463.49 L2294.98 1474.12 L2305.56 1484.7 L2302.8 1487.5 L2292.18 1476.87 L2281.55 1487.5 L2278.82 1484.7 L2289.38 1474.12 L2278.82 1463.49 L2281.55 1460.69 L2292.18 1471.32 L2302.8 1460.69 L2305.56 1463.49 Z" fill="#000000" fill-rule="evenodd" fill-opacity="1" /><path clip-path="url(#clip850)" d="M2317.92 1485.02 L2325.56 1485.02 L2325.56 1458.66 L2317.25 1460.32 L2317.25 1456.06 L2325.51 1454.4 L2330.19 1454.4 L2330.19 1485.02 L2337.83 1485.02 L2337.83 1488.96 L2317.92 1488.96 L2317.92 1485.02 Z" fill="#000000" fill-rule="evenodd" fill-opacity="1" /><path clip-path="url(#clip850)" d="M2357.27 1457.48 Q2353.66 1457.48 2351.83 1461.04 Q2350.02 1464.58 2350.02 1471.71 Q2350.02 1478.82 2351.83 1482.38 Q2353.66 1485.92 2357.27 1485.92 Q2360.9 1485.92 2362.71 1482.38 Q2364.54 1478.82 2364.54 1471.71 Q2364.54 1464.58 2362.71 1461.04 Q2360.9 1457.48 2357.27 1457.48 M2357.27 1453.77 Q2363.08 1453.77 2366.14 1458.38 Q2369.21 1462.96 2369.21 1471.71 Q2369.21 1480.44 2366.14 1485.04 Q2363.08 1489.63 2357.27 1489.63 Q2351.46 1489.63 2348.38 1485.04 Q2345.33 1480.44 2345.33 1471.71 Q2345.33 1462.96 2348.38 1458.38 Q2351.46 1453.77 2357.27 1453.77 Z" fill="#000000" fill-rule="evenodd" fill-opacity="1" /><path clip-path="url(#clip850)" d="M2369.21 1433.47 L2387.27 1433.47 L2387.27 1435.08 L2377.08 1461.55 L2373.11 1461.55 L2382.7 1436.66 L2369.21 1436.66 L2369.21 1433.47 Z" fill="#000000" fill-rule="evenodd" fill-opacity="1" /><path clip-path="url(#clip850)" d="M1151.12 1526.67 L1157.55 1526.67 L1157.55 1574.19 L1151.12 1574.19 L1151.12 1526.67 Z" fill="#000000" fill-rule="evenodd" fill-opacity="1" /><path clip-path="url(#clip850)" d="M1175.88 1528.42 L1175.88 1538.54 L1187.94 1538.54 L1187.94 1543.09 L1175.88 1543.09 L1175.88 1562.44 Q1175.88 1566.8 1177.06 1568.04 Q1178.27 1569.28 1181.93 1569.28 L1187.94 1569.28 L1187.94 1574.19 L1181.93 1574.19 Q1175.15 1574.19 1172.57 1571.67 Q1169.99 1569.12 1169.99 1562.44 L1169.99 1543.09 L1165.69 1543.09 L1165.69 1538.54 L1169.99 1538.54 L1169.99 1528.42 L1175.88 1528.42 Z" fill="#000000" fill-rule="evenodd" fill-opacity="1" /><path clip-path="url(#clip850)" d="M1226.14 1554.9 L1226.14 1557.76 L1199.21 1557.76 Q1199.59 1563.81 1202.84 1566.99 Q1206.12 1570.14 1211.94 1570.14 Q1215.31 1570.14 1218.47 1569.32 Q1221.65 1568.49 1224.77 1566.83 L1224.77 1572.37 Q1221.62 1573.71 1218.31 1574.41 Q1215 1575.11 1211.59 1575.11 Q1203.06 1575.11 1198.06 1570.14 Q1193.1 1565.18 1193.1 1556.71 Q1193.1 1547.96 1197.81 1542.83 Q1202.55 1537.68 1210.57 1537.68 Q1217.77 1537.68 1221.93 1542.33 Q1226.14 1546.94 1226.14 1554.9 M1220.28 1553.18 Q1220.22 1548.37 1217.57 1545.51 Q1214.96 1542.64 1210.64 1542.64 Q1205.73 1542.64 1202.77 1545.41 Q1199.85 1548.18 1199.4 1553.21 L1220.28 1553.18 Z" fill="#000000" fill-rule="evenodd" fill-opacity="1" /><path clip-path="url(#clip850)" d="M1256.41 1544.01 Q1255.42 1543.44 1254.24 1543.18 Q1253.1 1542.9 1251.69 1542.9 Q1246.73 1542.9 1244.06 1546.14 Q1241.41 1549.36 1241.41 1555.41 L1241.41 1574.19 L1235.53 1574.19 L1235.53 1538.54 L1241.41 1538.54 L1241.41 1544.08 Q1243.26 1540.83 1246.22 1539.27 Q1249.18 1537.68 1253.41 1537.68 Q1254.02 1537.68 1254.75 1537.77 Q1255.48 1537.84 1256.37 1538 L1256.41 1544.01 Z" fill="#000000" fill-rule="evenodd" fill-opacity="1" /><path clip-path="url(#clip850)" d="M1278.75 1556.27 Q1271.65 1556.27 1268.91 1557.89 Q1266.18 1559.51 1266.18 1563.43 Q1266.18 1566.55 1268.21 1568.39 Q1270.28 1570.21 1273.82 1570.21 Q1278.69 1570.21 1281.61 1566.77 Q1284.57 1563.3 1284.57 1557.57 L1284.57 1556.27 L1278.75 1556.27 M1290.43 1553.85 L1290.43 1574.19 L1284.57 1574.19 L1284.57 1568.77 Q1282.57 1572.02 1279.58 1573.58 Q1276.58 1575.11 1272.26 1575.11 Q1266.78 1575.11 1263.53 1572.05 Q1260.32 1568.97 1260.32 1563.81 Q1260.32 1557.79 1264.33 1554.74 Q1268.37 1551.68 1276.36 1551.68 L1284.57 1551.68 L1284.57 1551.11 Q1284.57 1547.07 1281.9 1544.87 Q1279.26 1542.64 1274.45 1542.64 Q1271.4 1542.64 1268.5 1543.38 Q1265.6 1544.11 1262.93 1545.57 L1262.93 1540.16 Q1266.14 1538.92 1269.17 1538.31 Q1272.19 1537.68 1275.06 1537.68 Q1282.79 1537.68 1286.61 1541.69 Q1290.43 1545.7 1290.43 1553.85 Z" fill="#000000" fill-rule="evenodd" fill-opacity="1" /><path clip-path="url(#clip850)" d="M1308.29 1528.42 L1308.29 1538.54 L1320.35 1538.54 L1320.35 1543.09 L1308.29 1543.09 L1308.29 1562.44 Q1308.29 1566.8 1309.46 1568.04 Q1310.67 1569.28 1314.33 1569.28 L1320.35 1569.28 L1320.35 1574.19 L1314.33 1574.19 Q1307.55 1574.19 1304.98 1571.67 Q1302.4 1569.12 1302.4 1562.44 L1302.4 1543.09 L1298.1 1543.09 L1298.1 1538.54 L1302.4 1538.54 L1302.4 1528.42 L1308.29 1528.42 Z" fill="#000000" fill-rule="evenodd" fill-opacity="1" /><path clip-path="url(#clip850)" d="M1328.05 1538.54 L1333.91 1538.54 L1333.91 1574.19 L1328.05 1574.19 L1328.05 1538.54 M1328.05 1524.66 L1333.91 1524.66 L1333.91 1532.08 L1328.05 1532.08 L1328.05 1524.66 Z" fill="#000000" fill-rule="evenodd" fill-opacity="1" /><path clip-path="url(#clip850)" d="M1359.98 1542.64 Q1355.26 1542.64 1352.53 1546.34 Q1349.79 1550 1349.79 1556.39 Q1349.79 1562.79 1352.5 1566.48 Q1355.23 1570.14 1359.98 1570.14 Q1364.65 1570.14 1367.39 1566.45 Q1370.13 1562.76 1370.13 1556.39 Q1370.13 1550.06 1367.39 1546.37 Q1364.65 1542.64 1359.98 1542.64 M1359.98 1537.68 Q1367.61 1537.68 1371.97 1542.64 Q1376.34 1547.61 1376.34 1556.39 Q1376.34 1565.15 1371.97 1570.14 Q1367.61 1575.11 1359.98 1575.11 Q1352.3 1575.11 1347.94 1570.14 Q1343.62 1565.15 1343.62 1556.39 Q1343.62 1547.61 1347.94 1542.64 Q1352.3 1537.68 1359.98 1537.68 Z" fill="#000000" fill-rule="evenodd" fill-opacity="1" /><path clip-path="url(#clip850)" d="M1415.68 1552.67 L1415.68 1574.19 L1409.82 1574.19 L1409.82 1552.86 Q1409.82 1547.8 1407.85 1545.29 Q1405.87 1542.77 1401.93 1542.77 Q1397.18 1542.77 1394.45 1545.79 Q1391.71 1548.82 1391.71 1554.04 L1391.71 1574.19 L1385.82 1574.19 L1385.82 1538.54 L1391.71 1538.54 L1391.71 1544.08 Q1393.81 1540.86 1396.64 1539.27 Q1399.51 1537.68 1403.23 1537.68 Q1409.37 1537.68 1412.52 1541.5 Q1415.68 1545.29 1415.68 1552.67 Z" fill="#000000" fill-rule="evenodd" fill-opacity="1" /><path clip-path="url(#clip850)" d="M1450.08 1539.59 L1450.08 1545.13 Q1447.6 1543.85 1444.93 1543.22 Q1442.25 1542.58 1439.39 1542.58 Q1435.03 1542.58 1432.83 1543.92 Q1430.67 1545.25 1430.67 1547.93 Q1430.67 1549.96 1432.23 1551.14 Q1433.79 1552.29 1438.5 1553.34 L1440.5 1553.78 Q1446.74 1555.12 1449.35 1557.57 Q1451.99 1559.99 1451.99 1564.35 Q1451.99 1569.32 1448.04 1572.21 Q1444.13 1575.11 1437.26 1575.11 Q1434.39 1575.11 1431.27 1574.54 Q1428.18 1573.99 1424.75 1572.88 L1424.75 1566.83 Q1427.99 1568.52 1431.14 1569.38 Q1434.29 1570.21 1437.38 1570.21 Q1441.52 1570.21 1443.75 1568.81 Q1445.98 1567.37 1445.98 1564.8 Q1445.98 1562.41 1444.35 1561.14 Q1442.76 1559.86 1437.32 1558.68 L1435.28 1558.21 Q1429.84 1557.06 1427.42 1554.71 Q1425 1552.32 1425 1548.18 Q1425 1543.15 1428.57 1540.42 Q1432.13 1537.68 1438.69 1537.68 Q1441.93 1537.68 1444.8 1538.16 Q1447.66 1538.63 1450.08 1539.59 Z" fill="#000000" fill-rule="evenodd" fill-opacity="1" /><polyline clip-path="url(#clip852)" style="stroke:#000000; stroke-linecap:round; stroke-linejoin:round; stroke-width:2; stroke-opacity:0.1; fill:none" points="
  250.352,1186.74 2352.76,1186.74 
  "/>
<polyline clip-path="url(#clip852)" style="stroke:#000000; stroke-linecap:round; stroke-linejoin:round; stroke-width:2; stroke-opacity:0.1; fill:none" points="
  250.352,952.201 2352.76,952.201 
  "/>
<polyline clip-path="url(#clip852)" style="stroke:#000000; stroke-linecap:round; stroke-linejoin:round; stroke-width:2; stroke-opacity:0.1; fill:none" points="
  250.352,717.666 2352.76,717.666 
  "/>
<polyline clip-path="url(#clip852)" style="stroke:#000000; stroke-linecap:round; stroke-linejoin:round; stroke-width:2; stroke-opacity:0.1; fill:none" points="
  250.352,483.13 2352.76,483.13 
  "/>
<polyline clip-path="url(#clip852)" style="stroke:#000000; stroke-linecap:round; stroke-linejoin:round; stroke-width:2; stroke-opacity:0.1; fill:none" points="
  250.352,248.594 2352.76,248.594 
  "/>
<polyline clip-path="url(#clip850)" style="stroke:#000000; stroke-linecap:round; stroke-linejoin:round; stroke-width:4; stroke-opacity:1; fill:none" points="
  250.352,1410.9 250.352,47.2441 
  "/>
<polyline clip-path="url(#clip850)" style="stroke:#000000; stroke-linecap:round; stroke-linejoin:round; stroke-width:4; stroke-opacity:1; fill:none" points="
  250.352,1186.74 269.25,1186.74 
  "/>
<polyline clip-path="url(#clip850)" style="stroke:#000000; stroke-linecap:round; stroke-linejoin:round; stroke-width:4; stroke-opacity:1; fill:none" points="
  250.352,952.201 269.25,952.201 
  "/>
<polyline clip-path="url(#clip850)" style="stroke:#000000; stroke-linecap:round; stroke-linejoin:round; stroke-width:4; stroke-opacity:1; fill:none" points="
  250.352,717.666 269.25,717.666 
  "/>
<polyline clip-path="url(#clip850)" style="stroke:#000000; stroke-linecap:round; stroke-linejoin:round; stroke-width:4; stroke-opacity:1; fill:none" points="
  250.352,483.13 269.25,483.13 
  "/>
<polyline clip-path="url(#clip850)" style="stroke:#000000; stroke-linecap:round; stroke-linejoin:round; stroke-width:4; stroke-opacity:1; fill:none" points="
  250.352,248.594 269.25,248.594 
  "/>
<path clip-path="url(#clip850)" d="M131.181 1185.38 Q134.538 1186.1 136.413 1188.37 Q138.311 1190.64 138.311 1193.97 Q138.311 1199.09 134.792 1201.89 Q131.274 1204.69 124.793 1204.69 Q122.617 1204.69 120.302 1204.25 Q118.01 1203.83 115.556 1202.98 L115.556 1198.46 Q117.501 1199.6 119.816 1200.17 Q122.13 1200.75 124.654 1200.75 Q129.052 1200.75 131.343 1199.02 Q133.658 1197.28 133.658 1193.97 Q133.658 1190.92 131.505 1189.2 Q129.376 1187.47 125.556 1187.47 L121.529 1187.47 L121.529 1183.62 L125.742 1183.62 Q129.191 1183.62 131.019 1182.26 Q132.848 1180.87 132.848 1178.28 Q132.848 1175.61 130.95 1174.2 Q129.075 1172.77 125.556 1172.77 Q123.635 1172.77 121.436 1173.18 Q119.237 1173.6 116.598 1174.48 L116.598 1170.31 Q119.26 1169.57 121.575 1169.2 Q123.913 1168.83 125.973 1168.83 Q131.297 1168.83 134.399 1171.26 Q137.501 1173.67 137.501 1177.79 Q137.501 1180.66 135.857 1182.65 Q134.214 1184.62 131.181 1185.38 Z" fill="#000000" fill-rule="evenodd" fill-opacity="1" /><path clip-path="url(#clip850)" d="M147.177 1198.14 L152.061 1198.14 L152.061 1204.02 L147.177 1204.02 L147.177 1198.14 Z" fill="#000000" fill-rule="evenodd" fill-opacity="1" /><path clip-path="url(#clip850)" d="M172.246 1172.54 Q168.635 1172.54 166.806 1176.1 Q165.001 1179.64 165.001 1186.77 Q165.001 1193.88 166.806 1197.44 Q168.635 1200.98 172.246 1200.98 Q175.88 1200.98 177.686 1197.44 Q179.514 1193.88 179.514 1186.77 Q179.514 1179.64 177.686 1176.1 Q175.88 1172.54 172.246 1172.54 M172.246 1168.83 Q178.056 1168.83 181.112 1173.44 Q184.19 1178.02 184.19 1186.77 Q184.19 1195.5 181.112 1200.11 Q178.056 1204.69 172.246 1204.69 Q166.436 1204.69 163.357 1200.11 Q160.302 1195.5 160.302 1186.77 Q160.302 1178.02 163.357 1173.44 Q166.436 1168.83 172.246 1168.83 Z" fill="#000000" fill-rule="evenodd" fill-opacity="1" /><path clip-path="url(#clip850)" d="M202.408 1172.54 Q198.797 1172.54 196.968 1176.1 Q195.163 1179.64 195.163 1186.77 Q195.163 1193.88 196.968 1197.44 Q198.797 1200.98 202.408 1200.98 Q206.042 1200.98 207.848 1197.44 Q209.676 1193.88 209.676 1186.77 Q209.676 1179.64 207.848 1176.1 Q206.042 1172.54 202.408 1172.54 M202.408 1168.83 Q208.218 1168.83 211.274 1173.44 Q214.352 1178.02 214.352 1186.77 Q214.352 1195.5 211.274 1200.11 Q208.218 1204.69 202.408 1204.69 Q196.598 1204.69 193.519 1200.11 Q190.463 1195.5 190.463 1186.77 Q190.463 1178.02 193.519 1173.44 Q196.598 1168.83 202.408 1168.83 Z" fill="#000000" fill-rule="evenodd" fill-opacity="1" /><path clip-path="url(#clip850)" d="M132.177 950.847 Q135.533 951.565 137.408 953.833 Q139.306 956.102 139.306 959.435 Q139.306 964.551 135.788 967.352 Q132.269 970.153 125.788 970.153 Q123.612 970.153 121.297 969.713 Q119.006 969.296 116.552 968.44 L116.552 963.926 Q118.496 965.06 120.811 965.639 Q123.126 966.218 125.649 966.218 Q130.047 966.218 132.339 964.481 Q134.654 962.745 134.654 959.435 Q134.654 956.38 132.501 954.667 Q130.371 952.931 126.552 952.931 L122.524 952.931 L122.524 949.088 L126.737 949.088 Q130.186 949.088 132.015 947.722 Q133.843 946.333 133.843 943.741 Q133.843 941.079 131.945 939.667 Q130.07 938.232 126.552 938.232 Q124.63 938.232 122.431 938.648 Q120.232 939.065 117.593 939.945 L117.593 935.778 Q120.255 935.037 122.57 934.667 Q124.908 934.296 126.968 934.296 Q132.292 934.296 135.394 936.727 Q138.496 939.134 138.496 943.255 Q138.496 946.125 136.853 948.116 Q135.209 950.083 132.177 950.847 Z" fill="#000000" fill-rule="evenodd" fill-opacity="1" /><path clip-path="url(#clip850)" d="M148.172 963.602 L153.056 963.602 L153.056 969.481 L148.172 969.481 L148.172 963.602 Z" fill="#000000" fill-rule="evenodd" fill-opacity="1" /><path clip-path="url(#clip850)" d="M167.269 965.546 L183.588 965.546 L183.588 969.481 L161.644 969.481 L161.644 965.546 Q164.306 962.792 168.889 958.162 Q173.496 953.509 174.677 952.167 Q176.922 949.644 177.801 947.907 Q178.704 946.148 178.704 944.458 Q178.704 941.704 176.76 939.968 Q174.839 938.232 171.737 938.232 Q169.538 938.232 167.084 938.995 Q164.653 939.759 161.876 941.31 L161.876 936.588 Q164.7 935.454 167.153 934.875 Q169.607 934.296 171.644 934.296 Q177.014 934.296 180.209 936.982 Q183.403 939.667 183.403 944.157 Q183.403 946.287 182.593 948.208 Q181.806 950.107 179.7 952.699 Q179.121 953.37 176.019 956.588 Q172.917 959.782 167.269 965.546 Z" fill="#000000" fill-rule="evenodd" fill-opacity="1" /><path clip-path="url(#clip850)" d="M193.45 934.921 L211.806 934.921 L211.806 938.857 L197.732 938.857 L197.732 947.329 Q198.75 946.982 199.769 946.819 Q200.787 946.634 201.806 946.634 Q207.593 946.634 210.973 949.806 Q214.352 952.977 214.352 958.394 Q214.352 963.972 210.88 967.074 Q207.408 970.153 201.088 970.153 Q198.912 970.153 196.644 969.782 Q194.399 969.412 191.991 968.671 L191.991 963.972 Q194.075 965.106 196.297 965.662 Q198.519 966.218 200.996 966.218 Q205 966.218 207.338 964.111 Q209.676 962.005 209.676 958.394 Q209.676 954.782 207.338 952.676 Q205 950.569 200.996 950.569 Q199.121 950.569 197.246 950.986 Q195.394 951.403 193.45 952.282 L193.45 934.921 Z" fill="#000000" fill-rule="evenodd" fill-opacity="1" /><path clip-path="url(#clip850)" d="M131.181 716.311 Q134.538 717.029 136.413 719.297 Q138.311 721.566 138.311 724.899 Q138.311 730.015 134.792 732.816 Q131.274 735.617 124.793 735.617 Q122.617 735.617 120.302 735.177 Q118.01 734.76 115.556 733.904 L115.556 729.39 Q117.501 730.524 119.816 731.103 Q122.13 731.682 124.654 731.682 Q129.052 731.682 131.343 729.946 Q133.658 728.209 133.658 724.899 Q133.658 721.844 131.505 720.131 Q129.376 718.395 125.556 718.395 L121.529 718.395 L121.529 714.552 L125.742 714.552 Q129.191 714.552 131.019 713.186 Q132.848 711.798 132.848 709.205 Q132.848 706.543 130.95 705.131 Q129.075 703.696 125.556 703.696 Q123.635 703.696 121.436 704.112 Q119.237 704.529 116.598 705.409 L116.598 701.242 Q119.26 700.501 121.575 700.131 Q123.913 699.761 125.973 699.761 Q131.297 699.761 134.399 702.191 Q137.501 704.598 137.501 708.719 Q137.501 711.589 135.857 713.58 Q134.214 715.547 131.181 716.311 Z" fill="#000000" fill-rule="evenodd" fill-opacity="1" /><path clip-path="url(#clip850)" d="M147.177 729.066 L152.061 729.066 L152.061 734.946 L147.177 734.946 L147.177 729.066 Z" fill="#000000" fill-rule="evenodd" fill-opacity="1" /><path clip-path="url(#clip850)" d="M162.292 700.386 L180.649 700.386 L180.649 704.321 L166.575 704.321 L166.575 712.793 Q167.593 712.446 168.612 712.284 Q169.63 712.098 170.649 712.098 Q176.436 712.098 179.815 715.27 Q183.195 718.441 183.195 723.858 Q183.195 729.436 179.723 732.538 Q176.251 735.617 169.931 735.617 Q167.755 735.617 165.487 735.246 Q163.241 734.876 160.834 734.135 L160.834 729.436 Q162.917 730.571 165.14 731.126 Q167.362 731.682 169.839 731.682 Q173.843 731.682 176.181 729.575 Q178.519 727.469 178.519 723.858 Q178.519 720.247 176.181 718.14 Q173.843 716.034 169.839 716.034 Q167.964 716.034 166.089 716.45 Q164.237 716.867 162.292 717.747 L162.292 700.386 Z" fill="#000000" fill-rule="evenodd" fill-opacity="1" /><path clip-path="url(#clip850)" d="M202.408 703.464 Q198.797 703.464 196.968 707.029 Q195.163 710.571 195.163 717.7 Q195.163 724.807 196.968 728.371 Q198.797 731.913 202.408 731.913 Q206.042 731.913 207.848 728.371 Q209.676 724.807 209.676 717.7 Q209.676 710.571 207.848 707.029 Q206.042 703.464 202.408 703.464 M202.408 699.761 Q208.218 699.761 211.274 704.367 Q214.352 708.95 214.352 717.7 Q214.352 726.427 211.274 731.034 Q208.218 735.617 202.408 735.617 Q196.598 735.617 193.519 731.034 Q190.463 726.427 190.463 717.7 Q190.463 708.95 193.519 704.367 Q196.598 699.761 202.408 699.761 Z" fill="#000000" fill-rule="evenodd" fill-opacity="1" /><path clip-path="url(#clip850)" d="M132.177 481.775 Q135.533 482.493 137.408 484.762 Q139.306 487.03 139.306 490.363 Q139.306 495.479 135.788 498.28 Q132.269 501.081 125.788 501.081 Q123.612 501.081 121.297 500.641 Q119.006 500.224 116.552 499.368 L116.552 494.854 Q118.496 495.988 120.811 496.567 Q123.126 497.146 125.649 497.146 Q130.047 497.146 132.339 495.41 Q134.654 493.674 134.654 490.363 Q134.654 487.308 132.501 485.595 Q130.371 483.859 126.552 483.859 L122.524 483.859 L122.524 480.016 L126.737 480.016 Q130.186 480.016 132.015 478.651 Q133.843 477.262 133.843 474.669 Q133.843 472.007 131.945 470.595 Q130.07 469.16 126.552 469.16 Q124.63 469.16 122.431 469.576 Q120.232 469.993 117.593 470.873 L117.593 466.706 Q120.255 465.965 122.57 465.595 Q124.908 465.225 126.968 465.225 Q132.292 465.225 135.394 467.655 Q138.496 470.063 138.496 474.183 Q138.496 477.053 136.853 479.044 Q135.209 481.012 132.177 481.775 Z" fill="#000000" fill-rule="evenodd" fill-opacity="1" /><path clip-path="url(#clip850)" d="M148.172 494.53 L153.056 494.53 L153.056 500.41 L148.172 500.41 L148.172 494.53 Z" fill="#000000" fill-rule="evenodd" fill-opacity="1" /><path clip-path="url(#clip850)" d="M162.061 465.85 L184.283 465.85 L184.283 467.84 L171.737 500.41 L166.852 500.41 L178.658 469.785 L162.061 469.785 L162.061 465.85 Z" fill="#000000" fill-rule="evenodd" fill-opacity="1" /><path clip-path="url(#clip850)" d="M193.45 465.85 L211.806 465.85 L211.806 469.785 L197.732 469.785 L197.732 478.257 Q198.75 477.91 199.769 477.748 Q200.787 477.563 201.806 477.563 Q207.593 477.563 210.973 480.734 Q214.352 483.905 214.352 489.322 Q214.352 494.9 210.88 498.002 Q207.408 501.081 201.088 501.081 Q198.912 501.081 196.644 500.711 Q194.399 500.34 191.991 499.599 L191.991 494.9 Q194.075 496.035 196.297 496.59 Q198.519 497.146 200.996 497.146 Q205 497.146 207.338 495.039 Q209.676 492.933 209.676 489.322 Q209.676 485.711 207.338 483.604 Q205 481.498 200.996 481.498 Q199.121 481.498 197.246 481.914 Q195.394 482.331 193.45 483.211 L193.45 465.85 Z" fill="#000000" fill-rule="evenodd" fill-opacity="1" /><path clip-path="url(#clip850)" d="M129.862 235.388 L118.056 253.837 L129.862 253.837 L129.862 235.388 M128.635 231.314 L134.515 231.314 L134.515 253.837 L139.445 253.837 L139.445 257.726 L134.515 257.726 L134.515 265.874 L129.862 265.874 L129.862 257.726 L114.26 257.726 L114.26 253.212 L128.635 231.314 Z" fill="#000000" fill-rule="evenodd" fill-opacity="1" /><path clip-path="url(#clip850)" d="M147.177 259.994 L152.061 259.994 L152.061 265.874 L147.177 265.874 L147.177 259.994 Z" fill="#000000" fill-rule="evenodd" fill-opacity="1" /><path clip-path="url(#clip850)" d="M172.246 234.392 Q168.635 234.392 166.806 237.957 Q165.001 241.499 165.001 248.629 Q165.001 255.735 166.806 259.3 Q168.635 262.841 172.246 262.841 Q175.88 262.841 177.686 259.3 Q179.514 255.735 179.514 248.629 Q179.514 241.499 177.686 237.957 Q175.88 234.392 172.246 234.392 M172.246 230.689 Q178.056 230.689 181.112 235.295 Q184.19 239.879 184.19 248.629 Q184.19 257.355 181.112 261.962 Q178.056 266.545 172.246 266.545 Q166.436 266.545 163.357 261.962 Q160.302 257.355 160.302 248.629 Q160.302 239.879 163.357 235.295 Q166.436 230.689 172.246 230.689 Z" fill="#000000" fill-rule="evenodd" fill-opacity="1" /><path clip-path="url(#clip850)" d="M202.408 234.392 Q198.797 234.392 196.968 237.957 Q195.163 241.499 195.163 248.629 Q195.163 255.735 196.968 259.3 Q198.797 262.841 202.408 262.841 Q206.042 262.841 207.848 259.3 Q209.676 255.735 209.676 248.629 Q209.676 241.499 207.848 237.957 Q206.042 234.392 202.408 234.392 M202.408 230.689 Q208.218 230.689 211.274 235.295 Q214.352 239.879 214.352 248.629 Q214.352 257.355 211.274 261.962 Q208.218 266.545 202.408 266.545 Q196.598 266.545 193.519 261.962 Q190.463 257.355 190.463 248.629 Q190.463 239.879 193.519 235.295 Q196.598 230.689 202.408 230.689 Z" fill="#000000" fill-rule="evenodd" fill-opacity="1" /><path clip-path="url(#clip850)" d="M22.818 978.129 L46.4666 986.85 L46.4666 969.376 L22.818 978.129 M16.4842 981.757 L16.4842 974.468 L64.0042 956.358 L64.0042 963.042 L51.8138 967.371 L51.8138 988.791 L64.0042 993.12 L64.0042 999.899 L16.4842 981.757 Z" fill="#000000" fill-rule="evenodd" fill-opacity="1" /><path clip-path="url(#clip850)" d="M28.3562 957.695 L28.3562 951.488 L58.275 940.348 L28.3562 929.208 L28.3562 923.002 L64.0042 936.37 L64.0042 944.327 L28.3562 957.695 Z" fill="#000000" fill-rule="evenodd" fill-opacity="1" /><path clip-path="url(#clip850)" d="M44.7161 884.425 L47.5806 884.425 L47.5806 911.352 Q53.6281 910.97 56.8109 907.724 Q59.9619 904.446 59.9619 898.621 Q59.9619 895.247 59.1344 892.096 Q58.3069 888.913 56.6518 885.794 L62.1899 885.794 Q63.5267 888.945 64.227 892.255 Q64.9272 895.565 64.9272 898.971 Q64.9272 907.501 59.9619 912.498 Q54.9967 917.463 46.5303 917.463 Q37.7774 917.463 32.6531 912.753 Q27.4968 908.01 27.4968 899.99 Q27.4968 892.796 32.1438 888.627 Q36.7589 884.425 44.7161 884.425 M42.9973 890.282 Q38.1912 890.346 35.3266 892.987 Q32.4621 895.597 32.4621 899.926 Q32.4621 904.828 35.2312 907.788 Q38.0002 910.716 43.0292 911.161 L42.9973 890.282 Z" fill="#000000" fill-rule="evenodd" fill-opacity="1" /><path clip-path="url(#clip850)" d="M33.8307 854.157 Q33.2578 855.143 33.0032 856.321 Q32.7167 857.467 32.7167 858.867 Q32.7167 863.832 35.9632 866.506 Q39.1779 869.148 45.2253 869.148 L64.0042 869.148 L64.0042 875.036 L28.3562 875.036 L28.3562 869.148 L33.8944 869.148 Q30.6479 867.302 29.0883 864.342 Q27.4968 861.382 27.4968 857.148 Q27.4968 856.544 27.5923 855.812 Q27.656 855.08 27.8151 854.188 L33.8307 854.157 Z" fill="#000000" fill-rule="evenodd" fill-opacity="1" /><path clip-path="url(#clip850)" d="M46.0847 831.813 Q46.0847 838.911 47.7079 841.648 Q49.3312 844.385 53.2461 844.385 Q56.3653 844.385 58.2114 842.348 Q60.0256 840.279 60.0256 836.746 Q60.0256 831.877 56.5881 828.948 Q53.1188 825.988 47.3897 825.988 L46.0847 825.988 L46.0847 831.813 M43.6657 820.132 L64.0042 820.132 L64.0042 825.988 L58.5933 825.988 Q61.8398 827.993 63.3994 830.985 Q64.9272 833.977 64.9272 838.306 Q64.9272 843.78 61.8716 847.027 Q58.7843 850.242 53.6281 850.242 Q47.6125 850.242 44.5569 846.231 Q41.5014 842.189 41.5014 834.2 L41.5014 825.988 L40.9285 825.988 Q36.8862 825.988 34.6901 828.662 Q32.4621 831.304 32.4621 836.11 Q32.4621 839.165 33.1941 842.062 Q33.9262 844.958 35.3903 847.632 L29.9795 847.632 Q28.7381 844.417 28.1334 841.393 Q27.4968 838.37 27.4968 835.505 Q27.4968 827.771 31.5072 823.951 Q35.5176 820.132 43.6657 820.132 Z" fill="#000000" fill-rule="evenodd" fill-opacity="1" /><path clip-path="url(#clip850)" d="M45.7664 784.611 Q39.4007 784.611 35.8996 787.253 Q32.3984 789.863 32.3984 794.605 Q32.3984 799.316 35.8996 801.958 Q39.4007 804.568 45.7664 804.568 Q52.1003 804.568 55.6014 801.958 Q59.1026 799.316 59.1026 794.605 Q59.1026 789.863 55.6014 787.253 Q52.1003 784.611 45.7664 784.611 M59.58 778.755 Q68.683 778.755 73.1071 782.797 Q77.5631 786.839 77.5631 795.178 Q77.5631 798.266 77.0857 801.003 Q76.6401 803.74 75.6852 806.318 L69.9879 806.318 Q71.3884 803.74 72.0568 801.226 Q72.7252 798.711 72.7252 796.101 Q72.7252 790.34 69.7015 787.476 Q66.7096 784.611 60.6303 784.611 L57.7339 784.611 Q60.885 786.425 62.4446 789.258 Q64.0042 792.091 64.0042 796.038 Q64.0042 802.594 59.0071 806.605 Q54.01 810.615 45.7664 810.615 Q37.491 810.615 32.4939 806.605 Q27.4968 802.594 27.4968 796.038 Q27.4968 792.091 29.0564 789.258 Q30.616 786.425 33.7671 784.611 L28.3562 784.611 L28.3562 778.755 L59.58 778.755 Z" fill="#000000" fill-rule="evenodd" fill-opacity="1" /><path clip-path="url(#clip850)" d="M44.7161 736.2 L47.5806 736.2 L47.5806 763.127 Q53.6281 762.745 56.8109 759.498 Q59.9619 756.22 59.9619 750.395 Q59.9619 747.022 59.1344 743.871 Q58.3069 740.688 56.6518 737.569 L62.1899 737.569 Q63.5267 740.72 64.227 744.03 Q64.9272 747.34 64.9272 750.746 Q64.9272 759.276 59.9619 764.273 Q54.9967 769.238 46.5303 769.238 Q37.7774 769.238 32.6531 764.527 Q27.4968 759.785 27.4968 751.764 Q27.4968 744.571 32.1438 740.401 Q36.7589 736.2 44.7161 736.2 M42.9973 742.056 Q38.1912 742.12 35.3266 744.762 Q32.4621 747.372 32.4621 751.7 Q32.4621 756.602 35.2312 759.562 Q38.0002 762.49 43.0292 762.936 L42.9973 742.056 Z" fill="#000000" fill-rule="evenodd" fill-opacity="1" /><path clip-path="url(#clip850)" d="M64.0042 693.359 L16.4842 711.501 L16.4842 704.785 L56.4926 689.73 L16.4842 674.644 L16.4842 667.96 L64.0042 686.07 L64.0042 693.359 Z" fill="#000000" fill-rule="evenodd" fill-opacity="1" /><path clip-path="url(#clip850)" d="M44.7161 635.845 L47.5806 635.845 L47.5806 662.772 Q53.6281 662.39 56.8109 659.143 Q59.9619 655.865 59.9619 650.04 Q59.9619 646.666 59.1344 643.515 Q58.3069 640.332 56.6518 637.213 L62.1899 637.213 Q63.5267 640.364 64.227 643.674 Q64.9272 646.985 64.9272 650.39 Q64.9272 658.92 59.9619 663.917 Q54.9967 668.883 46.5303 668.883 Q37.7774 668.883 32.6531 664.172 Q27.4968 659.43 27.4968 651.409 Q27.4968 644.215 32.1438 640.046 Q36.7589 635.845 44.7161 635.845 M42.9973 641.701 Q38.1912 641.765 35.3266 644.406 Q32.4621 647.016 32.4621 651.345 Q32.4621 656.247 35.2312 659.207 Q38.0002 662.135 43.0292 662.581 L42.9973 641.701 Z" fill="#000000" fill-rule="evenodd" fill-opacity="1" /><path clip-path="url(#clip850)" d="M14.479 626.232 L14.479 620.376 L64.0042 620.376 L64.0042 626.232 L14.479 626.232 Z" fill="#000000" fill-rule="evenodd" fill-opacity="1" /><path clip-path="url(#clip850)" d="M32.4621 594.308 Q32.4621 599.019 36.1542 601.756 Q39.8145 604.493 46.212 604.493 Q52.6095 604.493 56.3017 601.788 Q59.9619 599.051 59.9619 594.308 Q59.9619 589.63 56.2698 586.892 Q52.5777 584.155 46.212 584.155 Q39.8781 584.155 36.186 586.892 Q32.4621 589.63 32.4621 594.308 M27.4968 594.308 Q27.4968 586.67 32.4621 582.309 Q37.4273 577.948 46.212 577.948 Q54.9649 577.948 59.9619 582.309 Q64.9272 586.67 64.9272 594.308 Q64.9272 601.979 59.9619 606.34 Q54.9649 610.668 46.212 610.668 Q37.4273 610.668 32.4621 606.34 Q27.4968 601.979 27.4968 594.308 Z" fill="#000000" fill-rule="evenodd" fill-opacity="1" /><path clip-path="url(#clip850)" d="M29.7248 542.587 L35.1993 542.587 Q33.8307 545.07 33.1623 547.584 Q32.4621 550.067 32.4621 552.613 Q32.4621 558.31 36.0905 561.461 Q39.6872 564.612 46.212 564.612 Q52.7369 564.612 56.3653 561.461 Q59.9619 558.31 59.9619 552.613 Q59.9619 550.067 59.2935 547.584 Q58.5933 545.07 57.2247 542.587 L62.6355 542.587 Q63.7814 545.038 64.3543 547.68 Q64.9272 550.289 64.9272 553.25 Q64.9272 561.302 59.8664 566.045 Q54.8057 570.787 46.212 570.787 Q37.491 570.787 32.4939 566.013 Q27.4968 561.207 27.4968 552.868 Q27.4968 550.162 28.0697 547.584 Q28.6108 545.006 29.7248 542.587 Z" fill="#000000" fill-rule="evenodd" fill-opacity="1" /><path clip-path="url(#clip850)" d="M28.3562 532.402 L28.3562 526.545 L64.0042 526.545 L64.0042 532.402 L28.3562 532.402 M14.479 532.402 L14.479 526.545 L21.895 526.545 L21.895 532.402 L14.479 532.402 Z" fill="#000000" fill-rule="evenodd" fill-opacity="1" /><path clip-path="url(#clip850)" d="M18.2347 508.499 L28.3562 508.499 L28.3562 496.436 L32.9077 496.436 L32.9077 508.499 L52.2594 508.499 Q56.6199 508.499 57.8613 507.321 Q59.1026 506.111 59.1026 502.451 L59.1026 496.436 L64.0042 496.436 L64.0042 502.451 Q64.0042 509.231 61.4897 511.809 Q58.9434 514.387 52.2594 514.387 L32.9077 514.387 L32.9077 518.684 L28.3562 518.684 L28.3562 514.387 L18.2347 514.387 L18.2347 508.499 Z" fill="#000000" fill-rule="evenodd" fill-opacity="1" /><path clip-path="url(#clip850)" d="M67.3143 473.901 Q73.68 476.384 75.6216 478.739 Q77.5631 481.094 77.5631 485.041 L77.5631 489.72 L72.6615 489.72 L72.6615 486.282 Q72.6615 483.863 71.5157 482.527 Q70.3699 481.19 66.1048 479.566 L63.4312 478.516 L28.3562 492.934 L28.3562 486.728 L56.238 475.588 L28.3562 464.448 L28.3562 458.241 L67.3143 473.901 Z" fill="#000000" fill-rule="evenodd" fill-opacity="1" /><polyline clip-path="url(#clip852)" style="stroke:#009af9; stroke-linecap:round; stroke-linejoin:round; stroke-width:4; stroke-opacity:1; fill:none" points="
  309.854,1372.3 314.825,1307.23 319.796,1204.22 324.767,1151.55 329.738,1115.68 334.709,1082.29 339.68,1071.61 344.651,996.918 349.622,1014.3 354.593,1012.96 
  359.563,1010.02 364.534,961.556 369.505,943.751 374.476,930.298 379.447,889.231 384.418,856.736 389.389,866.393 394.36,862.974 399.331,841.091 404.302,817.782 
  409.273,842.492 414.244,814.906 419.215,851.164 424.186,788.786 429.156,792.223 434.127,795.345 439.098,783.059 444.069,850.343 449.04,782.766 454.011,755.777 
  458.982,812.122 463.953,764.473 468.924,750.702 473.895,775.818 478.866,853.776 483.837,736.22 488.808,787.784 493.778,684.707 498.749,784.391 503.72,836.535 
  508.691,792.643 513.662,841.753 518.633,885.695 523.604,704.13 528.575,703.668 533.546,827.551 538.517,635.952 543.488,684.074 548.459,638.412 553.43,619.257 
  558.401,610.127 563.371,580.15 568.342,649.737 573.313,700.339 578.284,691.249 583.255,798.305 588.226,587.988 593.197,541.784 598.168,559.671 603.139,612.709 
  608.11,749.598 613.081,539.076 618.052,554.541 623.023,583.62 627.994,628.85 632.964,627.838 637.935,632.301 642.906,573.641 647.877,688.551 652.848,494.564 
  657.819,550.007 662.79,627.726 667.761,517.676 672.732,547.367 677.703,705.219 682.674,553.277 687.645,481.051 692.616,515.125 697.586,391.588 702.557,460.227 
  707.528,370.638 712.499,470.741 717.47,358.64 722.441,494.375 727.412,459.806 732.383,499.65 737.354,562.732 742.325,505.489 747.296,574.366 752.267,528.59 
  757.238,615.232 762.209,405.384 767.179,592.699 772.15,532.792 777.121,532.392 782.092,651.158 787.063,464.184 792.034,564.005 797.005,573.7 801.976,503.707 
  806.947,407.682 811.918,415.978 816.889,418.155 821.86,281.424 826.831,377.823 831.801,392.531 836.772,508.411 841.743,391.024 846.714,349.532 851.685,557.477 
  856.656,409.234 861.627,265.945 866.598,413.833 871.569,427.211 876.54,494.176 881.511,242.998 886.482,354.542 891.453,410.699 896.424,376.395 901.394,297.135 
  906.365,341.591 911.336,264.436 916.307,367.726 921.278,349.089 926.249,437.68 931.22,428.126 936.191,365.845 941.162,371.019 946.133,398.117 951.104,473.836 
  956.075,422.055 961.046,411.321 966.017,383.579 970.987,347.592 975.958,380.183 980.929,377.375 985.9,482.747 990.871,407.437 995.842,451.202 1000.81,575.404 
  1005.78,408.367 1010.75,405.929 1015.73,393.852 1020.7,404.828 1025.67,481.677 1030.64,398.064 1035.61,337.092 1040.58,485.04 1045.55,339.308 1050.52,357.766 
  1055.49,296.427 1060.46,315.785 1065.44,423.307 1070.41,439.776 1075.38,373.363 1080.35,463.802 1085.32,375.211 1090.29,390.79 1095.26,342.574 1100.23,347.638 
  1105.2,471.771 1110.17,459.173 1115.14,373.686 1120.12,309.631 1125.09,248.843 1130.06,306.312 1135.03,273.349 1140,265.803 1144.97,364.54 1149.94,298.857 
  1154.91,362.212 1159.88,436.841 1164.85,363.055 1169.82,304.29 1174.8,363.153 1179.77,490.932 1184.74,421.888 1189.71,390.093 1194.68,437.62 1199.65,499.246 
  1204.62,325.491 1209.59,362.411 1214.56,346.348 1219.53,357.08 1224.5,374.721 1229.48,354.448 1234.45,364.601 1239.42,317.21 1244.39,319.871 1249.36,326.052 
  1254.33,336.847 1259.3,386.842 1264.27,433.786 1269.24,305.776 1274.21,424.519 1279.18,446.739 1284.16,506.832 1289.13,365.881 1294.1,422.78 1299.07,438.005 
  1304.04,491.853 1309.01,343.589 1313.98,383.844 1318.95,245.973 1323.92,284.029 1328.89,313.704 1333.87,390.914 1338.84,263.545 1343.81,510.134 1348.78,457.391 
  1353.75,334.851 1358.72,390.98 1363.69,375.626 1368.66,414.889 1373.63,479.416 1378.6,517.123 1383.57,507.615 1388.55,444.075 1393.52,388.512 1398.49,383.455 
  1403.46,265.933 1408.43,176.519 1413.4,340.335 1418.37,458.72 1423.34,393.94 1428.31,401.425 1433.28,456.896 1438.25,424.259 1443.23,361.223 1448.2,391.9 
  1453.17,367.841 1458.14,331.404 1463.11,449.806 1468.08,565.952 1473.05,549.859 1478.02,370.947 1482.99,239.765 1487.96,373.834 1492.93,532.823 1497.91,348.734 
  1502.88,388.155 1507.85,343.545 1512.82,422.614 1517.79,335.066 1522.76,301.13 1527.73,261.055 1532.7,278.109 1537.67,331.452 1542.64,251.223 1547.61,377.804 
  1552.59,420.259 1557.56,385.917 1562.53,265.163 1567.5,367.99 1572.47,450.527 1577.44,306.584 1582.41,350.053 1587.38,261.048 1592.35,344.4 1597.32,176.939 
  1602.3,400.739 1607.27,323.413 1612.24,383.818 1617.21,265.353 1622.18,344.706 1627.15,428.029 1632.12,294.266 1637.09,228.81 1642.06,307.915 1647.03,356.153 
  1652,385.619 1656.98,406.897 1661.95,365.121 1666.92,376.893 1671.89,306.198 1676.86,428.281 1681.83,325.036 1686.8,301.916 1691.77,214.721 1696.74,348.36 
  1701.71,387.105 1706.68,455.046 1711.66,367.285 1716.63,375.652 1721.6,338.528 1726.57,303.493 1731.54,318.282 1736.51,309.073 1741.48,456.764 1746.45,280.557 
  1751.42,342.046 1756.39,167.241 1761.36,332.881 1766.34,252.274 1771.31,220.01 1776.28,461.476 1781.25,353.67 1786.22,239.709 1791.19,412.901 1796.16,290.619 
  1801.13,257.817 1806.1,294.877 1811.07,412.126 1816.04,302.823 1821.02,269.113 1825.99,301.585 1830.96,85.838 1835.93,372.374 1840.9,333.243 1845.87,311.284 
  1850.84,316.869 1855.81,301.265 1860.78,258.469 1865.75,434.792 1870.73,347.464 1875.7,337.042 1880.67,297.967 1885.64,358.338 1890.61,324.643 1895.58,387.265 
  1900.55,231.543 1905.52,255.338 1910.49,274.893 1915.46,232.461 1920.43,340.204 1925.41,366.243 1930.38,353.093 1935.35,412.339 1940.32,363.194 1945.29,363.416 
  1950.26,486.59 1955.23,319.023 1960.2,339.566 1965.17,337.441 1970.14,317.923 1975.11,259.651 1980.09,298.166 1985.06,303.886 1990.03,293.779 1995,542.896 
  1999.97,244.915 2004.94,468.163 2009.91,393.175 2014.88,494.428 2019.85,292.586 2024.82,369.606 2029.79,531.553 2034.77,327.592 2039.74,336.234 2044.71,225.081 
  2049.68,344.28 2054.65,278.924 2059.62,440.083 2064.59,540.753 2069.56,381.313 2074.53,387.412 2079.5,432.706 2084.47,238.198 2089.45,399.489 2094.42,439.998 
  2099.39,602.312 2104.36,439.164 2109.33,422.038 2114.3,435.13 2119.27,390.416 2124.24,426.196 2129.21,572.506 2134.18,562.435 2139.16,260.244 2144.13,387.693 
  2149.1,316.73 2154.07,86.5425 2159.04,267.299 2164.01,310.036 2168.98,252.269 2173.95,425.827 2178.92,404.581 2183.89,592.055 2188.86,509.909 2193.84,589.385 
  2198.81,656.985 2203.78,425.549 2208.75,434.176 2213.72,662.941 2218.69,569.911 2223.66,497.295 2228.63,551.467 2233.6,502.063 2238.57,223.228 2243.54,469.835 
  2248.52,329.96 2253.49,362.654 2258.46,291.843 2263.43,330.844 2268.4,375.331 2273.37,364.253 2278.34,239.127 2283.31,207.81 2288.28,367.259 2293.25,172.763 
  
  "/>
</svg>
