<?xml version="1.0" encoding="utf-8"?>
<svg xmlns="http://www.w3.org/2000/svg" xmlns:xlink="http://www.w3.org/1999/xlink" width="600" height="400" viewBox="0 0 2400 1600">
<defs>
  <clipPath id="clip930">
    <rect x="0" y="0" width="2400" height="1600"/>
  </clipPath>
</defs>
<path clip-path="url(#clip930)" d="
M0 1600 L2400 1600 L2400 0 L0 0  Z
  " fill="#ffffff" fill-rule="evenodd" fill-opacity="1"/>
<defs>
  <clipPath id="clip931">
    <rect x="480" y="0" width="1681" height="1600"/>
  </clipPath>
</defs>
<path clip-path="url(#clip930)" d="
M219.519 1410.9 L2352.76 1410.9 L2352.76 47.2441 L219.519 47.2441  Z
  " fill="#ffffff" fill-rule="evenodd" fill-opacity="1"/>
<defs>
  <clipPath id="clip932">
    <rect x="219" y="47" width="2134" height="1365"/>
  </clipPath>
</defs>
<polyline clip-path="url(#clip932)" style="stroke:#000000; stroke-linecap:round; stroke-linejoin:round; stroke-width:2; stroke-opacity:0.1; fill:none" points="
  274.85,1410.9 274.85,47.2441 
  "/>
<polyline clip-path="url(#clip932)" style="stroke:#000000; stroke-linecap:round; stroke-linejoin:round; stroke-width:2; stroke-opacity:0.1; fill:none" points="
  779.233,1410.9 779.233,47.2441 
  "/>
<polyline clip-path="url(#clip932)" style="stroke:#000000; stroke-linecap:round; stroke-linejoin:round; stroke-width:2; stroke-opacity:0.1; fill:none" points="
  1283.62,1410.9 1283.62,47.2441 
  "/>
<polyline clip-path="url(#clip932)" style="stroke:#000000; stroke-linecap:round; stroke-linejoin:round; stroke-width:2; stroke-opacity:0.1; fill:none" points="
  1788,1410.9 1788,47.2441 
  "/>
<polyline clip-path="url(#clip932)" style="stroke:#000000; stroke-linecap:round; stroke-linejoin:round; stroke-width:2; stroke-opacity:0.1; fill:none" points="
  2292.38,1410.9 2292.38,47.2441 
  "/>
<polyline clip-path="url(#clip930)" style="stroke:#000000; stroke-linecap:round; stroke-linejoin:round; stroke-width:4; stroke-opacity:1; fill:none" points="
  219.519,1410.9 2352.76,1410.9 
  "/>
<polyline clip-path="url(#clip930)" style="stroke:#000000; stroke-linecap:round; stroke-linejoin:round; stroke-width:4; stroke-opacity:1; fill:none" points="
  274.85,1410.9 274.85,1392 
  "/>
<polyline clip-path="url(#clip930)" style="stroke:#000000; stroke-linecap:round; stroke-linejoin:round; stroke-width:4; stroke-opacity:1; fill:none" points="
  779.233,1410.9 779.233,1392 
  "/>
<polyline clip-path="url(#clip930)" style="stroke:#000000; stroke-linecap:round; stroke-linejoin:round; stroke-width:4; stroke-opacity:1; fill:none" points="
  1283.62,1410.9 1283.62,1392 
  "/>
<polyline clip-path="url(#clip930)" style="stroke:#000000; stroke-linecap:round; stroke-linejoin:round; stroke-width:4; stroke-opacity:1; fill:none" points="
  1788,1410.9 1788,1392 
  "/>
<polyline clip-path="url(#clip930)" style="stroke:#000000; stroke-linecap:round; stroke-linejoin:round; stroke-width:4; stroke-opacity:1; fill:none" points="
  2292.38,1410.9 2292.38,1392 
  "/>
<path clip-path="url(#clip930)" d="M274.85 1441.82 Q271.239 1441.82 269.41 1445.38 Q267.605 1448.92 267.605 1456.05 Q267.605 1463.16 269.41 1466.72 Q271.239 1470.26 274.85 1470.26 Q278.484 1470.26 280.29 1466.72 Q282.118 1463.16 282.118 1456.05 Q282.118 1448.92 280.29 1445.38 Q278.484 1441.82 274.85 1441.82 M274.85 1438.11 Q280.66 1438.11 283.716 1442.72 Q286.794 1447.3 286.794 1456.05 Q286.794 1464.78 283.716 1469.38 Q280.66 1473.97 274.85 1473.97 Q269.04 1473.97 265.961 1469.38 Q262.905 1464.78 262.905 1456.05 Q262.905 1447.3 265.961 1442.72 Q269.04 1438.11 274.85 1438.11 Z" fill="#000000" fill-rule="evenodd" fill-opacity="1" /><path clip-path="url(#clip930)" d="M687.335 1485.02 L694.974 1485.02 L694.974 1458.66 L686.664 1460.32 L686.664 1456.06 L694.928 1454.4 L699.604 1454.4 L699.604 1485.02 L707.242 1485.02 L707.242 1488.96 L687.335 1488.96 L687.335 1485.02 Z" fill="#000000" fill-rule="evenodd" fill-opacity="1" /><path clip-path="url(#clip930)" d="M716.687 1483.08 L721.571 1483.08 L721.571 1488.96 L716.687 1488.96 L716.687 1483.08 Z" fill="#000000" fill-rule="evenodd" fill-opacity="1" /><path clip-path="url(#clip930)" d="M741.756 1457.48 Q738.145 1457.48 736.316 1461.04 Q734.511 1464.58 734.511 1471.71 Q734.511 1478.82 736.316 1482.38 Q738.145 1485.92 741.756 1485.92 Q745.39 1485.92 747.196 1482.38 Q749.025 1478.82 749.025 1471.71 Q749.025 1464.58 747.196 1461.04 Q745.39 1457.48 741.756 1457.48 M741.756 1453.77 Q747.566 1453.77 750.622 1458.38 Q753.7 1462.96 753.7 1471.71 Q753.7 1480.44 750.622 1485.04 Q747.566 1489.63 741.756 1489.63 Q735.946 1489.63 732.867 1485.04 Q729.812 1480.44 729.812 1471.71 Q729.812 1462.96 732.867 1458.38 Q735.946 1453.77 741.756 1453.77 Z" fill="#000000" fill-rule="evenodd" fill-opacity="1" /><path clip-path="url(#clip930)" d="M790.089 1463.49 L779.51 1474.12 L790.089 1484.7 L787.335 1487.5 L776.71 1476.87 L766.085 1487.5 L763.353 1484.7 L773.909 1474.12 L763.353 1463.49 L766.085 1460.69 L776.71 1471.32 L787.335 1460.69 L790.089 1463.49 Z" fill="#000000" fill-rule="evenodd" fill-opacity="1" /><path clip-path="url(#clip930)" d="M802.45 1485.02 L810.089 1485.02 L810.089 1458.66 L801.779 1460.32 L801.779 1456.06 L810.043 1454.4 L814.719 1454.4 L814.719 1485.02 L822.357 1485.02 L822.357 1488.96 L802.45 1488.96 L802.45 1485.02 Z" fill="#000000" fill-rule="evenodd" fill-opacity="1" /><path clip-path="url(#clip930)" d="M841.802 1457.48 Q838.191 1457.48 836.362 1461.04 Q834.556 1464.58 834.556 1471.71 Q834.556 1478.82 836.362 1482.38 Q838.191 1485.92 841.802 1485.92 Q845.436 1485.92 847.242 1482.38 Q849.07 1478.82 849.07 1471.71 Q849.07 1464.58 847.242 1461.04 Q845.436 1457.48 841.802 1457.48 M841.802 1453.77 Q847.612 1453.77 850.668 1458.38 Q853.746 1462.96 853.746 1471.71 Q853.746 1480.44 850.668 1485.04 Q847.612 1489.63 841.802 1489.63 Q835.992 1489.63 832.913 1485.04 Q829.857 1480.44 829.857 1471.71 Q829.857 1462.96 832.913 1458.38 Q835.992 1453.77 841.802 1453.77 Z" fill="#000000" fill-rule="evenodd" fill-opacity="1" /><path clip-path="url(#clip930)" d="M853.746 1433.47 L871.802 1433.47 L871.802 1435.08 L861.608 1461.55 L857.639 1461.55 L867.231 1436.66 L853.746 1436.66 L853.746 1433.47 Z" fill="#000000" fill-rule="evenodd" fill-opacity="1" /><path clip-path="url(#clip930)" d="M1195.8 1485.02 L1212.12 1485.02 L1212.12 1488.96 L1190.18 1488.96 L1190.18 1485.02 Q1192.84 1482.27 1197.42 1477.64 Q1202.03 1472.98 1203.21 1471.64 Q1205.46 1469.12 1206.34 1467.38 Q1207.24 1465.62 1207.24 1463.93 Q1207.24 1461.18 1205.29 1459.44 Q1203.37 1457.71 1200.27 1457.71 Q1198.07 1457.71 1195.62 1458.47 Q1193.19 1459.23 1190.41 1460.79 L1190.41 1456.06 Q1193.23 1454.93 1195.69 1454.35 Q1198.14 1453.77 1200.18 1453.77 Q1205.55 1453.77 1208.74 1456.46 Q1211.94 1459.14 1211.94 1463.63 Q1211.94 1465.76 1211.13 1467.68 Q1210.34 1469.58 1208.23 1472.17 Q1207.66 1472.85 1204.55 1476.06 Q1201.45 1479.26 1195.8 1485.02 Z" fill="#000000" fill-rule="evenodd" fill-opacity="1" /><path clip-path="url(#clip930)" d="M1221.94 1483.08 L1226.82 1483.08 L1226.82 1488.96 L1221.94 1488.96 L1221.94 1483.08 Z" fill="#000000" fill-rule="evenodd" fill-opacity="1" /><path clip-path="url(#clip930)" d="M1247.01 1457.48 Q1243.4 1457.48 1241.57 1461.04 Q1239.76 1464.58 1239.76 1471.71 Q1239.76 1478.82 1241.57 1482.38 Q1243.4 1485.92 1247.01 1485.92 Q1250.64 1485.92 1252.45 1482.38 Q1254.28 1478.82 1254.28 1471.71 Q1254.28 1464.58 1252.45 1461.04 Q1250.64 1457.48 1247.01 1457.48 M1247.01 1453.77 Q1252.82 1453.77 1255.87 1458.38 Q1258.95 1462.96 1258.95 1471.71 Q1258.95 1480.44 1255.87 1485.04 Q1252.82 1489.63 1247.01 1489.63 Q1241.2 1489.63 1238.12 1485.04 Q1235.06 1480.44 1235.06 1471.71 Q1235.06 1462.96 1238.12 1458.38 Q1241.2 1453.77 1247.01 1453.77 Z" fill="#000000" fill-rule="evenodd" fill-opacity="1" /><path clip-path="url(#clip930)" d="M1295.34 1463.49 L1284.76 1474.12 L1295.34 1484.7 L1292.59 1487.5 L1281.96 1476.87 L1271.34 1487.5 L1268.6 1484.7 L1279.16 1474.12 L1268.6 1463.49 L1271.34 1460.69 L1281.96 1471.32 L1292.59 1460.69 L1295.34 1463.49 Z" fill="#000000" fill-rule="evenodd" fill-opacity="1" /><path clip-path="url(#clip930)" d="M1307.7 1485.02 L1315.34 1485.02 L1315.34 1458.66 L1307.03 1460.32 L1307.03 1456.06 L1315.29 1454.4 L1319.97 1454.4 L1319.97 1485.02 L1327.61 1485.02 L1327.61 1488.96 L1307.7 1488.96 L1307.7 1485.02 Z" fill="#000000" fill-rule="evenodd" fill-opacity="1" /><path clip-path="url(#clip930)" d="M1347.05 1457.48 Q1343.44 1457.48 1341.61 1461.04 Q1339.81 1464.58 1339.81 1471.71 Q1339.81 1478.82 1341.61 1482.38 Q1343.44 1485.92 1347.05 1485.92 Q1350.69 1485.92 1352.49 1482.38 Q1354.32 1478.82 1354.32 1471.71 Q1354.32 1464.58 1352.49 1461.04 Q1350.69 1457.48 1347.05 1457.48 M1347.05 1453.77 Q1352.86 1453.77 1355.92 1458.38 Q1359 1462.96 1359 1471.71 Q1359 1480.44 1355.92 1485.04 Q1352.86 1489.63 1347.05 1489.63 Q1341.24 1489.63 1338.16 1485.04 Q1335.11 1480.44 1335.11 1471.71 Q1335.11 1462.96 1338.16 1458.38 Q1341.24 1453.77 1347.05 1453.77 Z" fill="#000000" fill-rule="evenodd" fill-opacity="1" /><path clip-path="url(#clip930)" d="M1359 1433.47 L1377.05 1433.47 L1377.05 1435.08 L1366.86 1461.55 L1362.89 1461.55 L1372.48 1436.66 L1359 1436.66 L1359 1433.47 Z" fill="#000000" fill-rule="evenodd" fill-opacity="1" /><path clip-path="url(#clip930)" d="M1710.26 1470.32 Q1713.61 1471.04 1715.49 1473.31 Q1717.39 1475.58 1717.39 1478.91 Q1717.39 1484.03 1713.87 1486.83 Q1710.35 1489.63 1703.87 1489.63 Q1701.69 1489.63 1699.38 1489.19 Q1697.08 1488.77 1694.63 1487.91 L1694.63 1483.4 Q1696.58 1484.54 1698.89 1485.11 Q1701.2 1485.69 1703.73 1485.69 Q1708.13 1485.69 1710.42 1483.96 Q1712.73 1482.22 1712.73 1478.91 Q1712.73 1475.85 1710.58 1474.14 Q1708.45 1472.41 1704.63 1472.41 L1700.6 1472.41 L1700.6 1468.56 L1704.82 1468.56 Q1708.27 1468.56 1710.09 1467.2 Q1711.92 1465.81 1711.92 1463.22 Q1711.92 1460.55 1710.02 1459.14 Q1708.15 1457.71 1704.63 1457.71 Q1702.71 1457.71 1700.51 1458.12 Q1698.31 1458.54 1695.67 1459.42 L1695.67 1455.25 Q1698.33 1454.51 1700.65 1454.14 Q1702.99 1453.77 1705.05 1453.77 Q1710.37 1453.77 1713.47 1456.2 Q1716.58 1458.61 1716.58 1462.73 Q1716.58 1465.6 1714.93 1467.59 Q1713.29 1469.56 1710.26 1470.32 Z" fill="#000000" fill-rule="evenodd" fill-opacity="1" /><path clip-path="url(#clip930)" d="M1726.25 1483.08 L1731.14 1483.08 L1731.14 1488.96 L1726.25 1488.96 L1726.25 1483.08 Z" fill="#000000" fill-rule="evenodd" fill-opacity="1" /><path clip-path="url(#clip930)" d="M1751.32 1457.48 Q1747.71 1457.48 1745.88 1461.04 Q1744.08 1464.58 1744.08 1471.71 Q1744.08 1478.82 1745.88 1482.38 Q1747.71 1485.92 1751.32 1485.92 Q1754.95 1485.92 1756.76 1482.38 Q1758.59 1478.82 1758.59 1471.71 Q1758.59 1464.58 1756.76 1461.04 Q1754.95 1457.48 1751.32 1457.48 M1751.32 1453.77 Q1757.13 1453.77 1760.19 1458.38 Q1763.26 1462.96 1763.26 1471.71 Q1763.26 1480.44 1760.19 1485.04 Q1757.13 1489.63 1751.32 1489.63 Q1745.51 1489.63 1742.43 1485.04 Q1739.38 1480.44 1739.38 1471.71 Q1739.38 1462.96 1742.43 1458.38 Q1745.51 1453.77 1751.32 1453.77 Z" fill="#000000" fill-rule="evenodd" fill-opacity="1" /><path clip-path="url(#clip930)" d="M1799.65 1463.49 L1789.07 1474.12 L1799.65 1484.7 L1796.9 1487.5 L1786.27 1476.87 L1775.65 1487.5 L1772.92 1484.7 L1783.47 1474.12 L1772.92 1463.49 L1775.65 1460.69 L1786.27 1471.32 L1796.9 1460.69 L1799.65 1463.49 Z" fill="#000000" fill-rule="evenodd" fill-opacity="1" /><path clip-path="url(#clip930)" d="M1812.01 1485.02 L1819.65 1485.02 L1819.65 1458.66 L1811.34 1460.32 L1811.34 1456.06 L1819.61 1454.4 L1824.28 1454.4 L1824.28 1485.02 L1831.92 1485.02 L1831.92 1488.96 L1812.01 1488.96 L1812.01 1485.02 Z" fill="#000000" fill-rule="evenodd" fill-opacity="1" /><path clip-path="url(#clip930)" d="M1851.37 1457.48 Q1847.76 1457.48 1845.93 1461.04 Q1844.12 1464.58 1844.12 1471.71 Q1844.12 1478.82 1845.93 1482.38 Q1847.76 1485.92 1851.37 1485.92 Q1855 1485.92 1856.81 1482.38 Q1858.63 1478.82 1858.63 1471.71 Q1858.63 1464.58 1856.81 1461.04 Q1855 1457.48 1851.37 1457.48 M1851.37 1453.77 Q1857.18 1453.77 1860.23 1458.38 Q1863.31 1462.96 1863.31 1471.71 Q1863.31 1480.44 1860.23 1485.04 Q1857.18 1489.63 1851.37 1489.63 Q1845.56 1489.63 1842.48 1485.04 Q1839.42 1480.44 1839.42 1471.71 Q1839.42 1462.96 1842.48 1458.38 Q1845.56 1453.77 1851.37 1453.77 Z" fill="#000000" fill-rule="evenodd" fill-opacity="1" /><path clip-path="url(#clip930)" d="M1863.31 1433.47 L1881.37 1433.47 L1881.37 1435.08 L1871.17 1461.55 L1867.2 1461.55 L1876.8 1436.66 L1863.31 1436.66 L1863.31 1433.47 Z" fill="#000000" fill-rule="evenodd" fill-opacity="1" /><path clip-path="url(#clip930)" d="M2213.97 1458.47 L2202.16 1476.92 L2213.97 1476.92 L2213.97 1458.47 M2212.74 1454.4 L2218.62 1454.4 L2218.62 1476.92 L2223.55 1476.92 L2223.55 1480.81 L2218.62 1480.81 L2218.62 1488.96 L2213.97 1488.96 L2213.97 1480.81 L2198.37 1480.81 L2198.37 1476.29 L2212.74 1454.4 Z" fill="#000000" fill-rule="evenodd" fill-opacity="1" /><path clip-path="url(#clip930)" d="M2231.28 1483.08 L2236.17 1483.08 L2236.17 1488.96 L2231.28 1488.96 L2231.28 1483.08 Z" fill="#000000" fill-rule="evenodd" fill-opacity="1" /><path clip-path="url(#clip930)" d="M2256.35 1457.48 Q2252.74 1457.48 2250.91 1461.04 Q2249.11 1464.58 2249.11 1471.71 Q2249.11 1478.82 2250.91 1482.38 Q2252.74 1485.92 2256.35 1485.92 Q2259.99 1485.92 2261.79 1482.38 Q2263.62 1478.82 2263.62 1471.71 Q2263.62 1464.58 2261.79 1461.04 Q2259.99 1457.48 2256.35 1457.48 M2256.35 1453.77 Q2262.16 1453.77 2265.22 1458.38 Q2268.3 1462.96 2268.3 1471.71 Q2268.3 1480.44 2265.22 1485.04 Q2262.16 1489.63 2256.35 1489.63 Q2250.54 1489.63 2247.46 1485.04 Q2244.41 1480.44 2244.41 1471.71 Q2244.41 1462.96 2247.46 1458.38 Q2250.54 1453.77 2256.35 1453.77 Z" fill="#000000" fill-rule="evenodd" fill-opacity="1" /><path clip-path="url(#clip930)" d="M2304.68 1463.49 L2294.11 1474.12 L2304.68 1484.7 L2301.93 1487.5 L2291.3 1476.87 L2280.68 1487.5 L2277.95 1484.7 L2288.5 1474.12 L2277.95 1463.49 L2280.68 1460.69 L2291.3 1471.32 L2301.93 1460.69 L2304.68 1463.49 Z" fill="#000000" fill-rule="evenodd" fill-opacity="1" /><path clip-path="url(#clip930)" d="M2317.05 1485.02 L2324.68 1485.02 L2324.68 1458.66 L2316.37 1460.32 L2316.37 1456.06 L2324.64 1454.4 L2329.31 1454.4 L2329.31 1485.02 L2336.95 1485.02 L2336.95 1488.96 L2317.05 1488.96 L2317.05 1485.02 Z" fill="#000000" fill-rule="evenodd" fill-opacity="1" /><path clip-path="url(#clip930)" d="M2356.4 1457.48 Q2352.79 1457.48 2350.96 1461.04 Q2349.15 1464.58 2349.15 1471.71 Q2349.15 1478.82 2350.96 1482.38 Q2352.79 1485.92 2356.4 1485.92 Q2360.03 1485.92 2361.84 1482.38 Q2363.67 1478.82 2363.67 1471.71 Q2363.67 1464.58 2361.84 1461.04 Q2360.03 1457.48 2356.4 1457.48 M2356.4 1453.77 Q2362.21 1453.77 2365.26 1458.38 Q2368.34 1462.96 2368.34 1471.71 Q2368.34 1480.44 2365.26 1485.04 Q2362.21 1489.63 2356.4 1489.63 Q2350.59 1489.63 2347.51 1485.04 Q2344.45 1480.44 2344.45 1471.71 Q2344.45 1462.96 2347.51 1458.38 Q2350.59 1453.77 2356.4 1453.77 Z" fill="#000000" fill-rule="evenodd" fill-opacity="1" /><path clip-path="url(#clip930)" d="M2368.34 1433.47 L2386.4 1433.47 L2386.4 1435.08 L2376.2 1461.55 L2372.23 1461.55 L2381.83 1436.66 L2368.34 1436.66 L2368.34 1433.47 Z" fill="#000000" fill-rule="evenodd" fill-opacity="1" /><path clip-path="url(#clip930)" d="M1135.7 1526.67 L1142.13 1526.67 L1142.13 1574.19 L1135.7 1574.19 L1135.7 1526.67 Z" fill="#000000" fill-rule="evenodd" fill-opacity="1" /><path clip-path="url(#clip930)" d="M1160.46 1528.42 L1160.46 1538.54 L1172.53 1538.54 L1172.53 1543.09 L1160.46 1543.09 L1160.46 1562.44 Q1160.46 1566.8 1161.64 1568.04 Q1162.85 1569.28 1166.51 1569.28 L1172.53 1569.28 L1172.53 1574.19 L1166.51 1574.19 Q1159.73 1574.19 1157.15 1571.67 Q1154.57 1569.12 1154.57 1562.44 L1154.57 1543.09 L1150.28 1543.09 L1150.28 1538.54 L1154.57 1538.54 L1154.57 1528.42 L1160.46 1528.42 Z" fill="#000000" fill-rule="evenodd" fill-opacity="1" /><path clip-path="url(#clip930)" d="M1210.72 1554.9 L1210.72 1557.76 L1183.79 1557.76 Q1184.17 1563.81 1187.42 1566.99 Q1190.7 1570.14 1196.52 1570.14 Q1199.9 1570.14 1203.05 1569.32 Q1206.23 1568.49 1209.35 1566.83 L1209.35 1572.37 Q1206.2 1573.71 1202.89 1574.41 Q1199.58 1575.11 1196.17 1575.11 Q1187.64 1575.11 1182.65 1570.14 Q1177.68 1565.18 1177.68 1556.71 Q1177.68 1547.96 1182.39 1542.83 Q1187.13 1537.68 1195.16 1537.68 Q1202.35 1537.68 1206.52 1542.33 Q1210.72 1546.94 1210.72 1554.9 M1204.86 1553.18 Q1204.8 1548.37 1202.16 1545.51 Q1199.55 1542.64 1195.22 1542.64 Q1190.32 1542.64 1187.36 1545.41 Q1184.43 1548.18 1183.98 1553.21 L1204.86 1553.18 Z" fill="#000000" fill-rule="evenodd" fill-opacity="1" /><path clip-path="url(#clip930)" d="M1240.99 1544.01 Q1240 1543.44 1238.82 1543.18 Q1237.68 1542.9 1236.28 1542.9 Q1231.31 1542.9 1228.64 1546.14 Q1226 1549.36 1226 1555.41 L1226 1574.19 L1220.11 1574.19 L1220.11 1538.54 L1226 1538.54 L1226 1544.08 Q1227.84 1540.83 1230.8 1539.27 Q1233.76 1537.68 1238 1537.68 Q1238.6 1537.68 1239.33 1537.77 Q1240.07 1537.84 1240.96 1538 L1240.99 1544.01 Z" fill="#000000" fill-rule="evenodd" fill-opacity="1" /><path clip-path="url(#clip930)" d="M1263.33 1556.27 Q1256.23 1556.27 1253.5 1557.89 Q1250.76 1559.51 1250.76 1563.43 Q1250.76 1566.55 1252.8 1568.39 Q1254.87 1570.21 1258.4 1570.21 Q1263.27 1570.21 1266.2 1566.77 Q1269.16 1563.3 1269.16 1557.57 L1269.16 1556.27 L1263.33 1556.27 M1275.01 1553.85 L1275.01 1574.19 L1269.16 1574.19 L1269.16 1568.77 Q1267.15 1572.02 1264.16 1573.58 Q1261.17 1575.11 1256.84 1575.11 Q1251.36 1575.11 1248.12 1572.05 Q1244.9 1568.97 1244.9 1563.81 Q1244.9 1557.79 1248.91 1554.74 Q1252.96 1551.68 1260.95 1551.68 L1269.16 1551.68 L1269.16 1551.11 Q1269.16 1547.07 1266.48 1544.87 Q1263.84 1542.64 1259.04 1542.64 Q1255.98 1542.64 1253.08 1543.38 Q1250.19 1544.11 1247.51 1545.57 L1247.51 1540.16 Q1250.73 1538.92 1253.75 1538.31 Q1256.78 1537.68 1259.64 1537.68 Q1267.37 1537.68 1271.19 1541.69 Q1275.01 1545.7 1275.01 1553.85 Z" fill="#000000" fill-rule="evenodd" fill-opacity="1" /><path clip-path="url(#clip930)" d="M1292.87 1528.42 L1292.87 1538.54 L1304.93 1538.54 L1304.93 1543.09 L1292.87 1543.09 L1292.87 1562.44 Q1292.87 1566.8 1294.05 1568.04 Q1295.26 1569.28 1298.92 1569.28 L1304.93 1569.28 L1304.93 1574.19 L1298.92 1574.19 Q1292.14 1574.19 1289.56 1571.67 Q1286.98 1569.12 1286.98 1562.44 L1286.98 1543.09 L1282.68 1543.09 L1282.68 1538.54 L1286.98 1538.54 L1286.98 1528.42 L1292.87 1528.42 Z" fill="#000000" fill-rule="evenodd" fill-opacity="1" /><path clip-path="url(#clip930)" d="M1312.63 1538.54 L1318.49 1538.54 L1318.49 1574.19 L1312.63 1574.19 L1312.63 1538.54 M1312.63 1524.66 L1318.49 1524.66 L1318.49 1532.08 L1312.63 1532.08 L1312.63 1524.66 Z" fill="#000000" fill-rule="evenodd" fill-opacity="1" /><path clip-path="url(#clip930)" d="M1344.56 1542.64 Q1339.85 1542.64 1337.11 1546.34 Q1334.37 1550 1334.37 1556.39 Q1334.37 1562.79 1337.08 1566.48 Q1339.82 1570.14 1344.56 1570.14 Q1349.24 1570.14 1351.97 1566.45 Q1354.71 1562.76 1354.71 1556.39 Q1354.71 1550.06 1351.97 1546.37 Q1349.24 1542.64 1344.56 1542.64 M1344.56 1537.68 Q1352.2 1537.68 1356.56 1542.64 Q1360.92 1547.61 1360.92 1556.39 Q1360.92 1565.15 1356.56 1570.14 Q1352.2 1575.11 1344.56 1575.11 Q1336.89 1575.11 1332.53 1570.14 Q1328.2 1565.15 1328.2 1556.39 Q1328.2 1547.61 1332.53 1542.64 Q1336.89 1537.68 1344.56 1537.68 Z" fill="#000000" fill-rule="evenodd" fill-opacity="1" /><path clip-path="url(#clip930)" d="M1400.26 1552.67 L1400.26 1574.19 L1394.4 1574.19 L1394.4 1552.86 Q1394.4 1547.8 1392.43 1545.29 Q1390.46 1542.77 1386.51 1542.77 Q1381.77 1542.77 1379.03 1545.79 Q1376.29 1548.82 1376.29 1554.04 L1376.29 1574.19 L1370.4 1574.19 L1370.4 1538.54 L1376.29 1538.54 L1376.29 1544.08 Q1378.39 1540.86 1381.23 1539.27 Q1384.09 1537.68 1387.81 1537.68 Q1393.96 1537.68 1397.11 1541.5 Q1400.26 1545.29 1400.26 1552.67 Z" fill="#000000" fill-rule="evenodd" fill-opacity="1" /><path clip-path="url(#clip930)" d="M1434.67 1539.59 L1434.67 1545.13 Q1432.18 1543.85 1429.51 1543.22 Q1426.84 1542.58 1423.97 1542.58 Q1419.61 1542.58 1417.41 1543.92 Q1415.25 1545.25 1415.25 1547.93 Q1415.25 1549.96 1416.81 1551.14 Q1418.37 1552.29 1423.08 1553.34 L1425.08 1553.78 Q1431.32 1555.12 1433.93 1557.57 Q1436.58 1559.99 1436.58 1564.35 Q1436.58 1569.32 1432.63 1572.21 Q1428.71 1575.11 1421.84 1575.11 Q1418.97 1575.11 1415.85 1574.54 Q1412.77 1573.99 1409.33 1572.88 L1409.33 1566.83 Q1412.58 1568.52 1415.73 1569.38 Q1418.88 1570.21 1421.97 1570.21 Q1426.1 1570.21 1428.33 1568.81 Q1430.56 1567.37 1430.56 1564.8 Q1430.56 1562.41 1428.94 1561.14 Q1427.34 1559.86 1421.9 1558.68 L1419.87 1558.21 Q1414.42 1557.06 1412 1554.71 Q1409.58 1552.32 1409.58 1548.18 Q1409.58 1543.15 1413.15 1540.42 Q1416.71 1537.68 1423.27 1537.68 Q1426.52 1537.68 1429.38 1538.16 Q1432.25 1538.63 1434.67 1539.59 Z" fill="#000000" fill-rule="evenodd" fill-opacity="1" /><polyline clip-path="url(#clip932)" style="stroke:#000000; stroke-linecap:round; stroke-linejoin:round; stroke-width:2; stroke-opacity:0.1; fill:none" points="
  219.519,1309.57 2352.76,1309.57 
  "/>
<polyline clip-path="url(#clip932)" style="stroke:#000000; stroke-linecap:round; stroke-linejoin:round; stroke-width:2; stroke-opacity:0.1; fill:none" points="
  219.519,1023.41 2352.76,1023.41 
  "/>
<polyline clip-path="url(#clip932)" style="stroke:#000000; stroke-linecap:round; stroke-linejoin:round; stroke-width:2; stroke-opacity:0.1; fill:none" points="
  219.519,737.249 2352.76,737.249 
  "/>
<polyline clip-path="url(#clip932)" style="stroke:#000000; stroke-linecap:round; stroke-linejoin:round; stroke-width:2; stroke-opacity:0.1; fill:none" points="
  219.519,451.088 2352.76,451.088 
  "/>
<polyline clip-path="url(#clip932)" style="stroke:#000000; stroke-linecap:round; stroke-linejoin:round; stroke-width:2; stroke-opacity:0.1; fill:none" points="
  219.519,164.928 2352.76,164.928 
  "/>
<polyline clip-path="url(#clip930)" style="stroke:#000000; stroke-linecap:round; stroke-linejoin:round; stroke-width:4; stroke-opacity:1; fill:none" points="
  219.519,1410.9 219.519,47.2441 
  "/>
<polyline clip-path="url(#clip930)" style="stroke:#000000; stroke-linecap:round; stroke-linejoin:round; stroke-width:4; stroke-opacity:1; fill:none" points="
  219.519,1309.57 238.417,1309.57 
  "/>
<polyline clip-path="url(#clip930)" style="stroke:#000000; stroke-linecap:round; stroke-linejoin:round; stroke-width:4; stroke-opacity:1; fill:none" points="
  219.519,1023.41 238.417,1023.41 
  "/>
<polyline clip-path="url(#clip930)" style="stroke:#000000; stroke-linecap:round; stroke-linejoin:round; stroke-width:4; stroke-opacity:1; fill:none" points="
  219.519,737.249 238.417,737.249 
  "/>
<polyline clip-path="url(#clip930)" style="stroke:#000000; stroke-linecap:round; stroke-linejoin:round; stroke-width:4; stroke-opacity:1; fill:none" points="
  219.519,451.088 238.417,451.088 
  "/>
<polyline clip-path="url(#clip930)" style="stroke:#000000; stroke-linecap:round; stroke-linejoin:round; stroke-width:4; stroke-opacity:1; fill:none" points="
  219.519,164.928 238.417,164.928 
  "/>
<path clip-path="url(#clip930)" d="M119.885 1322.92 L136.204 1322.92 L136.204 1326.85 L114.26 1326.85 L114.26 1322.92 Q116.922 1320.16 121.505 1315.53 Q126.112 1310.88 127.292 1309.54 Q129.538 1307.01 130.417 1305.28 Q131.32 1303.52 131.32 1301.83 Q131.32 1299.07 129.376 1297.34 Q127.455 1295.6 124.353 1295.6 Q122.154 1295.6 119.7 1296.36 Q117.269 1297.13 114.492 1298.68 L114.492 1293.96 Q117.316 1292.82 119.769 1292.24 Q122.223 1291.67 124.26 1291.67 Q129.63 1291.67 132.825 1294.35 Q136.019 1297.04 136.019 1301.53 Q136.019 1303.66 135.209 1305.58 Q134.422 1307.48 132.316 1310.07 Q131.737 1310.74 128.635 1313.96 Q125.533 1317.15 119.885 1322.92 Z" fill="#000000" fill-rule="evenodd" fill-opacity="1" /><path clip-path="url(#clip930)" d="M146.019 1320.97 L150.903 1320.97 L150.903 1326.85 L146.019 1326.85 L146.019 1320.97 Z" fill="#000000" fill-rule="evenodd" fill-opacity="1" /><path clip-path="url(#clip930)" d="M173.936 1296.36 L162.13 1314.81 L173.936 1314.81 L173.936 1296.36 M172.709 1292.29 L178.589 1292.29 L178.589 1314.81 L183.519 1314.81 L183.519 1318.7 L178.589 1318.7 L178.589 1326.85 L173.936 1326.85 L173.936 1318.7 L158.334 1318.7 L158.334 1314.19 L172.709 1292.29 Z" fill="#000000" fill-rule="evenodd" fill-opacity="1" /><path clip-path="url(#clip930)" d="M120.209 1036.75 L136.529 1036.75 L136.529 1040.69 L114.584 1040.69 L114.584 1036.75 Q117.246 1034 121.83 1029.37 Q126.436 1024.72 127.617 1023.37 Q129.862 1020.85 130.742 1019.12 Q131.644 1017.36 131.644 1015.67 Q131.644 1012.91 129.7 1011.18 Q127.779 1009.44 124.677 1009.44 Q122.478 1009.44 120.024 1010.2 Q117.593 1010.97 114.816 1012.52 L114.816 1007.8 Q117.64 1006.66 120.093 1006.08 Q122.547 1005.5 124.584 1005.5 Q129.955 1005.5 133.149 1008.19 Q136.343 1010.87 136.343 1015.37 Q136.343 1017.5 135.533 1019.42 Q134.746 1021.31 132.64 1023.91 Q132.061 1024.58 128.959 1027.8 Q125.857 1030.99 120.209 1036.75 Z" fill="#000000" fill-rule="evenodd" fill-opacity="1" /><path clip-path="url(#clip930)" d="M146.343 1034.81 L151.228 1034.81 L151.228 1040.69 L146.343 1040.69 L146.343 1034.81 Z" fill="#000000" fill-rule="evenodd" fill-opacity="1" /><path clip-path="url(#clip930)" d="M171.991 1021.55 Q168.843 1021.55 166.991 1023.7 Q165.163 1025.85 165.163 1029.6 Q165.163 1033.33 166.991 1035.5 Q168.843 1037.66 171.991 1037.66 Q175.139 1037.66 176.968 1035.5 Q178.82 1033.33 178.82 1029.6 Q178.82 1025.85 176.968 1023.7 Q175.139 1021.55 171.991 1021.55 M181.274 1006.89 L181.274 1011.15 Q179.514 1010.32 177.709 1009.88 Q175.926 1009.44 174.167 1009.44 Q169.538 1009.44 167.084 1012.56 Q164.653 1015.69 164.306 1022.01 Q165.672 1020 167.732 1018.93 Q169.792 1017.84 172.269 1017.84 Q177.477 1017.84 180.487 1021.01 Q183.519 1024.16 183.519 1029.6 Q183.519 1034.93 180.371 1038.14 Q177.223 1041.36 171.991 1041.36 Q165.996 1041.36 162.825 1036.78 Q159.653 1032.17 159.653 1023.44 Q159.653 1015.25 163.542 1010.39 Q167.431 1005.5 173.982 1005.5 Q175.741 1005.5 177.524 1005.85 Q179.329 1006.2 181.274 1006.89 Z" fill="#000000" fill-rule="evenodd" fill-opacity="1" /><path clip-path="url(#clip930)" d="M120.464 750.594 L136.783 750.594 L136.783 754.529 L114.839 754.529 L114.839 750.594 Q117.501 747.839 122.084 743.21 Q126.691 738.557 127.871 737.214 Q130.117 734.691 130.996 732.955 Q131.899 731.196 131.899 729.506 Q131.899 726.751 129.955 725.015 Q128.033 723.279 124.931 723.279 Q122.732 723.279 120.279 724.043 Q117.848 724.807 115.07 726.358 L115.07 721.636 Q117.894 720.501 120.348 719.923 Q122.802 719.344 124.839 719.344 Q130.209 719.344 133.404 722.029 Q136.598 724.714 136.598 729.205 Q136.598 731.335 135.788 733.256 Q135.001 735.154 132.894 737.747 Q132.316 738.418 129.214 741.636 Q126.112 744.83 120.464 750.594 Z" fill="#000000" fill-rule="evenodd" fill-opacity="1" /><path clip-path="url(#clip930)" d="M146.598 748.649 L151.482 748.649 L151.482 754.529 L146.598 754.529 L146.598 748.649 Z" fill="#000000" fill-rule="evenodd" fill-opacity="1" /><path clip-path="url(#clip930)" d="M171.667 738.117 Q168.334 738.117 166.413 739.899 Q164.515 741.682 164.515 744.807 Q164.515 747.932 166.413 749.714 Q168.334 751.497 171.667 751.497 Q175.001 751.497 176.922 749.714 Q178.843 747.909 178.843 744.807 Q178.843 741.682 176.922 739.899 Q175.024 738.117 171.667 738.117 M166.991 736.126 Q163.982 735.386 162.292 733.325 Q160.626 731.265 160.626 728.302 Q160.626 724.159 163.565 721.751 Q166.528 719.344 171.667 719.344 Q176.829 719.344 179.769 721.751 Q182.709 724.159 182.709 728.302 Q182.709 731.265 181.019 733.325 Q179.352 735.386 176.366 736.126 Q179.746 736.913 181.621 739.205 Q183.519 741.497 183.519 744.807 Q183.519 749.83 180.44 752.515 Q177.385 755.2 171.667 755.2 Q165.95 755.2 162.871 752.515 Q159.815 749.83 159.815 744.807 Q159.815 741.497 161.714 739.205 Q163.612 736.913 166.991 736.126 M165.278 728.742 Q165.278 731.427 166.945 732.932 Q168.635 734.436 171.667 734.436 Q174.677 734.436 176.366 732.932 Q178.079 731.427 178.079 728.742 Q178.079 726.057 176.366 724.552 Q174.677 723.048 171.667 723.048 Q168.635 723.048 166.945 724.552 Q165.278 726.057 165.278 728.742 Z" fill="#000000" fill-rule="evenodd" fill-opacity="1" /><path clip-path="url(#clip930)" d="M130.51 449.734 Q133.867 450.452 135.742 452.72 Q137.64 454.989 137.64 458.322 Q137.64 463.438 134.121 466.239 Q130.603 469.04 124.121 469.04 Q121.945 469.04 119.63 468.6 Q117.339 468.183 114.885 467.327 L114.885 462.813 Q116.83 463.947 119.144 464.526 Q121.459 465.104 123.982 465.104 Q128.38 465.104 130.672 463.368 Q132.987 461.632 132.987 458.322 Q132.987 455.267 130.834 453.554 Q128.705 451.817 124.885 451.817 L120.857 451.817 L120.857 447.975 L125.07 447.975 Q128.519 447.975 130.348 446.609 Q132.177 445.22 132.177 442.628 Q132.177 439.966 130.279 438.554 Q128.404 437.118 124.885 437.118 Q122.964 437.118 120.765 437.535 Q118.566 437.952 115.927 438.831 L115.927 434.665 Q118.589 433.924 120.904 433.554 Q123.242 433.183 125.302 433.183 Q130.626 433.183 133.728 435.614 Q136.829 438.021 136.829 442.142 Q136.829 445.012 135.186 447.003 Q133.542 448.97 130.51 449.734 Z" fill="#000000" fill-rule="evenodd" fill-opacity="1" /><path clip-path="url(#clip930)" d="M146.505 462.489 L151.39 462.489 L151.39 468.368 L146.505 468.368 L146.505 462.489 Z" fill="#000000" fill-rule="evenodd" fill-opacity="1" /><path clip-path="url(#clip930)" d="M171.575 436.887 Q167.964 436.887 166.135 440.452 Q164.329 443.993 164.329 451.123 Q164.329 458.229 166.135 461.794 Q167.964 465.336 171.575 465.336 Q175.209 465.336 177.014 461.794 Q178.843 458.229 178.843 451.123 Q178.843 443.993 177.014 440.452 Q175.209 436.887 171.575 436.887 M171.575 433.183 Q177.385 433.183 180.44 437.79 Q183.519 442.373 183.519 451.123 Q183.519 459.85 180.44 464.456 Q177.385 469.04 171.575 469.04 Q165.765 469.04 162.686 464.456 Q159.63 459.85 159.63 451.123 Q159.63 442.373 162.686 437.79 Q165.765 433.183 171.575 433.183 Z" fill="#000000" fill-rule="evenodd" fill-opacity="1" /><path clip-path="url(#clip930)" d="M132.107 163.574 Q135.464 164.291 137.339 166.56 Q139.237 168.828 139.237 172.161 Q139.237 177.277 135.718 180.078 Q132.2 182.879 125.718 182.879 Q123.543 182.879 121.228 182.439 Q118.936 182.022 116.482 181.166 L116.482 176.652 Q118.427 177.786 120.742 178.365 Q123.056 178.944 125.58 178.944 Q129.978 178.944 132.269 177.208 Q134.584 175.472 134.584 172.161 Q134.584 169.106 132.431 167.393 Q130.302 165.657 126.482 165.657 L122.455 165.657 L122.455 161.814 L126.667 161.814 Q130.117 161.814 131.945 160.449 Q133.774 159.06 133.774 156.467 Q133.774 153.805 131.876 152.393 Q130.001 150.958 126.482 150.958 Q124.561 150.958 122.362 151.374 Q120.163 151.791 117.524 152.671 L117.524 148.504 Q120.186 147.763 122.501 147.393 Q124.839 147.023 126.899 147.023 Q132.223 147.023 135.325 149.453 Q138.427 151.861 138.427 155.981 Q138.427 158.851 136.783 160.842 Q135.14 162.81 132.107 163.574 Z" fill="#000000" fill-rule="evenodd" fill-opacity="1" /><path clip-path="url(#clip930)" d="M148.103 176.328 L152.987 176.328 L152.987 182.208 L148.103 182.208 L148.103 176.328 Z" fill="#000000" fill-rule="evenodd" fill-opacity="1" /><path clip-path="url(#clip930)" d="M167.2 178.272 L183.519 178.272 L183.519 182.208 L161.575 182.208 L161.575 178.272 Q164.237 175.518 168.82 170.888 Q173.427 166.236 174.607 164.893 Q176.852 162.37 177.732 160.634 Q178.635 158.874 178.635 157.185 Q178.635 154.43 176.69 152.694 Q174.769 150.958 171.667 150.958 Q169.468 150.958 167.015 151.722 Q164.584 152.486 161.806 154.037 L161.806 149.314 Q164.63 148.18 167.084 147.601 Q169.538 147.023 171.575 147.023 Q176.945 147.023 180.139 149.708 Q183.334 152.393 183.334 156.884 Q183.334 159.013 182.524 160.935 Q181.737 162.833 179.63 165.425 Q179.051 166.097 175.95 169.314 Q172.848 172.509 167.2 178.272 Z" fill="#000000" fill-rule="evenodd" fill-opacity="1" /><path clip-path="url(#clip930)" d="M22.818 1126.31 L46.4666 1135.03 L46.4666 1117.55 L22.818 1126.31 M16.4842 1129.93 L16.4842 1122.65 L64.0042 1104.54 L64.0042 1111.22 L51.8138 1115.55 L51.8138 1136.97 L64.0042 1141.3 L64.0042 1148.08 L16.4842 1129.93 Z" fill="#000000" fill-rule="evenodd" fill-opacity="1" /><path clip-path="url(#clip930)" d="M28.3562 1105.87 L28.3562 1099.67 L58.275 1088.53 L28.3562 1077.39 L28.3562 1071.18 L64.0042 1084.55 L64.0042 1092.5 L28.3562 1105.87 Z" fill="#000000" fill-rule="evenodd" fill-opacity="1" /><path clip-path="url(#clip930)" d="M44.7161 1032.6 L47.5806 1032.6 L47.5806 1059.53 Q53.6281 1059.15 56.8109 1055.9 Q59.9619 1052.62 59.9619 1046.8 Q59.9619 1043.42 59.1344 1040.27 Q58.3069 1037.09 56.6518 1033.97 L62.1899 1033.97 Q63.5267 1037.12 64.227 1040.43 Q64.9272 1043.74 64.9272 1047.15 Q64.9272 1055.68 59.9619 1060.68 Q54.9967 1065.64 46.5303 1065.64 Q37.7774 1065.64 32.6531 1060.93 Q27.4968 1056.19 27.4968 1048.17 Q27.4968 1040.97 32.1438 1036.8 Q36.7589 1032.6 44.7161 1032.6 M42.9973 1038.46 Q38.1912 1038.52 35.3266 1041.17 Q32.4621 1043.77 32.4621 1048.1 Q32.4621 1053.01 35.2312 1055.97 Q38.0002 1058.89 43.0292 1059.34 L42.9973 1038.46 Z" fill="#000000" fill-rule="evenodd" fill-opacity="1" /><path clip-path="url(#clip930)" d="M33.8307 1002.33 Q33.2578 1003.32 33.0032 1004.5 Q32.7167 1005.64 32.7167 1007.04 Q32.7167 1012.01 35.9632 1014.68 Q39.1779 1017.33 45.2253 1017.33 L64.0042 1017.33 L64.0042 1023.21 L28.3562 1023.21 L28.3562 1017.33 L33.8944 1017.33 Q30.6479 1015.48 29.0883 1012.52 Q27.4968 1009.56 27.4968 1005.33 Q27.4968 1004.72 27.5923 1003.99 Q27.656 1003.26 27.8151 1002.37 L33.8307 1002.33 Z" fill="#000000" fill-rule="evenodd" fill-opacity="1" /><path clip-path="url(#clip930)" d="M46.0847 979.991 Q46.0847 987.088 47.7079 989.826 Q49.3312 992.563 53.2461 992.563 Q56.3653 992.563 58.2114 990.526 Q60.0256 988.457 60.0256 984.924 Q60.0256 980.054 56.5881 977.126 Q53.1188 974.166 47.3897 974.166 L46.0847 974.166 L46.0847 979.991 M43.6657 968.31 L64.0042 968.31 L64.0042 974.166 L58.5933 974.166 Q61.8398 976.171 63.3994 979.163 Q64.9272 982.155 64.9272 986.484 Q64.9272 991.958 61.8716 995.205 Q58.7843 998.419 53.6281 998.419 Q47.6125 998.419 44.5569 994.409 Q41.5014 990.367 41.5014 982.378 L41.5014 974.166 L40.9285 974.166 Q36.8862 974.166 34.6901 976.84 Q32.4621 979.481 32.4621 984.287 Q32.4621 987.343 33.1941 990.239 Q33.9262 993.136 35.3903 995.809 L29.9795 995.809 Q28.7381 992.595 28.1334 989.571 Q27.4968 986.547 27.4968 983.683 Q27.4968 975.948 31.5072 972.129 Q35.5176 968.31 43.6657 968.31 Z" fill="#000000" fill-rule="evenodd" fill-opacity="1" /><path clip-path="url(#clip930)" d="M45.7664 932.789 Q39.4007 932.789 35.8996 935.431 Q32.3984 938.041 32.3984 942.783 Q32.3984 947.494 35.8996 950.135 Q39.4007 952.745 45.7664 952.745 Q52.1003 952.745 55.6014 950.135 Q59.1026 947.494 59.1026 942.783 Q59.1026 938.041 55.6014 935.431 Q52.1003 932.789 45.7664 932.789 M59.58 926.932 Q68.683 926.932 73.1071 930.975 Q77.5631 935.017 77.5631 943.356 Q77.5631 946.443 77.0857 949.181 Q76.6401 951.918 75.6852 954.496 L69.9879 954.496 Q71.3884 951.918 72.0568 949.403 Q72.7252 946.889 72.7252 944.279 Q72.7252 938.518 69.7015 935.653 Q66.7096 932.789 60.6303 932.789 L57.7339 932.789 Q60.885 934.603 62.4446 937.436 Q64.0042 940.269 64.0042 944.215 Q64.0042 950.772 59.0071 954.782 Q54.01 958.793 45.7664 958.793 Q37.491 958.793 32.4939 954.782 Q27.4968 950.772 27.4968 944.215 Q27.4968 940.269 29.0564 937.436 Q30.616 934.603 33.7671 932.789 L28.3562 932.789 L28.3562 926.932 L59.58 926.932 Z" fill="#000000" fill-rule="evenodd" fill-opacity="1" /><path clip-path="url(#clip930)" d="M44.7161 884.378 L47.5806 884.378 L47.5806 911.305 Q53.6281 910.923 56.8109 907.676 Q59.9619 904.398 59.9619 898.573 Q59.9619 895.199 59.1344 892.048 Q58.3069 888.866 56.6518 885.746 L62.1899 885.746 Q63.5267 888.897 64.227 892.208 Q64.9272 895.518 64.9272 898.923 Q64.9272 907.453 59.9619 912.45 Q54.9967 917.416 46.5303 917.416 Q37.7774 917.416 32.6531 912.705 Q27.4968 907.963 27.4968 899.942 Q27.4968 892.749 32.1438 888.579 Q36.7589 884.378 44.7161 884.378 M42.9973 890.234 Q38.1912 890.298 35.3266 892.94 Q32.4621 895.55 32.4621 899.878 Q32.4621 904.78 35.2312 907.74 Q38.0002 910.668 43.0292 911.114 L42.9973 890.234 Z" fill="#000000" fill-rule="evenodd" fill-opacity="1" /><path clip-path="url(#clip930)" d="M20.1444 818.206 L26.9239 818.206 Q23.9002 821.453 22.4043 825.145 Q20.9083 828.805 20.9083 832.943 Q20.9083 841.091 25.9054 845.42 Q30.8707 849.748 40.2919 849.748 Q49.6813 849.748 54.6784 845.42 Q59.6436 841.091 59.6436 832.943 Q59.6436 828.805 58.1477 825.145 Q56.6518 821.453 53.6281 818.206 L60.3439 818.206 Q62.6355 821.58 63.7814 825.368 Q64.9272 829.123 64.9272 833.325 Q64.9272 844.115 58.3387 850.321 Q51.7183 856.528 40.2919 856.528 Q28.8336 856.528 22.2451 850.321 Q15.6248 844.115 15.6248 833.325 Q15.6248 829.06 16.7706 825.304 Q17.8846 821.516 20.1444 818.206 Z" fill="#000000" fill-rule="evenodd" fill-opacity="1" /><path clip-path="url(#clip930)" d="M32.4621 794.717 Q32.4621 799.427 36.1542 802.165 Q39.8145 804.902 46.212 804.902 Q52.6095 804.902 56.3017 802.196 Q59.9619 799.459 59.9619 794.717 Q59.9619 790.038 56.2698 787.301 Q52.5777 784.563 46.212 784.563 Q39.8781 784.563 36.186 787.301 Q32.4621 790.038 32.4621 794.717 M27.4968 794.717 Q27.4968 787.078 32.4621 782.717 Q37.4273 778.357 46.212 778.357 Q54.9649 778.357 59.9619 782.717 Q64.9272 787.078 64.9272 794.717 Q64.9272 802.387 59.9619 806.748 Q54.9649 811.077 46.212 811.077 Q37.4273 811.077 32.4621 806.748 Q27.4968 802.387 27.4968 794.717 Z" fill="#000000" fill-rule="evenodd" fill-opacity="1" /><path clip-path="url(#clip930)" d="M35.1993 740.895 Q31.2526 738.698 29.3747 735.643 Q27.4968 732.587 27.4968 728.45 Q27.4968 722.88 31.4117 719.856 Q35.2948 716.832 42.4881 716.832 L64.0042 716.832 L64.0042 722.721 L42.679 722.721 Q37.5546 722.721 35.072 724.535 Q32.5894 726.349 32.5894 730.073 Q32.5894 734.624 35.6131 737.266 Q38.6368 739.908 43.8567 739.908 L64.0042 739.908 L64.0042 745.796 L42.679 745.796 Q37.5228 745.796 35.072 747.61 Q32.5894 749.425 32.5894 753.212 Q32.5894 757.7 35.6449 760.342 Q38.6686 762.984 43.8567 762.984 L64.0042 762.984 L64.0042 768.872 L28.3562 768.872 L28.3562 762.984 L33.8944 762.984 Q30.616 760.978 29.0564 758.178 Q27.4968 755.377 27.4968 751.525 Q27.4968 747.642 29.4702 744.937 Q31.4436 742.2 35.1993 740.895 Z" fill="#000000" fill-rule="evenodd" fill-opacity="1" /><path clip-path="url(#clip930)" d="M58.657 699.486 L77.5631 699.486 L77.5631 705.374 L28.3562 705.374 L28.3562 699.486 L33.7671 699.486 Q30.5842 697.64 29.0564 694.839 Q27.4968 692.006 27.4968 688.091 Q27.4968 681.598 32.6531 677.556 Q37.8093 673.482 46.212 673.482 Q54.6147 673.482 59.771 677.556 Q64.9272 681.598 64.9272 688.091 Q64.9272 692.006 63.3994 694.839 Q61.8398 697.64 58.657 699.486 M46.212 679.561 Q39.7508 679.561 36.0905 682.235 Q32.3984 684.876 32.3984 689.523 Q32.3984 694.17 36.0905 696.844 Q39.7508 699.486 46.212 699.486 Q52.6732 699.486 56.3653 696.844 Q60.0256 694.17 60.0256 689.523 Q60.0256 684.876 56.3653 682.235 Q52.6732 679.561 46.212 679.561 Z" fill="#000000" fill-rule="evenodd" fill-opacity="1" /><path clip-path="url(#clip930)" d="M14.479 663.774 L14.479 657.918 L64.0042 657.918 L64.0042 663.774 L14.479 663.774 Z" fill="#000000" fill-rule="evenodd" fill-opacity="1" /><path clip-path="url(#clip930)" d="M44.7161 615.172 L47.5806 615.172 L47.5806 642.099 Q53.6281 641.717 56.8109 638.47 Q59.9619 635.192 59.9619 629.367 Q59.9619 625.994 59.1344 622.843 Q58.3069 619.66 56.6518 616.541 L62.1899 616.541 Q63.5267 619.692 64.227 623.002 Q64.9272 626.312 64.9272 629.718 Q64.9272 638.248 59.9619 643.245 Q54.9967 648.21 46.5303 648.21 Q37.7774 648.21 32.6531 643.499 Q27.4968 638.757 27.4968 630.736 Q27.4968 623.543 32.1438 619.373 Q36.7589 615.172 44.7161 615.172 M42.9973 621.028 Q38.1912 621.092 35.3266 623.734 Q32.4621 626.344 32.4621 630.672 Q32.4621 635.574 35.2312 638.534 Q38.0002 641.462 43.0292 641.908 L42.9973 621.028 Z" fill="#000000" fill-rule="evenodd" fill-opacity="1" /><path clip-path="url(#clip930)" d="M18.2347 599.767 L28.3562 599.767 L28.3562 587.704 L32.9077 587.704 L32.9077 599.767 L52.2594 599.767 Q56.6199 599.767 57.8613 598.589 Q59.1026 597.38 59.1026 593.72 L59.1026 587.704 L64.0042 587.704 L64.0042 593.72 Q64.0042 600.499 61.4897 603.077 Q58.9434 605.655 52.2594 605.655 L32.9077 605.655 L32.9077 609.952 L28.3562 609.952 L28.3562 605.655 L18.2347 605.655 L18.2347 599.767 Z" fill="#000000" fill-rule="evenodd" fill-opacity="1" /><path clip-path="url(#clip930)" d="M28.3562 580.001 L28.3562 574.145 L64.0042 574.145 L64.0042 580.001 L28.3562 580.001 M14.479 580.001 L14.479 574.145 L21.895 574.145 L21.895 580.001 L14.479 580.001 Z" fill="#000000" fill-rule="evenodd" fill-opacity="1" /><path clip-path="url(#clip930)" d="M32.4621 548.077 Q32.4621 552.788 36.1542 555.525 Q39.8145 558.263 46.212 558.263 Q52.6095 558.263 56.3017 555.557 Q59.9619 552.82 59.9619 548.077 Q59.9619 543.399 56.2698 540.661 Q52.5777 537.924 46.212 537.924 Q39.8781 537.924 36.186 540.661 Q32.4621 543.399 32.4621 548.077 M27.4968 548.077 Q27.4968 540.439 32.4621 536.078 Q37.4273 531.718 46.212 531.718 Q54.9649 531.718 59.9619 536.078 Q64.9272 540.439 64.9272 548.077 Q64.9272 555.748 59.9619 560.109 Q54.9649 564.437 46.212 564.437 Q37.4273 564.437 32.4621 560.109 Q27.4968 555.748 27.4968 548.077 Z" fill="#000000" fill-rule="evenodd" fill-opacity="1" /><path clip-path="url(#clip930)" d="M42.4881 492.377 L64.0042 492.377 L64.0042 498.234 L42.679 498.234 Q37.6183 498.234 35.1038 500.207 Q32.5894 502.181 32.5894 506.127 Q32.5894 510.87 35.6131 513.607 Q38.6368 516.344 43.8567 516.344 L64.0042 516.344 L64.0042 522.233 L28.3562 522.233 L28.3562 516.344 L33.8944 516.344 Q30.6797 514.244 29.0883 511.411 Q27.4968 508.546 27.4968 504.822 Q27.4968 498.68 31.3163 495.529 Q35.1038 492.377 42.4881 492.377 Z" fill="#000000" fill-rule="evenodd" fill-opacity="1" /><path clip-path="url(#clip930)" d="M16.4842 466.31 L16.4842 426.11 L21.895 426.11 L21.895 442.98 L64.0042 442.98 L64.0042 449.441 L21.895 449.441 L21.895 466.31 L16.4842 466.31 Z" fill="#000000" fill-rule="evenodd" fill-opacity="1" /><path clip-path="url(#clip930)" d="M28.3562 422.164 L28.3562 416.307 L64.0042 416.307 L64.0042 422.164 L28.3562 422.164 M14.479 422.164 L14.479 416.307 L21.895 416.307 L21.895 422.164 L14.479 422.164 Z" fill="#000000" fill-rule="evenodd" fill-opacity="1" /><path clip-path="url(#clip930)" d="M35.1993 376.299 Q31.2526 374.103 29.3747 371.047 Q27.4968 367.992 27.4968 363.854 Q27.4968 358.284 31.4117 355.26 Q35.2948 352.236 42.4881 352.236 L64.0042 352.236 L64.0042 358.125 L42.679 358.125 Q37.5546 358.125 35.072 359.939 Q32.5894 361.753 32.5894 365.477 Q32.5894 370.029 35.6131 372.67 Q38.6368 375.312 43.8567 375.312 L64.0042 375.312 L64.0042 381.2 L42.679 381.2 Q37.5228 381.2 35.072 383.015 Q32.5894 384.829 32.5894 388.616 Q32.5894 393.104 35.6449 395.746 Q38.6686 398.388 43.8567 398.388 L64.0042 398.388 L64.0042 404.276 L28.3562 404.276 L28.3562 398.388 L33.8944 398.388 Q30.616 396.383 29.0564 393.582 Q27.4968 390.781 27.4968 386.93 Q27.4968 383.046 29.4702 380.341 Q31.4436 377.604 35.1993 376.299 Z" fill="#000000" fill-rule="evenodd" fill-opacity="1" /><path clip-path="url(#clip930)" d="M44.7161 310.064 L47.5806 310.064 L47.5806 336.991 Q53.6281 336.609 56.8109 333.362 Q59.9619 330.084 59.9619 324.259 Q59.9619 320.885 59.1344 317.734 Q58.3069 314.551 56.6518 311.432 L62.1899 311.432 Q63.5267 314.583 64.227 317.893 Q64.9272 321.204 64.9272 324.609 Q64.9272 333.139 59.9619 338.136 Q54.9967 343.102 46.5303 343.102 Q37.7774 343.102 32.6531 338.391 Q27.4968 333.649 27.4968 325.628 Q27.4968 318.435 32.1438 314.265 Q36.7589 310.064 44.7161 310.064 M42.9973 315.92 Q38.1912 315.984 35.3266 318.626 Q32.4621 321.235 32.4621 325.564 Q32.4621 330.466 35.2312 333.426 Q38.0002 336.354 43.0292 336.8 L42.9973 315.92 Z" fill="#000000" fill-rule="evenodd" fill-opacity="1" /><polyline clip-path="url(#clip932)" style="stroke:#009af9; stroke-linecap:round; stroke-linejoin:round; stroke-width:4; stroke-opacity:1; fill:none" points="
  279.894,123.613 284.938,85.838 289.981,301.357 295.025,391.173 300.069,377.938 305.113,364.09 310.157,464.046 315.2,577.991 320.244,534.976 325.288,506.092 
  330.332,519.213 335.376,548.383 340.42,649.172 345.463,491.194 350.507,723.519 355.551,807.531 360.595,675.235 365.639,661.416 370.683,794.05 375.726,833.292 
  380.77,701.658 385.814,783.316 390.858,774.826 395.902,808.059 400.946,819.215 405.989,747.443 411.033,830.43 416.077,740.647 421.121,824.326 426.165,809.683 
  431.209,820.287 436.252,856.184 441.296,748.338 446.34,784.108 451.384,774.098 456.428,811.845 461.472,760.976 466.515,916.099 471.559,816.698 476.603,606.273 
  481.647,693.39 486.691,529.425 491.734,629.579 496.778,845.458 501.822,886.866 506.866,690.927 511.91,876.752 516.954,817.461 521.997,976.136 527.041,1033.6 
  532.085,993.184 537.129,1018.94 542.173,910.138 547.217,865.664 552.26,791.977 557.304,779.637 562.348,1043.18 567.392,974.762 572.436,1012.27 577.48,1031.82 
  582.523,809.328 587.567,929.107 592.611,963.733 597.655,959.202 602.699,889.451 607.743,814.541 612.786,812.764 617.83,961.349 622.874,829.745 627.918,1113.02 
  632.962,850.979 638.006,809.15 643.049,1032.17 648.093,952.227 653.137,781.871 658.181,1030.82 663.225,1169.91 668.268,1104.61 673.312,1145.28 678.356,1185.27 
  683.4,1181.33 688.444,1102.68 693.488,1181.77 698.531,1117.6 703.575,1080.79 708.619,1029.91 713.663,972.127 718.707,964.991 723.751,979.935 728.794,973.619 
  733.838,959.419 738.882,1129.82 743.926,911.742 748.97,1004.53 754.014,916.099 759.057,667.696 764.101,1086.68 769.145,1001.48 774.189,968.227 779.233,1074.92 
  784.277,1116.52 789.32,1037.46 794.364,1118.01 799.408,1286.58 804.452,1125.89 809.496,1230 814.54,920.749 819.583,1083.81 824.627,1170.26 829.671,912.522 
  834.715,1108.57 839.759,1331.79 844.802,1222.85 849.846,1087.06 854.89,1059 859.934,1241.27 864.978,1202.26 870.022,1031.46 875.065,1115.73 880.109,1210.79 
  885.153,1208.37 890.197,1245.47 895.241,1123.53 900.285,1158.58 905.328,1083.63 910.372,1078.67 915.416,1143.91 920.46,1179.37 925.504,1152.47 930.548,949.132 
  935.591,1117.83 940.635,1080.82 945.679,1038.25 950.723,1214.48 955.767,1230.77 960.811,1132.88 965.854,1120.55 970.898,1130.18 975.942,1032.62 980.986,774.826 
  986.03,1026.5 991.074,1060.62 996.117,1062.58 1001.16,1132.91 1006.2,926.268 1011.25,1125.06 1016.29,1209.16 1021.34,1006.89 1026.38,1220.32 1031.42,1111.49 
  1036.47,1233.15 1041.51,1201.72 1046.56,1060.63 1051.6,1146.15 1056.64,1199.74 1061.69,1151.06 1066.73,1222.03 1071.77,1110.2 1076.82,1150.04 1081.86,1238.93 
  1086.91,1059.72 1091.95,1153.71 1096.99,1160.92 1102.04,1258.06 1107.08,1319.59 1112.13,1276.68 1117.17,1345.52 1122.21,1363.85 1127.26,1228.59 1132.3,1261.7 
  1137.34,1164.5 1142.39,1104.48 1147.43,1198.77 1152.48,1156.55 1157.52,1158.04 1162.56,990.182 1167.61,1051.99 1172.65,1126.07 1177.7,1096.93 1182.74,1078.79 
  1187.78,1261.58 1192.83,1211.16 1197.87,1120.55 1202.91,1143.24 1207.96,1222.49 1213,1157.14 1218.05,1176.74 1223.09,1225.63 1228.13,1232.1 1233.18,1189.48 
  1238.22,1228.32 1243.26,1157.36 1248.31,1065.14 1253.35,1194.41 1258.4,1052.38 1263.44,910.107 1268.48,921.492 1273.53,1095.86 1278.57,1008.96 1283.62,1087.04 
  1288.66,974.158 1293.7,1202.98 1298.75,1162.11 1303.79,1308.31 1308.83,1296.99 1313.88,1198.84 1318.92,1130.35 1323.97,1210.53 1329.01,988.547 1334.05,1084.06 
  1339.1,1114.74 1344.14,1085.11 1349.19,1162.5 1354.23,934.973 1359.27,969.754 1364.32,1022.87 1369.36,955.285 1374.4,921.312 1379.45,1201.17 1384.49,1112.02 
  1389.54,1167.4 1394.58,1353.83 1399.62,1194.67 1404.67,1072.91 1409.71,1104.34 1414.76,1070.86 1419.8,1014.38 1424.84,1100.32 1429.89,1090.59 1434.93,1114.74 
  1439.97,1132.72 1445.02,1225.93 1450.06,1074.33 1455.11,884.915 1460.15,1000.65 1465.19,1125 1470.24,1199.56 1475.28,1132.35 1480.32,1050.55 1485.37,1256.54 
  1490.41,1109.26 1495.46,1176.06 1500.5,1056.48 1505.54,1220.15 1510.59,1258.13 1515.63,1359 1520.68,1364.52 1525.72,1273.62 1530.76,1288.36 1535.81,1116.77 
  1540.85,1097.48 1545.89,1141.27 1550.94,1280.19 1555.98,1124.22 1561.03,1021.25 1566.07,1106.63 1571.11,1248.92 1576.16,1175.16 1581.2,1201.89 1586.25,1372.3 
  1591.29,1148.97 1596.33,1190.64 1601.38,1115.36 1606.42,1123.24 1611.46,1221.13 1616.51,1092.57 1621.55,1299.45 1626.6,1344.61 1631.64,1206.62 1636.68,1191.6 
  1641.73,1115.57 1646.77,1099.17 1651.82,1125 1656.86,1146.7 1661.9,1358.96 1666.95,1117.66 1671.99,1174.4 1677.03,1273.8 1682.08,1271.1 1687.12,1111.56 
  1692.17,1101.39 1697.21,1089.68 1702.25,1169.71 1707.3,1147.16 1712.34,1228.27 1717.38,1224.97 1722.43,1225.09 1727.47,1313 1732.52,945.333 1737.56,1208.62 
  1742.6,1096.22 1747.65,1330.53 1752.69,1214.42 1757.74,1298.68 1762.78,1285.72 1767.82,926.652 1772.87,1029.52 1777.91,1220.24 1782.95,995.769 1788,1145.46 
  1793.04,1242.52 1798.09,1171.7 1803.13,1010.4 1808.17,1119.16 1813.22,1188.96 1818.26,1230.26 1823.31,1361.52 1828.35,1134.85 1833.39,1239.86 1838.44,1161.41 
  1843.48,1189.68 1848.52,1147.16 1853.57,1289.21 1858.61,1057.35 1863.66,1108.79 1868.7,1092.95 1873.74,1088.84 1878.79,1084.18 1883.83,1196.66 1888.87,1140.66 
  1893.92,1284.69 1898.96,1106.81 1904.01,1240.39 1909.05,1182.03 1914.09,1176.51 1919.14,1096.57 1924.18,1099.85 1929.23,1012.77 1934.27,1134.17 1939.31,1090.46 
  1944.36,1050.51 1949.4,1188.71 1954.44,1146.72 1959.49,1117.89 1964.53,1218.71 1969.58,1157.96 1974.62,1330.27 1979.66,1109.76 1984.71,1276.51 1989.75,855.09 
  1994.8,1187.27 1999.84,1099.85 2004.88,1073.3 2009.93,925.954 2014.97,1128.51 2020.01,1058.81 2025.06,1029.13 2030.1,1084.7 2035.15,1146.64 2040.19,1266.43 
  2045.23,1083.32 2050.28,1112.29 2055.32,1085.01 2060.37,811.527 2065.41,1104.3 2070.45,969.207 2075.5,974.226 2080.54,1139.75 2085.58,1063.13 2090.63,1048.16 
  2095.67,886.352 2100.72,932.976 2105.76,1080.75 2110.8,1078.97 2115.85,1098.02 2120.89,1042.82 2125.93,851.822 2130.98,872.6 2136.02,1111.56 2141.07,1039.59 
  2146.11,1084.42 2151.15,1297.28 2156.2,1138.85 2161.24,1121.15 2166.29,1238.57 2171.33,863.174 2176.37,933.627 2181.42,736.523 2186.46,794.229 2191.5,640.833 
  2196.55,704.369 2201.59,914.465 2206.64,961.311 2211.68,611.065 2216.72,797.588 2221.77,874.757 2226.81,858.429 2231.86,814.209 2236.9,1102.36 2241.94,1050.83 
  2246.99,1090.64 2252.03,1047.32 2257.07,1105.61 2262.12,1125.45 2267.16,984.764 2272.21,1010.11 2277.25,1157.55 2282.29,1254.93 2287.34,1143.3 2292.38,1232.07 
  
  "/>
</svg>
