<?xml version="1.0" encoding="utf-8"?>
<svg xmlns="http://www.w3.org/2000/svg" xmlns:xlink="http://www.w3.org/1999/xlink" width="600" height="400" viewBox="0 0 2400 1600">
<defs>
  <clipPath id="clip690">
    <rect x="0" y="0" width="2400" height="1600"/>
  </clipPath>
</defs>
<path clip-path="url(#clip690)" d="
M0 1600 L2400 1600 L2400 0 L0 0  Z
  " fill="#ffffff" fill-rule="evenodd" fill-opacity="1"/>
<defs>
  <clipPath id="clip691">
    <rect x="480" y="0" width="1681" height="1600"/>
  </clipPath>
</defs>
<path clip-path="url(#clip690)" d="
M204.218 1410.9 L2352.76 1410.9 L2352.76 47.2441 L204.218 47.2441  Z
  " fill="#ffffff" fill-rule="evenodd" fill-opacity="1"/>
<defs>
  <clipPath id="clip692">
    <rect x="204" y="47" width="2150" height="1365"/>
  </clipPath>
</defs>
<polyline clip-path="url(#clip692)" style="stroke:#000000; stroke-linecap:round; stroke-linejoin:round; stroke-width:2; stroke-opacity:0.1; fill:none" points="
  259.946,1410.9 259.946,47.2441 
  "/>
<polyline clip-path="url(#clip692)" style="stroke:#000000; stroke-linecap:round; stroke-linejoin:round; stroke-width:2; stroke-opacity:0.1; fill:none" points="
  767.946,1410.9 767.946,47.2441 
  "/>
<polyline clip-path="url(#clip692)" style="stroke:#000000; stroke-linecap:round; stroke-linejoin:round; stroke-width:2; stroke-opacity:0.1; fill:none" points="
  1275.95,1410.9 1275.95,47.2441 
  "/>
<polyline clip-path="url(#clip692)" style="stroke:#000000; stroke-linecap:round; stroke-linejoin:round; stroke-width:2; stroke-opacity:0.1; fill:none" points="
  1783.95,1410.9 1783.95,47.2441 
  "/>
<polyline clip-path="url(#clip692)" style="stroke:#000000; stroke-linecap:round; stroke-linejoin:round; stroke-width:2; stroke-opacity:0.1; fill:none" points="
  2291.95,1410.9 2291.95,47.2441 
  "/>
<polyline clip-path="url(#clip690)" style="stroke:#000000; stroke-linecap:round; stroke-linejoin:round; stroke-width:4; stroke-opacity:1; fill:none" points="
  204.218,1410.9 2352.76,1410.9 
  "/>
<polyline clip-path="url(#clip690)" style="stroke:#000000; stroke-linecap:round; stroke-linejoin:round; stroke-width:4; stroke-opacity:1; fill:none" points="
  259.946,1410.9 259.946,1392 
  "/>
<polyline clip-path="url(#clip690)" style="stroke:#000000; stroke-linecap:round; stroke-linejoin:round; stroke-width:4; stroke-opacity:1; fill:none" points="
  767.946,1410.9 767.946,1392 
  "/>
<polyline clip-path="url(#clip690)" style="stroke:#000000; stroke-linecap:round; stroke-linejoin:round; stroke-width:4; stroke-opacity:1; fill:none" points="
  1275.95,1410.9 1275.95,1392 
  "/>
<polyline clip-path="url(#clip690)" style="stroke:#000000; stroke-linecap:round; stroke-linejoin:round; stroke-width:4; stroke-opacity:1; fill:none" points="
  1783.95,1410.9 1783.95,1392 
  "/>
<polyline clip-path="url(#clip690)" style="stroke:#000000; stroke-linecap:round; stroke-linejoin:round; stroke-width:4; stroke-opacity:1; fill:none" points="
  2291.95,1410.9 2291.95,1392 
  "/>
<path clip-path="url(#clip690)" d="M259.946 1441.82 Q256.335 1441.82 254.506 1445.38 Q252.701 1448.92 252.701 1456.05 Q252.701 1463.16 254.506 1466.72 Q256.335 1470.26 259.946 1470.26 Q263.58 1470.26 265.386 1466.72 Q267.214 1463.16 267.214 1456.05 Q267.214 1448.92 265.386 1445.38 Q263.58 1441.82 259.946 1441.82 M259.946 1438.11 Q265.756 1438.11 268.812 1442.72 Q271.89 1447.3 271.89 1456.05 Q271.89 1464.78 268.812 1469.38 Q265.756 1473.97 259.946 1473.97 Q254.136 1473.97 251.057 1469.38 Q248.001 1464.78 248.001 1456.05 Q248.001 1447.3 251.057 1442.72 Q254.136 1438.11 259.946 1438.11 Z" fill="#000000" fill-rule="evenodd" fill-opacity="1" /><path clip-path="url(#clip690)" d="M676.049 1485.02 L683.688 1485.02 L683.688 1458.66 L675.378 1460.32 L675.378 1456.06 L683.641 1454.4 L688.317 1454.4 L688.317 1485.02 L695.956 1485.02 L695.956 1488.96 L676.049 1488.96 L676.049 1485.02 Z" fill="#000000" fill-rule="evenodd" fill-opacity="1" /><path clip-path="url(#clip690)" d="M705.4 1483.08 L710.285 1483.08 L710.285 1488.96 L705.4 1488.96 L705.4 1483.08 Z" fill="#000000" fill-rule="evenodd" fill-opacity="1" /><path clip-path="url(#clip690)" d="M730.47 1457.48 Q726.859 1457.48 725.03 1461.04 Q723.224 1464.58 723.224 1471.71 Q723.224 1478.82 725.03 1482.38 Q726.859 1485.92 730.47 1485.92 Q734.104 1485.92 735.91 1482.38 Q737.738 1478.82 737.738 1471.71 Q737.738 1464.58 735.91 1461.04 Q734.104 1457.48 730.47 1457.48 M730.47 1453.77 Q736.28 1453.77 739.336 1458.38 Q742.414 1462.96 742.414 1471.71 Q742.414 1480.44 739.336 1485.04 Q736.28 1489.63 730.47 1489.63 Q724.66 1489.63 721.581 1485.04 Q718.525 1480.44 718.525 1471.71 Q718.525 1462.96 721.581 1458.38 Q724.66 1453.77 730.47 1453.77 Z" fill="#000000" fill-rule="evenodd" fill-opacity="1" /><path clip-path="url(#clip690)" d="M778.803 1463.49 L768.224 1474.12 L778.803 1484.7 L776.048 1487.5 L765.423 1476.87 L754.798 1487.5 L752.067 1484.7 L762.622 1474.12 L752.067 1463.49 L754.798 1460.69 L765.423 1471.32 L776.048 1460.69 L778.803 1463.49 Z" fill="#000000" fill-rule="evenodd" fill-opacity="1" /><path clip-path="url(#clip690)" d="M791.164 1485.02 L798.803 1485.02 L798.803 1458.66 L790.493 1460.32 L790.493 1456.06 L798.756 1454.4 L803.432 1454.4 L803.432 1485.02 L811.071 1485.02 L811.071 1488.96 L791.164 1488.96 L791.164 1485.02 Z" fill="#000000" fill-rule="evenodd" fill-opacity="1" /><path clip-path="url(#clip690)" d="M830.516 1457.48 Q826.904 1457.48 825.076 1461.04 Q823.27 1464.58 823.27 1471.71 Q823.27 1478.82 825.076 1482.38 Q826.904 1485.92 830.516 1485.92 Q834.15 1485.92 835.955 1482.38 Q837.784 1478.82 837.784 1471.71 Q837.784 1464.58 835.955 1461.04 Q834.15 1457.48 830.516 1457.48 M830.516 1453.77 Q836.326 1453.77 839.381 1458.38 Q842.46 1462.96 842.46 1471.71 Q842.46 1480.44 839.381 1485.04 Q836.326 1489.63 830.516 1489.63 Q824.705 1489.63 821.627 1485.04 Q818.571 1480.44 818.571 1471.71 Q818.571 1462.96 821.627 1458.38 Q824.705 1453.77 830.516 1453.77 Z" fill="#000000" fill-rule="evenodd" fill-opacity="1" /><path clip-path="url(#clip690)" d="M842.46 1433.47 L860.515 1433.47 L860.515 1435.08 L850.322 1461.55 L846.353 1461.55 L855.945 1436.66 L842.46 1436.66 L842.46 1433.47 Z" fill="#000000" fill-rule="evenodd" fill-opacity="1" /><path clip-path="url(#clip690)" d="M1188.14 1485.02 L1204.45 1485.02 L1204.45 1488.96 L1182.51 1488.96 L1182.51 1485.02 Q1185.17 1482.27 1189.76 1477.64 Q1194.36 1472.98 1195.54 1471.64 Q1197.79 1469.12 1198.67 1467.38 Q1199.57 1465.62 1199.57 1463.93 Q1199.57 1461.18 1197.63 1459.44 Q1195.7 1457.71 1192.6 1457.71 Q1190.4 1457.71 1187.95 1458.47 Q1185.52 1459.23 1182.74 1460.79 L1182.74 1456.06 Q1185.57 1454.93 1188.02 1454.35 Q1190.47 1453.77 1192.51 1453.77 Q1197.88 1453.77 1201.07 1456.46 Q1204.27 1459.14 1204.27 1463.63 Q1204.27 1465.76 1203.46 1467.68 Q1202.67 1469.58 1200.57 1472.17 Q1199.99 1472.85 1196.88 1476.06 Q1193.78 1479.26 1188.14 1485.02 Z" fill="#000000" fill-rule="evenodd" fill-opacity="1" /><path clip-path="url(#clip690)" d="M1214.27 1483.08 L1219.15 1483.08 L1219.15 1488.96 L1214.27 1488.96 L1214.27 1483.08 Z" fill="#000000" fill-rule="evenodd" fill-opacity="1" /><path clip-path="url(#clip690)" d="M1239.34 1457.48 Q1235.73 1457.48 1233.9 1461.04 Q1232.09 1464.58 1232.09 1471.71 Q1232.09 1478.82 1233.9 1482.38 Q1235.73 1485.92 1239.34 1485.92 Q1242.97 1485.92 1244.78 1482.38 Q1246.61 1478.82 1246.61 1471.71 Q1246.61 1464.58 1244.78 1461.04 Q1242.97 1457.48 1239.34 1457.48 M1239.34 1453.77 Q1245.15 1453.77 1248.2 1458.38 Q1251.28 1462.96 1251.28 1471.71 Q1251.28 1480.44 1248.2 1485.04 Q1245.15 1489.63 1239.34 1489.63 Q1233.53 1489.63 1230.45 1485.04 Q1227.39 1480.44 1227.39 1471.71 Q1227.39 1462.96 1230.45 1458.38 Q1233.53 1453.77 1239.34 1453.77 Z" fill="#000000" fill-rule="evenodd" fill-opacity="1" /><path clip-path="url(#clip690)" d="M1287.67 1463.49 L1277.09 1474.12 L1287.67 1484.7 L1284.92 1487.5 L1274.29 1476.87 L1263.67 1487.5 L1260.94 1484.7 L1271.49 1474.12 L1260.94 1463.49 L1263.67 1460.69 L1274.29 1471.32 L1284.92 1460.69 L1287.67 1463.49 Z" fill="#000000" fill-rule="evenodd" fill-opacity="1" /><path clip-path="url(#clip690)" d="M1300.03 1485.02 L1307.67 1485.02 L1307.67 1458.66 L1299.36 1460.32 L1299.36 1456.06 L1307.63 1454.4 L1312.3 1454.4 L1312.3 1485.02 L1319.94 1485.02 L1319.94 1488.96 L1300.03 1488.96 L1300.03 1485.02 Z" fill="#000000" fill-rule="evenodd" fill-opacity="1" /><path clip-path="url(#clip690)" d="M1339.38 1457.48 Q1335.77 1457.48 1333.94 1461.04 Q1332.14 1464.58 1332.14 1471.71 Q1332.14 1478.82 1333.94 1482.38 Q1335.77 1485.92 1339.38 1485.92 Q1343.02 1485.92 1344.82 1482.38 Q1346.65 1478.82 1346.65 1471.71 Q1346.65 1464.58 1344.82 1461.04 Q1343.02 1457.48 1339.38 1457.48 M1339.38 1453.77 Q1345.19 1453.77 1348.25 1458.38 Q1351.33 1462.96 1351.33 1471.71 Q1351.33 1480.44 1348.25 1485.04 Q1345.19 1489.63 1339.38 1489.63 Q1333.57 1489.63 1330.5 1485.04 Q1327.44 1480.44 1327.44 1471.71 Q1327.44 1462.96 1330.5 1458.38 Q1333.57 1453.77 1339.38 1453.77 Z" fill="#000000" fill-rule="evenodd" fill-opacity="1" /><path clip-path="url(#clip690)" d="M1351.33 1433.47 L1369.38 1433.47 L1369.38 1435.08 L1359.19 1461.55 L1355.22 1461.55 L1364.81 1436.66 L1351.33 1436.66 L1351.33 1433.47 Z" fill="#000000" fill-rule="evenodd" fill-opacity="1" /><path clip-path="url(#clip690)" d="M1706.21 1470.32 Q1709.56 1471.04 1711.44 1473.31 Q1713.33 1475.58 1713.33 1478.91 Q1713.33 1484.03 1709.82 1486.83 Q1706.3 1489.63 1699.82 1489.63 Q1697.64 1489.63 1695.33 1489.19 Q1693.03 1488.77 1690.58 1487.91 L1690.58 1483.4 Q1692.52 1484.54 1694.84 1485.11 Q1697.15 1485.69 1699.68 1485.69 Q1704.08 1485.69 1706.37 1483.96 Q1708.68 1482.22 1708.68 1478.91 Q1708.68 1475.85 1706.53 1474.14 Q1704.4 1472.41 1700.58 1472.41 L1696.55 1472.41 L1696.55 1468.56 L1700.77 1468.56 Q1704.21 1468.56 1706.04 1467.2 Q1707.87 1465.81 1707.87 1463.22 Q1707.87 1460.55 1705.97 1459.14 Q1704.1 1457.71 1700.58 1457.71 Q1698.66 1457.71 1696.46 1458.12 Q1694.26 1458.54 1691.62 1459.42 L1691.62 1455.25 Q1694.28 1454.51 1696.6 1454.14 Q1698.94 1453.77 1701 1453.77 Q1706.32 1453.77 1709.42 1456.2 Q1712.52 1458.61 1712.52 1462.73 Q1712.52 1465.6 1710.88 1467.59 Q1709.24 1469.56 1706.21 1470.32 Z" fill="#000000" fill-rule="evenodd" fill-opacity="1" /><path clip-path="url(#clip690)" d="M1722.2 1483.08 L1727.08 1483.08 L1727.08 1488.96 L1722.2 1488.96 L1722.2 1483.08 Z" fill="#000000" fill-rule="evenodd" fill-opacity="1" /><path clip-path="url(#clip690)" d="M1747.27 1457.48 Q1743.66 1457.48 1741.83 1461.04 Q1740.02 1464.58 1740.02 1471.71 Q1740.02 1478.82 1741.83 1482.38 Q1743.66 1485.92 1747.27 1485.92 Q1750.9 1485.92 1752.71 1482.38 Q1754.54 1478.82 1754.54 1471.71 Q1754.54 1464.58 1752.71 1461.04 Q1750.9 1457.48 1747.27 1457.48 M1747.27 1453.77 Q1753.08 1453.77 1756.14 1458.38 Q1759.21 1462.96 1759.21 1471.71 Q1759.21 1480.44 1756.14 1485.04 Q1753.08 1489.63 1747.27 1489.63 Q1741.46 1489.63 1738.38 1485.04 Q1735.33 1480.44 1735.33 1471.71 Q1735.33 1462.96 1738.38 1458.38 Q1741.46 1453.77 1747.27 1453.77 Z" fill="#000000" fill-rule="evenodd" fill-opacity="1" /><path clip-path="url(#clip690)" d="M1795.6 1463.49 L1785.02 1474.12 L1795.6 1484.7 L1792.85 1487.5 L1782.22 1476.87 L1771.6 1487.5 L1768.87 1484.7 L1779.42 1474.12 L1768.87 1463.49 L1771.6 1460.69 L1782.22 1471.32 L1792.85 1460.69 L1795.6 1463.49 Z" fill="#000000" fill-rule="evenodd" fill-opacity="1" /><path clip-path="url(#clip690)" d="M1807.96 1485.02 L1815.6 1485.02 L1815.6 1458.66 L1807.29 1460.32 L1807.29 1456.06 L1815.56 1454.4 L1820.23 1454.4 L1820.23 1485.02 L1827.87 1485.02 L1827.87 1488.96 L1807.96 1488.96 L1807.96 1485.02 Z" fill="#000000" fill-rule="evenodd" fill-opacity="1" /><path clip-path="url(#clip690)" d="M1847.32 1457.48 Q1843.7 1457.48 1841.88 1461.04 Q1840.07 1464.58 1840.07 1471.71 Q1840.07 1478.82 1841.88 1482.38 Q1843.7 1485.92 1847.32 1485.92 Q1850.95 1485.92 1852.76 1482.38 Q1854.58 1478.82 1854.58 1471.71 Q1854.58 1464.58 1852.76 1461.04 Q1850.95 1457.48 1847.32 1457.48 M1847.32 1453.77 Q1853.13 1453.77 1856.18 1458.38 Q1859.26 1462.96 1859.26 1471.71 Q1859.26 1480.44 1856.18 1485.04 Q1853.13 1489.63 1847.32 1489.63 Q1841.51 1489.63 1838.43 1485.04 Q1835.37 1480.44 1835.37 1471.71 Q1835.37 1462.96 1838.43 1458.38 Q1841.51 1453.77 1847.32 1453.77 Z" fill="#000000" fill-rule="evenodd" fill-opacity="1" /><path clip-path="url(#clip690)" d="M1859.26 1433.47 L1877.32 1433.47 L1877.32 1435.08 L1867.12 1461.55 L1863.15 1461.55 L1872.74 1436.66 L1859.26 1436.66 L1859.26 1433.47 Z" fill="#000000" fill-rule="evenodd" fill-opacity="1" /><path clip-path="url(#clip690)" d="M2213.53 1458.47 L2201.73 1476.92 L2213.53 1476.92 L2213.53 1458.47 M2212.31 1454.4 L2218.19 1454.4 L2218.19 1476.92 L2223.12 1476.92 L2223.12 1480.81 L2218.19 1480.81 L2218.19 1488.96 L2213.53 1488.96 L2213.53 1480.81 L2197.93 1480.81 L2197.93 1476.29 L2212.31 1454.4 Z" fill="#000000" fill-rule="evenodd" fill-opacity="1" /><path clip-path="url(#clip690)" d="M2230.85 1483.08 L2235.73 1483.08 L2235.73 1488.96 L2230.85 1488.96 L2230.85 1483.08 Z" fill="#000000" fill-rule="evenodd" fill-opacity="1" /><path clip-path="url(#clip690)" d="M2255.92 1457.48 Q2252.31 1457.48 2250.48 1461.04 Q2248.67 1464.58 2248.67 1471.71 Q2248.67 1478.82 2250.48 1482.38 Q2252.31 1485.92 2255.92 1485.92 Q2259.55 1485.92 2261.36 1482.38 Q2263.19 1478.82 2263.19 1471.71 Q2263.19 1464.58 2261.36 1461.04 Q2259.55 1457.48 2255.92 1457.48 M2255.92 1453.77 Q2261.73 1453.77 2264.78 1458.38 Q2267.86 1462.96 2267.86 1471.71 Q2267.86 1480.44 2264.78 1485.04 Q2261.73 1489.63 2255.92 1489.63 Q2250.11 1489.63 2247.03 1485.04 Q2243.97 1480.44 2243.97 1471.71 Q2243.97 1462.96 2247.03 1458.38 Q2250.11 1453.77 2255.92 1453.77 Z" fill="#000000" fill-rule="evenodd" fill-opacity="1" /><path clip-path="url(#clip690)" d="M2304.25 1463.49 L2293.67 1474.12 L2304.25 1484.7 L2301.5 1487.5 L2290.87 1476.87 L2280.25 1487.5 L2277.52 1484.7 L2288.07 1474.12 L2277.52 1463.49 L2280.25 1460.69 L2290.87 1471.32 L2301.5 1460.69 L2304.25 1463.49 Z" fill="#000000" fill-rule="evenodd" fill-opacity="1" /><path clip-path="url(#clip690)" d="M2316.61 1485.02 L2324.25 1485.02 L2324.25 1458.66 L2315.94 1460.32 L2315.94 1456.06 L2324.21 1454.4 L2328.88 1454.4 L2328.88 1485.02 L2336.52 1485.02 L2336.52 1488.96 L2316.61 1488.96 L2316.61 1485.02 Z" fill="#000000" fill-rule="evenodd" fill-opacity="1" /><path clip-path="url(#clip690)" d="M2355.96 1457.48 Q2352.35 1457.48 2350.52 1461.04 Q2348.72 1464.58 2348.72 1471.71 Q2348.72 1478.82 2350.52 1482.38 Q2352.35 1485.92 2355.96 1485.92 Q2359.6 1485.92 2361.4 1482.38 Q2363.23 1478.82 2363.23 1471.71 Q2363.23 1464.58 2361.4 1461.04 Q2359.6 1457.48 2355.96 1457.48 M2355.96 1453.77 Q2361.77 1453.77 2364.83 1458.38 Q2367.91 1462.96 2367.91 1471.71 Q2367.91 1480.44 2364.83 1485.04 Q2361.77 1489.63 2355.96 1489.63 Q2350.15 1489.63 2347.08 1485.04 Q2344.02 1480.44 2344.02 1471.71 Q2344.02 1462.96 2347.08 1458.38 Q2350.15 1453.77 2355.96 1453.77 Z" fill="#000000" fill-rule="evenodd" fill-opacity="1" /><path clip-path="url(#clip690)" d="M2367.91 1433.47 L2385.96 1433.47 L2385.96 1435.08 L2375.77 1461.55 L2371.8 1461.55 L2381.39 1436.66 L2367.91 1436.66 L2367.91 1433.47 Z" fill="#000000" fill-rule="evenodd" fill-opacity="1" /><path clip-path="url(#clip690)" d="M1128.05 1526.67 L1134.48 1526.67 L1134.48 1574.19 L1128.05 1574.19 L1128.05 1526.67 Z" fill="#000000" fill-rule="evenodd" fill-opacity="1" /><path clip-path="url(#clip690)" d="M1152.81 1528.42 L1152.81 1538.54 L1164.88 1538.54 L1164.88 1543.09 L1152.81 1543.09 L1152.81 1562.44 Q1152.81 1566.8 1153.99 1568.04 Q1155.2 1569.28 1158.86 1569.28 L1164.88 1569.28 L1164.88 1574.19 L1158.86 1574.19 Q1152.08 1574.19 1149.5 1571.67 Q1146.92 1569.12 1146.92 1562.44 L1146.92 1543.09 L1142.63 1543.09 L1142.63 1538.54 L1146.92 1538.54 L1146.92 1528.42 L1152.81 1528.42 Z" fill="#000000" fill-rule="evenodd" fill-opacity="1" /><path clip-path="url(#clip690)" d="M1203.07 1554.9 L1203.07 1557.76 L1176.14 1557.76 Q1176.52 1563.81 1179.77 1566.99 Q1183.05 1570.14 1188.87 1570.14 Q1192.25 1570.14 1195.4 1569.32 Q1198.58 1568.49 1201.7 1566.83 L1201.7 1572.37 Q1198.55 1573.71 1195.24 1574.41 Q1191.93 1575.11 1188.52 1575.11 Q1179.99 1575.11 1175 1570.14 Q1170.03 1565.18 1170.03 1556.71 Q1170.03 1547.96 1174.74 1542.83 Q1179.48 1537.68 1187.51 1537.68 Q1194.7 1537.68 1198.87 1542.33 Q1203.07 1546.94 1203.07 1554.9 M1197.21 1553.18 Q1197.15 1548.37 1194.51 1545.51 Q1191.9 1542.64 1187.57 1542.64 Q1182.67 1542.64 1179.71 1545.41 Q1176.78 1548.18 1176.33 1553.21 L1197.21 1553.18 Z" fill="#000000" fill-rule="evenodd" fill-opacity="1" /><path clip-path="url(#clip690)" d="M1233.34 1544.01 Q1232.35 1543.44 1231.17 1543.18 Q1230.03 1542.9 1228.63 1542.9 Q1223.66 1542.9 1220.99 1546.14 Q1218.35 1549.36 1218.35 1555.41 L1218.35 1574.19 L1212.46 1574.19 L1212.46 1538.54 L1218.35 1538.54 L1218.35 1544.08 Q1220.19 1540.83 1223.15 1539.27 Q1226.11 1537.68 1230.35 1537.68 Q1230.95 1537.68 1231.68 1537.77 Q1232.42 1537.84 1233.31 1538 L1233.34 1544.01 Z" fill="#000000" fill-rule="evenodd" fill-opacity="1" /><path clip-path="url(#clip690)" d="M1255.68 1556.27 Q1248.58 1556.27 1245.85 1557.89 Q1243.11 1559.51 1243.11 1563.43 Q1243.11 1566.55 1245.15 1568.39 Q1247.22 1570.21 1250.75 1570.21 Q1255.62 1570.21 1258.55 1566.77 Q1261.51 1563.3 1261.51 1557.57 L1261.51 1556.27 L1255.68 1556.27 M1267.36 1553.85 L1267.36 1574.19 L1261.51 1574.19 L1261.51 1568.77 Q1259.5 1572.02 1256.51 1573.58 Q1253.52 1575.11 1249.19 1575.11 Q1243.71 1575.11 1240.47 1572.05 Q1237.25 1568.97 1237.25 1563.81 Q1237.25 1557.79 1241.26 1554.74 Q1245.31 1551.68 1253.29 1551.68 L1261.51 1551.68 L1261.51 1551.11 Q1261.51 1547.07 1258.83 1544.87 Q1256.19 1542.64 1251.39 1542.64 Q1248.33 1542.64 1245.43 1543.38 Q1242.54 1544.11 1239.86 1545.57 L1239.86 1540.16 Q1243.08 1538.92 1246.1 1538.31 Q1249.13 1537.68 1251.99 1537.68 Q1259.72 1537.68 1263.54 1541.69 Q1267.36 1545.7 1267.36 1553.85 Z" fill="#000000" fill-rule="evenodd" fill-opacity="1" /><path clip-path="url(#clip690)" d="M1285.22 1528.42 L1285.22 1538.54 L1297.28 1538.54 L1297.28 1543.09 L1285.22 1543.09 L1285.22 1562.44 Q1285.22 1566.8 1286.4 1568.04 Q1287.61 1569.28 1291.27 1569.28 L1297.28 1569.28 L1297.28 1574.19 L1291.27 1574.19 Q1284.49 1574.19 1281.91 1571.67 Q1279.33 1569.12 1279.33 1562.44 L1279.33 1543.09 L1275.03 1543.09 L1275.03 1538.54 L1279.33 1538.54 L1279.33 1528.42 L1285.22 1528.42 Z" fill="#000000" fill-rule="evenodd" fill-opacity="1" /><path clip-path="url(#clip690)" d="M1304.98 1538.54 L1310.84 1538.54 L1310.84 1574.19 L1304.98 1574.19 L1304.98 1538.54 M1304.98 1524.66 L1310.84 1524.66 L1310.84 1532.08 L1304.98 1532.08 L1304.98 1524.66 Z" fill="#000000" fill-rule="evenodd" fill-opacity="1" /><path clip-path="url(#clip690)" d="M1336.91 1542.64 Q1332.2 1542.64 1329.46 1546.34 Q1326.72 1550 1326.72 1556.39 Q1326.72 1562.79 1329.43 1566.48 Q1332.17 1570.14 1336.91 1570.14 Q1341.59 1570.14 1344.32 1566.45 Q1347.06 1562.76 1347.06 1556.39 Q1347.06 1550.06 1344.32 1546.37 Q1341.59 1542.64 1336.91 1542.64 M1336.91 1537.68 Q1344.55 1537.68 1348.91 1542.64 Q1353.27 1547.61 1353.27 1556.39 Q1353.27 1565.15 1348.91 1570.14 Q1344.55 1575.11 1336.91 1575.11 Q1329.24 1575.11 1324.88 1570.14 Q1320.55 1565.15 1320.55 1556.39 Q1320.55 1547.61 1324.88 1542.64 Q1329.24 1537.68 1336.91 1537.68 Z" fill="#000000" fill-rule="evenodd" fill-opacity="1" /><path clip-path="url(#clip690)" d="M1392.61 1552.67 L1392.61 1574.19 L1386.75 1574.19 L1386.75 1552.86 Q1386.75 1547.8 1384.78 1545.29 Q1382.81 1542.77 1378.86 1542.77 Q1374.12 1542.77 1371.38 1545.79 Q1368.64 1548.82 1368.64 1554.04 L1368.64 1574.19 L1362.75 1574.19 L1362.75 1538.54 L1368.64 1538.54 L1368.64 1544.08 Q1370.74 1540.86 1373.57 1539.27 Q1376.44 1537.68 1380.16 1537.68 Q1386.31 1537.68 1389.46 1541.5 Q1392.61 1545.29 1392.61 1552.67 Z" fill="#000000" fill-rule="evenodd" fill-opacity="1" /><path clip-path="url(#clip690)" d="M1427.01 1539.59 L1427.01 1545.13 Q1424.53 1543.85 1421.86 1543.22 Q1419.19 1542.58 1416.32 1542.58 Q1411.96 1542.58 1409.76 1543.92 Q1407.6 1545.25 1407.6 1547.93 Q1407.6 1549.96 1409.16 1551.14 Q1410.72 1552.29 1415.43 1553.34 L1417.43 1553.78 Q1423.67 1555.12 1426.28 1557.57 Q1428.92 1559.99 1428.92 1564.35 Q1428.92 1569.32 1424.98 1572.21 Q1421.06 1575.11 1414.19 1575.11 Q1411.32 1575.11 1408.2 1574.54 Q1405.12 1573.99 1401.68 1572.88 L1401.68 1566.83 Q1404.93 1568.52 1408.08 1569.38 Q1411.23 1570.21 1414.32 1570.21 Q1418.45 1570.21 1420.68 1568.81 Q1422.91 1567.37 1422.91 1564.8 Q1422.91 1562.41 1421.29 1561.14 Q1419.69 1559.86 1414.25 1558.68 L1412.21 1558.21 Q1406.77 1557.06 1404.35 1554.71 Q1401.93 1552.32 1401.93 1548.18 Q1401.93 1543.15 1405.5 1540.42 Q1409.06 1537.68 1415.62 1537.68 Q1418.87 1537.68 1421.73 1538.16 Q1424.6 1538.63 1427.01 1539.59 Z" fill="#000000" fill-rule="evenodd" fill-opacity="1" /><polyline clip-path="url(#clip692)" style="stroke:#000000; stroke-linecap:round; stroke-linejoin:round; stroke-width:2; stroke-opacity:0.1; fill:none" points="
  204.218,1387.32 2352.76,1387.32 
  "/>
<polyline clip-path="url(#clip692)" style="stroke:#000000; stroke-linecap:round; stroke-linejoin:round; stroke-width:2; stroke-opacity:0.1; fill:none" points="
  204.218,1055.47 2352.76,1055.47 
  "/>
<polyline clip-path="url(#clip692)" style="stroke:#000000; stroke-linecap:round; stroke-linejoin:round; stroke-width:2; stroke-opacity:0.1; fill:none" points="
  204.218,723.63 2352.76,723.63 
  "/>
<polyline clip-path="url(#clip692)" style="stroke:#000000; stroke-linecap:round; stroke-linejoin:round; stroke-width:2; stroke-opacity:0.1; fill:none" points="
  204.218,391.786 2352.76,391.786 
  "/>
<polyline clip-path="url(#clip692)" style="stroke:#000000; stroke-linecap:round; stroke-linejoin:round; stroke-width:2; stroke-opacity:0.1; fill:none" points="
  204.218,59.9416 2352.76,59.9416 
  "/>
<polyline clip-path="url(#clip690)" style="stroke:#000000; stroke-linecap:round; stroke-linejoin:round; stroke-width:4; stroke-opacity:1; fill:none" points="
  204.218,1410.9 204.218,47.2441 
  "/>
<polyline clip-path="url(#clip690)" style="stroke:#000000; stroke-linecap:round; stroke-linejoin:round; stroke-width:4; stroke-opacity:1; fill:none" points="
  204.218,1387.32 223.116,1387.32 
  "/>
<polyline clip-path="url(#clip690)" style="stroke:#000000; stroke-linecap:round; stroke-linejoin:round; stroke-width:4; stroke-opacity:1; fill:none" points="
  204.218,1055.47 223.116,1055.47 
  "/>
<polyline clip-path="url(#clip690)" style="stroke:#000000; stroke-linecap:round; stroke-linejoin:round; stroke-width:4; stroke-opacity:1; fill:none" points="
  204.218,723.63 223.116,723.63 
  "/>
<polyline clip-path="url(#clip690)" style="stroke:#000000; stroke-linecap:round; stroke-linejoin:round; stroke-width:4; stroke-opacity:1; fill:none" points="
  204.218,391.786 223.116,391.786 
  "/>
<polyline clip-path="url(#clip690)" style="stroke:#000000; stroke-linecap:round; stroke-linejoin:round; stroke-width:4; stroke-opacity:1; fill:none" points="
  204.218,59.9416 223.116,59.9416 
  "/>
<path clip-path="url(#clip690)" d="M126.691 1385.46 Q123.543 1385.46 121.691 1387.61 Q119.862 1389.76 119.862 1393.51 Q119.862 1397.24 121.691 1399.41 Q123.543 1401.57 126.691 1401.57 Q129.839 1401.57 131.667 1399.41 Q133.519 1397.24 133.519 1393.51 Q133.519 1389.76 131.667 1387.61 Q129.839 1385.46 126.691 1385.46 M135.973 1370.8 L135.973 1375.06 Q134.214 1374.23 132.408 1373.79 Q130.626 1373.35 128.867 1373.35 Q124.237 1373.35 121.783 1376.47 Q119.353 1379.6 119.006 1385.92 Q120.371 1383.9 122.431 1382.84 Q124.492 1381.75 126.968 1381.75 Q132.177 1381.75 135.186 1384.92 Q138.218 1388.07 138.218 1393.51 Q138.218 1398.84 135.07 1402.05 Q131.922 1405.27 126.691 1405.27 Q120.695 1405.27 117.524 1400.69 Q114.353 1396.08 114.353 1387.35 Q114.353 1379.16 118.242 1374.3 Q122.13 1369.41 128.681 1369.41 Q130.441 1369.41 132.223 1369.76 Q134.029 1370.11 135.973 1370.8 Z" fill="#000000" fill-rule="evenodd" fill-opacity="1" /><path clip-path="url(#clip690)" d="M156.274 1373.12 Q152.663 1373.12 150.834 1376.68 Q149.028 1380.22 149.028 1387.35 Q149.028 1394.46 150.834 1398.03 Q152.663 1401.57 156.274 1401.57 Q159.908 1401.57 161.714 1398.03 Q163.542 1394.46 163.542 1387.35 Q163.542 1380.22 161.714 1376.68 Q159.908 1373.12 156.274 1373.12 M156.274 1369.41 Q162.084 1369.41 165.14 1374.02 Q168.218 1378.6 168.218 1387.35 Q168.218 1396.08 165.14 1400.69 Q162.084 1405.27 156.274 1405.27 Q150.464 1405.27 147.385 1400.69 Q144.329 1396.08 144.329 1387.35 Q144.329 1378.6 147.385 1374.02 Q150.464 1369.41 156.274 1369.41 Z" fill="#000000" fill-rule="evenodd" fill-opacity="1" /><path clip-path="url(#clip690)" d="M127.686 1053.61 Q124.538 1053.61 122.686 1055.76 Q120.857 1057.92 120.857 1061.67 Q120.857 1065.39 122.686 1067.57 Q124.538 1069.72 127.686 1069.72 Q130.834 1069.72 132.663 1067.57 Q134.515 1065.39 134.515 1061.67 Q134.515 1057.92 132.663 1055.76 Q130.834 1053.61 127.686 1053.61 M136.968 1038.96 L136.968 1043.22 Q135.209 1042.38 133.404 1041.94 Q131.621 1041.5 129.862 1041.5 Q125.232 1041.5 122.779 1044.63 Q120.348 1047.75 120.001 1054.07 Q121.367 1052.06 123.427 1051 Q125.487 1049.91 127.964 1049.91 Q133.172 1049.91 136.181 1053.08 Q139.214 1056.23 139.214 1061.67 Q139.214 1066.99 136.066 1070.21 Q132.917 1073.43 127.686 1073.43 Q121.691 1073.43 118.519 1068.84 Q115.348 1064.24 115.348 1055.51 Q115.348 1047.32 119.237 1042.45 Q123.126 1037.57 129.677 1037.57 Q131.436 1037.57 133.218 1037.92 Q135.024 1038.26 136.968 1038.96 Z" fill="#000000" fill-rule="evenodd" fill-opacity="1" /><path clip-path="url(#clip690)" d="M147.316 1038.19 L165.672 1038.19 L165.672 1042.13 L151.598 1042.13 L151.598 1050.6 Q152.616 1050.25 153.635 1050.09 Q154.653 1049.91 155.672 1049.91 Q161.459 1049.91 164.839 1053.08 Q168.218 1056.25 168.218 1061.67 Q168.218 1067.25 164.746 1070.35 Q161.274 1073.43 154.954 1073.43 Q152.778 1073.43 150.51 1073.06 Q148.265 1072.69 145.857 1071.94 L145.857 1067.25 Q147.941 1068.38 150.163 1068.94 Q152.385 1069.49 154.862 1069.49 Q158.866 1069.49 161.204 1067.38 Q163.542 1065.28 163.542 1061.67 Q163.542 1058.06 161.204 1055.95 Q158.866 1053.84 154.862 1053.84 Q152.987 1053.84 151.112 1054.26 Q149.26 1054.68 147.316 1055.56 L147.316 1038.19 Z" fill="#000000" fill-rule="evenodd" fill-opacity="1" /><path clip-path="url(#clip690)" d="M114.931 706.35 L137.154 706.35 L137.154 708.341 L124.607 740.91 L119.723 740.91 L131.529 710.286 L114.931 710.286 L114.931 706.35 Z" fill="#000000" fill-rule="evenodd" fill-opacity="1" /><path clip-path="url(#clip690)" d="M156.274 709.429 Q152.663 709.429 150.834 712.994 Q149.028 716.535 149.028 723.665 Q149.028 730.772 150.834 734.336 Q152.663 737.878 156.274 737.878 Q159.908 737.878 161.714 734.336 Q163.542 730.772 163.542 723.665 Q163.542 716.535 161.714 712.994 Q159.908 709.429 156.274 709.429 M156.274 705.725 Q162.084 705.725 165.14 710.332 Q168.218 714.915 168.218 723.665 Q168.218 732.392 165.14 736.998 Q162.084 741.582 156.274 741.582 Q150.464 741.582 147.385 736.998 Q144.329 732.392 144.329 723.665 Q144.329 714.915 147.385 710.332 Q150.464 705.725 156.274 705.725 Z" fill="#000000" fill-rule="evenodd" fill-opacity="1" /><path clip-path="url(#clip690)" d="M115.927 374.506 L138.149 374.506 L138.149 376.497 L125.603 409.066 L120.718 409.066 L132.524 378.441 L115.927 378.441 L115.927 374.506 Z" fill="#000000" fill-rule="evenodd" fill-opacity="1" /><path clip-path="url(#clip690)" d="M147.316 374.506 L165.672 374.506 L165.672 378.441 L151.598 378.441 L151.598 386.913 Q152.616 386.566 153.635 386.404 Q154.653 386.219 155.672 386.219 Q161.459 386.219 164.839 389.39 Q168.218 392.561 168.218 397.978 Q168.218 403.557 164.746 406.659 Q161.274 409.737 154.954 409.737 Q152.778 409.737 150.51 409.367 Q148.265 408.997 145.857 408.256 L145.857 403.557 Q147.941 404.691 150.163 405.247 Q152.385 405.802 154.862 405.802 Q158.866 405.802 161.204 403.696 Q163.542 401.589 163.542 397.978 Q163.542 394.367 161.204 392.261 Q158.866 390.154 154.862 390.154 Q152.987 390.154 151.112 390.571 Q149.26 390.987 147.316 391.867 L147.316 374.506 Z" fill="#000000" fill-rule="evenodd" fill-opacity="1" /><path clip-path="url(#clip690)" d="M126.112 60.8097 Q122.779 60.8097 120.857 62.5921 Q118.959 64.3745 118.959 67.4994 Q118.959 70.6244 120.857 72.4068 Q122.779 74.1892 126.112 74.1892 Q129.445 74.1892 131.367 72.4068 Q133.288 70.6013 133.288 67.4994 Q133.288 64.3745 131.367 62.5921 Q129.468 60.8097 126.112 60.8097 M121.436 58.8189 Q118.427 58.0782 116.737 56.018 Q115.07 53.9578 115.07 50.9949 Q115.07 46.8514 118.01 44.444 Q120.973 42.0366 126.112 42.0366 Q131.274 42.0366 134.214 44.444 Q137.154 46.8514 137.154 50.9949 Q137.154 53.9578 135.464 56.018 Q133.797 58.0782 130.811 58.8189 Q134.191 59.606 136.066 61.8976 Q137.964 64.1893 137.964 67.4994 Q137.964 72.5226 134.885 75.2077 Q131.83 77.8929 126.112 77.8929 Q120.394 77.8929 117.316 75.2077 Q114.26 72.5226 114.26 67.4994 Q114.26 64.1893 116.158 61.8976 Q118.056 59.606 121.436 58.8189 M119.723 51.4347 Q119.723 54.1199 121.39 55.6245 Q123.08 57.1291 126.112 57.1291 Q129.121 57.1291 130.811 55.6245 Q132.524 54.1199 132.524 51.4347 Q132.524 48.7495 130.811 47.2449 Q129.121 45.7403 126.112 45.7403 Q123.08 45.7403 121.39 47.2449 Q119.723 48.7495 119.723 51.4347 Z" fill="#000000" fill-rule="evenodd" fill-opacity="1" /><path clip-path="url(#clip690)" d="M156.274 45.7403 Q152.663 45.7403 150.834 49.3051 Q149.028 52.8467 149.028 59.9763 Q149.028 67.0828 150.834 70.6476 Q152.663 74.1892 156.274 74.1892 Q159.908 74.1892 161.714 70.6476 Q163.542 67.0828 163.542 59.9763 Q163.542 52.8467 161.714 49.3051 Q159.908 45.7403 156.274 45.7403 M156.274 42.0366 Q162.084 42.0366 165.14 46.6431 Q168.218 51.2264 168.218 59.9763 Q168.218 68.7031 165.14 73.3096 Q162.084 77.8929 156.274 77.8929 Q150.464 77.8929 147.385 73.3096 Q144.329 68.7031 144.329 59.9763 Q144.329 51.2264 147.385 46.6431 Q150.464 42.0366 156.274 42.0366 Z" fill="#000000" fill-rule="evenodd" fill-opacity="1" /><path clip-path="url(#clip690)" d="M41.7242 821.755 Q42.4244 819.686 44.7161 817.745 Q47.0077 815.771 51.0181 813.798 L64.0042 807.273 L64.0042 814.18 L51.8138 820.259 Q47.0395 822.614 45.48 824.842 Q43.9204 827.039 43.9204 830.858 L43.9204 837.86 L64.0042 837.86 L64.0042 844.29 L16.4842 844.29 L16.4842 829.776 Q16.4842 821.628 19.8898 817.617 Q23.2955 813.607 30.1704 813.607 Q34.6582 813.607 37.6183 815.708 Q40.5784 817.776 41.7242 821.755 M21.7677 837.86 L38.6368 837.86 L38.6368 829.776 Q38.6368 825.129 36.5043 822.774 Q34.34 820.386 30.1704 820.386 Q26.0009 820.386 23.9002 822.774 Q21.7677 825.129 21.7677 829.776 L21.7677 837.86 Z" fill="#000000" fill-rule="evenodd" fill-opacity="1" /><path clip-path="url(#clip690)" d="M44.7161 771.689 L47.5806 771.689 L47.5806 798.616 Q53.6281 798.234 56.8109 794.987 Q59.9619 791.709 59.9619 785.884 Q59.9619 782.51 59.1344 779.359 Q58.3069 776.177 56.6518 773.057 L62.1899 773.057 Q63.5267 776.208 64.227 779.519 Q64.9272 782.829 64.9272 786.234 Q64.9272 794.764 59.9619 799.762 Q54.9967 804.727 46.5303 804.727 Q37.7774 804.727 32.6531 800.016 Q27.4968 795.274 27.4968 787.253 Q27.4968 780.06 32.1438 775.89 Q36.7589 771.689 44.7161 771.689 M42.9973 777.545 Q38.1912 777.609 35.3266 780.251 Q32.4621 782.861 32.4621 787.189 Q32.4621 792.091 35.2312 795.051 Q38.0002 797.979 43.0292 798.425 L42.9973 777.545 Z" fill="#000000" fill-rule="evenodd" fill-opacity="1" /><path clip-path="url(#clip690)" d="M28.3562 765.482 L28.3562 759.626 L56.1743 752.305 L28.3562 745.016 L28.3562 738.11 L56.1743 730.789 L28.3562 723.5 L28.3562 717.644 L64.0042 726.97 L64.0042 733.876 L34.7856 741.547 L64.0042 749.25 L64.0042 756.156 L28.3562 765.482 Z" fill="#000000" fill-rule="evenodd" fill-opacity="1" /><path clip-path="url(#clip690)" d="M46.0847 692.563 Q46.0847 699.661 47.7079 702.398 Q49.3312 705.135 53.2461 705.135 Q56.3653 705.135 58.2114 703.098 Q60.0256 701.029 60.0256 697.496 Q60.0256 692.627 56.5881 689.698 Q53.1188 686.738 47.3897 686.738 L46.0847 686.738 L46.0847 692.563 M43.6657 680.882 L64.0042 680.882 L64.0042 686.738 L58.5933 686.738 Q61.8398 688.744 63.3994 691.735 Q64.9272 694.727 64.9272 699.056 Q64.9272 704.531 61.8716 707.777 Q58.7843 710.992 53.6281 710.992 Q47.6125 710.992 44.5569 706.981 Q41.5014 702.939 41.5014 694.95 L41.5014 686.738 L40.9285 686.738 Q36.8862 686.738 34.6901 689.412 Q32.4621 692.054 32.4621 696.86 Q32.4621 699.915 33.1941 702.812 Q33.9262 705.708 35.3903 708.382 L29.9795 708.382 Q28.7381 705.167 28.1334 702.143 Q27.4968 699.12 27.4968 696.255 Q27.4968 688.521 31.5072 684.701 Q35.5176 680.882 43.6657 680.882 Z" fill="#000000" fill-rule="evenodd" fill-opacity="1" /><path clip-path="url(#clip690)" d="M33.8307 648.162 Q33.2578 649.149 33.0032 650.327 Q32.7167 651.472 32.7167 652.873 Q32.7167 657.838 35.9632 660.512 Q39.1779 663.153 45.2253 663.153 L64.0042 663.153 L64.0042 669.042 L28.3562 669.042 L28.3562 663.153 L33.8944 663.153 Q30.6479 661.307 29.0883 658.347 Q27.4968 655.387 27.4968 651.154 Q27.4968 650.549 27.5923 649.817 Q27.656 649.085 27.8151 648.194 L33.8307 648.162 Z" fill="#000000" fill-rule="evenodd" fill-opacity="1" /><path clip-path="url(#clip690)" d="M33.7671 619.708 L14.479 619.708 L14.479 613.851 L64.0042 613.851 L64.0042 619.708 L58.657 619.708 Q61.8398 621.554 63.3994 624.386 Q64.9272 627.187 64.9272 631.134 Q64.9272 637.595 59.771 641.669 Q54.6147 645.711 46.212 645.711 Q37.8093 645.711 32.6531 641.669 Q27.4968 637.595 27.4968 631.134 Q27.4968 627.187 29.0564 624.386 Q30.5842 621.554 33.7671 619.708 M46.212 639.664 Q52.6732 639.664 56.3653 637.022 Q60.0256 634.349 60.0256 629.702 Q60.0256 625.055 56.3653 622.381 Q52.6732 619.708 46.212 619.708 Q39.7508 619.708 36.0905 622.381 Q32.3984 625.055 32.3984 629.702 Q32.3984 634.349 36.0905 637.022 Q39.7508 639.664 46.212 639.664 Z" fill="#000000" fill-rule="evenodd" fill-opacity="1" /><polyline clip-path="url(#clip692)" style="stroke:#009af9; stroke-linecap:round; stroke-linejoin:round; stroke-width:4; stroke-opacity:1; fill:none" points="
  265.026,1372.3 270.106,1180.12 275.186,997.043 280.266,988.793 285.346,901.857 290.426,864.633 295.506,839.136 300.586,767.942 305.666,725.223 310.746,667.415 
  315.826,677.263 320.906,622.419 325.986,645.285 331.066,653.657 336.146,652.488 341.226,625.569 346.306,651.434 351.386,617.996 356.466,629.149 361.546,605.109 
  366.626,591.68 371.706,608.331 376.786,640.935 381.866,677.794 386.946,623.861 392.026,572.924 397.106,586.471 402.186,574.4 407.266,592.769 412.346,519.706 
  417.426,613.174 422.506,574.634 427.586,507.408 432.666,544.179 437.746,544.721 442.826,542.43 447.906,509.175 452.986,535.16 458.066,517.623 463.146,514.558 
  468.226,483.878 473.306,477.247 478.386,472.142 483.466,460.388 488.546,512.261 493.626,446.489 498.706,457.749 503.786,501.51 508.866,494.213 513.946,477.368 
  519.026,490.621 524.106,486.736 529.186,478.095 534.266,442.509 539.346,489.901 544.426,483.671 549.506,448.033 554.586,463.788 559.666,490.046 564.746,468.381 
  569.826,480.018 574.906,476.994 579.986,458.01 585.066,416.226 590.146,403.78 595.226,446.732 600.306,473.675 605.386,418.363 610.466,408.627 615.546,397.855 
  620.626,431.283 625.706,408.344 630.786,450.248 635.866,346.171 640.946,410.27 646.026,407.012 651.106,421.765 656.186,394.285 661.266,399.297 666.346,365.141 
  671.426,373.847 676.506,388.164 681.586,356.867 686.666,372.044 691.746,372.787 696.826,389.053 701.906,438.14 706.986,375.785 712.066,380.182 717.146,376.832 
  722.226,381.653 727.306,372.089 732.386,395.584 737.466,382.403 742.546,374.06 747.626,345.286 752.706,385.485 757.786,349.154 762.866,347.922 767.946,319.48 
  773.026,349.502 778.106,383.796 783.186,414.563 788.266,384.371 793.346,375.931 798.426,401.662 803.507,330.914 808.587,366.675 813.667,370.346 818.747,365.786 
  823.827,380.135 828.907,394.383 833.987,360.928 839.067,402.613 844.147,336.169 849.227,306.938 854.307,360.651 859.387,355.442 864.467,367.889 869.547,365.187 
  874.627,359.62 879.707,369.628 884.787,355.684 889.867,289.891 894.947,357.972 900.027,304.471 905.107,344.372 910.187,355.567 915.267,371.36 920.347,370.639 
  925.427,352.437 930.507,294.484 935.587,312.527 940.667,370.879 945.747,329.91 950.827,315.857 955.907,298.855 960.987,318.157 966.067,327.081 971.147,303.046 
  976.227,334.131 981.307,336.99 986.387,247.392 991.467,307.042 996.547,307.649 1001.63,329.997 1006.71,320.669 1011.79,332.447 1016.87,288.166 1021.95,293.744 
  1027.03,321.329 1032.11,326.101 1037.19,299.992 1042.27,329.155 1047.35,312.114 1052.43,327.433 1057.51,365.033 1062.59,300.584 1067.67,284.414 1072.75,355.339 
  1077.83,307.627 1082.91,326.16 1087.99,312.498 1093.07,304.553 1098.15,308.59 1103.23,299.543 1108.31,333.276 1113.39,291.673 1118.47,346.161 1123.55,318.305 
  1128.63,303.785 1133.71,294.243 1138.79,322.189 1143.87,328.9 1148.95,292.811 1154.03,318.275 1159.11,243.612 1164.19,272.201 1169.27,252.076 1174.35,306.238 
  1179.43,295.627 1184.51,305.973 1189.59,300.795 1194.67,273.683 1199.75,298.32 1204.83,296.863 1209.91,288.121 1214.99,331.763 1220.07,328.628 1225.15,254.952 
  1230.23,292.669 1235.31,311.324 1240.39,308.089 1245.47,269.517 1250.55,247.873 1255.63,242.026 1260.71,255.268 1265.79,306.256 1270.87,252.72 1275.95,227.981 
  1281.03,282.277 1286.11,263.655 1291.19,293.9 1296.27,274.648 1301.35,295.148 1306.43,312.393 1311.51,302.557 1316.59,272.902 1321.67,276.915 1326.75,255.925 
  1331.83,268.516 1336.91,252.498 1341.99,254.642 1347.07,238.775 1352.15,246.309 1357.23,225.169 1362.31,255.76 1367.39,216.004 1372.47,292.104 1377.55,253.343 
  1382.63,303.245 1387.71,269.463 1392.79,232.853 1397.87,245.843 1402.95,239.06 1408.03,214.324 1413.11,235.266 1418.19,228.591 1423.27,241.486 1428.35,250.599 
  1433.43,210.268 1438.51,253.707 1443.59,254.781 1448.67,235.49 1453.75,244.829 1458.83,253.222 1463.91,256.438 1468.99,254.41 1474.07,214.655 1479.15,238.63 
  1484.23,220.463 1489.31,270.051 1494.39,225.905 1499.47,277.358 1504.55,314.254 1509.63,235.149 1514.71,325.567 1519.79,246.636 1524.87,244.808 1529.95,201.988 
  1535.03,202.186 1540.11,221.51 1545.19,308.046 1550.27,255.363 1555.35,188.446 1560.43,237.258 1565.51,227.212 1570.59,228.235 1575.67,285.096 1580.75,254.966 
  1585.83,246.726 1590.91,215.495 1595.99,225.383 1601.07,252.023 1606.15,241.469 1611.23,260.872 1616.31,227.042 1621.39,244.092 1626.47,255.201 1631.55,229.98 
  1636.63,229.657 1641.71,246.829 1646.79,226.704 1651.87,242.017 1656.95,222.312 1662.03,227.622 1667.11,196.725 1672.19,195.467 1677.27,247.554 1682.35,221 
  1687.43,219.3 1692.51,231.284 1697.59,202.853 1702.67,257.566 1707.75,222.67 1712.83,192.146 1717.91,185.169 1722.99,225.97 1728.07,201.622 1733.15,209.89 
  1738.23,192.629 1743.31,217.101 1748.39,184.553 1753.47,257.446 1758.55,252.295 1763.63,159.167 1768.71,140.019 1773.79,243.233 1778.87,161.386 1783.95,180.78 
  1789.03,210.904 1794.11,181.36 1799.19,218.801 1804.27,210.9 1809.35,198.046 1814.43,197.06 1819.51,202.183 1824.59,216.622 1829.67,230.781 1834.75,201.915 
  1839.83,173.602 1844.91,197.005 1849.99,256.214 1855.07,204.41 1860.15,183.03 1865.23,234.78 1870.31,176.228 1875.39,203.68 1880.47,231.583 1885.55,197.426 
  1890.63,207.964 1895.71,212.465 1900.79,206.91 1905.87,174.483 1910.95,178.122 1916.03,160.686 1921.11,269.496 1926.19,180.525 1931.27,162.807 1936.35,163.739 
  1941.43,211.742 1946.51,204.373 1951.59,158.346 1956.67,186.139 1961.75,148.547 1966.83,204.605 1971.91,262.568 1976.99,131.175 1982.07,260.477 1987.15,166.68 
  1992.23,164.649 1997.31,186.804 2002.39,178.237 2007.47,176.614 2012.55,241.188 2017.63,149.542 2022.71,141.825 2027.79,197.458 2032.87,143.128 2037.95,154.13 
  2043.03,133.066 2048.11,221.47 2053.19,171.928 2058.27,150.223 2063.35,101.104 2068.43,146.532 2073.51,107.961 2078.59,198.869 2083.67,145.752 2088.75,161.046 
  2093.83,132.062 2098.91,180.825 2103.99,149.475 2109.07,172.089 2114.15,133.301 2119.23,120.621 2124.31,104.353 2129.39,104.909 2134.47,174.29 2139.55,140.773 
  2144.63,137.327 2149.71,252.174 2154.79,182.763 2159.87,200.283 2164.95,184.011 2170.03,149.024 2175.11,89.9553 2180.19,109.164 2185.27,129.237 2190.35,130.363 
  2195.43,130.954 2200.51,143.836 2205.59,140.439 2210.67,85.838 2215.75,121.648 2220.83,140.88 2225.91,109.683 2230.99,144.271 2236.07,185.878 2241.15,182.394 
  2246.23,186.847 2251.31,142.479 2256.39,169.342 2261.47,172.52 2266.55,180.563 2271.63,131.971 2276.71,165.652 2281.79,162.319 2286.87,144.665 2291.95,221.09 
  
  "/>
</svg>
