<?xml version="1.0" encoding="utf-8"?>
<svg xmlns="http://www.w3.org/2000/svg" xmlns:xlink="http://www.w3.org/1999/xlink" width="600" height="400" viewBox="0 0 2400 1600">
<defs>
  <clipPath id="clip770">
    <rect x="0" y="0" width="2400" height="1600"/>
  </clipPath>
</defs>
<path clip-path="url(#clip770)" d="
M0 1600 L2400 1600 L2400 0 L0 0  Z
  " fill="#ffffff" fill-rule="evenodd" fill-opacity="1"/>
<defs>
  <clipPath id="clip771">
    <rect x="480" y="0" width="1681" height="1600"/>
  </clipPath>
</defs>
<path clip-path="url(#clip770)" d="
M249.542 1410.9 L2352.76 1410.9 L2352.76 47.2441 L249.542 47.2441  Z
  " fill="#ffffff" fill-rule="evenodd" fill-opacity="1"/>
<defs>
  <clipPath id="clip772">
    <rect x="249" y="47" width="2104" height="1365"/>
  </clipPath>
</defs>
<polyline clip-path="url(#clip772)" style="stroke:#000000; stroke-linecap:round; stroke-linejoin:round; stroke-width:2; stroke-opacity:0.1; fill:none" points="
  304.094,1410.9 304.094,47.2441 
  "/>
<polyline clip-path="url(#clip772)" style="stroke:#000000; stroke-linecap:round; stroke-linejoin:round; stroke-width:2; stroke-opacity:0.1; fill:none" points="
  801.378,1410.9 801.378,47.2441 
  "/>
<polyline clip-path="url(#clip772)" style="stroke:#000000; stroke-linecap:round; stroke-linejoin:round; stroke-width:2; stroke-opacity:0.1; fill:none" points="
  1298.66,1410.9 1298.66,47.2441 
  "/>
<polyline clip-path="url(#clip772)" style="stroke:#000000; stroke-linecap:round; stroke-linejoin:round; stroke-width:2; stroke-opacity:0.1; fill:none" points="
  1795.95,1410.9 1795.95,47.2441 
  "/>
<polyline clip-path="url(#clip772)" style="stroke:#000000; stroke-linecap:round; stroke-linejoin:round; stroke-width:2; stroke-opacity:0.1; fill:none" points="
  2293.23,1410.9 2293.23,47.2441 
  "/>
<polyline clip-path="url(#clip770)" style="stroke:#000000; stroke-linecap:round; stroke-linejoin:round; stroke-width:4; stroke-opacity:1; fill:none" points="
  249.542,1410.9 2352.76,1410.9 
  "/>
<polyline clip-path="url(#clip770)" style="stroke:#000000; stroke-linecap:round; stroke-linejoin:round; stroke-width:4; stroke-opacity:1; fill:none" points="
  304.094,1410.9 304.094,1392 
  "/>
<polyline clip-path="url(#clip770)" style="stroke:#000000; stroke-linecap:round; stroke-linejoin:round; stroke-width:4; stroke-opacity:1; fill:none" points="
  801.378,1410.9 801.378,1392 
  "/>
<polyline clip-path="url(#clip770)" style="stroke:#000000; stroke-linecap:round; stroke-linejoin:round; stroke-width:4; stroke-opacity:1; fill:none" points="
  1298.66,1410.9 1298.66,1392 
  "/>
<polyline clip-path="url(#clip770)" style="stroke:#000000; stroke-linecap:round; stroke-linejoin:round; stroke-width:4; stroke-opacity:1; fill:none" points="
  1795.95,1410.9 1795.95,1392 
  "/>
<polyline clip-path="url(#clip770)" style="stroke:#000000; stroke-linecap:round; stroke-linejoin:round; stroke-width:4; stroke-opacity:1; fill:none" points="
  2293.23,1410.9 2293.23,1392 
  "/>
<path clip-path="url(#clip770)" d="M304.094 1441.82 Q300.483 1441.82 298.654 1445.38 Q296.849 1448.92 296.849 1456.05 Q296.849 1463.16 298.654 1466.72 Q300.483 1470.26 304.094 1470.26 Q307.728 1470.26 309.534 1466.72 Q311.363 1463.16 311.363 1456.05 Q311.363 1448.92 309.534 1445.38 Q307.728 1441.82 304.094 1441.82 M304.094 1438.11 Q309.904 1438.11 312.96 1442.72 Q316.038 1447.3 316.038 1456.05 Q316.038 1464.78 312.96 1469.38 Q309.904 1473.97 304.094 1473.97 Q298.284 1473.97 295.205 1469.38 Q292.15 1464.78 292.15 1456.05 Q292.15 1447.3 295.205 1442.72 Q298.284 1438.11 304.094 1438.11 Z" fill="#000000" fill-rule="evenodd" fill-opacity="1" /><path clip-path="url(#clip770)" d="M709.481 1485.02 L717.12 1485.02 L717.12 1458.66 L708.809 1460.32 L708.809 1456.06 L717.073 1454.4 L721.749 1454.4 L721.749 1485.02 L729.388 1485.02 L729.388 1488.96 L709.481 1488.96 L709.481 1485.02 Z" fill="#000000" fill-rule="evenodd" fill-opacity="1" /><path clip-path="url(#clip770)" d="M738.832 1483.08 L743.717 1483.08 L743.717 1488.96 L738.832 1488.96 L738.832 1483.08 Z" fill="#000000" fill-rule="evenodd" fill-opacity="1" /><path clip-path="url(#clip770)" d="M763.902 1457.48 Q760.291 1457.48 758.462 1461.04 Q756.656 1464.58 756.656 1471.71 Q756.656 1478.82 758.462 1482.38 Q760.291 1485.92 763.902 1485.92 Q767.536 1485.92 769.341 1482.38 Q771.17 1478.82 771.17 1471.71 Q771.17 1464.58 769.341 1461.04 Q767.536 1457.48 763.902 1457.48 M763.902 1453.77 Q769.712 1453.77 772.767 1458.38 Q775.846 1462.96 775.846 1471.71 Q775.846 1480.44 772.767 1485.04 Q769.712 1489.63 763.902 1489.63 Q758.092 1489.63 755.013 1485.04 Q751.957 1480.44 751.957 1471.71 Q751.957 1462.96 755.013 1458.38 Q758.092 1453.77 763.902 1453.77 Z" fill="#000000" fill-rule="evenodd" fill-opacity="1" /><path clip-path="url(#clip770)" d="M812.235 1463.49 L801.656 1474.12 L812.235 1484.7 L809.48 1487.5 L798.855 1476.87 L788.23 1487.5 L785.499 1484.7 L796.054 1474.12 L785.499 1463.49 L788.23 1460.69 L798.855 1471.32 L809.48 1460.69 L812.235 1463.49 Z" fill="#000000" fill-rule="evenodd" fill-opacity="1" /><path clip-path="url(#clip770)" d="M824.596 1485.02 L832.235 1485.02 L832.235 1458.66 L823.925 1460.32 L823.925 1456.06 L832.188 1454.4 L836.864 1454.4 L836.864 1485.02 L844.503 1485.02 L844.503 1488.96 L824.596 1488.96 L824.596 1485.02 Z" fill="#000000" fill-rule="evenodd" fill-opacity="1" /><path clip-path="url(#clip770)" d="M863.947 1457.48 Q860.336 1457.48 858.508 1461.04 Q856.702 1464.58 856.702 1471.71 Q856.702 1478.82 858.508 1482.38 Q860.336 1485.92 863.947 1485.92 Q867.582 1485.92 869.387 1482.38 Q871.216 1478.82 871.216 1471.71 Q871.216 1464.58 869.387 1461.04 Q867.582 1457.48 863.947 1457.48 M863.947 1453.77 Q869.758 1453.77 872.813 1458.38 Q875.892 1462.96 875.892 1471.71 Q875.892 1480.44 872.813 1485.04 Q869.758 1489.63 863.947 1489.63 Q858.137 1489.63 855.059 1485.04 Q852.003 1480.44 852.003 1471.71 Q852.003 1462.96 855.059 1458.38 Q858.137 1453.77 863.947 1453.77 Z" fill="#000000" fill-rule="evenodd" fill-opacity="1" /><path clip-path="url(#clip770)" d="M875.892 1433.47 L893.947 1433.47 L893.947 1435.08 L883.753 1461.55 L879.785 1461.55 L889.377 1436.66 L875.892 1436.66 L875.892 1433.47 Z" fill="#000000" fill-rule="evenodd" fill-opacity="1" /><path clip-path="url(#clip770)" d="M1210.85 1485.02 L1227.17 1485.02 L1227.17 1488.96 L1205.23 1488.96 L1205.23 1485.02 Q1207.89 1482.27 1212.47 1477.64 Q1217.08 1472.98 1218.26 1471.64 Q1220.5 1469.12 1221.38 1467.38 Q1222.29 1465.62 1222.29 1463.93 Q1222.29 1461.18 1220.34 1459.44 Q1218.42 1457.71 1215.32 1457.71 Q1213.12 1457.71 1210.67 1458.47 Q1208.23 1459.23 1205.46 1460.79 L1205.46 1456.06 Q1208.28 1454.93 1210.73 1454.35 Q1213.19 1453.77 1215.23 1453.77 Q1220.6 1453.77 1223.79 1456.46 Q1226.98 1459.14 1226.98 1463.63 Q1226.98 1465.76 1226.17 1467.68 Q1225.39 1469.58 1223.28 1472.17 Q1222.7 1472.85 1219.6 1476.06 Q1216.5 1479.26 1210.85 1485.02 Z" fill="#000000" fill-rule="evenodd" fill-opacity="1" /><path clip-path="url(#clip770)" d="M1236.98 1483.08 L1241.87 1483.08 L1241.87 1488.96 L1236.98 1488.96 L1236.98 1483.08 Z" fill="#000000" fill-rule="evenodd" fill-opacity="1" /><path clip-path="url(#clip770)" d="M1262.05 1457.48 Q1258.44 1457.48 1256.61 1461.04 Q1254.81 1464.58 1254.81 1471.71 Q1254.81 1478.82 1256.61 1482.38 Q1258.44 1485.92 1262.05 1485.92 Q1265.69 1485.92 1267.49 1482.38 Q1269.32 1478.82 1269.32 1471.71 Q1269.32 1464.58 1267.49 1461.04 Q1265.69 1457.48 1262.05 1457.48 M1262.05 1453.77 Q1267.86 1453.77 1270.92 1458.38 Q1274 1462.96 1274 1471.71 Q1274 1480.44 1270.92 1485.04 Q1267.86 1489.63 1262.05 1489.63 Q1256.24 1489.63 1253.17 1485.04 Q1250.11 1480.44 1250.11 1471.71 Q1250.11 1462.96 1253.17 1458.38 Q1256.24 1453.77 1262.05 1453.77 Z" fill="#000000" fill-rule="evenodd" fill-opacity="1" /><path clip-path="url(#clip770)" d="M1310.39 1463.49 L1299.81 1474.12 L1310.39 1484.7 L1307.63 1487.5 L1297.01 1476.87 L1286.38 1487.5 L1283.65 1484.7 L1294.21 1474.12 L1283.65 1463.49 L1286.38 1460.69 L1297.01 1471.32 L1307.63 1460.69 L1310.39 1463.49 Z" fill="#000000" fill-rule="evenodd" fill-opacity="1" /><path clip-path="url(#clip770)" d="M1322.75 1485.02 L1330.39 1485.02 L1330.39 1458.66 L1322.08 1460.32 L1322.08 1456.06 L1330.34 1454.4 L1335.02 1454.4 L1335.02 1485.02 L1342.66 1485.02 L1342.66 1488.96 L1322.75 1488.96 L1322.75 1485.02 Z" fill="#000000" fill-rule="evenodd" fill-opacity="1" /><path clip-path="url(#clip770)" d="M1362.1 1457.48 Q1358.49 1457.48 1356.66 1461.04 Q1354.85 1464.58 1354.85 1471.71 Q1354.85 1478.82 1356.66 1482.38 Q1358.49 1485.92 1362.1 1485.92 Q1365.73 1485.92 1367.54 1482.38 Q1369.37 1478.82 1369.37 1471.71 Q1369.37 1464.58 1367.54 1461.04 Q1365.73 1457.48 1362.1 1457.48 M1362.1 1453.77 Q1367.91 1453.77 1370.97 1458.38 Q1374.04 1462.96 1374.04 1471.71 Q1374.04 1480.44 1370.97 1485.04 Q1367.91 1489.63 1362.1 1489.63 Q1356.29 1489.63 1353.21 1485.04 Q1350.16 1480.44 1350.16 1471.71 Q1350.16 1462.96 1353.21 1458.38 Q1356.29 1453.77 1362.1 1453.77 Z" fill="#000000" fill-rule="evenodd" fill-opacity="1" /><path clip-path="url(#clip770)" d="M1374.04 1433.47 L1392.1 1433.47 L1392.1 1435.08 L1381.91 1461.55 L1377.94 1461.55 L1387.53 1436.66 L1374.04 1436.66 L1374.04 1433.47 Z" fill="#000000" fill-rule="evenodd" fill-opacity="1" /><path clip-path="url(#clip770)" d="M1718.2 1470.32 Q1721.56 1471.04 1723.44 1473.31 Q1725.33 1475.58 1725.33 1478.91 Q1725.33 1484.03 1721.82 1486.83 Q1718.3 1489.63 1711.82 1489.63 Q1709.64 1489.63 1707.32 1489.19 Q1705.03 1488.77 1702.58 1487.91 L1702.58 1483.4 Q1704.52 1484.54 1706.84 1485.11 Q1709.15 1485.69 1711.68 1485.69 Q1716.07 1485.69 1718.37 1483.96 Q1720.68 1482.22 1720.68 1478.91 Q1720.68 1475.85 1718.53 1474.14 Q1716.4 1472.41 1712.58 1472.41 L1708.55 1472.41 L1708.55 1468.56 L1712.76 1468.56 Q1716.21 1468.56 1718.04 1467.2 Q1719.87 1465.81 1719.87 1463.22 Q1719.87 1460.55 1717.97 1459.14 Q1716.1 1457.71 1712.58 1457.71 Q1710.66 1457.71 1708.46 1458.12 Q1706.26 1458.54 1703.62 1459.42 L1703.62 1455.25 Q1706.28 1454.51 1708.6 1454.14 Q1710.94 1453.77 1713 1453.77 Q1718.32 1453.77 1721.42 1456.2 Q1724.52 1458.61 1724.52 1462.73 Q1724.52 1465.6 1722.88 1467.59 Q1721.24 1469.56 1718.2 1470.32 Z" fill="#000000" fill-rule="evenodd" fill-opacity="1" /><path clip-path="url(#clip770)" d="M1734.2 1483.08 L1739.08 1483.08 L1739.08 1488.96 L1734.2 1488.96 L1734.2 1483.08 Z" fill="#000000" fill-rule="evenodd" fill-opacity="1" /><path clip-path="url(#clip770)" d="M1759.27 1457.48 Q1755.66 1457.48 1753.83 1461.04 Q1752.02 1464.58 1752.02 1471.71 Q1752.02 1478.82 1753.83 1482.38 Q1755.66 1485.92 1759.27 1485.92 Q1762.9 1485.92 1764.71 1482.38 Q1766.54 1478.82 1766.54 1471.71 Q1766.54 1464.58 1764.71 1461.04 Q1762.9 1457.48 1759.27 1457.48 M1759.27 1453.77 Q1765.08 1453.77 1768.13 1458.38 Q1771.21 1462.96 1771.21 1471.71 Q1771.21 1480.44 1768.13 1485.04 Q1765.08 1489.63 1759.27 1489.63 Q1753.46 1489.63 1750.38 1485.04 Q1747.32 1480.44 1747.32 1471.71 Q1747.32 1462.96 1750.38 1458.38 Q1753.46 1453.77 1759.27 1453.77 Z" fill="#000000" fill-rule="evenodd" fill-opacity="1" /><path clip-path="url(#clip770)" d="M1807.6 1463.49 L1797.02 1474.12 L1807.6 1484.7 L1804.85 1487.5 L1794.22 1476.87 L1783.6 1487.5 L1780.87 1484.7 L1791.42 1474.12 L1780.87 1463.49 L1783.6 1460.69 L1794.22 1471.32 L1804.85 1460.69 L1807.6 1463.49 Z" fill="#000000" fill-rule="evenodd" fill-opacity="1" /><path clip-path="url(#clip770)" d="M1819.96 1485.02 L1827.6 1485.02 L1827.6 1458.66 L1819.29 1460.32 L1819.29 1456.06 L1827.56 1454.4 L1832.23 1454.4 L1832.23 1485.02 L1839.87 1485.02 L1839.87 1488.96 L1819.96 1488.96 L1819.96 1485.02 Z" fill="#000000" fill-rule="evenodd" fill-opacity="1" /><path clip-path="url(#clip770)" d="M1859.31 1457.48 Q1855.7 1457.48 1853.87 1461.04 Q1852.07 1464.58 1852.07 1471.71 Q1852.07 1478.82 1853.87 1482.38 Q1855.7 1485.92 1859.31 1485.92 Q1862.95 1485.92 1864.75 1482.38 Q1866.58 1478.82 1866.58 1471.71 Q1866.58 1464.58 1864.75 1461.04 Q1862.95 1457.48 1859.31 1457.48 M1859.31 1453.77 Q1865.12 1453.77 1868.18 1458.38 Q1871.26 1462.96 1871.26 1471.71 Q1871.26 1480.44 1868.18 1485.04 Q1865.12 1489.63 1859.31 1489.63 Q1853.5 1489.63 1850.43 1485.04 Q1847.37 1480.44 1847.37 1471.71 Q1847.37 1462.96 1850.43 1458.38 Q1853.5 1453.77 1859.31 1453.77 Z" fill="#000000" fill-rule="evenodd" fill-opacity="1" /><path clip-path="url(#clip770)" d="M1871.26 1433.47 L1889.31 1433.47 L1889.31 1435.08 L1879.12 1461.55 L1875.15 1461.55 L1884.74 1436.66 L1871.26 1436.66 L1871.26 1433.47 Z" fill="#000000" fill-rule="evenodd" fill-opacity="1" /><path clip-path="url(#clip770)" d="M2214.82 1458.47 L2203.01 1476.92 L2214.82 1476.92 L2214.82 1458.47 M2213.59 1454.4 L2219.47 1454.4 L2219.47 1476.92 L2224.4 1476.92 L2224.4 1480.81 L2219.47 1480.81 L2219.47 1488.96 L2214.82 1488.96 L2214.82 1480.81 L2199.22 1480.81 L2199.22 1476.29 L2213.59 1454.4 Z" fill="#000000" fill-rule="evenodd" fill-opacity="1" /><path clip-path="url(#clip770)" d="M2232.13 1483.08 L2237.02 1483.08 L2237.02 1488.96 L2232.13 1488.96 L2232.13 1483.08 Z" fill="#000000" fill-rule="evenodd" fill-opacity="1" /><path clip-path="url(#clip770)" d="M2257.2 1457.48 Q2253.59 1457.48 2251.76 1461.04 Q2249.96 1464.58 2249.96 1471.71 Q2249.96 1478.82 2251.76 1482.38 Q2253.59 1485.92 2257.2 1485.92 Q2260.84 1485.92 2262.64 1482.38 Q2264.47 1478.82 2264.47 1471.71 Q2264.47 1464.58 2262.64 1461.04 Q2260.84 1457.48 2257.2 1457.48 M2257.2 1453.77 Q2263.01 1453.77 2266.07 1458.38 Q2269.15 1462.96 2269.15 1471.71 Q2269.15 1480.44 2266.07 1485.04 Q2263.01 1489.63 2257.2 1489.63 Q2251.39 1489.63 2248.31 1485.04 Q2245.26 1480.44 2245.26 1471.71 Q2245.26 1462.96 2248.31 1458.38 Q2251.39 1453.77 2257.2 1453.77 Z" fill="#000000" fill-rule="evenodd" fill-opacity="1" /><path clip-path="url(#clip770)" d="M2305.53 1463.49 L2294.96 1474.12 L2305.53 1484.7 L2302.78 1487.5 L2292.15 1476.87 L2281.53 1487.5 L2278.8 1484.7 L2289.35 1474.12 L2278.8 1463.49 L2281.53 1460.69 L2292.15 1471.32 L2302.78 1460.69 L2305.53 1463.49 Z" fill="#000000" fill-rule="evenodd" fill-opacity="1" /><path clip-path="url(#clip770)" d="M2317.9 1485.02 L2325.53 1485.02 L2325.53 1458.66 L2317.22 1460.32 L2317.22 1456.06 L2325.49 1454.4 L2330.16 1454.4 L2330.16 1485.02 L2337.8 1485.02 L2337.8 1488.96 L2317.9 1488.96 L2317.9 1485.02 Z" fill="#000000" fill-rule="evenodd" fill-opacity="1" /><path clip-path="url(#clip770)" d="M2357.25 1457.48 Q2353.64 1457.48 2351.81 1461.04 Q2350 1464.58 2350 1471.71 Q2350 1478.82 2351.81 1482.38 Q2353.64 1485.92 2357.25 1485.92 Q2360.88 1485.92 2362.69 1482.38 Q2364.52 1478.82 2364.52 1471.71 Q2364.52 1464.58 2362.69 1461.04 Q2360.88 1457.48 2357.25 1457.48 M2357.25 1453.77 Q2363.06 1453.77 2366.11 1458.38 Q2369.19 1462.96 2369.19 1471.71 Q2369.19 1480.44 2366.11 1485.04 Q2363.06 1489.63 2357.25 1489.63 Q2351.44 1489.63 2348.36 1485.04 Q2345.3 1480.44 2345.3 1471.71 Q2345.3 1462.96 2348.36 1458.38 Q2351.44 1453.77 2357.25 1453.77 Z" fill="#000000" fill-rule="evenodd" fill-opacity="1" /><path clip-path="url(#clip770)" d="M2369.19 1433.47 L2387.25 1433.47 L2387.25 1435.08 L2377.05 1461.55 L2373.08 1461.55 L2382.68 1436.66 L2369.19 1436.66 L2369.19 1433.47 Z" fill="#000000" fill-rule="evenodd" fill-opacity="1" /><path clip-path="url(#clip770)" d="M1150.71 1526.67 L1157.14 1526.67 L1157.14 1574.19 L1150.71 1574.19 L1150.71 1526.67 Z" fill="#000000" fill-rule="evenodd" fill-opacity="1" /><path clip-path="url(#clip770)" d="M1175.47 1528.42 L1175.47 1538.54 L1187.54 1538.54 L1187.54 1543.09 L1175.47 1543.09 L1175.47 1562.44 Q1175.47 1566.8 1176.65 1568.04 Q1177.86 1569.28 1181.52 1569.28 L1187.54 1569.28 L1187.54 1574.19 L1181.52 1574.19 Q1174.74 1574.19 1172.16 1571.67 Q1169.59 1569.12 1169.59 1562.44 L1169.59 1543.09 L1165.29 1543.09 L1165.29 1538.54 L1169.59 1538.54 L1169.59 1528.42 L1175.47 1528.42 Z" fill="#000000" fill-rule="evenodd" fill-opacity="1" /><path clip-path="url(#clip770)" d="M1225.73 1554.9 L1225.73 1557.76 L1198.8 1557.76 Q1199.19 1563.81 1202.43 1566.99 Q1205.71 1570.14 1211.54 1570.14 Q1214.91 1570.14 1218.06 1569.32 Q1221.24 1568.49 1224.36 1566.83 L1224.36 1572.37 Q1221.21 1573.71 1217.9 1574.41 Q1214.59 1575.11 1211.19 1575.11 Q1202.66 1575.11 1197.66 1570.14 Q1192.69 1565.18 1192.69 1556.71 Q1192.69 1547.96 1197.4 1542.83 Q1202.15 1537.68 1210.17 1537.68 Q1217.36 1537.68 1221.53 1542.33 Q1225.73 1546.94 1225.73 1554.9 M1219.87 1553.18 Q1219.81 1548.37 1217.17 1545.51 Q1214.56 1542.64 1210.23 1542.64 Q1205.33 1542.64 1202.37 1545.41 Q1199.44 1548.18 1199 1553.21 L1219.87 1553.18 Z" fill="#000000" fill-rule="evenodd" fill-opacity="1" /><path clip-path="url(#clip770)" d="M1256 1544.01 Q1255.01 1543.44 1253.84 1543.18 Q1252.69 1542.9 1251.29 1542.9 Q1246.32 1542.9 1243.65 1546.14 Q1241.01 1549.36 1241.01 1555.41 L1241.01 1574.19 L1235.12 1574.19 L1235.12 1538.54 L1241.01 1538.54 L1241.01 1544.08 Q1242.86 1540.83 1245.82 1539.27 Q1248.78 1537.68 1253.01 1537.68 Q1253.61 1537.68 1254.35 1537.77 Q1255.08 1537.84 1255.97 1538 L1256 1544.01 Z" fill="#000000" fill-rule="evenodd" fill-opacity="1" /><path clip-path="url(#clip770)" d="M1278.34 1556.27 Q1271.25 1556.27 1268.51 1557.89 Q1265.77 1559.51 1265.77 1563.43 Q1265.77 1566.55 1267.81 1568.39 Q1269.88 1570.21 1273.41 1570.21 Q1278.28 1570.21 1281.21 1566.77 Q1284.17 1563.3 1284.17 1557.57 L1284.17 1556.27 L1278.34 1556.27 M1290.02 1553.85 L1290.02 1574.19 L1284.17 1574.19 L1284.17 1568.77 Q1282.16 1572.02 1279.17 1573.58 Q1276.18 1575.11 1271.85 1575.11 Q1266.38 1575.11 1263.13 1572.05 Q1259.92 1568.97 1259.92 1563.81 Q1259.92 1557.79 1263.93 1554.74 Q1267.97 1551.68 1275.96 1551.68 L1284.17 1551.68 L1284.17 1551.11 Q1284.17 1547.07 1281.49 1544.87 Q1278.85 1542.64 1274.05 1542.64 Q1270.99 1542.64 1268.1 1543.38 Q1265.2 1544.11 1262.53 1545.57 L1262.53 1540.16 Q1265.74 1538.92 1268.76 1538.31 Q1271.79 1537.68 1274.65 1537.68 Q1282.39 1537.68 1286.21 1541.69 Q1290.02 1545.7 1290.02 1553.85 Z" fill="#000000" fill-rule="evenodd" fill-opacity="1" /><path clip-path="url(#clip770)" d="M1307.88 1528.42 L1307.88 1538.54 L1319.94 1538.54 L1319.94 1543.09 L1307.88 1543.09 L1307.88 1562.44 Q1307.88 1566.8 1309.06 1568.04 Q1310.27 1569.28 1313.93 1569.28 L1319.94 1569.28 L1319.94 1574.19 L1313.93 1574.19 Q1307.15 1574.19 1304.57 1571.67 Q1301.99 1569.12 1301.99 1562.44 L1301.99 1543.09 L1297.7 1543.09 L1297.7 1538.54 L1301.99 1538.54 L1301.99 1528.42 L1307.88 1528.42 Z" fill="#000000" fill-rule="evenodd" fill-opacity="1" /><path clip-path="url(#clip770)" d="M1327.65 1538.54 L1333.5 1538.54 L1333.5 1574.19 L1327.65 1574.19 L1327.65 1538.54 M1327.65 1524.66 L1333.5 1524.66 L1333.5 1532.08 L1327.65 1532.08 L1327.65 1524.66 Z" fill="#000000" fill-rule="evenodd" fill-opacity="1" /><path clip-path="url(#clip770)" d="M1359.57 1542.64 Q1354.86 1542.64 1352.12 1546.34 Q1349.39 1550 1349.39 1556.39 Q1349.39 1562.79 1352.09 1566.48 Q1354.83 1570.14 1359.57 1570.14 Q1364.25 1570.14 1366.99 1566.45 Q1369.72 1562.76 1369.72 1556.39 Q1369.72 1550.06 1366.99 1546.37 Q1364.25 1542.64 1359.57 1542.64 M1359.57 1537.68 Q1367.21 1537.68 1371.57 1542.64 Q1375.93 1547.61 1375.93 1556.39 Q1375.93 1565.15 1371.57 1570.14 Q1367.21 1575.11 1359.57 1575.11 Q1351.9 1575.11 1347.54 1570.14 Q1343.21 1565.15 1343.21 1556.39 Q1343.21 1547.61 1347.54 1542.64 Q1351.9 1537.68 1359.57 1537.68 Z" fill="#000000" fill-rule="evenodd" fill-opacity="1" /><path clip-path="url(#clip770)" d="M1415.27 1552.67 L1415.27 1574.19 L1409.41 1574.19 L1409.41 1552.86 Q1409.41 1547.8 1407.44 1545.29 Q1405.47 1542.77 1401.52 1542.77 Q1396.78 1542.77 1394.04 1545.79 Q1391.3 1548.82 1391.3 1554.04 L1391.3 1574.19 L1385.42 1574.19 L1385.42 1538.54 L1391.3 1538.54 L1391.3 1544.08 Q1393.4 1540.86 1396.24 1539.27 Q1399.1 1537.68 1402.83 1537.68 Q1408.97 1537.68 1412.12 1541.5 Q1415.27 1545.29 1415.27 1552.67 Z" fill="#000000" fill-rule="evenodd" fill-opacity="1" /><path clip-path="url(#clip770)" d="M1449.68 1539.59 L1449.68 1545.13 Q1447.19 1543.85 1444.52 1543.22 Q1441.85 1542.58 1438.98 1542.58 Q1434.62 1542.58 1432.43 1543.92 Q1430.26 1545.25 1430.26 1547.93 Q1430.26 1549.96 1431.82 1551.14 Q1433.38 1552.29 1438.09 1553.34 L1440.1 1553.78 Q1446.33 1555.12 1448.94 1557.57 Q1451.59 1559.99 1451.59 1564.35 Q1451.59 1569.32 1447.64 1572.21 Q1443.72 1575.11 1436.85 1575.11 Q1433.99 1575.11 1430.87 1574.54 Q1427.78 1573.99 1424.34 1572.88 L1424.34 1566.83 Q1427.59 1568.52 1430.74 1569.38 Q1433.89 1570.21 1436.98 1570.21 Q1441.11 1570.21 1443.34 1568.81 Q1445.57 1567.37 1445.57 1564.8 Q1445.57 1562.41 1443.95 1561.14 Q1442.36 1559.86 1436.91 1558.68 L1434.88 1558.21 Q1429.43 1557.06 1427.01 1554.71 Q1424.6 1552.32 1424.6 1548.18 Q1424.6 1543.15 1428.16 1540.42 Q1431.73 1537.68 1438.28 1537.68 Q1441.53 1537.68 1444.39 1538.16 Q1447.26 1538.63 1449.68 1539.59 Z" fill="#000000" fill-rule="evenodd" fill-opacity="1" /><polyline clip-path="url(#clip772)" style="stroke:#000000; stroke-linecap:round; stroke-linejoin:round; stroke-width:2; stroke-opacity:0.1; fill:none" points="
  249.542,1348.91 2352.76,1348.91 
  "/>
<polyline clip-path="url(#clip772)" style="stroke:#000000; stroke-linecap:round; stroke-linejoin:round; stroke-width:2; stroke-opacity:0.1; fill:none" points="
  249.542,1038.99 2352.76,1038.99 
  "/>
<polyline clip-path="url(#clip772)" style="stroke:#000000; stroke-linecap:round; stroke-linejoin:round; stroke-width:2; stroke-opacity:0.1; fill:none" points="
  249.542,729.07 2352.76,729.07 
  "/>
<polyline clip-path="url(#clip772)" style="stroke:#000000; stroke-linecap:round; stroke-linejoin:round; stroke-width:2; stroke-opacity:0.1; fill:none" points="
  249.542,419.149 2352.76,419.149 
  "/>
<polyline clip-path="url(#clip772)" style="stroke:#000000; stroke-linecap:round; stroke-linejoin:round; stroke-width:2; stroke-opacity:0.1; fill:none" points="
  249.542,109.228 2352.76,109.228 
  "/>
<polyline clip-path="url(#clip770)" style="stroke:#000000; stroke-linecap:round; stroke-linejoin:round; stroke-width:4; stroke-opacity:1; fill:none" points="
  249.542,1410.9 249.542,47.2441 
  "/>
<polyline clip-path="url(#clip770)" style="stroke:#000000; stroke-linecap:round; stroke-linejoin:round; stroke-width:4; stroke-opacity:1; fill:none" points="
  249.542,1348.91 268.44,1348.91 
  "/>
<polyline clip-path="url(#clip770)" style="stroke:#000000; stroke-linecap:round; stroke-linejoin:round; stroke-width:4; stroke-opacity:1; fill:none" points="
  249.542,1038.99 268.44,1038.99 
  "/>
<polyline clip-path="url(#clip770)" style="stroke:#000000; stroke-linecap:round; stroke-linejoin:round; stroke-width:4; stroke-opacity:1; fill:none" points="
  249.542,729.07 268.44,729.07 
  "/>
<polyline clip-path="url(#clip770)" style="stroke:#000000; stroke-linecap:round; stroke-linejoin:round; stroke-width:4; stroke-opacity:1; fill:none" points="
  249.542,419.149 268.44,419.149 
  "/>
<polyline clip-path="url(#clip770)" style="stroke:#000000; stroke-linecap:round; stroke-linejoin:round; stroke-width:4; stroke-opacity:1; fill:none" points="
  249.542,109.228 268.44,109.228 
  "/>
<path clip-path="url(#clip770)" d="M126.205 1334.71 Q122.593 1334.71 120.765 1338.28 Q118.959 1341.82 118.959 1348.95 Q118.959 1356.05 120.765 1359.62 Q122.593 1363.16 126.205 1363.16 Q129.839 1363.16 131.644 1359.62 Q133.473 1356.05 133.473 1348.95 Q133.473 1341.82 131.644 1338.28 Q129.839 1334.71 126.205 1334.71 M126.205 1331.01 Q132.015 1331.01 135.07 1335.61 Q138.149 1340.2 138.149 1348.95 Q138.149 1357.67 135.07 1362.28 Q132.015 1366.86 126.205 1366.86 Q120.394 1366.86 117.316 1362.28 Q114.26 1357.67 114.26 1348.95 Q114.26 1340.2 117.316 1335.61 Q120.394 1331.01 126.205 1331.01 Z" fill="#000000" fill-rule="evenodd" fill-opacity="1" /><path clip-path="url(#clip770)" d="M146.366 1360.31 L151.251 1360.31 L151.251 1366.19 L146.366 1366.19 L146.366 1360.31 Z" fill="#000000" fill-rule="evenodd" fill-opacity="1" /><path clip-path="url(#clip770)" d="M171.436 1334.71 Q167.825 1334.71 165.996 1338.28 Q164.19 1341.82 164.19 1348.95 Q164.19 1356.05 165.996 1359.62 Q167.825 1363.16 171.436 1363.16 Q175.07 1363.16 176.876 1359.62 Q178.704 1356.05 178.704 1348.95 Q178.704 1341.82 176.876 1338.28 Q175.07 1334.71 171.436 1334.71 M171.436 1331.01 Q177.246 1331.01 180.301 1335.61 Q183.38 1340.2 183.38 1348.95 Q183.38 1357.67 180.301 1362.28 Q177.246 1366.86 171.436 1366.86 Q165.626 1366.86 162.547 1362.28 Q159.491 1357.67 159.491 1348.95 Q159.491 1340.2 162.547 1335.61 Q165.626 1331.01 171.436 1331.01 Z" fill="#000000" fill-rule="evenodd" fill-opacity="1" /><path clip-path="url(#clip770)" d="M201.598 1334.71 Q197.987 1334.71 196.158 1338.28 Q194.352 1341.82 194.352 1348.95 Q194.352 1356.05 196.158 1359.62 Q197.987 1363.16 201.598 1363.16 Q205.232 1363.16 207.037 1359.62 Q208.866 1356.05 208.866 1348.95 Q208.866 1341.82 207.037 1338.28 Q205.232 1334.71 201.598 1334.71 M201.598 1331.01 Q207.408 1331.01 210.463 1335.61 Q213.542 1340.2 213.542 1348.95 Q213.542 1357.67 210.463 1362.28 Q207.408 1366.86 201.598 1366.86 Q195.787 1366.86 192.709 1362.28 Q189.653 1357.67 189.653 1348.95 Q189.653 1340.2 192.709 1335.61 Q195.787 1331.01 201.598 1331.01 Z" fill="#000000" fill-rule="evenodd" fill-opacity="1" /><path clip-path="url(#clip770)" d="M127.2 1024.79 Q123.589 1024.79 121.76 1028.35 Q119.955 1031.9 119.955 1039.03 Q119.955 1046.13 121.76 1049.7 Q123.589 1053.24 127.2 1053.24 Q130.834 1053.24 132.64 1049.7 Q134.468 1046.13 134.468 1039.03 Q134.468 1031.9 132.64 1028.35 Q130.834 1024.79 127.2 1024.79 M127.2 1021.09 Q133.01 1021.09 136.066 1025.69 Q139.144 1030.28 139.144 1039.03 Q139.144 1047.75 136.066 1052.36 Q133.01 1056.94 127.2 1056.94 Q121.39 1056.94 118.311 1052.36 Q115.256 1047.75 115.256 1039.03 Q115.256 1030.28 118.311 1025.69 Q121.39 1021.09 127.2 1021.09 Z" fill="#000000" fill-rule="evenodd" fill-opacity="1" /><path clip-path="url(#clip770)" d="M147.362 1050.39 L152.246 1050.39 L152.246 1056.27 L147.362 1056.27 L147.362 1050.39 Z" fill="#000000" fill-rule="evenodd" fill-opacity="1" /><path clip-path="url(#clip770)" d="M166.459 1052.34 L182.778 1052.34 L182.778 1056.27 L160.834 1056.27 L160.834 1052.34 Q163.496 1049.58 168.079 1044.95 Q172.686 1040.3 173.866 1038.96 Q176.112 1036.43 176.991 1034.7 Q177.894 1032.94 177.894 1031.25 Q177.894 1028.49 175.95 1026.76 Q174.028 1025.02 170.927 1025.02 Q168.727 1025.02 166.274 1025.79 Q163.843 1026.55 161.065 1028.1 L161.065 1023.38 Q163.89 1022.24 166.343 1021.67 Q168.797 1021.09 170.834 1021.09 Q176.204 1021.09 179.399 1023.77 Q182.593 1026.46 182.593 1030.95 Q182.593 1033.08 181.783 1035 Q180.996 1036.9 178.889 1039.49 Q178.311 1040.16 175.209 1043.38 Q172.107 1046.57 166.459 1052.34 Z" fill="#000000" fill-rule="evenodd" fill-opacity="1" /><path clip-path="url(#clip770)" d="M192.639 1021.71 L210.996 1021.71 L210.996 1025.65 L196.922 1025.65 L196.922 1034.12 Q197.94 1033.77 198.959 1033.61 Q199.977 1033.42 200.996 1033.42 Q206.783 1033.42 210.162 1036.6 Q213.542 1039.77 213.542 1045.18 Q213.542 1050.76 210.07 1053.86 Q206.598 1056.94 200.278 1056.94 Q198.102 1056.94 195.834 1056.57 Q193.588 1056.2 191.181 1055.46 L191.181 1050.76 Q193.264 1051.9 195.487 1052.45 Q197.709 1053.01 200.186 1053.01 Q204.19 1053.01 206.528 1050.9 Q208.866 1048.79 208.866 1045.18 Q208.866 1041.57 206.528 1039.47 Q204.19 1037.36 200.186 1037.36 Q198.311 1037.36 196.436 1037.78 Q194.584 1038.19 192.639 1039.07 L192.639 1021.71 Z" fill="#000000" fill-rule="evenodd" fill-opacity="1" /><path clip-path="url(#clip770)" d="M126.205 714.869 Q122.593 714.869 120.765 718.434 Q118.959 721.975 118.959 729.105 Q118.959 736.212 120.765 739.776 Q122.593 743.318 126.205 743.318 Q129.839 743.318 131.644 739.776 Q133.473 736.212 133.473 729.105 Q133.473 721.975 131.644 718.434 Q129.839 714.869 126.205 714.869 M126.205 711.165 Q132.015 711.165 135.07 715.772 Q138.149 720.355 138.149 729.105 Q138.149 737.832 135.07 742.438 Q132.015 747.022 126.205 747.022 Q120.394 747.022 117.316 742.438 Q114.26 737.832 114.26 729.105 Q114.26 720.355 117.316 715.772 Q120.394 711.165 126.205 711.165 Z" fill="#000000" fill-rule="evenodd" fill-opacity="1" /><path clip-path="url(#clip770)" d="M146.366 740.471 L151.251 740.471 L151.251 746.35 L146.366 746.35 L146.366 740.471 Z" fill="#000000" fill-rule="evenodd" fill-opacity="1" /><path clip-path="url(#clip770)" d="M161.482 711.79 L179.839 711.79 L179.839 715.726 L165.765 715.726 L165.765 724.198 Q166.783 723.85 167.802 723.688 Q168.82 723.503 169.839 723.503 Q175.626 723.503 179.005 726.675 Q182.385 729.846 182.385 735.262 Q182.385 740.841 178.913 743.943 Q175.44 747.022 169.121 747.022 Q166.945 747.022 164.677 746.651 Q162.431 746.281 160.024 745.54 L160.024 740.841 Q162.107 741.975 164.329 742.531 Q166.552 743.086 169.028 743.086 Q173.033 743.086 175.371 740.98 Q177.709 738.874 177.709 735.262 Q177.709 731.651 175.371 729.545 Q173.033 727.438 169.028 727.438 Q167.153 727.438 165.278 727.855 Q163.427 728.272 161.482 729.151 L161.482 711.79 Z" fill="#000000" fill-rule="evenodd" fill-opacity="1" /><path clip-path="url(#clip770)" d="M201.598 714.869 Q197.987 714.869 196.158 718.434 Q194.352 721.975 194.352 729.105 Q194.352 736.212 196.158 739.776 Q197.987 743.318 201.598 743.318 Q205.232 743.318 207.037 739.776 Q208.866 736.212 208.866 729.105 Q208.866 721.975 207.037 718.434 Q205.232 714.869 201.598 714.869 M201.598 711.165 Q207.408 711.165 210.463 715.772 Q213.542 720.355 213.542 729.105 Q213.542 737.832 210.463 742.438 Q207.408 747.022 201.598 747.022 Q195.787 747.022 192.709 742.438 Q189.653 737.832 189.653 729.105 Q189.653 720.355 192.709 715.772 Q195.787 711.165 201.598 711.165 Z" fill="#000000" fill-rule="evenodd" fill-opacity="1" /><path clip-path="url(#clip770)" d="M127.2 404.948 Q123.589 404.948 121.76 408.513 Q119.955 412.054 119.955 419.184 Q119.955 426.291 121.76 429.855 Q123.589 433.397 127.2 433.397 Q130.834 433.397 132.64 429.855 Q134.468 426.291 134.468 419.184 Q134.468 412.054 132.64 408.513 Q130.834 404.948 127.2 404.948 M127.2 401.244 Q133.01 401.244 136.066 405.851 Q139.144 410.434 139.144 419.184 Q139.144 427.911 136.066 432.517 Q133.01 437.101 127.2 437.101 Q121.39 437.101 118.311 432.517 Q115.256 427.911 115.256 419.184 Q115.256 410.434 118.311 405.851 Q121.39 401.244 127.2 401.244 Z" fill="#000000" fill-rule="evenodd" fill-opacity="1" /><path clip-path="url(#clip770)" d="M147.362 430.55 L152.246 430.55 L152.246 436.429 L147.362 436.429 L147.362 430.55 Z" fill="#000000" fill-rule="evenodd" fill-opacity="1" /><path clip-path="url(#clip770)" d="M161.251 401.869 L183.473 401.869 L183.473 403.86 L170.927 436.429 L166.042 436.429 L177.848 405.804 L161.251 405.804 L161.251 401.869 Z" fill="#000000" fill-rule="evenodd" fill-opacity="1" /><path clip-path="url(#clip770)" d="M192.639 401.869 L210.996 401.869 L210.996 405.804 L196.922 405.804 L196.922 414.277 Q197.94 413.929 198.959 413.767 Q199.977 413.582 200.996 413.582 Q206.783 413.582 210.162 416.754 Q213.542 419.925 213.542 425.341 Q213.542 430.92 210.07 434.022 Q206.598 437.101 200.278 437.101 Q198.102 437.101 195.834 436.73 Q193.588 436.36 191.181 435.619 L191.181 430.92 Q193.264 432.054 195.487 432.61 Q197.709 433.165 200.186 433.165 Q204.19 433.165 206.528 431.059 Q208.866 428.953 208.866 425.341 Q208.866 421.73 206.528 419.624 Q204.19 417.517 200.186 417.517 Q198.311 417.517 196.436 417.934 Q194.584 418.351 192.639 419.23 L192.639 401.869 Z" fill="#000000" fill-rule="evenodd" fill-opacity="1" /><path clip-path="url(#clip770)" d="M117.015 122.573 L124.654 122.573 L124.654 96.2075 L116.343 97.8742 L116.343 93.615 L124.607 91.9483 L129.283 91.9483 L129.283 122.573 L136.922 122.573 L136.922 126.508 L117.015 126.508 L117.015 122.573 Z" fill="#000000" fill-rule="evenodd" fill-opacity="1" /><path clip-path="url(#clip770)" d="M146.366 120.629 L151.251 120.629 L151.251 126.508 L146.366 126.508 L146.366 120.629 Z" fill="#000000" fill-rule="evenodd" fill-opacity="1" /><path clip-path="url(#clip770)" d="M171.436 95.027 Q167.825 95.027 165.996 98.5918 Q164.19 102.133 164.19 109.263 Q164.19 116.369 165.996 119.934 Q167.825 123.476 171.436 123.476 Q175.07 123.476 176.876 119.934 Q178.704 116.369 178.704 109.263 Q178.704 102.133 176.876 98.5918 Q175.07 95.027 171.436 95.027 M171.436 91.3233 Q177.246 91.3233 180.301 95.9298 Q183.38 100.513 183.38 109.263 Q183.38 117.99 180.301 122.596 Q177.246 127.18 171.436 127.18 Q165.626 127.18 162.547 122.596 Q159.491 117.99 159.491 109.263 Q159.491 100.513 162.547 95.9298 Q165.626 91.3233 171.436 91.3233 Z" fill="#000000" fill-rule="evenodd" fill-opacity="1" /><path clip-path="url(#clip770)" d="M201.598 95.027 Q197.987 95.027 196.158 98.5918 Q194.352 102.133 194.352 109.263 Q194.352 116.369 196.158 119.934 Q197.987 123.476 201.598 123.476 Q205.232 123.476 207.037 119.934 Q208.866 116.369 208.866 109.263 Q208.866 102.133 207.037 98.5918 Q205.232 95.027 201.598 95.027 M201.598 91.3233 Q207.408 91.3233 210.463 95.9298 Q213.542 100.513 213.542 109.263 Q213.542 117.99 210.463 122.596 Q207.408 127.18 201.598 127.18 Q195.787 127.18 192.709 122.596 Q189.653 117.99 189.653 109.263 Q189.653 100.513 192.709 95.9298 Q195.787 91.3233 201.598 91.3233 Z" fill="#000000" fill-rule="evenodd" fill-opacity="1" /><path clip-path="url(#clip770)" d="M18.0438 910.891 L24.314 910.891 Q22.5634 914.551 21.704 917.798 Q20.8447 921.044 20.8447 924.068 Q20.8447 929.32 22.8817 932.184 Q24.9187 935.017 28.6745 935.017 Q31.8255 935.017 33.4488 933.139 Q35.0402 931.229 36.0269 925.946 L36.8226 922.063 Q38.1912 914.869 41.6605 911.464 Q45.098 908.026 50.8908 908.026 Q57.7976 908.026 61.3624 912.673 Q64.9272 917.288 64.9272 926.232 Q64.9272 929.606 64.1633 933.425 Q63.3994 937.213 61.9035 941.287 L55.2831 941.287 Q57.4793 937.372 58.5933 933.616 Q59.7073 929.861 59.7073 926.232 Q59.7073 920.726 57.543 917.734 Q55.3786 914.742 51.3682 914.742 Q47.8671 914.742 45.8937 916.906 Q43.9204 919.039 42.9337 923.941 L42.1698 927.855 Q40.7375 935.049 37.682 938.263 Q34.6264 941.478 29.1837 941.478 Q22.8817 941.478 19.2532 937.054 Q15.6248 932.598 15.6248 924.8 Q15.6248 921.458 16.2295 917.989 Q16.8343 914.519 18.0438 910.891 Z" fill="#000000" fill-rule="evenodd" fill-opacity="1" /><path clip-path="url(#clip770)" d="M49.9359 898.86 L28.3562 898.86 L28.3562 893.003 L49.7131 893.003 Q54.7739 893.003 57.3202 891.03 Q59.8346 889.056 59.8346 885.11 Q59.8346 880.367 56.8109 877.63 Q53.7872 874.861 48.5673 874.861 L28.3562 874.861 L28.3562 869.005 L64.0042 869.005 L64.0042 874.861 L58.5296 874.861 Q61.7762 876.993 63.3676 879.826 Q64.9272 882.627 64.9272 886.351 Q64.9272 892.494 61.1078 895.677 Q57.2883 898.86 49.9359 898.86 M27.4968 884.123 L27.4968 884.123 Z" fill="#000000" fill-rule="evenodd" fill-opacity="1" /><path clip-path="url(#clip770)" d="M29.7248 831.288 L35.1993 831.288 Q33.8307 833.77 33.1623 836.285 Q32.4621 838.767 32.4621 841.314 Q32.4621 847.011 36.0905 850.162 Q39.6872 853.313 46.212 853.313 Q52.7369 853.313 56.3653 850.162 Q59.9619 847.011 59.9619 841.314 Q59.9619 838.767 59.2935 836.285 Q58.5933 833.77 57.2247 831.288 L62.6355 831.288 Q63.7814 833.738 64.3543 836.38 Q64.9272 838.99 64.9272 841.95 Q64.9272 850.003 59.8664 854.745 Q54.8057 859.488 46.212 859.488 Q37.491 859.488 32.4939 854.714 Q27.4968 849.907 27.4968 841.568 Q27.4968 838.863 28.0697 836.285 Q28.6108 833.707 29.7248 831.288 Z" fill="#000000" fill-rule="evenodd" fill-opacity="1" /><path clip-path="url(#clip770)" d="M29.7248 795.449 L35.1993 795.449 Q33.8307 797.931 33.1623 800.446 Q32.4621 802.928 32.4621 805.475 Q32.4621 811.172 36.0905 814.323 Q39.6872 817.474 46.212 817.474 Q52.7369 817.474 56.3653 814.323 Q59.9619 811.172 59.9619 805.475 Q59.9619 802.928 59.2935 800.446 Q58.5933 797.931 57.2247 795.449 L62.6355 795.449 Q63.7814 797.9 64.3543 800.541 Q64.9272 803.151 64.9272 806.111 Q64.9272 814.164 59.8664 818.906 Q54.8057 823.649 46.212 823.649 Q37.491 823.649 32.4939 818.875 Q27.4968 814.068 27.4968 805.729 Q27.4968 803.024 28.0697 800.446 Q28.6108 797.868 29.7248 795.449 Z" fill="#000000" fill-rule="evenodd" fill-opacity="1" /><path clip-path="url(#clip770)" d="M44.7161 754.772 L47.5806 754.772 L47.5806 781.699 Q53.6281 781.317 56.8109 778.07 Q59.9619 774.792 59.9619 768.967 Q59.9619 765.594 59.1344 762.443 Q58.3069 759.26 56.6518 756.141 L62.1899 756.141 Q63.5267 759.292 64.227 762.602 Q64.9272 765.912 64.9272 769.318 Q64.9272 777.848 59.9619 782.845 Q54.9967 787.81 46.5303 787.81 Q37.7774 787.81 32.6531 783.099 Q27.4968 778.357 27.4968 770.336 Q27.4968 763.143 32.1438 758.973 Q36.7589 754.772 44.7161 754.772 M42.9973 760.628 Q38.1912 760.692 35.3266 763.334 Q32.4621 765.944 32.4621 770.272 Q32.4621 775.174 35.2312 778.134 Q38.0002 781.062 43.0292 781.508 L42.9973 760.628 Z" fill="#000000" fill-rule="evenodd" fill-opacity="1" /><path clip-path="url(#clip770)" d="M29.4065 722.434 L34.9447 722.434 Q33.6716 724.917 33.035 727.59 Q32.3984 730.264 32.3984 733.129 Q32.3984 737.489 33.7352 739.685 Q35.072 741.85 37.7456 741.85 Q39.7826 741.85 40.9603 740.29 Q42.1061 738.73 43.1565 734.02 L43.6021 732.015 Q44.9389 725.776 47.3897 723.166 Q49.8086 720.524 54.1691 720.524 Q59.1344 720.524 62.0308 724.471 Q64.9272 728.386 64.9272 735.261 Q64.9272 738.126 64.3543 741.245 Q63.8132 744.332 62.6992 747.77 L56.6518 747.77 Q58.3387 744.523 59.198 741.372 Q60.0256 738.221 60.0256 735.134 Q60.0256 730.996 58.6251 728.768 Q57.1929 726.54 54.6147 726.54 Q52.2276 726.54 50.9545 728.163 Q49.6813 729.755 48.5037 735.197 L48.0262 737.234 Q46.8804 742.677 44.5251 745.096 Q42.138 747.515 38.0002 747.515 Q32.9713 747.515 30.2341 743.95 Q27.4968 740.385 27.4968 733.829 Q27.4968 730.582 27.9743 727.718 Q28.4517 724.853 29.4065 722.434 Z" fill="#000000" fill-rule="evenodd" fill-opacity="1" /><path clip-path="url(#clip770)" d="M29.4065 688.473 L34.9447 688.473 Q33.6716 690.956 33.035 693.629 Q32.3984 696.303 32.3984 699.167 Q32.3984 703.528 33.7352 705.724 Q35.072 707.888 37.7456 707.888 Q39.7826 707.888 40.9603 706.329 Q42.1061 704.769 43.1565 700.059 L43.6021 698.053 Q44.9389 691.815 47.3897 689.205 Q49.8086 686.563 54.1691 686.563 Q59.1344 686.563 62.0308 690.51 Q64.9272 694.425 64.9272 701.3 Q64.9272 704.165 64.3543 707.284 Q63.8132 710.371 62.6992 713.809 L56.6518 713.809 Q58.3387 710.562 59.198 707.411 Q60.0256 704.26 60.0256 701.173 Q60.0256 697.035 58.6251 694.807 Q57.1929 692.579 54.6147 692.579 Q52.2276 692.579 50.9545 694.202 Q49.6813 695.794 48.5037 701.236 L48.0262 703.273 Q46.8804 708.716 44.5251 711.135 Q42.138 713.554 38.0002 713.554 Q32.9713 713.554 30.2341 709.989 Q27.4968 706.424 27.4968 699.868 Q27.4968 696.621 27.9743 693.757 Q28.4517 690.892 29.4065 688.473 Z" fill="#000000" fill-rule="evenodd" fill-opacity="1" /><path clip-path="url(#clip770)" d="M41.7242 633.728 Q42.4244 631.659 44.7161 629.718 Q47.0077 627.744 51.0181 625.771 L64.0042 619.246 L64.0042 626.153 L51.8138 632.232 Q47.0395 634.587 45.48 636.815 Q43.9204 639.012 43.9204 642.831 L43.9204 649.833 L64.0042 649.833 L64.0042 656.263 L16.4842 656.263 L16.4842 641.749 Q16.4842 633.601 19.8898 629.59 Q23.2955 625.58 30.1704 625.58 Q34.6582 625.58 37.6183 627.681 Q40.5784 629.749 41.7242 633.728 M21.7677 649.833 L38.6368 649.833 L38.6368 641.749 Q38.6368 637.102 36.5043 634.747 Q34.34 632.359 30.1704 632.359 Q26.0009 632.359 23.9002 634.747 Q21.7677 637.102 21.7677 641.749 L21.7677 649.833 Z" fill="#000000" fill-rule="evenodd" fill-opacity="1" /><path clip-path="url(#clip770)" d="M46.0847 596.457 Q46.0847 603.555 47.7079 606.292 Q49.3312 609.029 53.2461 609.029 Q56.3653 609.029 58.2114 606.992 Q60.0256 604.923 60.0256 601.39 Q60.0256 596.52 56.5881 593.592 Q53.1188 590.632 47.3897 590.632 L46.0847 590.632 L46.0847 596.457 M43.6657 584.776 L64.0042 584.776 L64.0042 590.632 L58.5933 590.632 Q61.8398 592.637 63.3994 595.629 Q64.9272 598.621 64.9272 602.95 Q64.9272 608.424 61.8716 611.671 Q58.7843 614.886 53.6281 614.886 Q47.6125 614.886 44.5569 610.875 Q41.5014 606.833 41.5014 598.844 L41.5014 590.632 L40.9285 590.632 Q36.8862 590.632 34.6901 593.306 Q32.4621 595.948 32.4621 600.754 Q32.4621 603.809 33.1941 606.706 Q33.9262 609.602 35.3903 612.276 L29.9795 612.276 Q28.7381 609.061 28.1334 606.037 Q27.4968 603.013 27.4968 600.149 Q27.4968 592.415 31.5072 588.595 Q35.5176 584.776 43.6657 584.776 Z" fill="#000000" fill-rule="evenodd" fill-opacity="1" /><path clip-path="url(#clip770)" d="M18.2347 566.92 L28.3562 566.92 L28.3562 554.857 L32.9077 554.857 L32.9077 566.92 L52.2594 566.92 Q56.6199 566.92 57.8613 565.742 Q59.1026 564.533 59.1026 560.872 L59.1026 554.857 L64.0042 554.857 L64.0042 560.872 Q64.0042 567.652 61.4897 570.23 Q58.9434 572.808 52.2594 572.808 L32.9077 572.808 L32.9077 577.105 L28.3562 577.105 L28.3562 572.808 L18.2347 572.808 L18.2347 566.92 Z" fill="#000000" fill-rule="evenodd" fill-opacity="1" /><path clip-path="url(#clip770)" d="M44.7161 516.663 L47.5806 516.663 L47.5806 543.59 Q53.6281 543.208 56.8109 539.961 Q59.9619 536.683 59.9619 530.858 Q59.9619 527.484 59.1344 524.333 Q58.3069 521.15 56.6518 518.031 L62.1899 518.031 Q63.5267 521.182 64.227 524.492 Q64.9272 527.803 64.9272 531.208 Q64.9272 539.738 59.9619 544.735 Q54.9967 549.701 46.5303 549.701 Q37.7774 549.701 32.6531 544.99 Q27.4968 540.248 27.4968 532.227 Q27.4968 525.034 32.1438 520.864 Q36.7589 516.663 44.7161 516.663 M42.9973 522.519 Q38.1912 522.583 35.3266 525.225 Q32.4621 527.834 32.4621 532.163 Q32.4621 537.065 35.2312 540.025 Q38.0002 542.953 43.0292 543.399 L42.9973 522.519 Z" fill="#000000" fill-rule="evenodd" fill-opacity="1" /><polyline clip-path="url(#clip772)" style="stroke:#009af9; stroke-linecap:round; stroke-linejoin:round; stroke-width:4; stroke-opacity:1; fill:none" points="
  309.067,109.228 314.04,115.427 319.013,115.427 323.985,109.228 328.958,109.228 333.931,115.427 338.904,134.022 343.877,115.427 348.85,127.824 353.823,115.427 
  358.795,115.427 363.768,109.228 368.741,115.427 373.714,121.625 378.687,121.625 383.66,115.427 388.632,115.427 393.605,109.228 398.578,115.427 403.551,109.228 
  408.524,109.228 413.497,121.625 418.469,121.625 423.442,134.022 428.415,115.427 433.388,109.228 438.361,109.228 443.334,109.228 448.307,121.625 453.279,109.228 
  458.252,134.022 463.225,109.228 468.198,109.228 473.171,109.228 478.144,115.427 483.116,115.427 488.089,115.427 493.062,115.427 498.035,115.427 503.008,121.625 
  507.981,115.427 512.953,109.228 517.926,115.427 522.899,115.427 527.872,127.824 532.845,109.228 537.818,109.228 542.791,121.625 547.763,115.427 552.736,109.228 
  557.709,109.228 562.682,109.228 567.655,121.625 572.628,109.228 577.6,109.228 582.573,109.228 587.546,115.427 592.519,109.228 597.492,115.427 602.465,109.228 
  607.437,115.427 612.41,121.625 617.383,115.427 622.356,109.228 627.329,109.228 632.302,115.427 637.275,121.625 642.247,109.228 647.22,121.625 652.193,121.625 
  657.166,140.22 662.139,121.625 667.112,134.022 672.084,109.228 677.057,121.625 682.03,121.625 687.003,115.427 691.976,109.228 696.949,115.427 701.921,109.228 
  706.894,109.228 711.867,115.427 716.84,115.427 721.813,115.427 726.786,127.824 731.759,121.625 736.731,134.022 741.704,115.427 746.677,140.22 751.65,115.427 
  756.623,115.427 761.596,115.427 766.568,127.824 771.541,127.824 776.514,121.625 781.487,121.625 786.46,115.427 791.433,115.427 796.405,115.427 801.378,109.228 
  806.351,115.427 811.324,134.022 816.297,127.824 821.27,134.022 826.243,109.228 831.215,134.022 836.188,109.228 841.161,115.427 846.134,115.427 851.107,109.228 
  856.08,127.824 861.052,121.625 866.025,121.625 870.998,140.22 875.971,121.625 880.944,115.427 885.917,121.625 890.889,109.228 895.862,121.625 900.835,127.824 
  905.808,115.427 910.781,127.824 915.754,115.427 920.727,115.427 925.699,134.022 930.672,109.228 935.645,121.625 940.618,109.228 945.591,115.427 950.564,134.022 
  955.536,127.824 960.509,109.228 965.482,109.228 970.455,115.427 975.428,127.824 980.401,115.427 985.373,127.824 990.346,127.824 995.319,121.625 1000.29,121.625 
  1005.26,127.824 1010.24,115.427 1015.21,109.228 1020.18,134.022 1025.16,127.824 1030.13,134.022 1035.1,127.824 1040.07,127.824 1045.05,109.228 1050.02,115.427 
  1054.99,121.625 1059.97,121.625 1064.94,127.824 1069.91,127.824 1074.88,115.427 1079.86,127.824 1084.83,115.427 1089.8,127.824 1094.78,109.228 1099.75,121.625 
  1104.72,121.625 1109.69,134.022 1114.67,115.427 1119.64,109.228 1124.61,109.228 1129.59,115.427 1134.56,127.824 1139.53,115.427 1144.5,127.824 1149.48,121.625 
  1154.45,121.625 1159.42,115.427 1164.4,140.22 1169.37,121.625 1174.34,115.427 1179.31,127.824 1184.29,115.427 1189.26,109.228 1194.23,115.427 1199.21,127.824 
  1204.18,115.427 1209.15,127.824 1214.12,127.824 1219.1,109.228 1224.07,121.625 1229.04,115.427 1234.02,115.427 1238.99,115.427 1243.96,115.427 1248.93,134.022 
  1253.91,115.427 1258.88,134.022 1263.85,121.625 1268.83,134.022 1273.8,109.228 1278.77,127.824 1283.74,115.427 1288.72,127.824 1293.69,121.625 1298.66,115.427 
  1303.64,115.427 1308.61,109.228 1313.58,134.022 1318.55,115.427 1323.53,115.427 1328.5,115.427 1333.47,134.022 1338.45,115.427 1343.42,127.824 1348.39,127.824 
  1353.36,127.824 1358.34,109.228 1363.31,127.824 1368.28,115.427 1373.26,121.625 1378.23,121.625 1383.2,115.427 1388.17,115.427 1393.15,134.022 1398.12,127.824 
  1403.09,134.022 1408.07,121.625 1413.04,121.625 1418.01,121.625 1422.98,121.625 1427.96,115.427 1432.93,121.625 1437.9,109.228 1442.87,127.824 1447.85,127.824 
  1452.82,127.824 1457.79,121.625 1462.77,134.022 1467.74,140.22 1472.71,121.625 1477.68,109.228 1482.66,115.427 1487.63,121.625 1492.6,115.427 1497.58,115.427 
  1502.55,109.228 1507.52,121.625 1512.49,115.427 1517.47,109.228 1522.44,146.419 1527.41,115.427 1532.39,146.419 1537.36,115.427 1542.33,115.427 1547.3,109.228 
  1552.28,121.625 1557.25,109.228 1562.22,134.022 1567.2,121.625 1572.17,115.427 1577.14,115.427 1582.11,127.824 1587.09,121.625 1592.06,140.22 1597.03,115.427 
  1602.01,146.419 1606.98,127.824 1611.95,121.625 1616.92,134.022 1621.9,115.427 1626.87,140.22 1631.84,121.625 1636.82,140.22 1641.79,127.824 1646.76,121.625 
  1651.73,134.022 1656.71,140.22 1661.68,146.419 1666.65,127.824 1671.63,127.824 1676.6,109.228 1681.57,115.427 1686.54,115.427 1691.52,115.427 1696.49,134.022 
  1701.46,109.228 1706.44,127.824 1711.41,109.228 1716.38,121.625 1721.35,121.625 1726.33,109.228 1731.3,115.427 1736.27,121.625 1741.25,127.824 1746.22,127.824 
  1751.19,127.824 1756.16,121.625 1761.14,109.228 1766.11,127.824 1771.08,121.625 1776.06,109.228 1781.03,115.427 1786,140.22 1790.97,121.625 1795.95,115.427 
  1800.92,115.427 1805.89,115.427 1810.87,121.625 1815.84,121.625 1820.81,115.427 1825.78,121.625 1830.76,115.427 1835.73,115.427 1840.7,134.022 1845.68,127.824 
  1850.65,115.427 1855.62,121.625 1860.59,140.22 1865.57,140.22 1870.54,115.427 1875.51,127.824 1880.49,115.427 1885.46,134.022 1890.43,121.625 1895.4,121.625 
  1900.38,127.824 1905.35,115.427 1910.32,127.824 1915.29,121.625 1920.27,109.228 1925.24,115.427 1930.21,127.824 1935.19,140.22 1940.16,127.824 1945.13,115.427 
  1950.1,121.625 1955.08,121.625 1960.05,115.427 1965.02,121.625 1970,109.228 1974.97,127.824 1979.94,127.824 1984.91,121.625 1989.89,121.625 1994.86,127.824 
  1999.83,121.625 2004.81,127.824 2009.78,140.22 2014.75,134.022 2019.72,146.419 2024.7,134.022 2029.67,109.228 2034.64,115.427 2039.62,109.228 2044.59,115.427 
  2049.56,109.228 2054.53,121.625 2059.51,121.625 2064.48,134.022 2069.45,115.427 2074.43,134.022 2079.4,109.228 2084.37,121.625 2089.34,115.427 2094.32,121.625 
  2099.29,134.022 2104.26,140.22 2109.24,115.427 2114.21,127.824 2119.18,121.625 2124.15,115.427 2129.13,127.824 2134.1,115.427 2139.07,134.022 2144.05,115.427 
  2149.02,127.824 2153.99,140.22 2158.96,121.625 2163.94,121.625 2168.91,115.427 2173.88,134.022 2178.86,109.228 2183.83,127.824 2188.8,115.427 2193.77,127.824 
  2198.75,121.625 2203.72,127.824 2208.69,127.824 2213.67,115.427 2218.64,121.625 2223.61,115.427 2228.58,134.022 2233.56,121.625 2238.53,121.625 2243.5,127.824 
  2248.48,115.427 2253.45,115.427 2258.42,121.625 2263.39,127.824 2268.37,115.427 2273.34,115.427 2278.31,109.228 2283.29,115.427 2288.26,115.427 2293.23,121.625 
  
  "/>
</svg>
