<?xml version="1.0" encoding="utf-8"?>
<svg xmlns="http://www.w3.org/2000/svg" xmlns:xlink="http://www.w3.org/1999/xlink" width="600" height="400" viewBox="0 0 2400 1600">
<defs>
  <clipPath id="clip200">
    <rect x="0" y="0" width="2400" height="1600"/>
  </clipPath>
</defs>
<path clip-path="url(#clip200)" d="
M0 1600 L2400 1600 L2400 0 L0 0  Z
  " fill="#ffffff" fill-rule="evenodd" fill-opacity="1"/>
<defs>
  <clipPath id="clip201">
    <rect x="480" y="0" width="1681" height="1600"/>
  </clipPath>
</defs>
<path clip-path="url(#clip200)" d="
M249.195 1410.9 L2352.76 1410.9 L2352.76 47.2441 L249.195 47.2441  Z
  " fill="#ffffff" fill-rule="evenodd" fill-opacity="1"/>
<defs>
  <clipPath id="clip202">
    <rect x="249" y="47" width="2105" height="1365"/>
  </clipPath>
</defs>
<polyline clip-path="url(#clip202)" style="stroke:#000000; stroke-linecap:round; stroke-linejoin:round; stroke-width:2; stroke-opacity:0.1; fill:none" points="
  295.411,1410.9 295.411,47.2441 
  "/>
<polyline clip-path="url(#clip202)" style="stroke:#000000; stroke-linecap:round; stroke-linejoin:round; stroke-width:2; stroke-opacity:0.1; fill:none" points="
  961.348,1410.9 961.348,47.2441 
  "/>
<polyline clip-path="url(#clip202)" style="stroke:#000000; stroke-linecap:round; stroke-linejoin:round; stroke-width:2; stroke-opacity:0.1; fill:none" points="
  1627.28,1410.9 1627.28,47.2441 
  "/>
<polyline clip-path="url(#clip202)" style="stroke:#000000; stroke-linecap:round; stroke-linejoin:round; stroke-width:2; stroke-opacity:0.1; fill:none" points="
  2293.22,1410.9 2293.22,47.2441 
  "/>
<polyline clip-path="url(#clip200)" style="stroke:#000000; stroke-linecap:round; stroke-linejoin:round; stroke-width:4; stroke-opacity:1; fill:none" points="
  249.195,1410.9 2352.76,1410.9 
  "/>
<polyline clip-path="url(#clip200)" style="stroke:#000000; stroke-linecap:round; stroke-linejoin:round; stroke-width:4; stroke-opacity:1; fill:none" points="
  295.411,1410.9 295.411,1392 
  "/>
<polyline clip-path="url(#clip200)" style="stroke:#000000; stroke-linecap:round; stroke-linejoin:round; stroke-width:4; stroke-opacity:1; fill:none" points="
  961.348,1410.9 961.348,1392 
  "/>
<polyline clip-path="url(#clip200)" style="stroke:#000000; stroke-linecap:round; stroke-linejoin:round; stroke-width:4; stroke-opacity:1; fill:none" points="
  1627.28,1410.9 1627.28,1392 
  "/>
<polyline clip-path="url(#clip200)" style="stroke:#000000; stroke-linecap:round; stroke-linejoin:round; stroke-width:4; stroke-opacity:1; fill:none" points="
  2293.22,1410.9 2293.22,1392 
  "/>
<path clip-path="url(#clip200)" d="M295.411 1441.82 Q291.8 1441.82 289.971 1445.38 Q288.165 1448.92 288.165 1456.05 Q288.165 1463.16 289.971 1466.72 Q291.8 1470.26 295.411 1470.26 Q299.045 1470.26 300.851 1466.72 Q302.679 1463.16 302.679 1456.05 Q302.679 1448.92 300.851 1445.38 Q299.045 1441.82 295.411 1441.82 M295.411 1438.11 Q301.221 1438.11 304.277 1442.72 Q307.355 1447.3 307.355 1456.05 Q307.355 1464.78 304.277 1469.38 Q301.221 1473.97 295.411 1473.97 Q289.601 1473.97 286.522 1469.38 Q283.466 1464.78 283.466 1456.05 Q283.466 1447.3 286.522 1442.72 Q289.601 1438.11 295.411 1438.11 Z" fill="#000000" fill-rule="evenodd" fill-opacity="1" /><path clip-path="url(#clip200)" d="M854.324 1454.4 L872.681 1454.4 L872.681 1458.33 L858.607 1458.33 L858.607 1466.8 Q859.625 1466.46 860.644 1466.29 Q861.662 1466.11 862.681 1466.11 Q868.468 1466.11 871.847 1469.28 Q875.227 1472.45 875.227 1477.87 Q875.227 1483.45 871.755 1486.55 Q868.282 1489.63 861.963 1489.63 Q859.787 1489.63 857.519 1489.26 Q855.273 1488.89 852.866 1488.15 L852.866 1483.45 Q854.949 1484.58 857.171 1485.14 Q859.394 1485.69 861.87 1485.69 Q865.875 1485.69 868.213 1483.59 Q870.551 1481.48 870.551 1477.87 Q870.551 1474.26 868.213 1472.15 Q865.875 1470.04 861.87 1470.04 Q859.995 1470.04 858.12 1470.46 Q856.269 1470.88 854.324 1471.76 L854.324 1454.4 Z" fill="#000000" fill-rule="evenodd" fill-opacity="1" /><path clip-path="url(#clip200)" d="M884.44 1483.08 L889.324 1483.08 L889.324 1488.96 L884.44 1488.96 L884.44 1483.08 Z" fill="#000000" fill-rule="evenodd" fill-opacity="1" /><path clip-path="url(#clip200)" d="M909.509 1457.48 Q905.898 1457.48 904.069 1461.04 Q902.264 1464.58 902.264 1471.71 Q902.264 1478.82 904.069 1482.38 Q905.898 1485.92 909.509 1485.92 Q913.143 1485.92 914.949 1482.38 Q916.778 1478.82 916.778 1471.71 Q916.778 1464.58 914.949 1461.04 Q913.143 1457.48 909.509 1457.48 M909.509 1453.77 Q915.319 1453.77 918.375 1458.38 Q921.453 1462.96 921.453 1471.71 Q921.453 1480.44 918.375 1485.04 Q915.319 1489.63 909.509 1489.63 Q903.699 1489.63 900.62 1485.04 Q897.565 1480.44 897.565 1471.71 Q897.565 1462.96 900.62 1458.38 Q903.699 1453.77 909.509 1453.77 Z" fill="#000000" fill-rule="evenodd" fill-opacity="1" /><path clip-path="url(#clip200)" d="M939.671 1457.48 Q936.06 1457.48 934.231 1461.04 Q932.426 1464.58 932.426 1471.71 Q932.426 1478.82 934.231 1482.38 Q936.06 1485.92 939.671 1485.92 Q943.305 1485.92 945.111 1482.38 Q946.939 1478.82 946.939 1471.71 Q946.939 1464.58 945.111 1461.04 Q943.305 1457.48 939.671 1457.48 M939.671 1453.77 Q945.481 1453.77 948.537 1458.38 Q951.615 1462.96 951.615 1471.71 Q951.615 1480.44 948.537 1485.04 Q945.481 1489.63 939.671 1489.63 Q933.861 1489.63 930.782 1485.04 Q927.727 1480.44 927.727 1471.71 Q927.727 1462.96 930.782 1458.38 Q933.861 1453.77 939.671 1453.77 Z" fill="#000000" fill-rule="evenodd" fill-opacity="1" /><path clip-path="url(#clip200)" d="M988.004 1463.49 L977.425 1474.12 L988.004 1484.7 L985.249 1487.5 L974.624 1476.87 L963.999 1487.5 L961.268 1484.7 L971.824 1474.12 L961.268 1463.49 L963.999 1460.69 L974.624 1471.32 L985.249 1460.69 L988.004 1463.49 Z" fill="#000000" fill-rule="evenodd" fill-opacity="1" /><path clip-path="url(#clip200)" d="M1000.37 1485.02 L1008 1485.02 L1008 1458.66 L999.694 1460.32 L999.694 1456.06 L1007.96 1454.4 L1012.63 1454.4 L1012.63 1485.02 L1020.27 1485.02 L1020.27 1488.96 L1000.37 1488.96 L1000.37 1485.02 Z" fill="#000000" fill-rule="evenodd" fill-opacity="1" /><path clip-path="url(#clip200)" d="M1039.72 1457.48 Q1036.11 1457.48 1034.28 1461.04 Q1032.47 1464.58 1032.47 1471.71 Q1032.47 1478.82 1034.28 1482.38 Q1036.11 1485.92 1039.72 1485.92 Q1043.35 1485.92 1045.16 1482.38 Q1046.99 1478.82 1046.99 1471.71 Q1046.99 1464.58 1045.16 1461.04 Q1043.35 1457.48 1039.72 1457.48 M1039.72 1453.77 Q1045.53 1453.77 1048.58 1458.38 Q1051.66 1462.96 1051.66 1471.71 Q1051.66 1480.44 1048.58 1485.04 Q1045.53 1489.63 1039.72 1489.63 Q1033.91 1489.63 1030.83 1485.04 Q1027.77 1480.44 1027.77 1471.71 Q1027.77 1462.96 1030.83 1458.38 Q1033.91 1453.77 1039.72 1453.77 Z" fill="#000000" fill-rule="evenodd" fill-opacity="1" /><path clip-path="url(#clip200)" d="M1052.85 1433.47 L1067.76 1433.47 L1067.76 1436.66 L1056.33 1436.66 L1056.33 1443.55 Q1057.15 1443.27 1057.98 1443.13 Q1058.81 1442.98 1059.64 1442.98 Q1064.34 1442.98 1067.08 1445.56 Q1069.83 1448.14 1069.83 1452.54 Q1069.83 1457.07 1067.01 1459.59 Q1064.19 1462.09 1059.05 1462.09 Q1057.28 1462.09 1055.44 1461.79 Q1053.62 1461.49 1051.66 1460.89 L1051.66 1457.07 Q1053.35 1457.99 1055.16 1458.44 Q1056.96 1458.89 1058.98 1458.89 Q1062.23 1458.89 1064.13 1457.18 Q1066.03 1455.47 1066.03 1452.54 Q1066.03 1449.6 1064.13 1447.89 Q1062.23 1446.18 1058.98 1446.18 Q1057.45 1446.18 1055.93 1446.52 Q1054.43 1446.86 1052.85 1447.57 L1052.85 1433.47 Z" fill="#000000" fill-rule="evenodd" fill-opacity="1" /><path clip-path="url(#clip200)" d="M1519.64 1485.02 L1527.28 1485.02 L1527.28 1458.66 L1518.97 1460.32 L1518.97 1456.06 L1527.23 1454.4 L1531.91 1454.4 L1531.91 1485.02 L1539.55 1485.02 L1539.55 1488.96 L1519.64 1488.96 L1519.64 1485.02 Z" fill="#000000" fill-rule="evenodd" fill-opacity="1" /><path clip-path="url(#clip200)" d="M1548.99 1483.08 L1553.87 1483.08 L1553.87 1488.96 L1548.99 1488.96 L1548.99 1483.08 Z" fill="#000000" fill-rule="evenodd" fill-opacity="1" /><path clip-path="url(#clip200)" d="M1574.06 1457.48 Q1570.45 1457.48 1568.62 1461.04 Q1566.81 1464.58 1566.81 1471.71 Q1566.81 1478.82 1568.62 1482.38 Q1570.45 1485.92 1574.06 1485.92 Q1577.69 1485.92 1579.5 1482.38 Q1581.33 1478.82 1581.33 1471.71 Q1581.33 1464.58 1579.5 1461.04 Q1577.69 1457.48 1574.06 1457.48 M1574.06 1453.77 Q1579.87 1453.77 1582.92 1458.38 Q1586 1462.96 1586 1471.71 Q1586 1480.44 1582.92 1485.04 Q1579.87 1489.63 1574.06 1489.63 Q1568.25 1489.63 1565.17 1485.04 Q1562.11 1480.44 1562.11 1471.71 Q1562.11 1462.96 1565.17 1458.38 Q1568.25 1453.77 1574.06 1453.77 Z" fill="#000000" fill-rule="evenodd" fill-opacity="1" /><path clip-path="url(#clip200)" d="M1604.22 1457.48 Q1600.61 1457.48 1598.78 1461.04 Q1596.98 1464.58 1596.98 1471.71 Q1596.98 1478.82 1598.78 1482.38 Q1600.61 1485.92 1604.22 1485.92 Q1607.86 1485.92 1609.66 1482.38 Q1611.49 1478.82 1611.49 1471.71 Q1611.49 1464.58 1609.66 1461.04 Q1607.86 1457.48 1604.22 1457.48 M1604.22 1453.77 Q1610.03 1453.77 1613.09 1458.38 Q1616.17 1462.96 1616.17 1471.71 Q1616.17 1480.44 1613.09 1485.04 Q1610.03 1489.63 1604.22 1489.63 Q1598.41 1489.63 1595.33 1485.04 Q1592.28 1480.44 1592.28 1471.71 Q1592.28 1462.96 1595.33 1458.38 Q1598.41 1453.77 1604.22 1453.77 Z" fill="#000000" fill-rule="evenodd" fill-opacity="1" /><path clip-path="url(#clip200)" d="M1652.55 1463.49 L1641.98 1474.12 L1652.55 1484.7 L1649.8 1487.5 L1639.17 1476.87 L1628.55 1487.5 L1625.82 1484.7 L1636.37 1474.12 L1625.82 1463.49 L1628.55 1460.69 L1639.17 1471.32 L1649.8 1460.69 L1652.55 1463.49 Z" fill="#000000" fill-rule="evenodd" fill-opacity="1" /><path clip-path="url(#clip200)" d="M1664.92 1485.02 L1672.55 1485.02 L1672.55 1458.66 L1664.24 1460.32 L1664.24 1456.06 L1672.51 1454.4 L1677.18 1454.4 L1677.18 1485.02 L1684.82 1485.02 L1684.82 1488.96 L1664.92 1488.96 L1664.92 1485.02 Z" fill="#000000" fill-rule="evenodd" fill-opacity="1" /><path clip-path="url(#clip200)" d="M1704.27 1457.48 Q1700.66 1457.48 1698.83 1461.04 Q1697.02 1464.58 1697.02 1471.71 Q1697.02 1478.82 1698.83 1482.38 Q1700.66 1485.92 1704.27 1485.92 Q1707.9 1485.92 1709.71 1482.38 Q1711.54 1478.82 1711.54 1471.71 Q1711.54 1464.58 1709.71 1461.04 Q1707.9 1457.48 1704.27 1457.48 M1704.27 1453.77 Q1710.08 1453.77 1713.13 1458.38 Q1716.21 1462.96 1716.21 1471.71 Q1716.21 1480.44 1713.13 1485.04 Q1710.08 1489.63 1704.27 1489.63 Q1698.46 1489.63 1695.38 1485.04 Q1692.32 1480.44 1692.32 1471.71 Q1692.32 1462.96 1695.38 1458.38 Q1698.46 1453.77 1704.27 1453.77 Z" fill="#000000" fill-rule="evenodd" fill-opacity="1" /><path clip-path="url(#clip200)" d="M1726.24 1445.99 Q1723.68 1445.99 1722.17 1447.74 Q1720.69 1449.49 1720.69 1452.54 Q1720.69 1455.57 1722.17 1457.33 Q1723.68 1459.08 1726.24 1459.08 Q1728.79 1459.08 1730.28 1457.33 Q1731.78 1455.57 1731.78 1452.54 Q1731.78 1449.49 1730.28 1447.74 Q1728.79 1445.99 1726.24 1445.99 M1733.78 1434.09 L1733.78 1437.55 Q1732.35 1436.87 1730.88 1436.51 Q1729.43 1436.16 1728 1436.16 Q1724.24 1436.16 1722.25 1438.69 Q1720.27 1441.23 1719.99 1446.37 Q1721.1 1444.73 1722.78 1443.87 Q1724.45 1442.98 1726.46 1442.98 Q1730.69 1442.98 1733.14 1445.56 Q1735.6 1448.12 1735.6 1452.54 Q1735.6 1456.86 1733.04 1459.48 Q1730.49 1462.09 1726.24 1462.09 Q1721.36 1462.09 1718.79 1458.37 Q1716.21 1454.62 1716.21 1447.53 Q1716.21 1440.88 1719.37 1436.93 Q1722.53 1432.96 1727.85 1432.96 Q1729.28 1432.96 1730.73 1433.24 Q1732.2 1433.52 1733.78 1434.09 Z" fill="#000000" fill-rule="evenodd" fill-opacity="1" /><path clip-path="url(#clip200)" d="M2185.57 1485.02 L2193.21 1485.02 L2193.21 1458.66 L2184.9 1460.32 L2184.9 1456.06 L2193.17 1454.4 L2197.84 1454.4 L2197.84 1485.02 L2205.48 1485.02 L2205.48 1488.96 L2185.57 1488.96 L2185.57 1485.02 Z" fill="#000000" fill-rule="evenodd" fill-opacity="1" /><path clip-path="url(#clip200)" d="M2214.93 1483.08 L2219.81 1483.08 L2219.81 1488.96 L2214.93 1488.96 L2214.93 1483.08 Z" fill="#000000" fill-rule="evenodd" fill-opacity="1" /><path clip-path="url(#clip200)" d="M2230.04 1454.4 L2248.4 1454.4 L2248.4 1458.33 L2234.32 1458.33 L2234.32 1466.8 Q2235.34 1466.46 2236.36 1466.29 Q2237.38 1466.11 2238.4 1466.11 Q2244.19 1466.11 2247.57 1469.28 Q2250.94 1472.45 2250.94 1477.87 Q2250.94 1483.45 2247.47 1486.55 Q2244 1489.63 2237.68 1489.63 Q2235.51 1489.63 2233.24 1489.26 Q2230.99 1488.89 2228.58 1488.15 L2228.58 1483.45 Q2230.67 1484.58 2232.89 1485.14 Q2235.11 1485.69 2237.59 1485.69 Q2241.59 1485.69 2243.93 1483.59 Q2246.27 1481.48 2246.27 1477.87 Q2246.27 1474.26 2243.93 1472.15 Q2241.59 1470.04 2237.59 1470.04 Q2235.71 1470.04 2233.84 1470.46 Q2231.99 1470.88 2230.04 1471.76 L2230.04 1454.4 Z" fill="#000000" fill-rule="evenodd" fill-opacity="1" /><path clip-path="url(#clip200)" d="M2270.16 1457.48 Q2266.55 1457.48 2264.72 1461.04 Q2262.91 1464.58 2262.91 1471.71 Q2262.91 1478.82 2264.72 1482.38 Q2266.55 1485.92 2270.16 1485.92 Q2273.79 1485.92 2275.6 1482.38 Q2277.43 1478.82 2277.43 1471.71 Q2277.43 1464.58 2275.6 1461.04 Q2273.79 1457.48 2270.16 1457.48 M2270.16 1453.77 Q2275.97 1453.77 2279.02 1458.38 Q2282.1 1462.96 2282.1 1471.71 Q2282.1 1480.44 2279.02 1485.04 Q2275.97 1489.63 2270.16 1489.63 Q2264.35 1489.63 2261.27 1485.04 Q2258.21 1480.44 2258.21 1471.71 Q2258.21 1462.96 2261.27 1458.38 Q2264.35 1453.77 2270.16 1453.77 Z" fill="#000000" fill-rule="evenodd" fill-opacity="1" /><path clip-path="url(#clip200)" d="M2318.49 1463.49 L2307.91 1474.12 L2318.49 1484.7 L2315.74 1487.5 L2305.11 1476.87 L2294.49 1487.5 L2291.75 1484.7 L2302.31 1474.12 L2291.75 1463.49 L2294.49 1460.69 L2305.11 1471.32 L2315.74 1460.69 L2318.49 1463.49 Z" fill="#000000" fill-rule="evenodd" fill-opacity="1" /><path clip-path="url(#clip200)" d="M2330.85 1485.02 L2338.49 1485.02 L2338.49 1458.66 L2330.18 1460.32 L2330.18 1456.06 L2338.44 1454.4 L2343.12 1454.4 L2343.12 1485.02 L2350.76 1485.02 L2350.76 1488.96 L2330.85 1488.96 L2330.85 1485.02 Z" fill="#000000" fill-rule="evenodd" fill-opacity="1" /><path clip-path="url(#clip200)" d="M2370.2 1457.48 Q2366.59 1457.48 2364.76 1461.04 Q2362.96 1464.58 2362.96 1471.71 Q2362.96 1478.82 2364.76 1482.38 Q2366.59 1485.92 2370.2 1485.92 Q2373.84 1485.92 2375.64 1482.38 Q2377.47 1478.82 2377.47 1471.71 Q2377.47 1464.58 2375.64 1461.04 Q2373.84 1457.48 2370.2 1457.48 M2370.2 1453.77 Q2376.01 1453.77 2379.07 1458.38 Q2382.15 1462.96 2382.15 1471.71 Q2382.15 1480.44 2379.07 1485.04 Q2376.01 1489.63 2370.2 1489.63 Q2364.39 1489.63 2361.31 1485.04 Q2358.26 1480.44 2358.26 1471.71 Q2358.26 1462.96 2361.31 1458.38 Q2364.39 1453.77 2370.2 1453.77 Z" fill="#000000" fill-rule="evenodd" fill-opacity="1" /><path clip-path="url(#clip200)" d="M2392.17 1445.99 Q2389.61 1445.99 2388.11 1447.74 Q2386.62 1449.49 2386.62 1452.54 Q2386.62 1455.57 2388.11 1457.33 Q2389.61 1459.08 2392.17 1459.08 Q2394.73 1459.08 2396.22 1457.33 Q2397.72 1455.57 2397.72 1452.54 Q2397.72 1449.49 2396.22 1447.74 Q2394.73 1445.99 2392.17 1445.99 M2399.71 1434.09 L2399.71 1437.55 Q2398.28 1436.87 2396.82 1436.51 Q2395.37 1436.16 2393.94 1436.16 Q2390.18 1436.16 2388.19 1438.69 Q2386.21 1441.23 2385.93 1446.37 Q2387.04 1444.73 2388.71 1443.87 Q2390.39 1442.98 2392.4 1442.98 Q2396.63 1442.98 2399.07 1445.56 Q2401.54 1448.12 2401.54 1452.54 Q2401.54 1456.86 2398.98 1459.48 Q2396.42 1462.09 2392.17 1462.09 Q2387.3 1462.09 2384.72 1458.37 Q2382.15 1454.62 2382.15 1447.53 Q2382.15 1440.88 2385.31 1436.93 Q2388.47 1432.96 2393.79 1432.96 Q2395.22 1432.96 2396.67 1433.24 Q2398.13 1433.52 2399.71 1434.09 Z" fill="#000000" fill-rule="evenodd" fill-opacity="1" /><path clip-path="url(#clip200)" d="M1150.54 1526.67 L1156.97 1526.67 L1156.97 1574.19 L1150.54 1574.19 L1150.54 1526.67 Z" fill="#000000" fill-rule="evenodd" fill-opacity="1" /><path clip-path="url(#clip200)" d="M1175.3 1528.42 L1175.3 1538.54 L1187.36 1538.54 L1187.36 1543.09 L1175.3 1543.09 L1175.3 1562.44 Q1175.3 1566.8 1176.48 1568.04 Q1177.69 1569.28 1181.35 1569.28 L1187.36 1569.28 L1187.36 1574.19 L1181.35 1574.19 Q1174.57 1574.19 1171.99 1571.67 Q1169.41 1569.12 1169.41 1562.44 L1169.41 1543.09 L1165.12 1543.09 L1165.12 1538.54 L1169.41 1538.54 L1169.41 1528.42 L1175.3 1528.42 Z" fill="#000000" fill-rule="evenodd" fill-opacity="1" /><path clip-path="url(#clip200)" d="M1225.56 1554.9 L1225.56 1557.76 L1198.63 1557.76 Q1199.01 1563.81 1202.26 1566.99 Q1205.54 1570.14 1211.36 1570.14 Q1214.74 1570.14 1217.89 1569.32 Q1221.07 1568.49 1224.19 1566.83 L1224.19 1572.37 Q1221.04 1573.71 1217.73 1574.41 Q1214.42 1575.11 1211.01 1575.11 Q1202.48 1575.11 1197.48 1570.14 Q1192.52 1565.18 1192.52 1556.71 Q1192.52 1547.96 1197.23 1542.83 Q1201.97 1537.68 1209.99 1537.68 Q1217.19 1537.68 1221.36 1542.33 Q1225.56 1546.94 1225.56 1554.9 M1219.7 1553.18 Q1219.64 1548.37 1217 1545.51 Q1214.39 1542.64 1210.06 1542.64 Q1205.16 1542.64 1202.2 1545.41 Q1199.27 1548.18 1198.82 1553.21 L1219.7 1553.18 Z" fill="#000000" fill-rule="evenodd" fill-opacity="1" /><path clip-path="url(#clip200)" d="M1255.83 1544.01 Q1254.84 1543.44 1253.66 1543.18 Q1252.52 1542.9 1251.12 1542.9 Q1246.15 1542.9 1243.48 1546.14 Q1240.84 1549.36 1240.84 1555.41 L1240.84 1574.19 L1234.95 1574.19 L1234.95 1538.54 L1240.84 1538.54 L1240.84 1544.08 Q1242.68 1540.83 1245.64 1539.27 Q1248.6 1537.68 1252.83 1537.68 Q1253.44 1537.68 1254.17 1537.77 Q1254.9 1537.84 1255.79 1538 L1255.83 1544.01 Z" fill="#000000" fill-rule="evenodd" fill-opacity="1" /><path clip-path="url(#clip200)" d="M1278.17 1556.27 Q1271.07 1556.27 1268.34 1557.89 Q1265.6 1559.51 1265.6 1563.43 Q1265.6 1566.55 1267.63 1568.39 Q1269.7 1570.21 1273.24 1570.21 Q1278.11 1570.21 1281.03 1566.77 Q1283.99 1563.3 1283.99 1557.57 L1283.99 1556.27 L1278.17 1556.27 M1289.85 1553.85 L1289.85 1574.19 L1283.99 1574.19 L1283.99 1568.77 Q1281.99 1572.02 1279 1573.58 Q1276.01 1575.11 1271.68 1575.11 Q1266.2 1575.11 1262.96 1572.05 Q1259.74 1568.97 1259.74 1563.81 Q1259.74 1557.79 1263.75 1554.74 Q1267.79 1551.68 1275.78 1551.68 L1283.99 1551.68 L1283.99 1551.11 Q1283.99 1547.07 1281.32 1544.87 Q1278.68 1542.64 1273.87 1542.64 Q1270.82 1542.64 1267.92 1543.38 Q1265.03 1544.11 1262.35 1545.57 L1262.35 1540.16 Q1265.57 1538.92 1268.59 1538.31 Q1271.61 1537.68 1274.48 1537.68 Q1282.21 1537.68 1286.03 1541.69 Q1289.85 1545.7 1289.85 1553.85 Z" fill="#000000" fill-rule="evenodd" fill-opacity="1" /><path clip-path="url(#clip200)" d="M1307.71 1528.42 L1307.71 1538.54 L1319.77 1538.54 L1319.77 1543.09 L1307.71 1543.09 L1307.71 1562.44 Q1307.71 1566.8 1308.88 1568.04 Q1310.09 1569.28 1313.75 1569.28 L1319.77 1569.28 L1319.77 1574.19 L1313.75 1574.19 Q1306.98 1574.19 1304.4 1571.67 Q1301.82 1569.12 1301.82 1562.44 L1301.82 1543.09 L1297.52 1543.09 L1297.52 1538.54 L1301.82 1538.54 L1301.82 1528.42 L1307.71 1528.42 Z" fill="#000000" fill-rule="evenodd" fill-opacity="1" /><path clip-path="url(#clip200)" d="M1327.47 1538.54 L1333.33 1538.54 L1333.33 1574.19 L1327.47 1574.19 L1327.47 1538.54 M1327.47 1524.66 L1333.33 1524.66 L1333.33 1532.08 L1327.47 1532.08 L1327.47 1524.66 Z" fill="#000000" fill-rule="evenodd" fill-opacity="1" /><path clip-path="url(#clip200)" d="M1359.4 1542.64 Q1354.69 1542.64 1351.95 1546.34 Q1349.21 1550 1349.21 1556.39 Q1349.21 1562.79 1351.92 1566.48 Q1354.65 1570.14 1359.4 1570.14 Q1364.08 1570.14 1366.81 1566.45 Q1369.55 1562.76 1369.55 1556.39 Q1369.55 1550.06 1366.81 1546.37 Q1364.08 1542.64 1359.4 1542.64 M1359.4 1537.68 Q1367.04 1537.68 1371.4 1542.64 Q1375.76 1547.61 1375.76 1556.39 Q1375.76 1565.15 1371.4 1570.14 Q1367.04 1575.11 1359.4 1575.11 Q1351.73 1575.11 1347.37 1570.14 Q1343.04 1565.15 1343.04 1556.39 Q1343.04 1547.61 1347.37 1542.64 Q1351.73 1537.68 1359.4 1537.68 Z" fill="#000000" fill-rule="evenodd" fill-opacity="1" /><path clip-path="url(#clip200)" d="M1415.1 1552.67 L1415.1 1574.19 L1409.24 1574.19 L1409.24 1552.86 Q1409.24 1547.8 1407.27 1545.29 Q1405.29 1542.77 1401.35 1542.77 Q1396.6 1542.77 1393.87 1545.79 Q1391.13 1548.82 1391.13 1554.04 L1391.13 1574.19 L1385.24 1574.19 L1385.24 1538.54 L1391.13 1538.54 L1391.13 1544.08 Q1393.23 1540.86 1396.06 1539.27 Q1398.93 1537.68 1402.65 1537.68 Q1408.79 1537.68 1411.95 1541.5 Q1415.1 1545.29 1415.1 1552.67 Z" fill="#000000" fill-rule="evenodd" fill-opacity="1" /><path clip-path="url(#clip200)" d="M1449.5 1539.59 L1449.5 1545.13 Q1447.02 1543.85 1444.35 1543.22 Q1441.67 1542.58 1438.81 1542.58 Q1434.45 1542.58 1432.25 1543.92 Q1430.09 1545.25 1430.09 1547.93 Q1430.09 1549.96 1431.65 1551.14 Q1433.21 1552.29 1437.92 1553.34 L1439.92 1553.78 Q1446.16 1555.12 1448.77 1557.57 Q1451.41 1559.99 1451.41 1564.35 Q1451.41 1569.32 1447.47 1572.21 Q1443.55 1575.11 1436.68 1575.11 Q1433.81 1575.11 1430.69 1574.54 Q1427.61 1573.99 1424.17 1572.88 L1424.17 1566.83 Q1427.41 1568.52 1430.57 1569.38 Q1433.72 1570.21 1436.8 1570.21 Q1440.94 1570.21 1443.17 1568.81 Q1445.4 1567.37 1445.4 1564.8 Q1445.4 1562.41 1443.77 1561.14 Q1442.18 1559.86 1436.74 1558.68 L1434.7 1558.21 Q1429.26 1557.06 1426.84 1554.71 Q1424.42 1552.32 1424.42 1548.18 Q1424.42 1543.15 1427.99 1540.42 Q1431.55 1537.68 1438.11 1537.68 Q1441.36 1537.68 1444.22 1538.16 Q1447.08 1538.63 1449.5 1539.59 Z" fill="#000000" fill-rule="evenodd" fill-opacity="1" /><polyline clip-path="url(#clip202)" style="stroke:#000000; stroke-linecap:round; stroke-linejoin:round; stroke-width:2; stroke-opacity:0.1; fill:none" points="
  249.195,1206.43 2352.76,1206.43 
  "/>
<polyline clip-path="url(#clip202)" style="stroke:#000000; stroke-linecap:round; stroke-linejoin:round; stroke-width:2; stroke-opacity:0.1; fill:none" points="
  249.195,942.507 2352.76,942.507 
  "/>
<polyline clip-path="url(#clip202)" style="stroke:#000000; stroke-linecap:round; stroke-linejoin:round; stroke-width:2; stroke-opacity:0.1; fill:none" points="
  249.195,678.586 2352.76,678.586 
  "/>
<polyline clip-path="url(#clip202)" style="stroke:#000000; stroke-linecap:round; stroke-linejoin:round; stroke-width:2; stroke-opacity:0.1; fill:none" points="
  249.195,414.666 2352.76,414.666 
  "/>
<polyline clip-path="url(#clip202)" style="stroke:#000000; stroke-linecap:round; stroke-linejoin:round; stroke-width:2; stroke-opacity:0.1; fill:none" points="
  249.195,150.746 2352.76,150.746 
  "/>
<polyline clip-path="url(#clip200)" style="stroke:#000000; stroke-linecap:round; stroke-linejoin:round; stroke-width:4; stroke-opacity:1; fill:none" points="
  249.195,1410.9 249.195,47.2441 
  "/>
<polyline clip-path="url(#clip200)" style="stroke:#000000; stroke-linecap:round; stroke-linejoin:round; stroke-width:4; stroke-opacity:1; fill:none" points="
  249.195,1206.43 268.092,1206.43 
  "/>
<polyline clip-path="url(#clip200)" style="stroke:#000000; stroke-linecap:round; stroke-linejoin:round; stroke-width:4; stroke-opacity:1; fill:none" points="
  249.195,942.507 268.092,942.507 
  "/>
<polyline clip-path="url(#clip200)" style="stroke:#000000; stroke-linecap:round; stroke-linejoin:round; stroke-width:4; stroke-opacity:1; fill:none" points="
  249.195,678.586 268.092,678.586 
  "/>
<polyline clip-path="url(#clip200)" style="stroke:#000000; stroke-linecap:round; stroke-linejoin:round; stroke-width:4; stroke-opacity:1; fill:none" points="
  249.195,414.666 268.092,414.666 
  "/>
<polyline clip-path="url(#clip200)" style="stroke:#000000; stroke-linecap:round; stroke-linejoin:round; stroke-width:4; stroke-opacity:1; fill:none" points="
  249.195,150.746 268.092,150.746 
  "/>
<path clip-path="url(#clip200)" d="M120.88 1219.77 L137.2 1219.77 L137.2 1223.71 L115.256 1223.71 L115.256 1219.77 Q117.918 1217.02 122.501 1212.39 Q127.107 1207.73 128.288 1206.39 Q130.533 1203.87 131.413 1202.13 Q132.316 1200.37 132.316 1198.68 Q132.316 1195.93 130.371 1194.19 Q128.45 1192.46 125.348 1192.46 Q123.149 1192.46 120.695 1193.22 Q118.265 1193.98 115.487 1195.54 L115.487 1190.81 Q118.311 1189.68 120.765 1189.1 Q123.218 1188.52 125.255 1188.52 Q130.626 1188.52 133.82 1191.21 Q137.015 1193.89 137.015 1198.38 Q137.015 1200.51 136.204 1202.43 Q135.417 1204.33 133.311 1206.92 Q132.732 1207.6 129.63 1210.81 Q126.529 1214.01 120.88 1219.77 Z" fill="#000000" fill-rule="evenodd" fill-opacity="1" /><path clip-path="url(#clip200)" d="M147.015 1217.83 L151.899 1217.83 L151.899 1223.71 L147.015 1223.71 L147.015 1217.83 Z" fill="#000000" fill-rule="evenodd" fill-opacity="1" /><path clip-path="url(#clip200)" d="M166.112 1219.77 L182.431 1219.77 L182.431 1223.71 L160.487 1223.71 L160.487 1219.77 Q163.149 1217.02 167.732 1212.39 Q172.339 1207.73 173.519 1206.39 Q175.764 1203.87 176.644 1202.13 Q177.547 1200.37 177.547 1198.68 Q177.547 1195.93 175.602 1194.19 Q173.681 1192.46 170.579 1192.46 Q168.38 1192.46 165.927 1193.22 Q163.496 1193.98 160.718 1195.54 L160.718 1190.81 Q163.542 1189.68 165.996 1189.1 Q168.45 1188.52 170.487 1188.52 Q175.857 1188.52 179.051 1191.21 Q182.246 1193.89 182.246 1198.38 Q182.246 1200.51 181.436 1202.43 Q180.649 1204.33 178.542 1206.92 Q177.964 1207.6 174.862 1210.81 Q171.76 1214.01 166.112 1219.77 Z" fill="#000000" fill-rule="evenodd" fill-opacity="1" /><path clip-path="url(#clip200)" d="M192.292 1189.15 L210.649 1189.15 L210.649 1193.08 L196.575 1193.08 L196.575 1201.55 Q197.593 1201.21 198.612 1201.04 Q199.63 1200.86 200.649 1200.86 Q206.436 1200.86 209.815 1204.03 Q213.195 1207.2 213.195 1212.62 Q213.195 1218.2 209.723 1221.3 Q206.25 1224.38 199.931 1224.38 Q197.755 1224.38 195.487 1224.01 Q193.241 1223.64 190.834 1222.9 L190.834 1218.2 Q192.917 1219.33 195.139 1219.89 Q197.362 1220.44 199.838 1220.44 Q203.843 1220.44 206.181 1218.34 Q208.519 1216.23 208.519 1212.62 Q208.519 1209.01 206.181 1206.9 Q203.843 1204.79 199.838 1204.79 Q197.963 1204.79 196.088 1205.21 Q194.237 1205.63 192.292 1206.51 L192.292 1189.15 Z" fill="#000000" fill-rule="evenodd" fill-opacity="1" /><path clip-path="url(#clip200)" d="M119.885 955.851 L136.204 955.851 L136.204 959.787 L114.26 959.787 L114.26 955.851 Q116.922 953.097 121.505 948.467 Q126.112 943.814 127.292 942.472 Q129.538 939.949 130.417 938.213 Q131.32 936.453 131.32 934.763 Q131.32 932.009 129.376 930.273 Q127.455 928.537 124.353 928.537 Q122.154 928.537 119.7 929.301 Q117.269 930.064 114.492 931.615 L114.492 926.893 Q117.316 925.759 119.769 925.18 Q122.223 924.602 124.26 924.602 Q129.63 924.602 132.825 927.287 Q136.019 929.972 136.019 934.463 Q136.019 936.592 135.209 938.513 Q134.422 940.412 132.316 943.004 Q131.737 943.675 128.635 946.893 Q125.533 950.087 119.885 955.851 Z" fill="#000000" fill-rule="evenodd" fill-opacity="1" /><path clip-path="url(#clip200)" d="M146.019 953.907 L150.903 953.907 L150.903 959.787 L146.019 959.787 L146.019 953.907 Z" fill="#000000" fill-rule="evenodd" fill-opacity="1" /><path clip-path="url(#clip200)" d="M161.135 925.227 L179.491 925.227 L179.491 929.162 L165.417 929.162 L165.417 937.634 Q166.436 937.287 167.454 937.125 Q168.473 936.939 169.491 936.939 Q175.278 936.939 178.658 940.111 Q182.038 943.282 182.038 948.699 Q182.038 954.277 178.565 957.379 Q175.093 960.458 168.774 960.458 Q166.598 960.458 164.329 960.087 Q162.084 959.717 159.677 958.976 L159.677 954.277 Q161.76 955.412 163.982 955.967 Q166.204 956.523 168.681 956.523 Q172.686 956.523 175.024 954.416 Q177.362 952.31 177.362 948.699 Q177.362 945.088 175.024 942.981 Q172.686 940.875 168.681 940.875 Q166.806 940.875 164.931 941.291 Q163.079 941.708 161.135 942.588 L161.135 925.227 Z" fill="#000000" fill-rule="evenodd" fill-opacity="1" /><path clip-path="url(#clip200)" d="M201.25 928.305 Q197.639 928.305 195.811 931.87 Q194.005 935.412 194.005 942.541 Q194.005 949.648 195.811 953.212 Q197.639 956.754 201.25 956.754 Q204.885 956.754 206.69 953.212 Q208.519 949.648 208.519 942.541 Q208.519 935.412 206.69 931.87 Q204.885 928.305 201.25 928.305 M201.25 924.602 Q207.061 924.602 210.116 929.208 Q213.195 933.791 213.195 942.541 Q213.195 951.268 210.116 955.874 Q207.061 960.458 201.25 960.458 Q195.44 960.458 192.362 955.874 Q189.306 951.268 189.306 942.541 Q189.306 933.791 192.362 929.208 Q195.44 924.602 201.25 924.602 Z" fill="#000000" fill-rule="evenodd" fill-opacity="1" /><path clip-path="url(#clip200)" d="M120.88 691.931 L137.2 691.931 L137.2 695.866 L115.256 695.866 L115.256 691.931 Q117.918 689.177 122.501 684.547 Q127.107 679.894 128.288 678.552 Q130.533 676.029 131.413 674.292 Q132.316 672.533 132.316 670.843 Q132.316 668.089 130.371 666.353 Q128.45 664.617 125.348 664.617 Q123.149 664.617 120.695 665.38 Q118.265 666.144 115.487 667.695 L115.487 662.973 Q118.311 661.839 120.765 661.26 Q123.218 660.681 125.255 660.681 Q130.626 660.681 133.82 663.367 Q137.015 666.052 137.015 670.542 Q137.015 672.672 136.204 674.593 Q135.417 676.491 133.311 679.084 Q132.732 679.755 129.63 682.973 Q126.529 686.167 120.88 691.931 Z" fill="#000000" fill-rule="evenodd" fill-opacity="1" /><path clip-path="url(#clip200)" d="M147.015 689.987 L151.899 689.987 L151.899 695.866 L147.015 695.866 L147.015 689.987 Z" fill="#000000" fill-rule="evenodd" fill-opacity="1" /><path clip-path="url(#clip200)" d="M160.903 661.306 L183.126 661.306 L183.126 663.297 L170.579 695.866 L165.695 695.866 L177.501 665.242 L160.903 665.242 L160.903 661.306 Z" fill="#000000" fill-rule="evenodd" fill-opacity="1" /><path clip-path="url(#clip200)" d="M192.292 661.306 L210.649 661.306 L210.649 665.242 L196.575 665.242 L196.575 673.714 Q197.593 673.367 198.612 673.204 Q199.63 673.019 200.649 673.019 Q206.436 673.019 209.815 676.191 Q213.195 679.362 213.195 684.778 Q213.195 690.357 209.723 693.459 Q206.25 696.538 199.931 696.538 Q197.755 696.538 195.487 696.167 Q193.241 695.797 190.834 695.056 L190.834 690.357 Q192.917 691.491 195.139 692.047 Q197.362 692.603 199.838 692.603 Q203.843 692.603 206.181 690.496 Q208.519 688.39 208.519 684.778 Q208.519 681.167 206.181 679.061 Q203.843 676.954 199.838 676.954 Q197.963 676.954 196.088 677.371 Q194.237 677.788 192.292 678.667 L192.292 661.306 Z" fill="#000000" fill-rule="evenodd" fill-opacity="1" /><path clip-path="url(#clip200)" d="M130.024 413.312 Q133.38 414.03 135.255 416.298 Q137.154 418.567 137.154 421.9 Q137.154 427.016 133.635 429.817 Q130.117 432.618 123.635 432.618 Q121.459 432.618 119.144 432.178 Q116.853 431.761 114.399 430.905 L114.399 426.391 Q116.343 427.525 118.658 428.104 Q120.973 428.682 123.496 428.682 Q127.894 428.682 130.186 426.946 Q132.501 425.21 132.501 421.9 Q132.501 418.845 130.348 417.132 Q128.218 415.395 124.399 415.395 L120.371 415.395 L120.371 411.553 L124.584 411.553 Q128.033 411.553 129.862 410.187 Q131.691 408.798 131.691 406.206 Q131.691 403.544 129.792 402.132 Q127.917 400.696 124.399 400.696 Q122.478 400.696 120.279 401.113 Q118.08 401.53 115.441 402.409 L115.441 398.243 Q118.103 397.502 120.418 397.132 Q122.755 396.761 124.816 396.761 Q130.14 396.761 133.242 399.192 Q136.343 401.599 136.343 405.72 Q136.343 408.59 134.7 410.581 Q133.056 412.548 130.024 413.312 Z" fill="#000000" fill-rule="evenodd" fill-opacity="1" /><path clip-path="url(#clip200)" d="M146.019 426.067 L150.903 426.067 L150.903 431.946 L146.019 431.946 L146.019 426.067 Z" fill="#000000" fill-rule="evenodd" fill-opacity="1" /><path clip-path="url(#clip200)" d="M171.089 400.465 Q167.477 400.465 165.649 404.03 Q163.843 407.571 163.843 414.701 Q163.843 421.807 165.649 425.372 Q167.477 428.914 171.089 428.914 Q174.723 428.914 176.528 425.372 Q178.357 421.807 178.357 414.701 Q178.357 407.571 176.528 404.03 Q174.723 400.465 171.089 400.465 M171.089 396.761 Q176.899 396.761 179.954 401.368 Q183.033 405.951 183.033 414.701 Q183.033 423.428 179.954 428.034 Q176.899 432.618 171.089 432.618 Q165.278 432.618 162.2 428.034 Q159.144 423.428 159.144 414.701 Q159.144 405.951 162.2 401.368 Q165.278 396.761 171.089 396.761 Z" fill="#000000" fill-rule="evenodd" fill-opacity="1" /><path clip-path="url(#clip200)" d="M201.25 400.465 Q197.639 400.465 195.811 404.03 Q194.005 407.571 194.005 414.701 Q194.005 421.807 195.811 425.372 Q197.639 428.914 201.25 428.914 Q204.885 428.914 206.69 425.372 Q208.519 421.807 208.519 414.701 Q208.519 407.571 206.69 404.03 Q204.885 400.465 201.25 400.465 M201.25 396.761 Q207.061 396.761 210.116 401.368 Q213.195 405.951 213.195 414.701 Q213.195 423.428 210.116 428.034 Q207.061 432.618 201.25 432.618 Q195.44 432.618 192.362 428.034 Q189.306 423.428 189.306 414.701 Q189.306 405.951 192.362 401.368 Q195.44 396.761 201.25 396.761 Z" fill="#000000" fill-rule="evenodd" fill-opacity="1" /><path clip-path="url(#clip200)" d="M131.019 149.392 Q134.376 150.11 136.251 152.378 Q138.149 154.647 138.149 157.98 Q138.149 163.096 134.63 165.897 Q131.112 168.697 124.63 168.697 Q122.455 168.697 120.14 168.258 Q117.848 167.841 115.394 166.985 L115.394 162.471 Q117.339 163.605 119.654 164.184 Q121.968 164.762 124.492 164.762 Q128.89 164.762 131.181 163.026 Q133.496 161.29 133.496 157.98 Q133.496 154.924 131.343 153.211 Q129.214 151.475 125.394 151.475 L121.367 151.475 L121.367 147.633 L125.58 147.633 Q129.029 147.633 130.857 146.267 Q132.686 144.878 132.686 142.286 Q132.686 139.624 130.788 138.212 Q128.913 136.776 125.394 136.776 Q123.473 136.776 121.274 137.193 Q119.075 137.61 116.436 138.489 L116.436 134.323 Q119.098 133.582 121.413 133.212 Q123.751 132.841 125.811 132.841 Q131.135 132.841 134.237 135.272 Q137.339 137.679 137.339 141.799 Q137.339 144.67 135.695 146.661 Q134.052 148.628 131.019 149.392 Z" fill="#000000" fill-rule="evenodd" fill-opacity="1" /><path clip-path="url(#clip200)" d="M147.015 162.147 L151.899 162.147 L151.899 168.026 L147.015 168.026 L147.015 162.147 Z" fill="#000000" fill-rule="evenodd" fill-opacity="1" /><path clip-path="url(#clip200)" d="M166.112 164.091 L182.431 164.091 L182.431 168.026 L160.487 168.026 L160.487 164.091 Q163.149 161.336 167.732 156.707 Q172.339 152.054 173.519 150.711 Q175.764 148.188 176.644 146.452 Q177.547 144.693 177.547 143.003 Q177.547 140.249 175.602 138.512 Q173.681 136.776 170.579 136.776 Q168.38 136.776 165.927 137.54 Q163.496 138.304 160.718 139.855 L160.718 135.133 Q163.542 133.999 165.996 133.42 Q168.45 132.841 170.487 132.841 Q175.857 132.841 179.051 135.526 Q182.246 138.212 182.246 142.702 Q182.246 144.832 181.436 146.753 Q180.649 148.651 178.542 151.244 Q177.964 151.915 174.862 155.133 Q171.76 158.327 166.112 164.091 Z" fill="#000000" fill-rule="evenodd" fill-opacity="1" /><path clip-path="url(#clip200)" d="M192.292 133.466 L210.649 133.466 L210.649 137.401 L196.575 137.401 L196.575 145.874 Q197.593 145.526 198.612 145.364 Q199.63 145.179 200.649 145.179 Q206.436 145.179 209.815 148.35 Q213.195 151.522 213.195 156.938 Q213.195 162.517 209.723 165.619 Q206.25 168.697 199.931 168.697 Q197.755 168.697 195.487 168.327 Q193.241 167.957 190.834 167.216 L190.834 162.517 Q192.917 163.651 195.139 164.207 Q197.362 164.762 199.838 164.762 Q203.843 164.762 206.181 162.656 Q208.519 160.549 208.519 156.938 Q208.519 153.327 206.181 151.221 Q203.843 149.114 199.838 149.114 Q197.963 149.114 196.088 149.531 Q194.237 149.948 192.292 150.827 L192.292 133.466 Z" fill="#000000" fill-rule="evenodd" fill-opacity="1" /><path clip-path="url(#clip200)" d="M22.818 978.129 L46.4666 986.85 L46.4666 969.376 L22.818 978.129 M16.4842 981.757 L16.4842 974.468 L64.0042 956.358 L64.0042 963.042 L51.8138 967.371 L51.8138 988.791 L64.0042 993.12 L64.0042 999.899 L16.4842 981.757 Z" fill="#000000" fill-rule="evenodd" fill-opacity="1" /><path clip-path="url(#clip200)" d="M28.3562 957.695 L28.3562 951.488 L58.275 940.348 L28.3562 929.208 L28.3562 923.002 L64.0042 936.37 L64.0042 944.327 L28.3562 957.695 Z" fill="#000000" fill-rule="evenodd" fill-opacity="1" /><path clip-path="url(#clip200)" d="M44.7161 884.425 L47.5806 884.425 L47.5806 911.352 Q53.6281 910.97 56.8109 907.724 Q59.9619 904.446 59.9619 898.621 Q59.9619 895.247 59.1344 892.096 Q58.3069 888.913 56.6518 885.794 L62.1899 885.794 Q63.5267 888.945 64.227 892.255 Q64.9272 895.565 64.9272 898.971 Q64.9272 907.501 59.9619 912.498 Q54.9967 917.463 46.5303 917.463 Q37.7774 917.463 32.6531 912.753 Q27.4968 908.01 27.4968 899.99 Q27.4968 892.796 32.1438 888.627 Q36.7589 884.425 44.7161 884.425 M42.9973 890.282 Q38.1912 890.346 35.3266 892.987 Q32.4621 895.597 32.4621 899.926 Q32.4621 904.828 35.2312 907.788 Q38.0002 910.716 43.0292 911.161 L42.9973 890.282 Z" fill="#000000" fill-rule="evenodd" fill-opacity="1" /><path clip-path="url(#clip200)" d="M33.8307 854.157 Q33.2578 855.143 33.0032 856.321 Q32.7167 857.467 32.7167 858.867 Q32.7167 863.832 35.9632 866.506 Q39.1779 869.148 45.2253 869.148 L64.0042 869.148 L64.0042 875.036 L28.3562 875.036 L28.3562 869.148 L33.8944 869.148 Q30.6479 867.302 29.0883 864.342 Q27.4968 861.382 27.4968 857.148 Q27.4968 856.544 27.5923 855.812 Q27.656 855.08 27.8151 854.188 L33.8307 854.157 Z" fill="#000000" fill-rule="evenodd" fill-opacity="1" /><path clip-path="url(#clip200)" d="M46.0847 831.813 Q46.0847 838.911 47.7079 841.648 Q49.3312 844.385 53.2461 844.385 Q56.3653 844.385 58.2114 842.348 Q60.0256 840.279 60.0256 836.746 Q60.0256 831.877 56.5881 828.948 Q53.1188 825.988 47.3897 825.988 L46.0847 825.988 L46.0847 831.813 M43.6657 820.132 L64.0042 820.132 L64.0042 825.988 L58.5933 825.988 Q61.8398 827.993 63.3994 830.985 Q64.9272 833.977 64.9272 838.306 Q64.9272 843.78 61.8716 847.027 Q58.7843 850.242 53.6281 850.242 Q47.6125 850.242 44.5569 846.231 Q41.5014 842.189 41.5014 834.2 L41.5014 825.988 L40.9285 825.988 Q36.8862 825.988 34.6901 828.662 Q32.4621 831.304 32.4621 836.11 Q32.4621 839.165 33.1941 842.062 Q33.9262 844.958 35.3903 847.632 L29.9795 847.632 Q28.7381 844.417 28.1334 841.393 Q27.4968 838.37 27.4968 835.505 Q27.4968 827.771 31.5072 823.951 Q35.5176 820.132 43.6657 820.132 Z" fill="#000000" fill-rule="evenodd" fill-opacity="1" /><path clip-path="url(#clip200)" d="M45.7664 784.611 Q39.4007 784.611 35.8996 787.253 Q32.3984 789.863 32.3984 794.605 Q32.3984 799.316 35.8996 801.958 Q39.4007 804.568 45.7664 804.568 Q52.1003 804.568 55.6014 801.958 Q59.1026 799.316 59.1026 794.605 Q59.1026 789.863 55.6014 787.253 Q52.1003 784.611 45.7664 784.611 M59.58 778.755 Q68.683 778.755 73.1071 782.797 Q77.5631 786.839 77.5631 795.178 Q77.5631 798.266 77.0857 801.003 Q76.6401 803.74 75.6852 806.318 L69.9879 806.318 Q71.3884 803.74 72.0568 801.226 Q72.7252 798.711 72.7252 796.101 Q72.7252 790.34 69.7015 787.476 Q66.7096 784.611 60.6303 784.611 L57.7339 784.611 Q60.885 786.425 62.4446 789.258 Q64.0042 792.091 64.0042 796.038 Q64.0042 802.594 59.0071 806.605 Q54.01 810.615 45.7664 810.615 Q37.491 810.615 32.4939 806.605 Q27.4968 802.594 27.4968 796.038 Q27.4968 792.091 29.0564 789.258 Q30.616 786.425 33.7671 784.611 L28.3562 784.611 L28.3562 778.755 L59.58 778.755 Z" fill="#000000" fill-rule="evenodd" fill-opacity="1" /><path clip-path="url(#clip200)" d="M44.7161 736.2 L47.5806 736.2 L47.5806 763.127 Q53.6281 762.745 56.8109 759.498 Q59.9619 756.22 59.9619 750.395 Q59.9619 747.022 59.1344 743.871 Q58.3069 740.688 56.6518 737.569 L62.1899 737.569 Q63.5267 740.72 64.227 744.03 Q64.9272 747.34 64.9272 750.746 Q64.9272 759.276 59.9619 764.273 Q54.9967 769.238 46.5303 769.238 Q37.7774 769.238 32.6531 764.527 Q27.4968 759.785 27.4968 751.764 Q27.4968 744.571 32.1438 740.401 Q36.7589 736.2 44.7161 736.2 M42.9973 742.056 Q38.1912 742.12 35.3266 744.762 Q32.4621 747.372 32.4621 751.7 Q32.4621 756.602 35.2312 759.562 Q38.0002 762.49 43.0292 762.936 L42.9973 742.056 Z" fill="#000000" fill-rule="evenodd" fill-opacity="1" /><path clip-path="url(#clip200)" d="M64.0042 693.359 L16.4842 711.501 L16.4842 704.785 L56.4926 689.73 L16.4842 674.644 L16.4842 667.96 L64.0042 686.07 L64.0042 693.359 Z" fill="#000000" fill-rule="evenodd" fill-opacity="1" /><path clip-path="url(#clip200)" d="M44.7161 635.845 L47.5806 635.845 L47.5806 662.772 Q53.6281 662.39 56.8109 659.143 Q59.9619 655.865 59.9619 650.04 Q59.9619 646.666 59.1344 643.515 Q58.3069 640.332 56.6518 637.213 L62.1899 637.213 Q63.5267 640.364 64.227 643.674 Q64.9272 646.985 64.9272 650.39 Q64.9272 658.92 59.9619 663.917 Q54.9967 668.883 46.5303 668.883 Q37.7774 668.883 32.6531 664.172 Q27.4968 659.43 27.4968 651.409 Q27.4968 644.215 32.1438 640.046 Q36.7589 635.845 44.7161 635.845 M42.9973 641.701 Q38.1912 641.765 35.3266 644.406 Q32.4621 647.016 32.4621 651.345 Q32.4621 656.247 35.2312 659.207 Q38.0002 662.135 43.0292 662.581 L42.9973 641.701 Z" fill="#000000" fill-rule="evenodd" fill-opacity="1" /><path clip-path="url(#clip200)" d="M14.479 626.232 L14.479 620.376 L64.0042 620.376 L64.0042 626.232 L14.479 626.232 Z" fill="#000000" fill-rule="evenodd" fill-opacity="1" /><path clip-path="url(#clip200)" d="M32.4621 594.308 Q32.4621 599.019 36.1542 601.756 Q39.8145 604.493 46.212 604.493 Q52.6095 604.493 56.3017 601.788 Q59.9619 599.051 59.9619 594.308 Q59.9619 589.63 56.2698 586.892 Q52.5777 584.155 46.212 584.155 Q39.8781 584.155 36.186 586.892 Q32.4621 589.63 32.4621 594.308 M27.4968 594.308 Q27.4968 586.67 32.4621 582.309 Q37.4273 577.948 46.212 577.948 Q54.9649 577.948 59.9619 582.309 Q64.9272 586.67 64.9272 594.308 Q64.9272 601.979 59.9619 606.34 Q54.9649 610.668 46.212 610.668 Q37.4273 610.668 32.4621 606.34 Q27.4968 601.979 27.4968 594.308 Z" fill="#000000" fill-rule="evenodd" fill-opacity="1" /><path clip-path="url(#clip200)" d="M29.7248 542.587 L35.1993 542.587 Q33.8307 545.07 33.1623 547.584 Q32.4621 550.067 32.4621 552.613 Q32.4621 558.31 36.0905 561.461 Q39.6872 564.612 46.212 564.612 Q52.7369 564.612 56.3653 561.461 Q59.9619 558.31 59.9619 552.613 Q59.9619 550.067 59.2935 547.584 Q58.5933 545.07 57.2247 542.587 L62.6355 542.587 Q63.7814 545.038 64.3543 547.68 Q64.9272 550.289 64.9272 553.25 Q64.9272 561.302 59.8664 566.045 Q54.8057 570.787 46.212 570.787 Q37.491 570.787 32.4939 566.013 Q27.4968 561.207 27.4968 552.868 Q27.4968 550.162 28.0697 547.584 Q28.6108 545.006 29.7248 542.587 Z" fill="#000000" fill-rule="evenodd" fill-opacity="1" /><path clip-path="url(#clip200)" d="M28.3562 532.402 L28.3562 526.545 L64.0042 526.545 L64.0042 532.402 L28.3562 532.402 M14.479 532.402 L14.479 526.545 L21.895 526.545 L21.895 532.402 L14.479 532.402 Z" fill="#000000" fill-rule="evenodd" fill-opacity="1" /><path clip-path="url(#clip200)" d="M18.2347 508.499 L28.3562 508.499 L28.3562 496.436 L32.9077 496.436 L32.9077 508.499 L52.2594 508.499 Q56.6199 508.499 57.8613 507.321 Q59.1026 506.111 59.1026 502.451 L59.1026 496.436 L64.0042 496.436 L64.0042 502.451 Q64.0042 509.231 61.4897 511.809 Q58.9434 514.387 52.2594 514.387 L32.9077 514.387 L32.9077 518.684 L28.3562 518.684 L28.3562 514.387 L18.2347 514.387 L18.2347 508.499 Z" fill="#000000" fill-rule="evenodd" fill-opacity="1" /><path clip-path="url(#clip200)" d="M67.3143 473.901 Q73.68 476.384 75.6216 478.739 Q77.5631 481.094 77.5631 485.041 L77.5631 489.72 L72.6615 489.72 L72.6615 486.282 Q72.6615 483.863 71.5157 482.527 Q70.3699 481.19 66.1048 479.566 L63.4312 478.516 L28.3562 492.934 L28.3562 486.728 L56.238 475.588 L28.3562 464.448 L28.3562 458.241 L67.3143 473.901 Z" fill="#000000" fill-rule="evenodd" fill-opacity="1" /><polyline clip-path="url(#clip202)" style="stroke:#009af9; stroke-linecap:round; stroke-linejoin:round; stroke-width:4; stroke-opacity:1; fill:none" points="
  401.961,161.981 415.279,85.838 428.598,1260.61 441.917,1372.3 455.236,1249.34 468.554,1252.23 481.873,1019.36 495.192,938.18 508.511,889.501 521.829,890.815 
  535.148,811.225 548.467,854.501 561.786,1077.63 575.104,1022.24 588.423,678.863 601.742,703.635 615.06,785.357 628.379,776.496 641.698,760.056 655.017,708.545 
  668.335,836.581 681.654,825.11 694.973,750.404 708.292,756.966 721.61,603.325 734.929,669.108 748.248,725.963 761.567,706.041 774.885,644.601 788.204,740.49 
  801.523,686.146 814.842,662.673 828.16,545.893 841.479,675.765 854.798,651.45 868.116,612.939 881.435,666.159 894.754,766.704 908.073,649.332 921.391,726.698 
  934.71,706.887 948.029,721.974 961.348,630.862 974.666,528.976 987.985,559.774 1001.3,599.179 1014.62,540.198 1027.94,655.048 1041.26,690.776 1054.58,738.689 
  1067.9,650.307 1081.22,664.087 1094.53,570.294 1107.85,573.977 1121.17,664.187 1134.49,660.841 1147.81,582.894 1161.13,606.011 1174.45,635.794 1187.77,627.357 
  1201.08,697.161 1214.4,639.369 1227.72,525.126 1241.04,572.114 1254.36,633.607 1267.68,617.777 1281,574.94 1294.32,589.937 1307.63,737.843 1320.95,714.842 
  1334.27,770.878 1347.59,636.112 1360.91,618.653 1374.23,572.607 1387.55,580 1400.87,554.284 1414.18,592.857 1427.5,685.372 1440.82,648.506 1454.14,646.197 
  1467.46,575.196 1480.78,553.504 1494.1,544.457 1507.42,664.039 1520.73,652.803 1534.05,670.534 1547.37,617.173 1560.69,730.054 1574.01,661.566 1587.33,586.339 
  1600.65,690.131 1613.97,695.332 1627.28,651.927 1640.6,624.652 1653.92,675.564 1667.24,676.496 1680.56,623.575 1693.88,706.897 1707.2,712.356 1720.52,777.649 
  1733.83,886.048 1747.15,935.763 1760.47,849.245 1773.79,638.069 1787.11,730.099 1800.43,591.656 1813.75,901.835 1827.07,785.16 1840.38,645.075 1853.7,705.241 
  1867.02,765.94 1880.34,668.08 1893.66,556.128 1906.98,602.336 1920.3,521.741 1933.62,656.586 1946.93,559.441 1960.25,603.646 1973.57,578.331 1986.89,535.329 
  2000.21,614.07 2013.53,615.025 2026.85,621.842 2040.17,557.292 2053.48,537.588 2066.8,478.391 2080.12,577.363 2093.44,454.42 2106.76,442.259 2120.08,550.329 
  2133.4,548.639 2146.72,593.784 2160.03,619.792 2173.35,627.614 2186.67,628.146 2199.99,595.13 2213.31,604.306 2226.63,587.502 2239.95,589.377 2253.26,495.297 
  2266.58,470.452 2279.9,534.499 2293.22,533.564 
  "/>
</svg>
