<?xml version="1.0" encoding="utf-8"?>
<svg xmlns="http://www.w3.org/2000/svg" xmlns:xlink="http://www.w3.org/1999/xlink" width="600" height="400" viewBox="0 0 2400 1600">
<defs>
  <clipPath id="clip280">
    <rect x="0" y="0" width="2400" height="1600"/>
  </clipPath>
</defs>
<path clip-path="url(#clip280)" d="
M0 1600 L2400 1600 L2400 0 L0 0  Z
  " fill="#ffffff" fill-rule="evenodd" fill-opacity="1"/>
<defs>
  <clipPath id="clip281">
    <rect x="480" y="0" width="1681" height="1600"/>
  </clipPath>
</defs>
<path clip-path="url(#clip280)" d="
M219.195 1410.9 L2352.76 1410.9 L2352.76 47.2441 L219.195 47.2441  Z
  " fill="#ffffff" fill-rule="evenodd" fill-opacity="1"/>
<defs>
  <clipPath id="clip282">
    <rect x="219" y="47" width="2135" height="1365"/>
  </clipPath>
</defs>
<polyline clip-path="url(#clip282)" style="stroke:#000000; stroke-linecap:round; stroke-linejoin:round; stroke-width:2; stroke-opacity:0.1; fill:none" points="
  266.07,1410.9 266.07,47.2441 
  "/>
<polyline clip-path="url(#clip282)" style="stroke:#000000; stroke-linecap:round; stroke-linejoin:round; stroke-width:2; stroke-opacity:0.1; fill:none" points="
  941.504,1410.9 941.504,47.2441 
  "/>
<polyline clip-path="url(#clip282)" style="stroke:#000000; stroke-linecap:round; stroke-linejoin:round; stroke-width:2; stroke-opacity:0.1; fill:none" points="
  1616.94,1410.9 1616.94,47.2441 
  "/>
<polyline clip-path="url(#clip282)" style="stroke:#000000; stroke-linecap:round; stroke-linejoin:round; stroke-width:2; stroke-opacity:0.1; fill:none" points="
  2292.37,1410.9 2292.37,47.2441 
  "/>
<polyline clip-path="url(#clip280)" style="stroke:#000000; stroke-linecap:round; stroke-linejoin:round; stroke-width:4; stroke-opacity:1; fill:none" points="
  219.195,1410.9 2352.76,1410.9 
  "/>
<polyline clip-path="url(#clip280)" style="stroke:#000000; stroke-linecap:round; stroke-linejoin:round; stroke-width:4; stroke-opacity:1; fill:none" points="
  266.07,1410.9 266.07,1392 
  "/>
<polyline clip-path="url(#clip280)" style="stroke:#000000; stroke-linecap:round; stroke-linejoin:round; stroke-width:4; stroke-opacity:1; fill:none" points="
  941.504,1410.9 941.504,1392 
  "/>
<polyline clip-path="url(#clip280)" style="stroke:#000000; stroke-linecap:round; stroke-linejoin:round; stroke-width:4; stroke-opacity:1; fill:none" points="
  1616.94,1410.9 1616.94,1392 
  "/>
<polyline clip-path="url(#clip280)" style="stroke:#000000; stroke-linecap:round; stroke-linejoin:round; stroke-width:4; stroke-opacity:1; fill:none" points="
  2292.37,1410.9 2292.37,1392 
  "/>
<path clip-path="url(#clip280)" d="M266.07 1441.82 Q262.459 1441.82 260.63 1445.38 Q258.825 1448.92 258.825 1456.05 Q258.825 1463.16 260.63 1466.72 Q262.459 1470.26 266.07 1470.26 Q269.704 1470.26 271.51 1466.72 Q273.339 1463.16 273.339 1456.05 Q273.339 1448.92 271.51 1445.38 Q269.704 1441.82 266.07 1441.82 M266.07 1438.11 Q271.88 1438.11 274.936 1442.72 Q278.014 1447.3 278.014 1456.05 Q278.014 1464.78 274.936 1469.38 Q271.88 1473.97 266.07 1473.97 Q260.26 1473.97 257.181 1469.38 Q254.126 1464.78 254.126 1456.05 Q254.126 1447.3 257.181 1442.72 Q260.26 1438.11 266.07 1438.11 Z" fill="#000000" fill-rule="evenodd" fill-opacity="1" /><path clip-path="url(#clip280)" d="M834.481 1454.4 L852.837 1454.4 L852.837 1458.33 L838.763 1458.33 L838.763 1466.8 Q839.782 1466.46 840.8 1466.29 Q841.819 1466.11 842.837 1466.11 Q848.624 1466.11 852.004 1469.28 Q855.383 1472.45 855.383 1477.87 Q855.383 1483.45 851.911 1486.55 Q848.439 1489.63 842.12 1489.63 Q839.944 1489.63 837.675 1489.26 Q835.43 1488.89 833.022 1488.15 L833.022 1483.45 Q835.106 1484.58 837.328 1485.14 Q839.55 1485.69 842.027 1485.69 Q846.032 1485.69 848.369 1483.59 Q850.707 1481.48 850.707 1477.87 Q850.707 1474.26 848.369 1472.15 Q846.032 1470.04 842.027 1470.04 Q840.152 1470.04 838.277 1470.46 Q836.425 1470.88 834.481 1471.76 L834.481 1454.4 Z" fill="#000000" fill-rule="evenodd" fill-opacity="1" /><path clip-path="url(#clip280)" d="M864.596 1483.08 L869.48 1483.08 L869.48 1488.96 L864.596 1488.96 L864.596 1483.08 Z" fill="#000000" fill-rule="evenodd" fill-opacity="1" /><path clip-path="url(#clip280)" d="M889.666 1457.48 Q886.054 1457.48 884.226 1461.04 Q882.42 1464.58 882.42 1471.71 Q882.42 1478.82 884.226 1482.38 Q886.054 1485.92 889.666 1485.92 Q893.3 1485.92 895.105 1482.38 Q896.934 1478.82 896.934 1471.71 Q896.934 1464.58 895.105 1461.04 Q893.3 1457.48 889.666 1457.48 M889.666 1453.77 Q895.476 1453.77 898.531 1458.38 Q901.61 1462.96 901.61 1471.71 Q901.61 1480.44 898.531 1485.04 Q895.476 1489.63 889.666 1489.63 Q883.855 1489.63 880.777 1485.04 Q877.721 1480.44 877.721 1471.71 Q877.721 1462.96 880.777 1458.38 Q883.855 1453.77 889.666 1453.77 Z" fill="#000000" fill-rule="evenodd" fill-opacity="1" /><path clip-path="url(#clip280)" d="M919.827 1457.48 Q916.216 1457.48 914.388 1461.04 Q912.582 1464.58 912.582 1471.71 Q912.582 1478.82 914.388 1482.38 Q916.216 1485.92 919.827 1485.92 Q923.462 1485.92 925.267 1482.38 Q927.096 1478.82 927.096 1471.71 Q927.096 1464.58 925.267 1461.04 Q923.462 1457.48 919.827 1457.48 M919.827 1453.77 Q925.638 1453.77 928.693 1458.38 Q931.772 1462.96 931.772 1471.71 Q931.772 1480.44 928.693 1485.04 Q925.638 1489.63 919.827 1489.63 Q914.017 1489.63 910.939 1485.04 Q907.883 1480.44 907.883 1471.71 Q907.883 1462.96 910.939 1458.38 Q914.017 1453.77 919.827 1453.77 Z" fill="#000000" fill-rule="evenodd" fill-opacity="1" /><path clip-path="url(#clip280)" d="M968.16 1463.49 L957.582 1474.12 L968.16 1484.7 L965.406 1487.5 L954.781 1476.87 L944.156 1487.5 L941.425 1484.7 L951.98 1474.12 L941.425 1463.49 L944.156 1460.69 L954.781 1471.32 L965.406 1460.69 L968.16 1463.49 Z" fill="#000000" fill-rule="evenodd" fill-opacity="1" /><path clip-path="url(#clip280)" d="M980.522 1485.02 L988.16 1485.02 L988.16 1458.66 L979.85 1460.32 L979.85 1456.06 L988.114 1454.4 L992.79 1454.4 L992.79 1485.02 L1000.43 1485.02 L1000.43 1488.96 L980.522 1488.96 L980.522 1485.02 Z" fill="#000000" fill-rule="evenodd" fill-opacity="1" /><path clip-path="url(#clip280)" d="M1019.87 1457.48 Q1016.26 1457.48 1014.43 1461.04 Q1012.63 1464.58 1012.63 1471.71 Q1012.63 1478.82 1014.43 1482.38 Q1016.26 1485.92 1019.87 1485.92 Q1023.51 1485.92 1025.31 1482.38 Q1027.14 1478.82 1027.14 1471.71 Q1027.14 1464.58 1025.31 1461.04 Q1023.51 1457.48 1019.87 1457.48 M1019.87 1453.77 Q1025.68 1453.77 1028.74 1458.38 Q1031.82 1462.96 1031.82 1471.71 Q1031.82 1480.44 1028.74 1485.04 Q1025.68 1489.63 1019.87 1489.63 Q1014.06 1489.63 1010.98 1485.04 Q1007.93 1480.44 1007.93 1471.71 Q1007.93 1462.96 1010.98 1458.38 Q1014.06 1453.77 1019.87 1453.77 Z" fill="#000000" fill-rule="evenodd" fill-opacity="1" /><path clip-path="url(#clip280)" d="M1033 1433.47 L1047.92 1433.47 L1047.92 1436.66 L1036.48 1436.66 L1036.48 1443.55 Q1037.31 1443.27 1038.14 1443.13 Q1038.96 1442.98 1039.79 1442.98 Q1044.49 1442.98 1047.24 1445.56 Q1049.99 1448.14 1049.99 1452.54 Q1049.99 1457.07 1047.16 1459.59 Q1044.34 1462.09 1039.21 1462.09 Q1037.44 1462.09 1035.6 1461.79 Q1033.77 1461.49 1031.82 1460.89 L1031.82 1457.07 Q1033.51 1457.99 1035.32 1458.44 Q1037.12 1458.89 1039.13 1458.89 Q1042.39 1458.89 1044.29 1457.18 Q1046.19 1455.47 1046.19 1452.54 Q1046.19 1449.6 1044.29 1447.89 Q1042.39 1446.18 1039.13 1446.18 Q1037.61 1446.18 1036.09 1446.52 Q1034.58 1446.86 1033 1447.57 L1033 1433.47 Z" fill="#000000" fill-rule="evenodd" fill-opacity="1" /><path clip-path="url(#clip280)" d="M1509.29 1485.02 L1516.93 1485.02 L1516.93 1458.66 L1508.62 1460.32 L1508.62 1456.06 L1516.88 1454.4 L1521.56 1454.4 L1521.56 1485.02 L1529.2 1485.02 L1529.2 1488.96 L1509.29 1488.96 L1509.29 1485.02 Z" fill="#000000" fill-rule="evenodd" fill-opacity="1" /><path clip-path="url(#clip280)" d="M1538.64 1483.08 L1543.53 1483.08 L1543.53 1488.96 L1538.64 1488.96 L1538.64 1483.08 Z" fill="#000000" fill-rule="evenodd" fill-opacity="1" /><path clip-path="url(#clip280)" d="M1563.71 1457.48 Q1560.1 1457.48 1558.27 1461.04 Q1556.47 1464.58 1556.47 1471.71 Q1556.47 1478.82 1558.27 1482.38 Q1560.1 1485.92 1563.71 1485.92 Q1567.35 1485.92 1569.15 1482.38 Q1570.98 1478.82 1570.98 1471.71 Q1570.98 1464.58 1569.15 1461.04 Q1567.35 1457.48 1563.71 1457.48 M1563.71 1453.77 Q1569.52 1453.77 1572.58 1458.38 Q1575.66 1462.96 1575.66 1471.71 Q1575.66 1480.44 1572.58 1485.04 Q1569.52 1489.63 1563.71 1489.63 Q1557.9 1489.63 1554.82 1485.04 Q1551.77 1480.44 1551.77 1471.71 Q1551.77 1462.96 1554.82 1458.38 Q1557.9 1453.77 1563.71 1453.77 Z" fill="#000000" fill-rule="evenodd" fill-opacity="1" /><path clip-path="url(#clip280)" d="M1593.87 1457.48 Q1590.26 1457.48 1588.43 1461.04 Q1586.63 1464.58 1586.63 1471.71 Q1586.63 1478.82 1588.43 1482.38 Q1590.26 1485.92 1593.87 1485.92 Q1597.51 1485.92 1599.31 1482.38 Q1601.14 1478.82 1601.14 1471.71 Q1601.14 1464.58 1599.31 1461.04 Q1597.51 1457.48 1593.87 1457.48 M1593.87 1453.77 Q1599.68 1453.77 1602.74 1458.38 Q1605.82 1462.96 1605.82 1471.71 Q1605.82 1480.44 1602.74 1485.04 Q1599.68 1489.63 1593.87 1489.63 Q1588.06 1489.63 1584.99 1485.04 Q1581.93 1480.44 1581.93 1471.71 Q1581.93 1462.96 1584.99 1458.38 Q1588.06 1453.77 1593.87 1453.77 Z" fill="#000000" fill-rule="evenodd" fill-opacity="1" /><path clip-path="url(#clip280)" d="M1642.21 1463.49 L1631.63 1474.12 L1642.21 1484.7 L1639.45 1487.5 L1628.83 1476.87 L1618.2 1487.5 L1615.47 1484.7 L1626.03 1474.12 L1615.47 1463.49 L1618.2 1460.69 L1628.83 1471.32 L1639.45 1460.69 L1642.21 1463.49 Z" fill="#000000" fill-rule="evenodd" fill-opacity="1" /><path clip-path="url(#clip280)" d="M1654.57 1485.02 L1662.21 1485.02 L1662.21 1458.66 L1653.9 1460.32 L1653.9 1456.06 L1662.16 1454.4 L1666.84 1454.4 L1666.84 1485.02 L1674.48 1485.02 L1674.48 1488.96 L1654.57 1488.96 L1654.57 1485.02 Z" fill="#000000" fill-rule="evenodd" fill-opacity="1" /><path clip-path="url(#clip280)" d="M1693.92 1457.48 Q1690.31 1457.48 1688.48 1461.04 Q1686.68 1464.58 1686.68 1471.71 Q1686.68 1478.82 1688.48 1482.38 Q1690.31 1485.92 1693.92 1485.92 Q1697.55 1485.92 1699.36 1482.38 Q1701.19 1478.82 1701.19 1471.71 Q1701.19 1464.58 1699.36 1461.04 Q1697.55 1457.48 1693.92 1457.48 M1693.92 1453.77 Q1699.73 1453.77 1702.79 1458.38 Q1705.86 1462.96 1705.86 1471.71 Q1705.86 1480.44 1702.79 1485.04 Q1699.73 1489.63 1693.92 1489.63 Q1688.11 1489.63 1685.03 1485.04 Q1681.98 1480.44 1681.98 1471.71 Q1681.98 1462.96 1685.03 1458.38 Q1688.11 1453.77 1693.92 1453.77 Z" fill="#000000" fill-rule="evenodd" fill-opacity="1" /><path clip-path="url(#clip280)" d="M1715.89 1445.99 Q1713.33 1445.99 1711.83 1447.74 Q1710.34 1449.49 1710.34 1452.54 Q1710.34 1455.57 1711.83 1457.33 Q1713.33 1459.08 1715.89 1459.08 Q1718.45 1459.08 1719.93 1457.33 Q1721.44 1455.57 1721.44 1452.54 Q1721.44 1449.49 1719.93 1447.74 Q1718.45 1445.99 1715.89 1445.99 M1723.43 1434.09 L1723.43 1437.55 Q1722 1436.87 1720.53 1436.51 Q1719.09 1436.16 1717.66 1436.16 Q1713.9 1436.16 1711.9 1438.69 Q1709.93 1441.23 1709.65 1446.37 Q1710.75 1444.73 1712.43 1443.87 Q1714.1 1442.98 1716.12 1442.98 Q1720.35 1442.98 1722.79 1445.56 Q1725.26 1448.12 1725.26 1452.54 Q1725.26 1456.86 1722.7 1459.48 Q1720.14 1462.09 1715.89 1462.09 Q1711.02 1462.09 1708.44 1458.37 Q1705.86 1454.62 1705.86 1447.53 Q1705.86 1440.88 1709.02 1436.93 Q1712.18 1432.96 1717.51 1432.96 Q1718.94 1432.96 1720.38 1433.24 Q1721.85 1433.52 1723.43 1434.09 Z" fill="#000000" fill-rule="evenodd" fill-opacity="1" /><path clip-path="url(#clip280)" d="M2184.73 1485.02 L2192.36 1485.02 L2192.36 1458.66 L2184.05 1460.32 L2184.05 1456.06 L2192.32 1454.4 L2196.99 1454.4 L2196.99 1485.02 L2204.63 1485.02 L2204.63 1488.96 L2184.73 1488.96 L2184.73 1485.02 Z" fill="#000000" fill-rule="evenodd" fill-opacity="1" /><path clip-path="url(#clip280)" d="M2214.08 1483.08 L2218.96 1483.08 L2218.96 1488.96 L2214.08 1488.96 L2214.08 1483.08 Z" fill="#000000" fill-rule="evenodd" fill-opacity="1" /><path clip-path="url(#clip280)" d="M2229.19 1454.4 L2247.55 1454.4 L2247.55 1458.33 L2233.48 1458.33 L2233.48 1466.8 Q2234.49 1466.46 2235.51 1466.29 Q2236.53 1466.11 2237.55 1466.11 Q2243.34 1466.11 2246.72 1469.28 Q2250.1 1472.45 2250.1 1477.87 Q2250.1 1483.45 2246.62 1486.55 Q2243.15 1489.63 2236.83 1489.63 Q2234.66 1489.63 2232.39 1489.26 Q2230.14 1488.89 2227.73 1488.15 L2227.73 1483.45 Q2229.82 1484.58 2232.04 1485.14 Q2234.26 1485.69 2236.74 1485.69 Q2240.74 1485.69 2243.08 1483.59 Q2245.42 1481.48 2245.42 1477.87 Q2245.42 1474.26 2243.08 1472.15 Q2240.74 1470.04 2236.74 1470.04 Q2234.86 1470.04 2232.99 1470.46 Q2231.14 1470.88 2229.19 1471.76 L2229.19 1454.4 Z" fill="#000000" fill-rule="evenodd" fill-opacity="1" /><path clip-path="url(#clip280)" d="M2269.31 1457.48 Q2265.7 1457.48 2263.87 1461.04 Q2262.06 1464.58 2262.06 1471.71 Q2262.06 1478.82 2263.87 1482.38 Q2265.7 1485.92 2269.31 1485.92 Q2272.94 1485.92 2274.75 1482.38 Q2276.58 1478.82 2276.58 1471.71 Q2276.58 1464.58 2274.75 1461.04 Q2272.94 1457.48 2269.31 1457.48 M2269.31 1453.77 Q2275.12 1453.77 2278.17 1458.38 Q2281.25 1462.96 2281.25 1471.71 Q2281.25 1480.44 2278.17 1485.04 Q2275.12 1489.63 2269.31 1489.63 Q2263.5 1489.63 2260.42 1485.04 Q2257.36 1480.44 2257.36 1471.71 Q2257.36 1462.96 2260.42 1458.38 Q2263.5 1453.77 2269.31 1453.77 Z" fill="#000000" fill-rule="evenodd" fill-opacity="1" /><path clip-path="url(#clip280)" d="M2317.64 1463.49 L2307.06 1474.12 L2317.64 1484.7 L2314.89 1487.5 L2304.26 1476.87 L2293.64 1487.5 L2290.91 1484.7 L2301.46 1474.12 L2290.91 1463.49 L2293.64 1460.69 L2304.26 1471.32 L2314.89 1460.69 L2317.64 1463.49 Z" fill="#000000" fill-rule="evenodd" fill-opacity="1" /><path clip-path="url(#clip280)" d="M2330 1485.02 L2337.64 1485.02 L2337.64 1458.66 L2329.33 1460.32 L2329.33 1456.06 L2337.6 1454.4 L2342.27 1454.4 L2342.27 1485.02 L2349.91 1485.02 L2349.91 1488.96 L2330 1488.96 L2330 1485.02 Z" fill="#000000" fill-rule="evenodd" fill-opacity="1" /><path clip-path="url(#clip280)" d="M2369.35 1457.48 Q2365.74 1457.48 2363.91 1461.04 Q2362.11 1464.58 2362.11 1471.71 Q2362.11 1478.82 2363.91 1482.38 Q2365.74 1485.92 2369.35 1485.92 Q2372.99 1485.92 2374.79 1482.38 Q2376.62 1478.82 2376.62 1471.71 Q2376.62 1464.58 2374.79 1461.04 Q2372.99 1457.48 2369.35 1457.48 M2369.35 1453.77 Q2375.16 1453.77 2378.22 1458.38 Q2381.3 1462.96 2381.3 1471.71 Q2381.3 1480.44 2378.22 1485.04 Q2375.16 1489.63 2369.35 1489.63 Q2363.54 1489.63 2360.47 1485.04 Q2357.41 1480.44 2357.41 1471.71 Q2357.41 1462.96 2360.47 1458.38 Q2363.54 1453.77 2369.35 1453.77 Z" fill="#000000" fill-rule="evenodd" fill-opacity="1" /><path clip-path="url(#clip280)" d="M2391.32 1445.99 Q2388.77 1445.99 2387.26 1447.74 Q2385.78 1449.49 2385.78 1452.54 Q2385.78 1455.57 2387.26 1457.33 Q2388.77 1459.08 2391.32 1459.08 Q2393.88 1459.08 2395.37 1457.33 Q2396.87 1455.57 2396.87 1452.54 Q2396.87 1449.49 2395.37 1447.74 Q2393.88 1445.99 2391.32 1445.99 M2398.87 1434.09 L2398.87 1437.55 Q2397.44 1436.87 2395.97 1436.51 Q2394.52 1436.16 2393.09 1436.16 Q2389.33 1436.16 2387.34 1438.69 Q2385.36 1441.23 2385.08 1446.37 Q2386.19 1444.73 2387.86 1443.87 Q2389.54 1442.98 2391.55 1442.98 Q2395.78 1442.98 2398.23 1445.56 Q2400.69 1448.12 2400.69 1452.54 Q2400.69 1456.86 2398.13 1459.48 Q2395.57 1462.09 2391.32 1462.09 Q2386.45 1462.09 2383.88 1458.37 Q2381.3 1454.62 2381.3 1447.53 Q2381.3 1440.88 2384.46 1436.93 Q2387.62 1432.96 2392.94 1432.96 Q2394.37 1432.96 2395.82 1433.24 Q2397.29 1433.52 2398.87 1434.09 Z" fill="#000000" fill-rule="evenodd" fill-opacity="1" /><path clip-path="url(#clip280)" d="M1135.54 1526.67 L1141.97 1526.67 L1141.97 1574.19 L1135.54 1574.19 L1135.54 1526.67 Z" fill="#000000" fill-rule="evenodd" fill-opacity="1" /><path clip-path="url(#clip280)" d="M1160.3 1528.42 L1160.3 1538.54 L1172.36 1538.54 L1172.36 1543.09 L1160.3 1543.09 L1160.3 1562.44 Q1160.3 1566.8 1161.48 1568.04 Q1162.69 1569.28 1166.35 1569.28 L1172.36 1569.28 L1172.36 1574.19 L1166.35 1574.19 Q1159.57 1574.19 1156.99 1571.67 Q1154.41 1569.12 1154.41 1562.44 L1154.41 1543.09 L1150.12 1543.09 L1150.12 1538.54 L1154.41 1538.54 L1154.41 1528.42 L1160.3 1528.42 Z" fill="#000000" fill-rule="evenodd" fill-opacity="1" /><path clip-path="url(#clip280)" d="M1210.56 1554.9 L1210.56 1557.76 L1183.63 1557.76 Q1184.01 1563.81 1187.26 1566.99 Q1190.54 1570.14 1196.36 1570.14 Q1199.74 1570.14 1202.89 1569.32 Q1206.07 1568.49 1209.19 1566.83 L1209.19 1572.37 Q1206.04 1573.71 1202.73 1574.41 Q1199.42 1575.11 1196.01 1575.11 Q1187.48 1575.11 1182.48 1570.14 Q1177.52 1565.18 1177.52 1556.71 Q1177.52 1547.96 1182.23 1542.83 Q1186.97 1537.68 1194.99 1537.68 Q1202.19 1537.68 1206.36 1542.33 Q1210.56 1546.94 1210.56 1554.9 M1204.7 1553.18 Q1204.64 1548.37 1202 1545.51 Q1199.39 1542.64 1195.06 1542.64 Q1190.16 1542.64 1187.2 1545.41 Q1184.27 1548.18 1183.82 1553.21 L1204.7 1553.18 Z" fill="#000000" fill-rule="evenodd" fill-opacity="1" /><path clip-path="url(#clip280)" d="M1240.83 1544.01 Q1239.84 1543.44 1238.66 1543.18 Q1237.52 1542.9 1236.12 1542.9 Q1231.15 1542.9 1228.48 1546.14 Q1225.84 1549.36 1225.84 1555.41 L1225.84 1574.19 L1219.95 1574.19 L1219.95 1538.54 L1225.84 1538.54 L1225.84 1544.08 Q1227.68 1540.83 1230.64 1539.27 Q1233.6 1537.68 1237.83 1537.68 Q1238.44 1537.68 1239.17 1537.77 Q1239.9 1537.84 1240.79 1538 L1240.83 1544.01 Z" fill="#000000" fill-rule="evenodd" fill-opacity="1" /><path clip-path="url(#clip280)" d="M1263.17 1556.27 Q1256.07 1556.27 1253.34 1557.89 Q1250.6 1559.51 1250.6 1563.43 Q1250.6 1566.55 1252.64 1568.39 Q1254.7 1570.21 1258.24 1570.21 Q1263.11 1570.21 1266.03 1566.77 Q1268.99 1563.3 1268.99 1557.57 L1268.99 1556.27 L1263.17 1556.27 M1274.85 1553.85 L1274.85 1574.19 L1268.99 1574.19 L1268.99 1568.77 Q1266.99 1572.02 1264 1573.58 Q1261.01 1575.11 1256.68 1575.11 Q1251.2 1575.11 1247.96 1572.05 Q1244.74 1568.97 1244.74 1563.81 Q1244.74 1557.79 1248.75 1554.74 Q1252.79 1551.68 1260.78 1551.68 L1268.99 1551.68 L1268.99 1551.11 Q1268.99 1547.07 1266.32 1544.87 Q1263.68 1542.64 1258.87 1542.64 Q1255.82 1542.64 1252.92 1543.38 Q1250.03 1544.11 1247.35 1545.57 L1247.35 1540.16 Q1250.57 1538.92 1253.59 1538.31 Q1256.61 1537.68 1259.48 1537.68 Q1267.21 1537.68 1271.03 1541.69 Q1274.85 1545.7 1274.85 1553.85 Z" fill="#000000" fill-rule="evenodd" fill-opacity="1" /><path clip-path="url(#clip280)" d="M1292.71 1528.42 L1292.71 1538.54 L1304.77 1538.54 L1304.77 1543.09 L1292.71 1543.09 L1292.71 1562.44 Q1292.71 1566.8 1293.88 1568.04 Q1295.09 1569.28 1298.75 1569.28 L1304.77 1569.28 L1304.77 1574.19 L1298.75 1574.19 Q1291.98 1574.19 1289.4 1571.67 Q1286.82 1569.12 1286.82 1562.44 L1286.82 1543.09 L1282.52 1543.09 L1282.52 1538.54 L1286.82 1538.54 L1286.82 1528.42 L1292.71 1528.42 Z" fill="#000000" fill-rule="evenodd" fill-opacity="1" /><path clip-path="url(#clip280)" d="M1312.47 1538.54 L1318.33 1538.54 L1318.33 1574.19 L1312.47 1574.19 L1312.47 1538.54 M1312.47 1524.66 L1318.33 1524.66 L1318.33 1532.08 L1312.47 1532.08 L1312.47 1524.66 Z" fill="#000000" fill-rule="evenodd" fill-opacity="1" /><path clip-path="url(#clip280)" d="M1344.4 1542.64 Q1339.69 1542.64 1336.95 1546.34 Q1334.21 1550 1334.21 1556.39 Q1334.21 1562.79 1336.92 1566.48 Q1339.65 1570.14 1344.4 1570.14 Q1349.08 1570.14 1351.81 1566.45 Q1354.55 1562.76 1354.55 1556.39 Q1354.55 1550.06 1351.81 1546.37 Q1349.08 1542.64 1344.4 1542.64 M1344.4 1537.68 Q1352.04 1537.68 1356.4 1542.64 Q1360.76 1547.61 1360.76 1556.39 Q1360.76 1565.15 1356.4 1570.14 Q1352.04 1575.11 1344.4 1575.11 Q1336.73 1575.11 1332.37 1570.14 Q1328.04 1565.15 1328.04 1556.39 Q1328.04 1547.61 1332.37 1542.64 Q1336.73 1537.68 1344.4 1537.68 Z" fill="#000000" fill-rule="evenodd" fill-opacity="1" /><path clip-path="url(#clip280)" d="M1400.1 1552.67 L1400.1 1574.19 L1394.24 1574.19 L1394.24 1552.86 Q1394.24 1547.8 1392.27 1545.29 Q1390.29 1542.77 1386.35 1542.77 Q1381.6 1542.77 1378.87 1545.79 Q1376.13 1548.82 1376.13 1554.04 L1376.13 1574.19 L1370.24 1574.19 L1370.24 1538.54 L1376.13 1538.54 L1376.13 1544.08 Q1378.23 1540.86 1381.06 1539.27 Q1383.93 1537.68 1387.65 1537.68 Q1393.79 1537.68 1396.95 1541.5 Q1400.1 1545.29 1400.1 1552.67 Z" fill="#000000" fill-rule="evenodd" fill-opacity="1" /><path clip-path="url(#clip280)" d="M1434.5 1539.59 L1434.5 1545.13 Q1432.02 1543.85 1429.35 1543.22 Q1426.67 1542.58 1423.81 1542.58 Q1419.45 1542.58 1417.25 1543.92 Q1415.09 1545.25 1415.09 1547.93 Q1415.09 1549.96 1416.65 1551.14 Q1418.21 1552.29 1422.92 1553.34 L1424.92 1553.78 Q1431.16 1555.12 1433.77 1557.57 Q1436.41 1559.99 1436.41 1564.35 Q1436.41 1569.32 1432.47 1572.21 Q1428.55 1575.11 1421.68 1575.11 Q1418.81 1575.11 1415.69 1574.54 Q1412.61 1573.99 1409.17 1572.88 L1409.17 1566.83 Q1412.41 1568.52 1415.57 1569.38 Q1418.72 1570.21 1421.8 1570.21 Q1425.94 1570.21 1428.17 1568.81 Q1430.4 1567.37 1430.4 1564.8 Q1430.4 1562.41 1428.77 1561.14 Q1427.18 1559.86 1421.74 1558.68 L1419.7 1558.21 Q1414.26 1557.06 1411.84 1554.71 Q1409.42 1552.32 1409.42 1548.18 Q1409.42 1543.15 1412.99 1540.42 Q1416.55 1537.68 1423.11 1537.68 Q1426.36 1537.68 1429.22 1538.16 Q1432.08 1538.63 1434.5 1539.59 Z" fill="#000000" fill-rule="evenodd" fill-opacity="1" /><polyline clip-path="url(#clip282)" style="stroke:#000000; stroke-linecap:round; stroke-linejoin:round; stroke-width:2; stroke-opacity:0.1; fill:none" points="
  219.195,1355.87 2352.76,1355.87 
  "/>
<polyline clip-path="url(#clip282)" style="stroke:#000000; stroke-linecap:round; stroke-linejoin:round; stroke-width:2; stroke-opacity:0.1; fill:none" points="
  219.195,1136.8 2352.76,1136.8 
  "/>
<polyline clip-path="url(#clip282)" style="stroke:#000000; stroke-linecap:round; stroke-linejoin:round; stroke-width:2; stroke-opacity:0.1; fill:none" points="
  219.195,917.729 2352.76,917.729 
  "/>
<polyline clip-path="url(#clip282)" style="stroke:#000000; stroke-linecap:round; stroke-linejoin:round; stroke-width:2; stroke-opacity:0.1; fill:none" points="
  219.195,698.657 2352.76,698.657 
  "/>
<polyline clip-path="url(#clip282)" style="stroke:#000000; stroke-linecap:round; stroke-linejoin:round; stroke-width:2; stroke-opacity:0.1; fill:none" points="
  219.195,479.585 2352.76,479.585 
  "/>
<polyline clip-path="url(#clip282)" style="stroke:#000000; stroke-linecap:round; stroke-linejoin:round; stroke-width:2; stroke-opacity:0.1; fill:none" points="
  219.195,260.513 2352.76,260.513 
  "/>
<polyline clip-path="url(#clip280)" style="stroke:#000000; stroke-linecap:round; stroke-linejoin:round; stroke-width:4; stroke-opacity:1; fill:none" points="
  219.195,1410.9 219.195,47.2441 
  "/>
<polyline clip-path="url(#clip280)" style="stroke:#000000; stroke-linecap:round; stroke-linejoin:round; stroke-width:4; stroke-opacity:1; fill:none" points="
  219.195,1355.87 238.093,1355.87 
  "/>
<polyline clip-path="url(#clip280)" style="stroke:#000000; stroke-linecap:round; stroke-linejoin:round; stroke-width:4; stroke-opacity:1; fill:none" points="
  219.195,1136.8 238.093,1136.8 
  "/>
<polyline clip-path="url(#clip280)" style="stroke:#000000; stroke-linecap:round; stroke-linejoin:round; stroke-width:4; stroke-opacity:1; fill:none" points="
  219.195,917.729 238.093,917.729 
  "/>
<polyline clip-path="url(#clip280)" style="stroke:#000000; stroke-linecap:round; stroke-linejoin:round; stroke-width:4; stroke-opacity:1; fill:none" points="
  219.195,698.657 238.093,698.657 
  "/>
<polyline clip-path="url(#clip280)" style="stroke:#000000; stroke-linecap:round; stroke-linejoin:round; stroke-width:4; stroke-opacity:1; fill:none" points="
  219.195,479.585 238.093,479.585 
  "/>
<polyline clip-path="url(#clip280)" style="stroke:#000000; stroke-linecap:round; stroke-linejoin:round; stroke-width:4; stroke-opacity:1; fill:none" points="
  219.195,260.513 238.093,260.513 
  "/>
<path clip-path="url(#clip280)" d="M116.066 1338.59 L134.422 1338.59 L134.422 1342.53 L120.348 1342.53 L120.348 1351 Q121.367 1350.65 122.385 1350.49 Q123.404 1350.31 124.422 1350.31 Q130.209 1350.31 133.589 1353.48 Q136.968 1356.65 136.968 1362.06 Q136.968 1367.64 133.496 1370.74 Q130.024 1373.82 123.705 1373.82 Q121.529 1373.82 119.26 1373.45 Q117.015 1373.08 114.607 1372.34 L114.607 1367.64 Q116.691 1368.78 118.913 1369.33 Q121.135 1369.89 123.612 1369.89 Q127.617 1369.89 129.955 1367.78 Q132.292 1365.68 132.292 1362.06 Q132.292 1358.45 129.955 1356.35 Q127.617 1354.24 123.612 1354.24 Q121.737 1354.24 119.862 1354.66 Q118.01 1355.07 116.066 1355.95 L116.066 1338.59 Z" fill="#000000" fill-rule="evenodd" fill-opacity="1" /><path clip-path="url(#clip280)" d="M146.181 1367.27 L151.066 1367.27 L151.066 1373.15 L146.181 1373.15 L146.181 1367.27 Z" fill="#000000" fill-rule="evenodd" fill-opacity="1" /><path clip-path="url(#clip280)" d="M171.251 1341.67 Q167.64 1341.67 165.811 1345.24 Q164.005 1348.78 164.005 1355.91 Q164.005 1363.01 165.811 1366.58 Q167.64 1370.12 171.251 1370.12 Q174.885 1370.12 176.69 1366.58 Q178.519 1363.01 178.519 1355.91 Q178.519 1348.78 176.69 1345.24 Q174.885 1341.67 171.251 1341.67 M171.251 1337.97 Q177.061 1337.97 180.116 1342.57 Q183.195 1347.16 183.195 1355.91 Q183.195 1364.63 180.116 1369.24 Q177.061 1373.82 171.251 1373.82 Q165.44 1373.82 162.362 1369.24 Q159.306 1364.63 159.306 1355.91 Q159.306 1347.16 162.362 1342.57 Q165.44 1337.97 171.251 1337.97 Z" fill="#000000" fill-rule="evenodd" fill-opacity="1" /><path clip-path="url(#clip280)" d="M117.061 1119.52 L135.417 1119.52 L135.417 1123.46 L121.343 1123.46 L121.343 1131.93 Q122.362 1131.58 123.38 1131.42 Q124.399 1131.23 125.418 1131.23 Q131.205 1131.23 134.584 1134.4 Q137.964 1137.58 137.964 1142.99 Q137.964 1148.57 134.492 1151.67 Q131.019 1154.75 124.7 1154.75 Q122.524 1154.75 120.255 1154.38 Q118.01 1154.01 115.603 1153.27 L115.603 1148.57 Q117.686 1149.71 119.908 1150.26 Q122.13 1150.82 124.607 1150.82 Q128.612 1150.82 130.95 1148.71 Q133.288 1146.6 133.288 1142.99 Q133.288 1139.38 130.95 1137.27 Q128.612 1135.17 124.607 1135.17 Q122.732 1135.17 120.857 1135.59 Q119.006 1136 117.061 1136.88 L117.061 1119.52 Z" fill="#000000" fill-rule="evenodd" fill-opacity="1" /><path clip-path="url(#clip280)" d="M147.177 1148.2 L152.061 1148.2 L152.061 1154.08 L147.177 1154.08 L147.177 1148.2 Z" fill="#000000" fill-rule="evenodd" fill-opacity="1" /><path clip-path="url(#clip280)" d="M162.292 1119.52 L180.649 1119.52 L180.649 1123.46 L166.575 1123.46 L166.575 1131.93 Q167.593 1131.58 168.612 1131.42 Q169.63 1131.23 170.649 1131.23 Q176.436 1131.23 179.815 1134.4 Q183.195 1137.58 183.195 1142.99 Q183.195 1148.57 179.723 1151.67 Q176.251 1154.75 169.931 1154.75 Q167.755 1154.75 165.487 1154.38 Q163.241 1154.01 160.834 1153.27 L160.834 1148.57 Q162.917 1149.71 165.14 1150.26 Q167.362 1150.82 169.839 1150.82 Q173.843 1150.82 176.181 1148.71 Q178.519 1146.6 178.519 1142.99 Q178.519 1139.38 176.181 1137.27 Q173.843 1135.17 169.839 1135.17 Q167.964 1135.17 166.089 1135.59 Q164.237 1136 162.292 1136.88 L162.292 1119.52 Z" fill="#000000" fill-rule="evenodd" fill-opacity="1" /><path clip-path="url(#clip280)" d="M126.598 915.865 Q123.45 915.865 121.598 918.018 Q119.769 920.171 119.769 923.921 Q119.769 927.647 121.598 929.823 Q123.45 931.976 126.598 931.976 Q129.746 931.976 131.575 929.823 Q133.427 927.647 133.427 923.921 Q133.427 920.171 131.575 918.018 Q129.746 915.865 126.598 915.865 M135.88 901.212 L135.88 905.472 Q134.121 904.638 132.316 904.199 Q130.533 903.759 128.774 903.759 Q124.144 903.759 121.691 906.884 Q119.26 910.009 118.913 916.328 Q120.279 914.314 122.339 913.249 Q124.399 912.161 126.876 912.161 Q132.084 912.161 135.093 915.333 Q138.126 918.481 138.126 923.921 Q138.126 929.245 134.978 932.462 Q131.83 935.68 126.598 935.68 Q120.603 935.68 117.431 931.097 Q114.26 926.49 114.26 917.763 Q114.26 909.569 118.149 904.708 Q122.038 899.824 128.589 899.824 Q130.348 899.824 132.13 900.171 Q133.936 900.518 135.88 901.212 Z" fill="#000000" fill-rule="evenodd" fill-opacity="1" /><path clip-path="url(#clip280)" d="M146.181 929.129 L151.066 929.129 L151.066 935.009 L146.181 935.009 L146.181 929.129 Z" fill="#000000" fill-rule="evenodd" fill-opacity="1" /><path clip-path="url(#clip280)" d="M171.251 903.527 Q167.64 903.527 165.811 907.092 Q164.005 910.634 164.005 917.763 Q164.005 924.87 165.811 928.435 Q167.64 931.976 171.251 931.976 Q174.885 931.976 176.69 928.435 Q178.519 924.87 178.519 917.763 Q178.519 910.634 176.69 907.092 Q174.885 903.527 171.251 903.527 M171.251 899.824 Q177.061 899.824 180.116 904.43 Q183.195 909.013 183.195 917.763 Q183.195 926.49 180.116 931.097 Q177.061 935.68 171.251 935.68 Q165.44 935.68 162.362 931.097 Q159.306 926.49 159.306 917.763 Q159.306 909.013 162.362 904.43 Q165.44 899.824 171.251 899.824 Z" fill="#000000" fill-rule="evenodd" fill-opacity="1" /><path clip-path="url(#clip280)" d="M127.593 696.793 Q124.445 696.793 122.593 698.946 Q120.765 701.099 120.765 704.849 Q120.765 708.576 122.593 710.752 Q124.445 712.904 127.593 712.904 Q130.742 712.904 132.57 710.752 Q134.422 708.576 134.422 704.849 Q134.422 701.099 132.57 698.946 Q130.742 696.793 127.593 696.793 M136.876 682.141 L136.876 686.4 Q135.117 685.566 133.311 685.127 Q131.529 684.687 129.769 684.687 Q125.14 684.687 122.686 687.812 Q120.255 690.937 119.908 697.256 Q121.274 695.242 123.334 694.178 Q125.394 693.09 127.871 693.09 Q133.08 693.09 136.089 696.261 Q139.121 699.409 139.121 704.849 Q139.121 710.173 135.973 713.39 Q132.825 716.608 127.593 716.608 Q121.598 716.608 118.427 712.025 Q115.256 707.418 115.256 698.691 Q115.256 690.497 119.144 685.636 Q123.033 680.752 129.584 680.752 Q131.343 680.752 133.126 681.099 Q134.931 681.446 136.876 682.141 Z" fill="#000000" fill-rule="evenodd" fill-opacity="1" /><path clip-path="url(#clip280)" d="M147.177 710.057 L152.061 710.057 L152.061 715.937 L147.177 715.937 L147.177 710.057 Z" fill="#000000" fill-rule="evenodd" fill-opacity="1" /><path clip-path="url(#clip280)" d="M162.292 681.377 L180.649 681.377 L180.649 685.312 L166.575 685.312 L166.575 693.784 Q167.593 693.437 168.612 693.275 Q169.63 693.09 170.649 693.09 Q176.436 693.09 179.815 696.261 Q183.195 699.432 183.195 704.849 Q183.195 710.427 179.723 713.529 Q176.251 716.608 169.931 716.608 Q167.755 716.608 165.487 716.238 Q163.241 715.867 160.834 715.126 L160.834 710.427 Q162.917 711.562 165.14 712.117 Q167.362 712.673 169.839 712.673 Q173.843 712.673 176.181 710.566 Q178.519 708.46 178.519 704.849 Q178.519 701.238 176.181 699.131 Q173.843 697.025 169.839 697.025 Q167.964 697.025 166.089 697.441 Q164.237 697.858 162.292 698.738 L162.292 681.377 Z" fill="#000000" fill-rule="evenodd" fill-opacity="1" /><path clip-path="url(#clip280)" d="M114.839 462.305 L137.061 462.305 L137.061 464.296 L124.515 496.865 L119.63 496.865 L131.436 466.24 L114.839 466.24 L114.839 462.305 Z" fill="#000000" fill-rule="evenodd" fill-opacity="1" /><path clip-path="url(#clip280)" d="M146.181 490.985 L151.066 490.985 L151.066 496.865 L146.181 496.865 L146.181 490.985 Z" fill="#000000" fill-rule="evenodd" fill-opacity="1" /><path clip-path="url(#clip280)" d="M171.251 465.383 Q167.64 465.383 165.811 468.948 Q164.005 472.49 164.005 479.62 Q164.005 486.726 165.811 490.291 Q167.64 493.832 171.251 493.832 Q174.885 493.832 176.69 490.291 Q178.519 486.726 178.519 479.62 Q178.519 472.49 176.69 468.948 Q174.885 465.383 171.251 465.383 M171.251 461.68 Q177.061 461.68 180.116 466.286 Q183.195 470.87 183.195 479.62 Q183.195 488.346 180.116 492.953 Q177.061 497.536 171.251 497.536 Q165.44 497.536 162.362 492.953 Q159.306 488.346 159.306 479.62 Q159.306 470.87 162.362 466.286 Q165.44 461.68 171.251 461.68 Z" fill="#000000" fill-rule="evenodd" fill-opacity="1" /><path clip-path="url(#clip280)" d="M115.834 243.233 L138.056 243.233 L138.056 245.224 L125.51 277.793 L120.626 277.793 L132.431 247.168 L115.834 247.168 L115.834 243.233 Z" fill="#000000" fill-rule="evenodd" fill-opacity="1" /><path clip-path="url(#clip280)" d="M147.177 271.913 L152.061 271.913 L152.061 277.793 L147.177 277.793 L147.177 271.913 Z" fill="#000000" fill-rule="evenodd" fill-opacity="1" /><path clip-path="url(#clip280)" d="M162.292 243.233 L180.649 243.233 L180.649 247.168 L166.575 247.168 L166.575 255.64 Q167.593 255.293 168.612 255.131 Q169.63 254.946 170.649 254.946 Q176.436 254.946 179.815 258.117 Q183.195 261.288 183.195 266.705 Q183.195 272.284 179.723 275.386 Q176.251 278.464 169.931 278.464 Q167.755 278.464 165.487 278.094 Q163.241 277.723 160.834 276.983 L160.834 272.284 Q162.917 273.418 165.14 273.973 Q167.362 274.529 169.839 274.529 Q173.843 274.529 176.181 272.423 Q178.519 270.316 178.519 266.705 Q178.519 263.094 176.181 260.987 Q173.843 258.881 169.839 258.881 Q167.964 258.881 166.089 259.298 Q164.237 259.714 162.292 260.594 L162.292 243.233 Z" fill="#000000" fill-rule="evenodd" fill-opacity="1" /><path clip-path="url(#clip280)" d="M22.818 1126.31 L46.4666 1135.03 L46.4666 1117.55 L22.818 1126.31 M16.4842 1129.93 L16.4842 1122.65 L64.0042 1104.54 L64.0042 1111.22 L51.8138 1115.55 L51.8138 1136.97 L64.0042 1141.3 L64.0042 1148.08 L16.4842 1129.93 Z" fill="#000000" fill-rule="evenodd" fill-opacity="1" /><path clip-path="url(#clip280)" d="M28.3562 1105.87 L28.3562 1099.67 L58.275 1088.53 L28.3562 1077.39 L28.3562 1071.18 L64.0042 1084.55 L64.0042 1092.5 L28.3562 1105.87 Z" fill="#000000" fill-rule="evenodd" fill-opacity="1" /><path clip-path="url(#clip280)" d="M44.7161 1032.6 L47.5806 1032.6 L47.5806 1059.53 Q53.6281 1059.15 56.8109 1055.9 Q59.9619 1052.62 59.9619 1046.8 Q59.9619 1043.42 59.1344 1040.27 Q58.3069 1037.09 56.6518 1033.97 L62.1899 1033.97 Q63.5267 1037.12 64.227 1040.43 Q64.9272 1043.74 64.9272 1047.15 Q64.9272 1055.68 59.9619 1060.68 Q54.9967 1065.64 46.5303 1065.64 Q37.7774 1065.64 32.6531 1060.93 Q27.4968 1056.19 27.4968 1048.17 Q27.4968 1040.97 32.1438 1036.8 Q36.7589 1032.6 44.7161 1032.6 M42.9973 1038.46 Q38.1912 1038.52 35.3266 1041.17 Q32.4621 1043.77 32.4621 1048.1 Q32.4621 1053.01 35.2312 1055.97 Q38.0002 1058.89 43.0292 1059.34 L42.9973 1038.46 Z" fill="#000000" fill-rule="evenodd" fill-opacity="1" /><path clip-path="url(#clip280)" d="M33.8307 1002.33 Q33.2578 1003.32 33.0032 1004.5 Q32.7167 1005.64 32.7167 1007.04 Q32.7167 1012.01 35.9632 1014.68 Q39.1779 1017.33 45.2253 1017.33 L64.0042 1017.33 L64.0042 1023.21 L28.3562 1023.21 L28.3562 1017.33 L33.8944 1017.33 Q30.6479 1015.48 29.0883 1012.52 Q27.4968 1009.56 27.4968 1005.33 Q27.4968 1004.72 27.5923 1003.99 Q27.656 1003.26 27.8151 1002.37 L33.8307 1002.33 Z" fill="#000000" fill-rule="evenodd" fill-opacity="1" /><path clip-path="url(#clip280)" d="M46.0847 979.991 Q46.0847 987.088 47.7079 989.826 Q49.3312 992.563 53.2461 992.563 Q56.3653 992.563 58.2114 990.526 Q60.0256 988.457 60.0256 984.924 Q60.0256 980.054 56.5881 977.126 Q53.1188 974.166 47.3897 974.166 L46.0847 974.166 L46.0847 979.991 M43.6657 968.31 L64.0042 968.31 L64.0042 974.166 L58.5933 974.166 Q61.8398 976.171 63.3994 979.163 Q64.9272 982.155 64.9272 986.484 Q64.9272 991.958 61.8716 995.205 Q58.7843 998.419 53.6281 998.419 Q47.6125 998.419 44.5569 994.409 Q41.5014 990.367 41.5014 982.378 L41.5014 974.166 L40.9285 974.166 Q36.8862 974.166 34.6901 976.84 Q32.4621 979.481 32.4621 984.287 Q32.4621 987.343 33.1941 990.239 Q33.9262 993.136 35.3903 995.809 L29.9795 995.809 Q28.7381 992.595 28.1334 989.571 Q27.4968 986.547 27.4968 983.683 Q27.4968 975.948 31.5072 972.129 Q35.5176 968.31 43.6657 968.31 Z" fill="#000000" fill-rule="evenodd" fill-opacity="1" /><path clip-path="url(#clip280)" d="M45.7664 932.789 Q39.4007 932.789 35.8996 935.431 Q32.3984 938.041 32.3984 942.783 Q32.3984 947.494 35.8996 950.135 Q39.4007 952.745 45.7664 952.745 Q52.1003 952.745 55.6014 950.135 Q59.1026 947.494 59.1026 942.783 Q59.1026 938.041 55.6014 935.431 Q52.1003 932.789 45.7664 932.789 M59.58 926.932 Q68.683 926.932 73.1071 930.975 Q77.5631 935.017 77.5631 943.356 Q77.5631 946.443 77.0857 949.181 Q76.6401 951.918 75.6852 954.496 L69.9879 954.496 Q71.3884 951.918 72.0568 949.403 Q72.7252 946.889 72.7252 944.279 Q72.7252 938.518 69.7015 935.653 Q66.7096 932.789 60.6303 932.789 L57.7339 932.789 Q60.885 934.603 62.4446 937.436 Q64.0042 940.269 64.0042 944.215 Q64.0042 950.772 59.0071 954.782 Q54.01 958.793 45.7664 958.793 Q37.491 958.793 32.4939 954.782 Q27.4968 950.772 27.4968 944.215 Q27.4968 940.269 29.0564 937.436 Q30.616 934.603 33.7671 932.789 L28.3562 932.789 L28.3562 926.932 L59.58 926.932 Z" fill="#000000" fill-rule="evenodd" fill-opacity="1" /><path clip-path="url(#clip280)" d="M44.7161 884.378 L47.5806 884.378 L47.5806 911.305 Q53.6281 910.923 56.8109 907.676 Q59.9619 904.398 59.9619 898.573 Q59.9619 895.199 59.1344 892.048 Q58.3069 888.866 56.6518 885.746 L62.1899 885.746 Q63.5267 888.897 64.227 892.208 Q64.9272 895.518 64.9272 898.923 Q64.9272 907.453 59.9619 912.45 Q54.9967 917.416 46.5303 917.416 Q37.7774 917.416 32.6531 912.705 Q27.4968 907.963 27.4968 899.942 Q27.4968 892.749 32.1438 888.579 Q36.7589 884.378 44.7161 884.378 M42.9973 890.234 Q38.1912 890.298 35.3266 892.94 Q32.4621 895.55 32.4621 899.878 Q32.4621 904.78 35.2312 907.74 Q38.0002 910.668 43.0292 911.114 L42.9973 890.234 Z" fill="#000000" fill-rule="evenodd" fill-opacity="1" /><path clip-path="url(#clip280)" d="M20.1444 818.206 L26.9239 818.206 Q23.9002 821.453 22.4043 825.145 Q20.9083 828.805 20.9083 832.943 Q20.9083 841.091 25.9054 845.42 Q30.8707 849.748 40.2919 849.748 Q49.6813 849.748 54.6784 845.42 Q59.6436 841.091 59.6436 832.943 Q59.6436 828.805 58.1477 825.145 Q56.6518 821.453 53.6281 818.206 L60.3439 818.206 Q62.6355 821.58 63.7814 825.368 Q64.9272 829.123 64.9272 833.325 Q64.9272 844.115 58.3387 850.321 Q51.7183 856.528 40.2919 856.528 Q28.8336 856.528 22.2451 850.321 Q15.6248 844.115 15.6248 833.325 Q15.6248 829.06 16.7706 825.304 Q17.8846 821.516 20.1444 818.206 Z" fill="#000000" fill-rule="evenodd" fill-opacity="1" /><path clip-path="url(#clip280)" d="M32.4621 794.717 Q32.4621 799.427 36.1542 802.165 Q39.8145 804.902 46.212 804.902 Q52.6095 804.902 56.3017 802.196 Q59.9619 799.459 59.9619 794.717 Q59.9619 790.038 56.2698 787.301 Q52.5777 784.563 46.212 784.563 Q39.8781 784.563 36.186 787.301 Q32.4621 790.038 32.4621 794.717 M27.4968 794.717 Q27.4968 787.078 32.4621 782.717 Q37.4273 778.357 46.212 778.357 Q54.9649 778.357 59.9619 782.717 Q64.9272 787.078 64.9272 794.717 Q64.9272 802.387 59.9619 806.748 Q54.9649 811.077 46.212 811.077 Q37.4273 811.077 32.4621 806.748 Q27.4968 802.387 27.4968 794.717 Z" fill="#000000" fill-rule="evenodd" fill-opacity="1" /><path clip-path="url(#clip280)" d="M35.1993 740.895 Q31.2526 738.698 29.3747 735.643 Q27.4968 732.587 27.4968 728.45 Q27.4968 722.88 31.4117 719.856 Q35.2948 716.832 42.4881 716.832 L64.0042 716.832 L64.0042 722.721 L42.679 722.721 Q37.5546 722.721 35.072 724.535 Q32.5894 726.349 32.5894 730.073 Q32.5894 734.624 35.6131 737.266 Q38.6368 739.908 43.8567 739.908 L64.0042 739.908 L64.0042 745.796 L42.679 745.796 Q37.5228 745.796 35.072 747.61 Q32.5894 749.425 32.5894 753.212 Q32.5894 757.7 35.6449 760.342 Q38.6686 762.984 43.8567 762.984 L64.0042 762.984 L64.0042 768.872 L28.3562 768.872 L28.3562 762.984 L33.8944 762.984 Q30.616 760.978 29.0564 758.178 Q27.4968 755.377 27.4968 751.525 Q27.4968 747.642 29.4702 744.937 Q31.4436 742.2 35.1993 740.895 Z" fill="#000000" fill-rule="evenodd" fill-opacity="1" /><path clip-path="url(#clip280)" d="M58.657 699.486 L77.5631 699.486 L77.5631 705.374 L28.3562 705.374 L28.3562 699.486 L33.7671 699.486 Q30.5842 697.64 29.0564 694.839 Q27.4968 692.006 27.4968 688.091 Q27.4968 681.598 32.6531 677.556 Q37.8093 673.482 46.212 673.482 Q54.6147 673.482 59.771 677.556 Q64.9272 681.598 64.9272 688.091 Q64.9272 692.006 63.3994 694.839 Q61.8398 697.64 58.657 699.486 M46.212 679.561 Q39.7508 679.561 36.0905 682.235 Q32.3984 684.876 32.3984 689.523 Q32.3984 694.17 36.0905 696.844 Q39.7508 699.486 46.212 699.486 Q52.6732 699.486 56.3653 696.844 Q60.0256 694.17 60.0256 689.523 Q60.0256 684.876 56.3653 682.235 Q52.6732 679.561 46.212 679.561 Z" fill="#000000" fill-rule="evenodd" fill-opacity="1" /><path clip-path="url(#clip280)" d="M14.479 663.774 L14.479 657.918 L64.0042 657.918 L64.0042 663.774 L14.479 663.774 Z" fill="#000000" fill-rule="evenodd" fill-opacity="1" /><path clip-path="url(#clip280)" d="M44.7161 615.172 L47.5806 615.172 L47.5806 642.099 Q53.6281 641.717 56.8109 638.47 Q59.9619 635.192 59.9619 629.367 Q59.9619 625.994 59.1344 622.843 Q58.3069 619.66 56.6518 616.541 L62.1899 616.541 Q63.5267 619.692 64.227 623.002 Q64.9272 626.312 64.9272 629.718 Q64.9272 638.248 59.9619 643.245 Q54.9967 648.21 46.5303 648.21 Q37.7774 648.21 32.6531 643.499 Q27.4968 638.757 27.4968 630.736 Q27.4968 623.543 32.1438 619.373 Q36.7589 615.172 44.7161 615.172 M42.9973 621.028 Q38.1912 621.092 35.3266 623.734 Q32.4621 626.344 32.4621 630.672 Q32.4621 635.574 35.2312 638.534 Q38.0002 641.462 43.0292 641.908 L42.9973 621.028 Z" fill="#000000" fill-rule="evenodd" fill-opacity="1" /><path clip-path="url(#clip280)" d="M18.2347 599.767 L28.3562 599.767 L28.3562 587.704 L32.9077 587.704 L32.9077 599.767 L52.2594 599.767 Q56.6199 599.767 57.8613 598.589 Q59.1026 597.38 59.1026 593.72 L59.1026 587.704 L64.0042 587.704 L64.0042 593.72 Q64.0042 600.499 61.4897 603.077 Q58.9434 605.655 52.2594 605.655 L32.9077 605.655 L32.9077 609.952 L28.3562 609.952 L28.3562 605.655 L18.2347 605.655 L18.2347 599.767 Z" fill="#000000" fill-rule="evenodd" fill-opacity="1" /><path clip-path="url(#clip280)" d="M28.3562 580.001 L28.3562 574.145 L64.0042 574.145 L64.0042 580.001 L28.3562 580.001 M14.479 580.001 L14.479 574.145 L21.895 574.145 L21.895 580.001 L14.479 580.001 Z" fill="#000000" fill-rule="evenodd" fill-opacity="1" /><path clip-path="url(#clip280)" d="M32.4621 548.077 Q32.4621 552.788 36.1542 555.525 Q39.8145 558.263 46.212 558.263 Q52.6095 558.263 56.3017 555.557 Q59.9619 552.82 59.9619 548.077 Q59.9619 543.399 56.2698 540.661 Q52.5777 537.924 46.212 537.924 Q39.8781 537.924 36.186 540.661 Q32.4621 543.399 32.4621 548.077 M27.4968 548.077 Q27.4968 540.439 32.4621 536.078 Q37.4273 531.718 46.212 531.718 Q54.9649 531.718 59.9619 536.078 Q64.9272 540.439 64.9272 548.077 Q64.9272 555.748 59.9619 560.109 Q54.9649 564.437 46.212 564.437 Q37.4273 564.437 32.4621 560.109 Q27.4968 555.748 27.4968 548.077 Z" fill="#000000" fill-rule="evenodd" fill-opacity="1" /><path clip-path="url(#clip280)" d="M42.4881 492.377 L64.0042 492.377 L64.0042 498.234 L42.679 498.234 Q37.6183 498.234 35.1038 500.207 Q32.5894 502.181 32.5894 506.127 Q32.5894 510.87 35.6131 513.607 Q38.6368 516.344 43.8567 516.344 L64.0042 516.344 L64.0042 522.233 L28.3562 522.233 L28.3562 516.344 L33.8944 516.344 Q30.6797 514.244 29.0883 511.411 Q27.4968 508.546 27.4968 504.822 Q27.4968 498.68 31.3163 495.529 Q35.1038 492.377 42.4881 492.377 Z" fill="#000000" fill-rule="evenodd" fill-opacity="1" /><path clip-path="url(#clip280)" d="M16.4842 466.31 L16.4842 426.11 L21.895 426.11 L21.895 442.98 L64.0042 442.98 L64.0042 449.441 L21.895 449.441 L21.895 466.31 L16.4842 466.31 Z" fill="#000000" fill-rule="evenodd" fill-opacity="1" /><path clip-path="url(#clip280)" d="M28.3562 422.164 L28.3562 416.307 L64.0042 416.307 L64.0042 422.164 L28.3562 422.164 M14.479 422.164 L14.479 416.307 L21.895 416.307 L21.895 422.164 L14.479 422.164 Z" fill="#000000" fill-rule="evenodd" fill-opacity="1" /><path clip-path="url(#clip280)" d="M35.1993 376.299 Q31.2526 374.103 29.3747 371.047 Q27.4968 367.992 27.4968 363.854 Q27.4968 358.284 31.4117 355.26 Q35.2948 352.236 42.4881 352.236 L64.0042 352.236 L64.0042 358.125 L42.679 358.125 Q37.5546 358.125 35.072 359.939 Q32.5894 361.753 32.5894 365.477 Q32.5894 370.029 35.6131 372.67 Q38.6368 375.312 43.8567 375.312 L64.0042 375.312 L64.0042 381.2 L42.679 381.2 Q37.5228 381.2 35.072 383.015 Q32.5894 384.829 32.5894 388.616 Q32.5894 393.104 35.6449 395.746 Q38.6686 398.388 43.8567 398.388 L64.0042 398.388 L64.0042 404.276 L28.3562 404.276 L28.3562 398.388 L33.8944 398.388 Q30.616 396.383 29.0564 393.582 Q27.4968 390.781 27.4968 386.93 Q27.4968 383.046 29.4702 380.341 Q31.4436 377.604 35.1993 376.299 Z" fill="#000000" fill-rule="evenodd" fill-opacity="1" /><path clip-path="url(#clip280)" d="M44.7161 310.064 L47.5806 310.064 L47.5806 336.991 Q53.6281 336.609 56.8109 333.362 Q59.9619 330.084 59.9619 324.259 Q59.9619 320.885 59.1344 317.734 Q58.3069 314.551 56.6518 311.432 L62.1899 311.432 Q63.5267 314.583 64.227 317.893 Q64.9272 321.204 64.9272 324.609 Q64.9272 333.139 59.9619 338.136 Q54.9967 343.102 46.5303 343.102 Q37.7774 343.102 32.6531 338.391 Q27.4968 333.649 27.4968 325.628 Q27.4968 318.435 32.1438 314.265 Q36.7589 310.064 44.7161 310.064 M42.9973 315.92 Q38.1912 315.984 35.3266 318.626 Q32.4621 321.235 32.4621 325.564 Q32.4621 330.466 35.2312 333.426 Q38.0002 336.354 43.0292 336.8 L42.9973 315.92 Z" fill="#000000" fill-rule="evenodd" fill-opacity="1" /><polyline clip-path="url(#clip282)" style="stroke:#009af9; stroke-linecap:round; stroke-linejoin:round; stroke-width:4; stroke-opacity:1; fill:none" points="
  374.14,1312.06 387.648,1372.3 401.157,358.791 414.666,131.176 428.174,85.838 441.683,162.104 455.192,311.532 468.7,395.81 482.209,560.289 495.718,572.537 
  509.226,659.537 522.735,598.733 536.244,297.948 549.752,293.497 563.261,720.282 576.77,682.17 590.278,638.073 603.787,642.862 617.296,677.784 630.804,675.486 
  644.313,513.489 657.822,611.893 671.33,701.623 684.839,674.8 698.348,889.349 711.857,775.715 725.365,696.727 738.874,688.877 752.383,729.977 765.891,752.139 
  779.4,733.994 792.909,785.19 806.417,814.247 819.926,753.928 833.435,779.896 846.943,789.288 860.452,706.205 873.961,638.44 887.469,822.049 900.978,711.883 
  914.487,772.523 927.995,614.771 941.504,762.571 955.013,873.914 968.521,855.448 982.03,816.831 995.539,898.619 1009.05,744.241 1022.56,766.88 1036.06,705.682 
  1049.57,787.381 1063.08,820.679 1076.59,811.242 1090.1,831.223 1103.61,763.518 1117.12,713.913 1130.63,831.173 1144.13,819.691 1157.64,827.361 1171.15,802.569 
  1184.66,715.878 1198.17,780.432 1211.68,889.611 1225.19,865.524 1238.7,833.959 1252.2,853.23 1265.71,827.82 1279.22,794.008 1292.73,729.561 1306.24,748.976 
  1319.75,681.388 1333.26,774.781 1346.76,797.734 1360.27,868.27 1373.78,807.019 1387.29,874.581 1400.8,838.081 1414.31,729.194 1427.82,715.963 1441.33,806.404 
  1454.83,863.016 1468.34,864.72 1481.85,837.346 1495.36,749.452 1508.87,767.27 1522.38,687.988 1535.89,791.45 1549.39,679.805 1562.9,797.527 1576.41,814.776 
  1589.92,685.175 1603.43,767.915 1616.94,809.791 1630.45,779.849 1643.96,721.472 1657.46,746.662 1670.97,812.96 1684.48,739.961 1697.99,737.726 1711.5,679.753 
  1725.01,492.656 1738.52,413.021 1752.02,573.22 1765.53,804.766 1779.04,677.107 1792.55,871.901 1806.06,450.747 1819.57,591.548 1833.08,767.593 1846.59,689.361 
  1860.09,632.017 1873.6,742.974 1887.11,921.574 1900.62,829.692 1914.13,901.728 1927.64,772.654 1941.15,905.331 1954.66,847.19 1968.16,811.035 1981.67,863.924 
  1995.18,788.239 2008.69,854.025 2022.2,791.909 2035.71,847.84 2049.22,881.275 2062.72,929.37 2076.23,854.435 2089.74,932.895 2103.25,1013.44 2116.76,820.153 
  2130.27,799.748 2143.78,780.657 2157.29,854.255 2170.79,748.317 2184.3,767.445 2197.81,832.973 2211.32,742.4 2224.83,885.17 2238.34,839.109 2251.85,904.194 
  2265.35,942.541 2278.86,878.6 2292.37,921.498 
  "/>
</svg>
