<?xml version="1.0" encoding="utf-8"?>
<svg xmlns="http://www.w3.org/2000/svg" xmlns:xlink="http://www.w3.org/1999/xlink" width="600" height="400" viewBox="0 0 2400 1600">
<defs>
  <clipPath id="clip120">
    <rect x="0" y="0" width="2400" height="1600"/>
  </clipPath>
</defs>
<path clip-path="url(#clip120)" d="
M0 1600 L2400 1600 L2400 0 L0 0  Z
  " fill="#ffffff" fill-rule="evenodd" fill-opacity="1"/>
<defs>
  <clipPath id="clip121">
    <rect x="480" y="0" width="1681" height="1600"/>
  </clipPath>
</defs>
<path clip-path="url(#clip120)" d="
M249.542 1410.9 L2352.76 1410.9 L2352.76 47.2441 L249.542 47.2441  Z
  " fill="#ffffff" fill-rule="evenodd" fill-opacity="1"/>
<defs>
  <clipPath id="clip122">
    <rect x="249" y="47" width="2104" height="1365"/>
  </clipPath>
</defs>
<polyline clip-path="url(#clip122)" style="stroke:#000000; stroke-linecap:round; stroke-linejoin:round; stroke-width:2; stroke-opacity:0.1; fill:none" points="
  295.75,1410.9 295.75,47.2441 
  "/>
<polyline clip-path="url(#clip122)" style="stroke:#000000; stroke-linecap:round; stroke-linejoin:round; stroke-width:2; stroke-opacity:0.1; fill:none" points="
  961.577,1410.9 961.577,47.2441 
  "/>
<polyline clip-path="url(#clip122)" style="stroke:#000000; stroke-linecap:round; stroke-linejoin:round; stroke-width:2; stroke-opacity:0.1; fill:none" points="
  1627.4,1410.9 1627.4,47.2441 
  "/>
<polyline clip-path="url(#clip122)" style="stroke:#000000; stroke-linecap:round; stroke-linejoin:round; stroke-width:2; stroke-opacity:0.1; fill:none" points="
  2293.23,1410.9 2293.23,47.2441 
  "/>
<polyline clip-path="url(#clip120)" style="stroke:#000000; stroke-linecap:round; stroke-linejoin:round; stroke-width:4; stroke-opacity:1; fill:none" points="
  249.542,1410.9 2352.76,1410.9 
  "/>
<polyline clip-path="url(#clip120)" style="stroke:#000000; stroke-linecap:round; stroke-linejoin:round; stroke-width:4; stroke-opacity:1; fill:none" points="
  295.75,1410.9 295.75,1392 
  "/>
<polyline clip-path="url(#clip120)" style="stroke:#000000; stroke-linecap:round; stroke-linejoin:round; stroke-width:4; stroke-opacity:1; fill:none" points="
  961.577,1410.9 961.577,1392 
  "/>
<polyline clip-path="url(#clip120)" style="stroke:#000000; stroke-linecap:round; stroke-linejoin:round; stroke-width:4; stroke-opacity:1; fill:none" points="
  1627.4,1410.9 1627.4,1392 
  "/>
<polyline clip-path="url(#clip120)" style="stroke:#000000; stroke-linecap:round; stroke-linejoin:round; stroke-width:4; stroke-opacity:1; fill:none" points="
  2293.23,1410.9 2293.23,1392 
  "/>
<path clip-path="url(#clip120)" d="M295.75 1441.82 Q292.139 1441.82 290.311 1445.38 Q288.505 1448.92 288.505 1456.05 Q288.505 1463.16 290.311 1466.72 Q292.139 1470.26 295.75 1470.26 Q299.385 1470.26 301.19 1466.72 Q303.019 1463.16 303.019 1456.05 Q303.019 1448.92 301.19 1445.38 Q299.385 1441.82 295.75 1441.82 M295.75 1438.11 Q301.561 1438.11 304.616 1442.72 Q307.695 1447.3 307.695 1456.05 Q307.695 1464.78 304.616 1469.38 Q301.561 1473.97 295.75 1473.97 Q289.94 1473.97 286.862 1469.38 Q283.806 1464.78 283.806 1456.05 Q283.806 1447.3 286.862 1442.72 Q289.94 1438.11 295.75 1438.11 Z" fill="#000000" fill-rule="evenodd" fill-opacity="1" /><path clip-path="url(#clip120)" d="M854.554 1454.4 L872.91 1454.4 L872.91 1458.33 L858.836 1458.33 L858.836 1466.8 Q859.855 1466.46 860.873 1466.29 Q861.892 1466.11 862.91 1466.11 Q868.697 1466.11 872.077 1469.28 Q875.456 1472.45 875.456 1477.87 Q875.456 1483.45 871.984 1486.55 Q868.512 1489.63 862.193 1489.63 Q860.017 1489.63 857.748 1489.26 Q855.503 1488.89 853.096 1488.15 L853.096 1483.45 Q855.179 1484.58 857.401 1485.14 Q859.623 1485.69 862.1 1485.69 Q866.105 1485.69 868.443 1483.59 Q870.781 1481.48 870.781 1477.87 Q870.781 1474.26 868.443 1472.15 Q866.105 1470.04 862.1 1470.04 Q860.225 1470.04 858.35 1470.46 Q856.498 1470.88 854.554 1471.76 L854.554 1454.4 Z" fill="#000000" fill-rule="evenodd" fill-opacity="1" /><path clip-path="url(#clip120)" d="M884.669 1483.08 L889.554 1483.08 L889.554 1488.96 L884.669 1488.96 L884.669 1483.08 Z" fill="#000000" fill-rule="evenodd" fill-opacity="1" /><path clip-path="url(#clip120)" d="M909.739 1457.48 Q906.128 1457.48 904.299 1461.04 Q902.493 1464.58 902.493 1471.71 Q902.493 1478.82 904.299 1482.38 Q906.128 1485.92 909.739 1485.92 Q913.373 1485.92 915.179 1482.38 Q917.007 1478.82 917.007 1471.71 Q917.007 1464.58 915.179 1461.04 Q913.373 1457.48 909.739 1457.48 M909.739 1453.77 Q915.549 1453.77 918.604 1458.38 Q921.683 1462.96 921.683 1471.71 Q921.683 1480.44 918.604 1485.04 Q915.549 1489.63 909.739 1489.63 Q903.929 1489.63 900.85 1485.04 Q897.794 1480.44 897.794 1471.71 Q897.794 1462.96 900.85 1458.38 Q903.929 1453.77 909.739 1453.77 Z" fill="#000000" fill-rule="evenodd" fill-opacity="1" /><path clip-path="url(#clip120)" d="M939.901 1457.48 Q936.29 1457.48 934.461 1461.04 Q932.655 1464.58 932.655 1471.71 Q932.655 1478.82 934.461 1482.38 Q936.29 1485.92 939.901 1485.92 Q943.535 1485.92 945.34 1482.38 Q947.169 1478.82 947.169 1471.71 Q947.169 1464.58 945.34 1461.04 Q943.535 1457.48 939.901 1457.48 M939.901 1453.77 Q945.711 1453.77 948.766 1458.38 Q951.845 1462.96 951.845 1471.71 Q951.845 1480.44 948.766 1485.04 Q945.711 1489.63 939.901 1489.63 Q934.09 1489.63 931.012 1485.04 Q927.956 1480.44 927.956 1471.71 Q927.956 1462.96 931.012 1458.38 Q934.09 1453.77 939.901 1453.77 Z" fill="#000000" fill-rule="evenodd" fill-opacity="1" /><path clip-path="url(#clip120)" d="M988.234 1463.49 L977.655 1474.12 L988.234 1484.7 L985.479 1487.5 L974.854 1476.87 L964.229 1487.5 L961.498 1484.7 L972.053 1474.12 L961.498 1463.49 L964.229 1460.69 L974.854 1471.32 L985.479 1460.69 L988.234 1463.49 Z" fill="#000000" fill-rule="evenodd" fill-opacity="1" /><path clip-path="url(#clip120)" d="M1000.59 1485.02 L1008.23 1485.02 L1008.23 1458.66 L999.923 1460.32 L999.923 1456.06 L1008.19 1454.4 L1012.86 1454.4 L1012.86 1485.02 L1020.5 1485.02 L1020.5 1488.96 L1000.59 1488.96 L1000.59 1485.02 Z" fill="#000000" fill-rule="evenodd" fill-opacity="1" /><path clip-path="url(#clip120)" d="M1039.95 1457.48 Q1036.34 1457.48 1034.51 1461.04 Q1032.7 1464.58 1032.7 1471.71 Q1032.7 1478.82 1034.51 1482.38 Q1036.34 1485.92 1039.95 1485.92 Q1043.58 1485.92 1045.39 1482.38 Q1047.21 1478.82 1047.21 1471.71 Q1047.21 1464.58 1045.39 1461.04 Q1043.58 1457.48 1039.95 1457.48 M1039.95 1453.77 Q1045.76 1453.77 1048.81 1458.38 Q1051.89 1462.96 1051.89 1471.71 Q1051.89 1480.44 1048.81 1485.04 Q1045.76 1489.63 1039.95 1489.63 Q1034.14 1489.63 1031.06 1485.04 Q1028 1480.44 1028 1471.71 Q1028 1462.96 1031.06 1458.38 Q1034.14 1453.77 1039.95 1453.77 Z" fill="#000000" fill-rule="evenodd" fill-opacity="1" /><path clip-path="url(#clip120)" d="M1053.08 1433.47 L1067.99 1433.47 L1067.99 1436.66 L1056.56 1436.66 L1056.56 1443.55 Q1057.38 1443.27 1058.21 1443.13 Q1059.04 1442.98 1059.87 1442.98 Q1064.57 1442.98 1067.31 1445.56 Q1070.06 1448.14 1070.06 1452.54 Q1070.06 1457.07 1067.24 1459.59 Q1064.42 1462.09 1059.28 1462.09 Q1057.51 1462.09 1055.67 1461.79 Q1053.85 1461.49 1051.89 1460.89 L1051.89 1457.07 Q1053.58 1457.99 1055.39 1458.44 Q1057.19 1458.89 1059.21 1458.89 Q1062.46 1458.89 1064.36 1457.18 Q1066.26 1455.47 1066.26 1452.54 Q1066.26 1449.6 1064.36 1447.89 Q1062.46 1446.18 1059.21 1446.18 Q1057.68 1446.18 1056.16 1446.52 Q1054.66 1446.86 1053.08 1447.57 L1053.08 1433.47 Z" fill="#000000" fill-rule="evenodd" fill-opacity="1" /><path clip-path="url(#clip120)" d="M1519.76 1485.02 L1527.4 1485.02 L1527.4 1458.66 L1519.09 1460.32 L1519.09 1456.06 L1527.35 1454.4 L1532.03 1454.4 L1532.03 1485.02 L1539.67 1485.02 L1539.67 1488.96 L1519.76 1488.96 L1519.76 1485.02 Z" fill="#000000" fill-rule="evenodd" fill-opacity="1" /><path clip-path="url(#clip120)" d="M1549.11 1483.08 L1553.99 1483.08 L1553.99 1488.96 L1549.11 1488.96 L1549.11 1483.08 Z" fill="#000000" fill-rule="evenodd" fill-opacity="1" /><path clip-path="url(#clip120)" d="M1574.18 1457.48 Q1570.57 1457.48 1568.74 1461.04 Q1566.93 1464.58 1566.93 1471.71 Q1566.93 1478.82 1568.74 1482.38 Q1570.57 1485.92 1574.18 1485.92 Q1577.81 1485.92 1579.62 1482.38 Q1581.45 1478.82 1581.45 1471.71 Q1581.45 1464.58 1579.62 1461.04 Q1577.81 1457.48 1574.18 1457.48 M1574.18 1453.77 Q1579.99 1453.77 1583.04 1458.38 Q1586.12 1462.96 1586.12 1471.71 Q1586.12 1480.44 1583.04 1485.04 Q1579.99 1489.63 1574.18 1489.63 Q1568.37 1489.63 1565.29 1485.04 Q1562.23 1480.44 1562.23 1471.71 Q1562.23 1462.96 1565.29 1458.38 Q1568.37 1453.77 1574.18 1453.77 Z" fill="#000000" fill-rule="evenodd" fill-opacity="1" /><path clip-path="url(#clip120)" d="M1604.34 1457.48 Q1600.73 1457.48 1598.9 1461.04 Q1597.1 1464.58 1597.1 1471.71 Q1597.1 1478.82 1598.9 1482.38 Q1600.73 1485.92 1604.34 1485.92 Q1607.97 1485.92 1609.78 1482.38 Q1611.61 1478.82 1611.61 1471.71 Q1611.61 1464.58 1609.78 1461.04 Q1607.97 1457.48 1604.34 1457.48 M1604.34 1453.77 Q1610.15 1453.77 1613.21 1458.38 Q1616.29 1462.96 1616.29 1471.71 Q1616.29 1480.44 1613.21 1485.04 Q1610.15 1489.63 1604.34 1489.63 Q1598.53 1489.63 1595.45 1485.04 Q1592.4 1480.44 1592.4 1471.71 Q1592.4 1462.96 1595.45 1458.38 Q1598.53 1453.77 1604.34 1453.77 Z" fill="#000000" fill-rule="evenodd" fill-opacity="1" /><path clip-path="url(#clip120)" d="M1652.67 1463.49 L1642.1 1474.12 L1652.67 1484.7 L1649.92 1487.5 L1639.29 1476.87 L1628.67 1487.5 L1625.94 1484.7 L1636.49 1474.12 L1625.94 1463.49 L1628.67 1460.69 L1639.29 1471.32 L1649.92 1460.69 L1652.67 1463.49 Z" fill="#000000" fill-rule="evenodd" fill-opacity="1" /><path clip-path="url(#clip120)" d="M1665.03 1485.02 L1672.67 1485.02 L1672.67 1458.66 L1664.36 1460.32 L1664.36 1456.06 L1672.63 1454.4 L1677.3 1454.4 L1677.3 1485.02 L1684.94 1485.02 L1684.94 1488.96 L1665.03 1488.96 L1665.03 1485.02 Z" fill="#000000" fill-rule="evenodd" fill-opacity="1" /><path clip-path="url(#clip120)" d="M1704.39 1457.48 Q1700.78 1457.48 1698.95 1461.04 Q1697.14 1464.58 1697.14 1471.71 Q1697.14 1478.82 1698.95 1482.38 Q1700.78 1485.92 1704.39 1485.92 Q1708.02 1485.92 1709.83 1482.38 Q1711.65 1478.82 1711.65 1471.71 Q1711.65 1464.58 1709.83 1461.04 Q1708.02 1457.48 1704.39 1457.48 M1704.39 1453.77 Q1710.2 1453.77 1713.25 1458.38 Q1716.33 1462.96 1716.33 1471.71 Q1716.33 1480.44 1713.25 1485.04 Q1710.2 1489.63 1704.39 1489.63 Q1698.58 1489.63 1695.5 1485.04 Q1692.44 1480.44 1692.44 1471.71 Q1692.44 1462.96 1695.5 1458.38 Q1698.58 1453.77 1704.39 1453.77 Z" fill="#000000" fill-rule="evenodd" fill-opacity="1" /><path clip-path="url(#clip120)" d="M1726.36 1445.99 Q1723.8 1445.99 1722.29 1447.74 Q1720.81 1449.49 1720.81 1452.54 Q1720.81 1455.57 1722.29 1457.33 Q1723.8 1459.08 1726.36 1459.08 Q1728.91 1459.08 1730.4 1457.33 Q1731.9 1455.57 1731.9 1452.54 Q1731.9 1449.49 1730.4 1447.74 Q1728.91 1445.99 1726.36 1445.99 M1733.9 1434.09 L1733.9 1437.55 Q1732.47 1436.87 1731 1436.51 Q1729.55 1436.16 1728.12 1436.16 Q1724.36 1436.16 1722.37 1438.69 Q1720.39 1441.23 1720.11 1446.37 Q1721.22 1444.73 1722.89 1443.87 Q1724.57 1442.98 1726.58 1442.98 Q1730.81 1442.98 1733.26 1445.56 Q1735.72 1448.12 1735.72 1452.54 Q1735.72 1456.86 1733.16 1459.48 Q1730.61 1462.09 1726.36 1462.09 Q1721.48 1462.09 1718.91 1458.37 Q1716.33 1454.62 1716.33 1447.53 Q1716.33 1440.88 1719.49 1436.93 Q1722.65 1432.96 1727.97 1432.96 Q1729.4 1432.96 1730.85 1433.24 Q1732.32 1433.52 1733.9 1434.09 Z" fill="#000000" fill-rule="evenodd" fill-opacity="1" /><path clip-path="url(#clip120)" d="M2185.58 1485.02 L2193.22 1485.02 L2193.22 1458.66 L2184.91 1460.32 L2184.91 1456.06 L2193.18 1454.4 L2197.85 1454.4 L2197.85 1485.02 L2205.49 1485.02 L2205.49 1488.96 L2185.58 1488.96 L2185.58 1485.02 Z" fill="#000000" fill-rule="evenodd" fill-opacity="1" /><path clip-path="url(#clip120)" d="M2214.94 1483.08 L2219.82 1483.08 L2219.82 1488.96 L2214.94 1488.96 L2214.94 1483.08 Z" fill="#000000" fill-rule="evenodd" fill-opacity="1" /><path clip-path="url(#clip120)" d="M2230.05 1454.4 L2248.41 1454.4 L2248.41 1458.33 L2234.33 1458.33 L2234.33 1466.8 Q2235.35 1466.46 2236.37 1466.29 Q2237.39 1466.11 2238.41 1466.11 Q2244.2 1466.11 2247.58 1469.28 Q2250.95 1472.45 2250.95 1477.87 Q2250.95 1483.45 2247.48 1486.55 Q2244.01 1489.63 2237.69 1489.63 Q2235.52 1489.63 2233.25 1489.26 Q2231 1488.89 2228.59 1488.15 L2228.59 1483.45 Q2230.68 1484.58 2232.9 1485.14 Q2235.12 1485.69 2237.6 1485.69 Q2241.6 1485.69 2243.94 1483.59 Q2246.28 1481.48 2246.28 1477.87 Q2246.28 1474.26 2243.94 1472.15 Q2241.6 1470.04 2237.6 1470.04 Q2235.72 1470.04 2233.85 1470.46 Q2232 1470.88 2230.05 1471.76 L2230.05 1454.4 Z" fill="#000000" fill-rule="evenodd" fill-opacity="1" /><path clip-path="url(#clip120)" d="M2270.17 1457.48 Q2266.56 1457.48 2264.73 1461.04 Q2262.92 1464.58 2262.92 1471.71 Q2262.92 1478.82 2264.73 1482.38 Q2266.56 1485.92 2270.17 1485.92 Q2273.8 1485.92 2275.61 1482.38 Q2277.44 1478.82 2277.44 1471.71 Q2277.44 1464.58 2275.61 1461.04 Q2273.8 1457.48 2270.17 1457.48 M2270.17 1453.77 Q2275.98 1453.77 2279.03 1458.38 Q2282.11 1462.96 2282.11 1471.71 Q2282.11 1480.44 2279.03 1485.04 Q2275.98 1489.63 2270.17 1489.63 Q2264.36 1489.63 2261.28 1485.04 Q2258.22 1480.44 2258.22 1471.71 Q2258.22 1462.96 2261.28 1458.38 Q2264.36 1453.77 2270.17 1453.77 Z" fill="#000000" fill-rule="evenodd" fill-opacity="1" /><path clip-path="url(#clip120)" d="M2318.5 1463.49 L2307.92 1474.12 L2318.5 1484.7 L2315.75 1487.5 L2305.12 1476.87 L2294.5 1487.5 L2291.76 1484.7 L2302.32 1474.12 L2291.76 1463.49 L2294.5 1460.69 L2305.12 1471.32 L2315.75 1460.69 L2318.5 1463.49 Z" fill="#000000" fill-rule="evenodd" fill-opacity="1" /><path clip-path="url(#clip120)" d="M2330.86 1485.02 L2338.5 1485.02 L2338.5 1458.66 L2330.19 1460.32 L2330.19 1456.06 L2338.45 1454.4 L2343.13 1454.4 L2343.13 1485.02 L2350.77 1485.02 L2350.77 1488.96 L2330.86 1488.96 L2330.86 1485.02 Z" fill="#000000" fill-rule="evenodd" fill-opacity="1" /><path clip-path="url(#clip120)" d="M2370.21 1457.48 Q2366.6 1457.48 2364.77 1461.04 Q2362.97 1464.58 2362.97 1471.71 Q2362.97 1478.82 2364.77 1482.38 Q2366.6 1485.92 2370.21 1485.92 Q2373.85 1485.92 2375.65 1482.38 Q2377.48 1478.82 2377.48 1471.71 Q2377.48 1464.58 2375.65 1461.04 Q2373.85 1457.48 2370.21 1457.48 M2370.21 1453.77 Q2376.02 1453.77 2379.08 1458.38 Q2382.16 1462.96 2382.16 1471.71 Q2382.16 1480.44 2379.08 1485.04 Q2376.02 1489.63 2370.21 1489.63 Q2364.4 1489.63 2361.32 1485.04 Q2358.27 1480.44 2358.27 1471.71 Q2358.27 1462.96 2361.32 1458.38 Q2364.4 1453.77 2370.21 1453.77 Z" fill="#000000" fill-rule="evenodd" fill-opacity="1" /><path clip-path="url(#clip120)" d="M2392.18 1445.99 Q2389.62 1445.99 2388.12 1447.74 Q2386.63 1449.49 2386.63 1452.54 Q2386.63 1455.57 2388.12 1457.33 Q2389.62 1459.08 2392.18 1459.08 Q2394.74 1459.08 2396.23 1457.33 Q2397.73 1455.57 2397.73 1452.54 Q2397.73 1449.49 2396.23 1447.74 Q2394.74 1445.99 2392.18 1445.99 M2399.72 1434.09 L2399.72 1437.55 Q2398.29 1436.87 2396.83 1436.51 Q2395.38 1436.16 2393.95 1436.16 Q2390.19 1436.16 2388.2 1438.69 Q2386.22 1441.23 2385.94 1446.37 Q2387.05 1444.73 2388.72 1443.87 Q2390.4 1442.98 2392.41 1442.98 Q2396.64 1442.98 2399.08 1445.56 Q2401.55 1448.12 2401.55 1452.54 Q2401.55 1456.86 2398.99 1459.48 Q2396.43 1462.09 2392.18 1462.09 Q2387.31 1462.09 2384.73 1458.37 Q2382.16 1454.62 2382.16 1447.53 Q2382.16 1440.88 2385.32 1436.93 Q2388.48 1432.96 2393.8 1432.96 Q2395.23 1432.96 2396.68 1433.24 Q2398.14 1433.52 2399.72 1434.09 Z" fill="#000000" fill-rule="evenodd" fill-opacity="1" /><path clip-path="url(#clip120)" d="M1150.71 1526.67 L1157.14 1526.67 L1157.14 1574.19 L1150.71 1574.19 L1150.71 1526.67 Z" fill="#000000" fill-rule="evenodd" fill-opacity="1" /><path clip-path="url(#clip120)" d="M1175.47 1528.42 L1175.47 1538.54 L1187.54 1538.54 L1187.54 1543.09 L1175.47 1543.09 L1175.47 1562.44 Q1175.47 1566.8 1176.65 1568.04 Q1177.86 1569.28 1181.52 1569.28 L1187.54 1569.28 L1187.54 1574.19 L1181.52 1574.19 Q1174.74 1574.19 1172.16 1571.67 Q1169.59 1569.12 1169.59 1562.44 L1169.59 1543.09 L1165.29 1543.09 L1165.29 1538.54 L1169.59 1538.54 L1169.59 1528.42 L1175.47 1528.42 Z" fill="#000000" fill-rule="evenodd" fill-opacity="1" /><path clip-path="url(#clip120)" d="M1225.73 1554.9 L1225.73 1557.76 L1198.8 1557.76 Q1199.19 1563.81 1202.43 1566.99 Q1205.71 1570.14 1211.54 1570.14 Q1214.91 1570.14 1218.06 1569.32 Q1221.24 1568.49 1224.36 1566.83 L1224.36 1572.37 Q1221.21 1573.71 1217.9 1574.41 Q1214.59 1575.11 1211.19 1575.11 Q1202.66 1575.11 1197.66 1570.14 Q1192.69 1565.18 1192.69 1556.71 Q1192.69 1547.96 1197.4 1542.83 Q1202.15 1537.68 1210.17 1537.68 Q1217.36 1537.68 1221.53 1542.33 Q1225.73 1546.94 1225.73 1554.9 M1219.87 1553.18 Q1219.81 1548.37 1217.17 1545.51 Q1214.56 1542.64 1210.23 1542.64 Q1205.33 1542.64 1202.37 1545.41 Q1199.44 1548.18 1199 1553.21 L1219.87 1553.18 Z" fill="#000000" fill-rule="evenodd" fill-opacity="1" /><path clip-path="url(#clip120)" d="M1256 1544.01 Q1255.01 1543.44 1253.84 1543.18 Q1252.69 1542.9 1251.29 1542.9 Q1246.32 1542.9 1243.65 1546.14 Q1241.01 1549.36 1241.01 1555.41 L1241.01 1574.19 L1235.12 1574.19 L1235.12 1538.54 L1241.01 1538.54 L1241.01 1544.08 Q1242.86 1540.83 1245.82 1539.27 Q1248.78 1537.68 1253.01 1537.68 Q1253.61 1537.68 1254.35 1537.77 Q1255.08 1537.84 1255.97 1538 L1256 1544.01 Z" fill="#000000" fill-rule="evenodd" fill-opacity="1" /><path clip-path="url(#clip120)" d="M1278.34 1556.27 Q1271.25 1556.27 1268.51 1557.89 Q1265.77 1559.51 1265.77 1563.43 Q1265.77 1566.55 1267.81 1568.39 Q1269.88 1570.21 1273.41 1570.21 Q1278.28 1570.21 1281.21 1566.77 Q1284.17 1563.3 1284.17 1557.57 L1284.17 1556.27 L1278.34 1556.27 M1290.02 1553.85 L1290.02 1574.19 L1284.17 1574.19 L1284.17 1568.77 Q1282.16 1572.02 1279.17 1573.58 Q1276.18 1575.11 1271.85 1575.11 Q1266.38 1575.11 1263.13 1572.05 Q1259.92 1568.97 1259.92 1563.81 Q1259.92 1557.79 1263.93 1554.74 Q1267.97 1551.68 1275.96 1551.68 L1284.17 1551.68 L1284.17 1551.11 Q1284.17 1547.07 1281.49 1544.87 Q1278.85 1542.64 1274.05 1542.64 Q1270.99 1542.64 1268.1 1543.38 Q1265.2 1544.11 1262.53 1545.57 L1262.53 1540.16 Q1265.74 1538.92 1268.76 1538.31 Q1271.79 1537.68 1274.65 1537.68 Q1282.39 1537.68 1286.21 1541.69 Q1290.02 1545.7 1290.02 1553.85 Z" fill="#000000" fill-rule="evenodd" fill-opacity="1" /><path clip-path="url(#clip120)" d="M1307.88 1528.42 L1307.88 1538.54 L1319.94 1538.54 L1319.94 1543.09 L1307.88 1543.09 L1307.88 1562.44 Q1307.88 1566.8 1309.06 1568.04 Q1310.27 1569.28 1313.93 1569.28 L1319.94 1569.28 L1319.94 1574.19 L1313.93 1574.19 Q1307.15 1574.19 1304.57 1571.67 Q1301.99 1569.12 1301.99 1562.44 L1301.99 1543.09 L1297.7 1543.09 L1297.7 1538.54 L1301.99 1538.54 L1301.99 1528.42 L1307.88 1528.42 Z" fill="#000000" fill-rule="evenodd" fill-opacity="1" /><path clip-path="url(#clip120)" d="M1327.65 1538.54 L1333.5 1538.54 L1333.5 1574.19 L1327.65 1574.19 L1327.65 1538.54 M1327.65 1524.66 L1333.5 1524.66 L1333.5 1532.08 L1327.65 1532.08 L1327.65 1524.66 Z" fill="#000000" fill-rule="evenodd" fill-opacity="1" /><path clip-path="url(#clip120)" d="M1359.57 1542.64 Q1354.86 1542.64 1352.12 1546.34 Q1349.39 1550 1349.39 1556.39 Q1349.39 1562.79 1352.09 1566.48 Q1354.83 1570.14 1359.57 1570.14 Q1364.25 1570.14 1366.99 1566.45 Q1369.72 1562.76 1369.72 1556.39 Q1369.72 1550.06 1366.99 1546.37 Q1364.25 1542.64 1359.57 1542.64 M1359.57 1537.68 Q1367.21 1537.68 1371.57 1542.64 Q1375.93 1547.61 1375.93 1556.39 Q1375.93 1565.15 1371.57 1570.14 Q1367.21 1575.11 1359.57 1575.11 Q1351.9 1575.11 1347.54 1570.14 Q1343.21 1565.15 1343.21 1556.39 Q1343.21 1547.61 1347.54 1542.64 Q1351.9 1537.68 1359.57 1537.68 Z" fill="#000000" fill-rule="evenodd" fill-opacity="1" /><path clip-path="url(#clip120)" d="M1415.27 1552.67 L1415.27 1574.19 L1409.41 1574.19 L1409.41 1552.86 Q1409.41 1547.8 1407.44 1545.29 Q1405.47 1542.77 1401.52 1542.77 Q1396.78 1542.77 1394.04 1545.79 Q1391.3 1548.82 1391.3 1554.04 L1391.3 1574.19 L1385.42 1574.19 L1385.42 1538.54 L1391.3 1538.54 L1391.3 1544.08 Q1393.4 1540.86 1396.24 1539.27 Q1399.1 1537.68 1402.83 1537.68 Q1408.97 1537.68 1412.12 1541.5 Q1415.27 1545.29 1415.27 1552.67 Z" fill="#000000" fill-rule="evenodd" fill-opacity="1" /><path clip-path="url(#clip120)" d="M1449.68 1539.59 L1449.68 1545.13 Q1447.19 1543.85 1444.52 1543.22 Q1441.85 1542.58 1438.98 1542.58 Q1434.62 1542.58 1432.43 1543.92 Q1430.26 1545.25 1430.26 1547.93 Q1430.26 1549.96 1431.82 1551.14 Q1433.38 1552.29 1438.09 1553.34 L1440.1 1553.78 Q1446.33 1555.12 1448.94 1557.57 Q1451.59 1559.99 1451.59 1564.35 Q1451.59 1569.32 1447.64 1572.21 Q1443.72 1575.11 1436.85 1575.11 Q1433.99 1575.11 1430.87 1574.54 Q1427.78 1573.99 1424.34 1572.88 L1424.34 1566.83 Q1427.59 1568.52 1430.74 1569.38 Q1433.89 1570.21 1436.98 1570.21 Q1441.11 1570.21 1443.34 1568.81 Q1445.57 1567.37 1445.57 1564.8 Q1445.57 1562.41 1443.95 1561.14 Q1442.36 1559.86 1436.91 1558.68 L1434.88 1558.21 Q1429.43 1557.06 1427.01 1554.71 Q1424.6 1552.32 1424.6 1548.18 Q1424.6 1543.15 1428.16 1540.42 Q1431.73 1537.68 1438.28 1537.68 Q1441.53 1537.68 1444.39 1538.16 Q1447.26 1538.63 1449.68 1539.59 Z" fill="#000000" fill-rule="evenodd" fill-opacity="1" /><polyline clip-path="url(#clip122)" style="stroke:#000000; stroke-linecap:round; stroke-linejoin:round; stroke-width:2; stroke-opacity:0.1; fill:none" points="
  249.542,1372.3 2352.76,1372.3 
  "/>
<polyline clip-path="url(#clip122)" style="stroke:#000000; stroke-linecap:round; stroke-linejoin:round; stroke-width:2; stroke-opacity:0.1; fill:none" points="
  249.542,1050.69 2352.76,1050.69 
  "/>
<polyline clip-path="url(#clip122)" style="stroke:#000000; stroke-linecap:round; stroke-linejoin:round; stroke-width:2; stroke-opacity:0.1; fill:none" points="
  249.542,729.07 2352.76,729.07 
  "/>
<polyline clip-path="url(#clip122)" style="stroke:#000000; stroke-linecap:round; stroke-linejoin:round; stroke-width:2; stroke-opacity:0.1; fill:none" points="
  249.542,407.454 2352.76,407.454 
  "/>
<polyline clip-path="url(#clip122)" style="stroke:#000000; stroke-linecap:round; stroke-linejoin:round; stroke-width:2; stroke-opacity:0.1; fill:none" points="
  249.542,85.838 2352.76,85.838 
  "/>
<polyline clip-path="url(#clip120)" style="stroke:#000000; stroke-linecap:round; stroke-linejoin:round; stroke-width:4; stroke-opacity:1; fill:none" points="
  249.542,1410.9 249.542,47.2441 
  "/>
<polyline clip-path="url(#clip120)" style="stroke:#000000; stroke-linecap:round; stroke-linejoin:round; stroke-width:4; stroke-opacity:1; fill:none" points="
  249.542,1372.3 268.44,1372.3 
  "/>
<polyline clip-path="url(#clip120)" style="stroke:#000000; stroke-linecap:round; stroke-linejoin:round; stroke-width:4; stroke-opacity:1; fill:none" points="
  249.542,1050.69 268.44,1050.69 
  "/>
<polyline clip-path="url(#clip120)" style="stroke:#000000; stroke-linecap:round; stroke-linejoin:round; stroke-width:4; stroke-opacity:1; fill:none" points="
  249.542,729.07 268.44,729.07 
  "/>
<polyline clip-path="url(#clip120)" style="stroke:#000000; stroke-linecap:round; stroke-linejoin:round; stroke-width:4; stroke-opacity:1; fill:none" points="
  249.542,407.454 268.44,407.454 
  "/>
<polyline clip-path="url(#clip120)" style="stroke:#000000; stroke-linecap:round; stroke-linejoin:round; stroke-width:4; stroke-opacity:1; fill:none" points="
  249.542,85.838 268.44,85.838 
  "/>
<path clip-path="url(#clip120)" d="M126.205 1358.1 Q122.593 1358.1 120.765 1361.67 Q118.959 1365.21 118.959 1372.34 Q118.959 1379.44 120.765 1383.01 Q122.593 1386.55 126.205 1386.55 Q129.839 1386.55 131.644 1383.01 Q133.473 1379.44 133.473 1372.34 Q133.473 1365.21 131.644 1361.67 Q129.839 1358.1 126.205 1358.1 M126.205 1354.4 Q132.015 1354.4 135.07 1359 Q138.149 1363.59 138.149 1372.34 Q138.149 1381.06 135.07 1385.67 Q132.015 1390.25 126.205 1390.25 Q120.394 1390.25 117.316 1385.67 Q114.26 1381.06 114.26 1372.34 Q114.26 1363.59 117.316 1359 Q120.394 1354.4 126.205 1354.4 Z" fill="#000000" fill-rule="evenodd" fill-opacity="1" /><path clip-path="url(#clip120)" d="M146.366 1383.7 L151.251 1383.7 L151.251 1389.58 L146.366 1389.58 L146.366 1383.7 Z" fill="#000000" fill-rule="evenodd" fill-opacity="1" /><path clip-path="url(#clip120)" d="M171.436 1358.1 Q167.825 1358.1 165.996 1361.67 Q164.19 1365.21 164.19 1372.34 Q164.19 1379.44 165.996 1383.01 Q167.825 1386.55 171.436 1386.55 Q175.07 1386.55 176.876 1383.01 Q178.704 1379.44 178.704 1372.34 Q178.704 1365.21 176.876 1361.67 Q175.07 1358.1 171.436 1358.1 M171.436 1354.4 Q177.246 1354.4 180.301 1359 Q183.38 1363.59 183.38 1372.34 Q183.38 1381.06 180.301 1385.67 Q177.246 1390.25 171.436 1390.25 Q165.626 1390.25 162.547 1385.67 Q159.491 1381.06 159.491 1372.34 Q159.491 1363.59 162.547 1359 Q165.626 1354.4 171.436 1354.4 Z" fill="#000000" fill-rule="evenodd" fill-opacity="1" /><path clip-path="url(#clip120)" d="M201.598 1358.1 Q197.987 1358.1 196.158 1361.67 Q194.352 1365.21 194.352 1372.34 Q194.352 1379.44 196.158 1383.01 Q197.987 1386.55 201.598 1386.55 Q205.232 1386.55 207.037 1383.01 Q208.866 1379.44 208.866 1372.34 Q208.866 1365.21 207.037 1361.67 Q205.232 1358.1 201.598 1358.1 M201.598 1354.4 Q207.408 1354.4 210.463 1359 Q213.542 1363.59 213.542 1372.34 Q213.542 1381.06 210.463 1385.67 Q207.408 1390.25 201.598 1390.25 Q195.787 1390.25 192.709 1385.67 Q189.653 1381.06 189.653 1372.34 Q189.653 1363.59 192.709 1359 Q195.787 1354.4 201.598 1354.4 Z" fill="#000000" fill-rule="evenodd" fill-opacity="1" /><path clip-path="url(#clip120)" d="M127.2 1036.49 Q123.589 1036.49 121.76 1040.05 Q119.955 1043.59 119.955 1050.72 Q119.955 1057.83 121.76 1061.39 Q123.589 1064.93 127.2 1064.93 Q130.834 1064.93 132.64 1061.39 Q134.468 1057.83 134.468 1050.72 Q134.468 1043.59 132.64 1040.05 Q130.834 1036.49 127.2 1036.49 M127.2 1032.78 Q133.01 1032.78 136.066 1037.39 Q139.144 1041.97 139.144 1050.72 Q139.144 1059.45 136.066 1064.05 Q133.01 1068.64 127.2 1068.64 Q121.39 1068.64 118.311 1064.05 Q115.256 1059.45 115.256 1050.72 Q115.256 1041.97 118.311 1037.39 Q121.39 1032.78 127.2 1032.78 Z" fill="#000000" fill-rule="evenodd" fill-opacity="1" /><path clip-path="url(#clip120)" d="M147.362 1062.09 L152.246 1062.09 L152.246 1067.97 L147.362 1067.97 L147.362 1062.09 Z" fill="#000000" fill-rule="evenodd" fill-opacity="1" /><path clip-path="url(#clip120)" d="M166.459 1064.03 L182.778 1064.03 L182.778 1067.97 L160.834 1067.97 L160.834 1064.03 Q163.496 1061.28 168.079 1056.65 Q172.686 1051.99 173.866 1050.65 Q176.112 1048.13 176.991 1046.39 Q177.894 1044.63 177.894 1042.94 Q177.894 1040.19 175.95 1038.45 Q174.028 1036.72 170.927 1036.72 Q168.727 1036.72 166.274 1037.48 Q163.843 1038.24 161.065 1039.8 L161.065 1035.07 Q163.89 1033.94 166.343 1033.36 Q168.797 1032.78 170.834 1032.78 Q176.204 1032.78 179.399 1035.47 Q182.593 1038.15 182.593 1042.64 Q182.593 1044.77 181.783 1046.69 Q180.996 1048.59 178.889 1051.18 Q178.311 1051.86 175.209 1055.07 Q172.107 1058.27 166.459 1064.03 Z" fill="#000000" fill-rule="evenodd" fill-opacity="1" /><path clip-path="url(#clip120)" d="M192.639 1033.41 L210.996 1033.41 L210.996 1037.34 L196.922 1037.34 L196.922 1045.81 Q197.94 1045.47 198.959 1045.3 Q199.977 1045.12 200.996 1045.12 Q206.783 1045.12 210.162 1048.29 Q213.542 1051.46 213.542 1056.88 Q213.542 1062.46 210.07 1065.56 Q206.598 1068.64 200.278 1068.64 Q198.102 1068.64 195.834 1068.27 Q193.588 1067.9 191.181 1067.16 L191.181 1062.46 Q193.264 1063.59 195.487 1064.15 Q197.709 1064.7 200.186 1064.7 Q204.19 1064.7 206.528 1062.6 Q208.866 1060.49 208.866 1056.88 Q208.866 1053.27 206.528 1051.16 Q204.19 1049.05 200.186 1049.05 Q198.311 1049.05 196.436 1049.47 Q194.584 1049.89 192.639 1050.77 L192.639 1033.41 Z" fill="#000000" fill-rule="evenodd" fill-opacity="1" /><path clip-path="url(#clip120)" d="M126.205 714.869 Q122.593 714.869 120.765 718.434 Q118.959 721.975 118.959 729.105 Q118.959 736.212 120.765 739.776 Q122.593 743.318 126.205 743.318 Q129.839 743.318 131.644 739.776 Q133.473 736.212 133.473 729.105 Q133.473 721.975 131.644 718.434 Q129.839 714.869 126.205 714.869 M126.205 711.165 Q132.015 711.165 135.07 715.772 Q138.149 720.355 138.149 729.105 Q138.149 737.832 135.07 742.438 Q132.015 747.022 126.205 747.022 Q120.394 747.022 117.316 742.438 Q114.26 737.832 114.26 729.105 Q114.26 720.355 117.316 715.772 Q120.394 711.165 126.205 711.165 Z" fill="#000000" fill-rule="evenodd" fill-opacity="1" /><path clip-path="url(#clip120)" d="M146.366 740.471 L151.251 740.471 L151.251 746.35 L146.366 746.35 L146.366 740.471 Z" fill="#000000" fill-rule="evenodd" fill-opacity="1" /><path clip-path="url(#clip120)" d="M161.482 711.79 L179.839 711.79 L179.839 715.726 L165.765 715.726 L165.765 724.198 Q166.783 723.85 167.802 723.688 Q168.82 723.503 169.839 723.503 Q175.626 723.503 179.005 726.675 Q182.385 729.846 182.385 735.262 Q182.385 740.841 178.913 743.943 Q175.44 747.022 169.121 747.022 Q166.945 747.022 164.677 746.651 Q162.431 746.281 160.024 745.54 L160.024 740.841 Q162.107 741.975 164.329 742.531 Q166.552 743.086 169.028 743.086 Q173.033 743.086 175.371 740.98 Q177.709 738.874 177.709 735.262 Q177.709 731.651 175.371 729.545 Q173.033 727.438 169.028 727.438 Q167.153 727.438 165.278 727.855 Q163.427 728.272 161.482 729.151 L161.482 711.79 Z" fill="#000000" fill-rule="evenodd" fill-opacity="1" /><path clip-path="url(#clip120)" d="M201.598 714.869 Q197.987 714.869 196.158 718.434 Q194.352 721.975 194.352 729.105 Q194.352 736.212 196.158 739.776 Q197.987 743.318 201.598 743.318 Q205.232 743.318 207.037 739.776 Q208.866 736.212 208.866 729.105 Q208.866 721.975 207.037 718.434 Q205.232 714.869 201.598 714.869 M201.598 711.165 Q207.408 711.165 210.463 715.772 Q213.542 720.355 213.542 729.105 Q213.542 737.832 210.463 742.438 Q207.408 747.022 201.598 747.022 Q195.787 747.022 192.709 742.438 Q189.653 737.832 189.653 729.105 Q189.653 720.355 192.709 715.772 Q195.787 711.165 201.598 711.165 Z" fill="#000000" fill-rule="evenodd" fill-opacity="1" /><path clip-path="url(#clip120)" d="M127.2 393.253 Q123.589 393.253 121.76 396.818 Q119.955 400.359 119.955 407.489 Q119.955 414.595 121.76 418.16 Q123.589 421.702 127.2 421.702 Q130.834 421.702 132.64 418.16 Q134.468 414.595 134.468 407.489 Q134.468 400.359 132.64 396.818 Q130.834 393.253 127.2 393.253 M127.2 389.549 Q133.01 389.549 136.066 394.156 Q139.144 398.739 139.144 407.489 Q139.144 416.216 136.066 420.822 Q133.01 425.405 127.2 425.405 Q121.39 425.405 118.311 420.822 Q115.256 416.216 115.256 407.489 Q115.256 398.739 118.311 394.156 Q121.39 389.549 127.2 389.549 Z" fill="#000000" fill-rule="evenodd" fill-opacity="1" /><path clip-path="url(#clip120)" d="M147.362 418.855 L152.246 418.855 L152.246 424.734 L147.362 424.734 L147.362 418.855 Z" fill="#000000" fill-rule="evenodd" fill-opacity="1" /><path clip-path="url(#clip120)" d="M161.251 390.174 L183.473 390.174 L183.473 392.165 L170.927 424.734 L166.042 424.734 L177.848 394.109 L161.251 394.109 L161.251 390.174 Z" fill="#000000" fill-rule="evenodd" fill-opacity="1" /><path clip-path="url(#clip120)" d="M192.639 390.174 L210.996 390.174 L210.996 394.109 L196.922 394.109 L196.922 402.582 Q197.94 402.234 198.959 402.072 Q199.977 401.887 200.996 401.887 Q206.783 401.887 210.162 405.058 Q213.542 408.23 213.542 413.646 Q213.542 419.225 210.07 422.327 Q206.598 425.405 200.278 425.405 Q198.102 425.405 195.834 425.035 Q193.588 424.665 191.181 423.924 L191.181 419.225 Q193.264 420.359 195.487 420.915 Q197.709 421.47 200.186 421.47 Q204.19 421.47 206.528 419.364 Q208.866 417.257 208.866 413.646 Q208.866 410.035 206.528 407.929 Q204.19 405.822 200.186 405.822 Q198.311 405.822 196.436 406.239 Q194.584 406.656 192.639 407.535 L192.639 390.174 Z" fill="#000000" fill-rule="evenodd" fill-opacity="1" /><path clip-path="url(#clip120)" d="M117.015 99.1829 L124.654 99.1829 L124.654 72.8173 L116.343 74.4839 L116.343 70.2247 L124.607 68.558 L129.283 68.558 L129.283 99.1829 L136.922 99.1829 L136.922 103.118 L117.015 103.118 L117.015 99.1829 Z" fill="#000000" fill-rule="evenodd" fill-opacity="1" /><path clip-path="url(#clip120)" d="M146.366 97.2384 L151.251 97.2384 L151.251 103.118 L146.366 103.118 L146.366 97.2384 Z" fill="#000000" fill-rule="evenodd" fill-opacity="1" /><path clip-path="url(#clip120)" d="M171.436 71.6367 Q167.825 71.6367 165.996 75.2015 Q164.19 78.7432 164.19 85.8728 Q164.19 92.9792 165.996 96.544 Q167.825 100.086 171.436 100.086 Q175.07 100.086 176.876 96.544 Q178.704 92.9792 178.704 85.8728 Q178.704 78.7432 176.876 75.2015 Q175.07 71.6367 171.436 71.6367 M171.436 67.933 Q177.246 67.933 180.301 72.5395 Q183.38 77.1228 183.38 85.8728 Q183.38 94.5996 180.301 99.206 Q177.246 103.789 171.436 103.789 Q165.626 103.789 162.547 99.206 Q159.491 94.5996 159.491 85.8728 Q159.491 77.1228 162.547 72.5395 Q165.626 67.933 171.436 67.933 Z" fill="#000000" fill-rule="evenodd" fill-opacity="1" /><path clip-path="url(#clip120)" d="M201.598 71.6367 Q197.987 71.6367 196.158 75.2015 Q194.352 78.7432 194.352 85.8728 Q194.352 92.9792 196.158 96.544 Q197.987 100.086 201.598 100.086 Q205.232 100.086 207.037 96.544 Q208.866 92.9792 208.866 85.8728 Q208.866 78.7432 207.037 75.2015 Q205.232 71.6367 201.598 71.6367 M201.598 67.933 Q207.408 67.933 210.463 72.5395 Q213.542 77.1228 213.542 85.8728 Q213.542 94.5996 210.463 99.206 Q207.408 103.789 201.598 103.789 Q195.787 103.789 192.709 99.206 Q189.653 94.5996 189.653 85.8728 Q189.653 77.1228 192.709 72.5395 Q195.787 67.933 201.598 67.933 Z" fill="#000000" fill-rule="evenodd" fill-opacity="1" /><path clip-path="url(#clip120)" d="M18.0438 910.891 L24.314 910.891 Q22.5634 914.551 21.704 917.798 Q20.8447 921.044 20.8447 924.068 Q20.8447 929.32 22.8817 932.184 Q24.9187 935.017 28.6745 935.017 Q31.8255 935.017 33.4488 933.139 Q35.0402 931.229 36.0269 925.946 L36.8226 922.063 Q38.1912 914.869 41.6605 911.464 Q45.098 908.026 50.8908 908.026 Q57.7976 908.026 61.3624 912.673 Q64.9272 917.288 64.9272 926.232 Q64.9272 929.606 64.1633 933.425 Q63.3994 937.213 61.9035 941.287 L55.2831 941.287 Q57.4793 937.372 58.5933 933.616 Q59.7073 929.861 59.7073 926.232 Q59.7073 920.726 57.543 917.734 Q55.3786 914.742 51.3682 914.742 Q47.8671 914.742 45.8937 916.906 Q43.9204 919.039 42.9337 923.941 L42.1698 927.855 Q40.7375 935.049 37.682 938.263 Q34.6264 941.478 29.1837 941.478 Q22.8817 941.478 19.2532 937.054 Q15.6248 932.598 15.6248 924.8 Q15.6248 921.458 16.2295 917.989 Q16.8343 914.519 18.0438 910.891 Z" fill="#000000" fill-rule="evenodd" fill-opacity="1" /><path clip-path="url(#clip120)" d="M49.9359 898.86 L28.3562 898.86 L28.3562 893.003 L49.7131 893.003 Q54.7739 893.003 57.3202 891.03 Q59.8346 889.056 59.8346 885.11 Q59.8346 880.367 56.8109 877.63 Q53.7872 874.861 48.5673 874.861 L28.3562 874.861 L28.3562 869.005 L64.0042 869.005 L64.0042 874.861 L58.5296 874.861 Q61.7762 876.993 63.3676 879.826 Q64.9272 882.627 64.9272 886.351 Q64.9272 892.494 61.1078 895.677 Q57.2883 898.86 49.9359 898.86 M27.4968 884.123 L27.4968 884.123 Z" fill="#000000" fill-rule="evenodd" fill-opacity="1" /><path clip-path="url(#clip120)" d="M29.7248 831.288 L35.1993 831.288 Q33.8307 833.77 33.1623 836.285 Q32.4621 838.767 32.4621 841.314 Q32.4621 847.011 36.0905 850.162 Q39.6872 853.313 46.212 853.313 Q52.7369 853.313 56.3653 850.162 Q59.9619 847.011 59.9619 841.314 Q59.9619 838.767 59.2935 836.285 Q58.5933 833.77 57.2247 831.288 L62.6355 831.288 Q63.7814 833.738 64.3543 836.38 Q64.9272 838.99 64.9272 841.95 Q64.9272 850.003 59.8664 854.745 Q54.8057 859.488 46.212 859.488 Q37.491 859.488 32.4939 854.714 Q27.4968 849.907 27.4968 841.568 Q27.4968 838.863 28.0697 836.285 Q28.6108 833.707 29.7248 831.288 Z" fill="#000000" fill-rule="evenodd" fill-opacity="1" /><path clip-path="url(#clip120)" d="M29.7248 795.449 L35.1993 795.449 Q33.8307 797.931 33.1623 800.446 Q32.4621 802.928 32.4621 805.475 Q32.4621 811.172 36.0905 814.323 Q39.6872 817.474 46.212 817.474 Q52.7369 817.474 56.3653 814.323 Q59.9619 811.172 59.9619 805.475 Q59.9619 802.928 59.2935 800.446 Q58.5933 797.931 57.2247 795.449 L62.6355 795.449 Q63.7814 797.9 64.3543 800.541 Q64.9272 803.151 64.9272 806.111 Q64.9272 814.164 59.8664 818.906 Q54.8057 823.649 46.212 823.649 Q37.491 823.649 32.4939 818.875 Q27.4968 814.068 27.4968 805.729 Q27.4968 803.024 28.0697 800.446 Q28.6108 797.868 29.7248 795.449 Z" fill="#000000" fill-rule="evenodd" fill-opacity="1" /><path clip-path="url(#clip120)" d="M44.7161 754.772 L47.5806 754.772 L47.5806 781.699 Q53.6281 781.317 56.8109 778.07 Q59.9619 774.792 59.9619 768.967 Q59.9619 765.594 59.1344 762.443 Q58.3069 759.26 56.6518 756.141 L62.1899 756.141 Q63.5267 759.292 64.227 762.602 Q64.9272 765.912 64.9272 769.318 Q64.9272 777.848 59.9619 782.845 Q54.9967 787.81 46.5303 787.81 Q37.7774 787.81 32.6531 783.099 Q27.4968 778.357 27.4968 770.336 Q27.4968 763.143 32.1438 758.973 Q36.7589 754.772 44.7161 754.772 M42.9973 760.628 Q38.1912 760.692 35.3266 763.334 Q32.4621 765.944 32.4621 770.272 Q32.4621 775.174 35.2312 778.134 Q38.0002 781.062 43.0292 781.508 L42.9973 760.628 Z" fill="#000000" fill-rule="evenodd" fill-opacity="1" /><path clip-path="url(#clip120)" d="M29.4065 722.434 L34.9447 722.434 Q33.6716 724.917 33.035 727.59 Q32.3984 730.264 32.3984 733.129 Q32.3984 737.489 33.7352 739.685 Q35.072 741.85 37.7456 741.85 Q39.7826 741.85 40.9603 740.29 Q42.1061 738.73 43.1565 734.02 L43.6021 732.015 Q44.9389 725.776 47.3897 723.166 Q49.8086 720.524 54.1691 720.524 Q59.1344 720.524 62.0308 724.471 Q64.9272 728.386 64.9272 735.261 Q64.9272 738.126 64.3543 741.245 Q63.8132 744.332 62.6992 747.77 L56.6518 747.77 Q58.3387 744.523 59.198 741.372 Q60.0256 738.221 60.0256 735.134 Q60.0256 730.996 58.6251 728.768 Q57.1929 726.54 54.6147 726.54 Q52.2276 726.54 50.9545 728.163 Q49.6813 729.755 48.5037 735.197 L48.0262 737.234 Q46.8804 742.677 44.5251 745.096 Q42.138 747.515 38.0002 747.515 Q32.9713 747.515 30.2341 743.95 Q27.4968 740.385 27.4968 733.829 Q27.4968 730.582 27.9743 727.718 Q28.4517 724.853 29.4065 722.434 Z" fill="#000000" fill-rule="evenodd" fill-opacity="1" /><path clip-path="url(#clip120)" d="M29.4065 688.473 L34.9447 688.473 Q33.6716 690.956 33.035 693.629 Q32.3984 696.303 32.3984 699.167 Q32.3984 703.528 33.7352 705.724 Q35.072 707.888 37.7456 707.888 Q39.7826 707.888 40.9603 706.329 Q42.1061 704.769 43.1565 700.059 L43.6021 698.053 Q44.9389 691.815 47.3897 689.205 Q49.8086 686.563 54.1691 686.563 Q59.1344 686.563 62.0308 690.51 Q64.9272 694.425 64.9272 701.3 Q64.9272 704.165 64.3543 707.284 Q63.8132 710.371 62.6992 713.809 L56.6518 713.809 Q58.3387 710.562 59.198 707.411 Q60.0256 704.26 60.0256 701.173 Q60.0256 697.035 58.6251 694.807 Q57.1929 692.579 54.6147 692.579 Q52.2276 692.579 50.9545 694.202 Q49.6813 695.794 48.5037 701.236 L48.0262 703.273 Q46.8804 708.716 44.5251 711.135 Q42.138 713.554 38.0002 713.554 Q32.9713 713.554 30.2341 709.989 Q27.4968 706.424 27.4968 699.868 Q27.4968 696.621 27.9743 693.757 Q28.4517 690.892 29.4065 688.473 Z" fill="#000000" fill-rule="evenodd" fill-opacity="1" /><path clip-path="url(#clip120)" d="M41.7242 633.728 Q42.4244 631.659 44.7161 629.718 Q47.0077 627.744 51.0181 625.771 L64.0042 619.246 L64.0042 626.153 L51.8138 632.232 Q47.0395 634.587 45.48 636.815 Q43.9204 639.012 43.9204 642.831 L43.9204 649.833 L64.0042 649.833 L64.0042 656.263 L16.4842 656.263 L16.4842 641.749 Q16.4842 633.601 19.8898 629.59 Q23.2955 625.58 30.1704 625.58 Q34.6582 625.58 37.6183 627.681 Q40.5784 629.749 41.7242 633.728 M21.7677 649.833 L38.6368 649.833 L38.6368 641.749 Q38.6368 637.102 36.5043 634.747 Q34.34 632.359 30.1704 632.359 Q26.0009 632.359 23.9002 634.747 Q21.7677 637.102 21.7677 641.749 L21.7677 649.833 Z" fill="#000000" fill-rule="evenodd" fill-opacity="1" /><path clip-path="url(#clip120)" d="M46.0847 596.457 Q46.0847 603.555 47.7079 606.292 Q49.3312 609.029 53.2461 609.029 Q56.3653 609.029 58.2114 606.992 Q60.0256 604.923 60.0256 601.39 Q60.0256 596.52 56.5881 593.592 Q53.1188 590.632 47.3897 590.632 L46.0847 590.632 L46.0847 596.457 M43.6657 584.776 L64.0042 584.776 L64.0042 590.632 L58.5933 590.632 Q61.8398 592.637 63.3994 595.629 Q64.9272 598.621 64.9272 602.95 Q64.9272 608.424 61.8716 611.671 Q58.7843 614.886 53.6281 614.886 Q47.6125 614.886 44.5569 610.875 Q41.5014 606.833 41.5014 598.844 L41.5014 590.632 L40.9285 590.632 Q36.8862 590.632 34.6901 593.306 Q32.4621 595.948 32.4621 600.754 Q32.4621 603.809 33.1941 606.706 Q33.9262 609.602 35.3903 612.276 L29.9795 612.276 Q28.7381 609.061 28.1334 606.037 Q27.4968 603.013 27.4968 600.149 Q27.4968 592.415 31.5072 588.595 Q35.5176 584.776 43.6657 584.776 Z" fill="#000000" fill-rule="evenodd" fill-opacity="1" /><path clip-path="url(#clip120)" d="M18.2347 566.92 L28.3562 566.92 L28.3562 554.857 L32.9077 554.857 L32.9077 566.92 L52.2594 566.92 Q56.6199 566.92 57.8613 565.742 Q59.1026 564.533 59.1026 560.872 L59.1026 554.857 L64.0042 554.857 L64.0042 560.872 Q64.0042 567.652 61.4897 570.23 Q58.9434 572.808 52.2594 572.808 L32.9077 572.808 L32.9077 577.105 L28.3562 577.105 L28.3562 572.808 L18.2347 572.808 L18.2347 566.92 Z" fill="#000000" fill-rule="evenodd" fill-opacity="1" /><path clip-path="url(#clip120)" d="M44.7161 516.663 L47.5806 516.663 L47.5806 543.59 Q53.6281 543.208 56.8109 539.961 Q59.9619 536.683 59.9619 530.858 Q59.9619 527.484 59.1344 524.333 Q58.3069 521.15 56.6518 518.031 L62.1899 518.031 Q63.5267 521.182 64.227 524.492 Q64.9272 527.803 64.9272 531.208 Q64.9272 539.738 59.9619 544.735 Q54.9967 549.701 46.5303 549.701 Q37.7774 549.701 32.6531 544.99 Q27.4968 540.248 27.4968 532.227 Q27.4968 525.034 32.1438 520.864 Q36.7589 516.663 44.7161 516.663 M42.9973 522.519 Q38.1912 522.583 35.3266 525.225 Q32.4621 527.834 32.4621 532.163 Q32.4621 537.065 35.2312 540.025 Q38.0002 542.953 43.0292 543.399 L42.9973 522.519 Z" fill="#000000" fill-rule="evenodd" fill-opacity="1" /><polyline clip-path="url(#clip122)" style="stroke:#009af9; stroke-linecap:round; stroke-linejoin:round; stroke-width:4; stroke-opacity:1; fill:none" points="
  309.067,1372.3 322.383,1372.3 335.7,1372.3 349.017,1372.3 362.333,1372.3 375.65,1372.3 388.966,1372.3 402.283,1340.14 415.599,1333.71 428.916,1140.74 
  442.232,870.581 455.549,767.664 468.865,561.83 482.182,413.887 495.498,330.266 508.815,253.078 522.132,220.917 535.448,156.594 548.765,111.567 562.081,201.62 
  575.398,233.781 588.714,124.432 602.031,111.567 615.347,124.432 628.664,137.297 641.98,214.485 655.297,201.62 668.613,156.594 681.93,150.161 695.247,137.297 
  708.563,143.729 721.88,98.7027 735.196,85.838 748.513,130.864 761.829,111.567 775.146,137.297 788.462,111.567 801.779,92.2704 815.095,85.838 828.412,92.2704 
  841.728,111.567 855.045,137.297 868.362,105.135 881.678,130.864 894.995,130.864 908.311,85.838 921.628,163.026 934.944,118 948.261,92.2704 961.577,124.432 
  974.894,124.432 988.21,143.729 1001.53,124.432 1014.84,188.755 1028.16,98.7027 1041.48,105.135 1054.79,98.7027 1068.11,85.838 1081.43,130.864 1094.74,124.432 
  1108.06,118 1121.38,143.729 1134.69,111.567 1148.01,124.432 1161.33,208.052 1174.64,163.026 1187.96,169.458 1201.27,169.458 1214.59,156.594 1227.91,124.432 
  1241.22,163.026 1254.54,130.864 1267.86,105.135 1281.17,105.135 1294.49,85.838 1307.81,111.567 1321.12,105.135 1334.44,111.567 1347.76,92.2704 1361.07,92.2704 
  1374.39,111.567 1387.71,111.567 1401.02,105.135 1414.34,92.2704 1427.66,98.7027 1440.97,85.838 1454.29,111.567 1467.61,111.567 1480.92,130.864 1494.24,118 
  1507.56,130.864 1520.87,105.135 1534.19,137.297 1547.5,130.864 1560.82,150.161 1574.14,150.161 1587.45,130.864 1600.77,118 1614.09,137.297 1627.4,182.323 
  1640.72,124.432 1654.04,130.864 1667.35,111.567 1680.67,130.864 1693.99,137.297 1707.3,169.458 1720.62,175.891 1733.94,208.052 1747.25,201.62 1760.57,175.891 
  1773.89,118 1787.2,188.755 1800.52,182.323 1813.84,233.781 1827.15,182.323 1840.47,188.755 1853.79,182.323 1867.1,220.917 1880.42,111.567 1893.73,163.026 
  1907.05,163.026 1920.37,143.729 1933.68,214.485 1947,201.62 1960.32,143.729 1973.63,182.323 1986.95,201.62 2000.27,182.323 2013.58,150.161 2026.9,169.458 
  2040.22,188.755 2053.53,175.891 2066.85,143.729 2080.17,124.432 2093.48,201.62 2106.8,169.458 2120.12,182.323 2133.43,220.917 2146.75,208.052 2160.07,150.161 
  2173.38,227.349 2186.7,246.646 2200.02,195.188 2213.33,381.725 2226.65,208.052 2239.96,285.24 2253.28,253.078 2266.6,208.052 2279.91,214.485 2293.23,175.891 
  
  "/>
</svg>
