<?xml version="1.0" encoding="utf-8"?>
<svg xmlns="http://www.w3.org/2000/svg" xmlns:xlink="http://www.w3.org/1999/xlink" width="600" height="400" viewBox="0 0 2400 1600">
<defs>
  <clipPath id="clip160">
    <rect x="0" y="0" width="2400" height="1600"/>
  </clipPath>
</defs>
<path clip-path="url(#clip160)" d="
M0 1600 L2400 1600 L2400 0 L0 0  Z
  " fill="#ffffff" fill-rule="evenodd" fill-opacity="1"/>
<defs>
  <clipPath id="clip161">
    <rect x="480" y="0" width="1681" height="1600"/>
  </clipPath>
</defs>
<path clip-path="url(#clip160)" d="
M175.445 1423.18 L2352.76 1423.18 L2352.76 47.2441 L175.445 47.2441  Z
  " fill="#ffffff" fill-rule="evenodd" fill-opacity="1"/>
<defs>
  <clipPath id="clip162">
    <rect x="175" y="47" width="2178" height="1377"/>
  </clipPath>
</defs>
<polyline clip-path="url(#clip162)" style="stroke:#000000; stroke-linecap:round; stroke-linejoin:round; stroke-width:2; stroke-opacity:0.1; fill:none" points="
  223.282,1423.18 223.282,47.2441 
  "/>
<polyline clip-path="url(#clip162)" style="stroke:#000000; stroke-linecap:round; stroke-linejoin:round; stroke-width:2; stroke-opacity:0.1; fill:none" points="
  567.924,1423.18 567.924,47.2441 
  "/>
<polyline clip-path="url(#clip162)" style="stroke:#000000; stroke-linecap:round; stroke-linejoin:round; stroke-width:2; stroke-opacity:0.1; fill:none" points="
  912.566,1423.18 912.566,47.2441 
  "/>
<polyline clip-path="url(#clip162)" style="stroke:#000000; stroke-linecap:round; stroke-linejoin:round; stroke-width:2; stroke-opacity:0.1; fill:none" points="
  1257.21,1423.18 1257.21,47.2441 
  "/>
<polyline clip-path="url(#clip162)" style="stroke:#000000; stroke-linecap:round; stroke-linejoin:round; stroke-width:2; stroke-opacity:0.1; fill:none" points="
  1601.85,1423.18 1601.85,47.2441 
  "/>
<polyline clip-path="url(#clip162)" style="stroke:#000000; stroke-linecap:round; stroke-linejoin:round; stroke-width:2; stroke-opacity:0.1; fill:none" points="
  1946.49,1423.18 1946.49,47.2441 
  "/>
<polyline clip-path="url(#clip162)" style="stroke:#000000; stroke-linecap:round; stroke-linejoin:round; stroke-width:2; stroke-opacity:0.1; fill:none" points="
  2291.13,1423.18 2291.13,47.2441 
  "/>
<polyline clip-path="url(#clip160)" style="stroke:#000000; stroke-linecap:round; stroke-linejoin:round; stroke-width:4; stroke-opacity:1; fill:none" points="
  175.445,1423.18 2352.76,1423.18 
  "/>
<polyline clip-path="url(#clip160)" style="stroke:#000000; stroke-linecap:round; stroke-linejoin:round; stroke-width:4; stroke-opacity:1; fill:none" points="
  223.282,1423.18 223.282,1404.28 
  "/>
<polyline clip-path="url(#clip160)" style="stroke:#000000; stroke-linecap:round; stroke-linejoin:round; stroke-width:4; stroke-opacity:1; fill:none" points="
  567.924,1423.18 567.924,1404.28 
  "/>
<polyline clip-path="url(#clip160)" style="stroke:#000000; stroke-linecap:round; stroke-linejoin:round; stroke-width:4; stroke-opacity:1; fill:none" points="
  912.566,1423.18 912.566,1404.28 
  "/>
<polyline clip-path="url(#clip160)" style="stroke:#000000; stroke-linecap:round; stroke-linejoin:round; stroke-width:4; stroke-opacity:1; fill:none" points="
  1257.21,1423.18 1257.21,1404.28 
  "/>
<polyline clip-path="url(#clip160)" style="stroke:#000000; stroke-linecap:round; stroke-linejoin:round; stroke-width:4; stroke-opacity:1; fill:none" points="
  1601.85,1423.18 1601.85,1404.28 
  "/>
<polyline clip-path="url(#clip160)" style="stroke:#000000; stroke-linecap:round; stroke-linejoin:round; stroke-width:4; stroke-opacity:1; fill:none" points="
  1946.49,1423.18 1946.49,1404.28 
  "/>
<polyline clip-path="url(#clip160)" style="stroke:#000000; stroke-linecap:round; stroke-linejoin:round; stroke-width:4; stroke-opacity:1; fill:none" points="
  2291.13,1423.18 2291.13,1404.28 
  "/>
<path clip-path="url(#clip160)" d="M131.083 1454.1 Q127.472 1454.1 125.643 1457.66 Q123.838 1461.2 123.838 1468.33 Q123.838 1475.44 125.643 1479.01 Q127.472 1482.55 131.083 1482.55 Q134.717 1482.55 136.523 1479.01 Q138.351 1475.44 138.351 1468.33 Q138.351 1461.2 136.523 1457.66 Q134.717 1454.1 131.083 1454.1 M131.083 1450.39 Q136.893 1450.39 139.949 1455 Q143.027 1459.58 143.027 1468.33 Q143.027 1477.06 139.949 1481.67 Q136.893 1486.25 131.083 1486.25 Q125.273 1486.25 122.194 1481.67 Q119.139 1477.06 119.139 1468.33 Q119.139 1459.58 122.194 1455 Q125.273 1450.39 131.083 1450.39 Z" fill="#000000" fill-rule="evenodd" fill-opacity="1" /><path clip-path="url(#clip160)" d="M151.245 1479.7 L156.129 1479.7 L156.129 1485.58 L151.245 1485.58 L151.245 1479.7 Z" fill="#000000" fill-rule="evenodd" fill-opacity="1" /><path clip-path="url(#clip160)" d="M176.314 1454.1 Q172.703 1454.1 170.874 1457.66 Q169.069 1461.2 169.069 1468.33 Q169.069 1475.44 170.874 1479.01 Q172.703 1482.55 176.314 1482.55 Q179.948 1482.55 181.754 1479.01 Q183.583 1475.44 183.583 1468.33 Q183.583 1461.2 181.754 1457.66 Q179.948 1454.1 176.314 1454.1 M176.314 1450.39 Q182.124 1450.39 185.18 1455 Q188.259 1459.58 188.259 1468.33 Q188.259 1477.06 185.18 1481.67 Q182.124 1486.25 176.314 1486.25 Q170.504 1486.25 167.425 1481.67 Q164.37 1477.06 164.37 1468.33 Q164.37 1459.58 167.425 1455 Q170.504 1450.39 176.314 1450.39 Z" fill="#000000" fill-rule="evenodd" fill-opacity="1" /><path clip-path="url(#clip160)" d="M206.476 1454.1 Q202.865 1454.1 201.036 1457.66 Q199.231 1461.2 199.231 1468.33 Q199.231 1475.44 201.036 1479.01 Q202.865 1482.55 206.476 1482.55 Q210.11 1482.55 211.916 1479.01 Q213.745 1475.44 213.745 1468.33 Q213.745 1461.2 211.916 1457.66 Q210.11 1454.1 206.476 1454.1 M206.476 1450.39 Q212.286 1450.39 215.342 1455 Q218.42 1459.58 218.42 1468.33 Q218.42 1477.06 215.342 1481.67 Q212.286 1486.25 206.476 1486.25 Q200.666 1486.25 197.587 1481.67 Q194.532 1477.06 194.532 1468.33 Q194.532 1459.58 197.587 1455 Q200.666 1450.39 206.476 1450.39 Z" fill="#000000" fill-rule="evenodd" fill-opacity="1" /><path clip-path="url(#clip160)" d="M247.587 1459.65 L238.212 1472.27 L248.073 1485.58 L243.05 1485.58 L235.504 1475.39 L227.957 1485.58 L222.934 1485.58 L233.004 1472.02 L223.791 1459.65 L228.814 1459.65 L235.689 1468.89 L242.564 1459.65 L247.587 1459.65 Z" fill="#000000" fill-rule="evenodd" fill-opacity="1" /><path clip-path="url(#clip160)" d="M255.504 1481.64 L263.142 1481.64 L263.142 1455.28 L254.832 1456.95 L254.832 1452.69 L263.096 1451.02 L267.772 1451.02 L267.772 1481.64 L275.411 1481.64 L275.411 1485.58 L255.504 1485.58 L255.504 1481.64 Z" fill="#000000" fill-rule="evenodd" fill-opacity="1" /><path clip-path="url(#clip160)" d="M294.855 1454.1 Q291.244 1454.1 289.415 1457.66 Q287.61 1461.2 287.61 1468.33 Q287.61 1475.44 289.415 1479.01 Q291.244 1482.55 294.855 1482.55 Q298.489 1482.55 300.295 1479.01 Q302.124 1475.44 302.124 1468.33 Q302.124 1461.2 300.295 1457.66 Q298.489 1454.1 294.855 1454.1 M294.855 1450.39 Q300.665 1450.39 303.721 1455 Q306.8 1459.58 306.8 1468.33 Q306.8 1477.06 303.721 1481.67 Q300.665 1486.25 294.855 1486.25 Q289.045 1486.25 285.966 1481.67 Q282.911 1477.06 282.911 1468.33 Q282.911 1459.58 285.966 1455 Q289.045 1450.39 294.855 1450.39 Z" fill="#000000" fill-rule="evenodd" fill-opacity="1" /><path clip-path="url(#clip160)" d="M320.017 1459.35 Q317.98 1459.35 316.8 1460.56 Q315.619 1461.78 315.619 1463.89 Q315.619 1465.97 316.8 1467.18 Q317.98 1468.4 320.017 1468.4 Q322.031 1468.4 323.212 1467.18 Q324.392 1465.97 324.392 1463.89 Q324.392 1461.78 323.212 1460.56 Q322.031 1459.35 320.017 1459.35 M325.989 1451.16 L325.989 1453.54 Q324.855 1453.08 323.698 1452.85 Q322.54 1452.59 321.406 1452.59 Q318.443 1452.59 316.869 1454.33 Q315.295 1456.09 315.063 1459.63 Q315.943 1458.5 317.263 1457.89 Q318.605 1457.29 320.179 1457.29 Q323.536 1457.29 325.48 1459.05 Q327.424 1460.83 327.424 1463.89 Q327.424 1466.83 325.387 1468.66 Q323.374 1470.46 320.017 1470.46 Q316.151 1470.46 314.114 1467.89 Q312.077 1465.33 312.077 1460.42 Q312.077 1455.83 314.577 1453.13 Q317.077 1450.39 321.29 1450.39 Q322.425 1450.39 323.582 1450.58 Q324.739 1450.79 325.989 1451.16 Z" fill="#000000" fill-rule="evenodd" fill-opacity="1" /><path clip-path="url(#clip160)" d="M475.725 1454.1 Q472.114 1454.1 470.285 1457.66 Q468.48 1461.2 468.48 1468.33 Q468.48 1475.44 470.285 1479.01 Q472.114 1482.55 475.725 1482.55 Q479.359 1482.55 481.165 1479.01 Q482.993 1475.44 482.993 1468.33 Q482.993 1461.2 481.165 1457.66 Q479.359 1454.1 475.725 1454.1 M475.725 1450.39 Q481.535 1450.39 484.591 1455 Q487.669 1459.58 487.669 1468.33 Q487.669 1477.06 484.591 1481.67 Q481.535 1486.25 475.725 1486.25 Q469.915 1486.25 466.836 1481.67 Q463.781 1477.06 463.781 1468.33 Q463.781 1459.58 466.836 1455 Q469.915 1450.39 475.725 1450.39 Z" fill="#000000" fill-rule="evenodd" fill-opacity="1" /><path clip-path="url(#clip160)" d="M495.887 1479.7 L500.771 1479.7 L500.771 1485.58 L495.887 1485.58 L495.887 1479.7 Z" fill="#000000" fill-rule="evenodd" fill-opacity="1" /><path clip-path="url(#clip160)" d="M514.984 1481.64 L531.303 1481.64 L531.303 1485.58 L509.359 1485.58 L509.359 1481.64 Q512.021 1478.89 516.604 1474.26 Q521.211 1469.61 522.391 1468.27 Q524.637 1465.74 525.516 1464.01 Q526.419 1462.25 526.419 1460.56 Q526.419 1457.8 524.475 1456.07 Q522.553 1454.33 519.452 1454.33 Q517.253 1454.33 514.799 1455.09 Q512.368 1455.86 509.591 1457.41 L509.591 1452.69 Q512.415 1451.55 514.868 1450.97 Q517.322 1450.39 519.359 1450.39 Q524.729 1450.39 527.924 1453.08 Q531.118 1455.77 531.118 1460.26 Q531.118 1462.39 530.308 1464.31 Q529.521 1466.2 527.415 1468.8 Q526.836 1469.47 523.734 1472.69 Q520.632 1475.88 514.984 1481.64 Z" fill="#000000" fill-rule="evenodd" fill-opacity="1" /><path clip-path="url(#clip160)" d="M541.164 1451.02 L559.521 1451.02 L559.521 1454.96 L545.447 1454.96 L545.447 1463.43 Q546.465 1463.08 547.484 1462.92 Q548.502 1462.73 549.521 1462.73 Q555.308 1462.73 558.688 1465.9 Q562.067 1469.08 562.067 1474.49 Q562.067 1480.07 558.595 1483.17 Q555.123 1486.25 548.803 1486.25 Q546.627 1486.25 544.359 1485.88 Q542.114 1485.51 539.706 1484.77 L539.706 1480.07 Q541.789 1481.2 544.012 1481.76 Q546.234 1482.32 548.711 1482.32 Q552.715 1482.32 555.053 1480.21 Q557.391 1478.1 557.391 1474.49 Q557.391 1470.88 555.053 1468.77 Q552.715 1466.67 548.711 1466.67 Q546.836 1466.67 544.961 1467.08 Q543.109 1467.5 541.164 1468.38 L541.164 1451.02 Z" fill="#000000" fill-rule="evenodd" fill-opacity="1" /><path clip-path="url(#clip160)" d="M592.229 1459.65 L582.854 1472.27 L592.715 1485.58 L587.692 1485.58 L580.146 1475.39 L572.599 1485.58 L567.576 1485.58 L577.646 1472.02 L568.433 1459.65 L573.456 1459.65 L580.331 1468.89 L587.206 1459.65 L592.229 1459.65 Z" fill="#000000" fill-rule="evenodd" fill-opacity="1" /><path clip-path="url(#clip160)" d="M600.146 1481.64 L607.784 1481.64 L607.784 1455.28 L599.474 1456.95 L599.474 1452.69 L607.738 1451.02 L612.414 1451.02 L612.414 1481.64 L620.053 1481.64 L620.053 1485.58 L600.146 1485.58 L600.146 1481.64 Z" fill="#000000" fill-rule="evenodd" fill-opacity="1" /><path clip-path="url(#clip160)" d="M639.497 1454.1 Q635.886 1454.1 634.057 1457.66 Q632.252 1461.2 632.252 1468.33 Q632.252 1475.44 634.057 1479.01 Q635.886 1482.55 639.497 1482.55 Q643.132 1482.55 644.937 1479.01 Q646.766 1475.44 646.766 1468.33 Q646.766 1461.2 644.937 1457.66 Q643.132 1454.1 639.497 1454.1 M639.497 1450.39 Q645.307 1450.39 648.363 1455 Q651.442 1459.58 651.442 1468.33 Q651.442 1477.06 648.363 1481.67 Q645.307 1486.25 639.497 1486.25 Q633.687 1486.25 630.608 1481.67 Q627.553 1477.06 627.553 1468.33 Q627.553 1459.58 630.608 1455 Q633.687 1450.39 639.497 1450.39 Z" fill="#000000" fill-rule="evenodd" fill-opacity="1" /><path clip-path="url(#clip160)" d="M664.659 1459.35 Q662.622 1459.35 661.442 1460.56 Q660.261 1461.78 660.261 1463.89 Q660.261 1465.97 661.442 1467.18 Q662.622 1468.4 664.659 1468.4 Q666.673 1468.4 667.854 1467.18 Q669.034 1465.97 669.034 1463.89 Q669.034 1461.78 667.854 1460.56 Q666.673 1459.35 664.659 1459.35 M670.631 1451.16 L670.631 1453.54 Q669.497 1453.08 668.34 1452.85 Q667.182 1452.59 666.048 1452.59 Q663.085 1452.59 661.511 1454.33 Q659.937 1456.09 659.706 1459.63 Q660.585 1458.5 661.905 1457.89 Q663.247 1457.29 664.821 1457.29 Q668.178 1457.29 670.122 1459.05 Q672.067 1460.83 672.067 1463.89 Q672.067 1466.83 670.03 1468.66 Q668.016 1470.46 664.659 1470.46 Q660.793 1470.46 658.756 1467.89 Q656.719 1465.33 656.719 1460.42 Q656.719 1455.83 659.219 1453.13 Q661.719 1450.39 665.932 1450.39 Q667.067 1450.39 668.224 1450.58 Q669.381 1450.79 670.631 1451.16 Z" fill="#000000" fill-rule="evenodd" fill-opacity="1" /><path clip-path="url(#clip160)" d="M820.367 1454.1 Q816.756 1454.1 814.927 1457.66 Q813.122 1461.2 813.122 1468.33 Q813.122 1475.44 814.927 1479.01 Q816.756 1482.55 820.367 1482.55 Q824.001 1482.55 825.807 1479.01 Q827.636 1475.44 827.636 1468.33 Q827.636 1461.2 825.807 1457.66 Q824.001 1454.1 820.367 1454.1 M820.367 1450.39 Q826.177 1450.39 829.233 1455 Q832.311 1459.58 832.311 1468.33 Q832.311 1477.06 829.233 1481.67 Q826.177 1486.25 820.367 1486.25 Q814.557 1486.25 811.478 1481.67 Q808.423 1477.06 808.423 1468.33 Q808.423 1459.58 811.478 1455 Q814.557 1450.39 820.367 1450.39 Z" fill="#000000" fill-rule="evenodd" fill-opacity="1" /><path clip-path="url(#clip160)" d="M840.529 1479.7 L845.413 1479.7 L845.413 1485.58 L840.529 1485.58 L840.529 1479.7 Z" fill="#000000" fill-rule="evenodd" fill-opacity="1" /><path clip-path="url(#clip160)" d="M855.645 1451.02 L874.001 1451.02 L874.001 1454.96 L859.927 1454.96 L859.927 1463.43 Q860.946 1463.08 861.964 1462.92 Q862.983 1462.73 864.001 1462.73 Q869.788 1462.73 873.168 1465.9 Q876.547 1469.08 876.547 1474.49 Q876.547 1480.07 873.075 1483.17 Q869.603 1486.25 863.284 1486.25 Q861.108 1486.25 858.839 1485.88 Q856.594 1485.51 854.186 1484.77 L854.186 1480.07 Q856.27 1481.2 858.492 1481.76 Q860.714 1482.32 863.191 1482.32 Q867.196 1482.32 869.533 1480.21 Q871.871 1478.1 871.871 1474.49 Q871.871 1470.88 869.533 1468.77 Q867.196 1466.67 863.191 1466.67 Q861.316 1466.67 859.441 1467.08 Q857.589 1467.5 855.645 1468.38 L855.645 1451.02 Z" fill="#000000" fill-rule="evenodd" fill-opacity="1" /><path clip-path="url(#clip160)" d="M895.76 1454.1 Q892.149 1454.1 890.32 1457.66 Q888.515 1461.2 888.515 1468.33 Q888.515 1475.44 890.32 1479.01 Q892.149 1482.55 895.76 1482.55 Q899.394 1482.55 901.2 1479.01 Q903.029 1475.44 903.029 1468.33 Q903.029 1461.2 901.2 1457.66 Q899.394 1454.1 895.76 1454.1 M895.76 1450.39 Q901.57 1450.39 904.626 1455 Q907.705 1459.58 907.705 1468.33 Q907.705 1477.06 904.626 1481.67 Q901.57 1486.25 895.76 1486.25 Q889.95 1486.25 886.871 1481.67 Q883.816 1477.06 883.816 1468.33 Q883.816 1459.58 886.871 1455 Q889.95 1450.39 895.76 1450.39 Z" fill="#000000" fill-rule="evenodd" fill-opacity="1" /><path clip-path="url(#clip160)" d="M936.871 1459.65 L927.496 1472.27 L937.357 1485.58 L932.334 1485.58 L924.788 1475.39 L917.242 1485.58 L912.218 1485.58 L922.288 1472.02 L913.075 1459.65 L918.098 1459.65 L924.973 1468.89 L931.848 1459.65 L936.871 1459.65 Z" fill="#000000" fill-rule="evenodd" fill-opacity="1" /><path clip-path="url(#clip160)" d="M944.788 1481.64 L952.427 1481.64 L952.427 1455.28 L944.116 1456.95 L944.116 1452.69 L952.38 1451.02 L957.056 1451.02 L957.056 1481.64 L964.695 1481.64 L964.695 1485.58 L944.788 1485.58 L944.788 1481.64 Z" fill="#000000" fill-rule="evenodd" fill-opacity="1" /><path clip-path="url(#clip160)" d="M984.139 1454.1 Q980.528 1454.1 978.7 1457.66 Q976.894 1461.2 976.894 1468.33 Q976.894 1475.44 978.7 1479.01 Q980.528 1482.55 984.139 1482.55 Q987.774 1482.55 989.579 1479.01 Q991.408 1475.44 991.408 1468.33 Q991.408 1461.2 989.579 1457.66 Q987.774 1454.1 984.139 1454.1 M984.139 1450.39 Q989.949 1450.39 993.005 1455 Q996.084 1459.58 996.084 1468.33 Q996.084 1477.06 993.005 1481.67 Q989.949 1486.25 984.139 1486.25 Q978.329 1486.25 975.251 1481.67 Q972.195 1477.06 972.195 1468.33 Q972.195 1459.58 975.251 1455 Q978.329 1450.39 984.139 1450.39 Z" fill="#000000" fill-rule="evenodd" fill-opacity="1" /><path clip-path="url(#clip160)" d="M1009.3 1459.35 Q1007.26 1459.35 1006.08 1460.56 Q1004.9 1461.78 1004.9 1463.89 Q1004.9 1465.97 1006.08 1467.18 Q1007.26 1468.4 1009.3 1468.4 Q1011.32 1468.4 1012.5 1467.18 Q1013.68 1465.97 1013.68 1463.89 Q1013.68 1461.78 1012.5 1460.56 Q1011.32 1459.35 1009.3 1459.35 M1015.27 1451.16 L1015.27 1453.54 Q1014.14 1453.08 1012.98 1452.85 Q1011.82 1452.59 1010.69 1452.59 Q1007.73 1452.59 1006.15 1454.33 Q1004.58 1456.09 1004.35 1459.63 Q1005.23 1458.5 1006.55 1457.89 Q1007.89 1457.29 1009.46 1457.29 Q1012.82 1457.29 1014.76 1459.05 Q1016.71 1460.83 1016.71 1463.89 Q1016.71 1466.83 1014.67 1468.66 Q1012.66 1470.46 1009.3 1470.46 Q1005.44 1470.46 1003.4 1467.89 Q1001.36 1465.33 1001.36 1460.42 Q1001.36 1455.83 1003.86 1453.13 Q1006.36 1450.39 1010.57 1450.39 Q1011.71 1450.39 1012.87 1450.58 Q1014.02 1450.79 1015.27 1451.16 Z" fill="#000000" fill-rule="evenodd" fill-opacity="1" /><path clip-path="url(#clip160)" d="M1165.01 1454.1 Q1161.4 1454.1 1159.57 1457.66 Q1157.76 1461.2 1157.76 1468.33 Q1157.76 1475.44 1159.57 1479.01 Q1161.4 1482.55 1165.01 1482.55 Q1168.64 1482.55 1170.45 1479.01 Q1172.28 1475.44 1172.28 1468.33 Q1172.28 1461.2 1170.45 1457.66 Q1168.64 1454.1 1165.01 1454.1 M1165.01 1450.39 Q1170.82 1450.39 1173.87 1455 Q1176.95 1459.58 1176.95 1468.33 Q1176.95 1477.06 1173.87 1481.67 Q1170.82 1486.25 1165.01 1486.25 Q1159.2 1486.25 1156.12 1481.67 Q1153.06 1477.06 1153.06 1468.33 Q1153.06 1459.58 1156.12 1455 Q1159.2 1450.39 1165.01 1450.39 Z" fill="#000000" fill-rule="evenodd" fill-opacity="1" /><path clip-path="url(#clip160)" d="M1185.17 1479.7 L1190.06 1479.7 L1190.06 1485.58 L1185.17 1485.58 L1185.17 1479.7 Z" fill="#000000" fill-rule="evenodd" fill-opacity="1" /><path clip-path="url(#clip160)" d="M1199.06 1451.02 L1221.28 1451.02 L1221.28 1453.01 L1208.74 1485.58 L1203.85 1485.58 L1215.66 1454.96 L1199.06 1454.96 L1199.06 1451.02 Z" fill="#000000" fill-rule="evenodd" fill-opacity="1" /><path clip-path="url(#clip160)" d="M1230.45 1451.02 L1248.8 1451.02 L1248.8 1454.96 L1234.73 1454.96 L1234.73 1463.43 Q1235.75 1463.08 1236.77 1462.92 Q1237.79 1462.73 1238.81 1462.73 Q1244.59 1462.73 1247.97 1465.9 Q1251.35 1469.08 1251.35 1474.49 Q1251.35 1480.07 1247.88 1483.17 Q1244.41 1486.25 1238.09 1486.25 Q1235.91 1486.25 1233.64 1485.88 Q1231.4 1485.51 1228.99 1484.77 L1228.99 1480.07 Q1231.07 1481.2 1233.3 1481.76 Q1235.52 1482.32 1237.99 1482.32 Q1242 1482.32 1244.34 1480.21 Q1246.68 1478.1 1246.68 1474.49 Q1246.68 1470.88 1244.34 1468.77 Q1242 1466.67 1237.99 1466.67 Q1236.12 1466.67 1234.24 1467.08 Q1232.39 1467.5 1230.45 1468.38 L1230.45 1451.02 Z" fill="#000000" fill-rule="evenodd" fill-opacity="1" /><path clip-path="url(#clip160)" d="M1281.51 1459.65 L1272.14 1472.27 L1282 1485.58 L1276.98 1485.58 L1269.43 1475.39 L1261.88 1485.58 L1256.86 1485.58 L1266.93 1472.02 L1257.72 1459.65 L1262.74 1459.65 L1269.62 1468.89 L1276.49 1459.65 L1281.51 1459.65 Z" fill="#000000" fill-rule="evenodd" fill-opacity="1" /><path clip-path="url(#clip160)" d="M1289.43 1481.64 L1297.07 1481.64 L1297.07 1455.28 L1288.76 1456.95 L1288.76 1452.69 L1297.02 1451.02 L1301.7 1451.02 L1301.7 1481.64 L1309.34 1481.64 L1309.34 1485.58 L1289.43 1485.58 L1289.43 1481.64 Z" fill="#000000" fill-rule="evenodd" fill-opacity="1" /><path clip-path="url(#clip160)" d="M1328.78 1454.1 Q1325.17 1454.1 1323.34 1457.66 Q1321.54 1461.2 1321.54 1468.33 Q1321.54 1475.44 1323.34 1479.01 Q1325.17 1482.55 1328.78 1482.55 Q1332.42 1482.55 1334.22 1479.01 Q1336.05 1475.44 1336.05 1468.33 Q1336.05 1461.2 1334.22 1457.66 Q1332.42 1454.1 1328.78 1454.1 M1328.78 1450.39 Q1334.59 1450.39 1337.65 1455 Q1340.73 1459.58 1340.73 1468.33 Q1340.73 1477.06 1337.65 1481.67 Q1334.59 1486.25 1328.78 1486.25 Q1322.97 1486.25 1319.89 1481.67 Q1316.84 1477.06 1316.84 1468.33 Q1316.84 1459.58 1319.89 1455 Q1322.97 1450.39 1328.78 1450.39 Z" fill="#000000" fill-rule="evenodd" fill-opacity="1" /><path clip-path="url(#clip160)" d="M1353.94 1459.35 Q1351.91 1459.35 1350.73 1460.56 Q1349.55 1461.78 1349.55 1463.89 Q1349.55 1465.97 1350.73 1467.18 Q1351.91 1468.4 1353.94 1468.4 Q1355.96 1468.4 1357.14 1467.18 Q1358.32 1465.97 1358.32 1463.89 Q1358.32 1461.78 1357.14 1460.56 Q1355.96 1459.35 1353.94 1459.35 M1359.92 1451.16 L1359.92 1453.54 Q1358.78 1453.08 1357.62 1452.85 Q1356.47 1452.59 1355.33 1452.59 Q1352.37 1452.59 1350.8 1454.33 Q1349.22 1456.09 1348.99 1459.63 Q1349.87 1458.5 1351.19 1457.89 Q1352.53 1457.29 1354.11 1457.29 Q1357.46 1457.29 1359.41 1459.05 Q1361.35 1460.83 1361.35 1463.89 Q1361.35 1466.83 1359.31 1468.66 Q1357.3 1470.46 1353.94 1470.46 Q1350.08 1470.46 1348.04 1467.89 Q1346 1465.33 1346 1460.42 Q1346 1455.83 1348.5 1453.13 Q1351 1450.39 1355.22 1450.39 Q1356.35 1450.39 1357.51 1450.58 Q1358.67 1450.79 1359.92 1451.16 Z" fill="#000000" fill-rule="evenodd" fill-opacity="1" /><path clip-path="url(#clip160)" d="M1499.42 1481.64 L1507.06 1481.64 L1507.06 1455.28 L1498.75 1456.95 L1498.75 1452.69 L1507.01 1451.02 L1511.69 1451.02 L1511.69 1481.64 L1519.33 1481.64 L1519.33 1485.58 L1499.42 1485.58 L1499.42 1481.64 Z" fill="#000000" fill-rule="evenodd" fill-opacity="1" /><path clip-path="url(#clip160)" d="M1528.77 1479.7 L1533.66 1479.7 L1533.66 1485.58 L1528.77 1485.58 L1528.77 1479.7 Z" fill="#000000" fill-rule="evenodd" fill-opacity="1" /><path clip-path="url(#clip160)" d="M1553.84 1454.1 Q1550.23 1454.1 1548.4 1457.66 Q1546.6 1461.2 1546.6 1468.33 Q1546.6 1475.44 1548.4 1479.01 Q1550.23 1482.55 1553.84 1482.55 Q1557.48 1482.55 1559.28 1479.01 Q1561.11 1475.44 1561.11 1468.33 Q1561.11 1461.2 1559.28 1457.66 Q1557.48 1454.1 1553.84 1454.1 M1553.84 1450.39 Q1559.65 1450.39 1562.71 1455 Q1565.79 1459.58 1565.79 1468.33 Q1565.79 1477.06 1562.71 1481.67 Q1559.65 1486.25 1553.84 1486.25 Q1548.03 1486.25 1544.95 1481.67 Q1541.9 1477.06 1541.9 1468.33 Q1541.9 1459.58 1544.95 1455 Q1548.03 1450.39 1553.84 1450.39 Z" fill="#000000" fill-rule="evenodd" fill-opacity="1" /><path clip-path="url(#clip160)" d="M1584 1454.1 Q1580.39 1454.1 1578.56 1457.66 Q1576.76 1461.2 1576.76 1468.33 Q1576.76 1475.44 1578.56 1479.01 Q1580.39 1482.55 1584 1482.55 Q1587.64 1482.55 1589.44 1479.01 Q1591.27 1475.44 1591.27 1468.33 Q1591.27 1461.2 1589.44 1457.66 Q1587.64 1454.1 1584 1454.1 M1584 1450.39 Q1589.81 1450.39 1592.87 1455 Q1595.95 1459.58 1595.95 1468.33 Q1595.95 1477.06 1592.87 1481.67 Q1589.81 1486.25 1584 1486.25 Q1578.19 1486.25 1575.11 1481.67 Q1572.06 1477.06 1572.06 1468.33 Q1572.06 1459.58 1575.11 1455 Q1578.19 1450.39 1584 1450.39 Z" fill="#000000" fill-rule="evenodd" fill-opacity="1" /><path clip-path="url(#clip160)" d="M1625.11 1459.65 L1615.74 1472.27 L1625.6 1485.58 L1620.58 1485.58 L1613.03 1475.39 L1605.48 1485.58 L1600.46 1485.58 L1610.53 1472.02 L1601.32 1459.65 L1606.34 1459.65 L1613.22 1468.89 L1620.09 1459.65 L1625.11 1459.65 Z" fill="#000000" fill-rule="evenodd" fill-opacity="1" /><path clip-path="url(#clip160)" d="M1633.03 1481.64 L1640.67 1481.64 L1640.67 1455.28 L1632.36 1456.95 L1632.36 1452.69 L1640.62 1451.02 L1645.3 1451.02 L1645.3 1481.64 L1652.94 1481.64 L1652.94 1485.58 L1633.03 1485.58 L1633.03 1481.64 Z" fill="#000000" fill-rule="evenodd" fill-opacity="1" /><path clip-path="url(#clip160)" d="M1672.38 1454.1 Q1668.77 1454.1 1666.94 1457.66 Q1665.14 1461.2 1665.14 1468.33 Q1665.14 1475.44 1666.94 1479.01 Q1668.77 1482.55 1672.38 1482.55 Q1676.02 1482.55 1677.82 1479.01 Q1679.65 1475.44 1679.65 1468.33 Q1679.65 1461.2 1677.82 1457.66 Q1676.02 1454.1 1672.38 1454.1 M1672.38 1450.39 Q1678.19 1450.39 1681.25 1455 Q1684.33 1459.58 1684.33 1468.33 Q1684.33 1477.06 1681.25 1481.67 Q1678.19 1486.25 1672.38 1486.25 Q1666.57 1486.25 1663.49 1481.67 Q1660.44 1477.06 1660.44 1468.33 Q1660.44 1459.58 1663.49 1455 Q1666.57 1450.39 1672.38 1450.39 Z" fill="#000000" fill-rule="evenodd" fill-opacity="1" /><path clip-path="url(#clip160)" d="M1697.54 1459.35 Q1695.51 1459.35 1694.33 1460.56 Q1693.15 1461.78 1693.15 1463.89 Q1693.15 1465.97 1694.33 1467.18 Q1695.51 1468.4 1697.54 1468.4 Q1699.56 1468.4 1700.74 1467.18 Q1701.92 1465.97 1701.92 1463.89 Q1701.92 1461.78 1700.74 1460.56 Q1699.56 1459.35 1697.54 1459.35 M1703.52 1451.16 L1703.52 1453.54 Q1702.38 1453.08 1701.22 1452.85 Q1700.07 1452.59 1698.93 1452.59 Q1695.97 1452.59 1694.4 1454.33 Q1692.82 1456.09 1692.59 1459.63 Q1693.47 1458.5 1694.79 1457.89 Q1696.13 1457.29 1697.71 1457.29 Q1701.06 1457.29 1703.01 1459.05 Q1704.95 1460.83 1704.95 1463.89 Q1704.95 1466.83 1702.91 1468.66 Q1700.9 1470.46 1697.54 1470.46 Q1693.68 1470.46 1691.64 1467.89 Q1689.6 1465.33 1689.6 1460.42 Q1689.6 1455.83 1692.1 1453.13 Q1694.6 1450.39 1698.82 1450.39 Q1699.95 1450.39 1701.11 1450.58 Q1702.27 1450.79 1703.52 1451.16 Z" fill="#000000" fill-rule="evenodd" fill-opacity="1" /><path clip-path="url(#clip160)" d="M1844.06 1481.64 L1851.7 1481.64 L1851.7 1455.28 L1843.39 1456.95 L1843.39 1452.69 L1851.65 1451.02 L1856.33 1451.02 L1856.33 1481.64 L1863.97 1481.64 L1863.97 1485.58 L1844.06 1485.58 L1844.06 1481.64 Z" fill="#000000" fill-rule="evenodd" fill-opacity="1" /><path clip-path="url(#clip160)" d="M1873.41 1479.7 L1878.3 1479.7 L1878.3 1485.58 L1873.41 1485.58 L1873.41 1479.7 Z" fill="#000000" fill-rule="evenodd" fill-opacity="1" /><path clip-path="url(#clip160)" d="M1892.51 1481.64 L1908.83 1481.64 L1908.83 1485.58 L1886.89 1485.58 L1886.89 1481.64 Q1889.55 1478.89 1894.13 1474.26 Q1898.74 1469.61 1899.92 1468.27 Q1902.16 1465.74 1903.04 1464.01 Q1903.95 1462.25 1903.95 1460.56 Q1903.95 1457.8 1902 1456.07 Q1900.08 1454.33 1896.98 1454.33 Q1894.78 1454.33 1892.33 1455.09 Q1889.89 1455.86 1887.12 1457.41 L1887.12 1452.69 Q1889.94 1451.55 1892.39 1450.97 Q1894.85 1450.39 1896.89 1450.39 Q1902.26 1450.39 1905.45 1453.08 Q1908.64 1455.77 1908.64 1460.26 Q1908.64 1462.39 1907.83 1464.31 Q1907.05 1466.2 1904.94 1468.8 Q1904.36 1469.47 1901.26 1472.69 Q1898.16 1475.88 1892.51 1481.64 Z" fill="#000000" fill-rule="evenodd" fill-opacity="1" /><path clip-path="url(#clip160)" d="M1918.69 1451.02 L1937.05 1451.02 L1937.05 1454.96 L1922.97 1454.96 L1922.97 1463.43 Q1923.99 1463.08 1925.01 1462.92 Q1926.03 1462.73 1927.05 1462.73 Q1932.83 1462.73 1936.21 1465.9 Q1939.59 1469.08 1939.59 1474.49 Q1939.59 1480.07 1936.12 1483.17 Q1932.65 1486.25 1926.33 1486.25 Q1924.15 1486.25 1921.89 1485.88 Q1919.64 1485.51 1917.23 1484.77 L1917.23 1480.07 Q1919.32 1481.2 1921.54 1481.76 Q1923.76 1482.32 1926.24 1482.32 Q1930.24 1482.32 1932.58 1480.21 Q1934.92 1478.1 1934.92 1474.49 Q1934.92 1470.88 1932.58 1468.77 Q1930.24 1466.67 1926.24 1466.67 Q1924.36 1466.67 1922.49 1467.08 Q1920.64 1467.5 1918.69 1468.38 L1918.69 1451.02 Z" fill="#000000" fill-rule="evenodd" fill-opacity="1" /><path clip-path="url(#clip160)" d="M1969.76 1459.65 L1960.38 1472.27 L1970.24 1485.58 L1965.22 1485.58 L1957.67 1475.39 L1950.13 1485.58 L1945.1 1485.58 L1955.17 1472.02 L1945.96 1459.65 L1950.98 1459.65 L1957.86 1468.89 L1964.73 1459.65 L1969.76 1459.65 Z" fill="#000000" fill-rule="evenodd" fill-opacity="1" /><path clip-path="url(#clip160)" d="M1977.67 1481.64 L1985.31 1481.64 L1985.31 1455.28 L1977 1456.95 L1977 1452.69 L1985.26 1451.02 L1989.94 1451.02 L1989.94 1481.64 L1997.58 1481.64 L1997.58 1485.58 L1977.67 1485.58 L1977.67 1481.64 Z" fill="#000000" fill-rule="evenodd" fill-opacity="1" /><path clip-path="url(#clip160)" d="M2017.02 1454.1 Q2013.41 1454.1 2011.58 1457.66 Q2009.78 1461.2 2009.78 1468.33 Q2009.78 1475.44 2011.58 1479.01 Q2013.41 1482.55 2017.02 1482.55 Q2020.66 1482.55 2022.46 1479.01 Q2024.29 1475.44 2024.29 1468.33 Q2024.29 1461.2 2022.46 1457.66 Q2020.66 1454.1 2017.02 1454.1 M2017.02 1450.39 Q2022.83 1450.39 2025.89 1455 Q2028.97 1459.58 2028.97 1468.33 Q2028.97 1477.06 2025.89 1481.67 Q2022.83 1486.25 2017.02 1486.25 Q2011.21 1486.25 2008.14 1481.67 Q2005.08 1477.06 2005.08 1468.33 Q2005.08 1459.58 2008.14 1455 Q2011.21 1450.39 2017.02 1450.39 Z" fill="#000000" fill-rule="evenodd" fill-opacity="1" /><path clip-path="url(#clip160)" d="M2042.19 1459.35 Q2040.15 1459.35 2038.97 1460.56 Q2037.79 1461.78 2037.79 1463.89 Q2037.79 1465.97 2038.97 1467.18 Q2040.15 1468.4 2042.19 1468.4 Q2044.2 1468.4 2045.38 1467.18 Q2046.56 1465.97 2046.56 1463.89 Q2046.56 1461.78 2045.38 1460.56 Q2044.2 1459.35 2042.19 1459.35 M2048.16 1451.16 L2048.16 1453.54 Q2047.02 1453.08 2045.87 1452.85 Q2044.71 1452.59 2043.57 1452.59 Q2040.61 1452.59 2039.04 1454.33 Q2037.46 1456.09 2037.23 1459.63 Q2038.11 1458.5 2039.43 1457.89 Q2040.77 1457.29 2042.35 1457.29 Q2045.7 1457.29 2047.65 1459.05 Q2049.59 1460.83 2049.59 1463.89 Q2049.59 1466.83 2047.56 1468.66 Q2045.54 1470.46 2042.19 1470.46 Q2038.32 1470.46 2036.28 1467.89 Q2034.25 1465.33 2034.25 1460.42 Q2034.25 1455.83 2036.75 1453.13 Q2039.25 1450.39 2043.46 1450.39 Q2044.59 1450.39 2045.75 1450.58 Q2046.91 1450.79 2048.16 1451.16 Z" fill="#000000" fill-rule="evenodd" fill-opacity="1" /><path clip-path="url(#clip160)" d="M2188.7 1481.64 L2196.34 1481.64 L2196.34 1455.28 L2188.03 1456.95 L2188.03 1452.69 L2196.3 1451.02 L2200.97 1451.02 L2200.97 1481.64 L2208.61 1481.64 L2208.61 1485.58 L2188.7 1485.58 L2188.7 1481.64 Z" fill="#000000" fill-rule="evenodd" fill-opacity="1" /><path clip-path="url(#clip160)" d="M2218.06 1479.7 L2222.94 1479.7 L2222.94 1485.58 L2218.06 1485.58 L2218.06 1479.7 Z" fill="#000000" fill-rule="evenodd" fill-opacity="1" /><path clip-path="url(#clip160)" d="M2233.17 1451.02 L2251.53 1451.02 L2251.53 1454.96 L2237.45 1454.96 L2237.45 1463.43 Q2238.47 1463.08 2239.49 1462.92 Q2240.51 1462.73 2241.53 1462.73 Q2247.31 1462.73 2250.69 1465.9 Q2254.07 1469.08 2254.07 1474.49 Q2254.07 1480.07 2250.6 1483.17 Q2247.13 1486.25 2240.81 1486.25 Q2238.63 1486.25 2236.37 1485.88 Q2234.12 1485.51 2231.71 1484.77 L2231.71 1480.07 Q2233.8 1481.2 2236.02 1481.76 Q2238.24 1482.32 2240.72 1482.32 Q2244.72 1482.32 2247.06 1480.21 Q2249.4 1478.1 2249.4 1474.49 Q2249.4 1470.88 2247.06 1468.77 Q2244.72 1466.67 2240.72 1466.67 Q2238.84 1466.67 2236.97 1467.08 Q2235.12 1467.5 2233.17 1468.38 L2233.17 1451.02 Z" fill="#000000" fill-rule="evenodd" fill-opacity="1" /><path clip-path="url(#clip160)" d="M2273.29 1454.1 Q2269.68 1454.1 2267.85 1457.66 Q2266.04 1461.2 2266.04 1468.33 Q2266.04 1475.44 2267.85 1479.01 Q2269.68 1482.55 2273.29 1482.55 Q2276.92 1482.55 2278.73 1479.01 Q2280.56 1475.44 2280.56 1468.33 Q2280.56 1461.2 2278.73 1457.66 Q2276.92 1454.1 2273.29 1454.1 M2273.29 1450.39 Q2279.1 1450.39 2282.15 1455 Q2285.23 1459.58 2285.23 1468.33 Q2285.23 1477.06 2282.15 1481.67 Q2279.1 1486.25 2273.29 1486.25 Q2267.48 1486.25 2264.4 1481.67 Q2261.34 1477.06 2261.34 1468.33 Q2261.34 1459.58 2264.4 1455 Q2267.48 1450.39 2273.29 1450.39 Z" fill="#000000" fill-rule="evenodd" fill-opacity="1" /><path clip-path="url(#clip160)" d="M2314.4 1459.65 L2305.02 1472.27 L2314.88 1485.58 L2309.86 1485.58 L2302.31 1475.39 L2294.77 1485.58 L2289.75 1485.58 L2299.81 1472.02 L2290.6 1459.65 L2295.62 1459.65 L2302.5 1468.89 L2309.37 1459.65 L2314.4 1459.65 Z" fill="#000000" fill-rule="evenodd" fill-opacity="1" /><path clip-path="url(#clip160)" d="M2322.31 1481.64 L2329.95 1481.64 L2329.95 1455.28 L2321.64 1456.95 L2321.64 1452.69 L2329.91 1451.02 L2334.58 1451.02 L2334.58 1481.64 L2342.22 1481.64 L2342.22 1485.58 L2322.31 1485.58 L2322.31 1481.64 Z" fill="#000000" fill-rule="evenodd" fill-opacity="1" /><path clip-path="url(#clip160)" d="M2361.67 1454.1 Q2358.05 1454.1 2356.23 1457.66 Q2354.42 1461.2 2354.42 1468.33 Q2354.42 1475.44 2356.23 1479.01 Q2358.05 1482.55 2361.67 1482.55 Q2365.3 1482.55 2367.11 1479.01 Q2368.93 1475.44 2368.93 1468.33 Q2368.93 1461.2 2367.11 1457.66 Q2365.3 1454.1 2361.67 1454.1 M2361.67 1450.39 Q2367.48 1450.39 2370.53 1455 Q2373.61 1459.58 2373.61 1468.33 Q2373.61 1477.06 2370.53 1481.67 Q2367.48 1486.25 2361.67 1486.25 Q2355.86 1486.25 2352.78 1481.67 Q2349.72 1477.06 2349.72 1468.33 Q2349.72 1459.58 2352.78 1455 Q2355.86 1450.39 2361.67 1450.39 Z" fill="#000000" fill-rule="evenodd" fill-opacity="1" /><path clip-path="url(#clip160)" d="M2386.83 1459.35 Q2384.79 1459.35 2383.61 1460.56 Q2382.43 1461.78 2382.43 1463.89 Q2382.43 1465.97 2383.61 1467.18 Q2384.79 1468.4 2386.83 1468.4 Q2388.84 1468.4 2390.02 1467.18 Q2391.2 1465.97 2391.2 1463.89 Q2391.2 1461.78 2390.02 1460.56 Q2388.84 1459.35 2386.83 1459.35 M2392.8 1451.16 L2392.8 1453.54 Q2391.67 1453.08 2390.51 1452.85 Q2389.35 1452.59 2388.22 1452.59 Q2385.25 1452.59 2383.68 1454.33 Q2382.11 1456.09 2381.87 1459.63 Q2382.75 1458.5 2384.07 1457.89 Q2385.42 1457.29 2386.99 1457.29 Q2390.35 1457.29 2392.29 1459.05 Q2394.24 1460.83 2394.24 1463.89 Q2394.24 1466.83 2392.2 1468.66 Q2390.18 1470.46 2386.83 1470.46 Q2382.96 1470.46 2380.93 1467.89 Q2378.89 1465.33 2378.89 1460.42 Q2378.89 1455.83 2381.39 1453.13 Q2383.89 1450.39 2388.1 1450.39 Q2389.24 1450.39 2390.39 1450.58 Q2391.55 1450.79 2392.8 1451.16 Z" fill="#000000" fill-rule="evenodd" fill-opacity="1" /><path clip-path="url(#clip160)" d="M1113.66 1520.52 L1120.09 1520.52 L1120.09 1568.04 L1113.66 1568.04 L1113.66 1520.52 Z" fill="#000000" fill-rule="evenodd" fill-opacity="1" /><path clip-path="url(#clip160)" d="M1138.43 1522.27 L1138.43 1532.4 L1150.49 1532.4 L1150.49 1536.95 L1138.43 1536.95 L1138.43 1556.3 Q1138.43 1560.66 1139.6 1561.9 Q1140.81 1563.14 1144.47 1563.14 L1150.49 1563.14 L1150.49 1568.04 L1144.47 1568.04 Q1137.69 1568.04 1135.12 1565.53 Q1132.54 1562.98 1132.54 1556.3 L1132.54 1536.95 L1128.24 1536.95 L1128.24 1532.4 L1132.54 1532.4 L1132.54 1522.27 L1138.43 1522.27 Z" fill="#000000" fill-rule="evenodd" fill-opacity="1" /><path clip-path="url(#clip160)" d="M1188.68 1548.76 L1188.68 1551.62 L1161.76 1551.62 Q1162.14 1557.67 1165.38 1560.85 Q1168.66 1564 1174.49 1564 Q1177.86 1564 1181.01 1563.17 Q1184.2 1562.35 1187.31 1560.69 L1187.31 1566.23 Q1184.16 1567.57 1180.85 1568.27 Q1177.54 1568.97 1174.14 1568.97 Q1165.61 1568.97 1160.61 1564 Q1155.64 1559.04 1155.64 1550.57 Q1155.64 1541.82 1160.36 1536.69 Q1165.1 1531.54 1173.12 1531.54 Q1180.31 1531.54 1184.48 1536.18 Q1188.68 1540.8 1188.68 1548.76 M1182.83 1547.04 Q1182.76 1542.23 1180.12 1539.37 Q1177.51 1536.5 1173.18 1536.5 Q1168.28 1536.5 1165.32 1539.27 Q1162.39 1542.04 1161.95 1547.07 L1182.83 1547.04 Z" fill="#000000" fill-rule="evenodd" fill-opacity="1" /><path clip-path="url(#clip160)" d="M1218.95 1537.87 Q1217.97 1537.3 1216.79 1537.04 Q1215.64 1536.76 1214.24 1536.76 Q1209.28 1536.76 1206.6 1540 Q1203.96 1543.22 1203.96 1549.27 L1203.96 1568.04 L1198.07 1568.04 L1198.07 1532.4 L1203.96 1532.4 L1203.96 1537.93 Q1205.81 1534.69 1208.77 1533.13 Q1211.73 1531.54 1215.96 1531.54 Q1216.56 1531.54 1217.3 1531.63 Q1218.03 1531.7 1218.92 1531.85 L1218.95 1537.87 Z" fill="#000000" fill-rule="evenodd" fill-opacity="1" /><path clip-path="url(#clip160)" d="M1241.3 1550.12 Q1234.2 1550.12 1231.46 1551.75 Q1228.72 1553.37 1228.72 1557.29 Q1228.72 1560.4 1230.76 1562.25 Q1232.83 1564.07 1236.36 1564.07 Q1241.23 1564.07 1244.16 1560.63 Q1247.12 1557.16 1247.12 1551.43 L1247.12 1550.12 L1241.3 1550.12 M1252.98 1547.71 L1252.98 1568.04 L1247.12 1568.04 L1247.12 1562.63 Q1245.11 1565.88 1242.12 1567.44 Q1239.13 1568.97 1234.8 1568.97 Q1229.33 1568.97 1226.08 1565.91 Q1222.87 1562.82 1222.87 1557.67 Q1222.87 1551.65 1226.88 1548.6 Q1230.92 1545.54 1238.91 1545.54 L1247.12 1545.54 L1247.12 1544.97 Q1247.12 1540.93 1244.45 1538.73 Q1241.8 1536.5 1237 1536.5 Q1233.94 1536.5 1231.05 1537.23 Q1228.15 1537.97 1225.48 1539.43 L1225.48 1534.02 Q1228.69 1532.78 1231.72 1532.17 Q1234.74 1531.54 1237.6 1531.54 Q1245.34 1531.54 1249.16 1535.55 Q1252.98 1539.56 1252.98 1547.71 Z" fill="#000000" fill-rule="evenodd" fill-opacity="1" /><path clip-path="url(#clip160)" d="M1270.83 1522.27 L1270.83 1532.4 L1282.9 1532.4 L1282.9 1536.95 L1270.83 1536.95 L1270.83 1556.3 Q1270.83 1560.66 1272.01 1561.9 Q1273.22 1563.14 1276.88 1563.14 L1282.9 1563.14 L1282.9 1568.04 L1276.88 1568.04 Q1270.1 1568.04 1267.52 1565.53 Q1264.94 1562.98 1264.94 1556.3 L1264.94 1536.95 L1260.65 1536.95 L1260.65 1532.4 L1264.94 1532.4 L1264.94 1522.27 L1270.83 1522.27 Z" fill="#000000" fill-rule="evenodd" fill-opacity="1" /><path clip-path="url(#clip160)" d="M1290.6 1532.4 L1296.45 1532.4 L1296.45 1568.04 L1290.6 1568.04 L1290.6 1532.4 M1290.6 1518.52 L1296.45 1518.52 L1296.45 1525.93 L1290.6 1525.93 L1290.6 1518.52 Z" fill="#000000" fill-rule="evenodd" fill-opacity="1" /><path clip-path="url(#clip160)" d="M1322.52 1536.5 Q1317.81 1536.5 1315.07 1540.19 Q1312.34 1543.85 1312.34 1550.25 Q1312.34 1556.65 1315.04 1560.34 Q1317.78 1564 1322.52 1564 Q1327.2 1564 1329.94 1560.31 Q1332.68 1556.62 1332.68 1550.25 Q1332.68 1543.92 1329.94 1540.23 Q1327.2 1536.5 1322.52 1536.5 M1322.52 1531.54 Q1330.16 1531.54 1334.52 1536.5 Q1338.88 1541.47 1338.88 1550.25 Q1338.88 1559 1334.52 1564 Q1330.16 1568.97 1322.52 1568.97 Q1314.85 1568.97 1310.49 1564 Q1306.16 1559 1306.16 1550.25 Q1306.16 1541.47 1310.49 1536.5 Q1314.85 1531.54 1322.52 1531.54 Z" fill="#000000" fill-rule="evenodd" fill-opacity="1" /><path clip-path="url(#clip160)" d="M1378.22 1546.53 L1378.22 1568.04 L1372.37 1568.04 L1372.37 1546.72 Q1372.37 1541.66 1370.39 1539.14 Q1368.42 1536.63 1364.47 1536.63 Q1359.73 1536.63 1356.99 1539.65 Q1354.25 1542.68 1354.25 1547.9 L1354.25 1568.04 L1348.37 1568.04 L1348.37 1532.4 L1354.25 1532.4 L1354.25 1537.93 Q1356.36 1534.72 1359.19 1533.13 Q1362.05 1531.54 1365.78 1531.54 Q1371.92 1531.54 1375.07 1535.36 Q1378.22 1539.14 1378.22 1546.53 Z" fill="#000000" fill-rule="evenodd" fill-opacity="1" /><path clip-path="url(#clip160)" d="M1412.63 1533.45 L1412.63 1538.98 Q1410.15 1537.71 1407.47 1537.07 Q1404.8 1536.44 1401.93 1536.44 Q1397.57 1536.44 1395.38 1537.77 Q1393.21 1539.11 1393.21 1541.79 Q1393.21 1543.82 1394.77 1545 Q1396.33 1546.15 1401.04 1547.2 L1403.05 1547.64 Q1409.29 1548.98 1411.9 1551.43 Q1414.54 1553.85 1414.54 1558.21 Q1414.54 1563.17 1410.59 1566.07 Q1406.68 1568.97 1399.8 1568.97 Q1396.94 1568.97 1393.82 1568.39 Q1390.73 1567.85 1387.29 1566.74 L1387.29 1560.69 Q1390.54 1562.38 1393.69 1563.24 Q1396.84 1564.07 1399.93 1564.07 Q1404.07 1564.07 1406.29 1562.66 Q1408.52 1561.23 1408.52 1558.65 Q1408.52 1556.27 1406.9 1554.99 Q1405.31 1553.72 1399.87 1552.54 L1397.83 1552.07 Q1392.39 1550.92 1389.97 1548.56 Q1387.55 1546.18 1387.55 1542.04 Q1387.55 1537.01 1391.11 1534.27 Q1394.68 1531.54 1401.23 1531.54 Q1404.48 1531.54 1407.34 1532.01 Q1410.21 1532.49 1412.63 1533.45 Z" fill="#000000" fill-rule="evenodd" fill-opacity="1" /><polyline clip-path="url(#clip162)" style="stroke:#000000; stroke-linecap:round; stroke-linejoin:round; stroke-width:2; stroke-opacity:0.1; fill:none" points="
  175.445,1368.41 2352.76,1368.41 
  "/>
<polyline clip-path="url(#clip162)" style="stroke:#000000; stroke-linecap:round; stroke-linejoin:round; stroke-width:2; stroke-opacity:0.1; fill:none" points="
  175.445,1106.66 2352.76,1106.66 
  "/>
<polyline clip-path="url(#clip162)" style="stroke:#000000; stroke-linecap:round; stroke-linejoin:round; stroke-width:2; stroke-opacity:0.1; fill:none" points="
  175.445,844.91 2352.76,844.91 
  "/>
<polyline clip-path="url(#clip162)" style="stroke:#000000; stroke-linecap:round; stroke-linejoin:round; stroke-width:2; stroke-opacity:0.1; fill:none" points="
  175.445,583.161 2352.76,583.161 
  "/>
<polyline clip-path="url(#clip162)" style="stroke:#000000; stroke-linecap:round; stroke-linejoin:round; stroke-width:2; stroke-opacity:0.1; fill:none" points="
  175.445,321.412 2352.76,321.412 
  "/>
<polyline clip-path="url(#clip162)" style="stroke:#000000; stroke-linecap:round; stroke-linejoin:round; stroke-width:2; stroke-opacity:0.1; fill:none" points="
  175.445,59.6627 2352.76,59.6627 
  "/>
<polyline clip-path="url(#clip160)" style="stroke:#000000; stroke-linecap:round; stroke-linejoin:round; stroke-width:4; stroke-opacity:1; fill:none" points="
  175.445,1423.18 175.445,47.2441 
  "/>
<polyline clip-path="url(#clip160)" style="stroke:#000000; stroke-linecap:round; stroke-linejoin:round; stroke-width:4; stroke-opacity:1; fill:none" points="
  175.445,1368.41 194.343,1368.41 
  "/>
<polyline clip-path="url(#clip160)" style="stroke:#000000; stroke-linecap:round; stroke-linejoin:round; stroke-width:4; stroke-opacity:1; fill:none" points="
  175.445,1106.66 194.343,1106.66 
  "/>
<polyline clip-path="url(#clip160)" style="stroke:#000000; stroke-linecap:round; stroke-linejoin:round; stroke-width:4; stroke-opacity:1; fill:none" points="
  175.445,844.91 194.343,844.91 
  "/>
<polyline clip-path="url(#clip160)" style="stroke:#000000; stroke-linecap:round; stroke-linejoin:round; stroke-width:4; stroke-opacity:1; fill:none" points="
  175.445,583.161 194.343,583.161 
  "/>
<polyline clip-path="url(#clip160)" style="stroke:#000000; stroke-linecap:round; stroke-linejoin:round; stroke-width:4; stroke-opacity:1; fill:none" points="
  175.445,321.412 194.343,321.412 
  "/>
<polyline clip-path="url(#clip160)" style="stroke:#000000; stroke-linecap:round; stroke-linejoin:round; stroke-width:4; stroke-opacity:1; fill:none" points="
  175.445,59.6627 194.343,59.6627 
  "/>
<path clip-path="url(#clip160)" d="M132.316 1367.05 Q135.672 1367.77 137.547 1370.04 Q139.445 1372.31 139.445 1375.64 Q139.445 1380.76 135.927 1383.56 Q132.408 1386.36 125.927 1386.36 Q123.751 1386.36 121.436 1385.92 Q119.144 1385.5 116.691 1384.65 L116.691 1380.13 Q118.635 1381.27 120.95 1381.85 Q123.265 1382.42 125.788 1382.42 Q130.186 1382.42 132.478 1380.69 Q134.792 1378.95 134.792 1375.64 Q134.792 1372.59 132.64 1370.87 Q130.51 1369.14 126.691 1369.14 L122.663 1369.14 L122.663 1365.29 L126.876 1365.29 Q130.325 1365.29 132.154 1363.93 Q133.982 1362.54 133.982 1359.95 Q133.982 1357.29 132.084 1355.87 Q130.209 1354.44 126.691 1354.44 Q124.769 1354.44 122.57 1354.85 Q120.371 1355.27 117.732 1356.15 L117.732 1351.98 Q120.394 1351.24 122.709 1350.87 Q125.047 1350.5 127.107 1350.5 Q132.431 1350.5 135.533 1352.93 Q138.635 1355.34 138.635 1359.46 Q138.635 1362.33 136.992 1364.32 Q135.348 1366.29 132.316 1367.05 Z" fill="#000000" fill-rule="evenodd" fill-opacity="1" /><path clip-path="url(#clip160)" d="M129.862 1093.45 L118.056 1111.9 L129.862 1111.9 L129.862 1093.45 M128.635 1089.38 L134.515 1089.38 L134.515 1111.9 L139.445 1111.9 L139.445 1115.79 L134.515 1115.79 L134.515 1123.94 L129.862 1123.94 L129.862 1115.79 L114.26 1115.79 L114.26 1111.28 L128.635 1089.38 Z" fill="#000000" fill-rule="evenodd" fill-opacity="1" /><path clip-path="url(#clip160)" d="M118.543 827.63 L136.899 827.63 L136.899 831.565 L122.825 831.565 L122.825 840.037 Q123.843 839.69 124.862 839.528 Q125.88 839.343 126.899 839.343 Q132.686 839.343 136.066 842.514 Q139.445 845.685 139.445 851.102 Q139.445 856.68 135.973 859.782 Q132.501 862.861 126.181 862.861 Q124.005 862.861 121.737 862.491 Q119.492 862.12 117.084 861.38 L117.084 856.68 Q119.168 857.815 121.39 858.37 Q123.612 858.926 126.089 858.926 Q130.093 858.926 132.431 856.819 Q134.769 854.713 134.769 851.102 Q134.769 847.491 132.431 845.384 Q130.093 843.278 126.089 843.278 Q124.214 843.278 122.339 843.694 Q120.487 844.111 118.543 844.991 L118.543 827.63 Z" fill="#000000" fill-rule="evenodd" fill-opacity="1" /><path clip-path="url(#clip160)" d="M127.917 581.297 Q124.769 581.297 122.918 583.45 Q121.089 585.603 121.089 589.353 Q121.089 593.08 122.918 595.256 Q124.769 597.408 127.917 597.408 Q131.066 597.408 132.894 595.256 Q134.746 593.08 134.746 589.353 Q134.746 585.603 132.894 583.45 Q131.066 581.297 127.917 581.297 M137.2 566.645 L137.2 570.904 Q135.441 570.071 133.635 569.631 Q131.853 569.191 130.093 569.191 Q125.464 569.191 123.01 572.316 Q120.58 575.441 120.232 581.76 Q121.598 579.746 123.658 578.682 Q125.718 577.594 128.195 577.594 Q133.404 577.594 136.413 580.765 Q139.445 583.913 139.445 589.353 Q139.445 594.677 136.297 597.894 Q133.149 601.112 127.917 601.112 Q121.922 601.112 118.751 596.529 Q115.58 591.922 115.58 583.195 Q115.58 575.001 119.468 570.14 Q123.357 565.256 129.908 565.256 Q131.667 565.256 133.45 565.603 Q135.255 565.95 137.2 566.645 Z" fill="#000000" fill-rule="evenodd" fill-opacity="1" /><path clip-path="url(#clip160)" d="M117.223 304.132 L139.445 304.132 L139.445 306.122 L126.899 338.692 L122.015 338.692 L133.82 308.067 L117.223 308.067 L117.223 304.132 Z" fill="#000000" fill-rule="evenodd" fill-opacity="1" /><path clip-path="url(#clip160)" d="M127.593 60.5308 Q124.26 60.5308 122.339 62.3131 Q120.441 64.0955 120.441 67.2205 Q120.441 70.3455 122.339 72.1279 Q124.26 73.9103 127.593 73.9103 Q130.927 73.9103 132.848 72.1279 Q134.769 70.3224 134.769 67.2205 Q134.769 64.0955 132.848 62.3131 Q130.95 60.5308 127.593 60.5308 M122.918 58.54 Q119.908 57.7993 118.218 55.7391 Q116.552 53.6789 116.552 50.716 Q116.552 46.5725 119.492 44.1651 Q122.455 41.7577 127.593 41.7577 Q132.755 41.7577 135.695 44.1651 Q138.635 46.5725 138.635 50.716 Q138.635 53.6789 136.945 55.7391 Q135.279 57.7993 132.292 58.54 Q135.672 59.3271 137.547 61.6187 Q139.445 63.9104 139.445 67.2205 Q139.445 72.2437 136.367 74.9288 Q133.311 77.614 127.593 77.614 Q121.876 77.614 118.797 74.9288 Q115.742 72.2437 115.742 67.2205 Q115.742 63.9104 117.64 61.6187 Q119.538 59.3271 122.918 58.54 M121.205 51.1558 Q121.205 53.841 122.871 55.3456 Q124.561 56.8502 127.593 56.8502 Q130.603 56.8502 132.292 55.3456 Q134.005 53.841 134.005 51.1558 Q134.005 48.4706 132.292 46.966 Q130.603 45.4614 127.593 45.4614 Q124.561 45.4614 122.871 46.966 Q121.205 48.4706 121.205 51.1558 Z" fill="#000000" fill-rule="evenodd" fill-opacity="1" /><path clip-path="url(#clip160)" d="M22.818 1132.45 L46.4666 1141.17 L46.4666 1123.7 L22.818 1132.45 M16.4842 1136.08 L16.4842 1128.79 L64.0042 1110.68 L64.0042 1117.36 L51.8138 1121.69 L51.8138 1143.11 L64.0042 1147.44 L64.0042 1154.22 L16.4842 1136.08 Z" fill="#000000" fill-rule="evenodd" fill-opacity="1" /><path clip-path="url(#clip160)" d="M28.3562 1112.01 L28.3562 1105.81 L58.275 1094.67 L28.3562 1083.53 L28.3562 1077.32 L64.0042 1090.69 L64.0042 1098.65 L28.3562 1112.01 Z" fill="#000000" fill-rule="evenodd" fill-opacity="1" /><path clip-path="url(#clip160)" d="M44.7161 1038.74 L47.5806 1038.74 L47.5806 1065.67 Q53.6281 1065.29 56.8109 1062.04 Q59.9619 1058.76 59.9619 1052.94 Q59.9619 1049.57 59.1344 1046.42 Q58.3069 1043.23 56.6518 1040.11 L62.1899 1040.11 Q63.5267 1043.26 64.227 1046.57 Q64.9272 1049.88 64.9272 1053.29 Q64.9272 1061.82 59.9619 1066.82 Q54.9967 1071.78 46.5303 1071.78 Q37.7774 1071.78 32.6531 1067.07 Q27.4968 1062.33 27.4968 1054.31 Q27.4968 1047.12 32.1438 1042.95 Q36.7589 1038.74 44.7161 1038.74 M42.9973 1044.6 Q38.1912 1044.66 35.3266 1047.31 Q32.4621 1049.92 32.4621 1054.25 Q32.4621 1059.15 35.2312 1062.11 Q38.0002 1065.04 43.0292 1065.48 L42.9973 1044.6 Z" fill="#000000" fill-rule="evenodd" fill-opacity="1" /><path clip-path="url(#clip160)" d="M33.8307 1008.48 Q33.2578 1009.46 33.0032 1010.64 Q32.7167 1011.79 32.7167 1013.19 Q32.7167 1018.15 35.9632 1020.83 Q39.1779 1023.47 45.2253 1023.47 L64.0042 1023.47 L64.0042 1029.36 L28.3562 1029.36 L28.3562 1023.47 L33.8944 1023.47 Q30.6479 1021.62 29.0883 1018.66 Q27.4968 1015.7 27.4968 1011.47 Q27.4968 1010.86 27.5923 1010.13 Q27.656 1009.4 27.8151 1008.51 L33.8307 1008.48 Z" fill="#000000" fill-rule="evenodd" fill-opacity="1" /><path clip-path="url(#clip160)" d="M46.0847 986.132 Q46.0847 993.23 47.7079 995.967 Q49.3312 998.704 53.2461 998.704 Q56.3653 998.704 58.2114 996.667 Q60.0256 994.599 60.0256 991.066 Q60.0256 986.196 56.5881 983.268 Q53.1188 980.308 47.3897 980.308 L46.0847 980.308 L46.0847 986.132 M43.6657 974.451 L64.0042 974.451 L64.0042 980.308 L58.5933 980.308 Q61.8398 982.313 63.3994 985.305 Q64.9272 988.297 64.9272 992.625 Q64.9272 998.1 61.8716 1001.35 Q58.7843 1004.56 53.6281 1004.56 Q47.6125 1004.56 44.5569 1000.55 Q41.5014 996.508 41.5014 988.519 L41.5014 980.308 L40.9285 980.308 Q36.8862 980.308 34.6901 982.981 Q32.4621 985.623 32.4621 990.429 Q32.4621 993.485 33.1941 996.381 Q33.9262 999.277 35.3903 1001.95 L29.9795 1001.95 Q28.7381 998.736 28.1334 995.713 Q27.4968 992.689 27.4968 989.824 Q27.4968 982.09 31.5072 978.271 Q35.5176 974.451 43.6657 974.451 Z" fill="#000000" fill-rule="evenodd" fill-opacity="1" /><path clip-path="url(#clip160)" d="M45.7664 938.93 Q39.4007 938.93 35.8996 941.572 Q32.3984 944.182 32.3984 948.925 Q32.3984 953.635 35.8996 956.277 Q39.4007 958.887 45.7664 958.887 Q52.1003 958.887 55.6014 956.277 Q59.1026 953.635 59.1026 948.925 Q59.1026 944.182 55.6014 941.572 Q52.1003 938.93 45.7664 938.93 M59.58 933.074 Q68.683 933.074 73.1071 937.116 Q77.5631 941.158 77.5631 949.498 Q77.5631 952.585 77.0857 955.322 Q76.6401 958.059 75.6852 960.638 L69.9879 960.638 Q71.3884 958.059 72.0568 955.545 Q72.7252 953.031 72.7252 950.421 Q72.7252 944.66 69.7015 941.795 Q66.7096 938.93 60.6303 938.93 L57.7339 938.93 Q60.885 940.745 62.4446 943.577 Q64.0042 946.41 64.0042 950.357 Q64.0042 956.914 59.0071 960.924 Q54.01 964.934 45.7664 964.934 Q37.491 964.934 32.4939 960.924 Q27.4968 956.914 27.4968 950.357 Q27.4968 946.41 29.0564 943.577 Q30.616 940.745 33.7671 938.93 L28.3562 938.93 L28.3562 933.074 L59.58 933.074 Z" fill="#000000" fill-rule="evenodd" fill-opacity="1" /><path clip-path="url(#clip160)" d="M44.7161 890.519 L47.5806 890.519 L47.5806 917.446 Q53.6281 917.064 56.8109 913.818 Q59.9619 910.539 59.9619 904.715 Q59.9619 901.341 59.1344 898.19 Q58.3069 895.007 56.6518 891.888 L62.1899 891.888 Q63.5267 895.039 64.227 898.349 Q64.9272 901.659 64.9272 905.065 Q64.9272 913.595 59.9619 918.592 Q54.9967 923.557 46.5303 923.557 Q37.7774 923.557 32.6531 918.847 Q27.4968 914.104 27.4968 906.083 Q27.4968 898.89 32.1438 894.721 Q36.7589 890.519 44.7161 890.519 M42.9973 896.376 Q38.1912 896.439 35.3266 899.081 Q32.4621 901.691 32.4621 906.02 Q32.4621 910.921 35.2312 913.881 Q38.0002 916.81 43.0292 917.255 L42.9973 896.376 Z" fill="#000000" fill-rule="evenodd" fill-opacity="1" /><path clip-path="url(#clip160)" d="M20.1444 824.348 L26.9239 824.348 Q23.9002 827.594 22.4043 831.286 Q20.9083 834.947 20.9083 839.084 Q20.9083 847.232 25.9054 851.561 Q30.8707 855.89 40.2919 855.89 Q49.6813 855.89 54.6784 851.561 Q59.6436 847.232 59.6436 839.084 Q59.6436 834.947 58.1477 831.286 Q56.6518 827.594 53.6281 824.348 L60.3439 824.348 Q62.6355 827.722 63.7814 831.509 Q64.9272 835.265 64.9272 839.466 Q64.9272 850.256 58.3387 856.463 Q51.7183 862.669 40.2919 862.669 Q28.8336 862.669 22.2451 856.463 Q15.6248 850.256 15.6248 839.466 Q15.6248 835.201 16.7706 831.446 Q17.8846 827.658 20.1444 824.348 Z" fill="#000000" fill-rule="evenodd" fill-opacity="1" /><path clip-path="url(#clip160)" d="M32.4621 800.858 Q32.4621 805.569 36.1542 808.306 Q39.8145 811.043 46.212 811.043 Q52.6095 811.043 56.3017 808.338 Q59.9619 805.601 59.9619 800.858 Q59.9619 796.18 56.2698 793.442 Q52.5777 790.705 46.212 790.705 Q39.8781 790.705 36.186 793.442 Q32.4621 796.18 32.4621 800.858 M27.4968 800.858 Q27.4968 793.219 32.4621 788.859 Q37.4273 784.498 46.212 784.498 Q54.9649 784.498 59.9619 788.859 Q64.9272 793.219 64.9272 800.858 Q64.9272 808.529 59.9619 812.89 Q54.9649 817.218 46.212 817.218 Q37.4273 817.218 32.4621 812.89 Q27.4968 808.529 27.4968 800.858 Z" fill="#000000" fill-rule="evenodd" fill-opacity="1" /><path clip-path="url(#clip160)" d="M35.1993 747.036 Q31.2526 744.84 29.3747 741.785 Q27.4968 738.729 27.4968 734.591 Q27.4968 729.021 31.4117 725.998 Q35.2948 722.974 42.4881 722.974 L64.0042 722.974 L64.0042 728.862 L42.679 728.862 Q37.5546 728.862 35.072 730.676 Q32.5894 732.491 32.5894 736.215 Q32.5894 740.766 35.6131 743.408 Q38.6368 746.05 43.8567 746.05 L64.0042 746.05 L64.0042 751.938 L42.679 751.938 Q37.5228 751.938 35.072 753.752 Q32.5894 755.566 32.5894 759.354 Q32.5894 763.842 35.6449 766.484 Q38.6686 769.125 43.8567 769.125 L64.0042 769.125 L64.0042 775.014 L28.3562 775.014 L28.3562 769.125 L33.8944 769.125 Q30.616 767.12 29.0564 764.319 Q27.4968 761.518 27.4968 757.667 Q27.4968 753.784 29.4702 751.078 Q31.4436 748.341 35.1993 747.036 Z" fill="#000000" fill-rule="evenodd" fill-opacity="1" /><path clip-path="url(#clip160)" d="M58.657 705.627 L77.5631 705.627 L77.5631 711.516 L28.3562 711.516 L28.3562 705.627 L33.7671 705.627 Q30.5842 703.781 29.0564 700.98 Q27.4968 698.148 27.4968 694.233 Q27.4968 687.74 32.6531 683.697 Q37.8093 679.623 46.212 679.623 Q54.6147 679.623 59.771 683.697 Q64.9272 687.74 64.9272 694.233 Q64.9272 698.148 63.3994 700.98 Q61.8398 703.781 58.657 705.627 M46.212 685.703 Q39.7508 685.703 36.0905 688.376 Q32.3984 691.018 32.3984 695.665 Q32.3984 700.312 36.0905 702.986 Q39.7508 705.627 46.212 705.627 Q52.6732 705.627 56.3653 702.986 Q60.0256 700.312 60.0256 695.665 Q60.0256 691.018 56.3653 688.376 Q52.6732 685.703 46.212 685.703 Z" fill="#000000" fill-rule="evenodd" fill-opacity="1" /><path clip-path="url(#clip160)" d="M14.479 669.916 L14.479 664.059 L64.0042 664.059 L64.0042 669.916 L14.479 669.916 Z" fill="#000000" fill-rule="evenodd" fill-opacity="1" /><path clip-path="url(#clip160)" d="M44.7161 621.314 L47.5806 621.314 L47.5806 648.241 Q53.6281 647.859 56.8109 644.612 Q59.9619 641.334 59.9619 635.509 Q59.9619 632.135 59.1344 628.984 Q58.3069 625.801 56.6518 622.682 L62.1899 622.682 Q63.5267 625.833 64.227 629.143 Q64.9272 632.454 64.9272 635.859 Q64.9272 644.389 59.9619 649.386 Q54.9967 654.352 46.5303 654.352 Q37.7774 654.352 32.6531 649.641 Q27.4968 644.899 27.4968 636.878 Q27.4968 629.684 32.1438 625.515 Q36.7589 621.314 44.7161 621.314 M42.9973 627.17 Q38.1912 627.234 35.3266 629.875 Q32.4621 632.485 32.4621 636.814 Q32.4621 641.716 35.2312 644.676 Q38.0002 647.604 43.0292 648.05 L42.9973 627.17 Z" fill="#000000" fill-rule="evenodd" fill-opacity="1" /><path clip-path="url(#clip160)" d="M18.2347 605.909 L28.3562 605.909 L28.3562 593.846 L32.9077 593.846 L32.9077 605.909 L52.2594 605.909 Q56.6199 605.909 57.8613 604.731 Q59.1026 603.521 59.1026 599.861 L59.1026 593.846 L64.0042 593.846 L64.0042 599.861 Q64.0042 606.641 61.4897 609.219 Q58.9434 611.797 52.2594 611.797 L32.9077 611.797 L32.9077 616.094 L28.3562 616.094 L28.3562 611.797 L18.2347 611.797 L18.2347 605.909 Z" fill="#000000" fill-rule="evenodd" fill-opacity="1" /><path clip-path="url(#clip160)" d="M28.3562 586.143 L28.3562 580.287 L64.0042 580.287 L64.0042 586.143 L28.3562 586.143 M14.479 586.143 L14.479 580.287 L21.895 580.287 L21.895 586.143 L14.479 586.143 Z" fill="#000000" fill-rule="evenodd" fill-opacity="1" /><path clip-path="url(#clip160)" d="M32.4621 554.219 Q32.4621 558.93 36.1542 561.667 Q39.8145 564.404 46.212 564.404 Q52.6095 564.404 56.3017 561.699 Q59.9619 558.961 59.9619 554.219 Q59.9619 549.54 56.2698 546.803 Q52.5777 544.066 46.212 544.066 Q39.8781 544.066 36.186 546.803 Q32.4621 549.54 32.4621 554.219 M27.4968 554.219 Q27.4968 546.58 32.4621 542.22 Q37.4273 537.859 46.212 537.859 Q54.9649 537.859 59.9619 542.22 Q64.9272 546.58 64.9272 554.219 Q64.9272 561.89 59.9619 566.25 Q54.9649 570.579 46.212 570.579 Q37.4273 570.579 32.4621 566.25 Q27.4968 561.89 27.4968 554.219 Z" fill="#000000" fill-rule="evenodd" fill-opacity="1" /><path clip-path="url(#clip160)" d="M42.4881 498.519 L64.0042 498.519 L64.0042 504.376 L42.679 504.376 Q37.6183 504.376 35.1038 506.349 Q32.5894 508.322 32.5894 512.269 Q32.5894 517.011 35.6131 519.749 Q38.6368 522.486 43.8567 522.486 L64.0042 522.486 L64.0042 528.374 L28.3562 528.374 L28.3562 522.486 L33.8944 522.486 Q30.6797 520.385 29.0883 517.553 Q27.4968 514.688 27.4968 510.964 Q27.4968 504.821 31.3163 501.67 Q35.1038 498.519 42.4881 498.519 Z" fill="#000000" fill-rule="evenodd" fill-opacity="1" /><path clip-path="url(#clip160)" d="M16.4842 472.452 L16.4842 432.252 L21.895 432.252 L21.895 449.121 L64.0042 449.121 L64.0042 455.582 L21.895 455.582 L21.895 472.452 L16.4842 472.452 Z" fill="#000000" fill-rule="evenodd" fill-opacity="1" /><path clip-path="url(#clip160)" d="M28.3562 428.305 L28.3562 422.449 L64.0042 422.449 L64.0042 428.305 L28.3562 428.305 M14.479 428.305 L14.479 422.449 L21.895 422.449 L21.895 428.305 L14.479 428.305 Z" fill="#000000" fill-rule="evenodd" fill-opacity="1" /><path clip-path="url(#clip160)" d="M35.1993 382.44 Q31.2526 380.244 29.3747 377.189 Q27.4968 374.133 27.4968 369.995 Q27.4968 364.425 31.4117 361.402 Q35.2948 358.378 42.4881 358.378 L64.0042 358.378 L64.0042 364.266 L42.679 364.266 Q37.5546 364.266 35.072 366.081 Q32.5894 367.895 32.5894 371.619 Q32.5894 376.17 35.6131 378.812 Q38.6368 381.454 43.8567 381.454 L64.0042 381.454 L64.0042 387.342 L42.679 387.342 Q37.5228 387.342 35.072 389.156 Q32.5894 390.97 32.5894 394.758 Q32.5894 399.246 35.6449 401.888 Q38.6686 404.529 43.8567 404.529 L64.0042 404.529 L64.0042 410.418 L28.3562 410.418 L28.3562 404.529 L33.8944 404.529 Q30.616 402.524 29.0564 399.723 Q27.4968 396.922 27.4968 393.071 Q27.4968 389.188 29.4702 386.483 Q31.4436 383.745 35.1993 382.44 Z" fill="#000000" fill-rule="evenodd" fill-opacity="1" /><path clip-path="url(#clip160)" d="M44.7161 316.205 L47.5806 316.205 L47.5806 343.132 Q53.6281 342.75 56.8109 339.504 Q59.9619 336.225 59.9619 330.401 Q59.9619 327.027 59.1344 323.876 Q58.3069 320.693 56.6518 317.574 L62.1899 317.574 Q63.5267 320.725 64.227 324.035 Q64.9272 327.345 64.9272 330.751 Q64.9272 339.281 59.9619 344.278 Q54.9967 349.243 46.5303 349.243 Q37.7774 349.243 32.6531 344.533 Q27.4968 339.79 27.4968 331.769 Q27.4968 324.576 32.1438 320.407 Q36.7589 316.205 44.7161 316.205 M42.9973 322.062 Q38.1912 322.125 35.3266 324.767 Q32.4621 327.377 32.4621 331.706 Q32.4621 336.607 35.2312 339.567 Q38.0002 342.496 43.0292 342.941 L42.9973 322.062 Z" fill="#000000" fill-rule="evenodd" fill-opacity="1" /><polyline clip-path="url(#clip162)" style="stroke:#009af9; stroke-linecap:round; stroke-linejoin:round; stroke-width:4; stroke-opacity:1; fill:none" points="
  333.567,818.735 347.353,854.725 361.138,249.249 374.924,113.271 388.71,86.1857 402.495,131.748 416.281,221.016 430.067,271.364 443.852,369.625 457.638,376.942 
  471.424,428.916 485.209,392.591 498.995,212.901 512.781,210.242 526.567,465.205 540.352,442.437 554.138,416.093 567.924,418.954 581.709,439.817 595.495,438.444 
  609.281,341.666 623.066,400.453 636.852,454.058 650.638,438.034 664.423,566.207 678.209,498.321 691.995,451.133 705.78,446.444 719.566,470.997 733.352,484.237 
  747.137,473.397 760.923,503.982 774.709,521.341 788.495,485.305 802.28,500.819 816.066,506.43 829.852,456.796 843.637,416.313 857.423,526.001 871.209,460.187 
  884.994,496.414 898.78,402.172 912.566,490.469 926.351,556.986 940.137,545.954 953.923,522.884 967.708,571.745 981.494,479.519 995.28,493.043 1009.07,456.483 
  1022.85,505.29 1036.64,525.183 1050.42,519.545 1064.21,531.482 1077.99,491.035 1091.78,461.401 1105.57,531.452 1119.35,524.593 1133.14,529.175 1146.92,514.364 
  1160.71,462.574 1174.49,501.139 1188.28,566.363 1202.06,551.974 1215.85,533.116 1229.64,544.629 1243.42,529.449 1257.21,509.249 1270.99,470.749 1284.78,482.347 
  1298.56,441.97 1312.35,497.763 1326.14,511.476 1339.92,553.614 1353.71,517.022 1367.49,557.384 1381.28,535.579 1395.06,470.529 1408.85,462.625 1422.64,516.655 
  1436.42,550.475 1450.21,551.493 1463.99,535.14 1477.78,482.631 1491.56,493.276 1505.35,445.913 1519.14,507.721 1532.92,441.024 1546.71,511.352 1560.49,521.656 
  1574.28,444.232 1588.06,493.662 1601.85,518.678 1615.64,500.791 1629.42,465.916 1643.21,480.965 1656.99,520.572 1670.78,476.962 1684.56,475.627 1698.35,440.993 
  1712.14,329.221 1725.92,281.646 1739.71,377.35 1753.49,515.676 1767.28,439.412 1781.06,555.783 1794.85,304.184 1808.64,388.299 1822.42,493.469 1836.21,446.733 
  1849.99,412.476 1863.78,478.762 1877.56,585.458 1891.35,530.567 1905.13,573.602 1918.92,496.493 1932.71,575.754 1946.49,541.02 1960.28,519.421 1974.06,551.017 
  1987.85,505.803 2001.63,545.104 2015.42,507.995 2029.21,541.409 2042.99,561.383 2056.78,590.116 2070.56,545.349 2084.35,592.221 2098.13,640.34 2111.92,524.869 
  2125.71,512.679 2139.49,501.274 2153.28,545.242 2167.06,481.954 2180.85,493.381 2194.63,532.527 2208.42,478.419 2222.21,563.71 2235.99,536.193 2249.78,575.075 
  2263.56,597.984 2277.35,559.785 2291.13,585.412 
  "/>
<polyline clip-path="url(#clip162)" style="stroke:#e26f46; stroke-linecap:round; stroke-linejoin:round; stroke-width:4; stroke-opacity:1; fill:none" points="
  237.067,499.367 250.853,803.355 264.639,899.555 278.424,988.94 292.21,1008.78 305.996,1079.11 319.781,1059.82 333.567,1060.92 347.353,1071.27 361.138,1024.48 
  374.924,987.999 388.71,1142.22 402.495,1174.5 416.281,1163.37 430.067,1131.3 443.852,1064.11 457.638,1117.47 471.424,1128.63 485.209,1164.79 498.995,1191.99 
  512.781,1172.87 526.567,1182.48 540.352,1168.66 554.138,1217.93 567.924,1201.06 581.709,1212.5 595.495,1176.49 609.281,1225.09 623.066,1246.95 636.852,1185.78 
  650.638,1204.51 664.423,1203.87 678.209,1238.44 691.995,1179.65 705.78,1149.68 719.566,1197.65 733.352,1153.72 747.137,1263.27 760.923,1235.56 774.709,1192.62 
  788.495,1252.86 802.28,1226.03 816.066,1231.84 829.852,1260.88 843.637,1279.19 857.423,1268.97 871.209,1297.24 884.994,1283.03 898.78,1259.52 912.566,1240.75 
  926.351,1246.21 940.137,1290.98 953.923,1246.88 967.708,1247.38 981.494,1256.4 995.28,1290.57 1009.07,1293.34 1022.85,1266.86 1036.64,1262.26 1050.42,1294.16 
  1064.21,1266.14 1077.99,1259.5 1091.78,1271.17 1105.57,1270.8 1119.35,1292.65 1133.14,1280.62 1146.92,1233.03 1160.71,1255.47 1174.49,1271.18 1188.28,1295.99 
  1202.06,1258.06 1215.85,1276.02 1229.64,1270.69 1243.42,1242.67 1257.21,1261.55 1270.99,1249.73 1284.78,1243.58 1298.56,1270.42 1312.35,1240.57 1326.14,1229.39 
  1339.92,1272.01 1353.71,1297.92 1367.49,1308.71 1381.28,1268.2 1395.06,1276.52 1408.85,1273.04 1422.64,1270.18 1436.42,1280.52 1450.21,1267.34 1463.99,1280.91 
  1477.78,1236.52 1491.56,1223.32 1505.35,1205.86 1519.14,1249.79 1532.92,1189.02 1546.71,1184.62 1560.49,1231.16 1574.28,1289.85 1588.06,1323.36 1601.85,1301.91 
  1615.64,1276.44 1629.42,1253.3 1643.21,1252.71 1656.99,1293.84 1670.78,1261.27 1684.56,1308.93 1698.35,1255.73 1712.14,1275.61 1725.92,1267.4 1739.71,1229.5 
  1753.49,1305.99 1767.28,1284.79 1781.06,1274.25 1794.85,1218.1 1808.64,1286.58 1822.42,1252.87 1836.21,1311.63 1849.99,1356.34 1863.78,1285.31 1877.56,1292.37 
  1891.35,1333.78 1905.13,1269.44 1918.92,1272.44 1932.71,1305.26 1946.49,1290.61 1960.28,1340.71 1974.06,1326.56 1987.85,1273.71 2001.63,1287.34 2015.42,1261.8 
  2029.21,1266.79 2042.99,1281.86 2056.78,1244.04 2070.56,1271.72 2084.35,1306.51 2098.13,1315.85 2111.92,1300.27 2125.71,1334.76 2139.49,1266.56 2153.28,1341.54 
  2167.06,1346.09 2180.85,1384.24 2194.63,1298.03 2208.42,1276.83 2222.21,1299.5 2235.99,1336.12 2249.78,1325.42 2263.56,1336.09 2277.35,1331.86 2291.13,1297 
  
  "/>
<path clip-path="url(#clip160)" d="
M1812.38 248.629 L2280.18 248.629 L2280.18 93.1086 L1812.38 93.1086  Z
  " fill="#ffffff" fill-rule="evenodd" fill-opacity="1"/>
<polyline clip-path="url(#clip160)" style="stroke:#000000; stroke-linecap:round; stroke-linejoin:round; stroke-width:4; stroke-opacity:1; fill:none" points="
  1812.38,248.629 2280.18,248.629 2280.18,93.1086 1812.38,93.1086 1812.38,248.629 
  "/>
<polyline clip-path="url(#clip160)" style="stroke:#009af9; stroke-linecap:round; stroke-linejoin:round; stroke-width:4; stroke-opacity:1; fill:none" points="
  1836.57,144.949 1981.73,144.949 
  "/>
<path clip-path="url(#clip160)" d="M2024.34 137.067 L2024.34 141.094 Q2022.54 140.169 2020.59 139.706 Q2018.65 139.243 2016.57 139.243 Q2013.4 139.243 2011.8 140.215 Q2010.22 141.187 2010.22 143.131 Q2010.22 144.613 2011.36 145.469 Q2012.49 146.303 2015.92 147.067 L2017.38 147.391 Q2021.91 148.363 2023.81 150.145 Q2025.73 151.905 2025.73 155.076 Q2025.73 158.687 2022.86 160.793 Q2020.02 162.9 2015.02 162.9 Q2012.93 162.9 2010.66 162.483 Q2008.42 162.09 2005.92 161.28 L2005.92 156.881 Q2008.28 158.108 2010.57 158.733 Q2012.86 159.335 2015.11 159.335 Q2018.12 159.335 2019.74 158.317 Q2021.36 157.275 2021.36 155.4 Q2021.36 153.664 2020.18 152.738 Q2019.02 151.812 2015.06 150.956 L2013.58 150.608 Q2009.62 149.775 2007.86 148.062 Q2006.1 146.326 2006.1 143.317 Q2006.1 139.659 2008.7 137.669 Q2011.29 135.678 2016.06 135.678 Q2018.42 135.678 2020.5 136.025 Q2022.59 136.372 2024.34 137.067 Z" fill="#000000" fill-rule="evenodd" fill-opacity="1" /><path clip-path="url(#clip160)" d="M2032.52 126.21 L2036.77 126.21 L2036.77 162.229 L2032.52 162.229 L2032.52 126.21 Z" fill="#000000" fill-rule="evenodd" fill-opacity="1" /><path clip-path="url(#clip160)" d="M2055.73 139.289 Q2052.31 139.289 2050.32 141.974 Q2048.33 144.636 2048.33 149.289 Q2048.33 153.942 2050.29 156.627 Q2052.28 159.289 2055.73 159.289 Q2059.14 159.289 2061.13 156.604 Q2063.12 153.918 2063.12 149.289 Q2063.12 144.682 2061.13 141.997 Q2059.14 139.289 2055.73 139.289 M2055.73 135.678 Q2061.29 135.678 2064.46 139.289 Q2067.63 142.9 2067.63 149.289 Q2067.63 155.655 2064.46 159.289 Q2061.29 162.9 2055.73 162.9 Q2050.15 162.9 2046.98 159.289 Q2043.83 155.655 2043.83 149.289 Q2043.83 142.9 2046.98 139.289 Q2050.15 135.678 2055.73 135.678 Z" fill="#000000" fill-rule="evenodd" fill-opacity="1" /><path clip-path="url(#clip160)" d="M2072.21 136.303 L2076.47 136.303 L2081.8 156.534 L2087.1 136.303 L2092.12 136.303 L2097.45 156.534 L2102.75 136.303 L2107.01 136.303 L2100.22 162.229 L2095.2 162.229 L2089.62 140.979 L2084.02 162.229 L2079 162.229 L2072.21 136.303 Z" fill="#000000" fill-rule="evenodd" fill-opacity="1" /><path clip-path="url(#clip160)" d="M2148.72 141.28 Q2150.32 138.409 2152.54 137.044 Q2154.76 135.678 2157.77 135.678 Q2161.82 135.678 2164.02 138.525 Q2166.22 141.349 2166.22 146.581 L2166.22 162.229 L2161.94 162.229 L2161.94 146.719 Q2161.94 142.993 2160.62 141.187 Q2159.3 139.382 2156.59 139.382 Q2153.28 139.382 2151.36 141.581 Q2149.44 143.78 2149.44 147.576 L2149.44 162.229 L2145.15 162.229 L2145.15 146.719 Q2145.15 142.969 2143.83 141.187 Q2142.51 139.382 2139.76 139.382 Q2136.5 139.382 2134.58 141.604 Q2132.65 143.803 2132.65 147.576 L2132.65 162.229 L2128.37 162.229 L2128.37 136.303 L2132.65 136.303 L2132.65 140.331 Q2134.11 137.946 2136.15 136.812 Q2138.19 135.678 2140.99 135.678 Q2143.81 135.678 2145.78 137.113 Q2147.77 138.548 2148.72 141.28 Z" fill="#000000" fill-rule="evenodd" fill-opacity="1" /><path clip-path="url(#clip160)" d="M2184.76 139.289 Q2181.33 139.289 2179.34 141.974 Q2177.35 144.636 2177.35 149.289 Q2177.35 153.942 2179.32 156.627 Q2181.31 159.289 2184.76 159.289 Q2188.16 159.289 2190.15 156.604 Q2192.14 153.918 2192.14 149.289 Q2192.14 144.682 2190.15 141.997 Q2188.16 139.289 2184.76 139.289 M2184.76 135.678 Q2190.32 135.678 2193.49 139.289 Q2196.66 142.9 2196.66 149.289 Q2196.66 155.655 2193.49 159.289 Q2190.32 162.9 2184.76 162.9 Q2179.18 162.9 2176.01 159.289 Q2172.86 155.655 2172.86 149.289 Q2172.86 142.9 2176.01 139.289 Q2179.18 135.678 2184.76 135.678 Z" fill="#000000" fill-rule="evenodd" fill-opacity="1" /><path clip-path="url(#clip160)" d="M2220.78 140.238 L2220.78 126.21 L2225.04 126.21 L2225.04 162.229 L2220.78 162.229 L2220.78 158.34 Q2219.44 160.655 2217.38 161.789 Q2215.34 162.9 2212.47 162.9 Q2207.77 162.9 2204.81 159.15 Q2201.87 155.4 2201.87 149.289 Q2201.87 143.178 2204.81 139.428 Q2207.77 135.678 2212.47 135.678 Q2215.34 135.678 2217.38 136.812 Q2219.44 137.923 2220.78 140.238 M2206.26 149.289 Q2206.26 153.988 2208.19 156.673 Q2210.13 159.335 2213.51 159.335 Q2216.89 159.335 2218.83 156.673 Q2220.78 153.988 2220.78 149.289 Q2220.78 144.59 2218.83 141.928 Q2216.89 139.243 2213.51 139.243 Q2210.13 139.243 2208.19 141.928 Q2206.26 144.59 2206.26 149.289 Z" fill="#000000" fill-rule="evenodd" fill-opacity="1" /><path clip-path="url(#clip160)" d="M2255.99 148.201 L2255.99 150.284 L2236.4 150.284 Q2236.68 154.682 2239.04 156.997 Q2241.43 159.289 2245.66 159.289 Q2248.12 159.289 2250.41 158.687 Q2252.72 158.085 2254.99 156.881 L2254.99 160.909 Q2252.7 161.881 2250.29 162.391 Q2247.88 162.9 2245.41 162.9 Q2239.2 162.9 2235.57 159.289 Q2231.96 155.678 2231.96 149.52 Q2231.96 143.155 2235.38 139.428 Q2238.83 135.678 2244.67 135.678 Q2249.9 135.678 2252.93 139.057 Q2255.99 142.414 2255.99 148.201 M2251.73 146.951 Q2251.68 143.456 2249.76 141.372 Q2247.86 139.289 2244.71 139.289 Q2241.15 139.289 2239 141.303 Q2236.87 143.317 2236.54 146.974 L2251.73 146.951 Z" fill="#000000" fill-rule="evenodd" fill-opacity="1" /><polyline clip-path="url(#clip160)" style="stroke:#e26f46; stroke-linecap:round; stroke-linejoin:round; stroke-width:4; stroke-opacity:1; fill:none" points="
  1836.57,196.789 1981.73,196.789 
  "/>
<path clip-path="url(#clip160)" d="M2022.42 178.05 L2022.42 181.592 L2018.35 181.592 Q2016.06 181.592 2015.15 182.518 Q2014.27 183.444 2014.27 185.851 L2014.27 188.143 L2021.29 188.143 L2021.29 191.453 L2014.27 191.453 L2014.27 214.069 L2009.99 214.069 L2009.99 191.453 L2005.92 191.453 L2005.92 188.143 L2009.99 188.143 L2009.99 186.337 Q2009.99 182.009 2012.01 180.041 Q2014.02 178.05 2018.4 178.05 L2022.42 178.05 Z" fill="#000000" fill-rule="evenodd" fill-opacity="1" /><path clip-path="url(#clip160)" d="M2037.77 201.036 Q2032.61 201.036 2030.62 202.217 Q2028.63 203.397 2028.63 206.245 Q2028.63 208.513 2030.11 209.856 Q2031.61 211.175 2034.18 211.175 Q2037.72 211.175 2039.85 208.675 Q2042.01 206.152 2042.01 201.985 L2042.01 201.036 L2037.77 201.036 M2046.27 199.277 L2046.27 214.069 L2042.01 214.069 L2042.01 210.133 Q2040.55 212.495 2038.37 213.629 Q2036.2 214.74 2033.05 214.74 Q2029.07 214.74 2026.71 212.518 Q2024.37 210.272 2024.37 206.522 Q2024.37 202.147 2027.28 199.925 Q2030.22 197.703 2036.03 197.703 L2042.01 197.703 L2042.01 197.286 Q2042.01 194.347 2040.06 192.749 Q2038.14 191.129 2034.65 191.129 Q2032.42 191.129 2030.32 191.661 Q2028.21 192.194 2026.27 193.259 L2026.27 189.323 Q2028.6 188.421 2030.8 187.981 Q2033 187.518 2035.08 187.518 Q2040.71 187.518 2043.49 190.434 Q2046.27 193.351 2046.27 199.277 Z" fill="#000000" fill-rule="evenodd" fill-opacity="1" /><path clip-path="url(#clip160)" d="M2071.57 188.907 L2071.57 192.934 Q2069.76 192.009 2067.82 191.546 Q2065.87 191.083 2063.79 191.083 Q2060.62 191.083 2059.02 192.055 Q2057.45 193.027 2057.45 194.971 Q2057.45 196.453 2058.58 197.309 Q2059.71 198.143 2063.14 198.907 L2064.6 199.231 Q2069.14 200.203 2071.03 201.985 Q2072.96 203.745 2072.96 206.916 Q2072.96 210.527 2070.08 212.633 Q2067.24 214.74 2062.24 214.74 Q2060.15 214.74 2057.89 214.323 Q2055.64 213.93 2053.14 213.12 L2053.14 208.721 Q2055.5 209.948 2057.79 210.573 Q2060.08 211.175 2062.33 211.175 Q2065.34 211.175 2066.96 210.157 Q2068.58 209.115 2068.58 207.24 Q2068.58 205.504 2067.4 204.578 Q2066.24 203.652 2062.28 202.796 L2060.8 202.448 Q2056.84 201.615 2055.08 199.902 Q2053.33 198.166 2053.33 195.157 Q2053.33 191.499 2055.92 189.509 Q2058.51 187.518 2063.28 187.518 Q2065.64 187.518 2067.72 187.865 Q2069.81 188.212 2071.57 188.907 Z" fill="#000000" fill-rule="evenodd" fill-opacity="1" /><path clip-path="url(#clip160)" d="M2083.95 180.782 L2083.95 188.143 L2092.72 188.143 L2092.72 191.453 L2083.95 191.453 L2083.95 205.527 Q2083.95 208.698 2084.81 209.601 Q2085.69 210.504 2088.35 210.504 L2092.72 210.504 L2092.72 214.069 L2088.35 214.069 Q2083.42 214.069 2081.54 212.24 Q2079.67 210.388 2079.67 205.527 L2079.67 191.453 L2076.54 191.453 L2076.54 188.143 L2079.67 188.143 L2079.67 180.782 L2083.95 180.782 Z" fill="#000000" fill-rule="evenodd" fill-opacity="1" /><path clip-path="url(#clip160)" d="M2133.58 193.12 Q2135.18 190.249 2137.4 188.884 Q2139.62 187.518 2142.63 187.518 Q2146.68 187.518 2148.88 190.365 Q2151.08 193.189 2151.08 198.421 L2151.08 214.069 L2146.8 214.069 L2146.8 198.559 Q2146.8 194.833 2145.48 193.027 Q2144.16 191.222 2141.45 191.222 Q2138.14 191.222 2136.22 193.421 Q2134.3 195.62 2134.3 199.416 L2134.3 214.069 L2130.01 214.069 L2130.01 198.559 Q2130.01 194.809 2128.7 193.027 Q2127.38 191.222 2124.62 191.222 Q2121.36 191.222 2119.44 193.444 Q2117.52 195.643 2117.52 199.416 L2117.52 214.069 L2113.23 214.069 L2113.23 188.143 L2117.52 188.143 L2117.52 192.171 Q2118.97 189.786 2121.01 188.652 Q2123.05 187.518 2125.85 187.518 Q2128.67 187.518 2130.64 188.953 Q2132.63 190.388 2133.58 193.12 Z" fill="#000000" fill-rule="evenodd" fill-opacity="1" /><path clip-path="url(#clip160)" d="M2169.62 191.129 Q2166.2 191.129 2164.2 193.814 Q2162.21 196.476 2162.21 201.129 Q2162.21 205.782 2164.18 208.467 Q2166.17 211.129 2169.62 211.129 Q2173.02 211.129 2175.01 208.444 Q2177.01 205.758 2177.01 201.129 Q2177.01 196.522 2175.01 193.837 Q2173.02 191.129 2169.62 191.129 M2169.62 187.518 Q2175.18 187.518 2178.35 191.129 Q2181.52 194.74 2181.52 201.129 Q2181.52 207.495 2178.35 211.129 Q2175.18 214.74 2169.62 214.74 Q2164.04 214.74 2160.87 211.129 Q2157.72 207.495 2157.72 201.129 Q2157.72 194.74 2160.87 191.129 Q2164.04 187.518 2169.62 187.518 Z" fill="#000000" fill-rule="evenodd" fill-opacity="1" /><path clip-path="url(#clip160)" d="M2205.64 192.078 L2205.64 178.05 L2209.9 178.05 L2209.9 214.069 L2205.64 214.069 L2205.64 210.18 Q2204.3 212.495 2202.24 213.629 Q2200.2 214.74 2197.33 214.74 Q2192.63 214.74 2189.67 210.99 Q2186.73 207.24 2186.73 201.129 Q2186.73 195.018 2189.67 191.268 Q2192.63 187.518 2197.33 187.518 Q2200.2 187.518 2202.24 188.652 Q2204.3 189.763 2205.64 192.078 M2191.13 201.129 Q2191.13 205.828 2193.05 208.513 Q2194.99 211.175 2198.37 211.175 Q2201.75 211.175 2203.7 208.513 Q2205.64 205.828 2205.64 201.129 Q2205.64 196.43 2203.7 193.768 Q2201.75 191.083 2198.37 191.083 Q2194.99 191.083 2193.05 193.768 Q2191.13 196.43 2191.13 201.129 Z" fill="#000000" fill-rule="evenodd" fill-opacity="1" /><path clip-path="url(#clip160)" d="M2240.85 200.041 L2240.85 202.124 L2221.26 202.124 Q2221.54 206.522 2223.9 208.837 Q2226.29 211.129 2230.52 211.129 Q2232.98 211.129 2235.27 210.527 Q2237.58 209.925 2239.85 208.721 L2239.85 212.749 Q2237.56 213.721 2235.15 214.231 Q2232.75 214.74 2230.27 214.74 Q2224.07 214.74 2220.43 211.129 Q2216.82 207.518 2216.82 201.36 Q2216.82 194.995 2220.25 191.268 Q2223.7 187.518 2229.53 187.518 Q2234.76 187.518 2237.79 190.897 Q2240.85 194.254 2240.85 200.041 M2236.59 198.791 Q2236.54 195.296 2234.62 193.212 Q2232.72 191.129 2229.57 191.129 Q2226.01 191.129 2223.86 193.143 Q2221.73 195.157 2221.4 198.814 L2236.59 198.791 Z" fill="#000000" fill-rule="evenodd" fill-opacity="1" /></svg>
