<?xml version="1.0" encoding="utf-8"?>
<svg xmlns="http://www.w3.org/2000/svg" xmlns:xlink="http://www.w3.org/1999/xlink" width="600" height="400" viewBox="0 0 2400 1600">
<defs>
  <clipPath id="clip000">
    <rect x="0" y="0" width="2400" height="1600"/>
  </clipPath>
</defs>
<path clip-path="url(#clip000)" d="
M0 1600 L2400 1600 L2400 0 L0 0  Z
  " fill="#ffffff" fill-rule="evenodd" fill-opacity="1"/>
<defs>
  <clipPath id="clip001">
    <rect x="480" y="0" width="1681" height="1600"/>
  </clipPath>
</defs>
<path clip-path="url(#clip000)" d="
M249.542 1423.18 L2352.76 1423.18 L2352.76 47.2441 L249.542 47.2441  Z
  " fill="#ffffff" fill-rule="evenodd" fill-opacity="1"/>
<defs>
  <clipPath id="clip002">
    <rect x="249" y="47" width="2104" height="1377"/>
  </clipPath>
</defs>
<polyline clip-path="url(#clip002)" style="stroke:#000000; stroke-linecap:round; stroke-linejoin:round; stroke-width:2; stroke-opacity:0.1; fill:none" points="
  295.75,1423.18 295.75,47.2441 
  "/>
<polyline clip-path="url(#clip002)" style="stroke:#000000; stroke-linecap:round; stroke-linejoin:round; stroke-width:2; stroke-opacity:0.1; fill:none" points="
  628.664,1423.18 628.664,47.2441 
  "/>
<polyline clip-path="url(#clip002)" style="stroke:#000000; stroke-linecap:round; stroke-linejoin:round; stroke-width:2; stroke-opacity:0.1; fill:none" points="
  961.577,1423.18 961.577,47.2441 
  "/>
<polyline clip-path="url(#clip002)" style="stroke:#000000; stroke-linecap:round; stroke-linejoin:round; stroke-width:2; stroke-opacity:0.1; fill:none" points="
  1294.49,1423.18 1294.49,47.2441 
  "/>
<polyline clip-path="url(#clip002)" style="stroke:#000000; stroke-linecap:round; stroke-linejoin:round; stroke-width:2; stroke-opacity:0.1; fill:none" points="
  1627.4,1423.18 1627.4,47.2441 
  "/>
<polyline clip-path="url(#clip002)" style="stroke:#000000; stroke-linecap:round; stroke-linejoin:round; stroke-width:2; stroke-opacity:0.1; fill:none" points="
  1960.32,1423.18 1960.32,47.2441 
  "/>
<polyline clip-path="url(#clip002)" style="stroke:#000000; stroke-linecap:round; stroke-linejoin:round; stroke-width:2; stroke-opacity:0.1; fill:none" points="
  2293.23,1423.18 2293.23,47.2441 
  "/>
<polyline clip-path="url(#clip000)" style="stroke:#000000; stroke-linecap:round; stroke-linejoin:round; stroke-width:4; stroke-opacity:1; fill:none" points="
  249.542,1423.18 2352.76,1423.18 
  "/>
<polyline clip-path="url(#clip000)" style="stroke:#000000; stroke-linecap:round; stroke-linejoin:round; stroke-width:4; stroke-opacity:1; fill:none" points="
  295.75,1423.18 295.75,1404.28 
  "/>
<polyline clip-path="url(#clip000)" style="stroke:#000000; stroke-linecap:round; stroke-linejoin:round; stroke-width:4; stroke-opacity:1; fill:none" points="
  628.664,1423.18 628.664,1404.28 
  "/>
<polyline clip-path="url(#clip000)" style="stroke:#000000; stroke-linecap:round; stroke-linejoin:round; stroke-width:4; stroke-opacity:1; fill:none" points="
  961.577,1423.18 961.577,1404.28 
  "/>
<polyline clip-path="url(#clip000)" style="stroke:#000000; stroke-linecap:round; stroke-linejoin:round; stroke-width:4; stroke-opacity:1; fill:none" points="
  1294.49,1423.18 1294.49,1404.28 
  "/>
<polyline clip-path="url(#clip000)" style="stroke:#000000; stroke-linecap:round; stroke-linejoin:round; stroke-width:4; stroke-opacity:1; fill:none" points="
  1627.4,1423.18 1627.4,1404.28 
  "/>
<polyline clip-path="url(#clip000)" style="stroke:#000000; stroke-linecap:round; stroke-linejoin:round; stroke-width:4; stroke-opacity:1; fill:none" points="
  1960.32,1423.18 1960.32,1404.28 
  "/>
<polyline clip-path="url(#clip000)" style="stroke:#000000; stroke-linecap:round; stroke-linejoin:round; stroke-width:4; stroke-opacity:1; fill:none" points="
  2293.23,1423.18 2293.23,1404.28 
  "/>
<path clip-path="url(#clip000)" d="M203.552 1454.1 Q199.941 1454.1 198.112 1457.66 Q196.307 1461.2 196.307 1468.33 Q196.307 1475.44 198.112 1479.01 Q199.941 1482.55 203.552 1482.55 Q207.186 1482.55 208.992 1479.01 Q210.82 1475.44 210.82 1468.33 Q210.82 1461.2 208.992 1457.66 Q207.186 1454.1 203.552 1454.1 M203.552 1450.39 Q209.362 1450.39 212.418 1455 Q215.496 1459.58 215.496 1468.33 Q215.496 1477.06 212.418 1481.67 Q209.362 1486.25 203.552 1486.25 Q197.742 1486.25 194.663 1481.67 Q191.607 1477.06 191.607 1468.33 Q191.607 1459.58 194.663 1455 Q197.742 1450.39 203.552 1450.39 Z" fill="#000000" fill-rule="evenodd" fill-opacity="1" /><path clip-path="url(#clip000)" d="M223.714 1479.7 L228.598 1479.7 L228.598 1485.58 L223.714 1485.58 L223.714 1479.7 Z" fill="#000000" fill-rule="evenodd" fill-opacity="1" /><path clip-path="url(#clip000)" d="M248.783 1454.1 Q245.172 1454.1 243.343 1457.66 Q241.538 1461.2 241.538 1468.33 Q241.538 1475.44 243.343 1479.01 Q245.172 1482.55 248.783 1482.55 Q252.417 1482.55 254.223 1479.01 Q256.052 1475.44 256.052 1468.33 Q256.052 1461.2 254.223 1457.66 Q252.417 1454.1 248.783 1454.1 M248.783 1450.39 Q254.593 1450.39 257.649 1455 Q260.727 1459.58 260.727 1468.33 Q260.727 1477.06 257.649 1481.67 Q254.593 1486.25 248.783 1486.25 Q242.973 1486.25 239.894 1481.67 Q236.839 1477.06 236.839 1468.33 Q236.839 1459.58 239.894 1455 Q242.973 1450.39 248.783 1450.39 Z" fill="#000000" fill-rule="evenodd" fill-opacity="1" /><path clip-path="url(#clip000)" d="M278.945 1454.1 Q275.334 1454.1 273.505 1457.66 Q271.7 1461.2 271.7 1468.33 Q271.7 1475.44 273.505 1479.01 Q275.334 1482.55 278.945 1482.55 Q282.579 1482.55 284.385 1479.01 Q286.213 1475.44 286.213 1468.33 Q286.213 1461.2 284.385 1457.66 Q282.579 1454.1 278.945 1454.1 M278.945 1450.39 Q284.755 1450.39 287.811 1455 Q290.889 1459.58 290.889 1468.33 Q290.889 1477.06 287.811 1481.67 Q284.755 1486.25 278.945 1486.25 Q273.135 1486.25 270.056 1481.67 Q267.001 1477.06 267.001 1468.33 Q267.001 1459.58 270.056 1455 Q273.135 1450.39 278.945 1450.39 Z" fill="#000000" fill-rule="evenodd" fill-opacity="1" /><path clip-path="url(#clip000)" d="M320.056 1459.65 L310.681 1472.27 L320.542 1485.58 L315.519 1485.58 L307.973 1475.39 L300.426 1485.58 L295.403 1485.58 L305.473 1472.02 L296.26 1459.65 L301.283 1459.65 L308.158 1468.89 L315.033 1459.65 L320.056 1459.65 Z" fill="#000000" fill-rule="evenodd" fill-opacity="1" /><path clip-path="url(#clip000)" d="M327.972 1481.64 L335.611 1481.64 L335.611 1455.28 L327.301 1456.95 L327.301 1452.69 L335.565 1451.02 L340.241 1451.02 L340.241 1481.64 L347.88 1481.64 L347.88 1485.58 L327.972 1485.58 L327.972 1481.64 Z" fill="#000000" fill-rule="evenodd" fill-opacity="1" /><path clip-path="url(#clip000)" d="M367.324 1454.1 Q363.713 1454.1 361.884 1457.66 Q360.079 1461.2 360.079 1468.33 Q360.079 1475.44 361.884 1479.01 Q363.713 1482.55 367.324 1482.55 Q370.958 1482.55 372.764 1479.01 Q374.593 1475.44 374.593 1468.33 Q374.593 1461.2 372.764 1457.66 Q370.958 1454.1 367.324 1454.1 M367.324 1450.39 Q373.134 1450.39 376.19 1455 Q379.268 1459.58 379.268 1468.33 Q379.268 1477.06 376.19 1481.67 Q373.134 1486.25 367.324 1486.25 Q361.514 1486.25 358.435 1481.67 Q355.38 1477.06 355.38 1468.33 Q355.38 1459.58 358.435 1455 Q361.514 1450.39 367.324 1450.39 Z" fill="#000000" fill-rule="evenodd" fill-opacity="1" /><path clip-path="url(#clip000)" d="M392.486 1459.35 Q390.449 1459.35 389.268 1460.56 Q388.088 1461.78 388.088 1463.89 Q388.088 1465.97 389.268 1467.18 Q390.449 1468.4 392.486 1468.4 Q394.5 1468.4 395.68 1467.18 Q396.861 1465.97 396.861 1463.89 Q396.861 1461.78 395.68 1460.56 Q394.5 1459.35 392.486 1459.35 M398.458 1451.16 L398.458 1453.54 Q397.324 1453.08 396.167 1452.85 Q395.009 1452.59 393.875 1452.59 Q390.912 1452.59 389.338 1454.33 Q387.764 1456.09 387.532 1459.63 Q388.412 1458.5 389.731 1457.89 Q391.074 1457.29 392.648 1457.29 Q396.005 1457.29 397.949 1459.05 Q399.893 1460.83 399.893 1463.89 Q399.893 1466.83 397.856 1468.66 Q395.842 1470.46 392.486 1470.46 Q388.62 1470.46 386.583 1467.89 Q384.546 1465.33 384.546 1460.42 Q384.546 1455.83 387.046 1453.13 Q389.546 1450.39 393.759 1450.39 Q394.893 1450.39 396.051 1450.58 Q397.208 1450.79 398.458 1451.16 Z" fill="#000000" fill-rule="evenodd" fill-opacity="1" /><path clip-path="url(#clip000)" d="M536.465 1454.1 Q532.854 1454.1 531.025 1457.66 Q529.22 1461.2 529.22 1468.33 Q529.22 1475.44 531.025 1479.01 Q532.854 1482.55 536.465 1482.55 Q540.1 1482.55 541.905 1479.01 Q543.734 1475.44 543.734 1468.33 Q543.734 1461.2 541.905 1457.66 Q540.1 1454.1 536.465 1454.1 M536.465 1450.39 Q542.275 1450.39 545.331 1455 Q548.41 1459.58 548.41 1468.33 Q548.41 1477.06 545.331 1481.67 Q542.275 1486.25 536.465 1486.25 Q530.655 1486.25 527.576 1481.67 Q524.521 1477.06 524.521 1468.33 Q524.521 1459.58 527.576 1455 Q530.655 1450.39 536.465 1450.39 Z" fill="#000000" fill-rule="evenodd" fill-opacity="1" /><path clip-path="url(#clip000)" d="M556.627 1479.7 L561.511 1479.7 L561.511 1485.58 L556.627 1485.58 L556.627 1479.7 Z" fill="#000000" fill-rule="evenodd" fill-opacity="1" /><path clip-path="url(#clip000)" d="M575.724 1481.64 L592.044 1481.64 L592.044 1485.58 L570.099 1485.58 L570.099 1481.64 Q572.761 1478.89 577.345 1474.26 Q581.951 1469.61 583.132 1468.27 Q585.377 1465.74 586.257 1464.01 Q587.159 1462.25 587.159 1460.56 Q587.159 1457.8 585.215 1456.07 Q583.294 1454.33 580.192 1454.33 Q577.993 1454.33 575.539 1455.09 Q573.109 1455.86 570.331 1457.41 L570.331 1452.69 Q573.155 1451.55 575.609 1450.97 Q578.062 1450.39 580.099 1450.39 Q585.47 1450.39 588.664 1453.08 Q591.858 1455.77 591.858 1460.26 Q591.858 1462.39 591.048 1464.31 Q590.261 1466.2 588.155 1468.8 Q587.576 1469.47 584.474 1472.69 Q581.372 1475.88 575.724 1481.64 Z" fill="#000000" fill-rule="evenodd" fill-opacity="1" /><path clip-path="url(#clip000)" d="M601.905 1451.02 L620.261 1451.02 L620.261 1454.96 L606.187 1454.96 L606.187 1463.43 Q607.206 1463.08 608.224 1462.92 Q609.243 1462.73 610.261 1462.73 Q616.048 1462.73 619.428 1465.9 Q622.807 1469.08 622.807 1474.49 Q622.807 1480.07 619.335 1483.17 Q615.863 1486.25 609.544 1486.25 Q607.368 1486.25 605.099 1485.88 Q602.854 1485.51 600.446 1484.77 L600.446 1480.07 Q602.53 1481.2 604.752 1481.76 Q606.974 1482.32 609.451 1482.32 Q613.456 1482.32 615.794 1480.21 Q618.131 1478.1 618.131 1474.49 Q618.131 1470.88 615.794 1468.77 Q613.456 1466.67 609.451 1466.67 Q607.576 1466.67 605.701 1467.08 Q603.849 1467.5 601.905 1468.38 L601.905 1451.02 Z" fill="#000000" fill-rule="evenodd" fill-opacity="1" /><path clip-path="url(#clip000)" d="M652.969 1459.65 L643.594 1472.27 L653.455 1485.58 L648.432 1485.58 L640.886 1475.39 L633.34 1485.58 L628.317 1485.58 L638.386 1472.02 L629.173 1459.65 L634.196 1459.65 L641.071 1468.89 L647.946 1459.65 L652.969 1459.65 Z" fill="#000000" fill-rule="evenodd" fill-opacity="1" /><path clip-path="url(#clip000)" d="M660.886 1481.64 L668.525 1481.64 L668.525 1455.28 L660.215 1456.95 L660.215 1452.69 L668.478 1451.02 L673.154 1451.02 L673.154 1481.64 L680.793 1481.64 L680.793 1485.58 L660.886 1485.58 L660.886 1481.64 Z" fill="#000000" fill-rule="evenodd" fill-opacity="1" /><path clip-path="url(#clip000)" d="M700.238 1454.1 Q696.626 1454.1 694.798 1457.66 Q692.992 1461.2 692.992 1468.33 Q692.992 1475.44 694.798 1479.01 Q696.626 1482.55 700.238 1482.55 Q703.872 1482.55 705.677 1479.01 Q707.506 1475.44 707.506 1468.33 Q707.506 1461.2 705.677 1457.66 Q703.872 1454.1 700.238 1454.1 M700.238 1450.39 Q706.048 1450.39 709.103 1455 Q712.182 1459.58 712.182 1468.33 Q712.182 1477.06 709.103 1481.67 Q706.048 1486.25 700.238 1486.25 Q694.427 1486.25 691.349 1481.67 Q688.293 1477.06 688.293 1468.33 Q688.293 1459.58 691.349 1455 Q694.427 1450.39 700.238 1450.39 Z" fill="#000000" fill-rule="evenodd" fill-opacity="1" /><path clip-path="url(#clip000)" d="M725.399 1459.35 Q723.362 1459.35 722.182 1460.56 Q721.001 1461.78 721.001 1463.89 Q721.001 1465.97 722.182 1467.18 Q723.362 1468.4 725.399 1468.4 Q727.413 1468.4 728.594 1467.18 Q729.774 1465.97 729.774 1463.89 Q729.774 1461.78 728.594 1460.56 Q727.413 1459.35 725.399 1459.35 M731.372 1451.16 L731.372 1453.54 Q730.237 1453.08 729.08 1452.85 Q727.923 1452.59 726.788 1452.59 Q723.825 1452.59 722.251 1454.33 Q720.677 1456.09 720.446 1459.63 Q721.325 1458.5 722.645 1457.89 Q723.987 1457.29 725.561 1457.29 Q728.918 1457.29 730.862 1459.05 Q732.807 1460.83 732.807 1463.89 Q732.807 1466.83 730.77 1468.66 Q728.756 1470.46 725.399 1470.46 Q721.534 1470.46 719.497 1467.89 Q717.46 1465.33 717.46 1460.42 Q717.46 1455.83 719.96 1453.13 Q722.46 1450.39 726.673 1450.39 Q727.807 1450.39 728.964 1450.58 Q730.122 1450.79 731.372 1451.16 Z" fill="#000000" fill-rule="evenodd" fill-opacity="1" /><path clip-path="url(#clip000)" d="M869.379 1454.1 Q865.768 1454.1 863.939 1457.66 Q862.133 1461.2 862.133 1468.33 Q862.133 1475.44 863.939 1479.01 Q865.768 1482.55 869.379 1482.55 Q873.013 1482.55 874.818 1479.01 Q876.647 1475.44 876.647 1468.33 Q876.647 1461.2 874.818 1457.66 Q873.013 1454.1 869.379 1454.1 M869.379 1450.39 Q875.189 1450.39 878.244 1455 Q881.323 1459.58 881.323 1468.33 Q881.323 1477.06 878.244 1481.67 Q875.189 1486.25 869.379 1486.25 Q863.569 1486.25 860.49 1481.67 Q857.434 1477.06 857.434 1468.33 Q857.434 1459.58 860.49 1455 Q863.569 1450.39 869.379 1450.39 Z" fill="#000000" fill-rule="evenodd" fill-opacity="1" /><path clip-path="url(#clip000)" d="M889.541 1479.7 L894.425 1479.7 L894.425 1485.58 L889.541 1485.58 L889.541 1479.7 Z" fill="#000000" fill-rule="evenodd" fill-opacity="1" /><path clip-path="url(#clip000)" d="M904.656 1451.02 L923.013 1451.02 L923.013 1454.96 L908.939 1454.96 L908.939 1463.43 Q909.957 1463.08 910.976 1462.92 Q911.994 1462.73 913.013 1462.73 Q918.8 1462.73 922.179 1465.9 Q925.559 1469.08 925.559 1474.49 Q925.559 1480.07 922.087 1483.17 Q918.615 1486.25 912.295 1486.25 Q910.119 1486.25 907.851 1485.88 Q905.605 1485.51 903.198 1484.77 L903.198 1480.07 Q905.281 1481.2 907.503 1481.76 Q909.726 1482.32 912.203 1482.32 Q916.207 1482.32 918.545 1480.21 Q920.883 1478.1 920.883 1474.49 Q920.883 1470.88 918.545 1468.77 Q916.207 1466.67 912.203 1466.67 Q910.328 1466.67 908.453 1467.08 Q906.601 1467.5 904.656 1468.38 L904.656 1451.02 Z" fill="#000000" fill-rule="evenodd" fill-opacity="1" /><path clip-path="url(#clip000)" d="M944.772 1454.1 Q941.161 1454.1 939.332 1457.66 Q937.526 1461.2 937.526 1468.33 Q937.526 1475.44 939.332 1479.01 Q941.161 1482.55 944.772 1482.55 Q948.406 1482.55 950.212 1479.01 Q952.04 1475.44 952.04 1468.33 Q952.04 1461.2 950.212 1457.66 Q948.406 1454.1 944.772 1454.1 M944.772 1450.39 Q950.582 1450.39 953.638 1455 Q956.716 1459.58 956.716 1468.33 Q956.716 1477.06 953.638 1481.67 Q950.582 1486.25 944.772 1486.25 Q938.962 1486.25 935.883 1481.67 Q932.827 1477.06 932.827 1468.33 Q932.827 1459.58 935.883 1455 Q938.962 1450.39 944.772 1450.39 Z" fill="#000000" fill-rule="evenodd" fill-opacity="1" /><path clip-path="url(#clip000)" d="M985.883 1459.65 L976.508 1472.27 L986.369 1485.58 L981.346 1485.58 L973.799 1475.39 L966.253 1485.58 L961.23 1485.58 L971.299 1472.02 L962.087 1459.65 L967.11 1459.65 L973.985 1468.89 L980.86 1459.65 L985.883 1459.65 Z" fill="#000000" fill-rule="evenodd" fill-opacity="1" /><path clip-path="url(#clip000)" d="M993.799 1481.64 L1001.44 1481.64 L1001.44 1455.28 L993.128 1456.95 L993.128 1452.69 L1001.39 1451.02 L1006.07 1451.02 L1006.07 1481.64 L1013.71 1481.64 L1013.71 1485.58 L993.799 1485.58 L993.799 1481.64 Z" fill="#000000" fill-rule="evenodd" fill-opacity="1" /><path clip-path="url(#clip000)" d="M1033.15 1454.1 Q1029.54 1454.1 1027.71 1457.66 Q1025.91 1461.2 1025.91 1468.33 Q1025.91 1475.44 1027.71 1479.01 Q1029.54 1482.55 1033.15 1482.55 Q1036.79 1482.55 1038.59 1479.01 Q1040.42 1475.44 1040.42 1468.33 Q1040.42 1461.2 1038.59 1457.66 Q1036.79 1454.1 1033.15 1454.1 M1033.15 1450.39 Q1038.96 1450.39 1042.02 1455 Q1045.1 1459.58 1045.1 1468.33 Q1045.1 1477.06 1042.02 1481.67 Q1038.96 1486.25 1033.15 1486.25 Q1027.34 1486.25 1024.26 1481.67 Q1021.21 1477.06 1021.21 1468.33 Q1021.21 1459.58 1024.26 1455 Q1027.34 1450.39 1033.15 1450.39 Z" fill="#000000" fill-rule="evenodd" fill-opacity="1" /><path clip-path="url(#clip000)" d="M1058.31 1459.35 Q1056.28 1459.35 1055.1 1460.56 Q1053.91 1461.78 1053.91 1463.89 Q1053.91 1465.97 1055.1 1467.18 Q1056.28 1468.4 1058.31 1468.4 Q1060.33 1468.4 1061.51 1467.18 Q1062.69 1465.97 1062.69 1463.89 Q1062.69 1461.78 1061.51 1460.56 Q1060.33 1459.35 1058.31 1459.35 M1064.29 1451.16 L1064.29 1453.54 Q1063.15 1453.08 1061.99 1452.85 Q1060.84 1452.59 1059.7 1452.59 Q1056.74 1452.59 1055.16 1454.33 Q1053.59 1456.09 1053.36 1459.63 Q1054.24 1458.5 1055.56 1457.89 Q1056.9 1457.29 1058.47 1457.29 Q1061.83 1457.29 1063.78 1459.05 Q1065.72 1460.83 1065.72 1463.89 Q1065.72 1466.83 1063.68 1468.66 Q1061.67 1470.46 1058.31 1470.46 Q1054.45 1470.46 1052.41 1467.89 Q1050.37 1465.33 1050.37 1460.42 Q1050.37 1455.83 1052.87 1453.13 Q1055.37 1450.39 1059.59 1450.39 Q1060.72 1450.39 1061.88 1450.58 Q1063.04 1450.79 1064.29 1451.16 Z" fill="#000000" fill-rule="evenodd" fill-opacity="1" /><path clip-path="url(#clip000)" d="M1202.29 1454.1 Q1198.68 1454.1 1196.85 1457.66 Q1195.05 1461.2 1195.05 1468.33 Q1195.05 1475.44 1196.85 1479.01 Q1198.68 1482.55 1202.29 1482.55 Q1205.93 1482.55 1207.73 1479.01 Q1209.56 1475.44 1209.56 1468.33 Q1209.56 1461.2 1207.73 1457.66 Q1205.93 1454.1 1202.29 1454.1 M1202.29 1450.39 Q1208.1 1450.39 1211.16 1455 Q1214.24 1459.58 1214.24 1468.33 Q1214.24 1477.06 1211.16 1481.67 Q1208.1 1486.25 1202.29 1486.25 Q1196.48 1486.25 1193.4 1481.67 Q1190.35 1477.06 1190.35 1468.33 Q1190.35 1459.58 1193.4 1455 Q1196.48 1450.39 1202.29 1450.39 Z" fill="#000000" fill-rule="evenodd" fill-opacity="1" /><path clip-path="url(#clip000)" d="M1222.45 1479.7 L1227.34 1479.7 L1227.34 1485.58 L1222.45 1485.58 L1222.45 1479.7 Z" fill="#000000" fill-rule="evenodd" fill-opacity="1" /><path clip-path="url(#clip000)" d="M1236.34 1451.02 L1258.56 1451.02 L1258.56 1453.01 L1246.02 1485.58 L1241.13 1485.58 L1252.94 1454.96 L1236.34 1454.96 L1236.34 1451.02 Z" fill="#000000" fill-rule="evenodd" fill-opacity="1" /><path clip-path="url(#clip000)" d="M1267.73 1451.02 L1286.09 1451.02 L1286.09 1454.96 L1272.01 1454.96 L1272.01 1463.43 Q1273.03 1463.08 1274.05 1462.92 Q1275.07 1462.73 1276.09 1462.73 Q1281.88 1462.73 1285.25 1465.9 Q1288.63 1469.08 1288.63 1474.49 Q1288.63 1480.07 1285.16 1483.17 Q1281.69 1486.25 1275.37 1486.25 Q1273.19 1486.25 1270.93 1485.88 Q1268.68 1485.51 1266.27 1484.77 L1266.27 1480.07 Q1268.36 1481.2 1270.58 1481.76 Q1272.8 1482.32 1275.28 1482.32 Q1279.28 1482.32 1281.62 1480.21 Q1283.96 1478.1 1283.96 1474.49 Q1283.96 1470.88 1281.62 1468.77 Q1279.28 1466.67 1275.28 1466.67 Q1273.4 1466.67 1271.53 1467.08 Q1269.68 1467.5 1267.73 1468.38 L1267.73 1451.02 Z" fill="#000000" fill-rule="evenodd" fill-opacity="1" /><path clip-path="url(#clip000)" d="M1318.8 1459.65 L1309.42 1472.27 L1319.28 1485.58 L1314.26 1485.58 L1306.71 1475.39 L1299.17 1485.58 L1294.14 1485.58 L1304.21 1472.02 L1295 1459.65 L1300.02 1459.65 L1306.9 1468.89 L1313.77 1459.65 L1318.8 1459.65 Z" fill="#000000" fill-rule="evenodd" fill-opacity="1" /><path clip-path="url(#clip000)" d="M1326.71 1481.64 L1334.35 1481.64 L1334.35 1455.28 L1326.04 1456.95 L1326.04 1452.69 L1334.31 1451.02 L1338.98 1451.02 L1338.98 1481.64 L1346.62 1481.64 L1346.62 1485.58 L1326.71 1485.58 L1326.71 1481.64 Z" fill="#000000" fill-rule="evenodd" fill-opacity="1" /><path clip-path="url(#clip000)" d="M1366.06 1454.1 Q1362.45 1454.1 1360.62 1457.66 Q1358.82 1461.2 1358.82 1468.33 Q1358.82 1475.44 1360.62 1479.01 Q1362.45 1482.55 1366.06 1482.55 Q1369.7 1482.55 1371.5 1479.01 Q1373.33 1475.44 1373.33 1468.33 Q1373.33 1461.2 1371.5 1457.66 Q1369.7 1454.1 1366.06 1454.1 M1366.06 1450.39 Q1371.87 1450.39 1374.93 1455 Q1378.01 1459.58 1378.01 1468.33 Q1378.01 1477.06 1374.93 1481.67 Q1371.87 1486.25 1366.06 1486.25 Q1360.25 1486.25 1357.18 1481.67 Q1354.12 1477.06 1354.12 1468.33 Q1354.12 1459.58 1357.18 1455 Q1360.25 1450.39 1366.06 1450.39 Z" fill="#000000" fill-rule="evenodd" fill-opacity="1" /><path clip-path="url(#clip000)" d="M1391.23 1459.35 Q1389.19 1459.35 1388.01 1460.56 Q1386.83 1461.78 1386.83 1463.89 Q1386.83 1465.97 1388.01 1467.18 Q1389.19 1468.4 1391.23 1468.4 Q1393.24 1468.4 1394.42 1467.18 Q1395.6 1465.97 1395.6 1463.89 Q1395.6 1461.78 1394.42 1460.56 Q1393.24 1459.35 1391.23 1459.35 M1397.2 1451.16 L1397.2 1453.54 Q1396.06 1453.08 1394.91 1452.85 Q1393.75 1452.59 1392.62 1452.59 Q1389.65 1452.59 1388.08 1454.33 Q1386.5 1456.09 1386.27 1459.63 Q1387.15 1458.5 1388.47 1457.89 Q1389.81 1457.29 1391.39 1457.29 Q1394.74 1457.29 1396.69 1459.05 Q1398.63 1460.83 1398.63 1463.89 Q1398.63 1466.83 1396.6 1468.66 Q1394.58 1470.46 1391.23 1470.46 Q1387.36 1470.46 1385.32 1467.89 Q1383.29 1465.33 1383.29 1460.42 Q1383.29 1455.83 1385.79 1453.13 Q1388.29 1450.39 1392.5 1450.39 Q1393.63 1450.39 1394.79 1450.58 Q1395.95 1450.79 1397.2 1451.16 Z" fill="#000000" fill-rule="evenodd" fill-opacity="1" /><path clip-path="url(#clip000)" d="M1524.97 1481.64 L1532.61 1481.64 L1532.61 1455.28 L1524.3 1456.95 L1524.3 1452.69 L1532.57 1451.02 L1537.24 1451.02 L1537.24 1481.64 L1544.88 1481.64 L1544.88 1485.58 L1524.97 1485.58 L1524.97 1481.64 Z" fill="#000000" fill-rule="evenodd" fill-opacity="1" /><path clip-path="url(#clip000)" d="M1554.33 1479.7 L1559.21 1479.7 L1559.21 1485.58 L1554.33 1485.58 L1554.33 1479.7 Z" fill="#000000" fill-rule="evenodd" fill-opacity="1" /><path clip-path="url(#clip000)" d="M1579.4 1454.1 Q1575.78 1454.1 1573.96 1457.66 Q1572.15 1461.2 1572.15 1468.33 Q1572.15 1475.44 1573.96 1479.01 Q1575.78 1482.55 1579.4 1482.55 Q1583.03 1482.55 1584.83 1479.01 Q1586.66 1475.44 1586.66 1468.33 Q1586.66 1461.2 1584.83 1457.66 Q1583.03 1454.1 1579.4 1454.1 M1579.4 1450.39 Q1585.21 1450.39 1588.26 1455 Q1591.34 1459.58 1591.34 1468.33 Q1591.34 1477.06 1588.26 1481.67 Q1585.21 1486.25 1579.4 1486.25 Q1573.58 1486.25 1570.51 1481.67 Q1567.45 1477.06 1567.45 1468.33 Q1567.45 1459.58 1570.51 1455 Q1573.58 1450.39 1579.4 1450.39 Z" fill="#000000" fill-rule="evenodd" fill-opacity="1" /><path clip-path="url(#clip000)" d="M1609.56 1454.1 Q1605.95 1454.1 1604.12 1457.66 Q1602.31 1461.2 1602.31 1468.33 Q1602.31 1475.44 1604.12 1479.01 Q1605.95 1482.55 1609.56 1482.55 Q1613.19 1482.55 1615 1479.01 Q1616.83 1475.44 1616.83 1468.33 Q1616.83 1461.2 1615 1457.66 Q1613.19 1454.1 1609.56 1454.1 M1609.56 1450.39 Q1615.37 1450.39 1618.42 1455 Q1621.5 1459.58 1621.5 1468.33 Q1621.5 1477.06 1618.42 1481.67 Q1615.37 1486.25 1609.56 1486.25 Q1603.75 1486.25 1600.67 1481.67 Q1597.61 1477.06 1597.61 1468.33 Q1597.61 1459.58 1600.67 1455 Q1603.75 1450.39 1609.56 1450.39 Z" fill="#000000" fill-rule="evenodd" fill-opacity="1" /><path clip-path="url(#clip000)" d="M1650.67 1459.65 L1641.29 1472.27 L1651.15 1485.58 L1646.13 1485.58 L1638.58 1475.39 L1631.04 1485.58 L1626.02 1485.58 L1636.08 1472.02 L1626.87 1459.65 L1631.89 1459.65 L1638.77 1468.89 L1645.64 1459.65 L1650.67 1459.65 Z" fill="#000000" fill-rule="evenodd" fill-opacity="1" /><path clip-path="url(#clip000)" d="M1658.58 1481.64 L1666.22 1481.64 L1666.22 1455.28 L1657.91 1456.95 L1657.91 1452.69 L1666.18 1451.02 L1670.85 1451.02 L1670.85 1481.64 L1678.49 1481.64 L1678.49 1485.58 L1658.58 1485.58 L1658.58 1481.64 Z" fill="#000000" fill-rule="evenodd" fill-opacity="1" /><path clip-path="url(#clip000)" d="M1697.94 1454.1 Q1694.33 1454.1 1692.5 1457.66 Q1690.69 1461.2 1690.69 1468.33 Q1690.69 1475.44 1692.5 1479.01 Q1694.33 1482.55 1697.94 1482.55 Q1701.57 1482.55 1703.38 1479.01 Q1705.2 1475.44 1705.2 1468.33 Q1705.2 1461.2 1703.38 1457.66 Q1701.57 1454.1 1697.94 1454.1 M1697.94 1450.39 Q1703.75 1450.39 1706.8 1455 Q1709.88 1459.58 1709.88 1468.33 Q1709.88 1477.06 1706.8 1481.67 Q1703.75 1486.25 1697.94 1486.25 Q1692.13 1486.25 1689.05 1481.67 Q1685.99 1477.06 1685.99 1468.33 Q1685.99 1459.58 1689.05 1455 Q1692.13 1450.39 1697.94 1450.39 Z" fill="#000000" fill-rule="evenodd" fill-opacity="1" /><path clip-path="url(#clip000)" d="M1723.1 1459.35 Q1721.06 1459.35 1719.88 1460.56 Q1718.7 1461.78 1718.7 1463.89 Q1718.7 1465.97 1719.88 1467.18 Q1721.06 1468.4 1723.1 1468.4 Q1725.11 1468.4 1726.29 1467.18 Q1727.47 1465.97 1727.47 1463.89 Q1727.47 1461.78 1726.29 1460.56 Q1725.11 1459.35 1723.1 1459.35 M1729.07 1451.16 L1729.07 1453.54 Q1727.94 1453.08 1726.78 1452.85 Q1725.62 1452.59 1724.49 1452.59 Q1721.52 1452.59 1719.95 1454.33 Q1718.38 1456.09 1718.14 1459.63 Q1719.02 1458.5 1720.34 1457.89 Q1721.69 1457.29 1723.26 1457.29 Q1726.62 1457.29 1728.56 1459.05 Q1730.51 1460.83 1730.51 1463.89 Q1730.51 1466.83 1728.47 1468.66 Q1726.45 1470.46 1723.1 1470.46 Q1719.23 1470.46 1717.2 1467.89 Q1715.16 1465.33 1715.16 1460.42 Q1715.16 1455.83 1717.66 1453.13 Q1720.16 1450.39 1724.37 1450.39 Q1725.51 1450.39 1726.66 1450.58 Q1727.82 1450.79 1729.07 1451.16 Z" fill="#000000" fill-rule="evenodd" fill-opacity="1" /><path clip-path="url(#clip000)" d="M1857.89 1481.64 L1865.53 1481.64 L1865.53 1455.28 L1857.22 1456.95 L1857.22 1452.69 L1865.48 1451.02 L1870.16 1451.02 L1870.16 1481.64 L1877.79 1481.64 L1877.79 1485.58 L1857.89 1485.58 L1857.89 1481.64 Z" fill="#000000" fill-rule="evenodd" fill-opacity="1" /><path clip-path="url(#clip000)" d="M1887.24 1479.7 L1892.12 1479.7 L1892.12 1485.58 L1887.24 1485.58 L1887.24 1479.7 Z" fill="#000000" fill-rule="evenodd" fill-opacity="1" /><path clip-path="url(#clip000)" d="M1906.34 1481.64 L1922.66 1481.64 L1922.66 1485.58 L1900.71 1485.58 L1900.71 1481.64 Q1903.37 1478.89 1907.96 1474.26 Q1912.56 1469.61 1913.74 1468.27 Q1915.99 1465.74 1916.87 1464.01 Q1917.77 1462.25 1917.77 1460.56 Q1917.77 1457.8 1915.83 1456.07 Q1913.91 1454.33 1910.8 1454.33 Q1908.6 1454.33 1906.15 1455.09 Q1903.72 1455.86 1900.94 1457.41 L1900.94 1452.69 Q1903.77 1451.55 1906.22 1450.97 Q1908.67 1450.39 1910.71 1450.39 Q1916.08 1450.39 1919.28 1453.08 Q1922.47 1455.77 1922.47 1460.26 Q1922.47 1462.39 1921.66 1464.31 Q1920.87 1466.2 1918.77 1468.8 Q1918.19 1469.47 1915.09 1472.69 Q1911.98 1475.88 1906.34 1481.64 Z" fill="#000000" fill-rule="evenodd" fill-opacity="1" /><path clip-path="url(#clip000)" d="M1932.52 1451.02 L1950.87 1451.02 L1950.87 1454.96 L1936.8 1454.96 L1936.8 1463.43 Q1937.82 1463.08 1938.84 1462.92 Q1939.85 1462.73 1940.87 1462.73 Q1946.66 1462.73 1950.04 1465.9 Q1953.42 1469.08 1953.42 1474.49 Q1953.42 1480.07 1949.95 1483.17 Q1946.48 1486.25 1940.16 1486.25 Q1937.98 1486.25 1935.71 1485.88 Q1933.47 1485.51 1931.06 1484.77 L1931.06 1480.07 Q1933.14 1481.2 1935.36 1481.76 Q1937.59 1482.32 1940.06 1482.32 Q1944.07 1482.32 1946.41 1480.21 Q1948.74 1478.1 1948.74 1474.49 Q1948.74 1470.88 1946.41 1468.77 Q1944.07 1466.67 1940.06 1466.67 Q1938.19 1466.67 1936.31 1467.08 Q1934.46 1467.5 1932.52 1468.38 L1932.52 1451.02 Z" fill="#000000" fill-rule="evenodd" fill-opacity="1" /><path clip-path="url(#clip000)" d="M1983.58 1459.65 L1974.21 1472.27 L1984.07 1485.58 L1979.04 1485.58 L1971.5 1475.39 L1963.95 1485.58 L1958.93 1485.58 L1969 1472.02 L1959.79 1459.65 L1964.81 1459.65 L1971.68 1468.89 L1978.56 1459.65 L1983.58 1459.65 Z" fill="#000000" fill-rule="evenodd" fill-opacity="1" /><path clip-path="url(#clip000)" d="M1991.5 1481.64 L1999.14 1481.64 L1999.14 1455.28 L1990.83 1456.95 L1990.83 1452.69 L1999.09 1451.02 L2003.77 1451.02 L2003.77 1481.64 L2011.41 1481.64 L2011.41 1485.58 L1991.5 1485.58 L1991.5 1481.64 Z" fill="#000000" fill-rule="evenodd" fill-opacity="1" /><path clip-path="url(#clip000)" d="M2030.85 1454.1 Q2027.24 1454.1 2025.41 1457.66 Q2023.6 1461.2 2023.6 1468.33 Q2023.6 1475.44 2025.41 1479.01 Q2027.24 1482.55 2030.85 1482.55 Q2034.48 1482.55 2036.29 1479.01 Q2038.12 1475.44 2038.12 1468.33 Q2038.12 1461.2 2036.29 1457.66 Q2034.48 1454.1 2030.85 1454.1 M2030.85 1450.39 Q2036.66 1450.39 2039.72 1455 Q2042.79 1459.58 2042.79 1468.33 Q2042.79 1477.06 2039.72 1481.67 Q2036.66 1486.25 2030.85 1486.25 Q2025.04 1486.25 2021.96 1481.67 Q2018.91 1477.06 2018.91 1468.33 Q2018.91 1459.58 2021.96 1455 Q2025.04 1450.39 2030.85 1450.39 Z" fill="#000000" fill-rule="evenodd" fill-opacity="1" /><path clip-path="url(#clip000)" d="M2056.01 1459.35 Q2053.97 1459.35 2052.79 1460.56 Q2051.61 1461.78 2051.61 1463.89 Q2051.61 1465.97 2052.79 1467.18 Q2053.97 1468.4 2056.01 1468.4 Q2058.03 1468.4 2059.21 1467.18 Q2060.39 1465.97 2060.39 1463.89 Q2060.39 1461.78 2059.21 1460.56 Q2058.03 1459.35 2056.01 1459.35 M2061.98 1451.16 L2061.98 1453.54 Q2060.85 1453.08 2059.69 1452.85 Q2058.53 1452.59 2057.4 1452.59 Q2054.44 1452.59 2052.86 1454.33 Q2051.29 1456.09 2051.06 1459.63 Q2051.94 1458.5 2053.26 1457.89 Q2054.6 1457.29 2056.17 1457.29 Q2059.53 1457.29 2061.47 1459.05 Q2063.42 1460.83 2063.42 1463.89 Q2063.42 1466.83 2061.38 1468.66 Q2059.37 1470.46 2056.01 1470.46 Q2052.15 1470.46 2050.11 1467.89 Q2048.07 1465.33 2048.07 1460.42 Q2048.07 1455.83 2050.57 1453.13 Q2053.07 1450.39 2057.28 1450.39 Q2058.42 1450.39 2059.58 1450.58 Q2060.73 1450.79 2061.98 1451.16 Z" fill="#000000" fill-rule="evenodd" fill-opacity="1" /><path clip-path="url(#clip000)" d="M2190.8 1481.64 L2198.44 1481.64 L2198.44 1455.28 L2190.13 1456.95 L2190.13 1452.69 L2198.39 1451.02 L2203.07 1451.02 L2203.07 1481.64 L2210.71 1481.64 L2210.71 1485.58 L2190.8 1485.58 L2190.8 1481.64 Z" fill="#000000" fill-rule="evenodd" fill-opacity="1" /><path clip-path="url(#clip000)" d="M2220.15 1479.7 L2225.04 1479.7 L2225.04 1485.58 L2220.15 1485.58 L2220.15 1479.7 Z" fill="#000000" fill-rule="evenodd" fill-opacity="1" /><path clip-path="url(#clip000)" d="M2235.27 1451.02 L2253.62 1451.02 L2253.62 1454.96 L2239.55 1454.96 L2239.55 1463.43 Q2240.57 1463.08 2241.59 1462.92 Q2242.61 1462.73 2243.62 1462.73 Q2249.41 1462.73 2252.79 1465.9 Q2256.17 1469.08 2256.17 1474.49 Q2256.17 1480.07 2252.7 1483.17 Q2249.23 1486.25 2242.91 1486.25 Q2240.73 1486.25 2238.46 1485.88 Q2236.22 1485.51 2233.81 1484.77 L2233.81 1480.07 Q2235.89 1481.2 2238.12 1481.76 Q2240.34 1482.32 2242.81 1482.32 Q2246.82 1482.32 2249.16 1480.21 Q2251.5 1478.1 2251.5 1474.49 Q2251.5 1470.88 2249.16 1468.77 Q2246.82 1466.67 2242.81 1466.67 Q2240.94 1466.67 2239.06 1467.08 Q2237.21 1467.5 2235.27 1468.38 L2235.27 1451.02 Z" fill="#000000" fill-rule="evenodd" fill-opacity="1" /><path clip-path="url(#clip000)" d="M2275.38 1454.1 Q2271.77 1454.1 2269.94 1457.66 Q2268.14 1461.2 2268.14 1468.33 Q2268.14 1475.44 2269.94 1479.01 Q2271.77 1482.55 2275.38 1482.55 Q2279.02 1482.55 2280.82 1479.01 Q2282.65 1475.44 2282.65 1468.33 Q2282.65 1461.2 2280.82 1457.66 Q2279.02 1454.1 2275.38 1454.1 M2275.38 1450.39 Q2281.19 1450.39 2284.25 1455 Q2287.33 1459.58 2287.33 1468.33 Q2287.33 1477.06 2284.25 1481.67 Q2281.19 1486.25 2275.38 1486.25 Q2269.57 1486.25 2266.5 1481.67 Q2263.44 1477.06 2263.44 1468.33 Q2263.44 1459.58 2266.5 1455 Q2269.57 1450.39 2275.38 1450.39 Z" fill="#000000" fill-rule="evenodd" fill-opacity="1" /><path clip-path="url(#clip000)" d="M2316.49 1459.65 L2307.12 1472.27 L2316.98 1485.58 L2311.96 1485.58 L2304.41 1475.39 L2296.87 1485.58 L2291.84 1485.58 L2301.91 1472.02 L2292.7 1459.65 L2297.72 1459.65 L2304.6 1468.89 L2311.47 1459.65 L2316.49 1459.65 Z" fill="#000000" fill-rule="evenodd" fill-opacity="1" /><path clip-path="url(#clip000)" d="M2324.41 1481.64 L2332.05 1481.64 L2332.05 1455.28 L2323.74 1456.95 L2323.74 1452.69 L2332 1451.02 L2336.68 1451.02 L2336.68 1481.64 L2344.32 1481.64 L2344.32 1485.58 L2324.41 1485.58 L2324.41 1481.64 Z" fill="#000000" fill-rule="evenodd" fill-opacity="1" /><path clip-path="url(#clip000)" d="M2363.76 1454.1 Q2360.15 1454.1 2358.32 1457.66 Q2356.52 1461.2 2356.52 1468.33 Q2356.52 1475.44 2358.32 1479.01 Q2360.15 1482.55 2363.76 1482.55 Q2367.4 1482.55 2369.2 1479.01 Q2371.03 1475.44 2371.03 1468.33 Q2371.03 1461.2 2369.2 1457.66 Q2367.4 1454.1 2363.76 1454.1 M2363.76 1450.39 Q2369.57 1450.39 2372.63 1455 Q2375.71 1459.58 2375.71 1468.33 Q2375.71 1477.06 2372.63 1481.67 Q2369.57 1486.25 2363.76 1486.25 Q2357.95 1486.25 2354.87 1481.67 Q2351.82 1477.06 2351.82 1468.33 Q2351.82 1459.58 2354.87 1455 Q2357.95 1450.39 2363.76 1450.39 Z" fill="#000000" fill-rule="evenodd" fill-opacity="1" /><path clip-path="url(#clip000)" d="M2388.92 1459.35 Q2386.89 1459.35 2385.71 1460.56 Q2384.53 1461.78 2384.53 1463.89 Q2384.53 1465.97 2385.71 1467.18 Q2386.89 1468.4 2388.92 1468.4 Q2390.94 1468.4 2392.12 1467.18 Q2393.3 1465.97 2393.3 1463.89 Q2393.3 1461.78 2392.12 1460.56 Q2390.94 1459.35 2388.92 1459.35 M2394.9 1451.16 L2394.9 1453.54 Q2393.76 1453.08 2392.61 1452.85 Q2391.45 1452.59 2390.31 1452.59 Q2387.35 1452.59 2385.78 1454.33 Q2384.2 1456.09 2383.97 1459.63 Q2384.85 1458.5 2386.17 1457.89 Q2387.51 1457.29 2389.09 1457.29 Q2392.44 1457.29 2394.39 1459.05 Q2396.33 1460.83 2396.33 1463.89 Q2396.33 1466.83 2394.3 1468.66 Q2392.28 1470.46 2388.92 1470.46 Q2385.06 1470.46 2383.02 1467.89 Q2380.99 1465.33 2380.99 1460.42 Q2380.99 1455.83 2383.49 1453.13 Q2385.99 1450.39 2390.2 1450.39 Q2391.33 1450.39 2392.49 1450.58 Q2393.65 1450.79 2394.9 1451.16 Z" fill="#000000" fill-rule="evenodd" fill-opacity="1" /><path clip-path="url(#clip000)" d="M1150.71 1520.52 L1157.14 1520.52 L1157.14 1568.04 L1150.71 1568.04 L1150.71 1520.52 Z" fill="#000000" fill-rule="evenodd" fill-opacity="1" /><path clip-path="url(#clip000)" d="M1175.47 1522.27 L1175.47 1532.4 L1187.54 1532.4 L1187.54 1536.95 L1175.47 1536.95 L1175.47 1556.3 Q1175.47 1560.66 1176.65 1561.9 Q1177.86 1563.14 1181.52 1563.14 L1187.54 1563.14 L1187.54 1568.04 L1181.52 1568.04 Q1174.74 1568.04 1172.16 1565.53 Q1169.59 1562.98 1169.59 1556.3 L1169.59 1536.95 L1165.29 1536.95 L1165.29 1532.4 L1169.59 1532.4 L1169.59 1522.27 L1175.47 1522.27 Z" fill="#000000" fill-rule="evenodd" fill-opacity="1" /><path clip-path="url(#clip000)" d="M1225.73 1548.76 L1225.73 1551.62 L1198.8 1551.62 Q1199.19 1557.67 1202.43 1560.85 Q1205.71 1564 1211.54 1564 Q1214.91 1564 1218.06 1563.17 Q1221.24 1562.35 1224.36 1560.69 L1224.36 1566.23 Q1221.21 1567.57 1217.9 1568.27 Q1214.59 1568.97 1211.19 1568.97 Q1202.66 1568.97 1197.66 1564 Q1192.69 1559.04 1192.69 1550.57 Q1192.69 1541.82 1197.4 1536.69 Q1202.15 1531.54 1210.17 1531.54 Q1217.36 1531.54 1221.53 1536.18 Q1225.73 1540.8 1225.73 1548.76 M1219.87 1547.04 Q1219.81 1542.23 1217.17 1539.37 Q1214.56 1536.5 1210.23 1536.5 Q1205.33 1536.5 1202.37 1539.27 Q1199.44 1542.04 1199 1547.07 L1219.87 1547.04 Z" fill="#000000" fill-rule="evenodd" fill-opacity="1" /><path clip-path="url(#clip000)" d="M1256 1537.87 Q1255.01 1537.3 1253.84 1537.04 Q1252.69 1536.76 1251.29 1536.76 Q1246.32 1536.76 1243.65 1540 Q1241.01 1543.22 1241.01 1549.27 L1241.01 1568.04 L1235.12 1568.04 L1235.12 1532.4 L1241.01 1532.4 L1241.01 1537.93 Q1242.86 1534.69 1245.82 1533.13 Q1248.78 1531.54 1253.01 1531.54 Q1253.61 1531.54 1254.35 1531.63 Q1255.08 1531.7 1255.97 1531.85 L1256 1537.87 Z" fill="#000000" fill-rule="evenodd" fill-opacity="1" /><path clip-path="url(#clip000)" d="M1278.34 1550.12 Q1271.25 1550.12 1268.51 1551.75 Q1265.77 1553.37 1265.77 1557.29 Q1265.77 1560.4 1267.81 1562.25 Q1269.88 1564.07 1273.41 1564.07 Q1278.28 1564.07 1281.21 1560.63 Q1284.17 1557.16 1284.17 1551.43 L1284.17 1550.12 L1278.34 1550.12 M1290.02 1547.71 L1290.02 1568.04 L1284.17 1568.04 L1284.17 1562.63 Q1282.16 1565.88 1279.17 1567.44 Q1276.18 1568.97 1271.85 1568.97 Q1266.38 1568.97 1263.13 1565.91 Q1259.92 1562.82 1259.92 1557.67 Q1259.92 1551.65 1263.93 1548.6 Q1267.97 1545.54 1275.96 1545.54 L1284.17 1545.54 L1284.17 1544.97 Q1284.17 1540.93 1281.49 1538.73 Q1278.85 1536.5 1274.05 1536.5 Q1270.99 1536.5 1268.1 1537.23 Q1265.2 1537.97 1262.53 1539.43 L1262.53 1534.02 Q1265.74 1532.78 1268.76 1532.17 Q1271.79 1531.54 1274.65 1531.54 Q1282.39 1531.54 1286.21 1535.55 Q1290.02 1539.56 1290.02 1547.71 Z" fill="#000000" fill-rule="evenodd" fill-opacity="1" /><path clip-path="url(#clip000)" d="M1307.88 1522.27 L1307.88 1532.4 L1319.94 1532.4 L1319.94 1536.95 L1307.88 1536.95 L1307.88 1556.3 Q1307.88 1560.66 1309.06 1561.9 Q1310.27 1563.14 1313.93 1563.14 L1319.94 1563.14 L1319.94 1568.04 L1313.93 1568.04 Q1307.15 1568.04 1304.57 1565.53 Q1301.99 1562.98 1301.99 1556.3 L1301.99 1536.95 L1297.7 1536.95 L1297.7 1532.4 L1301.99 1532.4 L1301.99 1522.27 L1307.88 1522.27 Z" fill="#000000" fill-rule="evenodd" fill-opacity="1" /><path clip-path="url(#clip000)" d="M1327.65 1532.4 L1333.5 1532.4 L1333.5 1568.04 L1327.65 1568.04 L1327.65 1532.4 M1327.65 1518.52 L1333.5 1518.52 L1333.5 1525.93 L1327.65 1525.93 L1327.65 1518.52 Z" fill="#000000" fill-rule="evenodd" fill-opacity="1" /><path clip-path="url(#clip000)" d="M1359.57 1536.5 Q1354.86 1536.5 1352.12 1540.19 Q1349.39 1543.85 1349.39 1550.25 Q1349.39 1556.65 1352.09 1560.34 Q1354.83 1564 1359.57 1564 Q1364.25 1564 1366.99 1560.31 Q1369.72 1556.62 1369.72 1550.25 Q1369.72 1543.92 1366.99 1540.23 Q1364.25 1536.5 1359.57 1536.5 M1359.57 1531.54 Q1367.21 1531.54 1371.57 1536.5 Q1375.93 1541.47 1375.93 1550.25 Q1375.93 1559 1371.57 1564 Q1367.21 1568.97 1359.57 1568.97 Q1351.9 1568.97 1347.54 1564 Q1343.21 1559 1343.21 1550.25 Q1343.21 1541.47 1347.54 1536.5 Q1351.9 1531.54 1359.57 1531.54 Z" fill="#000000" fill-rule="evenodd" fill-opacity="1" /><path clip-path="url(#clip000)" d="M1415.27 1546.53 L1415.27 1568.04 L1409.41 1568.04 L1409.41 1546.72 Q1409.41 1541.66 1407.44 1539.14 Q1405.47 1536.63 1401.52 1536.63 Q1396.78 1536.63 1394.04 1539.65 Q1391.3 1542.68 1391.3 1547.9 L1391.3 1568.04 L1385.42 1568.04 L1385.42 1532.4 L1391.3 1532.4 L1391.3 1537.93 Q1393.4 1534.72 1396.24 1533.13 Q1399.1 1531.54 1402.83 1531.54 Q1408.97 1531.54 1412.12 1535.36 Q1415.27 1539.14 1415.27 1546.53 Z" fill="#000000" fill-rule="evenodd" fill-opacity="1" /><path clip-path="url(#clip000)" d="M1449.68 1533.45 L1449.68 1538.98 Q1447.19 1537.71 1444.52 1537.07 Q1441.85 1536.44 1438.98 1536.44 Q1434.62 1536.44 1432.43 1537.77 Q1430.26 1539.11 1430.26 1541.79 Q1430.26 1543.82 1431.82 1545 Q1433.38 1546.15 1438.09 1547.2 L1440.1 1547.64 Q1446.33 1548.98 1448.94 1551.43 Q1451.59 1553.85 1451.59 1558.21 Q1451.59 1563.17 1447.64 1566.07 Q1443.72 1568.97 1436.85 1568.97 Q1433.99 1568.97 1430.87 1568.39 Q1427.78 1567.85 1424.34 1566.74 L1424.34 1560.69 Q1427.59 1562.38 1430.74 1563.24 Q1433.89 1564.07 1436.98 1564.07 Q1441.11 1564.07 1443.34 1562.66 Q1445.57 1561.23 1445.57 1558.65 Q1445.57 1556.27 1443.95 1554.99 Q1442.36 1553.72 1436.91 1552.54 L1434.88 1552.07 Q1429.43 1550.92 1427.01 1548.56 Q1424.6 1546.18 1424.6 1542.04 Q1424.6 1537.01 1428.16 1534.27 Q1431.73 1531.54 1438.28 1531.54 Q1441.53 1531.54 1444.39 1532.01 Q1447.26 1532.49 1449.68 1533.45 Z" fill="#000000" fill-rule="evenodd" fill-opacity="1" /><polyline clip-path="url(#clip002)" style="stroke:#000000; stroke-linecap:round; stroke-linejoin:round; stroke-width:2; stroke-opacity:0.1; fill:none" points="
  249.542,1384.24 2352.76,1384.24 
  "/>
<polyline clip-path="url(#clip002)" style="stroke:#000000; stroke-linecap:round; stroke-linejoin:round; stroke-width:2; stroke-opacity:0.1; fill:none" points="
  249.542,1059.73 2352.76,1059.73 
  "/>
<polyline clip-path="url(#clip002)" style="stroke:#000000; stroke-linecap:round; stroke-linejoin:round; stroke-width:2; stroke-opacity:0.1; fill:none" points="
  249.542,735.212 2352.76,735.212 
  "/>
<polyline clip-path="url(#clip002)" style="stroke:#000000; stroke-linecap:round; stroke-linejoin:round; stroke-width:2; stroke-opacity:0.1; fill:none" points="
  249.542,410.699 2352.76,410.699 
  "/>
<polyline clip-path="url(#clip002)" style="stroke:#000000; stroke-linecap:round; stroke-linejoin:round; stroke-width:2; stroke-opacity:0.1; fill:none" points="
  249.542,86.1857 2352.76,86.1857 
  "/>
<polyline clip-path="url(#clip000)" style="stroke:#000000; stroke-linecap:round; stroke-linejoin:round; stroke-width:4; stroke-opacity:1; fill:none" points="
  249.542,1423.18 249.542,47.2441 
  "/>
<polyline clip-path="url(#clip000)" style="stroke:#000000; stroke-linecap:round; stroke-linejoin:round; stroke-width:4; stroke-opacity:1; fill:none" points="
  249.542,1384.24 268.44,1384.24 
  "/>
<polyline clip-path="url(#clip000)" style="stroke:#000000; stroke-linecap:round; stroke-linejoin:round; stroke-width:4; stroke-opacity:1; fill:none" points="
  249.542,1059.73 268.44,1059.73 
  "/>
<polyline clip-path="url(#clip000)" style="stroke:#000000; stroke-linecap:round; stroke-linejoin:round; stroke-width:4; stroke-opacity:1; fill:none" points="
  249.542,735.212 268.44,735.212 
  "/>
<polyline clip-path="url(#clip000)" style="stroke:#000000; stroke-linecap:round; stroke-linejoin:round; stroke-width:4; stroke-opacity:1; fill:none" points="
  249.542,410.699 268.44,410.699 
  "/>
<polyline clip-path="url(#clip000)" style="stroke:#000000; stroke-linecap:round; stroke-linejoin:round; stroke-width:4; stroke-opacity:1; fill:none" points="
  249.542,86.1857 268.44,86.1857 
  "/>
<path clip-path="url(#clip000)" d="M126.205 1370.04 Q122.593 1370.04 120.765 1373.6 Q118.959 1377.14 118.959 1384.27 Q118.959 1391.38 120.765 1394.94 Q122.593 1398.49 126.205 1398.49 Q129.839 1398.49 131.644 1394.94 Q133.473 1391.38 133.473 1384.27 Q133.473 1377.14 131.644 1373.6 Q129.839 1370.04 126.205 1370.04 M126.205 1366.33 Q132.015 1366.33 135.07 1370.94 Q138.149 1375.52 138.149 1384.27 Q138.149 1393 135.07 1397.61 Q132.015 1402.19 126.205 1402.19 Q120.394 1402.19 117.316 1397.61 Q114.26 1393 114.26 1384.27 Q114.26 1375.52 117.316 1370.94 Q120.394 1366.33 126.205 1366.33 Z" fill="#000000" fill-rule="evenodd" fill-opacity="1" /><path clip-path="url(#clip000)" d="M146.366 1395.64 L151.251 1395.64 L151.251 1401.52 L146.366 1401.52 L146.366 1395.64 Z" fill="#000000" fill-rule="evenodd" fill-opacity="1" /><path clip-path="url(#clip000)" d="M171.436 1370.04 Q167.825 1370.04 165.996 1373.6 Q164.19 1377.14 164.19 1384.27 Q164.19 1391.38 165.996 1394.94 Q167.825 1398.49 171.436 1398.49 Q175.07 1398.49 176.876 1394.94 Q178.704 1391.38 178.704 1384.27 Q178.704 1377.14 176.876 1373.6 Q175.07 1370.04 171.436 1370.04 M171.436 1366.33 Q177.246 1366.33 180.301 1370.94 Q183.38 1375.52 183.38 1384.27 Q183.38 1393 180.301 1397.61 Q177.246 1402.19 171.436 1402.19 Q165.626 1402.19 162.547 1397.61 Q159.491 1393 159.491 1384.27 Q159.491 1375.52 162.547 1370.94 Q165.626 1366.33 171.436 1366.33 Z" fill="#000000" fill-rule="evenodd" fill-opacity="1" /><path clip-path="url(#clip000)" d="M201.598 1370.04 Q197.987 1370.04 196.158 1373.6 Q194.352 1377.14 194.352 1384.27 Q194.352 1391.38 196.158 1394.94 Q197.987 1398.49 201.598 1398.49 Q205.232 1398.49 207.037 1394.94 Q208.866 1391.38 208.866 1384.27 Q208.866 1377.14 207.037 1373.6 Q205.232 1370.04 201.598 1370.04 M201.598 1366.33 Q207.408 1366.33 210.463 1370.94 Q213.542 1375.52 213.542 1384.27 Q213.542 1393 210.463 1397.61 Q207.408 1402.19 201.598 1402.19 Q195.787 1402.19 192.709 1397.61 Q189.653 1393 189.653 1384.27 Q189.653 1375.52 192.709 1370.94 Q195.787 1366.33 201.598 1366.33 Z" fill="#000000" fill-rule="evenodd" fill-opacity="1" /><path clip-path="url(#clip000)" d="M127.2 1045.52 Q123.589 1045.52 121.76 1049.09 Q119.955 1052.63 119.955 1059.76 Q119.955 1066.87 121.76 1070.43 Q123.589 1073.97 127.2 1073.97 Q130.834 1073.97 132.64 1070.43 Q134.468 1066.87 134.468 1059.76 Q134.468 1052.63 132.64 1049.09 Q130.834 1045.52 127.2 1045.52 M127.2 1041.82 Q133.01 1041.82 136.066 1046.43 Q139.144 1051.01 139.144 1059.76 Q139.144 1068.49 136.066 1073.09 Q133.01 1077.68 127.2 1077.68 Q121.39 1077.68 118.311 1073.09 Q115.256 1068.49 115.256 1059.76 Q115.256 1051.01 118.311 1046.43 Q121.39 1041.82 127.2 1041.82 Z" fill="#000000" fill-rule="evenodd" fill-opacity="1" /><path clip-path="url(#clip000)" d="M147.362 1071.13 L152.246 1071.13 L152.246 1077.01 L147.362 1077.01 L147.362 1071.13 Z" fill="#000000" fill-rule="evenodd" fill-opacity="1" /><path clip-path="url(#clip000)" d="M166.459 1073.07 L182.778 1073.07 L182.778 1077.01 L160.834 1077.01 L160.834 1073.07 Q163.496 1070.32 168.079 1065.69 Q172.686 1061.03 173.866 1059.69 Q176.112 1057.17 176.991 1055.43 Q177.894 1053.67 177.894 1051.98 Q177.894 1049.23 175.95 1047.49 Q174.028 1045.76 170.927 1045.76 Q168.727 1045.76 166.274 1046.52 Q163.843 1047.28 161.065 1048.83 L161.065 1044.11 Q163.89 1042.98 166.343 1042.4 Q168.797 1041.82 170.834 1041.82 Q176.204 1041.82 179.399 1044.51 Q182.593 1047.19 182.593 1051.68 Q182.593 1053.81 181.783 1055.73 Q180.996 1057.63 178.889 1060.22 Q178.311 1060.89 175.209 1064.11 Q172.107 1067.31 166.459 1073.07 Z" fill="#000000" fill-rule="evenodd" fill-opacity="1" /><path clip-path="url(#clip000)" d="M192.639 1042.45 L210.996 1042.45 L210.996 1046.38 L196.922 1046.38 L196.922 1054.85 Q197.94 1054.51 198.959 1054.34 Q199.977 1054.16 200.996 1054.16 Q206.783 1054.16 210.162 1057.33 Q213.542 1060.5 213.542 1065.92 Q213.542 1071.5 210.07 1074.6 Q206.598 1077.68 200.278 1077.68 Q198.102 1077.68 195.834 1077.31 Q193.588 1076.94 191.181 1076.19 L191.181 1071.5 Q193.264 1072.63 195.487 1073.19 Q197.709 1073.74 200.186 1073.74 Q204.19 1073.74 206.528 1071.63 Q208.866 1069.53 208.866 1065.92 Q208.866 1062.31 206.528 1060.2 Q204.19 1058.09 200.186 1058.09 Q198.311 1058.09 196.436 1058.51 Q194.584 1058.93 192.639 1059.81 L192.639 1042.45 Z" fill="#000000" fill-rule="evenodd" fill-opacity="1" /><path clip-path="url(#clip000)" d="M126.205 721.011 Q122.593 721.011 120.765 724.575 Q118.959 728.117 118.959 735.247 Q118.959 742.353 120.765 745.918 Q122.593 749.46 126.205 749.46 Q129.839 749.46 131.644 745.918 Q133.473 742.353 133.473 735.247 Q133.473 728.117 131.644 724.575 Q129.839 721.011 126.205 721.011 M126.205 717.307 Q132.015 717.307 135.07 721.913 Q138.149 726.497 138.149 735.247 Q138.149 743.973 135.07 748.58 Q132.015 753.163 126.205 753.163 Q120.394 753.163 117.316 748.58 Q114.26 743.973 114.26 735.247 Q114.26 726.497 117.316 721.913 Q120.394 717.307 126.205 717.307 Z" fill="#000000" fill-rule="evenodd" fill-opacity="1" /><path clip-path="url(#clip000)" d="M146.366 746.612 L151.251 746.612 L151.251 752.492 L146.366 752.492 L146.366 746.612 Z" fill="#000000" fill-rule="evenodd" fill-opacity="1" /><path clip-path="url(#clip000)" d="M161.482 717.932 L179.839 717.932 L179.839 721.867 L165.765 721.867 L165.765 730.339 Q166.783 729.992 167.802 729.83 Q168.82 729.645 169.839 729.645 Q175.626 729.645 179.005 732.816 Q182.385 735.987 182.385 741.404 Q182.385 746.983 178.913 750.085 Q175.44 753.163 169.121 753.163 Q166.945 753.163 164.677 752.793 Q162.431 752.423 160.024 751.682 L160.024 746.983 Q162.107 748.117 164.329 748.673 Q166.552 749.228 169.028 749.228 Q173.033 749.228 175.371 747.122 Q177.709 745.015 177.709 741.404 Q177.709 737.793 175.371 735.687 Q173.033 733.58 169.028 733.58 Q167.153 733.58 165.278 733.997 Q163.427 734.413 161.482 735.293 L161.482 717.932 Z" fill="#000000" fill-rule="evenodd" fill-opacity="1" /><path clip-path="url(#clip000)" d="M201.598 721.011 Q197.987 721.011 196.158 724.575 Q194.352 728.117 194.352 735.247 Q194.352 742.353 196.158 745.918 Q197.987 749.46 201.598 749.46 Q205.232 749.46 207.037 745.918 Q208.866 742.353 208.866 735.247 Q208.866 728.117 207.037 724.575 Q205.232 721.011 201.598 721.011 M201.598 717.307 Q207.408 717.307 210.463 721.913 Q213.542 726.497 213.542 735.247 Q213.542 743.973 210.463 748.58 Q207.408 753.163 201.598 753.163 Q195.787 753.163 192.709 748.58 Q189.653 743.973 189.653 735.247 Q189.653 726.497 192.709 721.913 Q195.787 717.307 201.598 717.307 Z" fill="#000000" fill-rule="evenodd" fill-opacity="1" /><path clip-path="url(#clip000)" d="M127.2 396.498 Q123.589 396.498 121.76 400.062 Q119.955 403.604 119.955 410.734 Q119.955 417.84 121.76 421.405 Q123.589 424.946 127.2 424.946 Q130.834 424.946 132.64 421.405 Q134.468 417.84 134.468 410.734 Q134.468 403.604 132.64 400.062 Q130.834 396.498 127.2 396.498 M127.2 392.794 Q133.01 392.794 136.066 397.4 Q139.144 401.984 139.144 410.734 Q139.144 419.46 136.066 424.067 Q133.01 428.65 127.2 428.65 Q121.39 428.65 118.311 424.067 Q115.256 419.46 115.256 410.734 Q115.256 401.984 118.311 397.4 Q121.39 392.794 127.2 392.794 Z" fill="#000000" fill-rule="evenodd" fill-opacity="1" /><path clip-path="url(#clip000)" d="M147.362 422.099 L152.246 422.099 L152.246 427.979 L147.362 427.979 L147.362 422.099 Z" fill="#000000" fill-rule="evenodd" fill-opacity="1" /><path clip-path="url(#clip000)" d="M161.251 393.419 L183.473 393.419 L183.473 395.41 L170.927 427.979 L166.042 427.979 L177.848 397.354 L161.251 397.354 L161.251 393.419 Z" fill="#000000" fill-rule="evenodd" fill-opacity="1" /><path clip-path="url(#clip000)" d="M192.639 393.419 L210.996 393.419 L210.996 397.354 L196.922 397.354 L196.922 405.826 Q197.94 405.479 198.959 405.317 Q199.977 405.132 200.996 405.132 Q206.783 405.132 210.162 408.303 Q213.542 411.474 213.542 416.891 Q213.542 422.47 210.07 425.571 Q206.598 428.65 200.278 428.65 Q198.102 428.65 195.834 428.28 Q193.588 427.909 191.181 427.169 L191.181 422.47 Q193.264 423.604 195.487 424.159 Q197.709 424.715 200.186 424.715 Q204.19 424.715 206.528 422.608 Q208.866 420.502 208.866 416.891 Q208.866 413.28 206.528 411.173 Q204.19 409.067 200.186 409.067 Q198.311 409.067 196.436 409.484 Q194.584 409.9 192.639 410.78 L192.639 393.419 Z" fill="#000000" fill-rule="evenodd" fill-opacity="1" /><path clip-path="url(#clip000)" d="M117.015 99.5305 L124.654 99.5305 L124.654 73.1649 L116.343 74.8316 L116.343 70.5723 L124.607 68.9057 L129.283 68.9057 L129.283 99.5305 L136.922 99.5305 L136.922 103.466 L117.015 103.466 L117.015 99.5305 Z" fill="#000000" fill-rule="evenodd" fill-opacity="1" /><path clip-path="url(#clip000)" d="M146.366 97.5861 L151.251 97.5861 L151.251 103.466 L146.366 103.466 L146.366 97.5861 Z" fill="#000000" fill-rule="evenodd" fill-opacity="1" /><path clip-path="url(#clip000)" d="M171.436 71.9844 Q167.825 71.9844 165.996 75.5492 Q164.19 79.0908 164.19 86.2204 Q164.19 93.3268 165.996 96.8916 Q167.825 100.433 171.436 100.433 Q175.07 100.433 176.876 96.8916 Q178.704 93.3268 178.704 86.2204 Q178.704 79.0908 176.876 75.5492 Q175.07 71.9844 171.436 71.9844 M171.436 68.2807 Q177.246 68.2807 180.301 72.8871 Q183.38 77.4704 183.38 86.2204 Q183.38 94.9472 180.301 99.5537 Q177.246 104.137 171.436 104.137 Q165.626 104.137 162.547 99.5537 Q159.491 94.9472 159.491 86.2204 Q159.491 77.4704 162.547 72.8871 Q165.626 68.2807 171.436 68.2807 Z" fill="#000000" fill-rule="evenodd" fill-opacity="1" /><path clip-path="url(#clip000)" d="M201.598 71.9844 Q197.987 71.9844 196.158 75.5492 Q194.352 79.0908 194.352 86.2204 Q194.352 93.3268 196.158 96.8916 Q197.987 100.433 201.598 100.433 Q205.232 100.433 207.037 96.8916 Q208.866 93.3268 208.866 86.2204 Q208.866 79.0908 207.037 75.5492 Q205.232 71.9844 201.598 71.9844 M201.598 68.2807 Q207.408 68.2807 210.463 72.8871 Q213.542 77.4704 213.542 86.2204 Q213.542 94.9472 210.463 99.5537 Q207.408 104.137 201.598 104.137 Q195.787 104.137 192.709 99.5537 Q189.653 94.9472 189.653 86.2204 Q189.653 77.4704 192.709 72.8871 Q195.787 68.2807 201.598 68.2807 Z" fill="#000000" fill-rule="evenodd" fill-opacity="1" /><path clip-path="url(#clip000)" d="M18.0438 917.032 L24.314 917.032 Q22.5634 920.693 21.704 923.939 Q20.8447 927.186 20.8447 930.209 Q20.8447 935.461 22.8817 938.326 Q24.9187 941.158 28.6745 941.158 Q31.8255 941.158 33.4488 939.281 Q35.0402 937.371 36.0269 932.087 L36.8226 928.204 Q38.1912 921.011 41.6605 917.605 Q45.098 914.168 50.8908 914.168 Q57.7976 914.168 61.3624 918.815 Q64.9272 923.43 64.9272 932.374 Q64.9272 935.748 64.1633 939.567 Q63.3994 943.355 61.9035 947.429 L55.2831 947.429 Q57.4793 943.514 58.5933 939.758 Q59.7073 936.002 59.7073 932.374 Q59.7073 926.867 57.543 923.876 Q55.3786 920.884 51.3682 920.884 Q47.8671 920.884 45.8937 923.048 Q43.9204 925.181 42.9337 930.082 L42.1698 933.997 Q40.7375 941.19 37.682 944.405 Q34.6264 947.62 29.1837 947.62 Q22.8817 947.62 19.2532 943.196 Q15.6248 938.74 15.6248 930.942 Q15.6248 927.6 16.2295 924.13 Q16.8343 920.661 18.0438 917.032 Z" fill="#000000" fill-rule="evenodd" fill-opacity="1" /><path clip-path="url(#clip000)" d="M49.9359 905.001 L28.3562 905.001 L28.3562 899.145 L49.7131 899.145 Q54.7739 899.145 57.3202 897.171 Q59.8346 895.198 59.8346 891.251 Q59.8346 886.509 56.8109 883.772 Q53.7872 881.003 48.5673 881.003 L28.3562 881.003 L28.3562 875.146 L64.0042 875.146 L64.0042 881.003 L58.5296 881.003 Q61.7762 883.135 63.3676 885.968 Q64.9272 888.769 64.9272 892.493 Q64.9272 898.636 61.1078 901.818 Q57.2883 905.001 49.9359 905.001 M27.4968 890.265 L27.4968 890.265 Z" fill="#000000" fill-rule="evenodd" fill-opacity="1" /><path clip-path="url(#clip000)" d="M29.7248 837.429 L35.1993 837.429 Q33.8307 839.912 33.1623 842.426 Q32.4621 844.909 32.4621 847.455 Q32.4621 853.153 36.0905 856.304 Q39.6872 859.455 46.212 859.455 Q52.7369 859.455 56.3653 856.304 Q59.9619 853.153 59.9619 847.455 Q59.9619 844.909 59.2935 842.426 Q58.5933 839.912 57.2247 837.429 L62.6355 837.429 Q63.7814 839.88 64.3543 842.522 Q64.9272 845.132 64.9272 848.092 Q64.9272 856.144 59.8664 860.887 Q54.8057 865.629 46.212 865.629 Q37.491 865.629 32.4939 860.855 Q27.4968 856.049 27.4968 847.71 Q27.4968 845.004 28.0697 842.426 Q28.6108 839.848 29.7248 837.429 Z" fill="#000000" fill-rule="evenodd" fill-opacity="1" /><path clip-path="url(#clip000)" d="M29.7248 801.59 L35.1993 801.59 Q33.8307 804.073 33.1623 806.587 Q32.4621 809.07 32.4621 811.616 Q32.4621 817.314 36.0905 820.465 Q39.6872 823.616 46.212 823.616 Q52.7369 823.616 56.3653 820.465 Q59.9619 817.314 59.9619 811.616 Q59.9619 809.07 59.2935 806.587 Q58.5933 804.073 57.2247 801.59 L62.6355 801.59 Q63.7814 804.041 64.3543 806.683 Q64.9272 809.293 64.9272 812.253 Q64.9272 820.306 59.8664 825.048 Q54.8057 829.79 46.212 829.79 Q37.491 829.79 32.4939 825.016 Q27.4968 820.21 27.4968 811.871 Q27.4968 809.166 28.0697 806.587 Q28.6108 804.009 29.7248 801.59 Z" fill="#000000" fill-rule="evenodd" fill-opacity="1" /><path clip-path="url(#clip000)" d="M44.7161 760.914 L47.5806 760.914 L47.5806 787.84 Q53.6281 787.459 56.8109 784.212 Q59.9619 780.934 59.9619 775.109 Q59.9619 771.735 59.1344 768.584 Q58.3069 765.401 56.6518 762.282 L62.1899 762.282 Q63.5267 765.433 64.227 768.743 Q64.9272 772.053 64.9272 775.459 Q64.9272 783.989 59.9619 788.986 Q54.9967 793.952 46.5303 793.952 Q37.7774 793.952 32.6531 789.241 Q27.4968 784.498 27.4968 776.478 Q27.4968 769.284 32.1438 765.115 Q36.7589 760.914 44.7161 760.914 M42.9973 766.77 Q38.1912 766.834 35.3266 769.475 Q32.4621 772.085 32.4621 776.414 Q32.4621 781.316 35.2312 784.276 Q38.0002 787.204 43.0292 787.649 L42.9973 766.77 Z" fill="#000000" fill-rule="evenodd" fill-opacity="1" /><path clip-path="url(#clip000)" d="M29.4065 728.576 L34.9447 728.576 Q33.6716 731.058 33.035 733.732 Q32.3984 736.406 32.3984 739.27 Q32.3984 743.631 33.7352 745.827 Q35.072 747.991 37.7456 747.991 Q39.7826 747.991 40.9603 746.432 Q42.1061 744.872 43.1565 740.161 L43.6021 738.156 Q44.9389 731.918 47.3897 729.308 Q49.8086 726.666 54.1691 726.666 Q59.1344 726.666 62.0308 730.613 Q64.9272 734.528 64.9272 741.403 Q64.9272 744.267 64.3543 747.386 Q63.8132 750.474 62.6992 753.911 L56.6518 753.911 Q58.3387 750.665 59.198 747.514 Q60.0256 744.363 60.0256 741.275 Q60.0256 737.138 58.6251 734.91 Q57.1929 732.682 54.6147 732.682 Q52.2276 732.682 50.9545 734.305 Q49.6813 735.896 48.5037 741.339 L48.0262 743.376 Q46.8804 748.819 44.5251 751.238 Q42.138 753.657 38.0002 753.657 Q32.9713 753.657 30.2341 750.092 Q27.4968 746.527 27.4968 739.97 Q27.4968 736.724 27.9743 733.859 Q28.4517 730.995 29.4065 728.576 Z" fill="#000000" fill-rule="evenodd" fill-opacity="1" /><path clip-path="url(#clip000)" d="M29.4065 694.615 L34.9447 694.615 Q33.6716 697.097 33.035 699.771 Q32.3984 702.444 32.3984 705.309 Q32.3984 709.67 33.7352 711.866 Q35.072 714.03 37.7456 714.03 Q39.7826 714.03 40.9603 712.47 Q42.1061 710.911 43.1565 706.2 L43.6021 704.195 Q44.9389 697.957 47.3897 695.347 Q49.8086 692.705 54.1691 692.705 Q59.1344 692.705 62.0308 696.652 Q64.9272 700.567 64.9272 707.442 Q64.9272 710.306 64.3543 713.425 Q63.8132 716.513 62.6992 719.95 L56.6518 719.95 Q58.3387 716.704 59.198 713.553 Q60.0256 710.402 60.0256 707.314 Q60.0256 703.177 58.6251 700.949 Q57.1929 698.721 54.6147 698.721 Q52.2276 698.721 50.9545 700.344 Q49.6813 701.935 48.5037 707.378 L48.0262 709.415 Q46.8804 714.858 44.5251 717.277 Q42.138 719.696 38.0002 719.696 Q32.9713 719.696 30.2341 716.131 Q27.4968 712.566 27.4968 706.009 Q27.4968 702.763 27.9743 699.898 Q28.4517 697.034 29.4065 694.615 Z" fill="#000000" fill-rule="evenodd" fill-opacity="1" /><path clip-path="url(#clip000)" d="M41.7242 639.87 Q42.4244 637.801 44.7161 635.859 Q47.0077 633.886 51.0181 631.912 L64.0042 625.388 L64.0042 632.294 L51.8138 638.374 Q47.0395 640.729 45.48 642.957 Q43.9204 645.153 43.9204 648.973 L43.9204 655.975 L64.0042 655.975 L64.0042 662.404 L16.4842 662.404 L16.4842 647.89 Q16.4842 639.742 19.8898 635.732 Q23.2955 631.721 30.1704 631.721 Q34.6582 631.721 37.6183 633.822 Q40.5784 635.891 41.7242 639.87 M21.7677 655.975 L38.6368 655.975 L38.6368 647.89 Q38.6368 643.243 36.5043 640.888 Q34.34 638.501 30.1704 638.501 Q26.0009 638.501 23.9002 640.888 Q21.7677 643.243 21.7677 647.89 L21.7677 655.975 Z" fill="#000000" fill-rule="evenodd" fill-opacity="1" /><path clip-path="url(#clip000)" d="M46.0847 602.598 Q46.0847 609.696 47.7079 612.433 Q49.3312 615.171 53.2461 615.171 Q56.3653 615.171 58.2114 613.134 Q60.0256 611.065 60.0256 607.532 Q60.0256 602.662 56.5881 599.734 Q53.1188 596.774 47.3897 596.774 L46.0847 596.774 L46.0847 602.598 M43.6657 590.917 L64.0042 590.917 L64.0042 596.774 L58.5933 596.774 Q61.8398 598.779 63.3994 601.771 Q64.9272 604.763 64.9272 609.091 Q64.9272 614.566 61.8716 617.812 Q58.7843 621.027 53.6281 621.027 Q47.6125 621.027 44.5569 617.017 Q41.5014 612.974 41.5014 604.986 L41.5014 596.774 L40.9285 596.774 Q36.8862 596.774 34.6901 599.447 Q32.4621 602.089 32.4621 606.895 Q32.4621 609.951 33.1941 612.847 Q33.9262 615.744 35.3903 618.417 L29.9795 618.417 Q28.7381 615.202 28.1334 612.179 Q27.4968 609.155 27.4968 606.29 Q27.4968 598.556 31.5072 594.737 Q35.5176 590.917 43.6657 590.917 Z" fill="#000000" fill-rule="evenodd" fill-opacity="1" /><path clip-path="url(#clip000)" d="M18.2347 573.062 L28.3562 573.062 L28.3562 560.998 L32.9077 560.998 L32.9077 573.062 L52.2594 573.062 Q56.6199 573.062 57.8613 571.884 Q59.1026 570.674 59.1026 567.014 L59.1026 560.998 L64.0042 560.998 L64.0042 567.014 Q64.0042 573.794 61.4897 576.372 Q58.9434 578.95 52.2594 578.95 L32.9077 578.95 L32.9077 583.247 L28.3562 583.247 L28.3562 578.95 L18.2347 578.95 L18.2347 573.062 Z" fill="#000000" fill-rule="evenodd" fill-opacity="1" /><path clip-path="url(#clip000)" d="M44.7161 522.804 L47.5806 522.804 L47.5806 549.731 Q53.6281 549.349 56.8109 546.103 Q59.9619 542.824 59.9619 537 Q59.9619 533.626 59.1344 530.475 Q58.3069 527.292 56.6518 524.173 L62.1899 524.173 Q63.5267 527.324 64.227 530.634 Q64.9272 533.944 64.9272 537.35 Q64.9272 545.88 59.9619 550.877 Q54.9967 555.842 46.5303 555.842 Q37.7774 555.842 32.6531 551.132 Q27.4968 546.389 27.4968 538.368 Q27.4968 531.175 32.1438 527.006 Q36.7589 522.804 44.7161 522.804 M42.9973 528.661 Q38.1912 528.724 35.3266 531.366 Q32.4621 533.976 32.4621 538.305 Q32.4621 543.206 35.2312 546.166 Q38.0002 549.095 43.0292 549.54 L42.9973 528.661 Z" fill="#000000" fill-rule="evenodd" fill-opacity="1" /><polyline clip-path="url(#clip002)" style="stroke:#009af9; stroke-linecap:round; stroke-linejoin:round; stroke-width:4; stroke-opacity:1; fill:none" points="
  309.067,1384.24 322.383,1384.24 335.7,1384.24 349.017,1384.24 362.333,1384.24 375.65,1384.24 388.966,1384.24 402.283,1351.79 415.599,1345.3 428.916,1150.59 
  442.232,877.998 455.549,774.154 468.865,566.465 482.182,417.189 495.498,332.816 508.815,254.933 522.132,222.481 535.448,157.579 548.765,112.147 562.081,203.01 
  575.398,235.462 588.714,125.127 602.031,112.147 615.347,125.127 628.664,138.108 641.98,215.991 655.297,203.01 668.613,157.579 681.93,151.088 695.247,138.108 
  708.563,144.598 721.88,99.1662 735.196,86.1857 748.513,131.618 761.829,112.147 775.146,138.108 788.462,112.147 801.779,92.6759 815.095,86.1857 828.412,92.6759 
  841.728,112.147 855.045,138.108 868.362,105.656 881.678,131.618 894.995,131.618 908.311,86.1857 921.628,164.069 934.944,118.637 948.261,92.6759 961.577,125.127 
  974.894,125.127 988.21,144.598 1001.53,125.127 1014.84,190.03 1028.16,99.1662 1041.48,105.656 1054.79,99.1662 1068.11,86.1857 1081.43,131.618 1094.74,125.127 
  1108.06,118.637 1121.38,144.598 1134.69,112.147 1148.01,125.127 1161.33,209.501 1174.64,164.069 1187.96,170.559 1201.27,170.559 1214.59,157.579 1227.91,125.127 
  1241.22,164.069 1254.54,131.618 1267.86,105.656 1281.17,105.656 1294.49,86.1857 1307.81,112.147 1321.12,105.656 1334.44,112.147 1347.76,92.6759 1361.07,92.6759 
  1374.39,112.147 1387.71,112.147 1401.02,105.656 1414.34,92.6759 1427.66,99.1662 1440.97,86.1857 1454.29,112.147 1467.61,112.147 1480.92,131.618 1494.24,118.637 
  1507.56,131.618 1520.87,105.656 1534.19,138.108 1547.5,131.618 1560.82,151.088 1574.14,151.088 1587.45,131.618 1600.77,118.637 1614.09,138.108 1627.4,183.54 
  1640.72,125.127 1654.04,131.618 1667.35,112.147 1680.67,131.618 1693.99,138.108 1707.3,170.559 1720.62,177.049 1733.94,209.501 1747.25,203.01 1760.57,177.049 
  1773.89,118.637 1787.2,190.03 1800.52,183.54 1813.84,235.462 1827.15,183.54 1840.47,190.03 1853.79,183.54 1867.1,222.481 1880.42,112.147 1893.73,164.069 
  1907.05,164.069 1920.37,144.598 1933.68,215.991 1947,203.01 1960.32,144.598 1973.63,183.54 1986.95,203.01 2000.27,183.54 2013.58,151.088 2026.9,170.559 
  2040.22,190.03 2053.53,177.049 2066.85,144.598 2080.17,125.127 2093.48,203.01 2106.8,170.559 2120.12,183.54 2133.43,222.481 2146.75,209.501 2160.07,151.088 
  2173.38,228.971 2186.7,248.442 2200.02,196.52 2213.33,384.738 2226.65,209.501 2239.96,287.384 2253.28,254.933 2266.6,209.501 2279.91,215.991 2293.23,177.049 
  
  "/>
<polyline clip-path="url(#clip002)" style="stroke:#e26f46; stroke-linecap:round; stroke-linejoin:round; stroke-width:4; stroke-opacity:1; fill:none" points="
  309.067,151.088 322.383,105.656 335.7,144.598 349.017,138.108 362.333,157.579 375.65,144.598 388.966,190.03 402.283,131.618 415.599,177.049 428.916,118.637 
  442.232,118.637 455.549,99.1662 468.865,112.147 482.182,99.1662 495.498,190.03 508.815,170.559 522.132,190.03 535.448,151.088 548.765,99.1662 562.081,105.656 
  575.398,125.127 588.714,125.127 602.031,112.147 615.347,86.1857 628.664,105.656 641.98,118.637 655.297,138.108 668.613,138.108 681.93,144.598 695.247,105.656 
  708.563,138.108 721.88,125.127 735.196,118.637 748.513,164.069 761.829,254.933 775.146,151.088 788.462,170.559 801.779,131.618 815.095,138.108 828.412,190.03 
  841.728,151.088 855.045,151.088 868.362,138.108 881.678,151.088 894.995,105.656 908.311,157.579 921.628,138.108 934.944,138.108 948.261,138.108 961.577,131.618 
  974.894,151.088 988.21,144.598 1001.53,157.579 1014.84,125.127 1028.16,112.147 1041.48,144.598 1054.79,144.598 1068.11,131.618 1081.43,125.127 1094.74,164.069 
  1108.06,125.127 1121.38,131.618 1134.69,138.108 1148.01,144.598 1161.33,125.127 1174.64,151.088 1187.96,138.108 1201.27,157.579 1214.59,144.598 1227.91,105.656 
  1241.22,151.088 1254.54,125.127 1267.86,138.108 1281.17,118.637 1294.49,125.127 1307.81,99.1662 1321.12,112.147 1334.44,125.127 1347.76,138.108 1361.07,138.108 
  1374.39,105.656 1387.71,105.656 1401.02,118.637 1414.34,118.637 1427.66,151.088 1440.97,118.637 1454.29,170.559 1467.61,151.088 1480.92,144.598 1494.24,144.598 
  1507.56,131.618 1520.87,144.598 1534.19,203.01 1547.5,151.088 1560.82,144.598 1574.14,112.147 1587.45,125.127 1600.77,112.147 1614.09,92.6759 1627.4,105.656 
  1640.72,86.1857 1654.04,99.1662 1667.35,105.656 1680.67,105.656 1693.99,131.618 1707.3,151.088 1720.62,138.108 1733.94,170.559 1747.25,177.049 1760.57,157.579 
  1773.89,118.637 1787.2,151.088 1800.52,131.618 1813.84,105.656 1827.15,151.088 1840.47,157.579 1853.79,157.579 1867.1,138.108 1880.42,131.618 1893.73,138.108 
  1907.05,138.108 1920.37,125.127 1933.68,164.069 1947,177.049 1960.32,157.579 1973.63,125.127 1986.95,138.108 2000.27,118.637 2013.58,164.069 2026.9,157.579 
  2040.22,157.579 2053.53,151.088 2066.85,138.108 2080.17,138.108 2093.48,112.147 2106.8,138.108 2120.12,112.147 2133.43,144.598 2146.75,131.618 2160.07,105.656 
  2173.38,86.1857 2186.7,99.1662 2200.02,112.147 2213.33,112.147 2226.65,99.1662 2239.96,92.6759 2253.28,131.618 2266.6,99.1662 2279.91,118.637 2293.23,131.618 
  
  "/>
<path clip-path="url(#clip000)" d="
M1822.26 1377.32 L2282.65 1377.32 L2282.65 1221.8 L1822.26 1221.8  Z
  " fill="#ffffff" fill-rule="evenodd" fill-opacity="1"/>
<polyline clip-path="url(#clip000)" style="stroke:#000000; stroke-linecap:round; stroke-linejoin:round; stroke-width:4; stroke-opacity:1; fill:none" points="
  1822.26,1377.32 2282.65,1377.32 2282.65,1221.8 1822.26,1221.8 1822.26,1377.32 
  "/>
<polyline clip-path="url(#clip000)" style="stroke:#009af9; stroke-linecap:round; stroke-linejoin:round; stroke-width:4; stroke-opacity:1; fill:none" points="
  1845.63,1273.64 1985.84,1273.64 
  "/>
<path clip-path="url(#clip000)" d="M2027.64 1265.75 L2027.64 1269.78 Q2025.83 1268.86 2023.89 1268.39 Q2021.94 1267.93 2019.86 1267.93 Q2016.69 1267.93 2015.09 1268.9 Q2013.52 1269.87 2013.52 1271.82 Q2013.52 1273.3 2014.65 1274.16 Q2015.79 1274.99 2019.21 1275.75 L2020.67 1276.08 Q2025.21 1277.05 2027.11 1278.83 Q2029.03 1280.59 2029.03 1283.76 Q2029.03 1287.37 2026.16 1289.48 Q2023.31 1291.59 2018.31 1291.59 Q2016.23 1291.59 2013.96 1291.17 Q2011.71 1290.78 2009.21 1289.97 L2009.21 1285.57 Q2011.57 1286.79 2013.86 1287.42 Q2016.16 1288.02 2018.4 1288.02 Q2021.41 1288.02 2023.03 1287 Q2024.65 1285.96 2024.65 1284.09 Q2024.65 1282.35 2023.47 1281.42 Q2022.31 1280.5 2018.36 1279.64 L2016.87 1279.3 Q2012.92 1278.46 2011.16 1276.75 Q2009.4 1275.01 2009.4 1272 Q2009.4 1268.35 2011.99 1266.36 Q2014.58 1264.36 2019.35 1264.36 Q2021.71 1264.36 2023.79 1264.71 Q2025.88 1265.06 2027.64 1265.75 Z" fill="#000000" fill-rule="evenodd" fill-opacity="1" /><path clip-path="url(#clip000)" d="M2035.81 1254.9 L2040.07 1254.9 L2040.07 1290.92 L2035.81 1290.92 L2035.81 1254.9 Z" fill="#000000" fill-rule="evenodd" fill-opacity="1" /><path clip-path="url(#clip000)" d="M2059.03 1267.98 Q2055.6 1267.98 2053.61 1270.66 Q2051.62 1273.32 2051.62 1277.98 Q2051.62 1282.63 2053.59 1285.31 Q2055.58 1287.98 2059.03 1287.98 Q2062.43 1287.98 2064.42 1285.29 Q2066.41 1282.61 2066.41 1277.98 Q2066.41 1273.37 2064.42 1270.68 Q2062.43 1267.98 2059.03 1267.98 M2059.03 1264.36 Q2064.58 1264.36 2067.75 1267.98 Q2070.92 1271.59 2070.92 1277.98 Q2070.92 1284.34 2067.75 1287.98 Q2064.58 1291.59 2059.03 1291.59 Q2053.45 1291.59 2050.28 1287.98 Q2047.13 1284.34 2047.13 1277.98 Q2047.13 1271.59 2050.28 1267.98 Q2053.45 1264.36 2059.03 1264.36 Z" fill="#000000" fill-rule="evenodd" fill-opacity="1" /><path clip-path="url(#clip000)" d="M2075.51 1264.99 L2079.77 1264.99 L2085.09 1285.22 L2090.39 1264.99 L2095.41 1264.99 L2100.74 1285.22 L2106.04 1264.99 L2110.3 1264.99 L2103.52 1290.92 L2098.49 1290.92 L2092.91 1269.67 L2087.31 1290.92 L2082.29 1290.92 L2075.51 1264.99 Z" fill="#000000" fill-rule="evenodd" fill-opacity="1" /><path clip-path="url(#clip000)" d="M2152.01 1269.97 Q2153.61 1267.1 2155.83 1265.73 Q2158.05 1264.36 2161.06 1264.36 Q2165.11 1264.36 2167.31 1267.21 Q2169.51 1270.04 2169.51 1275.27 L2169.51 1290.92 L2165.23 1290.92 L2165.23 1275.41 Q2165.23 1271.68 2163.91 1269.87 Q2162.59 1268.07 2159.88 1268.07 Q2156.57 1268.07 2154.65 1270.27 Q2152.73 1272.47 2152.73 1276.26 L2152.73 1290.92 L2148.45 1290.92 L2148.45 1275.41 Q2148.45 1271.66 2147.13 1269.87 Q2145.81 1268.07 2143.05 1268.07 Q2139.79 1268.07 2137.87 1270.29 Q2135.95 1272.49 2135.95 1276.26 L2135.95 1290.92 L2131.66 1290.92 L2131.66 1264.99 L2135.95 1264.99 L2135.95 1269.02 Q2137.41 1266.63 2139.44 1265.5 Q2141.48 1264.36 2144.28 1264.36 Q2147.1 1264.36 2149.07 1265.8 Q2151.06 1267.23 2152.01 1269.97 Z" fill="#000000" fill-rule="evenodd" fill-opacity="1" /><path clip-path="url(#clip000)" d="M2188.05 1267.98 Q2184.63 1267.98 2182.64 1270.66 Q2180.65 1273.32 2180.65 1277.98 Q2180.65 1282.63 2182.61 1285.31 Q2184.6 1287.98 2188.05 1287.98 Q2191.46 1287.98 2193.45 1285.29 Q2195.44 1282.61 2195.44 1277.98 Q2195.44 1273.37 2193.45 1270.68 Q2191.46 1267.98 2188.05 1267.98 M2188.05 1264.36 Q2193.61 1264.36 2196.78 1267.98 Q2199.95 1271.59 2199.95 1277.98 Q2199.95 1284.34 2196.78 1287.98 Q2193.61 1291.59 2188.05 1291.59 Q2182.47 1291.59 2179.3 1287.98 Q2176.16 1284.34 2176.16 1277.98 Q2176.16 1271.59 2179.3 1267.98 Q2182.47 1264.36 2188.05 1264.36 Z" fill="#000000" fill-rule="evenodd" fill-opacity="1" /><path clip-path="url(#clip000)" d="M2224.07 1268.92 L2224.07 1254.9 L2228.33 1254.9 L2228.33 1290.92 L2224.07 1290.92 L2224.07 1287.03 Q2222.73 1289.34 2220.67 1290.48 Q2218.63 1291.59 2215.76 1291.59 Q2211.06 1291.59 2208.1 1287.84 Q2205.16 1284.09 2205.16 1277.98 Q2205.16 1271.86 2208.1 1268.11 Q2211.06 1264.36 2215.76 1264.36 Q2218.63 1264.36 2220.67 1265.5 Q2222.73 1266.61 2224.07 1268.92 M2209.56 1277.98 Q2209.56 1282.67 2211.48 1285.36 Q2213.42 1288.02 2216.8 1288.02 Q2220.18 1288.02 2222.13 1285.36 Q2224.07 1282.67 2224.07 1277.98 Q2224.07 1273.28 2222.13 1270.61 Q2220.18 1267.93 2216.8 1267.93 Q2213.42 1267.93 2211.48 1270.61 Q2209.56 1273.28 2209.56 1277.98 Z" fill="#000000" fill-rule="evenodd" fill-opacity="1" /><path clip-path="url(#clip000)" d="M2259.28 1276.89 L2259.28 1278.97 L2239.7 1278.97 Q2239.97 1283.37 2242.34 1285.68 Q2244.72 1287.98 2248.96 1287.98 Q2251.41 1287.98 2253.7 1287.37 Q2256.02 1286.77 2258.28 1285.57 L2258.28 1289.6 Q2255.99 1290.57 2253.59 1291.08 Q2251.18 1291.59 2248.7 1291.59 Q2242.5 1291.59 2238.86 1287.98 Q2235.25 1284.36 2235.25 1278.21 Q2235.25 1271.84 2238.68 1268.11 Q2242.13 1264.36 2247.96 1264.36 Q2253.19 1264.36 2256.22 1267.74 Q2259.28 1271.1 2259.28 1276.89 M2255.02 1275.64 Q2254.97 1272.14 2253.05 1270.06 Q2251.15 1267.98 2248.01 1267.98 Q2244.44 1267.98 2242.29 1269.99 Q2240.16 1272 2239.84 1275.66 L2255.02 1275.64 Z" fill="#000000" fill-rule="evenodd" fill-opacity="1" /><polyline clip-path="url(#clip000)" style="stroke:#e26f46; stroke-linecap:round; stroke-linejoin:round; stroke-width:4; stroke-opacity:1; fill:none" points="
  1845.63,1325.48 1985.84,1325.48 
  "/>
<path clip-path="url(#clip000)" d="M2025.72 1306.74 L2025.72 1310.28 L2021.64 1310.28 Q2019.35 1310.28 2018.45 1311.2 Q2017.57 1312.13 2017.57 1314.54 L2017.57 1316.83 L2024.58 1316.83 L2024.58 1320.14 L2017.57 1320.14 L2017.57 1342.76 L2013.29 1342.76 L2013.29 1320.14 L2009.21 1320.14 L2009.21 1316.83 L2013.29 1316.83 L2013.29 1315.02 Q2013.29 1310.7 2015.3 1308.73 Q2017.31 1306.74 2021.69 1306.74 L2025.72 1306.74 Z" fill="#000000" fill-rule="evenodd" fill-opacity="1" /><path clip-path="url(#clip000)" d="M2041.06 1329.72 Q2035.9 1329.72 2033.91 1330.9 Q2031.92 1332.08 2031.92 1334.93 Q2031.92 1337.2 2033.4 1338.54 Q2034.91 1339.86 2037.48 1339.86 Q2041.02 1339.86 2043.15 1337.36 Q2045.3 1334.84 2045.3 1330.67 L2045.3 1329.72 L2041.06 1329.72 M2049.56 1327.96 L2049.56 1342.76 L2045.3 1342.76 L2045.3 1338.82 Q2043.84 1341.18 2041.67 1342.32 Q2039.49 1343.43 2036.34 1343.43 Q2032.36 1343.43 2030 1341.2 Q2027.66 1338.96 2027.66 1335.21 Q2027.66 1330.83 2030.58 1328.61 Q2033.52 1326.39 2039.33 1326.39 L2045.3 1326.39 L2045.3 1325.97 Q2045.3 1323.03 2043.35 1321.44 Q2041.43 1319.82 2037.94 1319.82 Q2035.72 1319.82 2033.61 1320.35 Q2031.5 1320.88 2029.56 1321.95 L2029.56 1318.01 Q2031.9 1317.11 2034.1 1316.67 Q2036.29 1316.2 2038.38 1316.2 Q2044 1316.2 2046.78 1319.12 Q2049.56 1322.04 2049.56 1327.96 Z" fill="#000000" fill-rule="evenodd" fill-opacity="1" /><path clip-path="url(#clip000)" d="M2074.86 1317.59 L2074.86 1321.62 Q2073.05 1320.7 2071.11 1320.23 Q2069.17 1319.77 2067.08 1319.77 Q2063.91 1319.77 2062.31 1320.74 Q2060.74 1321.71 2060.74 1323.66 Q2060.74 1325.14 2061.87 1326 Q2063.01 1326.83 2066.43 1327.59 L2067.89 1327.92 Q2072.43 1328.89 2074.33 1330.67 Q2076.25 1332.43 2076.25 1335.6 Q2076.25 1339.21 2073.38 1341.32 Q2070.53 1343.43 2065.53 1343.43 Q2063.45 1343.43 2061.18 1343.01 Q2058.93 1342.62 2056.43 1341.81 L2056.43 1337.41 Q2058.79 1338.63 2061.09 1339.26 Q2063.38 1339.86 2065.62 1339.86 Q2068.63 1339.86 2070.25 1338.84 Q2071.87 1337.8 2071.87 1335.93 Q2071.87 1334.19 2070.69 1333.26 Q2069.54 1332.34 2065.58 1331.48 L2064.1 1331.14 Q2060.14 1330.3 2058.38 1328.59 Q2056.62 1326.85 2056.62 1323.84 Q2056.62 1320.19 2059.21 1318.2 Q2061.8 1316.2 2066.57 1316.2 Q2068.93 1316.2 2071.02 1316.55 Q2073.1 1316.9 2074.86 1317.59 Z" fill="#000000" fill-rule="evenodd" fill-opacity="1" /><path clip-path="url(#clip000)" d="M2087.24 1309.47 L2087.24 1316.83 L2096.02 1316.83 L2096.02 1320.14 L2087.24 1320.14 L2087.24 1334.21 Q2087.24 1337.38 2088.1 1338.29 Q2088.98 1339.19 2091.64 1339.19 L2096.02 1339.19 L2096.02 1342.76 L2091.64 1342.76 Q2086.71 1342.76 2084.84 1340.93 Q2082.96 1339.07 2082.96 1334.21 L2082.96 1320.14 L2079.84 1320.14 L2079.84 1316.83 L2082.96 1316.83 L2082.96 1309.47 L2087.24 1309.47 Z" fill="#000000" fill-rule="evenodd" fill-opacity="1" /><path clip-path="url(#clip000)" d="M2136.87 1321.81 Q2138.47 1318.94 2140.69 1317.57 Q2142.91 1316.2 2145.92 1316.2 Q2149.97 1316.2 2152.17 1319.05 Q2154.37 1321.88 2154.37 1327.11 L2154.37 1342.76 L2150.09 1342.76 L2150.09 1327.25 Q2150.09 1323.52 2148.77 1321.71 Q2147.45 1319.91 2144.74 1319.91 Q2141.43 1319.91 2139.51 1322.11 Q2137.59 1324.31 2137.59 1328.1 L2137.59 1342.76 L2133.31 1342.76 L2133.31 1327.25 Q2133.31 1323.5 2131.99 1321.71 Q2130.67 1319.91 2127.91 1319.91 Q2124.65 1319.91 2122.73 1322.13 Q2120.81 1324.33 2120.81 1328.1 L2120.81 1342.76 L2116.53 1342.76 L2116.53 1316.83 L2120.81 1316.83 L2120.81 1320.86 Q2122.27 1318.47 2124.3 1317.34 Q2126.34 1316.2 2129.14 1316.2 Q2131.97 1316.2 2133.93 1317.64 Q2135.92 1319.07 2136.87 1321.81 Z" fill="#000000" fill-rule="evenodd" fill-opacity="1" /><path clip-path="url(#clip000)" d="M2172.91 1319.82 Q2169.49 1319.82 2167.5 1322.5 Q2165.51 1325.16 2165.51 1329.82 Q2165.51 1334.47 2167.47 1337.15 Q2169.47 1339.82 2172.91 1339.82 Q2176.32 1339.82 2178.31 1337.13 Q2180.3 1334.45 2180.3 1329.82 Q2180.3 1325.21 2178.31 1322.52 Q2176.32 1319.82 2172.91 1319.82 M2172.91 1316.2 Q2178.47 1316.2 2181.64 1319.82 Q2184.81 1323.43 2184.81 1329.82 Q2184.81 1336.18 2181.64 1339.82 Q2178.47 1343.43 2172.91 1343.43 Q2167.34 1343.43 2164.16 1339.82 Q2161.02 1336.18 2161.02 1329.82 Q2161.02 1323.43 2164.16 1319.82 Q2167.34 1316.2 2172.91 1316.2 Z" fill="#000000" fill-rule="evenodd" fill-opacity="1" /><path clip-path="url(#clip000)" d="M2208.93 1320.76 L2208.93 1306.74 L2213.19 1306.74 L2213.19 1342.76 L2208.93 1342.76 L2208.93 1338.87 Q2207.59 1341.18 2205.53 1342.32 Q2203.49 1343.43 2200.62 1343.43 Q2195.92 1343.43 2192.96 1339.68 Q2190.02 1335.93 2190.02 1329.82 Q2190.02 1323.7 2192.96 1319.95 Q2195.92 1316.2 2200.62 1316.2 Q2203.49 1316.2 2205.53 1317.34 Q2207.59 1318.45 2208.93 1320.76 M2194.42 1329.82 Q2194.42 1334.51 2196.34 1337.2 Q2198.28 1339.86 2201.66 1339.86 Q2205.04 1339.86 2206.99 1337.2 Q2208.93 1334.51 2208.93 1329.82 Q2208.93 1325.12 2206.99 1322.45 Q2205.04 1319.77 2201.66 1319.77 Q2198.28 1319.77 2196.34 1322.45 Q2194.42 1325.12 2194.42 1329.82 Z" fill="#000000" fill-rule="evenodd" fill-opacity="1" /><path clip-path="url(#clip000)" d="M2244.14 1328.73 L2244.14 1330.81 L2224.56 1330.81 Q2224.84 1335.21 2227.2 1337.52 Q2229.58 1339.82 2233.82 1339.82 Q2236.27 1339.82 2238.56 1339.21 Q2240.88 1338.61 2243.15 1337.41 L2243.15 1341.44 Q2240.85 1342.41 2238.45 1342.92 Q2236.04 1343.43 2233.56 1343.43 Q2227.36 1343.43 2223.72 1339.82 Q2220.11 1336.2 2220.11 1330.05 Q2220.11 1323.68 2223.54 1319.95 Q2226.99 1316.2 2232.82 1316.2 Q2238.05 1316.2 2241.09 1319.58 Q2244.14 1322.94 2244.14 1328.73 M2239.88 1327.48 Q2239.84 1323.98 2237.91 1321.9 Q2236.02 1319.82 2232.87 1319.82 Q2229.3 1319.82 2227.15 1321.83 Q2225.02 1323.84 2224.7 1327.5 L2239.88 1327.48 Z" fill="#000000" fill-rule="evenodd" fill-opacity="1" /></svg>
