<?xml version="1.0" encoding="utf-8"?>
<svg xmlns="http://www.w3.org/2000/svg" xmlns:xlink="http://www.w3.org/1999/xlink" width="600" height="400" viewBox="0 0 2400 1600">
<defs>
  <clipPath id="clip680">
    <rect x="0" y="0" width="2400" height="1600"/>
  </clipPath>
</defs>
<path clip-path="url(#clip680)" d="
M0 1600 L2400 1600 L2400 0 L0 0  Z
  " fill="#ffffff" fill-rule="evenodd" fill-opacity="1"/>
<defs>
  <clipPath id="clip681">
    <rect x="480" y="0" width="1681" height="1600"/>
  </clipPath>
</defs>
<path clip-path="url(#clip680)" d="
M232.389 1410.9 L2352.76 1410.9 L2352.76 47.2441 L232.389 47.2441  Z
  " fill="#ffffff" fill-rule="evenodd" fill-opacity="1"/>
<defs>
  <clipPath id="clip682">
    <rect x="232" y="47" width="2121" height="1365"/>
  </clipPath>
</defs>
<polyline clip-path="url(#clip682)" style="stroke:#000000; stroke-linecap:round; stroke-linejoin:round; stroke-width:2; stroke-opacity:0.1; fill:none" points="
  241.109,1410.9 241.109,47.2441 
  "/>
<polyline clip-path="url(#clip682)" style="stroke:#000000; stroke-linecap:round; stroke-linejoin:round; stroke-width:2; stroke-opacity:0.1; fill:none" points="
  754.018,1410.9 754.018,47.2441 
  "/>
<polyline clip-path="url(#clip682)" style="stroke:#000000; stroke-linecap:round; stroke-linejoin:round; stroke-width:2; stroke-opacity:0.1; fill:none" points="
  1266.93,1410.9 1266.93,47.2441 
  "/>
<polyline clip-path="url(#clip682)" style="stroke:#000000; stroke-linecap:round; stroke-linejoin:round; stroke-width:2; stroke-opacity:0.1; fill:none" points="
  1779.84,1410.9 1779.84,47.2441 
  "/>
<polyline clip-path="url(#clip682)" style="stroke:#000000; stroke-linecap:round; stroke-linejoin:round; stroke-width:2; stroke-opacity:0.1; fill:none" points="
  2292.75,1410.9 2292.75,47.2441 
  "/>
<polyline clip-path="url(#clip680)" style="stroke:#000000; stroke-linecap:round; stroke-linejoin:round; stroke-width:4; stroke-opacity:1; fill:none" points="
  232.389,1410.9 2352.76,1410.9 
  "/>
<polyline clip-path="url(#clip680)" style="stroke:#000000; stroke-linecap:round; stroke-linejoin:round; stroke-width:4; stroke-opacity:1; fill:none" points="
  241.109,1410.9 241.109,1392 
  "/>
<polyline clip-path="url(#clip680)" style="stroke:#000000; stroke-linecap:round; stroke-linejoin:round; stroke-width:4; stroke-opacity:1; fill:none" points="
  754.018,1410.9 754.018,1392 
  "/>
<polyline clip-path="url(#clip680)" style="stroke:#000000; stroke-linecap:round; stroke-linejoin:round; stroke-width:4; stroke-opacity:1; fill:none" points="
  1266.93,1410.9 1266.93,1392 
  "/>
<polyline clip-path="url(#clip680)" style="stroke:#000000; stroke-linecap:round; stroke-linejoin:round; stroke-width:4; stroke-opacity:1; fill:none" points="
  1779.84,1410.9 1779.84,1392 
  "/>
<polyline clip-path="url(#clip680)" style="stroke:#000000; stroke-linecap:round; stroke-linejoin:round; stroke-width:4; stroke-opacity:1; fill:none" points="
  2292.75,1410.9 2292.75,1392 
  "/>
<path clip-path="url(#clip680)" d="M241.109 1441.82 Q237.498 1441.82 235.669 1445.38 Q233.863 1448.92 233.863 1456.05 Q233.863 1463.16 235.669 1466.72 Q237.498 1470.26 241.109 1470.26 Q244.743 1470.26 246.549 1466.72 Q248.377 1463.16 248.377 1456.05 Q248.377 1448.92 246.549 1445.38 Q244.743 1441.82 241.109 1441.82 M241.109 1438.11 Q246.919 1438.11 249.974 1442.72 Q253.053 1447.3 253.053 1456.05 Q253.053 1464.78 249.974 1469.38 Q246.919 1473.97 241.109 1473.97 Q235.299 1473.97 232.22 1469.38 Q229.164 1464.78 229.164 1456.05 Q229.164 1447.3 232.22 1442.72 Q235.299 1438.11 241.109 1438.11 Z" fill="#000000" fill-rule="evenodd" fill-opacity="1" /><path clip-path="url(#clip680)" d="M661.453 1485.02 L669.092 1485.02 L669.092 1458.66 L660.781 1460.32 L660.781 1456.06 L669.045 1454.4 L673.721 1454.4 L673.721 1485.02 L681.36 1485.02 L681.36 1488.96 L661.453 1488.96 L661.453 1485.02 Z" fill="#000000" fill-rule="evenodd" fill-opacity="1" /><path clip-path="url(#clip680)" d="M690.804 1483.08 L695.689 1483.08 L695.689 1488.96 L690.804 1488.96 L690.804 1483.08 Z" fill="#000000" fill-rule="evenodd" fill-opacity="1" /><path clip-path="url(#clip680)" d="M715.874 1457.48 Q712.263 1457.48 710.434 1461.04 Q708.628 1464.58 708.628 1471.71 Q708.628 1478.82 710.434 1482.38 Q712.263 1485.92 715.874 1485.92 Q719.508 1485.92 721.313 1482.38 Q723.142 1478.82 723.142 1471.71 Q723.142 1464.58 721.313 1461.04 Q719.508 1457.48 715.874 1457.48 M715.874 1453.77 Q721.684 1453.77 724.739 1458.38 Q727.818 1462.96 727.818 1471.71 Q727.818 1480.44 724.739 1485.04 Q721.684 1489.63 715.874 1489.63 Q710.064 1489.63 706.985 1485.04 Q703.929 1480.44 703.929 1471.71 Q703.929 1462.96 706.985 1458.38 Q710.064 1453.77 715.874 1453.77 Z" fill="#000000" fill-rule="evenodd" fill-opacity="1" /><path clip-path="url(#clip680)" d="M764.207 1463.49 L753.628 1474.12 L764.207 1484.7 L761.452 1487.5 L750.827 1476.87 L740.202 1487.5 L737.471 1484.7 L748.026 1474.12 L737.471 1463.49 L740.202 1460.69 L750.827 1471.32 L761.452 1460.69 L764.207 1463.49 Z" fill="#000000" fill-rule="evenodd" fill-opacity="1" /><path clip-path="url(#clip680)" d="M776.568 1485.02 L784.207 1485.02 L784.207 1458.66 L775.896 1460.32 L775.896 1456.06 L784.16 1454.4 L788.836 1454.4 L788.836 1485.02 L796.475 1485.02 L796.475 1488.96 L776.568 1488.96 L776.568 1485.02 Z" fill="#000000" fill-rule="evenodd" fill-opacity="1" /><path clip-path="url(#clip680)" d="M815.919 1457.48 Q812.308 1457.48 810.48 1461.04 Q808.674 1464.58 808.674 1471.71 Q808.674 1478.82 810.48 1482.38 Q812.308 1485.92 815.919 1485.92 Q819.554 1485.92 821.359 1482.38 Q823.188 1478.82 823.188 1471.71 Q823.188 1464.58 821.359 1461.04 Q819.554 1457.48 815.919 1457.48 M815.919 1453.77 Q821.73 1453.77 824.785 1458.38 Q827.864 1462.96 827.864 1471.71 Q827.864 1480.44 824.785 1485.04 Q821.73 1489.63 815.919 1489.63 Q810.109 1489.63 807.031 1485.04 Q803.975 1480.44 803.975 1471.71 Q803.975 1462.96 807.031 1458.38 Q810.109 1453.77 815.919 1453.77 Z" fill="#000000" fill-rule="evenodd" fill-opacity="1" /><path clip-path="url(#clip680)" d="M837.888 1445.99 Q835.33 1445.99 833.826 1447.74 Q832.34 1449.49 832.34 1452.54 Q832.34 1455.57 833.826 1457.33 Q835.33 1459.08 837.888 1459.08 Q840.446 1459.08 841.932 1457.33 Q843.437 1455.57 843.437 1452.54 Q843.437 1449.49 841.932 1447.74 Q840.446 1445.99 837.888 1445.99 M845.43 1434.09 L845.43 1437.55 Q844.001 1436.87 842.534 1436.51 Q841.086 1436.16 839.656 1436.16 Q835.895 1436.16 833.901 1438.69 Q831.926 1441.23 831.644 1446.37 Q832.754 1444.73 834.428 1443.87 Q836.102 1442.98 838.114 1442.98 Q842.346 1442.98 844.791 1445.56 Q847.255 1448.12 847.255 1452.54 Q847.255 1456.86 844.697 1459.48 Q842.139 1462.09 837.888 1462.09 Q833.017 1462.09 830.44 1458.37 Q827.864 1454.62 827.864 1447.53 Q827.864 1440.88 831.024 1436.93 Q834.183 1432.96 839.506 1432.96 Q840.935 1432.96 842.383 1433.24 Q843.85 1433.52 845.43 1434.09 Z" fill="#000000" fill-rule="evenodd" fill-opacity="1" /><path clip-path="url(#clip680)" d="M1178.45 1485.02 L1194.77 1485.02 L1194.77 1488.96 L1172.82 1488.96 L1172.82 1485.02 Q1175.48 1482.27 1180.07 1477.64 Q1184.67 1472.98 1185.85 1471.64 Q1188.1 1469.12 1188.98 1467.38 Q1189.88 1465.62 1189.88 1463.93 Q1189.88 1461.18 1187.94 1459.44 Q1186.02 1457.71 1182.92 1457.71 Q1180.72 1457.71 1178.26 1458.47 Q1175.83 1459.23 1173.05 1460.79 L1173.05 1456.06 Q1175.88 1454.93 1178.33 1454.35 Q1180.79 1453.77 1182.82 1453.77 Q1188.19 1453.77 1191.39 1456.46 Q1194.58 1459.14 1194.58 1463.63 Q1194.58 1465.76 1193.77 1467.68 Q1192.98 1469.58 1190.88 1472.17 Q1190.3 1472.85 1187.2 1476.06 Q1184.1 1479.26 1178.45 1485.02 Z" fill="#000000" fill-rule="evenodd" fill-opacity="1" /><path clip-path="url(#clip680)" d="M1204.58 1483.08 L1209.47 1483.08 L1209.47 1488.96 L1204.58 1488.96 L1204.58 1483.08 Z" fill="#000000" fill-rule="evenodd" fill-opacity="1" /><path clip-path="url(#clip680)" d="M1229.65 1457.48 Q1226.04 1457.48 1224.21 1461.04 Q1222.41 1464.58 1222.41 1471.71 Q1222.41 1478.82 1224.21 1482.38 Q1226.04 1485.92 1229.65 1485.92 Q1233.29 1485.92 1235.09 1482.38 Q1236.92 1478.82 1236.92 1471.71 Q1236.92 1464.58 1235.09 1461.04 Q1233.29 1457.48 1229.65 1457.48 M1229.65 1453.77 Q1235.46 1453.77 1238.52 1458.38 Q1241.6 1462.96 1241.6 1471.71 Q1241.6 1480.44 1238.52 1485.04 Q1235.46 1489.63 1229.65 1489.63 Q1223.84 1489.63 1220.76 1485.04 Q1217.71 1480.44 1217.71 1471.71 Q1217.71 1462.96 1220.76 1458.38 Q1223.84 1453.77 1229.65 1453.77 Z" fill="#000000" fill-rule="evenodd" fill-opacity="1" /><path clip-path="url(#clip680)" d="M1277.98 1463.49 L1267.41 1474.12 L1277.98 1484.7 L1275.23 1487.5 L1264.6 1476.87 L1253.98 1487.5 L1251.25 1484.7 L1261.8 1474.12 L1251.25 1463.49 L1253.98 1460.69 L1264.6 1471.32 L1275.23 1460.69 L1277.98 1463.49 Z" fill="#000000" fill-rule="evenodd" fill-opacity="1" /><path clip-path="url(#clip680)" d="M1290.35 1485.02 L1297.98 1485.02 L1297.98 1458.66 L1289.67 1460.32 L1289.67 1456.06 L1297.94 1454.4 L1302.61 1454.4 L1302.61 1485.02 L1310.25 1485.02 L1310.25 1488.96 L1290.35 1488.96 L1290.35 1485.02 Z" fill="#000000" fill-rule="evenodd" fill-opacity="1" /><path clip-path="url(#clip680)" d="M1329.7 1457.48 Q1326.09 1457.48 1324.26 1461.04 Q1322.45 1464.58 1322.45 1471.71 Q1322.45 1478.82 1324.26 1482.38 Q1326.09 1485.92 1329.7 1485.92 Q1333.33 1485.92 1335.14 1482.38 Q1336.97 1478.82 1336.97 1471.71 Q1336.97 1464.58 1335.14 1461.04 Q1333.33 1457.48 1329.7 1457.48 M1329.7 1453.77 Q1335.51 1453.77 1338.56 1458.38 Q1341.64 1462.96 1341.64 1471.71 Q1341.64 1480.44 1338.56 1485.04 Q1335.51 1489.63 1329.7 1489.63 Q1323.89 1489.63 1320.81 1485.04 Q1317.75 1480.44 1317.75 1471.71 Q1317.75 1462.96 1320.81 1458.38 Q1323.89 1453.77 1329.7 1453.77 Z" fill="#000000" fill-rule="evenodd" fill-opacity="1" /><path clip-path="url(#clip680)" d="M1351.67 1445.99 Q1349.11 1445.99 1347.6 1447.74 Q1346.12 1449.49 1346.12 1452.54 Q1346.12 1455.57 1347.6 1457.33 Q1349.11 1459.08 1351.67 1459.08 Q1354.22 1459.08 1355.71 1457.33 Q1357.21 1455.57 1357.21 1452.54 Q1357.21 1449.49 1355.71 1447.74 Q1354.22 1445.99 1351.67 1445.99 M1359.21 1434.09 L1359.21 1437.55 Q1357.78 1436.87 1356.31 1436.51 Q1354.86 1436.16 1353.43 1436.16 Q1349.67 1436.16 1347.68 1438.69 Q1345.7 1441.23 1345.42 1446.37 Q1346.53 1444.73 1348.2 1443.87 Q1349.88 1442.98 1351.89 1442.98 Q1356.12 1442.98 1358.57 1445.56 Q1361.03 1448.12 1361.03 1452.54 Q1361.03 1456.86 1358.47 1459.48 Q1355.92 1462.09 1351.67 1462.09 Q1346.79 1462.09 1344.22 1458.37 Q1341.64 1454.62 1341.64 1447.53 Q1341.64 1440.88 1344.8 1436.93 Q1347.96 1432.96 1353.28 1432.96 Q1354.71 1432.96 1356.16 1433.24 Q1357.63 1433.52 1359.21 1434.09 Z" fill="#000000" fill-rule="evenodd" fill-opacity="1" /><path clip-path="url(#clip680)" d="M1701.43 1470.32 Q1704.78 1471.04 1706.66 1473.31 Q1708.56 1475.58 1708.56 1478.91 Q1708.56 1484.03 1705.04 1486.83 Q1701.52 1489.63 1695.04 1489.63 Q1692.86 1489.63 1690.55 1489.19 Q1688.25 1488.77 1685.8 1487.91 L1685.8 1483.4 Q1687.75 1484.54 1690.06 1485.11 Q1692.38 1485.69 1694.9 1485.69 Q1699.3 1485.69 1701.59 1483.96 Q1703.9 1482.22 1703.9 1478.91 Q1703.9 1475.85 1701.75 1474.14 Q1699.62 1472.41 1695.8 1472.41 L1691.77 1472.41 L1691.77 1468.56 L1695.99 1468.56 Q1699.44 1468.56 1701.26 1467.2 Q1703.09 1465.81 1703.09 1463.22 Q1703.09 1460.55 1701.19 1459.14 Q1699.32 1457.71 1695.8 1457.71 Q1693.88 1457.71 1691.68 1458.12 Q1689.48 1458.54 1686.84 1459.42 L1686.84 1455.25 Q1689.5 1454.51 1691.82 1454.14 Q1694.16 1453.77 1696.22 1453.77 Q1701.54 1453.77 1704.64 1456.2 Q1707.75 1458.61 1707.75 1462.73 Q1707.75 1465.6 1706.1 1467.59 Q1704.46 1469.56 1701.43 1470.32 Z" fill="#000000" fill-rule="evenodd" fill-opacity="1" /><path clip-path="url(#clip680)" d="M1717.42 1483.08 L1722.31 1483.08 L1722.31 1488.96 L1717.42 1488.96 L1717.42 1483.08 Z" fill="#000000" fill-rule="evenodd" fill-opacity="1" /><path clip-path="url(#clip680)" d="M1742.49 1457.48 Q1738.88 1457.48 1737.05 1461.04 Q1735.25 1464.58 1735.25 1471.71 Q1735.25 1478.82 1737.05 1482.38 Q1738.88 1485.92 1742.49 1485.92 Q1746.12 1485.92 1747.93 1482.38 Q1749.76 1478.82 1749.76 1471.71 Q1749.76 1464.58 1747.93 1461.04 Q1746.12 1457.48 1742.49 1457.48 M1742.49 1453.77 Q1748.3 1453.77 1751.36 1458.38 Q1754.44 1462.96 1754.44 1471.71 Q1754.44 1480.44 1751.36 1485.04 Q1748.3 1489.63 1742.49 1489.63 Q1736.68 1489.63 1733.6 1485.04 Q1730.55 1480.44 1730.55 1471.71 Q1730.55 1462.96 1733.6 1458.38 Q1736.68 1453.77 1742.49 1453.77 Z" fill="#000000" fill-rule="evenodd" fill-opacity="1" /><path clip-path="url(#clip680)" d="M1790.82 1463.49 L1780.25 1474.12 L1790.82 1484.7 L1788.07 1487.5 L1777.44 1476.87 L1766.82 1487.5 L1764.09 1484.7 L1774.64 1474.12 L1764.09 1463.49 L1766.82 1460.69 L1777.44 1471.32 L1788.07 1460.69 L1790.82 1463.49 Z" fill="#000000" fill-rule="evenodd" fill-opacity="1" /><path clip-path="url(#clip680)" d="M1803.18 1485.02 L1810.82 1485.02 L1810.82 1458.66 L1802.51 1460.32 L1802.51 1456.06 L1810.78 1454.4 L1815.45 1454.4 L1815.45 1485.02 L1823.09 1485.02 L1823.09 1488.96 L1803.18 1488.96 L1803.18 1485.02 Z" fill="#000000" fill-rule="evenodd" fill-opacity="1" /><path clip-path="url(#clip680)" d="M1842.54 1457.48 Q1838.93 1457.48 1837.1 1461.04 Q1835.29 1464.58 1835.29 1471.71 Q1835.29 1478.82 1837.1 1482.38 Q1838.93 1485.92 1842.54 1485.92 Q1846.17 1485.92 1847.98 1482.38 Q1849.8 1478.82 1849.8 1471.71 Q1849.8 1464.58 1847.98 1461.04 Q1846.17 1457.48 1842.54 1457.48 M1842.54 1453.77 Q1848.35 1453.77 1851.4 1458.38 Q1854.48 1462.96 1854.48 1471.71 Q1854.48 1480.44 1851.4 1485.04 Q1848.35 1489.63 1842.54 1489.63 Q1836.73 1489.63 1833.65 1485.04 Q1830.59 1480.44 1830.59 1471.71 Q1830.59 1462.96 1833.65 1458.38 Q1836.73 1453.77 1842.54 1453.77 Z" fill="#000000" fill-rule="evenodd" fill-opacity="1" /><path clip-path="url(#clip680)" d="M1864.51 1445.99 Q1861.95 1445.99 1860.44 1447.74 Q1858.96 1449.49 1858.96 1452.54 Q1858.96 1455.57 1860.44 1457.33 Q1861.95 1459.08 1864.51 1459.08 Q1867.06 1459.08 1868.55 1457.33 Q1870.05 1455.57 1870.05 1452.54 Q1870.05 1449.49 1868.55 1447.74 Q1867.06 1445.99 1864.51 1445.99 M1872.05 1434.09 L1872.05 1437.55 Q1870.62 1436.87 1869.15 1436.51 Q1867.7 1436.16 1866.27 1436.16 Q1862.51 1436.16 1860.52 1438.69 Q1858.54 1441.23 1858.26 1446.37 Q1859.37 1444.73 1861.04 1443.87 Q1862.72 1442.98 1864.73 1442.98 Q1868.96 1442.98 1871.41 1445.56 Q1873.87 1448.12 1873.87 1452.54 Q1873.87 1456.86 1871.31 1459.48 Q1868.76 1462.09 1864.51 1462.09 Q1859.63 1462.09 1857.06 1458.37 Q1854.48 1454.62 1854.48 1447.53 Q1854.48 1440.88 1857.64 1436.93 Q1860.8 1432.96 1866.12 1432.96 Q1867.55 1432.96 1869 1433.24 Q1870.47 1433.52 1872.05 1434.09 Z" fill="#000000" fill-rule="evenodd" fill-opacity="1" /><path clip-path="url(#clip680)" d="M2213.66 1458.47 L2201.86 1476.92 L2213.66 1476.92 L2213.66 1458.47 M2212.44 1454.4 L2218.32 1454.4 L2218.32 1476.92 L2223.25 1476.92 L2223.25 1480.81 L2218.32 1480.81 L2218.32 1488.96 L2213.66 1488.96 L2213.66 1480.81 L2198.06 1480.81 L2198.06 1476.29 L2212.44 1454.4 Z" fill="#000000" fill-rule="evenodd" fill-opacity="1" /><path clip-path="url(#clip680)" d="M2230.98 1483.08 L2235.86 1483.08 L2235.86 1488.96 L2230.98 1488.96 L2230.98 1483.08 Z" fill="#000000" fill-rule="evenodd" fill-opacity="1" /><path clip-path="url(#clip680)" d="M2256.05 1457.48 Q2252.44 1457.48 2250.61 1461.04 Q2248.8 1464.58 2248.8 1471.71 Q2248.8 1478.82 2250.61 1482.38 Q2252.44 1485.92 2256.05 1485.92 Q2259.68 1485.92 2261.49 1482.38 Q2263.32 1478.82 2263.32 1471.71 Q2263.32 1464.58 2261.49 1461.04 Q2259.68 1457.48 2256.05 1457.48 M2256.05 1453.77 Q2261.86 1453.77 2264.91 1458.38 Q2267.99 1462.96 2267.99 1471.71 Q2267.99 1480.44 2264.91 1485.04 Q2261.86 1489.63 2256.05 1489.63 Q2250.24 1489.63 2247.16 1485.04 Q2244.1 1480.44 2244.1 1471.71 Q2244.1 1462.96 2247.16 1458.38 Q2250.24 1453.77 2256.05 1453.77 Z" fill="#000000" fill-rule="evenodd" fill-opacity="1" /><path clip-path="url(#clip680)" d="M2304.38 1463.49 L2293.8 1474.12 L2304.38 1484.7 L2301.63 1487.5 L2291 1476.87 L2280.38 1487.5 L2277.65 1484.7 L2288.2 1474.12 L2277.65 1463.49 L2280.38 1460.69 L2291 1471.32 L2301.63 1460.69 L2304.38 1463.49 Z" fill="#000000" fill-rule="evenodd" fill-opacity="1" /><path clip-path="url(#clip680)" d="M2316.74 1485.02 L2324.38 1485.02 L2324.38 1458.66 L2316.07 1460.32 L2316.07 1456.06 L2324.33 1454.4 L2329.01 1454.4 L2329.01 1485.02 L2336.65 1485.02 L2336.65 1488.96 L2316.74 1488.96 L2316.74 1485.02 Z" fill="#000000" fill-rule="evenodd" fill-opacity="1" /><path clip-path="url(#clip680)" d="M2356.09 1457.48 Q2352.48 1457.48 2350.65 1461.04 Q2348.85 1464.58 2348.85 1471.71 Q2348.85 1478.82 2350.65 1482.38 Q2352.48 1485.92 2356.09 1485.92 Q2359.73 1485.92 2361.53 1482.38 Q2363.36 1478.82 2363.36 1471.71 Q2363.36 1464.58 2361.53 1461.04 Q2359.73 1457.48 2356.09 1457.48 M2356.09 1453.77 Q2361.9 1453.77 2364.96 1458.38 Q2368.04 1462.96 2368.04 1471.71 Q2368.04 1480.44 2364.96 1485.04 Q2361.9 1489.63 2356.09 1489.63 Q2350.28 1489.63 2347.2 1485.04 Q2344.15 1480.44 2344.15 1471.71 Q2344.15 1462.96 2347.2 1458.38 Q2350.28 1453.77 2356.09 1453.77 Z" fill="#000000" fill-rule="evenodd" fill-opacity="1" /><path clip-path="url(#clip680)" d="M2378.06 1445.99 Q2375.5 1445.99 2374 1447.74 Q2372.51 1449.49 2372.51 1452.54 Q2372.51 1455.57 2374 1457.33 Q2375.5 1459.08 2378.06 1459.08 Q2380.62 1459.08 2382.11 1457.33 Q2383.61 1455.57 2383.61 1452.54 Q2383.61 1449.49 2382.11 1447.74 Q2380.62 1445.99 2378.06 1445.99 M2385.6 1434.09 L2385.6 1437.55 Q2384.18 1436.87 2382.71 1436.51 Q2381.26 1436.16 2379.83 1436.16 Q2376.07 1436.16 2374.08 1438.69 Q2372.1 1441.23 2371.82 1446.37 Q2372.93 1444.73 2374.6 1443.87 Q2376.28 1442.98 2378.29 1442.98 Q2382.52 1442.98 2384.97 1445.56 Q2387.43 1448.12 2387.43 1452.54 Q2387.43 1456.86 2384.87 1459.48 Q2382.31 1462.09 2378.06 1462.09 Q2373.19 1462.09 2370.61 1458.37 Q2368.04 1454.62 2368.04 1447.53 Q2368.04 1440.88 2371.2 1436.93 Q2374.36 1432.96 2379.68 1432.96 Q2381.11 1432.96 2382.56 1433.24 Q2384.02 1433.52 2385.6 1434.09 Z" fill="#000000" fill-rule="evenodd" fill-opacity="1" /><path clip-path="url(#clip680)" d="M1142.14 1526.67 L1148.56 1526.67 L1148.56 1574.19 L1142.14 1574.19 L1142.14 1526.67 Z" fill="#000000" fill-rule="evenodd" fill-opacity="1" /><path clip-path="url(#clip680)" d="M1166.9 1528.42 L1166.9 1538.54 L1178.96 1538.54 L1178.96 1543.09 L1166.9 1543.09 L1166.9 1562.44 Q1166.9 1566.8 1168.08 1568.04 Q1169.28 1569.28 1172.95 1569.28 L1178.96 1569.28 L1178.96 1574.19 L1172.95 1574.19 Q1166.17 1574.19 1163.59 1571.67 Q1161.01 1569.12 1161.01 1562.44 L1161.01 1543.09 L1156.71 1543.09 L1156.71 1538.54 L1161.01 1538.54 L1161.01 1528.42 L1166.9 1528.42 Z" fill="#000000" fill-rule="evenodd" fill-opacity="1" /><path clip-path="url(#clip680)" d="M1217.15 1554.9 L1217.15 1557.76 L1190.23 1557.76 Q1190.61 1563.81 1193.86 1566.99 Q1197.13 1570.14 1202.96 1570.14 Q1206.33 1570.14 1209.48 1569.32 Q1212.67 1568.49 1215.79 1566.83 L1215.79 1572.37 Q1212.64 1573.71 1209.33 1574.41 Q1206.01 1575.11 1202.61 1575.11 Q1194.08 1575.11 1189.08 1570.14 Q1184.12 1565.18 1184.12 1556.71 Q1184.12 1547.96 1188.83 1542.83 Q1193.57 1537.68 1201.59 1537.68 Q1208.78 1537.68 1212.95 1542.33 Q1217.15 1546.94 1217.15 1554.9 M1211.3 1553.18 Q1211.23 1548.37 1208.59 1545.51 Q1205.98 1542.64 1201.65 1542.64 Q1196.75 1542.64 1193.79 1545.41 Q1190.86 1548.18 1190.42 1553.21 L1211.3 1553.18 Z" fill="#000000" fill-rule="evenodd" fill-opacity="1" /><path clip-path="url(#clip680)" d="M1247.42 1544.01 Q1246.44 1543.44 1245.26 1543.18 Q1244.11 1542.9 1242.71 1542.9 Q1237.75 1542.9 1235.07 1546.14 Q1232.43 1549.36 1232.43 1555.41 L1232.43 1574.19 L1226.54 1574.19 L1226.54 1538.54 L1232.43 1538.54 L1232.43 1544.08 Q1234.28 1540.83 1237.24 1539.27 Q1240.2 1537.68 1244.43 1537.68 Q1245.04 1537.68 1245.77 1537.77 Q1246.5 1537.84 1247.39 1538 L1247.42 1544.01 Z" fill="#000000" fill-rule="evenodd" fill-opacity="1" /><path clip-path="url(#clip680)" d="M1269.77 1556.27 Q1262.67 1556.27 1259.93 1557.89 Q1257.2 1559.51 1257.2 1563.43 Q1257.2 1566.55 1259.23 1568.39 Q1261.3 1570.21 1264.83 1570.21 Q1269.7 1570.21 1272.63 1566.77 Q1275.59 1563.3 1275.59 1557.57 L1275.59 1556.27 L1269.77 1556.27 M1281.45 1553.85 L1281.45 1574.19 L1275.59 1574.19 L1275.59 1568.77 Q1273.59 1572.02 1270.6 1573.58 Q1267.6 1575.11 1263.27 1575.11 Q1257.8 1575.11 1254.55 1572.05 Q1251.34 1568.97 1251.34 1563.81 Q1251.34 1557.79 1255.35 1554.74 Q1259.39 1551.68 1267.38 1551.68 L1275.59 1551.68 L1275.59 1551.11 Q1275.59 1547.07 1272.92 1544.87 Q1270.28 1542.64 1265.47 1542.64 Q1262.42 1542.64 1259.52 1543.38 Q1256.62 1544.11 1253.95 1545.57 L1253.95 1540.16 Q1257.16 1538.92 1260.19 1538.31 Q1263.21 1537.68 1266.08 1537.68 Q1273.81 1537.68 1277.63 1541.69 Q1281.45 1545.7 1281.45 1553.85 Z" fill="#000000" fill-rule="evenodd" fill-opacity="1" /><path clip-path="url(#clip680)" d="M1299.3 1528.42 L1299.3 1538.54 L1311.37 1538.54 L1311.37 1543.09 L1299.3 1543.09 L1299.3 1562.44 Q1299.3 1566.8 1300.48 1568.04 Q1301.69 1569.28 1305.35 1569.28 L1311.37 1569.28 L1311.37 1574.19 L1305.35 1574.19 Q1298.57 1574.19 1295.99 1571.67 Q1293.42 1569.12 1293.42 1562.44 L1293.42 1543.09 L1289.12 1543.09 L1289.12 1538.54 L1293.42 1538.54 L1293.42 1528.42 L1299.3 1528.42 Z" fill="#000000" fill-rule="evenodd" fill-opacity="1" /><path clip-path="url(#clip680)" d="M1319.07 1538.54 L1324.93 1538.54 L1324.93 1574.19 L1319.07 1574.19 L1319.07 1538.54 M1319.07 1524.66 L1324.93 1524.66 L1324.93 1532.08 L1319.07 1532.08 L1319.07 1524.66 Z" fill="#000000" fill-rule="evenodd" fill-opacity="1" /><path clip-path="url(#clip680)" d="M1350.99 1542.64 Q1346.28 1542.64 1343.55 1546.34 Q1340.81 1550 1340.81 1556.39 Q1340.81 1562.79 1343.51 1566.48 Q1346.25 1570.14 1350.99 1570.14 Q1355.67 1570.14 1358.41 1566.45 Q1361.15 1562.76 1361.15 1556.39 Q1361.15 1550.06 1358.41 1546.37 Q1355.67 1542.64 1350.99 1542.64 M1350.99 1537.68 Q1358.63 1537.68 1362.99 1542.64 Q1367.35 1547.61 1367.35 1556.39 Q1367.35 1565.15 1362.99 1570.14 Q1358.63 1575.11 1350.99 1575.11 Q1343.32 1575.11 1338.96 1570.14 Q1334.63 1565.15 1334.63 1556.39 Q1334.63 1547.61 1338.96 1542.64 Q1343.32 1537.68 1350.99 1537.68 Z" fill="#000000" fill-rule="evenodd" fill-opacity="1" /><path clip-path="url(#clip680)" d="M1406.69 1552.67 L1406.69 1574.19 L1400.84 1574.19 L1400.84 1552.86 Q1400.84 1547.8 1398.86 1545.29 Q1396.89 1542.77 1392.94 1542.77 Q1388.2 1542.77 1385.46 1545.79 Q1382.73 1548.82 1382.73 1554.04 L1382.73 1574.19 L1376.84 1574.19 L1376.84 1538.54 L1382.73 1538.54 L1382.73 1544.08 Q1384.83 1540.86 1387.66 1539.27 Q1390.52 1537.68 1394.25 1537.68 Q1400.39 1537.68 1403.54 1541.5 Q1406.69 1545.29 1406.69 1552.67 Z" fill="#000000" fill-rule="evenodd" fill-opacity="1" /><path clip-path="url(#clip680)" d="M1441.1 1539.59 L1441.1 1545.13 Q1438.62 1543.85 1435.94 1543.22 Q1433.27 1542.58 1430.41 1542.58 Q1426.05 1542.58 1423.85 1543.92 Q1421.69 1545.25 1421.69 1547.93 Q1421.69 1549.96 1423.24 1551.14 Q1424.8 1552.29 1429.51 1553.34 L1431.52 1553.78 Q1437.76 1555.12 1440.37 1557.57 Q1443.01 1559.99 1443.01 1564.35 Q1443.01 1569.32 1439.06 1572.21 Q1435.15 1575.11 1428.27 1575.11 Q1425.41 1575.11 1422.29 1574.54 Q1419.2 1573.99 1415.76 1572.88 L1415.76 1566.83 Q1419.01 1568.52 1422.16 1569.38 Q1425.31 1570.21 1428.4 1570.21 Q1432.54 1570.21 1434.77 1568.81 Q1436.99 1567.37 1436.99 1564.8 Q1436.99 1562.41 1435.37 1561.14 Q1433.78 1559.86 1428.34 1558.68 L1426.3 1558.21 Q1420.86 1557.06 1418.44 1554.71 Q1416.02 1552.32 1416.02 1548.18 Q1416.02 1543.15 1419.58 1540.42 Q1423.15 1537.68 1429.71 1537.68 Q1432.95 1537.68 1435.82 1538.16 Q1438.68 1538.63 1441.1 1539.59 Z" fill="#000000" fill-rule="evenodd" fill-opacity="1" /><polyline clip-path="url(#clip682)" style="stroke:#000000; stroke-linecap:round; stroke-linejoin:round; stroke-width:2; stroke-opacity:0.1; fill:none" points="
  232.389,1384.01 2352.76,1384.01 
  "/>
<polyline clip-path="url(#clip682)" style="stroke:#000000; stroke-linecap:round; stroke-linejoin:round; stroke-width:2; stroke-opacity:0.1; fill:none" points="
  232.389,1158.97 2352.76,1158.97 
  "/>
<polyline clip-path="url(#clip682)" style="stroke:#000000; stroke-linecap:round; stroke-linejoin:round; stroke-width:2; stroke-opacity:0.1; fill:none" points="
  232.389,933.936 2352.76,933.936 
  "/>
<polyline clip-path="url(#clip682)" style="stroke:#000000; stroke-linecap:round; stroke-linejoin:round; stroke-width:2; stroke-opacity:0.1; fill:none" points="
  232.389,708.898 2352.76,708.898 
  "/>
<polyline clip-path="url(#clip682)" style="stroke:#000000; stroke-linecap:round; stroke-linejoin:round; stroke-width:2; stroke-opacity:0.1; fill:none" points="
  232.389,483.859 2352.76,483.859 
  "/>
<polyline clip-path="url(#clip682)" style="stroke:#000000; stroke-linecap:round; stroke-linejoin:round; stroke-width:2; stroke-opacity:0.1; fill:none" points="
  232.389,258.82 2352.76,258.82 
  "/>
<polyline clip-path="url(#clip680)" style="stroke:#000000; stroke-linecap:round; stroke-linejoin:round; stroke-width:4; stroke-opacity:1; fill:none" points="
  232.389,1410.9 232.389,47.2441 
  "/>
<polyline clip-path="url(#clip680)" style="stroke:#000000; stroke-linecap:round; stroke-linejoin:round; stroke-width:4; stroke-opacity:1; fill:none" points="
  232.389,1384.01 251.287,1384.01 
  "/>
<polyline clip-path="url(#clip680)" style="stroke:#000000; stroke-linecap:round; stroke-linejoin:round; stroke-width:4; stroke-opacity:1; fill:none" points="
  232.389,1158.97 251.287,1158.97 
  "/>
<polyline clip-path="url(#clip680)" style="stroke:#000000; stroke-linecap:round; stroke-linejoin:round; stroke-width:4; stroke-opacity:1; fill:none" points="
  232.389,933.936 251.287,933.936 
  "/>
<polyline clip-path="url(#clip680)" style="stroke:#000000; stroke-linecap:round; stroke-linejoin:round; stroke-width:4; stroke-opacity:1; fill:none" points="
  232.389,708.898 251.287,708.898 
  "/>
<polyline clip-path="url(#clip680)" style="stroke:#000000; stroke-linecap:round; stroke-linejoin:round; stroke-width:4; stroke-opacity:1; fill:none" points="
  232.389,483.859 251.287,483.859 
  "/>
<polyline clip-path="url(#clip680)" style="stroke:#000000; stroke-linecap:round; stroke-linejoin:round; stroke-width:4; stroke-opacity:1; fill:none" points="
  232.389,258.82 251.287,258.82 
  "/>
<path clip-path="url(#clip680)" d="M114.931 1397.36 L122.57 1397.36 L122.57 1370.99 L114.26 1372.66 L114.26 1368.4 L122.524 1366.73 L127.2 1366.73 L127.2 1397.36 L134.839 1397.36 L134.839 1401.29 L114.931 1401.29 L114.931 1397.36 Z" fill="#000000" fill-rule="evenodd" fill-opacity="1" /><path clip-path="url(#clip680)" d="M154.862 1382.15 Q151.714 1382.15 149.862 1384.3 Q148.033 1386.46 148.033 1390.21 Q148.033 1393.93 149.862 1396.11 Q151.714 1398.26 154.862 1398.26 Q158.01 1398.26 159.839 1396.11 Q161.69 1393.93 161.69 1390.21 Q161.69 1386.46 159.839 1384.3 Q158.01 1382.15 154.862 1382.15 M164.144 1367.5 L164.144 1371.76 Q162.385 1370.92 160.579 1370.48 Q158.797 1370.04 157.038 1370.04 Q152.408 1370.04 149.954 1373.17 Q147.524 1376.29 147.177 1382.61 Q148.542 1380.6 150.603 1379.53 Q152.663 1378.45 155.14 1378.45 Q160.348 1378.45 163.357 1381.62 Q166.39 1384.77 166.39 1390.21 Q166.39 1395.53 163.241 1398.75 Q160.093 1401.96 154.862 1401.96 Q148.866 1401.96 145.695 1397.38 Q142.524 1392.78 142.524 1384.05 Q142.524 1375.85 146.413 1370.99 Q150.302 1366.11 156.853 1366.11 Q158.612 1366.11 160.394 1366.46 Q162.2 1366.8 164.144 1367.5 Z" fill="#000000" fill-rule="evenodd" fill-opacity="1" /><path clip-path="url(#clip680)" d="M184.445 1369.81 Q180.834 1369.81 179.005 1373.38 Q177.2 1376.92 177.2 1384.05 Q177.2 1391.15 179.005 1394.72 Q180.834 1398.26 184.445 1398.26 Q188.079 1398.26 189.885 1394.72 Q191.713 1391.15 191.713 1384.05 Q191.713 1376.92 189.885 1373.38 Q188.079 1369.81 184.445 1369.81 M184.445 1366.11 Q190.255 1366.11 193.311 1370.72 Q196.389 1375.3 196.389 1384.05 Q196.389 1392.78 193.311 1397.38 Q190.255 1401.96 184.445 1401.96 Q178.635 1401.96 175.556 1397.38 Q172.501 1392.78 172.501 1384.05 Q172.501 1375.3 175.556 1370.72 Q178.635 1366.11 184.445 1366.11 Z" fill="#000000" fill-rule="evenodd" fill-opacity="1" /><path clip-path="url(#clip680)" d="M115.927 1172.32 L123.566 1172.32 L123.566 1145.95 L115.256 1147.62 L115.256 1143.36 L123.519 1141.69 L128.195 1141.69 L128.195 1172.32 L135.834 1172.32 L135.834 1176.25 L115.927 1176.25 L115.927 1172.32 Z" fill="#000000" fill-rule="evenodd" fill-opacity="1" /><path clip-path="url(#clip680)" d="M155.857 1157.11 Q152.709 1157.11 150.857 1159.26 Q149.028 1161.42 149.028 1165.17 Q149.028 1168.89 150.857 1171.07 Q152.709 1173.22 155.857 1173.22 Q159.005 1173.22 160.834 1171.07 Q162.686 1168.89 162.686 1165.17 Q162.686 1161.42 160.834 1159.26 Q159.005 1157.11 155.857 1157.11 M165.14 1142.46 L165.14 1146.72 Q163.38 1145.88 161.575 1145.44 Q159.792 1145.01 158.033 1145.01 Q153.403 1145.01 150.95 1148.13 Q148.519 1151.26 148.172 1157.57 Q149.538 1155.56 151.598 1154.5 Q153.658 1153.41 156.135 1153.41 Q161.343 1153.41 164.352 1156.58 Q167.385 1159.73 167.385 1165.17 Q167.385 1170.49 164.237 1173.71 Q161.089 1176.93 155.857 1176.93 Q149.862 1176.93 146.691 1172.34 Q143.519 1167.74 143.519 1159.01 Q143.519 1150.82 147.408 1145.95 Q151.297 1141.07 157.848 1141.07 Q159.607 1141.07 161.39 1141.42 Q163.195 1141.76 165.14 1142.46 Z" fill="#000000" fill-rule="evenodd" fill-opacity="1" /><path clip-path="url(#clip680)" d="M175.487 1141.69 L193.843 1141.69 L193.843 1145.63 L179.769 1145.63 L179.769 1154.1 Q180.788 1153.76 181.806 1153.59 Q182.825 1153.41 183.843 1153.41 Q189.63 1153.41 193.01 1156.58 Q196.389 1159.75 196.389 1165.17 Q196.389 1170.75 192.917 1173.85 Q189.445 1176.93 183.126 1176.93 Q180.95 1176.93 178.681 1176.56 Q176.436 1176.19 174.028 1175.44 L174.028 1170.75 Q176.112 1171.88 178.334 1172.44 Q180.556 1172.99 183.033 1172.99 Q187.038 1172.99 189.375 1170.88 Q191.713 1168.78 191.713 1165.17 Q191.713 1161.56 189.375 1159.45 Q187.038 1157.34 183.033 1157.34 Q181.158 1157.34 179.283 1157.76 Q177.431 1158.18 175.487 1159.06 L175.487 1141.69 Z" fill="#000000" fill-rule="evenodd" fill-opacity="1" /><path clip-path="url(#clip680)" d="M114.931 947.281 L122.57 947.281 L122.57 920.915 L114.26 922.582 L114.26 918.323 L122.524 916.656 L127.2 916.656 L127.2 947.281 L134.839 947.281 L134.839 951.216 L114.931 951.216 L114.931 947.281 Z" fill="#000000" fill-rule="evenodd" fill-opacity="1" /><path clip-path="url(#clip680)" d="M143.103 916.656 L165.325 916.656 L165.325 918.647 L152.778 951.216 L147.894 951.216 L159.7 920.591 L143.103 920.591 L143.103 916.656 Z" fill="#000000" fill-rule="evenodd" fill-opacity="1" /><path clip-path="url(#clip680)" d="M184.445 919.735 Q180.834 919.735 179.005 923.3 Q177.2 926.841 177.2 933.971 Q177.2 941.077 179.005 944.642 Q180.834 948.184 184.445 948.184 Q188.079 948.184 189.885 944.642 Q191.713 941.077 191.713 933.971 Q191.713 926.841 189.885 923.3 Q188.079 919.735 184.445 919.735 M184.445 916.031 Q190.255 916.031 193.311 920.638 Q196.389 925.221 196.389 933.971 Q196.389 942.698 193.311 947.304 Q190.255 951.888 184.445 951.888 Q178.635 951.888 175.556 947.304 Q172.501 942.698 172.501 933.971 Q172.501 925.221 175.556 920.638 Q178.635 916.031 184.445 916.031 Z" fill="#000000" fill-rule="evenodd" fill-opacity="1" /><path clip-path="url(#clip680)" d="M115.927 722.242 L123.566 722.242 L123.566 695.877 L115.256 697.543 L115.256 693.284 L123.519 691.618 L128.195 691.618 L128.195 722.242 L135.834 722.242 L135.834 726.178 L115.927 726.178 L115.927 722.242 Z" fill="#000000" fill-rule="evenodd" fill-opacity="1" /><path clip-path="url(#clip680)" d="M144.098 691.618 L166.32 691.618 L166.32 693.608 L153.774 726.178 L148.89 726.178 L160.695 695.553 L144.098 695.553 L144.098 691.618 Z" fill="#000000" fill-rule="evenodd" fill-opacity="1" /><path clip-path="url(#clip680)" d="M175.487 691.618 L193.843 691.618 L193.843 695.553 L179.769 695.553 L179.769 704.025 Q180.788 703.678 181.806 703.516 Q182.825 703.33 183.843 703.33 Q189.63 703.33 193.01 706.502 Q196.389 709.673 196.389 715.09 Q196.389 720.668 192.917 723.77 Q189.445 726.849 183.126 726.849 Q180.95 726.849 178.681 726.479 Q176.436 726.108 174.028 725.367 L174.028 720.668 Q176.112 721.803 178.334 722.358 Q180.556 722.914 183.033 722.914 Q187.038 722.914 189.375 720.807 Q191.713 718.701 191.713 715.09 Q191.713 711.479 189.375 709.372 Q187.038 707.266 183.033 707.266 Q181.158 707.266 179.283 707.682 Q177.431 708.099 175.487 708.979 L175.487 691.618 Z" fill="#000000" fill-rule="evenodd" fill-opacity="1" /><path clip-path="url(#clip680)" d="M114.931 497.204 L122.57 497.204 L122.57 470.838 L114.26 472.505 L114.26 468.246 L122.524 466.579 L127.2 466.579 L127.2 497.204 L134.839 497.204 L134.839 501.139 L114.931 501.139 L114.931 497.204 Z" fill="#000000" fill-rule="evenodd" fill-opacity="1" /><path clip-path="url(#clip680)" d="M154.283 484.727 Q150.95 484.727 149.028 486.509 Q147.13 488.292 147.13 491.417 Q147.13 494.542 149.028 496.324 Q150.95 498.107 154.283 498.107 Q157.616 498.107 159.538 496.324 Q161.459 494.519 161.459 491.417 Q161.459 488.292 159.538 486.509 Q157.64 484.727 154.283 484.727 M149.607 482.736 Q146.598 481.996 144.908 479.935 Q143.241 477.875 143.241 474.912 Q143.241 470.769 146.181 468.361 Q149.144 465.954 154.283 465.954 Q159.445 465.954 162.385 468.361 Q165.325 470.769 165.325 474.912 Q165.325 477.875 163.635 479.935 Q161.968 481.996 158.982 482.736 Q162.362 483.523 164.237 485.815 Q166.135 488.107 166.135 491.417 Q166.135 496.44 163.056 499.125 Q160.001 501.81 154.283 501.81 Q148.566 501.81 145.487 499.125 Q142.431 496.44 142.431 491.417 Q142.431 488.107 144.329 485.815 Q146.228 483.523 149.607 482.736 M147.894 475.352 Q147.894 478.037 149.561 479.542 Q151.251 481.046 154.283 481.046 Q157.292 481.046 158.982 479.542 Q160.695 478.037 160.695 475.352 Q160.695 472.667 158.982 471.162 Q157.292 469.658 154.283 469.658 Q151.251 469.658 149.561 471.162 Q147.894 472.667 147.894 475.352 Z" fill="#000000" fill-rule="evenodd" fill-opacity="1" /><path clip-path="url(#clip680)" d="M184.445 469.658 Q180.834 469.658 179.005 473.222 Q177.2 476.764 177.2 483.894 Q177.2 491 179.005 494.565 Q180.834 498.107 184.445 498.107 Q188.079 498.107 189.885 494.565 Q191.713 491 191.713 483.894 Q191.713 476.764 189.885 473.222 Q188.079 469.658 184.445 469.658 M184.445 465.954 Q190.255 465.954 193.311 470.56 Q196.389 475.144 196.389 483.894 Q196.389 492.62 193.311 497.227 Q190.255 501.81 184.445 501.81 Q178.635 501.81 175.556 497.227 Q172.501 492.62 172.501 483.894 Q172.501 475.144 175.556 470.56 Q178.635 465.954 184.445 465.954 Z" fill="#000000" fill-rule="evenodd" fill-opacity="1" /><path clip-path="url(#clip680)" d="M115.927 272.165 L123.566 272.165 L123.566 245.799 L115.256 247.466 L115.256 243.207 L123.519 241.54 L128.195 241.54 L128.195 272.165 L135.834 272.165 L135.834 276.1 L115.927 276.1 L115.927 272.165 Z" fill="#000000" fill-rule="evenodd" fill-opacity="1" /><path clip-path="url(#clip680)" d="M155.278 259.688 Q151.945 259.688 150.024 261.471 Q148.126 263.253 148.126 266.378 Q148.126 269.503 150.024 271.285 Q151.945 273.068 155.278 273.068 Q158.612 273.068 160.533 271.285 Q162.454 269.48 162.454 266.378 Q162.454 263.253 160.533 261.471 Q158.635 259.688 155.278 259.688 M150.603 257.698 Q147.593 256.957 145.904 254.897 Q144.237 252.836 144.237 249.874 Q144.237 245.73 147.177 243.323 Q150.14 240.915 155.278 240.915 Q160.44 240.915 163.38 243.323 Q166.32 245.73 166.32 249.874 Q166.32 252.836 164.63 254.897 Q162.964 256.957 159.978 257.698 Q163.357 258.485 165.232 260.776 Q167.13 263.068 167.13 266.378 Q167.13 271.401 164.052 274.086 Q160.996 276.772 155.278 276.772 Q149.561 276.772 146.482 274.086 Q143.427 271.401 143.427 266.378 Q143.427 263.068 145.325 260.776 Q147.223 258.485 150.603 257.698 M148.89 250.313 Q148.89 252.999 150.556 254.503 Q152.246 256.008 155.278 256.008 Q158.288 256.008 159.978 254.503 Q161.69 252.999 161.69 250.313 Q161.69 247.628 159.978 246.124 Q158.288 244.619 155.278 244.619 Q152.246 244.619 150.556 246.124 Q148.89 247.628 148.89 250.313 Z" fill="#000000" fill-rule="evenodd" fill-opacity="1" /><path clip-path="url(#clip680)" d="M175.487 241.54 L193.843 241.54 L193.843 245.475 L179.769 245.475 L179.769 253.948 Q180.788 253.6 181.806 253.438 Q182.825 253.253 183.843 253.253 Q189.63 253.253 193.01 256.424 Q196.389 259.596 196.389 265.012 Q196.389 270.591 192.917 273.693 Q189.445 276.772 183.126 276.772 Q180.95 276.772 178.681 276.401 Q176.436 276.031 174.028 275.29 L174.028 270.591 Q176.112 271.725 178.334 272.281 Q180.556 272.836 183.033 272.836 Q187.038 272.836 189.375 270.73 Q191.713 268.623 191.713 265.012 Q191.713 261.401 189.375 259.295 Q187.038 257.188 183.033 257.188 Q181.158 257.188 179.283 257.605 Q177.431 258.022 175.487 258.901 L175.487 241.54 Z" fill="#000000" fill-rule="evenodd" fill-opacity="1" /><path clip-path="url(#clip680)" d="M41.7242 821.755 Q42.4244 819.686 44.7161 817.745 Q47.0077 815.771 51.0181 813.798 L64.0042 807.273 L64.0042 814.18 L51.8138 820.259 Q47.0395 822.614 45.48 824.842 Q43.9204 827.039 43.9204 830.858 L43.9204 837.86 L64.0042 837.86 L64.0042 844.29 L16.4842 844.29 L16.4842 829.776 Q16.4842 821.628 19.8898 817.617 Q23.2955 813.607 30.1704 813.607 Q34.6582 813.607 37.6183 815.708 Q40.5784 817.776 41.7242 821.755 M21.7677 837.86 L38.6368 837.86 L38.6368 829.776 Q38.6368 825.129 36.5043 822.774 Q34.34 820.386 30.1704 820.386 Q26.0009 820.386 23.9002 822.774 Q21.7677 825.129 21.7677 829.776 L21.7677 837.86 Z" fill="#000000" fill-rule="evenodd" fill-opacity="1" /><path clip-path="url(#clip680)" d="M44.7161 771.689 L47.5806 771.689 L47.5806 798.616 Q53.6281 798.234 56.8109 794.987 Q59.9619 791.709 59.9619 785.884 Q59.9619 782.51 59.1344 779.359 Q58.3069 776.177 56.6518 773.057 L62.1899 773.057 Q63.5267 776.208 64.227 779.519 Q64.9272 782.829 64.9272 786.234 Q64.9272 794.764 59.9619 799.762 Q54.9967 804.727 46.5303 804.727 Q37.7774 804.727 32.6531 800.016 Q27.4968 795.274 27.4968 787.253 Q27.4968 780.06 32.1438 775.89 Q36.7589 771.689 44.7161 771.689 M42.9973 777.545 Q38.1912 777.609 35.3266 780.251 Q32.4621 782.861 32.4621 787.189 Q32.4621 792.091 35.2312 795.051 Q38.0002 797.979 43.0292 798.425 L42.9973 777.545 Z" fill="#000000" fill-rule="evenodd" fill-opacity="1" /><path clip-path="url(#clip680)" d="M28.3562 765.482 L28.3562 759.626 L56.1743 752.305 L28.3562 745.016 L28.3562 738.11 L56.1743 730.789 L28.3562 723.5 L28.3562 717.644 L64.0042 726.97 L64.0042 733.876 L34.7856 741.547 L64.0042 749.25 L64.0042 756.156 L28.3562 765.482 Z" fill="#000000" fill-rule="evenodd" fill-opacity="1" /><path clip-path="url(#clip680)" d="M46.0847 692.563 Q46.0847 699.661 47.7079 702.398 Q49.3312 705.135 53.2461 705.135 Q56.3653 705.135 58.2114 703.098 Q60.0256 701.029 60.0256 697.496 Q60.0256 692.627 56.5881 689.698 Q53.1188 686.738 47.3897 686.738 L46.0847 686.738 L46.0847 692.563 M43.6657 680.882 L64.0042 680.882 L64.0042 686.738 L58.5933 686.738 Q61.8398 688.744 63.3994 691.735 Q64.9272 694.727 64.9272 699.056 Q64.9272 704.531 61.8716 707.777 Q58.7843 710.992 53.6281 710.992 Q47.6125 710.992 44.5569 706.981 Q41.5014 702.939 41.5014 694.95 L41.5014 686.738 L40.9285 686.738 Q36.8862 686.738 34.6901 689.412 Q32.4621 692.054 32.4621 696.86 Q32.4621 699.915 33.1941 702.812 Q33.9262 705.708 35.3903 708.382 L29.9795 708.382 Q28.7381 705.167 28.1334 702.143 Q27.4968 699.12 27.4968 696.255 Q27.4968 688.521 31.5072 684.701 Q35.5176 680.882 43.6657 680.882 Z" fill="#000000" fill-rule="evenodd" fill-opacity="1" /><path clip-path="url(#clip680)" d="M33.8307 648.162 Q33.2578 649.149 33.0032 650.327 Q32.7167 651.472 32.7167 652.873 Q32.7167 657.838 35.9632 660.512 Q39.1779 663.153 45.2253 663.153 L64.0042 663.153 L64.0042 669.042 L28.3562 669.042 L28.3562 663.153 L33.8944 663.153 Q30.6479 661.307 29.0883 658.347 Q27.4968 655.387 27.4968 651.154 Q27.4968 650.549 27.5923 649.817 Q27.656 649.085 27.8151 648.194 L33.8307 648.162 Z" fill="#000000" fill-rule="evenodd" fill-opacity="1" /><path clip-path="url(#clip680)" d="M33.7671 619.708 L14.479 619.708 L14.479 613.851 L64.0042 613.851 L64.0042 619.708 L58.657 619.708 Q61.8398 621.554 63.3994 624.386 Q64.9272 627.187 64.9272 631.134 Q64.9272 637.595 59.771 641.669 Q54.6147 645.711 46.212 645.711 Q37.8093 645.711 32.6531 641.669 Q27.4968 637.595 27.4968 631.134 Q27.4968 627.187 29.0564 624.386 Q30.5842 621.554 33.7671 619.708 M46.212 639.664 Q52.6732 639.664 56.3653 637.022 Q60.0256 634.349 60.0256 629.702 Q60.0256 625.055 56.3653 622.381 Q52.6732 619.708 46.212 619.708 Q39.7508 619.708 36.0905 622.381 Q32.3984 625.055 32.3984 629.702 Q32.3984 634.349 36.0905 637.022 Q39.7508 639.664 46.212 639.664 Z" fill="#000000" fill-rule="evenodd" fill-opacity="1" /><polyline clip-path="url(#clip682)" style="stroke:#009af9; stroke-linecap:round; stroke-linejoin:round; stroke-width:4; stroke-opacity:1; fill:none" points="
  292.4,1372.3 343.691,1165.15 394.982,981.837 446.272,1036.39 497.563,860.956 548.854,745.922 600.145,700.754 651.436,730.736 702.727,747.8 754.018,583.466 
  805.309,590.927 856.6,587.159 907.891,518.3 959.182,554.817 1010.47,758.465 1061.76,433.963 1113.05,620.673 1164.35,537.91 1215.64,408.008 1266.93,465.848 
  1318.22,441.942 1369.51,403.119 1420.8,388.658 1472.09,397.24 1523.38,450.07 1574.67,484.295 1625.96,380.597 1677.25,189.347 1728.55,306.268 1779.84,214.431 
  1831.13,220.574 1882.42,187.971 1933.71,359.486 1985,287.031 2036.29,300.329 2087.58,172.018 2138.87,232.459 2190.16,186.602 2241.45,213.199 2292.75,85.838 
  
  "/>
</svg>
