<?xml version="1.0" encoding="utf-8"?>
<svg xmlns="http://www.w3.org/2000/svg" xmlns:xlink="http://www.w3.org/1999/xlink" width="600" height="400" viewBox="0 0 2400 1600">
<defs>
  <clipPath id="clip310">
    <rect x="0" y="0" width="2400" height="1600"/>
  </clipPath>
</defs>
<path clip-path="url(#clip310)" d="
M0 1600 L2400 1600 L2400 0 L0 0  Z
  " fill="#ffffff" fill-rule="evenodd" fill-opacity="1"/>
<defs>
  <clipPath id="clip311">
    <rect x="480" y="0" width="1681" height="1600"/>
  </clipPath>
</defs>
<path clip-path="url(#clip310)" d="
M250.352 1410.9 L2352.76 1410.9 L2352.76 47.2441 L250.352 47.2441  Z
  " fill="#ffffff" fill-rule="evenodd" fill-opacity="1"/>
<defs>
  <clipPath id="clip312">
    <rect x="250" y="47" width="2103" height="1365"/>
  </clipPath>
</defs>
<polyline clip-path="url(#clip312)" style="stroke:#000000; stroke-linecap:butt; stroke-linejoin:round; stroke-width:2; stroke-opacity:0.1; fill:none" points="
  727.412,1410.9 727.412,47.2441 
  "/>
<polyline clip-path="url(#clip312)" style="stroke:#000000; stroke-linecap:butt; stroke-linejoin:round; stroke-width:2; stroke-opacity:0.1; fill:none" points="
  1249.36,1410.9 1249.36,47.2441 
  "/>
<polyline clip-path="url(#clip312)" style="stroke:#000000; stroke-linecap:butt; stroke-linejoin:round; stroke-width:2; stroke-opacity:0.1; fill:none" points="
  1771.31,1410.9 1771.31,47.2441 
  "/>
<polyline clip-path="url(#clip312)" style="stroke:#000000; stroke-linecap:butt; stroke-linejoin:round; stroke-width:2; stroke-opacity:0.1; fill:none" points="
  2293.25,1410.9 2293.25,47.2441 
  "/>
<polyline clip-path="url(#clip310)" style="stroke:#000000; stroke-linecap:butt; stroke-linejoin:round; stroke-width:4; stroke-opacity:1; fill:none" points="
  250.352,1410.9 2352.76,1410.9 
  "/>
<polyline clip-path="url(#clip310)" style="stroke:#000000; stroke-linecap:butt; stroke-linejoin:round; stroke-width:4; stroke-opacity:1; fill:none" points="
  727.412,1410.9 727.412,1392 
  "/>
<polyline clip-path="url(#clip310)" style="stroke:#000000; stroke-linecap:butt; stroke-linejoin:round; stroke-width:4; stroke-opacity:1; fill:none" points="
  1249.36,1410.9 1249.36,1392 
  "/>
<polyline clip-path="url(#clip310)" style="stroke:#000000; stroke-linecap:butt; stroke-linejoin:round; stroke-width:4; stroke-opacity:1; fill:none" points="
  1771.31,1410.9 1771.31,1392 
  "/>
<polyline clip-path="url(#clip310)" style="stroke:#000000; stroke-linecap:butt; stroke-linejoin:round; stroke-width:4; stroke-opacity:1; fill:none" points="
  2293.25,1410.9 2293.25,1392 
  "/>
<path clip-path="url(#clip310)" d="M620.389 1454.4 L638.745 1454.4 L638.745 1458.33 L624.671 1458.33 L624.671 1466.8 Q625.689 1466.46 626.708 1466.29 Q627.727 1466.11 628.745 1466.11 Q634.532 1466.11 637.912 1469.28 Q641.291 1472.45 641.291 1477.87 Q641.291 1483.45 637.819 1486.55 Q634.347 1489.63 628.027 1489.63 Q625.852 1489.63 623.583 1489.26 Q621.338 1488.89 618.93 1488.15 L618.93 1483.45 Q621.014 1484.58 623.236 1485.14 Q625.458 1485.69 627.935 1485.69 Q631.939 1485.69 634.277 1483.59 Q636.615 1481.48 636.615 1477.87 Q636.615 1474.26 634.277 1472.15 Q631.939 1470.04 627.935 1470.04 Q626.06 1470.04 624.185 1470.46 Q622.333 1470.88 620.389 1471.76 L620.389 1454.4 Z" fill="#000000" fill-rule="evenodd" fill-opacity="1" /><path clip-path="url(#clip310)" d="M650.504 1483.08 L655.388 1483.08 L655.388 1488.96 L650.504 1488.96 L650.504 1483.08 Z" fill="#000000" fill-rule="evenodd" fill-opacity="1" /><path clip-path="url(#clip310)" d="M675.573 1457.48 Q671.962 1457.48 670.134 1461.04 Q668.328 1464.58 668.328 1471.71 Q668.328 1478.82 670.134 1482.38 Q671.962 1485.92 675.573 1485.92 Q679.208 1485.92 681.013 1482.38 Q682.842 1478.82 682.842 1471.71 Q682.842 1464.58 681.013 1461.04 Q679.208 1457.48 675.573 1457.48 M675.573 1453.77 Q681.384 1453.77 684.439 1458.38 Q687.518 1462.96 687.518 1471.71 Q687.518 1480.44 684.439 1485.04 Q681.384 1489.63 675.573 1489.63 Q669.763 1489.63 666.685 1485.04 Q663.629 1480.44 663.629 1471.71 Q663.629 1462.96 666.685 1458.38 Q669.763 1453.77 675.573 1453.77 Z" fill="#000000" fill-rule="evenodd" fill-opacity="1" /><path clip-path="url(#clip310)" d="M705.735 1457.48 Q702.124 1457.48 700.296 1461.04 Q698.49 1464.58 698.49 1471.71 Q698.49 1478.82 700.296 1482.38 Q702.124 1485.92 705.735 1485.92 Q709.37 1485.92 711.175 1482.38 Q713.004 1478.82 713.004 1471.71 Q713.004 1464.58 711.175 1461.04 Q709.37 1457.48 705.735 1457.48 M705.735 1453.77 Q711.546 1453.77 714.601 1458.38 Q717.68 1462.96 717.68 1471.71 Q717.68 1480.44 714.601 1485.04 Q711.546 1489.63 705.735 1489.63 Q699.925 1489.63 696.847 1485.04 Q693.791 1480.44 693.791 1471.71 Q693.791 1462.96 696.847 1458.38 Q699.925 1453.77 705.735 1453.77 Z" fill="#000000" fill-rule="evenodd" fill-opacity="1" /><path clip-path="url(#clip310)" d="M754.068 1463.49 L743.49 1474.12 L754.068 1484.7 L751.314 1487.5 L740.689 1476.87 L730.064 1487.5 L727.332 1484.7 L737.888 1474.12 L727.332 1463.49 L730.064 1460.69 L740.689 1471.32 L751.314 1460.69 L754.068 1463.49 Z" fill="#000000" fill-rule="evenodd" fill-opacity="1" /><path clip-path="url(#clip310)" d="M766.429 1485.02 L774.068 1485.02 L774.068 1458.66 L765.758 1460.32 L765.758 1456.06 L774.022 1454.4 L778.698 1454.4 L778.698 1485.02 L786.337 1485.02 L786.337 1488.96 L766.429 1488.96 L766.429 1485.02 Z" fill="#000000" fill-rule="evenodd" fill-opacity="1" /><path clip-path="url(#clip310)" d="M805.781 1457.48 Q802.17 1457.48 800.341 1461.04 Q798.536 1464.58 798.536 1471.71 Q798.536 1478.82 800.341 1482.38 Q802.17 1485.92 805.781 1485.92 Q809.415 1485.92 811.221 1482.38 Q813.05 1478.82 813.05 1471.71 Q813.05 1464.58 811.221 1461.04 Q809.415 1457.48 805.781 1457.48 M805.781 1453.77 Q811.591 1453.77 814.647 1458.38 Q817.726 1462.96 817.726 1471.71 Q817.726 1480.44 814.647 1485.04 Q811.591 1489.63 805.781 1489.63 Q799.971 1489.63 796.892 1485.04 Q793.837 1480.44 793.837 1471.71 Q793.837 1462.96 796.892 1458.38 Q799.971 1453.77 805.781 1453.77 Z" fill="#000000" fill-rule="evenodd" fill-opacity="1" /><path clip-path="url(#clip310)" d="M818.91 1433.47 L833.825 1433.47 L833.825 1436.66 L822.39 1436.66 L822.39 1443.55 Q823.217 1443.27 824.045 1443.13 Q824.872 1442.98 825.7 1442.98 Q830.402 1442.98 833.148 1445.56 Q835.894 1448.14 835.894 1452.54 Q835.894 1457.07 833.073 1459.59 Q830.251 1462.09 825.117 1462.09 Q823.349 1462.09 821.506 1461.79 Q819.682 1461.49 817.726 1460.89 L817.726 1457.07 Q819.418 1457.99 821.224 1458.44 Q823.029 1458.89 825.042 1458.89 Q828.295 1458.89 830.195 1457.18 Q832.095 1455.47 832.095 1452.54 Q832.095 1449.6 830.195 1447.89 Q828.295 1446.18 825.042 1446.18 Q823.518 1446.18 821.995 1446.52 Q820.49 1446.86 818.91 1447.57 L818.91 1433.47 Z" fill="#000000" fill-rule="evenodd" fill-opacity="1" /><path clip-path="url(#clip310)" d="M1141.71 1485.02 L1149.35 1485.02 L1149.35 1458.66 L1141.04 1460.32 L1141.04 1456.06 L1149.31 1454.4 L1153.98 1454.4 L1153.98 1485.02 L1161.62 1485.02 L1161.62 1488.96 L1141.71 1488.96 L1141.71 1485.02 Z" fill="#000000" fill-rule="evenodd" fill-opacity="1" /><path clip-path="url(#clip310)" d="M1171.06 1483.08 L1175.95 1483.08 L1175.95 1488.96 L1171.06 1488.96 L1171.06 1483.08 Z" fill="#000000" fill-rule="evenodd" fill-opacity="1" /><path clip-path="url(#clip310)" d="M1196.13 1457.48 Q1192.52 1457.48 1190.69 1461.04 Q1188.89 1464.58 1188.89 1471.71 Q1188.89 1478.82 1190.69 1482.38 Q1192.52 1485.92 1196.13 1485.92 Q1199.77 1485.92 1201.57 1482.38 Q1203.4 1478.82 1203.4 1471.71 Q1203.4 1464.58 1201.57 1461.04 Q1199.77 1457.48 1196.13 1457.48 M1196.13 1453.77 Q1201.94 1453.77 1205 1458.38 Q1208.08 1462.96 1208.08 1471.71 Q1208.08 1480.44 1205 1485.04 Q1201.94 1489.63 1196.13 1489.63 Q1190.32 1489.63 1187.25 1485.04 Q1184.19 1480.44 1184.19 1471.71 Q1184.19 1462.96 1187.25 1458.38 Q1190.32 1453.77 1196.13 1453.77 Z" fill="#000000" fill-rule="evenodd" fill-opacity="1" /><path clip-path="url(#clip310)" d="M1226.3 1457.48 Q1222.68 1457.48 1220.86 1461.04 Q1219.05 1464.58 1219.05 1471.71 Q1219.05 1478.82 1220.86 1482.38 Q1222.68 1485.92 1226.3 1485.92 Q1229.93 1485.92 1231.74 1482.38 Q1233.56 1478.82 1233.56 1471.71 Q1233.56 1464.58 1231.74 1461.04 Q1229.93 1457.48 1226.3 1457.48 M1226.3 1453.77 Q1232.11 1453.77 1235.16 1458.38 Q1238.24 1462.96 1238.24 1471.71 Q1238.24 1480.44 1235.16 1485.04 Q1232.11 1489.63 1226.3 1489.63 Q1220.49 1489.63 1217.41 1485.04 Q1214.35 1480.44 1214.35 1471.71 Q1214.35 1462.96 1217.41 1458.38 Q1220.49 1453.77 1226.3 1453.77 Z" fill="#000000" fill-rule="evenodd" fill-opacity="1" /><path clip-path="url(#clip310)" d="M1274.63 1463.49 L1264.05 1474.12 L1274.63 1484.7 L1271.87 1487.5 L1261.25 1476.87 L1250.62 1487.5 L1247.89 1484.7 L1258.45 1474.12 L1247.89 1463.49 L1250.62 1460.69 L1261.25 1471.32 L1271.87 1460.69 L1274.63 1463.49 Z" fill="#000000" fill-rule="evenodd" fill-opacity="1" /><path clip-path="url(#clip310)" d="M1286.99 1485.02 L1294.63 1485.02 L1294.63 1458.66 L1286.32 1460.32 L1286.32 1456.06 L1294.58 1454.4 L1299.26 1454.4 L1299.26 1485.02 L1306.9 1485.02 L1306.9 1488.96 L1286.99 1488.96 L1286.99 1485.02 Z" fill="#000000" fill-rule="evenodd" fill-opacity="1" /><path clip-path="url(#clip310)" d="M1326.34 1457.48 Q1322.73 1457.48 1320.9 1461.04 Q1319.1 1464.58 1319.1 1471.71 Q1319.1 1478.82 1320.9 1482.38 Q1322.73 1485.92 1326.34 1485.92 Q1329.98 1485.92 1331.78 1482.38 Q1333.61 1478.82 1333.61 1471.71 Q1333.61 1464.58 1331.78 1461.04 Q1329.98 1457.48 1326.34 1457.48 M1326.34 1453.77 Q1332.15 1453.77 1335.21 1458.38 Q1338.29 1462.96 1338.29 1471.71 Q1338.29 1480.44 1335.21 1485.04 Q1332.15 1489.63 1326.34 1489.63 Q1320.53 1489.63 1317.45 1485.04 Q1314.4 1480.44 1314.4 1471.71 Q1314.4 1462.96 1317.45 1458.38 Q1320.53 1453.77 1326.34 1453.77 Z" fill="#000000" fill-rule="evenodd" fill-opacity="1" /><path clip-path="url(#clip310)" d="M1348.31 1445.99 Q1345.75 1445.99 1344.25 1447.74 Q1342.76 1449.49 1342.76 1452.54 Q1342.76 1455.57 1344.25 1457.33 Q1345.75 1459.08 1348.31 1459.08 Q1350.87 1459.08 1352.35 1457.33 Q1353.86 1455.57 1353.86 1452.54 Q1353.86 1449.49 1352.35 1447.74 Q1350.87 1445.99 1348.31 1445.99 M1355.85 1434.09 L1355.85 1437.55 Q1354.42 1436.87 1352.96 1436.51 Q1351.51 1436.16 1350.08 1436.16 Q1346.32 1436.16 1344.32 1438.69 Q1342.35 1441.23 1342.07 1446.37 Q1343.18 1444.73 1344.85 1443.87 Q1346.52 1442.98 1348.54 1442.98 Q1352.77 1442.98 1355.21 1445.56 Q1357.68 1448.12 1357.68 1452.54 Q1357.68 1456.86 1355.12 1459.48 Q1352.56 1462.09 1348.31 1462.09 Q1343.44 1462.09 1340.86 1458.37 Q1338.29 1454.62 1338.29 1447.53 Q1338.29 1440.88 1341.45 1436.93 Q1344.61 1432.96 1349.93 1432.96 Q1351.36 1432.96 1352.81 1433.24 Q1354.27 1433.52 1355.85 1434.09 Z" fill="#000000" fill-rule="evenodd" fill-opacity="1" /><path clip-path="url(#clip310)" d="M1663.66 1485.02 L1671.3 1485.02 L1671.3 1458.66 L1662.99 1460.32 L1662.99 1456.06 L1671.25 1454.4 L1675.93 1454.4 L1675.93 1485.02 L1683.57 1485.02 L1683.57 1488.96 L1663.66 1488.96 L1663.66 1485.02 Z" fill="#000000" fill-rule="evenodd" fill-opacity="1" /><path clip-path="url(#clip310)" d="M1693.01 1483.08 L1697.9 1483.08 L1697.9 1488.96 L1693.01 1488.96 L1693.01 1483.08 Z" fill="#000000" fill-rule="evenodd" fill-opacity="1" /><path clip-path="url(#clip310)" d="M1708.13 1454.4 L1726.48 1454.4 L1726.48 1458.33 L1712.41 1458.33 L1712.41 1466.8 Q1713.43 1466.46 1714.45 1466.29 Q1715.47 1466.11 1716.48 1466.11 Q1722.27 1466.11 1725.65 1469.28 Q1729.03 1472.45 1729.03 1477.87 Q1729.03 1483.45 1725.56 1486.55 Q1722.09 1489.63 1715.77 1489.63 Q1713.59 1489.63 1711.32 1489.26 Q1709.08 1488.89 1706.67 1488.15 L1706.67 1483.45 Q1708.75 1484.58 1710.97 1485.14 Q1713.2 1485.69 1715.67 1485.69 Q1719.68 1485.69 1722.02 1483.59 Q1724.35 1481.48 1724.35 1477.87 Q1724.35 1474.26 1722.02 1472.15 Q1719.68 1470.04 1715.67 1470.04 Q1713.8 1470.04 1711.92 1470.46 Q1710.07 1470.88 1708.13 1471.76 L1708.13 1454.4 Z" fill="#000000" fill-rule="evenodd" fill-opacity="1" /><path clip-path="url(#clip310)" d="M1748.24 1457.48 Q1744.63 1457.48 1742.8 1461.04 Q1741 1464.58 1741 1471.71 Q1741 1478.82 1742.8 1482.38 Q1744.63 1485.92 1748.24 1485.92 Q1751.88 1485.92 1753.68 1482.38 Q1755.51 1478.82 1755.51 1471.71 Q1755.51 1464.58 1753.68 1461.04 Q1751.88 1457.48 1748.24 1457.48 M1748.24 1453.77 Q1754.05 1453.77 1757.11 1458.38 Q1760.19 1462.96 1760.19 1471.71 Q1760.19 1480.44 1757.11 1485.04 Q1754.05 1489.63 1748.24 1489.63 Q1742.43 1489.63 1739.35 1485.04 Q1736.3 1480.44 1736.3 1471.71 Q1736.3 1462.96 1739.35 1458.38 Q1742.43 1453.77 1748.24 1453.77 Z" fill="#000000" fill-rule="evenodd" fill-opacity="1" /><path clip-path="url(#clip310)" d="M1796.58 1463.49 L1786 1474.12 L1796.58 1484.7 L1793.82 1487.5 L1783.2 1476.87 L1772.57 1487.5 L1769.84 1484.7 L1780.4 1474.12 L1769.84 1463.49 L1772.57 1460.69 L1783.2 1471.32 L1793.82 1460.69 L1796.58 1463.49 Z" fill="#000000" fill-rule="evenodd" fill-opacity="1" /><path clip-path="url(#clip310)" d="M1808.94 1485.02 L1816.58 1485.02 L1816.58 1458.66 L1808.27 1460.32 L1808.27 1456.06 L1816.53 1454.4 L1821.21 1454.4 L1821.21 1485.02 L1828.84 1485.02 L1828.84 1488.96 L1808.94 1488.96 L1808.94 1485.02 Z" fill="#000000" fill-rule="evenodd" fill-opacity="1" /><path clip-path="url(#clip310)" d="M1848.29 1457.48 Q1844.68 1457.48 1842.85 1461.04 Q1841.04 1464.58 1841.04 1471.71 Q1841.04 1478.82 1842.85 1482.38 Q1844.68 1485.92 1848.29 1485.92 Q1851.92 1485.92 1853.73 1482.38 Q1855.56 1478.82 1855.56 1471.71 Q1855.56 1464.58 1853.73 1461.04 Q1851.92 1457.48 1848.29 1457.48 M1848.29 1453.77 Q1854.1 1453.77 1857.15 1458.38 Q1860.23 1462.96 1860.23 1471.71 Q1860.23 1480.44 1857.15 1485.04 Q1854.1 1489.63 1848.29 1489.63 Q1842.48 1489.63 1839.4 1485.04 Q1836.34 1480.44 1836.34 1471.71 Q1836.34 1462.96 1839.4 1458.38 Q1842.48 1453.77 1848.29 1453.77 Z" fill="#000000" fill-rule="evenodd" fill-opacity="1" /><path clip-path="url(#clip310)" d="M1870.26 1445.99 Q1867.7 1445.99 1866.2 1447.74 Q1864.71 1449.49 1864.71 1452.54 Q1864.71 1455.57 1866.2 1457.33 Q1867.7 1459.08 1870.26 1459.08 Q1872.82 1459.08 1874.3 1457.33 Q1875.81 1455.57 1875.81 1452.54 Q1875.81 1449.49 1874.3 1447.74 Q1872.82 1445.99 1870.26 1445.99 M1877.8 1434.09 L1877.8 1437.55 Q1876.37 1436.87 1874.9 1436.51 Q1873.46 1436.16 1872.03 1436.16 Q1868.26 1436.16 1866.27 1438.69 Q1864.3 1441.23 1864.01 1446.37 Q1865.12 1444.73 1866.8 1443.87 Q1868.47 1442.98 1870.48 1442.98 Q1874.72 1442.98 1877.16 1445.56 Q1879.62 1448.12 1879.62 1452.54 Q1879.62 1456.86 1877.07 1459.48 Q1874.51 1462.09 1870.26 1462.09 Q1865.39 1462.09 1862.81 1458.37 Q1860.23 1454.62 1860.23 1447.53 Q1860.23 1440.88 1863.39 1436.93 Q1866.55 1432.96 1871.88 1432.96 Q1873.3 1432.96 1874.75 1433.24 Q1876.22 1433.52 1877.8 1434.09 Z" fill="#000000" fill-rule="evenodd" fill-opacity="1" /><path clip-path="url(#clip310)" d="M2189.69 1485.02 L2206.01 1485.02 L2206.01 1488.96 L2184.07 1488.96 L2184.07 1485.02 Q2186.73 1482.27 2191.31 1477.64 Q2195.92 1472.98 2197.1 1471.64 Q2199.35 1469.12 2200.23 1467.38 Q2201.13 1465.62 2201.13 1463.93 Q2201.13 1461.18 2199.18 1459.44 Q2197.26 1457.71 2194.16 1457.71 Q2191.96 1457.71 2189.51 1458.47 Q2187.08 1459.23 2184.3 1460.79 L2184.3 1456.06 Q2187.12 1454.93 2189.58 1454.35 Q2192.03 1453.77 2194.07 1453.77 Q2199.44 1453.77 2202.63 1456.46 Q2205.83 1459.14 2205.83 1463.63 Q2205.83 1465.76 2205.02 1467.68 Q2204.23 1469.58 2202.12 1472.17 Q2201.55 1472.85 2198.44 1476.06 Q2195.34 1479.26 2189.69 1485.02 Z" fill="#000000" fill-rule="evenodd" fill-opacity="1" /><path clip-path="url(#clip310)" d="M2215.83 1483.08 L2220.71 1483.08 L2220.71 1488.96 L2215.83 1488.96 L2215.83 1483.08 Z" fill="#000000" fill-rule="evenodd" fill-opacity="1" /><path clip-path="url(#clip310)" d="M2240.9 1457.48 Q2237.29 1457.48 2235.46 1461.04 Q2233.65 1464.58 2233.65 1471.71 Q2233.65 1478.82 2235.46 1482.38 Q2237.29 1485.92 2240.9 1485.92 Q2244.53 1485.92 2246.34 1482.38 Q2248.17 1478.82 2248.17 1471.71 Q2248.17 1464.58 2246.34 1461.04 Q2244.53 1457.48 2240.9 1457.48 M2240.9 1453.77 Q2246.71 1453.77 2249.76 1458.38 Q2252.84 1462.96 2252.84 1471.71 Q2252.84 1480.44 2249.76 1485.04 Q2246.71 1489.63 2240.9 1489.63 Q2235.09 1489.63 2232.01 1485.04 Q2228.95 1480.44 2228.95 1471.71 Q2228.95 1462.96 2232.01 1458.38 Q2235.09 1453.77 2240.9 1453.77 Z" fill="#000000" fill-rule="evenodd" fill-opacity="1" /><path clip-path="url(#clip310)" d="M2271.06 1457.48 Q2267.45 1457.48 2265.62 1461.04 Q2263.81 1464.58 2263.81 1471.71 Q2263.81 1478.82 2265.62 1482.38 Q2267.45 1485.92 2271.06 1485.92 Q2274.69 1485.92 2276.5 1482.38 Q2278.33 1478.82 2278.33 1471.71 Q2278.33 1464.58 2276.5 1461.04 Q2274.69 1457.48 2271.06 1457.48 M2271.06 1453.77 Q2276.87 1453.77 2279.92 1458.38 Q2283 1462.96 2283 1471.71 Q2283 1480.44 2279.92 1485.04 Q2276.87 1489.63 2271.06 1489.63 Q2265.25 1489.63 2262.17 1485.04 Q2259.11 1480.44 2259.11 1471.71 Q2259.11 1462.96 2262.17 1458.38 Q2265.25 1453.77 2271.06 1453.77 Z" fill="#000000" fill-rule="evenodd" fill-opacity="1" /><path clip-path="url(#clip310)" d="M2319.39 1463.49 L2308.81 1474.12 L2319.39 1484.7 L2316.64 1487.5 L2306.01 1476.87 L2295.39 1487.5 L2292.66 1484.7 L2303.21 1474.12 L2292.66 1463.49 L2295.39 1460.69 L2306.01 1471.32 L2316.64 1460.69 L2319.39 1463.49 Z" fill="#000000" fill-rule="evenodd" fill-opacity="1" /><path clip-path="url(#clip310)" d="M2331.75 1485.02 L2339.39 1485.02 L2339.39 1458.66 L2331.08 1460.32 L2331.08 1456.06 L2339.35 1454.4 L2344.02 1454.4 L2344.02 1485.02 L2351.66 1485.02 L2351.66 1488.96 L2331.75 1488.96 L2331.75 1485.02 Z" fill="#000000" fill-rule="evenodd" fill-opacity="1" /><path clip-path="url(#clip310)" d="M2371.1 1457.48 Q2367.49 1457.48 2365.66 1461.04 Q2363.86 1464.58 2363.86 1471.71 Q2363.86 1478.82 2365.66 1482.38 Q2367.49 1485.92 2371.1 1485.92 Q2374.74 1485.92 2376.54 1482.38 Q2378.37 1478.82 2378.37 1471.71 Q2378.37 1464.58 2376.54 1461.04 Q2374.74 1457.48 2371.1 1457.48 M2371.1 1453.77 Q2376.91 1453.77 2379.97 1458.38 Q2383.05 1462.96 2383.05 1471.71 Q2383.05 1480.44 2379.97 1485.04 Q2376.91 1489.63 2371.1 1489.63 Q2365.29 1489.63 2362.22 1485.04 Q2359.16 1480.44 2359.16 1471.71 Q2359.16 1462.96 2362.22 1458.38 Q2365.29 1453.77 2371.1 1453.77 Z" fill="#000000" fill-rule="evenodd" fill-opacity="1" /><path clip-path="url(#clip310)" d="M2393.07 1445.99 Q2390.52 1445.99 2389.01 1447.74 Q2387.52 1449.49 2387.52 1452.54 Q2387.52 1455.57 2389.01 1457.33 Q2390.52 1459.08 2393.07 1459.08 Q2395.63 1459.08 2397.12 1457.33 Q2398.62 1455.57 2398.62 1452.54 Q2398.62 1449.49 2397.12 1447.74 Q2395.63 1445.99 2393.07 1445.99 M2400.62 1434.09 L2400.62 1437.55 Q2399.19 1436.87 2397.72 1436.51 Q2396.27 1436.16 2394.84 1436.16 Q2391.08 1436.16 2389.09 1438.69 Q2387.11 1441.23 2386.83 1446.37 Q2387.94 1444.73 2389.61 1443.87 Q2391.29 1442.98 2393.3 1442.98 Q2397.53 1442.98 2399.98 1445.56 Q2402.44 1448.12 2402.44 1452.54 Q2402.44 1456.86 2399.88 1459.48 Q2397.32 1462.09 2393.07 1462.09 Q2388.2 1462.09 2385.63 1458.37 Q2383.05 1454.62 2383.05 1447.53 Q2383.05 1440.88 2386.21 1436.93 Q2389.37 1432.96 2394.69 1432.96 Q2396.12 1432.96 2397.57 1433.24 Q2399.04 1433.52 2400.62 1434.09 Z" fill="#000000" fill-rule="evenodd" fill-opacity="1" /><path clip-path="url(#clip310)" d="M1244.69 1528.23 L1244.69 1534.5 Q1241.03 1532.74 1237.79 1531.89 Q1234.54 1531.03 1231.52 1531.03 Q1226.26 1531.03 1223.4 1533.06 Q1220.57 1535.1 1220.57 1538.86 Q1220.57 1542.01 1222.44 1543.63 Q1224.35 1545.22 1229.64 1546.21 L1233.52 1547 Q1240.71 1548.37 1244.12 1551.84 Q1247.56 1555.28 1247.56 1561.07 Q1247.56 1567.98 1242.91 1571.54 Q1238.29 1575.11 1229.35 1575.11 Q1225.98 1575.11 1222.16 1574.34 Q1218.37 1573.58 1214.3 1572.08 L1214.3 1565.46 Q1218.21 1567.66 1221.97 1568.77 Q1225.72 1569.89 1229.35 1569.89 Q1234.86 1569.89 1237.85 1567.72 Q1240.84 1565.56 1240.84 1561.55 Q1240.84 1558.05 1238.68 1556.08 Q1236.54 1554.1 1231.64 1553.11 L1227.73 1552.35 Q1220.53 1550.92 1217.32 1547.86 Q1214.11 1544.81 1214.11 1539.37 Q1214.11 1533.06 1218.53 1529.43 Q1222.99 1525.81 1230.78 1525.81 Q1234.13 1525.81 1237.59 1526.41 Q1241.06 1527.02 1244.69 1528.23 Z" fill="#000000" fill-rule="evenodd" fill-opacity="1" /><path clip-path="url(#clip310)" d="M1263.12 1528.42 L1263.12 1538.54 L1275.18 1538.54 L1275.18 1543.09 L1263.12 1543.09 L1263.12 1562.44 Q1263.12 1566.8 1264.3 1568.04 Q1265.51 1569.28 1269.17 1569.28 L1275.18 1569.28 L1275.18 1574.19 L1269.17 1574.19 Q1262.39 1574.19 1259.81 1571.67 Q1257.23 1569.12 1257.23 1562.44 L1257.23 1543.09 L1252.94 1543.09 L1252.94 1538.54 L1257.23 1538.54 L1257.23 1528.42 L1263.12 1528.42 Z" fill="#000000" fill-rule="evenodd" fill-opacity="1" /><path clip-path="url(#clip310)" d="M1313.38 1554.9 L1313.38 1557.76 L1286.45 1557.76 Q1286.83 1563.81 1290.08 1566.99 Q1293.36 1570.14 1299.18 1570.14 Q1302.56 1570.14 1305.71 1569.32 Q1308.89 1568.49 1312.01 1566.83 L1312.01 1572.37 Q1308.86 1573.71 1305.55 1574.41 Q1302.24 1575.11 1298.83 1575.11 Q1290.3 1575.11 1285.31 1570.14 Q1280.34 1565.18 1280.34 1556.71 Q1280.34 1547.96 1285.05 1542.83 Q1289.79 1537.68 1297.81 1537.68 Q1305.01 1537.68 1309.18 1542.33 Q1313.38 1546.94 1313.38 1554.9 M1307.52 1553.18 Q1307.46 1548.37 1304.82 1545.51 Q1302.21 1542.64 1297.88 1542.64 Q1292.98 1542.64 1290.02 1545.41 Q1287.09 1548.18 1286.64 1553.21 L1307.52 1553.18 Z" fill="#000000" fill-rule="evenodd" fill-opacity="1" /><path clip-path="url(#clip310)" d="M1328.66 1568.84 L1328.66 1587.74 L1322.77 1587.74 L1322.77 1538.54 L1328.66 1538.54 L1328.66 1543.95 Q1330.5 1540.77 1333.3 1539.24 Q1336.14 1537.68 1340.05 1537.68 Q1346.54 1537.68 1350.59 1542.83 Q1354.66 1547.99 1354.66 1556.39 Q1354.66 1564.8 1350.59 1569.95 Q1346.54 1575.11 1340.05 1575.11 Q1336.14 1575.11 1333.3 1573.58 Q1330.5 1572.02 1328.66 1568.84 M1348.58 1556.39 Q1348.58 1549.93 1345.91 1546.27 Q1343.27 1542.58 1338.62 1542.58 Q1333.97 1542.58 1331.3 1546.27 Q1328.66 1549.93 1328.66 1556.39 Q1328.66 1562.85 1331.3 1566.55 Q1333.97 1570.21 1338.62 1570.21 Q1343.27 1570.21 1345.91 1566.55 Q1348.58 1562.85 1348.58 1556.39 Z" fill="#000000" fill-rule="evenodd" fill-opacity="1" /><path clip-path="url(#clip310)" d="M1387.09 1539.59 L1387.09 1545.13 Q1384.61 1543.85 1381.94 1543.22 Q1379.26 1542.58 1376.4 1542.58 Q1372.04 1542.58 1369.84 1543.92 Q1367.68 1545.25 1367.68 1547.93 Q1367.68 1549.96 1369.24 1551.14 Q1370.8 1552.29 1375.51 1553.34 L1377.51 1553.78 Q1383.75 1555.12 1386.36 1557.57 Q1389 1559.99 1389 1564.35 Q1389 1569.32 1385.06 1572.21 Q1381.14 1575.11 1374.27 1575.11 Q1371.4 1575.11 1368.28 1574.54 Q1365.2 1573.99 1361.76 1572.88 L1361.76 1566.83 Q1365 1568.52 1368.16 1569.38 Q1371.31 1570.21 1374.39 1570.21 Q1378.53 1570.21 1380.76 1568.81 Q1382.99 1567.37 1382.99 1564.8 Q1382.99 1562.41 1381.36 1561.14 Q1379.77 1559.86 1374.33 1558.68 L1372.29 1558.21 Q1366.85 1557.06 1364.43 1554.71 Q1362.01 1552.32 1362.01 1548.18 Q1362.01 1543.15 1365.58 1540.42 Q1369.14 1537.68 1375.7 1537.68 Q1378.95 1537.68 1381.81 1538.16 Q1384.67 1538.63 1387.09 1539.59 Z" fill="#000000" fill-rule="evenodd" fill-opacity="1" /><polyline clip-path="url(#clip312)" style="stroke:#000000; stroke-linecap:butt; stroke-linejoin:round; stroke-width:2; stroke-opacity:0.1; fill:none" points="
  250.352,1358.48 2352.76,1358.48 
  "/>
<polyline clip-path="url(#clip312)" style="stroke:#000000; stroke-linecap:butt; stroke-linejoin:round; stroke-width:2; stroke-opacity:0.1; fill:none" points="
  250.352,1068.62 2352.76,1068.62 
  "/>
<polyline clip-path="url(#clip312)" style="stroke:#000000; stroke-linecap:butt; stroke-linejoin:round; stroke-width:2; stroke-opacity:0.1; fill:none" points="
  250.352,778.753 2352.76,778.753 
  "/>
<polyline clip-path="url(#clip312)" style="stroke:#000000; stroke-linecap:butt; stroke-linejoin:round; stroke-width:2; stroke-opacity:0.1; fill:none" points="
  250.352,488.888 2352.76,488.888 
  "/>
<polyline clip-path="url(#clip312)" style="stroke:#000000; stroke-linecap:butt; stroke-linejoin:round; stroke-width:2; stroke-opacity:0.1; fill:none" points="
  250.352,199.023 2352.76,199.023 
  "/>
<polyline clip-path="url(#clip310)" style="stroke:#000000; stroke-linecap:butt; stroke-linejoin:round; stroke-width:4; stroke-opacity:1; fill:none" points="
  250.352,1410.9 250.352,47.2441 
  "/>
<polyline clip-path="url(#clip310)" style="stroke:#000000; stroke-linecap:butt; stroke-linejoin:round; stroke-width:4; stroke-opacity:1; fill:none" points="
  250.352,1358.48 269.25,1358.48 
  "/>
<polyline clip-path="url(#clip310)" style="stroke:#000000; stroke-linecap:butt; stroke-linejoin:round; stroke-width:4; stroke-opacity:1; fill:none" points="
  250.352,1068.62 269.25,1068.62 
  "/>
<polyline clip-path="url(#clip310)" style="stroke:#000000; stroke-linecap:butt; stroke-linejoin:round; stroke-width:4; stroke-opacity:1; fill:none" points="
  250.352,778.753 269.25,778.753 
  "/>
<polyline clip-path="url(#clip310)" style="stroke:#000000; stroke-linecap:butt; stroke-linejoin:round; stroke-width:4; stroke-opacity:1; fill:none" points="
  250.352,488.888 269.25,488.888 
  "/>
<polyline clip-path="url(#clip310)" style="stroke:#000000; stroke-linecap:butt; stroke-linejoin:round; stroke-width:4; stroke-opacity:1; fill:none" points="
  250.352,199.023 269.25,199.023 
  "/>
<path clip-path="url(#clip310)" d="M129.862 1345.28 L118.056 1363.73 L129.862 1363.73 L129.862 1345.28 M128.635 1341.2 L134.515 1341.2 L134.515 1363.73 L139.445 1363.73 L139.445 1367.62 L134.515 1367.62 L134.515 1375.76 L129.862 1375.76 L129.862 1367.62 L114.26 1367.62 L114.26 1363.1 L128.635 1341.2 Z" fill="#000000" fill-rule="evenodd" fill-opacity="1" /><path clip-path="url(#clip310)" d="M147.177 1369.88 L152.061 1369.88 L152.061 1375.76 L147.177 1375.76 L147.177 1369.88 Z" fill="#000000" fill-rule="evenodd" fill-opacity="1" /><path clip-path="url(#clip310)" d="M162.292 1341.2 L180.649 1341.2 L180.649 1345.14 L166.575 1345.14 L166.575 1353.61 Q167.593 1353.26 168.612 1353.1 Q169.63 1352.92 170.649 1352.92 Q176.436 1352.92 179.815 1356.09 Q183.195 1359.26 183.195 1364.68 Q183.195 1370.25 179.723 1373.36 Q176.251 1376.43 169.931 1376.43 Q167.755 1376.43 165.487 1376.06 Q163.241 1375.69 160.834 1374.95 L160.834 1370.25 Q162.917 1371.39 165.14 1371.94 Q167.362 1372.5 169.839 1372.5 Q173.843 1372.5 176.181 1370.39 Q178.519 1368.29 178.519 1364.68 Q178.519 1361.06 176.181 1358.96 Q173.843 1356.85 169.839 1356.85 Q167.964 1356.85 166.089 1357.27 Q164.237 1357.68 162.292 1358.56 L162.292 1341.2 Z" fill="#000000" fill-rule="evenodd" fill-opacity="1" /><path clip-path="url(#clip310)" d="M202.408 1344.28 Q198.797 1344.28 196.968 1347.85 Q195.163 1351.39 195.163 1358.52 Q195.163 1365.62 196.968 1369.19 Q198.797 1372.73 202.408 1372.73 Q206.042 1372.73 207.848 1369.19 Q209.676 1365.62 209.676 1358.52 Q209.676 1351.39 207.848 1347.85 Q206.042 1344.28 202.408 1344.28 M202.408 1340.58 Q208.218 1340.58 211.274 1345.18 Q214.352 1349.77 214.352 1358.52 Q214.352 1367.24 211.274 1371.85 Q208.218 1376.43 202.408 1376.43 Q196.598 1376.43 193.519 1371.85 Q190.463 1367.24 190.463 1358.52 Q190.463 1349.77 193.519 1345.18 Q196.598 1340.58 202.408 1340.58 Z" fill="#000000" fill-rule="evenodd" fill-opacity="1" /><path clip-path="url(#clip310)" d="M130.857 1055.41 L119.052 1073.86 L130.857 1073.86 L130.857 1055.41 M129.63 1051.34 L135.51 1051.34 L135.51 1073.86 L140.441 1073.86 L140.441 1077.75 L135.51 1077.75 L135.51 1085.9 L130.857 1085.9 L130.857 1077.75 L115.256 1077.75 L115.256 1073.24 L129.63 1051.34 Z" fill="#000000" fill-rule="evenodd" fill-opacity="1" /><path clip-path="url(#clip310)" d="M148.172 1080.02 L153.056 1080.02 L153.056 1085.9 L148.172 1085.9 L148.172 1080.02 Z" fill="#000000" fill-rule="evenodd" fill-opacity="1" /><path clip-path="url(#clip310)" d="M162.061 1051.34 L184.283 1051.34 L184.283 1053.33 L171.737 1085.9 L166.852 1085.9 L178.658 1055.27 L162.061 1055.27 L162.061 1051.34 Z" fill="#000000" fill-rule="evenodd" fill-opacity="1" /><path clip-path="url(#clip310)" d="M193.45 1051.34 L211.806 1051.34 L211.806 1055.27 L197.732 1055.27 L197.732 1063.75 Q198.75 1063.4 199.769 1063.24 Q200.787 1063.05 201.806 1063.05 Q207.593 1063.05 210.973 1066.22 Q214.352 1069.39 214.352 1074.81 Q214.352 1080.39 210.88 1083.49 Q207.408 1086.57 201.088 1086.57 Q198.912 1086.57 196.644 1086.2 Q194.399 1085.83 191.991 1085.09 L191.991 1080.39 Q194.075 1081.52 196.297 1082.08 Q198.519 1082.63 200.996 1082.63 Q205 1082.63 207.338 1080.53 Q209.676 1078.42 209.676 1074.81 Q209.676 1071.2 207.338 1069.09 Q205 1066.99 200.996 1066.99 Q199.121 1066.99 197.246 1067.4 Q195.394 1067.82 193.45 1068.7 L193.45 1051.34 Z" fill="#000000" fill-rule="evenodd" fill-opacity="1" /><path clip-path="url(#clip310)" d="M117.061 761.473 L135.417 761.473 L135.417 765.408 L121.343 765.408 L121.343 773.881 Q122.362 773.533 123.38 773.371 Q124.399 773.186 125.418 773.186 Q131.205 773.186 134.584 776.357 Q137.964 779.529 137.964 784.945 Q137.964 790.524 134.492 793.626 Q131.019 796.705 124.7 796.705 Q122.524 796.705 120.255 796.334 Q118.01 795.964 115.603 795.223 L115.603 790.524 Q117.686 791.658 119.908 792.214 Q122.13 792.769 124.607 792.769 Q128.612 792.769 130.95 790.663 Q133.288 788.556 133.288 784.945 Q133.288 781.334 130.95 779.228 Q128.612 777.121 124.607 777.121 Q122.732 777.121 120.857 777.538 Q119.006 777.955 117.061 778.834 L117.061 761.473 Z" fill="#000000" fill-rule="evenodd" fill-opacity="1" /><path clip-path="url(#clip310)" d="M147.177 790.154 L152.061 790.154 L152.061 796.033 L147.177 796.033 L147.177 790.154 Z" fill="#000000" fill-rule="evenodd" fill-opacity="1" /><path clip-path="url(#clip310)" d="M172.246 764.552 Q168.635 764.552 166.806 768.117 Q165.001 771.658 165.001 778.788 Q165.001 785.894 166.806 789.459 Q168.635 793.001 172.246 793.001 Q175.88 793.001 177.686 789.459 Q179.514 785.894 179.514 778.788 Q179.514 771.658 177.686 768.117 Q175.88 764.552 172.246 764.552 M172.246 760.848 Q178.056 760.848 181.112 765.455 Q184.19 770.038 184.19 778.788 Q184.19 787.515 181.112 792.121 Q178.056 796.705 172.246 796.705 Q166.436 796.705 163.357 792.121 Q160.302 787.515 160.302 778.788 Q160.302 770.038 163.357 765.455 Q166.436 760.848 172.246 760.848 Z" fill="#000000" fill-rule="evenodd" fill-opacity="1" /><path clip-path="url(#clip310)" d="M202.408 764.552 Q198.797 764.552 196.968 768.117 Q195.163 771.658 195.163 778.788 Q195.163 785.894 196.968 789.459 Q198.797 793.001 202.408 793.001 Q206.042 793.001 207.848 789.459 Q209.676 785.894 209.676 778.788 Q209.676 771.658 207.848 768.117 Q206.042 764.552 202.408 764.552 M202.408 760.848 Q208.218 760.848 211.274 765.455 Q214.352 770.038 214.352 778.788 Q214.352 787.515 211.274 792.121 Q208.218 796.705 202.408 796.705 Q196.598 796.705 193.519 792.121 Q190.463 787.515 190.463 778.788 Q190.463 770.038 193.519 765.455 Q196.598 760.848 202.408 760.848 Z" fill="#000000" fill-rule="evenodd" fill-opacity="1" /><path clip-path="url(#clip310)" d="M118.056 471.608 L136.413 471.608 L136.413 475.544 L122.339 475.544 L122.339 484.016 Q123.357 483.668 124.376 483.506 Q125.394 483.321 126.413 483.321 Q132.2 483.321 135.579 486.493 Q138.959 489.664 138.959 495.08 Q138.959 500.659 135.487 503.761 Q132.015 506.84 125.695 506.84 Q123.519 506.84 121.251 506.469 Q119.006 506.099 116.598 505.358 L116.598 500.659 Q118.681 501.793 120.904 502.349 Q123.126 502.904 125.603 502.904 Q129.607 502.904 131.945 500.798 Q134.283 498.692 134.283 495.08 Q134.283 491.469 131.945 489.363 Q129.607 487.256 125.603 487.256 Q123.728 487.256 121.853 487.673 Q120.001 488.09 118.056 488.969 L118.056 471.608 Z" fill="#000000" fill-rule="evenodd" fill-opacity="1" /><path clip-path="url(#clip310)" d="M148.172 500.289 L153.056 500.289 L153.056 506.168 L148.172 506.168 L148.172 500.289 Z" fill="#000000" fill-rule="evenodd" fill-opacity="1" /><path clip-path="url(#clip310)" d="M167.269 502.233 L183.588 502.233 L183.588 506.168 L161.644 506.168 L161.644 502.233 Q164.306 499.479 168.889 494.849 Q173.496 490.196 174.677 488.854 Q176.922 486.33 177.801 484.594 Q178.704 482.835 178.704 481.145 Q178.704 478.391 176.76 476.655 Q174.839 474.919 171.737 474.919 Q169.538 474.919 167.084 475.682 Q164.653 476.446 161.876 477.997 L161.876 473.275 Q164.7 472.141 167.153 471.562 Q169.607 470.983 171.644 470.983 Q177.014 470.983 180.209 473.669 Q183.403 476.354 183.403 480.844 Q183.403 482.974 182.593 484.895 Q181.806 486.793 179.7 489.386 Q179.121 490.057 176.019 493.275 Q172.917 496.469 167.269 502.233 Z" fill="#000000" fill-rule="evenodd" fill-opacity="1" /><path clip-path="url(#clip310)" d="M193.45 471.608 L211.806 471.608 L211.806 475.544 L197.732 475.544 L197.732 484.016 Q198.75 483.668 199.769 483.506 Q200.787 483.321 201.806 483.321 Q207.593 483.321 210.973 486.493 Q214.352 489.664 214.352 495.08 Q214.352 500.659 210.88 503.761 Q207.408 506.84 201.088 506.84 Q198.912 506.84 196.644 506.469 Q194.399 506.099 191.991 505.358 L191.991 500.659 Q194.075 501.793 196.297 502.349 Q198.519 502.904 200.996 502.904 Q205 502.904 207.338 500.798 Q209.676 498.692 209.676 495.08 Q209.676 491.469 207.338 489.363 Q205 487.256 200.996 487.256 Q199.121 487.256 197.246 487.673 Q195.394 488.09 193.45 488.969 L193.45 471.608 Z" fill="#000000" fill-rule="evenodd" fill-opacity="1" /><path clip-path="url(#clip310)" d="M117.061 181.743 L135.417 181.743 L135.417 185.679 L121.343 185.679 L121.343 194.151 Q122.362 193.804 123.38 193.641 Q124.399 193.456 125.418 193.456 Q131.205 193.456 134.584 196.628 Q137.964 199.799 137.964 205.215 Q137.964 210.794 134.492 213.896 Q131.019 216.975 124.7 216.975 Q122.524 216.975 120.255 216.604 Q118.01 216.234 115.603 215.493 L115.603 210.794 Q117.686 211.928 119.908 212.484 Q122.13 213.04 124.607 213.04 Q128.612 213.04 130.95 210.933 Q133.288 208.827 133.288 205.215 Q133.288 201.604 130.95 199.498 Q128.612 197.391 124.607 197.391 Q122.732 197.391 120.857 197.808 Q119.006 198.225 117.061 199.104 L117.061 181.743 Z" fill="#000000" fill-rule="evenodd" fill-opacity="1" /><path clip-path="url(#clip310)" d="M147.177 210.424 L152.061 210.424 L152.061 216.303 L147.177 216.303 L147.177 210.424 Z" fill="#000000" fill-rule="evenodd" fill-opacity="1" /><path clip-path="url(#clip310)" d="M162.292 181.743 L180.649 181.743 L180.649 185.679 L166.575 185.679 L166.575 194.151 Q167.593 193.804 168.612 193.641 Q169.63 193.456 170.649 193.456 Q176.436 193.456 179.815 196.628 Q183.195 199.799 183.195 205.215 Q183.195 210.794 179.723 213.896 Q176.251 216.975 169.931 216.975 Q167.755 216.975 165.487 216.604 Q163.241 216.234 160.834 215.493 L160.834 210.794 Q162.917 211.928 165.14 212.484 Q167.362 213.04 169.839 213.04 Q173.843 213.04 176.181 210.933 Q178.519 208.827 178.519 205.215 Q178.519 201.604 176.181 199.498 Q173.843 197.391 169.839 197.391 Q167.964 197.391 166.089 197.808 Q164.237 198.225 162.292 199.104 L162.292 181.743 Z" fill="#000000" fill-rule="evenodd" fill-opacity="1" /><path clip-path="url(#clip310)" d="M202.408 184.822 Q198.797 184.822 196.968 188.387 Q195.163 191.929 195.163 199.058 Q195.163 206.165 196.968 209.729 Q198.797 213.271 202.408 213.271 Q206.042 213.271 207.848 209.729 Q209.676 206.165 209.676 199.058 Q209.676 191.929 207.848 188.387 Q206.042 184.822 202.408 184.822 M202.408 181.118 Q208.218 181.118 211.274 185.725 Q214.352 190.308 214.352 199.058 Q214.352 207.785 211.274 212.391 Q208.218 216.975 202.408 216.975 Q196.598 216.975 193.519 212.391 Q190.463 207.785 190.463 199.058 Q190.463 190.308 193.519 185.725 Q196.598 181.118 202.408 181.118 Z" fill="#000000" fill-rule="evenodd" fill-opacity="1" /><path clip-path="url(#clip310)" d="M20.1444 1031.54 L26.9239 1031.54 Q23.9002 1034.78 22.4043 1038.48 Q20.9083 1042.14 20.9083 1046.27 Q20.9083 1054.42 25.9054 1058.75 Q30.8707 1063.08 40.2919 1063.08 Q49.6813 1063.08 54.6784 1058.75 Q59.6436 1054.42 59.6436 1046.27 Q59.6436 1042.14 58.1477 1038.48 Q56.6518 1034.78 53.6281 1031.54 L60.3439 1031.54 Q62.6355 1034.91 63.7814 1038.7 Q64.9272 1042.45 64.9272 1046.66 Q64.9272 1057.45 58.3387 1063.65 Q51.7183 1069.86 40.2919 1069.86 Q28.8336 1069.86 22.2451 1063.65 Q15.6248 1057.45 15.6248 1046.66 Q15.6248 1042.39 16.7706 1038.63 Q17.8846 1034.85 20.1444 1031.54 Z" fill="#000000" fill-rule="evenodd" fill-opacity="1" /><path clip-path="url(#clip310)" d="M32.4621 1008.05 Q32.4621 1012.76 36.1542 1015.5 Q39.8145 1018.23 46.212 1018.23 Q52.6095 1018.23 56.3017 1015.53 Q59.9619 1012.79 59.9619 1008.05 Q59.9619 1003.37 56.2698 1000.63 Q52.5777 997.894 46.212 997.894 Q39.8781 997.894 36.186 1000.63 Q32.4621 1003.37 32.4621 1008.05 M27.4968 1008.05 Q27.4968 1000.41 32.4621 996.048 Q37.4273 991.688 46.212 991.688 Q54.9649 991.688 59.9619 996.048 Q64.9272 1000.41 64.9272 1008.05 Q64.9272 1015.72 59.9619 1020.08 Q54.9649 1024.41 46.212 1024.41 Q37.4273 1024.41 32.4621 1020.08 Q27.4968 1015.72 27.4968 1008.05 Z" fill="#000000" fill-rule="evenodd" fill-opacity="1" /><path clip-path="url(#clip310)" d="M35.1993 954.225 Q31.2526 952.029 29.3747 948.974 Q27.4968 945.918 27.4968 941.78 Q27.4968 936.21 31.4117 933.187 Q35.2948 930.163 42.4881 930.163 L64.0042 930.163 L64.0042 936.051 L42.679 936.051 Q37.5546 936.051 35.072 937.866 Q32.5894 939.68 32.5894 943.404 Q32.5894 947.955 35.6131 950.597 Q38.6368 953.239 43.8567 953.239 L64.0042 953.239 L64.0042 959.127 L42.679 959.127 Q37.5228 959.127 35.072 960.941 Q32.5894 962.755 32.5894 966.543 Q32.5894 971.031 35.6449 973.673 Q38.6686 976.314 43.8567 976.314 L64.0042 976.314 L64.0042 982.203 L28.3562 982.203 L28.3562 976.314 L33.8944 976.314 Q30.616 974.309 29.0564 971.508 Q27.4968 968.707 27.4968 964.856 Q27.4968 960.973 29.4702 958.268 Q31.4436 955.53 35.1993 954.225 Z" fill="#000000" fill-rule="evenodd" fill-opacity="1" /><path clip-path="url(#clip310)" d="M58.657 912.816 L77.5631 912.816 L77.5631 918.705 L28.3562 918.705 L28.3562 912.816 L33.7671 912.816 Q30.5842 910.97 29.0564 908.17 Q27.4968 905.337 27.4968 901.422 Q27.4968 894.929 32.6531 890.887 Q37.8093 886.813 46.212 886.813 Q54.6147 886.813 59.771 890.887 Q64.9272 894.929 64.9272 901.422 Q64.9272 905.337 63.3994 908.17 Q61.8398 910.97 58.657 912.816 M46.212 892.892 Q39.7508 892.892 36.0905 895.565 Q32.3984 898.207 32.3984 902.854 Q32.3984 907.501 36.0905 910.175 Q39.7508 912.816 46.212 912.816 Q52.6732 912.816 56.3653 910.175 Q60.0256 907.501 60.0256 902.854 Q60.0256 898.207 56.3653 895.565 Q52.6732 892.892 46.212 892.892 Z" fill="#000000" fill-rule="evenodd" fill-opacity="1" /><path clip-path="url(#clip310)" d="M14.479 877.105 L14.479 871.248 L64.0042 871.248 L64.0042 877.105 L14.479 877.105 Z" fill="#000000" fill-rule="evenodd" fill-opacity="1" /><path clip-path="url(#clip310)" d="M44.7161 828.503 L47.5806 828.503 L47.5806 855.43 Q53.6281 855.048 56.8109 851.801 Q59.9619 848.523 59.9619 842.698 Q59.9619 839.324 59.1344 836.173 Q58.3069 832.991 56.6518 829.871 L62.1899 829.871 Q63.5267 833.022 64.227 836.333 Q64.9272 839.643 64.9272 843.048 Q64.9272 851.578 59.9619 856.575 Q54.9967 861.541 46.5303 861.541 Q37.7774 861.541 32.6531 856.83 Q27.4968 852.088 27.4968 844.067 Q27.4968 836.874 32.1438 832.704 Q36.7589 828.503 44.7161 828.503 M42.9973 834.359 Q38.1912 834.423 35.3266 837.065 Q32.4621 839.675 32.4621 844.003 Q32.4621 848.905 35.2312 851.865 Q38.0002 854.793 43.0292 855.239 L42.9973 834.359 Z" fill="#000000" fill-rule="evenodd" fill-opacity="1" /><path clip-path="url(#clip310)" d="M18.2347 813.098 L28.3562 813.098 L28.3562 801.035 L32.9077 801.035 L32.9077 813.098 L52.2594 813.098 Q56.6199 813.098 57.8613 811.92 Q59.1026 810.711 59.1026 807.05 L59.1026 801.035 L64.0042 801.035 L64.0042 807.05 Q64.0042 813.83 61.4897 816.408 Q58.9434 818.986 52.2594 818.986 L32.9077 818.986 L32.9077 823.283 L28.3562 823.283 L28.3562 818.986 L18.2347 818.986 L18.2347 813.098 Z" fill="#000000" fill-rule="evenodd" fill-opacity="1" /><path clip-path="url(#clip310)" d="M28.3562 793.332 L28.3562 787.476 L64.0042 787.476 L64.0042 793.332 L28.3562 793.332 M14.479 793.332 L14.479 787.476 L21.895 787.476 L21.895 793.332 L14.479 793.332 Z" fill="#000000" fill-rule="evenodd" fill-opacity="1" /><path clip-path="url(#clip310)" d="M32.4621 761.408 Q32.4621 766.119 36.1542 768.856 Q39.8145 771.593 46.212 771.593 Q52.6095 771.593 56.3017 768.888 Q59.9619 766.151 59.9619 761.408 Q59.9619 756.729 56.2698 753.992 Q52.5777 751.255 46.212 751.255 Q39.8781 751.255 36.186 753.992 Q32.4621 756.729 32.4621 761.408 M27.4968 761.408 Q27.4968 753.769 32.4621 749.409 Q37.4273 745.048 46.212 745.048 Q54.9649 745.048 59.9619 749.409 Q64.9272 753.769 64.9272 761.408 Q64.9272 769.079 59.9619 773.439 Q54.9649 777.768 46.212 777.768 Q37.4273 777.768 32.4621 773.439 Q27.4968 769.079 27.4968 761.408 Z" fill="#000000" fill-rule="evenodd" fill-opacity="1" /><path clip-path="url(#clip310)" d="M42.4881 705.708 L64.0042 705.708 L64.0042 711.565 L42.679 711.565 Q37.6183 711.565 35.1038 713.538 Q32.5894 715.511 32.5894 719.458 Q32.5894 724.201 35.6131 726.938 Q38.6368 729.675 43.8567 729.675 L64.0042 729.675 L64.0042 735.563 L28.3562 735.563 L28.3562 729.675 L33.8944 729.675 Q30.6797 727.574 29.0883 724.742 Q27.4968 721.877 27.4968 718.153 Q27.4968 712.01 31.3163 708.859 Q35.1038 705.708 42.4881 705.708 Z" fill="#000000" fill-rule="evenodd" fill-opacity="1" /><path clip-path="url(#clip310)" d="M16.4842 679.641 L16.4842 639.441 L21.895 639.441 L21.895 656.31 L64.0042 656.31 L64.0042 662.772 L21.895 662.772 L21.895 679.641 L16.4842 679.641 Z" fill="#000000" fill-rule="evenodd" fill-opacity="1" /><path clip-path="url(#clip310)" d="M28.3562 635.494 L28.3562 629.638 L64.0042 629.638 L64.0042 635.494 L28.3562 635.494 M14.479 635.494 L14.479 629.638 L21.895 629.638 L21.895 635.494 L14.479 635.494 Z" fill="#000000" fill-rule="evenodd" fill-opacity="1" /><path clip-path="url(#clip310)" d="M35.1993 589.63 Q31.2526 587.433 29.3747 584.378 Q27.4968 581.322 27.4968 577.185 Q27.4968 571.615 31.4117 568.591 Q35.2948 565.567 42.4881 565.567 L64.0042 565.567 L64.0042 571.455 L42.679 571.455 Q37.5546 571.455 35.072 573.27 Q32.5894 575.084 32.5894 578.808 Q32.5894 583.359 35.6131 586.001 Q38.6368 588.643 43.8567 588.643 L64.0042 588.643 L64.0042 594.531 L42.679 594.531 Q37.5228 594.531 35.072 596.345 Q32.5894 598.16 32.5894 601.947 Q32.5894 606.435 35.6449 609.077 Q38.6686 611.719 43.8567 611.719 L64.0042 611.719 L64.0042 617.607 L28.3562 617.607 L28.3562 611.719 L33.8944 611.719 Q30.616 609.713 29.0564 606.912 Q27.4968 604.112 27.4968 600.26 Q27.4968 596.377 29.4702 593.672 Q31.4436 590.935 35.1993 589.63 Z" fill="#000000" fill-rule="evenodd" fill-opacity="1" /><path clip-path="url(#clip310)" d="M44.7161 523.394 L47.5806 523.394 L47.5806 550.321 Q53.6281 549.939 56.8109 546.693 Q59.9619 543.415 59.9619 537.59 Q59.9619 534.216 59.1344 531.065 Q58.3069 527.882 56.6518 524.763 L62.1899 524.763 Q63.5267 527.914 64.227 531.224 Q64.9272 534.534 64.9272 537.94 Q64.9272 546.47 59.9619 551.467 Q54.9967 556.432 46.5303 556.432 Q37.7774 556.432 32.6531 551.722 Q27.4968 546.979 27.4968 538.959 Q27.4968 531.765 32.1438 527.596 Q36.7589 523.394 44.7161 523.394 M42.9973 529.251 Q38.1912 529.314 35.3266 531.956 Q32.4621 534.566 32.4621 538.895 Q32.4621 543.796 35.2312 546.757 Q38.0002 549.685 43.0292 550.13 L42.9973 529.251 Z" fill="#000000" fill-rule="evenodd" fill-opacity="1" /><path clip-path="url(#clip310)" d="M28.3562 493.062 L28.3562 487.205 L64.0042 487.205 L64.0042 493.062 L28.3562 493.062 M14.479 493.062 L14.479 487.205 L21.895 487.205 L21.895 493.062 L14.479 493.062 Z" fill="#000000" fill-rule="evenodd" fill-opacity="1" /><path clip-path="url(#clip310)" d="M42.4881 445.319 L64.0042 445.319 L64.0042 451.175 L42.679 451.175 Q37.6183 451.175 35.1038 453.149 Q32.5894 455.122 32.5894 459.069 Q32.5894 463.811 35.6131 466.549 Q38.6368 469.286 43.8567 469.286 L64.0042 469.286 L64.0042 475.174 L28.3562 475.174 L28.3562 469.286 L33.8944 469.286 Q30.6797 467.185 29.0883 464.352 Q27.4968 461.488 27.4968 457.764 Q27.4968 451.621 31.3163 448.47 Q35.1038 445.319 42.4881 445.319 Z" fill="#000000" fill-rule="evenodd" fill-opacity="1" /><path clip-path="url(#clip310)" d="M29.4065 390.192 L34.9447 390.192 Q33.6716 392.675 33.035 395.348 Q32.3984 398.022 32.3984 400.886 Q32.3984 405.247 33.7352 407.443 Q35.072 409.607 37.7456 409.607 Q39.7826 409.607 40.9603 408.048 Q42.1061 406.488 43.1565 401.778 L43.6021 399.772 Q44.9389 393.534 47.3897 390.924 Q49.8086 388.282 54.1691 388.282 Q59.1344 388.282 62.0308 392.229 Q64.9272 396.144 64.9272 403.019 Q64.9272 405.883 64.3543 409.003 Q63.8132 412.09 62.6992 415.527 L56.6518 415.527 Q58.3387 412.281 59.198 409.13 Q60.0256 405.979 60.0256 402.892 Q60.0256 398.754 58.6251 396.526 Q57.1929 394.298 54.6147 394.298 Q52.2276 394.298 50.9545 395.921 Q49.6813 397.513 48.5037 402.955 L48.0262 404.992 Q46.8804 410.435 44.5251 412.854 Q42.138 415.273 38.0002 415.273 Q32.9713 415.273 30.2341 411.708 Q27.4968 408.143 27.4968 401.587 Q27.4968 398.34 27.9743 395.476 Q28.4517 392.611 29.4065 390.192 Z" fill="#000000" fill-rule="evenodd" fill-opacity="1" /><polyline clip-path="url(#clip312)" style="stroke:#009af9; stroke-linecap:butt; stroke-linejoin:round; stroke-width:4; stroke-opacity:1; fill:none" points="
  309.854,448.875 414.244,528.04 518.633,469.525 623.023,85.838 727.412,627.803 831.801,1064.45 936.191,776.825 1040.58,929.632 1144.97,812.714 1249.36,1199.67 
  1353.75,1112.89 1458.14,961.816 1562.53,596.692 1666.92,1070.81 1771.31,1372.3 1875.7,1109.53 1980.09,834.183 2084.47,1056.69 2188.86,818.426 2293.25,1197.82 
  
  "/>
</svg>
