<?xml version="1.0" encoding="utf-8"?>
<svg xmlns="http://www.w3.org/2000/svg" xmlns:xlink="http://www.w3.org/1999/xlink" width="600" height="400" viewBox="0 0 2400 1600">
<defs>
  <clipPath id="clip400">
    <rect x="0" y="0" width="2400" height="1600"/>
  </clipPath>
</defs>
<path clip-path="url(#clip400)" d="
M0 1600 L2400 1600 L2400 0 L0 0  Z
  " fill="#ffffff" fill-rule="evenodd" fill-opacity="1"/>
<defs>
  <clipPath id="clip401">
    <rect x="480" y="0" width="1681" height="1600"/>
  </clipPath>
</defs>
<path clip-path="url(#clip400)" d="
M192.358 1418.86 L2352.76 1418.86 L2352.76 47.2441 L192.358 47.2441  Z
  " fill="#ffffff" fill-rule="evenodd" fill-opacity="1"/>
<defs>
  <clipPath id="clip402">
    <rect x="192" y="47" width="2161" height="1373"/>
  </clipPath>
</defs>
<polyline clip-path="url(#clip402)" style="stroke:#000000; stroke-linecap:round; stroke-linejoin:round; stroke-width:2; stroke-opacity:0.1; fill:none" points="
  248.393,1418.86 248.393,47.2441 
  "/>
<polyline clip-path="url(#clip402)" style="stroke:#000000; stroke-linecap:round; stroke-linejoin:round; stroke-width:2; stroke-opacity:0.1; fill:none" points="
  759.198,1418.86 759.198,47.2441 
  "/>
<polyline clip-path="url(#clip402)" style="stroke:#000000; stroke-linecap:round; stroke-linejoin:round; stroke-width:2; stroke-opacity:0.1; fill:none" points="
  1270,1418.86 1270,47.2441 
  "/>
<polyline clip-path="url(#clip402)" style="stroke:#000000; stroke-linecap:round; stroke-linejoin:round; stroke-width:2; stroke-opacity:0.1; fill:none" points="
  1780.81,1418.86 1780.81,47.2441 
  "/>
<polyline clip-path="url(#clip402)" style="stroke:#000000; stroke-linecap:round; stroke-linejoin:round; stroke-width:2; stroke-opacity:0.1; fill:none" points="
  2291.61,1418.86 2291.61,47.2441 
  "/>
<polyline clip-path="url(#clip400)" style="stroke:#000000; stroke-linecap:round; stroke-linejoin:round; stroke-width:4; stroke-opacity:1; fill:none" points="
  192.358,1418.86 2352.76,1418.86 
  "/>
<polyline clip-path="url(#clip400)" style="stroke:#000000; stroke-linecap:round; stroke-linejoin:round; stroke-width:4; stroke-opacity:1; fill:none" points="
  248.393,1418.86 248.393,1399.96 
  "/>
<polyline clip-path="url(#clip400)" style="stroke:#000000; stroke-linecap:round; stroke-linejoin:round; stroke-width:4; stroke-opacity:1; fill:none" points="
  759.198,1418.86 759.198,1399.96 
  "/>
<polyline clip-path="url(#clip400)" style="stroke:#000000; stroke-linecap:round; stroke-linejoin:round; stroke-width:4; stroke-opacity:1; fill:none" points="
  1270,1418.86 1270,1399.96 
  "/>
<polyline clip-path="url(#clip400)" style="stroke:#000000; stroke-linecap:round; stroke-linejoin:round; stroke-width:4; stroke-opacity:1; fill:none" points="
  1780.81,1418.86 1780.81,1399.96 
  "/>
<polyline clip-path="url(#clip400)" style="stroke:#000000; stroke-linecap:round; stroke-linejoin:round; stroke-width:4; stroke-opacity:1; fill:none" points="
  2291.61,1418.86 2291.61,1399.96 
  "/>
<path clip-path="url(#clip400)" d="M156.194 1449.78 Q152.583 1449.78 150.755 1453.34 Q148.949 1456.88 148.949 1464.01 Q148.949 1471.12 150.755 1474.69 Q152.583 1478.23 156.194 1478.23 Q159.829 1478.23 161.634 1474.69 Q163.463 1471.12 163.463 1464.01 Q163.463 1456.88 161.634 1453.34 Q159.829 1449.78 156.194 1449.78 M156.194 1446.07 Q162.005 1446.07 165.06 1450.68 Q168.139 1455.26 168.139 1464.01 Q168.139 1472.74 165.06 1477.35 Q162.005 1481.93 156.194 1481.93 Q150.384 1481.93 147.306 1477.35 Q144.25 1472.74 144.25 1464.01 Q144.25 1455.26 147.306 1450.68 Q150.384 1446.07 156.194 1446.07 Z" fill="#000000" fill-rule="evenodd" fill-opacity="1" /><path clip-path="url(#clip400)" d="M176.356 1475.38 L181.241 1475.38 L181.241 1481.26 L176.356 1481.26 L176.356 1475.38 Z" fill="#000000" fill-rule="evenodd" fill-opacity="1" /><path clip-path="url(#clip400)" d="M201.426 1449.78 Q197.815 1449.78 195.986 1453.34 Q194.18 1456.88 194.18 1464.01 Q194.18 1471.12 195.986 1474.69 Q197.815 1478.23 201.426 1478.23 Q205.06 1478.23 206.865 1474.69 Q208.694 1471.12 208.694 1464.01 Q208.694 1456.88 206.865 1453.34 Q205.06 1449.78 201.426 1449.78 M201.426 1446.07 Q207.236 1446.07 210.291 1450.68 Q213.37 1455.26 213.37 1464.01 Q213.37 1472.74 210.291 1477.35 Q207.236 1481.93 201.426 1481.93 Q195.616 1481.93 192.537 1477.35 Q189.481 1472.74 189.481 1464.01 Q189.481 1455.26 192.537 1450.68 Q195.616 1446.07 201.426 1446.07 Z" fill="#000000" fill-rule="evenodd" fill-opacity="1" /><path clip-path="url(#clip400)" d="M231.588 1449.78 Q227.976 1449.78 226.148 1453.34 Q224.342 1456.88 224.342 1464.01 Q224.342 1471.12 226.148 1474.69 Q227.976 1478.23 231.588 1478.23 Q235.222 1478.23 237.027 1474.69 Q238.856 1471.12 238.856 1464.01 Q238.856 1456.88 237.027 1453.34 Q235.222 1449.78 231.588 1449.78 M231.588 1446.07 Q237.398 1446.07 240.453 1450.68 Q243.532 1455.26 243.532 1464.01 Q243.532 1472.74 240.453 1477.35 Q237.398 1481.93 231.588 1481.93 Q225.777 1481.93 222.699 1477.35 Q219.643 1472.74 219.643 1464.01 Q219.643 1455.26 222.699 1450.68 Q225.777 1446.07 231.588 1446.07 Z" fill="#000000" fill-rule="evenodd" fill-opacity="1" /><path clip-path="url(#clip400)" d="M272.698 1455.33 L263.324 1467.95 L273.185 1481.26 L268.161 1481.26 L260.615 1471.07 L253.069 1481.26 L248.046 1481.26 L258.115 1467.7 L248.902 1455.33 L253.925 1455.33 L260.8 1464.57 L267.675 1455.33 L272.698 1455.33 Z" fill="#000000" fill-rule="evenodd" fill-opacity="1" /><path clip-path="url(#clip400)" d="M280.615 1477.32 L288.254 1477.32 L288.254 1450.96 L279.944 1452.63 L279.944 1448.37 L288.208 1446.7 L292.884 1446.7 L292.884 1477.32 L300.522 1477.32 L300.522 1481.26 L280.615 1481.26 L280.615 1477.32 Z" fill="#000000" fill-rule="evenodd" fill-opacity="1" /><path clip-path="url(#clip400)" d="M319.967 1449.78 Q316.356 1449.78 314.527 1453.34 Q312.721 1456.88 312.721 1464.01 Q312.721 1471.12 314.527 1474.69 Q316.356 1478.23 319.967 1478.23 Q323.601 1478.23 325.407 1474.69 Q327.235 1471.12 327.235 1464.01 Q327.235 1456.88 325.407 1453.34 Q323.601 1449.78 319.967 1449.78 M319.967 1446.07 Q325.777 1446.07 328.832 1450.68 Q331.911 1455.26 331.911 1464.01 Q331.911 1472.74 328.832 1477.35 Q325.777 1481.93 319.967 1481.93 Q314.157 1481.93 311.078 1477.35 Q308.022 1472.74 308.022 1464.01 Q308.022 1455.26 311.078 1450.68 Q314.157 1446.07 319.967 1446.07 Z" fill="#000000" fill-rule="evenodd" fill-opacity="1" /><path clip-path="url(#clip400)" d="M345.129 1455.03 Q343.092 1455.03 341.911 1456.24 Q340.73 1457.46 340.73 1459.57 Q340.73 1461.65 341.911 1462.86 Q343.092 1464.08 345.129 1464.08 Q347.142 1464.08 348.323 1462.86 Q349.504 1461.65 349.504 1459.57 Q349.504 1457.46 348.323 1456.24 Q347.142 1455.03 345.129 1455.03 M351.101 1446.84 L351.101 1449.22 Q349.967 1448.76 348.809 1448.53 Q347.652 1448.27 346.518 1448.27 Q343.555 1448.27 341.98 1450.01 Q340.406 1451.77 340.175 1455.31 Q341.055 1454.18 342.374 1453.57 Q343.717 1452.97 345.291 1452.97 Q348.647 1452.97 350.592 1454.73 Q352.536 1456.51 352.536 1459.57 Q352.536 1462.51 350.499 1464.34 Q348.485 1466.14 345.129 1466.14 Q341.263 1466.14 339.226 1463.57 Q337.189 1461.01 337.189 1456.1 Q337.189 1451.51 339.689 1448.81 Q342.189 1446.07 346.402 1446.07 Q347.536 1446.07 348.693 1446.26 Q349.851 1446.47 351.101 1446.84 Z" fill="#000000" fill-rule="evenodd" fill-opacity="1" /><path clip-path="url(#clip400)" d="M641.687 1477.32 L649.326 1477.32 L649.326 1450.96 L641.016 1452.63 L641.016 1448.37 L649.28 1446.7 L653.955 1446.7 L653.955 1477.32 L661.594 1477.32 L661.594 1481.26 L641.687 1481.26 L641.687 1477.32 Z" fill="#000000" fill-rule="evenodd" fill-opacity="1" /><path clip-path="url(#clip400)" d="M681.039 1449.78 Q677.428 1449.78 675.599 1453.34 Q673.793 1456.88 673.793 1464.01 Q673.793 1471.12 675.599 1474.69 Q677.428 1478.23 681.039 1478.23 Q684.673 1478.23 686.478 1474.69 Q688.307 1471.12 688.307 1464.01 Q688.307 1456.88 686.478 1453.34 Q684.673 1449.78 681.039 1449.78 M681.039 1446.07 Q686.849 1446.07 689.904 1450.68 Q692.983 1455.26 692.983 1464.01 Q692.983 1472.74 689.904 1477.35 Q686.849 1481.93 681.039 1481.93 Q675.228 1481.93 672.15 1477.35 Q669.094 1472.74 669.094 1464.01 Q669.094 1455.26 672.15 1450.68 Q675.228 1446.07 681.039 1446.07 Z" fill="#000000" fill-rule="evenodd" fill-opacity="1" /><path clip-path="url(#clip400)" d="M701.201 1475.38 L706.085 1475.38 L706.085 1481.26 L701.201 1481.26 L701.201 1475.38 Z" fill="#000000" fill-rule="evenodd" fill-opacity="1" /><path clip-path="url(#clip400)" d="M726.27 1449.78 Q722.659 1449.78 720.83 1453.34 Q719.025 1456.88 719.025 1464.01 Q719.025 1471.12 720.83 1474.69 Q722.659 1478.23 726.27 1478.23 Q729.904 1478.23 731.71 1474.69 Q733.538 1471.12 733.538 1464.01 Q733.538 1456.88 731.71 1453.34 Q729.904 1449.78 726.27 1449.78 M726.27 1446.07 Q732.08 1446.07 735.136 1450.68 Q738.214 1455.26 738.214 1464.01 Q738.214 1472.74 735.136 1477.35 Q732.08 1481.93 726.27 1481.93 Q720.46 1481.93 717.381 1477.35 Q714.325 1472.74 714.325 1464.01 Q714.325 1455.26 717.381 1450.68 Q720.46 1446.07 726.27 1446.07 Z" fill="#000000" fill-rule="evenodd" fill-opacity="1" /><path clip-path="url(#clip400)" d="M756.432 1449.78 Q752.821 1449.78 750.992 1453.34 Q749.186 1456.88 749.186 1464.01 Q749.186 1471.12 750.992 1474.69 Q752.821 1478.23 756.432 1478.23 Q760.066 1478.23 761.872 1474.69 Q763.7 1471.12 763.7 1464.01 Q763.7 1456.88 761.872 1453.34 Q760.066 1449.78 756.432 1449.78 M756.432 1446.07 Q762.242 1446.07 765.297 1450.68 Q768.376 1455.26 768.376 1464.01 Q768.376 1472.74 765.297 1477.35 Q762.242 1481.93 756.432 1481.93 Q750.622 1481.93 747.543 1477.35 Q744.487 1472.74 744.487 1464.01 Q744.487 1455.26 747.543 1450.68 Q750.622 1446.07 756.432 1446.07 Z" fill="#000000" fill-rule="evenodd" fill-opacity="1" /><path clip-path="url(#clip400)" d="M797.543 1455.33 L788.168 1467.95 L798.029 1481.26 L793.006 1481.26 L785.459 1471.07 L777.913 1481.26 L772.89 1481.26 L782.959 1467.7 L773.746 1455.33 L778.77 1455.33 L785.645 1464.57 L792.519 1455.33 L797.543 1455.33 Z" fill="#000000" fill-rule="evenodd" fill-opacity="1" /><path clip-path="url(#clip400)" d="M805.459 1477.32 L813.098 1477.32 L813.098 1450.96 L804.788 1452.63 L804.788 1448.37 L813.052 1446.7 L817.728 1446.7 L817.728 1477.32 L825.367 1477.32 L825.367 1481.26 L805.459 1481.26 L805.459 1477.32 Z" fill="#000000" fill-rule="evenodd" fill-opacity="1" /><path clip-path="url(#clip400)" d="M844.811 1449.78 Q841.2 1449.78 839.371 1453.34 Q837.566 1456.88 837.566 1464.01 Q837.566 1471.12 839.371 1474.69 Q841.2 1478.23 844.811 1478.23 Q848.445 1478.23 850.251 1474.69 Q852.079 1471.12 852.079 1464.01 Q852.079 1456.88 850.251 1453.34 Q848.445 1449.78 844.811 1449.78 M844.811 1446.07 Q850.621 1446.07 853.677 1450.68 Q856.755 1455.26 856.755 1464.01 Q856.755 1472.74 853.677 1477.35 Q850.621 1481.93 844.811 1481.93 Q839.001 1481.93 835.922 1477.35 Q832.866 1472.74 832.866 1464.01 Q832.866 1455.26 835.922 1450.68 Q839.001 1446.07 844.811 1446.07 Z" fill="#000000" fill-rule="evenodd" fill-opacity="1" /><path clip-path="url(#clip400)" d="M869.973 1455.03 Q867.936 1455.03 866.755 1456.24 Q865.575 1457.46 865.575 1459.57 Q865.575 1461.65 866.755 1462.86 Q867.936 1464.08 869.973 1464.08 Q871.987 1464.08 873.167 1462.86 Q874.348 1461.65 874.348 1459.57 Q874.348 1457.46 873.167 1456.24 Q871.987 1455.03 869.973 1455.03 M875.945 1446.84 L875.945 1449.22 Q874.811 1448.76 873.653 1448.53 Q872.496 1448.27 871.362 1448.27 Q868.399 1448.27 866.825 1450.01 Q865.251 1451.77 865.019 1455.31 Q865.899 1454.18 867.218 1453.57 Q868.561 1452.97 870.135 1452.97 Q873.491 1452.97 875.436 1454.73 Q877.38 1456.51 877.38 1459.57 Q877.38 1462.51 875.343 1464.34 Q873.329 1466.14 869.973 1466.14 Q866.107 1466.14 864.07 1463.57 Q862.033 1461.01 862.033 1456.1 Q862.033 1451.51 864.533 1448.81 Q867.033 1446.07 871.246 1446.07 Q872.38 1446.07 873.538 1446.26 Q874.695 1446.47 875.945 1446.84 Z" fill="#000000" fill-rule="evenodd" fill-opacity="1" /><path clip-path="url(#clip400)" d="M1156.58 1477.32 L1172.9 1477.32 L1172.9 1481.26 L1150.95 1481.26 L1150.95 1477.32 Q1153.61 1474.57 1158.2 1469.94 Q1162.8 1465.29 1163.98 1463.95 Q1166.23 1461.42 1167.11 1459.69 Q1168.01 1457.93 1168.01 1456.24 Q1168.01 1453.48 1166.07 1451.75 Q1164.15 1450.01 1161.05 1450.01 Q1158.85 1450.01 1156.39 1450.77 Q1153.96 1451.54 1151.18 1453.09 L1151.18 1448.37 Q1154.01 1447.23 1156.46 1446.65 Q1158.92 1446.07 1160.95 1446.07 Q1166.32 1446.07 1169.52 1448.76 Q1172.71 1451.45 1172.71 1455.94 Q1172.71 1458.07 1171.9 1459.99 Q1171.11 1461.88 1169.01 1464.48 Q1168.43 1465.15 1165.33 1468.37 Q1162.23 1471.56 1156.58 1477.32 Z" fill="#000000" fill-rule="evenodd" fill-opacity="1" /><path clip-path="url(#clip400)" d="M1192.71 1449.78 Q1189.1 1449.78 1187.27 1453.34 Q1185.47 1456.88 1185.47 1464.01 Q1185.47 1471.12 1187.27 1474.69 Q1189.1 1478.23 1192.71 1478.23 Q1196.35 1478.23 1198.15 1474.69 Q1199.98 1471.12 1199.98 1464.01 Q1199.98 1456.88 1198.15 1453.34 Q1196.35 1449.78 1192.71 1449.78 M1192.71 1446.07 Q1198.52 1446.07 1201.58 1450.68 Q1204.66 1455.26 1204.66 1464.01 Q1204.66 1472.74 1201.58 1477.35 Q1198.52 1481.93 1192.71 1481.93 Q1186.9 1481.93 1183.82 1477.35 Q1180.77 1472.74 1180.77 1464.01 Q1180.77 1455.26 1183.82 1450.68 Q1186.9 1446.07 1192.71 1446.07 Z" fill="#000000" fill-rule="evenodd" fill-opacity="1" /><path clip-path="url(#clip400)" d="M1212.87 1475.38 L1217.76 1475.38 L1217.76 1481.26 L1212.87 1481.26 L1212.87 1475.38 Z" fill="#000000" fill-rule="evenodd" fill-opacity="1" /><path clip-path="url(#clip400)" d="M1237.94 1449.78 Q1234.33 1449.78 1232.5 1453.34 Q1230.7 1456.88 1230.7 1464.01 Q1230.7 1471.12 1232.5 1474.69 Q1234.33 1478.23 1237.94 1478.23 Q1241.58 1478.23 1243.38 1474.69 Q1245.21 1471.12 1245.21 1464.01 Q1245.21 1456.88 1243.38 1453.34 Q1241.58 1449.78 1237.94 1449.78 M1237.94 1446.07 Q1243.75 1446.07 1246.81 1450.68 Q1249.89 1455.26 1249.89 1464.01 Q1249.89 1472.74 1246.81 1477.35 Q1243.75 1481.93 1237.94 1481.93 Q1232.13 1481.93 1229.05 1477.35 Q1226 1472.74 1226 1464.01 Q1226 1455.26 1229.05 1450.68 Q1232.13 1446.07 1237.94 1446.07 Z" fill="#000000" fill-rule="evenodd" fill-opacity="1" /><path clip-path="url(#clip400)" d="M1268.1 1449.78 Q1264.49 1449.78 1262.66 1453.34 Q1260.86 1456.88 1260.86 1464.01 Q1260.86 1471.12 1262.66 1474.69 Q1264.49 1478.23 1268.1 1478.23 Q1271.74 1478.23 1273.54 1474.69 Q1275.37 1471.12 1275.37 1464.01 Q1275.37 1456.88 1273.54 1453.34 Q1271.74 1449.78 1268.1 1449.78 M1268.1 1446.07 Q1273.91 1446.07 1276.97 1450.68 Q1280.05 1455.26 1280.05 1464.01 Q1280.05 1472.74 1276.97 1477.35 Q1273.91 1481.93 1268.1 1481.93 Q1262.29 1481.93 1259.22 1477.35 Q1256.16 1472.74 1256.16 1464.01 Q1256.16 1455.26 1259.22 1450.68 Q1262.29 1446.07 1268.1 1446.07 Z" fill="#000000" fill-rule="evenodd" fill-opacity="1" /><path clip-path="url(#clip400)" d="M1309.22 1455.33 L1299.84 1467.95 L1309.7 1481.26 L1304.68 1481.26 L1297.13 1471.07 L1289.59 1481.26 L1284.56 1481.26 L1294.63 1467.7 L1285.42 1455.33 L1290.44 1455.33 L1297.32 1464.57 L1304.19 1455.33 L1309.22 1455.33 Z" fill="#000000" fill-rule="evenodd" fill-opacity="1" /><path clip-path="url(#clip400)" d="M1317.13 1477.32 L1324.77 1477.32 L1324.77 1450.96 L1316.46 1452.63 L1316.46 1448.37 L1324.72 1446.7 L1329.4 1446.7 L1329.4 1477.32 L1337.04 1477.32 L1337.04 1481.26 L1317.13 1481.26 L1317.13 1477.32 Z" fill="#000000" fill-rule="evenodd" fill-opacity="1" /><path clip-path="url(#clip400)" d="M1356.48 1449.78 Q1352.87 1449.78 1351.04 1453.34 Q1349.24 1456.88 1349.24 1464.01 Q1349.24 1471.12 1351.04 1474.69 Q1352.87 1478.23 1356.48 1478.23 Q1360.12 1478.23 1361.92 1474.69 Q1363.75 1471.12 1363.75 1464.01 Q1363.75 1456.88 1361.92 1453.34 Q1360.12 1449.78 1356.48 1449.78 M1356.48 1446.07 Q1362.29 1446.07 1365.35 1450.68 Q1368.43 1455.26 1368.43 1464.01 Q1368.43 1472.74 1365.35 1477.35 Q1362.29 1481.93 1356.48 1481.93 Q1350.67 1481.93 1347.59 1477.35 Q1344.54 1472.74 1344.54 1464.01 Q1344.54 1455.26 1347.59 1450.68 Q1350.67 1446.07 1356.48 1446.07 Z" fill="#000000" fill-rule="evenodd" fill-opacity="1" /><path clip-path="url(#clip400)" d="M1381.65 1455.03 Q1379.61 1455.03 1378.43 1456.24 Q1377.25 1457.46 1377.25 1459.57 Q1377.25 1461.65 1378.43 1462.86 Q1379.61 1464.08 1381.65 1464.08 Q1383.66 1464.08 1384.84 1462.86 Q1386.02 1461.65 1386.02 1459.57 Q1386.02 1457.46 1384.84 1456.24 Q1383.66 1455.03 1381.65 1455.03 M1387.62 1446.84 L1387.62 1449.22 Q1386.48 1448.76 1385.33 1448.53 Q1384.17 1448.27 1383.03 1448.27 Q1380.07 1448.27 1378.5 1450.01 Q1376.92 1451.77 1376.69 1455.31 Q1377.57 1454.18 1378.89 1453.57 Q1380.23 1452.97 1381.81 1452.97 Q1385.16 1452.97 1387.11 1454.73 Q1389.05 1456.51 1389.05 1459.57 Q1389.05 1462.51 1387.02 1464.34 Q1385 1466.14 1381.65 1466.14 Q1377.78 1466.14 1375.74 1463.57 Q1373.71 1461.01 1373.71 1456.1 Q1373.71 1451.51 1376.21 1448.81 Q1378.71 1446.07 1382.92 1446.07 Q1384.05 1446.07 1385.21 1446.26 Q1386.37 1446.47 1387.62 1446.84 Z" fill="#000000" fill-rule="evenodd" fill-opacity="1" /><path clip-path="url(#clip400)" d="M1677.45 1462.63 Q1680.81 1463.34 1682.68 1465.61 Q1684.58 1467.88 1684.58 1471.21 Q1684.58 1476.33 1681.06 1479.13 Q1677.54 1481.93 1671.06 1481.93 Q1668.89 1481.93 1666.57 1481.49 Q1664.28 1481.07 1661.83 1480.22 L1661.83 1475.7 Q1663.77 1476.84 1666.09 1477.42 Q1668.4 1478 1670.92 1478 Q1675.32 1478 1677.61 1476.26 Q1679.93 1474.52 1679.93 1471.21 Q1679.93 1468.16 1677.78 1466.45 Q1675.65 1464.71 1671.83 1464.71 L1667.8 1464.71 L1667.8 1460.87 L1672.01 1460.87 Q1675.46 1460.87 1677.29 1459.5 Q1679.12 1458.11 1679.12 1455.52 Q1679.12 1452.86 1677.22 1451.45 Q1675.35 1450.01 1671.83 1450.01 Q1669.91 1450.01 1667.71 1450.43 Q1665.51 1450.84 1662.87 1451.72 L1662.87 1447.56 Q1665.53 1446.82 1667.85 1446.45 Q1670.18 1446.07 1672.24 1446.07 Q1677.57 1446.07 1680.67 1448.51 Q1683.77 1450.91 1683.77 1455.03 Q1683.77 1457.9 1682.13 1459.89 Q1680.48 1461.86 1677.45 1462.63 Z" fill="#000000" fill-rule="evenodd" fill-opacity="1" /><path clip-path="url(#clip400)" d="M1703.45 1449.78 Q1699.84 1449.78 1698.01 1453.34 Q1696.2 1456.88 1696.2 1464.01 Q1696.2 1471.12 1698.01 1474.69 Q1699.84 1478.23 1703.45 1478.23 Q1707.08 1478.23 1708.89 1474.69 Q1710.72 1471.12 1710.72 1464.01 Q1710.72 1456.88 1708.89 1453.34 Q1707.08 1449.78 1703.45 1449.78 M1703.45 1446.07 Q1709.26 1446.07 1712.31 1450.68 Q1715.39 1455.26 1715.39 1464.01 Q1715.39 1472.74 1712.31 1477.35 Q1709.26 1481.93 1703.45 1481.93 Q1697.64 1481.93 1694.56 1477.35 Q1691.5 1472.74 1691.5 1464.01 Q1691.5 1455.26 1694.56 1450.68 Q1697.64 1446.07 1703.45 1446.07 Z" fill="#000000" fill-rule="evenodd" fill-opacity="1" /><path clip-path="url(#clip400)" d="M1723.61 1475.38 L1728.49 1475.38 L1728.49 1481.26 L1723.61 1481.26 L1723.61 1475.38 Z" fill="#000000" fill-rule="evenodd" fill-opacity="1" /><path clip-path="url(#clip400)" d="M1748.68 1449.78 Q1745.07 1449.78 1743.24 1453.34 Q1741.43 1456.88 1741.43 1464.01 Q1741.43 1471.12 1743.24 1474.69 Q1745.07 1478.23 1748.68 1478.23 Q1752.31 1478.23 1754.12 1474.69 Q1755.95 1471.12 1755.95 1464.01 Q1755.95 1456.88 1754.12 1453.34 Q1752.31 1449.78 1748.68 1449.78 M1748.68 1446.07 Q1754.49 1446.07 1757.54 1450.68 Q1760.62 1455.26 1760.62 1464.01 Q1760.62 1472.74 1757.54 1477.35 Q1754.49 1481.93 1748.68 1481.93 Q1742.87 1481.93 1739.79 1477.35 Q1736.73 1472.74 1736.73 1464.01 Q1736.73 1455.26 1739.79 1450.68 Q1742.87 1446.07 1748.68 1446.07 Z" fill="#000000" fill-rule="evenodd" fill-opacity="1" /><path clip-path="url(#clip400)" d="M1778.84 1449.78 Q1775.23 1449.78 1773.4 1453.34 Q1771.59 1456.88 1771.59 1464.01 Q1771.59 1471.12 1773.4 1474.69 Q1775.23 1478.23 1778.84 1478.23 Q1782.47 1478.23 1784.28 1474.69 Q1786.11 1471.12 1786.11 1464.01 Q1786.11 1456.88 1784.28 1453.34 Q1782.47 1449.78 1778.84 1449.78 M1778.84 1446.07 Q1784.65 1446.07 1787.71 1450.68 Q1790.78 1455.26 1790.78 1464.01 Q1790.78 1472.74 1787.71 1477.35 Q1784.65 1481.93 1778.84 1481.93 Q1773.03 1481.93 1769.95 1477.35 Q1766.9 1472.74 1766.9 1464.01 Q1766.9 1455.26 1769.95 1450.68 Q1773.03 1446.07 1778.84 1446.07 Z" fill="#000000" fill-rule="evenodd" fill-opacity="1" /><path clip-path="url(#clip400)" d="M1819.95 1455.33 L1810.58 1467.95 L1820.44 1481.26 L1815.41 1481.26 L1807.87 1471.07 L1800.32 1481.26 L1795.3 1481.26 L1805.37 1467.7 L1796.15 1455.33 L1801.18 1455.33 L1808.05 1464.57 L1814.93 1455.33 L1819.95 1455.33 Z" fill="#000000" fill-rule="evenodd" fill-opacity="1" /><path clip-path="url(#clip400)" d="M1827.87 1477.32 L1835.51 1477.32 L1835.51 1450.96 L1827.2 1452.63 L1827.2 1448.37 L1835.46 1446.7 L1840.14 1446.7 L1840.14 1477.32 L1847.77 1477.32 L1847.77 1481.26 L1827.87 1481.26 L1827.87 1477.32 Z" fill="#000000" fill-rule="evenodd" fill-opacity="1" /><path clip-path="url(#clip400)" d="M1867.22 1449.78 Q1863.61 1449.78 1861.78 1453.34 Q1859.97 1456.88 1859.97 1464.01 Q1859.97 1471.12 1861.78 1474.69 Q1863.61 1478.23 1867.22 1478.23 Q1870.85 1478.23 1872.66 1474.69 Q1874.49 1471.12 1874.49 1464.01 Q1874.49 1456.88 1872.66 1453.34 Q1870.85 1449.78 1867.22 1449.78 M1867.22 1446.07 Q1873.03 1446.07 1876.08 1450.68 Q1879.16 1455.26 1879.16 1464.01 Q1879.16 1472.74 1876.08 1477.35 Q1873.03 1481.93 1867.22 1481.93 Q1861.41 1481.93 1858.33 1477.35 Q1855.27 1472.74 1855.27 1464.01 Q1855.27 1455.26 1858.33 1450.68 Q1861.41 1446.07 1867.22 1446.07 Z" fill="#000000" fill-rule="evenodd" fill-opacity="1" /><path clip-path="url(#clip400)" d="M1892.38 1455.03 Q1890.34 1455.03 1889.16 1456.24 Q1887.98 1457.46 1887.98 1459.57 Q1887.98 1461.65 1889.16 1462.86 Q1890.34 1464.08 1892.38 1464.08 Q1894.4 1464.08 1895.58 1462.86 Q1896.76 1461.65 1896.76 1459.57 Q1896.76 1457.46 1895.58 1456.24 Q1894.4 1455.03 1892.38 1455.03 M1898.35 1446.84 L1898.35 1449.22 Q1897.22 1448.76 1896.06 1448.53 Q1894.9 1448.27 1893.77 1448.27 Q1890.81 1448.27 1889.23 1450.01 Q1887.66 1451.77 1887.43 1455.31 Q1888.31 1454.18 1889.63 1453.57 Q1890.97 1452.97 1892.54 1452.97 Q1895.9 1452.97 1897.84 1454.73 Q1899.79 1456.51 1899.79 1459.57 Q1899.79 1462.51 1897.75 1464.34 Q1895.74 1466.14 1892.38 1466.14 Q1888.52 1466.14 1886.48 1463.57 Q1884.44 1461.01 1884.44 1456.1 Q1884.44 1451.51 1886.94 1448.81 Q1889.44 1446.07 1893.65 1446.07 Q1894.79 1446.07 1895.95 1446.26 Q1897.1 1446.47 1898.35 1446.84 Z" fill="#000000" fill-rule="evenodd" fill-opacity="1" /><path clip-path="url(#clip400)" d="M2187.59 1450.77 L2175.78 1469.22 L2187.59 1469.22 L2187.59 1450.77 M2186.36 1446.7 L2192.24 1446.7 L2192.24 1469.22 L2197.17 1469.22 L2197.17 1473.11 L2192.24 1473.11 L2192.24 1481.26 L2187.59 1481.26 L2187.59 1473.11 L2171.98 1473.11 L2171.98 1468.6 L2186.36 1446.7 Z" fill="#000000" fill-rule="evenodd" fill-opacity="1" /><path clip-path="url(#clip400)" d="M2214.9 1449.78 Q2211.29 1449.78 2209.46 1453.34 Q2207.65 1456.88 2207.65 1464.01 Q2207.65 1471.12 2209.46 1474.69 Q2211.29 1478.23 2214.9 1478.23 Q2218.53 1478.23 2220.34 1474.69 Q2222.17 1471.12 2222.17 1464.01 Q2222.17 1456.88 2220.34 1453.34 Q2218.53 1449.78 2214.9 1449.78 M2214.9 1446.07 Q2220.71 1446.07 2223.77 1450.68 Q2226.84 1455.26 2226.84 1464.01 Q2226.84 1472.74 2223.77 1477.35 Q2220.71 1481.93 2214.9 1481.93 Q2209.09 1481.93 2206.01 1477.35 Q2202.96 1472.74 2202.96 1464.01 Q2202.96 1455.26 2206.01 1450.68 Q2209.09 1446.07 2214.9 1446.07 Z" fill="#000000" fill-rule="evenodd" fill-opacity="1" /><path clip-path="url(#clip400)" d="M2235.06 1475.38 L2239.95 1475.38 L2239.95 1481.26 L2235.06 1481.26 L2235.06 1475.38 Z" fill="#000000" fill-rule="evenodd" fill-opacity="1" /><path clip-path="url(#clip400)" d="M2260.13 1449.78 Q2256.52 1449.78 2254.69 1453.34 Q2252.89 1456.88 2252.89 1464.01 Q2252.89 1471.12 2254.69 1474.69 Q2256.52 1478.23 2260.13 1478.23 Q2263.77 1478.23 2265.57 1474.69 Q2267.4 1471.12 2267.4 1464.01 Q2267.4 1456.88 2265.57 1453.34 Q2263.77 1449.78 2260.13 1449.78 M2260.13 1446.07 Q2265.94 1446.07 2269 1450.68 Q2272.08 1455.26 2272.08 1464.01 Q2272.08 1472.74 2269 1477.35 Q2265.94 1481.93 2260.13 1481.93 Q2254.32 1481.93 2251.24 1477.35 Q2248.19 1472.74 2248.19 1464.01 Q2248.19 1455.26 2251.24 1450.68 Q2254.32 1446.07 2260.13 1446.07 Z" fill="#000000" fill-rule="evenodd" fill-opacity="1" /><path clip-path="url(#clip400)" d="M2290.29 1449.78 Q2286.68 1449.78 2284.85 1453.34 Q2283.05 1456.88 2283.05 1464.01 Q2283.05 1471.12 2284.85 1474.69 Q2286.68 1478.23 2290.29 1478.23 Q2293.93 1478.23 2295.73 1474.69 Q2297.56 1471.12 2297.56 1464.01 Q2297.56 1456.88 2295.73 1453.34 Q2293.93 1449.78 2290.29 1449.78 M2290.29 1446.07 Q2296.1 1446.07 2299.16 1450.68 Q2302.24 1455.26 2302.24 1464.01 Q2302.24 1472.74 2299.16 1477.35 Q2296.1 1481.93 2290.29 1481.93 Q2284.48 1481.93 2281.4 1477.35 Q2278.35 1472.74 2278.35 1464.01 Q2278.35 1455.26 2281.4 1450.68 Q2284.48 1446.07 2290.29 1446.07 Z" fill="#000000" fill-rule="evenodd" fill-opacity="1" /><path clip-path="url(#clip400)" d="M2331.4 1455.33 L2322.03 1467.95 L2331.89 1481.26 L2326.87 1481.26 L2319.32 1471.07 L2311.77 1481.26 L2306.75 1481.26 L2316.82 1467.7 L2307.61 1455.33 L2312.63 1455.33 L2319.51 1464.57 L2326.38 1455.33 L2331.4 1455.33 Z" fill="#000000" fill-rule="evenodd" fill-opacity="1" /><path clip-path="url(#clip400)" d="M2339.32 1477.32 L2346.96 1477.32 L2346.96 1450.96 L2338.65 1452.63 L2338.65 1448.37 L2346.91 1446.7 L2351.59 1446.7 L2351.59 1477.32 L2359.23 1477.32 L2359.23 1481.26 L2339.32 1481.26 L2339.32 1477.32 Z" fill="#000000" fill-rule="evenodd" fill-opacity="1" /><path clip-path="url(#clip400)" d="M2378.67 1449.78 Q2375.06 1449.78 2373.23 1453.34 Q2371.43 1456.88 2371.43 1464.01 Q2371.43 1471.12 2373.23 1474.69 Q2375.06 1478.23 2378.67 1478.23 Q2382.31 1478.23 2384.11 1474.69 Q2385.94 1471.12 2385.94 1464.01 Q2385.94 1456.88 2384.11 1453.34 Q2382.31 1449.78 2378.67 1449.78 M2378.67 1446.07 Q2384.48 1446.07 2387.54 1450.68 Q2390.62 1455.26 2390.62 1464.01 Q2390.62 1472.74 2387.54 1477.35 Q2384.48 1481.93 2378.67 1481.93 Q2372.86 1481.93 2369.78 1477.35 Q2366.73 1472.74 2366.73 1464.01 Q2366.73 1455.26 2369.78 1450.68 Q2372.86 1446.07 2378.67 1446.07 Z" fill="#000000" fill-rule="evenodd" fill-opacity="1" /><path clip-path="url(#clip400)" d="M2403.83 1455.03 Q2401.8 1455.03 2400.62 1456.24 Q2399.44 1457.46 2399.44 1459.57 Q2399.44 1461.65 2400.62 1462.86 Q2401.8 1464.08 2403.83 1464.08 Q2405.85 1464.08 2407.03 1462.86 Q2408.21 1461.65 2408.21 1459.57 Q2408.21 1457.46 2407.03 1456.24 Q2405.85 1455.03 2403.83 1455.03 M2409.81 1446.84 L2409.81 1449.22 Q2408.67 1448.76 2407.51 1448.53 Q2406.36 1448.27 2405.22 1448.27 Q2402.26 1448.27 2400.69 1450.01 Q2399.11 1451.77 2398.88 1455.31 Q2399.76 1454.18 2401.08 1453.57 Q2402.42 1452.97 2404 1452.97 Q2407.35 1452.97 2409.3 1454.73 Q2411.24 1456.51 2411.24 1459.57 Q2411.24 1462.51 2409.2 1464.34 Q2407.19 1466.14 2403.83 1466.14 Q2399.97 1466.14 2397.93 1463.57 Q2395.89 1461.01 2395.89 1456.1 Q2395.89 1451.51 2398.39 1448.81 Q2400.89 1446.07 2405.11 1446.07 Q2406.24 1446.07 2407.4 1446.26 Q2408.56 1446.47 2409.81 1446.84 Z" fill="#000000" fill-rule="evenodd" fill-opacity="1" /><path clip-path="url(#clip400)" d="M1108.44 1517.07 L1115.46 1517.07 L1115.46 1568.91 L1108.44 1568.91 L1108.44 1517.07 Z" fill="#000000" fill-rule="evenodd" fill-opacity="1" /><path clip-path="url(#clip400)" d="M1135.46 1518.98 L1135.46 1530.02 L1148.62 1530.02 L1148.62 1534.98 L1135.46 1534.98 L1135.46 1556.1 Q1135.46 1560.85 1136.74 1562.21 Q1138.06 1563.56 1142.05 1563.56 L1148.62 1563.56 L1148.62 1568.91 L1142.05 1568.91 Q1134.66 1568.91 1131.85 1566.16 Q1129.03 1563.39 1129.03 1556.1 L1129.03 1534.98 L1124.35 1534.98 L1124.35 1530.02 L1129.03 1530.02 L1129.03 1518.98 L1135.46 1518.98 Z" fill="#000000" fill-rule="evenodd" fill-opacity="1" /><path clip-path="url(#clip400)" d="M1190.28 1547.87 L1190.28 1550.99 L1160.91 1550.99 Q1161.32 1557.59 1164.87 1561.06 Q1168.44 1564.5 1174.8 1564.5 Q1178.48 1564.5 1181.91 1563.6 Q1185.39 1562.69 1188.79 1560.89 L1188.79 1566.93 Q1185.35 1568.39 1181.74 1569.15 Q1178.13 1569.91 1174.41 1569.91 Q1165.11 1569.91 1159.66 1564.5 Q1154.24 1559.08 1154.24 1549.85 Q1154.24 1540.3 1159.38 1534.71 Q1164.55 1529.08 1173.3 1529.08 Q1181.15 1529.08 1185.7 1534.15 Q1190.28 1539.19 1190.28 1547.87 M1183.89 1545.99 Q1183.82 1540.75 1180.94 1537.62 Q1178.1 1534.5 1173.37 1534.5 Q1168.03 1534.5 1164.8 1537.52 Q1161.6 1540.54 1161.12 1546.03 L1183.89 1545.99 Z" fill="#000000" fill-rule="evenodd" fill-opacity="1" /><path clip-path="url(#clip400)" d="M1223.3 1535.99 Q1222.23 1535.37 1220.94 1535.09 Q1219.69 1534.78 1218.16 1534.78 Q1212.75 1534.78 1209.83 1538.32 Q1206.95 1541.82 1206.95 1548.42 L1206.95 1568.91 L1200.53 1568.91 L1200.53 1530.02 L1206.95 1530.02 L1206.95 1536.06 Q1208.96 1532.52 1212.19 1530.82 Q1215.42 1529.08 1220.04 1529.08 Q1220.7 1529.08 1221.5 1529.19 Q1222.3 1529.26 1223.27 1529.43 L1223.3 1535.99 Z" fill="#000000" fill-rule="evenodd" fill-opacity="1" /><path clip-path="url(#clip400)" d="M1247.68 1549.36 Q1239.94 1549.36 1236.95 1551.13 Q1233.96 1552.9 1233.96 1557.17 Q1233.96 1560.57 1236.19 1562.59 Q1238.44 1564.57 1242.3 1564.57 Q1247.61 1564.57 1250.8 1560.82 Q1254.03 1557.03 1254.03 1550.78 L1254.03 1549.36 L1247.68 1549.36 M1260.42 1546.72 L1260.42 1568.91 L1254.03 1568.91 L1254.03 1563.01 Q1251.85 1566.55 1248.58 1568.25 Q1245.32 1569.91 1240.6 1569.91 Q1234.62 1569.91 1231.08 1566.58 Q1227.57 1563.21 1227.57 1557.59 Q1227.57 1551.03 1231.95 1547.69 Q1236.36 1544.36 1245.07 1544.36 L1254.03 1544.36 L1254.03 1543.73 Q1254.03 1539.32 1251.12 1536.93 Q1248.23 1534.5 1242.99 1534.5 Q1239.66 1534.5 1236.5 1535.3 Q1233.34 1536.1 1230.42 1537.69 L1230.42 1531.79 Q1233.93 1530.44 1237.23 1529.78 Q1240.53 1529.08 1243.65 1529.08 Q1252.09 1529.08 1256.25 1533.46 Q1260.42 1537.83 1260.42 1546.72 Z" fill="#000000" fill-rule="evenodd" fill-opacity="1" /><path clip-path="url(#clip400)" d="M1279.9 1518.98 L1279.9 1530.02 L1293.06 1530.02 L1293.06 1534.98 L1279.9 1534.98 L1279.9 1556.1 Q1279.9 1560.85 1281.19 1562.21 Q1282.5 1563.56 1286.5 1563.56 L1293.06 1563.56 L1293.06 1568.91 L1286.5 1568.91 Q1279.1 1568.91 1276.29 1566.16 Q1273.48 1563.39 1273.48 1556.1 L1273.48 1534.98 L1268.79 1534.98 L1268.79 1530.02 L1273.48 1530.02 L1273.48 1518.98 L1279.9 1518.98 Z" fill="#000000" fill-rule="evenodd" fill-opacity="1" /><path clip-path="url(#clip400)" d="M1301.46 1530.02 L1307.85 1530.02 L1307.85 1568.91 L1301.46 1568.91 L1301.46 1530.02 M1301.46 1514.88 L1307.85 1514.88 L1307.85 1522.97 L1301.46 1522.97 L1301.46 1514.88 Z" fill="#000000" fill-rule="evenodd" fill-opacity="1" /><path clip-path="url(#clip400)" d="M1336.29 1534.5 Q1331.15 1534.5 1328.16 1538.53 Q1325.18 1542.52 1325.18 1549.5 Q1325.18 1556.48 1328.13 1560.51 Q1331.12 1564.5 1336.29 1564.5 Q1341.39 1564.5 1344.38 1560.47 Q1347.37 1556.44 1347.37 1549.5 Q1347.37 1542.59 1344.38 1538.56 Q1341.39 1534.5 1336.29 1534.5 M1336.29 1529.08 Q1344.62 1529.08 1349.38 1534.5 Q1354.14 1539.91 1354.14 1549.5 Q1354.14 1559.05 1349.38 1564.5 Q1344.62 1569.91 1336.29 1569.91 Q1327.92 1569.91 1323.16 1564.5 Q1318.44 1559.05 1318.44 1549.5 Q1318.44 1539.91 1323.16 1534.5 Q1327.92 1529.08 1336.29 1529.08 Z" fill="#000000" fill-rule="evenodd" fill-opacity="1" /><path clip-path="url(#clip400)" d="M1397.05 1545.44 L1397.05 1568.91 L1390.66 1568.91 L1390.66 1545.64 Q1390.66 1540.12 1388.51 1537.38 Q1386.36 1534.64 1382.05 1534.64 Q1376.88 1534.64 1373.89 1537.94 Q1370.91 1541.23 1370.91 1546.93 L1370.91 1568.91 L1364.48 1568.91 L1364.48 1530.02 L1370.91 1530.02 L1370.91 1536.06 Q1373.2 1532.55 1376.29 1530.82 Q1379.41 1529.08 1383.48 1529.08 Q1390.18 1529.08 1393.62 1533.25 Q1397.05 1537.38 1397.05 1545.44 Z" fill="#000000" fill-rule="evenodd" fill-opacity="1" /><path clip-path="url(#clip400)" d="M1434.59 1531.16 L1434.59 1537.21 Q1431.88 1535.82 1428.96 1535.12 Q1426.05 1534.43 1422.92 1534.43 Q1418.16 1534.43 1415.77 1535.89 Q1413.41 1537.35 1413.41 1540.26 Q1413.41 1542.48 1415.11 1543.77 Q1416.81 1545.02 1421.95 1546.16 L1424.14 1546.65 Q1430.94 1548.11 1433.79 1550.78 Q1436.67 1553.42 1436.67 1558.18 Q1436.67 1563.6 1432.36 1566.76 Q1428.09 1569.91 1420.59 1569.91 Q1417.47 1569.91 1414.07 1569.29 Q1410.7 1568.7 1406.95 1567.48 L1406.95 1560.89 Q1410.49 1562.73 1413.93 1563.66 Q1417.37 1564.57 1420.73 1564.57 Q1425.25 1564.57 1427.68 1563.04 Q1430.11 1561.48 1430.11 1558.66 Q1430.11 1556.06 1428.34 1554.67 Q1426.6 1553.28 1420.66 1552 L1418.44 1551.48 Q1412.5 1550.23 1409.87 1547.66 Q1407.23 1545.05 1407.23 1540.54 Q1407.23 1535.05 1411.12 1532.07 Q1415 1529.08 1422.16 1529.08 Q1425.7 1529.08 1428.82 1529.6 Q1431.95 1530.12 1434.59 1531.16 Z" fill="#000000" fill-rule="evenodd" fill-opacity="1" /><polyline clip-path="url(#clip402)" style="stroke:#000000; stroke-linecap:round; stroke-linejoin:round; stroke-width:2; stroke-opacity:0.1; fill:none" points="
  192.358,1343.31 2352.76,1343.31 
  "/>
<polyline clip-path="url(#clip402)" style="stroke:#000000; stroke-linecap:round; stroke-linejoin:round; stroke-width:2; stroke-opacity:0.1; fill:none" points="
  192.358,947.138 2352.76,947.138 
  "/>
<polyline clip-path="url(#clip402)" style="stroke:#000000; stroke-linecap:round; stroke-linejoin:round; stroke-width:2; stroke-opacity:0.1; fill:none" points="
  192.358,550.966 2352.76,550.966 
  "/>
<polyline clip-path="url(#clip402)" style="stroke:#000000; stroke-linecap:round; stroke-linejoin:round; stroke-width:2; stroke-opacity:0.1; fill:none" points="
  192.358,154.794 2352.76,154.794 
  "/>
<polyline clip-path="url(#clip400)" style="stroke:#000000; stroke-linecap:round; stroke-linejoin:round; stroke-width:4; stroke-opacity:1; fill:none" points="
  192.358,1418.86 192.358,47.2441 
  "/>
<polyline clip-path="url(#clip400)" style="stroke:#000000; stroke-linecap:round; stroke-linejoin:round; stroke-width:4; stroke-opacity:1; fill:none" points="
  192.358,1343.31 211.255,1343.31 
  "/>
<polyline clip-path="url(#clip400)" style="stroke:#000000; stroke-linecap:round; stroke-linejoin:round; stroke-width:4; stroke-opacity:1; fill:none" points="
  192.358,947.138 211.255,947.138 
  "/>
<polyline clip-path="url(#clip400)" style="stroke:#000000; stroke-linecap:round; stroke-linejoin:round; stroke-width:4; stroke-opacity:1; fill:none" points="
  192.358,550.966 211.255,550.966 
  "/>
<polyline clip-path="url(#clip400)" style="stroke:#000000; stroke-linecap:round; stroke-linejoin:round; stroke-width:4; stroke-opacity:1; fill:none" points="
  192.358,154.794 211.255,154.794 
  "/>
<path clip-path="url(#clip400)" d="M126.497 1363.33 L137.955 1363.33 L137.955 1323.78 L125.49 1326.28 L125.49 1319.89 L137.886 1317.39 L144.899 1317.39 L144.899 1363.33 L156.358 1363.33 L156.358 1369.23 L126.497 1369.23 L126.497 1363.33 Z" fill="#000000" fill-rule="evenodd" fill-opacity="1" /><path clip-path="url(#clip400)" d="M131.879 967.155 L156.358 967.155 L156.358 973.058 L123.441 973.058 L123.441 967.155 Q127.434 963.023 134.309 956.079 Q141.219 949.1 142.99 947.086 Q146.358 943.301 147.677 940.697 Q149.031 938.058 149.031 935.523 Q149.031 931.391 146.115 928.787 Q143.233 926.183 138.58 926.183 Q135.281 926.183 131.601 927.329 Q127.955 928.475 123.788 930.801 L123.788 923.718 Q128.025 922.016 131.705 921.148 Q135.386 920.28 138.441 920.28 Q146.497 920.28 151.288 924.308 Q156.08 928.336 156.08 935.072 Q156.08 938.266 154.865 941.148 Q153.684 943.995 150.524 947.884 Q149.656 948.891 145.004 953.718 Q140.351 958.509 131.879 967.155 Z" fill="#000000" fill-rule="evenodd" fill-opacity="1" /><path clip-path="url(#clip400)" d="M145.663 548.935 Q150.698 550.011 153.511 553.414 Q156.358 556.817 156.358 561.817 Q156.358 569.49 151.08 573.692 Q145.802 577.893 136.08 577.893 Q132.816 577.893 129.344 577.233 Q125.907 576.608 122.226 575.323 L122.226 568.553 Q125.143 570.254 128.615 571.122 Q132.087 571.99 135.872 571.99 Q142.469 571.99 145.906 569.386 Q149.379 566.782 149.379 561.817 Q149.379 557.233 146.149 554.664 Q142.955 552.06 137.226 552.06 L131.184 552.06 L131.184 546.296 L137.504 546.296 Q142.677 546.296 145.42 544.247 Q148.163 542.164 148.163 538.275 Q148.163 534.282 145.316 532.164 Q142.504 530.011 137.226 530.011 Q134.344 530.011 131.045 530.636 Q127.747 531.261 123.788 532.581 L123.788 526.331 Q127.781 525.22 131.254 524.664 Q134.761 524.108 137.851 524.108 Q145.837 524.108 150.49 527.754 Q155.142 531.365 155.142 537.546 Q155.142 541.851 152.677 544.838 Q150.212 547.789 145.663 548.935 Z" fill="#000000" fill-rule="evenodd" fill-opacity="1" /><path clip-path="url(#clip400)" d="M141.983 134.985 L124.275 162.659 L141.983 162.659 L141.983 134.985 M140.143 128.874 L148.962 128.874 L148.962 162.659 L156.358 162.659 L156.358 168.492 L148.962 168.492 L148.962 180.714 L141.983 180.714 L141.983 168.492 L118.58 168.492 L118.58 161.721 L140.143 128.874 Z" fill="#000000" fill-rule="evenodd" fill-opacity="1" /><path clip-path="url(#clip400)" d="M22.0978 1004.75 L47.8963 1014.27 L47.8963 995.203 L22.0978 1004.75 M15.1882 1008.71 L15.1882 1000.76 L67.0282 981.002 L67.0282 988.294 L53.7296 993.016 L53.7296 1016.38 L67.0282 1021.11 L67.0282 1028.5 L15.1882 1008.71 Z" fill="#000000" fill-rule="evenodd" fill-opacity="1" /><path clip-path="url(#clip400)" d="M28.1395 982.46 L28.1395 975.69 L60.7782 963.537 L28.1395 951.384 L28.1395 944.613 L67.0282 959.197 L67.0282 967.877 L28.1395 982.46 Z" fill="#000000" fill-rule="evenodd" fill-opacity="1" /><path clip-path="url(#clip400)" d="M45.9866 902.53 L49.1116 902.53 L49.1116 931.905 Q55.7088 931.488 59.181 927.947 Q62.6185 924.37 62.6185 918.016 Q62.6185 914.336 61.7157 910.898 Q60.8129 907.426 59.0074 904.023 L65.049 904.023 Q66.5073 907.461 67.2712 911.072 Q68.0351 914.683 68.0351 918.398 Q68.0351 927.704 62.6185 933.155 Q57.2018 938.572 47.9658 938.572 Q38.4172 938.572 32.827 933.433 Q27.202 928.259 27.202 919.509 Q27.202 911.662 32.2714 907.114 Q37.3061 902.53 45.9866 902.53 M44.1116 908.919 Q38.8686 908.989 35.7436 911.87 Q32.6186 914.718 32.6186 919.44 Q32.6186 924.787 35.6394 928.016 Q38.6603 931.211 44.1463 931.697 L44.1116 908.919 Z" fill="#000000" fill-rule="evenodd" fill-opacity="1" /><path clip-path="url(#clip400)" d="M34.1117 869.51 Q33.4867 870.586 33.2089 871.871 Q32.8964 873.121 32.8964 874.648 Q32.8964 880.065 36.438 882.982 Q39.945 885.864 46.5422 885.864 L67.0282 885.864 L67.0282 892.287 L28.1395 892.287 L28.1395 885.864 L34.1811 885.864 Q30.6395 883.85 28.9381 880.621 Q27.202 877.391 27.202 872.773 Q27.202 872.114 27.3061 871.315 Q27.3756 870.517 27.5492 869.544 L34.1117 869.51 Z" fill="#000000" fill-rule="evenodd" fill-opacity="1" /><path clip-path="url(#clip400)" d="M47.4797 845.135 Q47.4797 852.878 49.2505 855.864 Q51.0213 858.85 55.2921 858.85 Q58.6949 858.85 60.7087 856.628 Q62.6879 854.371 62.6879 850.517 Q62.6879 845.204 58.9379 842.01 Q55.1532 838.781 48.9033 838.781 L47.4797 838.781 L47.4797 845.135 M44.8408 832.392 L67.0282 832.392 L67.0282 838.781 L61.1254 838.781 Q64.6671 840.968 66.3684 844.232 Q68.0351 847.496 68.0351 852.218 Q68.0351 858.19 64.7018 861.732 Q61.3337 865.239 55.7088 865.239 Q49.1463 865.239 45.813 860.864 Q42.4797 856.454 42.4797 847.739 L42.4797 838.781 L41.8547 838.781 Q37.445 838.781 35.0492 841.697 Q32.6186 844.579 32.6186 849.822 Q32.6186 853.155 33.4172 856.315 Q34.2158 859.475 35.813 862.392 L29.9103 862.392 Q28.5561 858.885 27.8964 855.586 Q27.202 852.287 27.202 849.162 Q27.202 840.725 31.577 836.558 Q35.9519 832.392 44.8408 832.392 Z" fill="#000000" fill-rule="evenodd" fill-opacity="1" /><path clip-path="url(#clip400)" d="M47.1324 793.642 Q40.188 793.642 36.3686 796.524 Q32.5492 799.371 32.5492 804.545 Q32.5492 809.684 36.3686 812.565 Q40.188 815.413 47.1324 815.413 Q54.0421 815.413 57.8615 812.565 Q61.681 809.684 61.681 804.545 Q61.681 799.371 57.8615 796.524 Q54.0421 793.642 47.1324 793.642 M62.2018 787.253 Q72.1323 787.253 76.9587 791.663 Q81.8197 796.072 81.8197 805.17 Q81.8197 808.538 81.2989 811.524 Q80.8128 814.51 79.7711 817.322 L73.5559 817.322 Q75.0837 814.51 75.8128 811.767 Q76.542 809.024 76.542 806.177 Q76.542 799.892 73.2434 796.767 Q69.9795 793.642 63.3476 793.642 L60.1879 793.642 Q63.6254 795.621 65.3268 798.711 Q67.0282 801.802 67.0282 806.107 Q67.0282 813.26 61.5768 817.635 Q56.1254 822.01 47.1324 822.01 Q38.1047 822.01 32.6533 817.635 Q27.202 813.26 27.202 806.107 Q27.202 801.802 28.9034 798.711 Q30.6047 795.621 34.0422 793.642 L28.1395 793.642 L28.1395 787.253 L62.2018 787.253 Z" fill="#000000" fill-rule="evenodd" fill-opacity="1" /><path clip-path="url(#clip400)" d="M45.9866 740.83 L49.1116 740.83 L49.1116 770.205 Q55.7088 769.788 59.181 766.246 Q62.6185 762.67 62.6185 756.316 Q62.6185 752.635 61.7157 749.198 Q60.8129 745.726 59.0074 742.323 L65.049 742.323 Q66.5073 745.76 67.2712 749.371 Q68.0351 752.982 68.0351 756.698 Q68.0351 766.003 62.6185 771.455 Q57.2018 776.871 47.9658 776.871 Q38.4172 776.871 32.827 771.732 Q27.202 766.559 27.202 757.809 Q27.202 749.962 32.2714 745.413 Q37.3061 740.83 45.9866 740.83 M44.1116 747.219 Q38.8686 747.288 35.7436 750.17 Q32.6186 753.017 32.6186 757.739 Q32.6186 763.087 35.6394 766.316 Q38.6603 769.51 44.1463 769.996 L44.1116 747.219 Z" fill="#000000" fill-rule="evenodd" fill-opacity="1" /><path clip-path="url(#clip400)" d="M67.0282 694.094 L15.1882 713.885 L15.1882 706.559 L58.8338 690.136 L15.1882 673.677 L15.1882 666.386 L67.0282 686.142 L67.0282 694.094 Z" fill="#000000" fill-rule="evenodd" fill-opacity="1" /><path clip-path="url(#clip400)" d="M45.9866 631.351 L49.1116 631.351 L49.1116 660.726 Q55.7088 660.309 59.181 656.768 Q62.6185 653.191 62.6185 646.837 Q62.6185 643.157 61.7157 639.719 Q60.8129 636.247 59.0074 632.844 L65.049 632.844 Q66.5073 636.282 67.2712 639.893 Q68.0351 643.504 68.0351 647.219 Q68.0351 656.525 62.6185 661.976 Q57.2018 667.393 47.9658 667.393 Q38.4172 667.393 32.827 662.254 Q27.202 657.08 27.202 648.33 Q27.202 640.483 32.2714 635.934 Q37.3061 631.351 45.9866 631.351 M44.1116 637.74 Q38.8686 637.809 35.7436 640.691 Q32.6186 643.539 32.6186 648.261 Q32.6186 653.608 35.6394 656.837 Q38.6603 660.032 44.1463 660.518 L44.1116 637.74 Z" fill="#000000" fill-rule="evenodd" fill-opacity="1" /><path clip-path="url(#clip400)" d="M13.0007 620.865 L13.0007 614.476 L67.0282 614.476 L67.0282 620.865 L13.0007 620.865 Z" fill="#000000" fill-rule="evenodd" fill-opacity="1" /><path clip-path="url(#clip400)" d="M32.6186 586.039 Q32.6186 591.178 36.6464 594.164 Q40.6394 597.15 47.6185 597.15 Q54.5977 597.15 58.6254 594.199 Q62.6185 591.212 62.6185 586.039 Q62.6185 580.935 58.5907 577.949 Q54.5629 574.963 47.6185 574.963 Q40.7089 574.963 36.6811 577.949 Q32.6186 580.935 32.6186 586.039 M27.202 586.039 Q27.202 577.706 32.6186 572.949 Q38.0353 568.192 47.6185 568.192 Q57.1671 568.192 62.6185 572.949 Q68.0351 577.706 68.0351 586.039 Q68.0351 594.407 62.6185 599.164 Q57.1671 603.886 47.6185 603.886 Q38.0353 603.886 32.6186 599.164 Q27.202 594.407 27.202 586.039 Z" fill="#000000" fill-rule="evenodd" fill-opacity="1" /><path clip-path="url(#clip400)" d="M29.6325 529.616 L35.6047 529.616 Q34.1117 532.324 33.3825 535.067 Q32.6186 537.775 32.6186 540.553 Q32.6186 546.768 36.5769 550.206 Q40.5005 553.643 47.6185 553.643 Q54.7366 553.643 58.6949 550.206 Q62.6185 546.768 62.6185 540.553 Q62.6185 537.775 61.8893 535.067 Q61.1254 532.324 59.6324 529.616 L65.5351 529.616 Q66.7851 532.289 67.4101 535.171 Q68.0351 538.018 68.0351 541.247 Q68.0351 550.032 62.5143 555.206 Q56.9935 560.379 47.6185 560.379 Q38.1047 560.379 32.6533 555.171 Q27.202 549.928 27.202 540.831 Q27.202 537.879 27.827 535.067 Q28.4173 532.254 29.6325 529.616 Z" fill="#000000" fill-rule="evenodd" fill-opacity="1" /><path clip-path="url(#clip400)" d="M28.1395 518.505 L28.1395 512.116 L67.0282 512.116 L67.0282 518.505 L28.1395 518.505 M13.0007 518.505 L13.0007 512.116 L21.0909 512.116 L21.0909 518.505 L13.0007 518.505 Z" fill="#000000" fill-rule="evenodd" fill-opacity="1" /><path clip-path="url(#clip400)" d="M17.0979 492.428 L28.1395 492.428 L28.1395 479.269 L33.1047 479.269 L33.1047 492.428 L54.2157 492.428 Q58.9726 492.428 60.3268 491.144 Q61.681 489.824 61.681 485.831 L61.681 479.269 L67.0282 479.269 L67.0282 485.831 Q67.0282 493.227 64.2851 496.039 Q61.5074 498.852 54.2157 498.852 L33.1047 498.852 L33.1047 503.539 L28.1395 503.539 L28.1395 498.852 L17.0979 498.852 L17.0979 492.428 Z" fill="#000000" fill-rule="evenodd" fill-opacity="1" /><path clip-path="url(#clip400)" d="M70.6392 454.685 Q77.5837 457.394 79.7017 459.963 Q81.8197 462.533 81.8197 466.838 L81.8197 471.942 L76.4726 471.942 L76.4726 468.192 Q76.4726 465.553 75.2226 464.095 Q73.9726 462.637 69.3198 460.866 L66.4032 459.72 L28.1395 475.449 L28.1395 468.678 L58.556 456.526 L28.1395 444.373 L28.1395 437.602 L70.6392 454.685 Z" fill="#000000" fill-rule="evenodd" fill-opacity="1" /><polyline clip-path="url(#clip402)" style="stroke:#009af9; stroke-linecap:round; stroke-linejoin:round; stroke-width:4; stroke-opacity:1; fill:none" points="
  789.846,826.938 794.954,1343.65 
  "/>
<polyline clip-path="url(#clip402)" style="stroke:#009af9; stroke-linecap:round; stroke-linejoin:round; stroke-width:4; stroke-opacity:1; fill:none" points="
  805.17,1279.43 810.278,1380.04 815.386,1118.31 820.494,1196.01 825.603,1046.86 830.711,1318.78 835.819,1153.63 840.927,1134.58 846.035,1019.18 851.143,1075.5 
  856.251,1111.29 861.359,1064.32 866.467,1028.56 871.575,982.183 876.683,1037.71 881.791,967 886.899,1005.63 892.007,950.502 897.115,972.826 902.223,964.656 
  907.331,943.662 912.439,923.672 917.547,903.199 922.655,908.067 927.764,872.914 932.872,878.868 937.98,883.482 943.088,842.039 948.196,821.026 953.304,830.915 
  958.412,797.332 963.52,822.703 968.628,821.074 973.736,806.671 978.844,818.345 983.952,775.847 989.06,786.3 994.168,772.261 999.276,748.321 1004.38,747.012 
  1009.49,769.627 1014.6,750.549 1019.71,730.646 1024.82,751.997 1029.92,737.656 1035.03,765.142 1040.14,698.583 1045.25,738.181 1050.36,744.477 1055.46,753.585 
  1060.57,751.561 1065.68,724.65 1070.79,755.315 1075.9,731.178 1081,719.129 1086.11,717.673 1091.22,716.769 1096.33,719.766 1101.44,745.349 1106.55,724.842 
  1111.65,703.24 1116.76,714.452 1121.87,733.344 1126.98,744.282 1132.09,731.837 1137.19,732.961 1142.3,726.011 1147.41,724.431 1152.52,712.407 1157.63,713.698 
  1162.73,707.71 1167.84,701.564 1172.95,705.405 1178.06,693.346 1183.17,687.128 1188.27,687.179 1193.38,680.863 1198.49,696.911 1203.6,706.479 1208.71,707.448 
  1213.81,704.923 1218.92,714.469 1224.03,730.508 1229.14,725.2 1234.25,717.061 1239.35,722.381 1244.46,708.502 1249.57,700.826 1254.68,692.477 1259.79,680.98 
  1264.89,682.976 1270,697.711 1275.11,701.121 1280.22,669.418 1285.33,711.467 1290.43,698.563 1295.54,701.417 1300.65,703.694 1305.76,701.121 1310.87,686.396 
  1315.98,703.584 1321.08,715.794 1326.19,702.571 1331.3,717.138 1336.41,738.909 1341.52,681.958 1346.62,687.82 1351.73,696.507 1356.84,669.534 1361.95,681.272 
  1367.06,670.321 1372.16,691.695 1377.27,693.282 1382.38,695.986 1387.49,688.341 1392.6,688.018 1397.7,693.361 1402.81,711.036 1407.92,704.486 1413.03,672.303 
  1418.14,712.783 1423.24,725.308 1428.35,702.703 1433.46,720.166 1438.57,690.535 1443.68,681.187 1448.78,712.137 1453.89,706.824 1459,703.727 1464.11,700.739 
  1469.22,720.009 1474.32,692.591 1479.43,695.673 1484.54,682.025 1489.65,682.617 1494.76,688.026 1499.86,688.606 1504.97,691.9 1510.08,656.023 1515.19,675.308 
  1520.3,674.566 1525.41,693.93 1530.51,694.676 1535.62,712.284 1540.73,684.426 1545.84,671.629 1550.95,654.257 1556.05,655.206 1561.16,653.996 1566.27,663.106 
  1571.38,681.542 1576.49,684.597 1581.59,696.038 1586.7,686.257 1591.81,661.218 1596.92,680.692 1602.03,667.538 1607.13,667.302 1612.24,692.673 1617.35,684.974 
  1622.46,665.285 1627.57,671.368 1632.67,678.225 1637.78,682.387 1642.89,707.122 1648,669.91 1653.11,673.827 1658.21,654.402 1663.32,651.37 1668.43,640.839 
  1673.54,668.491 1678.65,673.986 1683.75,674.03 1688.86,670.406 1693.97,674.197 1699.08,672.881 1704.19,681.495 1709.29,669.04 1714.4,693.178 1719.51,717.428 
  1724.62,695.865 1729.73,661.608 1734.84,655.436 1739.94,664.239 1745.05,679.024 1750.16,677.255 1755.27,668.315 1760.38,674.368 1765.48,662.831 1770.59,646.368 
  1775.7,675.076 1780.81,691.394 1785.92,692.339 1791.02,696.151 1796.13,696.701 1801.24,708.708 1806.35,703.141 1811.46,690.734 1816.56,699.643 1821.67,707.71 
  1826.78,683.31 1831.89,677.705 1837,716.662 1842.1,696.648 1847.21,684.125 1852.32,694.516 1857.43,707.482 1862.54,693.118 1867.64,695.75 1872.75,698.145 
  1877.86,702.364 1882.97,717.081 1888.08,714.17 1893.18,728.317 1898.29,721.499 1903.4,714.469 1908.51,679.555 1913.62,689.765 1918.72,682.227 1923.83,676.848 
  1928.94,677.761 1934.05,700.178 1939.16,675.516 1944.27,688.361 1949.37,678.769 1954.48,703.01 1959.59,656.371 1964.7,664.528 1969.81,678.552 1974.91,712.11 
  1980.02,703.696 1985.13,706.987 1990.24,700.639 1995.35,703.353 2000.45,711.752 2005.56,681.314 2010.67,690.223 2015.78,677.774 2020.89,695.971 2025.99,700.494 
  2031.1,678.479 2036.21,678.783 2041.32,684.87 2046.43,705.202 2051.53,687.598 2056.64,678.867 2061.75,699.838 2066.86,692.977 2071.97,706.796 2077.07,699.051 
  2082.18,695.861 2087.29,688.542 2092.4,683.701 2097.51,663.051 2102.61,661.547 2107.72,678.388 2112.83,693.121 2117.94,710.427 2123.05,687.46 2128.15,667.084 
  2133.26,683.462 2138.37,672.223 2143.48,688.607 2148.59,678.821 2153.7,685.431 2158.8,706.055 2163.91,689.301 2169.02,684.223 2174.13,695.604 2179.24,674.742 
  2184.34,673.176 2189.45,697.194 2194.56,698.711 2199.67,735.507 2204.78,727.201 2209.88,716.964 2214.99,697.975 2220.1,682.418 2225.21,716.082 2230.32,695.094 
  2235.42,728.351 2240.53,714.183 2245.64,698.468 2250.75,700.014 2255.86,713.684 2260.96,705.399 2266.07,703.315 2271.18,703.491 2276.29,729.031 2281.4,726.969 
  2286.5,717.735 2291.61,712.376 
  "/>
<polyline clip-path="url(#clip402)" style="stroke:#ffa500; stroke-linecap:round; stroke-linejoin:round; stroke-width:4; stroke-opacity:1; fill:none" points="
  253.501,629.329 258.609,601.849 263.717,558.348 268.825,536.108 273.933,520.958 279.041,506.86 284.149,502.346 289.257,470.807 294.365,478.148 299.474,477.583 
  304.582,476.34 309.69,455.874 314.798,448.355 319.906,442.673 325.014,425.331 330.122,411.609 335.23,415.687 340.338,414.243 345.446,405.002 350.554,395.158 
  355.662,405.593 360.77,393.944 365.878,409.256 370.986,382.914 376.094,384.365 381.202,385.683 386.31,380.495 391.418,408.909 396.526,380.371 401.634,368.974 
  406.743,392.769 411.851,372.647 416.959,366.831 422.067,377.437 427.175,410.358 432.283,360.716 437.391,382.491 442.499,338.962 447.607,381.058 452.715,403.078 
  457.823,384.542 462.931,405.281 468.039,423.838 473.147,347.164 478.255,346.969 483.363,399.284 488.471,318.373 493.579,338.695 498.687,319.412 503.795,311.323 
  508.904,307.467 514.012,294.808 519.12,324.194 524.228,345.563 529.336,341.725 534.444,386.933 539.552,298.118 544.66,278.606 549.768,286.16 554.876,308.558 
  559.984,366.365 565.092,277.463 570.2,283.994 575.308,296.274 580.416,315.374 585.524,314.947 590.632,316.831 595.74,292.059 600.848,340.585 605.956,258.666 
  611.064,282.079 616.173,314.899 621.281,268.426 626.389,280.964 631.497,347.624 636.605,283.46 641.713,252.959 646.821,267.348 651.929,215.18 657.037,244.166 
  662.145,206.332 667.253,248.605 672.361,201.266 677.469,258.586 682.577,243.988 687.685,260.813 692.793,287.453 697.901,263.279 703.009,292.365 708.117,273.035 
  713.225,309.623 718.334,221.006 723.442,300.108 728.55,274.809 733.658,274.64 738.766,324.794 743.874,245.836 748.982,287.99 754.09,292.084 759.198,262.527 
  764.306,221.976 769.414,225.479 774.522,226.399 779.63,168.658 784.738,209.367 789.846,215.578 794.954,264.513 800.062,214.941 805.17,197.42 810.278,285.233 
  815.386,222.631 820.494,162.121 825.603,224.574 830.711,230.223 835.819,258.502 840.927,152.431 846.035,199.535 851.143,223.25 856.251,208.764 861.359,175.293 
  866.467,194.066 871.575,161.484 876.683,205.103 881.791,197.233 886.899,234.644 892.007,230.609 897.115,204.309 902.223,206.494 907.331,217.937 912.439,249.913 
  917.547,228.046 922.655,223.513 927.764,211.797 932.872,196.6 937.98,210.363 943.088,209.178 948.196,253.676 953.304,221.873 958.412,240.354 963.52,292.804 
  968.628,222.265 973.736,221.236 978.844,216.136 983.952,220.771 989.06,253.224 994.168,217.914 999.276,192.166 1004.38,254.644 1009.49,193.102 1014.6,200.897 
  1019.71,174.994 1024.82,183.169 1029.92,228.574 1035.03,235.529 1040.14,207.483 1045.25,245.675 1050.36,208.264 1055.46,214.842 1060.57,194.481 1065.68,196.62 
  1070.79,249.04 1075.9,243.72 1081,207.62 1086.11,180.57 1091.22,154.899 1096.33,179.168 1101.44,165.248 1106.55,162.061 1111.65,203.757 1116.76,176.02 
  1121.87,202.774 1126.98,234.29 1132.09,203.13 1137.19,178.314 1142.3,203.172 1147.41,257.132 1152.52,227.975 1157.63,214.548 1162.73,234.619 1167.84,260.643 
  1172.95,187.267 1178.06,202.858 1183.17,196.075 1188.27,200.607 1193.38,208.057 1198.49,199.496 1203.6,203.783 1208.71,183.77 1213.81,184.894 1218.92,187.504 
  1224.03,192.063 1229.14,213.175 1234.25,233 1239.35,178.942 1244.46,229.086 1249.57,238.469 1254.68,263.846 1259.79,204.324 1264.89,228.352 1270,234.781 
  1275.11,257.521 1280.22,194.91 1285.33,211.91 1290.43,153.687 1295.54,169.758 1300.65,182.29 1305.76,214.895 1310.87,161.108 1315.98,265.241 1321.08,242.968 
  1326.19,191.22 1331.3,214.923 1336.41,208.439 1341.52,225.02 1346.62,252.269 1351.73,268.192 1356.84,264.177 1361.95,237.344 1367.06,213.881 1372.16,211.745 
  1377.27,162.116 1382.38,124.357 1387.49,193.536 1392.6,243.529 1397.7,216.173 1402.81,219.334 1407.92,242.759 1413.03,228.977 1418.14,202.357 1423.24,215.312 
  1428.35,205.152 1433.46,189.764 1438.57,239.765 1443.68,288.812 1448.78,282.016 1453.89,206.463 1459,151.066 1464.11,207.682 1469.22,274.822 1474.32,197.082 
  1479.43,213.73 1484.54,194.891 1489.65,228.281 1494.76,191.311 1499.86,176.98 1504.97,160.057 1510.08,167.258 1515.19,189.785 1520.3,155.905 1525.41,209.359 
  1530.51,227.287 1535.62,212.785 1540.73,161.791 1545.84,205.214 1550.95,240.069 1556.05,179.283 1561.16,197.639 1566.27,160.054 1571.38,195.252 1576.49,124.535 
  1581.59,219.044 1586.7,186.39 1591.81,211.899 1596.92,161.871 1602.03,195.382 1607.13,230.568 1612.24,174.081 1617.35,146.44 1622.46,179.845 1627.57,200.216 
  1632.67,212.659 1637.78,221.645 1642.89,204.003 1648,208.974 1653.11,179.12 1658.21,230.675 1663.32,187.075 1668.43,177.312 1673.54,140.49 1678.65,196.925 
  1683.75,213.287 1688.86,241.977 1693.97,204.917 1699.08,208.45 1704.19,192.773 1709.29,177.978 1714.4,184.223 1719.51,180.334 1724.62,242.703 1729.73,168.292 
  1734.84,194.259 1739.94,120.439 1745.05,190.388 1750.16,156.348 1755.27,142.723 1760.38,244.693 1765.48,199.167 1770.59,151.042 1775.7,224.18 1780.81,172.541 
  1785.92,158.689 1791.02,174.339 1796.13,223.852 1801.24,177.695 1806.35,163.459 1811.46,177.172 1816.56,86.0634 1821.67,207.065 1826.78,190.541 1831.89,181.268 
  1837,183.626 1842.1,177.037 1847.21,158.964 1852.32,233.424 1857.43,196.546 1862.54,192.145 1867.64,175.644 1872.75,201.138 1877.86,186.909 1882.97,213.354 
  1888.08,147.594 1893.18,157.642 1898.29,165.9 1903.4,147.982 1908.51,193.48 1913.62,204.476 1918.72,198.923 1923.83,223.943 1928.94,203.189 1934.05,203.283 
  1939.16,255.298 1944.27,184.536 1949.37,193.211 1954.48,192.314 1959.59,184.071 1964.7,159.463 1969.81,175.728 1974.91,178.144 1980.02,173.876 1985.13,279.076 
  1990.24,153.24 1995.35,247.517 2000.45,215.85 2005.56,258.608 2010.67,173.372 2015.78,205.897 2020.89,274.286 2025.99,188.155 2031.1,191.804 2036.21,144.865 
  2041.32,195.202 2046.43,167.602 2051.53,235.659 2056.64,278.171 2061.75,210.841 2066.86,213.416 2071.97,232.543 2077.07,150.404 2082.18,218.516 2087.29,235.623 
  2092.4,304.167 2097.51,235.271 2102.61,228.038 2107.72,233.567 2112.83,214.685 2117.94,229.794 2123.05,291.58 2128.15,287.327 2133.26,159.714 2138.37,213.535 
  2143.48,183.568 2148.59,86.3609 2153.7,162.693 2158.8,180.741 2163.91,156.346 2169.02,229.639 2174.13,220.666 2179.24,299.836 2184.34,265.146 2189.45,298.708 
  2194.56,327.255 2199.67,229.521 2204.78,233.164 2209.88,329.77 2214.99,290.484 2220.1,259.819 2225.21,282.696 2230.32,261.833 2235.42,144.082 2240.53,248.223 
  2245.64,189.154 2250.75,202.961 2255.86,173.058 2260.96,189.528 2266.07,208.314 2271.18,203.636 2276.29,150.796 2281.4,137.571 2286.5,204.906 2291.61,122.771 
  
  "/>
<path clip-path="url(#clip400)" d="
M1689.6 1373.14 L2280.74 1373.14 L2280.74 1139.86 L1689.6 1139.86  Z
  " fill="#ffffff" fill-rule="evenodd" fill-opacity="1"/>
<polyline clip-path="url(#clip400)" style="stroke:#000000; stroke-linecap:round; stroke-linejoin:round; stroke-width:4; stroke-opacity:1; fill:none" points="
  1689.6,1373.14 2280.74,1373.14 2280.74,1139.86 1689.6,1139.86 1689.6,1373.14 
  "/>
<polyline clip-path="url(#clip400)" style="stroke:#009af9; stroke-linecap:round; stroke-linejoin:round; stroke-width:6; stroke-opacity:1; fill:none" points="
  1713.61,1217.62 1857.63,1217.62 
  "/>
<path clip-path="url(#clip400)" d="M1909.27 1205.8 L1909.27 1211.84 Q1906.57 1210.45 1903.65 1209.75 Q1900.73 1209.06 1897.61 1209.06 Q1892.85 1209.06 1890.46 1210.52 Q1888.09 1211.98 1888.09 1214.89 Q1888.09 1217.12 1889.8 1218.4 Q1891.5 1219.65 1896.64 1220.8 L1898.82 1221.28 Q1905.63 1222.74 1908.48 1225.41 Q1911.36 1228.05 1911.36 1232.81 Q1911.36 1238.23 1907.05 1241.39 Q1902.78 1244.55 1895.28 1244.55 Q1892.16 1244.55 1888.75 1243.92 Q1885.39 1243.33 1881.64 1242.12 L1881.64 1235.52 Q1885.18 1237.36 1888.62 1238.3 Q1892.05 1239.2 1895.42 1239.2 Q1899.93 1239.2 1902.37 1237.67 Q1904.8 1236.11 1904.8 1233.3 Q1904.8 1230.69 1903.02 1229.3 Q1901.29 1227.91 1895.35 1226.63 L1893.13 1226.11 Q1887.19 1224.86 1884.55 1222.29 Q1881.91 1219.69 1881.91 1215.17 Q1881.91 1209.69 1885.8 1206.7 Q1889.69 1203.71 1896.84 1203.71 Q1900.39 1203.71 1903.51 1204.23 Q1906.64 1204.75 1909.27 1205.8 Z" fill="#000000" fill-rule="evenodd" fill-opacity="1" /><path clip-path="url(#clip400)" d="M1921.53 1189.51 L1927.92 1189.51 L1927.92 1243.54 L1921.53 1243.54 L1921.53 1189.51 Z" fill="#000000" fill-rule="evenodd" fill-opacity="1" /><path clip-path="url(#clip400)" d="M1956.36 1209.13 Q1951.22 1209.13 1948.23 1213.16 Q1945.25 1217.15 1945.25 1224.13 Q1945.25 1231.11 1948.2 1235.14 Q1951.18 1239.13 1956.36 1239.13 Q1961.46 1239.13 1964.45 1235.1 Q1967.43 1231.07 1967.43 1224.13 Q1967.43 1217.22 1964.45 1213.19 Q1961.46 1209.13 1956.36 1209.13 M1956.36 1203.71 Q1964.69 1203.71 1969.45 1209.13 Q1974.21 1214.55 1974.21 1224.13 Q1974.21 1233.68 1969.45 1239.13 Q1964.69 1244.55 1956.36 1244.55 Q1947.99 1244.55 1943.23 1239.13 Q1938.51 1233.68 1938.51 1224.13 Q1938.51 1214.55 1943.23 1209.13 Q1947.99 1203.71 1956.36 1203.71 Z" fill="#000000" fill-rule="evenodd" fill-opacity="1" /><path clip-path="url(#clip400)" d="M1981.08 1204.65 L1987.47 1204.65 L1995.45 1235 L2003.41 1204.65 L2010.94 1204.65 L2018.93 1235 L2026.88 1204.65 L2033.27 1204.65 L2023.09 1243.54 L2015.56 1243.54 L2007.19 1211.66 L1998.79 1243.54 L1991.25 1243.54 L1981.08 1204.65 Z" fill="#000000" fill-rule="evenodd" fill-opacity="1" /><path clip-path="url(#clip400)" d="M2095.84 1212.12 Q2098.23 1207.81 2101.57 1205.76 Q2104.9 1203.71 2109.41 1203.71 Q2115.49 1203.71 2118.79 1207.98 Q2122.09 1212.22 2122.09 1220.07 L2122.09 1243.54 L2115.66 1243.54 L2115.66 1220.28 Q2115.66 1214.69 2113.68 1211.98 Q2111.7 1209.27 2107.64 1209.27 Q2102.68 1209.27 2099.79 1212.57 Q2096.91 1215.87 2096.91 1221.56 L2096.91 1243.54 L2090.49 1243.54 L2090.49 1220.28 Q2090.49 1214.65 2088.51 1211.98 Q2086.53 1209.27 2082.4 1209.27 Q2077.5 1209.27 2074.62 1212.6 Q2071.74 1215.9 2071.74 1221.56 L2071.74 1243.54 L2065.32 1243.54 L2065.32 1204.65 L2071.74 1204.65 L2071.74 1210.69 Q2073.93 1207.12 2076.98 1205.41 Q2080.04 1203.71 2084.24 1203.71 Q2088.48 1203.71 2091.43 1205.87 Q2094.41 1208.02 2095.84 1212.12 Z" fill="#000000" fill-rule="evenodd" fill-opacity="1" /><path clip-path="url(#clip400)" d="M2149.9 1209.13 Q2144.76 1209.13 2141.77 1213.16 Q2138.79 1217.15 2138.79 1224.13 Q2138.79 1231.11 2141.74 1235.14 Q2144.72 1239.13 2149.9 1239.13 Q2155 1239.13 2157.99 1235.1 Q2160.97 1231.07 2160.97 1224.13 Q2160.97 1217.22 2157.99 1213.19 Q2155 1209.13 2149.9 1209.13 M2149.9 1203.71 Q2158.23 1203.71 2162.99 1209.13 Q2167.75 1214.55 2167.75 1224.13 Q2167.75 1233.68 2162.99 1239.13 Q2158.23 1244.55 2149.9 1244.55 Q2141.53 1244.55 2136.77 1239.13 Q2132.05 1233.68 2132.05 1224.13 Q2132.05 1214.55 2136.77 1209.13 Q2141.53 1203.71 2149.9 1203.71 Z" fill="#000000" fill-rule="evenodd" fill-opacity="1" /><path clip-path="url(#clip400)" d="M2203.93 1210.55 L2203.93 1189.51 L2210.31 1189.51 L2210.31 1243.54 L2203.93 1243.54 L2203.93 1237.71 Q2201.91 1241.18 2198.82 1242.88 Q2195.77 1244.55 2191.46 1244.55 Q2184.41 1244.55 2179.97 1238.92 Q2175.56 1233.3 2175.56 1224.13 Q2175.56 1214.96 2179.97 1209.34 Q2184.41 1203.71 2191.46 1203.71 Q2195.77 1203.71 2198.82 1205.41 Q2201.91 1207.08 2203.93 1210.55 M2182.16 1224.13 Q2182.16 1231.18 2185.04 1235.21 Q2187.95 1239.2 2193.02 1239.2 Q2198.09 1239.2 2201.01 1235.21 Q2203.93 1231.18 2203.93 1224.13 Q2203.93 1217.08 2201.01 1213.09 Q2198.09 1209.06 2193.02 1209.06 Q2187.95 1209.06 2185.04 1213.09 Q2182.16 1217.08 2182.16 1224.13 Z" fill="#000000" fill-rule="evenodd" fill-opacity="1" /><path clip-path="url(#clip400)" d="M2256.74 1222.5 L2256.74 1225.62 L2227.36 1225.62 Q2227.78 1232.22 2231.32 1235.69 Q2234.9 1239.13 2241.25 1239.13 Q2244.93 1239.13 2248.37 1238.23 Q2251.84 1237.32 2255.25 1235.52 L2255.25 1241.56 Q2251.81 1243.02 2248.2 1243.78 Q2244.59 1244.55 2240.87 1244.55 Q2231.56 1244.55 2226.11 1239.13 Q2220.7 1233.71 2220.7 1224.48 Q2220.7 1214.93 2225.84 1209.34 Q2231.01 1203.71 2239.76 1203.71 Q2247.61 1203.71 2252.15 1208.78 Q2256.74 1213.82 2256.74 1222.5 M2250.35 1220.62 Q2250.28 1215.38 2247.4 1212.25 Q2244.55 1209.13 2239.83 1209.13 Q2234.48 1209.13 2231.25 1212.15 Q2228.06 1215.17 2227.57 1220.66 L2250.35 1220.62 Z" fill="#000000" fill-rule="evenodd" fill-opacity="1" /><polyline clip-path="url(#clip400)" style="stroke:#ffa500; stroke-linecap:round; stroke-linejoin:round; stroke-width:6; stroke-opacity:1; fill:none" points="
  1713.61,1295.38 1857.63,1295.38 
  "/>
<path clip-path="url(#clip400)" d="M1906.39 1267.27 L1906.39 1272.58 L1900.28 1272.58 Q1896.84 1272.58 1895.49 1273.97 Q1894.17 1275.36 1894.17 1278.97 L1894.17 1282.41 L1904.69 1282.41 L1904.69 1287.38 L1894.17 1287.38 L1894.17 1321.3 L1887.75 1321.3 L1887.75 1287.38 L1881.64 1287.38 L1881.64 1282.41 L1887.75 1282.41 L1887.75 1279.7 Q1887.75 1273.21 1890.77 1270.26 Q1893.79 1267.27 1900.35 1267.27 L1906.39 1267.27 Z" fill="#000000" fill-rule="evenodd" fill-opacity="1" /><path clip-path="url(#clip400)" d="M1929.41 1301.75 Q1921.67 1301.75 1918.68 1303.52 Q1915.7 1305.29 1915.7 1309.56 Q1915.7 1312.97 1917.92 1314.98 Q1920.18 1316.96 1924.03 1316.96 Q1929.34 1316.96 1932.54 1313.21 Q1935.77 1309.42 1935.77 1303.17 L1935.77 1301.75 L1929.41 1301.75 M1942.16 1299.11 L1942.16 1321.3 L1935.77 1321.3 L1935.77 1315.4 Q1933.58 1318.94 1930.32 1320.64 Q1927.05 1322.31 1922.33 1322.31 Q1916.36 1322.31 1912.82 1318.97 Q1909.31 1315.6 1909.31 1309.98 Q1909.31 1303.42 1913.68 1300.08 Q1918.09 1296.75 1926.81 1296.75 L1935.77 1296.75 L1935.77 1296.13 Q1935.77 1291.72 1932.85 1289.32 Q1929.97 1286.89 1924.73 1286.89 Q1921.39 1286.89 1918.23 1287.69 Q1915.07 1288.49 1912.16 1290.08 L1912.16 1284.18 Q1915.66 1282.83 1918.96 1282.17 Q1922.26 1281.47 1925.39 1281.47 Q1933.82 1281.47 1937.99 1285.85 Q1942.16 1290.22 1942.16 1299.11 Z" fill="#000000" fill-rule="evenodd" fill-opacity="1" /><path clip-path="url(#clip400)" d="M1980.11 1283.56 L1980.11 1289.6 Q1977.4 1288.21 1974.48 1287.51 Q1971.57 1286.82 1968.44 1286.82 Q1963.68 1286.82 1961.29 1288.28 Q1958.93 1289.74 1958.93 1292.65 Q1958.93 1294.88 1960.63 1296.16 Q1962.33 1297.41 1967.47 1298.56 L1969.66 1299.04 Q1976.46 1300.5 1979.31 1303.17 Q1982.19 1305.81 1982.19 1310.57 Q1982.19 1315.99 1977.89 1319.15 Q1973.61 1322.31 1966.11 1322.31 Q1962.99 1322.31 1959.59 1321.68 Q1956.22 1321.09 1952.47 1319.88 L1952.47 1313.28 Q1956.01 1315.12 1959.45 1316.06 Q1962.89 1316.96 1966.25 1316.96 Q1970.77 1316.96 1973.2 1315.43 Q1975.63 1313.87 1975.63 1311.06 Q1975.63 1308.45 1973.86 1307.06 Q1972.12 1305.67 1966.18 1304.39 L1963.96 1303.87 Q1958.02 1302.62 1955.39 1300.05 Q1952.75 1297.45 1952.75 1292.93 Q1952.75 1287.45 1956.64 1284.46 Q1960.52 1281.47 1967.68 1281.47 Q1971.22 1281.47 1974.34 1281.99 Q1977.47 1282.51 1980.11 1283.56 Z" fill="#000000" fill-rule="evenodd" fill-opacity="1" /><path clip-path="url(#clip400)" d="M1998.68 1271.37 L1998.68 1282.41 L2011.84 1282.41 L2011.84 1287.38 L1998.68 1287.38 L1998.68 1308.49 Q1998.68 1313.24 1999.97 1314.6 Q2001.29 1315.95 2005.28 1315.95 L2011.84 1315.95 L2011.84 1321.3 L2005.28 1321.3 Q1997.89 1321.3 1995.07 1318.56 Q1992.26 1315.78 1992.26 1308.49 L1992.26 1287.38 L1987.57 1287.38 L1987.57 1282.41 L1992.26 1282.41 L1992.26 1271.37 L1998.68 1271.37 Z" fill="#000000" fill-rule="evenodd" fill-opacity="1" /><path clip-path="url(#clip400)" d="M2073.13 1289.88 Q2075.52 1285.57 2078.86 1283.52 Q2082.19 1281.47 2086.7 1281.47 Q2092.78 1281.47 2096.08 1285.74 Q2099.38 1289.98 2099.38 1297.83 L2099.38 1321.3 L2092.95 1321.3 L2092.95 1298.04 Q2092.95 1292.45 2090.98 1289.74 Q2089 1287.03 2084.93 1287.03 Q2079.97 1287.03 2077.09 1290.33 Q2074.2 1293.63 2074.2 1299.32 L2074.2 1321.3 L2067.78 1321.3 L2067.78 1298.04 Q2067.78 1292.41 2065.8 1289.74 Q2063.82 1287.03 2059.69 1287.03 Q2054.79 1287.03 2051.91 1290.36 Q2049.03 1293.66 2049.03 1299.32 L2049.03 1321.3 L2042.61 1321.3 L2042.61 1282.41 L2049.03 1282.41 L2049.03 1288.45 Q2051.22 1284.88 2054.27 1283.17 Q2057.33 1281.47 2061.53 1281.47 Q2065.77 1281.47 2068.72 1283.63 Q2071.7 1285.78 2073.13 1289.88 Z" fill="#000000" fill-rule="evenodd" fill-opacity="1" /><path clip-path="url(#clip400)" d="M2127.19 1286.89 Q2122.05 1286.89 2119.07 1290.92 Q2116.08 1294.91 2116.08 1301.89 Q2116.08 1308.87 2119.03 1312.9 Q2122.02 1316.89 2127.19 1316.89 Q2132.29 1316.89 2135.28 1312.86 Q2138.27 1308.83 2138.27 1301.89 Q2138.27 1294.98 2135.28 1290.95 Q2132.29 1286.89 2127.19 1286.89 M2127.19 1281.47 Q2135.52 1281.47 2140.28 1286.89 Q2145.04 1292.31 2145.04 1301.89 Q2145.04 1311.44 2140.28 1316.89 Q2135.52 1322.31 2127.19 1322.31 Q2118.82 1322.31 2114.07 1316.89 Q2109.34 1311.44 2109.34 1301.89 Q2109.34 1292.31 2114.07 1286.89 Q2118.82 1281.47 2127.19 1281.47 Z" fill="#000000" fill-rule="evenodd" fill-opacity="1" /><path clip-path="url(#clip400)" d="M2181.22 1288.31 L2181.22 1267.27 L2187.61 1267.27 L2187.61 1321.3 L2181.22 1321.3 L2181.22 1315.47 Q2179.2 1318.94 2176.11 1320.64 Q2173.06 1322.31 2168.75 1322.31 Q2161.7 1322.31 2157.26 1316.68 Q2152.85 1311.06 2152.85 1301.89 Q2152.85 1292.72 2157.26 1287.1 Q2161.7 1281.47 2168.75 1281.47 Q2173.06 1281.47 2176.11 1283.17 Q2179.2 1284.84 2181.22 1288.31 M2159.45 1301.89 Q2159.45 1308.94 2162.33 1312.97 Q2165.25 1316.96 2170.32 1316.96 Q2175.38 1316.96 2178.3 1312.97 Q2181.22 1308.94 2181.22 1301.89 Q2181.22 1294.84 2178.3 1290.85 Q2175.38 1286.82 2170.32 1286.82 Q2165.25 1286.82 2162.33 1290.85 Q2159.45 1294.84 2159.45 1301.89 Z" fill="#000000" fill-rule="evenodd" fill-opacity="1" /><path clip-path="url(#clip400)" d="M2234.03 1300.26 L2234.03 1303.38 L2204.66 1303.38 Q2205.07 1309.98 2208.61 1313.45 Q2212.19 1316.89 2218.54 1316.89 Q2222.22 1316.89 2225.66 1315.99 Q2229.13 1315.08 2232.54 1313.28 L2232.54 1319.32 Q2229.1 1320.78 2225.49 1321.54 Q2221.88 1322.31 2218.16 1322.31 Q2208.86 1322.31 2203.41 1316.89 Q2197.99 1311.47 2197.99 1302.24 Q2197.99 1292.69 2203.13 1287.1 Q2208.3 1281.47 2217.05 1281.47 Q2224.9 1281.47 2229.45 1286.54 Q2234.03 1291.58 2234.03 1300.26 M2227.64 1298.38 Q2227.57 1293.14 2224.69 1290.01 Q2221.84 1286.89 2217.12 1286.89 Q2211.77 1286.89 2208.54 1289.91 Q2205.35 1292.93 2204.86 1298.42 L2227.64 1298.38 Z" fill="#000000" fill-rule="evenodd" fill-opacity="1" /></svg>
