<?xml version="1.0" encoding="utf-8"?>
<svg xmlns="http://www.w3.org/2000/svg" xmlns:xlink="http://www.w3.org/1999/xlink" width="600" height="400" viewBox="0 0 2400 1600">
<defs>
  <clipPath id="clip000">
    <rect x="0" y="0" width="2400" height="1600"/>
  </clipPath>
</defs>
<path clip-path="url(#clip000)" d="
M0 1600 L2400 1600 L2400 0 L0 0  Z
  " fill="#ffffff" fill-rule="evenodd" fill-opacity="1"/>
<defs>
  <clipPath id="clip001">
    <rect x="480" y="0" width="1681" height="1600"/>
  </clipPath>
</defs>
<path clip-path="url(#clip000)" d="
M277.774 1418.86 L2352.76 1418.86 L2352.76 47.2441 L277.774 47.2441  Z
  " fill="#ffffff" fill-rule="evenodd" fill-opacity="1"/>
<defs>
  <clipPath id="clip002">
    <rect x="277" y="47" width="2076" height="1373"/>
  </clipPath>
</defs>
<polyline clip-path="url(#clip002)" style="stroke:#000000; stroke-linecap:round; stroke-linejoin:round; stroke-width:2; stroke-opacity:0.1; fill:none" points="
  331.594,1418.86 331.594,47.2441 
  "/>
<polyline clip-path="url(#clip002)" style="stroke:#000000; stroke-linecap:round; stroke-linejoin:round; stroke-width:2; stroke-opacity:0.1; fill:none" points="
  822.203,1418.86 822.203,47.2441 
  "/>
<polyline clip-path="url(#clip002)" style="stroke:#000000; stroke-linecap:round; stroke-linejoin:round; stroke-width:2; stroke-opacity:0.1; fill:none" points="
  1312.81,1418.86 1312.81,47.2441 
  "/>
<polyline clip-path="url(#clip002)" style="stroke:#000000; stroke-linecap:round; stroke-linejoin:round; stroke-width:2; stroke-opacity:0.1; fill:none" points="
  1803.42,1418.86 1803.42,47.2441 
  "/>
<polyline clip-path="url(#clip002)" style="stroke:#000000; stroke-linecap:round; stroke-linejoin:round; stroke-width:2; stroke-opacity:0.1; fill:none" points="
  2294.03,1418.86 2294.03,47.2441 
  "/>
<polyline clip-path="url(#clip000)" style="stroke:#000000; stroke-linecap:round; stroke-linejoin:round; stroke-width:4; stroke-opacity:1; fill:none" points="
  277.774,1418.86 2352.76,1418.86 
  "/>
<polyline clip-path="url(#clip000)" style="stroke:#000000; stroke-linecap:round; stroke-linejoin:round; stroke-width:4; stroke-opacity:1; fill:none" points="
  331.594,1418.86 331.594,1399.96 
  "/>
<polyline clip-path="url(#clip000)" style="stroke:#000000; stroke-linecap:round; stroke-linejoin:round; stroke-width:4; stroke-opacity:1; fill:none" points="
  822.203,1418.86 822.203,1399.96 
  "/>
<polyline clip-path="url(#clip000)" style="stroke:#000000; stroke-linecap:round; stroke-linejoin:round; stroke-width:4; stroke-opacity:1; fill:none" points="
  1312.81,1418.86 1312.81,1399.96 
  "/>
<polyline clip-path="url(#clip000)" style="stroke:#000000; stroke-linecap:round; stroke-linejoin:round; stroke-width:4; stroke-opacity:1; fill:none" points="
  1803.42,1418.86 1803.42,1399.96 
  "/>
<polyline clip-path="url(#clip000)" style="stroke:#000000; stroke-linecap:round; stroke-linejoin:round; stroke-width:4; stroke-opacity:1; fill:none" points="
  2294.03,1418.86 2294.03,1399.96 
  "/>
<path clip-path="url(#clip000)" d="M239.395 1449.78 Q235.784 1449.78 233.955 1453.34 Q232.15 1456.88 232.15 1464.01 Q232.15 1471.12 233.955 1474.69 Q235.784 1478.23 239.395 1478.23 Q243.029 1478.23 244.835 1474.69 Q246.664 1471.12 246.664 1464.01 Q246.664 1456.88 244.835 1453.34 Q243.029 1449.78 239.395 1449.78 M239.395 1446.07 Q245.205 1446.07 248.261 1450.68 Q251.34 1455.26 251.34 1464.01 Q251.34 1472.74 248.261 1477.35 Q245.205 1481.93 239.395 1481.93 Q233.585 1481.93 230.506 1477.35 Q227.451 1472.74 227.451 1464.01 Q227.451 1455.26 230.506 1450.68 Q233.585 1446.07 239.395 1446.07 Z" fill="#000000" fill-rule="evenodd" fill-opacity="1" /><path clip-path="url(#clip000)" d="M259.557 1475.38 L264.441 1475.38 L264.441 1481.26 L259.557 1481.26 L259.557 1475.38 Z" fill="#000000" fill-rule="evenodd" fill-opacity="1" /><path clip-path="url(#clip000)" d="M284.626 1449.78 Q281.015 1449.78 279.187 1453.34 Q277.381 1456.88 277.381 1464.01 Q277.381 1471.12 279.187 1474.69 Q281.015 1478.23 284.626 1478.23 Q288.261 1478.23 290.066 1474.69 Q291.895 1471.12 291.895 1464.01 Q291.895 1456.88 290.066 1453.34 Q288.261 1449.78 284.626 1449.78 M284.626 1446.07 Q290.437 1446.07 293.492 1450.68 Q296.571 1455.26 296.571 1464.01 Q296.571 1472.74 293.492 1477.35 Q290.437 1481.93 284.626 1481.93 Q278.816 1481.93 275.738 1477.35 Q272.682 1472.74 272.682 1464.01 Q272.682 1455.26 275.738 1450.68 Q278.816 1446.07 284.626 1446.07 Z" fill="#000000" fill-rule="evenodd" fill-opacity="1" /><path clip-path="url(#clip000)" d="M314.788 1449.78 Q311.177 1449.78 309.349 1453.34 Q307.543 1456.88 307.543 1464.01 Q307.543 1471.12 309.349 1474.69 Q311.177 1478.23 314.788 1478.23 Q318.423 1478.23 320.228 1474.69 Q322.057 1471.12 322.057 1464.01 Q322.057 1456.88 320.228 1453.34 Q318.423 1449.78 314.788 1449.78 M314.788 1446.07 Q320.598 1446.07 323.654 1450.68 Q326.733 1455.26 326.733 1464.01 Q326.733 1472.74 323.654 1477.35 Q320.598 1481.93 314.788 1481.93 Q308.978 1481.93 305.899 1477.35 Q302.844 1472.74 302.844 1464.01 Q302.844 1455.26 305.899 1450.68 Q308.978 1446.07 314.788 1446.07 Z" fill="#000000" fill-rule="evenodd" fill-opacity="1" /><path clip-path="url(#clip000)" d="M355.899 1455.33 L346.524 1467.95 L356.385 1481.26 L351.362 1481.26 L343.816 1471.07 L336.27 1481.26 L331.247 1481.26 L341.316 1467.7 L332.103 1455.33 L337.126 1455.33 L344.001 1464.57 L350.876 1455.33 L355.899 1455.33 Z" fill="#000000" fill-rule="evenodd" fill-opacity="1" /><path clip-path="url(#clip000)" d="M363.816 1477.32 L371.455 1477.32 L371.455 1450.96 L363.145 1452.63 L363.145 1448.37 L371.408 1446.7 L376.084 1446.7 L376.084 1477.32 L383.723 1477.32 L383.723 1481.26 L363.816 1481.26 L363.816 1477.32 Z" fill="#000000" fill-rule="evenodd" fill-opacity="1" /><path clip-path="url(#clip000)" d="M403.167 1449.78 Q399.556 1449.78 397.728 1453.34 Q395.922 1456.88 395.922 1464.01 Q395.922 1471.12 397.728 1474.69 Q399.556 1478.23 403.167 1478.23 Q406.802 1478.23 408.607 1474.69 Q410.436 1471.12 410.436 1464.01 Q410.436 1456.88 408.607 1453.34 Q406.802 1449.78 403.167 1449.78 M403.167 1446.07 Q408.978 1446.07 412.033 1450.68 Q415.112 1455.26 415.112 1464.01 Q415.112 1472.74 412.033 1477.35 Q408.978 1481.93 403.167 1481.93 Q397.357 1481.93 394.279 1477.35 Q391.223 1472.74 391.223 1464.01 Q391.223 1455.26 394.279 1450.68 Q397.357 1446.07 403.167 1446.07 Z" fill="#000000" fill-rule="evenodd" fill-opacity="1" /><path clip-path="url(#clip000)" d="M428.329 1455.03 Q426.292 1455.03 425.112 1456.24 Q423.931 1457.46 423.931 1459.57 Q423.931 1461.65 425.112 1462.86 Q426.292 1464.08 428.329 1464.08 Q430.343 1464.08 431.524 1462.86 Q432.704 1461.65 432.704 1459.57 Q432.704 1457.46 431.524 1456.24 Q430.343 1455.03 428.329 1455.03 M434.302 1446.84 L434.302 1449.22 Q433.167 1448.76 432.01 1448.53 Q430.852 1448.27 429.718 1448.27 Q426.755 1448.27 425.181 1450.01 Q423.607 1451.77 423.376 1455.31 Q424.255 1454.18 425.575 1453.57 Q426.917 1452.97 428.491 1452.97 Q431.848 1452.97 433.792 1454.73 Q435.737 1456.51 435.737 1459.57 Q435.737 1462.51 433.7 1464.34 Q431.686 1466.14 428.329 1466.14 Q424.464 1466.14 422.427 1463.57 Q420.39 1461.01 420.39 1456.1 Q420.39 1451.51 422.89 1448.81 Q425.39 1446.07 429.602 1446.07 Q430.737 1446.07 431.894 1446.26 Q433.052 1446.47 434.302 1446.84 Z" fill="#000000" fill-rule="evenodd" fill-opacity="1" /><path clip-path="url(#clip000)" d="M704.692 1477.32 L712.331 1477.32 L712.331 1450.96 L704.021 1452.63 L704.021 1448.37 L712.284 1446.7 L716.96 1446.7 L716.96 1477.32 L724.599 1477.32 L724.599 1481.26 L704.692 1481.26 L704.692 1477.32 Z" fill="#000000" fill-rule="evenodd" fill-opacity="1" /><path clip-path="url(#clip000)" d="M744.044 1449.78 Q740.432 1449.78 738.604 1453.34 Q736.798 1456.88 736.798 1464.01 Q736.798 1471.12 738.604 1474.69 Q740.432 1478.23 744.044 1478.23 Q747.678 1478.23 749.483 1474.69 Q751.312 1471.12 751.312 1464.01 Q751.312 1456.88 749.483 1453.34 Q747.678 1449.78 744.044 1449.78 M744.044 1446.07 Q749.854 1446.07 752.909 1450.68 Q755.988 1455.26 755.988 1464.01 Q755.988 1472.74 752.909 1477.35 Q749.854 1481.93 744.044 1481.93 Q738.233 1481.93 735.155 1477.35 Q732.099 1472.74 732.099 1464.01 Q732.099 1455.26 735.155 1450.68 Q738.233 1446.07 744.044 1446.07 Z" fill="#000000" fill-rule="evenodd" fill-opacity="1" /><path clip-path="url(#clip000)" d="M764.205 1475.38 L769.09 1475.38 L769.09 1481.26 L764.205 1481.26 L764.205 1475.38 Z" fill="#000000" fill-rule="evenodd" fill-opacity="1" /><path clip-path="url(#clip000)" d="M789.275 1449.78 Q785.664 1449.78 783.835 1453.34 Q782.029 1456.88 782.029 1464.01 Q782.029 1471.12 783.835 1474.69 Q785.664 1478.23 789.275 1478.23 Q792.909 1478.23 794.715 1474.69 Q796.543 1471.12 796.543 1464.01 Q796.543 1456.88 794.715 1453.34 Q792.909 1449.78 789.275 1449.78 M789.275 1446.07 Q795.085 1446.07 798.14 1450.68 Q801.219 1455.26 801.219 1464.01 Q801.219 1472.74 798.14 1477.35 Q795.085 1481.93 789.275 1481.93 Q783.465 1481.93 780.386 1477.35 Q777.33 1472.74 777.33 1464.01 Q777.33 1455.26 780.386 1450.68 Q783.465 1446.07 789.275 1446.07 Z" fill="#000000" fill-rule="evenodd" fill-opacity="1" /><path clip-path="url(#clip000)" d="M819.437 1449.78 Q815.826 1449.78 813.997 1453.34 Q812.191 1456.88 812.191 1464.01 Q812.191 1471.12 813.997 1474.69 Q815.826 1478.23 819.437 1478.23 Q823.071 1478.23 824.876 1474.69 Q826.705 1471.12 826.705 1464.01 Q826.705 1456.88 824.876 1453.34 Q823.071 1449.78 819.437 1449.78 M819.437 1446.07 Q825.247 1446.07 828.302 1450.68 Q831.381 1455.26 831.381 1464.01 Q831.381 1472.74 828.302 1477.35 Q825.247 1481.93 819.437 1481.93 Q813.626 1481.93 810.548 1477.35 Q807.492 1472.74 807.492 1464.01 Q807.492 1455.26 810.548 1450.68 Q813.626 1446.07 819.437 1446.07 Z" fill="#000000" fill-rule="evenodd" fill-opacity="1" /><path clip-path="url(#clip000)" d="M860.548 1455.33 L851.173 1467.95 L861.034 1481.26 L856.011 1481.26 L848.464 1471.07 L840.918 1481.26 L835.895 1481.26 L845.964 1467.7 L836.751 1455.33 L841.774 1455.33 L848.649 1464.57 L855.524 1455.33 L860.548 1455.33 Z" fill="#000000" fill-rule="evenodd" fill-opacity="1" /><path clip-path="url(#clip000)" d="M868.464 1477.32 L876.103 1477.32 L876.103 1450.96 L867.793 1452.63 L867.793 1448.37 L876.057 1446.7 L880.733 1446.7 L880.733 1477.32 L888.371 1477.32 L888.371 1481.26 L868.464 1481.26 L868.464 1477.32 Z" fill="#000000" fill-rule="evenodd" fill-opacity="1" /><path clip-path="url(#clip000)" d="M907.816 1449.78 Q904.205 1449.78 902.376 1453.34 Q900.57 1456.88 900.57 1464.01 Q900.57 1471.12 902.376 1474.69 Q904.205 1478.23 907.816 1478.23 Q911.45 1478.23 913.256 1474.69 Q915.084 1471.12 915.084 1464.01 Q915.084 1456.88 913.256 1453.34 Q911.45 1449.78 907.816 1449.78 M907.816 1446.07 Q913.626 1446.07 916.681 1450.68 Q919.76 1455.26 919.76 1464.01 Q919.76 1472.74 916.681 1477.35 Q913.626 1481.93 907.816 1481.93 Q902.006 1481.93 898.927 1477.35 Q895.871 1472.74 895.871 1464.01 Q895.871 1455.26 898.927 1450.68 Q902.006 1446.07 907.816 1446.07 Z" fill="#000000" fill-rule="evenodd" fill-opacity="1" /><path clip-path="url(#clip000)" d="M932.978 1455.03 Q930.941 1455.03 929.76 1456.24 Q928.58 1457.46 928.58 1459.57 Q928.58 1461.65 929.76 1462.86 Q930.941 1464.08 932.978 1464.08 Q934.992 1464.08 936.172 1462.86 Q937.353 1461.65 937.353 1459.57 Q937.353 1457.46 936.172 1456.24 Q934.992 1455.03 932.978 1455.03 M938.95 1446.84 L938.95 1449.22 Q937.816 1448.76 936.658 1448.53 Q935.501 1448.27 934.367 1448.27 Q931.404 1448.27 929.83 1450.01 Q928.255 1451.77 928.024 1455.31 Q928.904 1454.18 930.223 1453.57 Q931.566 1452.97 933.14 1452.97 Q936.496 1452.97 938.441 1454.73 Q940.385 1456.51 940.385 1459.57 Q940.385 1462.51 938.348 1464.34 Q936.334 1466.14 932.978 1466.14 Q929.112 1466.14 927.075 1463.57 Q925.038 1461.01 925.038 1456.1 Q925.038 1451.51 927.538 1448.81 Q930.038 1446.07 934.251 1446.07 Q935.385 1446.07 936.542 1446.26 Q937.7 1446.47 938.95 1446.84 Z" fill="#000000" fill-rule="evenodd" fill-opacity="1" /><path clip-path="url(#clip000)" d="M1199.39 1477.32 L1215.71 1477.32 L1215.71 1481.26 L1193.76 1481.26 L1193.76 1477.32 Q1196.42 1474.57 1201.01 1469.94 Q1205.61 1465.29 1206.79 1463.95 Q1209.04 1461.42 1209.92 1459.69 Q1210.82 1457.93 1210.82 1456.24 Q1210.82 1453.48 1208.88 1451.75 Q1206.96 1450.01 1203.85 1450.01 Q1201.66 1450.01 1199.2 1450.77 Q1196.77 1451.54 1193.99 1453.09 L1193.99 1448.37 Q1196.82 1447.23 1199.27 1446.65 Q1201.72 1446.07 1203.76 1446.07 Q1209.13 1446.07 1212.33 1448.76 Q1215.52 1451.45 1215.52 1455.94 Q1215.52 1458.07 1214.71 1459.99 Q1213.92 1461.88 1211.82 1464.48 Q1211.24 1465.15 1208.14 1468.37 Q1205.03 1471.56 1199.39 1477.32 Z" fill="#000000" fill-rule="evenodd" fill-opacity="1" /><path clip-path="url(#clip000)" d="M1235.52 1449.78 Q1231.91 1449.78 1230.08 1453.34 Q1228.28 1456.88 1228.28 1464.01 Q1228.28 1471.12 1230.08 1474.69 Q1231.91 1478.23 1235.52 1478.23 Q1239.15 1478.23 1240.96 1474.69 Q1242.79 1471.12 1242.79 1464.01 Q1242.79 1456.88 1240.96 1453.34 Q1239.15 1449.78 1235.52 1449.78 M1235.52 1446.07 Q1241.33 1446.07 1244.39 1450.68 Q1247.47 1455.26 1247.47 1464.01 Q1247.47 1472.74 1244.39 1477.35 Q1241.33 1481.93 1235.52 1481.93 Q1229.71 1481.93 1226.63 1477.35 Q1223.58 1472.74 1223.58 1464.01 Q1223.58 1455.26 1226.63 1450.68 Q1229.71 1446.07 1235.52 1446.07 Z" fill="#000000" fill-rule="evenodd" fill-opacity="1" /><path clip-path="url(#clip000)" d="M1255.68 1475.38 L1260.57 1475.38 L1260.57 1481.26 L1255.68 1481.26 L1255.68 1475.38 Z" fill="#000000" fill-rule="evenodd" fill-opacity="1" /><path clip-path="url(#clip000)" d="M1280.75 1449.78 Q1277.14 1449.78 1275.31 1453.34 Q1273.51 1456.88 1273.51 1464.01 Q1273.51 1471.12 1275.31 1474.69 Q1277.14 1478.23 1280.75 1478.23 Q1284.39 1478.23 1286.19 1474.69 Q1288.02 1471.12 1288.02 1464.01 Q1288.02 1456.88 1286.19 1453.34 Q1284.39 1449.78 1280.75 1449.78 M1280.75 1446.07 Q1286.56 1446.07 1289.62 1450.68 Q1292.7 1455.26 1292.7 1464.01 Q1292.7 1472.74 1289.62 1477.35 Q1286.56 1481.93 1280.75 1481.93 Q1274.94 1481.93 1271.86 1477.35 Q1268.81 1472.74 1268.81 1464.01 Q1268.81 1455.26 1271.86 1450.68 Q1274.94 1446.07 1280.75 1446.07 Z" fill="#000000" fill-rule="evenodd" fill-opacity="1" /><path clip-path="url(#clip000)" d="M1310.91 1449.78 Q1307.3 1449.78 1305.47 1453.34 Q1303.67 1456.88 1303.67 1464.01 Q1303.67 1471.12 1305.47 1474.69 Q1307.3 1478.23 1310.91 1478.23 Q1314.55 1478.23 1316.35 1474.69 Q1318.18 1471.12 1318.18 1464.01 Q1318.18 1456.88 1316.35 1453.34 Q1314.55 1449.78 1310.91 1449.78 M1310.91 1446.07 Q1316.72 1446.07 1319.78 1450.68 Q1322.86 1455.26 1322.86 1464.01 Q1322.86 1472.74 1319.78 1477.35 Q1316.72 1481.93 1310.91 1481.93 Q1305.1 1481.93 1302.02 1477.35 Q1298.97 1472.74 1298.97 1464.01 Q1298.97 1455.26 1302.02 1450.68 Q1305.1 1446.07 1310.91 1446.07 Z" fill="#000000" fill-rule="evenodd" fill-opacity="1" /><path clip-path="url(#clip000)" d="M1352.02 1455.33 L1342.65 1467.95 L1352.51 1481.26 L1347.49 1481.26 L1339.94 1471.07 L1332.4 1481.26 L1327.37 1481.26 L1337.44 1467.7 L1328.23 1455.33 L1333.25 1455.33 L1340.13 1464.57 L1347 1455.33 L1352.02 1455.33 Z" fill="#000000" fill-rule="evenodd" fill-opacity="1" /><path clip-path="url(#clip000)" d="M1359.94 1477.32 L1367.58 1477.32 L1367.58 1450.96 L1359.27 1452.63 L1359.27 1448.37 L1367.53 1446.7 L1372.21 1446.7 L1372.21 1477.32 L1379.85 1477.32 L1379.85 1481.26 L1359.94 1481.26 L1359.94 1477.32 Z" fill="#000000" fill-rule="evenodd" fill-opacity="1" /><path clip-path="url(#clip000)" d="M1399.29 1449.78 Q1395.68 1449.78 1393.85 1453.34 Q1392.05 1456.88 1392.05 1464.01 Q1392.05 1471.12 1393.85 1474.69 Q1395.68 1478.23 1399.29 1478.23 Q1402.93 1478.23 1404.73 1474.69 Q1406.56 1471.12 1406.56 1464.01 Q1406.56 1456.88 1404.73 1453.34 Q1402.93 1449.78 1399.29 1449.78 M1399.29 1446.07 Q1405.1 1446.07 1408.16 1450.68 Q1411.24 1455.26 1411.24 1464.01 Q1411.24 1472.74 1408.16 1477.35 Q1405.1 1481.93 1399.29 1481.93 Q1393.48 1481.93 1390.4 1477.35 Q1387.35 1472.74 1387.35 1464.01 Q1387.35 1455.26 1390.4 1450.68 Q1393.48 1446.07 1399.29 1446.07 Z" fill="#000000" fill-rule="evenodd" fill-opacity="1" /><path clip-path="url(#clip000)" d="M1424.45 1455.03 Q1422.42 1455.03 1421.24 1456.24 Q1420.06 1457.46 1420.06 1459.57 Q1420.06 1461.65 1421.24 1462.86 Q1422.42 1464.08 1424.45 1464.08 Q1426.47 1464.08 1427.65 1462.86 Q1428.83 1461.65 1428.83 1459.57 Q1428.83 1457.46 1427.65 1456.24 Q1426.47 1455.03 1424.45 1455.03 M1430.43 1446.84 L1430.43 1449.22 Q1429.29 1448.76 1428.14 1448.53 Q1426.98 1448.27 1425.84 1448.27 Q1422.88 1448.27 1421.31 1450.01 Q1419.73 1451.77 1419.5 1455.31 Q1420.38 1454.18 1421.7 1453.57 Q1423.04 1452.97 1424.62 1452.97 Q1427.97 1452.97 1429.92 1454.73 Q1431.86 1456.51 1431.86 1459.57 Q1431.86 1462.51 1429.83 1464.34 Q1427.81 1466.14 1424.45 1466.14 Q1420.59 1466.14 1418.55 1463.57 Q1416.52 1461.01 1416.52 1456.1 Q1416.52 1451.51 1419.02 1448.81 Q1421.51 1446.07 1425.73 1446.07 Q1426.86 1446.07 1428.02 1446.26 Q1429.18 1446.47 1430.43 1446.84 Z" fill="#000000" fill-rule="evenodd" fill-opacity="1" /><path clip-path="url(#clip000)" d="M1700.07 1462.63 Q1703.42 1463.34 1705.3 1465.61 Q1707.19 1467.88 1707.19 1471.21 Q1707.19 1476.33 1703.68 1479.13 Q1700.16 1481.93 1693.68 1481.93 Q1691.5 1481.93 1689.19 1481.49 Q1686.89 1481.07 1684.44 1480.22 L1684.44 1475.7 Q1686.38 1476.84 1688.7 1477.42 Q1691.01 1478 1693.54 1478 Q1697.94 1478 1700.23 1476.26 Q1702.54 1474.52 1702.54 1471.21 Q1702.54 1468.16 1700.39 1466.45 Q1698.26 1464.71 1694.44 1464.71 L1690.41 1464.71 L1690.41 1460.87 L1694.63 1460.87 Q1698.07 1460.87 1699.9 1459.5 Q1701.73 1458.11 1701.73 1455.52 Q1701.73 1452.86 1699.83 1451.45 Q1697.96 1450.01 1694.44 1450.01 Q1692.52 1450.01 1690.32 1450.43 Q1688.12 1450.84 1685.48 1451.72 L1685.48 1447.56 Q1688.14 1446.82 1690.46 1446.45 Q1692.8 1446.07 1694.86 1446.07 Q1700.18 1446.07 1703.28 1448.51 Q1706.38 1450.91 1706.38 1455.03 Q1706.38 1457.9 1704.74 1459.89 Q1703.1 1461.86 1700.07 1462.63 Z" fill="#000000" fill-rule="evenodd" fill-opacity="1" /><path clip-path="url(#clip000)" d="M1726.06 1449.78 Q1722.45 1449.78 1720.62 1453.34 Q1718.81 1456.88 1718.81 1464.01 Q1718.81 1471.12 1720.62 1474.69 Q1722.45 1478.23 1726.06 1478.23 Q1729.69 1478.23 1731.5 1474.69 Q1733.33 1471.12 1733.33 1464.01 Q1733.33 1456.88 1731.5 1453.34 Q1729.69 1449.78 1726.06 1449.78 M1726.06 1446.07 Q1731.87 1446.07 1734.93 1450.68 Q1738 1455.26 1738 1464.01 Q1738 1472.74 1734.93 1477.35 Q1731.87 1481.93 1726.06 1481.93 Q1720.25 1481.93 1717.17 1477.35 Q1714.12 1472.74 1714.12 1464.01 Q1714.12 1455.26 1717.17 1450.68 Q1720.25 1446.07 1726.06 1446.07 Z" fill="#000000" fill-rule="evenodd" fill-opacity="1" /><path clip-path="url(#clip000)" d="M1746.22 1475.38 L1751.11 1475.38 L1751.11 1481.26 L1746.22 1481.26 L1746.22 1475.38 Z" fill="#000000" fill-rule="evenodd" fill-opacity="1" /><path clip-path="url(#clip000)" d="M1771.29 1449.78 Q1767.68 1449.78 1765.85 1453.34 Q1764.05 1456.88 1764.05 1464.01 Q1764.05 1471.12 1765.85 1474.69 Q1767.68 1478.23 1771.29 1478.23 Q1774.93 1478.23 1776.73 1474.69 Q1778.56 1471.12 1778.56 1464.01 Q1778.56 1456.88 1776.73 1453.34 Q1774.93 1449.78 1771.29 1449.78 M1771.29 1446.07 Q1777.1 1446.07 1780.16 1450.68 Q1783.24 1455.26 1783.24 1464.01 Q1783.24 1472.74 1780.16 1477.35 Q1777.1 1481.93 1771.29 1481.93 Q1765.48 1481.93 1762.4 1477.35 Q1759.35 1472.74 1759.35 1464.01 Q1759.35 1455.26 1762.4 1450.68 Q1765.48 1446.07 1771.29 1446.07 Z" fill="#000000" fill-rule="evenodd" fill-opacity="1" /><path clip-path="url(#clip000)" d="M1801.45 1449.78 Q1797.84 1449.78 1796.01 1453.34 Q1794.21 1456.88 1794.21 1464.01 Q1794.21 1471.12 1796.01 1474.69 Q1797.84 1478.23 1801.45 1478.23 Q1805.09 1478.23 1806.89 1474.69 Q1808.72 1471.12 1808.72 1464.01 Q1808.72 1456.88 1806.89 1453.34 Q1805.09 1449.78 1801.45 1449.78 M1801.45 1446.07 Q1807.26 1446.07 1810.32 1450.68 Q1813.4 1455.26 1813.4 1464.01 Q1813.4 1472.74 1810.32 1477.35 Q1807.26 1481.93 1801.45 1481.93 Q1795.64 1481.93 1792.56 1477.35 Q1789.51 1472.74 1789.51 1464.01 Q1789.51 1455.26 1792.56 1450.68 Q1795.64 1446.07 1801.45 1446.07 Z" fill="#000000" fill-rule="evenodd" fill-opacity="1" /><path clip-path="url(#clip000)" d="M1842.56 1455.33 L1833.19 1467.95 L1843.05 1481.26 L1838.03 1481.26 L1830.48 1471.07 L1822.93 1481.26 L1817.91 1481.26 L1827.98 1467.7 L1818.77 1455.33 L1823.79 1455.33 L1830.67 1464.57 L1837.54 1455.33 L1842.56 1455.33 Z" fill="#000000" fill-rule="evenodd" fill-opacity="1" /><path clip-path="url(#clip000)" d="M1850.48 1477.32 L1858.12 1477.32 L1858.12 1450.96 L1849.81 1452.63 L1849.81 1448.37 L1858.07 1446.7 L1862.75 1446.7 L1862.75 1477.32 L1870.39 1477.32 L1870.39 1481.26 L1850.48 1481.26 L1850.48 1477.32 Z" fill="#000000" fill-rule="evenodd" fill-opacity="1" /><path clip-path="url(#clip000)" d="M1889.83 1449.78 Q1886.22 1449.78 1884.39 1453.34 Q1882.59 1456.88 1882.59 1464.01 Q1882.59 1471.12 1884.39 1474.69 Q1886.22 1478.23 1889.83 1478.23 Q1893.47 1478.23 1895.27 1474.69 Q1897.1 1471.12 1897.1 1464.01 Q1897.1 1456.88 1895.27 1453.34 Q1893.47 1449.78 1889.83 1449.78 M1889.83 1446.07 Q1895.64 1446.07 1898.7 1450.68 Q1901.78 1455.26 1901.78 1464.01 Q1901.78 1472.74 1898.7 1477.35 Q1895.64 1481.93 1889.83 1481.93 Q1884.02 1481.93 1880.94 1477.35 Q1877.89 1472.74 1877.89 1464.01 Q1877.89 1455.26 1880.94 1450.68 Q1884.02 1446.07 1889.83 1446.07 Z" fill="#000000" fill-rule="evenodd" fill-opacity="1" /><path clip-path="url(#clip000)" d="M1914.99 1455.03 Q1912.96 1455.03 1911.78 1456.24 Q1910.6 1457.46 1910.6 1459.57 Q1910.6 1461.65 1911.78 1462.86 Q1912.96 1464.08 1914.99 1464.08 Q1917.01 1464.08 1918.19 1462.86 Q1919.37 1461.65 1919.37 1459.57 Q1919.37 1457.46 1918.19 1456.24 Q1917.01 1455.03 1914.99 1455.03 M1920.97 1446.84 L1920.97 1449.22 Q1919.83 1448.76 1918.67 1448.53 Q1917.52 1448.27 1916.38 1448.27 Q1913.42 1448.27 1911.85 1450.01 Q1910.27 1451.77 1910.04 1455.31 Q1910.92 1454.18 1912.24 1453.57 Q1913.58 1452.97 1915.16 1452.97 Q1918.51 1452.97 1920.46 1454.73 Q1922.4 1456.51 1922.4 1459.57 Q1922.4 1462.51 1920.36 1464.34 Q1918.35 1466.14 1914.99 1466.14 Q1911.13 1466.14 1909.09 1463.57 Q1907.05 1461.01 1907.05 1456.1 Q1907.05 1451.51 1909.55 1448.81 Q1912.05 1446.07 1916.27 1446.07 Q1917.4 1446.07 1918.56 1446.26 Q1919.72 1446.47 1920.97 1446.84 Z" fill="#000000" fill-rule="evenodd" fill-opacity="1" /><path clip-path="url(#clip000)" d="M2190 1450.77 L2178.2 1469.22 L2190 1469.22 L2190 1450.77 M2188.78 1446.7 L2194.66 1446.7 L2194.66 1469.22 L2199.59 1469.22 L2199.59 1473.11 L2194.66 1473.11 L2194.66 1481.26 L2190 1481.26 L2190 1473.11 L2174.4 1473.11 L2174.4 1468.6 L2188.78 1446.7 Z" fill="#000000" fill-rule="evenodd" fill-opacity="1" /><path clip-path="url(#clip000)" d="M2217.32 1449.78 Q2213.71 1449.78 2211.88 1453.34 Q2210.07 1456.88 2210.07 1464.01 Q2210.07 1471.12 2211.88 1474.69 Q2213.71 1478.23 2217.32 1478.23 Q2220.95 1478.23 2222.76 1474.69 Q2224.59 1471.12 2224.59 1464.01 Q2224.59 1456.88 2222.76 1453.34 Q2220.95 1449.78 2217.32 1449.78 M2217.32 1446.07 Q2223.13 1446.07 2226.18 1450.68 Q2229.26 1455.26 2229.26 1464.01 Q2229.26 1472.74 2226.18 1477.35 Q2223.13 1481.93 2217.32 1481.93 Q2211.51 1481.93 2208.43 1477.35 Q2205.37 1472.74 2205.37 1464.01 Q2205.37 1455.26 2208.43 1450.68 Q2211.51 1446.07 2217.32 1446.07 Z" fill="#000000" fill-rule="evenodd" fill-opacity="1" /><path clip-path="url(#clip000)" d="M2237.48 1475.38 L2242.36 1475.38 L2242.36 1481.26 L2237.48 1481.26 L2237.48 1475.38 Z" fill="#000000" fill-rule="evenodd" fill-opacity="1" /><path clip-path="url(#clip000)" d="M2262.55 1449.78 Q2258.94 1449.78 2257.11 1453.34 Q2255.3 1456.88 2255.3 1464.01 Q2255.3 1471.12 2257.11 1474.69 Q2258.94 1478.23 2262.55 1478.23 Q2266.18 1478.23 2267.99 1474.69 Q2269.82 1471.12 2269.82 1464.01 Q2269.82 1456.88 2267.99 1453.34 Q2266.18 1449.78 2262.55 1449.78 M2262.55 1446.07 Q2268.36 1446.07 2271.41 1450.68 Q2274.49 1455.26 2274.49 1464.01 Q2274.49 1472.74 2271.41 1477.35 Q2268.36 1481.93 2262.55 1481.93 Q2256.74 1481.93 2253.66 1477.35 Q2250.6 1472.74 2250.6 1464.01 Q2250.6 1455.26 2253.66 1450.68 Q2256.74 1446.07 2262.55 1446.07 Z" fill="#000000" fill-rule="evenodd" fill-opacity="1" /><path clip-path="url(#clip000)" d="M2292.71 1449.78 Q2289.1 1449.78 2287.27 1453.34 Q2285.47 1456.88 2285.47 1464.01 Q2285.47 1471.12 2287.27 1474.69 Q2289.1 1478.23 2292.71 1478.23 Q2296.34 1478.23 2298.15 1474.69 Q2299.98 1471.12 2299.98 1464.01 Q2299.98 1456.88 2298.15 1453.34 Q2296.34 1449.78 2292.71 1449.78 M2292.71 1446.07 Q2298.52 1446.07 2301.58 1450.68 Q2304.65 1455.26 2304.65 1464.01 Q2304.65 1472.74 2301.58 1477.35 Q2298.52 1481.93 2292.71 1481.93 Q2286.9 1481.93 2283.82 1477.35 Q2280.77 1472.74 2280.77 1464.01 Q2280.77 1455.26 2283.82 1450.68 Q2286.9 1446.07 2292.71 1446.07 Z" fill="#000000" fill-rule="evenodd" fill-opacity="1" /><path clip-path="url(#clip000)" d="M2333.82 1455.33 L2324.45 1467.95 L2334.31 1481.26 L2329.28 1481.26 L2321.74 1471.07 L2314.19 1481.26 L2309.17 1481.26 L2319.24 1467.7 L2310.03 1455.33 L2315.05 1455.33 L2321.92 1464.57 L2328.8 1455.33 L2333.82 1455.33 Z" fill="#000000" fill-rule="evenodd" fill-opacity="1" /><path clip-path="url(#clip000)" d="M2341.74 1477.32 L2349.38 1477.32 L2349.38 1450.96 L2341.07 1452.63 L2341.07 1448.37 L2349.33 1446.7 L2354.01 1446.7 L2354.01 1477.32 L2361.65 1477.32 L2361.65 1481.26 L2341.74 1481.26 L2341.74 1477.32 Z" fill="#000000" fill-rule="evenodd" fill-opacity="1" /><path clip-path="url(#clip000)" d="M2381.09 1449.78 Q2377.48 1449.78 2375.65 1453.34 Q2373.84 1456.88 2373.84 1464.01 Q2373.84 1471.12 2375.65 1474.69 Q2377.48 1478.23 2381.09 1478.23 Q2384.72 1478.23 2386.53 1474.69 Q2388.36 1471.12 2388.36 1464.01 Q2388.36 1456.88 2386.53 1453.34 Q2384.72 1449.78 2381.09 1449.78 M2381.09 1446.07 Q2386.9 1446.07 2389.96 1450.68 Q2393.03 1455.26 2393.03 1464.01 Q2393.03 1472.74 2389.96 1477.35 Q2386.9 1481.93 2381.09 1481.93 Q2375.28 1481.93 2372.2 1477.35 Q2369.15 1472.74 2369.15 1464.01 Q2369.15 1455.26 2372.2 1450.68 Q2375.28 1446.07 2381.09 1446.07 Z" fill="#000000" fill-rule="evenodd" fill-opacity="1" /><path clip-path="url(#clip000)" d="M2406.25 1455.03 Q2404.21 1455.03 2403.03 1456.24 Q2401.85 1457.46 2401.85 1459.57 Q2401.85 1461.65 2403.03 1462.86 Q2404.21 1464.08 2406.25 1464.08 Q2408.27 1464.08 2409.45 1462.86 Q2410.63 1461.65 2410.63 1459.57 Q2410.63 1457.46 2409.45 1456.24 Q2408.27 1455.03 2406.25 1455.03 M2412.22 1446.84 L2412.22 1449.22 Q2411.09 1448.76 2409.93 1448.53 Q2408.77 1448.27 2407.64 1448.27 Q2404.68 1448.27 2403.1 1450.01 Q2401.53 1451.77 2401.3 1455.31 Q2402.18 1454.18 2403.5 1453.57 Q2404.84 1452.97 2406.41 1452.97 Q2409.77 1452.97 2411.71 1454.73 Q2413.66 1456.51 2413.66 1459.57 Q2413.66 1462.51 2411.62 1464.34 Q2409.61 1466.14 2406.25 1466.14 Q2402.39 1466.14 2400.35 1463.57 Q2398.31 1461.01 2398.31 1456.1 Q2398.31 1451.51 2400.81 1448.81 Q2403.31 1446.07 2407.52 1446.07 Q2408.66 1446.07 2409.82 1446.26 Q2410.97 1446.47 2412.22 1446.84 Z" fill="#000000" fill-rule="evenodd" fill-opacity="1" /><path clip-path="url(#clip000)" d="M1151.15 1517.07 L1158.17 1517.07 L1158.17 1568.91 L1151.15 1568.91 L1151.15 1517.07 Z" fill="#000000" fill-rule="evenodd" fill-opacity="1" /><path clip-path="url(#clip000)" d="M1178.16 1518.98 L1178.16 1530.02 L1191.32 1530.02 L1191.32 1534.98 L1178.16 1534.98 L1178.16 1556.1 Q1178.16 1560.85 1179.45 1562.21 Q1180.77 1563.56 1184.76 1563.56 L1191.32 1563.56 L1191.32 1568.91 L1184.76 1568.91 Q1177.37 1568.91 1174.55 1566.16 Q1171.74 1563.39 1171.74 1556.1 L1171.74 1534.98 L1167.05 1534.98 L1167.05 1530.02 L1171.74 1530.02 L1171.74 1518.98 L1178.16 1518.98 Z" fill="#000000" fill-rule="evenodd" fill-opacity="1" /><path clip-path="url(#clip000)" d="M1232.99 1547.87 L1232.99 1550.99 L1203.62 1550.99 Q1204.03 1557.59 1207.57 1561.06 Q1211.15 1564.5 1217.51 1564.5 Q1221.19 1564.5 1224.62 1563.6 Q1228.1 1562.69 1231.5 1560.89 L1231.5 1566.93 Q1228.06 1568.39 1224.45 1569.15 Q1220.84 1569.91 1217.12 1569.91 Q1207.82 1569.91 1202.37 1564.5 Q1196.95 1559.08 1196.95 1549.85 Q1196.95 1540.3 1202.09 1534.71 Q1207.26 1529.08 1216.01 1529.08 Q1223.86 1529.08 1228.41 1534.15 Q1232.99 1539.19 1232.99 1547.87 M1226.6 1545.99 Q1226.53 1540.75 1223.65 1537.62 Q1220.8 1534.5 1216.08 1534.5 Q1210.73 1534.5 1207.51 1537.52 Q1204.31 1540.54 1203.82 1546.03 L1226.6 1545.99 Z" fill="#000000" fill-rule="evenodd" fill-opacity="1" /><path clip-path="url(#clip000)" d="M1266.01 1535.99 Q1264.94 1535.37 1263.65 1535.09 Q1262.4 1534.78 1260.87 1534.78 Q1255.46 1534.78 1252.54 1538.32 Q1249.66 1541.82 1249.66 1548.42 L1249.66 1568.91 L1243.23 1568.91 L1243.23 1530.02 L1249.66 1530.02 L1249.66 1536.06 Q1251.67 1532.52 1254.9 1530.82 Q1258.13 1529.08 1262.75 1529.08 Q1263.41 1529.08 1264.21 1529.19 Q1265 1529.26 1265.98 1529.43 L1266.01 1535.99 Z" fill="#000000" fill-rule="evenodd" fill-opacity="1" /><path clip-path="url(#clip000)" d="M1290.39 1549.36 Q1282.64 1549.36 1279.66 1551.13 Q1276.67 1552.9 1276.67 1557.17 Q1276.67 1560.57 1278.89 1562.59 Q1281.15 1564.57 1285 1564.57 Q1290.32 1564.57 1293.51 1560.82 Q1296.74 1557.03 1296.74 1550.78 L1296.74 1549.36 L1290.39 1549.36 M1303.13 1546.72 L1303.13 1568.91 L1296.74 1568.91 L1296.74 1563.01 Q1294.55 1566.55 1291.29 1568.25 Q1288.03 1569.91 1283.3 1569.91 Q1277.33 1569.91 1273.79 1566.58 Q1270.28 1563.21 1270.28 1557.59 Q1270.28 1551.03 1274.66 1547.69 Q1279.07 1544.36 1287.78 1544.36 L1296.74 1544.36 L1296.74 1543.73 Q1296.74 1539.32 1293.82 1536.93 Q1290.94 1534.5 1285.7 1534.5 Q1282.37 1534.5 1279.21 1535.3 Q1276.05 1536.1 1273.13 1537.69 L1273.13 1531.79 Q1276.64 1530.44 1279.94 1529.78 Q1283.23 1529.08 1286.36 1529.08 Q1294.8 1529.08 1298.96 1533.46 Q1303.13 1537.83 1303.13 1546.72 Z" fill="#000000" fill-rule="evenodd" fill-opacity="1" /><path clip-path="url(#clip000)" d="M1322.61 1518.98 L1322.61 1530.02 L1335.77 1530.02 L1335.77 1534.98 L1322.61 1534.98 L1322.61 1556.1 Q1322.61 1560.85 1323.89 1562.21 Q1325.21 1563.56 1329.21 1563.56 L1335.77 1563.56 L1335.77 1568.91 L1329.21 1568.91 Q1321.81 1568.91 1319 1566.16 Q1316.19 1563.39 1316.19 1556.1 L1316.19 1534.98 L1311.5 1534.98 L1311.5 1530.02 L1316.19 1530.02 L1316.19 1518.98 L1322.61 1518.98 Z" fill="#000000" fill-rule="evenodd" fill-opacity="1" /><path clip-path="url(#clip000)" d="M1344.17 1530.02 L1350.56 1530.02 L1350.56 1568.91 L1344.17 1568.91 L1344.17 1530.02 M1344.17 1514.88 L1350.56 1514.88 L1350.56 1522.97 L1344.17 1522.97 L1344.17 1514.88 Z" fill="#000000" fill-rule="evenodd" fill-opacity="1" /><path clip-path="url(#clip000)" d="M1379 1534.5 Q1373.86 1534.5 1370.87 1538.53 Q1367.89 1542.52 1367.89 1549.5 Q1367.89 1556.48 1370.84 1560.51 Q1373.82 1564.5 1379 1564.5 Q1384.1 1564.5 1387.09 1560.47 Q1390.07 1556.44 1390.07 1549.5 Q1390.07 1542.59 1387.09 1538.56 Q1384.1 1534.5 1379 1534.5 M1379 1529.08 Q1387.33 1529.08 1392.09 1534.5 Q1396.84 1539.91 1396.84 1549.5 Q1396.84 1559.05 1392.09 1564.5 Q1387.33 1569.91 1379 1569.91 Q1370.63 1569.91 1365.87 1564.5 Q1361.15 1559.05 1361.15 1549.5 Q1361.15 1539.91 1365.87 1534.5 Q1370.63 1529.08 1379 1529.08 Z" fill="#000000" fill-rule="evenodd" fill-opacity="1" /><path clip-path="url(#clip000)" d="M1439.76 1545.44 L1439.76 1568.91 L1433.37 1568.91 L1433.37 1545.64 Q1433.37 1540.12 1431.22 1537.38 Q1429.07 1534.64 1424.76 1534.64 Q1419.59 1534.64 1416.6 1537.94 Q1413.62 1541.23 1413.62 1546.93 L1413.62 1568.91 L1407.19 1568.91 L1407.19 1530.02 L1413.62 1530.02 L1413.62 1536.06 Q1415.91 1532.55 1419 1530.82 Q1422.12 1529.08 1426.18 1529.08 Q1432.89 1529.08 1436.32 1533.25 Q1439.76 1537.38 1439.76 1545.44 Z" fill="#000000" fill-rule="evenodd" fill-opacity="1" /><path clip-path="url(#clip000)" d="M1477.3 1531.16 L1477.3 1537.21 Q1474.59 1535.82 1471.67 1535.12 Q1468.75 1534.43 1465.63 1534.43 Q1460.87 1534.43 1458.48 1535.89 Q1456.11 1537.35 1456.11 1540.26 Q1456.11 1542.48 1457.82 1543.77 Q1459.52 1545.02 1464.66 1546.16 L1466.84 1546.65 Q1473.65 1548.11 1476.5 1550.78 Q1479.38 1553.42 1479.38 1558.18 Q1479.38 1563.6 1475.07 1566.76 Q1470.8 1569.91 1463.3 1569.91 Q1460.18 1569.91 1456.77 1569.29 Q1453.41 1568.7 1449.66 1567.48 L1449.66 1560.89 Q1453.2 1562.73 1456.64 1563.66 Q1460.07 1564.57 1463.44 1564.57 Q1467.96 1564.57 1470.39 1563.04 Q1472.82 1561.48 1472.82 1558.66 Q1472.82 1556.06 1471.05 1554.67 Q1469.31 1553.28 1463.37 1552 L1461.15 1551.48 Q1455.21 1550.23 1452.57 1547.66 Q1449.93 1545.05 1449.93 1540.54 Q1449.93 1535.05 1453.82 1532.07 Q1457.71 1529.08 1464.86 1529.08 Q1468.41 1529.08 1471.53 1529.6 Q1474.66 1530.12 1477.3 1531.16 Z" fill="#000000" fill-rule="evenodd" fill-opacity="1" /><polyline clip-path="url(#clip002)" style="stroke:#000000; stroke-linecap:round; stroke-linejoin:round; stroke-width:2; stroke-opacity:0.1; fill:none" points="
  277.774,1361.13 2352.76,1361.13 
  "/>
<polyline clip-path="url(#clip002)" style="stroke:#000000; stroke-linecap:round; stroke-linejoin:round; stroke-width:2; stroke-opacity:0.1; fill:none" points="
  277.774,1052.78 2352.76,1052.78 
  "/>
<polyline clip-path="url(#clip002)" style="stroke:#000000; stroke-linecap:round; stroke-linejoin:round; stroke-width:2; stroke-opacity:0.1; fill:none" points="
  277.774,744.424 2352.76,744.424 
  "/>
<polyline clip-path="url(#clip002)" style="stroke:#000000; stroke-linecap:round; stroke-linejoin:round; stroke-width:2; stroke-opacity:0.1; fill:none" points="
  277.774,436.072 2352.76,436.072 
  "/>
<polyline clip-path="url(#clip002)" style="stroke:#000000; stroke-linecap:round; stroke-linejoin:round; stroke-width:2; stroke-opacity:0.1; fill:none" points="
  277.774,127.719 2352.76,127.719 
  "/>
<polyline clip-path="url(#clip000)" style="stroke:#000000; stroke-linecap:round; stroke-linejoin:round; stroke-width:4; stroke-opacity:1; fill:none" points="
  277.774,1418.86 277.774,47.2441 
  "/>
<polyline clip-path="url(#clip000)" style="stroke:#000000; stroke-linecap:round; stroke-linejoin:round; stroke-width:4; stroke-opacity:1; fill:none" points="
  277.774,1361.13 296.672,1361.13 
  "/>
<polyline clip-path="url(#clip000)" style="stroke:#000000; stroke-linecap:round; stroke-linejoin:round; stroke-width:4; stroke-opacity:1; fill:none" points="
  277.774,1052.78 296.672,1052.78 
  "/>
<polyline clip-path="url(#clip000)" style="stroke:#000000; stroke-linecap:round; stroke-linejoin:round; stroke-width:4; stroke-opacity:1; fill:none" points="
  277.774,744.424 296.672,744.424 
  "/>
<polyline clip-path="url(#clip000)" style="stroke:#000000; stroke-linecap:round; stroke-linejoin:round; stroke-width:4; stroke-opacity:1; fill:none" points="
  277.774,436.072 296.672,436.072 
  "/>
<polyline clip-path="url(#clip000)" style="stroke:#000000; stroke-linecap:round; stroke-linejoin:round; stroke-width:4; stroke-opacity:1; fill:none" points="
  277.774,127.719 296.672,127.719 
  "/>
<path clip-path="url(#clip000)" d="M223.857 1339.83 Q218.441 1339.83 215.698 1345.17 Q212.989 1350.49 212.989 1361.18 Q212.989 1371.84 215.698 1377.19 Q218.441 1382.5 223.857 1382.5 Q229.309 1382.5 232.017 1377.19 Q234.76 1371.84 234.76 1361.18 Q234.76 1350.49 232.017 1345.17 Q229.309 1339.83 223.857 1339.83 M223.857 1334.27 Q232.573 1334.27 237.156 1341.18 Q241.774 1348.06 241.774 1361.18 Q241.774 1374.27 237.156 1381.18 Q232.573 1388.06 223.857 1388.06 Q215.142 1388.06 210.524 1381.18 Q205.941 1374.27 205.941 1361.18 Q205.941 1348.06 210.524 1341.18 Q215.142 1334.27 223.857 1334.27 Z" fill="#000000" fill-rule="evenodd" fill-opacity="1" /><path clip-path="url(#clip000)" d="M171.149 1072.79 L195.628 1072.79 L195.628 1078.7 L162.712 1078.7 L162.712 1072.79 Q166.705 1068.66 173.58 1061.72 Q180.49 1054.74 182.26 1052.72 Q185.628 1048.94 186.948 1046.34 Q188.302 1043.7 188.302 1041.16 Q188.302 1037.03 185.385 1034.43 Q182.503 1031.82 177.851 1031.82 Q174.552 1031.82 170.872 1032.97 Q167.226 1034.11 163.059 1036.44 L163.059 1029.36 Q167.295 1027.66 170.976 1026.79 Q174.656 1025.92 177.712 1025.92 Q185.767 1025.92 190.559 1029.95 Q195.351 1033.97 195.351 1040.71 Q195.351 1043.91 194.135 1046.79 Q192.955 1049.63 189.795 1053.52 Q188.927 1054.53 184.274 1059.36 Q179.621 1064.15 171.149 1072.79 Z" fill="#000000" fill-rule="evenodd" fill-opacity="1" /><path clip-path="url(#clip000)" d="M210.42 1026.86 L237.955 1026.86 L237.955 1032.76 L216.844 1032.76 L216.844 1045.47 Q218.371 1044.95 219.899 1044.7 Q221.427 1044.43 222.955 1044.43 Q231.635 1044.43 236.705 1049.18 Q241.774 1053.94 241.774 1062.07 Q241.774 1070.43 236.566 1075.09 Q231.357 1079.7 221.878 1079.7 Q218.614 1079.7 215.212 1079.15 Q211.844 1078.59 208.232 1077.48 L208.232 1070.43 Q211.357 1072.13 214.691 1072.97 Q218.024 1073.8 221.739 1073.8 Q227.746 1073.8 231.253 1070.64 Q234.76 1067.48 234.76 1062.07 Q234.76 1056.65 231.253 1053.49 Q227.746 1050.33 221.739 1050.33 Q218.927 1050.33 216.114 1050.95 Q213.337 1051.58 210.42 1052.9 L210.42 1026.86 Z" fill="#000000" fill-rule="evenodd" fill-opacity="1" /><path clip-path="url(#clip000)" d="M163.684 718.504 L191.219 718.504 L191.219 724.407 L170.108 724.407 L170.108 737.115 Q171.635 736.595 173.163 736.352 Q174.691 736.074 176.219 736.074 Q184.899 736.074 189.969 740.831 Q195.038 745.588 195.038 753.713 Q195.038 762.081 189.83 766.733 Q184.621 771.351 175.142 771.351 Q171.878 771.351 168.476 770.796 Q165.108 770.24 161.497 769.129 L161.497 762.081 Q164.622 763.782 167.955 764.615 Q171.288 765.449 175.003 765.449 Q181.01 765.449 184.517 762.289 Q188.024 759.129 188.024 753.713 Q188.024 748.296 184.517 745.136 Q181.01 741.977 175.003 741.977 Q172.191 741.977 169.378 742.602 Q166.601 743.226 163.684 744.546 L163.684 718.504 Z" fill="#000000" fill-rule="evenodd" fill-opacity="1" /><path clip-path="url(#clip000)" d="M223.857 723.122 Q218.441 723.122 215.698 728.47 Q212.989 733.782 212.989 744.476 Q212.989 755.136 215.698 760.483 Q218.441 765.796 223.857 765.796 Q229.309 765.796 232.017 760.483 Q234.76 755.136 234.76 744.476 Q234.76 733.782 232.017 728.47 Q229.309 723.122 223.857 723.122 M223.857 717.567 Q232.573 717.567 237.156 724.477 Q241.774 731.352 241.774 744.476 Q241.774 757.567 237.156 764.476 Q232.573 771.351 223.857 771.351 Q215.142 771.351 210.524 764.476 Q205.941 757.567 205.941 744.476 Q205.941 731.352 210.524 724.477 Q215.142 717.567 223.857 717.567 Z" fill="#000000" fill-rule="evenodd" fill-opacity="1" /><path clip-path="url(#clip000)" d="M163.337 410.152 L196.67 410.152 L196.67 413.138 L177.851 461.992 L170.524 461.992 L188.233 416.055 L163.337 416.055 L163.337 410.152 Z" fill="#000000" fill-rule="evenodd" fill-opacity="1" /><path clip-path="url(#clip000)" d="M210.42 410.152 L237.955 410.152 L237.955 416.055 L216.844 416.055 L216.844 428.763 Q218.371 428.242 219.899 427.999 Q221.427 427.721 222.955 427.721 Q231.635 427.721 236.705 432.478 Q241.774 437.235 241.774 445.36 Q241.774 453.728 236.566 458.381 Q231.357 462.999 221.878 462.999 Q218.614 462.999 215.212 462.443 Q211.844 461.888 208.232 460.777 L208.232 453.728 Q211.357 455.429 214.691 456.263 Q218.024 457.096 221.739 457.096 Q227.746 457.096 231.253 453.936 Q234.76 450.777 234.76 445.36 Q234.76 439.943 231.253 436.784 Q227.746 433.624 221.739 433.624 Q218.927 433.624 216.114 434.249 Q213.337 434.874 210.42 436.193 L210.42 410.152 Z" fill="#000000" fill-rule="evenodd" fill-opacity="1" /><path clip-path="url(#clip000)" d="M119.587 147.737 L131.045 147.737 L131.045 108.188 L118.58 110.688 L118.58 104.299 L130.976 101.799 L137.99 101.799 L137.99 147.737 L149.448 147.737 L149.448 153.639 L119.587 153.639 L119.587 147.737 Z" fill="#000000" fill-rule="evenodd" fill-opacity="1" /><path clip-path="url(#clip000)" d="M178.615 106.417 Q173.198 106.417 170.455 111.765 Q167.747 117.077 167.747 127.771 Q167.747 138.431 170.455 143.778 Q173.198 149.091 178.615 149.091 Q184.066 149.091 186.774 143.778 Q189.517 138.431 189.517 127.771 Q189.517 117.077 186.774 111.765 Q184.066 106.417 178.615 106.417 M178.615 100.862 Q187.33 100.862 191.913 107.772 Q196.531 114.647 196.531 127.771 Q196.531 140.862 191.913 147.771 Q187.33 154.646 178.615 154.646 Q169.899 154.646 165.281 147.771 Q160.698 140.862 160.698 127.771 Q160.698 114.647 165.281 107.772 Q169.899 100.862 178.615 100.862 Z" fill="#000000" fill-rule="evenodd" fill-opacity="1" /><path clip-path="url(#clip000)" d="M223.857 106.417 Q218.441 106.417 215.698 111.765 Q212.989 117.077 212.989 127.771 Q212.989 138.431 215.698 143.778 Q218.441 149.091 223.857 149.091 Q229.309 149.091 232.017 143.778 Q234.76 138.431 234.76 127.771 Q234.76 117.077 232.017 111.765 Q229.309 106.417 223.857 106.417 M223.857 100.862 Q232.573 100.862 237.156 107.772 Q241.774 114.647 241.774 127.771 Q241.774 140.862 237.156 147.771 Q232.573 154.646 223.857 154.646 Q215.142 154.646 210.524 147.771 Q205.941 140.862 205.941 127.771 Q205.941 114.647 210.524 107.772 Q215.142 100.862 223.857 100.862 Z" fill="#000000" fill-rule="evenodd" fill-opacity="1" /><path clip-path="url(#clip000)" d="M42.7227 834.163 Q43.4866 831.906 45.9866 829.788 Q48.4866 827.635 52.8616 825.482 L67.0282 818.364 L67.0282 825.899 L53.7296 832.531 Q48.5213 835.1 46.8199 837.531 Q45.1186 839.926 45.1186 844.093 L45.1186 851.732 L67.0282 851.732 L67.0282 858.746 L15.1882 858.746 L15.1882 842.912 Q15.1882 834.024 18.9034 829.649 Q22.6187 825.274 30.1186 825.274 Q35.0144 825.274 38.2436 827.565 Q41.4727 829.822 42.7227 834.163 M20.952 851.732 L39.3547 851.732 L39.3547 842.912 Q39.3547 837.843 37.0283 835.274 Q34.6672 832.669 30.1186 832.669 Q25.57 832.669 23.2784 835.274 Q20.952 837.843 20.952 842.912 L20.952 851.732 Z" fill="#000000" fill-rule="evenodd" fill-opacity="1" /><path clip-path="url(#clip000)" d="M45.9866 779.545 L49.1116 779.545 L49.1116 808.92 Q55.7088 808.503 59.181 804.961 Q62.6185 801.385 62.6185 795.031 Q62.6185 791.35 61.7157 787.913 Q60.8129 784.441 59.0074 781.038 L65.049 781.038 Q66.5073 784.475 67.2712 788.086 Q68.0351 791.697 68.0351 795.413 Q68.0351 804.718 62.6185 810.17 Q57.2018 815.586 47.9658 815.586 Q38.4172 815.586 32.827 810.447 Q27.202 805.274 27.202 796.524 Q27.202 788.677 32.2714 784.128 Q37.3061 779.545 45.9866 779.545 M44.1116 785.934 Q38.8686 786.003 35.7436 788.885 Q32.6186 791.732 32.6186 796.454 Q32.6186 801.802 35.6394 805.031 Q38.6603 808.225 44.1463 808.711 L44.1116 785.934 Z" fill="#000000" fill-rule="evenodd" fill-opacity="1" /><path clip-path="url(#clip000)" d="M28.1395 772.774 L28.1395 766.385 L58.4865 758.399 L28.1395 750.448 L28.1395 742.913 L58.4865 734.927 L28.1395 726.976 L28.1395 720.587 L67.0282 730.76 L67.0282 738.295 L35.1533 746.663 L67.0282 755.066 L67.0282 762.6 L28.1395 772.774 Z" fill="#000000" fill-rule="evenodd" fill-opacity="1" /><path clip-path="url(#clip000)" d="M47.4797 693.226 Q47.4797 700.969 49.2505 703.955 Q51.0213 706.941 55.2921 706.941 Q58.6949 706.941 60.7087 704.719 Q62.6879 702.462 62.6879 698.608 Q62.6879 693.295 58.9379 690.101 Q55.1532 686.872 48.9033 686.872 L47.4797 686.872 L47.4797 693.226 M44.8408 680.483 L67.0282 680.483 L67.0282 686.872 L61.1254 686.872 Q64.6671 689.059 66.3684 692.323 Q68.0351 695.587 68.0351 700.309 Q68.0351 706.281 64.7018 709.823 Q61.3337 713.33 55.7088 713.33 Q49.1463 713.33 45.813 708.955 Q42.4797 704.545 42.4797 695.83 L42.4797 686.872 L41.8547 686.872 Q37.445 686.872 35.0492 689.788 Q32.6186 692.67 32.6186 697.913 Q32.6186 701.247 33.4172 704.406 Q34.2158 707.566 35.813 710.483 L29.9103 710.483 Q28.5561 706.976 27.8964 703.677 Q27.202 700.379 27.202 697.254 Q27.202 688.816 31.577 684.649 Q35.9519 680.483 44.8408 680.483 Z" fill="#000000" fill-rule="evenodd" fill-opacity="1" /><path clip-path="url(#clip000)" d="M34.1117 644.789 Q33.4867 645.865 33.2089 647.15 Q32.8964 648.4 32.8964 649.927 Q32.8964 655.344 36.438 658.261 Q39.945 661.143 46.5422 661.143 L67.0282 661.143 L67.0282 667.566 L28.1395 667.566 L28.1395 661.143 L34.1811 661.143 Q30.6395 659.129 28.9381 655.9 Q27.202 652.67 27.202 648.052 Q27.202 647.393 27.3061 646.594 Q27.3756 645.795 27.5492 644.823 L34.1117 644.789 Z" fill="#000000" fill-rule="evenodd" fill-opacity="1" /><path clip-path="url(#clip000)" d="M34.0422 613.747 L13.0007 613.747 L13.0007 607.358 L67.0282 607.358 L67.0282 613.747 L61.1949 613.747 Q64.6671 615.761 66.3684 618.851 Q68.0351 621.907 68.0351 626.212 Q68.0351 633.261 62.4101 637.705 Q56.7852 642.115 47.6185 642.115 Q38.4519 642.115 32.827 637.705 Q27.202 633.261 27.202 626.212 Q27.202 621.907 28.9034 618.851 Q30.57 615.761 34.0422 613.747 M47.6185 635.518 Q54.6671 635.518 58.6949 632.636 Q62.6879 629.719 62.6879 624.65 Q62.6879 619.58 58.6949 616.664 Q54.6671 613.747 47.6185 613.747 Q40.57 613.747 36.5769 616.664 Q32.5492 619.58 32.5492 624.65 Q32.5492 629.719 36.5769 632.636 Q40.57 635.518 47.6185 635.518 Z" fill="#000000" fill-rule="evenodd" fill-opacity="1" /><polyline clip-path="url(#clip002)" style="stroke:#009af9; stroke-linecap:round; stroke-linejoin:round; stroke-width:4; stroke-opacity:1; fill:none" points="
  336.5,1380.04 341.406,1377.7 346.312,1375.25 351.218,1375.27 356.124,1371.19 361.03,1372.63 365.936,1369.68 370.842,1369.82 375.749,1370.56 380.655,1371.01 
  385.561,1368.83 390.467,1367.27 395.373,1367.15 400.279,1368.67 405.185,1367.84 410.091,1365.35 414.997,1365.97 419.903,1365.78 424.809,1365.12 429.716,1366.76 
  434.622,1366.44 439.528,1365.25 444.434,1366.16 449.34,1363.48 454.246,1367.18 459.152,1363.2 464.058,1362.45 468.964,1363.73 473.87,1359.64 478.776,1362.86 
  483.683,1361.59 488.589,1361.84 493.495,1362.17 498.401,1355.13 503.307,1358.53 508.213,1352.24 513.119,1353.74 518.025,1357.7 522.931,1346.67 527.837,1354.63 
  532.743,1351.83 537.65,1355.58 542.556,1348.85 547.462,1350.06 552.368,1347.4 557.274,1348.18 562.18,1341 567.086,1351.81 571.992,1336.44 576.898,1343.72 
  581.804,1335.58 586.71,1330.19 591.617,1347.67 596.523,1339.37 601.429,1339.4 606.335,1331.14 611.241,1342.87 616.147,1342.11 621.053,1314.56 625.959,1342.52 
  630.865,1324.4 635.771,1318.36 640.677,1322.79 645.584,1328.34 650.49,1319.24 655.396,1312.55 660.302,1317.39 665.208,1316.29 670.114,1313.47 675.02,1318.18 
  679.926,1303.13 684.832,1307.75 689.738,1293.42 694.644,1316.83 699.551,1289.53 704.457,1296.67 709.363,1291.65 714.269,1289.33 719.175,1290.3 724.081,1290.63 
  728.987,1275.36 733.893,1265.84 738.799,1255.77 743.705,1257.32 748.611,1256.59 753.518,1253.65 758.424,1224.03 763.33,1233.81 768.236,1238.84 773.142,1241.69 
  778.048,1221.82 782.954,1201.89 787.86,1212.26 792.766,1177.38 797.672,1189.07 802.578,1192.86 807.485,1178.91 812.391,1152.83 817.297,1138.72 822.203,1135.56 
  827.109,1131.58 832.015,1137.12 836.921,1119.36 841.827,1127.29 846.733,1094.94 851.639,1068.24 856.545,1052.68 861.452,1110.38 866.358,1022.47 871.264,1018.42 
  876.17,1020.94 881.076,992.506 885.982,969.468 890.888,945.649 895.794,917.341 900.7,880.666 905.606,851.412 910.512,792.998 915.419,782.028 920.325,714.695 
  925.231,700.537 930.137,672.282 935.043,625.904 939.949,577.761 944.855,574.872 949.761,479.329 954.667,520.831 959.573,501.252 964.479,472.095 969.386,439.209 
  974.292,432.213 979.198,376.779 984.104,403.108 989.01,389.037 993.916,359.21 998.822,364.305 1003.73,329.633 1008.63,345.95 1013.54,337.238 1018.45,305.606 
  1023.35,314.296 1028.26,281.677 1033.16,283.742 1038.07,293.321 1042.98,281.313 1047.88,281.422 1052.79,270.924 1057.7,274.119 1062.6,302.036 1067.51,267.992 
  1072.41,266.574 1077.32,282.512 1082.23,279.704 1087.13,269.057 1092.04,260.226 1096.94,247.593 1101.85,250.848 1106.76,267.566 1111.66,262.507 1116.57,250.484 
  1121.47,234.546 1126.38,249.468 1131.29,239.614 1136.19,228.096 1141.1,230.05 1146,206.859 1150.91,212.61 1155.82,228.48 1160.72,221.907 1165.63,211.859 
  1170.54,206.991 1175.44,208.599 1180.35,200.128 1185.25,202.882 1190.16,194.199 1195.07,197.591 1199.97,199.889 1204.88,213.822 1209.78,212.269 1214.69,196.851 
  1219.6,199.616 1224.5,197.889 1229.41,192.625 1234.31,202.68 1239.22,194.641 1244.13,200.324 1249.03,192.611 1253.94,186.306 1258.84,193.265 1263.75,181.906 
  1268.66,188.604 1273.56,179.458 1278.47,180.389 1283.38,182.835 1288.28,185.293 1293.19,187.053 1298.09,182.094 1303,192.488 1307.91,186.963 1312.81,183.211 
  1317.72,183.496 1322.62,190.278 1327.53,200.865 1332.44,181.947 1337.34,183.828 1342.25,189.024 1347.15,186.323 1352.06,180.812 1356.97,176.233 1361.87,177.845 
  1366.78,164.81 1371.68,173.877 1376.59,164.188 1381.5,169.973 1386.4,176.578 1391.31,173.735 1396.22,169.416 1401.12,176.599 1406.03,174.917 1410.93,165.035 
  1415.84,168.617 1420.75,136.959 1425.65,152.718 1430.56,149.011 1435.46,137.524 1440.37,146.802 1445.28,158.191 1450.18,156.774 1455.09,159.685 1459.99,151.206 
  1464.9,146.478 1469.81,147.094 1474.71,150.777 1479.62,148.344 1484.53,141.357 1489.43,158.158 1494.34,141.434 1499.24,143.678 1504.15,130.735 1509.06,160.659 
  1513.96,151.784 1518.87,153.936 1523.77,163.052 1528.68,155.174 1533.59,130.183 1538.49,135.391 1543.4,152.124 1548.3,148.524 1553.21,142.894 1558.12,150.683 
  1563.02,126.215 1567.93,127.161 1572.83,133.07 1577.74,135.748 1582.65,145.273 1587.55,138.587 1592.46,127.574 1597.37,147.768 1602.27,148.297 1607.18,136.723 
  1612.08,135.189 1616.99,140.271 1621.9,128.834 1626.8,127.723 1631.71,152.251 1636.61,144.515 1641.52,134.043 1646.43,115.2 1651.33,126.606 1656.24,134.164 
  1661.14,119.601 1666.05,121.759 1670.96,130.502 1675.86,130.931 1680.77,123.768 1685.67,139.221 1690.58,147.29 1695.49,149.967 1700.39,132.936 1705.3,106.911 
  1710.21,137.17 1715.11,118.458 1720.02,114.709 1724.92,112.84 1729.83,111.56 1734.74,122.924 1739.64,124.813 1744.55,136.191 1749.45,108.639 1754.36,121.186 
  1759.27,118.919 1764.17,119.864 1769.08,117.157 1773.98,118.288 1778.89,125.064 1783.8,141.015 1788.7,128.05 1793.61,131.887 1798.51,113.523 1803.42,112.365 
  1808.33,121.783 1813.23,119.228 1818.14,119.256 1823.05,115.453 1827.95,110.067 1832.86,108.741 1837.76,113.306 1842.67,109.572 1847.58,111.366 1852.48,105.8 
  1857.39,108.135 1862.29,88.6614 1867.2,100.712 1872.11,100.855 1877.01,118.681 1881.92,125.254 1886.82,123.462 1891.73,109.362 1896.64,120.206 1901.54,98.4137 
  1906.45,117.719 1911.35,103.503 1916.26,106.399 1921.17,120.17 1926.07,122.975 1930.98,129.823 1935.89,129.833 1940.79,129.009 1945.7,131.478 1950.6,99.8408 
  1955.51,120.648 1960.42,124.253 1965.32,112.06 1970.23,108.625 1975.13,124.481 1980.04,103.608 1984.95,128.721 1989.85,106.472 1994.76,135.388 1999.66,118.6 
  2004.57,103.204 2009.48,106.878 2014.38,86.0634 2019.29,101.372 2024.2,103.297 2029.1,111.389 2034.01,99.3597 2038.91,93.6672 2043.82,109.324 2048.73,117.65 
  2053.63,104.473 2058.54,95.2604 2063.44,105.701 2068.35,108.714 2073.26,105.362 2078.16,117.365 2083.07,110.174 2087.97,109.195 2092.88,118.336 2097.79,127.366 
  2102.69,116.005 2107.6,150.336 2112.5,146.076 2117.41,110.205 2122.32,118.05 2127.22,131.305 2132.13,141.412 2137.04,124.14 2141.94,123.264 2146.85,129.311 
  2151.75,111.326 2156.66,130.825 2161.57,118.417 2166.47,128.381 2171.38,143.516 2176.28,117.798 2181.19,119.883 2186.1,115.225 2191,112.421 2195.91,111.532 
  2200.81,117.294 2205.72,101.789 2210.63,98.2996 2215.53,104.133 2220.44,113.336 2225.34,121.469 2230.25,103.701 2235.16,111.902 2240.06,99.3895 2244.97,102.602 
  2249.88,93.7296 2254.78,107.456 2259.69,99.5225 2264.59,103.646 2269.5,92.6893 2274.41,99.4593 2279.31,119.98 2284.22,89.8965 2289.12,111.799 2294.03,109.085 
  
  "/>
<path clip-path="url(#clip000)" d="
M1700.99 817.652 L2283.59 817.652 L2283.59 662.132 L1700.99 662.132  Z
  " fill="#ffffff" fill-rule="evenodd" fill-opacity="1"/>
<polyline clip-path="url(#clip000)" style="stroke:#000000; stroke-linecap:round; stroke-linejoin:round; stroke-width:4; stroke-opacity:1; fill:none" points="
  1700.99,817.652 2283.59,817.652 2283.59,662.132 1700.99,662.132 1700.99,817.652 
  "/>
<polyline clip-path="url(#clip000)" style="stroke:#009af9; stroke-linecap:round; stroke-linejoin:round; stroke-width:6; stroke-opacity:1; fill:none" points="
  1724.04,739.892 1862.38,739.892 
  "/>
<path clip-path="url(#clip000)" d="M1913.07 728.07 L1913.07 734.111 Q1910.36 732.722 1907.45 732.028 Q1904.53 731.334 1901.4 731.334 Q1896.65 731.334 1894.25 732.792 Q1891.89 734.25 1891.89 737.167 Q1891.89 739.389 1893.59 740.674 Q1895.29 741.924 1900.43 743.07 L1902.62 743.556 Q1909.43 745.014 1912.27 747.688 Q1915.15 750.326 1915.15 755.083 Q1915.15 760.5 1910.85 763.66 Q1906.58 766.819 1899.08 766.819 Q1895.95 766.819 1892.55 766.194 Q1889.18 765.604 1885.43 764.389 L1885.43 757.792 Q1888.97 759.632 1892.41 760.569 Q1895.85 761.472 1899.22 761.472 Q1903.73 761.472 1906.16 759.944 Q1908.59 758.382 1908.59 755.569 Q1908.59 752.965 1906.82 751.576 Q1905.09 750.188 1899.15 748.903 L1896.93 748.382 Q1890.99 747.132 1888.35 744.563 Q1885.71 741.958 1885.71 737.445 Q1885.71 731.959 1889.6 728.972 Q1893.49 725.986 1900.64 725.986 Q1904.18 725.986 1907.31 726.507 Q1910.43 727.028 1913.07 728.07 Z" fill="#000000" fill-rule="evenodd" fill-opacity="1" /><path clip-path="url(#clip000)" d="M1925.33 711.785 L1931.72 711.785 L1931.72 765.812 L1925.33 765.812 L1925.33 711.785 Z" fill="#000000" fill-rule="evenodd" fill-opacity="1" /><path clip-path="url(#clip000)" d="M1960.15 731.403 Q1955.02 731.403 1952.03 735.431 Q1949.04 739.424 1949.04 746.403 Q1949.04 753.382 1951.99 757.41 Q1954.98 761.403 1960.15 761.403 Q1965.26 761.403 1968.24 757.375 Q1971.23 753.347 1971.23 746.403 Q1971.23 739.493 1968.24 735.465 Q1965.26 731.403 1960.15 731.403 M1960.15 725.986 Q1968.49 725.986 1973.24 731.403 Q1978 736.82 1978 746.403 Q1978 755.951 1973.24 761.403 Q1968.49 766.819 1960.15 766.819 Q1951.79 766.819 1947.03 761.403 Q1942.31 755.951 1942.31 746.403 Q1942.31 736.82 1947.03 731.403 Q1951.79 725.986 1960.15 725.986 Z" fill="#000000" fill-rule="evenodd" fill-opacity="1" /><path clip-path="url(#clip000)" d="M1984.88 726.924 L1991.27 726.924 L1999.25 757.271 L2007.2 726.924 L2014.74 726.924 L2022.72 757.271 L2030.67 726.924 L2037.06 726.924 L2026.89 765.812 L2019.36 765.812 L2010.99 733.938 L2002.58 765.812 L1995.05 765.812 L1984.88 726.924 Z" fill="#000000" fill-rule="evenodd" fill-opacity="1" /><path clip-path="url(#clip000)" d="M2099.63 734.389 Q2102.03 730.084 2105.36 728.035 Q2108.7 725.986 2113.21 725.986 Q2119.29 725.986 2122.58 730.257 Q2125.88 734.493 2125.88 742.34 L2125.88 765.812 L2119.46 765.812 L2119.46 742.549 Q2119.46 736.958 2117.48 734.25 Q2115.5 731.542 2111.44 731.542 Q2106.47 731.542 2103.59 734.84 Q2100.71 738.139 2100.71 743.833 L2100.71 765.812 L2094.29 765.812 L2094.29 742.549 Q2094.29 736.924 2092.31 734.25 Q2090.33 731.542 2086.2 731.542 Q2081.3 731.542 2078.42 734.875 Q2075.54 738.174 2075.54 743.833 L2075.54 765.812 L2069.11 765.812 L2069.11 726.924 L2075.54 726.924 L2075.54 732.965 Q2077.72 729.389 2080.78 727.688 Q2083.83 725.986 2088.04 725.986 Q2092.27 725.986 2095.22 728.139 Q2098.21 730.292 2099.63 734.389 Z" fill="#000000" fill-rule="evenodd" fill-opacity="1" /><path clip-path="url(#clip000)" d="M2153.69 731.403 Q2148.56 731.403 2145.57 735.431 Q2142.58 739.424 2142.58 746.403 Q2142.58 753.382 2145.54 757.41 Q2148.52 761.403 2153.69 761.403 Q2158.8 761.403 2161.79 757.375 Q2164.77 753.347 2164.77 746.403 Q2164.77 739.493 2161.79 735.465 Q2158.8 731.403 2153.69 731.403 M2153.69 725.986 Q2162.03 725.986 2166.78 731.403 Q2171.54 736.82 2171.54 746.403 Q2171.54 755.951 2166.78 761.403 Q2162.03 766.819 2153.69 766.819 Q2145.33 766.819 2140.57 761.403 Q2135.85 755.951 2135.85 746.403 Q2135.85 736.82 2140.57 731.403 Q2145.33 725.986 2153.69 725.986 Z" fill="#000000" fill-rule="evenodd" fill-opacity="1" /><path clip-path="url(#clip000)" d="M2207.72 732.827 L2207.72 711.785 L2214.11 711.785 L2214.11 765.812 L2207.72 765.812 L2207.72 759.979 Q2205.71 763.451 2202.62 765.153 Q2199.56 766.819 2195.26 766.819 Q2188.21 766.819 2183.76 761.194 Q2179.35 755.569 2179.35 746.403 Q2179.35 737.236 2183.76 731.611 Q2188.21 725.986 2195.26 725.986 Q2199.56 725.986 2202.62 727.688 Q2205.71 729.354 2207.72 732.827 M2185.95 746.403 Q2185.95 753.451 2188.83 757.479 Q2191.75 761.472 2196.82 761.472 Q2201.89 761.472 2204.81 757.479 Q2207.72 753.451 2207.72 746.403 Q2207.72 739.354 2204.81 735.361 Q2201.89 731.334 2196.82 731.334 Q2191.75 731.334 2188.83 735.361 Q2185.95 739.354 2185.95 746.403 Z" fill="#000000" fill-rule="evenodd" fill-opacity="1" /><path clip-path="url(#clip000)" d="M2260.53 744.771 L2260.53 747.896 L2231.16 747.896 Q2231.58 754.493 2235.12 757.965 Q2238.69 761.403 2245.05 761.403 Q2248.73 761.403 2252.17 760.5 Q2255.64 759.597 2259.04 757.792 L2259.04 763.833 Q2255.6 765.292 2251.99 766.056 Q2248.38 766.819 2244.67 766.819 Q2235.36 766.819 2229.91 761.403 Q2224.49 755.986 2224.49 746.75 Q2224.49 737.202 2229.63 731.611 Q2234.81 725.986 2243.56 725.986 Q2251.4 725.986 2255.95 731.056 Q2260.53 736.09 2260.53 744.771 M2254.15 742.896 Q2254.08 737.653 2251.19 734.528 Q2248.35 731.403 2243.62 731.403 Q2238.28 731.403 2235.05 734.424 Q2231.85 737.445 2231.37 742.931 L2254.15 742.896 Z" fill="#000000" fill-rule="evenodd" fill-opacity="1" /></svg>
