<?xml version="1.0" encoding="utf-8"?>
<svg xmlns="http://www.w3.org/2000/svg" xmlns:xlink="http://www.w3.org/1999/xlink" width="600" height="400" viewBox="0 0 2400 1600">
<defs>
  <clipPath id="clip520">
    <rect x="0" y="0" width="2400" height="1600"/>
  </clipPath>
</defs>
<path clip-path="url(#clip520)" d="
M0 1600 L2400 1600 L2400 0 L0 0  Z
  " fill="#ffffff" fill-rule="evenodd" fill-opacity="1"/>
<defs>
  <clipPath id="clip521">
    <rect x="480" y="0" width="1681" height="1600"/>
  </clipPath>
</defs>
<path clip-path="url(#clip520)" d="
M249.542 1410.9 L2352.76 1410.9 L2352.76 47.2441 L249.542 47.2441  Z
  " fill="#ffffff" fill-rule="evenodd" fill-opacity="1"/>
<defs>
  <clipPath id="clip522">
    <rect x="249" y="47" width="2104" height="1365"/>
  </clipPath>
</defs>
<polyline clip-path="url(#clip522)" style="stroke:#000000; stroke-linecap:butt; stroke-linejoin:round; stroke-width:2; stroke-opacity:0.1; fill:none" points="
  726.786,1410.9 726.786,47.2441 
  "/>
<polyline clip-path="url(#clip522)" style="stroke:#000000; stroke-linecap:butt; stroke-linejoin:round; stroke-width:2; stroke-opacity:0.1; fill:none" points="
  1248.93,1410.9 1248.93,47.2441 
  "/>
<polyline clip-path="url(#clip522)" style="stroke:#000000; stroke-linecap:butt; stroke-linejoin:round; stroke-width:2; stroke-opacity:0.1; fill:none" points="
  1771.08,1410.9 1771.08,47.2441 
  "/>
<polyline clip-path="url(#clip522)" style="stroke:#000000; stroke-linecap:butt; stroke-linejoin:round; stroke-width:2; stroke-opacity:0.1; fill:none" points="
  2293.23,1410.9 2293.23,47.2441 
  "/>
<polyline clip-path="url(#clip520)" style="stroke:#000000; stroke-linecap:butt; stroke-linejoin:round; stroke-width:4; stroke-opacity:1; fill:none" points="
  249.542,1410.9 2352.76,1410.9 
  "/>
<polyline clip-path="url(#clip520)" style="stroke:#000000; stroke-linecap:butt; stroke-linejoin:round; stroke-width:4; stroke-opacity:1; fill:none" points="
  726.786,1410.9 726.786,1392 
  "/>
<polyline clip-path="url(#clip520)" style="stroke:#000000; stroke-linecap:butt; stroke-linejoin:round; stroke-width:4; stroke-opacity:1; fill:none" points="
  1248.93,1410.9 1248.93,1392 
  "/>
<polyline clip-path="url(#clip520)" style="stroke:#000000; stroke-linecap:butt; stroke-linejoin:round; stroke-width:4; stroke-opacity:1; fill:none" points="
  1771.08,1410.9 1771.08,1392 
  "/>
<polyline clip-path="url(#clip520)" style="stroke:#000000; stroke-linecap:butt; stroke-linejoin:round; stroke-width:4; stroke-opacity:1; fill:none" points="
  2293.23,1410.9 2293.23,1392 
  "/>
<path clip-path="url(#clip520)" d="M619.762 1454.4 L638.119 1454.4 L638.119 1458.33 L624.045 1458.33 L624.045 1466.8 Q625.063 1466.46 626.082 1466.29 Q627.1 1466.11 628.119 1466.11 Q633.906 1466.11 637.285 1469.28 Q640.665 1472.45 640.665 1477.87 Q640.665 1483.45 637.193 1486.55 Q633.721 1489.63 627.401 1489.63 Q625.225 1489.63 622.957 1489.26 Q620.711 1488.89 618.304 1488.15 L618.304 1483.45 Q620.387 1484.58 622.609 1485.14 Q624.832 1485.69 627.309 1485.69 Q631.313 1485.69 633.651 1483.59 Q635.989 1481.48 635.989 1477.87 Q635.989 1474.26 633.651 1472.15 Q631.313 1470.04 627.309 1470.04 Q625.434 1470.04 623.559 1470.46 Q621.707 1470.88 619.762 1471.76 L619.762 1454.4 Z" fill="#000000" fill-rule="evenodd" fill-opacity="1" /><path clip-path="url(#clip520)" d="M649.878 1483.08 L654.762 1483.08 L654.762 1488.96 L649.878 1488.96 L649.878 1483.08 Z" fill="#000000" fill-rule="evenodd" fill-opacity="1" /><path clip-path="url(#clip520)" d="M674.947 1457.48 Q671.336 1457.48 669.507 1461.04 Q667.702 1464.58 667.702 1471.71 Q667.702 1478.82 669.507 1482.38 Q671.336 1485.92 674.947 1485.92 Q678.581 1485.92 680.387 1482.38 Q682.216 1478.82 682.216 1471.71 Q682.216 1464.58 680.387 1461.04 Q678.581 1457.48 674.947 1457.48 M674.947 1453.77 Q680.757 1453.77 683.813 1458.38 Q686.892 1462.96 686.892 1471.71 Q686.892 1480.44 683.813 1485.04 Q680.757 1489.63 674.947 1489.63 Q669.137 1489.63 666.058 1485.04 Q663.003 1480.44 663.003 1471.71 Q663.003 1462.96 666.058 1458.38 Q669.137 1453.77 674.947 1453.77 Z" fill="#000000" fill-rule="evenodd" fill-opacity="1" /><path clip-path="url(#clip520)" d="M705.109 1457.48 Q701.498 1457.48 699.669 1461.04 Q697.864 1464.58 697.864 1471.71 Q697.864 1478.82 699.669 1482.38 Q701.498 1485.92 705.109 1485.92 Q708.743 1485.92 710.549 1482.38 Q712.377 1478.82 712.377 1471.71 Q712.377 1464.58 710.549 1461.04 Q708.743 1457.48 705.109 1457.48 M705.109 1453.77 Q710.919 1453.77 713.975 1458.38 Q717.053 1462.96 717.053 1471.71 Q717.053 1480.44 713.975 1485.04 Q710.919 1489.63 705.109 1489.63 Q699.299 1489.63 696.22 1485.04 Q693.165 1480.44 693.165 1471.71 Q693.165 1462.96 696.22 1458.38 Q699.299 1453.77 705.109 1453.77 Z" fill="#000000" fill-rule="evenodd" fill-opacity="1" /><path clip-path="url(#clip520)" d="M753.442 1463.49 L742.863 1474.12 L753.442 1484.7 L750.687 1487.5 L740.063 1476.87 L729.438 1487.5 L726.706 1484.7 L737.262 1474.12 L726.706 1463.49 L729.438 1460.69 L740.063 1471.32 L750.687 1460.69 L753.442 1463.49 Z" fill="#000000" fill-rule="evenodd" fill-opacity="1" /><path clip-path="url(#clip520)" d="M765.803 1485.02 L773.442 1485.02 L773.442 1458.66 L765.132 1460.32 L765.132 1456.06 L773.396 1454.4 L778.072 1454.4 L778.072 1485.02 L785.71 1485.02 L785.71 1488.96 L765.803 1488.96 L765.803 1485.02 Z" fill="#000000" fill-rule="evenodd" fill-opacity="1" /><path clip-path="url(#clip520)" d="M805.155 1457.48 Q801.544 1457.48 799.715 1461.04 Q797.909 1464.58 797.909 1471.71 Q797.909 1478.82 799.715 1482.38 Q801.544 1485.92 805.155 1485.92 Q808.789 1485.92 810.595 1482.38 Q812.423 1478.82 812.423 1471.71 Q812.423 1464.58 810.595 1461.04 Q808.789 1457.48 805.155 1457.48 M805.155 1453.77 Q810.965 1453.77 814.02 1458.38 Q817.099 1462.96 817.099 1471.71 Q817.099 1480.44 814.02 1485.04 Q810.965 1489.63 805.155 1489.63 Q799.345 1489.63 796.266 1485.04 Q793.21 1480.44 793.21 1471.71 Q793.21 1462.96 796.266 1458.38 Q799.345 1453.77 805.155 1453.77 Z" fill="#000000" fill-rule="evenodd" fill-opacity="1" /><path clip-path="url(#clip520)" d="M818.284 1433.47 L833.199 1433.47 L833.199 1436.66 L821.763 1436.66 L821.763 1443.55 Q822.591 1443.27 823.419 1443.13 Q824.246 1442.98 825.074 1442.98 Q829.776 1442.98 832.522 1445.56 Q835.267 1448.14 835.267 1452.54 Q835.267 1457.07 832.446 1459.59 Q829.625 1462.09 824.491 1462.09 Q822.723 1462.09 820.88 1461.79 Q819.055 1461.49 817.099 1460.89 L817.099 1457.07 Q818.792 1457.99 820.597 1458.44 Q822.403 1458.89 824.415 1458.89 Q827.669 1458.89 829.569 1457.18 Q831.468 1455.47 831.468 1452.54 Q831.468 1449.6 829.569 1447.89 Q827.669 1446.18 824.415 1446.18 Q822.892 1446.18 821.369 1446.52 Q819.864 1446.86 818.284 1447.57 L818.284 1433.47 Z" fill="#000000" fill-rule="evenodd" fill-opacity="1" /><path clip-path="url(#clip520)" d="M1141.29 1485.02 L1148.93 1485.02 L1148.93 1458.66 L1140.62 1460.32 L1140.62 1456.06 L1148.88 1454.4 L1153.56 1454.4 L1153.56 1485.02 L1161.2 1485.02 L1161.2 1488.96 L1141.29 1488.96 L1141.29 1485.02 Z" fill="#000000" fill-rule="evenodd" fill-opacity="1" /><path clip-path="url(#clip520)" d="M1170.64 1483.08 L1175.52 1483.08 L1175.52 1488.96 L1170.64 1488.96 L1170.64 1483.08 Z" fill="#000000" fill-rule="evenodd" fill-opacity="1" /><path clip-path="url(#clip520)" d="M1195.71 1457.48 Q1192.1 1457.48 1190.27 1461.04 Q1188.46 1464.58 1188.46 1471.71 Q1188.46 1478.82 1190.27 1482.38 Q1192.1 1485.92 1195.71 1485.92 Q1199.34 1485.92 1201.15 1482.38 Q1202.98 1478.82 1202.98 1471.71 Q1202.98 1464.58 1201.15 1461.04 Q1199.34 1457.48 1195.71 1457.48 M1195.71 1453.77 Q1201.52 1453.77 1204.57 1458.38 Q1207.65 1462.96 1207.65 1471.71 Q1207.65 1480.44 1204.57 1485.04 Q1201.52 1489.63 1195.71 1489.63 Q1189.9 1489.63 1186.82 1485.04 Q1183.76 1480.44 1183.76 1471.71 Q1183.76 1462.96 1186.82 1458.38 Q1189.9 1453.77 1195.71 1453.77 Z" fill="#000000" fill-rule="evenodd" fill-opacity="1" /><path clip-path="url(#clip520)" d="M1225.87 1457.48 Q1222.26 1457.48 1220.43 1461.04 Q1218.63 1464.58 1218.63 1471.71 Q1218.63 1478.82 1220.43 1482.38 Q1222.26 1485.92 1225.87 1485.92 Q1229.5 1485.92 1231.31 1482.38 Q1233.14 1478.82 1233.14 1471.71 Q1233.14 1464.58 1231.31 1461.04 Q1229.5 1457.48 1225.87 1457.48 M1225.87 1453.77 Q1231.68 1453.77 1234.74 1458.38 Q1237.82 1462.96 1237.82 1471.71 Q1237.82 1480.44 1234.74 1485.04 Q1231.68 1489.63 1225.87 1489.63 Q1220.06 1489.63 1216.98 1485.04 Q1213.93 1480.44 1213.93 1471.71 Q1213.93 1462.96 1216.98 1458.38 Q1220.06 1453.77 1225.87 1453.77 Z" fill="#000000" fill-rule="evenodd" fill-opacity="1" /><path clip-path="url(#clip520)" d="M1274.2 1463.49 L1263.63 1474.12 L1274.2 1484.7 L1271.45 1487.5 L1260.82 1476.87 L1250.2 1487.5 L1247.47 1484.7 L1258.02 1474.12 L1247.47 1463.49 L1250.2 1460.69 L1260.82 1471.32 L1271.45 1460.69 L1274.2 1463.49 Z" fill="#000000" fill-rule="evenodd" fill-opacity="1" /><path clip-path="url(#clip520)" d="M1286.56 1485.02 L1294.2 1485.02 L1294.2 1458.66 L1285.89 1460.32 L1285.89 1456.06 L1294.16 1454.4 L1298.83 1454.4 L1298.83 1485.02 L1306.47 1485.02 L1306.47 1488.96 L1286.56 1488.96 L1286.56 1485.02 Z" fill="#000000" fill-rule="evenodd" fill-opacity="1" /><path clip-path="url(#clip520)" d="M1325.92 1457.48 Q1322.31 1457.48 1320.48 1461.04 Q1318.67 1464.58 1318.67 1471.71 Q1318.67 1478.82 1320.48 1482.38 Q1322.31 1485.92 1325.92 1485.92 Q1329.55 1485.92 1331.36 1482.38 Q1333.18 1478.82 1333.18 1471.71 Q1333.18 1464.58 1331.36 1461.04 Q1329.55 1457.48 1325.92 1457.48 M1325.92 1453.77 Q1331.73 1453.77 1334.78 1458.38 Q1337.86 1462.96 1337.86 1471.71 Q1337.86 1480.44 1334.78 1485.04 Q1331.73 1489.63 1325.92 1489.63 Q1320.11 1489.63 1317.03 1485.04 Q1313.97 1480.44 1313.97 1471.71 Q1313.97 1462.96 1317.03 1458.38 Q1320.11 1453.77 1325.92 1453.77 Z" fill="#000000" fill-rule="evenodd" fill-opacity="1" /><path clip-path="url(#clip520)" d="M1347.89 1445.99 Q1345.33 1445.99 1343.82 1447.74 Q1342.34 1449.49 1342.34 1452.54 Q1342.34 1455.57 1343.82 1457.33 Q1345.33 1459.08 1347.89 1459.08 Q1350.44 1459.08 1351.93 1457.33 Q1353.43 1455.57 1353.43 1452.54 Q1353.43 1449.49 1351.93 1447.74 Q1350.44 1445.99 1347.89 1445.99 M1355.43 1434.09 L1355.43 1437.55 Q1354 1436.87 1352.53 1436.51 Q1351.08 1436.16 1349.65 1436.16 Q1345.89 1436.16 1343.9 1438.69 Q1341.92 1441.23 1341.64 1446.37 Q1342.75 1444.73 1344.42 1443.87 Q1346.1 1442.98 1348.11 1442.98 Q1352.34 1442.98 1354.79 1445.56 Q1357.25 1448.12 1357.25 1452.54 Q1357.25 1456.86 1354.69 1459.48 Q1352.14 1462.09 1347.89 1462.09 Q1343.01 1462.09 1340.44 1458.37 Q1337.86 1454.62 1337.86 1447.53 Q1337.86 1440.88 1341.02 1436.93 Q1344.18 1432.96 1349.5 1432.96 Q1350.93 1432.96 1352.38 1433.24 Q1353.85 1433.52 1355.43 1434.09 Z" fill="#000000" fill-rule="evenodd" fill-opacity="1" /><path clip-path="url(#clip520)" d="M1663.44 1485.02 L1671.08 1485.02 L1671.08 1458.66 L1662.76 1460.32 L1662.76 1456.06 L1671.03 1454.4 L1675.7 1454.4 L1675.7 1485.02 L1683.34 1485.02 L1683.34 1488.96 L1663.44 1488.96 L1663.44 1485.02 Z" fill="#000000" fill-rule="evenodd" fill-opacity="1" /><path clip-path="url(#clip520)" d="M1692.79 1483.08 L1697.67 1483.08 L1697.67 1488.96 L1692.79 1488.96 L1692.79 1483.08 Z" fill="#000000" fill-rule="evenodd" fill-opacity="1" /><path clip-path="url(#clip520)" d="M1707.9 1454.4 L1726.26 1454.4 L1726.26 1458.33 L1712.19 1458.33 L1712.19 1466.8 Q1713.2 1466.46 1714.22 1466.29 Q1715.24 1466.11 1716.26 1466.11 Q1722.05 1466.11 1725.43 1469.28 Q1728.81 1472.45 1728.81 1477.87 Q1728.81 1483.45 1725.33 1486.55 Q1721.86 1489.63 1715.54 1489.63 Q1713.37 1489.63 1711.1 1489.26 Q1708.85 1488.89 1706.45 1488.15 L1706.45 1483.45 Q1708.53 1484.58 1710.75 1485.14 Q1712.97 1485.69 1715.45 1485.69 Q1719.45 1485.69 1721.79 1483.59 Q1724.13 1481.48 1724.13 1477.87 Q1724.13 1474.26 1721.79 1472.15 Q1719.45 1470.04 1715.45 1470.04 Q1713.57 1470.04 1711.7 1470.46 Q1709.85 1470.88 1707.9 1471.76 L1707.9 1454.4 Z" fill="#000000" fill-rule="evenodd" fill-opacity="1" /><path clip-path="url(#clip520)" d="M1748.02 1457.48 Q1744.41 1457.48 1742.58 1461.04 Q1740.77 1464.58 1740.77 1471.71 Q1740.77 1478.82 1742.58 1482.38 Q1744.41 1485.92 1748.02 1485.92 Q1751.65 1485.92 1753.46 1482.38 Q1755.29 1478.82 1755.29 1471.71 Q1755.29 1464.58 1753.46 1461.04 Q1751.65 1457.48 1748.02 1457.48 M1748.02 1453.77 Q1753.83 1453.77 1756.88 1458.38 Q1759.96 1462.96 1759.96 1471.71 Q1759.96 1480.44 1756.88 1485.04 Q1753.83 1489.63 1748.02 1489.63 Q1742.21 1489.63 1739.13 1485.04 Q1736.07 1480.44 1736.07 1471.71 Q1736.07 1462.96 1739.13 1458.38 Q1742.21 1453.77 1748.02 1453.77 Z" fill="#000000" fill-rule="evenodd" fill-opacity="1" /><path clip-path="url(#clip520)" d="M1796.35 1463.49 L1785.77 1474.12 L1796.35 1484.7 L1793.6 1487.5 L1782.97 1476.87 L1772.35 1487.5 L1769.62 1484.7 L1780.17 1474.12 L1769.62 1463.49 L1772.35 1460.69 L1782.97 1471.32 L1793.6 1460.69 L1796.35 1463.49 Z" fill="#000000" fill-rule="evenodd" fill-opacity="1" /><path clip-path="url(#clip520)" d="M1808.71 1485.02 L1816.35 1485.02 L1816.35 1458.66 L1808.04 1460.32 L1808.04 1456.06 L1816.31 1454.4 L1820.98 1454.4 L1820.98 1485.02 L1828.62 1485.02 L1828.62 1488.96 L1808.71 1488.96 L1808.71 1485.02 Z" fill="#000000" fill-rule="evenodd" fill-opacity="1" /><path clip-path="url(#clip520)" d="M1848.06 1457.48 Q1844.45 1457.48 1842.63 1461.04 Q1840.82 1464.58 1840.82 1471.71 Q1840.82 1478.82 1842.63 1482.38 Q1844.45 1485.92 1848.06 1485.92 Q1851.7 1485.92 1853.5 1482.38 Q1855.33 1478.82 1855.33 1471.71 Q1855.33 1464.58 1853.5 1461.04 Q1851.7 1457.48 1848.06 1457.48 M1848.06 1453.77 Q1853.88 1453.77 1856.93 1458.38 Q1860.01 1462.96 1860.01 1471.71 Q1860.01 1480.44 1856.93 1485.04 Q1853.88 1489.63 1848.06 1489.63 Q1842.25 1489.63 1839.18 1485.04 Q1836.12 1480.44 1836.12 1471.71 Q1836.12 1462.96 1839.18 1458.38 Q1842.25 1453.77 1848.06 1453.77 Z" fill="#000000" fill-rule="evenodd" fill-opacity="1" /><path clip-path="url(#clip520)" d="M1870.03 1445.99 Q1867.48 1445.99 1865.97 1447.74 Q1864.49 1449.49 1864.49 1452.54 Q1864.49 1455.57 1865.97 1457.33 Q1867.48 1459.08 1870.03 1459.08 Q1872.59 1459.08 1874.08 1457.33 Q1875.58 1455.57 1875.58 1452.54 Q1875.58 1449.49 1874.08 1447.74 Q1872.59 1445.99 1870.03 1445.99 M1877.58 1434.09 L1877.58 1437.55 Q1876.15 1436.87 1874.68 1436.51 Q1873.23 1436.16 1871.8 1436.16 Q1868.04 1436.16 1866.05 1438.69 Q1864.07 1441.23 1863.79 1446.37 Q1864.9 1444.73 1866.57 1443.87 Q1868.25 1442.98 1870.26 1442.98 Q1874.49 1442.98 1876.94 1445.56 Q1879.4 1448.12 1879.4 1452.54 Q1879.4 1456.86 1876.84 1459.48 Q1874.28 1462.09 1870.03 1462.09 Q1865.16 1462.09 1862.59 1458.37 Q1860.01 1454.62 1860.01 1447.53 Q1860.01 1440.88 1863.17 1436.93 Q1866.33 1432.96 1871.65 1432.96 Q1873.08 1432.96 1874.53 1433.24 Q1876 1433.52 1877.58 1434.09 Z" fill="#000000" fill-rule="evenodd" fill-opacity="1" /><path clip-path="url(#clip520)" d="M2189.67 1485.02 L2205.99 1485.02 L2205.99 1488.96 L2184.05 1488.96 L2184.05 1485.02 Q2186.71 1482.27 2191.29 1477.64 Q2195.9 1472.98 2197.08 1471.64 Q2199.32 1469.12 2200.2 1467.38 Q2201.11 1465.62 2201.11 1463.93 Q2201.11 1461.18 2199.16 1459.44 Q2197.24 1457.71 2194.14 1457.71 Q2191.94 1457.71 2189.49 1458.47 Q2187.05 1459.23 2184.28 1460.79 L2184.28 1456.06 Q2187.1 1454.93 2189.55 1454.35 Q2192.01 1453.77 2194.05 1453.77 Q2199.42 1453.77 2202.61 1456.46 Q2205.8 1459.14 2205.8 1463.63 Q2205.8 1465.76 2204.99 1467.68 Q2204.21 1469.58 2202.1 1472.17 Q2201.52 1472.85 2198.42 1476.06 Q2195.32 1479.26 2189.67 1485.02 Z" fill="#000000" fill-rule="evenodd" fill-opacity="1" /><path clip-path="url(#clip520)" d="M2215.8 1483.08 L2220.69 1483.08 L2220.69 1488.96 L2215.8 1488.96 L2215.8 1483.08 Z" fill="#000000" fill-rule="evenodd" fill-opacity="1" /><path clip-path="url(#clip520)" d="M2240.87 1457.48 Q2237.26 1457.48 2235.43 1461.04 Q2233.63 1464.58 2233.63 1471.71 Q2233.63 1478.82 2235.43 1482.38 Q2237.26 1485.92 2240.87 1485.92 Q2244.51 1485.92 2246.31 1482.38 Q2248.14 1478.82 2248.14 1471.71 Q2248.14 1464.58 2246.31 1461.04 Q2244.51 1457.48 2240.87 1457.48 M2240.87 1453.77 Q2246.68 1453.77 2249.74 1458.38 Q2252.82 1462.96 2252.82 1471.71 Q2252.82 1480.44 2249.74 1485.04 Q2246.68 1489.63 2240.87 1489.63 Q2235.06 1489.63 2231.98 1485.04 Q2228.93 1480.44 2228.93 1471.71 Q2228.93 1462.96 2231.98 1458.38 Q2235.06 1453.77 2240.87 1453.77 Z" fill="#000000" fill-rule="evenodd" fill-opacity="1" /><path clip-path="url(#clip520)" d="M2271.04 1457.48 Q2267.42 1457.48 2265.6 1461.04 Q2263.79 1464.58 2263.79 1471.71 Q2263.79 1478.82 2265.6 1482.38 Q2267.42 1485.92 2271.04 1485.92 Q2274.67 1485.92 2276.48 1482.38 Q2278.3 1478.82 2278.3 1471.71 Q2278.3 1464.58 2276.48 1461.04 Q2274.67 1457.48 2271.04 1457.48 M2271.04 1453.77 Q2276.85 1453.77 2279.9 1458.38 Q2282.98 1462.96 2282.98 1471.71 Q2282.98 1480.44 2279.9 1485.04 Q2276.85 1489.63 2271.04 1489.63 Q2265.23 1489.63 2262.15 1485.04 Q2259.09 1480.44 2259.09 1471.71 Q2259.09 1462.96 2262.15 1458.38 Q2265.23 1453.77 2271.04 1453.77 Z" fill="#000000" fill-rule="evenodd" fill-opacity="1" /><path clip-path="url(#clip520)" d="M2319.37 1463.49 L2308.79 1474.12 L2319.37 1484.7 L2316.61 1487.5 L2305.99 1476.87 L2295.36 1487.5 L2292.63 1484.7 L2303.19 1474.12 L2292.63 1463.49 L2295.36 1460.69 L2305.99 1471.32 L2316.61 1460.69 L2319.37 1463.49 Z" fill="#000000" fill-rule="evenodd" fill-opacity="1" /><path clip-path="url(#clip520)" d="M2331.73 1485.02 L2339.37 1485.02 L2339.37 1458.66 L2331.06 1460.32 L2331.06 1456.06 L2339.32 1454.4 L2344 1454.4 L2344 1485.02 L2351.64 1485.02 L2351.64 1488.96 L2331.73 1488.96 L2331.73 1485.02 Z" fill="#000000" fill-rule="evenodd" fill-opacity="1" /><path clip-path="url(#clip520)" d="M2371.08 1457.48 Q2367.47 1457.48 2365.64 1461.04 Q2363.84 1464.58 2363.84 1471.71 Q2363.84 1478.82 2365.64 1482.38 Q2367.47 1485.92 2371.08 1485.92 Q2374.72 1485.92 2376.52 1482.38 Q2378.35 1478.82 2378.35 1471.71 Q2378.35 1464.58 2376.52 1461.04 Q2374.72 1457.48 2371.08 1457.48 M2371.08 1453.77 Q2376.89 1453.77 2379.95 1458.38 Q2383.03 1462.96 2383.03 1471.71 Q2383.03 1480.44 2379.95 1485.04 Q2376.89 1489.63 2371.08 1489.63 Q2365.27 1489.63 2362.19 1485.04 Q2359.14 1480.44 2359.14 1471.71 Q2359.14 1462.96 2362.19 1458.38 Q2365.27 1453.77 2371.08 1453.77 Z" fill="#000000" fill-rule="evenodd" fill-opacity="1" /><path clip-path="url(#clip520)" d="M2393.05 1445.99 Q2390.49 1445.99 2388.99 1447.74 Q2387.5 1449.49 2387.5 1452.54 Q2387.5 1455.57 2388.99 1457.33 Q2390.49 1459.08 2393.05 1459.08 Q2395.61 1459.08 2397.09 1457.33 Q2398.6 1455.57 2398.6 1452.54 Q2398.6 1449.49 2397.09 1447.74 Q2395.61 1445.99 2393.05 1445.99 M2400.59 1434.09 L2400.59 1437.55 Q2399.16 1436.87 2397.7 1436.51 Q2396.25 1436.16 2394.82 1436.16 Q2391.06 1436.16 2389.06 1438.69 Q2387.09 1441.23 2386.81 1446.37 Q2387.92 1444.73 2389.59 1443.87 Q2391.26 1442.98 2393.28 1442.98 Q2397.51 1442.98 2399.95 1445.56 Q2402.42 1448.12 2402.42 1452.54 Q2402.42 1456.86 2399.86 1459.48 Q2397.3 1462.09 2393.05 1462.09 Q2388.18 1462.09 2385.6 1458.37 Q2383.03 1454.62 2383.03 1447.53 Q2383.03 1440.88 2386.19 1436.93 Q2389.35 1432.96 2394.67 1432.96 Q2396.1 1432.96 2397.55 1433.24 Q2399.01 1433.52 2400.59 1434.09 Z" fill="#000000" fill-rule="evenodd" fill-opacity="1" /><path clip-path="url(#clip520)" d="M1244.29 1528.23 L1244.29 1534.5 Q1240.63 1532.74 1237.38 1531.89 Q1234.13 1531.03 1231.11 1531.03 Q1225.86 1531.03 1222.99 1533.06 Q1220.16 1535.1 1220.16 1538.86 Q1220.16 1542.01 1222.04 1543.63 Q1223.95 1545.22 1229.23 1546.21 L1233.12 1547 Q1240.31 1548.37 1243.71 1551.84 Q1247.15 1555.28 1247.15 1561.07 Q1247.15 1567.98 1242.5 1571.54 Q1237.89 1575.11 1228.95 1575.11 Q1225.57 1575.11 1221.75 1574.34 Q1217.97 1573.58 1213.89 1572.08 L1213.89 1565.46 Q1217.81 1567.66 1221.56 1568.77 Q1225.32 1569.89 1228.95 1569.89 Q1234.45 1569.89 1237.44 1567.72 Q1240.44 1565.56 1240.44 1561.55 Q1240.44 1558.05 1238.27 1556.08 Q1236.14 1554.1 1231.24 1553.11 L1227.32 1552.35 Q1220.13 1550.92 1216.91 1547.86 Q1213.7 1544.81 1213.7 1539.37 Q1213.7 1533.06 1218.12 1529.43 Q1222.58 1525.81 1230.38 1525.81 Q1233.72 1525.81 1237.19 1526.41 Q1240.66 1527.02 1244.29 1528.23 Z" fill="#000000" fill-rule="evenodd" fill-opacity="1" /><path clip-path="url(#clip520)" d="M1262.72 1528.42 L1262.72 1538.54 L1274.78 1538.54 L1274.78 1543.09 L1262.72 1543.09 L1262.72 1562.44 Q1262.72 1566.8 1263.89 1568.04 Q1265.1 1569.28 1268.76 1569.28 L1274.78 1569.28 L1274.78 1574.19 L1268.76 1574.19 Q1261.98 1574.19 1259.41 1571.67 Q1256.83 1569.12 1256.83 1562.44 L1256.83 1543.09 L1252.53 1543.09 L1252.53 1538.54 L1256.83 1538.54 L1256.83 1528.42 L1262.72 1528.42 Z" fill="#000000" fill-rule="evenodd" fill-opacity="1" /><path clip-path="url(#clip520)" d="M1312.97 1554.9 L1312.97 1557.76 L1286.05 1557.76 Q1286.43 1563.81 1289.67 1566.99 Q1292.95 1570.14 1298.78 1570.14 Q1302.15 1570.14 1305.3 1569.32 Q1308.49 1568.49 1311.6 1566.83 L1311.6 1572.37 Q1308.45 1573.71 1305.14 1574.41 Q1301.83 1575.11 1298.43 1575.11 Q1289.9 1575.11 1284.9 1570.14 Q1279.94 1565.18 1279.94 1556.71 Q1279.94 1547.96 1284.65 1542.83 Q1289.39 1537.68 1297.41 1537.68 Q1304.6 1537.68 1308.77 1542.33 Q1312.97 1546.94 1312.97 1554.9 M1307.12 1553.18 Q1307.05 1548.37 1304.41 1545.51 Q1301.8 1542.64 1297.47 1542.64 Q1292.57 1542.64 1289.61 1545.41 Q1286.68 1548.18 1286.24 1553.21 L1307.12 1553.18 Z" fill="#000000" fill-rule="evenodd" fill-opacity="1" /><path clip-path="url(#clip520)" d="M1328.25 1568.84 L1328.25 1587.74 L1322.36 1587.74 L1322.36 1538.54 L1328.25 1538.54 L1328.25 1543.95 Q1330.1 1540.77 1332.9 1539.24 Q1335.73 1537.68 1339.65 1537.68 Q1346.14 1537.68 1350.18 1542.83 Q1354.25 1547.99 1354.25 1556.39 Q1354.25 1564.8 1350.18 1569.95 Q1346.14 1575.11 1339.65 1575.11 Q1335.73 1575.11 1332.9 1573.58 Q1330.1 1572.02 1328.25 1568.84 M1348.18 1556.39 Q1348.18 1549.93 1345.5 1546.27 Q1342.86 1542.58 1338.21 1542.58 Q1333.57 1542.58 1330.89 1546.27 Q1328.25 1549.93 1328.25 1556.39 Q1328.25 1562.85 1330.89 1566.55 Q1333.57 1570.21 1338.21 1570.21 Q1342.86 1570.21 1345.5 1566.55 Q1348.18 1562.85 1348.18 1556.39 Z" fill="#000000" fill-rule="evenodd" fill-opacity="1" /><path clip-path="url(#clip520)" d="M1386.69 1539.59 L1386.69 1545.13 Q1384.21 1543.85 1381.53 1543.22 Q1378.86 1542.58 1375.99 1542.58 Q1371.63 1542.58 1369.44 1543.92 Q1367.27 1545.25 1367.27 1547.93 Q1367.27 1549.96 1368.83 1551.14 Q1370.39 1552.29 1375.1 1553.34 L1377.11 1553.78 Q1383.35 1555.12 1385.96 1557.57 Q1388.6 1559.99 1388.6 1564.35 Q1388.6 1569.32 1384.65 1572.21 Q1380.74 1575.11 1373.86 1575.11 Q1371 1575.11 1367.88 1574.54 Q1364.79 1573.99 1361.35 1572.88 L1361.35 1566.83 Q1364.6 1568.52 1367.75 1569.38 Q1370.9 1570.21 1373.99 1570.21 Q1378.13 1570.21 1380.35 1568.81 Q1382.58 1567.37 1382.58 1564.8 Q1382.58 1562.41 1380.96 1561.14 Q1379.37 1559.86 1373.92 1558.68 L1371.89 1558.21 Q1366.45 1557.06 1364.03 1554.71 Q1361.61 1552.32 1361.61 1548.18 Q1361.61 1543.15 1365.17 1540.42 Q1368.74 1537.68 1375.29 1537.68 Q1378.54 1537.68 1381.4 1538.16 Q1384.27 1538.63 1386.69 1539.59 Z" fill="#000000" fill-rule="evenodd" fill-opacity="1" /><polyline clip-path="url(#clip522)" style="stroke:#000000; stroke-linecap:butt; stroke-linejoin:round; stroke-width:2; stroke-opacity:0.1; fill:none" points="
  249.542,1395.88 2352.76,1395.88 
  "/>
<polyline clip-path="url(#clip522)" style="stroke:#000000; stroke-linecap:butt; stroke-linejoin:round; stroke-width:2; stroke-opacity:0.1; fill:none" points="
  249.542,1068.37 2352.76,1068.37 
  "/>
<polyline clip-path="url(#clip522)" style="stroke:#000000; stroke-linecap:butt; stroke-linejoin:round; stroke-width:2; stroke-opacity:0.1; fill:none" points="
  249.542,740.861 2352.76,740.861 
  "/>
<polyline clip-path="url(#clip522)" style="stroke:#000000; stroke-linecap:butt; stroke-linejoin:round; stroke-width:2; stroke-opacity:0.1; fill:none" points="
  249.542,413.349 2352.76,413.349 
  "/>
<polyline clip-path="url(#clip522)" style="stroke:#000000; stroke-linecap:butt; stroke-linejoin:round; stroke-width:2; stroke-opacity:0.1; fill:none" points="
  249.542,85.838 2352.76,85.838 
  "/>
<polyline clip-path="url(#clip520)" style="stroke:#000000; stroke-linecap:butt; stroke-linejoin:round; stroke-width:4; stroke-opacity:1; fill:none" points="
  249.542,1410.9 249.542,47.2441 
  "/>
<polyline clip-path="url(#clip520)" style="stroke:#000000; stroke-linecap:butt; stroke-linejoin:round; stroke-width:4; stroke-opacity:1; fill:none" points="
  249.542,1395.88 268.44,1395.88 
  "/>
<polyline clip-path="url(#clip520)" style="stroke:#000000; stroke-linecap:butt; stroke-linejoin:round; stroke-width:4; stroke-opacity:1; fill:none" points="
  249.542,1068.37 268.44,1068.37 
  "/>
<polyline clip-path="url(#clip520)" style="stroke:#000000; stroke-linecap:butt; stroke-linejoin:round; stroke-width:4; stroke-opacity:1; fill:none" points="
  249.542,740.861 268.44,740.861 
  "/>
<polyline clip-path="url(#clip520)" style="stroke:#000000; stroke-linecap:butt; stroke-linejoin:round; stroke-width:4; stroke-opacity:1; fill:none" points="
  249.542,413.349 268.44,413.349 
  "/>
<polyline clip-path="url(#clip520)" style="stroke:#000000; stroke-linecap:butt; stroke-linejoin:round; stroke-width:4; stroke-opacity:1; fill:none" points="
  249.542,85.838 268.44,85.838 
  "/>
<path clip-path="url(#clip520)" d="M126.205 1381.68 Q122.593 1381.68 120.765 1385.25 Q118.959 1388.79 118.959 1395.92 Q118.959 1403.02 120.765 1406.59 Q122.593 1410.13 126.205 1410.13 Q129.839 1410.13 131.644 1406.59 Q133.473 1403.02 133.473 1395.92 Q133.473 1388.79 131.644 1385.25 Q129.839 1381.68 126.205 1381.68 M126.205 1377.98 Q132.015 1377.98 135.07 1382.58 Q138.149 1387.17 138.149 1395.92 Q138.149 1404.65 135.07 1409.25 Q132.015 1413.83 126.205 1413.83 Q120.394 1413.83 117.316 1409.25 Q114.26 1404.65 114.26 1395.92 Q114.26 1387.17 117.316 1382.58 Q120.394 1377.98 126.205 1377.98 Z" fill="#000000" fill-rule="evenodd" fill-opacity="1" /><path clip-path="url(#clip520)" d="M146.366 1407.28 L151.251 1407.28 L151.251 1413.16 L146.366 1413.16 L146.366 1407.28 Z" fill="#000000" fill-rule="evenodd" fill-opacity="1" /><path clip-path="url(#clip520)" d="M171.436 1381.68 Q167.825 1381.68 165.996 1385.25 Q164.19 1388.79 164.19 1395.92 Q164.19 1403.02 165.996 1406.59 Q167.825 1410.13 171.436 1410.13 Q175.07 1410.13 176.876 1406.59 Q178.704 1403.02 178.704 1395.92 Q178.704 1388.79 176.876 1385.25 Q175.07 1381.68 171.436 1381.68 M171.436 1377.98 Q177.246 1377.98 180.301 1382.58 Q183.38 1387.17 183.38 1395.92 Q183.38 1404.65 180.301 1409.25 Q177.246 1413.83 171.436 1413.83 Q165.626 1413.83 162.547 1409.25 Q159.491 1404.65 159.491 1395.92 Q159.491 1387.17 162.547 1382.58 Q165.626 1377.98 171.436 1377.98 Z" fill="#000000" fill-rule="evenodd" fill-opacity="1" /><path clip-path="url(#clip520)" d="M201.598 1381.68 Q197.987 1381.68 196.158 1385.25 Q194.352 1388.79 194.352 1395.92 Q194.352 1403.02 196.158 1406.59 Q197.987 1410.13 201.598 1410.13 Q205.232 1410.13 207.037 1406.59 Q208.866 1403.02 208.866 1395.92 Q208.866 1388.79 207.037 1385.25 Q205.232 1381.68 201.598 1381.68 M201.598 1377.98 Q207.408 1377.98 210.463 1382.58 Q213.542 1387.17 213.542 1395.92 Q213.542 1404.65 210.463 1409.25 Q207.408 1413.83 201.598 1413.83 Q195.787 1413.83 192.709 1409.25 Q189.653 1404.65 189.653 1395.92 Q189.653 1387.17 192.709 1382.58 Q195.787 1377.98 201.598 1377.98 Z" fill="#000000" fill-rule="evenodd" fill-opacity="1" /><path clip-path="url(#clip520)" d="M127.2 1054.17 Q123.589 1054.17 121.76 1057.74 Q119.955 1061.28 119.955 1068.41 Q119.955 1075.51 121.76 1079.08 Q123.589 1082.62 127.2 1082.62 Q130.834 1082.62 132.64 1079.08 Q134.468 1075.51 134.468 1068.41 Q134.468 1061.28 132.64 1057.74 Q130.834 1054.17 127.2 1054.17 M127.2 1050.47 Q133.01 1050.47 136.066 1055.07 Q139.144 1059.66 139.144 1068.41 Q139.144 1077.13 136.066 1081.74 Q133.01 1086.32 127.2 1086.32 Q121.39 1086.32 118.311 1081.74 Q115.256 1077.13 115.256 1068.41 Q115.256 1059.66 118.311 1055.07 Q121.39 1050.47 127.2 1050.47 Z" fill="#000000" fill-rule="evenodd" fill-opacity="1" /><path clip-path="url(#clip520)" d="M147.362 1079.77 L152.246 1079.77 L152.246 1085.65 L147.362 1085.65 L147.362 1079.77 Z" fill="#000000" fill-rule="evenodd" fill-opacity="1" /><path clip-path="url(#clip520)" d="M166.459 1081.72 L182.778 1081.72 L182.778 1085.65 L160.834 1085.65 L160.834 1081.72 Q163.496 1078.96 168.079 1074.33 Q172.686 1069.68 173.866 1068.34 Q176.112 1065.81 176.991 1064.08 Q177.894 1062.32 177.894 1060.63 Q177.894 1057.87 175.95 1056.14 Q174.028 1054.4 170.927 1054.4 Q168.727 1054.4 166.274 1055.17 Q163.843 1055.93 161.065 1057.48 L161.065 1052.76 Q163.89 1051.62 166.343 1051.05 Q168.797 1050.47 170.834 1050.47 Q176.204 1050.47 179.399 1053.15 Q182.593 1055.84 182.593 1060.33 Q182.593 1062.46 181.783 1064.38 Q180.996 1066.28 178.889 1068.87 Q178.311 1069.54 175.209 1072.76 Q172.107 1075.95 166.459 1081.72 Z" fill="#000000" fill-rule="evenodd" fill-opacity="1" /><path clip-path="url(#clip520)" d="M192.639 1051.09 L210.996 1051.09 L210.996 1055.03 L196.922 1055.03 L196.922 1063.5 Q197.94 1063.15 198.959 1062.99 Q199.977 1062.81 200.996 1062.81 Q206.783 1062.81 210.162 1065.98 Q213.542 1069.15 213.542 1074.56 Q213.542 1080.14 210.07 1083.24 Q206.598 1086.32 200.278 1086.32 Q198.102 1086.32 195.834 1085.95 Q193.588 1085.58 191.181 1084.84 L191.181 1080.14 Q193.264 1081.28 195.487 1081.83 Q197.709 1082.39 200.186 1082.39 Q204.19 1082.39 206.528 1080.28 Q208.866 1078.18 208.866 1074.56 Q208.866 1070.95 206.528 1068.85 Q204.19 1066.74 200.186 1066.74 Q198.311 1066.74 196.436 1067.16 Q194.584 1067.57 192.639 1068.45 L192.639 1051.09 Z" fill="#000000" fill-rule="evenodd" fill-opacity="1" /><path clip-path="url(#clip520)" d="M126.205 726.659 Q122.593 726.659 120.765 730.224 Q118.959 733.766 118.959 740.895 Q118.959 748.002 120.765 751.567 Q122.593 755.108 126.205 755.108 Q129.839 755.108 131.644 751.567 Q133.473 748.002 133.473 740.895 Q133.473 733.766 131.644 730.224 Q129.839 726.659 126.205 726.659 M126.205 722.956 Q132.015 722.956 135.07 727.562 Q138.149 732.146 138.149 740.895 Q138.149 749.622 135.07 754.229 Q132.015 758.812 126.205 758.812 Q120.394 758.812 117.316 754.229 Q114.26 749.622 114.26 740.895 Q114.26 732.146 117.316 727.562 Q120.394 722.956 126.205 722.956 Z" fill="#000000" fill-rule="evenodd" fill-opacity="1" /><path clip-path="url(#clip520)" d="M146.366 752.261 L151.251 752.261 L151.251 758.141 L146.366 758.141 L146.366 752.261 Z" fill="#000000" fill-rule="evenodd" fill-opacity="1" /><path clip-path="url(#clip520)" d="M161.482 723.581 L179.839 723.581 L179.839 727.516 L165.765 727.516 L165.765 735.988 Q166.783 735.641 167.802 735.479 Q168.82 735.294 169.839 735.294 Q175.626 735.294 179.005 738.465 Q182.385 741.636 182.385 747.053 Q182.385 752.632 178.913 755.733 Q175.44 758.812 169.121 758.812 Q166.945 758.812 164.677 758.442 Q162.431 758.071 160.024 757.331 L160.024 752.632 Q162.107 753.766 164.329 754.321 Q166.552 754.877 169.028 754.877 Q173.033 754.877 175.371 752.77 Q177.709 750.664 177.709 747.053 Q177.709 743.442 175.371 741.335 Q173.033 739.229 169.028 739.229 Q167.153 739.229 165.278 739.646 Q163.427 740.062 161.482 740.942 L161.482 723.581 Z" fill="#000000" fill-rule="evenodd" fill-opacity="1" /><path clip-path="url(#clip520)" d="M201.598 726.659 Q197.987 726.659 196.158 730.224 Q194.352 733.766 194.352 740.895 Q194.352 748.002 196.158 751.567 Q197.987 755.108 201.598 755.108 Q205.232 755.108 207.037 751.567 Q208.866 748.002 208.866 740.895 Q208.866 733.766 207.037 730.224 Q205.232 726.659 201.598 726.659 M201.598 722.956 Q207.408 722.956 210.463 727.562 Q213.542 732.146 213.542 740.895 Q213.542 749.622 210.463 754.229 Q207.408 758.812 201.598 758.812 Q195.787 758.812 192.709 754.229 Q189.653 749.622 189.653 740.895 Q189.653 732.146 192.709 727.562 Q195.787 722.956 201.598 722.956 Z" fill="#000000" fill-rule="evenodd" fill-opacity="1" /><path clip-path="url(#clip520)" d="M127.2 399.148 Q123.589 399.148 121.76 402.713 Q119.955 406.255 119.955 413.384 Q119.955 420.491 121.76 424.055 Q123.589 427.597 127.2 427.597 Q130.834 427.597 132.64 424.055 Q134.468 420.491 134.468 413.384 Q134.468 406.255 132.64 402.713 Q130.834 399.148 127.2 399.148 M127.2 395.444 Q133.01 395.444 136.066 400.051 Q139.144 404.634 139.144 413.384 Q139.144 422.111 136.066 426.717 Q133.01 431.301 127.2 431.301 Q121.39 431.301 118.311 426.717 Q115.256 422.111 115.256 413.384 Q115.256 404.634 118.311 400.051 Q121.39 395.444 127.2 395.444 Z" fill="#000000" fill-rule="evenodd" fill-opacity="1" /><path clip-path="url(#clip520)" d="M147.362 424.75 L152.246 424.75 L152.246 430.629 L147.362 430.629 L147.362 424.75 Z" fill="#000000" fill-rule="evenodd" fill-opacity="1" /><path clip-path="url(#clip520)" d="M161.251 396.069 L183.473 396.069 L183.473 398.06 L170.927 430.629 L166.042 430.629 L177.848 400.005 L161.251 400.005 L161.251 396.069 Z" fill="#000000" fill-rule="evenodd" fill-opacity="1" /><path clip-path="url(#clip520)" d="M192.639 396.069 L210.996 396.069 L210.996 400.005 L196.922 400.005 L196.922 408.477 Q197.94 408.13 198.959 407.967 Q199.977 407.782 200.996 407.782 Q206.783 407.782 210.162 410.954 Q213.542 414.125 213.542 419.542 Q213.542 425.12 210.07 428.222 Q206.598 431.301 200.278 431.301 Q198.102 431.301 195.834 430.93 Q193.588 430.56 191.181 429.819 L191.181 425.12 Q193.264 426.254 195.487 426.81 Q197.709 427.366 200.186 427.366 Q204.19 427.366 206.528 425.259 Q208.866 423.153 208.866 419.542 Q208.866 415.93 206.528 413.824 Q204.19 411.717 200.186 411.717 Q198.311 411.717 196.436 412.134 Q194.584 412.551 192.639 413.43 L192.639 396.069 Z" fill="#000000" fill-rule="evenodd" fill-opacity="1" /><path clip-path="url(#clip520)" d="M117.015 99.1829 L124.654 99.1829 L124.654 72.8173 L116.343 74.4839 L116.343 70.2247 L124.607 68.558 L129.283 68.558 L129.283 99.1829 L136.922 99.1829 L136.922 103.118 L117.015 103.118 L117.015 99.1829 Z" fill="#000000" fill-rule="evenodd" fill-opacity="1" /><path clip-path="url(#clip520)" d="M146.366 97.2384 L151.251 97.2384 L151.251 103.118 L146.366 103.118 L146.366 97.2384 Z" fill="#000000" fill-rule="evenodd" fill-opacity="1" /><path clip-path="url(#clip520)" d="M171.436 71.6367 Q167.825 71.6367 165.996 75.2015 Q164.19 78.7432 164.19 85.8728 Q164.19 92.9792 165.996 96.544 Q167.825 100.086 171.436 100.086 Q175.07 100.086 176.876 96.544 Q178.704 92.9792 178.704 85.8728 Q178.704 78.7432 176.876 75.2015 Q175.07 71.6367 171.436 71.6367 M171.436 67.933 Q177.246 67.933 180.301 72.5395 Q183.38 77.1228 183.38 85.8728 Q183.38 94.5996 180.301 99.206 Q177.246 103.789 171.436 103.789 Q165.626 103.789 162.547 99.206 Q159.491 94.5996 159.491 85.8728 Q159.491 77.1228 162.547 72.5395 Q165.626 67.933 171.436 67.933 Z" fill="#000000" fill-rule="evenodd" fill-opacity="1" /><path clip-path="url(#clip520)" d="M201.598 71.6367 Q197.987 71.6367 196.158 75.2015 Q194.352 78.7432 194.352 85.8728 Q194.352 92.9792 196.158 96.544 Q197.987 100.086 201.598 100.086 Q205.232 100.086 207.037 96.544 Q208.866 92.9792 208.866 85.8728 Q208.866 78.7432 207.037 75.2015 Q205.232 71.6367 201.598 71.6367 M201.598 67.933 Q207.408 67.933 210.463 72.5395 Q213.542 77.1228 213.542 85.8728 Q213.542 94.5996 210.463 99.206 Q207.408 103.789 201.598 103.789 Q195.787 103.789 192.709 99.206 Q189.653 94.5996 189.653 85.8728 Q189.653 77.1228 192.709 72.5395 Q195.787 67.933 201.598 67.933 Z" fill="#000000" fill-rule="evenodd" fill-opacity="1" /><path clip-path="url(#clip520)" d="M18.0438 910.891 L24.314 910.891 Q22.5634 914.551 21.704 917.798 Q20.8447 921.044 20.8447 924.068 Q20.8447 929.32 22.8817 932.184 Q24.9187 935.017 28.6745 935.017 Q31.8255 935.017 33.4488 933.139 Q35.0402 931.229 36.0269 925.946 L36.8226 922.063 Q38.1912 914.869 41.6605 911.464 Q45.098 908.026 50.8908 908.026 Q57.7976 908.026 61.3624 912.673 Q64.9272 917.288 64.9272 926.232 Q64.9272 929.606 64.1633 933.425 Q63.3994 937.213 61.9035 941.287 L55.2831 941.287 Q57.4793 937.372 58.5933 933.616 Q59.7073 929.861 59.7073 926.232 Q59.7073 920.726 57.543 917.734 Q55.3786 914.742 51.3682 914.742 Q47.8671 914.742 45.8937 916.906 Q43.9204 919.039 42.9337 923.941 L42.1698 927.855 Q40.7375 935.049 37.682 938.263 Q34.6264 941.478 29.1837 941.478 Q22.8817 941.478 19.2532 937.054 Q15.6248 932.598 15.6248 924.8 Q15.6248 921.458 16.2295 917.989 Q16.8343 914.519 18.0438 910.891 Z" fill="#000000" fill-rule="evenodd" fill-opacity="1" /><path clip-path="url(#clip520)" d="M49.9359 898.86 L28.3562 898.86 L28.3562 893.003 L49.7131 893.003 Q54.7739 893.003 57.3202 891.03 Q59.8346 889.056 59.8346 885.11 Q59.8346 880.367 56.8109 877.63 Q53.7872 874.861 48.5673 874.861 L28.3562 874.861 L28.3562 869.005 L64.0042 869.005 L64.0042 874.861 L58.5296 874.861 Q61.7762 876.993 63.3676 879.826 Q64.9272 882.627 64.9272 886.351 Q64.9272 892.494 61.1078 895.677 Q57.2883 898.86 49.9359 898.86 M27.4968 884.123 L27.4968 884.123 Z" fill="#000000" fill-rule="evenodd" fill-opacity="1" /><path clip-path="url(#clip520)" d="M29.7248 831.288 L35.1993 831.288 Q33.8307 833.77 33.1623 836.285 Q32.4621 838.767 32.4621 841.314 Q32.4621 847.011 36.0905 850.162 Q39.6872 853.313 46.212 853.313 Q52.7369 853.313 56.3653 850.162 Q59.9619 847.011 59.9619 841.314 Q59.9619 838.767 59.2935 836.285 Q58.5933 833.77 57.2247 831.288 L62.6355 831.288 Q63.7814 833.738 64.3543 836.38 Q64.9272 838.99 64.9272 841.95 Q64.9272 850.003 59.8664 854.745 Q54.8057 859.488 46.212 859.488 Q37.491 859.488 32.4939 854.714 Q27.4968 849.907 27.4968 841.568 Q27.4968 838.863 28.0697 836.285 Q28.6108 833.707 29.7248 831.288 Z" fill="#000000" fill-rule="evenodd" fill-opacity="1" /><path clip-path="url(#clip520)" d="M29.7248 795.449 L35.1993 795.449 Q33.8307 797.931 33.1623 800.446 Q32.4621 802.928 32.4621 805.475 Q32.4621 811.172 36.0905 814.323 Q39.6872 817.474 46.212 817.474 Q52.7369 817.474 56.3653 814.323 Q59.9619 811.172 59.9619 805.475 Q59.9619 802.928 59.2935 800.446 Q58.5933 797.931 57.2247 795.449 L62.6355 795.449 Q63.7814 797.9 64.3543 800.541 Q64.9272 803.151 64.9272 806.111 Q64.9272 814.164 59.8664 818.906 Q54.8057 823.649 46.212 823.649 Q37.491 823.649 32.4939 818.875 Q27.4968 814.068 27.4968 805.729 Q27.4968 803.024 28.0697 800.446 Q28.6108 797.868 29.7248 795.449 Z" fill="#000000" fill-rule="evenodd" fill-opacity="1" /><path clip-path="url(#clip520)" d="M44.7161 754.772 L47.5806 754.772 L47.5806 781.699 Q53.6281 781.317 56.8109 778.07 Q59.9619 774.792 59.9619 768.967 Q59.9619 765.594 59.1344 762.443 Q58.3069 759.26 56.6518 756.141 L62.1899 756.141 Q63.5267 759.292 64.227 762.602 Q64.9272 765.912 64.9272 769.318 Q64.9272 777.848 59.9619 782.845 Q54.9967 787.81 46.5303 787.81 Q37.7774 787.81 32.6531 783.099 Q27.4968 778.357 27.4968 770.336 Q27.4968 763.143 32.1438 758.973 Q36.7589 754.772 44.7161 754.772 M42.9973 760.628 Q38.1912 760.692 35.3266 763.334 Q32.4621 765.944 32.4621 770.272 Q32.4621 775.174 35.2312 778.134 Q38.0002 781.062 43.0292 781.508 L42.9973 760.628 Z" fill="#000000" fill-rule="evenodd" fill-opacity="1" /><path clip-path="url(#clip520)" d="M29.4065 722.434 L34.9447 722.434 Q33.6716 724.917 33.035 727.59 Q32.3984 730.264 32.3984 733.129 Q32.3984 737.489 33.7352 739.685 Q35.072 741.85 37.7456 741.85 Q39.7826 741.85 40.9603 740.29 Q42.1061 738.73 43.1565 734.02 L43.6021 732.015 Q44.9389 725.776 47.3897 723.166 Q49.8086 720.524 54.1691 720.524 Q59.1344 720.524 62.0308 724.471 Q64.9272 728.386 64.9272 735.261 Q64.9272 738.126 64.3543 741.245 Q63.8132 744.332 62.6992 747.77 L56.6518 747.77 Q58.3387 744.523 59.198 741.372 Q60.0256 738.221 60.0256 735.134 Q60.0256 730.996 58.6251 728.768 Q57.1929 726.54 54.6147 726.54 Q52.2276 726.54 50.9545 728.163 Q49.6813 729.755 48.5037 735.197 L48.0262 737.234 Q46.8804 742.677 44.5251 745.096 Q42.138 747.515 38.0002 747.515 Q32.9713 747.515 30.2341 743.95 Q27.4968 740.385 27.4968 733.829 Q27.4968 730.582 27.9743 727.718 Q28.4517 724.853 29.4065 722.434 Z" fill="#000000" fill-rule="evenodd" fill-opacity="1" /><path clip-path="url(#clip520)" d="M29.4065 688.473 L34.9447 688.473 Q33.6716 690.956 33.035 693.629 Q32.3984 696.303 32.3984 699.167 Q32.3984 703.528 33.7352 705.724 Q35.072 707.888 37.7456 707.888 Q39.7826 707.888 40.9603 706.329 Q42.1061 704.769 43.1565 700.059 L43.6021 698.053 Q44.9389 691.815 47.3897 689.205 Q49.8086 686.563 54.1691 686.563 Q59.1344 686.563 62.0308 690.51 Q64.9272 694.425 64.9272 701.3 Q64.9272 704.165 64.3543 707.284 Q63.8132 710.371 62.6992 713.809 L56.6518 713.809 Q58.3387 710.562 59.198 707.411 Q60.0256 704.26 60.0256 701.173 Q60.0256 697.035 58.6251 694.807 Q57.1929 692.579 54.6147 692.579 Q52.2276 692.579 50.9545 694.202 Q49.6813 695.794 48.5037 701.236 L48.0262 703.273 Q46.8804 708.716 44.5251 711.135 Q42.138 713.554 38.0002 713.554 Q32.9713 713.554 30.2341 709.989 Q27.4968 706.424 27.4968 699.868 Q27.4968 696.621 27.9743 693.757 Q28.4517 690.892 29.4065 688.473 Z" fill="#000000" fill-rule="evenodd" fill-opacity="1" /><path clip-path="url(#clip520)" d="M41.7242 633.728 Q42.4244 631.659 44.7161 629.718 Q47.0077 627.744 51.0181 625.771 L64.0042 619.246 L64.0042 626.153 L51.8138 632.232 Q47.0395 634.587 45.48 636.815 Q43.9204 639.012 43.9204 642.831 L43.9204 649.833 L64.0042 649.833 L64.0042 656.263 L16.4842 656.263 L16.4842 641.749 Q16.4842 633.601 19.8898 629.59 Q23.2955 625.58 30.1704 625.58 Q34.6582 625.58 37.6183 627.681 Q40.5784 629.749 41.7242 633.728 M21.7677 649.833 L38.6368 649.833 L38.6368 641.749 Q38.6368 637.102 36.5043 634.747 Q34.34 632.359 30.1704 632.359 Q26.0009 632.359 23.9002 634.747 Q21.7677 637.102 21.7677 641.749 L21.7677 649.833 Z" fill="#000000" fill-rule="evenodd" fill-opacity="1" /><path clip-path="url(#clip520)" d="M46.0847 596.457 Q46.0847 603.555 47.7079 606.292 Q49.3312 609.029 53.2461 609.029 Q56.3653 609.029 58.2114 606.992 Q60.0256 604.923 60.0256 601.39 Q60.0256 596.52 56.5881 593.592 Q53.1188 590.632 47.3897 590.632 L46.0847 590.632 L46.0847 596.457 M43.6657 584.776 L64.0042 584.776 L64.0042 590.632 L58.5933 590.632 Q61.8398 592.637 63.3994 595.629 Q64.9272 598.621 64.9272 602.95 Q64.9272 608.424 61.8716 611.671 Q58.7843 614.886 53.6281 614.886 Q47.6125 614.886 44.5569 610.875 Q41.5014 606.833 41.5014 598.844 L41.5014 590.632 L40.9285 590.632 Q36.8862 590.632 34.6901 593.306 Q32.4621 595.948 32.4621 600.754 Q32.4621 603.809 33.1941 606.706 Q33.9262 609.602 35.3903 612.276 L29.9795 612.276 Q28.7381 609.061 28.1334 606.037 Q27.4968 603.013 27.4968 600.149 Q27.4968 592.415 31.5072 588.595 Q35.5176 584.776 43.6657 584.776 Z" fill="#000000" fill-rule="evenodd" fill-opacity="1" /><path clip-path="url(#clip520)" d="M18.2347 566.92 L28.3562 566.92 L28.3562 554.857 L32.9077 554.857 L32.9077 566.92 L52.2594 566.92 Q56.6199 566.92 57.8613 565.742 Q59.1026 564.533 59.1026 560.872 L59.1026 554.857 L64.0042 554.857 L64.0042 560.872 Q64.0042 567.652 61.4897 570.23 Q58.9434 572.808 52.2594 572.808 L32.9077 572.808 L32.9077 577.105 L28.3562 577.105 L28.3562 572.808 L18.2347 572.808 L18.2347 566.92 Z" fill="#000000" fill-rule="evenodd" fill-opacity="1" /><path clip-path="url(#clip520)" d="M44.7161 516.663 L47.5806 516.663 L47.5806 543.59 Q53.6281 543.208 56.8109 539.961 Q59.9619 536.683 59.9619 530.858 Q59.9619 527.484 59.1344 524.333 Q58.3069 521.15 56.6518 518.031 L62.1899 518.031 Q63.5267 521.182 64.227 524.492 Q64.9272 527.803 64.9272 531.208 Q64.9272 539.738 59.9619 544.735 Q54.9967 549.701 46.5303 549.701 Q37.7774 549.701 32.6531 544.99 Q27.4968 540.248 27.4968 532.227 Q27.4968 525.034 32.1438 520.864 Q36.7589 516.663 44.7161 516.663 M42.9973 522.519 Q38.1912 522.583 35.3266 525.225 Q32.4621 527.834 32.4621 532.163 Q32.4621 537.065 35.2312 540.025 Q38.0002 542.953 43.0292 543.399 L42.9973 522.519 Z" fill="#000000" fill-rule="evenodd" fill-opacity="1" /><polyline clip-path="url(#clip522)" style="stroke:#009af9; stroke-linecap:butt; stroke-linejoin:round; stroke-width:4; stroke-opacity:1; fill:none" points="
  309.067,1372.3 413.497,826.014 517.926,198.502 622.356,87.1481 726.786,88.4581 831.215,85.838 935.645,85.838 1040.07,85.838 1144.5,87.1481 1248.93,85.838 
  1353.36,93.6983 1457.79,93.6983 1562.22,88.4581 1666.65,87.1481 1771.08,91.0782 1875.51,85.838 1979.94,89.7682 2084.37,89.7682 2188.8,87.1481 2293.23,93.6983 
  
  "/>
</svg>
