<?xml version="1.0" encoding="utf-8"?>
<svg xmlns="http://www.w3.org/2000/svg" xmlns:xlink="http://www.w3.org/1999/xlink" width="600" height="400" viewBox="0 0 2400 1600">
<defs>
  <clipPath id="clip550">
    <rect x="0" y="0" width="2400" height="1600"/>
  </clipPath>
</defs>
<path clip-path="url(#clip550)" d="
M0 1600 L2400 1600 L2400 0 L0 0  Z
  " fill="#ffffff" fill-rule="evenodd" fill-opacity="1"/>
<defs>
  <clipPath id="clip551">
    <rect x="480" y="0" width="1681" height="1600"/>
  </clipPath>
</defs>
<path clip-path="url(#clip550)" d="
M202.227 1410.9 L2352.76 1410.9 L2352.76 47.2441 L202.227 47.2441  Z
  " fill="#ffffff" fill-rule="evenodd" fill-opacity="1"/>
<defs>
  <clipPath id="clip552">
    <rect x="202" y="47" width="2152" height="1365"/>
  </clipPath>
</defs>
<polyline clip-path="url(#clip552)" style="stroke:#000000; stroke-linecap:butt; stroke-linejoin:round; stroke-width:2; stroke-opacity:0.1; fill:none" points="
  690.207,1410.9 690.207,47.2441 
  "/>
<polyline clip-path="url(#clip552)" style="stroke:#000000; stroke-linecap:butt; stroke-linejoin:round; stroke-width:2; stroke-opacity:0.1; fill:none" points="
  1224.1,1410.9 1224.1,47.2441 
  "/>
<polyline clip-path="url(#clip552)" style="stroke:#000000; stroke-linecap:butt; stroke-linejoin:round; stroke-width:2; stroke-opacity:0.1; fill:none" points="
  1758,1410.9 1758,47.2441 
  "/>
<polyline clip-path="url(#clip552)" style="stroke:#000000; stroke-linecap:butt; stroke-linejoin:round; stroke-width:2; stroke-opacity:0.1; fill:none" points="
  2291.89,1410.9 2291.89,47.2441 
  "/>
<polyline clip-path="url(#clip550)" style="stroke:#000000; stroke-linecap:butt; stroke-linejoin:round; stroke-width:4; stroke-opacity:1; fill:none" points="
  202.227,1410.9 2352.76,1410.9 
  "/>
<polyline clip-path="url(#clip550)" style="stroke:#000000; stroke-linecap:butt; stroke-linejoin:round; stroke-width:4; stroke-opacity:1; fill:none" points="
  690.207,1410.9 690.207,1392 
  "/>
<polyline clip-path="url(#clip550)" style="stroke:#000000; stroke-linecap:butt; stroke-linejoin:round; stroke-width:4; stroke-opacity:1; fill:none" points="
  1224.1,1410.9 1224.1,1392 
  "/>
<polyline clip-path="url(#clip550)" style="stroke:#000000; stroke-linecap:butt; stroke-linejoin:round; stroke-width:4; stroke-opacity:1; fill:none" points="
  1758,1410.9 1758,1392 
  "/>
<polyline clip-path="url(#clip550)" style="stroke:#000000; stroke-linecap:butt; stroke-linejoin:round; stroke-width:4; stroke-opacity:1; fill:none" points="
  2291.89,1410.9 2291.89,1392 
  "/>
<path clip-path="url(#clip550)" d="M583.184 1454.4 L601.54 1454.4 L601.54 1458.33 L587.466 1458.33 L587.466 1466.8 Q588.485 1466.46 589.503 1466.29 Q590.522 1466.11 591.54 1466.11 Q597.327 1466.11 600.707 1469.28 Q604.087 1472.45 604.087 1477.87 Q604.087 1483.45 600.614 1486.55 Q597.142 1489.63 590.823 1489.63 Q588.647 1489.63 586.378 1489.26 Q584.133 1488.89 581.726 1488.15 L581.726 1483.45 Q583.809 1484.58 586.031 1485.14 Q588.253 1485.69 590.73 1485.69 Q594.735 1485.69 597.073 1483.59 Q599.411 1481.48 599.411 1477.87 Q599.411 1474.26 597.073 1472.15 Q594.735 1470.04 590.73 1470.04 Q588.855 1470.04 586.98 1470.46 Q585.128 1470.88 583.184 1471.76 L583.184 1454.4 Z" fill="#000000" fill-rule="evenodd" fill-opacity="1" /><path clip-path="url(#clip550)" d="M613.299 1483.08 L618.184 1483.08 L618.184 1488.96 L613.299 1488.96 L613.299 1483.08 Z" fill="#000000" fill-rule="evenodd" fill-opacity="1" /><path clip-path="url(#clip550)" d="M638.369 1457.48 Q634.758 1457.48 632.929 1461.04 Q631.123 1464.58 631.123 1471.71 Q631.123 1478.82 632.929 1482.38 Q634.758 1485.92 638.369 1485.92 Q642.003 1485.92 643.809 1482.38 Q645.637 1478.82 645.637 1471.71 Q645.637 1464.58 643.809 1461.04 Q642.003 1457.48 638.369 1457.48 M638.369 1453.77 Q644.179 1453.77 647.234 1458.38 Q650.313 1462.96 650.313 1471.71 Q650.313 1480.44 647.234 1485.04 Q644.179 1489.63 638.369 1489.63 Q632.559 1489.63 629.48 1485.04 Q626.424 1480.44 626.424 1471.71 Q626.424 1462.96 629.48 1458.38 Q632.559 1453.77 638.369 1453.77 Z" fill="#000000" fill-rule="evenodd" fill-opacity="1" /><path clip-path="url(#clip550)" d="M668.531 1457.48 Q664.92 1457.48 663.091 1461.04 Q661.285 1464.58 661.285 1471.71 Q661.285 1478.82 663.091 1482.38 Q664.92 1485.92 668.531 1485.92 Q672.165 1485.92 673.97 1482.38 Q675.799 1478.82 675.799 1471.71 Q675.799 1464.58 673.97 1461.04 Q672.165 1457.48 668.531 1457.48 M668.531 1453.77 Q674.341 1453.77 677.396 1458.38 Q680.475 1462.96 680.475 1471.71 Q680.475 1480.44 677.396 1485.04 Q674.341 1489.63 668.531 1489.63 Q662.721 1489.63 659.642 1485.04 Q656.586 1480.44 656.586 1471.71 Q656.586 1462.96 659.642 1458.38 Q662.721 1453.77 668.531 1453.77 Z" fill="#000000" fill-rule="evenodd" fill-opacity="1" /><path clip-path="url(#clip550)" d="M716.864 1463.49 L706.285 1474.12 L716.864 1484.7 L714.109 1487.5 L703.484 1476.87 L692.859 1487.5 L690.128 1484.7 L700.683 1474.12 L690.128 1463.49 L692.859 1460.69 L703.484 1471.32 L714.109 1460.69 L716.864 1463.49 Z" fill="#000000" fill-rule="evenodd" fill-opacity="1" /><path clip-path="url(#clip550)" d="M729.225 1485.02 L736.864 1485.02 L736.864 1458.66 L728.554 1460.32 L728.554 1456.06 L736.817 1454.4 L741.493 1454.4 L741.493 1485.02 L749.132 1485.02 L749.132 1488.96 L729.225 1488.96 L729.225 1485.02 Z" fill="#000000" fill-rule="evenodd" fill-opacity="1" /><path clip-path="url(#clip550)" d="M768.576 1457.48 Q764.965 1457.48 763.137 1461.04 Q761.331 1464.58 761.331 1471.71 Q761.331 1478.82 763.137 1482.38 Q764.965 1485.92 768.576 1485.92 Q772.211 1485.92 774.016 1482.38 Q775.845 1478.82 775.845 1471.71 Q775.845 1464.58 774.016 1461.04 Q772.211 1457.48 768.576 1457.48 M768.576 1453.77 Q774.387 1453.77 777.442 1458.38 Q780.521 1462.96 780.521 1471.71 Q780.521 1480.44 777.442 1485.04 Q774.387 1489.63 768.576 1489.63 Q762.766 1489.63 759.688 1485.04 Q756.632 1480.44 756.632 1471.71 Q756.632 1462.96 759.688 1458.38 Q762.766 1453.77 768.576 1453.77 Z" fill="#000000" fill-rule="evenodd" fill-opacity="1" /><path clip-path="url(#clip550)" d="M781.706 1433.47 L796.62 1433.47 L796.62 1436.66 L785.185 1436.66 L785.185 1443.55 Q786.013 1443.27 786.84 1443.13 Q787.668 1442.98 788.495 1442.98 Q793.197 1442.98 795.943 1445.56 Q798.689 1448.14 798.689 1452.54 Q798.689 1457.07 795.868 1459.59 Q793.047 1462.09 787.912 1462.09 Q786.144 1462.09 784.301 1461.79 Q782.477 1461.49 780.521 1460.89 L780.521 1457.07 Q782.214 1457.99 784.019 1458.44 Q785.825 1458.89 787.837 1458.89 Q791.091 1458.89 792.99 1457.18 Q794.89 1455.47 794.89 1452.54 Q794.89 1449.6 792.99 1447.89 Q791.091 1446.18 787.837 1446.18 Q786.314 1446.18 784.79 1446.52 Q783.286 1446.86 781.706 1447.57 L781.706 1433.47 Z" fill="#000000" fill-rule="evenodd" fill-opacity="1" /><path clip-path="url(#clip550)" d="M1116.46 1485.02 L1124.09 1485.02 L1124.09 1458.66 L1115.78 1460.32 L1115.78 1456.06 L1124.05 1454.4 L1128.72 1454.4 L1128.72 1485.02 L1136.36 1485.02 L1136.36 1488.96 L1116.46 1488.96 L1116.46 1485.02 Z" fill="#000000" fill-rule="evenodd" fill-opacity="1" /><path clip-path="url(#clip550)" d="M1145.81 1483.08 L1150.69 1483.08 L1150.69 1488.96 L1145.81 1488.96 L1145.81 1483.08 Z" fill="#000000" fill-rule="evenodd" fill-opacity="1" /><path clip-path="url(#clip550)" d="M1170.88 1457.48 Q1167.27 1457.48 1165.44 1461.04 Q1163.63 1464.58 1163.63 1471.71 Q1163.63 1478.82 1165.44 1482.38 Q1167.27 1485.92 1170.88 1485.92 Q1174.51 1485.92 1176.32 1482.38 Q1178.15 1478.82 1178.15 1471.71 Q1178.15 1464.58 1176.32 1461.04 Q1174.51 1457.48 1170.88 1457.48 M1170.88 1453.77 Q1176.69 1453.77 1179.74 1458.38 Q1182.82 1462.96 1182.82 1471.71 Q1182.82 1480.44 1179.74 1485.04 Q1176.69 1489.63 1170.88 1489.63 Q1165.07 1489.63 1161.99 1485.04 Q1158.93 1480.44 1158.93 1471.71 Q1158.93 1462.96 1161.99 1458.38 Q1165.07 1453.77 1170.88 1453.77 Z" fill="#000000" fill-rule="evenodd" fill-opacity="1" /><path clip-path="url(#clip550)" d="M1201.04 1457.48 Q1197.43 1457.48 1195.6 1461.04 Q1193.79 1464.58 1193.79 1471.71 Q1193.79 1478.82 1195.6 1482.38 Q1197.43 1485.92 1201.04 1485.92 Q1204.67 1485.92 1206.48 1482.38 Q1208.31 1478.82 1208.31 1471.71 Q1208.31 1464.58 1206.48 1461.04 Q1204.67 1457.48 1201.04 1457.48 M1201.04 1453.77 Q1206.85 1453.77 1209.9 1458.38 Q1212.98 1462.96 1212.98 1471.71 Q1212.98 1480.44 1209.9 1485.04 Q1206.85 1489.63 1201.04 1489.63 Q1195.23 1489.63 1192.15 1485.04 Q1189.09 1480.44 1189.09 1471.71 Q1189.09 1462.96 1192.15 1458.38 Q1195.23 1453.77 1201.04 1453.77 Z" fill="#000000" fill-rule="evenodd" fill-opacity="1" /><path clip-path="url(#clip550)" d="M1249.37 1463.49 L1238.79 1474.12 L1249.37 1484.7 L1246.62 1487.5 L1235.99 1476.87 L1225.37 1487.5 L1222.64 1484.7 L1233.19 1474.12 L1222.64 1463.49 L1225.37 1460.69 L1235.99 1471.32 L1246.62 1460.69 L1249.37 1463.49 Z" fill="#000000" fill-rule="evenodd" fill-opacity="1" /><path clip-path="url(#clip550)" d="M1261.73 1485.02 L1269.37 1485.02 L1269.37 1458.66 L1261.06 1460.32 L1261.06 1456.06 L1269.33 1454.4 L1274 1454.4 L1274 1485.02 L1281.64 1485.02 L1281.64 1488.96 L1261.73 1488.96 L1261.73 1485.02 Z" fill="#000000" fill-rule="evenodd" fill-opacity="1" /><path clip-path="url(#clip550)" d="M1301.08 1457.48 Q1297.47 1457.48 1295.64 1461.04 Q1293.84 1464.58 1293.84 1471.71 Q1293.84 1478.82 1295.64 1482.38 Q1297.47 1485.92 1301.08 1485.92 Q1304.72 1485.92 1306.52 1482.38 Q1308.35 1478.82 1308.35 1471.71 Q1308.35 1464.58 1306.52 1461.04 Q1304.72 1457.48 1301.08 1457.48 M1301.08 1453.77 Q1306.89 1453.77 1309.95 1458.38 Q1313.03 1462.96 1313.03 1471.71 Q1313.03 1480.44 1309.95 1485.04 Q1306.89 1489.63 1301.08 1489.63 Q1295.27 1489.63 1292.2 1485.04 Q1289.14 1480.44 1289.14 1471.71 Q1289.14 1462.96 1292.2 1458.38 Q1295.27 1453.77 1301.08 1453.77 Z" fill="#000000" fill-rule="evenodd" fill-opacity="1" /><path clip-path="url(#clip550)" d="M1323.05 1445.99 Q1320.5 1445.99 1318.99 1447.74 Q1317.51 1449.49 1317.51 1452.54 Q1317.51 1455.57 1318.99 1457.33 Q1320.5 1459.08 1323.05 1459.08 Q1325.61 1459.08 1327.1 1457.33 Q1328.6 1455.57 1328.6 1452.54 Q1328.6 1449.49 1327.1 1447.74 Q1325.61 1445.99 1323.05 1445.99 M1330.6 1434.09 L1330.6 1437.55 Q1329.17 1436.87 1327.7 1436.51 Q1326.25 1436.16 1324.82 1436.16 Q1321.06 1436.16 1319.07 1438.69 Q1317.09 1441.23 1316.81 1446.37 Q1317.92 1444.73 1319.59 1443.87 Q1321.27 1442.98 1323.28 1442.98 Q1327.51 1442.98 1329.96 1445.56 Q1332.42 1448.12 1332.42 1452.54 Q1332.42 1456.86 1329.86 1459.48 Q1327.3 1462.09 1323.05 1462.09 Q1318.18 1462.09 1315.61 1458.37 Q1313.03 1454.62 1313.03 1447.53 Q1313.03 1440.88 1316.19 1436.93 Q1319.35 1432.96 1324.67 1432.96 Q1326.1 1432.96 1327.55 1433.24 Q1329.02 1433.52 1330.6 1434.09 Z" fill="#000000" fill-rule="evenodd" fill-opacity="1" /><path clip-path="url(#clip550)" d="M1650.35 1485.02 L1657.99 1485.02 L1657.99 1458.66 L1649.68 1460.32 L1649.68 1456.06 L1657.94 1454.4 L1662.62 1454.4 L1662.62 1485.02 L1670.26 1485.02 L1670.26 1488.96 L1650.35 1488.96 L1650.35 1485.02 Z" fill="#000000" fill-rule="evenodd" fill-opacity="1" /><path clip-path="url(#clip550)" d="M1679.7 1483.08 L1684.59 1483.08 L1684.59 1488.96 L1679.7 1488.96 L1679.7 1483.08 Z" fill="#000000" fill-rule="evenodd" fill-opacity="1" /><path clip-path="url(#clip550)" d="M1694.82 1454.4 L1713.17 1454.4 L1713.17 1458.33 L1699.1 1458.33 L1699.1 1466.8 Q1700.12 1466.46 1701.14 1466.29 Q1702.16 1466.11 1703.17 1466.11 Q1708.96 1466.11 1712.34 1469.28 Q1715.72 1472.45 1715.72 1477.87 Q1715.72 1483.45 1712.25 1486.55 Q1708.78 1489.63 1702.46 1489.63 Q1700.28 1489.63 1698.01 1489.26 Q1695.77 1488.89 1693.36 1488.15 L1693.36 1483.45 Q1695.44 1484.58 1697.67 1485.14 Q1699.89 1485.69 1702.36 1485.69 Q1706.37 1485.69 1708.71 1483.59 Q1711.04 1481.48 1711.04 1477.87 Q1711.04 1474.26 1708.71 1472.15 Q1706.37 1470.04 1702.36 1470.04 Q1700.49 1470.04 1698.61 1470.46 Q1696.76 1470.88 1694.82 1471.76 L1694.82 1454.4 Z" fill="#000000" fill-rule="evenodd" fill-opacity="1" /><path clip-path="url(#clip550)" d="M1734.93 1457.48 Q1731.32 1457.48 1729.49 1461.04 Q1727.69 1464.58 1727.69 1471.71 Q1727.69 1478.82 1729.49 1482.38 Q1731.32 1485.92 1734.93 1485.92 Q1738.57 1485.92 1740.37 1482.38 Q1742.2 1478.82 1742.2 1471.71 Q1742.2 1464.58 1740.37 1461.04 Q1738.57 1457.48 1734.93 1457.48 M1734.93 1453.77 Q1740.74 1453.77 1743.8 1458.38 Q1746.88 1462.96 1746.88 1471.71 Q1746.88 1480.44 1743.8 1485.04 Q1740.74 1489.63 1734.93 1489.63 Q1729.12 1489.63 1726.04 1485.04 Q1722.99 1480.44 1722.99 1471.71 Q1722.99 1462.96 1726.04 1458.38 Q1729.12 1453.77 1734.93 1453.77 Z" fill="#000000" fill-rule="evenodd" fill-opacity="1" /><path clip-path="url(#clip550)" d="M1783.27 1463.49 L1772.69 1474.12 L1783.27 1484.7 L1780.51 1487.5 L1769.89 1476.87 L1759.26 1487.5 L1756.53 1484.7 L1767.09 1474.12 L1756.53 1463.49 L1759.26 1460.69 L1769.89 1471.32 L1780.51 1460.69 L1783.27 1463.49 Z" fill="#000000" fill-rule="evenodd" fill-opacity="1" /><path clip-path="url(#clip550)" d="M1795.63 1485.02 L1803.27 1485.02 L1803.27 1458.66 L1794.96 1460.32 L1794.96 1456.06 L1803.22 1454.4 L1807.9 1454.4 L1807.9 1485.02 L1815.54 1485.02 L1815.54 1488.96 L1795.63 1488.96 L1795.63 1485.02 Z" fill="#000000" fill-rule="evenodd" fill-opacity="1" /><path clip-path="url(#clip550)" d="M1834.98 1457.48 Q1831.37 1457.48 1829.54 1461.04 Q1827.73 1464.58 1827.73 1471.71 Q1827.73 1478.82 1829.54 1482.38 Q1831.37 1485.92 1834.98 1485.92 Q1838.61 1485.92 1840.42 1482.38 Q1842.25 1478.82 1842.25 1471.71 Q1842.25 1464.58 1840.42 1461.04 Q1838.61 1457.48 1834.98 1457.48 M1834.98 1453.77 Q1840.79 1453.77 1843.85 1458.38 Q1846.92 1462.96 1846.92 1471.71 Q1846.92 1480.44 1843.85 1485.04 Q1840.79 1489.63 1834.98 1489.63 Q1829.17 1489.63 1826.09 1485.04 Q1823.04 1480.44 1823.04 1471.71 Q1823.04 1462.96 1826.09 1458.38 Q1829.17 1453.77 1834.98 1453.77 Z" fill="#000000" fill-rule="evenodd" fill-opacity="1" /><path clip-path="url(#clip550)" d="M1856.95 1445.99 Q1854.39 1445.99 1852.89 1447.74 Q1851.4 1449.49 1851.4 1452.54 Q1851.4 1455.57 1852.89 1457.33 Q1854.39 1459.08 1856.95 1459.08 Q1859.51 1459.08 1860.99 1457.33 Q1862.5 1455.57 1862.5 1452.54 Q1862.5 1449.49 1860.99 1447.74 Q1859.51 1445.99 1856.95 1445.99 M1864.49 1434.09 L1864.49 1437.55 Q1863.06 1436.87 1861.59 1436.51 Q1860.15 1436.16 1858.72 1436.16 Q1854.95 1436.16 1852.96 1438.69 Q1850.99 1441.23 1850.7 1446.37 Q1851.81 1444.73 1853.49 1443.87 Q1855.16 1442.98 1857.17 1442.98 Q1861.41 1442.98 1863.85 1445.56 Q1866.31 1448.12 1866.31 1452.54 Q1866.31 1456.86 1863.76 1459.48 Q1861.2 1462.09 1856.95 1462.09 Q1852.08 1462.09 1849.5 1458.37 Q1846.92 1454.62 1846.92 1447.53 Q1846.92 1440.88 1850.08 1436.93 Q1853.24 1432.96 1858.57 1432.96 Q1860 1432.96 1861.44 1433.24 Q1862.91 1433.52 1864.49 1434.09 Z" fill="#000000" fill-rule="evenodd" fill-opacity="1" /><path clip-path="url(#clip550)" d="M2188.33 1485.02 L2204.65 1485.02 L2204.65 1488.96 L2182.71 1488.96 L2182.71 1485.02 Q2185.37 1482.27 2189.95 1477.64 Q2194.56 1472.98 2195.74 1471.64 Q2197.98 1469.12 2198.86 1467.38 Q2199.77 1465.62 2199.77 1463.93 Q2199.77 1461.18 2197.82 1459.44 Q2195.9 1457.71 2192.8 1457.71 Q2190.6 1457.71 2188.15 1458.47 Q2185.72 1459.23 2182.94 1460.79 L2182.94 1456.06 Q2185.76 1454.93 2188.22 1454.35 Q2190.67 1453.77 2192.71 1453.77 Q2198.08 1453.77 2201.27 1456.46 Q2204.47 1459.14 2204.47 1463.63 Q2204.47 1465.76 2203.66 1467.68 Q2202.87 1469.58 2200.76 1472.17 Q2200.18 1472.85 2197.08 1476.06 Q2193.98 1479.26 2188.33 1485.02 Z" fill="#000000" fill-rule="evenodd" fill-opacity="1" /><path clip-path="url(#clip550)" d="M2214.47 1483.08 L2219.35 1483.08 L2219.35 1488.96 L2214.47 1488.96 L2214.47 1483.08 Z" fill="#000000" fill-rule="evenodd" fill-opacity="1" /><path clip-path="url(#clip550)" d="M2239.53 1457.48 Q2235.92 1457.48 2234.09 1461.04 Q2232.29 1464.58 2232.29 1471.71 Q2232.29 1478.82 2234.09 1482.38 Q2235.92 1485.92 2239.53 1485.92 Q2243.17 1485.92 2244.97 1482.38 Q2246.8 1478.82 2246.8 1471.71 Q2246.8 1464.58 2244.97 1461.04 Q2243.17 1457.48 2239.53 1457.48 M2239.53 1453.77 Q2245.34 1453.77 2248.4 1458.38 Q2251.48 1462.96 2251.48 1471.71 Q2251.48 1480.44 2248.4 1485.04 Q2245.34 1489.63 2239.53 1489.63 Q2233.72 1489.63 2230.65 1485.04 Q2227.59 1480.44 2227.59 1471.71 Q2227.59 1462.96 2230.65 1458.38 Q2233.72 1453.77 2239.53 1453.77 Z" fill="#000000" fill-rule="evenodd" fill-opacity="1" /><path clip-path="url(#clip550)" d="M2269.7 1457.48 Q2266.09 1457.48 2264.26 1461.04 Q2262.45 1464.58 2262.45 1471.71 Q2262.45 1478.82 2264.26 1482.38 Q2266.09 1485.92 2269.7 1485.92 Q2273.33 1485.92 2275.14 1482.38 Q2276.97 1478.82 2276.97 1471.71 Q2276.97 1464.58 2275.14 1461.04 Q2273.33 1457.48 2269.7 1457.48 M2269.7 1453.77 Q2275.51 1453.77 2278.56 1458.38 Q2281.64 1462.96 2281.64 1471.71 Q2281.64 1480.44 2278.56 1485.04 Q2275.51 1489.63 2269.7 1489.63 Q2263.89 1489.63 2260.81 1485.04 Q2257.75 1480.44 2257.75 1471.71 Q2257.75 1462.96 2260.81 1458.38 Q2263.89 1453.77 2269.7 1453.77 Z" fill="#000000" fill-rule="evenodd" fill-opacity="1" /><path clip-path="url(#clip550)" d="M2318.03 1463.49 L2307.45 1474.12 L2318.03 1484.7 L2315.28 1487.5 L2304.65 1476.87 L2294.03 1487.5 L2291.29 1484.7 L2301.85 1474.12 L2291.29 1463.49 L2294.03 1460.69 L2304.65 1471.32 L2315.28 1460.69 L2318.03 1463.49 Z" fill="#000000" fill-rule="evenodd" fill-opacity="1" /><path clip-path="url(#clip550)" d="M2330.39 1485.02 L2338.03 1485.02 L2338.03 1458.66 L2329.72 1460.32 L2329.72 1456.06 L2337.98 1454.4 L2342.66 1454.4 L2342.66 1485.02 L2350.3 1485.02 L2350.3 1488.96 L2330.39 1488.96 L2330.39 1485.02 Z" fill="#000000" fill-rule="evenodd" fill-opacity="1" /><path clip-path="url(#clip550)" d="M2369.74 1457.48 Q2366.13 1457.48 2364.3 1461.04 Q2362.5 1464.58 2362.5 1471.71 Q2362.5 1478.82 2364.3 1482.38 Q2366.13 1485.92 2369.74 1485.92 Q2373.38 1485.92 2375.18 1482.38 Q2377.01 1478.82 2377.01 1471.71 Q2377.01 1464.58 2375.18 1461.04 Q2373.38 1457.48 2369.74 1457.48 M2369.74 1453.77 Q2375.55 1453.77 2378.61 1458.38 Q2381.69 1462.96 2381.69 1471.71 Q2381.69 1480.44 2378.61 1485.04 Q2375.55 1489.63 2369.74 1489.63 Q2363.93 1489.63 2360.85 1485.04 Q2357.8 1480.44 2357.8 1471.71 Q2357.8 1462.96 2360.85 1458.38 Q2363.93 1453.77 2369.74 1453.77 Z" fill="#000000" fill-rule="evenodd" fill-opacity="1" /><path clip-path="url(#clip550)" d="M2391.71 1445.99 Q2389.15 1445.99 2387.65 1447.74 Q2386.16 1449.49 2386.16 1452.54 Q2386.16 1455.57 2387.65 1457.33 Q2389.15 1459.08 2391.71 1459.08 Q2394.27 1459.08 2395.75 1457.33 Q2397.26 1455.57 2397.26 1452.54 Q2397.26 1449.49 2395.75 1447.74 Q2394.27 1445.99 2391.71 1445.99 M2399.25 1434.09 L2399.25 1437.55 Q2397.82 1436.87 2396.36 1436.51 Q2394.91 1436.16 2393.48 1436.16 Q2389.72 1436.16 2387.72 1438.69 Q2385.75 1441.23 2385.47 1446.37 Q2386.58 1444.73 2388.25 1443.87 Q2389.92 1442.98 2391.94 1442.98 Q2396.17 1442.98 2398.61 1445.56 Q2401.08 1448.12 2401.08 1452.54 Q2401.08 1456.86 2398.52 1459.48 Q2395.96 1462.09 2391.71 1462.09 Q2386.84 1462.09 2384.26 1458.37 Q2381.69 1454.62 2381.69 1447.53 Q2381.69 1440.88 2384.85 1436.93 Q2388.01 1432.96 2393.33 1432.96 Q2394.76 1432.96 2396.21 1433.24 Q2397.67 1433.52 2399.25 1434.09 Z" fill="#000000" fill-rule="evenodd" fill-opacity="1" /><path clip-path="url(#clip550)" d="M1220.63 1528.23 L1220.63 1534.5 Q1216.97 1532.74 1213.72 1531.89 Q1210.48 1531.03 1207.45 1531.03 Q1202.2 1531.03 1199.34 1533.06 Q1196.5 1535.1 1196.5 1538.86 Q1196.5 1542.01 1198.38 1543.63 Q1200.29 1545.22 1205.58 1546.21 L1209.46 1547 Q1216.65 1548.37 1220.06 1551.84 Q1223.49 1555.28 1223.49 1561.07 Q1223.49 1567.98 1218.85 1571.54 Q1214.23 1575.11 1205.29 1575.11 Q1201.91 1575.11 1198.1 1574.34 Q1194.31 1573.58 1190.23 1572.08 L1190.23 1565.46 Q1194.15 1567.66 1197.9 1568.77 Q1201.66 1569.89 1205.29 1569.89 Q1210.79 1569.89 1213.79 1567.72 Q1216.78 1565.56 1216.78 1561.55 Q1216.78 1558.05 1214.61 1556.08 Q1212.48 1554.1 1207.58 1553.11 L1203.67 1552.35 Q1196.47 1550.92 1193.26 1547.86 Q1190.04 1544.81 1190.04 1539.37 Q1190.04 1533.06 1194.47 1529.43 Q1198.92 1525.81 1206.72 1525.81 Q1210.06 1525.81 1213.53 1526.41 Q1217 1527.02 1220.63 1528.23 Z" fill="#000000" fill-rule="evenodd" fill-opacity="1" /><path clip-path="url(#clip550)" d="M1239.06 1528.42 L1239.06 1538.54 L1251.12 1538.54 L1251.12 1543.09 L1239.06 1543.09 L1239.06 1562.44 Q1239.06 1566.8 1240.24 1568.04 Q1241.45 1569.28 1245.11 1569.28 L1251.12 1569.28 L1251.12 1574.19 L1245.11 1574.19 Q1238.33 1574.19 1235.75 1571.67 Q1233.17 1569.12 1233.17 1562.44 L1233.17 1543.09 L1228.87 1543.09 L1228.87 1538.54 L1233.17 1538.54 L1233.17 1528.42 L1239.06 1528.42 Z" fill="#000000" fill-rule="evenodd" fill-opacity="1" /><path clip-path="url(#clip550)" d="M1289.32 1554.9 L1289.32 1557.76 L1262.39 1557.76 Q1262.77 1563.81 1266.02 1566.99 Q1269.3 1570.14 1275.12 1570.14 Q1278.49 1570.14 1281.65 1569.32 Q1284.83 1568.49 1287.95 1566.83 L1287.95 1572.37 Q1284.8 1573.71 1281.49 1574.41 Q1278.18 1575.11 1274.77 1575.11 Q1266.24 1575.11 1261.24 1570.14 Q1256.28 1565.18 1256.28 1556.71 Q1256.28 1547.96 1260.99 1542.83 Q1265.73 1537.68 1273.75 1537.68 Q1280.95 1537.68 1285.11 1542.33 Q1289.32 1546.94 1289.32 1554.9 M1283.46 1553.18 Q1283.4 1548.37 1280.75 1545.51 Q1278.14 1542.64 1273.82 1542.64 Q1268.91 1542.64 1265.95 1545.41 Q1263.03 1548.18 1262.58 1553.21 L1283.46 1553.18 Z" fill="#000000" fill-rule="evenodd" fill-opacity="1" /><path clip-path="url(#clip550)" d="M1304.59 1568.84 L1304.59 1587.74 L1298.71 1587.74 L1298.71 1538.54 L1304.59 1538.54 L1304.59 1543.95 Q1306.44 1540.77 1309.24 1539.24 Q1312.07 1537.68 1315.99 1537.68 Q1322.48 1537.68 1326.52 1542.83 Q1330.6 1547.99 1330.6 1556.39 Q1330.6 1564.8 1326.52 1569.95 Q1322.48 1575.11 1315.99 1575.11 Q1312.07 1575.11 1309.24 1573.58 Q1306.44 1572.02 1304.59 1568.84 M1324.52 1556.39 Q1324.52 1549.93 1321.84 1546.27 Q1319.2 1542.58 1314.56 1542.58 Q1309.91 1542.58 1307.24 1546.27 Q1304.59 1549.93 1304.59 1556.39 Q1304.59 1562.85 1307.24 1566.55 Q1309.91 1570.21 1314.56 1570.21 Q1319.2 1570.21 1321.84 1566.55 Q1324.52 1562.85 1324.52 1556.39 Z" fill="#000000" fill-rule="evenodd" fill-opacity="1" /><path clip-path="url(#clip550)" d="M1363.03 1539.59 L1363.03 1545.13 Q1360.55 1543.85 1357.87 1543.22 Q1355.2 1542.58 1352.34 1542.58 Q1347.98 1542.58 1345.78 1543.92 Q1343.62 1545.25 1343.62 1547.93 Q1343.62 1549.96 1345.18 1551.14 Q1346.73 1552.29 1351.45 1553.34 L1353.45 1553.78 Q1359.69 1555.12 1362.3 1557.57 Q1364.94 1559.99 1364.94 1564.35 Q1364.94 1569.32 1360.99 1572.21 Q1357.08 1575.11 1350.2 1575.11 Q1347.34 1575.11 1344.22 1574.54 Q1341.13 1573.99 1337.7 1572.88 L1337.7 1566.83 Q1340.94 1568.52 1344.09 1569.38 Q1347.24 1570.21 1350.33 1570.21 Q1354.47 1570.21 1356.7 1568.81 Q1358.92 1567.37 1358.92 1564.8 Q1358.92 1562.41 1357.3 1561.14 Q1355.71 1559.86 1350.27 1558.68 L1348.23 1558.21 Q1342.79 1557.06 1340.37 1554.71 Q1337.95 1552.32 1337.95 1548.18 Q1337.95 1543.15 1341.51 1540.42 Q1345.08 1537.68 1351.64 1537.68 Q1354.88 1537.68 1357.75 1538.16 Q1360.61 1538.63 1363.03 1539.59 Z" fill="#000000" fill-rule="evenodd" fill-opacity="1" /><polyline clip-path="url(#clip552)" style="stroke:#000000; stroke-linecap:butt; stroke-linejoin:round; stroke-width:2; stroke-opacity:0.1; fill:none" points="
  202.227,1272.42 2352.76,1272.42 
  "/>
<polyline clip-path="url(#clip552)" style="stroke:#000000; stroke-linecap:butt; stroke-linejoin:round; stroke-width:2; stroke-opacity:0.1; fill:none" points="
  202.227,1003.07 2352.76,1003.07 
  "/>
<polyline clip-path="url(#clip552)" style="stroke:#000000; stroke-linecap:butt; stroke-linejoin:round; stroke-width:2; stroke-opacity:0.1; fill:none" points="
  202.227,733.726 2352.76,733.726 
  "/>
<polyline clip-path="url(#clip552)" style="stroke:#000000; stroke-linecap:butt; stroke-linejoin:round; stroke-width:2; stroke-opacity:0.1; fill:none" points="
  202.227,464.379 2352.76,464.379 
  "/>
<polyline clip-path="url(#clip552)" style="stroke:#000000; stroke-linecap:butt; stroke-linejoin:round; stroke-width:2; stroke-opacity:0.1; fill:none" points="
  202.227,195.032 2352.76,195.032 
  "/>
<polyline clip-path="url(#clip550)" style="stroke:#000000; stroke-linecap:butt; stroke-linejoin:round; stroke-width:4; stroke-opacity:1; fill:none" points="
  202.227,1410.9 202.227,47.2441 
  "/>
<polyline clip-path="url(#clip550)" style="stroke:#000000; stroke-linecap:butt; stroke-linejoin:round; stroke-width:4; stroke-opacity:1; fill:none" points="
  202.227,1272.42 221.125,1272.42 
  "/>
<polyline clip-path="url(#clip550)" style="stroke:#000000; stroke-linecap:butt; stroke-linejoin:round; stroke-width:4; stroke-opacity:1; fill:none" points="
  202.227,1003.07 221.125,1003.07 
  "/>
<polyline clip-path="url(#clip550)" style="stroke:#000000; stroke-linecap:butt; stroke-linejoin:round; stroke-width:4; stroke-opacity:1; fill:none" points="
  202.227,733.726 221.125,733.726 
  "/>
<polyline clip-path="url(#clip550)" style="stroke:#000000; stroke-linecap:butt; stroke-linejoin:round; stroke-width:4; stroke-opacity:1; fill:none" points="
  202.227,464.379 221.125,464.379 
  "/>
<polyline clip-path="url(#clip550)" style="stroke:#000000; stroke-linecap:butt; stroke-linejoin:round; stroke-width:4; stroke-opacity:1; fill:none" points="
  202.227,195.032 221.125,195.032 
  "/>
<path clip-path="url(#clip550)" d="M156.644 1259.21 L144.839 1277.66 L156.644 1277.66 L156.644 1259.21 M155.417 1255.14 L161.297 1255.14 L161.297 1277.66 L166.227 1277.66 L166.227 1281.55 L161.297 1281.55 L161.297 1289.7 L156.644 1289.7 L156.644 1281.55 L141.042 1281.55 L141.042 1277.04 L155.417 1255.14 Z" fill="#000000" fill-rule="evenodd" fill-opacity="1" /><path clip-path="url(#clip550)" d="M154.7 1001.21 Q151.552 1001.21 149.7 1003.36 Q147.871 1005.51 147.871 1009.26 Q147.871 1012.99 149.7 1015.17 Q151.552 1017.32 154.7 1017.32 Q157.848 1017.32 159.677 1015.17 Q161.528 1012.99 161.528 1009.26 Q161.528 1005.51 159.677 1003.36 Q157.848 1001.21 154.7 1001.21 M163.982 986.557 L163.982 990.816 Q162.223 989.983 160.417 989.543 Q158.635 989.103 156.876 989.103 Q152.246 989.103 149.792 992.228 Q147.362 995.353 147.015 1001.67 Q148.38 999.659 150.441 998.594 Q152.501 997.506 154.978 997.506 Q160.186 997.506 163.195 1000.68 Q166.227 1003.83 166.227 1009.26 Q166.227 1014.59 163.079 1017.81 Q159.931 1021.02 154.7 1021.02 Q148.704 1021.02 145.533 1016.44 Q142.362 1011.83 142.362 1003.11 Q142.362 994.913 146.251 990.052 Q150.14 985.168 156.69 985.168 Q158.45 985.168 160.232 985.515 Q162.038 985.862 163.982 986.557 Z" fill="#000000" fill-rule="evenodd" fill-opacity="1" /><path clip-path="url(#clip550)" d="M154.376 734.594 Q151.042 734.594 149.121 736.376 Q147.223 738.159 147.223 741.284 Q147.223 744.409 149.121 746.191 Q151.042 747.974 154.376 747.974 Q157.709 747.974 159.63 746.191 Q161.552 744.386 161.552 741.284 Q161.552 738.159 159.63 736.376 Q157.732 734.594 154.376 734.594 M149.7 732.603 Q146.691 731.862 145.001 729.802 Q143.334 727.742 143.334 724.779 Q143.334 720.636 146.274 718.228 Q149.237 715.821 154.376 715.821 Q159.538 715.821 162.477 718.228 Q165.417 720.636 165.417 724.779 Q165.417 727.742 163.727 729.802 Q162.061 731.862 159.075 732.603 Q162.454 733.39 164.329 735.682 Q166.227 737.974 166.227 741.284 Q166.227 746.307 163.149 748.992 Q160.093 751.677 154.376 751.677 Q148.658 751.677 145.579 748.992 Q142.524 746.307 142.524 741.284 Q142.524 737.974 144.422 735.682 Q146.32 733.39 149.7 732.603 M147.987 725.219 Q147.987 727.904 149.653 729.409 Q151.343 730.913 154.376 730.913 Q157.385 730.913 159.075 729.409 Q160.788 727.904 160.788 725.219 Q160.788 722.534 159.075 721.029 Q157.385 719.525 154.376 719.525 Q151.343 719.525 149.653 721.029 Q147.987 722.534 147.987 725.219 Z" fill="#000000" fill-rule="evenodd" fill-opacity="1" /><path clip-path="url(#clip550)" d="M114.931 477.724 L122.57 477.724 L122.57 451.358 L114.26 453.025 L114.26 448.766 L122.524 447.099 L127.2 447.099 L127.2 477.724 L134.839 477.724 L134.839 481.659 L114.931 481.659 L114.931 477.724 Z" fill="#000000" fill-rule="evenodd" fill-opacity="1" /><path clip-path="url(#clip550)" d="M154.283 450.178 Q150.672 450.178 148.843 453.742 Q147.038 457.284 147.038 464.414 Q147.038 471.52 148.843 475.085 Q150.672 478.627 154.283 478.627 Q157.917 478.627 159.723 475.085 Q161.552 471.52 161.552 464.414 Q161.552 457.284 159.723 453.742 Q157.917 450.178 154.283 450.178 M154.283 446.474 Q160.093 446.474 163.149 451.08 Q166.227 455.664 166.227 464.414 Q166.227 473.14 163.149 477.747 Q160.093 482.33 154.283 482.33 Q148.473 482.33 145.394 477.747 Q142.339 473.14 142.339 464.414 Q142.339 455.664 145.394 451.08 Q148.473 446.474 154.283 446.474 Z" fill="#000000" fill-rule="evenodd" fill-opacity="1" /><path clip-path="url(#clip550)" d="M116.529 208.377 L124.168 208.377 L124.168 182.011 L115.857 183.678 L115.857 179.419 L124.121 177.752 L128.797 177.752 L128.797 208.377 L136.436 208.377 L136.436 212.312 L116.529 212.312 L116.529 208.377 Z" fill="#000000" fill-rule="evenodd" fill-opacity="1" /><path clip-path="url(#clip550)" d="M149.908 208.377 L166.227 208.377 L166.227 212.312 L144.283 212.312 L144.283 208.377 Q146.945 205.622 151.528 200.993 Q156.135 196.34 157.315 194.997 Q159.561 192.474 160.44 190.738 Q161.343 188.979 161.343 187.289 Q161.343 184.534 159.399 182.798 Q157.478 181.062 154.376 181.062 Q152.177 181.062 149.723 181.826 Q147.292 182.59 144.515 184.141 L144.515 179.419 Q147.339 178.284 149.792 177.706 Q152.246 177.127 154.283 177.127 Q159.653 177.127 162.848 179.812 Q166.042 182.497 166.042 186.988 Q166.042 189.118 165.232 191.039 Q164.445 192.937 162.339 195.53 Q161.76 196.201 158.658 199.418 Q155.556 202.613 149.908 208.377 Z" fill="#000000" fill-rule="evenodd" fill-opacity="1" /><path clip-path="url(#clip550)" d="M20.1444 1031.54 L26.9239 1031.54 Q23.9002 1034.78 22.4043 1038.48 Q20.9083 1042.14 20.9083 1046.27 Q20.9083 1054.42 25.9054 1058.75 Q30.8707 1063.08 40.2919 1063.08 Q49.6813 1063.08 54.6784 1058.75 Q59.6436 1054.42 59.6436 1046.27 Q59.6436 1042.14 58.1477 1038.48 Q56.6518 1034.78 53.6281 1031.54 L60.3439 1031.54 Q62.6355 1034.91 63.7814 1038.7 Q64.9272 1042.45 64.9272 1046.66 Q64.9272 1057.45 58.3387 1063.65 Q51.7183 1069.86 40.2919 1069.86 Q28.8336 1069.86 22.2451 1063.65 Q15.6248 1057.45 15.6248 1046.66 Q15.6248 1042.39 16.7706 1038.63 Q17.8846 1034.85 20.1444 1031.54 Z" fill="#000000" fill-rule="evenodd" fill-opacity="1" /><path clip-path="url(#clip550)" d="M32.4621 1008.05 Q32.4621 1012.76 36.1542 1015.5 Q39.8145 1018.23 46.212 1018.23 Q52.6095 1018.23 56.3017 1015.53 Q59.9619 1012.79 59.9619 1008.05 Q59.9619 1003.37 56.2698 1000.63 Q52.5777 997.894 46.212 997.894 Q39.8781 997.894 36.186 1000.63 Q32.4621 1003.37 32.4621 1008.05 M27.4968 1008.05 Q27.4968 1000.41 32.4621 996.048 Q37.4273 991.688 46.212 991.688 Q54.9649 991.688 59.9619 996.048 Q64.9272 1000.41 64.9272 1008.05 Q64.9272 1015.72 59.9619 1020.08 Q54.9649 1024.41 46.212 1024.41 Q37.4273 1024.41 32.4621 1020.08 Q27.4968 1015.72 27.4968 1008.05 Z" fill="#000000" fill-rule="evenodd" fill-opacity="1" /><path clip-path="url(#clip550)" d="M35.1993 954.225 Q31.2526 952.029 29.3747 948.974 Q27.4968 945.918 27.4968 941.78 Q27.4968 936.21 31.4117 933.187 Q35.2948 930.163 42.4881 930.163 L64.0042 930.163 L64.0042 936.051 L42.679 936.051 Q37.5546 936.051 35.072 937.866 Q32.5894 939.68 32.5894 943.404 Q32.5894 947.955 35.6131 950.597 Q38.6368 953.239 43.8567 953.239 L64.0042 953.239 L64.0042 959.127 L42.679 959.127 Q37.5228 959.127 35.072 960.941 Q32.5894 962.755 32.5894 966.543 Q32.5894 971.031 35.6449 973.673 Q38.6686 976.314 43.8567 976.314 L64.0042 976.314 L64.0042 982.203 L28.3562 982.203 L28.3562 976.314 L33.8944 976.314 Q30.616 974.309 29.0564 971.508 Q27.4968 968.707 27.4968 964.856 Q27.4968 960.973 29.4702 958.268 Q31.4436 955.53 35.1993 954.225 Z" fill="#000000" fill-rule="evenodd" fill-opacity="1" /><path clip-path="url(#clip550)" d="M58.657 912.816 L77.5631 912.816 L77.5631 918.705 L28.3562 918.705 L28.3562 912.816 L33.7671 912.816 Q30.5842 910.97 29.0564 908.17 Q27.4968 905.337 27.4968 901.422 Q27.4968 894.929 32.6531 890.887 Q37.8093 886.813 46.212 886.813 Q54.6147 886.813 59.771 890.887 Q64.9272 894.929 64.9272 901.422 Q64.9272 905.337 63.3994 908.17 Q61.8398 910.97 58.657 912.816 M46.212 892.892 Q39.7508 892.892 36.0905 895.565 Q32.3984 898.207 32.3984 902.854 Q32.3984 907.501 36.0905 910.175 Q39.7508 912.816 46.212 912.816 Q52.6732 912.816 56.3653 910.175 Q60.0256 907.501 60.0256 902.854 Q60.0256 898.207 56.3653 895.565 Q52.6732 892.892 46.212 892.892 Z" fill="#000000" fill-rule="evenodd" fill-opacity="1" /><path clip-path="url(#clip550)" d="M14.479 877.105 L14.479 871.248 L64.0042 871.248 L64.0042 877.105 L14.479 877.105 Z" fill="#000000" fill-rule="evenodd" fill-opacity="1" /><path clip-path="url(#clip550)" d="M44.7161 828.503 L47.5806 828.503 L47.5806 855.43 Q53.6281 855.048 56.8109 851.801 Q59.9619 848.523 59.9619 842.698 Q59.9619 839.324 59.1344 836.173 Q58.3069 832.991 56.6518 829.871 L62.1899 829.871 Q63.5267 833.022 64.227 836.333 Q64.9272 839.643 64.9272 843.048 Q64.9272 851.578 59.9619 856.575 Q54.9967 861.541 46.5303 861.541 Q37.7774 861.541 32.6531 856.83 Q27.4968 852.088 27.4968 844.067 Q27.4968 836.874 32.1438 832.704 Q36.7589 828.503 44.7161 828.503 M42.9973 834.359 Q38.1912 834.423 35.3266 837.065 Q32.4621 839.675 32.4621 844.003 Q32.4621 848.905 35.2312 851.865 Q38.0002 854.793 43.0292 855.239 L42.9973 834.359 Z" fill="#000000" fill-rule="evenodd" fill-opacity="1" /><path clip-path="url(#clip550)" d="M18.2347 813.098 L28.3562 813.098 L28.3562 801.035 L32.9077 801.035 L32.9077 813.098 L52.2594 813.098 Q56.6199 813.098 57.8613 811.92 Q59.1026 810.711 59.1026 807.05 L59.1026 801.035 L64.0042 801.035 L64.0042 807.05 Q64.0042 813.83 61.4897 816.408 Q58.9434 818.986 52.2594 818.986 L32.9077 818.986 L32.9077 823.283 L28.3562 823.283 L28.3562 818.986 L18.2347 818.986 L18.2347 813.098 Z" fill="#000000" fill-rule="evenodd" fill-opacity="1" /><path clip-path="url(#clip550)" d="M28.3562 793.332 L28.3562 787.476 L64.0042 787.476 L64.0042 793.332 L28.3562 793.332 M14.479 793.332 L14.479 787.476 L21.895 787.476 L21.895 793.332 L14.479 793.332 Z" fill="#000000" fill-rule="evenodd" fill-opacity="1" /><path clip-path="url(#clip550)" d="M32.4621 761.408 Q32.4621 766.119 36.1542 768.856 Q39.8145 771.593 46.212 771.593 Q52.6095 771.593 56.3017 768.888 Q59.9619 766.151 59.9619 761.408 Q59.9619 756.729 56.2698 753.992 Q52.5777 751.255 46.212 751.255 Q39.8781 751.255 36.186 753.992 Q32.4621 756.729 32.4621 761.408 M27.4968 761.408 Q27.4968 753.769 32.4621 749.409 Q37.4273 745.048 46.212 745.048 Q54.9649 745.048 59.9619 749.409 Q64.9272 753.769 64.9272 761.408 Q64.9272 769.079 59.9619 773.439 Q54.9649 777.768 46.212 777.768 Q37.4273 777.768 32.4621 773.439 Q27.4968 769.079 27.4968 761.408 Z" fill="#000000" fill-rule="evenodd" fill-opacity="1" /><path clip-path="url(#clip550)" d="M42.4881 705.708 L64.0042 705.708 L64.0042 711.565 L42.679 711.565 Q37.6183 711.565 35.1038 713.538 Q32.5894 715.511 32.5894 719.458 Q32.5894 724.201 35.6131 726.938 Q38.6368 729.675 43.8567 729.675 L64.0042 729.675 L64.0042 735.563 L28.3562 735.563 L28.3562 729.675 L33.8944 729.675 Q30.6797 727.574 29.0883 724.742 Q27.4968 721.877 27.4968 718.153 Q27.4968 712.01 31.3163 708.859 Q35.1038 705.708 42.4881 705.708 Z" fill="#000000" fill-rule="evenodd" fill-opacity="1" /><path clip-path="url(#clip550)" d="M16.4842 679.641 L16.4842 639.441 L21.895 639.441 L21.895 656.31 L64.0042 656.31 L64.0042 662.772 L21.895 662.772 L21.895 679.641 L16.4842 679.641 Z" fill="#000000" fill-rule="evenodd" fill-opacity="1" /><path clip-path="url(#clip550)" d="M28.3562 635.494 L28.3562 629.638 L64.0042 629.638 L64.0042 635.494 L28.3562 635.494 M14.479 635.494 L14.479 629.638 L21.895 629.638 L21.895 635.494 L14.479 635.494 Z" fill="#000000" fill-rule="evenodd" fill-opacity="1" /><path clip-path="url(#clip550)" d="M35.1993 589.63 Q31.2526 587.433 29.3747 584.378 Q27.4968 581.322 27.4968 577.185 Q27.4968 571.615 31.4117 568.591 Q35.2948 565.567 42.4881 565.567 L64.0042 565.567 L64.0042 571.455 L42.679 571.455 Q37.5546 571.455 35.072 573.27 Q32.5894 575.084 32.5894 578.808 Q32.5894 583.359 35.6131 586.001 Q38.6368 588.643 43.8567 588.643 L64.0042 588.643 L64.0042 594.531 L42.679 594.531 Q37.5228 594.531 35.072 596.345 Q32.5894 598.16 32.5894 601.947 Q32.5894 606.435 35.6449 609.077 Q38.6686 611.719 43.8567 611.719 L64.0042 611.719 L64.0042 617.607 L28.3562 617.607 L28.3562 611.719 L33.8944 611.719 Q30.616 609.713 29.0564 606.912 Q27.4968 604.112 27.4968 600.26 Q27.4968 596.377 29.4702 593.672 Q31.4436 590.935 35.1993 589.63 Z" fill="#000000" fill-rule="evenodd" fill-opacity="1" /><path clip-path="url(#clip550)" d="M44.7161 523.394 L47.5806 523.394 L47.5806 550.321 Q53.6281 549.939 56.8109 546.693 Q59.9619 543.415 59.9619 537.59 Q59.9619 534.216 59.1344 531.065 Q58.3069 527.882 56.6518 524.763 L62.1899 524.763 Q63.5267 527.914 64.227 531.224 Q64.9272 534.534 64.9272 537.94 Q64.9272 546.47 59.9619 551.467 Q54.9967 556.432 46.5303 556.432 Q37.7774 556.432 32.6531 551.722 Q27.4968 546.979 27.4968 538.959 Q27.4968 531.765 32.1438 527.596 Q36.7589 523.394 44.7161 523.394 M42.9973 529.251 Q38.1912 529.314 35.3266 531.956 Q32.4621 534.566 32.4621 538.895 Q32.4621 543.796 35.2312 546.757 Q38.0002 549.685 43.0292 550.13 L42.9973 529.251 Z" fill="#000000" fill-rule="evenodd" fill-opacity="1" /><path clip-path="url(#clip550)" d="M28.3562 493.062 L28.3562 487.205 L64.0042 487.205 L64.0042 493.062 L28.3562 493.062 M14.479 493.062 L14.479 487.205 L21.895 487.205 L21.895 493.062 L14.479 493.062 Z" fill="#000000" fill-rule="evenodd" fill-opacity="1" /><path clip-path="url(#clip550)" d="M42.4881 445.319 L64.0042 445.319 L64.0042 451.175 L42.679 451.175 Q37.6183 451.175 35.1038 453.149 Q32.5894 455.122 32.5894 459.069 Q32.5894 463.811 35.6131 466.549 Q38.6368 469.286 43.8567 469.286 L64.0042 469.286 L64.0042 475.174 L28.3562 475.174 L28.3562 469.286 L33.8944 469.286 Q30.6797 467.185 29.0883 464.352 Q27.4968 461.488 27.4968 457.764 Q27.4968 451.621 31.3163 448.47 Q35.1038 445.319 42.4881 445.319 Z" fill="#000000" fill-rule="evenodd" fill-opacity="1" /><path clip-path="url(#clip550)" d="M29.4065 390.192 L34.9447 390.192 Q33.6716 392.675 33.035 395.348 Q32.3984 398.022 32.3984 400.886 Q32.3984 405.247 33.7352 407.443 Q35.072 409.607 37.7456 409.607 Q39.7826 409.607 40.9603 408.048 Q42.1061 406.488 43.1565 401.778 L43.6021 399.772 Q44.9389 393.534 47.3897 390.924 Q49.8086 388.282 54.1691 388.282 Q59.1344 388.282 62.0308 392.229 Q64.9272 396.144 64.9272 403.019 Q64.9272 405.883 64.3543 409.003 Q63.8132 412.09 62.6992 415.527 L56.6518 415.527 Q58.3387 412.281 59.198 409.13 Q60.0256 405.979 60.0256 402.892 Q60.0256 398.754 58.6251 396.526 Q57.1929 394.298 54.6147 394.298 Q52.2276 394.298 50.9545 395.921 Q49.6813 397.513 48.5037 402.955 L48.0262 404.992 Q46.8804 410.435 44.5251 412.854 Q42.138 415.273 38.0002 415.273 Q32.9713 415.273 30.2341 411.708 Q27.4968 408.143 27.4968 401.587 Q27.4968 398.34 27.9743 395.476 Q28.4517 392.611 29.4065 390.192 Z" fill="#000000" fill-rule="evenodd" fill-opacity="1" /><polyline clip-path="url(#clip552)" style="stroke:#009af9; stroke-linecap:butt; stroke-linejoin:round; stroke-width:4; stroke-opacity:1; fill:none" points="
  263.091,1372.3 369.87,85.838 476.649,674.467 583.428,779.817 690.207,862.519 796.986,893.129 903.765,923.619 1010.54,912.815 1117.32,973.695 1224.1,946.082 
  1330.88,938.144 1437.66,953.813 1544.44,965.842 1651.22,936.147 1758,938.383 1864.78,947.749 1971.55,954.759 2078.33,949.781 2185.11,956.564 2291.89,925.893 
  
  "/>
</svg>
