<?xml version="1.0" encoding="utf-8"?>
<svg xmlns="http://www.w3.org/2000/svg" xmlns:xlink="http://www.w3.org/1999/xlink" width="600" height="400" viewBox="0 0 2400 1600">
<defs>
  <clipPath id="clip750">
    <rect x="0" y="0" width="2400" height="1600"/>
  </clipPath>
</defs>
<path clip-path="url(#clip750)" d="
M0 1600 L2400 1600 L2400 0 L0 0  Z
  " fill="#ffffff" fill-rule="evenodd" fill-opacity="1"/>
<defs>
  <clipPath id="clip751">
    <rect x="480" y="0" width="1681" height="1600"/>
  </clipPath>
</defs>
<path clip-path="url(#clip750)" d="
M204.218 1423.18 L2352.76 1423.18 L2352.76 47.2441 L204.218 47.2441  Z
  " fill="#ffffff" fill-rule="evenodd" fill-opacity="1"/>
<defs>
  <clipPath id="clip752">
    <rect x="204" y="47" width="2150" height="1377"/>
  </clipPath>
</defs>
<polyline clip-path="url(#clip752)" style="stroke:#000000; stroke-linecap:round; stroke-linejoin:round; stroke-width:2; stroke-opacity:0.1; fill:none" points="
  259.946,1423.18 259.946,47.2441 
  "/>
<polyline clip-path="url(#clip752)" style="stroke:#000000; stroke-linecap:round; stroke-linejoin:round; stroke-width:2; stroke-opacity:0.1; fill:none" points="
  767.946,1423.18 767.946,47.2441 
  "/>
<polyline clip-path="url(#clip752)" style="stroke:#000000; stroke-linecap:round; stroke-linejoin:round; stroke-width:2; stroke-opacity:0.1; fill:none" points="
  1275.95,1423.18 1275.95,47.2441 
  "/>
<polyline clip-path="url(#clip752)" style="stroke:#000000; stroke-linecap:round; stroke-linejoin:round; stroke-width:2; stroke-opacity:0.1; fill:none" points="
  1783.95,1423.18 1783.95,47.2441 
  "/>
<polyline clip-path="url(#clip752)" style="stroke:#000000; stroke-linecap:round; stroke-linejoin:round; stroke-width:2; stroke-opacity:0.1; fill:none" points="
  2291.95,1423.18 2291.95,47.2441 
  "/>
<polyline clip-path="url(#clip750)" style="stroke:#000000; stroke-linecap:round; stroke-linejoin:round; stroke-width:4; stroke-opacity:1; fill:none" points="
  204.218,1423.18 2352.76,1423.18 
  "/>
<polyline clip-path="url(#clip750)" style="stroke:#000000; stroke-linecap:round; stroke-linejoin:round; stroke-width:4; stroke-opacity:1; fill:none" points="
  259.946,1423.18 259.946,1404.28 
  "/>
<polyline clip-path="url(#clip750)" style="stroke:#000000; stroke-linecap:round; stroke-linejoin:round; stroke-width:4; stroke-opacity:1; fill:none" points="
  767.946,1423.18 767.946,1404.28 
  "/>
<polyline clip-path="url(#clip750)" style="stroke:#000000; stroke-linecap:round; stroke-linejoin:round; stroke-width:4; stroke-opacity:1; fill:none" points="
  1275.95,1423.18 1275.95,1404.28 
  "/>
<polyline clip-path="url(#clip750)" style="stroke:#000000; stroke-linecap:round; stroke-linejoin:round; stroke-width:4; stroke-opacity:1; fill:none" points="
  1783.95,1423.18 1783.95,1404.28 
  "/>
<polyline clip-path="url(#clip750)" style="stroke:#000000; stroke-linecap:round; stroke-linejoin:round; stroke-width:4; stroke-opacity:1; fill:none" points="
  2291.95,1423.18 2291.95,1404.28 
  "/>
<path clip-path="url(#clip750)" d="M167.747 1454.1 Q164.136 1454.1 162.308 1457.66 Q160.502 1461.2 160.502 1468.33 Q160.502 1475.44 162.308 1479.01 Q164.136 1482.55 167.747 1482.55 Q171.382 1482.55 173.187 1479.01 Q175.016 1475.44 175.016 1468.33 Q175.016 1461.2 173.187 1457.66 Q171.382 1454.1 167.747 1454.1 M167.747 1450.39 Q173.557 1450.39 176.613 1455 Q179.692 1459.58 179.692 1468.33 Q179.692 1477.06 176.613 1481.67 Q173.557 1486.25 167.747 1486.25 Q161.937 1486.25 158.858 1481.67 Q155.803 1477.06 155.803 1468.33 Q155.803 1459.58 158.858 1455 Q161.937 1450.39 167.747 1450.39 Z" fill="#000000" fill-rule="evenodd" fill-opacity="1" /><path clip-path="url(#clip750)" d="M187.909 1479.7 L192.793 1479.7 L192.793 1485.58 L187.909 1485.58 L187.909 1479.7 Z" fill="#000000" fill-rule="evenodd" fill-opacity="1" /><path clip-path="url(#clip750)" d="M212.979 1454.1 Q209.367 1454.1 207.539 1457.66 Q205.733 1461.2 205.733 1468.33 Q205.733 1475.44 207.539 1479.01 Q209.367 1482.55 212.979 1482.55 Q216.613 1482.55 218.418 1479.01 Q220.247 1475.44 220.247 1468.33 Q220.247 1461.2 218.418 1457.66 Q216.613 1454.1 212.979 1454.1 M212.979 1450.39 Q218.789 1450.39 221.844 1455 Q224.923 1459.58 224.923 1468.33 Q224.923 1477.06 221.844 1481.67 Q218.789 1486.25 212.979 1486.25 Q207.168 1486.25 204.09 1481.67 Q201.034 1477.06 201.034 1468.33 Q201.034 1459.58 204.09 1455 Q207.168 1450.39 212.979 1450.39 Z" fill="#000000" fill-rule="evenodd" fill-opacity="1" /><path clip-path="url(#clip750)" d="M243.14 1454.1 Q239.529 1454.1 237.701 1457.66 Q235.895 1461.2 235.895 1468.33 Q235.895 1475.44 237.701 1479.01 Q239.529 1482.55 243.14 1482.55 Q246.775 1482.55 248.58 1479.01 Q250.409 1475.44 250.409 1468.33 Q250.409 1461.2 248.58 1457.66 Q246.775 1454.1 243.14 1454.1 M243.14 1450.39 Q248.951 1450.39 252.006 1455 Q255.085 1459.58 255.085 1468.33 Q255.085 1477.06 252.006 1481.67 Q248.951 1486.25 243.14 1486.25 Q237.33 1486.25 234.252 1481.67 Q231.196 1477.06 231.196 1468.33 Q231.196 1459.58 234.252 1455 Q237.33 1450.39 243.14 1450.39 Z" fill="#000000" fill-rule="evenodd" fill-opacity="1" /><path clip-path="url(#clip750)" d="M284.251 1459.65 L274.876 1472.27 L284.737 1485.58 L279.714 1485.58 L272.168 1475.39 L264.622 1485.58 L259.599 1485.58 L269.668 1472.02 L260.455 1459.65 L265.478 1459.65 L272.353 1468.89 L279.228 1459.65 L284.251 1459.65 Z" fill="#000000" fill-rule="evenodd" fill-opacity="1" /><path clip-path="url(#clip750)" d="M292.168 1481.64 L299.807 1481.64 L299.807 1455.28 L291.497 1456.95 L291.497 1452.69 L299.76 1451.02 L304.436 1451.02 L304.436 1481.64 L312.075 1481.64 L312.075 1485.58 L292.168 1485.58 L292.168 1481.64 Z" fill="#000000" fill-rule="evenodd" fill-opacity="1" /><path clip-path="url(#clip750)" d="M331.52 1454.1 Q327.908 1454.1 326.08 1457.66 Q324.274 1461.2 324.274 1468.33 Q324.274 1475.44 326.08 1479.01 Q327.908 1482.55 331.52 1482.55 Q335.154 1482.55 336.959 1479.01 Q338.788 1475.44 338.788 1468.33 Q338.788 1461.2 336.959 1457.66 Q335.154 1454.1 331.52 1454.1 M331.52 1450.39 Q337.33 1450.39 340.385 1455 Q343.464 1459.58 343.464 1468.33 Q343.464 1477.06 340.385 1481.67 Q337.33 1486.25 331.52 1486.25 Q325.709 1486.25 322.631 1481.67 Q319.575 1477.06 319.575 1468.33 Q319.575 1459.58 322.631 1455 Q325.709 1450.39 331.52 1450.39 Z" fill="#000000" fill-rule="evenodd" fill-opacity="1" /><path clip-path="url(#clip750)" d="M356.681 1459.35 Q354.644 1459.35 353.464 1460.56 Q352.283 1461.78 352.283 1463.89 Q352.283 1465.97 353.464 1467.18 Q354.644 1468.4 356.681 1468.4 Q358.695 1468.4 359.876 1467.18 Q361.056 1465.97 361.056 1463.89 Q361.056 1461.78 359.876 1460.56 Q358.695 1459.35 356.681 1459.35 M362.654 1451.16 L362.654 1453.54 Q361.519 1453.08 360.362 1452.85 Q359.205 1452.59 358.07 1452.59 Q355.107 1452.59 353.533 1454.33 Q351.959 1456.09 351.728 1459.63 Q352.607 1458.5 353.927 1457.89 Q355.269 1457.29 356.843 1457.29 Q360.2 1457.29 362.144 1459.05 Q364.089 1460.83 364.089 1463.89 Q364.089 1466.83 362.052 1468.66 Q360.038 1470.46 356.681 1470.46 Q352.816 1470.46 350.779 1467.89 Q348.742 1465.33 348.742 1460.42 Q348.742 1455.83 351.242 1453.13 Q353.742 1450.39 357.955 1450.39 Q359.089 1450.39 360.246 1450.58 Q361.404 1450.79 362.654 1451.16 Z" fill="#000000" fill-rule="evenodd" fill-opacity="1" /><path clip-path="url(#clip750)" d="M650.436 1481.64 L658.074 1481.64 L658.074 1455.28 L649.764 1456.95 L649.764 1452.69 L658.028 1451.02 L662.704 1451.02 L662.704 1481.64 L670.343 1481.64 L670.343 1485.58 L650.436 1485.58 L650.436 1481.64 Z" fill="#000000" fill-rule="evenodd" fill-opacity="1" /><path clip-path="url(#clip750)" d="M689.787 1454.1 Q686.176 1454.1 684.347 1457.66 Q682.542 1461.2 682.542 1468.33 Q682.542 1475.44 684.347 1479.01 Q686.176 1482.55 689.787 1482.55 Q693.421 1482.55 695.227 1479.01 Q697.056 1475.44 697.056 1468.33 Q697.056 1461.2 695.227 1457.66 Q693.421 1454.1 689.787 1454.1 M689.787 1450.39 Q695.597 1450.39 698.653 1455 Q701.732 1459.58 701.732 1468.33 Q701.732 1477.06 698.653 1481.67 Q695.597 1486.25 689.787 1486.25 Q683.977 1486.25 680.898 1481.67 Q677.843 1477.06 677.843 1468.33 Q677.843 1459.58 680.898 1455 Q683.977 1450.39 689.787 1450.39 Z" fill="#000000" fill-rule="evenodd" fill-opacity="1" /><path clip-path="url(#clip750)" d="M709.949 1479.7 L714.833 1479.7 L714.833 1485.58 L709.949 1485.58 L709.949 1479.7 Z" fill="#000000" fill-rule="evenodd" fill-opacity="1" /><path clip-path="url(#clip750)" d="M735.018 1454.1 Q731.407 1454.1 729.579 1457.66 Q727.773 1461.2 727.773 1468.33 Q727.773 1475.44 729.579 1479.01 Q731.407 1482.55 735.018 1482.55 Q738.653 1482.55 740.458 1479.01 Q742.287 1475.44 742.287 1468.33 Q742.287 1461.2 740.458 1457.66 Q738.653 1454.1 735.018 1454.1 M735.018 1450.39 Q740.829 1450.39 743.884 1455 Q746.963 1459.58 746.963 1468.33 Q746.963 1477.06 743.884 1481.67 Q740.829 1486.25 735.018 1486.25 Q729.208 1486.25 726.13 1481.67 Q723.074 1477.06 723.074 1468.33 Q723.074 1459.58 726.13 1455 Q729.208 1450.39 735.018 1450.39 Z" fill="#000000" fill-rule="evenodd" fill-opacity="1" /><path clip-path="url(#clip750)" d="M765.18 1454.1 Q761.569 1454.1 759.74 1457.66 Q757.935 1461.2 757.935 1468.33 Q757.935 1475.44 759.74 1479.01 Q761.569 1482.55 765.18 1482.55 Q768.815 1482.55 770.62 1479.01 Q772.449 1475.44 772.449 1468.33 Q772.449 1461.2 770.62 1457.66 Q768.815 1454.1 765.18 1454.1 M765.18 1450.39 Q770.99 1450.39 774.046 1455 Q777.125 1459.58 777.125 1468.33 Q777.125 1477.06 774.046 1481.67 Q770.99 1486.25 765.18 1486.25 Q759.37 1486.25 756.291 1481.67 Q753.236 1477.06 753.236 1468.33 Q753.236 1459.58 756.291 1455 Q759.37 1450.39 765.18 1450.39 Z" fill="#000000" fill-rule="evenodd" fill-opacity="1" /><path clip-path="url(#clip750)" d="M806.291 1459.65 L796.916 1472.27 L806.777 1485.58 L801.754 1485.58 L794.208 1475.39 L786.662 1485.58 L781.639 1485.58 L791.708 1472.02 L782.495 1459.65 L787.518 1459.65 L794.393 1468.89 L801.268 1459.65 L806.291 1459.65 Z" fill="#000000" fill-rule="evenodd" fill-opacity="1" /><path clip-path="url(#clip750)" d="M814.208 1481.64 L821.847 1481.64 L821.847 1455.28 L813.536 1456.95 L813.536 1452.69 L821.8 1451.02 L826.476 1451.02 L826.476 1481.64 L834.115 1481.64 L834.115 1485.58 L814.208 1485.58 L814.208 1481.64 Z" fill="#000000" fill-rule="evenodd" fill-opacity="1" /><path clip-path="url(#clip750)" d="M853.559 1454.1 Q849.948 1454.1 848.12 1457.66 Q846.314 1461.2 846.314 1468.33 Q846.314 1475.44 848.12 1479.01 Q849.948 1482.55 853.559 1482.55 Q857.194 1482.55 858.999 1479.01 Q860.828 1475.44 860.828 1468.33 Q860.828 1461.2 858.999 1457.66 Q857.194 1454.1 853.559 1454.1 M853.559 1450.39 Q859.37 1450.39 862.425 1455 Q865.504 1459.58 865.504 1468.33 Q865.504 1477.06 862.425 1481.67 Q859.37 1486.25 853.559 1486.25 Q847.749 1486.25 844.671 1481.67 Q841.615 1477.06 841.615 1468.33 Q841.615 1459.58 844.671 1455 Q847.749 1450.39 853.559 1450.39 Z" fill="#000000" fill-rule="evenodd" fill-opacity="1" /><path clip-path="url(#clip750)" d="M878.721 1459.35 Q876.684 1459.35 875.504 1460.56 Q874.323 1461.78 874.323 1463.89 Q874.323 1465.97 875.504 1467.18 Q876.684 1468.4 878.721 1468.4 Q880.735 1468.4 881.916 1467.18 Q883.096 1465.97 883.096 1463.89 Q883.096 1461.78 881.916 1460.56 Q880.735 1459.35 878.721 1459.35 M884.694 1451.16 L884.694 1453.54 Q883.559 1453.08 882.402 1452.85 Q881.244 1452.59 880.11 1452.59 Q877.147 1452.59 875.573 1454.33 Q873.999 1456.09 873.768 1459.63 Q874.647 1458.5 875.967 1457.89 Q877.309 1457.29 878.883 1457.29 Q882.24 1457.29 884.184 1459.05 Q886.129 1460.83 886.129 1463.89 Q886.129 1466.83 884.092 1468.66 Q882.078 1470.46 878.721 1470.46 Q874.856 1470.46 872.819 1467.89 Q870.782 1465.33 870.782 1460.42 Q870.782 1455.83 873.282 1453.13 Q875.782 1450.39 879.994 1450.39 Q881.129 1450.39 882.286 1450.58 Q883.444 1450.79 884.694 1451.16 Z" fill="#000000" fill-rule="evenodd" fill-opacity="1" /><path clip-path="url(#clip750)" d="M1162.52 1481.64 L1178.84 1481.64 L1178.84 1485.58 L1156.9 1485.58 L1156.9 1481.64 Q1159.56 1478.89 1164.14 1474.26 Q1168.75 1469.61 1169.93 1468.27 Q1172.17 1465.74 1173.05 1464.01 Q1173.96 1462.25 1173.96 1460.56 Q1173.96 1457.8 1172.01 1456.07 Q1170.09 1454.33 1166.99 1454.33 Q1164.79 1454.33 1162.34 1455.09 Q1159.91 1455.86 1157.13 1457.41 L1157.13 1452.69 Q1159.95 1451.55 1162.41 1450.97 Q1164.86 1450.39 1166.9 1450.39 Q1172.27 1450.39 1175.46 1453.08 Q1178.66 1455.77 1178.66 1460.26 Q1178.66 1462.39 1177.85 1464.31 Q1177.06 1466.2 1174.95 1468.8 Q1174.37 1469.47 1171.27 1472.69 Q1168.17 1475.88 1162.52 1481.64 Z" fill="#000000" fill-rule="evenodd" fill-opacity="1" /><path clip-path="url(#clip750)" d="M1198.66 1454.1 Q1195.04 1454.1 1193.22 1457.66 Q1191.41 1461.2 1191.41 1468.33 Q1191.41 1475.44 1193.22 1479.01 Q1195.04 1482.55 1198.66 1482.55 Q1202.29 1482.55 1204.1 1479.01 Q1205.92 1475.44 1205.92 1468.33 Q1205.92 1461.2 1204.1 1457.66 Q1202.29 1454.1 1198.66 1454.1 M1198.66 1450.39 Q1204.47 1450.39 1207.52 1455 Q1210.6 1459.58 1210.6 1468.33 Q1210.6 1477.06 1207.52 1481.67 Q1204.47 1486.25 1198.66 1486.25 Q1192.85 1486.25 1189.77 1481.67 Q1186.71 1477.06 1186.71 1468.33 Q1186.71 1459.58 1189.77 1455 Q1192.85 1450.39 1198.66 1450.39 Z" fill="#000000" fill-rule="evenodd" fill-opacity="1" /><path clip-path="url(#clip750)" d="M1218.82 1479.7 L1223.7 1479.7 L1223.7 1485.58 L1218.82 1485.58 L1218.82 1479.7 Z" fill="#000000" fill-rule="evenodd" fill-opacity="1" /><path clip-path="url(#clip750)" d="M1243.89 1454.1 Q1240.28 1454.1 1238.45 1457.66 Q1236.64 1461.2 1236.64 1468.33 Q1236.64 1475.44 1238.45 1479.01 Q1240.28 1482.55 1243.89 1482.55 Q1247.52 1482.55 1249.33 1479.01 Q1251.16 1475.44 1251.16 1468.33 Q1251.16 1461.2 1249.33 1457.66 Q1247.52 1454.1 1243.89 1454.1 M1243.89 1450.39 Q1249.7 1450.39 1252.75 1455 Q1255.83 1459.58 1255.83 1468.33 Q1255.83 1477.06 1252.75 1481.67 Q1249.7 1486.25 1243.89 1486.25 Q1238.08 1486.25 1235 1481.67 Q1231.94 1477.06 1231.94 1468.33 Q1231.94 1459.58 1235 1455 Q1238.08 1450.39 1243.89 1450.39 Z" fill="#000000" fill-rule="evenodd" fill-opacity="1" /><path clip-path="url(#clip750)" d="M1274.05 1454.1 Q1270.44 1454.1 1268.61 1457.66 Q1266.8 1461.2 1266.8 1468.33 Q1266.8 1475.44 1268.61 1479.01 Q1270.44 1482.55 1274.05 1482.55 Q1277.68 1482.55 1279.49 1479.01 Q1281.32 1475.44 1281.32 1468.33 Q1281.32 1461.2 1279.49 1457.66 Q1277.68 1454.1 1274.05 1454.1 M1274.05 1450.39 Q1279.86 1450.39 1282.91 1455 Q1285.99 1459.58 1285.99 1468.33 Q1285.99 1477.06 1282.91 1481.67 Q1279.86 1486.25 1274.05 1486.25 Q1268.24 1486.25 1265.16 1481.67 Q1262.1 1477.06 1262.1 1468.33 Q1262.1 1459.58 1265.16 1455 Q1268.24 1450.39 1274.05 1450.39 Z" fill="#000000" fill-rule="evenodd" fill-opacity="1" /><path clip-path="url(#clip750)" d="M1315.16 1459.65 L1305.78 1472.27 L1315.65 1485.58 L1310.62 1485.58 L1303.08 1475.39 L1295.53 1485.58 L1290.51 1485.58 L1300.58 1472.02 L1291.36 1459.65 L1296.39 1459.65 L1303.26 1468.89 L1310.14 1459.65 L1315.16 1459.65 Z" fill="#000000" fill-rule="evenodd" fill-opacity="1" /><path clip-path="url(#clip750)" d="M1323.08 1481.64 L1330.72 1481.64 L1330.72 1455.28 L1322.41 1456.95 L1322.41 1452.69 L1330.67 1451.02 L1335.34 1451.02 L1335.34 1481.64 L1342.98 1481.64 L1342.98 1485.58 L1323.08 1485.58 L1323.08 1481.64 Z" fill="#000000" fill-rule="evenodd" fill-opacity="1" /><path clip-path="url(#clip750)" d="M1362.43 1454.1 Q1358.82 1454.1 1356.99 1457.66 Q1355.18 1461.2 1355.18 1468.33 Q1355.18 1475.44 1356.99 1479.01 Q1358.82 1482.55 1362.43 1482.55 Q1366.06 1482.55 1367.87 1479.01 Q1369.7 1475.44 1369.7 1468.33 Q1369.7 1461.2 1367.87 1457.66 Q1366.06 1454.1 1362.43 1454.1 M1362.43 1450.39 Q1368.24 1450.39 1371.29 1455 Q1374.37 1459.58 1374.37 1468.33 Q1374.37 1477.06 1371.29 1481.67 Q1368.24 1486.25 1362.43 1486.25 Q1356.62 1486.25 1353.54 1481.67 Q1350.48 1477.06 1350.48 1468.33 Q1350.48 1459.58 1353.54 1455 Q1356.62 1450.39 1362.43 1450.39 Z" fill="#000000" fill-rule="evenodd" fill-opacity="1" /><path clip-path="url(#clip750)" d="M1387.59 1459.35 Q1385.55 1459.35 1384.37 1460.56 Q1383.19 1461.78 1383.19 1463.89 Q1383.19 1465.97 1384.37 1467.18 Q1385.55 1468.4 1387.59 1468.4 Q1389.6 1468.4 1390.78 1467.18 Q1391.96 1465.97 1391.96 1463.89 Q1391.96 1461.78 1390.78 1460.56 Q1389.6 1459.35 1387.59 1459.35 M1393.56 1451.16 L1393.56 1453.54 Q1392.43 1453.08 1391.27 1452.85 Q1390.11 1452.59 1388.98 1452.59 Q1386.02 1452.59 1384.44 1454.33 Q1382.87 1456.09 1382.64 1459.63 Q1383.52 1458.5 1384.84 1457.89 Q1386.18 1457.29 1387.75 1457.29 Q1391.11 1457.29 1393.05 1459.05 Q1395 1460.83 1395 1463.89 Q1395 1466.83 1392.96 1468.66 Q1390.95 1470.46 1387.59 1470.46 Q1383.72 1470.46 1381.69 1467.89 Q1379.65 1465.33 1379.65 1460.42 Q1379.65 1455.83 1382.15 1453.13 Q1384.65 1450.39 1388.86 1450.39 Q1390 1450.39 1391.15 1450.58 Q1392.31 1450.79 1393.56 1451.16 Z" fill="#000000" fill-rule="evenodd" fill-opacity="1" /><path clip-path="url(#clip750)" d="M1680.59 1466.95 Q1683.95 1467.66 1685.82 1469.93 Q1687.72 1472.2 1687.72 1475.53 Q1687.72 1480.65 1684.2 1483.45 Q1680.68 1486.25 1674.2 1486.25 Q1672.03 1486.25 1669.71 1485.81 Q1667.42 1485.39 1664.97 1484.54 L1664.97 1480.02 Q1666.91 1481.16 1669.23 1481.74 Q1671.54 1482.32 1674.06 1482.32 Q1678.46 1482.32 1680.75 1480.58 Q1683.07 1478.84 1683.07 1475.53 Q1683.07 1472.48 1680.92 1470.77 Q1678.79 1469.03 1674.97 1469.03 L1670.94 1469.03 L1670.94 1465.19 L1675.15 1465.19 Q1678.6 1465.19 1680.43 1463.82 Q1682.26 1462.43 1682.26 1459.84 Q1682.26 1457.18 1680.36 1455.77 Q1678.49 1454.33 1674.97 1454.33 Q1673.05 1454.33 1670.85 1454.75 Q1668.65 1455.16 1666.01 1456.04 L1666.01 1451.88 Q1668.67 1451.14 1670.99 1450.77 Q1673.32 1450.39 1675.38 1450.39 Q1680.71 1450.39 1683.81 1452.83 Q1686.91 1455.23 1686.91 1459.35 Q1686.91 1462.22 1685.27 1464.21 Q1683.62 1466.18 1680.59 1466.95 Z" fill="#000000" fill-rule="evenodd" fill-opacity="1" /><path clip-path="url(#clip750)" d="M1706.59 1454.1 Q1702.98 1454.1 1701.15 1457.66 Q1699.34 1461.2 1699.34 1468.33 Q1699.34 1475.44 1701.15 1479.01 Q1702.98 1482.55 1706.59 1482.55 Q1710.22 1482.55 1712.03 1479.01 Q1713.86 1475.44 1713.86 1468.33 Q1713.86 1461.2 1712.03 1457.66 Q1710.22 1454.1 1706.59 1454.1 M1706.59 1450.39 Q1712.4 1450.39 1715.45 1455 Q1718.53 1459.58 1718.53 1468.33 Q1718.53 1477.06 1715.45 1481.67 Q1712.4 1486.25 1706.59 1486.25 Q1700.78 1486.25 1697.7 1481.67 Q1694.64 1477.06 1694.64 1468.33 Q1694.64 1459.58 1697.7 1455 Q1700.78 1450.39 1706.59 1450.39 Z" fill="#000000" fill-rule="evenodd" fill-opacity="1" /><path clip-path="url(#clip750)" d="M1726.75 1479.7 L1731.63 1479.7 L1731.63 1485.58 L1726.75 1485.58 L1726.75 1479.7 Z" fill="#000000" fill-rule="evenodd" fill-opacity="1" /><path clip-path="url(#clip750)" d="M1751.82 1454.1 Q1748.21 1454.1 1746.38 1457.66 Q1744.57 1461.2 1744.57 1468.33 Q1744.57 1475.44 1746.38 1479.01 Q1748.21 1482.55 1751.82 1482.55 Q1755.45 1482.55 1757.26 1479.01 Q1759.09 1475.44 1759.09 1468.33 Q1759.09 1461.2 1757.26 1457.66 Q1755.45 1454.1 1751.82 1454.1 M1751.82 1450.39 Q1757.63 1450.39 1760.68 1455 Q1763.76 1459.58 1763.76 1468.33 Q1763.76 1477.06 1760.68 1481.67 Q1757.63 1486.25 1751.82 1486.25 Q1746.01 1486.25 1742.93 1481.67 Q1739.87 1477.06 1739.87 1468.33 Q1739.87 1459.58 1742.93 1455 Q1746.01 1450.39 1751.82 1450.39 Z" fill="#000000" fill-rule="evenodd" fill-opacity="1" /><path clip-path="url(#clip750)" d="M1781.98 1454.1 Q1778.37 1454.1 1776.54 1457.66 Q1774.73 1461.2 1774.73 1468.33 Q1774.73 1475.44 1776.54 1479.01 Q1778.37 1482.55 1781.98 1482.55 Q1785.61 1482.55 1787.42 1479.01 Q1789.25 1475.44 1789.25 1468.33 Q1789.25 1461.2 1787.42 1457.66 Q1785.61 1454.1 1781.98 1454.1 M1781.98 1450.39 Q1787.79 1450.39 1790.85 1455 Q1793.92 1459.58 1793.92 1468.33 Q1793.92 1477.06 1790.85 1481.67 Q1787.79 1486.25 1781.98 1486.25 Q1776.17 1486.25 1773.09 1481.67 Q1770.04 1477.06 1770.04 1468.33 Q1770.04 1459.58 1773.09 1455 Q1776.17 1450.39 1781.98 1450.39 Z" fill="#000000" fill-rule="evenodd" fill-opacity="1" /><path clip-path="url(#clip750)" d="M1823.09 1459.65 L1813.72 1472.27 L1823.58 1485.58 L1818.55 1485.58 L1811.01 1475.39 L1803.46 1485.58 L1798.44 1485.58 L1808.51 1472.02 L1799.29 1459.65 L1804.32 1459.65 L1811.19 1468.89 L1818.07 1459.65 L1823.09 1459.65 Z" fill="#000000" fill-rule="evenodd" fill-opacity="1" /><path clip-path="url(#clip750)" d="M1831.01 1481.64 L1838.65 1481.64 L1838.65 1455.28 L1830.34 1456.95 L1830.34 1452.69 L1838.6 1451.02 L1843.28 1451.02 L1843.28 1481.64 L1850.91 1481.64 L1850.91 1485.58 L1831.01 1485.58 L1831.01 1481.64 Z" fill="#000000" fill-rule="evenodd" fill-opacity="1" /><path clip-path="url(#clip750)" d="M1870.36 1454.1 Q1866.75 1454.1 1864.92 1457.66 Q1863.11 1461.2 1863.11 1468.33 Q1863.11 1475.44 1864.92 1479.01 Q1866.75 1482.55 1870.36 1482.55 Q1873.99 1482.55 1875.8 1479.01 Q1877.63 1475.44 1877.63 1468.33 Q1877.63 1461.2 1875.8 1457.66 Q1873.99 1454.1 1870.36 1454.1 M1870.36 1450.39 Q1876.17 1450.39 1879.22 1455 Q1882.3 1459.58 1882.3 1468.33 Q1882.3 1477.06 1879.22 1481.67 Q1876.17 1486.25 1870.36 1486.25 Q1864.55 1486.25 1861.47 1481.67 Q1858.41 1477.06 1858.41 1468.33 Q1858.41 1459.58 1861.47 1455 Q1864.55 1450.39 1870.36 1450.39 Z" fill="#000000" fill-rule="evenodd" fill-opacity="1" /><path clip-path="url(#clip750)" d="M1895.52 1459.35 Q1893.48 1459.35 1892.3 1460.56 Q1891.12 1461.78 1891.12 1463.89 Q1891.12 1465.97 1892.3 1467.18 Q1893.48 1468.4 1895.52 1468.4 Q1897.53 1468.4 1898.72 1467.18 Q1899.9 1465.97 1899.9 1463.89 Q1899.9 1461.78 1898.72 1460.56 Q1897.53 1459.35 1895.52 1459.35 M1901.49 1451.16 L1901.49 1453.54 Q1900.36 1453.08 1899.2 1452.85 Q1898.04 1452.59 1896.91 1452.59 Q1893.95 1452.59 1892.37 1454.33 Q1890.8 1456.09 1890.57 1459.63 Q1891.45 1458.5 1892.77 1457.89 Q1894.11 1457.29 1895.68 1457.29 Q1899.04 1457.29 1900.98 1459.05 Q1902.93 1460.83 1902.93 1463.89 Q1902.93 1466.83 1900.89 1468.66 Q1898.88 1470.46 1895.52 1470.46 Q1891.66 1470.46 1889.62 1467.89 Q1887.58 1465.33 1887.58 1460.42 Q1887.58 1455.83 1890.08 1453.13 Q1892.58 1450.39 1896.79 1450.39 Q1897.93 1450.39 1899.09 1450.58 Q1900.24 1450.79 1901.49 1451.16 Z" fill="#000000" fill-rule="evenodd" fill-opacity="1" /><path clip-path="url(#clip750)" d="M2187.92 1455.09 L2176.12 1473.54 L2187.92 1473.54 L2187.92 1455.09 M2186.69 1451.02 L2192.57 1451.02 L2192.57 1473.54 L2197.5 1473.54 L2197.5 1477.43 L2192.57 1477.43 L2192.57 1485.58 L2187.92 1485.58 L2187.92 1477.43 L2172.32 1477.43 L2172.32 1472.92 L2186.69 1451.02 Z" fill="#000000" fill-rule="evenodd" fill-opacity="1" /><path clip-path="url(#clip750)" d="M2215.24 1454.1 Q2211.62 1454.1 2209.8 1457.66 Q2207.99 1461.2 2207.99 1468.33 Q2207.99 1475.44 2209.8 1479.01 Q2211.62 1482.55 2215.24 1482.55 Q2218.87 1482.55 2220.68 1479.01 Q2222.5 1475.44 2222.5 1468.33 Q2222.5 1461.2 2220.68 1457.66 Q2218.87 1454.1 2215.24 1454.1 M2215.24 1450.39 Q2221.05 1450.39 2224.1 1455 Q2227.18 1459.58 2227.18 1468.33 Q2227.18 1477.06 2224.1 1481.67 Q2221.05 1486.25 2215.24 1486.25 Q2209.43 1486.25 2206.35 1481.67 Q2203.29 1477.06 2203.29 1468.33 Q2203.29 1459.58 2206.35 1455 Q2209.43 1450.39 2215.24 1450.39 Z" fill="#000000" fill-rule="evenodd" fill-opacity="1" /><path clip-path="url(#clip750)" d="M2235.4 1479.7 L2240.28 1479.7 L2240.28 1485.58 L2235.4 1485.58 L2235.4 1479.7 Z" fill="#000000" fill-rule="evenodd" fill-opacity="1" /><path clip-path="url(#clip750)" d="M2260.47 1454.1 Q2256.86 1454.1 2255.03 1457.66 Q2253.22 1461.2 2253.22 1468.33 Q2253.22 1475.44 2255.03 1479.01 Q2256.86 1482.55 2260.47 1482.55 Q2264.1 1482.55 2265.91 1479.01 Q2267.74 1475.44 2267.74 1468.33 Q2267.74 1461.2 2265.91 1457.66 Q2264.1 1454.1 2260.47 1454.1 M2260.47 1450.39 Q2266.28 1450.39 2269.33 1455 Q2272.41 1459.58 2272.41 1468.33 Q2272.41 1477.06 2269.33 1481.67 Q2266.28 1486.25 2260.47 1486.25 Q2254.66 1486.25 2251.58 1481.67 Q2248.52 1477.06 2248.52 1468.33 Q2248.52 1459.58 2251.58 1455 Q2254.66 1450.39 2260.47 1450.39 Z" fill="#000000" fill-rule="evenodd" fill-opacity="1" /><path clip-path="url(#clip750)" d="M2290.63 1454.1 Q2287.02 1454.1 2285.19 1457.66 Q2283.38 1461.2 2283.38 1468.33 Q2283.38 1475.44 2285.19 1479.01 Q2287.02 1482.55 2290.63 1482.55 Q2294.26 1482.55 2296.07 1479.01 Q2297.9 1475.44 2297.9 1468.33 Q2297.9 1461.2 2296.07 1457.66 Q2294.26 1454.1 2290.63 1454.1 M2290.63 1450.39 Q2296.44 1450.39 2299.49 1455 Q2302.57 1459.58 2302.57 1468.33 Q2302.57 1477.06 2299.49 1481.67 Q2296.44 1486.25 2290.63 1486.25 Q2284.82 1486.25 2281.74 1481.67 Q2278.68 1477.06 2278.68 1468.33 Q2278.68 1459.58 2281.74 1455 Q2284.82 1450.39 2290.63 1450.39 Z" fill="#000000" fill-rule="evenodd" fill-opacity="1" /><path clip-path="url(#clip750)" d="M2331.74 1459.65 L2322.36 1472.27 L2332.23 1485.58 L2327.2 1485.58 L2319.66 1475.39 L2312.11 1485.58 L2307.09 1485.58 L2317.16 1472.02 L2307.94 1459.65 L2312.97 1459.65 L2319.84 1468.89 L2326.72 1459.65 L2331.74 1459.65 Z" fill="#000000" fill-rule="evenodd" fill-opacity="1" /><path clip-path="url(#clip750)" d="M2339.66 1481.64 L2347.3 1481.64 L2347.3 1455.28 L2338.99 1456.95 L2338.99 1452.69 L2347.25 1451.02 L2351.92 1451.02 L2351.92 1481.64 L2359.56 1481.64 L2359.56 1485.58 L2339.66 1485.58 L2339.66 1481.64 Z" fill="#000000" fill-rule="evenodd" fill-opacity="1" /><path clip-path="url(#clip750)" d="M2379.01 1454.1 Q2375.4 1454.1 2373.57 1457.66 Q2371.76 1461.2 2371.76 1468.33 Q2371.76 1475.44 2373.57 1479.01 Q2375.4 1482.55 2379.01 1482.55 Q2382.64 1482.55 2384.45 1479.01 Q2386.28 1475.44 2386.28 1468.33 Q2386.28 1461.2 2384.45 1457.66 Q2382.64 1454.1 2379.01 1454.1 M2379.01 1450.39 Q2384.82 1450.39 2387.87 1455 Q2390.95 1459.58 2390.95 1468.33 Q2390.95 1477.06 2387.87 1481.67 Q2384.82 1486.25 2379.01 1486.25 Q2373.2 1486.25 2370.12 1481.67 Q2367.06 1477.06 2367.06 1468.33 Q2367.06 1459.58 2370.12 1455 Q2373.2 1450.39 2379.01 1450.39 Z" fill="#000000" fill-rule="evenodd" fill-opacity="1" /><path clip-path="url(#clip750)" d="M2404.17 1459.35 Q2402.13 1459.35 2400.95 1460.56 Q2399.77 1461.78 2399.77 1463.89 Q2399.77 1465.97 2400.95 1467.18 Q2402.13 1468.4 2404.17 1468.4 Q2406.18 1468.4 2407.36 1467.18 Q2408.54 1465.97 2408.54 1463.89 Q2408.54 1461.78 2407.36 1460.56 Q2406.18 1459.35 2404.17 1459.35 M2410.14 1451.16 L2410.14 1453.54 Q2409.01 1453.08 2407.85 1452.85 Q2406.69 1452.59 2405.56 1452.59 Q2402.6 1452.59 2401.02 1454.33 Q2399.45 1456.09 2399.22 1459.63 Q2400.1 1458.5 2401.42 1457.89 Q2402.76 1457.29 2404.33 1457.29 Q2407.69 1457.29 2409.63 1459.05 Q2411.58 1460.83 2411.58 1463.89 Q2411.58 1466.83 2409.54 1468.66 Q2407.53 1470.46 2404.17 1470.46 Q2400.3 1470.46 2398.27 1467.89 Q2396.23 1465.33 2396.23 1460.42 Q2396.23 1455.83 2398.73 1453.13 Q2401.23 1450.39 2405.44 1450.39 Q2406.58 1450.39 2407.73 1450.58 Q2408.89 1450.79 2410.14 1451.16 Z" fill="#000000" fill-rule="evenodd" fill-opacity="1" /><path clip-path="url(#clip750)" d="M1128.05 1520.52 L1134.48 1520.52 L1134.48 1568.04 L1128.05 1568.04 L1128.05 1520.52 Z" fill="#000000" fill-rule="evenodd" fill-opacity="1" /><path clip-path="url(#clip750)" d="M1152.81 1522.27 L1152.81 1532.4 L1164.88 1532.4 L1164.88 1536.95 L1152.81 1536.95 L1152.81 1556.3 Q1152.81 1560.66 1153.99 1561.9 Q1155.2 1563.14 1158.86 1563.14 L1164.88 1563.14 L1164.88 1568.04 L1158.86 1568.04 Q1152.08 1568.04 1149.5 1565.53 Q1146.92 1562.98 1146.92 1556.3 L1146.92 1536.95 L1142.63 1536.95 L1142.63 1532.4 L1146.92 1532.4 L1146.92 1522.27 L1152.81 1522.27 Z" fill="#000000" fill-rule="evenodd" fill-opacity="1" /><path clip-path="url(#clip750)" d="M1203.07 1548.76 L1203.07 1551.62 L1176.14 1551.62 Q1176.52 1557.67 1179.77 1560.85 Q1183.05 1564 1188.87 1564 Q1192.25 1564 1195.4 1563.17 Q1198.58 1562.35 1201.7 1560.69 L1201.7 1566.23 Q1198.55 1567.57 1195.24 1568.27 Q1191.93 1568.97 1188.52 1568.97 Q1179.99 1568.97 1175 1564 Q1170.03 1559.04 1170.03 1550.57 Q1170.03 1541.82 1174.74 1536.69 Q1179.48 1531.54 1187.51 1531.54 Q1194.7 1531.54 1198.87 1536.18 Q1203.07 1540.8 1203.07 1548.76 M1197.21 1547.04 Q1197.15 1542.23 1194.51 1539.37 Q1191.9 1536.5 1187.57 1536.5 Q1182.67 1536.5 1179.71 1539.27 Q1176.78 1542.04 1176.33 1547.07 L1197.21 1547.04 Z" fill="#000000" fill-rule="evenodd" fill-opacity="1" /><path clip-path="url(#clip750)" d="M1233.34 1537.87 Q1232.35 1537.3 1231.17 1537.04 Q1230.03 1536.76 1228.63 1536.76 Q1223.66 1536.76 1220.99 1540 Q1218.35 1543.22 1218.35 1549.27 L1218.35 1568.04 L1212.46 1568.04 L1212.46 1532.4 L1218.35 1532.4 L1218.35 1537.93 Q1220.19 1534.69 1223.15 1533.13 Q1226.11 1531.54 1230.35 1531.54 Q1230.95 1531.54 1231.68 1531.63 Q1232.42 1531.7 1233.31 1531.85 L1233.34 1537.87 Z" fill="#000000" fill-rule="evenodd" fill-opacity="1" /><path clip-path="url(#clip750)" d="M1255.68 1550.12 Q1248.58 1550.12 1245.85 1551.75 Q1243.11 1553.37 1243.11 1557.29 Q1243.11 1560.4 1245.15 1562.25 Q1247.22 1564.07 1250.75 1564.07 Q1255.62 1564.07 1258.55 1560.63 Q1261.51 1557.16 1261.51 1551.43 L1261.51 1550.12 L1255.68 1550.12 M1267.36 1547.71 L1267.36 1568.04 L1261.51 1568.04 L1261.51 1562.63 Q1259.5 1565.88 1256.51 1567.44 Q1253.52 1568.97 1249.19 1568.97 Q1243.71 1568.97 1240.47 1565.91 Q1237.25 1562.82 1237.25 1557.67 Q1237.25 1551.65 1241.26 1548.6 Q1245.31 1545.54 1253.29 1545.54 L1261.51 1545.54 L1261.51 1544.97 Q1261.51 1540.93 1258.83 1538.73 Q1256.19 1536.5 1251.39 1536.5 Q1248.33 1536.5 1245.43 1537.23 Q1242.54 1537.97 1239.86 1539.43 L1239.86 1534.02 Q1243.08 1532.78 1246.1 1532.17 Q1249.13 1531.54 1251.99 1531.54 Q1259.72 1531.54 1263.54 1535.55 Q1267.36 1539.56 1267.36 1547.71 Z" fill="#000000" fill-rule="evenodd" fill-opacity="1" /><path clip-path="url(#clip750)" d="M1285.22 1522.27 L1285.22 1532.4 L1297.28 1532.4 L1297.28 1536.95 L1285.22 1536.95 L1285.22 1556.3 Q1285.22 1560.66 1286.4 1561.9 Q1287.61 1563.14 1291.27 1563.14 L1297.28 1563.14 L1297.28 1568.04 L1291.27 1568.04 Q1284.49 1568.04 1281.91 1565.53 Q1279.33 1562.98 1279.33 1556.3 L1279.33 1536.95 L1275.03 1536.95 L1275.03 1532.4 L1279.33 1532.4 L1279.33 1522.27 L1285.22 1522.27 Z" fill="#000000" fill-rule="evenodd" fill-opacity="1" /><path clip-path="url(#clip750)" d="M1304.98 1532.4 L1310.84 1532.4 L1310.84 1568.04 L1304.98 1568.04 L1304.98 1532.4 M1304.98 1518.52 L1310.84 1518.52 L1310.84 1525.93 L1304.98 1525.93 L1304.98 1518.52 Z" fill="#000000" fill-rule="evenodd" fill-opacity="1" /><path clip-path="url(#clip750)" d="M1336.91 1536.5 Q1332.2 1536.5 1329.46 1540.19 Q1326.72 1543.85 1326.72 1550.25 Q1326.72 1556.65 1329.43 1560.34 Q1332.17 1564 1336.91 1564 Q1341.59 1564 1344.32 1560.31 Q1347.06 1556.62 1347.06 1550.25 Q1347.06 1543.92 1344.32 1540.23 Q1341.59 1536.5 1336.91 1536.5 M1336.91 1531.54 Q1344.55 1531.54 1348.91 1536.5 Q1353.27 1541.47 1353.27 1550.25 Q1353.27 1559 1348.91 1564 Q1344.55 1568.97 1336.91 1568.97 Q1329.24 1568.97 1324.88 1564 Q1320.55 1559 1320.55 1550.25 Q1320.55 1541.47 1324.88 1536.5 Q1329.24 1531.54 1336.91 1531.54 Z" fill="#000000" fill-rule="evenodd" fill-opacity="1" /><path clip-path="url(#clip750)" d="M1392.61 1546.53 L1392.61 1568.04 L1386.75 1568.04 L1386.75 1546.72 Q1386.75 1541.66 1384.78 1539.14 Q1382.81 1536.63 1378.86 1536.63 Q1374.12 1536.63 1371.38 1539.65 Q1368.64 1542.68 1368.64 1547.9 L1368.64 1568.04 L1362.75 1568.04 L1362.75 1532.4 L1368.64 1532.4 L1368.64 1537.93 Q1370.74 1534.72 1373.57 1533.13 Q1376.44 1531.54 1380.16 1531.54 Q1386.31 1531.54 1389.46 1535.36 Q1392.61 1539.14 1392.61 1546.53 Z" fill="#000000" fill-rule="evenodd" fill-opacity="1" /><path clip-path="url(#clip750)" d="M1427.01 1533.45 L1427.01 1538.98 Q1424.53 1537.71 1421.86 1537.07 Q1419.19 1536.44 1416.32 1536.44 Q1411.96 1536.44 1409.76 1537.77 Q1407.6 1539.11 1407.6 1541.79 Q1407.6 1543.82 1409.16 1545 Q1410.72 1546.15 1415.43 1547.2 L1417.43 1547.64 Q1423.67 1548.98 1426.28 1551.43 Q1428.92 1553.85 1428.92 1558.21 Q1428.92 1563.17 1424.98 1566.07 Q1421.06 1568.97 1414.19 1568.97 Q1411.32 1568.97 1408.2 1568.39 Q1405.12 1567.85 1401.68 1566.74 L1401.68 1560.69 Q1404.93 1562.38 1408.08 1563.24 Q1411.23 1564.07 1414.32 1564.07 Q1418.45 1564.07 1420.68 1562.66 Q1422.91 1561.23 1422.91 1558.65 Q1422.91 1556.27 1421.29 1554.99 Q1419.69 1553.72 1414.25 1552.54 L1412.21 1552.07 Q1406.77 1550.92 1404.35 1548.56 Q1401.93 1546.18 1401.93 1542.04 Q1401.93 1537.01 1405.5 1534.27 Q1409.06 1531.54 1415.62 1531.54 Q1418.87 1531.54 1421.73 1532.01 Q1424.6 1532.49 1427.01 1533.45 Z" fill="#000000" fill-rule="evenodd" fill-opacity="1" /><polyline clip-path="url(#clip752)" style="stroke:#000000; stroke-linecap:round; stroke-linejoin:round; stroke-width:2; stroke-opacity:0.1; fill:none" points="
  204.218,1399.39 2352.76,1399.39 
  "/>
<polyline clip-path="url(#clip752)" style="stroke:#000000; stroke-linecap:round; stroke-linejoin:round; stroke-width:2; stroke-opacity:0.1; fill:none" points="
  204.218,1064.56 2352.76,1064.56 
  "/>
<polyline clip-path="url(#clip752)" style="stroke:#000000; stroke-linecap:round; stroke-linejoin:round; stroke-width:2; stroke-opacity:0.1; fill:none" points="
  204.218,729.723 2352.76,729.723 
  "/>
<polyline clip-path="url(#clip752)" style="stroke:#000000; stroke-linecap:round; stroke-linejoin:round; stroke-width:2; stroke-opacity:0.1; fill:none" points="
  204.218,394.889 2352.76,394.889 
  "/>
<polyline clip-path="url(#clip752)" style="stroke:#000000; stroke-linecap:round; stroke-linejoin:round; stroke-width:2; stroke-opacity:0.1; fill:none" points="
  204.218,60.056 2352.76,60.056 
  "/>
<polyline clip-path="url(#clip750)" style="stroke:#000000; stroke-linecap:round; stroke-linejoin:round; stroke-width:4; stroke-opacity:1; fill:none" points="
  204.218,1423.18 204.218,47.2441 
  "/>
<polyline clip-path="url(#clip750)" style="stroke:#000000; stroke-linecap:round; stroke-linejoin:round; stroke-width:4; stroke-opacity:1; fill:none" points="
  204.218,1399.39 223.116,1399.39 
  "/>
<polyline clip-path="url(#clip750)" style="stroke:#000000; stroke-linecap:round; stroke-linejoin:round; stroke-width:4; stroke-opacity:1; fill:none" points="
  204.218,1064.56 223.116,1064.56 
  "/>
<polyline clip-path="url(#clip750)" style="stroke:#000000; stroke-linecap:round; stroke-linejoin:round; stroke-width:4; stroke-opacity:1; fill:none" points="
  204.218,729.723 223.116,729.723 
  "/>
<polyline clip-path="url(#clip750)" style="stroke:#000000; stroke-linecap:round; stroke-linejoin:round; stroke-width:4; stroke-opacity:1; fill:none" points="
  204.218,394.889 223.116,394.889 
  "/>
<polyline clip-path="url(#clip750)" style="stroke:#000000; stroke-linecap:round; stroke-linejoin:round; stroke-width:4; stroke-opacity:1; fill:none" points="
  204.218,60.056 223.116,60.056 
  "/>
<path clip-path="url(#clip750)" d="M126.691 1397.53 Q123.543 1397.53 121.691 1399.68 Q119.862 1401.83 119.862 1405.58 Q119.862 1409.31 121.691 1411.48 Q123.543 1413.64 126.691 1413.64 Q129.839 1413.64 131.667 1411.48 Q133.519 1409.31 133.519 1405.58 Q133.519 1401.83 131.667 1399.68 Q129.839 1397.53 126.691 1397.53 M135.973 1382.87 L135.973 1387.13 Q134.214 1386.3 132.408 1385.86 Q130.626 1385.42 128.867 1385.42 Q124.237 1385.42 121.783 1388.55 Q119.353 1391.67 119.006 1397.99 Q120.371 1395.98 122.431 1394.91 Q124.492 1393.82 126.968 1393.82 Q132.177 1393.82 135.186 1396.99 Q138.218 1400.14 138.218 1405.58 Q138.218 1410.91 135.07 1414.12 Q131.922 1417.34 126.691 1417.34 Q120.695 1417.34 117.524 1412.76 Q114.353 1408.15 114.353 1399.42 Q114.353 1391.23 118.242 1386.37 Q122.13 1381.48 128.681 1381.48 Q130.441 1381.48 132.223 1381.83 Q134.029 1382.18 135.973 1382.87 Z" fill="#000000" fill-rule="evenodd" fill-opacity="1" /><path clip-path="url(#clip750)" d="M156.274 1385.19 Q152.663 1385.19 150.834 1388.75 Q149.028 1392.3 149.028 1399.42 Q149.028 1406.53 150.834 1410.1 Q152.663 1413.64 156.274 1413.64 Q159.908 1413.64 161.714 1410.1 Q163.542 1406.53 163.542 1399.42 Q163.542 1392.3 161.714 1388.75 Q159.908 1385.19 156.274 1385.19 M156.274 1381.48 Q162.084 1381.48 165.14 1386.09 Q168.218 1390.67 168.218 1399.42 Q168.218 1408.15 165.14 1412.76 Q162.084 1417.34 156.274 1417.34 Q150.464 1417.34 147.385 1412.76 Q144.329 1408.15 144.329 1399.42 Q144.329 1390.67 147.385 1386.09 Q150.464 1381.48 156.274 1381.48 Z" fill="#000000" fill-rule="evenodd" fill-opacity="1" /><path clip-path="url(#clip750)" d="M127.686 1062.69 Q124.538 1062.69 122.686 1064.85 Q120.857 1067 120.857 1070.75 Q120.857 1074.48 122.686 1076.65 Q124.538 1078.8 127.686 1078.8 Q130.834 1078.8 132.663 1076.65 Q134.515 1074.48 134.515 1070.75 Q134.515 1067 132.663 1064.85 Q130.834 1062.69 127.686 1062.69 M136.968 1048.04 L136.968 1052.3 Q135.209 1051.47 133.404 1051.03 Q131.621 1050.59 129.862 1050.59 Q125.232 1050.59 122.779 1053.71 Q120.348 1056.84 120.001 1063.16 Q121.367 1061.14 123.427 1060.08 Q125.487 1058.99 127.964 1058.99 Q133.172 1058.99 136.181 1062.16 Q139.214 1065.31 139.214 1070.75 Q139.214 1076.07 136.066 1079.29 Q132.917 1082.51 127.686 1082.51 Q121.691 1082.51 118.519 1077.92 Q115.348 1073.32 115.348 1064.59 Q115.348 1056.4 119.237 1051.54 Q123.126 1046.65 129.677 1046.65 Q131.436 1046.65 133.218 1047 Q135.024 1047.35 136.968 1048.04 Z" fill="#000000" fill-rule="evenodd" fill-opacity="1" /><path clip-path="url(#clip750)" d="M147.316 1047.28 L165.672 1047.28 L165.672 1051.21 L151.598 1051.21 L151.598 1059.68 Q152.616 1059.34 153.635 1059.17 Q154.653 1058.99 155.672 1058.99 Q161.459 1058.99 164.839 1062.16 Q168.218 1065.33 168.218 1070.75 Q168.218 1076.33 164.746 1079.43 Q161.274 1082.51 154.954 1082.51 Q152.778 1082.51 150.51 1082.14 Q148.265 1081.77 145.857 1081.03 L145.857 1076.33 Q147.941 1077.46 150.163 1078.02 Q152.385 1078.57 154.862 1078.57 Q158.866 1078.57 161.204 1076.47 Q163.542 1074.36 163.542 1070.75 Q163.542 1067.14 161.204 1065.03 Q158.866 1062.92 154.862 1062.92 Q152.987 1062.92 151.112 1063.34 Q149.26 1063.76 147.316 1064.64 L147.316 1047.28 Z" fill="#000000" fill-rule="evenodd" fill-opacity="1" /><path clip-path="url(#clip750)" d="M114.931 712.443 L137.154 712.443 L137.154 714.434 L124.607 747.003 L119.723 747.003 L131.529 716.378 L114.931 716.378 L114.931 712.443 Z" fill="#000000" fill-rule="evenodd" fill-opacity="1" /><path clip-path="url(#clip750)" d="M156.274 715.522 Q152.663 715.522 150.834 719.086 Q149.028 722.628 149.028 729.758 Q149.028 736.864 150.834 740.429 Q152.663 743.971 156.274 743.971 Q159.908 743.971 161.714 740.429 Q163.542 736.864 163.542 729.758 Q163.542 722.628 161.714 719.086 Q159.908 715.522 156.274 715.522 M156.274 711.818 Q162.084 711.818 165.14 716.424 Q168.218 721.008 168.218 729.758 Q168.218 738.484 165.14 743.091 Q162.084 747.674 156.274 747.674 Q150.464 747.674 147.385 743.091 Q144.329 738.484 144.329 729.758 Q144.329 721.008 147.385 716.424 Q150.464 711.818 156.274 711.818 Z" fill="#000000" fill-rule="evenodd" fill-opacity="1" /><path clip-path="url(#clip750)" d="M115.927 377.609 L138.149 377.609 L138.149 379.6 L125.603 412.169 L120.718 412.169 L132.524 381.545 L115.927 381.545 L115.927 377.609 Z" fill="#000000" fill-rule="evenodd" fill-opacity="1" /><path clip-path="url(#clip750)" d="M147.316 377.609 L165.672 377.609 L165.672 381.545 L151.598 381.545 L151.598 390.017 Q152.616 389.67 153.635 389.508 Q154.653 389.322 155.672 389.322 Q161.459 389.322 164.839 392.494 Q168.218 395.665 168.218 401.082 Q168.218 406.66 164.746 409.762 Q161.274 412.841 154.954 412.841 Q152.778 412.841 150.51 412.47 Q148.265 412.1 145.857 411.359 L145.857 406.66 Q147.941 407.794 150.163 408.35 Q152.385 408.906 154.862 408.906 Q158.866 408.906 161.204 406.799 Q163.542 404.693 163.542 401.082 Q163.542 397.47 161.204 395.364 Q158.866 393.258 154.862 393.258 Q152.987 393.258 151.112 393.674 Q149.26 394.091 147.316 394.97 L147.316 377.609 Z" fill="#000000" fill-rule="evenodd" fill-opacity="1" /><path clip-path="url(#clip750)" d="M126.112 60.924 Q122.779 60.924 120.857 62.7064 Q118.959 64.4888 118.959 67.6138 Q118.959 70.7388 120.857 72.5212 Q122.779 74.3036 126.112 74.3036 Q129.445 74.3036 131.367 72.5212 Q133.288 70.7157 133.288 67.6138 Q133.288 64.4888 131.367 62.7064 Q129.468 60.924 126.112 60.924 M121.436 58.9333 Q118.427 58.1926 116.737 56.1324 Q115.07 54.0722 115.07 51.1093 Q115.07 46.9658 118.01 44.5584 Q120.973 42.151 126.112 42.151 Q131.274 42.151 134.214 44.5584 Q137.154 46.9658 137.154 51.1093 Q137.154 54.0722 135.464 56.1324 Q133.797 58.1926 130.811 58.9333 Q134.191 59.7203 136.066 62.012 Q137.964 64.3037 137.964 67.6138 Q137.964 72.6369 134.885 75.3221 Q131.83 78.0073 126.112 78.0073 Q120.394 78.0073 117.316 75.3221 Q114.26 72.6369 114.26 67.6138 Q114.26 64.3037 116.158 62.012 Q118.056 59.7203 121.436 58.9333 M119.723 51.5491 Q119.723 54.2343 121.39 55.7389 Q123.08 57.2435 126.112 57.2435 Q129.121 57.2435 130.811 55.7389 Q132.524 54.2343 132.524 51.5491 Q132.524 48.8639 130.811 47.3593 Q129.121 45.8547 126.112 45.8547 Q123.08 45.8547 121.39 47.3593 Q119.723 48.8639 119.723 51.5491 Z" fill="#000000" fill-rule="evenodd" fill-opacity="1" /><path clip-path="url(#clip750)" d="M156.274 45.8547 Q152.663 45.8547 150.834 49.4195 Q149.028 52.9611 149.028 60.0907 Q149.028 67.1972 150.834 70.7619 Q152.663 74.3036 156.274 74.3036 Q159.908 74.3036 161.714 70.7619 Q163.542 67.1972 163.542 60.0907 Q163.542 52.9611 161.714 49.4195 Q159.908 45.8547 156.274 45.8547 M156.274 42.151 Q162.084 42.151 165.14 46.7574 Q168.218 51.3408 168.218 60.0907 Q168.218 68.8175 165.14 73.424 Q162.084 78.0073 156.274 78.0073 Q150.464 78.0073 147.385 73.424 Q144.329 68.8175 144.329 60.0907 Q144.329 51.3408 147.385 46.7574 Q150.464 42.151 156.274 42.151 Z" fill="#000000" fill-rule="evenodd" fill-opacity="1" /><path clip-path="url(#clip750)" d="M41.7242 827.897 Q42.4244 825.828 44.7161 823.886 Q47.0077 821.913 51.0181 819.94 L64.0042 813.415 L64.0042 820.321 L51.8138 826.401 Q47.0395 828.756 45.48 830.984 Q43.9204 833.18 43.9204 837 L43.9204 844.002 L64.0042 844.002 L64.0042 850.431 L16.4842 850.431 L16.4842 835.917 Q16.4842 827.769 19.8898 823.759 Q23.2955 819.749 30.1704 819.749 Q34.6582 819.749 37.6183 821.849 Q40.5784 823.918 41.7242 827.897 M21.7677 844.002 L38.6368 844.002 L38.6368 835.917 Q38.6368 831.27 36.5043 828.915 Q34.34 826.528 30.1704 826.528 Q26.0009 826.528 23.9002 828.915 Q21.7677 831.27 21.7677 835.917 L21.7677 844.002 Z" fill="#000000" fill-rule="evenodd" fill-opacity="1" /><path clip-path="url(#clip750)" d="M44.7161 777.83 L47.5806 777.83 L47.5806 804.757 Q53.6281 804.375 56.8109 801.129 Q59.9619 797.851 59.9619 792.026 Q59.9619 788.652 59.1344 785.501 Q58.3069 782.318 56.6518 779.199 L62.1899 779.199 Q63.5267 782.35 64.227 785.66 Q64.9272 788.97 64.9272 792.376 Q64.9272 800.906 59.9619 805.903 Q54.9967 810.868 46.5303 810.868 Q37.7774 810.868 32.6531 806.158 Q27.4968 801.415 27.4968 793.395 Q27.4968 786.201 32.1438 782.032 Q36.7589 777.83 44.7161 777.83 M42.9973 783.687 Q38.1912 783.75 35.3266 786.392 Q32.4621 789.002 32.4621 793.331 Q32.4621 798.232 35.2312 801.193 Q38.0002 804.121 43.0292 804.566 L42.9973 783.687 Z" fill="#000000" fill-rule="evenodd" fill-opacity="1" /><path clip-path="url(#clip750)" d="M28.3562 771.624 L28.3562 765.767 L56.1743 758.447 L28.3562 751.158 L28.3562 744.251 L56.1743 736.931 L28.3562 729.642 L28.3562 723.786 L64.0042 733.111 L64.0042 740.018 L34.7856 747.689 L64.0042 755.391 L64.0042 762.298 L28.3562 771.624 Z" fill="#000000" fill-rule="evenodd" fill-opacity="1" /><path clip-path="url(#clip750)" d="M46.0847 698.705 Q46.0847 705.802 47.7079 708.54 Q49.3312 711.277 53.2461 711.277 Q56.3653 711.277 58.2114 709.24 Q60.0256 707.171 60.0256 703.638 Q60.0256 698.768 56.5881 695.84 Q53.1188 692.88 47.3897 692.88 L46.0847 692.88 L46.0847 698.705 M43.6657 687.024 L64.0042 687.024 L64.0042 692.88 L58.5933 692.88 Q61.8398 694.885 63.3994 697.877 Q64.9272 700.869 64.9272 705.198 Q64.9272 710.672 61.8716 713.919 Q58.7843 717.133 53.6281 717.133 Q47.6125 717.133 44.5569 713.123 Q41.5014 709.081 41.5014 701.092 L41.5014 692.88 L40.9285 692.88 Q36.8862 692.88 34.6901 695.554 Q32.4621 698.195 32.4621 703.001 Q32.4621 706.057 33.1941 708.953 Q33.9262 711.85 35.3903 714.523 L29.9795 714.523 Q28.7381 711.309 28.1334 708.285 Q27.4968 705.261 27.4968 702.397 Q27.4968 694.662 31.5072 690.843 Q35.5176 687.024 43.6657 687.024 Z" fill="#000000" fill-rule="evenodd" fill-opacity="1" /><path clip-path="url(#clip750)" d="M33.8307 654.304 Q33.2578 655.291 33.0032 656.468 Q32.7167 657.614 32.7167 659.014 Q32.7167 663.98 35.9632 666.653 Q39.1779 669.295 45.2253 669.295 L64.0042 669.295 L64.0042 675.183 L28.3562 675.183 L28.3562 669.295 L33.8944 669.295 Q30.6479 667.449 29.0883 664.489 Q27.4968 661.529 27.4968 657.296 Q27.4968 656.691 27.5923 655.959 Q27.656 655.227 27.8151 654.336 L33.8307 654.304 Z" fill="#000000" fill-rule="evenodd" fill-opacity="1" /><path clip-path="url(#clip750)" d="M33.7671 625.849 L14.479 625.849 L14.479 619.993 L64.0042 619.993 L64.0042 625.849 L58.657 625.849 Q61.8398 627.695 63.3994 630.528 Q64.9272 633.329 64.9272 637.276 Q64.9272 643.737 59.771 647.811 Q54.6147 651.853 46.212 651.853 Q37.8093 651.853 32.6531 647.811 Q27.4968 643.737 27.4968 637.276 Q27.4968 633.329 29.0564 630.528 Q30.5842 627.695 33.7671 625.849 M46.212 645.806 Q52.6732 645.806 56.3653 643.164 Q60.0256 640.49 60.0256 635.843 Q60.0256 631.196 56.3653 628.523 Q52.6732 625.849 46.212 625.849 Q39.7508 625.849 36.0905 628.523 Q32.3984 631.196 32.3984 635.843 Q32.3984 640.49 36.0905 643.164 Q39.7508 645.806 46.212 645.806 Z" fill="#000000" fill-rule="evenodd" fill-opacity="1" /><polyline clip-path="url(#clip752)" style="stroke:#ffa500; stroke-linecap:round; stroke-linejoin:round; stroke-width:4; stroke-opacity:1; fill:none" points="
  265.026,1384.24 270.106,1190.32 275.186,1005.6 280.266,997.274 285.346,909.555 290.426,871.995 295.506,846.269 300.586,774.434 305.666,731.329 310.746,673.001 
  315.826,682.938 320.906,627.599 325.986,650.672 331.066,659.119 336.146,657.94 341.226,630.778 346.306,656.876 351.386,623.137 356.466,634.39 361.546,610.134 
  366.626,596.584 371.706,613.385 376.786,646.283 381.866,683.474 386.946,629.055 392.026,577.659 397.106,591.328 402.186,579.149 407.266,597.683 412.346,523.962 
  417.426,618.271 422.506,579.385 427.586,511.553 432.666,548.655 437.746,549.202 442.826,546.89 447.906,513.335 452.986,539.555 458.066,521.86 463.146,518.767 
  468.226,487.811 473.306,481.12 478.386,475.969 483.466,464.109 488.546,516.449 493.626,450.085 498.706,461.447 503.786,505.602 508.866,498.239 513.946,481.243 
  519.026,494.615 524.106,490.695 529.186,481.976 534.266,446.069 539.346,493.889 544.426,487.602 549.506,451.643 554.586,467.54 559.666,494.035 564.746,472.175 
  569.826,483.916 574.906,480.865 579.986,461.71 585.066,419.55 590.146,406.992 595.226,450.33 600.306,477.516 605.386,421.706 610.466,411.882 615.546,401.014 
  620.626,434.742 625.706,411.596 630.786,453.878 635.866,348.864 640.946,413.54 646.026,410.253 651.106,425.138 656.186,397.411 661.266,402.468 666.346,368.005 
  671.426,376.789 676.506,391.235 681.586,359.656 686.666,374.97 691.746,375.719 696.826,392.132 701.906,441.662 706.986,378.744 712.066,383.181 717.146,379.8 
  722.226,384.665 727.306,375.015 732.386,398.722 737.466,385.422 742.546,377.004 747.626,347.97 752.706,388.531 757.786,351.874 762.866,350.63 767.946,321.932 
  773.026,352.225 778.106,386.827 783.186,417.871 788.266,387.408 793.346,378.892 798.426,404.854 803.507,333.47 808.587,369.552 813.667,373.257 818.747,368.655 
  823.827,383.134 828.907,397.51 833.987,363.754 839.067,405.814 844.147,338.772 849.227,309.277 854.307,363.474 859.387,358.218 864.467,370.778 869.547,368.051 
  874.627,362.434 879.707,372.532 884.787,358.463 889.867,292.077 894.947,360.771 900.027,306.788 905.107,347.048 910.187,358.344 915.267,374.279 920.347,373.552 
  925.427,355.186 930.507,296.711 935.587,314.916 940.667,373.794 945.747,332.457 950.827,318.276 955.907,301.122 960.987,320.597 966.067,329.602 971.147,305.35 
  976.227,336.715 981.307,339.6 986.387,249.195 991.467,309.382 996.547,309.995 1001.63,332.544 1006.71,323.132 1011.79,335.016 1016.87,290.336 1021.95,295.964 
  1027.03,323.798 1032.11,328.613 1037.19,302.269 1042.27,331.695 1047.35,314.5 1052.43,329.957 1057.51,367.895 1062.59,302.866 1067.67,286.551 1072.75,358.114 
  1077.83,309.973 1082.91,328.672 1087.99,314.888 1093.07,306.871 1098.15,310.944 1103.23,301.816 1108.31,335.852 1113.39,293.875 1118.47,348.854 1123.55,320.747 
  1128.63,306.096 1133.71,296.468 1138.79,324.666 1143.87,331.437 1148.95,295.023 1154.03,320.717 1159.11,245.381 1164.19,274.227 1169.27,253.921 1174.35,308.571 
  1179.43,297.864 1184.51,308.303 1189.59,303.079 1194.67,275.723 1199.75,300.581 1204.83,299.112 1209.91,290.291 1214.99,334.326 1220.07,331.163 1225.15,256.823 
  1230.23,294.88 1235.31,313.703 1240.39,310.438 1245.47,271.519 1250.55,249.68 1255.63,243.78 1260.71,257.142 1265.79,308.589 1270.87,254.571 1275.95,229.609 
  1281.03,284.394 1286.11,265.604 1291.19,296.122 1296.27,276.696 1301.35,297.381 1306.43,314.781 1311.51,304.857 1316.59,274.934 1321.67,278.984 1326.75,257.805 
  1331.83,270.51 1336.91,254.347 1341.99,256.511 1347.07,240.5 1352.15,248.102 1357.23,226.772 1362.31,257.638 1367.39,217.524 1372.47,294.31 1377.55,255.2 
  1382.63,305.551 1387.71,271.465 1392.79,234.525 1397.87,247.632 1402.95,240.787 1408.03,215.829 1413.11,236.96 1418.19,230.225 1423.27,243.236 1428.35,252.431 
  1433.43,211.736 1438.51,255.567 1443.59,256.651 1448.67,237.186 1453.75,246.609 1458.83,255.078 1463.91,258.322 1468.99,256.276 1474.07,216.163 1479.15,240.354 
  1484.23,222.023 1489.31,272.058 1494.39,227.514 1499.47,279.431 1504.55,316.66 1509.63,236.841 1514.71,328.074 1519.79,248.432 1524.87,246.588 1529.95,203.382 
  1535.03,203.581 1540.11,223.079 1545.19,310.395 1550.27,257.237 1555.35,189.718 1560.43,238.97 1565.51,228.833 1570.59,229.865 1575.67,287.239 1580.75,256.837 
  1585.83,248.523 1590.91,217.011 1595.99,226.988 1601.07,253.868 1606.15,243.218 1611.23,262.796 1616.31,228.661 1621.39,245.865 1626.47,257.074 1631.55,231.626 
  1636.63,231.3 1641.71,248.626 1646.79,228.321 1651.87,243.771 1656.95,223.889 1662.03,229.247 1667.11,198.072 1672.19,196.802 1677.27,249.359 1682.35,222.565 
  1687.43,220.85 1692.51,232.941 1697.59,204.255 1702.67,259.461 1707.75,224.25 1712.83,193.451 1717.91,186.411 1722.99,227.58 1728.07,203.012 1733.15,211.355 
  1738.23,193.939 1743.31,218.631 1748.39,185.79 1753.47,259.34 1758.55,254.142 1763.63,160.175 1768.71,140.855 1773.79,244.998 1778.87,162.414 1783.95,181.983 
  1789.03,212.378 1794.11,182.568 1799.19,220.346 1804.27,212.374 1809.35,199.405 1814.43,198.41 1819.51,203.578 1824.59,218.147 1829.67,232.434 1834.75,203.308 
  1839.83,174.74 1844.91,198.354 1849.99,258.096 1855.07,205.826 1860.15,184.253 1865.23,236.469 1870.31,177.39 1875.39,205.089 1880.47,233.244 1885.55,198.779 
  1890.63,209.412 1895.71,213.953 1900.79,208.348 1905.87,175.629 1910.95,179.301 1916.03,161.708 1921.11,271.498 1926.19,181.725 1931.27,163.848 1936.35,164.788 
  1941.43,213.224 1946.51,205.788 1951.59,159.347 1956.67,187.39 1961.75,149.459 1966.83,206.023 1971.91,264.508 1976.99,131.931 1982.07,262.397 1987.15,167.756 
  1992.23,165.706 1997.31,188.061 2002.39,179.417 2007.47,177.779 2012.55,242.935 2017.63,150.464 2022.71,142.677 2027.79,198.811 2032.87,143.992 2037.95,155.092 
  2043.03,133.839 2048.11,223.039 2053.19,173.051 2058.27,151.15 2063.35,101.589 2068.43,147.427 2073.51,108.508 2078.59,200.235 2083.67,146.639 2088.75,162.071 
  2093.83,132.826 2098.91,182.028 2103.99,150.396 2109.07,173.213 2114.15,134.076 2119.23,121.282 2124.31,104.868 2129.39,105.429 2134.47,175.435 2139.55,141.616 
  2144.63,138.138 2149.71,254.02 2154.79,183.983 2159.87,201.661 2164.95,185.242 2170.03,149.941 2175.11,90.34 2180.19,109.721 2185.27,129.975 2190.35,131.112 
  2195.43,131.708 2200.51,144.706 2205.59,141.278 2210.67,86.1857 2215.75,122.318 2220.83,141.723 2225.91,110.246 2230.99,145.145 2236.07,187.127 2241.15,183.612 
  2246.23,188.104 2251.31,143.337 2256.39,170.442 2261.47,173.649 2266.55,181.764 2271.63,132.734 2276.71,166.719 2281.79,163.356 2286.87,145.543 2291.95,222.656 
  
  "/>
<path clip-path="url(#clip750)" d="
M1831.35 1377.32 L2281.14 1377.32 L2281.14 1273.64 L1831.35 1273.64  Z
  " fill="#ffffff" fill-rule="evenodd" fill-opacity="1"/>
<polyline clip-path="url(#clip750)" style="stroke:#000000; stroke-linecap:round; stroke-linejoin:round; stroke-width:4; stroke-opacity:1; fill:none" points="
  1831.35,1377.32 2281.14,1377.32 2281.14,1273.64 1831.35,1273.64 1831.35,1377.32 
  "/>
<polyline clip-path="url(#clip750)" style="stroke:#ffa500; stroke-linecap:round; stroke-linejoin:round; stroke-width:4; stroke-opacity:1; fill:none" points="
  1855.23,1325.48 1998.46,1325.48 
  "/>
<path clip-path="url(#clip750)" d="M2038.84 1306.74 L2038.84 1310.28 L2034.77 1310.28 Q2032.47 1310.28 2031.57 1311.2 Q2030.69 1312.13 2030.69 1314.54 L2030.69 1316.83 L2037.71 1316.83 L2037.71 1320.14 L2030.69 1320.14 L2030.69 1342.76 L2026.41 1342.76 L2026.41 1320.14 L2022.34 1320.14 L2022.34 1316.83 L2026.41 1316.83 L2026.41 1315.02 Q2026.41 1310.7 2028.42 1308.73 Q2030.44 1306.74 2034.81 1306.74 L2038.84 1306.74 Z" fill="#000000" fill-rule="evenodd" fill-opacity="1" /><path clip-path="url(#clip750)" d="M2054.19 1329.72 Q2049.03 1329.72 2047.03 1330.9 Q2045.04 1332.08 2045.04 1334.93 Q2045.04 1337.2 2046.53 1338.54 Q2048.03 1339.86 2050.6 1339.86 Q2054.14 1339.86 2056.27 1337.36 Q2058.42 1334.84 2058.42 1330.67 L2058.42 1329.72 L2054.19 1329.72 M2062.68 1327.96 L2062.68 1342.76 L2058.42 1342.76 L2058.42 1338.82 Q2056.97 1341.18 2054.79 1342.32 Q2052.61 1343.43 2049.47 1343.43 Q2045.48 1343.43 2043.12 1341.2 Q2040.79 1338.96 2040.79 1335.21 Q2040.79 1330.83 2043.7 1328.61 Q2046.64 1326.39 2052.45 1326.39 L2058.42 1326.39 L2058.42 1325.97 Q2058.42 1323.03 2056.48 1321.44 Q2054.56 1319.82 2051.06 1319.82 Q2048.84 1319.82 2046.73 1320.35 Q2044.63 1320.88 2042.68 1321.95 L2042.68 1318.01 Q2045.02 1317.11 2047.22 1316.67 Q2049.42 1316.2 2051.5 1316.2 Q2057.13 1316.2 2059.91 1319.12 Q2062.68 1322.04 2062.68 1327.96 Z" fill="#000000" fill-rule="evenodd" fill-opacity="1" /><path clip-path="url(#clip750)" d="M2087.98 1317.59 L2087.98 1321.62 Q2086.18 1320.7 2084.23 1320.23 Q2082.29 1319.77 2080.21 1319.77 Q2077.03 1319.77 2075.44 1320.74 Q2073.86 1321.71 2073.86 1323.66 Q2073.86 1325.14 2075 1326 Q2076.13 1326.83 2079.56 1327.59 L2081.02 1327.92 Q2085.55 1328.89 2087.45 1330.67 Q2089.37 1332.43 2089.37 1335.6 Q2089.37 1339.21 2086.5 1341.32 Q2083.66 1343.43 2078.66 1343.43 Q2076.57 1343.43 2074.3 1343.01 Q2072.06 1342.62 2069.56 1341.81 L2069.56 1337.41 Q2071.92 1338.63 2074.21 1339.26 Q2076.5 1339.86 2078.75 1339.86 Q2081.76 1339.86 2083.38 1338.84 Q2085 1337.8 2085 1335.93 Q2085 1334.19 2083.82 1333.26 Q2082.66 1332.34 2078.7 1331.48 L2077.22 1331.14 Q2073.26 1330.3 2071.5 1328.59 Q2069.74 1326.85 2069.74 1323.84 Q2069.74 1320.19 2072.34 1318.2 Q2074.93 1316.2 2079.7 1316.2 Q2082.06 1316.2 2084.14 1316.55 Q2086.22 1316.9 2087.98 1317.59 Z" fill="#000000" fill-rule="evenodd" fill-opacity="1" /><path clip-path="url(#clip750)" d="M2100.37 1309.47 L2100.37 1316.83 L2109.14 1316.83 L2109.14 1320.14 L2100.37 1320.14 L2100.37 1334.21 Q2100.37 1337.38 2101.22 1338.29 Q2102.1 1339.19 2104.77 1339.19 L2109.14 1339.19 L2109.14 1342.76 L2104.77 1342.76 Q2099.84 1342.76 2097.96 1340.93 Q2096.09 1339.07 2096.09 1334.21 L2096.09 1320.14 L2092.96 1320.14 L2092.96 1316.83 L2096.09 1316.83 L2096.09 1309.47 L2100.37 1309.47 Z" fill="#000000" fill-rule="evenodd" fill-opacity="1" /><path clip-path="url(#clip750)" d="M2150 1321.81 Q2151.59 1318.94 2153.82 1317.57 Q2156.04 1316.2 2159.05 1316.2 Q2163.1 1316.2 2165.3 1319.05 Q2167.5 1321.88 2167.5 1327.11 L2167.5 1342.76 L2163.21 1342.76 L2163.21 1327.25 Q2163.21 1323.52 2161.9 1321.71 Q2160.58 1319.91 2157.87 1319.91 Q2154.56 1319.91 2152.64 1322.11 Q2150.71 1324.31 2150.71 1328.1 L2150.71 1342.76 L2146.43 1342.76 L2146.43 1327.25 Q2146.43 1323.5 2145.11 1321.71 Q2143.79 1319.91 2141.04 1319.91 Q2137.78 1319.91 2135.85 1322.13 Q2133.93 1324.33 2133.93 1328.1 L2133.93 1342.76 L2129.65 1342.76 L2129.65 1316.83 L2133.93 1316.83 L2133.93 1320.86 Q2135.39 1318.47 2137.43 1317.34 Q2139.47 1316.2 2142.27 1316.2 Q2145.09 1316.2 2147.06 1317.64 Q2149.05 1319.07 2150 1321.81 Z" fill="#000000" fill-rule="evenodd" fill-opacity="1" /><path clip-path="url(#clip750)" d="M2186.04 1319.82 Q2182.61 1319.82 2180.62 1322.5 Q2178.63 1325.16 2178.63 1329.82 Q2178.63 1334.47 2180.6 1337.15 Q2182.59 1339.82 2186.04 1339.82 Q2189.44 1339.82 2191.43 1337.13 Q2193.42 1334.45 2193.42 1329.82 Q2193.42 1325.21 2191.43 1322.52 Q2189.44 1319.82 2186.04 1319.82 M2186.04 1316.2 Q2191.59 1316.2 2194.77 1319.82 Q2197.94 1323.43 2197.94 1329.82 Q2197.94 1336.18 2194.77 1339.82 Q2191.59 1343.43 2186.04 1343.43 Q2180.46 1343.43 2177.29 1339.82 Q2174.14 1336.18 2174.14 1329.82 Q2174.14 1323.43 2177.29 1319.82 Q2180.46 1316.2 2186.04 1316.2 Z" fill="#000000" fill-rule="evenodd" fill-opacity="1" /><path clip-path="url(#clip750)" d="M2222.06 1320.76 L2222.06 1306.74 L2226.32 1306.74 L2226.32 1342.76 L2222.06 1342.76 L2222.06 1338.87 Q2220.71 1341.18 2218.65 1342.32 Q2216.62 1343.43 2213.75 1343.43 Q2209.05 1343.43 2206.09 1339.68 Q2203.15 1335.93 2203.15 1329.82 Q2203.15 1323.7 2206.09 1319.95 Q2209.05 1316.2 2213.75 1316.2 Q2216.62 1316.2 2218.65 1317.34 Q2220.71 1318.45 2222.06 1320.76 M2207.54 1329.82 Q2207.54 1334.51 2209.46 1337.2 Q2211.41 1339.86 2214.79 1339.86 Q2218.17 1339.86 2220.11 1337.2 Q2222.06 1334.51 2222.06 1329.82 Q2222.06 1325.12 2220.11 1322.45 Q2218.17 1319.77 2214.79 1319.77 Q2211.41 1319.77 2209.46 1322.45 Q2207.54 1325.12 2207.54 1329.82 Z" fill="#000000" fill-rule="evenodd" fill-opacity="1" /><path clip-path="url(#clip750)" d="M2257.27 1328.73 L2257.27 1330.81 L2237.68 1330.81 Q2237.96 1335.21 2240.32 1337.52 Q2242.71 1339.82 2246.94 1339.82 Q2249.4 1339.82 2251.69 1339.21 Q2254 1338.61 2256.27 1337.41 L2256.27 1341.44 Q2253.98 1342.41 2251.57 1342.92 Q2249.16 1343.43 2246.69 1343.43 Q2240.48 1343.43 2236.85 1339.82 Q2233.24 1336.2 2233.24 1330.05 Q2233.24 1323.68 2236.66 1319.95 Q2240.11 1316.2 2245.95 1316.2 Q2251.18 1316.2 2254.21 1319.58 Q2257.27 1322.94 2257.27 1328.73 M2253.01 1327.48 Q2252.96 1323.98 2251.04 1321.9 Q2249.14 1319.82 2245.99 1319.82 Q2242.43 1319.82 2240.27 1321.83 Q2238.15 1323.84 2237.82 1327.5 L2253.01 1327.48 Z" fill="#000000" fill-rule="evenodd" fill-opacity="1" /></svg>
