<?xml version="1.0" encoding="utf-8"?>
<svg xmlns="http://www.w3.org/2000/svg" xmlns:xlink="http://www.w3.org/1999/xlink" width="600" height="400" viewBox="0 0 2400 1600">
<defs>
  <clipPath id="clip910">
    <rect x="0" y="0" width="2400" height="1600"/>
  </clipPath>
</defs>
<path clip-path="url(#clip910)" d="
M0 1600 L2400 1600 L2400 0 L0 0  Z
  " fill="#ffffff" fill-rule="evenodd" fill-opacity="1"/>
<defs>
  <clipPath id="clip911">
    <rect x="480" y="0" width="1681" height="1600"/>
  </clipPath>
</defs>
<path clip-path="url(#clip910)" d="
M175.445 1423.18 L2352.76 1423.18 L2352.76 47.2441 L175.445 47.2441  Z
  " fill="#ffffff" fill-rule="evenodd" fill-opacity="1"/>
<defs>
  <clipPath id="clip912">
    <rect x="175" y="47" width="2178" height="1377"/>
  </clipPath>
</defs>
<polyline clip-path="url(#clip912)" style="stroke:#000000; stroke-linecap:round; stroke-linejoin:round; stroke-width:2; stroke-opacity:0.1; fill:none" points="
  231.919,1423.18 231.919,47.2441 
  "/>
<polyline clip-path="url(#clip912)" style="stroke:#000000; stroke-linecap:round; stroke-linejoin:round; stroke-width:2; stroke-opacity:0.1; fill:none" points="
  746.723,1423.18 746.723,47.2441 
  "/>
<polyline clip-path="url(#clip912)" style="stroke:#000000; stroke-linecap:round; stroke-linejoin:round; stroke-width:2; stroke-opacity:0.1; fill:none" points="
  1261.53,1423.18 1261.53,47.2441 
  "/>
<polyline clip-path="url(#clip912)" style="stroke:#000000; stroke-linecap:round; stroke-linejoin:round; stroke-width:2; stroke-opacity:0.1; fill:none" points="
  1776.33,1423.18 1776.33,47.2441 
  "/>
<polyline clip-path="url(#clip912)" style="stroke:#000000; stroke-linecap:round; stroke-linejoin:round; stroke-width:2; stroke-opacity:0.1; fill:none" points="
  2291.13,1423.18 2291.13,47.2441 
  "/>
<polyline clip-path="url(#clip910)" style="stroke:#000000; stroke-linecap:round; stroke-linejoin:round; stroke-width:4; stroke-opacity:1; fill:none" points="
  175.445,1423.18 2352.76,1423.18 
  "/>
<polyline clip-path="url(#clip910)" style="stroke:#000000; stroke-linecap:round; stroke-linejoin:round; stroke-width:4; stroke-opacity:1; fill:none" points="
  231.919,1423.18 231.919,1404.28 
  "/>
<polyline clip-path="url(#clip910)" style="stroke:#000000; stroke-linecap:round; stroke-linejoin:round; stroke-width:4; stroke-opacity:1; fill:none" points="
  746.723,1423.18 746.723,1404.28 
  "/>
<polyline clip-path="url(#clip910)" style="stroke:#000000; stroke-linecap:round; stroke-linejoin:round; stroke-width:4; stroke-opacity:1; fill:none" points="
  1261.53,1423.18 1261.53,1404.28 
  "/>
<polyline clip-path="url(#clip910)" style="stroke:#000000; stroke-linecap:round; stroke-linejoin:round; stroke-width:4; stroke-opacity:1; fill:none" points="
  1776.33,1423.18 1776.33,1404.28 
  "/>
<polyline clip-path="url(#clip910)" style="stroke:#000000; stroke-linecap:round; stroke-linejoin:round; stroke-width:4; stroke-opacity:1; fill:none" points="
  2291.13,1423.18 2291.13,1404.28 
  "/>
<path clip-path="url(#clip910)" d="M139.721 1454.1 Q136.109 1454.1 134.281 1457.66 Q132.475 1461.2 132.475 1468.33 Q132.475 1475.44 134.281 1479.01 Q136.109 1482.55 139.721 1482.55 Q143.355 1482.55 145.16 1479.01 Q146.989 1475.44 146.989 1468.33 Q146.989 1461.2 145.16 1457.66 Q143.355 1454.1 139.721 1454.1 M139.721 1450.39 Q145.531 1450.39 148.586 1455 Q151.665 1459.58 151.665 1468.33 Q151.665 1477.06 148.586 1481.67 Q145.531 1486.25 139.721 1486.25 Q133.91 1486.25 130.832 1481.67 Q127.776 1477.06 127.776 1468.33 Q127.776 1459.58 130.832 1455 Q133.91 1450.39 139.721 1450.39 Z" fill="#000000" fill-rule="evenodd" fill-opacity="1" /><path clip-path="url(#clip910)" d="M159.883 1479.7 L164.767 1479.7 L164.767 1485.58 L159.883 1485.58 L159.883 1479.7 Z" fill="#000000" fill-rule="evenodd" fill-opacity="1" /><path clip-path="url(#clip910)" d="M184.952 1454.1 Q181.341 1454.1 179.512 1457.66 Q177.706 1461.2 177.706 1468.33 Q177.706 1475.44 179.512 1479.01 Q181.341 1482.55 184.952 1482.55 Q188.586 1482.55 190.392 1479.01 Q192.22 1475.44 192.22 1468.33 Q192.22 1461.2 190.392 1457.66 Q188.586 1454.1 184.952 1454.1 M184.952 1450.39 Q190.762 1450.39 193.818 1455 Q196.896 1459.58 196.896 1468.33 Q196.896 1477.06 193.818 1481.67 Q190.762 1486.25 184.952 1486.25 Q179.142 1486.25 176.063 1481.67 Q173.007 1477.06 173.007 1468.33 Q173.007 1459.58 176.063 1455 Q179.142 1450.39 184.952 1450.39 Z" fill="#000000" fill-rule="evenodd" fill-opacity="1" /><path clip-path="url(#clip910)" d="M215.114 1454.1 Q211.503 1454.1 209.674 1457.66 Q207.868 1461.2 207.868 1468.33 Q207.868 1475.44 209.674 1479.01 Q211.503 1482.55 215.114 1482.55 Q218.748 1482.55 220.553 1479.01 Q222.382 1475.44 222.382 1468.33 Q222.382 1461.2 220.553 1457.66 Q218.748 1454.1 215.114 1454.1 M215.114 1450.39 Q220.924 1450.39 223.979 1455 Q227.058 1459.58 227.058 1468.33 Q227.058 1477.06 223.979 1481.67 Q220.924 1486.25 215.114 1486.25 Q209.304 1486.25 206.225 1481.67 Q203.169 1477.06 203.169 1468.33 Q203.169 1459.58 206.225 1455 Q209.304 1450.39 215.114 1450.39 Z" fill="#000000" fill-rule="evenodd" fill-opacity="1" /><path clip-path="url(#clip910)" d="M256.225 1459.65 L246.85 1472.27 L256.711 1485.58 L251.688 1485.58 L244.141 1475.39 L236.595 1485.58 L231.572 1485.58 L241.641 1472.02 L232.428 1459.65 L237.452 1459.65 L244.327 1468.89 L251.201 1459.65 L256.225 1459.65 Z" fill="#000000" fill-rule="evenodd" fill-opacity="1" /><path clip-path="url(#clip910)" d="M264.141 1481.64 L271.78 1481.64 L271.78 1455.28 L263.47 1456.95 L263.47 1452.69 L271.734 1451.02 L276.41 1451.02 L276.41 1481.64 L284.049 1481.64 L284.049 1485.58 L264.141 1485.58 L264.141 1481.64 Z" fill="#000000" fill-rule="evenodd" fill-opacity="1" /><path clip-path="url(#clip910)" d="M303.493 1454.1 Q299.882 1454.1 298.053 1457.66 Q296.248 1461.2 296.248 1468.33 Q296.248 1475.44 298.053 1479.01 Q299.882 1482.55 303.493 1482.55 Q307.127 1482.55 308.933 1479.01 Q310.761 1475.44 310.761 1468.33 Q310.761 1461.2 308.933 1457.66 Q307.127 1454.1 303.493 1454.1 M303.493 1450.39 Q309.303 1450.39 312.359 1455 Q315.437 1459.58 315.437 1468.33 Q315.437 1477.06 312.359 1481.67 Q309.303 1486.25 303.493 1486.25 Q297.683 1486.25 294.604 1481.67 Q291.548 1477.06 291.548 1468.33 Q291.548 1459.58 294.604 1455 Q297.683 1450.39 303.493 1450.39 Z" fill="#000000" fill-rule="evenodd" fill-opacity="1" /><path clip-path="url(#clip910)" d="M328.655 1459.35 Q326.618 1459.35 325.437 1460.56 Q324.257 1461.78 324.257 1463.89 Q324.257 1465.97 325.437 1467.18 Q326.618 1468.4 328.655 1468.4 Q330.669 1468.4 331.849 1467.18 Q333.03 1465.97 333.03 1463.89 Q333.03 1461.78 331.849 1460.56 Q330.669 1459.35 328.655 1459.35 M334.627 1451.16 L334.627 1453.54 Q333.493 1453.08 332.335 1452.85 Q331.178 1452.59 330.044 1452.59 Q327.081 1452.59 325.507 1454.33 Q323.933 1456.09 323.701 1459.63 Q324.581 1458.5 325.9 1457.89 Q327.243 1457.29 328.817 1457.29 Q332.173 1457.29 334.118 1459.05 Q336.062 1460.83 336.062 1463.89 Q336.062 1466.83 334.025 1468.66 Q332.011 1470.46 328.655 1470.46 Q324.789 1470.46 322.752 1467.89 Q320.715 1465.33 320.715 1460.42 Q320.715 1455.83 323.215 1453.13 Q325.715 1450.39 329.928 1450.39 Q331.062 1450.39 332.22 1450.58 Q333.377 1450.79 334.627 1451.16 Z" fill="#000000" fill-rule="evenodd" fill-opacity="1" /><path clip-path="url(#clip910)" d="M629.212 1481.64 L636.851 1481.64 L636.851 1455.28 L628.541 1456.95 L628.541 1452.69 L636.804 1451.02 L641.48 1451.02 L641.48 1481.64 L649.119 1481.64 L649.119 1485.58 L629.212 1485.58 L629.212 1481.64 Z" fill="#000000" fill-rule="evenodd" fill-opacity="1" /><path clip-path="url(#clip910)" d="M668.564 1454.1 Q664.952 1454.1 663.124 1457.66 Q661.318 1461.2 661.318 1468.33 Q661.318 1475.44 663.124 1479.01 Q664.952 1482.55 668.564 1482.55 Q672.198 1482.55 674.003 1479.01 Q675.832 1475.44 675.832 1468.33 Q675.832 1461.2 674.003 1457.66 Q672.198 1454.1 668.564 1454.1 M668.564 1450.39 Q674.374 1450.39 677.429 1455 Q680.508 1459.58 680.508 1468.33 Q680.508 1477.06 677.429 1481.67 Q674.374 1486.25 668.564 1486.25 Q662.753 1486.25 659.675 1481.67 Q656.619 1477.06 656.619 1468.33 Q656.619 1459.58 659.675 1455 Q662.753 1450.39 668.564 1450.39 Z" fill="#000000" fill-rule="evenodd" fill-opacity="1" /><path clip-path="url(#clip910)" d="M688.725 1479.7 L693.61 1479.7 L693.61 1485.58 L688.725 1485.58 L688.725 1479.7 Z" fill="#000000" fill-rule="evenodd" fill-opacity="1" /><path clip-path="url(#clip910)" d="M713.795 1454.1 Q710.184 1454.1 708.355 1457.66 Q706.549 1461.2 706.549 1468.33 Q706.549 1475.44 708.355 1479.01 Q710.184 1482.55 713.795 1482.55 Q717.429 1482.55 719.235 1479.01 Q721.063 1475.44 721.063 1468.33 Q721.063 1461.2 719.235 1457.66 Q717.429 1454.1 713.795 1454.1 M713.795 1450.39 Q719.605 1450.39 722.66 1455 Q725.739 1459.58 725.739 1468.33 Q725.739 1477.06 722.66 1481.67 Q719.605 1486.25 713.795 1486.25 Q707.985 1486.25 704.906 1481.67 Q701.85 1477.06 701.85 1468.33 Q701.85 1459.58 704.906 1455 Q707.985 1450.39 713.795 1450.39 Z" fill="#000000" fill-rule="evenodd" fill-opacity="1" /><path clip-path="url(#clip910)" d="M743.957 1454.1 Q740.346 1454.1 738.517 1457.66 Q736.711 1461.2 736.711 1468.33 Q736.711 1475.44 738.517 1479.01 Q740.346 1482.55 743.957 1482.55 Q747.591 1482.55 749.396 1479.01 Q751.225 1475.44 751.225 1468.33 Q751.225 1461.2 749.396 1457.66 Q747.591 1454.1 743.957 1454.1 M743.957 1450.39 Q749.767 1450.39 752.822 1455 Q755.901 1459.58 755.901 1468.33 Q755.901 1477.06 752.822 1481.67 Q749.767 1486.25 743.957 1486.25 Q738.147 1486.25 735.068 1481.67 Q732.012 1477.06 732.012 1468.33 Q732.012 1459.58 735.068 1455 Q738.147 1450.39 743.957 1450.39 Z" fill="#000000" fill-rule="evenodd" fill-opacity="1" /><path clip-path="url(#clip910)" d="M785.068 1459.65 L775.693 1472.27 L785.554 1485.58 L780.531 1485.58 L772.984 1475.39 L765.438 1485.58 L760.415 1485.58 L770.484 1472.02 L761.271 1459.65 L766.295 1459.65 L773.169 1468.89 L780.044 1459.65 L785.068 1459.65 Z" fill="#000000" fill-rule="evenodd" fill-opacity="1" /><path clip-path="url(#clip910)" d="M792.984 1481.64 L800.623 1481.64 L800.623 1455.28 L792.313 1456.95 L792.313 1452.69 L800.577 1451.02 L805.253 1451.02 L805.253 1481.64 L812.891 1481.64 L812.891 1485.58 L792.984 1485.58 L792.984 1481.64 Z" fill="#000000" fill-rule="evenodd" fill-opacity="1" /><path clip-path="url(#clip910)" d="M832.336 1454.1 Q828.725 1454.1 826.896 1457.66 Q825.09 1461.2 825.09 1468.33 Q825.09 1475.44 826.896 1479.01 Q828.725 1482.55 832.336 1482.55 Q835.97 1482.55 837.776 1479.01 Q839.604 1475.44 839.604 1468.33 Q839.604 1461.2 837.776 1457.66 Q835.97 1454.1 832.336 1454.1 M832.336 1450.39 Q838.146 1450.39 841.202 1455 Q844.28 1459.58 844.28 1468.33 Q844.28 1477.06 841.202 1481.67 Q838.146 1486.25 832.336 1486.25 Q826.526 1486.25 823.447 1481.67 Q820.391 1477.06 820.391 1468.33 Q820.391 1459.58 823.447 1455 Q826.526 1450.39 832.336 1450.39 Z" fill="#000000" fill-rule="evenodd" fill-opacity="1" /><path clip-path="url(#clip910)" d="M857.498 1459.35 Q855.461 1459.35 854.28 1460.56 Q853.1 1461.78 853.1 1463.89 Q853.1 1465.97 854.28 1467.18 Q855.461 1468.4 857.498 1468.4 Q859.512 1468.4 860.692 1467.18 Q861.873 1465.97 861.873 1463.89 Q861.873 1461.78 860.692 1460.56 Q859.512 1459.35 857.498 1459.35 M863.47 1451.16 L863.47 1453.54 Q862.336 1453.08 861.178 1452.85 Q860.021 1452.59 858.887 1452.59 Q855.924 1452.59 854.35 1454.33 Q852.776 1456.09 852.544 1459.63 Q853.424 1458.5 854.743 1457.89 Q856.086 1457.29 857.66 1457.29 Q861.016 1457.29 862.961 1459.05 Q864.905 1460.83 864.905 1463.89 Q864.905 1466.83 862.868 1468.66 Q860.854 1470.46 857.498 1470.46 Q853.632 1470.46 851.595 1467.89 Q849.558 1465.33 849.558 1460.42 Q849.558 1455.83 852.058 1453.13 Q854.558 1450.39 858.771 1450.39 Q859.905 1450.39 861.063 1450.58 Q862.22 1450.79 863.47 1451.16 Z" fill="#000000" fill-rule="evenodd" fill-opacity="1" /><path clip-path="url(#clip910)" d="M1148.1 1481.64 L1164.42 1481.64 L1164.42 1485.58 L1142.48 1485.58 L1142.48 1481.64 Q1145.14 1478.89 1149.72 1474.26 Q1154.33 1469.61 1155.51 1468.27 Q1157.75 1465.74 1158.63 1464.01 Q1159.54 1462.25 1159.54 1460.56 Q1159.54 1457.8 1157.59 1456.07 Q1155.67 1454.33 1152.57 1454.33 Q1150.37 1454.33 1147.92 1455.09 Q1145.49 1455.86 1142.71 1457.41 L1142.71 1452.69 Q1145.53 1451.55 1147.99 1450.97 Q1150.44 1450.39 1152.48 1450.39 Q1157.85 1450.39 1161.04 1453.08 Q1164.24 1455.77 1164.24 1460.26 Q1164.24 1462.39 1163.43 1464.31 Q1162.64 1466.2 1160.53 1468.8 Q1159.95 1469.47 1156.85 1472.69 Q1153.75 1475.88 1148.1 1481.64 Z" fill="#000000" fill-rule="evenodd" fill-opacity="1" /><path clip-path="url(#clip910)" d="M1184.24 1454.1 Q1180.62 1454.1 1178.8 1457.66 Q1176.99 1461.2 1176.99 1468.33 Q1176.99 1475.44 1178.8 1479.01 Q1180.62 1482.55 1184.24 1482.55 Q1187.87 1482.55 1189.68 1479.01 Q1191.5 1475.44 1191.5 1468.33 Q1191.5 1461.2 1189.68 1457.66 Q1187.87 1454.1 1184.24 1454.1 M1184.24 1450.39 Q1190.05 1450.39 1193.1 1455 Q1196.18 1459.58 1196.18 1468.33 Q1196.18 1477.06 1193.1 1481.67 Q1190.05 1486.25 1184.24 1486.25 Q1178.43 1486.25 1175.35 1481.67 Q1172.29 1477.06 1172.29 1468.33 Q1172.29 1459.58 1175.35 1455 Q1178.43 1450.39 1184.24 1450.39 Z" fill="#000000" fill-rule="evenodd" fill-opacity="1" /><path clip-path="url(#clip910)" d="M1204.4 1479.7 L1209.28 1479.7 L1209.28 1485.58 L1204.4 1485.58 L1204.4 1479.7 Z" fill="#000000" fill-rule="evenodd" fill-opacity="1" /><path clip-path="url(#clip910)" d="M1229.47 1454.1 Q1225.86 1454.1 1224.03 1457.66 Q1222.22 1461.2 1222.22 1468.33 Q1222.22 1475.44 1224.03 1479.01 Q1225.86 1482.55 1229.47 1482.55 Q1233.1 1482.55 1234.91 1479.01 Q1236.74 1475.44 1236.74 1468.33 Q1236.74 1461.2 1234.91 1457.66 Q1233.1 1454.1 1229.47 1454.1 M1229.47 1450.39 Q1235.28 1450.39 1238.33 1455 Q1241.41 1459.58 1241.41 1468.33 Q1241.41 1477.06 1238.33 1481.67 Q1235.28 1486.25 1229.47 1486.25 Q1223.66 1486.25 1220.58 1481.67 Q1217.52 1477.06 1217.52 1468.33 Q1217.52 1459.58 1220.58 1455 Q1223.66 1450.39 1229.47 1450.39 Z" fill="#000000" fill-rule="evenodd" fill-opacity="1" /><path clip-path="url(#clip910)" d="M1259.63 1454.1 Q1256.02 1454.1 1254.19 1457.66 Q1252.38 1461.2 1252.38 1468.33 Q1252.38 1475.44 1254.19 1479.01 Q1256.02 1482.55 1259.63 1482.55 Q1263.26 1482.55 1265.07 1479.01 Q1266.9 1475.44 1266.9 1468.33 Q1266.9 1461.2 1265.07 1457.66 Q1263.26 1454.1 1259.63 1454.1 M1259.63 1450.39 Q1265.44 1450.39 1268.49 1455 Q1271.57 1459.58 1271.57 1468.33 Q1271.57 1477.06 1268.49 1481.67 Q1265.44 1486.25 1259.63 1486.25 Q1253.82 1486.25 1250.74 1481.67 Q1247.68 1477.06 1247.68 1468.33 Q1247.68 1459.58 1250.74 1455 Q1253.82 1450.39 1259.63 1450.39 Z" fill="#000000" fill-rule="evenodd" fill-opacity="1" /><path clip-path="url(#clip910)" d="M1300.74 1459.65 L1291.36 1472.27 L1301.23 1485.58 L1296.2 1485.58 L1288.66 1475.39 L1281.11 1485.58 L1276.09 1485.58 L1286.16 1472.02 L1276.94 1459.65 L1281.97 1459.65 L1288.84 1468.89 L1295.72 1459.65 L1300.74 1459.65 Z" fill="#000000" fill-rule="evenodd" fill-opacity="1" /><path clip-path="url(#clip910)" d="M1308.66 1481.64 L1316.29 1481.64 L1316.29 1455.28 L1307.98 1456.95 L1307.98 1452.69 L1316.25 1451.02 L1320.92 1451.02 L1320.92 1481.64 L1328.56 1481.64 L1328.56 1485.58 L1308.66 1485.58 L1308.66 1481.64 Z" fill="#000000" fill-rule="evenodd" fill-opacity="1" /><path clip-path="url(#clip910)" d="M1348.01 1454.1 Q1344.4 1454.1 1342.57 1457.66 Q1340.76 1461.2 1340.76 1468.33 Q1340.76 1475.44 1342.57 1479.01 Q1344.4 1482.55 1348.01 1482.55 Q1351.64 1482.55 1353.45 1479.01 Q1355.28 1475.44 1355.28 1468.33 Q1355.28 1461.2 1353.45 1457.66 Q1351.64 1454.1 1348.01 1454.1 M1348.01 1450.39 Q1353.82 1450.39 1356.87 1455 Q1359.95 1459.58 1359.95 1468.33 Q1359.95 1477.06 1356.87 1481.67 Q1353.82 1486.25 1348.01 1486.25 Q1342.2 1486.25 1339.12 1481.67 Q1336.06 1477.06 1336.06 1468.33 Q1336.06 1459.58 1339.12 1455 Q1342.2 1450.39 1348.01 1450.39 Z" fill="#000000" fill-rule="evenodd" fill-opacity="1" /><path clip-path="url(#clip910)" d="M1373.17 1459.35 Q1371.13 1459.35 1369.95 1460.56 Q1368.77 1461.78 1368.77 1463.89 Q1368.77 1465.97 1369.95 1467.18 Q1371.13 1468.4 1373.17 1468.4 Q1375.18 1468.4 1376.36 1467.18 Q1377.54 1465.97 1377.54 1463.89 Q1377.54 1461.78 1376.36 1460.56 Q1375.18 1459.35 1373.17 1459.35 M1379.14 1451.16 L1379.14 1453.54 Q1378.01 1453.08 1376.85 1452.85 Q1375.69 1452.59 1374.56 1452.59 Q1371.6 1452.59 1370.02 1454.33 Q1368.45 1456.09 1368.22 1459.63 Q1369.1 1458.5 1370.41 1457.89 Q1371.76 1457.29 1373.33 1457.29 Q1376.69 1457.29 1378.63 1459.05 Q1380.58 1460.83 1380.58 1463.89 Q1380.58 1466.83 1378.54 1468.66 Q1376.53 1470.46 1373.17 1470.46 Q1369.3 1470.46 1367.27 1467.89 Q1365.23 1465.33 1365.23 1460.42 Q1365.23 1455.83 1367.73 1453.13 Q1370.23 1450.39 1374.44 1450.39 Q1375.58 1450.39 1376.73 1450.58 Q1377.89 1450.79 1379.14 1451.16 Z" fill="#000000" fill-rule="evenodd" fill-opacity="1" /><path clip-path="url(#clip910)" d="M1672.97 1466.95 Q1676.33 1467.66 1678.21 1469.93 Q1680.1 1472.2 1680.1 1475.53 Q1680.1 1480.65 1676.59 1483.45 Q1673.07 1486.25 1666.59 1486.25 Q1664.41 1486.25 1662.09 1485.81 Q1659.8 1485.39 1657.35 1484.54 L1657.35 1480.02 Q1659.29 1481.16 1661.61 1481.74 Q1663.92 1482.32 1666.45 1482.32 Q1670.84 1482.32 1673.14 1480.58 Q1675.45 1478.84 1675.45 1475.53 Q1675.45 1472.48 1673.3 1470.77 Q1671.17 1469.03 1667.35 1469.03 L1663.32 1469.03 L1663.32 1465.19 L1667.53 1465.19 Q1670.98 1465.19 1672.81 1463.82 Q1674.64 1462.43 1674.64 1459.84 Q1674.64 1457.18 1672.74 1455.77 Q1670.87 1454.33 1667.35 1454.33 Q1665.43 1454.33 1663.23 1454.75 Q1661.03 1455.16 1658.39 1456.04 L1658.39 1451.88 Q1661.05 1451.14 1663.37 1450.77 Q1665.71 1450.39 1667.77 1450.39 Q1673.09 1450.39 1676.19 1452.83 Q1679.29 1455.23 1679.29 1459.35 Q1679.29 1462.22 1677.65 1464.21 Q1676.01 1466.18 1672.97 1466.95 Z" fill="#000000" fill-rule="evenodd" fill-opacity="1" /><path clip-path="url(#clip910)" d="M1698.97 1454.1 Q1695.36 1454.1 1693.53 1457.66 Q1691.72 1461.2 1691.72 1468.33 Q1691.72 1475.44 1693.53 1479.01 Q1695.36 1482.55 1698.97 1482.55 Q1702.6 1482.55 1704.41 1479.01 Q1706.24 1475.44 1706.24 1468.33 Q1706.24 1461.2 1704.41 1457.66 Q1702.6 1454.1 1698.97 1454.1 M1698.97 1450.39 Q1704.78 1450.39 1707.84 1455 Q1710.91 1459.58 1710.91 1468.33 Q1710.91 1477.06 1707.84 1481.67 Q1704.78 1486.25 1698.97 1486.25 Q1693.16 1486.25 1690.08 1481.67 Q1687.03 1477.06 1687.03 1468.33 Q1687.03 1459.58 1690.08 1455 Q1693.16 1450.39 1698.97 1450.39 Z" fill="#000000" fill-rule="evenodd" fill-opacity="1" /><path clip-path="url(#clip910)" d="M1719.13 1479.7 L1724.02 1479.7 L1724.02 1485.58 L1719.13 1485.58 L1719.13 1479.7 Z" fill="#000000" fill-rule="evenodd" fill-opacity="1" /><path clip-path="url(#clip910)" d="M1744.2 1454.1 Q1740.59 1454.1 1738.76 1457.66 Q1736.96 1461.2 1736.96 1468.33 Q1736.96 1475.44 1738.76 1479.01 Q1740.59 1482.55 1744.2 1482.55 Q1747.84 1482.55 1749.64 1479.01 Q1751.47 1475.44 1751.47 1468.33 Q1751.47 1461.2 1749.64 1457.66 Q1747.84 1454.1 1744.2 1454.1 M1744.2 1450.39 Q1750.01 1450.39 1753.07 1455 Q1756.15 1459.58 1756.15 1468.33 Q1756.15 1477.06 1753.07 1481.67 Q1750.01 1486.25 1744.2 1486.25 Q1738.39 1486.25 1735.31 1481.67 Q1732.26 1477.06 1732.26 1468.33 Q1732.26 1459.58 1735.31 1455 Q1738.39 1450.39 1744.2 1450.39 Z" fill="#000000" fill-rule="evenodd" fill-opacity="1" /><path clip-path="url(#clip910)" d="M1774.36 1454.1 Q1770.75 1454.1 1768.92 1457.66 Q1767.12 1461.2 1767.12 1468.33 Q1767.12 1475.44 1768.92 1479.01 Q1770.75 1482.55 1774.36 1482.55 Q1778 1482.55 1779.8 1479.01 Q1781.63 1475.44 1781.63 1468.33 Q1781.63 1461.2 1779.8 1457.66 Q1778 1454.1 1774.36 1454.1 M1774.36 1450.39 Q1780.17 1450.39 1783.23 1455 Q1786.31 1459.58 1786.31 1468.33 Q1786.31 1477.06 1783.23 1481.67 Q1780.17 1486.25 1774.36 1486.25 Q1768.55 1486.25 1765.47 1481.67 Q1762.42 1477.06 1762.42 1468.33 Q1762.42 1459.58 1765.47 1455 Q1768.55 1450.39 1774.36 1450.39 Z" fill="#000000" fill-rule="evenodd" fill-opacity="1" /><path clip-path="url(#clip910)" d="M1815.47 1459.65 L1806.1 1472.27 L1815.96 1485.58 L1810.94 1485.58 L1803.39 1475.39 L1795.84 1485.58 L1790.82 1485.58 L1800.89 1472.02 L1791.68 1459.65 L1796.7 1459.65 L1803.58 1468.89 L1810.45 1459.65 L1815.47 1459.65 Z" fill="#000000" fill-rule="evenodd" fill-opacity="1" /><path clip-path="url(#clip910)" d="M1823.39 1481.64 L1831.03 1481.64 L1831.03 1455.28 L1822.72 1456.95 L1822.72 1452.69 L1830.98 1451.02 L1835.66 1451.02 L1835.66 1481.64 L1843.3 1481.64 L1843.3 1485.58 L1823.39 1485.58 L1823.39 1481.64 Z" fill="#000000" fill-rule="evenodd" fill-opacity="1" /><path clip-path="url(#clip910)" d="M1862.74 1454.1 Q1859.13 1454.1 1857.3 1457.66 Q1855.5 1461.2 1855.5 1468.33 Q1855.5 1475.44 1857.3 1479.01 Q1859.13 1482.55 1862.74 1482.55 Q1866.38 1482.55 1868.18 1479.01 Q1870.01 1475.44 1870.01 1468.33 Q1870.01 1461.2 1868.18 1457.66 Q1866.38 1454.1 1862.74 1454.1 M1862.74 1450.39 Q1868.55 1450.39 1871.61 1455 Q1874.69 1459.58 1874.69 1468.33 Q1874.69 1477.06 1871.61 1481.67 Q1868.55 1486.25 1862.74 1486.25 Q1856.93 1486.25 1853.85 1481.67 Q1850.8 1477.06 1850.8 1468.33 Q1850.8 1459.58 1853.85 1455 Q1856.93 1450.39 1862.74 1450.39 Z" fill="#000000" fill-rule="evenodd" fill-opacity="1" /><path clip-path="url(#clip910)" d="M1887.9 1459.35 Q1885.87 1459.35 1884.69 1460.56 Q1883.51 1461.78 1883.51 1463.89 Q1883.51 1465.97 1884.69 1467.18 Q1885.87 1468.4 1887.9 1468.4 Q1889.92 1468.4 1891.1 1467.18 Q1892.28 1465.97 1892.28 1463.89 Q1892.28 1461.78 1891.1 1460.56 Q1889.92 1459.35 1887.9 1459.35 M1893.88 1451.16 L1893.88 1453.54 Q1892.74 1453.08 1891.58 1452.85 Q1890.43 1452.59 1889.29 1452.59 Q1886.33 1452.59 1884.76 1454.33 Q1883.18 1456.09 1882.95 1459.63 Q1883.83 1458.5 1885.15 1457.89 Q1886.49 1457.29 1888.07 1457.29 Q1891.42 1457.29 1893.37 1459.05 Q1895.31 1460.83 1895.31 1463.89 Q1895.31 1466.83 1893.27 1468.66 Q1891.26 1470.46 1887.9 1470.46 Q1884.04 1470.46 1882 1467.89 Q1879.96 1465.33 1879.96 1460.42 Q1879.96 1455.83 1882.46 1453.13 Q1884.96 1450.39 1889.18 1450.39 Q1890.31 1450.39 1891.47 1450.58 Q1892.63 1450.79 1893.88 1451.16 Z" fill="#000000" fill-rule="evenodd" fill-opacity="1" /><path clip-path="url(#clip910)" d="M2187.11 1455.09 L2175.3 1473.54 L2187.11 1473.54 L2187.11 1455.09 M2185.88 1451.02 L2191.76 1451.02 L2191.76 1473.54 L2196.69 1473.54 L2196.69 1477.43 L2191.76 1477.43 L2191.76 1485.58 L2187.11 1485.58 L2187.11 1477.43 L2171.5 1477.43 L2171.5 1472.92 L2185.88 1451.02 Z" fill="#000000" fill-rule="evenodd" fill-opacity="1" /><path clip-path="url(#clip910)" d="M2214.42 1454.1 Q2210.81 1454.1 2208.98 1457.66 Q2207.18 1461.2 2207.18 1468.33 Q2207.18 1475.44 2208.98 1479.01 Q2210.81 1482.55 2214.42 1482.55 Q2218.06 1482.55 2219.86 1479.01 Q2221.69 1475.44 2221.69 1468.33 Q2221.69 1461.2 2219.86 1457.66 Q2218.06 1454.1 2214.42 1454.1 M2214.42 1450.39 Q2220.23 1450.39 2223.29 1455 Q2226.37 1459.58 2226.37 1468.33 Q2226.37 1477.06 2223.29 1481.67 Q2220.23 1486.25 2214.42 1486.25 Q2208.61 1486.25 2205.53 1481.67 Q2202.48 1477.06 2202.48 1468.33 Q2202.48 1459.58 2205.53 1455 Q2208.61 1450.39 2214.42 1450.39 Z" fill="#000000" fill-rule="evenodd" fill-opacity="1" /><path clip-path="url(#clip910)" d="M2234.58 1479.7 L2239.47 1479.7 L2239.47 1485.58 L2234.58 1485.58 L2234.58 1479.7 Z" fill="#000000" fill-rule="evenodd" fill-opacity="1" /><path clip-path="url(#clip910)" d="M2259.65 1454.1 Q2256.04 1454.1 2254.21 1457.66 Q2252.41 1461.2 2252.41 1468.33 Q2252.41 1475.44 2254.21 1479.01 Q2256.04 1482.55 2259.65 1482.55 Q2263.29 1482.55 2265.09 1479.01 Q2266.92 1475.44 2266.92 1468.33 Q2266.92 1461.2 2265.09 1457.66 Q2263.29 1454.1 2259.65 1454.1 M2259.65 1450.39 Q2265.46 1450.39 2268.52 1455 Q2271.6 1459.58 2271.6 1468.33 Q2271.6 1477.06 2268.52 1481.67 Q2265.46 1486.25 2259.65 1486.25 Q2253.84 1486.25 2250.76 1481.67 Q2247.71 1477.06 2247.71 1468.33 Q2247.71 1459.58 2250.76 1455 Q2253.84 1450.39 2259.65 1450.39 Z" fill="#000000" fill-rule="evenodd" fill-opacity="1" /><path clip-path="url(#clip910)" d="M2289.81 1454.1 Q2286.2 1454.1 2284.37 1457.66 Q2282.57 1461.2 2282.57 1468.33 Q2282.57 1475.44 2284.37 1479.01 Q2286.2 1482.55 2289.81 1482.55 Q2293.45 1482.55 2295.25 1479.01 Q2297.08 1475.44 2297.08 1468.33 Q2297.08 1461.2 2295.25 1457.66 Q2293.45 1454.1 2289.81 1454.1 M2289.81 1450.39 Q2295.62 1450.39 2298.68 1455 Q2301.76 1459.58 2301.76 1468.33 Q2301.76 1477.06 2298.68 1481.67 Q2295.62 1486.25 2289.81 1486.25 Q2284 1486.25 2280.93 1481.67 Q2277.87 1477.06 2277.87 1468.33 Q2277.87 1459.58 2280.93 1455 Q2284 1450.39 2289.81 1450.39 Z" fill="#000000" fill-rule="evenodd" fill-opacity="1" /><path clip-path="url(#clip910)" d="M2330.93 1459.65 L2321.55 1472.27 L2331.41 1485.58 L2326.39 1485.58 L2318.84 1475.39 L2311.3 1485.58 L2306.27 1485.58 L2316.34 1472.02 L2307.13 1459.65 L2312.15 1459.65 L2319.03 1468.89 L2325.9 1459.65 L2330.93 1459.65 Z" fill="#000000" fill-rule="evenodd" fill-opacity="1" /><path clip-path="url(#clip910)" d="M2338.84 1481.64 L2346.48 1481.64 L2346.48 1455.28 L2338.17 1456.95 L2338.17 1452.69 L2346.43 1451.02 L2351.11 1451.02 L2351.11 1481.64 L2358.75 1481.64 L2358.75 1485.58 L2338.84 1485.58 L2338.84 1481.64 Z" fill="#000000" fill-rule="evenodd" fill-opacity="1" /><path clip-path="url(#clip910)" d="M2378.19 1454.1 Q2374.58 1454.1 2372.75 1457.66 Q2370.95 1461.2 2370.95 1468.33 Q2370.95 1475.44 2372.75 1479.01 Q2374.58 1482.55 2378.19 1482.55 Q2381.83 1482.55 2383.63 1479.01 Q2385.46 1475.44 2385.46 1468.33 Q2385.46 1461.2 2383.63 1457.66 Q2381.83 1454.1 2378.19 1454.1 M2378.19 1450.39 Q2384 1450.39 2387.06 1455 Q2390.14 1459.58 2390.14 1468.33 Q2390.14 1477.06 2387.06 1481.67 Q2384 1486.25 2378.19 1486.25 Q2372.38 1486.25 2369.3 1481.67 Q2366.25 1477.06 2366.25 1468.33 Q2366.25 1459.58 2369.3 1455 Q2372.38 1450.39 2378.19 1450.39 Z" fill="#000000" fill-rule="evenodd" fill-opacity="1" /><path clip-path="url(#clip910)" d="M2403.36 1459.35 Q2401.32 1459.35 2400.14 1460.56 Q2398.96 1461.78 2398.96 1463.89 Q2398.96 1465.97 2400.14 1467.18 Q2401.32 1468.4 2403.36 1468.4 Q2405.37 1468.4 2406.55 1467.18 Q2407.73 1465.97 2407.73 1463.89 Q2407.73 1461.78 2406.55 1460.56 Q2405.37 1459.35 2403.36 1459.35 M2409.33 1451.16 L2409.33 1453.54 Q2408.19 1453.08 2407.04 1452.85 Q2405.88 1452.59 2404.74 1452.59 Q2401.78 1452.59 2400.21 1454.33 Q2398.63 1456.09 2398.4 1459.63 Q2399.28 1458.5 2400.6 1457.89 Q2401.94 1457.29 2403.52 1457.29 Q2406.87 1457.29 2408.82 1459.05 Q2410.76 1460.83 2410.76 1463.89 Q2410.76 1466.83 2408.73 1468.66 Q2406.71 1470.46 2403.36 1470.46 Q2399.49 1470.46 2397.45 1467.89 Q2395.42 1465.33 2395.42 1460.42 Q2395.42 1455.83 2397.92 1453.13 Q2400.42 1450.39 2404.63 1450.39 Q2405.76 1450.39 2406.92 1450.58 Q2408.08 1450.79 2409.33 1451.16 Z" fill="#000000" fill-rule="evenodd" fill-opacity="1" /><path clip-path="url(#clip910)" d="M1113.66 1520.52 L1120.09 1520.52 L1120.09 1568.04 L1113.66 1568.04 L1113.66 1520.52 Z" fill="#000000" fill-rule="evenodd" fill-opacity="1" /><path clip-path="url(#clip910)" d="M1138.43 1522.27 L1138.43 1532.4 L1150.49 1532.4 L1150.49 1536.95 L1138.43 1536.95 L1138.43 1556.3 Q1138.43 1560.66 1139.6 1561.9 Q1140.81 1563.14 1144.47 1563.14 L1150.49 1563.14 L1150.49 1568.04 L1144.47 1568.04 Q1137.69 1568.04 1135.12 1565.53 Q1132.54 1562.98 1132.54 1556.3 L1132.54 1536.95 L1128.24 1536.95 L1128.24 1532.4 L1132.54 1532.4 L1132.54 1522.27 L1138.43 1522.27 Z" fill="#000000" fill-rule="evenodd" fill-opacity="1" /><path clip-path="url(#clip910)" d="M1188.68 1548.76 L1188.68 1551.62 L1161.76 1551.62 Q1162.14 1557.67 1165.38 1560.85 Q1168.66 1564 1174.49 1564 Q1177.86 1564 1181.01 1563.17 Q1184.2 1562.35 1187.31 1560.69 L1187.31 1566.23 Q1184.16 1567.57 1180.85 1568.27 Q1177.54 1568.97 1174.14 1568.97 Q1165.61 1568.97 1160.61 1564 Q1155.64 1559.04 1155.64 1550.57 Q1155.64 1541.82 1160.36 1536.69 Q1165.1 1531.54 1173.12 1531.54 Q1180.31 1531.54 1184.48 1536.18 Q1188.68 1540.8 1188.68 1548.76 M1182.83 1547.04 Q1182.76 1542.23 1180.12 1539.37 Q1177.51 1536.5 1173.18 1536.5 Q1168.28 1536.5 1165.32 1539.27 Q1162.39 1542.04 1161.95 1547.07 L1182.83 1547.04 Z" fill="#000000" fill-rule="evenodd" fill-opacity="1" /><path clip-path="url(#clip910)" d="M1218.95 1537.87 Q1217.97 1537.3 1216.79 1537.04 Q1215.64 1536.76 1214.24 1536.76 Q1209.28 1536.76 1206.6 1540 Q1203.96 1543.22 1203.96 1549.27 L1203.96 1568.04 L1198.07 1568.04 L1198.07 1532.4 L1203.96 1532.4 L1203.96 1537.93 Q1205.81 1534.69 1208.77 1533.13 Q1211.73 1531.54 1215.96 1531.54 Q1216.56 1531.54 1217.3 1531.63 Q1218.03 1531.7 1218.92 1531.85 L1218.95 1537.87 Z" fill="#000000" fill-rule="evenodd" fill-opacity="1" /><path clip-path="url(#clip910)" d="M1241.3 1550.12 Q1234.2 1550.12 1231.46 1551.75 Q1228.72 1553.37 1228.72 1557.29 Q1228.72 1560.4 1230.76 1562.25 Q1232.83 1564.07 1236.36 1564.07 Q1241.23 1564.07 1244.16 1560.63 Q1247.12 1557.16 1247.12 1551.43 L1247.12 1550.12 L1241.3 1550.12 M1252.98 1547.71 L1252.98 1568.04 L1247.12 1568.04 L1247.12 1562.63 Q1245.11 1565.88 1242.12 1567.44 Q1239.13 1568.97 1234.8 1568.97 Q1229.33 1568.97 1226.08 1565.91 Q1222.87 1562.82 1222.87 1557.67 Q1222.87 1551.65 1226.88 1548.6 Q1230.92 1545.54 1238.91 1545.54 L1247.12 1545.54 L1247.12 1544.97 Q1247.12 1540.93 1244.45 1538.73 Q1241.8 1536.5 1237 1536.5 Q1233.94 1536.5 1231.05 1537.23 Q1228.15 1537.97 1225.48 1539.43 L1225.48 1534.02 Q1228.69 1532.78 1231.72 1532.17 Q1234.74 1531.54 1237.6 1531.54 Q1245.34 1531.54 1249.16 1535.55 Q1252.98 1539.56 1252.98 1547.71 Z" fill="#000000" fill-rule="evenodd" fill-opacity="1" /><path clip-path="url(#clip910)" d="M1270.83 1522.27 L1270.83 1532.4 L1282.9 1532.4 L1282.9 1536.95 L1270.83 1536.95 L1270.83 1556.3 Q1270.83 1560.66 1272.01 1561.9 Q1273.22 1563.14 1276.88 1563.14 L1282.9 1563.14 L1282.9 1568.04 L1276.88 1568.04 Q1270.1 1568.04 1267.52 1565.53 Q1264.94 1562.98 1264.94 1556.3 L1264.94 1536.95 L1260.65 1536.95 L1260.65 1532.4 L1264.94 1532.4 L1264.94 1522.27 L1270.83 1522.27 Z" fill="#000000" fill-rule="evenodd" fill-opacity="1" /><path clip-path="url(#clip910)" d="M1290.6 1532.4 L1296.45 1532.4 L1296.45 1568.04 L1290.6 1568.04 L1290.6 1532.4 M1290.6 1518.52 L1296.45 1518.52 L1296.45 1525.93 L1290.6 1525.93 L1290.6 1518.52 Z" fill="#000000" fill-rule="evenodd" fill-opacity="1" /><path clip-path="url(#clip910)" d="M1322.52 1536.5 Q1317.81 1536.5 1315.07 1540.19 Q1312.34 1543.85 1312.34 1550.25 Q1312.34 1556.65 1315.04 1560.34 Q1317.78 1564 1322.52 1564 Q1327.2 1564 1329.94 1560.31 Q1332.68 1556.62 1332.68 1550.25 Q1332.68 1543.92 1329.94 1540.23 Q1327.2 1536.5 1322.52 1536.5 M1322.52 1531.54 Q1330.16 1531.54 1334.52 1536.5 Q1338.88 1541.47 1338.88 1550.25 Q1338.88 1559 1334.52 1564 Q1330.16 1568.97 1322.52 1568.97 Q1314.85 1568.97 1310.49 1564 Q1306.16 1559 1306.16 1550.25 Q1306.16 1541.47 1310.49 1536.5 Q1314.85 1531.54 1322.52 1531.54 Z" fill="#000000" fill-rule="evenodd" fill-opacity="1" /><path clip-path="url(#clip910)" d="M1378.22 1546.53 L1378.22 1568.04 L1372.37 1568.04 L1372.37 1546.72 Q1372.37 1541.66 1370.39 1539.14 Q1368.42 1536.63 1364.47 1536.63 Q1359.73 1536.63 1356.99 1539.65 Q1354.25 1542.68 1354.25 1547.9 L1354.25 1568.04 L1348.37 1568.04 L1348.37 1532.4 L1354.25 1532.4 L1354.25 1537.93 Q1356.36 1534.72 1359.19 1533.13 Q1362.05 1531.54 1365.78 1531.54 Q1371.92 1531.54 1375.07 1535.36 Q1378.22 1539.14 1378.22 1546.53 Z" fill="#000000" fill-rule="evenodd" fill-opacity="1" /><path clip-path="url(#clip910)" d="M1412.63 1533.45 L1412.63 1538.98 Q1410.15 1537.71 1407.47 1537.07 Q1404.8 1536.44 1401.93 1536.44 Q1397.57 1536.44 1395.38 1537.77 Q1393.21 1539.11 1393.21 1541.79 Q1393.21 1543.82 1394.77 1545 Q1396.33 1546.15 1401.04 1547.2 L1403.05 1547.64 Q1409.29 1548.98 1411.9 1551.43 Q1414.54 1553.85 1414.54 1558.21 Q1414.54 1563.17 1410.59 1566.07 Q1406.68 1568.97 1399.8 1568.97 Q1396.94 1568.97 1393.82 1568.39 Q1390.73 1567.85 1387.29 1566.74 L1387.29 1560.69 Q1390.54 1562.38 1393.69 1563.24 Q1396.84 1564.07 1399.93 1564.07 Q1404.07 1564.07 1406.29 1562.66 Q1408.52 1561.23 1408.52 1558.65 Q1408.52 1556.27 1406.9 1554.99 Q1405.31 1553.72 1399.87 1552.54 L1397.83 1552.07 Q1392.39 1550.92 1389.97 1548.56 Q1387.55 1546.18 1387.55 1542.04 Q1387.55 1537.01 1391.11 1534.27 Q1394.68 1531.54 1401.23 1531.54 Q1404.48 1531.54 1407.34 1532.01 Q1410.21 1532.49 1412.63 1533.45 Z" fill="#000000" fill-rule="evenodd" fill-opacity="1" /><polyline clip-path="url(#clip912)" style="stroke:#000000; stroke-linecap:round; stroke-linejoin:round; stroke-width:2; stroke-opacity:0.1; fill:none" points="
  175.445,1347.39 2352.76,1347.39 
  "/>
<polyline clip-path="url(#clip912)" style="stroke:#000000; stroke-linecap:round; stroke-linejoin:round; stroke-width:2; stroke-opacity:0.1; fill:none" points="
  175.445,949.972 2352.76,949.972 
  "/>
<polyline clip-path="url(#clip912)" style="stroke:#000000; stroke-linecap:round; stroke-linejoin:round; stroke-width:2; stroke-opacity:0.1; fill:none" points="
  175.445,552.552 2352.76,552.552 
  "/>
<polyline clip-path="url(#clip912)" style="stroke:#000000; stroke-linecap:round; stroke-linejoin:round; stroke-width:2; stroke-opacity:0.1; fill:none" points="
  175.445,155.133 2352.76,155.133 
  "/>
<polyline clip-path="url(#clip910)" style="stroke:#000000; stroke-linecap:round; stroke-linejoin:round; stroke-width:4; stroke-opacity:1; fill:none" points="
  175.445,1423.18 175.445,47.2441 
  "/>
<polyline clip-path="url(#clip910)" style="stroke:#000000; stroke-linecap:round; stroke-linejoin:round; stroke-width:4; stroke-opacity:1; fill:none" points="
  175.445,1347.39 194.343,1347.39 
  "/>
<polyline clip-path="url(#clip910)" style="stroke:#000000; stroke-linecap:round; stroke-linejoin:round; stroke-width:4; stroke-opacity:1; fill:none" points="
  175.445,949.972 194.343,949.972 
  "/>
<polyline clip-path="url(#clip910)" style="stroke:#000000; stroke-linecap:round; stroke-linejoin:round; stroke-width:4; stroke-opacity:1; fill:none" points="
  175.445,552.552 194.343,552.552 
  "/>
<polyline clip-path="url(#clip910)" style="stroke:#000000; stroke-linecap:round; stroke-linejoin:round; stroke-width:4; stroke-opacity:1; fill:none" points="
  175.445,155.133 194.343,155.133 
  "/>
<path clip-path="url(#clip910)" d="M119.538 1360.74 L127.177 1360.74 L127.177 1334.37 L118.867 1336.04 L118.867 1331.78 L127.13 1330.11 L131.806 1330.11 L131.806 1360.74 L139.445 1360.74 L139.445 1364.67 L119.538 1364.67 L119.538 1360.74 Z" fill="#000000" fill-rule="evenodd" fill-opacity="1" /><path clip-path="url(#clip910)" d="M123.126 963.317 L139.445 963.317 L139.445 967.252 L117.501 967.252 L117.501 963.317 Q120.163 960.562 124.746 955.933 Q129.353 951.28 130.533 949.937 Q132.779 947.414 133.658 945.678 Q134.561 943.919 134.561 942.229 Q134.561 939.474 132.617 937.738 Q130.695 936.002 127.593 936.002 Q125.394 936.002 122.941 936.766 Q120.51 937.53 117.732 939.081 L117.732 934.359 Q120.556 933.225 123.01 932.646 Q125.464 932.067 127.501 932.067 Q132.871 932.067 136.066 934.752 Q139.26 937.437 139.26 941.928 Q139.26 944.058 138.45 945.979 Q137.663 947.877 135.556 950.47 Q134.978 951.141 131.876 954.359 Q128.774 957.553 123.126 963.317 Z" fill="#000000" fill-rule="evenodd" fill-opacity="1" /><path clip-path="url(#clip910)" d="M132.316 551.198 Q135.672 551.916 137.547 554.184 Q139.445 556.453 139.445 559.786 Q139.445 564.902 135.927 567.703 Q132.408 570.504 125.927 570.504 Q123.751 570.504 121.436 570.064 Q119.144 569.647 116.691 568.791 L116.691 564.277 Q118.635 565.411 120.95 565.99 Q123.265 566.569 125.788 566.569 Q130.186 566.569 132.478 564.832 Q134.792 563.096 134.792 559.786 Q134.792 556.731 132.64 555.018 Q130.51 553.282 126.691 553.282 L122.663 553.282 L122.663 549.439 L126.876 549.439 Q130.325 549.439 132.154 548.073 Q133.982 546.684 133.982 544.092 Q133.982 541.43 132.084 540.018 Q130.209 538.583 126.691 538.583 Q124.769 538.583 122.57 538.999 Q120.371 539.416 117.732 540.296 L117.732 536.129 Q120.394 535.388 122.709 535.018 Q125.047 534.647 127.107 534.647 Q132.431 534.647 135.533 537.078 Q138.635 539.485 138.635 543.606 Q138.635 546.476 136.992 548.467 Q135.348 550.434 132.316 551.198 Z" fill="#000000" fill-rule="evenodd" fill-opacity="1" /><path clip-path="url(#clip910)" d="M129.862 141.927 L118.056 160.376 L129.862 160.376 L129.862 141.927 M128.635 137.853 L134.515 137.853 L134.515 160.376 L139.445 160.376 L139.445 164.265 L134.515 164.265 L134.515 172.413 L129.862 172.413 L129.862 164.265 L114.26 164.265 L114.26 159.751 L128.635 137.853 Z" fill="#000000" fill-rule="evenodd" fill-opacity="1" /><path clip-path="url(#clip910)" d="M22.818 984.27 L46.4666 992.991 L46.4666 975.517 L22.818 984.27 M16.4842 987.899 L16.4842 980.61 L64.0042 962.5 L64.0042 969.184 L51.8138 973.512 L51.8138 994.933 L64.0042 999.261 L64.0042 1006.04 L16.4842 987.899 Z" fill="#000000" fill-rule="evenodd" fill-opacity="1" /><path clip-path="url(#clip910)" d="M28.3562 963.836 L28.3562 957.63 L58.275 946.49 L28.3562 935.35 L28.3562 929.143 L64.0042 942.511 L64.0042 950.468 L28.3562 963.836 Z" fill="#000000" fill-rule="evenodd" fill-opacity="1" /><path clip-path="url(#clip910)" d="M44.7161 890.567 L47.5806 890.567 L47.5806 917.494 Q53.6281 917.112 56.8109 913.866 Q59.9619 910.587 59.9619 904.763 Q59.9619 901.389 59.1344 898.238 Q58.3069 895.055 56.6518 891.936 L62.1899 891.936 Q63.5267 895.087 64.227 898.397 Q64.9272 901.707 64.9272 905.113 Q64.9272 913.643 59.9619 918.64 Q54.9967 923.605 46.5303 923.605 Q37.7774 923.605 32.6531 918.894 Q27.4968 914.152 27.4968 906.131 Q27.4968 898.938 32.1438 894.768 Q36.7589 890.567 44.7161 890.567 M42.9973 896.423 Q38.1912 896.487 35.3266 899.129 Q32.4621 901.739 32.4621 906.068 Q32.4621 910.969 35.2312 913.929 Q38.0002 916.857 43.0292 917.303 L42.9973 896.423 Z" fill="#000000" fill-rule="evenodd" fill-opacity="1" /><path clip-path="url(#clip910)" d="M33.8307 860.298 Q33.2578 861.285 33.0032 862.462 Q32.7167 863.608 32.7167 865.009 Q32.7167 869.974 35.9632 872.648 Q39.1779 875.289 45.2253 875.289 L64.0042 875.289 L64.0042 881.178 L28.3562 881.178 L28.3562 875.289 L33.8944 875.289 Q30.6479 873.443 29.0883 870.483 Q27.4968 867.523 27.4968 863.29 Q27.4968 862.685 27.5923 861.953 Q27.656 861.221 27.8151 860.33 L33.8307 860.298 Z" fill="#000000" fill-rule="evenodd" fill-opacity="1" /><path clip-path="url(#clip910)" d="M46.0847 837.954 Q46.0847 845.052 47.7079 847.789 Q49.3312 850.527 53.2461 850.527 Q56.3653 850.527 58.2114 848.49 Q60.0256 846.421 60.0256 842.888 Q60.0256 838.018 56.5881 835.09 Q53.1188 832.13 47.3897 832.13 L46.0847 832.13 L46.0847 837.954 M43.6657 826.273 L64.0042 826.273 L64.0042 832.13 L58.5933 832.13 Q61.8398 834.135 63.3994 837.127 Q64.9272 840.119 64.9272 844.447 Q64.9272 849.922 61.8716 853.169 Q58.7843 856.383 53.6281 856.383 Q47.6125 856.383 44.5569 852.373 Q41.5014 848.331 41.5014 840.342 L41.5014 832.13 L40.9285 832.13 Q36.8862 832.13 34.6901 834.803 Q32.4621 837.445 32.4621 842.251 Q32.4621 845.307 33.1941 848.203 Q33.9262 851.1 35.3903 853.773 L29.9795 853.773 Q28.7381 850.559 28.1334 847.535 Q27.4968 844.511 27.4968 841.647 Q27.4968 833.912 31.5072 830.093 Q35.5176 826.273 43.6657 826.273 Z" fill="#000000" fill-rule="evenodd" fill-opacity="1" /><path clip-path="url(#clip910)" d="M45.7664 790.753 Q39.4007 790.753 35.8996 793.395 Q32.3984 796.004 32.3984 800.747 Q32.3984 805.458 35.8996 808.099 Q39.4007 810.709 45.7664 810.709 Q52.1003 810.709 55.6014 808.099 Q59.1026 805.458 59.1026 800.747 Q59.1026 796.004 55.6014 793.395 Q52.1003 790.753 45.7664 790.753 M59.58 784.896 Q68.683 784.896 73.1071 788.939 Q77.5631 792.981 77.5631 801.32 Q77.5631 804.407 77.0857 807.144 Q76.6401 809.882 75.6852 812.46 L69.9879 812.46 Q71.3884 809.882 72.0568 807.367 Q72.7252 804.853 72.7252 802.243 Q72.7252 796.482 69.7015 793.617 Q66.7096 790.753 60.6303 790.753 L57.7339 790.753 Q60.885 792.567 62.4446 795.4 Q64.0042 798.232 64.0042 802.179 Q64.0042 808.736 59.0071 812.746 Q54.01 816.757 45.7664 816.757 Q37.491 816.757 32.4939 812.746 Q27.4968 808.736 27.4968 802.179 Q27.4968 798.232 29.0564 795.4 Q30.616 792.567 33.7671 790.753 L28.3562 790.753 L28.3562 784.896 L59.58 784.896 Z" fill="#000000" fill-rule="evenodd" fill-opacity="1" /><path clip-path="url(#clip910)" d="M44.7161 742.342 L47.5806 742.342 L47.5806 769.268 Q53.6281 768.887 56.8109 765.64 Q59.9619 762.362 59.9619 756.537 Q59.9619 753.163 59.1344 750.012 Q58.3069 746.829 56.6518 743.71 L62.1899 743.71 Q63.5267 746.861 64.227 750.171 Q64.9272 753.482 64.9272 756.887 Q64.9272 765.417 59.9619 770.414 Q54.9967 775.38 46.5303 775.38 Q37.7774 775.38 32.6531 770.669 Q27.4968 765.927 27.4968 757.906 Q27.4968 750.712 32.1438 746.543 Q36.7589 742.342 44.7161 742.342 M42.9973 748.198 Q38.1912 748.262 35.3266 750.903 Q32.4621 753.513 32.4621 757.842 Q32.4621 762.744 35.2312 765.704 Q38.0002 768.632 43.0292 769.078 L42.9973 748.198 Z" fill="#000000" fill-rule="evenodd" fill-opacity="1" /><path clip-path="url(#clip910)" d="M64.0042 699.5 L16.4842 717.643 L16.4842 710.927 L56.4926 695.872 L16.4842 680.785 L16.4842 674.101 L64.0042 692.212 L64.0042 699.5 Z" fill="#000000" fill-rule="evenodd" fill-opacity="1" /><path clip-path="url(#clip910)" d="M44.7161 641.986 L47.5806 641.986 L47.5806 668.913 Q53.6281 668.531 56.8109 665.285 Q59.9619 662.006 59.9619 656.182 Q59.9619 652.808 59.1344 649.657 Q58.3069 646.474 56.6518 643.355 L62.1899 643.355 Q63.5267 646.506 64.227 649.816 Q64.9272 653.126 64.9272 656.532 Q64.9272 665.062 59.9619 670.059 Q54.9967 675.024 46.5303 675.024 Q37.7774 675.024 32.6531 670.314 Q27.4968 665.571 27.4968 657.55 Q27.4968 650.357 32.1438 646.188 Q36.7589 641.986 44.7161 641.986 M42.9973 647.843 Q38.1912 647.906 35.3266 650.548 Q32.4621 653.158 32.4621 657.487 Q32.4621 662.388 35.2312 665.348 Q38.0002 668.277 43.0292 668.722 L42.9973 647.843 Z" fill="#000000" fill-rule="evenodd" fill-opacity="1" /><path clip-path="url(#clip910)" d="M14.479 632.374 L14.479 626.518 L64.0042 626.518 L64.0042 632.374 L14.479 632.374 Z" fill="#000000" fill-rule="evenodd" fill-opacity="1" /><path clip-path="url(#clip910)" d="M32.4621 600.45 Q32.4621 605.161 36.1542 607.898 Q39.8145 610.635 46.212 610.635 Q52.6095 610.635 56.3017 607.93 Q59.9619 605.192 59.9619 600.45 Q59.9619 595.771 56.2698 593.034 Q52.5777 590.297 46.212 590.297 Q39.8781 590.297 36.186 593.034 Q32.4621 595.771 32.4621 600.45 M27.4968 600.45 Q27.4968 592.811 32.4621 588.451 Q37.4273 584.09 46.212 584.09 Q54.9649 584.09 59.9619 588.451 Q64.9272 592.811 64.9272 600.45 Q64.9272 608.121 59.9619 612.481 Q54.9649 616.81 46.212 616.81 Q37.4273 616.81 32.4621 612.481 Q27.4968 608.121 27.4968 600.45 Z" fill="#000000" fill-rule="evenodd" fill-opacity="1" /><path clip-path="url(#clip910)" d="M29.7248 548.729 L35.1993 548.729 Q33.8307 551.211 33.1623 553.726 Q32.4621 556.208 32.4621 558.755 Q32.4621 564.452 36.0905 567.603 Q39.6872 570.754 46.212 570.754 Q52.7369 570.754 56.3653 567.603 Q59.9619 564.452 59.9619 558.755 Q59.9619 556.208 59.2935 553.726 Q58.5933 551.211 57.2247 548.729 L62.6355 548.729 Q63.7814 551.179 64.3543 553.821 Q64.9272 556.431 64.9272 559.391 Q64.9272 567.444 59.8664 572.186 Q54.8057 576.929 46.212 576.929 Q37.491 576.929 32.4939 572.154 Q27.4968 567.348 27.4968 559.009 Q27.4968 556.304 28.0697 553.726 Q28.6108 551.148 29.7248 548.729 Z" fill="#000000" fill-rule="evenodd" fill-opacity="1" /><path clip-path="url(#clip910)" d="M28.3562 538.543 L28.3562 532.687 L64.0042 532.687 L64.0042 538.543 L28.3562 538.543 M14.479 538.543 L14.479 532.687 L21.895 532.687 L21.895 538.543 L14.479 538.543 Z" fill="#000000" fill-rule="evenodd" fill-opacity="1" /><path clip-path="url(#clip910)" d="M18.2347 514.64 L28.3562 514.64 L28.3562 502.577 L32.9077 502.577 L32.9077 514.64 L52.2594 514.64 Q56.6199 514.64 57.8613 513.463 Q59.1026 512.253 59.1026 508.593 L59.1026 502.577 L64.0042 502.577 L64.0042 508.593 Q64.0042 515.372 61.4897 517.95 Q58.9434 520.529 52.2594 520.529 L32.9077 520.529 L32.9077 524.825 L28.3562 524.825 L28.3562 520.529 L18.2347 520.529 L18.2347 514.64 Z" fill="#000000" fill-rule="evenodd" fill-opacity="1" /><path clip-path="url(#clip910)" d="M67.3143 480.043 Q73.68 482.525 75.6216 484.881 Q77.5631 487.236 77.5631 491.183 L77.5631 495.861 L72.6615 495.861 L72.6615 492.424 Q72.6615 490.005 71.5157 488.668 Q70.3699 487.331 66.1048 485.708 L63.4312 484.658 L28.3562 499.076 L28.3562 492.87 L56.238 481.73 L28.3562 470.59 L28.3562 464.383 L67.3143 480.043 Z" fill="#000000" fill-rule="evenodd" fill-opacity="1" /><polyline clip-path="url(#clip912)" style="stroke:#009af9; stroke-linecap:round; stroke-linejoin:round; stroke-width:4; stroke-opacity:1; fill:none" points="
  777.611,829.394 782.759,1347.73 
  "/>
<polyline clip-path="url(#clip912)" style="stroke:#009af9; stroke-linecap:round; stroke-linejoin:round; stroke-width:4; stroke-opacity:1; fill:none" points="
  793.055,1283.31 798.203,1384.24 803.351,1121.68 808.499,1199.63 813.647,1050 818.795,1322.79 823.943,1157.12 829.091,1138.01 834.239,1022.24 839.388,1078.74 
  844.536,1114.65 849.684,1067.52 854.832,1031.65 859.98,985.127 865.128,1040.82 870.276,969.897 875.424,1008.65 880.572,953.347 885.72,975.741 890.868,967.545 
  896.016,946.485 901.164,926.432 906.312,905.894 911.46,910.778 916.608,875.514 921.756,881.487 926.904,886.115 932.052,844.542 937.2,823.463 942.348,833.383 
  947.496,799.695 952.644,825.145 957.792,823.511 962.94,809.063 968.088,820.774 973.236,778.142 978.385,788.628 983.533,774.545 988.681,750.529 993.829,749.216 
  998.977,771.902 1004.12,752.764 1009.27,732.799 1014.42,754.217 1019.57,739.83 1024.72,767.403 1029.86,700.634 1035.01,740.357 1040.16,746.673 1045.31,755.81 
  1050.46,753.78 1055.61,726.784 1060.75,757.545 1065.9,733.333 1071.05,721.245 1076.2,719.784 1081.35,718.877 1086.49,721.884 1091.64,747.548 1096.79,726.977 
  1101.94,705.306 1107.09,716.553 1112.23,735.504 1117.38,746.477 1122.53,733.994 1127.68,735.121 1132.83,728.149 1137.97,726.563 1143.12,714.502 1148.27,715.797 
  1153.42,709.791 1158.57,703.625 1163.71,707.478 1168.86,695.381 1174.01,689.144 1179.16,689.195 1184.31,682.858 1189.45,698.957 1194.6,708.556 1199.75,709.527 
  1204.9,706.994 1210.05,716.57 1215.19,732.66 1220.34,727.335 1225.49,719.171 1230.64,724.507 1235.79,710.585 1240.93,702.885 1246.08,694.509 1251.23,682.976 
  1256.38,684.978 1261.53,699.76 1266.67,703.181 1271.82,671.378 1276.97,713.559 1282.12,700.615 1287.27,703.477 1292.41,705.762 1297.56,703.18 1302.71,688.409 
  1307.86,705.651 1313.01,717.9 1318.15,704.635 1323.3,719.248 1328.45,741.087 1333.6,683.957 1338.75,689.837 1343.9,698.552 1349.04,671.494 1354.19,683.269 
  1359.34,672.283 1364.49,693.725 1369.64,695.317 1374.78,698.029 1379.93,690.36 1385.08,690.036 1390.23,695.396 1395.38,713.126 1400.52,706.556 1405.67,674.272 
  1410.82,714.879 1415.97,727.444 1421.12,704.767 1426.26,722.285 1431.41,692.561 1436.56,683.184 1441.71,714.231 1446.86,708.901 1452,705.795 1457.15,702.797 
  1462.3,722.128 1467.45,694.624 1472.6,697.716 1477.74,684.024 1482.89,684.618 1488.04,690.044 1493.19,690.626 1498.34,693.93 1503.48,657.94 1508.63,677.287 
  1513.78,676.542 1518.93,695.966 1524.08,696.715 1529.22,714.379 1534.37,686.433 1539.52,673.595 1544.67,656.169 1549.82,657.121 1554.96,655.907 1560.11,665.046 
  1565.26,683.539 1570.41,686.604 1575.56,698.081 1580.7,688.27 1585.85,663.152 1591,682.688 1596.15,669.491 1601.3,669.255 1606.45,694.706 1611.59,686.982 
  1616.74,667.232 1621.89,673.333 1627.04,680.212 1632.19,684.387 1637.33,709.2 1642.48,671.871 1647.63,675.801 1652.78,656.315 1657.93,653.273 1663.07,642.709 
  1668.22,670.448 1673.37,675.96 1678.52,676.004 1683.67,672.369 1688.81,676.172 1693.96,674.852 1699.11,683.493 1704.26,670.998 1709.41,695.212 1714.55,719.539 
  1719.7,697.908 1724.85,663.543 1730,657.352 1735.15,666.182 1740.29,681.013 1745.44,679.239 1750.59,670.271 1755.74,676.344 1760.89,664.77 1766.03,648.255 
  1771.18,677.053 1776.33,693.423 1781.48,694.371 1786.63,698.195 1791.77,698.747 1796.92,710.791 1802.07,705.207 1807.22,692.76 1812.37,701.698 1817.51,709.79 
  1822.66,685.314 1827.81,679.69 1832.96,718.771 1838.11,698.693 1843.25,686.131 1848.4,696.555 1853.55,709.562 1858.7,695.153 1863.85,697.793 1868.99,700.195 
  1874.14,704.427 1879.29,719.191 1884.44,716.271 1889.59,730.462 1894.74,723.622 1899.88,716.57 1905.03,681.547 1910.18,691.788 1915.33,684.227 1920.48,678.831 
  1925.62,679.746 1930.77,702.235 1935.92,677.495 1941.07,690.38 1946.22,680.758 1951.36,705.075 1956.51,658.29 1961.66,666.472 1966.81,680.54 1971.96,714.204 
  1977.1,705.764 1982.25,709.065 1987.4,702.697 1992.55,705.419 1997.7,713.845 2002.84,683.311 2007.99,692.249 2013.14,679.759 2018.29,698.015 2023.44,702.552 
  2028.58,680.467 2033.73,680.772 2038.88,686.878 2044.03,707.275 2049.18,689.615 2054.32,680.857 2059.47,701.894 2064.62,695.011 2069.77,708.873 2074.92,701.104 
  2080.06,697.903 2085.21,690.562 2090.36,685.706 2095.51,664.991 2100.66,663.481 2105.8,680.376 2110.95,695.155 2116.1,712.516 2121.25,689.477 2126.4,669.036 
  2131.54,685.466 2136.69,674.192 2141.84,690.627 2146.99,680.81 2152.14,687.441 2157.28,708.13 2162.43,691.323 2167.58,686.229 2172.73,697.646 2177.88,676.718 
  2183.03,675.148 2188.17,699.241 2193.32,700.763 2198.47,737.674 2203.62,729.342 2208.77,719.073 2213.91,700.025 2219.06,684.419 2224.21,718.189 2229.36,697.134 
  2234.51,730.497 2239.65,716.283 2244.8,700.519 2249.95,702.07 2255.1,715.783 2260.25,707.472 2265.39,705.381 2270.54,705.558 2275.69,731.178 2280.84,729.11 
  2285.99,719.846 2291.13,714.471 
  "/>
<polyline clip-path="url(#clip912)" style="stroke:#e26f46; stroke-linecap:round; stroke-linejoin:round; stroke-width:4; stroke-opacity:1; fill:none" points="
  237.067,631.162 242.215,603.596 247.363,559.958 252.511,537.648 257.659,522.45 262.807,508.307 267.955,503.78 273.103,472.141 278.252,479.505 283.4,478.938 
  288.548,477.692 293.696,457.161 298.844,449.618 303.992,443.919 309.14,426.522 314.288,412.756 319.436,416.847 324.584,415.399 329.732,406.128 334.88,396.254 
  340.028,406.722 345.176,395.036 350.324,410.396 355.472,383.971 360.62,385.427 365.768,386.749 370.916,381.545 376.064,410.048 381.212,381.421 386.36,369.987 
  391.508,393.857 396.656,373.672 401.804,367.838 406.952,378.477 412.1,411.502 417.248,361.703 422.397,383.547 427.545,339.881 432.693,382.109 437.841,404.199 
  442.989,385.605 448.137,406.409 453.285,425.024 458.433,348.109 463.581,347.913 468.729,400.393 473.877,319.227 479.025,339.613 484.173,320.269 489.321,312.155 
  494.469,308.287 499.617,295.588 504.765,325.067 509.913,346.503 515.061,342.652 520.209,388.003 525.357,298.908 530.505,279.335 535.653,286.913 540.801,309.381 
  545.949,367.37 551.097,278.188 556.245,284.739 561.394,297.058 566.542,316.218 571.69,315.79 576.838,317.68 581.986,292.831 587.134,341.509 592.282,259.331 
  597.43,282.819 602.578,315.742 607.726,269.122 612.874,281.7 618.022,348.57 623.17,284.204 628.318,253.607 633.466,268.042 638.614,215.709 643.762,244.786 
  648.91,206.834 654.058,249.24 659.206,201.751 664.354,259.251 669.502,244.607 674.65,261.486 679.798,288.209 684.946,263.96 690.094,293.137 695.242,273.746 
  700.391,310.449 705.539,221.553 710.687,300.904 715.835,275.526 720.983,275.356 726.131,325.668 731.279,246.462 736.427,288.748 741.575,292.855 746.723,263.205 
  751.871,222.526 757.019,226.041 762.167,226.963 767.315,169.041 772.463,209.877 777.611,216.108 782.759,265.198 787.907,215.469 793.055,197.893 798.203,285.983 
  803.351,223.184 808.499,162.483 813.647,225.132 818.795,230.799 823.943,259.167 829.091,152.762 834.239,200.015 839.388,223.804 844.536,209.272 849.684,175.696 
  854.832,194.529 859.98,161.844 865.128,205.6 870.276,197.705 875.424,235.234 880.572,231.187 885.72,204.803 890.868,206.995 896.016,218.474 901.164,250.551 
  906.312,228.615 911.46,224.068 916.608,212.316 921.756,197.071 926.904,210.877 932.052,209.688 937.2,254.326 942.348,222.423 947.496,240.963 952.644,293.577 
  957.792,222.816 962.94,221.784 968.088,216.668 973.236,221.317 978.385,253.872 983.533,218.452 988.681,192.623 993.829,255.297 998.977,193.561 1004.12,201.381 
  1009.27,175.396 1014.42,183.597 1019.57,229.145 1024.72,236.122 1029.86,207.988 1035.01,246.3 1040.16,208.771 1045.31,215.37 1050.46,194.945 1055.61,197.09 
  1060.75,249.676 1065.9,244.339 1071.05,208.125 1076.2,180.989 1081.35,155.238 1086.49,179.584 1091.64,165.62 1096.79,162.423 1101.94,204.25 1107.09,176.425 
  1112.23,203.264 1117.38,234.879 1122.53,203.621 1127.68,178.727 1132.83,203.663 1137.97,257.793 1143.12,228.544 1148.27,215.075 1153.42,235.209 1158.57,261.315 
  1163.71,187.708 1168.86,203.348 1174.01,196.544 1179.16,201.09 1184.31,208.563 1189.45,199.975 1194.6,204.276 1199.75,184.2 1204.9,185.327 1210.05,187.946 
  1215.19,192.519 1220.34,213.698 1225.49,233.585 1230.64,179.356 1235.79,229.659 1240.93,239.072 1246.08,264.528 1251.23,204.819 1256.38,228.922 1261.53,235.372 
  1266.67,258.183 1271.82,195.375 1276.97,212.428 1282.12,154.023 1287.27,170.144 1292.41,182.715 1297.56,215.423 1302.71,161.467 1307.86,265.927 1313.01,243.584 
  1318.15,191.673 1323.3,215.451 1328.45,208.947 1333.6,225.58 1338.75,252.915 1343.9,268.888 1349.04,264.86 1354.19,237.943 1359.34,214.405 1364.49,212.263 
  1369.64,162.478 1374.78,124.6 1379.93,193.997 1385.08,244.147 1390.23,216.705 1395.38,219.876 1400.52,243.375 1405.67,229.549 1410.82,202.845 1415.97,215.841 
  1421.12,205.649 1426.26,190.213 1431.41,240.371 1436.56,289.573 1441.71,282.756 1446.86,206.965 1452,151.393 1457.15,208.187 1462.3,275.539 1467.45,197.554 
  1472.6,214.254 1477.74,195.356 1482.89,228.852 1488.04,191.764 1493.19,177.388 1498.34,160.412 1503.48,167.636 1508.63,190.234 1513.78,156.247 1518.93,209.869 
  1524.08,227.854 1529.22,213.306 1534.37,162.152 1539.52,205.712 1544.67,240.677 1549.82,179.699 1554.96,198.113 1560.11,160.409 1565.26,195.719 1570.41,124.778 
  1575.56,219.585 1580.7,186.828 1585.85,212.417 1591,162.232 1596.15,195.848 1601.3,231.146 1606.45,174.481 1611.59,146.752 1616.74,180.263 1621.89,200.698 
  1627.04,213.18 1632.19,222.194 1637.33,204.496 1642.48,209.484 1647.63,179.535 1652.78,231.253 1657.93,187.516 1663.07,177.721 1668.22,140.784 1673.37,197.396 
  1678.52,213.81 1683.67,242.591 1688.81,205.413 1693.96,208.958 1699.11,193.231 1704.26,178.389 1709.41,184.654 1714.55,180.753 1719.7,243.319 1724.85,168.673 
  1730,194.722 1735.15,120.67 1740.29,190.839 1745.44,156.692 1750.59,143.024 1755.74,245.315 1760.89,199.646 1766.03,151.369 1771.18,224.737 1776.33,172.936 
  1781.48,159.04 1786.63,174.739 1791.77,224.409 1796.92,178.106 1802.07,163.825 1807.22,177.581 1812.37,86.1857 1817.51,207.569 1822.66,190.992 1827.81,181.69 
  1832.96,184.056 1838.11,177.445 1843.25,159.316 1848.4,234.011 1853.55,197.017 1858.7,192.602 1863.85,176.048 1868.99,201.623 1874.14,187.349 1879.29,213.877 
  1884.44,147.91 1889.59,157.99 1894.74,166.274 1899.88,148.299 1905.03,193.941 1910.18,204.972 1915.33,199.401 1920.48,224.499 1925.62,203.68 1930.77,203.774 
  1935.92,255.953 1941.07,184.968 1946.22,193.671 1951.36,192.771 1956.51,184.502 1961.66,159.817 1966.81,176.133 1971.96,178.556 1977.1,174.274 1982.25,279.806 
  1987.4,153.574 1992.55,248.147 1997.7,216.381 2002.84,259.274 2007.99,173.769 2013.14,206.396 2018.29,275.001 2023.44,188.599 2028.58,192.259 2033.73,145.172 
  2038.88,195.668 2044.03,167.981 2049.18,236.252 2054.32,278.898 2059.47,211.356 2064.62,213.939 2069.77,233.127 2074.92,150.729 2080.06,219.056 2085.21,236.216 
  2090.36,304.976 2095.51,235.863 2100.66,228.608 2105.8,234.154 2110.95,215.212 2116.1,230.369 2121.25,292.35 2126.4,288.083 2131.54,160.068 2136.69,214.058 
  2141.84,183.997 2146.99,86.4841 2152.14,163.057 2157.28,181.161 2162.43,156.69 2167.58,230.213 2172.73,221.213 2177.88,300.631 2183.03,265.832 2188.17,299.5 
  2193.32,328.137 2198.47,230.095 2203.62,233.75 2208.77,330.66 2213.91,291.25 2219.06,260.488 2224.21,283.437 2229.36,262.508 2234.51,144.387 2239.65,248.856 
  2244.8,189.601 2249.95,203.451 2255.1,173.454 2260.25,189.976 2265.39,208.822 2270.54,204.129 2275.69,151.123 2280.84,137.856 2285.99,205.402 2291.13,123.009 
  
  "/>
<path clip-path="url(#clip910)" d="
M1812.38 1377.32 L2280.18 1377.32 L2280.18 1221.8 L1812.38 1221.8  Z
  " fill="#ffffff" fill-rule="evenodd" fill-opacity="1"/>
<polyline clip-path="url(#clip910)" style="stroke:#000000; stroke-linecap:round; stroke-linejoin:round; stroke-width:4; stroke-opacity:1; fill:none" points="
  1812.38,1377.32 2280.18,1377.32 2280.18,1221.8 1812.38,1221.8 1812.38,1377.32 
  "/>
<polyline clip-path="url(#clip910)" style="stroke:#009af9; stroke-linecap:round; stroke-linejoin:round; stroke-width:4; stroke-opacity:1; fill:none" points="
  1836.57,1273.64 1981.73,1273.64 
  "/>
<path clip-path="url(#clip910)" d="M2024.34 1265.75 L2024.34 1269.78 Q2022.54 1268.86 2020.59 1268.39 Q2018.65 1267.93 2016.57 1267.93 Q2013.4 1267.93 2011.8 1268.9 Q2010.22 1269.87 2010.22 1271.82 Q2010.22 1273.3 2011.36 1274.16 Q2012.49 1274.99 2015.92 1275.75 L2017.38 1276.08 Q2021.91 1277.05 2023.81 1278.83 Q2025.73 1280.59 2025.73 1283.76 Q2025.73 1287.37 2022.86 1289.48 Q2020.02 1291.59 2015.02 1291.59 Q2012.93 1291.59 2010.66 1291.17 Q2008.42 1290.78 2005.92 1289.97 L2005.92 1285.57 Q2008.28 1286.79 2010.57 1287.42 Q2012.86 1288.02 2015.11 1288.02 Q2018.12 1288.02 2019.74 1287 Q2021.36 1285.96 2021.36 1284.09 Q2021.36 1282.35 2020.18 1281.42 Q2019.02 1280.5 2015.06 1279.64 L2013.58 1279.3 Q2009.62 1278.46 2007.86 1276.75 Q2006.1 1275.01 2006.1 1272 Q2006.1 1268.35 2008.7 1266.36 Q2011.29 1264.36 2016.06 1264.36 Q2018.42 1264.36 2020.5 1264.71 Q2022.59 1265.06 2024.34 1265.75 Z" fill="#000000" fill-rule="evenodd" fill-opacity="1" /><path clip-path="url(#clip910)" d="M2032.52 1254.9 L2036.77 1254.9 L2036.77 1290.92 L2032.52 1290.92 L2032.52 1254.9 Z" fill="#000000" fill-rule="evenodd" fill-opacity="1" /><path clip-path="url(#clip910)" d="M2055.73 1267.98 Q2052.31 1267.98 2050.32 1270.66 Q2048.33 1273.32 2048.33 1277.98 Q2048.33 1282.63 2050.29 1285.31 Q2052.28 1287.98 2055.73 1287.98 Q2059.14 1287.98 2061.13 1285.29 Q2063.12 1282.61 2063.12 1277.98 Q2063.12 1273.37 2061.13 1270.68 Q2059.14 1267.98 2055.73 1267.98 M2055.73 1264.36 Q2061.29 1264.36 2064.46 1267.98 Q2067.63 1271.59 2067.63 1277.98 Q2067.63 1284.34 2064.46 1287.98 Q2061.29 1291.59 2055.73 1291.59 Q2050.15 1291.59 2046.98 1287.98 Q2043.83 1284.34 2043.83 1277.98 Q2043.83 1271.59 2046.98 1267.98 Q2050.15 1264.36 2055.73 1264.36 Z" fill="#000000" fill-rule="evenodd" fill-opacity="1" /><path clip-path="url(#clip910)" d="M2072.21 1264.99 L2076.47 1264.99 L2081.8 1285.22 L2087.1 1264.99 L2092.12 1264.99 L2097.45 1285.22 L2102.75 1264.99 L2107.01 1264.99 L2100.22 1290.92 L2095.2 1290.92 L2089.62 1269.67 L2084.02 1290.92 L2079 1290.92 L2072.21 1264.99 Z" fill="#000000" fill-rule="evenodd" fill-opacity="1" /><path clip-path="url(#clip910)" d="M2148.72 1269.97 Q2150.32 1267.1 2152.54 1265.73 Q2154.76 1264.36 2157.77 1264.36 Q2161.82 1264.36 2164.02 1267.21 Q2166.22 1270.04 2166.22 1275.27 L2166.22 1290.92 L2161.94 1290.92 L2161.94 1275.41 Q2161.94 1271.68 2160.62 1269.87 Q2159.3 1268.07 2156.59 1268.07 Q2153.28 1268.07 2151.36 1270.27 Q2149.44 1272.47 2149.44 1276.26 L2149.44 1290.92 L2145.15 1290.92 L2145.15 1275.41 Q2145.15 1271.66 2143.83 1269.87 Q2142.51 1268.07 2139.76 1268.07 Q2136.5 1268.07 2134.58 1270.29 Q2132.65 1272.49 2132.65 1276.26 L2132.65 1290.92 L2128.37 1290.92 L2128.37 1264.99 L2132.65 1264.99 L2132.65 1269.02 Q2134.11 1266.63 2136.15 1265.5 Q2138.19 1264.36 2140.99 1264.36 Q2143.81 1264.36 2145.78 1265.8 Q2147.77 1267.23 2148.72 1269.97 Z" fill="#000000" fill-rule="evenodd" fill-opacity="1" /><path clip-path="url(#clip910)" d="M2184.76 1267.98 Q2181.33 1267.98 2179.34 1270.66 Q2177.35 1273.32 2177.35 1277.98 Q2177.35 1282.63 2179.32 1285.31 Q2181.31 1287.98 2184.76 1287.98 Q2188.16 1287.98 2190.15 1285.29 Q2192.14 1282.61 2192.14 1277.98 Q2192.14 1273.37 2190.15 1270.68 Q2188.16 1267.98 2184.76 1267.98 M2184.76 1264.36 Q2190.32 1264.36 2193.49 1267.98 Q2196.66 1271.59 2196.66 1277.98 Q2196.66 1284.34 2193.49 1287.98 Q2190.32 1291.59 2184.76 1291.59 Q2179.18 1291.59 2176.01 1287.98 Q2172.86 1284.34 2172.86 1277.98 Q2172.86 1271.59 2176.01 1267.98 Q2179.18 1264.36 2184.76 1264.36 Z" fill="#000000" fill-rule="evenodd" fill-opacity="1" /><path clip-path="url(#clip910)" d="M2220.78 1268.92 L2220.78 1254.9 L2225.04 1254.9 L2225.04 1290.92 L2220.78 1290.92 L2220.78 1287.03 Q2219.44 1289.34 2217.38 1290.48 Q2215.34 1291.59 2212.47 1291.59 Q2207.77 1291.59 2204.81 1287.84 Q2201.87 1284.09 2201.87 1277.98 Q2201.87 1271.86 2204.81 1268.11 Q2207.77 1264.36 2212.47 1264.36 Q2215.34 1264.36 2217.38 1265.5 Q2219.44 1266.61 2220.78 1268.92 M2206.26 1277.98 Q2206.26 1282.67 2208.19 1285.36 Q2210.13 1288.02 2213.51 1288.02 Q2216.89 1288.02 2218.83 1285.36 Q2220.78 1282.67 2220.78 1277.98 Q2220.78 1273.28 2218.83 1270.61 Q2216.89 1267.93 2213.51 1267.93 Q2210.13 1267.93 2208.19 1270.61 Q2206.26 1273.28 2206.26 1277.98 Z" fill="#000000" fill-rule="evenodd" fill-opacity="1" /><path clip-path="url(#clip910)" d="M2255.99 1276.89 L2255.99 1278.97 L2236.4 1278.97 Q2236.68 1283.37 2239.04 1285.68 Q2241.43 1287.98 2245.66 1287.98 Q2248.12 1287.98 2250.41 1287.37 Q2252.72 1286.77 2254.99 1285.57 L2254.99 1289.6 Q2252.7 1290.57 2250.29 1291.08 Q2247.88 1291.59 2245.41 1291.59 Q2239.2 1291.59 2235.57 1287.98 Q2231.96 1284.36 2231.96 1278.21 Q2231.96 1271.84 2235.38 1268.11 Q2238.83 1264.36 2244.67 1264.36 Q2249.9 1264.36 2252.93 1267.74 Q2255.99 1271.1 2255.99 1276.89 M2251.73 1275.64 Q2251.68 1272.14 2249.76 1270.06 Q2247.86 1267.98 2244.71 1267.98 Q2241.15 1267.98 2239 1269.99 Q2236.87 1272 2236.54 1275.66 L2251.73 1275.64 Z" fill="#000000" fill-rule="evenodd" fill-opacity="1" /><polyline clip-path="url(#clip910)" style="stroke:#e26f46; stroke-linecap:round; stroke-linejoin:round; stroke-width:4; stroke-opacity:1; fill:none" points="
  1836.57,1325.48 1981.73,1325.48 
  "/>
<path clip-path="url(#clip910)" d="M2022.42 1306.74 L2022.42 1310.28 L2018.35 1310.28 Q2016.06 1310.28 2015.15 1311.2 Q2014.27 1312.13 2014.27 1314.54 L2014.27 1316.83 L2021.29 1316.83 L2021.29 1320.14 L2014.27 1320.14 L2014.27 1342.76 L2009.99 1342.76 L2009.99 1320.14 L2005.92 1320.14 L2005.92 1316.83 L2009.99 1316.83 L2009.99 1315.02 Q2009.99 1310.7 2012.01 1308.73 Q2014.02 1306.74 2018.4 1306.74 L2022.42 1306.74 Z" fill="#000000" fill-rule="evenodd" fill-opacity="1" /><path clip-path="url(#clip910)" d="M2037.77 1329.72 Q2032.61 1329.72 2030.62 1330.9 Q2028.63 1332.08 2028.63 1334.93 Q2028.63 1337.2 2030.11 1338.54 Q2031.61 1339.86 2034.18 1339.86 Q2037.72 1339.86 2039.85 1337.36 Q2042.01 1334.84 2042.01 1330.67 L2042.01 1329.72 L2037.77 1329.72 M2046.27 1327.96 L2046.27 1342.76 L2042.01 1342.76 L2042.01 1338.82 Q2040.55 1341.18 2038.37 1342.32 Q2036.2 1343.43 2033.05 1343.43 Q2029.07 1343.43 2026.71 1341.2 Q2024.37 1338.96 2024.37 1335.21 Q2024.37 1330.83 2027.28 1328.61 Q2030.22 1326.39 2036.03 1326.39 L2042.01 1326.39 L2042.01 1325.97 Q2042.01 1323.03 2040.06 1321.44 Q2038.14 1319.82 2034.65 1319.82 Q2032.42 1319.82 2030.32 1320.35 Q2028.21 1320.88 2026.27 1321.95 L2026.27 1318.01 Q2028.6 1317.11 2030.8 1316.67 Q2033 1316.2 2035.08 1316.2 Q2040.71 1316.2 2043.49 1319.12 Q2046.27 1322.04 2046.27 1327.96 Z" fill="#000000" fill-rule="evenodd" fill-opacity="1" /><path clip-path="url(#clip910)" d="M2071.57 1317.59 L2071.57 1321.62 Q2069.76 1320.7 2067.82 1320.23 Q2065.87 1319.77 2063.79 1319.77 Q2060.62 1319.77 2059.02 1320.74 Q2057.45 1321.71 2057.45 1323.66 Q2057.45 1325.14 2058.58 1326 Q2059.71 1326.83 2063.14 1327.59 L2064.6 1327.92 Q2069.14 1328.89 2071.03 1330.67 Q2072.96 1332.43 2072.96 1335.6 Q2072.96 1339.21 2070.08 1341.32 Q2067.24 1343.43 2062.24 1343.43 Q2060.15 1343.43 2057.89 1343.01 Q2055.64 1342.62 2053.14 1341.81 L2053.14 1337.41 Q2055.5 1338.63 2057.79 1339.26 Q2060.08 1339.86 2062.33 1339.86 Q2065.34 1339.86 2066.96 1338.84 Q2068.58 1337.8 2068.58 1335.93 Q2068.58 1334.19 2067.4 1333.26 Q2066.24 1332.34 2062.28 1331.48 L2060.8 1331.14 Q2056.84 1330.3 2055.08 1328.59 Q2053.33 1326.85 2053.33 1323.84 Q2053.33 1320.19 2055.92 1318.2 Q2058.51 1316.2 2063.28 1316.2 Q2065.64 1316.2 2067.72 1316.55 Q2069.81 1316.9 2071.57 1317.59 Z" fill="#000000" fill-rule="evenodd" fill-opacity="1" /><path clip-path="url(#clip910)" d="M2083.95 1309.47 L2083.95 1316.83 L2092.72 1316.83 L2092.72 1320.14 L2083.95 1320.14 L2083.95 1334.21 Q2083.95 1337.38 2084.81 1338.29 Q2085.69 1339.19 2088.35 1339.19 L2092.72 1339.19 L2092.72 1342.76 L2088.35 1342.76 Q2083.42 1342.76 2081.54 1340.93 Q2079.67 1339.07 2079.67 1334.21 L2079.67 1320.14 L2076.54 1320.14 L2076.54 1316.83 L2079.67 1316.83 L2079.67 1309.47 L2083.95 1309.47 Z" fill="#000000" fill-rule="evenodd" fill-opacity="1" /><path clip-path="url(#clip910)" d="M2133.58 1321.81 Q2135.18 1318.94 2137.4 1317.57 Q2139.62 1316.2 2142.63 1316.2 Q2146.68 1316.2 2148.88 1319.05 Q2151.08 1321.88 2151.08 1327.11 L2151.08 1342.76 L2146.8 1342.76 L2146.8 1327.25 Q2146.8 1323.52 2145.48 1321.71 Q2144.16 1319.91 2141.45 1319.91 Q2138.14 1319.91 2136.22 1322.11 Q2134.3 1324.31 2134.3 1328.1 L2134.3 1342.76 L2130.01 1342.76 L2130.01 1327.25 Q2130.01 1323.5 2128.7 1321.71 Q2127.38 1319.91 2124.62 1319.91 Q2121.36 1319.91 2119.44 1322.13 Q2117.52 1324.33 2117.52 1328.1 L2117.52 1342.76 L2113.23 1342.76 L2113.23 1316.83 L2117.52 1316.83 L2117.52 1320.86 Q2118.97 1318.47 2121.01 1317.34 Q2123.05 1316.2 2125.85 1316.2 Q2128.67 1316.2 2130.64 1317.64 Q2132.63 1319.07 2133.58 1321.81 Z" fill="#000000" fill-rule="evenodd" fill-opacity="1" /><path clip-path="url(#clip910)" d="M2169.62 1319.82 Q2166.2 1319.82 2164.2 1322.5 Q2162.21 1325.16 2162.21 1329.82 Q2162.21 1334.47 2164.18 1337.15 Q2166.17 1339.82 2169.62 1339.82 Q2173.02 1339.82 2175.01 1337.13 Q2177.01 1334.45 2177.01 1329.82 Q2177.01 1325.21 2175.01 1322.52 Q2173.02 1319.82 2169.62 1319.82 M2169.62 1316.2 Q2175.18 1316.2 2178.35 1319.82 Q2181.52 1323.43 2181.52 1329.82 Q2181.52 1336.18 2178.35 1339.82 Q2175.18 1343.43 2169.62 1343.43 Q2164.04 1343.43 2160.87 1339.82 Q2157.72 1336.18 2157.72 1329.82 Q2157.72 1323.43 2160.87 1319.82 Q2164.04 1316.2 2169.62 1316.2 Z" fill="#000000" fill-rule="evenodd" fill-opacity="1" /><path clip-path="url(#clip910)" d="M2205.64 1320.76 L2205.64 1306.74 L2209.9 1306.74 L2209.9 1342.76 L2205.64 1342.76 L2205.64 1338.87 Q2204.3 1341.18 2202.24 1342.32 Q2200.2 1343.43 2197.33 1343.43 Q2192.63 1343.43 2189.67 1339.68 Q2186.73 1335.93 2186.73 1329.82 Q2186.73 1323.7 2189.67 1319.95 Q2192.63 1316.2 2197.33 1316.2 Q2200.2 1316.2 2202.24 1317.34 Q2204.3 1318.45 2205.64 1320.76 M2191.13 1329.82 Q2191.13 1334.51 2193.05 1337.2 Q2194.99 1339.86 2198.37 1339.86 Q2201.75 1339.86 2203.7 1337.2 Q2205.64 1334.51 2205.64 1329.82 Q2205.64 1325.12 2203.7 1322.45 Q2201.75 1319.77 2198.37 1319.77 Q2194.99 1319.77 2193.05 1322.45 Q2191.13 1325.12 2191.13 1329.82 Z" fill="#000000" fill-rule="evenodd" fill-opacity="1" /><path clip-path="url(#clip910)" d="M2240.85 1328.73 L2240.85 1330.81 L2221.26 1330.81 Q2221.54 1335.21 2223.9 1337.52 Q2226.29 1339.82 2230.52 1339.82 Q2232.98 1339.82 2235.27 1339.21 Q2237.58 1338.61 2239.85 1337.41 L2239.85 1341.44 Q2237.56 1342.41 2235.15 1342.92 Q2232.75 1343.43 2230.27 1343.43 Q2224.07 1343.43 2220.43 1339.82 Q2216.82 1336.2 2216.82 1330.05 Q2216.82 1323.68 2220.25 1319.95 Q2223.7 1316.2 2229.53 1316.2 Q2234.76 1316.2 2237.79 1319.58 Q2240.85 1322.94 2240.85 1328.73 M2236.59 1327.48 Q2236.54 1323.98 2234.62 1321.9 Q2232.72 1319.82 2229.57 1319.82 Q2226.01 1319.82 2223.86 1321.83 Q2221.73 1323.84 2221.4 1327.5 L2236.59 1327.48 Z" fill="#000000" fill-rule="evenodd" fill-opacity="1" /></svg>
