<?xml version="1.0" encoding="utf-8"?>
<svg xmlns="http://www.w3.org/2000/svg" xmlns:xlink="http://www.w3.org/1999/xlink" width="600" height="400" viewBox="0 0 2400 1600">
<defs>
  <clipPath id="clip990">
    <rect x="0" y="0" width="2400" height="1600"/>
  </clipPath>
</defs>
<path clip-path="url(#clip990)" d="
M0 1600 L2400 1600 L2400 0 L0 0  Z
  " fill="#ffffff" fill-rule="evenodd" fill-opacity="1"/>
<defs>
  <clipPath id="clip991">
    <rect x="480" y="0" width="1681" height="1600"/>
  </clipPath>
</defs>
<path clip-path="url(#clip990)" d="
M202.227 1423.18 L2352.76 1423.18 L2352.76 47.2441 L202.227 47.2441  Z
  " fill="#ffffff" fill-rule="evenodd" fill-opacity="1"/>
<defs>
  <clipPath id="clip992">
    <rect x="202" y="47" width="2152" height="1377"/>
  </clipPath>
</defs>
<polyline clip-path="url(#clip992)" style="stroke:#000000; stroke-linecap:round; stroke-linejoin:round; stroke-width:2; stroke-opacity:0.1; fill:none" points="
  258.007,1423.18 258.007,47.2441 
  "/>
<polyline clip-path="url(#clip992)" style="stroke:#000000; stroke-linecap:round; stroke-linejoin:round; stroke-width:2; stroke-opacity:0.1; fill:none" points="
  766.478,1423.18 766.478,47.2441 
  "/>
<polyline clip-path="url(#clip992)" style="stroke:#000000; stroke-linecap:round; stroke-linejoin:round; stroke-width:2; stroke-opacity:0.1; fill:none" points="
  1274.95,1423.18 1274.95,47.2441 
  "/>
<polyline clip-path="url(#clip992)" style="stroke:#000000; stroke-linecap:round; stroke-linejoin:round; stroke-width:2; stroke-opacity:0.1; fill:none" points="
  1783.42,1423.18 1783.42,47.2441 
  "/>
<polyline clip-path="url(#clip992)" style="stroke:#000000; stroke-linecap:round; stroke-linejoin:round; stroke-width:2; stroke-opacity:0.1; fill:none" points="
  2291.89,1423.18 2291.89,47.2441 
  "/>
<polyline clip-path="url(#clip990)" style="stroke:#000000; stroke-linecap:round; stroke-linejoin:round; stroke-width:4; stroke-opacity:1; fill:none" points="
  202.227,1423.18 2352.76,1423.18 
  "/>
<polyline clip-path="url(#clip990)" style="stroke:#000000; stroke-linecap:round; stroke-linejoin:round; stroke-width:4; stroke-opacity:1; fill:none" points="
  258.007,1423.18 258.007,1404.28 
  "/>
<polyline clip-path="url(#clip990)" style="stroke:#000000; stroke-linecap:round; stroke-linejoin:round; stroke-width:4; stroke-opacity:1; fill:none" points="
  766.478,1423.18 766.478,1404.28 
  "/>
<polyline clip-path="url(#clip990)" style="stroke:#000000; stroke-linecap:round; stroke-linejoin:round; stroke-width:4; stroke-opacity:1; fill:none" points="
  1274.95,1423.18 1274.95,1404.28 
  "/>
<polyline clip-path="url(#clip990)" style="stroke:#000000; stroke-linecap:round; stroke-linejoin:round; stroke-width:4; stroke-opacity:1; fill:none" points="
  1783.42,1423.18 1783.42,1404.28 
  "/>
<polyline clip-path="url(#clip990)" style="stroke:#000000; stroke-linecap:round; stroke-linejoin:round; stroke-width:4; stroke-opacity:1; fill:none" points="
  2291.89,1423.18 2291.89,1404.28 
  "/>
<path clip-path="url(#clip990)" d="M165.808 1454.1 Q162.197 1454.1 160.368 1457.66 Q158.563 1461.2 158.563 1468.33 Q158.563 1475.44 160.368 1479.01 Q162.197 1482.55 165.808 1482.55 Q169.442 1482.55 171.248 1479.01 Q173.077 1475.44 173.077 1468.33 Q173.077 1461.2 171.248 1457.66 Q169.442 1454.1 165.808 1454.1 M165.808 1450.39 Q171.618 1450.39 174.674 1455 Q177.753 1459.58 177.753 1468.33 Q177.753 1477.06 174.674 1481.67 Q171.618 1486.25 165.808 1486.25 Q159.998 1486.25 156.919 1481.67 Q153.864 1477.06 153.864 1468.33 Q153.864 1459.58 156.919 1455 Q159.998 1450.39 165.808 1450.39 Z" fill="#000000" fill-rule="evenodd" fill-opacity="1" /><path clip-path="url(#clip990)" d="M185.97 1479.7 L190.854 1479.7 L190.854 1485.58 L185.97 1485.58 L185.97 1479.7 Z" fill="#000000" fill-rule="evenodd" fill-opacity="1" /><path clip-path="url(#clip990)" d="M211.039 1454.1 Q207.428 1454.1 205.6 1457.66 Q203.794 1461.2 203.794 1468.33 Q203.794 1475.44 205.6 1479.01 Q207.428 1482.55 211.039 1482.55 Q214.674 1482.55 216.479 1479.01 Q218.308 1475.44 218.308 1468.33 Q218.308 1461.2 216.479 1457.66 Q214.674 1454.1 211.039 1454.1 M211.039 1450.39 Q216.85 1450.39 219.905 1455 Q222.984 1459.58 222.984 1468.33 Q222.984 1477.06 219.905 1481.67 Q216.85 1486.25 211.039 1486.25 Q205.229 1486.25 202.151 1481.67 Q199.095 1477.06 199.095 1468.33 Q199.095 1459.58 202.151 1455 Q205.229 1450.39 211.039 1450.39 Z" fill="#000000" fill-rule="evenodd" fill-opacity="1" /><path clip-path="url(#clip990)" d="M241.201 1454.1 Q237.59 1454.1 235.762 1457.66 Q233.956 1461.2 233.956 1468.33 Q233.956 1475.44 235.762 1479.01 Q237.59 1482.55 241.201 1482.55 Q244.836 1482.55 246.641 1479.01 Q248.47 1475.44 248.47 1468.33 Q248.47 1461.2 246.641 1457.66 Q244.836 1454.1 241.201 1454.1 M241.201 1450.39 Q247.011 1450.39 250.067 1455 Q253.146 1459.58 253.146 1468.33 Q253.146 1477.06 250.067 1481.67 Q247.011 1486.25 241.201 1486.25 Q235.391 1486.25 232.312 1481.67 Q229.257 1477.06 229.257 1468.33 Q229.257 1459.58 232.312 1455 Q235.391 1450.39 241.201 1450.39 Z" fill="#000000" fill-rule="evenodd" fill-opacity="1" /><path clip-path="url(#clip990)" d="M282.312 1459.65 L272.937 1472.27 L282.798 1485.58 L277.775 1485.58 L270.229 1475.39 L262.683 1485.58 L257.66 1485.58 L267.729 1472.02 L258.516 1459.65 L263.539 1459.65 L270.414 1468.89 L277.289 1459.65 L282.312 1459.65 Z" fill="#000000" fill-rule="evenodd" fill-opacity="1" /><path clip-path="url(#clip990)" d="M290.229 1481.64 L297.868 1481.64 L297.868 1455.28 L289.558 1456.95 L289.558 1452.69 L297.821 1451.02 L302.497 1451.02 L302.497 1481.64 L310.136 1481.64 L310.136 1485.58 L290.229 1485.58 L290.229 1481.64 Z" fill="#000000" fill-rule="evenodd" fill-opacity="1" /><path clip-path="url(#clip990)" d="M329.58 1454.1 Q325.969 1454.1 324.141 1457.66 Q322.335 1461.2 322.335 1468.33 Q322.335 1475.44 324.141 1479.01 Q325.969 1482.55 329.58 1482.55 Q333.215 1482.55 335.02 1479.01 Q336.849 1475.44 336.849 1468.33 Q336.849 1461.2 335.02 1457.66 Q333.215 1454.1 329.58 1454.1 M329.58 1450.39 Q335.391 1450.39 338.446 1455 Q341.525 1459.58 341.525 1468.33 Q341.525 1477.06 338.446 1481.67 Q335.391 1486.25 329.58 1486.25 Q323.77 1486.25 320.692 1481.67 Q317.636 1477.06 317.636 1468.33 Q317.636 1459.58 320.692 1455 Q323.77 1450.39 329.58 1450.39 Z" fill="#000000" fill-rule="evenodd" fill-opacity="1" /><path clip-path="url(#clip990)" d="M354.742 1459.35 Q352.705 1459.35 351.525 1460.56 Q350.344 1461.78 350.344 1463.89 Q350.344 1465.97 351.525 1467.18 Q352.705 1468.4 354.742 1468.4 Q356.756 1468.4 357.937 1467.18 Q359.117 1465.97 359.117 1463.89 Q359.117 1461.78 357.937 1460.56 Q356.756 1459.35 354.742 1459.35 M360.715 1451.16 L360.715 1453.54 Q359.58 1453.08 358.423 1452.85 Q357.265 1452.59 356.131 1452.59 Q353.168 1452.59 351.594 1454.33 Q350.02 1456.09 349.789 1459.63 Q350.668 1458.5 351.988 1457.89 Q353.33 1457.29 354.904 1457.29 Q358.261 1457.29 360.205 1459.05 Q362.15 1460.83 362.15 1463.89 Q362.15 1466.83 360.113 1468.66 Q358.099 1470.46 354.742 1470.46 Q350.877 1470.46 348.84 1467.89 Q346.803 1465.33 346.803 1460.42 Q346.803 1455.83 349.303 1453.13 Q351.803 1450.39 356.016 1450.39 Q357.15 1450.39 358.307 1450.58 Q359.465 1450.79 360.715 1451.16 Z" fill="#000000" fill-rule="evenodd" fill-opacity="1" /><path clip-path="url(#clip990)" d="M648.967 1481.64 L656.606 1481.64 L656.606 1455.28 L648.296 1456.95 L648.296 1452.69 L656.56 1451.02 L661.236 1451.02 L661.236 1481.64 L668.874 1481.64 L668.874 1485.58 L648.967 1485.58 L648.967 1481.64 Z" fill="#000000" fill-rule="evenodd" fill-opacity="1" /><path clip-path="url(#clip990)" d="M688.319 1454.1 Q684.708 1454.1 682.879 1457.66 Q681.073 1461.2 681.073 1468.33 Q681.073 1475.44 682.879 1479.01 Q684.708 1482.55 688.319 1482.55 Q691.953 1482.55 693.759 1479.01 Q695.587 1475.44 695.587 1468.33 Q695.587 1461.2 693.759 1457.66 Q691.953 1454.1 688.319 1454.1 M688.319 1450.39 Q694.129 1450.39 697.184 1455 Q700.263 1459.58 700.263 1468.33 Q700.263 1477.06 697.184 1481.67 Q694.129 1486.25 688.319 1486.25 Q682.509 1486.25 679.43 1481.67 Q676.374 1477.06 676.374 1468.33 Q676.374 1459.58 679.43 1455 Q682.509 1450.39 688.319 1450.39 Z" fill="#000000" fill-rule="evenodd" fill-opacity="1" /><path clip-path="url(#clip990)" d="M708.481 1479.7 L713.365 1479.7 L713.365 1485.58 L708.481 1485.58 L708.481 1479.7 Z" fill="#000000" fill-rule="evenodd" fill-opacity="1" /><path clip-path="url(#clip990)" d="M733.55 1454.1 Q729.939 1454.1 728.11 1457.66 Q726.305 1461.2 726.305 1468.33 Q726.305 1475.44 728.11 1479.01 Q729.939 1482.55 733.55 1482.55 Q737.184 1482.55 738.99 1479.01 Q740.818 1475.44 740.818 1468.33 Q740.818 1461.2 738.99 1457.66 Q737.184 1454.1 733.55 1454.1 M733.55 1450.39 Q739.36 1450.39 742.416 1455 Q745.494 1459.58 745.494 1468.33 Q745.494 1477.06 742.416 1481.67 Q739.36 1486.25 733.55 1486.25 Q727.74 1486.25 724.661 1481.67 Q721.606 1477.06 721.606 1468.33 Q721.606 1459.58 724.661 1455 Q727.74 1450.39 733.55 1450.39 Z" fill="#000000" fill-rule="evenodd" fill-opacity="1" /><path clip-path="url(#clip990)" d="M763.712 1454.1 Q760.101 1454.1 758.272 1457.66 Q756.467 1461.2 756.467 1468.33 Q756.467 1475.44 758.272 1479.01 Q760.101 1482.55 763.712 1482.55 Q767.346 1482.55 769.152 1479.01 Q770.98 1475.44 770.98 1468.33 Q770.98 1461.2 769.152 1457.66 Q767.346 1454.1 763.712 1454.1 M763.712 1450.39 Q769.522 1450.39 772.578 1455 Q775.656 1459.58 775.656 1468.33 Q775.656 1477.06 772.578 1481.67 Q769.522 1486.25 763.712 1486.25 Q757.902 1486.25 754.823 1481.67 Q751.767 1477.06 751.767 1468.33 Q751.767 1459.58 754.823 1455 Q757.902 1450.39 763.712 1450.39 Z" fill="#000000" fill-rule="evenodd" fill-opacity="1" /><path clip-path="url(#clip990)" d="M804.823 1459.65 L795.448 1472.27 L805.309 1485.58 L800.286 1485.58 L792.739 1475.39 L785.193 1485.58 L780.17 1485.58 L790.239 1472.02 L781.027 1459.65 L786.05 1459.65 L792.925 1468.89 L799.8 1459.65 L804.823 1459.65 Z" fill="#000000" fill-rule="evenodd" fill-opacity="1" /><path clip-path="url(#clip990)" d="M812.739 1481.64 L820.378 1481.64 L820.378 1455.28 L812.068 1456.95 L812.068 1452.69 L820.332 1451.02 L825.008 1451.02 L825.008 1481.64 L832.647 1481.64 L832.647 1485.58 L812.739 1485.58 L812.739 1481.64 Z" fill="#000000" fill-rule="evenodd" fill-opacity="1" /><path clip-path="url(#clip990)" d="M852.091 1454.1 Q848.48 1454.1 846.651 1457.66 Q844.846 1461.2 844.846 1468.33 Q844.846 1475.44 846.651 1479.01 Q848.48 1482.55 852.091 1482.55 Q855.725 1482.55 857.531 1479.01 Q859.359 1475.44 859.359 1468.33 Q859.359 1461.2 857.531 1457.66 Q855.725 1454.1 852.091 1454.1 M852.091 1450.39 Q857.901 1450.39 860.957 1455 Q864.035 1459.58 864.035 1468.33 Q864.035 1477.06 860.957 1481.67 Q857.901 1486.25 852.091 1486.25 Q846.281 1486.25 843.202 1481.67 Q840.147 1477.06 840.147 1468.33 Q840.147 1459.58 843.202 1455 Q846.281 1450.39 852.091 1450.39 Z" fill="#000000" fill-rule="evenodd" fill-opacity="1" /><path clip-path="url(#clip990)" d="M877.253 1459.35 Q875.216 1459.35 874.035 1460.56 Q872.855 1461.78 872.855 1463.89 Q872.855 1465.97 874.035 1467.18 Q875.216 1468.4 877.253 1468.4 Q879.267 1468.4 880.447 1467.18 Q881.628 1465.97 881.628 1463.89 Q881.628 1461.78 880.447 1460.56 Q879.267 1459.35 877.253 1459.35 M883.225 1451.16 L883.225 1453.54 Q882.091 1453.08 880.933 1452.85 Q879.776 1452.59 878.642 1452.59 Q875.679 1452.59 874.105 1454.33 Q872.531 1456.09 872.299 1459.63 Q873.179 1458.5 874.498 1457.89 Q875.841 1457.29 877.415 1457.29 Q880.771 1457.29 882.716 1459.05 Q884.66 1460.83 884.66 1463.89 Q884.66 1466.83 882.623 1468.66 Q880.609 1470.46 877.253 1470.46 Q873.387 1470.46 871.35 1467.89 Q869.313 1465.33 869.313 1460.42 Q869.313 1455.83 871.813 1453.13 Q874.313 1450.39 878.526 1450.39 Q879.66 1450.39 880.818 1450.58 Q881.975 1450.79 883.225 1451.16 Z" fill="#000000" fill-rule="evenodd" fill-opacity="1" /><path clip-path="url(#clip990)" d="M1161.52 1481.64 L1177.84 1481.64 L1177.84 1485.58 L1155.9 1485.58 L1155.9 1481.64 Q1158.56 1478.89 1163.14 1474.26 Q1167.75 1469.61 1168.93 1468.27 Q1171.18 1465.74 1172.06 1464.01 Q1172.96 1462.25 1172.96 1460.56 Q1172.96 1457.8 1171.01 1456.07 Q1169.09 1454.33 1165.99 1454.33 Q1163.79 1454.33 1161.34 1455.09 Q1158.91 1455.86 1156.13 1457.41 L1156.13 1452.69 Q1158.95 1451.55 1161.41 1450.97 Q1163.86 1450.39 1165.9 1450.39 Q1171.27 1450.39 1174.46 1453.08 Q1177.66 1455.77 1177.66 1460.26 Q1177.66 1462.39 1176.85 1464.31 Q1176.06 1466.2 1173.95 1468.8 Q1173.38 1469.47 1170.27 1472.69 Q1167.17 1475.88 1161.52 1481.64 Z" fill="#000000" fill-rule="evenodd" fill-opacity="1" /><path clip-path="url(#clip990)" d="M1197.66 1454.1 Q1194.05 1454.1 1192.22 1457.66 Q1190.41 1461.2 1190.41 1468.33 Q1190.41 1475.44 1192.22 1479.01 Q1194.05 1482.55 1197.66 1482.55 Q1201.29 1482.55 1203.1 1479.01 Q1204.93 1475.44 1204.93 1468.33 Q1204.93 1461.2 1203.1 1457.66 Q1201.29 1454.1 1197.66 1454.1 M1197.66 1450.39 Q1203.47 1450.39 1206.52 1455 Q1209.6 1459.58 1209.6 1468.33 Q1209.6 1477.06 1206.52 1481.67 Q1203.47 1486.25 1197.66 1486.25 Q1191.85 1486.25 1188.77 1481.67 Q1185.71 1477.06 1185.71 1468.33 Q1185.71 1459.58 1188.77 1455 Q1191.85 1450.39 1197.66 1450.39 Z" fill="#000000" fill-rule="evenodd" fill-opacity="1" /><path clip-path="url(#clip990)" d="M1217.82 1479.7 L1222.7 1479.7 L1222.7 1485.58 L1217.82 1485.58 L1217.82 1479.7 Z" fill="#000000" fill-rule="evenodd" fill-opacity="1" /><path clip-path="url(#clip990)" d="M1242.89 1454.1 Q1239.28 1454.1 1237.45 1457.66 Q1235.64 1461.2 1235.64 1468.33 Q1235.64 1475.44 1237.45 1479.01 Q1239.28 1482.55 1242.89 1482.55 Q1246.52 1482.55 1248.33 1479.01 Q1250.16 1475.44 1250.16 1468.33 Q1250.16 1461.2 1248.33 1457.66 Q1246.52 1454.1 1242.89 1454.1 M1242.89 1450.39 Q1248.7 1450.39 1251.76 1455 Q1254.83 1459.58 1254.83 1468.33 Q1254.83 1477.06 1251.76 1481.67 Q1248.7 1486.25 1242.89 1486.25 Q1237.08 1486.25 1234 1481.67 Q1230.94 1477.06 1230.94 1468.33 Q1230.94 1459.58 1234 1455 Q1237.08 1450.39 1242.89 1450.39 Z" fill="#000000" fill-rule="evenodd" fill-opacity="1" /><path clip-path="url(#clip990)" d="M1273.05 1454.1 Q1269.44 1454.1 1267.61 1457.66 Q1265.81 1461.2 1265.81 1468.33 Q1265.81 1475.44 1267.61 1479.01 Q1269.44 1482.55 1273.05 1482.55 Q1276.69 1482.55 1278.49 1479.01 Q1280.32 1475.44 1280.32 1468.33 Q1280.32 1461.2 1278.49 1457.66 Q1276.69 1454.1 1273.05 1454.1 M1273.05 1450.39 Q1278.86 1450.39 1281.92 1455 Q1285 1459.58 1285 1468.33 Q1285 1477.06 1281.92 1481.67 Q1278.86 1486.25 1273.05 1486.25 Q1267.24 1486.25 1264.16 1481.67 Q1261.11 1477.06 1261.11 1468.33 Q1261.11 1459.58 1264.16 1455 Q1267.24 1450.39 1273.05 1450.39 Z" fill="#000000" fill-rule="evenodd" fill-opacity="1" /><path clip-path="url(#clip990)" d="M1314.16 1459.65 L1304.79 1472.27 L1314.65 1485.58 L1309.63 1485.58 L1302.08 1475.39 L1294.53 1485.58 L1289.51 1485.58 L1299.58 1472.02 L1290.37 1459.65 L1295.39 1459.65 L1302.26 1468.89 L1309.14 1459.65 L1314.16 1459.65 Z" fill="#000000" fill-rule="evenodd" fill-opacity="1" /><path clip-path="url(#clip990)" d="M1322.08 1481.64 L1329.72 1481.64 L1329.72 1455.28 L1321.41 1456.95 L1321.41 1452.69 L1329.67 1451.02 L1334.35 1451.02 L1334.35 1481.64 L1341.99 1481.64 L1341.99 1485.58 L1322.08 1485.58 L1322.08 1481.64 Z" fill="#000000" fill-rule="evenodd" fill-opacity="1" /><path clip-path="url(#clip990)" d="M1361.43 1454.1 Q1357.82 1454.1 1355.99 1457.66 Q1354.19 1461.2 1354.19 1468.33 Q1354.19 1475.44 1355.99 1479.01 Q1357.82 1482.55 1361.43 1482.55 Q1365.06 1482.55 1366.87 1479.01 Q1368.7 1475.44 1368.7 1468.33 Q1368.7 1461.2 1366.87 1457.66 Q1365.06 1454.1 1361.43 1454.1 M1361.43 1450.39 Q1367.24 1450.39 1370.3 1455 Q1373.37 1459.58 1373.37 1468.33 Q1373.37 1477.06 1370.3 1481.67 Q1367.24 1486.25 1361.43 1486.25 Q1355.62 1486.25 1352.54 1481.67 Q1349.49 1477.06 1349.49 1468.33 Q1349.49 1459.58 1352.54 1455 Q1355.62 1450.39 1361.43 1450.39 Z" fill="#000000" fill-rule="evenodd" fill-opacity="1" /><path clip-path="url(#clip990)" d="M1386.59 1459.35 Q1384.56 1459.35 1383.37 1460.56 Q1382.19 1461.78 1382.19 1463.89 Q1382.19 1465.97 1383.37 1467.18 Q1384.56 1468.4 1386.59 1468.4 Q1388.61 1468.4 1389.79 1467.18 Q1390.97 1465.97 1390.97 1463.89 Q1390.97 1461.78 1389.79 1460.56 Q1388.61 1459.35 1386.59 1459.35 M1392.56 1451.16 L1392.56 1453.54 Q1391.43 1453.08 1390.27 1452.85 Q1389.12 1452.59 1387.98 1452.59 Q1385.02 1452.59 1383.44 1454.33 Q1381.87 1456.09 1381.64 1459.63 Q1382.52 1458.5 1383.84 1457.89 Q1385.18 1457.29 1386.75 1457.29 Q1390.11 1457.29 1392.06 1459.05 Q1394 1460.83 1394 1463.89 Q1394 1466.83 1391.96 1468.66 Q1389.95 1470.46 1386.59 1470.46 Q1382.73 1470.46 1380.69 1467.89 Q1378.65 1465.33 1378.65 1460.42 Q1378.65 1455.83 1381.15 1453.13 Q1383.65 1450.39 1387.87 1450.39 Q1389 1450.39 1390.16 1450.58 Q1391.31 1450.79 1392.56 1451.16 Z" fill="#000000" fill-rule="evenodd" fill-opacity="1" /><path clip-path="url(#clip990)" d="M1680.06 1466.95 Q1683.42 1467.66 1685.3 1469.93 Q1687.19 1472.2 1687.19 1475.53 Q1687.19 1480.65 1683.68 1483.45 Q1680.16 1486.25 1673.68 1486.25 Q1671.5 1486.25 1669.19 1485.81 Q1666.89 1485.39 1664.44 1484.54 L1664.44 1480.02 Q1666.38 1481.16 1668.7 1481.74 Q1671.01 1482.32 1673.54 1482.32 Q1677.94 1482.32 1680.23 1480.58 Q1682.54 1478.84 1682.54 1475.53 Q1682.54 1472.48 1680.39 1470.77 Q1678.26 1469.03 1674.44 1469.03 L1670.41 1469.03 L1670.41 1465.19 L1674.62 1465.19 Q1678.07 1465.19 1679.9 1463.82 Q1681.73 1462.43 1681.73 1459.84 Q1681.73 1457.18 1679.83 1455.77 Q1677.96 1454.33 1674.44 1454.33 Q1672.52 1454.33 1670.32 1454.75 Q1668.12 1455.16 1665.48 1456.04 L1665.48 1451.88 Q1668.14 1451.14 1670.46 1450.77 Q1672.8 1450.39 1674.86 1450.39 Q1680.18 1450.39 1683.28 1452.83 Q1686.38 1455.23 1686.38 1459.35 Q1686.38 1462.22 1684.74 1464.21 Q1683.1 1466.18 1680.06 1466.95 Z" fill="#000000" fill-rule="evenodd" fill-opacity="1" /><path clip-path="url(#clip990)" d="M1706.06 1454.1 Q1702.45 1454.1 1700.62 1457.66 Q1698.81 1461.2 1698.81 1468.33 Q1698.81 1475.44 1700.62 1479.01 Q1702.45 1482.55 1706.06 1482.55 Q1709.69 1482.55 1711.5 1479.01 Q1713.33 1475.44 1713.33 1468.33 Q1713.33 1461.2 1711.5 1457.66 Q1709.69 1454.1 1706.06 1454.1 M1706.06 1450.39 Q1711.87 1450.39 1714.93 1455 Q1718 1459.58 1718 1468.33 Q1718 1477.06 1714.93 1481.67 Q1711.87 1486.25 1706.06 1486.25 Q1700.25 1486.25 1697.17 1481.67 Q1694.12 1477.06 1694.12 1468.33 Q1694.12 1459.58 1697.17 1455 Q1700.25 1450.39 1706.06 1450.39 Z" fill="#000000" fill-rule="evenodd" fill-opacity="1" /><path clip-path="url(#clip990)" d="M1726.22 1479.7 L1731.11 1479.7 L1731.11 1485.58 L1726.22 1485.58 L1726.22 1479.7 Z" fill="#000000" fill-rule="evenodd" fill-opacity="1" /><path clip-path="url(#clip990)" d="M1751.29 1454.1 Q1747.68 1454.1 1745.85 1457.66 Q1744.05 1461.2 1744.05 1468.33 Q1744.05 1475.44 1745.85 1479.01 Q1747.68 1482.55 1751.29 1482.55 Q1754.93 1482.55 1756.73 1479.01 Q1758.56 1475.44 1758.56 1468.33 Q1758.56 1461.2 1756.73 1457.66 Q1754.93 1454.1 1751.29 1454.1 M1751.29 1450.39 Q1757.1 1450.39 1760.16 1455 Q1763.24 1459.58 1763.24 1468.33 Q1763.24 1477.06 1760.16 1481.67 Q1757.1 1486.25 1751.29 1486.25 Q1745.48 1486.25 1742.4 1481.67 Q1739.35 1477.06 1739.35 1468.33 Q1739.35 1459.58 1742.4 1455 Q1745.48 1450.39 1751.29 1450.39 Z" fill="#000000" fill-rule="evenodd" fill-opacity="1" /><path clip-path="url(#clip990)" d="M1781.45 1454.1 Q1777.84 1454.1 1776.01 1457.66 Q1774.21 1461.2 1774.21 1468.33 Q1774.21 1475.44 1776.01 1479.01 Q1777.84 1482.55 1781.45 1482.55 Q1785.09 1482.55 1786.89 1479.01 Q1788.72 1475.44 1788.72 1468.33 Q1788.72 1461.2 1786.89 1457.66 Q1785.09 1454.1 1781.45 1454.1 M1781.45 1450.39 Q1787.26 1450.39 1790.32 1455 Q1793.4 1459.58 1793.4 1468.33 Q1793.4 1477.06 1790.32 1481.67 Q1787.26 1486.25 1781.45 1486.25 Q1775.64 1486.25 1772.56 1481.67 Q1769.51 1477.06 1769.51 1468.33 Q1769.51 1459.58 1772.56 1455 Q1775.64 1450.39 1781.45 1450.39 Z" fill="#000000" fill-rule="evenodd" fill-opacity="1" /><path clip-path="url(#clip990)" d="M1822.56 1459.65 L1813.19 1472.27 L1823.05 1485.58 L1818.03 1485.58 L1810.48 1475.39 L1802.93 1485.58 L1797.91 1485.58 L1807.98 1472.02 L1798.77 1459.65 L1803.79 1459.65 L1810.67 1468.89 L1817.54 1459.65 L1822.56 1459.65 Z" fill="#000000" fill-rule="evenodd" fill-opacity="1" /><path clip-path="url(#clip990)" d="M1830.48 1481.64 L1838.12 1481.64 L1838.12 1455.28 L1829.81 1456.95 L1829.81 1452.69 L1838.07 1451.02 L1842.75 1451.02 L1842.75 1481.64 L1850.39 1481.64 L1850.39 1485.58 L1830.48 1485.58 L1830.48 1481.64 Z" fill="#000000" fill-rule="evenodd" fill-opacity="1" /><path clip-path="url(#clip990)" d="M1869.83 1454.1 Q1866.22 1454.1 1864.39 1457.66 Q1862.59 1461.2 1862.59 1468.33 Q1862.59 1475.44 1864.39 1479.01 Q1866.22 1482.55 1869.83 1482.55 Q1873.47 1482.55 1875.27 1479.01 Q1877.1 1475.44 1877.1 1468.33 Q1877.1 1461.2 1875.27 1457.66 Q1873.47 1454.1 1869.83 1454.1 M1869.83 1450.39 Q1875.64 1450.39 1878.7 1455 Q1881.78 1459.58 1881.78 1468.33 Q1881.78 1477.06 1878.7 1481.67 Q1875.64 1486.25 1869.83 1486.25 Q1864.02 1486.25 1860.94 1481.67 Q1857.89 1477.06 1857.89 1468.33 Q1857.89 1459.58 1860.94 1455 Q1864.02 1450.39 1869.83 1450.39 Z" fill="#000000" fill-rule="evenodd" fill-opacity="1" /><path clip-path="url(#clip990)" d="M1894.99 1459.35 Q1892.96 1459.35 1891.78 1460.56 Q1890.6 1461.78 1890.6 1463.89 Q1890.6 1465.97 1891.78 1467.18 Q1892.96 1468.4 1894.99 1468.4 Q1897.01 1468.4 1898.19 1467.18 Q1899.37 1465.97 1899.37 1463.89 Q1899.37 1461.78 1898.19 1460.56 Q1897.01 1459.35 1894.99 1459.35 M1900.97 1451.16 L1900.97 1453.54 Q1899.83 1453.08 1898.67 1452.85 Q1897.52 1452.59 1896.38 1452.59 Q1893.42 1452.59 1891.85 1454.33 Q1890.27 1456.09 1890.04 1459.63 Q1890.92 1458.5 1892.24 1457.89 Q1893.58 1457.29 1895.16 1457.29 Q1898.51 1457.29 1900.46 1459.05 Q1902.4 1460.83 1902.4 1463.89 Q1902.4 1466.83 1900.36 1468.66 Q1898.35 1470.46 1894.99 1470.46 Q1891.13 1470.46 1889.09 1467.89 Q1887.05 1465.33 1887.05 1460.42 Q1887.05 1455.83 1889.55 1453.13 Q1892.05 1450.39 1896.27 1450.39 Q1897.4 1450.39 1898.56 1450.58 Q1899.72 1450.79 1900.97 1451.16 Z" fill="#000000" fill-rule="evenodd" fill-opacity="1" /><path clip-path="url(#clip990)" d="M2187.86 1455.09 L2176.06 1473.54 L2187.86 1473.54 L2187.86 1455.09 M2186.64 1451.02 L2192.52 1451.02 L2192.52 1473.54 L2197.45 1473.54 L2197.45 1477.43 L2192.52 1477.43 L2192.52 1485.58 L2187.86 1485.58 L2187.86 1477.43 L2172.26 1477.43 L2172.26 1472.92 L2186.64 1451.02 Z" fill="#000000" fill-rule="evenodd" fill-opacity="1" /><path clip-path="url(#clip990)" d="M2215.18 1454.1 Q2211.57 1454.1 2209.74 1457.66 Q2207.93 1461.2 2207.93 1468.33 Q2207.93 1475.44 2209.74 1479.01 Q2211.57 1482.55 2215.18 1482.55 Q2218.81 1482.55 2220.62 1479.01 Q2222.45 1475.44 2222.45 1468.33 Q2222.45 1461.2 2220.62 1457.66 Q2218.81 1454.1 2215.18 1454.1 M2215.18 1450.39 Q2220.99 1450.39 2224.05 1455 Q2227.12 1459.58 2227.12 1468.33 Q2227.12 1477.06 2224.05 1481.67 Q2220.99 1486.25 2215.18 1486.25 Q2209.37 1486.25 2206.29 1481.67 Q2203.23 1477.06 2203.23 1468.33 Q2203.23 1459.58 2206.29 1455 Q2209.37 1450.39 2215.18 1450.39 Z" fill="#000000" fill-rule="evenodd" fill-opacity="1" /><path clip-path="url(#clip990)" d="M2235.34 1479.7 L2240.23 1479.7 L2240.23 1485.58 L2235.34 1485.58 L2235.34 1479.7 Z" fill="#000000" fill-rule="evenodd" fill-opacity="1" /><path clip-path="url(#clip990)" d="M2260.41 1454.1 Q2256.8 1454.1 2254.97 1457.66 Q2253.17 1461.2 2253.17 1468.33 Q2253.17 1475.44 2254.97 1479.01 Q2256.8 1482.55 2260.41 1482.55 Q2264.04 1482.55 2265.85 1479.01 Q2267.68 1475.44 2267.68 1468.33 Q2267.68 1461.2 2265.85 1457.66 Q2264.04 1454.1 2260.41 1454.1 M2260.41 1450.39 Q2266.22 1450.39 2269.28 1455 Q2272.35 1459.58 2272.35 1468.33 Q2272.35 1477.06 2269.28 1481.67 Q2266.22 1486.25 2260.41 1486.25 Q2254.6 1486.25 2251.52 1481.67 Q2248.47 1477.06 2248.47 1468.33 Q2248.47 1459.58 2251.52 1455 Q2254.6 1450.39 2260.41 1450.39 Z" fill="#000000" fill-rule="evenodd" fill-opacity="1" /><path clip-path="url(#clip990)" d="M2290.57 1454.1 Q2286.96 1454.1 2285.13 1457.66 Q2283.33 1461.2 2283.33 1468.33 Q2283.33 1475.44 2285.13 1479.01 Q2286.96 1482.55 2290.57 1482.55 Q2294.21 1482.55 2296.01 1479.01 Q2297.84 1475.44 2297.84 1468.33 Q2297.84 1461.2 2296.01 1457.66 Q2294.21 1454.1 2290.57 1454.1 M2290.57 1450.39 Q2296.38 1450.39 2299.44 1455 Q2302.52 1459.58 2302.52 1468.33 Q2302.52 1477.06 2299.44 1481.67 Q2296.38 1486.25 2290.57 1486.25 Q2284.76 1486.25 2281.68 1481.67 Q2278.63 1477.06 2278.63 1468.33 Q2278.63 1459.58 2281.68 1455 Q2284.76 1450.39 2290.57 1450.39 Z" fill="#000000" fill-rule="evenodd" fill-opacity="1" /><path clip-path="url(#clip990)" d="M2331.68 1459.65 L2322.31 1472.27 L2332.17 1485.58 L2327.15 1485.58 L2319.6 1475.39 L2312.05 1485.58 L2307.03 1485.58 L2317.1 1472.02 L2307.89 1459.65 L2312.91 1459.65 L2319.79 1468.89 L2326.66 1459.65 L2331.68 1459.65 Z" fill="#000000" fill-rule="evenodd" fill-opacity="1" /><path clip-path="url(#clip990)" d="M2339.6 1481.64 L2347.24 1481.64 L2347.24 1455.28 L2338.93 1456.95 L2338.93 1452.69 L2347.19 1451.02 L2351.87 1451.02 L2351.87 1481.64 L2359.51 1481.64 L2359.51 1485.58 L2339.6 1485.58 L2339.6 1481.64 Z" fill="#000000" fill-rule="evenodd" fill-opacity="1" /><path clip-path="url(#clip990)" d="M2378.95 1454.1 Q2375.34 1454.1 2373.51 1457.66 Q2371.71 1461.2 2371.71 1468.33 Q2371.71 1475.44 2373.51 1479.01 Q2375.34 1482.55 2378.95 1482.55 Q2382.59 1482.55 2384.39 1479.01 Q2386.22 1475.44 2386.22 1468.33 Q2386.22 1461.2 2384.39 1457.66 Q2382.59 1454.1 2378.95 1454.1 M2378.95 1450.39 Q2384.76 1450.39 2387.82 1455 Q2390.9 1459.58 2390.9 1468.33 Q2390.9 1477.06 2387.82 1481.67 Q2384.76 1486.25 2378.95 1486.25 Q2373.14 1486.25 2370.06 1481.67 Q2367.01 1477.06 2367.01 1468.33 Q2367.01 1459.58 2370.06 1455 Q2373.14 1450.39 2378.95 1450.39 Z" fill="#000000" fill-rule="evenodd" fill-opacity="1" /><path clip-path="url(#clip990)" d="M2404.11 1459.35 Q2402.08 1459.35 2400.9 1460.56 Q2399.72 1461.78 2399.72 1463.89 Q2399.72 1465.97 2400.9 1467.18 Q2402.08 1468.4 2404.11 1468.4 Q2406.13 1468.4 2407.31 1467.18 Q2408.49 1465.97 2408.49 1463.89 Q2408.49 1461.78 2407.31 1460.56 Q2406.13 1459.35 2404.11 1459.35 M2410.09 1451.16 L2410.09 1453.54 Q2408.95 1453.08 2407.79 1452.85 Q2406.64 1452.59 2405.5 1452.59 Q2402.54 1452.59 2400.97 1454.33 Q2399.39 1456.09 2399.16 1459.63 Q2400.04 1458.5 2401.36 1457.89 Q2402.7 1457.29 2404.28 1457.29 Q2407.63 1457.29 2409.58 1459.05 Q2411.52 1460.83 2411.52 1463.89 Q2411.52 1466.83 2409.48 1468.66 Q2407.47 1470.46 2404.11 1470.46 Q2400.25 1470.46 2398.21 1467.89 Q2396.17 1465.33 2396.17 1460.42 Q2396.17 1455.83 2398.67 1453.13 Q2401.17 1450.39 2405.39 1450.39 Q2406.52 1450.39 2407.68 1450.58 Q2408.84 1450.79 2410.09 1451.16 Z" fill="#000000" fill-rule="evenodd" fill-opacity="1" /><path clip-path="url(#clip990)" d="M1127.05 1520.52 L1133.48 1520.52 L1133.48 1568.04 L1127.05 1568.04 L1127.05 1520.52 Z" fill="#000000" fill-rule="evenodd" fill-opacity="1" /><path clip-path="url(#clip990)" d="M1151.82 1522.27 L1151.82 1532.4 L1163.88 1532.4 L1163.88 1536.95 L1151.82 1536.95 L1151.82 1556.3 Q1151.82 1560.66 1152.99 1561.9 Q1154.2 1563.14 1157.86 1563.14 L1163.88 1563.14 L1163.88 1568.04 L1157.86 1568.04 Q1151.08 1568.04 1148.51 1565.53 Q1145.93 1562.98 1145.93 1556.3 L1145.93 1536.95 L1141.63 1536.95 L1141.63 1532.4 L1145.93 1532.4 L1145.93 1522.27 L1151.82 1522.27 Z" fill="#000000" fill-rule="evenodd" fill-opacity="1" /><path clip-path="url(#clip990)" d="M1202.07 1548.76 L1202.07 1551.62 L1175.15 1551.62 Q1175.53 1557.67 1178.78 1560.85 Q1182.05 1564 1187.88 1564 Q1191.25 1564 1194.4 1563.17 Q1197.59 1562.35 1200.71 1560.69 L1200.71 1566.23 Q1197.55 1567.57 1194.24 1568.27 Q1190.93 1568.97 1187.53 1568.97 Q1179 1568.97 1174 1564 Q1169.04 1559.04 1169.04 1550.57 Q1169.04 1541.82 1173.75 1536.69 Q1178.49 1531.54 1186.51 1531.54 Q1193.7 1531.54 1197.87 1536.18 Q1202.07 1540.8 1202.07 1548.76 M1196.22 1547.04 Q1196.15 1542.23 1193.51 1539.37 Q1190.9 1536.5 1186.57 1536.5 Q1181.67 1536.5 1178.71 1539.27 Q1175.78 1542.04 1175.34 1547.07 L1196.22 1547.04 Z" fill="#000000" fill-rule="evenodd" fill-opacity="1" /><path clip-path="url(#clip990)" d="M1232.34 1537.87 Q1231.36 1537.3 1230.18 1537.04 Q1229.03 1536.76 1227.63 1536.76 Q1222.67 1536.76 1219.99 1540 Q1217.35 1543.22 1217.35 1549.27 L1217.35 1568.04 L1211.46 1568.04 L1211.46 1532.4 L1217.35 1532.4 L1217.35 1537.93 Q1219.2 1534.69 1222.16 1533.13 Q1225.12 1531.54 1229.35 1531.54 Q1229.96 1531.54 1230.69 1531.63 Q1231.42 1531.7 1232.31 1531.85 L1232.34 1537.87 Z" fill="#000000" fill-rule="evenodd" fill-opacity="1" /><path clip-path="url(#clip990)" d="M1254.69 1550.12 Q1247.59 1550.12 1244.85 1551.75 Q1242.11 1553.37 1242.11 1557.29 Q1242.11 1560.4 1244.15 1562.25 Q1246.22 1564.07 1249.75 1564.07 Q1254.62 1564.07 1257.55 1560.63 Q1260.51 1557.16 1260.51 1551.43 L1260.51 1550.12 L1254.69 1550.12 M1266.37 1547.71 L1266.37 1568.04 L1260.51 1568.04 L1260.51 1562.63 Q1258.51 1565.88 1255.51 1567.44 Q1252.52 1568.97 1248.19 1568.97 Q1242.72 1568.97 1239.47 1565.91 Q1236.26 1562.82 1236.26 1557.67 Q1236.26 1551.65 1240.27 1548.6 Q1244.31 1545.54 1252.3 1545.54 L1260.51 1545.54 L1260.51 1544.97 Q1260.51 1540.93 1257.84 1538.73 Q1255.2 1536.5 1250.39 1536.5 Q1247.33 1536.5 1244.44 1537.23 Q1241.54 1537.97 1238.87 1539.43 L1238.87 1534.02 Q1242.08 1532.78 1245.11 1532.17 Q1248.13 1531.54 1250.99 1531.54 Q1258.73 1531.54 1262.55 1535.55 Q1266.37 1539.56 1266.37 1547.71 Z" fill="#000000" fill-rule="evenodd" fill-opacity="1" /><path clip-path="url(#clip990)" d="M1284.22 1522.27 L1284.22 1532.4 L1296.29 1532.4 L1296.29 1536.95 L1284.22 1536.95 L1284.22 1556.3 Q1284.22 1560.66 1285.4 1561.9 Q1286.61 1563.14 1290.27 1563.14 L1296.29 1563.14 L1296.29 1568.04 L1290.27 1568.04 Q1283.49 1568.04 1280.91 1565.53 Q1278.34 1562.98 1278.34 1556.3 L1278.34 1536.95 L1274.04 1536.95 L1274.04 1532.4 L1278.34 1532.4 L1278.34 1522.27 L1284.22 1522.27 Z" fill="#000000" fill-rule="evenodd" fill-opacity="1" /><path clip-path="url(#clip990)" d="M1303.99 1532.4 L1309.85 1532.4 L1309.85 1568.04 L1303.99 1568.04 L1303.99 1532.4 M1303.99 1518.52 L1309.85 1518.52 L1309.85 1525.93 L1303.99 1525.93 L1303.99 1518.52 Z" fill="#000000" fill-rule="evenodd" fill-opacity="1" /><path clip-path="url(#clip990)" d="M1335.91 1536.5 Q1331.2 1536.5 1328.47 1540.19 Q1325.73 1543.85 1325.73 1550.25 Q1325.73 1556.65 1328.43 1560.34 Q1331.17 1564 1335.91 1564 Q1340.59 1564 1343.33 1560.31 Q1346.07 1556.62 1346.07 1550.25 Q1346.07 1543.92 1343.33 1540.23 Q1340.59 1536.5 1335.91 1536.5 M1335.91 1531.54 Q1343.55 1531.54 1347.91 1536.5 Q1352.27 1541.47 1352.27 1550.25 Q1352.27 1559 1347.91 1564 Q1343.55 1568.97 1335.91 1568.97 Q1328.24 1568.97 1323.88 1564 Q1319.55 1559 1319.55 1550.25 Q1319.55 1541.47 1323.88 1536.5 Q1328.24 1531.54 1335.91 1531.54 Z" fill="#000000" fill-rule="evenodd" fill-opacity="1" /><path clip-path="url(#clip990)" d="M1391.61 1546.53 L1391.61 1568.04 L1385.76 1568.04 L1385.76 1546.72 Q1385.76 1541.66 1383.78 1539.14 Q1381.81 1536.63 1377.86 1536.63 Q1373.12 1536.63 1370.38 1539.65 Q1367.65 1542.68 1367.65 1547.9 L1367.65 1568.04 L1361.76 1568.04 L1361.76 1532.4 L1367.65 1532.4 L1367.65 1537.93 Q1369.75 1534.72 1372.58 1533.13 Q1375.44 1531.54 1379.17 1531.54 Q1385.31 1531.54 1388.46 1535.36 Q1391.61 1539.14 1391.61 1546.53 Z" fill="#000000" fill-rule="evenodd" fill-opacity="1" /><path clip-path="url(#clip990)" d="M1426.02 1533.45 L1426.02 1538.98 Q1423.54 1537.71 1420.86 1537.07 Q1418.19 1536.44 1415.33 1536.44 Q1410.96 1536.44 1408.77 1537.77 Q1406.6 1539.11 1406.6 1541.79 Q1406.6 1543.82 1408.16 1545 Q1409.72 1546.15 1414.43 1547.2 L1416.44 1547.64 Q1422.68 1548.98 1425.29 1551.43 Q1427.93 1553.85 1427.93 1558.21 Q1427.93 1563.17 1423.98 1566.07 Q1420.07 1568.97 1413.19 1568.97 Q1410.33 1568.97 1407.21 1568.39 Q1404.12 1567.85 1400.68 1566.74 L1400.68 1560.69 Q1403.93 1562.38 1407.08 1563.24 Q1410.23 1564.07 1413.32 1564.07 Q1417.46 1564.07 1419.69 1562.66 Q1421.91 1561.23 1421.91 1558.65 Q1421.91 1556.27 1420.29 1554.99 Q1418.7 1553.72 1413.26 1552.54 L1411.22 1552.07 Q1405.78 1550.92 1403.36 1548.56 Q1400.94 1546.18 1400.94 1542.04 Q1400.94 1537.01 1404.5 1534.27 Q1408.07 1531.54 1414.62 1531.54 Q1417.87 1531.54 1420.74 1532.01 Q1423.6 1532.49 1426.02 1533.45 Z" fill="#000000" fill-rule="evenodd" fill-opacity="1" /><polyline clip-path="url(#clip992)" style="stroke:#000000; stroke-linecap:round; stroke-linejoin:round; stroke-width:2; stroke-opacity:0.1; fill:none" points="
  202.227,1098.55 2352.76,1098.55 
  "/>
<polyline clip-path="url(#clip992)" style="stroke:#000000; stroke-linecap:round; stroke-linejoin:round; stroke-width:2; stroke-opacity:0.1; fill:none" points="
  202.227,750.954 2352.76,750.954 
  "/>
<polyline clip-path="url(#clip992)" style="stroke:#000000; stroke-linecap:round; stroke-linejoin:round; stroke-width:2; stroke-opacity:0.1; fill:none" points="
  202.227,403.363 2352.76,403.363 
  "/>
<polyline clip-path="url(#clip992)" style="stroke:#000000; stroke-linecap:round; stroke-linejoin:round; stroke-width:2; stroke-opacity:0.1; fill:none" points="
  202.227,55.7714 2352.76,55.7714 
  "/>
<polyline clip-path="url(#clip990)" style="stroke:#000000; stroke-linecap:round; stroke-linejoin:round; stroke-width:4; stroke-opacity:1; fill:none" points="
  202.227,1423.18 202.227,47.2441 
  "/>
<polyline clip-path="url(#clip990)" style="stroke:#000000; stroke-linecap:round; stroke-linejoin:round; stroke-width:4; stroke-opacity:1; fill:none" points="
  202.227,1098.55 221.125,1098.55 
  "/>
<polyline clip-path="url(#clip990)" style="stroke:#000000; stroke-linecap:round; stroke-linejoin:round; stroke-width:4; stroke-opacity:1; fill:none" points="
  202.227,750.954 221.125,750.954 
  "/>
<polyline clip-path="url(#clip990)" style="stroke:#000000; stroke-linecap:round; stroke-linejoin:round; stroke-width:4; stroke-opacity:1; fill:none" points="
  202.227,403.363 221.125,403.363 
  "/>
<polyline clip-path="url(#clip990)" style="stroke:#000000; stroke-linecap:round; stroke-linejoin:round; stroke-width:4; stroke-opacity:1; fill:none" points="
  202.227,55.7714 221.125,55.7714 
  "/>
<path clip-path="url(#clip990)" d="M156.644 1085.34 L144.839 1103.79 L156.644 1103.79 L156.644 1085.34 M155.417 1081.27 L161.297 1081.27 L161.297 1103.79 L166.227 1103.79 L166.227 1107.68 L161.297 1107.68 L161.297 1115.83 L156.644 1115.83 L156.644 1107.68 L141.042 1107.68 L141.042 1103.16 L155.417 1081.27 Z" fill="#000000" fill-rule="evenodd" fill-opacity="1" /><path clip-path="url(#clip990)" d="M154.7 749.091 Q151.552 749.091 149.7 751.243 Q147.871 753.396 147.871 757.146 Q147.871 760.873 149.7 763.049 Q151.552 765.202 154.7 765.202 Q157.848 765.202 159.677 763.049 Q161.528 760.873 161.528 757.146 Q161.528 753.396 159.677 751.243 Q157.848 749.091 154.7 749.091 M163.982 734.438 L163.982 738.697 Q162.223 737.864 160.417 737.424 Q158.635 736.984 156.876 736.984 Q152.246 736.984 149.792 740.109 Q147.362 743.234 147.015 749.554 Q148.38 747.54 150.441 746.475 Q152.501 745.387 154.978 745.387 Q160.186 745.387 163.195 748.558 Q166.227 751.706 166.227 757.146 Q166.227 762.47 163.079 765.688 Q159.931 768.905 154.7 768.905 Q148.704 768.905 145.533 764.322 Q142.362 759.716 142.362 750.989 Q142.362 742.794 146.251 737.933 Q150.14 733.049 156.69 733.049 Q158.45 733.049 160.232 733.396 Q162.038 733.743 163.982 734.438 Z" fill="#000000" fill-rule="evenodd" fill-opacity="1" /><path clip-path="url(#clip990)" d="M154.376 404.231 Q151.042 404.231 149.121 406.013 Q147.223 407.796 147.223 410.921 Q147.223 414.046 149.121 415.828 Q151.042 417.61 154.376 417.61 Q157.709 417.61 159.63 415.828 Q161.552 414.022 161.552 410.921 Q161.552 407.796 159.63 406.013 Q157.732 404.231 154.376 404.231 M149.7 402.24 Q146.691 401.499 145.001 399.439 Q143.334 397.379 143.334 394.416 Q143.334 390.273 146.274 387.865 Q149.237 385.458 154.376 385.458 Q159.538 385.458 162.477 387.865 Q165.417 390.273 165.417 394.416 Q165.417 397.379 163.727 399.439 Q162.061 401.499 159.075 402.24 Q162.454 403.027 164.329 405.319 Q166.227 407.61 166.227 410.921 Q166.227 415.944 163.149 418.629 Q160.093 421.314 154.376 421.314 Q148.658 421.314 145.579 418.629 Q142.524 415.944 142.524 410.921 Q142.524 407.61 144.422 405.319 Q146.32 403.027 149.7 402.24 M147.987 394.856 Q147.987 397.541 149.653 399.046 Q151.343 400.55 154.376 400.55 Q157.385 400.55 159.075 399.046 Q160.788 397.541 160.788 394.856 Q160.788 392.171 159.075 390.666 Q157.385 389.161 154.376 389.161 Q151.343 389.161 149.653 390.666 Q147.987 392.171 147.987 394.856 Z" fill="#000000" fill-rule="evenodd" fill-opacity="1" /><path clip-path="url(#clip990)" d="M114.931 69.1163 L122.57 69.1163 L122.57 42.7507 L114.26 44.4173 L114.26 40.1581 L122.524 38.4914 L127.2 38.4914 L127.2 69.1163 L134.839 69.1163 L134.839 73.0514 L114.931 73.0514 L114.931 69.1163 Z" fill="#000000" fill-rule="evenodd" fill-opacity="1" /><path clip-path="url(#clip990)" d="M154.283 41.5701 Q150.672 41.5701 148.843 45.1349 Q147.038 48.6766 147.038 55.8062 Q147.038 62.9126 148.843 66.4774 Q150.672 70.019 154.283 70.019 Q157.917 70.019 159.723 66.4774 Q161.552 62.9126 161.552 55.8062 Q161.552 48.6766 159.723 45.1349 Q157.917 41.5701 154.283 41.5701 M154.283 37.8664 Q160.093 37.8664 163.149 42.4729 Q166.227 47.0562 166.227 55.8062 Q166.227 64.533 163.149 69.1394 Q160.093 73.7227 154.283 73.7227 Q148.473 73.7227 145.394 69.1394 Q142.339 64.533 142.339 55.8062 Q142.339 47.0562 145.394 42.4729 Q148.473 37.8664 154.283 37.8664 Z" fill="#000000" fill-rule="evenodd" fill-opacity="1" /><path clip-path="url(#clip990)" d="M22.818 1132.45 L46.4666 1141.17 L46.4666 1123.7 L22.818 1132.45 M16.4842 1136.08 L16.4842 1128.79 L64.0042 1110.68 L64.0042 1117.36 L51.8138 1121.69 L51.8138 1143.11 L64.0042 1147.44 L64.0042 1154.22 L16.4842 1136.08 Z" fill="#000000" fill-rule="evenodd" fill-opacity="1" /><path clip-path="url(#clip990)" d="M28.3562 1112.01 L28.3562 1105.81 L58.275 1094.67 L28.3562 1083.53 L28.3562 1077.32 L64.0042 1090.69 L64.0042 1098.65 L28.3562 1112.01 Z" fill="#000000" fill-rule="evenodd" fill-opacity="1" /><path clip-path="url(#clip990)" d="M44.7161 1038.74 L47.5806 1038.74 L47.5806 1065.67 Q53.6281 1065.29 56.8109 1062.04 Q59.9619 1058.76 59.9619 1052.94 Q59.9619 1049.57 59.1344 1046.42 Q58.3069 1043.23 56.6518 1040.11 L62.1899 1040.11 Q63.5267 1043.26 64.227 1046.57 Q64.9272 1049.88 64.9272 1053.29 Q64.9272 1061.82 59.9619 1066.82 Q54.9967 1071.78 46.5303 1071.78 Q37.7774 1071.78 32.6531 1067.07 Q27.4968 1062.33 27.4968 1054.31 Q27.4968 1047.12 32.1438 1042.95 Q36.7589 1038.74 44.7161 1038.74 M42.9973 1044.6 Q38.1912 1044.66 35.3266 1047.31 Q32.4621 1049.92 32.4621 1054.25 Q32.4621 1059.15 35.2312 1062.11 Q38.0002 1065.04 43.0292 1065.48 L42.9973 1044.6 Z" fill="#000000" fill-rule="evenodd" fill-opacity="1" /><path clip-path="url(#clip990)" d="M33.8307 1008.48 Q33.2578 1009.46 33.0032 1010.64 Q32.7167 1011.79 32.7167 1013.19 Q32.7167 1018.15 35.9632 1020.83 Q39.1779 1023.47 45.2253 1023.47 L64.0042 1023.47 L64.0042 1029.36 L28.3562 1029.36 L28.3562 1023.47 L33.8944 1023.47 Q30.6479 1021.62 29.0883 1018.66 Q27.4968 1015.7 27.4968 1011.47 Q27.4968 1010.86 27.5923 1010.13 Q27.656 1009.4 27.8151 1008.51 L33.8307 1008.48 Z" fill="#000000" fill-rule="evenodd" fill-opacity="1" /><path clip-path="url(#clip990)" d="M46.0847 986.132 Q46.0847 993.23 47.7079 995.967 Q49.3312 998.704 53.2461 998.704 Q56.3653 998.704 58.2114 996.667 Q60.0256 994.599 60.0256 991.066 Q60.0256 986.196 56.5881 983.268 Q53.1188 980.308 47.3897 980.308 L46.0847 980.308 L46.0847 986.132 M43.6657 974.451 L64.0042 974.451 L64.0042 980.308 L58.5933 980.308 Q61.8398 982.313 63.3994 985.305 Q64.9272 988.297 64.9272 992.625 Q64.9272 998.1 61.8716 1001.35 Q58.7843 1004.56 53.6281 1004.56 Q47.6125 1004.56 44.5569 1000.55 Q41.5014 996.508 41.5014 988.519 L41.5014 980.308 L40.9285 980.308 Q36.8862 980.308 34.6901 982.981 Q32.4621 985.623 32.4621 990.429 Q32.4621 993.485 33.1941 996.381 Q33.9262 999.277 35.3903 1001.95 L29.9795 1001.95 Q28.7381 998.736 28.1334 995.713 Q27.4968 992.689 27.4968 989.824 Q27.4968 982.09 31.5072 978.271 Q35.5176 974.451 43.6657 974.451 Z" fill="#000000" fill-rule="evenodd" fill-opacity="1" /><path clip-path="url(#clip990)" d="M45.7664 938.93 Q39.4007 938.93 35.8996 941.572 Q32.3984 944.182 32.3984 948.925 Q32.3984 953.635 35.8996 956.277 Q39.4007 958.887 45.7664 958.887 Q52.1003 958.887 55.6014 956.277 Q59.1026 953.635 59.1026 948.925 Q59.1026 944.182 55.6014 941.572 Q52.1003 938.93 45.7664 938.93 M59.58 933.074 Q68.683 933.074 73.1071 937.116 Q77.5631 941.158 77.5631 949.498 Q77.5631 952.585 77.0857 955.322 Q76.6401 958.059 75.6852 960.638 L69.9879 960.638 Q71.3884 958.059 72.0568 955.545 Q72.7252 953.031 72.7252 950.421 Q72.7252 944.66 69.7015 941.795 Q66.7096 938.93 60.6303 938.93 L57.7339 938.93 Q60.885 940.745 62.4446 943.577 Q64.0042 946.41 64.0042 950.357 Q64.0042 956.914 59.0071 960.924 Q54.01 964.934 45.7664 964.934 Q37.491 964.934 32.4939 960.924 Q27.4968 956.914 27.4968 950.357 Q27.4968 946.41 29.0564 943.577 Q30.616 940.745 33.7671 938.93 L28.3562 938.93 L28.3562 933.074 L59.58 933.074 Z" fill="#000000" fill-rule="evenodd" fill-opacity="1" /><path clip-path="url(#clip990)" d="M44.7161 890.519 L47.5806 890.519 L47.5806 917.446 Q53.6281 917.064 56.8109 913.818 Q59.9619 910.539 59.9619 904.715 Q59.9619 901.341 59.1344 898.19 Q58.3069 895.007 56.6518 891.888 L62.1899 891.888 Q63.5267 895.039 64.227 898.349 Q64.9272 901.659 64.9272 905.065 Q64.9272 913.595 59.9619 918.592 Q54.9967 923.557 46.5303 923.557 Q37.7774 923.557 32.6531 918.847 Q27.4968 914.104 27.4968 906.083 Q27.4968 898.89 32.1438 894.721 Q36.7589 890.519 44.7161 890.519 M42.9973 896.376 Q38.1912 896.439 35.3266 899.081 Q32.4621 901.691 32.4621 906.02 Q32.4621 910.921 35.2312 913.881 Q38.0002 916.81 43.0292 917.255 L42.9973 896.376 Z" fill="#000000" fill-rule="evenodd" fill-opacity="1" /><path clip-path="url(#clip990)" d="M20.1444 824.348 L26.9239 824.348 Q23.9002 827.594 22.4043 831.286 Q20.9083 834.947 20.9083 839.084 Q20.9083 847.232 25.9054 851.561 Q30.8707 855.89 40.2919 855.89 Q49.6813 855.89 54.6784 851.561 Q59.6436 847.232 59.6436 839.084 Q59.6436 834.947 58.1477 831.286 Q56.6518 827.594 53.6281 824.348 L60.3439 824.348 Q62.6355 827.722 63.7814 831.509 Q64.9272 835.265 64.9272 839.466 Q64.9272 850.256 58.3387 856.463 Q51.7183 862.669 40.2919 862.669 Q28.8336 862.669 22.2451 856.463 Q15.6248 850.256 15.6248 839.466 Q15.6248 835.201 16.7706 831.446 Q17.8846 827.658 20.1444 824.348 Z" fill="#000000" fill-rule="evenodd" fill-opacity="1" /><path clip-path="url(#clip990)" d="M32.4621 800.858 Q32.4621 805.569 36.1542 808.306 Q39.8145 811.043 46.212 811.043 Q52.6095 811.043 56.3017 808.338 Q59.9619 805.601 59.9619 800.858 Q59.9619 796.18 56.2698 793.442 Q52.5777 790.705 46.212 790.705 Q39.8781 790.705 36.186 793.442 Q32.4621 796.18 32.4621 800.858 M27.4968 800.858 Q27.4968 793.219 32.4621 788.859 Q37.4273 784.498 46.212 784.498 Q54.9649 784.498 59.9619 788.859 Q64.9272 793.219 64.9272 800.858 Q64.9272 808.529 59.9619 812.89 Q54.9649 817.218 46.212 817.218 Q37.4273 817.218 32.4621 812.89 Q27.4968 808.529 27.4968 800.858 Z" fill="#000000" fill-rule="evenodd" fill-opacity="1" /><path clip-path="url(#clip990)" d="M35.1993 747.036 Q31.2526 744.84 29.3747 741.785 Q27.4968 738.729 27.4968 734.591 Q27.4968 729.021 31.4117 725.998 Q35.2948 722.974 42.4881 722.974 L64.0042 722.974 L64.0042 728.862 L42.679 728.862 Q37.5546 728.862 35.072 730.676 Q32.5894 732.491 32.5894 736.215 Q32.5894 740.766 35.6131 743.408 Q38.6368 746.05 43.8567 746.05 L64.0042 746.05 L64.0042 751.938 L42.679 751.938 Q37.5228 751.938 35.072 753.752 Q32.5894 755.566 32.5894 759.354 Q32.5894 763.842 35.6449 766.484 Q38.6686 769.125 43.8567 769.125 L64.0042 769.125 L64.0042 775.014 L28.3562 775.014 L28.3562 769.125 L33.8944 769.125 Q30.616 767.12 29.0564 764.319 Q27.4968 761.518 27.4968 757.667 Q27.4968 753.784 29.4702 751.078 Q31.4436 748.341 35.1993 747.036 Z" fill="#000000" fill-rule="evenodd" fill-opacity="1" /><path clip-path="url(#clip990)" d="M58.657 705.627 L77.5631 705.627 L77.5631 711.516 L28.3562 711.516 L28.3562 705.627 L33.7671 705.627 Q30.5842 703.781 29.0564 700.98 Q27.4968 698.148 27.4968 694.233 Q27.4968 687.74 32.6531 683.697 Q37.8093 679.623 46.212 679.623 Q54.6147 679.623 59.771 683.697 Q64.9272 687.74 64.9272 694.233 Q64.9272 698.148 63.3994 700.98 Q61.8398 703.781 58.657 705.627 M46.212 685.703 Q39.7508 685.703 36.0905 688.376 Q32.3984 691.018 32.3984 695.665 Q32.3984 700.312 36.0905 702.986 Q39.7508 705.627 46.212 705.627 Q52.6732 705.627 56.3653 702.986 Q60.0256 700.312 60.0256 695.665 Q60.0256 691.018 56.3653 688.376 Q52.6732 685.703 46.212 685.703 Z" fill="#000000" fill-rule="evenodd" fill-opacity="1" /><path clip-path="url(#clip990)" d="M14.479 669.916 L14.479 664.059 L64.0042 664.059 L64.0042 669.916 L14.479 669.916 Z" fill="#000000" fill-rule="evenodd" fill-opacity="1" /><path clip-path="url(#clip990)" d="M44.7161 621.314 L47.5806 621.314 L47.5806 648.241 Q53.6281 647.859 56.8109 644.612 Q59.9619 641.334 59.9619 635.509 Q59.9619 632.135 59.1344 628.984 Q58.3069 625.801 56.6518 622.682 L62.1899 622.682 Q63.5267 625.833 64.227 629.143 Q64.9272 632.454 64.9272 635.859 Q64.9272 644.389 59.9619 649.386 Q54.9967 654.352 46.5303 654.352 Q37.7774 654.352 32.6531 649.641 Q27.4968 644.899 27.4968 636.878 Q27.4968 629.684 32.1438 625.515 Q36.7589 621.314 44.7161 621.314 M42.9973 627.17 Q38.1912 627.234 35.3266 629.875 Q32.4621 632.485 32.4621 636.814 Q32.4621 641.716 35.2312 644.676 Q38.0002 647.604 43.0292 648.05 L42.9973 627.17 Z" fill="#000000" fill-rule="evenodd" fill-opacity="1" /><path clip-path="url(#clip990)" d="M18.2347 605.909 L28.3562 605.909 L28.3562 593.846 L32.9077 593.846 L32.9077 605.909 L52.2594 605.909 Q56.6199 605.909 57.8613 604.731 Q59.1026 603.521 59.1026 599.861 L59.1026 593.846 L64.0042 593.846 L64.0042 599.861 Q64.0042 606.641 61.4897 609.219 Q58.9434 611.797 52.2594 611.797 L32.9077 611.797 L32.9077 616.094 L28.3562 616.094 L28.3562 611.797 L18.2347 611.797 L18.2347 605.909 Z" fill="#000000" fill-rule="evenodd" fill-opacity="1" /><path clip-path="url(#clip990)" d="M28.3562 586.143 L28.3562 580.287 L64.0042 580.287 L64.0042 586.143 L28.3562 586.143 M14.479 586.143 L14.479 580.287 L21.895 580.287 L21.895 586.143 L14.479 586.143 Z" fill="#000000" fill-rule="evenodd" fill-opacity="1" /><path clip-path="url(#clip990)" d="M32.4621 554.219 Q32.4621 558.93 36.1542 561.667 Q39.8145 564.404 46.212 564.404 Q52.6095 564.404 56.3017 561.699 Q59.9619 558.961 59.9619 554.219 Q59.9619 549.54 56.2698 546.803 Q52.5777 544.066 46.212 544.066 Q39.8781 544.066 36.186 546.803 Q32.4621 549.54 32.4621 554.219 M27.4968 554.219 Q27.4968 546.58 32.4621 542.22 Q37.4273 537.859 46.212 537.859 Q54.9649 537.859 59.9619 542.22 Q64.9272 546.58 64.9272 554.219 Q64.9272 561.89 59.9619 566.25 Q54.9649 570.579 46.212 570.579 Q37.4273 570.579 32.4621 566.25 Q27.4968 561.89 27.4968 554.219 Z" fill="#000000" fill-rule="evenodd" fill-opacity="1" /><path clip-path="url(#clip990)" d="M42.4881 498.519 L64.0042 498.519 L64.0042 504.376 L42.679 504.376 Q37.6183 504.376 35.1038 506.349 Q32.5894 508.322 32.5894 512.269 Q32.5894 517.011 35.6131 519.749 Q38.6368 522.486 43.8567 522.486 L64.0042 522.486 L64.0042 528.374 L28.3562 528.374 L28.3562 522.486 L33.8944 522.486 Q30.6797 520.385 29.0883 517.553 Q27.4968 514.688 27.4968 510.964 Q27.4968 504.821 31.3163 501.67 Q35.1038 498.519 42.4881 498.519 Z" fill="#000000" fill-rule="evenodd" fill-opacity="1" /><path clip-path="url(#clip990)" d="M16.4842 472.452 L16.4842 432.252 L21.895 432.252 L21.895 449.121 L64.0042 449.121 L64.0042 455.582 L21.895 455.582 L21.895 472.452 L16.4842 472.452 Z" fill="#000000" fill-rule="evenodd" fill-opacity="1" /><path clip-path="url(#clip990)" d="M28.3562 428.305 L28.3562 422.449 L64.0042 422.449 L64.0042 428.305 L28.3562 428.305 M14.479 428.305 L14.479 422.449 L21.895 422.449 L21.895 428.305 L14.479 428.305 Z" fill="#000000" fill-rule="evenodd" fill-opacity="1" /><path clip-path="url(#clip990)" d="M35.1993 382.44 Q31.2526 380.244 29.3747 377.189 Q27.4968 374.133 27.4968 369.995 Q27.4968 364.425 31.4117 361.402 Q35.2948 358.378 42.4881 358.378 L64.0042 358.378 L64.0042 364.266 L42.679 364.266 Q37.5546 364.266 35.072 366.081 Q32.5894 367.895 32.5894 371.619 Q32.5894 376.17 35.6131 378.812 Q38.6368 381.454 43.8567 381.454 L64.0042 381.454 L64.0042 387.342 L42.679 387.342 Q37.5228 387.342 35.072 389.156 Q32.5894 390.97 32.5894 394.758 Q32.5894 399.246 35.6449 401.888 Q38.6686 404.529 43.8567 404.529 L64.0042 404.529 L64.0042 410.418 L28.3562 410.418 L28.3562 404.529 L33.8944 404.529 Q30.616 402.524 29.0564 399.723 Q27.4968 396.922 27.4968 393.071 Q27.4968 389.188 29.4702 386.483 Q31.4436 383.745 35.1993 382.44 Z" fill="#000000" fill-rule="evenodd" fill-opacity="1" /><path clip-path="url(#clip990)" d="M44.7161 316.205 L47.5806 316.205 L47.5806 343.132 Q53.6281 342.75 56.8109 339.504 Q59.9619 336.225 59.9619 330.401 Q59.9619 327.027 59.1344 323.876 Q58.3069 320.693 56.6518 317.574 L62.1899 317.574 Q63.5267 320.725 64.227 324.035 Q64.9272 327.345 64.9272 330.751 Q64.9272 339.281 59.9619 344.278 Q54.9967 349.243 46.5303 349.243 Q37.7774 349.243 32.6531 344.533 Q27.4968 339.79 27.4968 331.769 Q27.4968 324.576 32.1438 320.407 Q36.7589 316.205 44.7161 316.205 M42.9973 322.062 Q38.1912 322.125 35.3266 324.767 Q32.4621 327.377 32.4621 331.706 Q32.4621 336.607 35.2312 339.567 Q38.0002 342.496 43.0292 342.941 L42.9973 322.062 Z" fill="#000000" fill-rule="evenodd" fill-opacity="1" /><polyline clip-path="url(#clip992)" style="stroke:#009af9; stroke-linecap:round; stroke-linejoin:round; stroke-width:4; stroke-opacity:1; fill:none" points="
  796.986,1189.79 802.071,622.78 
  "/>
<polyline clip-path="url(#clip992)" style="stroke:#009af9; stroke-linecap:round; stroke-linejoin:round; stroke-width:4; stroke-opacity:1; fill:none" points="
  812.24,381.638 817.325,86.1857 822.41,654.181 827.495,702.37 832.579,867.263 837.664,526.83 842.749,682.522 847.833,670.574 852.918,961.937 858.003,824.323 
  863.088,794.147 868.172,885.053 873.257,874.526 878.342,939.489 883.426,918.03 888.511,987.278 893.596,908.775 898.681,987.521 903.765,946.236 908.85,937.818 
  913.935,1006.64 919.019,994.359 924.104,1015.12 929.189,1005.14 934.274,1050.58 939.358,1055.48 944.443,1027.65 949.528,1092.22 954.612,1098.92 959.697,1072.53 
  964.782,1110.4 969.867,1081.4 974.951,1101.57 980.036,1106.81 985.121,1082.34 990.205,1137.51 995.29,1107.66 1000.37,1132.71 1005.46,1154.45 1010.54,1142.57 
  1015.63,1130.05 1020.71,1145.28 1025.8,1146.74 1030.88,1126.08 1035.97,1139.52 1041.05,1105.36 1046.14,1173.78 1051.22,1165.69 1056.31,1143.2 1061.39,1140.2 
  1066.48,1141.3 1071.56,1167.71 1076.65,1135.76 1081.73,1164.56 1086.81,1174.78 1091.9,1167 1096.98,1169.02 1102.07,1173.93 1107.15,1149.77 1112.24,1174.06 
  1117.32,1184.31 1122.41,1185.99 1127.49,1161.98 1132.58,1147.12 1137.66,1169 1142.75,1172.93 1147.83,1159.85 1152.92,1166.2 1158,1168.95 1163.09,1169.35 
  1168.17,1169.18 1173.26,1183.03 1178.34,1181.92 1183.42,1195.05 1188.51,1186.23 1193.59,1188.22 1198.68,1197.11 1203.76,1196.72 1208.85,1198.35 1213.93,1178.84 
  1219.02,1195.2 1224.1,1181.93 1229.19,1172.36 1234.27,1168.45 1239.36,1175.84 1244.44,1160.66 1249.53,1168.48 1254.61,1192.77 1259.7,1204.52 1264.78,1197.83 
  1269.86,1190.33 1274.95,1183.86 1280.03,1196.59 1285.12,1208.37 1290.2,1190.03 1295.29,1197.8 1300.37,1193.18 1305.46,1184.51 1310.54,1190.05 1315.63,1205.64 
  1320.71,1181.54 1325.8,1171.32 1330.88,1190.35 1335.97,1178.53 1341.05,1149.64 1346.14,1205.78 1351.22,1205.89 1356.3,1184.64 1361.39,1212.4 1366.47,1214.51 
  1371.56,1206.36 1376.64,1190.12 1381.73,1200.69 1386.81,1176.25 1391.9,1194.91 1396.98,1196.11 1402.07,1176.73 1407.15,1157.93 1412.24,1170.26 1417.32,1210.42 
  1422.41,1183.81 1427.49,1170.28 1432.58,1191.49 1437.66,1174.49 1442.74,1199.5 1447.83,1210.67 1452.91,1191.53 1458,1188.5 1463.08,1167.67 1468.17,1177.76 
  1473.25,1172.13 1478.34,1192.39 1483.42,1197.95 1488.51,1202.98 1493.59,1195.18 1498.68,1199.24 1503.76,1186.32 1508.85,1194.78 1513.93,1222.29 1519.02,1218.03 
  1524.1,1203.76 1529.18,1187.57 1534.27,1186.01 1539.35,1165.07 1544.44,1194.61 1549.52,1202.67 1554.61,1211.47 1559.69,1207.69 1564.78,1208.73 1569.86,1218.96 
  1574.95,1220.51 1580.03,1199.11 1585.12,1183.92 1590.2,1202.03 1595.29,1205.12 1600.37,1206.1 1605.46,1199.88 1610.54,1213.85 1615.63,1201.62 1620.71,1198.72 
  1625.79,1213.1 1630.88,1217.51 1635.96,1199.06 1641.05,1196.29 1646.13,1187.49 1651.22,1205.38 1656.3,1196.27 1661.39,1209.72 1666.47,1216.88 1671.56,1227.28 
  1676.64,1202.43 1681.73,1204.17 1686.81,1223.33 1691.9,1201.27 1696.98,1202.74 1702.07,1204.41 1707.15,1203.63 1712.23,1216.92 1717.32,1201.69 1722.4,1177.14 
  1727.49,1189.02 1732.57,1222.85 1737.66,1210.21 1742.74,1208.82 1747.83,1210.77 1752.91,1202.15 1758,1208.86 1763.08,1204.29 1768.17,1216.9 1773.25,1225.89 
  1778.34,1209.1 1783.42,1188.96 1788.51,1192.85 1793.59,1190.99 1798.67,1181.1 1803.76,1180.71 1808.84,1180.79 1813.93,1177.69 1819.01,1190.27 1824.1,1171.76 
  1829.18,1204.23 1834.27,1192.07 1839.35,1184.14 1844.44,1183.73 1849.52,1198.65 1854.61,1189.42 1859.69,1195.28 1864.78,1196.22 1869.86,1199.29 1874.95,1189.29 
  1880.03,1175.38 1885.11,1171.02 1890.2,1184.12 1895.28,1168.26 1900.37,1182.42 1905.45,1176.54 1910.54,1206.01 1915.62,1190.25 1920.71,1199.85 1925.79,1212.19 
  1930.88,1216.38 1935.96,1190.22 1941.05,1200.97 1946.13,1198 1951.22,1198.04 1956.3,1185.55 1961.39,1215.03 1966.47,1206.15 1971.55,1213.64 1976.64,1171.69 
  1981.72,1186.31 1986.81,1195.48 1991.89,1182.34 1996.98,1176.67 2002.06,1159.96 2007.15,1195.07 2012.23,1202.67 2017.32,1202.97 2022.4,1191.5 2027.49,1179.84 
  2032.57,1206.29 2037.66,1210.81 2042.74,1200.45 2047.83,1187.27 2052.91,1200.57 2058,1202.89 2063.08,1185.2 2068.16,1196.67 2073.25,1178.72 2078.33,1177.34 
  2083.42,1193.7 2088.5,1200.69 2093.59,1200.63 2098.67,1215.92 2103.76,1214.44 2108.84,1206.12 2113.93,1204.26 2119.01,1180.99 2124.1,1205.42 2129.18,1202.41 
  2134.27,1199.92 2139.35,1206.89 2144.44,1195.11 2149.52,1194.52 2154.6,1185.6 2159.69,1185.29 2164.77,1183.64 2169.86,1187.14 2174.94,1181.66 2180.03,1200.45 
  2185.11,1194.39 2190.2,1181.6 2195.28,1190.53 2200.37,1168.02 2205.45,1172.39 2210.54,1178.73 2215.62,1192.39 2220.71,1198.83 2225.79,1176.99 2230.88,1198.61 
  2235.96,1153.82 2241.04,1165.76 2246.13,1187.83 2251.21,1189.72 2256.3,1175.15 2261.38,1186.88 2266.47,1171.6 2271.55,1183.05 2276.64,1173.3 2281.72,1164.54 
  2286.81,1178.9 2291.89,1180.31 
  "/>
<polyline clip-path="url(#clip992)" style="stroke:#e26f46; stroke-linecap:round; stroke-linejoin:round; stroke-width:4; stroke-opacity:1; fill:none" points="
  263.091,1232.56 268.176,1227.98 273.261,1254.15 278.346,1265.06 283.43,1263.46 288.515,1261.77 293.6,1273.91 298.684,1287.76 303.769,1282.53 308.854,1279.02 
  313.939,1280.62 319.023,1284.16 324.108,1296.4 329.193,1277.21 334.277,1305.43 339.362,1315.64 344.447,1299.57 349.532,1297.89 354.616,1314 359.701,1318.77 
  364.786,1302.78 369.87,1312.7 374.955,1311.66 380.04,1315.7 385.125,1317.06 390.209,1308.34 395.294,1318.42 400.379,1307.51 405.463,1317.68 410.548,1315.9 
  415.633,1317.19 420.718,1321.55 425.802,1308.45 430.887,1312.79 435.972,1311.58 441.056,1316.16 446.141,1309.98 451.226,1328.82 456.311,1316.75 461.395,1291.19 
  466.48,1301.77 471.565,1281.86 476.649,1294.02 481.734,1320.24 486.819,1325.27 491.904,1301.47 496.988,1324.05 502.073,1316.84 507.158,1336.12 512.242,1343.1 
  517.327,1338.19 522.412,1341.32 527.497,1328.1 532.581,1322.7 537.666,1313.75 542.751,1312.25 547.835,1344.26 552.92,1335.95 558.005,1340.51 563.09,1342.88 
  568.174,1315.86 573.259,1330.4 578.344,1334.61 583.428,1334.06 588.513,1325.59 593.598,1316.49 598.683,1316.27 603.767,1334.32 608.852,1318.34 613.937,1352.74 
  619.021,1320.91 624.106,1315.83 629.191,1342.92 634.276,1333.21 639.36,1312.52 644.445,1342.76 649.53,1359.65 654.614,1351.72 659.699,1356.66 664.784,1361.52 
  669.869,1361.04 674.953,1351.49 680.038,1361.09 685.123,1353.3 690.207,1348.83 695.292,1342.65 700.377,1335.63 705.461,1334.76 710.546,1336.58 715.631,1335.81 
  720.716,1334.09 725.8,1354.78 730.885,1328.3 735.97,1339.57 741.054,1328.82 746.139,1298.65 751.224,1349.54 756.309,1339.2 761.393,1335.16 766.478,1348.12 
  771.563,1353.17 776.647,1343.57 781.732,1353.35 786.817,1373.83 791.902,1354.31 796.986,1366.95 802.071,1329.39 807.156,1349.2 812.24,1359.7 817.325,1328.39 
  822.41,1352.2 827.495,1379.32 832.579,1366.09 837.664,1349.59 842.749,1346.18 847.833,1368.32 852.918,1363.58 858.003,1342.84 863.088,1353.07 868.172,1364.62 
  873.257,1364.33 878.342,1368.83 883.426,1354.02 888.511,1358.28 893.596,1349.17 898.681,1348.57 903.765,1356.5 908.85,1360.8 913.935,1357.54 919.019,1332.84 
  924.104,1353.33 929.189,1348.83 934.274,1343.66 939.358,1365.07 944.443,1367.05 949.528,1355.16 954.612,1353.66 959.697,1354.83 964.782,1342.98 969.867,1311.66 
  974.951,1342.23 980.036,1346.38 985.121,1346.62 990.205,1355.16 995.29,1330.06 1000.37,1354.21 1005.46,1364.42 1010.54,1339.85 1015.63,1365.78 1020.71,1352.56 
  1025.8,1367.34 1030.88,1363.52 1035.97,1346.38 1041.05,1356.77 1046.14,1363.28 1051.22,1357.36 1056.31,1365.99 1061.39,1352.4 1066.48,1357.24 1071.56,1368.04 
  1076.65,1346.27 1081.73,1357.69 1086.81,1358.56 1091.9,1370.36 1096.98,1377.83 1102.07,1372.62 1107.15,1380.99 1112.24,1383.21 1117.32,1366.78 1122.41,1370.8 
  1127.49,1359 1132.58,1351.71 1137.66,1363.16 1142.75,1358.03 1147.83,1358.21 1152.92,1337.82 1158,1345.33 1163.09,1354.33 1168.17,1350.79 1173.26,1348.59 
  1178.34,1370.79 1183.42,1364.66 1188.51,1353.66 1193.59,1356.41 1198.68,1366.04 1203.76,1358.1 1208.85,1360.48 1213.93,1366.42 1219.02,1367.21 1224.1,1362.03 
  1229.19,1366.75 1234.27,1358.13 1239.36,1346.93 1244.44,1362.63 1249.53,1345.38 1254.61,1328.1 1259.7,1329.48 1264.78,1350.66 1269.86,1340.1 1274.95,1349.59 
  1280.03,1335.88 1285.12,1363.67 1290.2,1358.71 1295.29,1376.47 1300.37,1375.09 1305.46,1363.17 1310.54,1354.85 1315.63,1364.59 1320.71,1337.62 1325.8,1349.23 
  1330.88,1352.95 1335.97,1349.35 1341.05,1358.75 1346.14,1331.12 1351.22,1335.34 1356.3,1341.79 1361.39,1333.58 1366.47,1329.46 1371.56,1363.45 1376.64,1352.62 
  1381.73,1359.35 1386.81,1381.99 1391.9,1362.66 1396.98,1347.87 1402.07,1351.69 1407.15,1347.62 1412.24,1340.76 1417.32,1351.2 1422.41,1350.02 1427.49,1352.95 
  1432.58,1355.14 1437.66,1366.46 1442.74,1348.04 1447.83,1325.04 1452.91,1339.09 1458,1354.2 1463.08,1363.26 1468.17,1355.09 1473.25,1345.16 1478.34,1370.18 
  1483.42,1352.29 1488.51,1360.4 1493.59,1345.88 1498.68,1365.76 1503.76,1370.37 1508.85,1382.62 1513.93,1383.29 1519.02,1372.25 1524.1,1374.04 1529.18,1353.2 
  1534.27,1350.86 1539.35,1356.18 1544.44,1373.05 1549.52,1354.1 1554.61,1341.6 1559.69,1351.97 1564.78,1369.25 1569.86,1360.29 1574.95,1363.54 1580.03,1384.24 
  1585.12,1357.11 1590.2,1362.17 1595.29,1353.03 1600.37,1353.98 1605.46,1365.88 1610.54,1350.26 1615.63,1375.39 1620.71,1380.87 1625.79,1364.11 1630.88,1362.29 
  1635.96,1353.05 1641.05,1351.06 1646.13,1354.2 1651.22,1356.83 1656.3,1382.62 1661.39,1353.31 1666.47,1360.2 1671.56,1372.27 1676.64,1371.95 1681.73,1352.57 
  1686.81,1351.33 1691.9,1349.91 1696.98,1359.63 1702.07,1356.89 1707.15,1366.74 1712.23,1366.34 1717.32,1366.36 1722.4,1377.04 1727.49,1332.38 1732.57,1364.36 
  1737.66,1350.7 1742.74,1379.16 1747.83,1365.06 1752.91,1375.3 1758,1373.72 1763.08,1330.11 1768.17,1342.6 1773.25,1365.77 1778.34,1338.5 1783.42,1356.68 
  1788.51,1368.47 1793.59,1359.87 1798.67,1340.28 1803.76,1353.49 1808.84,1361.97 1813.93,1366.98 1819.01,1382.93 1824.1,1355.4 1829.18,1368.15 1834.27,1358.62 
  1839.35,1362.06 1844.44,1356.89 1849.52,1374.15 1854.61,1345.98 1859.69,1352.23 1864.78,1350.31 1869.86,1349.81 1874.95,1349.24 1880.03,1362.9 1885.11,1356.1 
  1890.2,1373.6 1895.28,1351.99 1900.37,1368.22 1905.45,1361.13 1910.54,1360.46 1915.62,1350.75 1920.71,1351.14 1925.79,1340.57 1930.88,1355.31 1935.96,1350 
  1941.05,1345.15 1946.13,1361.94 1951.22,1356.84 1956.3,1353.34 1961.39,1365.58 1966.47,1358.2 1971.55,1379.13 1976.64,1352.35 1981.72,1372.6 1986.81,1321.41 
  1991.89,1361.76 1996.98,1351.14 2002.06,1347.92 2007.15,1330.02 2012.23,1354.63 2017.32,1346.16 2022.4,1342.55 2027.49,1349.3 2032.57,1356.83 2037.66,1371.38 
  2042.74,1349.14 2047.83,1352.66 2052.91,1349.34 2058,1316.12 2063.08,1351.68 2068.16,1335.28 2073.25,1335.88 2078.33,1355.99 2083.42,1346.68 2088.5,1344.87 
  2093.59,1325.21 2098.67,1330.87 2103.76,1348.82 2108.84,1348.61 2113.93,1350.92 2119.01,1344.22 2124.1,1321.02 2129.18,1323.54 2134.27,1352.57 2139.35,1343.82 
  2144.44,1349.27 2149.52,1375.13 2154.6,1355.88 2159.69,1353.73 2164.77,1367.99 2169.86,1322.4 2174.94,1330.95 2180.03,1307.01 2185.11,1314.02 2190.2,1295.39 
  2195.28,1303.11 2200.37,1328.63 2205.45,1334.32 2210.54,1291.77 2215.62,1314.43 2220.71,1323.8 2225.79,1321.82 2230.88,1316.45 2235.96,1351.45 2241.04,1345.19 
  2246.13,1350.02 2251.21,1344.76 2256.3,1351.84 2261.38,1354.25 2266.47,1337.16 2271.55,1340.24 2276.64,1358.15 2281.72,1369.98 2286.81,1356.42 2291.89,1367.2 
  
  "/>
<path clip-path="url(#clip990)" d="
M1815.95 248.629 L2281.07 248.629 L2281.07 93.1086 L1815.95 93.1086  Z
  " fill="#ffffff" fill-rule="evenodd" fill-opacity="1"/>
<polyline clip-path="url(#clip990)" style="stroke:#000000; stroke-linecap:round; stroke-linejoin:round; stroke-width:4; stroke-opacity:1; fill:none" points="
  1815.95,248.629 2281.07,248.629 2281.07,93.1086 1815.95,93.1086 1815.95,248.629 
  "/>
<polyline clip-path="url(#clip990)" style="stroke:#009af9; stroke-linecap:round; stroke-linejoin:round; stroke-width:4; stroke-opacity:1; fill:none" points="
  1839.85,144.949 1983.21,144.949 
  "/>
<path clip-path="url(#clip990)" d="M2025.53 137.067 L2025.53 141.094 Q2023.73 140.169 2021.78 139.706 Q2019.84 139.243 2017.76 139.243 Q2014.59 139.243 2012.99 140.215 Q2011.41 141.187 2011.41 143.131 Q2011.41 144.613 2012.55 145.469 Q2013.68 146.303 2017.11 147.067 L2018.57 147.391 Q2023.1 148.363 2025 150.145 Q2026.92 151.905 2026.92 155.076 Q2026.92 158.687 2024.05 160.793 Q2021.21 162.9 2016.21 162.9 Q2014.12 162.9 2011.85 162.483 Q2009.61 162.09 2007.11 161.28 L2007.11 156.881 Q2009.47 158.108 2011.76 158.733 Q2014.05 159.335 2016.3 159.335 Q2019.31 159.335 2020.93 158.317 Q2022.55 157.275 2022.55 155.4 Q2022.55 153.664 2021.37 152.738 Q2020.21 151.812 2016.25 150.956 L2014.77 150.608 Q2010.81 149.775 2009.05 148.062 Q2007.29 146.326 2007.29 143.317 Q2007.29 139.659 2009.89 137.669 Q2012.48 135.678 2017.25 135.678 Q2019.61 135.678 2021.69 136.025 Q2023.78 136.372 2025.53 137.067 Z" fill="#000000" fill-rule="evenodd" fill-opacity="1" /><path clip-path="url(#clip990)" d="M2033.71 126.21 L2037.97 126.21 L2037.97 162.229 L2033.71 162.229 L2033.71 126.21 Z" fill="#000000" fill-rule="evenodd" fill-opacity="1" /><path clip-path="url(#clip990)" d="M2056.92 139.289 Q2053.5 139.289 2051.51 141.974 Q2049.52 144.636 2049.52 149.289 Q2049.52 153.942 2051.48 156.627 Q2053.47 159.289 2056.92 159.289 Q2060.33 159.289 2062.32 156.604 Q2064.31 153.918 2064.31 149.289 Q2064.31 144.682 2062.32 141.997 Q2060.33 139.289 2056.92 139.289 M2056.92 135.678 Q2062.48 135.678 2065.65 139.289 Q2068.82 142.9 2068.82 149.289 Q2068.82 155.655 2065.65 159.289 Q2062.48 162.9 2056.92 162.9 Q2051.34 162.9 2048.17 159.289 Q2045.03 155.655 2045.03 149.289 Q2045.03 142.9 2048.17 139.289 Q2051.34 135.678 2056.92 135.678 Z" fill="#000000" fill-rule="evenodd" fill-opacity="1" /><path clip-path="url(#clip990)" d="M2073.4 136.303 L2077.66 136.303 L2082.99 156.534 L2088.29 136.303 L2093.31 136.303 L2098.64 156.534 L2103.94 136.303 L2108.2 136.303 L2101.41 162.229 L2096.39 162.229 L2090.81 140.979 L2085.21 162.229 L2080.19 162.229 L2073.4 136.303 Z" fill="#000000" fill-rule="evenodd" fill-opacity="1" /><path clip-path="url(#clip990)" d="M2149.91 141.28 Q2151.51 138.409 2153.73 137.044 Q2155.95 135.678 2158.96 135.678 Q2163.01 135.678 2165.21 138.525 Q2167.41 141.349 2167.41 146.581 L2167.41 162.229 L2163.13 162.229 L2163.13 146.719 Q2163.13 142.993 2161.81 141.187 Q2160.49 139.382 2157.78 139.382 Q2154.47 139.382 2152.55 141.581 Q2150.63 143.78 2150.63 147.576 L2150.63 162.229 L2146.34 162.229 L2146.34 146.719 Q2146.34 142.969 2145.02 141.187 Q2143.71 139.382 2140.95 139.382 Q2137.69 139.382 2135.77 141.604 Q2133.84 143.803 2133.84 147.576 L2133.84 162.229 L2129.56 162.229 L2129.56 136.303 L2133.84 136.303 L2133.84 140.331 Q2135.3 137.946 2137.34 136.812 Q2139.38 135.678 2142.18 135.678 Q2145 135.678 2146.97 137.113 Q2148.96 138.548 2149.91 141.28 Z" fill="#000000" fill-rule="evenodd" fill-opacity="1" /><path clip-path="url(#clip990)" d="M2185.95 139.289 Q2182.52 139.289 2180.53 141.974 Q2178.54 144.636 2178.54 149.289 Q2178.54 153.942 2180.51 156.627 Q2182.5 159.289 2185.95 159.289 Q2189.35 159.289 2191.34 156.604 Q2193.33 153.918 2193.33 149.289 Q2193.33 144.682 2191.34 141.997 Q2189.35 139.289 2185.95 139.289 M2185.95 135.678 Q2191.51 135.678 2194.68 139.289 Q2197.85 142.9 2197.85 149.289 Q2197.85 155.655 2194.68 159.289 Q2191.51 162.9 2185.95 162.9 Q2180.37 162.9 2177.2 159.289 Q2174.05 155.655 2174.05 149.289 Q2174.05 142.9 2177.2 139.289 Q2180.37 135.678 2185.95 135.678 Z" fill="#000000" fill-rule="evenodd" fill-opacity="1" /><path clip-path="url(#clip990)" d="M2221.97 140.238 L2221.97 126.21 L2226.23 126.21 L2226.23 162.229 L2221.97 162.229 L2221.97 158.34 Q2220.63 160.655 2218.57 161.789 Q2216.53 162.9 2213.66 162.9 Q2208.96 162.9 2206 159.15 Q2203.06 155.4 2203.06 149.289 Q2203.06 143.178 2206 139.428 Q2208.96 135.678 2213.66 135.678 Q2216.53 135.678 2218.57 136.812 Q2220.63 137.923 2221.97 140.238 M2207.45 149.289 Q2207.45 153.988 2209.38 156.673 Q2211.32 159.335 2214.7 159.335 Q2218.08 159.335 2220.02 156.673 Q2221.97 153.988 2221.97 149.289 Q2221.97 144.59 2220.02 141.928 Q2218.08 139.243 2214.7 139.243 Q2211.32 139.243 2209.38 141.928 Q2207.45 144.59 2207.45 149.289 Z" fill="#000000" fill-rule="evenodd" fill-opacity="1" /><path clip-path="url(#clip990)" d="M2257.18 148.201 L2257.18 150.284 L2237.59 150.284 Q2237.87 154.682 2240.23 156.997 Q2242.62 159.289 2246.85 159.289 Q2249.31 159.289 2251.6 158.687 Q2253.91 158.085 2256.18 156.881 L2256.18 160.909 Q2253.89 161.881 2251.48 162.391 Q2249.08 162.9 2246.6 162.9 Q2240.39 162.9 2236.76 159.289 Q2233.15 155.678 2233.15 149.52 Q2233.15 143.155 2236.58 139.428 Q2240.02 135.678 2245.86 135.678 Q2251.09 135.678 2254.12 139.057 Q2257.18 142.414 2257.18 148.201 M2252.92 146.951 Q2252.87 143.456 2250.95 141.372 Q2249.05 139.289 2245.9 139.289 Q2242.34 139.289 2240.19 141.303 Q2238.06 143.317 2237.73 146.974 L2252.92 146.951 Z" fill="#000000" fill-rule="evenodd" fill-opacity="1" /><polyline clip-path="url(#clip990)" style="stroke:#e26f46; stroke-linecap:round; stroke-linejoin:round; stroke-width:4; stroke-opacity:1; fill:none" points="
  1839.85,196.789 1983.21,196.789 
  "/>
<path clip-path="url(#clip990)" d="M2023.61 178.05 L2023.61 181.592 L2019.54 181.592 Q2017.25 181.592 2016.34 182.518 Q2015.47 183.444 2015.47 185.851 L2015.47 188.143 L2022.48 188.143 L2022.48 191.453 L2015.47 191.453 L2015.47 214.069 L2011.18 214.069 L2011.18 191.453 L2007.11 191.453 L2007.11 188.143 L2011.18 188.143 L2011.18 186.337 Q2011.18 182.009 2013.2 180.041 Q2015.21 178.05 2019.59 178.05 L2023.61 178.05 Z" fill="#000000" fill-rule="evenodd" fill-opacity="1" /><path clip-path="url(#clip990)" d="M2038.96 201.036 Q2033.8 201.036 2031.81 202.217 Q2029.82 203.397 2029.82 206.245 Q2029.82 208.513 2031.3 209.856 Q2032.8 211.175 2035.37 211.175 Q2038.91 211.175 2041.04 208.675 Q2043.2 206.152 2043.2 201.985 L2043.2 201.036 L2038.96 201.036 M2047.46 199.277 L2047.46 214.069 L2043.2 214.069 L2043.2 210.133 Q2041.74 212.495 2039.56 213.629 Q2037.39 214.74 2034.24 214.74 Q2030.26 214.74 2027.9 212.518 Q2025.56 210.272 2025.56 206.522 Q2025.56 202.147 2028.47 199.925 Q2031.41 197.703 2037.22 197.703 L2043.2 197.703 L2043.2 197.286 Q2043.2 194.347 2041.25 192.749 Q2039.33 191.129 2035.84 191.129 Q2033.61 191.129 2031.51 191.661 Q2029.4 192.194 2027.46 193.259 L2027.46 189.323 Q2029.79 188.421 2031.99 187.981 Q2034.19 187.518 2036.28 187.518 Q2041.9 187.518 2044.68 190.434 Q2047.46 193.351 2047.46 199.277 Z" fill="#000000" fill-rule="evenodd" fill-opacity="1" /><path clip-path="url(#clip990)" d="M2072.76 188.907 L2072.76 192.934 Q2070.95 192.009 2069.01 191.546 Q2067.06 191.083 2064.98 191.083 Q2061.81 191.083 2060.21 192.055 Q2058.64 193.027 2058.64 194.971 Q2058.64 196.453 2059.77 197.309 Q2060.9 198.143 2064.33 198.907 L2065.79 199.231 Q2070.33 200.203 2072.22 201.985 Q2074.15 203.745 2074.15 206.916 Q2074.15 210.527 2071.28 212.633 Q2068.43 214.74 2063.43 214.74 Q2061.34 214.74 2059.08 214.323 Q2056.83 213.93 2054.33 213.12 L2054.33 208.721 Q2056.69 209.948 2058.98 210.573 Q2061.28 211.175 2063.52 211.175 Q2066.53 211.175 2068.15 210.157 Q2069.77 209.115 2069.77 207.24 Q2069.77 205.504 2068.59 204.578 Q2067.43 203.652 2063.47 202.796 L2061.99 202.448 Q2058.03 201.615 2056.28 199.902 Q2054.52 198.166 2054.52 195.157 Q2054.52 191.499 2057.11 189.509 Q2059.7 187.518 2064.47 187.518 Q2066.83 187.518 2068.91 187.865 Q2071 188.212 2072.76 188.907 Z" fill="#000000" fill-rule="evenodd" fill-opacity="1" /><path clip-path="url(#clip990)" d="M2085.14 180.782 L2085.14 188.143 L2093.91 188.143 L2093.91 191.453 L2085.14 191.453 L2085.14 205.527 Q2085.14 208.698 2086 209.601 Q2086.88 210.504 2089.54 210.504 L2093.91 210.504 L2093.91 214.069 L2089.54 214.069 Q2084.61 214.069 2082.73 212.24 Q2080.86 210.388 2080.86 205.527 L2080.86 191.453 L2077.73 191.453 L2077.73 188.143 L2080.86 188.143 L2080.86 180.782 L2085.14 180.782 Z" fill="#000000" fill-rule="evenodd" fill-opacity="1" /><path clip-path="url(#clip990)" d="M2134.77 193.12 Q2136.37 190.249 2138.59 188.884 Q2140.81 187.518 2143.82 187.518 Q2147.87 187.518 2150.07 190.365 Q2152.27 193.189 2152.27 198.421 L2152.27 214.069 L2147.99 214.069 L2147.99 198.559 Q2147.99 194.833 2146.67 193.027 Q2145.35 191.222 2142.64 191.222 Q2139.33 191.222 2137.41 193.421 Q2135.49 195.62 2135.49 199.416 L2135.49 214.069 L2131.21 214.069 L2131.21 198.559 Q2131.21 194.809 2129.89 193.027 Q2128.57 191.222 2125.81 191.222 Q2122.55 191.222 2120.63 193.444 Q2118.71 195.643 2118.71 199.416 L2118.71 214.069 L2114.42 214.069 L2114.42 188.143 L2118.71 188.143 L2118.71 192.171 Q2120.16 189.786 2122.2 188.652 Q2124.24 187.518 2127.04 187.518 Q2129.86 187.518 2131.83 188.953 Q2133.82 190.388 2134.77 193.12 Z" fill="#000000" fill-rule="evenodd" fill-opacity="1" /><path clip-path="url(#clip990)" d="M2170.81 191.129 Q2167.39 191.129 2165.39 193.814 Q2163.4 196.476 2163.4 201.129 Q2163.4 205.782 2165.37 208.467 Q2167.36 211.129 2170.81 211.129 Q2174.21 211.129 2176.21 208.444 Q2178.2 205.758 2178.2 201.129 Q2178.2 196.522 2176.21 193.837 Q2174.21 191.129 2170.81 191.129 M2170.81 187.518 Q2176.37 187.518 2179.54 191.129 Q2182.71 194.74 2182.71 201.129 Q2182.71 207.495 2179.54 211.129 Q2176.37 214.74 2170.81 214.74 Q2165.23 214.74 2162.06 211.129 Q2158.91 207.495 2158.91 201.129 Q2158.91 194.74 2162.06 191.129 Q2165.23 187.518 2170.81 187.518 Z" fill="#000000" fill-rule="evenodd" fill-opacity="1" /><path clip-path="url(#clip990)" d="M2206.83 192.078 L2206.83 178.05 L2211.09 178.05 L2211.09 214.069 L2206.83 214.069 L2206.83 210.18 Q2205.49 212.495 2203.43 213.629 Q2201.39 214.74 2198.52 214.74 Q2193.82 214.74 2190.86 210.99 Q2187.92 207.24 2187.92 201.129 Q2187.92 195.018 2190.86 191.268 Q2193.82 187.518 2198.52 187.518 Q2201.39 187.518 2203.43 188.652 Q2205.49 189.763 2206.83 192.078 M2192.32 201.129 Q2192.32 205.828 2194.24 208.513 Q2196.18 211.175 2199.56 211.175 Q2202.94 211.175 2204.89 208.513 Q2206.83 205.828 2206.83 201.129 Q2206.83 196.43 2204.89 193.768 Q2202.94 191.083 2199.56 191.083 Q2196.18 191.083 2194.24 193.768 Q2192.32 196.43 2192.32 201.129 Z" fill="#000000" fill-rule="evenodd" fill-opacity="1" /><path clip-path="url(#clip990)" d="M2242.04 200.041 L2242.04 202.124 L2222.45 202.124 Q2222.73 206.522 2225.09 208.837 Q2227.48 211.129 2231.71 211.129 Q2234.17 211.129 2236.46 210.527 Q2238.77 209.925 2241.04 208.721 L2241.04 212.749 Q2238.75 213.721 2236.34 214.231 Q2233.94 214.74 2231.46 214.74 Q2225.26 214.74 2221.62 211.129 Q2218.01 207.518 2218.01 201.36 Q2218.01 194.995 2221.44 191.268 Q2224.89 187.518 2230.72 187.518 Q2235.95 187.518 2238.98 190.897 Q2242.04 194.254 2242.04 200.041 M2237.78 198.791 Q2237.73 195.296 2235.81 193.212 Q2233.91 191.129 2230.76 191.129 Q2227.2 191.129 2225.05 193.143 Q2222.92 195.157 2222.59 198.814 L2237.78 198.791 Z" fill="#000000" fill-rule="evenodd" fill-opacity="1" /></svg>
