<?xml version="1.0" encoding="utf-8"?>
<svg xmlns="http://www.w3.org/2000/svg" xmlns:xlink="http://www.w3.org/1999/xlink" width="600" height="400" viewBox="0 0 2400 1600">
<defs>
  <clipPath id="clip670">
    <rect x="0" y="0" width="2400" height="1600"/>
  </clipPath>
</defs>
<path clip-path="url(#clip670)" d="
M0 1600 L2400 1600 L2400 0 L0 0  Z
  " fill="#ffffff" fill-rule="evenodd" fill-opacity="1"/>
<defs>
  <clipPath id="clip671">
    <rect x="480" y="0" width="1681" height="1600"/>
  </clipPath>
</defs>
<path clip-path="url(#clip670)" d="
M232.389 1423.18 L2352.76 1423.18 L2352.76 47.2441 L232.389 47.2441  Z
  " fill="#ffffff" fill-rule="evenodd" fill-opacity="1"/>
<defs>
  <clipPath id="clip672">
    <rect x="232" y="47" width="2121" height="1377"/>
  </clipPath>
</defs>
<polyline clip-path="url(#clip672)" style="stroke:#000000; stroke-linecap:round; stroke-linejoin:round; stroke-width:2; stroke-opacity:0.1; fill:none" points="
  287.386,1423.18 287.386,47.2441 
  "/>
<polyline clip-path="url(#clip672)" style="stroke:#000000; stroke-linecap:round; stroke-linejoin:round; stroke-width:2; stroke-opacity:0.1; fill:none" points="
  788.726,1423.18 788.726,47.2441 
  "/>
<polyline clip-path="url(#clip672)" style="stroke:#000000; stroke-linecap:round; stroke-linejoin:round; stroke-width:2; stroke-opacity:0.1; fill:none" points="
  1290.07,1423.18 1290.07,47.2441 
  "/>
<polyline clip-path="url(#clip672)" style="stroke:#000000; stroke-linecap:round; stroke-linejoin:round; stroke-width:2; stroke-opacity:0.1; fill:none" points="
  1791.41,1423.18 1791.41,47.2441 
  "/>
<polyline clip-path="url(#clip672)" style="stroke:#000000; stroke-linecap:round; stroke-linejoin:round; stroke-width:2; stroke-opacity:0.1; fill:none" points="
  2292.75,1423.18 2292.75,47.2441 
  "/>
<polyline clip-path="url(#clip670)" style="stroke:#000000; stroke-linecap:round; stroke-linejoin:round; stroke-width:4; stroke-opacity:1; fill:none" points="
  232.389,1423.18 2352.76,1423.18 
  "/>
<polyline clip-path="url(#clip670)" style="stroke:#000000; stroke-linecap:round; stroke-linejoin:round; stroke-width:4; stroke-opacity:1; fill:none" points="
  287.386,1423.18 287.386,1404.28 
  "/>
<polyline clip-path="url(#clip670)" style="stroke:#000000; stroke-linecap:round; stroke-linejoin:round; stroke-width:4; stroke-opacity:1; fill:none" points="
  788.726,1423.18 788.726,1404.28 
  "/>
<polyline clip-path="url(#clip670)" style="stroke:#000000; stroke-linecap:round; stroke-linejoin:round; stroke-width:4; stroke-opacity:1; fill:none" points="
  1290.07,1423.18 1290.07,1404.28 
  "/>
<polyline clip-path="url(#clip670)" style="stroke:#000000; stroke-linecap:round; stroke-linejoin:round; stroke-width:4; stroke-opacity:1; fill:none" points="
  1791.41,1423.18 1791.41,1404.28 
  "/>
<polyline clip-path="url(#clip670)" style="stroke:#000000; stroke-linecap:round; stroke-linejoin:round; stroke-width:4; stroke-opacity:1; fill:none" points="
  2292.75,1423.18 2292.75,1404.28 
  "/>
<path clip-path="url(#clip670)" d="M195.188 1454.1 Q191.577 1454.1 189.748 1457.66 Q187.942 1461.2 187.942 1468.33 Q187.942 1475.44 189.748 1479.01 Q191.577 1482.55 195.188 1482.55 Q198.822 1482.55 200.628 1479.01 Q202.456 1475.44 202.456 1468.33 Q202.456 1461.2 200.628 1457.66 Q198.822 1454.1 195.188 1454.1 M195.188 1450.39 Q200.998 1450.39 204.053 1455 Q207.132 1459.58 207.132 1468.33 Q207.132 1477.06 204.053 1481.67 Q200.998 1486.25 195.188 1486.25 Q189.378 1486.25 186.299 1481.67 Q183.243 1477.06 183.243 1468.33 Q183.243 1459.58 186.299 1455 Q189.378 1450.39 195.188 1450.39 Z" fill="#000000" fill-rule="evenodd" fill-opacity="1" /><path clip-path="url(#clip670)" d="M215.35 1479.7 L220.234 1479.7 L220.234 1485.58 L215.35 1485.58 L215.35 1479.7 Z" fill="#000000" fill-rule="evenodd" fill-opacity="1" /><path clip-path="url(#clip670)" d="M240.419 1454.1 Q236.808 1454.1 234.979 1457.66 Q233.174 1461.2 233.174 1468.33 Q233.174 1475.44 234.979 1479.01 Q236.808 1482.55 240.419 1482.55 Q244.053 1482.55 245.859 1479.01 Q247.687 1475.44 247.687 1468.33 Q247.687 1461.2 245.859 1457.66 Q244.053 1454.1 240.419 1454.1 M240.419 1450.39 Q246.229 1450.39 249.285 1455 Q252.363 1459.58 252.363 1468.33 Q252.363 1477.06 249.285 1481.67 Q246.229 1486.25 240.419 1486.25 Q234.609 1486.25 231.53 1481.67 Q228.475 1477.06 228.475 1468.33 Q228.475 1459.58 231.53 1455 Q234.609 1450.39 240.419 1450.39 Z" fill="#000000" fill-rule="evenodd" fill-opacity="1" /><path clip-path="url(#clip670)" d="M270.581 1454.1 Q266.97 1454.1 265.141 1457.66 Q263.336 1461.2 263.336 1468.33 Q263.336 1475.44 265.141 1479.01 Q266.97 1482.55 270.581 1482.55 Q274.215 1482.55 276.021 1479.01 Q277.849 1475.44 277.849 1468.33 Q277.849 1461.2 276.021 1457.66 Q274.215 1454.1 270.581 1454.1 M270.581 1450.39 Q276.391 1450.39 279.447 1455 Q282.525 1459.58 282.525 1468.33 Q282.525 1477.06 279.447 1481.67 Q276.391 1486.25 270.581 1486.25 Q264.771 1486.25 261.692 1481.67 Q258.636 1477.06 258.636 1468.33 Q258.636 1459.58 261.692 1455 Q264.771 1450.39 270.581 1450.39 Z" fill="#000000" fill-rule="evenodd" fill-opacity="1" /><path clip-path="url(#clip670)" d="M311.692 1459.65 L302.317 1472.27 L312.178 1485.58 L307.155 1485.58 L299.608 1475.39 L292.062 1485.58 L287.039 1485.58 L297.108 1472.02 L287.896 1459.65 L292.919 1459.65 L299.794 1468.89 L306.669 1459.65 L311.692 1459.65 Z" fill="#000000" fill-rule="evenodd" fill-opacity="1" /><path clip-path="url(#clip670)" d="M319.608 1481.64 L327.247 1481.64 L327.247 1455.28 L318.937 1456.95 L318.937 1452.69 L327.201 1451.02 L331.877 1451.02 L331.877 1481.64 L339.516 1481.64 L339.516 1485.58 L319.608 1485.58 L319.608 1481.64 Z" fill="#000000" fill-rule="evenodd" fill-opacity="1" /><path clip-path="url(#clip670)" d="M358.96 1454.1 Q355.349 1454.1 353.52 1457.66 Q351.715 1461.2 351.715 1468.33 Q351.715 1475.44 353.52 1479.01 Q355.349 1482.55 358.96 1482.55 Q362.594 1482.55 364.4 1479.01 Q366.228 1475.44 366.228 1468.33 Q366.228 1461.2 364.4 1457.66 Q362.594 1454.1 358.96 1454.1 M358.96 1450.39 Q364.77 1450.39 367.826 1455 Q370.904 1459.58 370.904 1468.33 Q370.904 1477.06 367.826 1481.67 Q364.77 1486.25 358.96 1486.25 Q353.15 1486.25 350.071 1481.67 Q347.016 1477.06 347.016 1468.33 Q347.016 1459.58 350.071 1455 Q353.15 1450.39 358.96 1450.39 Z" fill="#000000" fill-rule="evenodd" fill-opacity="1" /><path clip-path="url(#clip670)" d="M384.122 1459.35 Q382.085 1459.35 380.904 1460.56 Q379.724 1461.78 379.724 1463.89 Q379.724 1465.97 380.904 1467.18 Q382.085 1468.4 384.122 1468.4 Q386.136 1468.4 387.316 1467.18 Q388.497 1465.97 388.497 1463.89 Q388.497 1461.78 387.316 1460.56 Q386.136 1459.35 384.122 1459.35 M390.094 1451.16 L390.094 1453.54 Q388.96 1453.08 387.802 1452.85 Q386.645 1452.59 385.511 1452.59 Q382.548 1452.59 380.974 1454.33 Q379.4 1456.09 379.168 1459.63 Q380.048 1458.5 381.367 1457.89 Q382.71 1457.29 384.284 1457.29 Q387.64 1457.29 389.585 1459.05 Q391.529 1460.83 391.529 1463.89 Q391.529 1466.83 389.492 1468.66 Q387.478 1470.46 384.122 1470.46 Q380.256 1470.46 378.219 1467.89 Q376.182 1465.33 376.182 1460.42 Q376.182 1455.83 378.682 1453.13 Q381.182 1450.39 385.395 1450.39 Q386.529 1450.39 387.687 1450.58 Q388.844 1450.79 390.094 1451.16 Z" fill="#000000" fill-rule="evenodd" fill-opacity="1" /><path clip-path="url(#clip670)" d="M671.215 1481.64 L678.854 1481.64 L678.854 1455.28 L670.544 1456.95 L670.544 1452.69 L678.808 1451.02 L683.484 1451.02 L683.484 1481.64 L691.122 1481.64 L691.122 1485.58 L671.215 1485.58 L671.215 1481.64 Z" fill="#000000" fill-rule="evenodd" fill-opacity="1" /><path clip-path="url(#clip670)" d="M710.567 1454.1 Q706.956 1454.1 705.127 1457.66 Q703.321 1461.2 703.321 1468.33 Q703.321 1475.44 705.127 1479.01 Q706.956 1482.55 710.567 1482.55 Q714.201 1482.55 716.007 1479.01 Q717.835 1475.44 717.835 1468.33 Q717.835 1461.2 716.007 1457.66 Q714.201 1454.1 710.567 1454.1 M710.567 1450.39 Q716.377 1450.39 719.433 1455 Q722.511 1459.58 722.511 1468.33 Q722.511 1477.06 719.433 1481.67 Q716.377 1486.25 710.567 1486.25 Q704.757 1486.25 701.678 1481.67 Q698.622 1477.06 698.622 1468.33 Q698.622 1459.58 701.678 1455 Q704.757 1450.39 710.567 1450.39 Z" fill="#000000" fill-rule="evenodd" fill-opacity="1" /><path clip-path="url(#clip670)" d="M730.729 1479.7 L735.613 1479.7 L735.613 1485.58 L730.729 1485.58 L730.729 1479.7 Z" fill="#000000" fill-rule="evenodd" fill-opacity="1" /><path clip-path="url(#clip670)" d="M755.798 1454.1 Q752.187 1454.1 750.358 1457.66 Q748.553 1461.2 748.553 1468.33 Q748.553 1475.44 750.358 1479.01 Q752.187 1482.55 755.798 1482.55 Q759.432 1482.55 761.238 1479.01 Q763.067 1475.44 763.067 1468.33 Q763.067 1461.2 761.238 1457.66 Q759.432 1454.1 755.798 1454.1 M755.798 1450.39 Q761.608 1450.39 764.664 1455 Q767.742 1459.58 767.742 1468.33 Q767.742 1477.06 764.664 1481.67 Q761.608 1486.25 755.798 1486.25 Q749.988 1486.25 746.909 1481.67 Q743.854 1477.06 743.854 1468.33 Q743.854 1459.58 746.909 1455 Q749.988 1450.39 755.798 1450.39 Z" fill="#000000" fill-rule="evenodd" fill-opacity="1" /><path clip-path="url(#clip670)" d="M785.96 1454.1 Q782.349 1454.1 780.52 1457.66 Q778.715 1461.2 778.715 1468.33 Q778.715 1475.44 780.52 1479.01 Q782.349 1482.55 785.96 1482.55 Q789.594 1482.55 791.4 1479.01 Q793.228 1475.44 793.228 1468.33 Q793.228 1461.2 791.4 1457.66 Q789.594 1454.1 785.96 1454.1 M785.96 1450.39 Q791.77 1450.39 794.826 1455 Q797.904 1459.58 797.904 1468.33 Q797.904 1477.06 794.826 1481.67 Q791.77 1486.25 785.96 1486.25 Q780.15 1486.25 777.071 1481.67 Q774.016 1477.06 774.016 1468.33 Q774.016 1459.58 777.071 1455 Q780.15 1450.39 785.96 1450.39 Z" fill="#000000" fill-rule="evenodd" fill-opacity="1" /><path clip-path="url(#clip670)" d="M827.071 1459.65 L817.696 1472.27 L827.557 1485.58 L822.534 1485.58 L814.988 1475.39 L807.441 1485.58 L802.418 1485.58 L812.488 1472.02 L803.275 1459.65 L808.298 1459.65 L815.173 1468.89 L822.048 1459.65 L827.071 1459.65 Z" fill="#000000" fill-rule="evenodd" fill-opacity="1" /><path clip-path="url(#clip670)" d="M834.987 1481.64 L842.626 1481.64 L842.626 1455.28 L834.316 1456.95 L834.316 1452.69 L842.58 1451.02 L847.256 1451.02 L847.256 1481.64 L854.895 1481.64 L854.895 1485.58 L834.987 1485.58 L834.987 1481.64 Z" fill="#000000" fill-rule="evenodd" fill-opacity="1" /><path clip-path="url(#clip670)" d="M874.339 1454.1 Q870.728 1454.1 868.899 1457.66 Q867.094 1461.2 867.094 1468.33 Q867.094 1475.44 868.899 1479.01 Q870.728 1482.55 874.339 1482.55 Q877.973 1482.55 879.779 1479.01 Q881.608 1475.44 881.608 1468.33 Q881.608 1461.2 879.779 1457.66 Q877.973 1454.1 874.339 1454.1 M874.339 1450.39 Q880.149 1450.39 883.205 1455 Q886.283 1459.58 886.283 1468.33 Q886.283 1477.06 883.205 1481.67 Q880.149 1486.25 874.339 1486.25 Q868.529 1486.25 865.45 1481.67 Q862.395 1477.06 862.395 1468.33 Q862.395 1459.58 865.45 1455 Q868.529 1450.39 874.339 1450.39 Z" fill="#000000" fill-rule="evenodd" fill-opacity="1" /><path clip-path="url(#clip670)" d="M899.501 1459.35 Q897.464 1459.35 896.283 1460.56 Q895.103 1461.78 895.103 1463.89 Q895.103 1465.97 896.283 1467.18 Q897.464 1468.4 899.501 1468.4 Q901.515 1468.4 902.695 1467.18 Q903.876 1465.97 903.876 1463.89 Q903.876 1461.78 902.695 1460.56 Q901.515 1459.35 899.501 1459.35 M905.473 1451.16 L905.473 1453.54 Q904.339 1453.08 903.182 1452.85 Q902.024 1452.59 900.89 1452.59 Q897.927 1452.59 896.353 1454.33 Q894.779 1456.09 894.547 1459.63 Q895.427 1458.5 896.746 1457.89 Q898.089 1457.29 899.663 1457.29 Q903.019 1457.29 904.964 1459.05 Q906.908 1460.83 906.908 1463.89 Q906.908 1466.83 904.871 1468.66 Q902.857 1470.46 899.501 1470.46 Q895.635 1470.46 893.598 1467.89 Q891.561 1465.33 891.561 1460.42 Q891.561 1455.83 894.061 1453.13 Q896.561 1450.39 900.774 1450.39 Q901.908 1450.39 903.066 1450.58 Q904.223 1450.79 905.473 1451.16 Z" fill="#000000" fill-rule="evenodd" fill-opacity="1" /><path clip-path="url(#clip670)" d="M1176.64 1481.64 L1192.96 1481.64 L1192.96 1485.58 L1171.02 1485.58 L1171.02 1481.64 Q1173.68 1478.89 1178.26 1474.26 Q1182.87 1469.61 1184.05 1468.27 Q1186.29 1465.74 1187.17 1464.01 Q1188.08 1462.25 1188.08 1460.56 Q1188.08 1457.8 1186.13 1456.07 Q1184.21 1454.33 1181.11 1454.33 Q1178.91 1454.33 1176.46 1455.09 Q1174.02 1455.86 1171.25 1457.41 L1171.25 1452.69 Q1174.07 1451.55 1176.52 1450.97 Q1178.98 1450.39 1181.02 1450.39 Q1186.39 1450.39 1189.58 1453.08 Q1192.77 1455.77 1192.77 1460.26 Q1192.77 1462.39 1191.96 1464.31 Q1191.18 1466.2 1189.07 1468.8 Q1188.49 1469.47 1185.39 1472.69 Q1182.29 1475.88 1176.64 1481.64 Z" fill="#000000" fill-rule="evenodd" fill-opacity="1" /><path clip-path="url(#clip670)" d="M1212.77 1454.1 Q1209.16 1454.1 1207.33 1457.66 Q1205.53 1461.2 1205.53 1468.33 Q1205.53 1475.44 1207.33 1479.01 Q1209.16 1482.55 1212.77 1482.55 Q1216.41 1482.55 1218.21 1479.01 Q1220.04 1475.44 1220.04 1468.33 Q1220.04 1461.2 1218.21 1457.66 Q1216.41 1454.1 1212.77 1454.1 M1212.77 1450.39 Q1218.58 1450.39 1221.64 1455 Q1224.72 1459.58 1224.72 1468.33 Q1224.72 1477.06 1221.64 1481.67 Q1218.58 1486.25 1212.77 1486.25 Q1206.96 1486.25 1203.89 1481.67 Q1200.83 1477.06 1200.83 1468.33 Q1200.83 1459.58 1203.89 1455 Q1206.96 1450.39 1212.77 1450.39 Z" fill="#000000" fill-rule="evenodd" fill-opacity="1" /><path clip-path="url(#clip670)" d="M1232.94 1479.7 L1237.82 1479.7 L1237.82 1485.58 L1232.94 1485.58 L1232.94 1479.7 Z" fill="#000000" fill-rule="evenodd" fill-opacity="1" /><path clip-path="url(#clip670)" d="M1258.01 1454.1 Q1254.39 1454.1 1252.57 1457.66 Q1250.76 1461.2 1250.76 1468.33 Q1250.76 1475.44 1252.57 1479.01 Q1254.39 1482.55 1258.01 1482.55 Q1261.64 1482.55 1263.45 1479.01 Q1265.27 1475.44 1265.27 1468.33 Q1265.27 1461.2 1263.45 1457.66 Q1261.64 1454.1 1258.01 1454.1 M1258.01 1450.39 Q1263.82 1450.39 1266.87 1455 Q1269.95 1459.58 1269.95 1468.33 Q1269.95 1477.06 1266.87 1481.67 Q1263.82 1486.25 1258.01 1486.25 Q1252.2 1486.25 1249.12 1481.67 Q1246.06 1477.06 1246.06 1468.33 Q1246.06 1459.58 1249.12 1455 Q1252.2 1450.39 1258.01 1450.39 Z" fill="#000000" fill-rule="evenodd" fill-opacity="1" /><path clip-path="url(#clip670)" d="M1288.17 1454.1 Q1284.56 1454.1 1282.73 1457.66 Q1280.92 1461.2 1280.92 1468.33 Q1280.92 1475.44 1282.73 1479.01 Q1284.56 1482.55 1288.17 1482.55 Q1291.8 1482.55 1293.61 1479.01 Q1295.44 1475.44 1295.44 1468.33 Q1295.44 1461.2 1293.61 1457.66 Q1291.8 1454.1 1288.17 1454.1 M1288.17 1450.39 Q1293.98 1450.39 1297.03 1455 Q1300.11 1459.58 1300.11 1468.33 Q1300.11 1477.06 1297.03 1481.67 Q1293.98 1486.25 1288.17 1486.25 Q1282.36 1486.25 1279.28 1481.67 Q1276.22 1477.06 1276.22 1468.33 Q1276.22 1459.58 1279.28 1455 Q1282.36 1450.39 1288.17 1450.39 Z" fill="#000000" fill-rule="evenodd" fill-opacity="1" /><path clip-path="url(#clip670)" d="M1329.28 1459.65 L1319.9 1472.27 L1329.76 1485.58 L1324.74 1485.58 L1317.2 1475.39 L1309.65 1485.58 L1304.63 1485.58 L1314.7 1472.02 L1305.48 1459.65 L1310.51 1459.65 L1317.38 1468.89 L1324.26 1459.65 L1329.28 1459.65 Z" fill="#000000" fill-rule="evenodd" fill-opacity="1" /><path clip-path="url(#clip670)" d="M1337.2 1481.64 L1344.83 1481.64 L1344.83 1455.28 L1336.52 1456.95 L1336.52 1452.69 L1344.79 1451.02 L1349.46 1451.02 L1349.46 1481.64 L1357.1 1481.64 L1357.1 1485.58 L1337.2 1485.58 L1337.2 1481.64 Z" fill="#000000" fill-rule="evenodd" fill-opacity="1" /><path clip-path="url(#clip670)" d="M1376.55 1454.1 Q1372.94 1454.1 1371.11 1457.66 Q1369.3 1461.2 1369.3 1468.33 Q1369.3 1475.44 1371.11 1479.01 Q1372.94 1482.55 1376.55 1482.55 Q1380.18 1482.55 1381.99 1479.01 Q1383.82 1475.44 1383.82 1468.33 Q1383.82 1461.2 1381.99 1457.66 Q1380.18 1454.1 1376.55 1454.1 M1376.55 1450.39 Q1382.36 1450.39 1385.41 1455 Q1388.49 1459.58 1388.49 1468.33 Q1388.49 1477.06 1385.41 1481.67 Q1382.36 1486.25 1376.55 1486.25 Q1370.74 1486.25 1367.66 1481.67 Q1364.6 1477.06 1364.6 1468.33 Q1364.6 1459.58 1367.66 1455 Q1370.74 1450.39 1376.55 1450.39 Z" fill="#000000" fill-rule="evenodd" fill-opacity="1" /><path clip-path="url(#clip670)" d="M1401.71 1459.35 Q1399.67 1459.35 1398.49 1460.56 Q1397.31 1461.78 1397.31 1463.89 Q1397.31 1465.97 1398.49 1467.18 Q1399.67 1468.4 1401.71 1468.4 Q1403.72 1468.4 1404.9 1467.18 Q1406.08 1465.97 1406.08 1463.89 Q1406.08 1461.78 1404.9 1460.56 Q1403.72 1459.35 1401.71 1459.35 M1407.68 1451.16 L1407.68 1453.54 Q1406.55 1453.08 1405.39 1452.85 Q1404.23 1452.59 1403.1 1452.59 Q1400.13 1452.59 1398.56 1454.33 Q1396.99 1456.09 1396.76 1459.63 Q1397.63 1458.5 1398.95 1457.89 Q1400.3 1457.29 1401.87 1457.29 Q1405.23 1457.29 1407.17 1459.05 Q1409.12 1460.83 1409.12 1463.89 Q1409.12 1466.83 1407.08 1468.66 Q1405.07 1470.46 1401.71 1470.46 Q1397.84 1470.46 1395.81 1467.89 Q1393.77 1465.33 1393.77 1460.42 Q1393.77 1455.83 1396.27 1453.13 Q1398.77 1450.39 1402.98 1450.39 Q1404.12 1450.39 1405.27 1450.58 Q1406.43 1450.79 1407.68 1451.16 Z" fill="#000000" fill-rule="evenodd" fill-opacity="1" /><path clip-path="url(#clip670)" d="M1688.05 1466.95 Q1691.41 1467.66 1693.28 1469.93 Q1695.18 1472.2 1695.18 1475.53 Q1695.18 1480.65 1691.66 1483.45 Q1688.14 1486.25 1681.66 1486.25 Q1679.49 1486.25 1677.17 1485.81 Q1674.88 1485.39 1672.42 1484.54 L1672.42 1480.02 Q1674.37 1481.16 1676.68 1481.74 Q1679 1482.32 1681.52 1482.32 Q1685.92 1482.32 1688.21 1480.58 Q1690.53 1478.84 1690.53 1475.53 Q1690.53 1472.48 1688.37 1470.77 Q1686.24 1469.03 1682.42 1469.03 L1678.4 1469.03 L1678.4 1465.19 L1682.61 1465.19 Q1686.06 1465.19 1687.89 1463.82 Q1689.72 1462.43 1689.72 1459.84 Q1689.72 1457.18 1687.82 1455.77 Q1685.94 1454.33 1682.42 1454.33 Q1680.5 1454.33 1678.3 1454.75 Q1676.11 1455.16 1673.47 1456.04 L1673.47 1451.88 Q1676.13 1451.14 1678.44 1450.77 Q1680.78 1450.39 1682.84 1450.39 Q1688.17 1450.39 1691.27 1452.83 Q1694.37 1455.23 1694.37 1459.35 Q1694.37 1462.22 1692.73 1464.21 Q1691.08 1466.18 1688.05 1466.95 Z" fill="#000000" fill-rule="evenodd" fill-opacity="1" /><path clip-path="url(#clip670)" d="M1714.05 1454.1 Q1710.43 1454.1 1708.61 1457.66 Q1706.8 1461.2 1706.8 1468.33 Q1706.8 1475.44 1708.61 1479.01 Q1710.43 1482.55 1714.05 1482.55 Q1717.68 1482.55 1719.48 1479.01 Q1721.31 1475.44 1721.31 1468.33 Q1721.31 1461.2 1719.48 1457.66 Q1717.68 1454.1 1714.05 1454.1 M1714.05 1450.39 Q1719.86 1450.39 1722.91 1455 Q1725.99 1459.58 1725.99 1468.33 Q1725.99 1477.06 1722.91 1481.67 Q1719.86 1486.25 1714.05 1486.25 Q1708.23 1486.25 1705.16 1481.67 Q1702.1 1477.06 1702.1 1468.33 Q1702.1 1459.58 1705.16 1455 Q1708.23 1450.39 1714.05 1450.39 Z" fill="#000000" fill-rule="evenodd" fill-opacity="1" /><path clip-path="url(#clip670)" d="M1734.21 1479.7 L1739.09 1479.7 L1739.09 1485.58 L1734.21 1485.58 L1734.21 1479.7 Z" fill="#000000" fill-rule="evenodd" fill-opacity="1" /><path clip-path="url(#clip670)" d="M1759.28 1454.1 Q1755.67 1454.1 1753.84 1457.66 Q1752.03 1461.2 1752.03 1468.33 Q1752.03 1475.44 1753.84 1479.01 Q1755.67 1482.55 1759.28 1482.55 Q1762.91 1482.55 1764.72 1479.01 Q1766.54 1475.44 1766.54 1468.33 Q1766.54 1461.2 1764.72 1457.66 Q1762.91 1454.1 1759.28 1454.1 M1759.28 1450.39 Q1765.09 1450.39 1768.14 1455 Q1771.22 1459.58 1771.22 1468.33 Q1771.22 1477.06 1768.14 1481.67 Q1765.09 1486.25 1759.28 1486.25 Q1753.47 1486.25 1750.39 1481.67 Q1747.33 1477.06 1747.33 1468.33 Q1747.33 1459.58 1750.39 1455 Q1753.47 1450.39 1759.28 1450.39 Z" fill="#000000" fill-rule="evenodd" fill-opacity="1" /><path clip-path="url(#clip670)" d="M1789.44 1454.1 Q1785.83 1454.1 1784 1457.66 Q1782.19 1461.2 1782.19 1468.33 Q1782.19 1475.44 1784 1479.01 Q1785.83 1482.55 1789.44 1482.55 Q1793.07 1482.55 1794.88 1479.01 Q1796.71 1475.44 1796.71 1468.33 Q1796.71 1461.2 1794.88 1457.66 Q1793.07 1454.1 1789.44 1454.1 M1789.44 1450.39 Q1795.25 1450.39 1798.3 1455 Q1801.38 1459.58 1801.38 1468.33 Q1801.38 1477.06 1798.3 1481.67 Q1795.25 1486.25 1789.44 1486.25 Q1783.63 1486.25 1780.55 1481.67 Q1777.49 1477.06 1777.49 1468.33 Q1777.49 1459.58 1780.55 1455 Q1783.63 1450.39 1789.44 1450.39 Z" fill="#000000" fill-rule="evenodd" fill-opacity="1" /><path clip-path="url(#clip670)" d="M1830.55 1459.65 L1821.17 1472.27 L1831.04 1485.58 L1826.01 1485.58 L1818.47 1475.39 L1810.92 1485.58 L1805.9 1485.58 L1815.97 1472.02 L1806.75 1459.65 L1811.78 1459.65 L1818.65 1468.89 L1825.53 1459.65 L1830.55 1459.65 Z" fill="#000000" fill-rule="evenodd" fill-opacity="1" /><path clip-path="url(#clip670)" d="M1838.47 1481.64 L1846.1 1481.64 L1846.1 1455.28 L1837.79 1456.95 L1837.79 1452.69 L1846.06 1451.02 L1850.73 1451.02 L1850.73 1481.64 L1858.37 1481.64 L1858.37 1485.58 L1838.47 1485.58 L1838.47 1481.64 Z" fill="#000000" fill-rule="evenodd" fill-opacity="1" /><path clip-path="url(#clip670)" d="M1877.82 1454.1 Q1874.21 1454.1 1872.38 1457.66 Q1870.57 1461.2 1870.57 1468.33 Q1870.57 1475.44 1872.38 1479.01 Q1874.21 1482.55 1877.82 1482.55 Q1881.45 1482.55 1883.26 1479.01 Q1885.09 1475.44 1885.09 1468.33 Q1885.09 1461.2 1883.26 1457.66 Q1881.45 1454.1 1877.82 1454.1 M1877.82 1450.39 Q1883.63 1450.39 1886.68 1455 Q1889.76 1459.58 1889.76 1468.33 Q1889.76 1477.06 1886.68 1481.67 Q1883.63 1486.25 1877.82 1486.25 Q1872.01 1486.25 1868.93 1481.67 Q1865.87 1477.06 1865.87 1468.33 Q1865.87 1459.58 1868.93 1455 Q1872.01 1450.39 1877.82 1450.39 Z" fill="#000000" fill-rule="evenodd" fill-opacity="1" /><path clip-path="url(#clip670)" d="M1902.98 1459.35 Q1900.94 1459.35 1899.76 1460.56 Q1898.58 1461.78 1898.58 1463.89 Q1898.58 1465.97 1899.76 1467.18 Q1900.94 1468.4 1902.98 1468.4 Q1904.99 1468.4 1906.17 1467.18 Q1907.35 1465.97 1907.35 1463.89 Q1907.35 1461.78 1906.17 1460.56 Q1904.99 1459.35 1902.98 1459.35 M1908.95 1451.16 L1908.95 1453.54 Q1907.82 1453.08 1906.66 1452.85 Q1905.5 1452.59 1904.37 1452.59 Q1901.41 1452.59 1899.83 1454.33 Q1898.26 1456.09 1898.03 1459.63 Q1898.91 1458.5 1900.22 1457.89 Q1901.57 1457.29 1903.14 1457.29 Q1906.5 1457.29 1908.44 1459.05 Q1910.39 1460.83 1910.39 1463.89 Q1910.39 1466.83 1908.35 1468.66 Q1906.34 1470.46 1902.98 1470.46 Q1899.11 1470.46 1897.08 1467.89 Q1895.04 1465.33 1895.04 1460.42 Q1895.04 1455.83 1897.54 1453.13 Q1900.04 1450.39 1904.25 1450.39 Q1905.39 1450.39 1906.54 1450.58 Q1907.7 1450.79 1908.95 1451.16 Z" fill="#000000" fill-rule="evenodd" fill-opacity="1" /><path clip-path="url(#clip670)" d="M2188.72 1455.09 L2176.91 1473.54 L2188.72 1473.54 L2188.72 1455.09 M2187.49 1451.02 L2193.37 1451.02 L2193.37 1473.54 L2198.3 1473.54 L2198.3 1477.43 L2193.37 1477.43 L2193.37 1485.58 L2188.72 1485.58 L2188.72 1477.43 L2173.12 1477.43 L2173.12 1472.92 L2187.49 1451.02 Z" fill="#000000" fill-rule="evenodd" fill-opacity="1" /><path clip-path="url(#clip670)" d="M2216.03 1454.1 Q2212.42 1454.1 2210.59 1457.66 Q2208.79 1461.2 2208.79 1468.33 Q2208.79 1475.44 2210.59 1479.01 Q2212.42 1482.55 2216.03 1482.55 Q2219.67 1482.55 2221.47 1479.01 Q2223.3 1475.44 2223.3 1468.33 Q2223.3 1461.2 2221.47 1457.66 Q2219.67 1454.1 2216.03 1454.1 M2216.03 1450.39 Q2221.84 1450.39 2224.9 1455 Q2227.98 1459.58 2227.98 1468.33 Q2227.98 1477.06 2224.9 1481.67 Q2221.84 1486.25 2216.03 1486.25 Q2210.22 1486.25 2207.14 1481.67 Q2204.09 1477.06 2204.09 1468.33 Q2204.09 1459.58 2207.14 1455 Q2210.22 1450.39 2216.03 1450.39 Z" fill="#000000" fill-rule="evenodd" fill-opacity="1" /><path clip-path="url(#clip670)" d="M2236.19 1479.7 L2241.08 1479.7 L2241.08 1485.58 L2236.19 1485.58 L2236.19 1479.7 Z" fill="#000000" fill-rule="evenodd" fill-opacity="1" /><path clip-path="url(#clip670)" d="M2261.26 1454.1 Q2257.65 1454.1 2255.82 1457.66 Q2254.02 1461.2 2254.02 1468.33 Q2254.02 1475.44 2255.82 1479.01 Q2257.65 1482.55 2261.26 1482.55 Q2264.9 1482.55 2266.7 1479.01 Q2268.53 1475.44 2268.53 1468.33 Q2268.53 1461.2 2266.7 1457.66 Q2264.9 1454.1 2261.26 1454.1 M2261.26 1450.39 Q2267.07 1450.39 2270.13 1455 Q2273.21 1459.58 2273.21 1468.33 Q2273.21 1477.06 2270.13 1481.67 Q2267.07 1486.25 2261.26 1486.25 Q2255.45 1486.25 2252.38 1481.67 Q2249.32 1477.06 2249.32 1468.33 Q2249.32 1459.58 2252.38 1455 Q2255.45 1450.39 2261.26 1450.39 Z" fill="#000000" fill-rule="evenodd" fill-opacity="1" /><path clip-path="url(#clip670)" d="M2291.43 1454.1 Q2287.82 1454.1 2285.99 1457.66 Q2284.18 1461.2 2284.18 1468.33 Q2284.18 1475.44 2285.99 1479.01 Q2287.82 1482.55 2291.43 1482.55 Q2295.06 1482.55 2296.87 1479.01 Q2298.69 1475.44 2298.69 1468.33 Q2298.69 1461.2 2296.87 1457.66 Q2295.06 1454.1 2291.43 1454.1 M2291.43 1450.39 Q2297.24 1450.39 2300.29 1455 Q2303.37 1459.58 2303.37 1468.33 Q2303.37 1477.06 2300.29 1481.67 Q2297.24 1486.25 2291.43 1486.25 Q2285.62 1486.25 2282.54 1481.67 Q2279.48 1477.06 2279.48 1468.33 Q2279.48 1459.58 2282.54 1455 Q2285.62 1450.39 2291.43 1450.39 Z" fill="#000000" fill-rule="evenodd" fill-opacity="1" /><path clip-path="url(#clip670)" d="M2332.54 1459.65 L2323.16 1472.27 L2333.02 1485.58 L2328 1485.58 L2320.45 1475.39 L2312.91 1485.58 L2307.88 1485.58 L2317.95 1472.02 L2308.74 1459.65 L2313.76 1459.65 L2320.64 1468.89 L2327.51 1459.65 L2332.54 1459.65 Z" fill="#000000" fill-rule="evenodd" fill-opacity="1" /><path clip-path="url(#clip670)" d="M2340.45 1481.64 L2348.09 1481.64 L2348.09 1455.28 L2339.78 1456.95 L2339.78 1452.69 L2348.05 1451.02 L2352.72 1451.02 L2352.72 1481.64 L2360.36 1481.64 L2360.36 1485.58 L2340.45 1485.58 L2340.45 1481.64 Z" fill="#000000" fill-rule="evenodd" fill-opacity="1" /><path clip-path="url(#clip670)" d="M2379.81 1454.1 Q2376.19 1454.1 2374.37 1457.66 Q2372.56 1461.2 2372.56 1468.33 Q2372.56 1475.44 2374.37 1479.01 Q2376.19 1482.55 2379.81 1482.55 Q2383.44 1482.55 2385.25 1479.01 Q2387.07 1475.44 2387.07 1468.33 Q2387.07 1461.2 2385.25 1457.66 Q2383.44 1454.1 2379.81 1454.1 M2379.81 1450.39 Q2385.62 1450.39 2388.67 1455 Q2391.75 1459.58 2391.75 1468.33 Q2391.75 1477.06 2388.67 1481.67 Q2385.62 1486.25 2379.81 1486.25 Q2374 1486.25 2370.92 1481.67 Q2367.86 1477.06 2367.86 1468.33 Q2367.86 1459.58 2370.92 1455 Q2374 1450.39 2379.81 1450.39 Z" fill="#000000" fill-rule="evenodd" fill-opacity="1" /><path clip-path="url(#clip670)" d="M2404.97 1459.35 Q2402.93 1459.35 2401.75 1460.56 Q2400.57 1461.78 2400.57 1463.89 Q2400.57 1465.97 2401.75 1467.18 Q2402.93 1468.4 2404.97 1468.4 Q2406.98 1468.4 2408.16 1467.18 Q2409.34 1465.97 2409.34 1463.89 Q2409.34 1461.78 2408.16 1460.56 Q2406.98 1459.35 2404.97 1459.35 M2410.94 1451.16 L2410.94 1453.54 Q2409.81 1453.08 2408.65 1452.85 Q2407.49 1452.59 2406.36 1452.59 Q2403.39 1452.59 2401.82 1454.33 Q2400.24 1456.09 2400.01 1459.63 Q2400.89 1458.5 2402.21 1457.89 Q2403.56 1457.29 2405.13 1457.29 Q2408.49 1457.29 2410.43 1459.05 Q2412.37 1460.83 2412.37 1463.89 Q2412.37 1466.83 2410.34 1468.66 Q2408.32 1470.46 2404.97 1470.46 Q2401.1 1470.46 2399.06 1467.89 Q2397.03 1465.33 2397.03 1460.42 Q2397.03 1455.83 2399.53 1453.13 Q2402.03 1450.39 2406.24 1450.39 Q2407.37 1450.39 2408.53 1450.58 Q2409.69 1450.79 2410.94 1451.16 Z" fill="#000000" fill-rule="evenodd" fill-opacity="1" /><path clip-path="url(#clip670)" d="M1142.14 1520.52 L1148.56 1520.52 L1148.56 1568.04 L1142.14 1568.04 L1142.14 1520.52 Z" fill="#000000" fill-rule="evenodd" fill-opacity="1" /><path clip-path="url(#clip670)" d="M1166.9 1522.27 L1166.9 1532.4 L1178.96 1532.4 L1178.96 1536.95 L1166.9 1536.95 L1166.9 1556.3 Q1166.9 1560.66 1168.08 1561.9 Q1169.28 1563.14 1172.95 1563.14 L1178.96 1563.14 L1178.96 1568.04 L1172.95 1568.04 Q1166.17 1568.04 1163.59 1565.53 Q1161.01 1562.98 1161.01 1556.3 L1161.01 1536.95 L1156.71 1536.95 L1156.71 1532.4 L1161.01 1532.4 L1161.01 1522.27 L1166.9 1522.27 Z" fill="#000000" fill-rule="evenodd" fill-opacity="1" /><path clip-path="url(#clip670)" d="M1217.15 1548.76 L1217.15 1551.62 L1190.23 1551.62 Q1190.61 1557.67 1193.86 1560.85 Q1197.13 1564 1202.96 1564 Q1206.33 1564 1209.48 1563.17 Q1212.67 1562.35 1215.79 1560.69 L1215.79 1566.23 Q1212.64 1567.57 1209.33 1568.27 Q1206.01 1568.97 1202.61 1568.97 Q1194.08 1568.97 1189.08 1564 Q1184.12 1559.04 1184.12 1550.57 Q1184.12 1541.82 1188.83 1536.69 Q1193.57 1531.54 1201.59 1531.54 Q1208.78 1531.54 1212.95 1536.18 Q1217.15 1540.8 1217.15 1548.76 M1211.3 1547.04 Q1211.23 1542.23 1208.59 1539.37 Q1205.98 1536.5 1201.65 1536.5 Q1196.75 1536.5 1193.79 1539.27 Q1190.86 1542.04 1190.42 1547.07 L1211.3 1547.04 Z" fill="#000000" fill-rule="evenodd" fill-opacity="1" /><path clip-path="url(#clip670)" d="M1247.42 1537.87 Q1246.44 1537.3 1245.26 1537.04 Q1244.11 1536.76 1242.71 1536.76 Q1237.75 1536.76 1235.07 1540 Q1232.43 1543.22 1232.43 1549.27 L1232.43 1568.04 L1226.54 1568.04 L1226.54 1532.4 L1232.43 1532.4 L1232.43 1537.93 Q1234.28 1534.69 1237.24 1533.13 Q1240.2 1531.54 1244.43 1531.54 Q1245.04 1531.54 1245.77 1531.63 Q1246.5 1531.7 1247.39 1531.85 L1247.42 1537.87 Z" fill="#000000" fill-rule="evenodd" fill-opacity="1" /><path clip-path="url(#clip670)" d="M1269.77 1550.12 Q1262.67 1550.12 1259.93 1551.75 Q1257.2 1553.37 1257.2 1557.29 Q1257.2 1560.4 1259.23 1562.25 Q1261.3 1564.07 1264.83 1564.07 Q1269.7 1564.07 1272.63 1560.63 Q1275.59 1557.16 1275.59 1551.43 L1275.59 1550.12 L1269.77 1550.12 M1281.45 1547.71 L1281.45 1568.04 L1275.59 1568.04 L1275.59 1562.63 Q1273.59 1565.88 1270.6 1567.44 Q1267.6 1568.97 1263.27 1568.97 Q1257.8 1568.97 1254.55 1565.91 Q1251.34 1562.82 1251.34 1557.67 Q1251.34 1551.65 1255.35 1548.6 Q1259.39 1545.54 1267.38 1545.54 L1275.59 1545.54 L1275.59 1544.97 Q1275.59 1540.93 1272.92 1538.73 Q1270.28 1536.5 1265.47 1536.5 Q1262.42 1536.5 1259.52 1537.23 Q1256.62 1537.97 1253.95 1539.43 L1253.95 1534.02 Q1257.16 1532.78 1260.19 1532.17 Q1263.21 1531.54 1266.08 1531.54 Q1273.81 1531.54 1277.63 1535.55 Q1281.45 1539.56 1281.45 1547.71 Z" fill="#000000" fill-rule="evenodd" fill-opacity="1" /><path clip-path="url(#clip670)" d="M1299.3 1522.27 L1299.3 1532.4 L1311.37 1532.4 L1311.37 1536.95 L1299.3 1536.95 L1299.3 1556.3 Q1299.3 1560.66 1300.48 1561.9 Q1301.69 1563.14 1305.35 1563.14 L1311.37 1563.14 L1311.37 1568.04 L1305.35 1568.04 Q1298.57 1568.04 1295.99 1565.53 Q1293.42 1562.98 1293.42 1556.3 L1293.42 1536.95 L1289.12 1536.95 L1289.12 1532.4 L1293.42 1532.4 L1293.42 1522.27 L1299.3 1522.27 Z" fill="#000000" fill-rule="evenodd" fill-opacity="1" /><path clip-path="url(#clip670)" d="M1319.07 1532.4 L1324.93 1532.4 L1324.93 1568.04 L1319.07 1568.04 L1319.07 1532.4 M1319.07 1518.52 L1324.93 1518.52 L1324.93 1525.93 L1319.07 1525.93 L1319.07 1518.52 Z" fill="#000000" fill-rule="evenodd" fill-opacity="1" /><path clip-path="url(#clip670)" d="M1350.99 1536.5 Q1346.28 1536.5 1343.55 1540.19 Q1340.81 1543.85 1340.81 1550.25 Q1340.81 1556.65 1343.51 1560.34 Q1346.25 1564 1350.99 1564 Q1355.67 1564 1358.41 1560.31 Q1361.15 1556.62 1361.15 1550.25 Q1361.15 1543.92 1358.41 1540.23 Q1355.67 1536.5 1350.99 1536.5 M1350.99 1531.54 Q1358.63 1531.54 1362.99 1536.5 Q1367.35 1541.47 1367.35 1550.25 Q1367.35 1559 1362.99 1564 Q1358.63 1568.97 1350.99 1568.97 Q1343.32 1568.97 1338.96 1564 Q1334.63 1559 1334.63 1550.25 Q1334.63 1541.47 1338.96 1536.5 Q1343.32 1531.54 1350.99 1531.54 Z" fill="#000000" fill-rule="evenodd" fill-opacity="1" /><path clip-path="url(#clip670)" d="M1406.69 1546.53 L1406.69 1568.04 L1400.84 1568.04 L1400.84 1546.72 Q1400.84 1541.66 1398.86 1539.14 Q1396.89 1536.63 1392.94 1536.63 Q1388.2 1536.63 1385.46 1539.65 Q1382.73 1542.68 1382.73 1547.9 L1382.73 1568.04 L1376.84 1568.04 L1376.84 1532.4 L1382.73 1532.4 L1382.73 1537.93 Q1384.83 1534.72 1387.66 1533.13 Q1390.52 1531.54 1394.25 1531.54 Q1400.39 1531.54 1403.54 1535.36 Q1406.69 1539.14 1406.69 1546.53 Z" fill="#000000" fill-rule="evenodd" fill-opacity="1" /><path clip-path="url(#clip670)" d="M1441.1 1533.45 L1441.1 1538.98 Q1438.62 1537.71 1435.94 1537.07 Q1433.27 1536.44 1430.41 1536.44 Q1426.05 1536.44 1423.85 1537.77 Q1421.69 1539.11 1421.69 1541.79 Q1421.69 1543.82 1423.24 1545 Q1424.8 1546.15 1429.51 1547.2 L1431.52 1547.64 Q1437.76 1548.98 1440.37 1551.43 Q1443.01 1553.85 1443.01 1558.21 Q1443.01 1563.17 1439.06 1566.07 Q1435.15 1568.97 1428.27 1568.97 Q1425.41 1568.97 1422.29 1568.39 Q1419.2 1567.85 1415.76 1566.74 L1415.76 1560.69 Q1419.01 1562.38 1422.16 1563.24 Q1425.31 1564.07 1428.4 1564.07 Q1432.54 1564.07 1434.77 1562.66 Q1436.99 1561.23 1436.99 1558.65 Q1436.99 1556.27 1435.37 1554.99 Q1433.78 1553.72 1428.34 1552.54 L1426.3 1552.07 Q1420.86 1550.92 1418.44 1548.56 Q1416.02 1546.18 1416.02 1542.04 Q1416.02 1537.01 1419.58 1534.27 Q1423.15 1531.54 1429.71 1531.54 Q1432.95 1531.54 1435.82 1532.01 Q1438.68 1532.49 1441.1 1533.45 Z" fill="#000000" fill-rule="evenodd" fill-opacity="1" /><polyline clip-path="url(#clip672)" style="stroke:#000000; stroke-linecap:round; stroke-linejoin:round; stroke-width:2; stroke-opacity:0.1; fill:none" points="
  232.389,1365.27 2352.76,1365.27 
  "/>
<polyline clip-path="url(#clip672)" style="stroke:#000000; stroke-linecap:round; stroke-linejoin:round; stroke-width:2; stroke-opacity:0.1; fill:none" points="
  232.389,1055.94 2352.76,1055.94 
  "/>
<polyline clip-path="url(#clip672)" style="stroke:#000000; stroke-linecap:round; stroke-linejoin:round; stroke-width:2; stroke-opacity:0.1; fill:none" points="
  232.389,746.62 2352.76,746.62 
  "/>
<polyline clip-path="url(#clip672)" style="stroke:#000000; stroke-linecap:round; stroke-linejoin:round; stroke-width:2; stroke-opacity:0.1; fill:none" points="
  232.389,437.297 2352.76,437.297 
  "/>
<polyline clip-path="url(#clip672)" style="stroke:#000000; stroke-linecap:round; stroke-linejoin:round; stroke-width:2; stroke-opacity:0.1; fill:none" points="
  232.389,127.973 2352.76,127.973 
  "/>
<polyline clip-path="url(#clip670)" style="stroke:#000000; stroke-linecap:round; stroke-linejoin:round; stroke-width:4; stroke-opacity:1; fill:none" points="
  232.389,1423.18 232.389,47.2441 
  "/>
<polyline clip-path="url(#clip670)" style="stroke:#000000; stroke-linecap:round; stroke-linejoin:round; stroke-width:4; stroke-opacity:1; fill:none" points="
  232.389,1365.27 251.287,1365.27 
  "/>
<polyline clip-path="url(#clip670)" style="stroke:#000000; stroke-linecap:round; stroke-linejoin:round; stroke-width:4; stroke-opacity:1; fill:none" points="
  232.389,1055.94 251.287,1055.94 
  "/>
<polyline clip-path="url(#clip670)" style="stroke:#000000; stroke-linecap:round; stroke-linejoin:round; stroke-width:4; stroke-opacity:1; fill:none" points="
  232.389,746.62 251.287,746.62 
  "/>
<polyline clip-path="url(#clip670)" style="stroke:#000000; stroke-linecap:round; stroke-linejoin:round; stroke-width:4; stroke-opacity:1; fill:none" points="
  232.389,437.297 251.287,437.297 
  "/>
<polyline clip-path="url(#clip670)" style="stroke:#000000; stroke-linecap:round; stroke-linejoin:round; stroke-width:4; stroke-opacity:1; fill:none" points="
  232.389,127.973 251.287,127.973 
  "/>
<path clip-path="url(#clip670)" d="M184.445 1351.07 Q180.834 1351.07 179.005 1354.63 Q177.2 1358.17 177.2 1365.3 Q177.2 1372.41 179.005 1375.97 Q180.834 1379.52 184.445 1379.52 Q188.079 1379.52 189.885 1375.97 Q191.713 1372.41 191.713 1365.3 Q191.713 1358.17 189.885 1354.63 Q188.079 1351.07 184.445 1351.07 M184.445 1347.36 Q190.255 1347.36 193.311 1351.97 Q196.389 1356.55 196.389 1365.3 Q196.389 1374.03 193.311 1378.64 Q190.255 1383.22 184.445 1383.22 Q178.635 1383.22 175.556 1378.64 Q172.501 1374.03 172.501 1365.3 Q172.501 1356.55 175.556 1351.97 Q178.635 1347.36 184.445 1347.36 Z" fill="#000000" fill-rule="evenodd" fill-opacity="1" /><path clip-path="url(#clip670)" d="M149.306 1069.29 L165.626 1069.29 L165.626 1073.22 L143.681 1073.22 L143.681 1069.29 Q146.343 1066.53 150.927 1061.9 Q155.533 1057.25 156.714 1055.91 Q158.959 1053.39 159.839 1051.65 Q160.741 1049.89 160.741 1048.2 Q160.741 1045.45 158.797 1043.71 Q156.876 1041.97 153.774 1041.97 Q151.575 1041.97 149.121 1042.74 Q146.691 1043.5 143.913 1045.05 L143.913 1040.33 Q146.737 1039.2 149.191 1038.62 Q151.644 1038.04 153.681 1038.04 Q159.052 1038.04 162.246 1040.72 Q165.44 1043.41 165.44 1047.9 Q165.44 1050.03 164.63 1051.95 Q163.843 1053.85 161.737 1056.44 Q161.158 1057.11 158.056 1060.33 Q154.954 1063.52 149.306 1069.29 Z" fill="#000000" fill-rule="evenodd" fill-opacity="1" /><path clip-path="url(#clip670)" d="M175.487 1038.66 L193.843 1038.66 L193.843 1042.6 L179.769 1042.6 L179.769 1051.07 Q180.788 1050.72 181.806 1050.56 Q182.825 1050.38 183.843 1050.38 Q189.63 1050.38 193.01 1053.55 Q196.389 1056.72 196.389 1062.14 Q196.389 1067.71 192.917 1070.82 Q189.445 1073.9 183.126 1073.9 Q180.95 1073.9 178.681 1073.52 Q176.436 1073.15 174.028 1072.41 L174.028 1067.71 Q176.112 1068.85 178.334 1069.4 Q180.556 1069.96 183.033 1069.96 Q187.038 1069.96 189.375 1067.85 Q191.713 1065.75 191.713 1062.14 Q191.713 1058.52 189.375 1056.42 Q187.038 1054.31 183.033 1054.31 Q181.158 1054.31 179.283 1054.73 Q177.431 1055.15 175.487 1056.02 L175.487 1038.66 Z" fill="#000000" fill-rule="evenodd" fill-opacity="1" /><path clip-path="url(#clip670)" d="M144.329 729.34 L162.686 729.34 L162.686 733.275 L148.612 733.275 L148.612 741.748 Q149.63 741.4 150.649 741.238 Q151.667 741.053 152.686 741.053 Q158.473 741.053 161.852 744.224 Q165.232 747.396 165.232 752.812 Q165.232 758.391 161.76 761.493 Q158.288 764.572 151.968 764.572 Q149.792 764.572 147.524 764.201 Q145.279 763.831 142.871 763.09 L142.871 758.391 Q144.954 759.525 147.177 760.081 Q149.399 760.636 151.876 760.636 Q155.88 760.636 158.218 758.53 Q160.556 756.423 160.556 752.812 Q160.556 749.201 158.218 747.095 Q155.88 744.988 151.876 744.988 Q150.001 744.988 148.126 745.405 Q146.274 745.822 144.329 746.701 L144.329 729.34 Z" fill="#000000" fill-rule="evenodd" fill-opacity="1" /><path clip-path="url(#clip670)" d="M184.445 732.419 Q180.834 732.419 179.005 735.984 Q177.2 739.525 177.2 746.655 Q177.2 753.761 179.005 757.326 Q180.834 760.868 184.445 760.868 Q188.079 760.868 189.885 757.326 Q191.713 753.761 191.713 746.655 Q191.713 739.525 189.885 735.984 Q188.079 732.419 184.445 732.419 M184.445 728.715 Q190.255 728.715 193.311 733.322 Q196.389 737.905 196.389 746.655 Q196.389 755.382 193.311 759.988 Q190.255 764.572 184.445 764.572 Q178.635 764.572 175.556 759.988 Q172.501 755.382 172.501 746.655 Q172.501 737.905 175.556 733.322 Q178.635 728.715 184.445 728.715 Z" fill="#000000" fill-rule="evenodd" fill-opacity="1" /><path clip-path="url(#clip670)" d="M144.098 420.017 L166.32 420.017 L166.32 422.007 L153.774 454.577 L148.89 454.577 L160.695 423.952 L144.098 423.952 L144.098 420.017 Z" fill="#000000" fill-rule="evenodd" fill-opacity="1" /><path clip-path="url(#clip670)" d="M175.487 420.017 L193.843 420.017 L193.843 423.952 L179.769 423.952 L179.769 432.424 Q180.788 432.077 181.806 431.915 Q182.825 431.729 183.843 431.729 Q189.63 431.729 193.01 434.901 Q196.389 438.072 196.389 443.489 Q196.389 449.067 192.917 452.169 Q189.445 455.248 183.126 455.248 Q180.95 455.248 178.681 454.877 Q176.436 454.507 174.028 453.766 L174.028 449.067 Q176.112 450.202 178.334 450.757 Q180.556 451.313 183.033 451.313 Q187.038 451.313 189.375 449.206 Q191.713 447.1 191.713 443.489 Q191.713 439.878 189.375 437.771 Q187.038 435.665 183.033 435.665 Q181.158 435.665 179.283 436.081 Q177.431 436.498 175.487 437.378 L175.487 420.017 Z" fill="#000000" fill-rule="evenodd" fill-opacity="1" /><path clip-path="url(#clip670)" d="M114.931 141.318 L122.57 141.318 L122.57 114.952 L114.26 116.619 L114.26 112.359 L122.524 110.693 L127.2 110.693 L127.2 141.318 L134.839 141.318 L134.839 145.253 L114.931 145.253 L114.931 141.318 Z" fill="#000000" fill-rule="evenodd" fill-opacity="1" /><path clip-path="url(#clip670)" d="M154.283 113.772 Q150.672 113.772 148.843 117.336 Q147.038 120.878 147.038 128.008 Q147.038 135.114 148.843 138.679 Q150.672 142.22 154.283 142.22 Q157.917 142.22 159.723 138.679 Q161.552 135.114 161.552 128.008 Q161.552 120.878 159.723 117.336 Q157.917 113.772 154.283 113.772 M154.283 110.068 Q160.093 110.068 163.149 114.674 Q166.227 119.258 166.227 128.008 Q166.227 136.734 163.149 141.341 Q160.093 145.924 154.283 145.924 Q148.473 145.924 145.394 141.341 Q142.339 136.734 142.339 128.008 Q142.339 119.258 145.394 114.674 Q148.473 110.068 154.283 110.068 Z" fill="#000000" fill-rule="evenodd" fill-opacity="1" /><path clip-path="url(#clip670)" d="M184.445 113.772 Q180.834 113.772 179.005 117.336 Q177.2 120.878 177.2 128.008 Q177.2 135.114 179.005 138.679 Q180.834 142.22 184.445 142.22 Q188.079 142.22 189.885 138.679 Q191.713 135.114 191.713 128.008 Q191.713 120.878 189.885 117.336 Q188.079 113.772 184.445 113.772 M184.445 110.068 Q190.255 110.068 193.311 114.674 Q196.389 119.258 196.389 128.008 Q196.389 136.734 193.311 141.341 Q190.255 145.924 184.445 145.924 Q178.635 145.924 175.556 141.341 Q172.501 136.734 172.501 128.008 Q172.501 119.258 175.556 114.674 Q178.635 110.068 184.445 110.068 Z" fill="#000000" fill-rule="evenodd" fill-opacity="1" /><path clip-path="url(#clip670)" d="M41.7242 827.897 Q42.4244 825.828 44.7161 823.886 Q47.0077 821.913 51.0181 819.94 L64.0042 813.415 L64.0042 820.321 L51.8138 826.401 Q47.0395 828.756 45.48 830.984 Q43.9204 833.18 43.9204 837 L43.9204 844.002 L64.0042 844.002 L64.0042 850.431 L16.4842 850.431 L16.4842 835.917 Q16.4842 827.769 19.8898 823.759 Q23.2955 819.749 30.1704 819.749 Q34.6582 819.749 37.6183 821.849 Q40.5784 823.918 41.7242 827.897 M21.7677 844.002 L38.6368 844.002 L38.6368 835.917 Q38.6368 831.27 36.5043 828.915 Q34.34 826.528 30.1704 826.528 Q26.0009 826.528 23.9002 828.915 Q21.7677 831.27 21.7677 835.917 L21.7677 844.002 Z" fill="#000000" fill-rule="evenodd" fill-opacity="1" /><path clip-path="url(#clip670)" d="M44.7161 777.83 L47.5806 777.83 L47.5806 804.757 Q53.6281 804.375 56.8109 801.129 Q59.9619 797.851 59.9619 792.026 Q59.9619 788.652 59.1344 785.501 Q58.3069 782.318 56.6518 779.199 L62.1899 779.199 Q63.5267 782.35 64.227 785.66 Q64.9272 788.97 64.9272 792.376 Q64.9272 800.906 59.9619 805.903 Q54.9967 810.868 46.5303 810.868 Q37.7774 810.868 32.6531 806.158 Q27.4968 801.415 27.4968 793.395 Q27.4968 786.201 32.1438 782.032 Q36.7589 777.83 44.7161 777.83 M42.9973 783.687 Q38.1912 783.75 35.3266 786.392 Q32.4621 789.002 32.4621 793.331 Q32.4621 798.232 35.2312 801.193 Q38.0002 804.121 43.0292 804.566 L42.9973 783.687 Z" fill="#000000" fill-rule="evenodd" fill-opacity="1" /><path clip-path="url(#clip670)" d="M28.3562 771.624 L28.3562 765.767 L56.1743 758.447 L28.3562 751.158 L28.3562 744.251 L56.1743 736.931 L28.3562 729.642 L28.3562 723.786 L64.0042 733.111 L64.0042 740.018 L34.7856 747.689 L64.0042 755.391 L64.0042 762.298 L28.3562 771.624 Z" fill="#000000" fill-rule="evenodd" fill-opacity="1" /><path clip-path="url(#clip670)" d="M46.0847 698.705 Q46.0847 705.802 47.7079 708.54 Q49.3312 711.277 53.2461 711.277 Q56.3653 711.277 58.2114 709.24 Q60.0256 707.171 60.0256 703.638 Q60.0256 698.768 56.5881 695.84 Q53.1188 692.88 47.3897 692.88 L46.0847 692.88 L46.0847 698.705 M43.6657 687.024 L64.0042 687.024 L64.0042 692.88 L58.5933 692.88 Q61.8398 694.885 63.3994 697.877 Q64.9272 700.869 64.9272 705.198 Q64.9272 710.672 61.8716 713.919 Q58.7843 717.133 53.6281 717.133 Q47.6125 717.133 44.5569 713.123 Q41.5014 709.081 41.5014 701.092 L41.5014 692.88 L40.9285 692.88 Q36.8862 692.88 34.6901 695.554 Q32.4621 698.195 32.4621 703.001 Q32.4621 706.057 33.1941 708.953 Q33.9262 711.85 35.3903 714.523 L29.9795 714.523 Q28.7381 711.309 28.1334 708.285 Q27.4968 705.261 27.4968 702.397 Q27.4968 694.662 31.5072 690.843 Q35.5176 687.024 43.6657 687.024 Z" fill="#000000" fill-rule="evenodd" fill-opacity="1" /><path clip-path="url(#clip670)" d="M33.8307 654.304 Q33.2578 655.291 33.0032 656.468 Q32.7167 657.614 32.7167 659.014 Q32.7167 663.98 35.9632 666.653 Q39.1779 669.295 45.2253 669.295 L64.0042 669.295 L64.0042 675.183 L28.3562 675.183 L28.3562 669.295 L33.8944 669.295 Q30.6479 667.449 29.0883 664.489 Q27.4968 661.529 27.4968 657.296 Q27.4968 656.691 27.5923 655.959 Q27.656 655.227 27.8151 654.336 L33.8307 654.304 Z" fill="#000000" fill-rule="evenodd" fill-opacity="1" /><path clip-path="url(#clip670)" d="M33.7671 625.849 L14.479 625.849 L14.479 619.993 L64.0042 619.993 L64.0042 625.849 L58.657 625.849 Q61.8398 627.695 63.3994 630.528 Q64.9272 633.329 64.9272 637.276 Q64.9272 643.737 59.771 647.811 Q54.6147 651.853 46.212 651.853 Q37.8093 651.853 32.6531 647.811 Q27.4968 643.737 27.4968 637.276 Q27.4968 633.329 29.0564 630.528 Q30.5842 627.695 33.7671 625.849 M46.212 645.806 Q52.6732 645.806 56.3653 643.164 Q60.0256 640.49 60.0256 635.843 Q60.0256 631.196 56.3653 628.523 Q52.6732 625.849 46.212 625.849 Q39.7508 625.849 36.0905 628.523 Q32.3984 631.196 32.3984 635.843 Q32.3984 640.49 36.0905 643.164 Q39.7508 645.806 46.212 645.806 Z" fill="#000000" fill-rule="evenodd" fill-opacity="1" /><polyline clip-path="url(#clip672)" style="stroke:#009af9; stroke-linecap:round; stroke-linejoin:round; stroke-width:4; stroke-opacity:1; fill:none" points="
  292.4,1384.24 297.413,1381.89 302.427,1379.43 307.44,1379.45 312.453,1375.36 317.467,1376.8 322.48,1373.85 327.494,1373.99 332.507,1374.72 337.52,1375.18 
  342.534,1372.99 347.547,1371.43 352.56,1371.31 357.574,1372.83 362.587,1372 367.601,1369.5 372.614,1370.13 377.627,1369.93 382.641,1369.28 387.654,1370.92 
  392.668,1370.6 397.681,1369.4 402.694,1370.31 407.708,1367.63 412.721,1371.34 417.735,1367.34 422.748,1366.6 427.761,1367.87 432.775,1363.77 437.788,1367.01 
  442.802,1365.73 447.815,1365.98 452.828,1366.31 457.842,1359.25 462.855,1362.66 467.869,1356.35 472.882,1357.86 477.895,1361.83 482.909,1350.76 487.922,1358.75 
  492.936,1355.94 497.949,1359.7 502.962,1352.95 507.976,1354.16 512.989,1351.49 518.003,1352.27 523.016,1345.08 528.029,1355.91 533.043,1340.5 538.056,1347.8 
  543.07,1339.64 548.083,1334.23 553.096,1351.76 558.11,1343.44 563.123,1343.47 568.137,1335.19 573.15,1346.96 578.163,1346.19 583.177,1318.55 588.19,1346.6 
  593.204,1328.42 598.217,1322.36 603.23,1326.81 608.244,1332.38 613.257,1323.25 618.271,1316.53 623.284,1321.39 628.297,1320.29 633.311,1317.46 638.324,1322.18 
  643.338,1307.09 648.351,1311.72 653.364,1297.34 658.378,1320.83 663.391,1293.45 668.405,1300.6 673.418,1295.57 678.431,1293.25 683.445,1294.22 688.458,1294.55 
  693.472,1279.23 698.485,1269.68 703.498,1259.57 708.512,1261.13 713.525,1260.4 718.539,1257.45 723.552,1227.73 728.565,1237.54 733.579,1242.59 738.592,1245.45 
  743.606,1225.52 748.619,1205.53 753.632,1215.93 758.646,1180.94 763.659,1192.67 768.673,1196.47 773.686,1182.48 778.699,1156.31 783.713,1142.16 788.726,1138.99 
  793.74,1134.99 798.753,1140.55 803.766,1122.73 808.78,1130.69 813.793,1098.24 818.807,1071.46 823.82,1055.85 828.833,1113.73 833.847,1025.54 838.86,1021.47 
  843.874,1024.01 848.887,995.483 853.9,972.373 858.914,948.479 863.927,920.082 868.94,883.291 873.954,853.944 878.967,795.347 883.981,784.342 888.994,716.797 
  894.007,702.594 899.021,674.25 904.034,627.726 909.048,579.432 914.061,576.534 919.074,480.69 924.088,522.323 929.101,502.682 934.115,473.433 939.128,440.444 
  944.141,433.425 949.155,377.817 954.168,404.229 959.182,390.113 964.195,360.192 969.208,365.303 974.222,330.522 979.235,346.891 984.249,338.152 989.262,306.42 
  994.275,315.137 999.289,282.415 1004.3,284.487 1009.32,294.096 1014.33,282.05 1019.34,282.16 1024.36,271.628 1029.37,274.834 1034.38,302.838 1039.4,268.688 
  1044.41,267.265 1049.42,283.253 1054.44,280.436 1059.45,269.755 1064.46,260.896 1069.48,248.224 1074.49,251.489 1079.5,268.26 1084.52,263.185 1089.53,251.124 
  1094.54,235.136 1099.56,250.105 1104.57,240.22 1109.58,228.666 1114.6,230.626 1119.61,207.362 1124.62,213.131 1129.64,229.051 1134.65,222.457 1139.66,212.377 
  1144.68,207.495 1149.69,209.107 1154.7,200.61 1159.72,203.372 1164.73,194.662 1169.74,198.065 1174.76,200.369 1179.77,214.347 1184.78,212.788 1189.8,197.323 
  1194.81,200.096 1199.82,198.363 1204.84,193.083 1209.85,203.17 1214.86,195.105 1219.88,200.806 1224.89,193.069 1229.91,186.744 1234.92,193.725 1239.93,182.33 
  1244.95,189.049 1249.96,179.874 1254.97,180.809 1259.99,183.262 1265,185.728 1270.01,187.493 1275.03,182.519 1280.04,192.945 1285.05,187.403 1290.07,183.639 
  1295.08,183.925 1300.09,190.729 1305.11,201.349 1310.12,182.371 1315.13,184.258 1320.15,189.471 1325.16,186.761 1330.17,181.232 1335.19,176.639 1340.2,178.256 
  1345.21,165.181 1350.23,174.276 1355.24,164.556 1360.25,170.36 1365.27,176.985 1370.28,174.133 1375.29,169.8 1380.31,177.007 1385.32,175.319 1390.33,165.406 
  1395.35,168.999 1400.36,137.241 1405.37,153.05 1410.39,149.331 1415.4,137.808 1420.41,147.115 1425.43,158.541 1430.44,157.119 1435.45,160.04 1440.47,151.534 
  1445.48,146.79 1450.49,147.408 1455.51,151.103 1460.52,148.662 1465.53,141.653 1470.55,158.508 1475.56,141.73 1480.58,143.982 1485.59,130.998 1490.6,161.016 
  1495.62,152.113 1500.63,154.272 1505.64,163.417 1510.66,155.514 1515.67,130.444 1520.68,135.669 1525.7,152.455 1530.71,148.843 1535.72,143.196 1540.74,151.009 
  1545.75,126.464 1550.76,127.412 1555.78,133.34 1560.79,136.027 1565.8,145.582 1570.82,138.875 1575.83,127.827 1580.84,148.085 1585.86,148.615 1590.87,137.005 
  1595.88,135.466 1600.9,140.564 1605.91,129.091 1610.92,127.977 1615.94,152.582 1620.95,144.821 1625.96,134.316 1630.98,115.414 1635.99,126.856 1641,134.438 
  1646.02,119.829 1651.03,121.993 1656.04,130.764 1661.06,131.195 1666.07,124.009 1671.08,139.511 1676.1,147.605 1681.11,150.29 1686.12,133.206 1691.14,107.099 
  1696.15,137.453 1701.16,118.682 1706.18,114.921 1711.19,113.047 1716.2,111.762 1721.22,123.162 1726.23,125.057 1731.24,136.472 1736.26,108.833 1741.27,121.419 
  1746.29,119.145 1751.3,120.093 1756.31,117.377 1761.33,118.511 1766.34,125.309 1771.35,141.31 1776.37,128.305 1781.38,132.153 1786.39,113.731 1791.41,112.57 
  1796.42,122.018 1801.43,119.454 1806.45,119.483 1811.46,115.668 1816.47,110.265 1821.49,108.935 1826.5,113.514 1831.51,109.768 1836.53,111.568 1841.54,105.984 
  1846.55,108.327 1851.57,88.7919 1856.58,100.88 1861.59,101.024 1866.61,118.906 1871.62,125.5 1876.63,123.702 1881.65,109.558 1886.66,120.436 1891.67,98.5749 
  1896.69,117.94 1901.7,103.68 1906.71,106.585 1911.73,120.4 1916.74,123.213 1921.75,130.083 1926.77,130.093 1931.78,129.267 1936.79,131.743 1941.81,100.006 
  1946.82,120.879 1951.83,124.496 1956.85,112.264 1961.86,108.819 1966.87,124.725 1971.89,103.786 1976.9,128.977 1981.91,106.658 1986.93,135.666 1991.94,118.825 
  1996.96,103.38 2001.97,107.066 2006.98,86.1857 2012,101.542 2017.01,103.473 2022.02,111.591 2027.04,99.5238 2032.05,93.8134 2037.06,109.52 2042.08,117.871 
  2047.09,104.653 2052.1,95.4116 2057.12,105.885 2062.13,108.908 2067.14,105.545 2072.16,117.586 2077.17,110.372 2082.18,109.391 2087.2,118.56 2092.21,127.619 
  2097.22,116.221 2102.24,150.661 2107.25,146.387 2112.26,110.404 2117.28,118.273 2122.29,131.57 2127.3,141.708 2132.32,124.382 2137.33,123.503 2142.34,129.57 
  2147.36,111.528 2152.37,131.088 2157.38,118.641 2162.4,128.636 2167.41,143.819 2172.42,118.02 2177.44,120.112 2182.45,115.439 2187.46,112.626 2192.48,111.734 
  2197.49,117.515 2202.5,101.96 2207.52,98.4604 2212.53,104.312 2217.54,113.544 2222.56,121.703 2227.57,103.879 2232.58,112.106 2237.6,99.5537 2242.61,102.776 
  2247.62,93.876 2252.64,107.646 2257.65,99.6872 2262.67,103.823 2267.68,92.8324 2272.69,99.6237 2277.71,120.209 2282.72,90.0309 2287.73,112.002 2292.75,109.279 
  
  "/>
<path clip-path="url(#clip670)" d="
M303.068 196.789 L765.173 196.789 L765.173 93.1086 L303.068 93.1086  Z
  " fill="#ffffff" fill-rule="evenodd" fill-opacity="1"/>
<polyline clip-path="url(#clip670)" style="stroke:#000000; stroke-linecap:round; stroke-linejoin:round; stroke-width:4; stroke-opacity:1; fill:none" points="
  303.068,196.789 765.173,196.789 765.173,93.1086 303.068,93.1086 303.068,196.789 
  "/>
<polyline clip-path="url(#clip670)" style="stroke:#009af9; stroke-linecap:round; stroke-linejoin:round; stroke-width:4; stroke-opacity:1; fill:none" points="
  326.628,144.949 467.986,144.949 
  "/>
<path clip-path="url(#clip670)" d="M509.971 137.067 L509.971 141.094 Q508.166 140.169 506.221 139.706 Q504.277 139.243 502.193 139.243 Q499.022 139.243 497.425 140.215 Q495.851 141.187 495.851 143.131 Q495.851 144.613 496.985 145.469 Q498.119 146.303 501.545 147.067 L503.004 147.391 Q507.541 148.363 509.439 150.145 Q511.36 151.905 511.36 155.076 Q511.36 158.687 508.49 160.793 Q505.642 162.9 500.642 162.9 Q498.559 162.9 496.291 162.483 Q494.045 162.09 491.545 161.28 L491.545 156.881 Q493.906 158.108 496.198 158.733 Q498.49 159.335 500.735 159.335 Q503.744 159.335 505.365 158.317 Q506.985 157.275 506.985 155.4 Q506.985 153.664 505.804 152.738 Q504.647 151.812 500.689 150.956 L499.207 150.608 Q495.249 149.775 493.49 148.062 Q491.73 146.326 491.73 143.317 Q491.73 139.659 494.323 137.669 Q496.916 135.678 501.684 135.678 Q504.045 135.678 506.129 136.025 Q508.212 136.372 509.971 137.067 Z" fill="#000000" fill-rule="evenodd" fill-opacity="1" /><path clip-path="url(#clip670)" d="M518.142 126.21 L522.402 126.21 L522.402 162.229 L518.142 162.229 L518.142 126.21 Z" fill="#000000" fill-rule="evenodd" fill-opacity="1" /><path clip-path="url(#clip670)" d="M541.36 139.289 Q537.934 139.289 535.943 141.974 Q533.952 144.636 533.952 149.289 Q533.952 153.942 535.92 156.627 Q537.911 159.289 541.36 159.289 Q544.763 159.289 546.753 156.604 Q548.744 153.918 548.744 149.289 Q548.744 144.682 546.753 141.997 Q544.763 139.289 541.36 139.289 M541.36 135.678 Q546.915 135.678 550.087 139.289 Q553.258 142.9 553.258 149.289 Q553.258 155.655 550.087 159.289 Q546.915 162.9 541.36 162.9 Q535.781 162.9 532.61 159.289 Q529.462 155.655 529.462 149.289 Q529.462 142.9 532.61 139.289 Q535.781 135.678 541.36 135.678 Z" fill="#000000" fill-rule="evenodd" fill-opacity="1" /><path clip-path="url(#clip670)" d="M557.841 136.303 L562.1 136.303 L567.424 156.534 L572.725 136.303 L577.749 136.303 L583.073 156.534 L588.373 136.303 L592.633 136.303 L585.85 162.229 L580.827 162.229 L575.249 140.979 L569.647 162.229 L564.624 162.229 L557.841 136.303 Z" fill="#000000" fill-rule="evenodd" fill-opacity="1" /><path clip-path="url(#clip670)" d="M634.345 141.28 Q635.943 138.409 638.165 137.044 Q640.387 135.678 643.396 135.678 Q647.447 135.678 649.646 138.525 Q651.845 141.349 651.845 146.581 L651.845 162.229 L647.563 162.229 L647.563 146.719 Q647.563 142.993 646.244 141.187 Q644.924 139.382 642.216 139.382 Q638.906 139.382 636.984 141.581 Q635.063 143.78 635.063 147.576 L635.063 162.229 L630.781 162.229 L630.781 146.719 Q630.781 142.969 629.461 141.187 Q628.142 139.382 625.387 139.382 Q622.123 139.382 620.202 141.604 Q618.281 143.803 618.281 147.576 L618.281 162.229 L613.998 162.229 L613.998 136.303 L618.281 136.303 L618.281 140.331 Q619.739 137.946 621.776 136.812 Q623.813 135.678 626.614 135.678 Q629.438 135.678 631.406 137.113 Q633.396 138.548 634.345 141.28 Z" fill="#000000" fill-rule="evenodd" fill-opacity="1" /><path clip-path="url(#clip670)" d="M670.387 139.289 Q666.961 139.289 664.97 141.974 Q662.98 144.636 662.98 149.289 Q662.98 153.942 664.947 156.627 Q666.938 159.289 670.387 159.289 Q673.79 159.289 675.78 156.604 Q677.771 153.918 677.771 149.289 Q677.771 144.682 675.78 141.997 Q673.79 139.289 670.387 139.289 M670.387 135.678 Q675.942 135.678 679.114 139.289 Q682.285 142.9 682.285 149.289 Q682.285 155.655 679.114 159.289 Q675.942 162.9 670.387 162.9 Q664.808 162.9 661.637 159.289 Q658.489 155.655 658.489 149.289 Q658.489 142.9 661.637 139.289 Q664.808 135.678 670.387 135.678 Z" fill="#000000" fill-rule="evenodd" fill-opacity="1" /><path clip-path="url(#clip670)" d="M706.405 140.238 L706.405 126.21 L710.664 126.21 L710.664 162.229 L706.405 162.229 L706.405 158.34 Q705.063 160.655 703.002 161.789 Q700.965 162.9 698.095 162.9 Q693.396 162.9 690.433 159.15 Q687.493 155.4 687.493 149.289 Q687.493 143.178 690.433 139.428 Q693.396 135.678 698.095 135.678 Q700.965 135.678 703.002 136.812 Q705.063 137.923 706.405 140.238 M691.891 149.289 Q691.891 153.988 693.813 156.673 Q695.757 159.335 699.137 159.335 Q702.516 159.335 704.461 156.673 Q706.405 153.988 706.405 149.289 Q706.405 144.59 704.461 141.928 Q702.516 139.243 699.137 139.243 Q695.757 139.243 693.813 141.928 Q691.891 144.59 691.891 149.289 Z" fill="#000000" fill-rule="evenodd" fill-opacity="1" /><path clip-path="url(#clip670)" d="M741.613 148.201 L741.613 150.284 L722.03 150.284 Q722.308 154.682 724.669 156.997 Q727.053 159.289 731.289 159.289 Q733.743 159.289 736.035 158.687 Q738.349 158.085 740.618 156.881 L740.618 160.909 Q738.326 161.881 735.919 162.391 Q733.512 162.9 731.035 162.9 Q724.831 162.9 721.197 159.289 Q717.586 155.678 717.586 149.52 Q717.586 143.155 721.012 139.428 Q724.461 135.678 730.294 135.678 Q735.525 135.678 738.558 139.057 Q741.613 142.414 741.613 148.201 M737.354 146.951 Q737.308 143.456 735.387 141.372 Q733.488 139.289 730.34 139.289 Q726.775 139.289 724.623 141.303 Q722.493 143.317 722.169 146.974 L737.354 146.951 Z" fill="#000000" fill-rule="evenodd" fill-opacity="1" /></svg>
