<?xml version="1.0" encoding="utf-8"?>
<svg xmlns="http://www.w3.org/2000/svg" xmlns:xlink="http://www.w3.org/1999/xlink" width="600" height="400" viewBox="0 0 2400 1600">
<defs>
  <clipPath id="clip830">
    <rect x="0" y="0" width="2400" height="1600"/>
  </clipPath>
</defs>
<path clip-path="url(#clip830)" d="
M0 1600 L2400 1600 L2400 0 L0 0  Z
  " fill="#ffffff" fill-rule="evenodd" fill-opacity="1"/>
<defs>
  <clipPath id="clip831">
    <rect x="480" y="0" width="1681" height="1600"/>
  </clipPath>
</defs>
<path clip-path="url(#clip830)" d="
M219.866 1423.18 L2352.76 1423.18 L2352.76 47.2441 L219.866 47.2441  Z
  " fill="#ffffff" fill-rule="evenodd" fill-opacity="1"/>
<defs>
  <clipPath id="clip832">
    <rect x="219" y="47" width="2134" height="1377"/>
  </clipPath>
</defs>
<polyline clip-path="url(#clip832)" style="stroke:#000000; stroke-linecap:round; stroke-linejoin:round; stroke-width:2; stroke-opacity:0.1; fill:none" points="
  275.188,1423.18 275.188,47.2441 
  "/>
<polyline clip-path="url(#clip832)" style="stroke:#000000; stroke-linecap:round; stroke-linejoin:round; stroke-width:2; stroke-opacity:0.1; fill:none" points="
  779.489,1423.18 779.489,47.2441 
  "/>
<polyline clip-path="url(#clip832)" style="stroke:#000000; stroke-linecap:round; stroke-linejoin:round; stroke-width:2; stroke-opacity:0.1; fill:none" points="
  1283.79,1423.18 1283.79,47.2441 
  "/>
<polyline clip-path="url(#clip832)" style="stroke:#000000; stroke-linecap:round; stroke-linejoin:round; stroke-width:2; stroke-opacity:0.1; fill:none" points="
  1788.09,1423.18 1788.09,47.2441 
  "/>
<polyline clip-path="url(#clip832)" style="stroke:#000000; stroke-linecap:round; stroke-linejoin:round; stroke-width:2; stroke-opacity:0.1; fill:none" points="
  2292.39,1423.18 2292.39,47.2441 
  "/>
<polyline clip-path="url(#clip830)" style="stroke:#000000; stroke-linecap:round; stroke-linejoin:round; stroke-width:4; stroke-opacity:1; fill:none" points="
  219.866,1423.18 2352.76,1423.18 
  "/>
<polyline clip-path="url(#clip830)" style="stroke:#000000; stroke-linecap:round; stroke-linejoin:round; stroke-width:4; stroke-opacity:1; fill:none" points="
  275.188,1423.18 275.188,1404.28 
  "/>
<polyline clip-path="url(#clip830)" style="stroke:#000000; stroke-linecap:round; stroke-linejoin:round; stroke-width:4; stroke-opacity:1; fill:none" points="
  779.489,1423.18 779.489,1404.28 
  "/>
<polyline clip-path="url(#clip830)" style="stroke:#000000; stroke-linecap:round; stroke-linejoin:round; stroke-width:4; stroke-opacity:1; fill:none" points="
  1283.79,1423.18 1283.79,1404.28 
  "/>
<polyline clip-path="url(#clip830)" style="stroke:#000000; stroke-linecap:round; stroke-linejoin:round; stroke-width:4; stroke-opacity:1; fill:none" points="
  1788.09,1423.18 1788.09,1404.28 
  "/>
<polyline clip-path="url(#clip830)" style="stroke:#000000; stroke-linecap:round; stroke-linejoin:round; stroke-width:4; stroke-opacity:1; fill:none" points="
  2292.39,1423.18 2292.39,1404.28 
  "/>
<path clip-path="url(#clip830)" d="M182.989 1454.1 Q179.378 1454.1 177.55 1457.66 Q175.744 1461.2 175.744 1468.33 Q175.744 1475.44 177.55 1479.01 Q179.378 1482.55 182.989 1482.55 Q186.624 1482.55 188.429 1479.01 Q190.258 1475.44 190.258 1468.33 Q190.258 1461.2 188.429 1457.66 Q186.624 1454.1 182.989 1454.1 M182.989 1450.39 Q188.8 1450.39 191.855 1455 Q194.934 1459.58 194.934 1468.33 Q194.934 1477.06 191.855 1481.67 Q188.8 1486.25 182.989 1486.25 Q177.179 1486.25 174.101 1481.67 Q171.045 1477.06 171.045 1468.33 Q171.045 1459.58 174.101 1455 Q177.179 1450.39 182.989 1450.39 Z" fill="#000000" fill-rule="evenodd" fill-opacity="1" /><path clip-path="url(#clip830)" d="M203.151 1479.7 L208.036 1479.7 L208.036 1485.58 L203.151 1485.58 L203.151 1479.7 Z" fill="#000000" fill-rule="evenodd" fill-opacity="1" /><path clip-path="url(#clip830)" d="M228.221 1454.1 Q224.61 1454.1 222.781 1457.66 Q220.975 1461.2 220.975 1468.33 Q220.975 1475.44 222.781 1479.01 Q224.61 1482.55 228.221 1482.55 Q231.855 1482.55 233.661 1479.01 Q235.489 1475.44 235.489 1468.33 Q235.489 1461.2 233.661 1457.66 Q231.855 1454.1 228.221 1454.1 M228.221 1450.39 Q234.031 1450.39 237.086 1455 Q240.165 1459.58 240.165 1468.33 Q240.165 1477.06 237.086 1481.67 Q234.031 1486.25 228.221 1486.25 Q222.411 1486.25 219.332 1481.67 Q216.276 1477.06 216.276 1468.33 Q216.276 1459.58 219.332 1455 Q222.411 1450.39 228.221 1450.39 Z" fill="#000000" fill-rule="evenodd" fill-opacity="1" /><path clip-path="url(#clip830)" d="M258.383 1454.1 Q254.772 1454.1 252.943 1457.66 Q251.137 1461.2 251.137 1468.33 Q251.137 1475.44 252.943 1479.01 Q254.772 1482.55 258.383 1482.55 Q262.017 1482.55 263.822 1479.01 Q265.651 1475.44 265.651 1468.33 Q265.651 1461.2 263.822 1457.66 Q262.017 1454.1 258.383 1454.1 M258.383 1450.39 Q264.193 1450.39 267.248 1455 Q270.327 1459.58 270.327 1468.33 Q270.327 1477.06 267.248 1481.67 Q264.193 1486.25 258.383 1486.25 Q252.572 1486.25 249.494 1481.67 Q246.438 1477.06 246.438 1468.33 Q246.438 1459.58 249.494 1455 Q252.572 1450.39 258.383 1450.39 Z" fill="#000000" fill-rule="evenodd" fill-opacity="1" /><path clip-path="url(#clip830)" d="M299.493 1459.65 L290.119 1472.27 L299.98 1485.58 L294.956 1485.58 L287.41 1475.39 L279.864 1485.58 L274.841 1485.58 L284.91 1472.02 L275.697 1459.65 L280.72 1459.65 L287.595 1468.89 L294.47 1459.65 L299.493 1459.65 Z" fill="#000000" fill-rule="evenodd" fill-opacity="1" /><path clip-path="url(#clip830)" d="M307.41 1481.64 L315.049 1481.64 L315.049 1455.28 L306.739 1456.95 L306.739 1452.69 L315.003 1451.02 L319.679 1451.02 L319.679 1481.64 L327.317 1481.64 L327.317 1485.58 L307.41 1485.58 L307.41 1481.64 Z" fill="#000000" fill-rule="evenodd" fill-opacity="1" /><path clip-path="url(#clip830)" d="M346.762 1454.1 Q343.151 1454.1 341.322 1457.66 Q339.516 1461.2 339.516 1468.33 Q339.516 1475.44 341.322 1479.01 Q343.151 1482.55 346.762 1482.55 Q350.396 1482.55 352.202 1479.01 Q354.03 1475.44 354.03 1468.33 Q354.03 1461.2 352.202 1457.66 Q350.396 1454.1 346.762 1454.1 M346.762 1450.39 Q352.572 1450.39 355.627 1455 Q358.706 1459.58 358.706 1468.33 Q358.706 1477.06 355.627 1481.67 Q352.572 1486.25 346.762 1486.25 Q340.952 1486.25 337.873 1481.67 Q334.817 1477.06 334.817 1468.33 Q334.817 1459.58 337.873 1455 Q340.952 1450.39 346.762 1450.39 Z" fill="#000000" fill-rule="evenodd" fill-opacity="1" /><path clip-path="url(#clip830)" d="M371.924 1459.35 Q369.887 1459.35 368.706 1460.56 Q367.526 1461.78 367.526 1463.89 Q367.526 1465.97 368.706 1467.18 Q369.887 1468.4 371.924 1468.4 Q373.938 1468.4 375.118 1467.18 Q376.299 1465.97 376.299 1463.89 Q376.299 1461.78 375.118 1460.56 Q373.938 1459.35 371.924 1459.35 M377.896 1451.16 L377.896 1453.54 Q376.762 1453.08 375.604 1452.85 Q374.447 1452.59 373.313 1452.59 Q370.35 1452.59 368.776 1454.33 Q367.201 1456.09 366.97 1459.63 Q367.85 1458.5 369.169 1457.89 Q370.512 1457.29 372.086 1457.29 Q375.442 1457.29 377.387 1459.05 Q379.331 1460.83 379.331 1463.89 Q379.331 1466.83 377.294 1468.66 Q375.28 1470.46 371.924 1470.46 Q368.058 1470.46 366.021 1467.89 Q363.984 1465.33 363.984 1460.42 Q363.984 1455.83 366.484 1453.13 Q368.984 1450.39 373.197 1450.39 Q374.331 1450.39 375.488 1450.58 Q376.646 1450.79 377.896 1451.16 Z" fill="#000000" fill-rule="evenodd" fill-opacity="1" /><path clip-path="url(#clip830)" d="M661.978 1481.64 L669.617 1481.64 L669.617 1455.28 L661.307 1456.95 L661.307 1452.69 L669.57 1451.02 L674.246 1451.02 L674.246 1481.64 L681.885 1481.64 L681.885 1485.58 L661.978 1485.58 L661.978 1481.64 Z" fill="#000000" fill-rule="evenodd" fill-opacity="1" /><path clip-path="url(#clip830)" d="M701.33 1454.1 Q697.718 1454.1 695.89 1457.66 Q694.084 1461.2 694.084 1468.33 Q694.084 1475.44 695.89 1479.01 Q697.718 1482.55 701.33 1482.55 Q704.964 1482.55 706.769 1479.01 Q708.598 1475.44 708.598 1468.33 Q708.598 1461.2 706.769 1457.66 Q704.964 1454.1 701.33 1454.1 M701.33 1450.39 Q707.14 1450.39 710.195 1455 Q713.274 1459.58 713.274 1468.33 Q713.274 1477.06 710.195 1481.67 Q707.14 1486.25 701.33 1486.25 Q695.519 1486.25 692.441 1481.67 Q689.385 1477.06 689.385 1468.33 Q689.385 1459.58 692.441 1455 Q695.519 1450.39 701.33 1450.39 Z" fill="#000000" fill-rule="evenodd" fill-opacity="1" /><path clip-path="url(#clip830)" d="M721.491 1479.7 L726.376 1479.7 L726.376 1485.58 L721.491 1485.58 L721.491 1479.7 Z" fill="#000000" fill-rule="evenodd" fill-opacity="1" /><path clip-path="url(#clip830)" d="M746.561 1454.1 Q742.95 1454.1 741.121 1457.66 Q739.315 1461.2 739.315 1468.33 Q739.315 1475.44 741.121 1479.01 Q742.95 1482.55 746.561 1482.55 Q750.195 1482.55 752.001 1479.01 Q753.829 1475.44 753.829 1468.33 Q753.829 1461.2 752.001 1457.66 Q750.195 1454.1 746.561 1454.1 M746.561 1450.39 Q752.371 1450.39 755.426 1455 Q758.505 1459.58 758.505 1468.33 Q758.505 1477.06 755.426 1481.67 Q752.371 1486.25 746.561 1486.25 Q740.751 1486.25 737.672 1481.67 Q734.616 1477.06 734.616 1468.33 Q734.616 1459.58 737.672 1455 Q740.751 1450.39 746.561 1450.39 Z" fill="#000000" fill-rule="evenodd" fill-opacity="1" /><path clip-path="url(#clip830)" d="M776.723 1454.1 Q773.112 1454.1 771.283 1457.66 Q769.477 1461.2 769.477 1468.33 Q769.477 1475.44 771.283 1479.01 Q773.112 1482.55 776.723 1482.55 Q780.357 1482.55 782.162 1479.01 Q783.991 1475.44 783.991 1468.33 Q783.991 1461.2 782.162 1457.66 Q780.357 1454.1 776.723 1454.1 M776.723 1450.39 Q782.533 1450.39 785.588 1455 Q788.667 1459.58 788.667 1468.33 Q788.667 1477.06 785.588 1481.67 Q782.533 1486.25 776.723 1486.25 Q770.912 1486.25 767.834 1481.67 Q764.778 1477.06 764.778 1468.33 Q764.778 1459.58 767.834 1455 Q770.912 1450.39 776.723 1450.39 Z" fill="#000000" fill-rule="evenodd" fill-opacity="1" /><path clip-path="url(#clip830)" d="M817.834 1459.65 L808.459 1472.27 L818.32 1485.58 L813.297 1485.58 L805.75 1475.39 L798.204 1485.58 L793.181 1485.58 L803.25 1472.02 L794.037 1459.65 L799.06 1459.65 L805.935 1468.89 L812.81 1459.65 L817.834 1459.65 Z" fill="#000000" fill-rule="evenodd" fill-opacity="1" /><path clip-path="url(#clip830)" d="M825.75 1481.64 L833.389 1481.64 L833.389 1455.28 L825.079 1456.95 L825.079 1452.69 L833.343 1451.02 L838.019 1451.02 L838.019 1481.64 L845.657 1481.64 L845.657 1485.58 L825.75 1485.58 L825.75 1481.64 Z" fill="#000000" fill-rule="evenodd" fill-opacity="1" /><path clip-path="url(#clip830)" d="M865.102 1454.1 Q861.491 1454.1 859.662 1457.66 Q857.856 1461.2 857.856 1468.33 Q857.856 1475.44 859.662 1479.01 Q861.491 1482.55 865.102 1482.55 Q868.736 1482.55 870.542 1479.01 Q872.37 1475.44 872.37 1468.33 Q872.37 1461.2 870.542 1457.66 Q868.736 1454.1 865.102 1454.1 M865.102 1450.39 Q870.912 1450.39 873.967 1455 Q877.046 1459.58 877.046 1468.33 Q877.046 1477.06 873.967 1481.67 Q870.912 1486.25 865.102 1486.25 Q859.292 1486.25 856.213 1481.67 Q853.157 1477.06 853.157 1468.33 Q853.157 1459.58 856.213 1455 Q859.292 1450.39 865.102 1450.39 Z" fill="#000000" fill-rule="evenodd" fill-opacity="1" /><path clip-path="url(#clip830)" d="M890.264 1459.35 Q888.227 1459.35 887.046 1460.56 Q885.866 1461.78 885.866 1463.89 Q885.866 1465.97 887.046 1467.18 Q888.227 1468.4 890.264 1468.4 Q892.278 1468.4 893.458 1467.18 Q894.639 1465.97 894.639 1463.89 Q894.639 1461.78 893.458 1460.56 Q892.278 1459.35 890.264 1459.35 M896.236 1451.16 L896.236 1453.54 Q895.102 1453.08 893.944 1452.85 Q892.787 1452.59 891.653 1452.59 Q888.69 1452.59 887.116 1454.33 Q885.541 1456.09 885.31 1459.63 Q886.19 1458.5 887.509 1457.89 Q888.852 1457.29 890.426 1457.29 Q893.782 1457.29 895.727 1459.05 Q897.671 1460.83 897.671 1463.89 Q897.671 1466.83 895.634 1468.66 Q893.62 1470.46 890.264 1470.46 Q886.398 1470.46 884.361 1467.89 Q882.324 1465.33 882.324 1460.42 Q882.324 1455.83 884.824 1453.13 Q887.324 1450.39 891.537 1450.39 Q892.671 1450.39 893.828 1450.58 Q894.986 1450.79 896.236 1451.16 Z" fill="#000000" fill-rule="evenodd" fill-opacity="1" /><path clip-path="url(#clip830)" d="M1170.36 1481.64 L1186.68 1481.64 L1186.68 1485.58 L1164.74 1485.58 L1164.74 1481.64 Q1167.4 1478.89 1171.98 1474.26 Q1176.59 1469.61 1177.77 1468.27 Q1180.02 1465.74 1180.9 1464.01 Q1181.8 1462.25 1181.8 1460.56 Q1181.8 1457.8 1179.85 1456.07 Q1177.93 1454.33 1174.83 1454.33 Q1172.63 1454.33 1170.18 1455.09 Q1167.75 1455.86 1164.97 1457.41 L1164.97 1452.69 Q1167.79 1451.55 1170.25 1450.97 Q1172.7 1450.39 1174.74 1450.39 Q1180.11 1450.39 1183.3 1453.08 Q1186.5 1455.77 1186.5 1460.26 Q1186.5 1462.39 1185.69 1464.31 Q1184.9 1466.2 1182.79 1468.8 Q1182.22 1469.47 1179.11 1472.69 Q1176.01 1475.88 1170.36 1481.64 Z" fill="#000000" fill-rule="evenodd" fill-opacity="1" /><path clip-path="url(#clip830)" d="M1206.5 1454.1 Q1202.89 1454.1 1201.06 1457.66 Q1199.25 1461.2 1199.25 1468.33 Q1199.25 1475.44 1201.06 1479.01 Q1202.89 1482.55 1206.5 1482.55 Q1210.13 1482.55 1211.94 1479.01 Q1213.77 1475.44 1213.77 1468.33 Q1213.77 1461.2 1211.94 1457.66 Q1210.13 1454.1 1206.5 1454.1 M1206.5 1450.39 Q1212.31 1450.39 1215.36 1455 Q1218.44 1459.58 1218.44 1468.33 Q1218.44 1477.06 1215.36 1481.67 Q1212.31 1486.25 1206.5 1486.25 Q1200.69 1486.25 1197.61 1481.67 Q1194.55 1477.06 1194.55 1468.33 Q1194.55 1459.58 1197.61 1455 Q1200.69 1450.39 1206.5 1450.39 Z" fill="#000000" fill-rule="evenodd" fill-opacity="1" /><path clip-path="url(#clip830)" d="M1226.66 1479.7 L1231.54 1479.7 L1231.54 1485.58 L1226.66 1485.58 L1226.66 1479.7 Z" fill="#000000" fill-rule="evenodd" fill-opacity="1" /><path clip-path="url(#clip830)" d="M1251.73 1454.1 Q1248.12 1454.1 1246.29 1457.66 Q1244.48 1461.2 1244.48 1468.33 Q1244.48 1475.44 1246.29 1479.01 Q1248.12 1482.55 1251.73 1482.55 Q1255.36 1482.55 1257.17 1479.01 Q1259 1475.44 1259 1468.33 Q1259 1461.2 1257.17 1457.66 Q1255.36 1454.1 1251.73 1454.1 M1251.73 1450.39 Q1257.54 1450.39 1260.6 1455 Q1263.67 1459.58 1263.67 1468.33 Q1263.67 1477.06 1260.6 1481.67 Q1257.54 1486.25 1251.73 1486.25 Q1245.92 1486.25 1242.84 1481.67 Q1239.79 1477.06 1239.79 1468.33 Q1239.79 1459.58 1242.84 1455 Q1245.92 1450.39 1251.73 1450.39 Z" fill="#000000" fill-rule="evenodd" fill-opacity="1" /><path clip-path="url(#clip830)" d="M1281.89 1454.1 Q1278.28 1454.1 1276.45 1457.66 Q1274.65 1461.2 1274.65 1468.33 Q1274.65 1475.44 1276.45 1479.01 Q1278.28 1482.55 1281.89 1482.55 Q1285.53 1482.55 1287.33 1479.01 Q1289.16 1475.44 1289.16 1468.33 Q1289.16 1461.2 1287.33 1457.66 Q1285.53 1454.1 1281.89 1454.1 M1281.89 1450.39 Q1287.7 1450.39 1290.76 1455 Q1293.84 1459.58 1293.84 1468.33 Q1293.84 1477.06 1290.76 1481.67 Q1287.7 1486.25 1281.89 1486.25 Q1276.08 1486.25 1273 1481.67 Q1269.95 1477.06 1269.95 1468.33 Q1269.95 1459.58 1273 1455 Q1276.08 1450.39 1281.89 1450.39 Z" fill="#000000" fill-rule="evenodd" fill-opacity="1" /><path clip-path="url(#clip830)" d="M1323 1459.65 L1313.63 1472.27 L1323.49 1485.58 L1318.47 1485.58 L1310.92 1475.39 L1303.37 1485.58 L1298.35 1485.58 L1308.42 1472.02 L1299.21 1459.65 L1304.23 1459.65 L1311.1 1468.89 L1317.98 1459.65 L1323 1459.65 Z" fill="#000000" fill-rule="evenodd" fill-opacity="1" /><path clip-path="url(#clip830)" d="M1330.92 1481.64 L1338.56 1481.64 L1338.56 1455.28 L1330.25 1456.95 L1330.25 1452.69 L1338.51 1451.02 L1343.19 1451.02 L1343.19 1481.64 L1350.83 1481.64 L1350.83 1485.58 L1330.92 1485.58 L1330.92 1481.64 Z" fill="#000000" fill-rule="evenodd" fill-opacity="1" /><path clip-path="url(#clip830)" d="M1370.27 1454.1 Q1366.66 1454.1 1364.83 1457.66 Q1363.03 1461.2 1363.03 1468.33 Q1363.03 1475.44 1364.83 1479.01 Q1366.66 1482.55 1370.27 1482.55 Q1373.9 1482.55 1375.71 1479.01 Q1377.54 1475.44 1377.54 1468.33 Q1377.54 1461.2 1375.71 1457.66 Q1373.9 1454.1 1370.27 1454.1 M1370.27 1450.39 Q1376.08 1450.39 1379.14 1455 Q1382.21 1459.58 1382.21 1468.33 Q1382.21 1477.06 1379.14 1481.67 Q1376.08 1486.25 1370.27 1486.25 Q1364.46 1486.25 1361.38 1481.67 Q1358.33 1477.06 1358.33 1468.33 Q1358.33 1459.58 1361.38 1455 Q1364.46 1450.39 1370.27 1450.39 Z" fill="#000000" fill-rule="evenodd" fill-opacity="1" /><path clip-path="url(#clip830)" d="M1395.43 1459.35 Q1393.4 1459.35 1392.21 1460.56 Q1391.03 1461.78 1391.03 1463.89 Q1391.03 1465.97 1392.21 1467.18 Q1393.4 1468.4 1395.43 1468.4 Q1397.45 1468.4 1398.63 1467.18 Q1399.81 1465.97 1399.81 1463.89 Q1399.81 1461.78 1398.63 1460.56 Q1397.45 1459.35 1395.43 1459.35 M1401.4 1451.16 L1401.4 1453.54 Q1400.27 1453.08 1399.11 1452.85 Q1397.96 1452.59 1396.82 1452.59 Q1393.86 1452.59 1392.28 1454.33 Q1390.71 1456.09 1390.48 1459.63 Q1391.36 1458.5 1392.68 1457.89 Q1394.02 1457.29 1395.59 1457.29 Q1398.95 1457.29 1400.9 1459.05 Q1402.84 1460.83 1402.84 1463.89 Q1402.84 1466.83 1400.8 1468.66 Q1398.79 1470.46 1395.43 1470.46 Q1391.57 1470.46 1389.53 1467.89 Q1387.49 1465.33 1387.49 1460.42 Q1387.49 1455.83 1389.99 1453.13 Q1392.49 1450.39 1396.71 1450.39 Q1397.84 1450.39 1399 1450.58 Q1400.15 1450.79 1401.4 1451.16 Z" fill="#000000" fill-rule="evenodd" fill-opacity="1" /><path clip-path="url(#clip830)" d="M1684.73 1466.95 Q1688.09 1467.66 1689.97 1469.93 Q1691.86 1472.2 1691.86 1475.53 Q1691.86 1480.65 1688.35 1483.45 Q1684.83 1486.25 1678.35 1486.25 Q1676.17 1486.25 1673.85 1485.81 Q1671.56 1485.39 1669.11 1484.54 L1669.11 1480.02 Q1671.05 1481.16 1673.37 1481.74 Q1675.68 1482.32 1678.21 1482.32 Q1682.6 1482.32 1684.9 1480.58 Q1687.21 1478.84 1687.21 1475.53 Q1687.21 1472.48 1685.06 1470.77 Q1682.93 1469.03 1679.11 1469.03 L1675.08 1469.03 L1675.08 1465.19 L1679.29 1465.19 Q1682.74 1465.19 1684.57 1463.82 Q1686.4 1462.43 1686.4 1459.84 Q1686.4 1457.18 1684.5 1455.77 Q1682.63 1454.33 1679.11 1454.33 Q1677.19 1454.33 1674.99 1454.75 Q1672.79 1455.16 1670.15 1456.04 L1670.15 1451.88 Q1672.81 1451.14 1675.13 1450.77 Q1677.47 1450.39 1679.53 1450.39 Q1684.85 1450.39 1687.95 1452.83 Q1691.05 1455.23 1691.05 1459.35 Q1691.05 1462.22 1689.41 1464.21 Q1687.77 1466.18 1684.73 1466.95 Z" fill="#000000" fill-rule="evenodd" fill-opacity="1" /><path clip-path="url(#clip830)" d="M1710.73 1454.1 Q1707.12 1454.1 1705.29 1457.66 Q1703.48 1461.2 1703.48 1468.33 Q1703.48 1475.44 1705.29 1479.01 Q1707.12 1482.55 1710.73 1482.55 Q1714.36 1482.55 1716.17 1479.01 Q1718 1475.44 1718 1468.33 Q1718 1461.2 1716.17 1457.66 Q1714.36 1454.1 1710.73 1454.1 M1710.73 1450.39 Q1716.54 1450.39 1719.6 1455 Q1722.67 1459.58 1722.67 1468.33 Q1722.67 1477.06 1719.6 1481.67 Q1716.54 1486.25 1710.73 1486.25 Q1704.92 1486.25 1701.84 1481.67 Q1698.79 1477.06 1698.79 1468.33 Q1698.79 1459.58 1701.84 1455 Q1704.92 1450.39 1710.73 1450.39 Z" fill="#000000" fill-rule="evenodd" fill-opacity="1" /><path clip-path="url(#clip830)" d="M1730.89 1479.7 L1735.78 1479.7 L1735.78 1485.58 L1730.89 1485.58 L1730.89 1479.7 Z" fill="#000000" fill-rule="evenodd" fill-opacity="1" /><path clip-path="url(#clip830)" d="M1755.96 1454.1 Q1752.35 1454.1 1750.52 1457.66 Q1748.72 1461.2 1748.72 1468.33 Q1748.72 1475.44 1750.52 1479.01 Q1752.35 1482.55 1755.96 1482.55 Q1759.6 1482.55 1761.4 1479.01 Q1763.23 1475.44 1763.23 1468.33 Q1763.23 1461.2 1761.4 1457.66 Q1759.6 1454.1 1755.96 1454.1 M1755.96 1450.39 Q1761.77 1450.39 1764.83 1455 Q1767.91 1459.58 1767.91 1468.33 Q1767.91 1477.06 1764.83 1481.67 Q1761.77 1486.25 1755.96 1486.25 Q1750.15 1486.25 1747.07 1481.67 Q1744.02 1477.06 1744.02 1468.33 Q1744.02 1459.58 1747.07 1455 Q1750.15 1450.39 1755.96 1450.39 Z" fill="#000000" fill-rule="evenodd" fill-opacity="1" /><path clip-path="url(#clip830)" d="M1786.12 1454.1 Q1782.51 1454.1 1780.68 1457.66 Q1778.88 1461.2 1778.88 1468.33 Q1778.88 1475.44 1780.68 1479.01 Q1782.51 1482.55 1786.12 1482.55 Q1789.76 1482.55 1791.56 1479.01 Q1793.39 1475.44 1793.39 1468.33 Q1793.39 1461.2 1791.56 1457.66 Q1789.76 1454.1 1786.12 1454.1 M1786.12 1450.39 Q1791.93 1450.39 1794.99 1455 Q1798.07 1459.58 1798.07 1468.33 Q1798.07 1477.06 1794.99 1481.67 Q1791.93 1486.25 1786.12 1486.25 Q1780.31 1486.25 1777.23 1481.67 Q1774.18 1477.06 1774.18 1468.33 Q1774.18 1459.58 1777.23 1455 Q1780.31 1450.39 1786.12 1450.39 Z" fill="#000000" fill-rule="evenodd" fill-opacity="1" /><path clip-path="url(#clip830)" d="M1827.23 1459.65 L1817.86 1472.27 L1827.72 1485.58 L1822.7 1485.58 L1815.15 1475.39 L1807.6 1485.58 L1802.58 1485.58 L1812.65 1472.02 L1803.44 1459.65 L1808.46 1459.65 L1815.34 1468.89 L1822.21 1459.65 L1827.23 1459.65 Z" fill="#000000" fill-rule="evenodd" fill-opacity="1" /><path clip-path="url(#clip830)" d="M1835.15 1481.64 L1842.79 1481.64 L1842.79 1455.28 L1834.48 1456.95 L1834.48 1452.69 L1842.74 1451.02 L1847.42 1451.02 L1847.42 1481.64 L1855.06 1481.64 L1855.06 1485.58 L1835.15 1485.58 L1835.15 1481.64 Z" fill="#000000" fill-rule="evenodd" fill-opacity="1" /><path clip-path="url(#clip830)" d="M1874.5 1454.1 Q1870.89 1454.1 1869.06 1457.66 Q1867.26 1461.2 1867.26 1468.33 Q1867.26 1475.44 1869.06 1479.01 Q1870.89 1482.55 1874.5 1482.55 Q1878.14 1482.55 1879.94 1479.01 Q1881.77 1475.44 1881.77 1468.33 Q1881.77 1461.2 1879.94 1457.66 Q1878.14 1454.1 1874.5 1454.1 M1874.5 1450.39 Q1880.31 1450.39 1883.37 1455 Q1886.45 1459.58 1886.45 1468.33 Q1886.45 1477.06 1883.37 1481.67 Q1880.31 1486.25 1874.5 1486.25 Q1868.69 1486.25 1865.61 1481.67 Q1862.56 1477.06 1862.56 1468.33 Q1862.56 1459.58 1865.61 1455 Q1868.69 1450.39 1874.5 1450.39 Z" fill="#000000" fill-rule="evenodd" fill-opacity="1" /><path clip-path="url(#clip830)" d="M1899.66 1459.35 Q1897.63 1459.35 1896.45 1460.56 Q1895.27 1461.78 1895.27 1463.89 Q1895.27 1465.97 1896.45 1467.18 Q1897.63 1468.4 1899.66 1468.4 Q1901.68 1468.4 1902.86 1467.18 Q1904.04 1465.97 1904.04 1463.89 Q1904.04 1461.78 1902.86 1460.56 Q1901.68 1459.35 1899.66 1459.35 M1905.64 1451.16 L1905.64 1453.54 Q1904.5 1453.08 1903.34 1452.85 Q1902.19 1452.59 1901.05 1452.59 Q1898.09 1452.59 1896.52 1454.33 Q1894.94 1456.09 1894.71 1459.63 Q1895.59 1458.5 1896.91 1457.89 Q1898.25 1457.29 1899.83 1457.29 Q1903.18 1457.29 1905.13 1459.05 Q1907.07 1460.83 1907.07 1463.89 Q1907.07 1466.83 1905.03 1468.66 Q1903.02 1470.46 1899.66 1470.46 Q1895.8 1470.46 1893.76 1467.89 Q1891.72 1465.33 1891.72 1460.42 Q1891.72 1455.83 1894.22 1453.13 Q1896.72 1450.39 1900.94 1450.39 Q1902.07 1450.39 1903.23 1450.58 Q1904.39 1450.79 1905.64 1451.16 Z" fill="#000000" fill-rule="evenodd" fill-opacity="1" /><path clip-path="url(#clip830)" d="M2188.36 1455.09 L2176.56 1473.54 L2188.36 1473.54 L2188.36 1455.09 M2187.14 1451.02 L2193.02 1451.02 L2193.02 1473.54 L2197.95 1473.54 L2197.95 1477.43 L2193.02 1477.43 L2193.02 1485.58 L2188.36 1485.58 L2188.36 1477.43 L2172.76 1477.43 L2172.76 1472.92 L2187.14 1451.02 Z" fill="#000000" fill-rule="evenodd" fill-opacity="1" /><path clip-path="url(#clip830)" d="M2215.68 1454.1 Q2212.07 1454.1 2210.24 1457.66 Q2208.43 1461.2 2208.43 1468.33 Q2208.43 1475.44 2210.24 1479.01 Q2212.07 1482.55 2215.68 1482.55 Q2219.31 1482.55 2221.12 1479.01 Q2222.95 1475.44 2222.95 1468.33 Q2222.95 1461.2 2221.12 1457.66 Q2219.31 1454.1 2215.68 1454.1 M2215.68 1450.39 Q2221.49 1450.39 2224.54 1455 Q2227.62 1459.58 2227.62 1468.33 Q2227.62 1477.06 2224.54 1481.67 Q2221.49 1486.25 2215.68 1486.25 Q2209.87 1486.25 2206.79 1481.67 Q2203.73 1477.06 2203.73 1468.33 Q2203.73 1459.58 2206.79 1455 Q2209.87 1450.39 2215.68 1450.39 Z" fill="#000000" fill-rule="evenodd" fill-opacity="1" /><path clip-path="url(#clip830)" d="M2235.84 1479.7 L2240.72 1479.7 L2240.72 1485.58 L2235.84 1485.58 L2235.84 1479.7 Z" fill="#000000" fill-rule="evenodd" fill-opacity="1" /><path clip-path="url(#clip830)" d="M2260.91 1454.1 Q2257.3 1454.1 2255.47 1457.66 Q2253.66 1461.2 2253.66 1468.33 Q2253.66 1475.44 2255.47 1479.01 Q2257.3 1482.55 2260.91 1482.55 Q2264.54 1482.55 2266.35 1479.01 Q2268.18 1475.44 2268.18 1468.33 Q2268.18 1461.2 2266.35 1457.66 Q2264.54 1454.1 2260.91 1454.1 M2260.91 1450.39 Q2266.72 1450.39 2269.78 1455 Q2272.85 1459.58 2272.85 1468.33 Q2272.85 1477.06 2269.78 1481.67 Q2266.72 1486.25 2260.91 1486.25 Q2255.1 1486.25 2252.02 1481.67 Q2248.97 1477.06 2248.97 1468.33 Q2248.97 1459.58 2252.02 1455 Q2255.1 1450.39 2260.91 1450.39 Z" fill="#000000" fill-rule="evenodd" fill-opacity="1" /><path clip-path="url(#clip830)" d="M2291.07 1454.1 Q2287.46 1454.1 2285.63 1457.66 Q2283.83 1461.2 2283.83 1468.33 Q2283.83 1475.44 2285.63 1479.01 Q2287.46 1482.55 2291.07 1482.55 Q2294.71 1482.55 2296.51 1479.01 Q2298.34 1475.44 2298.34 1468.33 Q2298.34 1461.2 2296.51 1457.66 Q2294.71 1454.1 2291.07 1454.1 M2291.07 1450.39 Q2296.88 1450.39 2299.94 1455 Q2303.02 1459.58 2303.02 1468.33 Q2303.02 1477.06 2299.94 1481.67 Q2296.88 1486.25 2291.07 1486.25 Q2285.26 1486.25 2282.18 1481.67 Q2279.13 1477.06 2279.13 1468.33 Q2279.13 1459.58 2282.18 1455 Q2285.26 1450.39 2291.07 1450.39 Z" fill="#000000" fill-rule="evenodd" fill-opacity="1" /><path clip-path="url(#clip830)" d="M2332.18 1459.65 L2322.81 1472.27 L2332.67 1485.58 L2327.65 1485.58 L2320.1 1475.39 L2312.55 1485.58 L2307.53 1485.58 L2317.6 1472.02 L2308.39 1459.65 L2313.41 1459.65 L2320.28 1468.89 L2327.16 1459.65 L2332.18 1459.65 Z" fill="#000000" fill-rule="evenodd" fill-opacity="1" /><path clip-path="url(#clip830)" d="M2340.1 1481.64 L2347.74 1481.64 L2347.74 1455.28 L2339.43 1456.95 L2339.43 1452.69 L2347.69 1451.02 L2352.37 1451.02 L2352.37 1481.64 L2360.01 1481.64 L2360.01 1485.58 L2340.1 1485.58 L2340.1 1481.64 Z" fill="#000000" fill-rule="evenodd" fill-opacity="1" /><path clip-path="url(#clip830)" d="M2379.45 1454.1 Q2375.84 1454.1 2374.01 1457.66 Q2372.21 1461.2 2372.21 1468.33 Q2372.21 1475.44 2374.01 1479.01 Q2375.84 1482.55 2379.45 1482.55 Q2383.09 1482.55 2384.89 1479.01 Q2386.72 1475.44 2386.72 1468.33 Q2386.72 1461.2 2384.89 1457.66 Q2383.09 1454.1 2379.45 1454.1 M2379.45 1450.39 Q2385.26 1450.39 2388.32 1455 Q2391.4 1459.58 2391.4 1468.33 Q2391.4 1477.06 2388.32 1481.67 Q2385.26 1486.25 2379.45 1486.25 Q2373.64 1486.25 2370.56 1481.67 Q2367.51 1477.06 2367.51 1468.33 Q2367.51 1459.58 2370.56 1455 Q2373.64 1450.39 2379.45 1450.39 Z" fill="#000000" fill-rule="evenodd" fill-opacity="1" /><path clip-path="url(#clip830)" d="M2404.61 1459.35 Q2402.58 1459.35 2401.4 1460.56 Q2400.21 1461.78 2400.21 1463.89 Q2400.21 1465.97 2401.4 1467.18 Q2402.58 1468.4 2404.61 1468.4 Q2406.63 1468.4 2407.81 1467.18 Q2408.99 1465.97 2408.99 1463.89 Q2408.99 1461.78 2407.81 1460.56 Q2406.63 1459.35 2404.61 1459.35 M2410.58 1451.16 L2410.58 1453.54 Q2409.45 1453.08 2408.29 1452.85 Q2407.14 1452.59 2406 1452.59 Q2403.04 1452.59 2401.46 1454.33 Q2399.89 1456.09 2399.66 1459.63 Q2400.54 1458.5 2401.86 1457.89 Q2403.2 1457.29 2404.77 1457.29 Q2408.13 1457.29 2410.08 1459.05 Q2412.02 1460.83 2412.02 1463.89 Q2412.02 1466.83 2409.98 1468.66 Q2407.97 1470.46 2404.61 1470.46 Q2400.75 1470.46 2398.71 1467.89 Q2396.67 1465.33 2396.67 1460.42 Q2396.67 1455.83 2399.17 1453.13 Q2401.67 1450.39 2405.89 1450.39 Q2407.02 1450.39 2408.18 1450.58 Q2409.33 1450.79 2410.58 1451.16 Z" fill="#000000" fill-rule="evenodd" fill-opacity="1" /><path clip-path="url(#clip830)" d="M1135.87 1520.52 L1142.3 1520.52 L1142.3 1568.04 L1135.87 1568.04 L1135.87 1520.52 Z" fill="#000000" fill-rule="evenodd" fill-opacity="1" /><path clip-path="url(#clip830)" d="M1160.64 1522.27 L1160.64 1532.4 L1172.7 1532.4 L1172.7 1536.95 L1160.64 1536.95 L1160.64 1556.3 Q1160.64 1560.66 1161.81 1561.9 Q1163.02 1563.14 1166.68 1563.14 L1172.7 1563.14 L1172.7 1568.04 L1166.68 1568.04 Q1159.9 1568.04 1157.33 1565.53 Q1154.75 1562.98 1154.75 1556.3 L1154.75 1536.95 L1150.45 1536.95 L1150.45 1532.4 L1154.75 1532.4 L1154.75 1522.27 L1160.64 1522.27 Z" fill="#000000" fill-rule="evenodd" fill-opacity="1" /><path clip-path="url(#clip830)" d="M1210.89 1548.76 L1210.89 1551.62 L1183.97 1551.62 Q1184.35 1557.67 1187.59 1560.85 Q1190.87 1564 1196.7 1564 Q1200.07 1564 1203.22 1563.17 Q1206.41 1562.35 1209.52 1560.69 L1209.52 1566.23 Q1206.37 1567.57 1203.06 1568.27 Q1199.75 1568.97 1196.35 1568.97 Q1187.82 1568.97 1182.82 1564 Q1177.86 1559.04 1177.86 1550.57 Q1177.86 1541.82 1182.57 1536.69 Q1187.31 1531.54 1195.33 1531.54 Q1202.52 1531.54 1206.69 1536.18 Q1210.89 1540.8 1210.89 1548.76 M1205.04 1547.04 Q1204.97 1542.23 1202.33 1539.37 Q1199.72 1536.5 1195.39 1536.5 Q1190.49 1536.5 1187.53 1539.27 Q1184.6 1542.04 1184.16 1547.07 L1205.04 1547.04 Z" fill="#000000" fill-rule="evenodd" fill-opacity="1" /><path clip-path="url(#clip830)" d="M1241.16 1537.87 Q1240.18 1537.3 1239 1537.04 Q1237.85 1536.76 1236.45 1536.76 Q1231.49 1536.76 1228.81 1540 Q1226.17 1543.22 1226.17 1549.27 L1226.17 1568.04 L1220.28 1568.04 L1220.28 1532.4 L1226.17 1532.4 L1226.17 1537.93 Q1228.02 1534.69 1230.98 1533.13 Q1233.94 1531.54 1238.17 1531.54 Q1238.78 1531.54 1239.51 1531.63 Q1240.24 1531.7 1241.13 1531.85 L1241.16 1537.87 Z" fill="#000000" fill-rule="evenodd" fill-opacity="1" /><path clip-path="url(#clip830)" d="M1263.51 1550.12 Q1256.41 1550.12 1253.67 1551.75 Q1250.93 1553.37 1250.93 1557.29 Q1250.93 1560.4 1252.97 1562.25 Q1255.04 1564.07 1258.57 1564.07 Q1263.44 1564.07 1266.37 1560.63 Q1269.33 1557.16 1269.33 1551.43 L1269.33 1550.12 L1263.51 1550.12 M1275.19 1547.71 L1275.19 1568.04 L1269.33 1568.04 L1269.33 1562.63 Q1267.33 1565.88 1264.33 1567.44 Q1261.34 1568.97 1257.01 1568.97 Q1251.54 1568.97 1248.29 1565.91 Q1245.08 1562.82 1245.08 1557.67 Q1245.08 1551.65 1249.09 1548.6 Q1253.13 1545.54 1261.12 1545.54 L1269.33 1545.54 L1269.33 1544.97 Q1269.33 1540.93 1266.66 1538.73 Q1264.02 1536.5 1259.21 1536.5 Q1256.15 1536.5 1253.26 1537.23 Q1250.36 1537.97 1247.69 1539.43 L1247.69 1534.02 Q1250.9 1532.78 1253.93 1532.17 Q1256.95 1531.54 1259.81 1531.54 Q1267.55 1531.54 1271.37 1535.55 Q1275.19 1539.56 1275.19 1547.71 Z" fill="#000000" fill-rule="evenodd" fill-opacity="1" /><path clip-path="url(#clip830)" d="M1293.04 1522.27 L1293.04 1532.4 L1305.11 1532.4 L1305.11 1536.95 L1293.04 1536.95 L1293.04 1556.3 Q1293.04 1560.66 1294.22 1561.9 Q1295.43 1563.14 1299.09 1563.14 L1305.11 1563.14 L1305.11 1568.04 L1299.09 1568.04 Q1292.31 1568.04 1289.73 1565.53 Q1287.15 1562.98 1287.15 1556.3 L1287.15 1536.95 L1282.86 1536.95 L1282.86 1532.4 L1287.15 1532.4 L1287.15 1522.27 L1293.04 1522.27 Z" fill="#000000" fill-rule="evenodd" fill-opacity="1" /><path clip-path="url(#clip830)" d="M1312.81 1532.4 L1318.66 1532.4 L1318.66 1568.04 L1312.81 1568.04 L1312.81 1532.4 M1312.81 1518.52 L1318.66 1518.52 L1318.66 1525.93 L1312.81 1525.93 L1312.81 1518.52 Z" fill="#000000" fill-rule="evenodd" fill-opacity="1" /><path clip-path="url(#clip830)" d="M1344.73 1536.5 Q1340.02 1536.5 1337.28 1540.19 Q1334.55 1543.85 1334.55 1550.25 Q1334.55 1556.65 1337.25 1560.34 Q1339.99 1564 1344.73 1564 Q1349.41 1564 1352.15 1560.31 Q1354.89 1556.62 1354.89 1550.25 Q1354.89 1543.92 1352.15 1540.23 Q1349.41 1536.5 1344.73 1536.5 M1344.73 1531.54 Q1352.37 1531.54 1356.73 1536.5 Q1361.09 1541.47 1361.09 1550.25 Q1361.09 1559 1356.73 1564 Q1352.37 1568.97 1344.73 1568.97 Q1337.06 1568.97 1332.7 1564 Q1328.37 1559 1328.37 1550.25 Q1328.37 1541.47 1332.7 1536.5 Q1337.06 1531.54 1344.73 1531.54 Z" fill="#000000" fill-rule="evenodd" fill-opacity="1" /><path clip-path="url(#clip830)" d="M1400.43 1546.53 L1400.43 1568.04 L1394.58 1568.04 L1394.58 1546.72 Q1394.58 1541.66 1392.6 1539.14 Q1390.63 1536.63 1386.68 1536.63 Q1381.94 1536.63 1379.2 1539.65 Q1376.47 1542.68 1376.47 1547.9 L1376.47 1568.04 L1370.58 1568.04 L1370.58 1532.4 L1376.47 1532.4 L1376.47 1537.93 Q1378.57 1534.72 1381.4 1533.13 Q1384.26 1531.54 1387.99 1531.54 Q1394.13 1531.54 1397.28 1535.36 Q1400.43 1539.14 1400.43 1546.53 Z" fill="#000000" fill-rule="evenodd" fill-opacity="1" /><path clip-path="url(#clip830)" d="M1434.84 1533.45 L1434.84 1538.98 Q1432.36 1537.71 1429.68 1537.07 Q1427.01 1536.44 1424.14 1536.44 Q1419.78 1536.44 1417.59 1537.77 Q1415.42 1539.11 1415.42 1541.79 Q1415.42 1543.82 1416.98 1545 Q1418.54 1546.15 1423.25 1547.2 L1425.26 1547.64 Q1431.5 1548.98 1434.11 1551.43 Q1436.75 1553.85 1436.75 1558.21 Q1436.75 1563.17 1432.8 1566.07 Q1428.89 1568.97 1422.01 1568.97 Q1419.15 1568.97 1416.03 1568.39 Q1412.94 1567.85 1409.5 1566.74 L1409.5 1560.69 Q1412.75 1562.38 1415.9 1563.24 Q1419.05 1564.07 1422.14 1564.07 Q1426.28 1564.07 1428.51 1562.66 Q1430.73 1561.23 1430.73 1558.65 Q1430.73 1556.27 1429.11 1554.99 Q1427.52 1553.72 1422.08 1552.54 L1420.04 1552.07 Q1414.6 1550.92 1412.18 1548.56 Q1409.76 1546.18 1409.76 1542.04 Q1409.76 1537.01 1413.32 1534.27 Q1416.89 1531.54 1423.44 1531.54 Q1426.69 1531.54 1429.56 1532.01 Q1432.42 1532.49 1434.84 1533.45 Z" fill="#000000" fill-rule="evenodd" fill-opacity="1" /><polyline clip-path="url(#clip832)" style="stroke:#000000; stroke-linecap:round; stroke-linejoin:round; stroke-width:2; stroke-opacity:0.1; fill:none" points="
  219.866,1384.24 2352.76,1384.24 
  "/>
<polyline clip-path="url(#clip832)" style="stroke:#000000; stroke-linecap:round; stroke-linejoin:round; stroke-width:2; stroke-opacity:0.1; fill:none" points="
  219.866,1254.43 2352.76,1254.43 
  "/>
<polyline clip-path="url(#clip832)" style="stroke:#000000; stroke-linecap:round; stroke-linejoin:round; stroke-width:2; stroke-opacity:0.1; fill:none" points="
  219.866,1124.63 2352.76,1124.63 
  "/>
<polyline clip-path="url(#clip832)" style="stroke:#000000; stroke-linecap:round; stroke-linejoin:round; stroke-width:2; stroke-opacity:0.1; fill:none" points="
  219.866,994.822 2352.76,994.822 
  "/>
<polyline clip-path="url(#clip832)" style="stroke:#000000; stroke-linecap:round; stroke-linejoin:round; stroke-width:2; stroke-opacity:0.1; fill:none" points="
  219.866,865.017 2352.76,865.017 
  "/>
<polyline clip-path="url(#clip832)" style="stroke:#000000; stroke-linecap:round; stroke-linejoin:round; stroke-width:2; stroke-opacity:0.1; fill:none" points="
  219.866,735.212 2352.76,735.212 
  "/>
<polyline clip-path="url(#clip832)" style="stroke:#000000; stroke-linecap:round; stroke-linejoin:round; stroke-width:2; stroke-opacity:0.1; fill:none" points="
  219.866,605.407 2352.76,605.407 
  "/>
<polyline clip-path="url(#clip832)" style="stroke:#000000; stroke-linecap:round; stroke-linejoin:round; stroke-width:2; stroke-opacity:0.1; fill:none" points="
  219.866,475.601 2352.76,475.601 
  "/>
<polyline clip-path="url(#clip832)" style="stroke:#000000; stroke-linecap:round; stroke-linejoin:round; stroke-width:2; stroke-opacity:0.1; fill:none" points="
  219.866,345.796 2352.76,345.796 
  "/>
<polyline clip-path="url(#clip832)" style="stroke:#000000; stroke-linecap:round; stroke-linejoin:round; stroke-width:2; stroke-opacity:0.1; fill:none" points="
  219.866,215.991 2352.76,215.991 
  "/>
<polyline clip-path="url(#clip832)" style="stroke:#000000; stroke-linecap:round; stroke-linejoin:round; stroke-width:2; stroke-opacity:0.1; fill:none" points="
  219.866,86.1857 2352.76,86.1857 
  "/>
<polyline clip-path="url(#clip830)" style="stroke:#000000; stroke-linecap:round; stroke-linejoin:round; stroke-width:4; stroke-opacity:1; fill:none" points="
  219.866,1423.18 219.866,47.2441 
  "/>
<polyline clip-path="url(#clip830)" style="stroke:#000000; stroke-linecap:round; stroke-linejoin:round; stroke-width:4; stroke-opacity:1; fill:none" points="
  219.866,1384.24 238.764,1384.24 
  "/>
<polyline clip-path="url(#clip830)" style="stroke:#000000; stroke-linecap:round; stroke-linejoin:round; stroke-width:4; stroke-opacity:1; fill:none" points="
  219.866,1254.43 238.764,1254.43 
  "/>
<polyline clip-path="url(#clip830)" style="stroke:#000000; stroke-linecap:round; stroke-linejoin:round; stroke-width:4; stroke-opacity:1; fill:none" points="
  219.866,1124.63 238.764,1124.63 
  "/>
<polyline clip-path="url(#clip830)" style="stroke:#000000; stroke-linecap:round; stroke-linejoin:round; stroke-width:4; stroke-opacity:1; fill:none" points="
  219.866,994.822 238.764,994.822 
  "/>
<polyline clip-path="url(#clip830)" style="stroke:#000000; stroke-linecap:round; stroke-linejoin:round; stroke-width:4; stroke-opacity:1; fill:none" points="
  219.866,865.017 238.764,865.017 
  "/>
<polyline clip-path="url(#clip830)" style="stroke:#000000; stroke-linecap:round; stroke-linejoin:round; stroke-width:4; stroke-opacity:1; fill:none" points="
  219.866,735.212 238.764,735.212 
  "/>
<polyline clip-path="url(#clip830)" style="stroke:#000000; stroke-linecap:round; stroke-linejoin:round; stroke-width:4; stroke-opacity:1; fill:none" points="
  219.866,605.407 238.764,605.407 
  "/>
<polyline clip-path="url(#clip830)" style="stroke:#000000; stroke-linecap:round; stroke-linejoin:round; stroke-width:4; stroke-opacity:1; fill:none" points="
  219.866,475.601 238.764,475.601 
  "/>
<polyline clip-path="url(#clip830)" style="stroke:#000000; stroke-linecap:round; stroke-linejoin:round; stroke-width:4; stroke-opacity:1; fill:none" points="
  219.866,345.796 238.764,345.796 
  "/>
<polyline clip-path="url(#clip830)" style="stroke:#000000; stroke-linecap:round; stroke-linejoin:round; stroke-width:4; stroke-opacity:1; fill:none" points="
  219.866,215.991 238.764,215.991 
  "/>
<polyline clip-path="url(#clip830)" style="stroke:#000000; stroke-linecap:round; stroke-linejoin:round; stroke-width:4; stroke-opacity:1; fill:none" points="
  219.866,86.1857 238.764,86.1857 
  "/>
<path clip-path="url(#clip830)" d="M126.691 1370.04 Q123.08 1370.04 121.251 1373.6 Q119.445 1377.14 119.445 1384.27 Q119.445 1391.38 121.251 1394.94 Q123.08 1398.49 126.691 1398.49 Q130.325 1398.49 132.13 1394.94 Q133.959 1391.38 133.959 1384.27 Q133.959 1377.14 132.13 1373.6 Q130.325 1370.04 126.691 1370.04 M126.691 1366.33 Q132.501 1366.33 135.556 1370.94 Q138.635 1375.52 138.635 1384.27 Q138.635 1393 135.556 1397.61 Q132.501 1402.19 126.691 1402.19 Q120.88 1402.19 117.802 1397.61 Q114.746 1393 114.746 1384.27 Q114.746 1375.52 117.802 1370.94 Q120.88 1366.33 126.691 1366.33 Z" fill="#000000" fill-rule="evenodd" fill-opacity="1" /><path clip-path="url(#clip830)" d="M146.853 1395.64 L151.737 1395.64 L151.737 1401.52 L146.853 1401.52 L146.853 1395.64 Z" fill="#000000" fill-rule="evenodd" fill-opacity="1" /><path clip-path="url(#clip830)" d="M171.922 1370.04 Q168.311 1370.04 166.482 1373.6 Q164.677 1377.14 164.677 1384.27 Q164.677 1391.38 166.482 1394.94 Q168.311 1398.49 171.922 1398.49 Q175.556 1398.49 177.362 1394.94 Q179.19 1391.38 179.19 1384.27 Q179.19 1377.14 177.362 1373.6 Q175.556 1370.04 171.922 1370.04 M171.922 1366.33 Q177.732 1366.33 180.788 1370.94 Q183.866 1375.52 183.866 1384.27 Q183.866 1393 180.788 1397.61 Q177.732 1402.19 171.922 1402.19 Q166.112 1402.19 163.033 1397.61 Q159.978 1393 159.978 1384.27 Q159.978 1375.52 163.033 1370.94 Q166.112 1366.33 171.922 1366.33 Z" fill="#000000" fill-rule="evenodd" fill-opacity="1" /><path clip-path="url(#clip830)" d="M127.917 1240.23 Q124.306 1240.23 122.478 1243.8 Q120.672 1247.34 120.672 1254.47 Q120.672 1261.57 122.478 1265.14 Q124.306 1268.68 127.917 1268.68 Q131.552 1268.68 133.357 1265.14 Q135.186 1261.57 135.186 1254.47 Q135.186 1247.34 133.357 1243.8 Q131.552 1240.23 127.917 1240.23 M127.917 1236.53 Q133.728 1236.53 136.783 1241.13 Q139.862 1245.72 139.862 1254.47 Q139.862 1263.19 136.783 1267.8 Q133.728 1272.38 127.917 1272.38 Q122.107 1272.38 119.029 1267.8 Q115.973 1263.19 115.973 1254.47 Q115.973 1245.72 119.029 1241.13 Q122.107 1236.53 127.917 1236.53 Z" fill="#000000" fill-rule="evenodd" fill-opacity="1" /><path clip-path="url(#clip830)" d="M148.079 1265.83 L152.964 1265.83 L152.964 1271.71 L148.079 1271.71 L148.079 1265.83 Z" fill="#000000" fill-rule="evenodd" fill-opacity="1" /><path clip-path="url(#clip830)" d="M163.959 1267.78 L171.598 1267.78 L171.598 1241.41 L163.288 1243.08 L163.288 1238.82 L171.552 1237.15 L176.227 1237.15 L176.227 1267.78 L183.866 1267.78 L183.866 1271.71 L163.959 1271.71 L163.959 1267.78 Z" fill="#000000" fill-rule="evenodd" fill-opacity="1" /><path clip-path="url(#clip830)" d="M128.288 1110.43 Q124.677 1110.43 122.848 1113.99 Q121.043 1117.53 121.043 1124.66 Q121.043 1131.77 122.848 1135.33 Q124.677 1138.88 128.288 1138.88 Q131.922 1138.88 133.728 1135.33 Q135.556 1131.77 135.556 1124.66 Q135.556 1117.53 133.728 1113.99 Q131.922 1110.43 128.288 1110.43 M128.288 1106.72 Q134.098 1106.72 137.154 1111.33 Q140.232 1115.91 140.232 1124.66 Q140.232 1133.39 137.154 1138 Q134.098 1142.58 128.288 1142.58 Q122.478 1142.58 119.399 1138 Q116.343 1133.39 116.343 1124.66 Q116.343 1115.91 119.399 1111.33 Q122.478 1106.72 128.288 1106.72 Z" fill="#000000" fill-rule="evenodd" fill-opacity="1" /><path clip-path="url(#clip830)" d="M148.45 1136.03 L153.334 1136.03 L153.334 1141.91 L148.45 1141.91 L148.45 1136.03 Z" fill="#000000" fill-rule="evenodd" fill-opacity="1" /><path clip-path="url(#clip830)" d="M167.547 1137.97 L183.866 1137.97 L183.866 1141.91 L161.922 1141.91 L161.922 1137.97 Q164.584 1135.22 169.167 1130.59 Q173.774 1125.94 174.954 1124.59 Q177.2 1122.07 178.079 1120.33 Q178.982 1118.57 178.982 1116.88 Q178.982 1114.13 177.038 1112.39 Q175.116 1110.66 172.014 1110.66 Q169.815 1110.66 167.362 1111.42 Q164.931 1112.19 162.153 1113.74 L162.153 1109.01 Q164.977 1107.88 167.431 1107.3 Q169.885 1106.72 171.922 1106.72 Q177.292 1106.72 180.487 1109.41 Q183.681 1112.09 183.681 1116.58 Q183.681 1118.71 182.871 1120.63 Q182.084 1122.53 179.977 1125.13 Q179.399 1125.8 176.297 1129.01 Q173.195 1132.21 167.547 1137.97 Z" fill="#000000" fill-rule="evenodd" fill-opacity="1" /><path clip-path="url(#clip830)" d="M127.339 980.621 Q123.728 980.621 121.899 984.186 Q120.093 987.728 120.093 994.857 Q120.093 1001.96 121.899 1005.53 Q123.728 1009.07 127.339 1009.07 Q130.973 1009.07 132.779 1005.53 Q134.607 1001.96 134.607 994.857 Q134.607 987.728 132.779 984.186 Q130.973 980.621 127.339 980.621 M127.339 976.917 Q133.149 976.917 136.204 981.524 Q139.283 986.107 139.283 994.857 Q139.283 1003.58 136.204 1008.19 Q133.149 1012.77 127.339 1012.77 Q121.529 1012.77 118.45 1008.19 Q115.394 1003.58 115.394 994.857 Q115.394 986.107 118.45 981.524 Q121.529 976.917 127.339 976.917 Z" fill="#000000" fill-rule="evenodd" fill-opacity="1" /><path clip-path="url(#clip830)" d="M147.501 1006.22 L152.385 1006.22 L152.385 1012.1 L147.501 1012.1 L147.501 1006.22 Z" fill="#000000" fill-rule="evenodd" fill-opacity="1" /><path clip-path="url(#clip830)" d="M176.737 993.468 Q180.093 994.186 181.968 996.454 Q183.866 998.723 183.866 1002.06 Q183.866 1007.17 180.348 1009.97 Q176.829 1012.77 170.348 1012.77 Q168.172 1012.77 165.857 1012.33 Q163.565 1011.92 161.112 1011.06 L161.112 1006.55 Q163.056 1007.68 165.371 1008.26 Q167.686 1008.84 170.209 1008.84 Q174.607 1008.84 176.899 1007.1 Q179.214 1005.37 179.214 1002.06 Q179.214 999.001 177.061 997.288 Q174.931 995.552 171.112 995.552 L167.084 995.552 L167.084 991.709 L171.297 991.709 Q174.746 991.709 176.575 990.343 Q178.403 988.954 178.403 986.362 Q178.403 983.7 176.505 982.288 Q174.63 980.853 171.112 980.853 Q169.19 980.853 166.991 981.269 Q164.792 981.686 162.153 982.566 L162.153 978.399 Q164.815 977.658 167.13 977.288 Q169.468 976.917 171.528 976.917 Q176.852 976.917 179.954 979.348 Q183.056 981.755 183.056 985.876 Q183.056 988.746 181.413 990.737 Q179.769 992.704 176.737 993.468 Z" fill="#000000" fill-rule="evenodd" fill-opacity="1" /><path clip-path="url(#clip830)" d="M126.205 850.816 Q122.593 850.816 120.765 854.381 Q118.959 857.922 118.959 865.052 Q118.959 872.158 120.765 875.723 Q122.593 879.265 126.205 879.265 Q129.839 879.265 131.644 875.723 Q133.473 872.158 133.473 865.052 Q133.473 857.922 131.644 854.381 Q129.839 850.816 126.205 850.816 M126.205 847.112 Q132.015 847.112 135.07 851.719 Q138.149 856.302 138.149 865.052 Q138.149 873.779 135.07 878.385 Q132.015 882.969 126.205 882.969 Q120.394 882.969 117.316 878.385 Q114.26 873.779 114.26 865.052 Q114.26 856.302 117.316 851.719 Q120.394 847.112 126.205 847.112 Z" fill="#000000" fill-rule="evenodd" fill-opacity="1" /><path clip-path="url(#clip830)" d="M146.366 876.418 L151.251 876.418 L151.251 882.297 L146.366 882.297 L146.366 876.418 Z" fill="#000000" fill-rule="evenodd" fill-opacity="1" /><path clip-path="url(#clip830)" d="M174.283 851.811 L162.477 870.26 L174.283 870.26 L174.283 851.811 M173.056 847.737 L178.936 847.737 L178.936 870.26 L183.866 870.26 L183.866 874.149 L178.936 874.149 L178.936 882.297 L174.283 882.297 L174.283 874.149 L158.681 874.149 L158.681 869.635 L173.056 847.737 Z" fill="#000000" fill-rule="evenodd" fill-opacity="1" /><path clip-path="url(#clip830)" d="M127.686 721.011 Q124.075 721.011 122.246 724.575 Q120.441 728.117 120.441 735.247 Q120.441 742.353 122.246 745.918 Q124.075 749.46 127.686 749.46 Q131.32 749.46 133.126 745.918 Q134.954 742.353 134.954 735.247 Q134.954 728.117 133.126 724.575 Q131.32 721.011 127.686 721.011 M127.686 717.307 Q133.496 717.307 136.552 721.913 Q139.63 726.497 139.63 735.247 Q139.63 743.973 136.552 748.58 Q133.496 753.163 127.686 753.163 Q121.876 753.163 118.797 748.58 Q115.742 743.973 115.742 735.247 Q115.742 726.497 118.797 721.913 Q121.876 717.307 127.686 717.307 Z" fill="#000000" fill-rule="evenodd" fill-opacity="1" /><path clip-path="url(#clip830)" d="M147.848 746.612 L152.732 746.612 L152.732 752.492 L147.848 752.492 L147.848 746.612 Z" fill="#000000" fill-rule="evenodd" fill-opacity="1" /><path clip-path="url(#clip830)" d="M162.964 717.932 L181.32 717.932 L181.32 721.867 L167.246 721.867 L167.246 730.339 Q168.264 729.992 169.283 729.83 Q170.302 729.645 171.32 729.645 Q177.107 729.645 180.487 732.816 Q183.866 735.987 183.866 741.404 Q183.866 746.983 180.394 750.085 Q176.922 753.163 170.602 753.163 Q168.427 753.163 166.158 752.793 Q163.913 752.423 161.505 751.682 L161.505 746.983 Q163.589 748.117 165.811 748.673 Q168.033 749.228 170.51 749.228 Q174.514 749.228 176.852 747.122 Q179.19 745.015 179.19 741.404 Q179.19 737.793 176.852 735.687 Q174.514 733.58 170.51 733.58 Q168.635 733.58 166.76 733.997 Q164.908 734.413 162.964 735.293 L162.964 717.932 Z" fill="#000000" fill-rule="evenodd" fill-opacity="1" /><path clip-path="url(#clip830)" d="M126.529 591.205 Q122.918 591.205 121.089 594.77 Q119.283 598.312 119.283 605.441 Q119.283 612.548 121.089 616.113 Q122.918 619.654 126.529 619.654 Q130.163 619.654 131.968 616.113 Q133.797 612.548 133.797 605.441 Q133.797 598.312 131.968 594.77 Q130.163 591.205 126.529 591.205 M126.529 587.502 Q132.339 587.502 135.394 592.108 Q138.473 596.691 138.473 605.441 Q138.473 614.168 135.394 618.775 Q132.339 623.358 126.529 623.358 Q120.718 623.358 117.64 618.775 Q114.584 614.168 114.584 605.441 Q114.584 596.691 117.64 592.108 Q120.718 587.502 126.529 587.502 Z" fill="#000000" fill-rule="evenodd" fill-opacity="1" /><path clip-path="url(#clip830)" d="M146.691 616.807 L151.575 616.807 L151.575 622.687 L146.691 622.687 L146.691 616.807 Z" fill="#000000" fill-rule="evenodd" fill-opacity="1" /><path clip-path="url(#clip830)" d="M172.339 603.543 Q169.19 603.543 167.339 605.696 Q165.51 607.849 165.51 611.599 Q165.51 615.326 167.339 617.502 Q169.19 619.654 172.339 619.654 Q175.487 619.654 177.315 617.502 Q179.167 615.326 179.167 611.599 Q179.167 607.849 177.315 605.696 Q175.487 603.543 172.339 603.543 M181.621 588.891 L181.621 593.15 Q179.862 592.317 178.056 591.877 Q176.274 591.437 174.514 591.437 Q169.885 591.437 167.431 594.562 Q165.001 597.687 164.653 604.006 Q166.019 601.992 168.079 600.928 Q170.139 599.84 172.616 599.84 Q177.825 599.84 180.834 603.011 Q183.866 606.159 183.866 611.599 Q183.866 616.923 180.718 620.14 Q177.57 623.358 172.339 623.358 Q166.343 623.358 163.172 618.775 Q160.001 614.168 160.001 605.441 Q160.001 597.247 163.89 592.386 Q167.778 587.502 174.329 587.502 Q176.089 587.502 177.871 587.849 Q179.676 588.196 181.621 588.891 Z" fill="#000000" fill-rule="evenodd" fill-opacity="1" /><path clip-path="url(#clip830)" d="M127.593 461.4 Q123.982 461.4 122.154 464.965 Q120.348 468.507 120.348 475.636 Q120.348 482.743 122.154 486.307 Q123.982 489.849 127.593 489.849 Q131.228 489.849 133.033 486.307 Q134.862 482.743 134.862 475.636 Q134.862 468.507 133.033 464.965 Q131.228 461.4 127.593 461.4 M127.593 457.696 Q133.404 457.696 136.459 462.303 Q139.538 466.886 139.538 475.636 Q139.538 484.363 136.459 488.969 Q133.404 493.553 127.593 493.553 Q121.783 493.553 118.705 488.969 Q115.649 484.363 115.649 475.636 Q115.649 466.886 118.705 462.303 Q121.783 457.696 127.593 457.696 Z" fill="#000000" fill-rule="evenodd" fill-opacity="1" /><path clip-path="url(#clip830)" d="M147.755 487.002 L152.64 487.002 L152.64 492.881 L147.755 492.881 L147.755 487.002 Z" fill="#000000" fill-rule="evenodd" fill-opacity="1" /><path clip-path="url(#clip830)" d="M161.644 458.321 L183.866 458.321 L183.866 460.312 L171.32 492.881 L166.436 492.881 L178.241 462.257 L161.644 462.257 L161.644 458.321 Z" fill="#000000" fill-rule="evenodd" fill-opacity="1" /><path clip-path="url(#clip830)" d="M126.783 331.595 Q123.172 331.595 121.343 335.16 Q119.538 338.701 119.538 345.831 Q119.538 352.937 121.343 356.502 Q123.172 360.044 126.783 360.044 Q130.417 360.044 132.223 356.502 Q134.052 352.937 134.052 345.831 Q134.052 338.701 132.223 335.16 Q130.417 331.595 126.783 331.595 M126.783 327.891 Q132.593 327.891 135.649 332.498 Q138.728 337.081 138.728 345.831 Q138.728 354.558 135.649 359.164 Q132.593 363.747 126.783 363.747 Q120.973 363.747 117.894 359.164 Q114.839 354.558 114.839 345.831 Q114.839 337.081 117.894 332.498 Q120.973 327.891 126.783 327.891 Z" fill="#000000" fill-rule="evenodd" fill-opacity="1" /><path clip-path="url(#clip830)" d="M146.945 357.197 L151.829 357.197 L151.829 363.076 L146.945 363.076 L146.945 357.197 Z" fill="#000000" fill-rule="evenodd" fill-opacity="1" /><path clip-path="url(#clip830)" d="M172.014 346.664 Q168.681 346.664 166.76 348.447 Q164.862 350.229 164.862 353.354 Q164.862 356.479 166.76 358.261 Q168.681 360.044 172.014 360.044 Q175.348 360.044 177.269 358.261 Q179.19 356.456 179.19 353.354 Q179.19 350.229 177.269 348.447 Q175.371 346.664 172.014 346.664 M167.339 344.674 Q164.329 343.933 162.64 341.873 Q160.973 339.812 160.973 336.849 Q160.973 332.706 163.913 330.299 Q166.876 327.891 172.014 327.891 Q177.176 327.891 180.116 330.299 Q183.056 332.706 183.056 336.849 Q183.056 339.812 181.366 341.873 Q179.7 343.933 176.714 344.674 Q180.093 345.461 181.968 347.752 Q183.866 350.044 183.866 353.354 Q183.866 358.377 180.788 361.062 Q177.732 363.747 172.014 363.747 Q166.297 363.747 163.218 361.062 Q160.163 358.377 160.163 353.354 Q160.163 350.044 162.061 347.752 Q163.959 345.461 167.339 344.674 M165.626 337.289 Q165.626 339.974 167.292 341.479 Q168.982 342.984 172.014 342.984 Q175.024 342.984 176.714 341.479 Q178.426 339.974 178.426 337.289 Q178.426 334.604 176.714 333.099 Q175.024 331.595 172.014 331.595 Q168.982 331.595 167.292 333.099 Q165.626 334.604 165.626 337.289 Z" fill="#000000" fill-rule="evenodd" fill-opacity="1" /><path clip-path="url(#clip830)" d="M126.876 201.79 Q123.265 201.79 121.436 205.354 Q119.63 208.896 119.63 216.026 Q119.63 223.132 121.436 226.697 Q123.265 230.239 126.876 230.239 Q130.51 230.239 132.316 226.697 Q134.144 223.132 134.144 216.026 Q134.144 208.896 132.316 205.354 Q130.51 201.79 126.876 201.79 M126.876 198.086 Q132.686 198.086 135.742 202.692 Q138.82 207.276 138.82 216.026 Q138.82 224.752 135.742 229.359 Q132.686 233.942 126.876 233.942 Q121.066 233.942 117.987 229.359 Q114.931 224.752 114.931 216.026 Q114.931 207.276 117.987 202.692 Q121.066 198.086 126.876 198.086 Z" fill="#000000" fill-rule="evenodd" fill-opacity="1" /><path clip-path="url(#clip830)" d="M147.038 227.391 L151.922 227.391 L151.922 233.271 L147.038 233.271 L147.038 227.391 Z" fill="#000000" fill-rule="evenodd" fill-opacity="1" /><path clip-path="url(#clip830)" d="M162.246 232.553 L162.246 228.294 Q164.005 229.127 165.811 229.567 Q167.616 230.007 169.352 230.007 Q173.982 230.007 176.413 226.905 Q178.866 223.78 179.214 217.438 Q177.871 219.428 175.811 220.493 Q173.751 221.558 171.251 221.558 Q166.065 221.558 163.033 218.433 Q160.024 215.285 160.024 209.845 Q160.024 204.521 163.172 201.304 Q166.32 198.086 171.552 198.086 Q177.547 198.086 180.695 202.692 Q183.866 207.276 183.866 216.026 Q183.866 224.197 179.977 229.081 Q176.112 233.942 169.561 233.942 Q167.802 233.942 165.996 233.595 Q164.19 233.248 162.246 232.553 M171.552 217.901 Q174.7 217.901 176.528 215.748 Q178.38 213.595 178.38 209.845 Q178.38 206.118 176.528 203.966 Q174.7 201.79 171.552 201.79 Q168.403 201.79 166.552 203.966 Q164.723 206.118 164.723 209.845 Q164.723 213.595 166.552 215.748 Q168.403 217.901 171.552 217.901 Z" fill="#000000" fill-rule="evenodd" fill-opacity="1" /><path clip-path="url(#clip830)" d="M117.501 99.5305 L125.14 99.5305 L125.14 73.1649 L116.83 74.8316 L116.83 70.5723 L125.093 68.9057 L129.769 68.9057 L129.769 99.5305 L137.408 99.5305 L137.408 103.466 L117.501 103.466 L117.501 99.5305 Z" fill="#000000" fill-rule="evenodd" fill-opacity="1" /><path clip-path="url(#clip830)" d="M146.853 97.5861 L151.737 97.5861 L151.737 103.466 L146.853 103.466 L146.853 97.5861 Z" fill="#000000" fill-rule="evenodd" fill-opacity="1" /><path clip-path="url(#clip830)" d="M171.922 71.9844 Q168.311 71.9844 166.482 75.5492 Q164.677 79.0908 164.677 86.2204 Q164.677 93.3268 166.482 96.8916 Q168.311 100.433 171.922 100.433 Q175.556 100.433 177.362 96.8916 Q179.19 93.3268 179.19 86.2204 Q179.19 79.0908 177.362 75.5492 Q175.556 71.9844 171.922 71.9844 M171.922 68.2807 Q177.732 68.2807 180.788 72.8871 Q183.866 77.4704 183.866 86.2204 Q183.866 94.9472 180.788 99.5537 Q177.732 104.137 171.922 104.137 Q166.112 104.137 163.033 99.5537 Q159.978 94.9472 159.978 86.2204 Q159.978 77.4704 163.033 72.8871 Q166.112 68.2807 171.922 68.2807 Z" fill="#000000" fill-rule="evenodd" fill-opacity="1" /><path clip-path="url(#clip830)" d="M18.0438 917.032 L24.314 917.032 Q22.5634 920.693 21.704 923.939 Q20.8447 927.186 20.8447 930.209 Q20.8447 935.461 22.8817 938.326 Q24.9187 941.158 28.6745 941.158 Q31.8255 941.158 33.4488 939.281 Q35.0402 937.371 36.0269 932.087 L36.8226 928.204 Q38.1912 921.011 41.6605 917.605 Q45.098 914.168 50.8908 914.168 Q57.7976 914.168 61.3624 918.815 Q64.9272 923.43 64.9272 932.374 Q64.9272 935.748 64.1633 939.567 Q63.3994 943.355 61.9035 947.429 L55.2831 947.429 Q57.4793 943.514 58.5933 939.758 Q59.7073 936.002 59.7073 932.374 Q59.7073 926.867 57.543 923.876 Q55.3786 920.884 51.3682 920.884 Q47.8671 920.884 45.8937 923.048 Q43.9204 925.181 42.9337 930.082 L42.1698 933.997 Q40.7375 941.19 37.682 944.405 Q34.6264 947.62 29.1837 947.62 Q22.8817 947.62 19.2532 943.196 Q15.6248 938.74 15.6248 930.942 Q15.6248 927.6 16.2295 924.13 Q16.8343 920.661 18.0438 917.032 Z" fill="#000000" fill-rule="evenodd" fill-opacity="1" /><path clip-path="url(#clip830)" d="M49.9359 905.001 L28.3562 905.001 L28.3562 899.145 L49.7131 899.145 Q54.7739 899.145 57.3202 897.171 Q59.8346 895.198 59.8346 891.251 Q59.8346 886.509 56.8109 883.772 Q53.7872 881.003 48.5673 881.003 L28.3562 881.003 L28.3562 875.146 L64.0042 875.146 L64.0042 881.003 L58.5296 881.003 Q61.7762 883.135 63.3676 885.968 Q64.9272 888.769 64.9272 892.493 Q64.9272 898.636 61.1078 901.818 Q57.2883 905.001 49.9359 905.001 M27.4968 890.265 L27.4968 890.265 Z" fill="#000000" fill-rule="evenodd" fill-opacity="1" /><path clip-path="url(#clip830)" d="M29.7248 837.429 L35.1993 837.429 Q33.8307 839.912 33.1623 842.426 Q32.4621 844.909 32.4621 847.455 Q32.4621 853.153 36.0905 856.304 Q39.6872 859.455 46.212 859.455 Q52.7369 859.455 56.3653 856.304 Q59.9619 853.153 59.9619 847.455 Q59.9619 844.909 59.2935 842.426 Q58.5933 839.912 57.2247 837.429 L62.6355 837.429 Q63.7814 839.88 64.3543 842.522 Q64.9272 845.132 64.9272 848.092 Q64.9272 856.144 59.8664 860.887 Q54.8057 865.629 46.212 865.629 Q37.491 865.629 32.4939 860.855 Q27.4968 856.049 27.4968 847.71 Q27.4968 845.004 28.0697 842.426 Q28.6108 839.848 29.7248 837.429 Z" fill="#000000" fill-rule="evenodd" fill-opacity="1" /><path clip-path="url(#clip830)" d="M29.7248 801.59 L35.1993 801.59 Q33.8307 804.073 33.1623 806.587 Q32.4621 809.07 32.4621 811.616 Q32.4621 817.314 36.0905 820.465 Q39.6872 823.616 46.212 823.616 Q52.7369 823.616 56.3653 820.465 Q59.9619 817.314 59.9619 811.616 Q59.9619 809.07 59.2935 806.587 Q58.5933 804.073 57.2247 801.59 L62.6355 801.59 Q63.7814 804.041 64.3543 806.683 Q64.9272 809.293 64.9272 812.253 Q64.9272 820.306 59.8664 825.048 Q54.8057 829.79 46.212 829.79 Q37.491 829.79 32.4939 825.016 Q27.4968 820.21 27.4968 811.871 Q27.4968 809.166 28.0697 806.587 Q28.6108 804.009 29.7248 801.59 Z" fill="#000000" fill-rule="evenodd" fill-opacity="1" /><path clip-path="url(#clip830)" d="M44.7161 760.914 L47.5806 760.914 L47.5806 787.84 Q53.6281 787.459 56.8109 784.212 Q59.9619 780.934 59.9619 775.109 Q59.9619 771.735 59.1344 768.584 Q58.3069 765.401 56.6518 762.282 L62.1899 762.282 Q63.5267 765.433 64.227 768.743 Q64.9272 772.053 64.9272 775.459 Q64.9272 783.989 59.9619 788.986 Q54.9967 793.952 46.5303 793.952 Q37.7774 793.952 32.6531 789.241 Q27.4968 784.498 27.4968 776.478 Q27.4968 769.284 32.1438 765.115 Q36.7589 760.914 44.7161 760.914 M42.9973 766.77 Q38.1912 766.834 35.3266 769.475 Q32.4621 772.085 32.4621 776.414 Q32.4621 781.316 35.2312 784.276 Q38.0002 787.204 43.0292 787.649 L42.9973 766.77 Z" fill="#000000" fill-rule="evenodd" fill-opacity="1" /><path clip-path="url(#clip830)" d="M29.4065 728.576 L34.9447 728.576 Q33.6716 731.058 33.035 733.732 Q32.3984 736.406 32.3984 739.27 Q32.3984 743.631 33.7352 745.827 Q35.072 747.991 37.7456 747.991 Q39.7826 747.991 40.9603 746.432 Q42.1061 744.872 43.1565 740.161 L43.6021 738.156 Q44.9389 731.918 47.3897 729.308 Q49.8086 726.666 54.1691 726.666 Q59.1344 726.666 62.0308 730.613 Q64.9272 734.528 64.9272 741.403 Q64.9272 744.267 64.3543 747.386 Q63.8132 750.474 62.6992 753.911 L56.6518 753.911 Q58.3387 750.665 59.198 747.514 Q60.0256 744.363 60.0256 741.275 Q60.0256 737.138 58.6251 734.91 Q57.1929 732.682 54.6147 732.682 Q52.2276 732.682 50.9545 734.305 Q49.6813 735.896 48.5037 741.339 L48.0262 743.376 Q46.8804 748.819 44.5251 751.238 Q42.138 753.657 38.0002 753.657 Q32.9713 753.657 30.2341 750.092 Q27.4968 746.527 27.4968 739.97 Q27.4968 736.724 27.9743 733.859 Q28.4517 730.995 29.4065 728.576 Z" fill="#000000" fill-rule="evenodd" fill-opacity="1" /><path clip-path="url(#clip830)" d="M29.4065 694.615 L34.9447 694.615 Q33.6716 697.097 33.035 699.771 Q32.3984 702.444 32.3984 705.309 Q32.3984 709.67 33.7352 711.866 Q35.072 714.03 37.7456 714.03 Q39.7826 714.03 40.9603 712.47 Q42.1061 710.911 43.1565 706.2 L43.6021 704.195 Q44.9389 697.957 47.3897 695.347 Q49.8086 692.705 54.1691 692.705 Q59.1344 692.705 62.0308 696.652 Q64.9272 700.567 64.9272 707.442 Q64.9272 710.306 64.3543 713.425 Q63.8132 716.513 62.6992 719.95 L56.6518 719.95 Q58.3387 716.704 59.198 713.553 Q60.0256 710.402 60.0256 707.314 Q60.0256 703.177 58.6251 700.949 Q57.1929 698.721 54.6147 698.721 Q52.2276 698.721 50.9545 700.344 Q49.6813 701.935 48.5037 707.378 L48.0262 709.415 Q46.8804 714.858 44.5251 717.277 Q42.138 719.696 38.0002 719.696 Q32.9713 719.696 30.2341 716.131 Q27.4968 712.566 27.4968 706.009 Q27.4968 702.763 27.9743 699.898 Q28.4517 697.034 29.4065 694.615 Z" fill="#000000" fill-rule="evenodd" fill-opacity="1" /><path clip-path="url(#clip830)" d="M41.7242 639.87 Q42.4244 637.801 44.7161 635.859 Q47.0077 633.886 51.0181 631.912 L64.0042 625.388 L64.0042 632.294 L51.8138 638.374 Q47.0395 640.729 45.48 642.957 Q43.9204 645.153 43.9204 648.973 L43.9204 655.975 L64.0042 655.975 L64.0042 662.404 L16.4842 662.404 L16.4842 647.89 Q16.4842 639.742 19.8898 635.732 Q23.2955 631.721 30.1704 631.721 Q34.6582 631.721 37.6183 633.822 Q40.5784 635.891 41.7242 639.87 M21.7677 655.975 L38.6368 655.975 L38.6368 647.89 Q38.6368 643.243 36.5043 640.888 Q34.34 638.501 30.1704 638.501 Q26.0009 638.501 23.9002 640.888 Q21.7677 643.243 21.7677 647.89 L21.7677 655.975 Z" fill="#000000" fill-rule="evenodd" fill-opacity="1" /><path clip-path="url(#clip830)" d="M46.0847 602.598 Q46.0847 609.696 47.7079 612.433 Q49.3312 615.171 53.2461 615.171 Q56.3653 615.171 58.2114 613.134 Q60.0256 611.065 60.0256 607.532 Q60.0256 602.662 56.5881 599.734 Q53.1188 596.774 47.3897 596.774 L46.0847 596.774 L46.0847 602.598 M43.6657 590.917 L64.0042 590.917 L64.0042 596.774 L58.5933 596.774 Q61.8398 598.779 63.3994 601.771 Q64.9272 604.763 64.9272 609.091 Q64.9272 614.566 61.8716 617.812 Q58.7843 621.027 53.6281 621.027 Q47.6125 621.027 44.5569 617.017 Q41.5014 612.974 41.5014 604.986 L41.5014 596.774 L40.9285 596.774 Q36.8862 596.774 34.6901 599.447 Q32.4621 602.089 32.4621 606.895 Q32.4621 609.951 33.1941 612.847 Q33.9262 615.744 35.3903 618.417 L29.9795 618.417 Q28.7381 615.202 28.1334 612.179 Q27.4968 609.155 27.4968 606.29 Q27.4968 598.556 31.5072 594.737 Q35.5176 590.917 43.6657 590.917 Z" fill="#000000" fill-rule="evenodd" fill-opacity="1" /><path clip-path="url(#clip830)" d="M18.2347 573.062 L28.3562 573.062 L28.3562 560.998 L32.9077 560.998 L32.9077 573.062 L52.2594 573.062 Q56.6199 573.062 57.8613 571.884 Q59.1026 570.674 59.1026 567.014 L59.1026 560.998 L64.0042 560.998 L64.0042 567.014 Q64.0042 573.794 61.4897 576.372 Q58.9434 578.95 52.2594 578.95 L32.9077 578.95 L32.9077 583.247 L28.3562 583.247 L28.3562 578.95 L18.2347 578.95 L18.2347 573.062 Z" fill="#000000" fill-rule="evenodd" fill-opacity="1" /><path clip-path="url(#clip830)" d="M44.7161 522.804 L47.5806 522.804 L47.5806 549.731 Q53.6281 549.349 56.8109 546.103 Q59.9619 542.824 59.9619 537 Q59.9619 533.626 59.1344 530.475 Q58.3069 527.292 56.6518 524.173 L62.1899 524.173 Q63.5267 527.324 64.227 530.634 Q64.9272 533.944 64.9272 537.35 Q64.9272 545.88 59.9619 550.877 Q54.9967 555.842 46.5303 555.842 Q37.7774 555.842 32.6531 551.132 Q27.4968 546.389 27.4968 538.368 Q27.4968 531.175 32.1438 527.006 Q36.7589 522.804 44.7161 522.804 M42.9973 528.661 Q38.1912 528.724 35.3266 531.366 Q32.4621 533.976 32.4621 538.305 Q32.4621 543.206 35.2312 546.166 Q38.0002 549.095 43.0292 549.54 L42.9973 528.661 Z" fill="#000000" fill-rule="evenodd" fill-opacity="1" /><polyline clip-path="url(#clip832)" style="stroke:#009af9; stroke-linecap:round; stroke-linejoin:round; stroke-width:4; stroke-opacity:1; fill:none" points="
  280.231,1384.24 285.274,1384.24 290.317,1384.24 295.36,1384.24 300.403,1384.24 305.446,1384.24 310.489,1384.24 315.532,1384.24 320.575,1384.24 325.618,1384.24 
  330.661,1384.24 335.704,1384.24 340.747,1384.24 345.79,1384.24 350.833,1384.24 355.876,1384.24 360.919,1384.24 365.962,1384.24 371.005,1384.24 376.048,1384.24 
  381.091,1384.24 386.134,1384.24 391.177,1384.24 396.22,1384.24 401.263,1384.24 406.306,1384.24 411.349,1384.24 416.392,1384.24 421.435,1384.24 426.478,1384.24 
  431.521,1384.24 436.564,1384.24 441.607,1384.24 446.65,1384.24 451.693,1384.24 456.736,1384.24 461.779,1384.24 466.822,1384.24 471.865,1384.24 476.908,1384.24 
  481.951,1384.24 486.994,1384.24 492.037,1384.24 497.08,1384.24 502.123,1384.24 507.166,1384.24 512.209,1384.24 517.252,1384.24 522.295,1384.24 527.338,1384.24 
  532.381,1384.24 537.424,1384.24 542.467,1384.24 547.51,1384.24 552.553,1384.24 557.596,1384.24 562.639,1384.24 567.683,1384.24 572.726,1384.24 577.769,1384.24 
  582.812,1384.24 587.855,1384.24 592.898,1384.24 597.941,1384.24 602.984,1384.24 608.027,1384.24 613.07,1384.24 618.113,1384.24 623.156,1384.24 628.199,1384.24 
  633.242,1384.24 638.285,1384.24 643.328,1384.24 648.371,1384.24 653.414,1384.24 658.457,1384.24 663.5,1384.24 668.543,1384.24 673.586,1384.24 678.629,1384.24 
  683.672,1384.24 688.715,1384.24 693.758,1384.24 698.801,1384.24 703.844,1384.24 708.887,1384.24 713.93,1384.24 718.973,1384.24 724.016,1384.24 729.059,1384.24 
  734.102,1384.24 739.145,1384.24 744.188,1384.24 749.231,1384.24 754.274,1384.24 759.317,1384.24 764.36,1377.75 769.403,1384.24 774.446,1384.24 779.489,1384.24 
  784.532,1384.24 789.575,1384.24 794.618,1384.24 799.661,1384.24 804.704,1384.24 809.747,1371.26 814.79,1371.26 819.833,1384.24 824.876,1371.26 829.919,1377.75 
  834.962,1312.85 840.005,1312.85 845.048,1299.86 850.091,1306.36 855.134,1254.43 860.177,1215.49 865.22,1163.57 870.263,1098.67 875.306,1053.23 880.349,955.881 
  885.392,1001.31 890.435,871.507 895.478,897.469 900.521,787.134 905.564,741.702 910.607,585.936 915.65,553.485 920.693,546.994 925.736,488.582 930.779,456.131 
  935.822,384.738 940.865,313.345 945.908,378.248 950.951,358.777 955.994,319.835 961.037,287.384 966.08,267.913 971.123,267.913 976.166,209.501 981.209,170.559 
  986.252,144.598 991.295,118.637 996.338,112.147 1001.38,125.127 1006.42,118.637 1011.47,112.147 1016.51,112.147 1021.55,105.656 1026.6,144.598 1031.64,112.147 
  1036.68,105.656 1041.73,92.6759 1046.77,118.637 1051.81,105.656 1056.85,112.147 1061.9,99.1662 1066.94,99.1662 1071.98,112.147 1077.03,92.6759 1082.07,99.1662 
  1087.11,86.1857 1092.16,112.147 1097.2,86.1857 1102.24,86.1857 1107.28,86.1857 1112.33,86.1857 1117.37,92.6759 1122.41,86.1857 1127.46,92.6759 1132.5,86.1857 
  1137.54,86.1857 1142.59,86.1857 1147.63,86.1857 1152.67,92.6759 1157.71,86.1857 1162.76,86.1857 1167.8,86.1857 1172.84,86.1857 1177.89,92.6759 1182.93,86.1857 
  1187.97,86.1857 1193.02,92.6759 1198.06,86.1857 1203.1,86.1857 1208.14,86.1857 1213.19,86.1857 1218.23,86.1857 1223.27,86.1857 1228.32,86.1857 1233.36,92.6759 
  1238.4,92.6759 1243.45,86.1857 1248.49,92.6759 1253.53,92.6759 1258.57,86.1857 1263.62,99.1662 1268.66,86.1857 1273.7,86.1857 1278.75,92.6759 1283.79,86.1857 
  1288.83,86.1857 1293.88,92.6759 1298.92,86.1857 1303.96,86.1857 1309,86.1857 1314.05,86.1857 1319.09,86.1857 1324.13,92.6759 1329.18,99.1662 1334.22,86.1857 
  1339.26,86.1857 1344.31,86.1857 1349.35,86.1857 1354.39,86.1857 1359.43,86.1857 1364.48,86.1857 1369.52,86.1857 1374.56,86.1857 1379.61,86.1857 1384.65,92.6759 
  1389.69,86.1857 1394.74,86.1857 1399.78,86.1857 1404.82,86.1857 1409.86,86.1857 1414.91,92.6759 1419.95,86.1857 1424.99,92.6759 1430.04,86.1857 1435.08,86.1857 
  1440.12,92.6759 1445.17,86.1857 1450.21,86.1857 1455.25,86.1857 1460.29,92.6759 1465.34,92.6759 1470.38,92.6759 1475.42,92.6759 1480.47,86.1857 1485.51,86.1857 
  1490.55,92.6759 1495.6,92.6759 1500.64,92.6759 1505.68,92.6759 1510.72,99.1662 1515.77,86.1857 1520.81,86.1857 1525.85,86.1857 1530.9,86.1857 1535.94,86.1857 
  1540.98,86.1857 1546.03,86.1857 1551.07,86.1857 1556.11,86.1857 1561.16,86.1857 1566.2,92.6759 1571.24,86.1857 1576.28,86.1857 1581.33,92.6759 1586.37,92.6759 
  1591.41,86.1857 1596.46,99.1662 1601.5,92.6759 1606.54,86.1857 1611.59,99.1662 1616.63,92.6759 1621.67,92.6759 1626.71,86.1857 1631.76,86.1857 1636.8,86.1857 
  1641.84,86.1857 1646.89,92.6759 1651.93,86.1857 1656.97,92.6759 1662.02,105.656 1667.06,92.6759 1672.1,92.6759 1677.14,92.6759 1682.19,105.656 1687.23,86.1857 
  1692.27,112.147 1697.32,92.6759 1702.36,92.6759 1707.4,86.1857 1712.45,92.6759 1717.49,86.1857 1722.53,86.1857 1727.57,86.1857 1732.62,92.6759 1737.66,86.1857 
  1742.7,86.1857 1747.75,86.1857 1752.79,86.1857 1757.83,86.1857 1762.88,86.1857 1767.92,92.6759 1772.96,86.1857 1778,86.1857 1783.05,86.1857 1788.09,86.1857 
  1793.13,86.1857 1798.18,99.1662 1803.22,99.1662 1808.26,86.1857 1813.31,92.6759 1818.35,86.1857 1823.39,86.1857 1828.43,86.1857 1833.48,86.1857 1838.52,86.1857 
  1843.56,86.1857 1848.61,86.1857 1853.65,92.6759 1858.69,86.1857 1863.74,86.1857 1868.78,86.1857 1873.82,92.6759 1878.86,86.1857 1883.91,92.6759 1888.95,86.1857 
  1893.99,86.1857 1899.04,86.1857 1904.08,86.1857 1909.12,92.6759 1914.17,92.6759 1919.21,92.6759 1924.25,86.1857 1929.29,92.6759 1934.34,86.1857 1939.38,86.1857 
  1944.42,92.6759 1949.47,86.1857 1954.51,86.1857 1959.55,86.1857 1964.6,86.1857 1969.64,86.1857 1974.68,86.1857 1979.72,86.1857 1984.77,86.1857 1989.81,86.1857 
  1994.85,86.1857 1999.9,86.1857 2004.94,86.1857 2009.98,86.1857 2015.03,86.1857 2020.07,86.1857 2025.11,86.1857 2030.15,86.1857 2035.2,99.1662 2040.24,92.6759 
  2045.28,86.1857 2050.33,86.1857 2055.37,92.6759 2060.41,86.1857 2065.46,86.1857 2070.5,86.1857 2075.54,92.6759 2080.58,86.1857 2085.63,86.1857 2090.67,86.1857 
  2095.71,99.1662 2100.76,86.1857 2105.8,92.6759 2110.84,86.1857 2115.89,86.1857 2120.93,86.1857 2125.97,92.6759 2131.01,99.1662 2136.06,92.6759 2141.1,86.1857 
  2146.14,86.1857 2151.19,86.1857 2156.23,86.1857 2161.27,92.6759 2166.32,86.1857 2171.36,86.1857 2176.4,86.1857 2181.44,86.1857 2186.49,86.1857 2191.53,92.6759 
  2196.57,86.1857 2201.62,86.1857 2206.66,86.1857 2211.7,86.1857 2216.75,86.1857 2221.79,92.6759 2226.83,92.6759 2231.88,92.6759 2236.92,99.1662 2241.96,86.1857 
  2247,86.1857 2252.05,92.6759 2257.09,86.1857 2262.13,86.1857 2267.18,86.1857 2272.22,86.1857 2277.26,92.6759 2282.31,86.1857 2287.35,86.1857 2292.39,99.1662 
  
  "/>
<polyline clip-path="url(#clip832)" style="stroke:#e26f46; stroke-linecap:round; stroke-linejoin:round; stroke-width:4; stroke-opacity:1; fill:none" points="
  280.231,86.1857 285.274,92.6759 290.317,92.6759 295.36,86.1857 300.403,86.1857 305.446,92.6759 310.489,112.147 315.532,92.6759 320.575,105.656 325.618,92.6759 
  330.661,92.6759 335.704,86.1857 340.747,92.6759 345.79,99.1662 350.833,99.1662 355.876,92.6759 360.919,92.6759 365.962,86.1857 371.005,92.6759 376.048,86.1857 
  381.091,86.1857 386.134,99.1662 391.177,99.1662 396.22,112.147 401.263,92.6759 406.306,86.1857 411.349,86.1857 416.392,86.1857 421.435,99.1662 426.478,86.1857 
  431.521,112.147 436.564,86.1857 441.607,86.1857 446.65,86.1857 451.693,92.6759 456.736,92.6759 461.779,92.6759 466.822,92.6759 471.865,92.6759 476.908,99.1662 
  481.951,92.6759 486.994,86.1857 492.037,92.6759 497.08,92.6759 502.123,105.656 507.166,86.1857 512.209,86.1857 517.252,99.1662 522.295,92.6759 527.338,86.1857 
  532.381,86.1857 537.424,86.1857 542.467,99.1662 547.51,86.1857 552.553,86.1857 557.596,86.1857 562.639,92.6759 567.683,86.1857 572.726,92.6759 577.769,86.1857 
  582.812,92.6759 587.855,99.1662 592.898,92.6759 597.941,86.1857 602.984,86.1857 608.027,92.6759 613.07,99.1662 618.113,86.1857 623.156,99.1662 628.199,99.1662 
  633.242,118.637 638.285,99.1662 643.328,112.147 648.371,86.1857 653.414,99.1662 658.457,99.1662 663.5,92.6759 668.543,86.1857 673.586,92.6759 678.629,86.1857 
  683.672,86.1857 688.715,92.6759 693.758,92.6759 698.801,92.6759 703.844,105.656 708.887,99.1662 713.93,112.147 718.973,92.6759 724.016,118.637 729.059,92.6759 
  734.102,92.6759 739.145,92.6759 744.188,105.656 749.231,105.656 754.274,99.1662 759.317,99.1662 764.36,92.6759 769.403,92.6759 774.446,92.6759 779.489,86.1857 
  784.532,92.6759 789.575,112.147 794.618,105.656 799.661,112.147 804.704,86.1857 809.747,112.147 814.79,86.1857 819.833,92.6759 824.876,92.6759 829.919,86.1857 
  834.962,105.656 840.005,99.1662 845.048,99.1662 850.091,118.637 855.134,99.1662 860.177,92.6759 865.22,99.1662 870.263,86.1857 875.306,99.1662 880.349,105.656 
  885.392,92.6759 890.435,105.656 895.478,92.6759 900.521,92.6759 905.564,112.147 910.607,86.1857 915.65,99.1662 920.693,86.1857 925.736,92.6759 930.779,112.147 
  935.822,105.656 940.865,86.1857 945.908,86.1857 950.951,92.6759 955.994,105.656 961.037,92.6759 966.08,105.656 971.123,105.656 976.166,99.1662 981.209,99.1662 
  986.252,105.656 991.295,92.6759 996.338,86.1857 1001.38,112.147 1006.42,105.656 1011.47,112.147 1016.51,105.656 1021.55,105.656 1026.6,86.1857 1031.64,92.6759 
  1036.68,99.1662 1041.73,99.1662 1046.77,105.656 1051.81,105.656 1056.85,92.6759 1061.9,105.656 1066.94,92.6759 1071.98,105.656 1077.03,86.1857 1082.07,99.1662 
  1087.11,99.1662 1092.16,112.147 1097.2,92.6759 1102.24,86.1857 1107.28,86.1857 1112.33,92.6759 1117.37,105.656 1122.41,92.6759 1127.46,105.656 1132.5,99.1662 
  1137.54,99.1662 1142.59,92.6759 1147.63,118.637 1152.67,99.1662 1157.71,92.6759 1162.76,105.656 1167.8,92.6759 1172.84,86.1857 1177.89,92.6759 1182.93,105.656 
  1187.97,92.6759 1193.02,105.656 1198.06,105.656 1203.1,86.1857 1208.14,99.1662 1213.19,92.6759 1218.23,92.6759 1223.27,92.6759 1228.32,92.6759 1233.36,112.147 
  1238.4,92.6759 1243.45,112.147 1248.49,99.1662 1253.53,112.147 1258.57,86.1857 1263.62,105.656 1268.66,92.6759 1273.7,105.656 1278.75,99.1662 1283.79,92.6759 
  1288.83,92.6759 1293.88,86.1857 1298.92,112.147 1303.96,92.6759 1309,92.6759 1314.05,92.6759 1319.09,112.147 1324.13,92.6759 1329.18,105.656 1334.22,105.656 
  1339.26,105.656 1344.31,86.1857 1349.35,105.656 1354.39,92.6759 1359.43,99.1662 1364.48,99.1662 1369.52,92.6759 1374.56,92.6759 1379.61,112.147 1384.65,105.656 
  1389.69,112.147 1394.74,99.1662 1399.78,99.1662 1404.82,99.1662 1409.86,99.1662 1414.91,92.6759 1419.95,99.1662 1424.99,86.1857 1430.04,105.656 1435.08,105.656 
  1440.12,105.656 1445.17,99.1662 1450.21,112.147 1455.25,118.637 1460.29,99.1662 1465.34,86.1857 1470.38,92.6759 1475.42,99.1662 1480.47,92.6759 1485.51,92.6759 
  1490.55,86.1857 1495.6,99.1662 1500.64,92.6759 1505.68,86.1857 1510.72,125.127 1515.77,92.6759 1520.81,125.127 1525.85,92.6759 1530.9,92.6759 1535.94,86.1857 
  1540.98,99.1662 1546.03,86.1857 1551.07,112.147 1556.11,99.1662 1561.16,92.6759 1566.2,92.6759 1571.24,105.656 1576.28,99.1662 1581.33,118.637 1586.37,92.6759 
  1591.41,125.127 1596.46,105.656 1601.5,99.1662 1606.54,112.147 1611.59,92.6759 1616.63,118.637 1621.67,99.1662 1626.71,118.637 1631.76,105.656 1636.8,99.1662 
  1641.84,112.147 1646.89,118.637 1651.93,125.127 1656.97,105.656 1662.02,105.656 1667.06,86.1857 1672.1,92.6759 1677.14,92.6759 1682.19,92.6759 1687.23,112.147 
  1692.27,86.1857 1697.32,105.656 1702.36,86.1857 1707.4,99.1662 1712.45,99.1662 1717.49,86.1857 1722.53,92.6759 1727.57,99.1662 1732.62,105.656 1737.66,105.656 
  1742.7,105.656 1747.75,99.1662 1752.79,86.1857 1757.83,105.656 1762.88,99.1662 1767.92,86.1857 1772.96,92.6759 1778,118.637 1783.05,99.1662 1788.09,92.6759 
  1793.13,92.6759 1798.18,92.6759 1803.22,99.1662 1808.26,99.1662 1813.31,92.6759 1818.35,99.1662 1823.39,92.6759 1828.43,92.6759 1833.48,112.147 1838.52,105.656 
  1843.56,92.6759 1848.61,99.1662 1853.65,118.637 1858.69,118.637 1863.74,92.6759 1868.78,105.656 1873.82,92.6759 1878.86,112.147 1883.91,99.1662 1888.95,99.1662 
  1893.99,105.656 1899.04,92.6759 1904.08,105.656 1909.12,99.1662 1914.17,86.1857 1919.21,92.6759 1924.25,105.656 1929.29,118.637 1934.34,105.656 1939.38,92.6759 
  1944.42,99.1662 1949.47,99.1662 1954.51,92.6759 1959.55,99.1662 1964.6,86.1857 1969.64,105.656 1974.68,105.656 1979.72,99.1662 1984.77,99.1662 1989.81,105.656 
  1994.85,99.1662 1999.9,105.656 2004.94,118.637 2009.98,112.147 2015.03,125.127 2020.07,112.147 2025.11,86.1857 2030.15,92.6759 2035.2,86.1857 2040.24,92.6759 
  2045.28,86.1857 2050.33,99.1662 2055.37,99.1662 2060.41,112.147 2065.46,92.6759 2070.5,112.147 2075.54,86.1857 2080.58,99.1662 2085.63,92.6759 2090.67,99.1662 
  2095.71,112.147 2100.76,118.637 2105.8,92.6759 2110.84,105.656 2115.89,99.1662 2120.93,92.6759 2125.97,105.656 2131.01,92.6759 2136.06,112.147 2141.1,92.6759 
  2146.14,105.656 2151.19,118.637 2156.23,99.1662 2161.27,99.1662 2166.32,92.6759 2171.36,112.147 2176.4,86.1857 2181.44,105.656 2186.49,92.6759 2191.53,105.656 
  2196.57,99.1662 2201.62,105.656 2206.66,105.656 2211.7,92.6759 2216.75,99.1662 2221.79,92.6759 2226.83,112.147 2231.88,99.1662 2236.92,99.1662 2241.96,105.656 
  2247,92.6759 2252.05,92.6759 2257.09,99.1662 2262.13,105.656 2267.18,92.6759 2272.22,92.6759 2277.26,86.1857 2282.31,92.6759 2287.35,92.6759 2292.39,99.1662 
  
  "/>
<path clip-path="url(#clip830)" d="
M1818.3 1377.32 L2281.66 1377.32 L2281.66 1221.8 L1818.3 1221.8  Z
  " fill="#ffffff" fill-rule="evenodd" fill-opacity="1"/>
<polyline clip-path="url(#clip830)" style="stroke:#000000; stroke-linecap:round; stroke-linejoin:round; stroke-width:4; stroke-opacity:1; fill:none" points="
  1818.3,1377.32 2281.66,1377.32 2281.66,1221.8 1818.3,1221.8 1818.3,1377.32 
  "/>
<polyline clip-path="url(#clip830)" style="stroke:#009af9; stroke-linecap:round; stroke-linejoin:round; stroke-width:4; stroke-opacity:1; fill:none" points="
  1842,1273.64 1984.19,1273.64 
  "/>
<path clip-path="url(#clip830)" d="M2026.32 1265.75 L2026.32 1269.78 Q2024.51 1268.86 2022.57 1268.39 Q2020.62 1267.93 2018.54 1267.93 Q2015.37 1267.93 2013.77 1268.9 Q2012.2 1269.87 2012.2 1271.82 Q2012.2 1273.3 2013.33 1274.16 Q2014.47 1274.99 2017.89 1275.75 L2019.35 1276.08 Q2023.89 1277.05 2025.79 1278.83 Q2027.71 1280.59 2027.71 1283.76 Q2027.71 1287.37 2024.84 1289.48 Q2021.99 1291.59 2016.99 1291.59 Q2014.91 1291.59 2012.64 1291.17 Q2010.39 1290.78 2007.89 1289.97 L2007.89 1285.57 Q2010.25 1286.79 2012.55 1287.42 Q2014.84 1288.02 2017.08 1288.02 Q2020.09 1288.02 2021.71 1287 Q2023.33 1285.96 2023.33 1284.09 Q2023.33 1282.35 2022.15 1281.42 Q2020.99 1280.5 2017.04 1279.64 L2015.55 1279.3 Q2011.6 1278.46 2009.84 1276.75 Q2008.08 1275.01 2008.08 1272 Q2008.08 1268.35 2010.67 1266.36 Q2013.26 1264.36 2018.03 1264.36 Q2020.39 1264.36 2022.48 1264.71 Q2024.56 1265.06 2026.32 1265.75 Z" fill="#000000" fill-rule="evenodd" fill-opacity="1" /><path clip-path="url(#clip830)" d="M2034.49 1254.9 L2038.75 1254.9 L2038.75 1290.92 L2034.49 1290.92 L2034.49 1254.9 Z" fill="#000000" fill-rule="evenodd" fill-opacity="1" /><path clip-path="url(#clip830)" d="M2057.71 1267.98 Q2054.28 1267.98 2052.29 1270.66 Q2050.3 1273.32 2050.3 1277.98 Q2050.3 1282.63 2052.27 1285.31 Q2054.26 1287.98 2057.71 1287.98 Q2061.11 1287.98 2063.1 1285.29 Q2065.09 1282.61 2065.09 1277.98 Q2065.09 1273.37 2063.1 1270.68 Q2061.11 1267.98 2057.71 1267.98 M2057.71 1264.36 Q2063.26 1264.36 2066.43 1267.98 Q2069.61 1271.59 2069.61 1277.98 Q2069.61 1284.34 2066.43 1287.98 Q2063.26 1291.59 2057.71 1291.59 Q2052.13 1291.59 2048.96 1287.98 Q2045.81 1284.34 2045.81 1277.98 Q2045.81 1271.59 2048.96 1267.98 Q2052.13 1264.36 2057.71 1264.36 Z" fill="#000000" fill-rule="evenodd" fill-opacity="1" /><path clip-path="url(#clip830)" d="M2074.19 1264.99 L2078.45 1264.99 L2083.77 1285.22 L2089.07 1264.99 L2094.1 1264.99 L2099.42 1285.22 L2104.72 1264.99 L2108.98 1264.99 L2102.2 1290.92 L2097.17 1290.92 L2091.6 1269.67 L2085.99 1290.92 L2080.97 1290.92 L2074.19 1264.99 Z" fill="#000000" fill-rule="evenodd" fill-opacity="1" /><path clip-path="url(#clip830)" d="M2150.69 1269.97 Q2152.29 1267.1 2154.51 1265.73 Q2156.73 1264.36 2159.74 1264.36 Q2163.79 1264.36 2165.99 1267.21 Q2168.19 1270.04 2168.19 1275.27 L2168.19 1290.92 L2163.91 1290.92 L2163.91 1275.41 Q2163.91 1271.68 2162.59 1269.87 Q2161.27 1268.07 2158.56 1268.07 Q2155.25 1268.07 2153.33 1270.27 Q2151.41 1272.47 2151.41 1276.26 L2151.41 1290.92 L2147.13 1290.92 L2147.13 1275.41 Q2147.13 1271.66 2145.81 1269.87 Q2144.49 1268.07 2141.73 1268.07 Q2138.47 1268.07 2136.55 1270.29 Q2134.63 1272.49 2134.63 1276.26 L2134.63 1290.92 L2130.35 1290.92 L2130.35 1264.99 L2134.63 1264.99 L2134.63 1269.02 Q2136.09 1266.63 2138.12 1265.5 Q2140.16 1264.36 2142.96 1264.36 Q2145.79 1264.36 2147.75 1265.8 Q2149.74 1267.23 2150.69 1269.97 Z" fill="#000000" fill-rule="evenodd" fill-opacity="1" /><path clip-path="url(#clip830)" d="M2186.73 1267.98 Q2183.31 1267.98 2181.32 1270.66 Q2179.33 1273.32 2179.33 1277.98 Q2179.33 1282.63 2181.29 1285.31 Q2183.29 1287.98 2186.73 1287.98 Q2190.14 1287.98 2192.13 1285.29 Q2194.12 1282.61 2194.12 1277.98 Q2194.12 1273.37 2192.13 1270.68 Q2190.14 1267.98 2186.73 1267.98 M2186.73 1264.36 Q2192.29 1264.36 2195.46 1267.98 Q2198.63 1271.59 2198.63 1277.98 Q2198.63 1284.34 2195.46 1287.98 Q2192.29 1291.59 2186.73 1291.59 Q2181.16 1291.59 2177.98 1287.98 Q2174.84 1284.34 2174.84 1277.98 Q2174.84 1271.59 2177.98 1267.98 Q2181.16 1264.36 2186.73 1264.36 Z" fill="#000000" fill-rule="evenodd" fill-opacity="1" /><path clip-path="url(#clip830)" d="M2222.75 1268.92 L2222.75 1254.9 L2227.01 1254.9 L2227.01 1290.92 L2222.75 1290.92 L2222.75 1287.03 Q2221.41 1289.34 2219.35 1290.48 Q2217.31 1291.59 2214.44 1291.59 Q2209.74 1291.59 2206.78 1287.84 Q2203.84 1284.09 2203.84 1277.98 Q2203.84 1271.86 2206.78 1268.11 Q2209.74 1264.36 2214.44 1264.36 Q2217.31 1264.36 2219.35 1265.5 Q2221.41 1266.61 2222.75 1268.92 M2208.24 1277.98 Q2208.24 1282.67 2210.16 1285.36 Q2212.1 1288.02 2215.48 1288.02 Q2218.86 1288.02 2220.81 1285.36 Q2222.75 1282.67 2222.75 1277.98 Q2222.75 1273.28 2220.81 1270.61 Q2218.86 1267.93 2215.48 1267.93 Q2212.1 1267.93 2210.16 1270.61 Q2208.24 1273.28 2208.24 1277.98 Z" fill="#000000" fill-rule="evenodd" fill-opacity="1" /><path clip-path="url(#clip830)" d="M2257.96 1276.89 L2257.96 1278.97 L2238.38 1278.97 Q2238.66 1283.37 2241.02 1285.68 Q2243.4 1287.98 2247.64 1287.98 Q2250.09 1287.98 2252.38 1287.37 Q2254.7 1286.77 2256.97 1285.57 L2256.97 1289.6 Q2254.67 1290.57 2252.27 1291.08 Q2249.86 1291.59 2247.38 1291.59 Q2241.18 1291.59 2237.54 1287.98 Q2233.93 1284.36 2233.93 1278.21 Q2233.93 1271.84 2237.36 1268.11 Q2240.81 1264.36 2246.64 1264.36 Q2251.87 1264.36 2254.91 1267.74 Q2257.96 1271.1 2257.96 1276.89 M2253.7 1275.64 Q2253.66 1272.14 2251.73 1270.06 Q2249.84 1267.98 2246.69 1267.98 Q2243.12 1267.98 2240.97 1269.99 Q2238.84 1272 2238.52 1275.66 L2253.7 1275.64 Z" fill="#000000" fill-rule="evenodd" fill-opacity="1" /><polyline clip-path="url(#clip830)" style="stroke:#e26f46; stroke-linecap:round; stroke-linejoin:round; stroke-width:4; stroke-opacity:1; fill:none" points="
  1842,1325.48 1984.19,1325.48 
  "/>
<path clip-path="url(#clip830)" d="M2024.4 1306.74 L2024.4 1310.28 L2020.32 1310.28 Q2018.03 1310.28 2017.13 1311.2 Q2016.25 1312.13 2016.25 1314.54 L2016.25 1316.83 L2023.26 1316.83 L2023.26 1320.14 L2016.25 1320.14 L2016.25 1342.76 L2011.97 1342.76 L2011.97 1320.14 L2007.89 1320.14 L2007.89 1316.83 L2011.97 1316.83 L2011.97 1315.02 Q2011.97 1310.7 2013.98 1308.73 Q2015.99 1306.74 2020.37 1306.74 L2024.4 1306.74 Z" fill="#000000" fill-rule="evenodd" fill-opacity="1" /><path clip-path="url(#clip830)" d="M2039.74 1329.72 Q2034.58 1329.72 2032.59 1330.9 Q2030.6 1332.08 2030.6 1334.93 Q2030.6 1337.2 2032.08 1338.54 Q2033.59 1339.86 2036.16 1339.86 Q2039.7 1339.86 2041.83 1337.36 Q2043.98 1334.84 2043.98 1330.67 L2043.98 1329.72 L2039.74 1329.72 M2048.24 1327.96 L2048.24 1342.76 L2043.98 1342.76 L2043.98 1338.82 Q2042.52 1341.18 2040.35 1342.32 Q2038.17 1343.43 2035.02 1343.43 Q2031.04 1343.43 2028.68 1341.2 Q2026.34 1338.96 2026.34 1335.21 Q2026.34 1330.83 2029.26 1328.61 Q2032.2 1326.39 2038.01 1326.39 L2043.98 1326.39 L2043.98 1325.97 Q2043.98 1323.03 2042.04 1321.44 Q2040.11 1319.82 2036.62 1319.82 Q2034.4 1319.82 2032.29 1320.35 Q2030.18 1320.88 2028.24 1321.95 L2028.24 1318.01 Q2030.58 1317.11 2032.78 1316.67 Q2034.98 1316.2 2037.06 1316.2 Q2042.68 1316.2 2045.46 1319.12 Q2048.24 1322.04 2048.24 1327.96 Z" fill="#000000" fill-rule="evenodd" fill-opacity="1" /><path clip-path="url(#clip830)" d="M2073.54 1317.59 L2073.54 1321.62 Q2071.73 1320.7 2069.79 1320.23 Q2067.85 1319.77 2065.76 1319.77 Q2062.59 1319.77 2060.99 1320.74 Q2059.42 1321.71 2059.42 1323.66 Q2059.42 1325.14 2060.55 1326 Q2061.69 1326.83 2065.11 1327.59 L2066.57 1327.92 Q2071.11 1328.89 2073.01 1330.67 Q2074.93 1332.43 2074.93 1335.6 Q2074.93 1339.21 2072.06 1341.32 Q2069.21 1343.43 2064.21 1343.43 Q2062.13 1343.43 2059.86 1343.01 Q2057.61 1342.62 2055.11 1341.81 L2055.11 1337.41 Q2057.48 1338.63 2059.77 1339.26 Q2062.06 1339.86 2064.3 1339.86 Q2067.31 1339.86 2068.93 1338.84 Q2070.55 1337.8 2070.55 1335.93 Q2070.55 1334.19 2069.37 1333.26 Q2068.22 1332.34 2064.26 1331.48 L2062.78 1331.14 Q2058.82 1330.3 2057.06 1328.59 Q2055.3 1326.85 2055.3 1323.84 Q2055.3 1320.19 2057.89 1318.2 Q2060.49 1316.2 2065.25 1316.2 Q2067.61 1316.2 2069.7 1316.55 Q2071.78 1316.9 2073.54 1317.59 Z" fill="#000000" fill-rule="evenodd" fill-opacity="1" /><path clip-path="url(#clip830)" d="M2085.92 1309.47 L2085.92 1316.83 L2094.7 1316.83 L2094.7 1320.14 L2085.92 1320.14 L2085.92 1334.21 Q2085.92 1337.38 2086.78 1338.29 Q2087.66 1339.19 2090.32 1339.19 L2094.7 1339.19 L2094.7 1342.76 L2090.32 1342.76 Q2085.39 1342.76 2083.52 1340.93 Q2081.64 1339.07 2081.64 1334.21 L2081.64 1320.14 L2078.52 1320.14 L2078.52 1316.83 L2081.64 1316.83 L2081.64 1309.47 L2085.92 1309.47 Z" fill="#000000" fill-rule="evenodd" fill-opacity="1" /><path clip-path="url(#clip830)" d="M2135.55 1321.81 Q2137.15 1318.94 2139.37 1317.57 Q2141.6 1316.2 2144.6 1316.2 Q2148.66 1316.2 2150.85 1319.05 Q2153.05 1321.88 2153.05 1327.11 L2153.05 1342.76 L2148.77 1342.76 L2148.77 1327.25 Q2148.77 1323.52 2147.45 1321.71 Q2146.13 1319.91 2143.42 1319.91 Q2140.11 1319.91 2138.19 1322.11 Q2136.27 1324.31 2136.27 1328.1 L2136.27 1342.76 L2131.99 1342.76 L2131.99 1327.25 Q2131.99 1323.5 2130.67 1321.71 Q2129.35 1319.91 2126.6 1319.91 Q2123.33 1319.91 2121.41 1322.13 Q2119.49 1324.33 2119.49 1328.1 L2119.49 1342.76 L2115.21 1342.76 L2115.21 1316.83 L2119.49 1316.83 L2119.49 1320.86 Q2120.95 1318.47 2122.98 1317.34 Q2125.02 1316.2 2127.82 1316.2 Q2130.65 1316.2 2132.61 1317.64 Q2134.6 1319.07 2135.55 1321.81 Z" fill="#000000" fill-rule="evenodd" fill-opacity="1" /><path clip-path="url(#clip830)" d="M2171.6 1319.82 Q2168.17 1319.82 2166.18 1322.5 Q2164.19 1325.16 2164.19 1329.82 Q2164.19 1334.47 2166.16 1337.15 Q2168.15 1339.82 2171.6 1339.82 Q2175 1339.82 2176.99 1337.13 Q2178.98 1334.45 2178.98 1329.82 Q2178.98 1325.21 2176.99 1322.52 Q2175 1319.82 2171.6 1319.82 M2171.6 1316.2 Q2177.15 1316.2 2180.32 1319.82 Q2183.49 1323.43 2183.49 1329.82 Q2183.49 1336.18 2180.32 1339.82 Q2177.15 1343.43 2171.6 1343.43 Q2166.02 1343.43 2162.85 1339.82 Q2159.7 1336.18 2159.7 1329.82 Q2159.7 1323.43 2162.85 1319.82 Q2166.02 1316.2 2171.6 1316.2 Z" fill="#000000" fill-rule="evenodd" fill-opacity="1" /><path clip-path="url(#clip830)" d="M2207.61 1320.76 L2207.61 1306.74 L2211.87 1306.74 L2211.87 1342.76 L2207.61 1342.76 L2207.61 1338.87 Q2206.27 1341.18 2204.21 1342.32 Q2202.17 1343.43 2199.3 1343.43 Q2194.6 1343.43 2191.64 1339.68 Q2188.7 1335.93 2188.7 1329.82 Q2188.7 1323.7 2191.64 1319.95 Q2194.6 1316.2 2199.3 1316.2 Q2202.17 1316.2 2204.21 1317.34 Q2206.27 1318.45 2207.61 1320.76 M2193.1 1329.82 Q2193.1 1334.51 2195.02 1337.2 Q2196.97 1339.86 2200.35 1339.86 Q2203.72 1339.86 2205.67 1337.2 Q2207.61 1334.51 2207.61 1329.82 Q2207.61 1325.12 2205.67 1322.45 Q2203.72 1319.77 2200.35 1319.77 Q2196.97 1319.77 2195.02 1322.45 Q2193.1 1325.12 2193.1 1329.82 Z" fill="#000000" fill-rule="evenodd" fill-opacity="1" /><path clip-path="url(#clip830)" d="M2242.82 1328.73 L2242.82 1330.81 L2223.24 1330.81 Q2223.52 1335.21 2225.88 1337.52 Q2228.26 1339.82 2232.5 1339.82 Q2234.95 1339.82 2237.24 1339.21 Q2239.56 1338.61 2241.83 1337.41 L2241.83 1341.44 Q2239.53 1342.41 2237.13 1342.92 Q2234.72 1343.43 2232.24 1343.43 Q2226.04 1343.43 2222.41 1339.82 Q2218.79 1336.2 2218.79 1330.05 Q2218.79 1323.68 2222.22 1319.95 Q2225.67 1316.2 2231.5 1316.2 Q2236.73 1316.2 2239.77 1319.58 Q2242.82 1322.94 2242.82 1328.73 M2238.56 1327.48 Q2238.52 1323.98 2236.6 1321.9 Q2234.7 1319.82 2231.55 1319.82 Q2227.98 1319.82 2225.83 1321.83 Q2223.7 1323.84 2223.38 1327.5 L2238.56 1327.48 Z" fill="#000000" fill-rule="evenodd" fill-opacity="1" /></svg>
