<?xml version="1.0" encoding="utf-8"?>
<svg xmlns="http://www.w3.org/2000/svg" xmlns:xlink="http://www.w3.org/1999/xlink" width="600" height="400" viewBox="0 0 2400 1600">
<defs>
  <clipPath id="clip840">
    <rect x="0" y="0" width="2400" height="1600"/>
  </clipPath>
</defs>
<path clip-path="url(#clip840)" d="
M0 1600 L2400 1600 L2400 0 L0 0  Z
  " fill="#ffffff" fill-rule="evenodd" fill-opacity="1"/>
<defs>
  <clipPath id="clip841">
    <rect x="480" y="0" width="1681" height="1600"/>
  </clipPath>
</defs>
<path clip-path="url(#clip840)" d="
M175.445 1410.9 L2352.76 1410.9 L2352.76 47.2441 L175.445 47.2441  Z
  " fill="#ffffff" fill-rule="evenodd" fill-opacity="1"/>
<defs>
  <clipPath id="clip842">
    <rect x="175" y="47" width="2178" height="1365"/>
  </clipPath>
</defs>
<polyline clip-path="url(#clip842)" style="stroke:#000000; stroke-linecap:round; stroke-linejoin:round; stroke-width:2; stroke-opacity:0.1; fill:none" points="
  184.399,1410.9 184.399,47.2441 
  "/>
<polyline clip-path="url(#clip842)" style="stroke:#000000; stroke-linecap:round; stroke-linejoin:round; stroke-width:2; stroke-opacity:0.1; fill:none" points="
  711.083,1410.9 711.083,47.2441 
  "/>
<polyline clip-path="url(#clip842)" style="stroke:#000000; stroke-linecap:round; stroke-linejoin:round; stroke-width:2; stroke-opacity:0.1; fill:none" points="
  1237.77,1410.9 1237.77,47.2441 
  "/>
<polyline clip-path="url(#clip842)" style="stroke:#000000; stroke-linecap:round; stroke-linejoin:round; stroke-width:2; stroke-opacity:0.1; fill:none" points="
  1764.45,1410.9 1764.45,47.2441 
  "/>
<polyline clip-path="url(#clip842)" style="stroke:#000000; stroke-linecap:round; stroke-linejoin:round; stroke-width:2; stroke-opacity:0.1; fill:none" points="
  2291.13,1410.9 2291.13,47.2441 
  "/>
<polyline clip-path="url(#clip840)" style="stroke:#000000; stroke-linecap:round; stroke-linejoin:round; stroke-width:4; stroke-opacity:1; fill:none" points="
  175.445,1410.9 2352.76,1410.9 
  "/>
<polyline clip-path="url(#clip840)" style="stroke:#000000; stroke-linecap:round; stroke-linejoin:round; stroke-width:4; stroke-opacity:1; fill:none" points="
  184.399,1410.9 184.399,1392 
  "/>
<polyline clip-path="url(#clip840)" style="stroke:#000000; stroke-linecap:round; stroke-linejoin:round; stroke-width:4; stroke-opacity:1; fill:none" points="
  711.083,1410.9 711.083,1392 
  "/>
<polyline clip-path="url(#clip840)" style="stroke:#000000; stroke-linecap:round; stroke-linejoin:round; stroke-width:4; stroke-opacity:1; fill:none" points="
  1237.77,1410.9 1237.77,1392 
  "/>
<polyline clip-path="url(#clip840)" style="stroke:#000000; stroke-linecap:round; stroke-linejoin:round; stroke-width:4; stroke-opacity:1; fill:none" points="
  1764.45,1410.9 1764.45,1392 
  "/>
<polyline clip-path="url(#clip840)" style="stroke:#000000; stroke-linecap:round; stroke-linejoin:round; stroke-width:4; stroke-opacity:1; fill:none" points="
  2291.13,1410.9 2291.13,1392 
  "/>
<path clip-path="url(#clip840)" d="M184.399 1441.82 Q180.788 1441.82 178.959 1445.38 Q177.154 1448.92 177.154 1456.05 Q177.154 1463.16 178.959 1466.72 Q180.788 1470.26 184.399 1470.26 Q188.033 1470.26 189.839 1466.72 Q191.667 1463.16 191.667 1456.05 Q191.667 1448.92 189.839 1445.38 Q188.033 1441.82 184.399 1441.82 M184.399 1438.11 Q190.209 1438.11 193.265 1442.72 Q196.343 1447.3 196.343 1456.05 Q196.343 1464.78 193.265 1469.38 Q190.209 1473.97 184.399 1473.97 Q178.589 1473.97 175.51 1469.38 Q172.454 1464.78 172.454 1456.05 Q172.454 1447.3 175.51 1442.72 Q178.589 1438.11 184.399 1438.11 Z" fill="#000000" fill-rule="evenodd" fill-opacity="1" /><path clip-path="url(#clip840)" d="M618.517 1485.02 L626.156 1485.02 L626.156 1458.66 L617.846 1460.32 L617.846 1456.06 L626.11 1454.4 L630.786 1454.4 L630.786 1485.02 L638.425 1485.02 L638.425 1488.96 L618.517 1488.96 L618.517 1485.02 Z" fill="#000000" fill-rule="evenodd" fill-opacity="1" /><path clip-path="url(#clip840)" d="M647.869 1483.08 L652.753 1483.08 L652.753 1488.96 L647.869 1488.96 L647.869 1483.08 Z" fill="#000000" fill-rule="evenodd" fill-opacity="1" /><path clip-path="url(#clip840)" d="M672.938 1457.48 Q669.327 1457.48 667.498 1461.04 Q665.693 1464.58 665.693 1471.71 Q665.693 1478.82 667.498 1482.38 Q669.327 1485.92 672.938 1485.92 Q676.573 1485.92 678.378 1482.38 Q680.207 1478.82 680.207 1471.71 Q680.207 1464.58 678.378 1461.04 Q676.573 1457.48 672.938 1457.48 M672.938 1453.77 Q678.748 1453.77 681.804 1458.38 Q684.883 1462.96 684.883 1471.71 Q684.883 1480.44 681.804 1485.04 Q678.748 1489.63 672.938 1489.63 Q667.128 1489.63 664.049 1485.04 Q660.994 1480.44 660.994 1471.71 Q660.994 1462.96 664.049 1458.38 Q667.128 1453.77 672.938 1453.77 Z" fill="#000000" fill-rule="evenodd" fill-opacity="1" /><path clip-path="url(#clip840)" d="M721.271 1463.49 L710.693 1474.12 L721.271 1484.7 L718.517 1487.5 L707.892 1476.87 L697.267 1487.5 L694.535 1484.7 L705.091 1474.12 L694.535 1463.49 L697.267 1460.69 L707.892 1471.32 L718.517 1460.69 L721.271 1463.49 Z" fill="#000000" fill-rule="evenodd" fill-opacity="1" /><path clip-path="url(#clip840)" d="M733.632 1485.02 L741.271 1485.02 L741.271 1458.66 L732.961 1460.32 L732.961 1456.06 L741.225 1454.4 L745.901 1454.4 L745.901 1485.02 L753.54 1485.02 L753.54 1488.96 L733.632 1488.96 L733.632 1485.02 Z" fill="#000000" fill-rule="evenodd" fill-opacity="1" /><path clip-path="url(#clip840)" d="M772.984 1457.48 Q769.373 1457.48 767.544 1461.04 Q765.739 1464.58 765.739 1471.71 Q765.739 1478.82 767.544 1482.38 Q769.373 1485.92 772.984 1485.92 Q776.618 1485.92 778.424 1482.38 Q780.253 1478.82 780.253 1471.71 Q780.253 1464.58 778.424 1461.04 Q776.618 1457.48 772.984 1457.48 M772.984 1453.77 Q778.794 1453.77 781.85 1458.38 Q784.928 1462.96 784.928 1471.71 Q784.928 1480.44 781.85 1485.04 Q778.794 1489.63 772.984 1489.63 Q767.174 1489.63 764.095 1485.04 Q761.04 1480.44 761.04 1471.71 Q761.04 1462.96 764.095 1458.38 Q767.174 1453.77 772.984 1453.77 Z" fill="#000000" fill-rule="evenodd" fill-opacity="1" /><path clip-path="url(#clip840)" d="M794.953 1445.99 Q792.395 1445.99 790.89 1447.74 Q789.405 1449.49 789.405 1452.54 Q789.405 1455.57 790.89 1457.33 Q792.395 1459.08 794.953 1459.08 Q797.511 1459.08 798.997 1457.33 Q800.501 1455.57 800.501 1452.54 Q800.501 1449.49 798.997 1447.74 Q797.511 1445.99 794.953 1445.99 M802.495 1434.09 L802.495 1437.55 Q801.065 1436.87 799.598 1436.51 Q798.15 1436.16 796.721 1436.16 Q792.959 1436.16 790.966 1438.69 Q788.991 1441.23 788.709 1446.37 Q789.818 1444.73 791.492 1443.87 Q793.166 1442.98 795.179 1442.98 Q799.41 1442.98 801.855 1445.56 Q804.319 1448.12 804.319 1452.54 Q804.319 1456.86 801.761 1459.48 Q799.204 1462.09 794.953 1462.09 Q790.082 1462.09 787.505 1458.37 Q784.928 1454.62 784.928 1447.53 Q784.928 1440.88 788.088 1436.93 Q791.248 1432.96 796.57 1432.96 Q798 1432.96 799.448 1433.24 Q800.915 1433.52 802.495 1434.09 Z" fill="#000000" fill-rule="evenodd" fill-opacity="1" /><path clip-path="url(#clip840)" d="M1149.29 1485.02 L1165.61 1485.02 L1165.61 1488.96 L1143.66 1488.96 L1143.66 1485.02 Q1146.32 1482.27 1150.91 1477.64 Q1155.51 1472.98 1156.69 1471.64 Q1158.94 1469.12 1159.82 1467.38 Q1160.72 1465.62 1160.72 1463.93 Q1160.72 1461.18 1158.78 1459.44 Q1156.86 1457.71 1153.75 1457.71 Q1151.56 1457.71 1149.1 1458.47 Q1146.67 1459.23 1143.89 1460.79 L1143.89 1456.06 Q1146.72 1454.93 1149.17 1454.35 Q1151.62 1453.77 1153.66 1453.77 Q1159.03 1453.77 1162.23 1456.46 Q1165.42 1459.14 1165.42 1463.63 Q1165.42 1465.76 1164.61 1467.68 Q1163.82 1469.58 1161.72 1472.17 Q1161.14 1472.85 1158.04 1476.06 Q1154.93 1479.26 1149.29 1485.02 Z" fill="#000000" fill-rule="evenodd" fill-opacity="1" /><path clip-path="url(#clip840)" d="M1175.42 1483.08 L1180.31 1483.08 L1180.31 1488.96 L1175.42 1488.96 L1175.42 1483.08 Z" fill="#000000" fill-rule="evenodd" fill-opacity="1" /><path clip-path="url(#clip840)" d="M1200.49 1457.48 Q1196.88 1457.48 1195.05 1461.04 Q1193.24 1464.58 1193.24 1471.71 Q1193.24 1478.82 1195.05 1482.38 Q1196.88 1485.92 1200.49 1485.92 Q1204.12 1485.92 1205.93 1482.38 Q1207.76 1478.82 1207.76 1471.71 Q1207.76 1464.58 1205.93 1461.04 Q1204.12 1457.48 1200.49 1457.48 M1200.49 1453.77 Q1206.3 1453.77 1209.36 1458.38 Q1212.43 1462.96 1212.43 1471.71 Q1212.43 1480.44 1209.36 1485.04 Q1206.3 1489.63 1200.49 1489.63 Q1194.68 1489.63 1191.6 1485.04 Q1188.55 1480.44 1188.55 1471.71 Q1188.55 1462.96 1191.6 1458.38 Q1194.68 1453.77 1200.49 1453.77 Z" fill="#000000" fill-rule="evenodd" fill-opacity="1" /><path clip-path="url(#clip840)" d="M1248.82 1463.49 L1238.24 1474.12 L1248.82 1484.7 L1246.07 1487.5 L1235.44 1476.87 L1224.82 1487.5 L1222.09 1484.7 L1232.64 1474.12 L1222.09 1463.49 L1224.82 1460.69 L1235.44 1471.32 L1246.07 1460.69 L1248.82 1463.49 Z" fill="#000000" fill-rule="evenodd" fill-opacity="1" /><path clip-path="url(#clip840)" d="M1261.18 1485.02 L1268.82 1485.02 L1268.82 1458.66 L1260.51 1460.32 L1260.51 1456.06 L1268.78 1454.4 L1273.45 1454.4 L1273.45 1485.02 L1281.09 1485.02 L1281.09 1488.96 L1261.18 1488.96 L1261.18 1485.02 Z" fill="#000000" fill-rule="evenodd" fill-opacity="1" /><path clip-path="url(#clip840)" d="M1300.54 1457.48 Q1296.92 1457.48 1295.1 1461.04 Q1293.29 1464.58 1293.29 1471.71 Q1293.29 1478.82 1295.1 1482.38 Q1296.92 1485.92 1300.54 1485.92 Q1304.17 1485.92 1305.98 1482.38 Q1307.8 1478.82 1307.8 1471.71 Q1307.8 1464.58 1305.98 1461.04 Q1304.17 1457.48 1300.54 1457.48 M1300.54 1453.77 Q1306.35 1453.77 1309.4 1458.38 Q1312.48 1462.96 1312.48 1471.71 Q1312.48 1480.44 1309.4 1485.04 Q1306.35 1489.63 1300.54 1489.63 Q1294.73 1489.63 1291.65 1485.04 Q1288.59 1480.44 1288.59 1471.71 Q1288.59 1462.96 1291.65 1458.38 Q1294.73 1453.77 1300.54 1453.77 Z" fill="#000000" fill-rule="evenodd" fill-opacity="1" /><path clip-path="url(#clip840)" d="M1322.5 1445.99 Q1319.95 1445.99 1318.44 1447.74 Q1316.96 1449.49 1316.96 1452.54 Q1316.96 1455.57 1318.44 1457.33 Q1319.95 1459.08 1322.5 1459.08 Q1325.06 1459.08 1326.55 1457.33 Q1328.05 1455.57 1328.05 1452.54 Q1328.05 1449.49 1326.55 1447.74 Q1325.06 1445.99 1322.5 1445.99 M1330.05 1434.09 L1330.05 1437.55 Q1328.62 1436.87 1327.15 1436.51 Q1325.7 1436.16 1324.27 1436.16 Q1320.51 1436.16 1318.52 1438.69 Q1316.54 1441.23 1316.26 1446.37 Q1317.37 1444.73 1319.04 1443.87 Q1320.72 1442.98 1322.73 1442.98 Q1326.96 1442.98 1329.41 1445.56 Q1331.87 1448.12 1331.87 1452.54 Q1331.87 1456.86 1329.31 1459.48 Q1326.76 1462.09 1322.5 1462.09 Q1317.63 1462.09 1315.06 1458.37 Q1312.48 1454.62 1312.48 1447.53 Q1312.48 1440.88 1315.64 1436.93 Q1318.8 1432.96 1324.12 1432.96 Q1325.55 1432.96 1327 1433.24 Q1328.47 1433.52 1330.05 1434.09 Z" fill="#000000" fill-rule="evenodd" fill-opacity="1" /><path clip-path="url(#clip840)" d="M1686.04 1470.32 Q1689.4 1471.04 1691.27 1473.31 Q1693.17 1475.58 1693.17 1478.91 Q1693.17 1484.03 1689.65 1486.83 Q1686.13 1489.63 1679.65 1489.63 Q1677.48 1489.63 1675.16 1489.19 Q1672.87 1488.77 1670.41 1487.91 L1670.41 1483.4 Q1672.36 1484.54 1674.67 1485.11 Q1676.99 1485.69 1679.51 1485.69 Q1683.91 1485.69 1686.2 1483.96 Q1688.52 1482.22 1688.52 1478.91 Q1688.52 1475.85 1686.36 1474.14 Q1684.23 1472.41 1680.41 1472.41 L1676.39 1472.41 L1676.39 1468.56 L1680.6 1468.56 Q1684.05 1468.56 1685.88 1467.2 Q1687.71 1465.81 1687.71 1463.22 Q1687.71 1460.55 1685.81 1459.14 Q1683.93 1457.71 1680.41 1457.71 Q1678.49 1457.71 1676.29 1458.12 Q1674.1 1458.54 1671.46 1459.42 L1671.46 1455.25 Q1674.12 1454.51 1676.43 1454.14 Q1678.77 1453.77 1680.83 1453.77 Q1686.16 1453.77 1689.26 1456.2 Q1692.36 1458.61 1692.36 1462.73 Q1692.36 1465.6 1690.72 1467.59 Q1689.07 1469.56 1686.04 1470.32 Z" fill="#000000" fill-rule="evenodd" fill-opacity="1" /><path clip-path="url(#clip840)" d="M1702.04 1483.08 L1706.92 1483.08 L1706.92 1488.96 L1702.04 1488.96 L1702.04 1483.08 Z" fill="#000000" fill-rule="evenodd" fill-opacity="1" /><path clip-path="url(#clip840)" d="M1727.1 1457.48 Q1723.49 1457.48 1721.66 1461.04 Q1719.86 1464.58 1719.86 1471.71 Q1719.86 1478.82 1721.66 1482.38 Q1723.49 1485.92 1727.1 1485.92 Q1730.74 1485.92 1732.54 1482.38 Q1734.37 1478.82 1734.37 1471.71 Q1734.37 1464.58 1732.54 1461.04 Q1730.74 1457.48 1727.1 1457.48 M1727.1 1453.77 Q1732.91 1453.77 1735.97 1458.38 Q1739.05 1462.96 1739.05 1471.71 Q1739.05 1480.44 1735.97 1485.04 Q1732.91 1489.63 1727.1 1489.63 Q1721.29 1489.63 1718.22 1485.04 Q1715.16 1480.44 1715.16 1471.71 Q1715.16 1462.96 1718.22 1458.38 Q1721.29 1453.77 1727.1 1453.77 Z" fill="#000000" fill-rule="evenodd" fill-opacity="1" /><path clip-path="url(#clip840)" d="M1775.44 1463.49 L1764.86 1474.12 L1775.44 1484.7 L1772.68 1487.5 L1762.06 1476.87 L1751.43 1487.5 L1748.7 1484.7 L1759.26 1474.12 L1748.7 1463.49 L1751.43 1460.69 L1762.06 1471.32 L1772.68 1460.69 L1775.44 1463.49 Z" fill="#000000" fill-rule="evenodd" fill-opacity="1" /><path clip-path="url(#clip840)" d="M1787.8 1485.02 L1795.44 1485.02 L1795.44 1458.66 L1787.13 1460.32 L1787.13 1456.06 L1795.39 1454.4 L1800.07 1454.4 L1800.07 1485.02 L1807.71 1485.02 L1807.71 1488.96 L1787.8 1488.96 L1787.8 1485.02 Z" fill="#000000" fill-rule="evenodd" fill-opacity="1" /><path clip-path="url(#clip840)" d="M1827.15 1457.48 Q1823.54 1457.48 1821.71 1461.04 Q1819.9 1464.58 1819.9 1471.71 Q1819.9 1478.82 1821.71 1482.38 Q1823.54 1485.92 1827.15 1485.92 Q1830.78 1485.92 1832.59 1482.38 Q1834.42 1478.82 1834.42 1471.71 Q1834.42 1464.58 1832.59 1461.04 Q1830.78 1457.48 1827.15 1457.48 M1827.15 1453.77 Q1832.96 1453.77 1836.02 1458.38 Q1839.09 1462.96 1839.09 1471.71 Q1839.09 1480.44 1836.02 1485.04 Q1832.96 1489.63 1827.15 1489.63 Q1821.34 1489.63 1818.26 1485.04 Q1815.21 1480.44 1815.21 1471.71 Q1815.21 1462.96 1818.26 1458.38 Q1821.34 1453.77 1827.15 1453.77 Z" fill="#000000" fill-rule="evenodd" fill-opacity="1" /><path clip-path="url(#clip840)" d="M1849.12 1445.99 Q1846.56 1445.99 1845.06 1447.74 Q1843.57 1449.49 1843.57 1452.54 Q1843.57 1455.57 1845.06 1457.33 Q1846.56 1459.08 1849.12 1459.08 Q1851.68 1459.08 1853.16 1457.33 Q1854.67 1455.57 1854.67 1452.54 Q1854.67 1449.49 1853.16 1447.74 Q1851.68 1445.99 1849.12 1445.99 M1856.66 1434.09 L1856.66 1437.55 Q1855.23 1436.87 1853.76 1436.51 Q1852.32 1436.16 1850.89 1436.16 Q1847.13 1436.16 1845.13 1438.69 Q1843.16 1441.23 1842.87 1446.37 Q1843.98 1444.73 1845.66 1443.87 Q1847.33 1442.98 1849.34 1442.98 Q1853.58 1442.98 1856.02 1445.56 Q1858.49 1448.12 1858.49 1452.54 Q1858.49 1456.86 1855.93 1459.48 Q1853.37 1462.09 1849.12 1462.09 Q1844.25 1462.09 1841.67 1458.37 Q1839.09 1454.62 1839.09 1447.53 Q1839.09 1440.88 1842.25 1436.93 Q1845.41 1432.96 1850.74 1432.96 Q1852.17 1432.96 1853.61 1433.24 Q1855.08 1433.52 1856.66 1434.09 Z" fill="#000000" fill-rule="evenodd" fill-opacity="1" /><path clip-path="url(#clip840)" d="M2212.05 1458.47 L2200.25 1476.92 L2212.05 1476.92 L2212.05 1458.47 M2210.83 1454.4 L2216.71 1454.4 L2216.71 1476.92 L2221.64 1476.92 L2221.64 1480.81 L2216.71 1480.81 L2216.71 1488.96 L2212.05 1488.96 L2212.05 1480.81 L2196.45 1480.81 L2196.45 1476.29 L2210.83 1454.4 Z" fill="#000000" fill-rule="evenodd" fill-opacity="1" /><path clip-path="url(#clip840)" d="M2229.37 1483.08 L2234.25 1483.08 L2234.25 1488.96 L2229.37 1488.96 L2229.37 1483.08 Z" fill="#000000" fill-rule="evenodd" fill-opacity="1" /><path clip-path="url(#clip840)" d="M2254.44 1457.48 Q2250.83 1457.48 2249 1461.04 Q2247.19 1464.58 2247.19 1471.71 Q2247.19 1478.82 2249 1482.38 Q2250.83 1485.92 2254.44 1485.92 Q2258.07 1485.92 2259.88 1482.38 Q2261.7 1478.82 2261.7 1471.71 Q2261.7 1464.58 2259.88 1461.04 Q2258.07 1457.48 2254.44 1457.48 M2254.44 1453.77 Q2260.25 1453.77 2263.3 1458.38 Q2266.38 1462.96 2266.38 1471.71 Q2266.38 1480.44 2263.3 1485.04 Q2260.25 1489.63 2254.44 1489.63 Q2248.63 1489.63 2245.55 1485.04 Q2242.49 1480.44 2242.49 1471.71 Q2242.49 1462.96 2245.55 1458.38 Q2248.63 1453.77 2254.44 1453.77 Z" fill="#000000" fill-rule="evenodd" fill-opacity="1" /><path clip-path="url(#clip840)" d="M2302.77 1463.49 L2292.19 1474.12 L2302.77 1484.7 L2300.01 1487.5 L2289.39 1476.87 L2278.76 1487.5 L2276.03 1484.7 L2286.59 1474.12 L2276.03 1463.49 L2278.76 1460.69 L2289.39 1471.32 L2300.01 1460.69 L2302.77 1463.49 Z" fill="#000000" fill-rule="evenodd" fill-opacity="1" /><path clip-path="url(#clip840)" d="M2315.13 1485.02 L2322.77 1485.02 L2322.77 1458.66 L2314.46 1460.32 L2314.46 1456.06 L2322.72 1454.4 L2327.4 1454.4 L2327.4 1485.02 L2335.04 1485.02 L2335.04 1488.96 L2315.13 1488.96 L2315.13 1485.02 Z" fill="#000000" fill-rule="evenodd" fill-opacity="1" /><path clip-path="url(#clip840)" d="M2354.48 1457.48 Q2350.87 1457.48 2349.04 1461.04 Q2347.24 1464.58 2347.24 1471.71 Q2347.24 1478.82 2349.04 1482.38 Q2350.87 1485.92 2354.48 1485.92 Q2358.12 1485.92 2359.92 1482.38 Q2361.75 1478.82 2361.75 1471.71 Q2361.75 1464.58 2359.92 1461.04 Q2358.12 1457.48 2354.48 1457.48 M2354.48 1453.77 Q2360.29 1453.77 2363.35 1458.38 Q2366.43 1462.96 2366.43 1471.71 Q2366.43 1480.44 2363.35 1485.04 Q2360.29 1489.63 2354.48 1489.63 Q2348.67 1489.63 2345.59 1485.04 Q2342.54 1480.44 2342.54 1471.71 Q2342.54 1462.96 2345.59 1458.38 Q2348.67 1453.77 2354.48 1453.77 Z" fill="#000000" fill-rule="evenodd" fill-opacity="1" /><path clip-path="url(#clip840)" d="M2376.45 1445.99 Q2373.89 1445.99 2372.39 1447.74 Q2370.9 1449.49 2370.9 1452.54 Q2370.9 1455.57 2372.39 1457.33 Q2373.89 1459.08 2376.45 1459.08 Q2379.01 1459.08 2380.49 1457.33 Q2382 1455.57 2382 1452.54 Q2382 1449.49 2380.49 1447.74 Q2379.01 1445.99 2376.45 1445.99 M2383.99 1434.09 L2383.99 1437.55 Q2382.56 1436.87 2381.1 1436.51 Q2379.65 1436.16 2378.22 1436.16 Q2374.46 1436.16 2372.46 1438.69 Q2370.49 1441.23 2370.21 1446.37 Q2371.32 1444.73 2372.99 1443.87 Q2374.66 1442.98 2376.68 1442.98 Q2380.91 1442.98 2383.35 1445.56 Q2385.82 1448.12 2385.82 1452.54 Q2385.82 1456.86 2383.26 1459.48 Q2380.7 1462.09 2376.45 1462.09 Q2371.58 1462.09 2369 1458.37 Q2366.43 1454.62 2366.43 1447.53 Q2366.43 1440.88 2369.59 1436.93 Q2372.75 1432.96 2378.07 1432.96 Q2379.5 1432.96 2380.95 1433.24 Q2382.41 1433.52 2383.99 1434.09 Z" fill="#000000" fill-rule="evenodd" fill-opacity="1" /><path clip-path="url(#clip840)" d="M1113.66 1526.67 L1120.09 1526.67 L1120.09 1574.19 L1113.66 1574.19 L1113.66 1526.67 Z" fill="#000000" fill-rule="evenodd" fill-opacity="1" /><path clip-path="url(#clip840)" d="M1138.43 1528.42 L1138.43 1538.54 L1150.49 1538.54 L1150.49 1543.09 L1138.43 1543.09 L1138.43 1562.44 Q1138.43 1566.8 1139.6 1568.04 Q1140.81 1569.28 1144.47 1569.28 L1150.49 1569.28 L1150.49 1574.19 L1144.47 1574.19 Q1137.69 1574.19 1135.12 1571.67 Q1132.54 1569.12 1132.54 1562.44 L1132.54 1543.09 L1128.24 1543.09 L1128.24 1538.54 L1132.54 1538.54 L1132.54 1528.42 L1138.43 1528.42 Z" fill="#000000" fill-rule="evenodd" fill-opacity="1" /><path clip-path="url(#clip840)" d="M1188.68 1554.9 L1188.68 1557.76 L1161.76 1557.76 Q1162.14 1563.81 1165.38 1566.99 Q1168.66 1570.14 1174.49 1570.14 Q1177.86 1570.14 1181.01 1569.32 Q1184.2 1568.49 1187.31 1566.83 L1187.31 1572.37 Q1184.16 1573.71 1180.85 1574.41 Q1177.54 1575.11 1174.14 1575.11 Q1165.61 1575.11 1160.61 1570.14 Q1155.64 1565.18 1155.64 1556.71 Q1155.64 1547.96 1160.36 1542.83 Q1165.1 1537.68 1173.12 1537.68 Q1180.31 1537.68 1184.48 1542.33 Q1188.68 1546.94 1188.68 1554.9 M1182.83 1553.18 Q1182.76 1548.37 1180.12 1545.51 Q1177.51 1542.64 1173.18 1542.64 Q1168.28 1542.64 1165.32 1545.41 Q1162.39 1548.18 1161.95 1553.21 L1182.83 1553.18 Z" fill="#000000" fill-rule="evenodd" fill-opacity="1" /><path clip-path="url(#clip840)" d="M1218.95 1544.01 Q1217.97 1543.44 1216.79 1543.18 Q1215.64 1542.9 1214.24 1542.9 Q1209.28 1542.9 1206.6 1546.14 Q1203.96 1549.36 1203.96 1555.41 L1203.96 1574.19 L1198.07 1574.19 L1198.07 1538.54 L1203.96 1538.54 L1203.96 1544.08 Q1205.81 1540.83 1208.77 1539.27 Q1211.73 1537.68 1215.96 1537.68 Q1216.56 1537.68 1217.3 1537.77 Q1218.03 1537.84 1218.92 1538 L1218.95 1544.01 Z" fill="#000000" fill-rule="evenodd" fill-opacity="1" /><path clip-path="url(#clip840)" d="M1241.3 1556.27 Q1234.2 1556.27 1231.46 1557.89 Q1228.72 1559.51 1228.72 1563.43 Q1228.72 1566.55 1230.76 1568.39 Q1232.83 1570.21 1236.36 1570.21 Q1241.23 1570.21 1244.16 1566.77 Q1247.12 1563.3 1247.12 1557.57 L1247.12 1556.27 L1241.3 1556.27 M1252.98 1553.85 L1252.98 1574.19 L1247.12 1574.19 L1247.12 1568.77 Q1245.11 1572.02 1242.12 1573.58 Q1239.13 1575.11 1234.8 1575.11 Q1229.33 1575.11 1226.08 1572.05 Q1222.87 1568.97 1222.87 1563.81 Q1222.87 1557.79 1226.88 1554.74 Q1230.92 1551.68 1238.91 1551.68 L1247.12 1551.68 L1247.12 1551.11 Q1247.12 1547.07 1244.45 1544.87 Q1241.8 1542.64 1237 1542.64 Q1233.94 1542.64 1231.05 1543.38 Q1228.15 1544.11 1225.48 1545.57 L1225.48 1540.16 Q1228.69 1538.92 1231.72 1538.31 Q1234.74 1537.68 1237.6 1537.68 Q1245.34 1537.68 1249.16 1541.69 Q1252.98 1545.7 1252.98 1553.85 Z" fill="#000000" fill-rule="evenodd" fill-opacity="1" /><path clip-path="url(#clip840)" d="M1270.83 1528.42 L1270.83 1538.54 L1282.9 1538.54 L1282.9 1543.09 L1270.83 1543.09 L1270.83 1562.44 Q1270.83 1566.8 1272.01 1568.04 Q1273.22 1569.28 1276.88 1569.28 L1282.9 1569.28 L1282.9 1574.19 L1276.88 1574.19 Q1270.1 1574.19 1267.52 1571.67 Q1264.94 1569.12 1264.94 1562.44 L1264.94 1543.09 L1260.65 1543.09 L1260.65 1538.54 L1264.94 1538.54 L1264.94 1528.42 L1270.83 1528.42 Z" fill="#000000" fill-rule="evenodd" fill-opacity="1" /><path clip-path="url(#clip840)" d="M1290.6 1538.54 L1296.45 1538.54 L1296.45 1574.19 L1290.6 1574.19 L1290.6 1538.54 M1290.6 1524.66 L1296.45 1524.66 L1296.45 1532.08 L1290.6 1532.08 L1290.6 1524.66 Z" fill="#000000" fill-rule="evenodd" fill-opacity="1" /><path clip-path="url(#clip840)" d="M1322.52 1542.64 Q1317.81 1542.64 1315.07 1546.34 Q1312.34 1550 1312.34 1556.39 Q1312.34 1562.79 1315.04 1566.48 Q1317.78 1570.14 1322.52 1570.14 Q1327.2 1570.14 1329.94 1566.45 Q1332.68 1562.76 1332.68 1556.39 Q1332.68 1550.06 1329.94 1546.37 Q1327.2 1542.64 1322.52 1542.64 M1322.52 1537.68 Q1330.16 1537.68 1334.52 1542.64 Q1338.88 1547.61 1338.88 1556.39 Q1338.88 1565.15 1334.52 1570.14 Q1330.16 1575.11 1322.52 1575.11 Q1314.85 1575.11 1310.49 1570.14 Q1306.16 1565.15 1306.16 1556.39 Q1306.16 1547.61 1310.49 1542.64 Q1314.85 1537.68 1322.52 1537.68 Z" fill="#000000" fill-rule="evenodd" fill-opacity="1" /><path clip-path="url(#clip840)" d="M1378.22 1552.67 L1378.22 1574.19 L1372.37 1574.19 L1372.37 1552.86 Q1372.37 1547.8 1370.39 1545.29 Q1368.42 1542.77 1364.47 1542.77 Q1359.73 1542.77 1356.99 1545.79 Q1354.25 1548.82 1354.25 1554.04 L1354.25 1574.19 L1348.37 1574.19 L1348.37 1538.54 L1354.25 1538.54 L1354.25 1544.08 Q1356.36 1540.86 1359.19 1539.27 Q1362.05 1537.68 1365.78 1537.68 Q1371.92 1537.68 1375.07 1541.5 Q1378.22 1545.29 1378.22 1552.67 Z" fill="#000000" fill-rule="evenodd" fill-opacity="1" /><path clip-path="url(#clip840)" d="M1412.63 1539.59 L1412.63 1545.13 Q1410.15 1543.85 1407.47 1543.22 Q1404.8 1542.58 1401.93 1542.58 Q1397.57 1542.58 1395.38 1543.92 Q1393.21 1545.25 1393.21 1547.93 Q1393.21 1549.96 1394.77 1551.14 Q1396.33 1552.29 1401.04 1553.34 L1403.05 1553.78 Q1409.29 1555.12 1411.9 1557.57 Q1414.54 1559.99 1414.54 1564.35 Q1414.54 1569.32 1410.59 1572.21 Q1406.68 1575.11 1399.8 1575.11 Q1396.94 1575.11 1393.82 1574.54 Q1390.73 1573.99 1387.29 1572.88 L1387.29 1566.83 Q1390.54 1568.52 1393.69 1569.38 Q1396.84 1570.21 1399.93 1570.21 Q1404.07 1570.21 1406.29 1568.81 Q1408.52 1567.37 1408.52 1564.8 Q1408.52 1562.41 1406.9 1561.14 Q1405.31 1559.86 1399.87 1558.68 L1397.83 1558.21 Q1392.39 1557.06 1389.97 1554.71 Q1387.55 1552.32 1387.55 1548.18 Q1387.55 1543.15 1391.11 1540.42 Q1394.68 1537.68 1401.23 1537.68 Q1404.48 1537.68 1407.34 1538.16 Q1410.21 1538.63 1412.63 1539.59 Z" fill="#000000" fill-rule="evenodd" fill-opacity="1" /><polyline clip-path="url(#clip842)" style="stroke:#000000; stroke-linecap:round; stroke-linejoin:round; stroke-width:2; stroke-opacity:0.1; fill:none" points="
  175.445,1351.4 2352.76,1351.4 
  "/>
<polyline clip-path="url(#clip842)" style="stroke:#000000; stroke-linecap:round; stroke-linejoin:round; stroke-width:2; stroke-opacity:0.1; fill:none" points="
  175.445,1034.24 2352.76,1034.24 
  "/>
<polyline clip-path="url(#clip842)" style="stroke:#000000; stroke-linecap:round; stroke-linejoin:round; stroke-width:2; stroke-opacity:0.1; fill:none" points="
  175.445,717.071 2352.76,717.071 
  "/>
<polyline clip-path="url(#clip842)" style="stroke:#000000; stroke-linecap:round; stroke-linejoin:round; stroke-width:2; stroke-opacity:0.1; fill:none" points="
  175.445,399.905 2352.76,399.905 
  "/>
<polyline clip-path="url(#clip842)" style="stroke:#000000; stroke-linecap:round; stroke-linejoin:round; stroke-width:2; stroke-opacity:0.1; fill:none" points="
  175.445,82.7394 2352.76,82.7394 
  "/>
<polyline clip-path="url(#clip840)" style="stroke:#000000; stroke-linecap:round; stroke-linejoin:round; stroke-width:4; stroke-opacity:1; fill:none" points="
  175.445,1410.9 175.445,47.2441 
  "/>
<polyline clip-path="url(#clip840)" style="stroke:#000000; stroke-linecap:round; stroke-linejoin:round; stroke-width:4; stroke-opacity:1; fill:none" points="
  175.445,1351.4 194.343,1351.4 
  "/>
<polyline clip-path="url(#clip840)" style="stroke:#000000; stroke-linecap:round; stroke-linejoin:round; stroke-width:4; stroke-opacity:1; fill:none" points="
  175.445,1034.24 194.343,1034.24 
  "/>
<polyline clip-path="url(#clip840)" style="stroke:#000000; stroke-linecap:round; stroke-linejoin:round; stroke-width:4; stroke-opacity:1; fill:none" points="
  175.445,717.071 194.343,717.071 
  "/>
<polyline clip-path="url(#clip840)" style="stroke:#000000; stroke-linecap:round; stroke-linejoin:round; stroke-width:4; stroke-opacity:1; fill:none" points="
  175.445,399.905 194.343,399.905 
  "/>
<polyline clip-path="url(#clip840)" style="stroke:#000000; stroke-linecap:round; stroke-linejoin:round; stroke-width:4; stroke-opacity:1; fill:none" points="
  175.445,82.7394 194.343,82.7394 
  "/>
<path clip-path="url(#clip840)" d="M132.316 1350.05 Q135.672 1350.77 137.547 1353.04 Q139.445 1355.3 139.445 1358.64 Q139.445 1363.75 135.927 1366.55 Q132.408 1369.35 125.927 1369.35 Q123.751 1369.35 121.436 1368.91 Q119.144 1368.5 116.691 1367.64 L116.691 1363.13 Q118.635 1364.26 120.95 1364.84 Q123.265 1365.42 125.788 1365.42 Q130.186 1365.42 132.478 1363.68 Q134.792 1361.95 134.792 1358.64 Q134.792 1355.58 132.64 1353.87 Q130.51 1352.13 126.691 1352.13 L122.663 1352.13 L122.663 1348.29 L126.876 1348.29 Q130.325 1348.29 132.154 1346.92 Q133.982 1345.54 133.982 1342.94 Q133.982 1340.28 132.084 1338.87 Q130.209 1337.43 126.691 1337.43 Q124.769 1337.43 122.57 1337.85 Q120.371 1338.27 117.732 1339.15 L117.732 1334.98 Q120.394 1334.24 122.709 1333.87 Q125.047 1333.5 127.107 1333.5 Q132.431 1333.5 135.533 1335.93 Q138.635 1338.34 138.635 1342.46 Q138.635 1345.33 136.992 1347.32 Q135.348 1349.29 132.316 1350.05 Z" fill="#000000" fill-rule="evenodd" fill-opacity="1" /><path clip-path="url(#clip840)" d="M129.862 1021.03 L118.056 1039.48 L129.862 1039.48 L129.862 1021.03 M128.635 1016.96 L134.515 1016.96 L134.515 1039.48 L139.445 1039.48 L139.445 1043.37 L134.515 1043.37 L134.515 1051.52 L129.862 1051.52 L129.862 1043.37 L114.26 1043.37 L114.26 1038.86 L128.635 1016.96 Z" fill="#000000" fill-rule="evenodd" fill-opacity="1" /><path clip-path="url(#clip840)" d="M118.543 699.791 L136.899 699.791 L136.899 703.726 L122.825 703.726 L122.825 712.199 Q123.843 711.851 124.862 711.689 Q125.88 711.504 126.899 711.504 Q132.686 711.504 136.066 714.675 Q139.445 717.847 139.445 723.263 Q139.445 728.842 135.973 731.944 Q132.501 735.023 126.181 735.023 Q124.005 735.023 121.737 734.652 Q119.492 734.282 117.084 733.541 L117.084 728.842 Q119.168 729.976 121.39 730.532 Q123.612 731.087 126.089 731.087 Q130.093 731.087 132.431 728.981 Q134.769 726.874 134.769 723.263 Q134.769 719.652 132.431 717.546 Q130.093 715.439 126.089 715.439 Q124.214 715.439 122.339 715.856 Q120.487 716.273 118.543 717.152 L118.543 699.791 Z" fill="#000000" fill-rule="evenodd" fill-opacity="1" /><path clip-path="url(#clip840)" d="M127.917 398.042 Q124.769 398.042 122.918 400.195 Q121.089 402.347 121.089 406.097 Q121.089 409.824 122.918 412 Q124.769 414.153 127.917 414.153 Q131.066 414.153 132.894 412 Q134.746 409.824 134.746 406.097 Q134.746 402.347 132.894 400.195 Q131.066 398.042 127.917 398.042 M137.2 383.389 L137.2 387.648 Q135.441 386.815 133.635 386.375 Q131.853 385.935 130.093 385.935 Q125.464 385.935 123.01 389.06 Q120.58 392.185 120.232 398.505 Q121.598 396.491 123.658 395.426 Q125.718 394.338 128.195 394.338 Q133.404 394.338 136.413 397.509 Q139.445 400.658 139.445 406.097 Q139.445 411.421 136.297 414.639 Q133.149 417.857 127.917 417.857 Q121.922 417.857 118.751 413.273 Q115.58 408.667 115.58 399.94 Q115.58 391.746 119.468 386.885 Q123.357 382 129.908 382 Q131.667 382 133.45 382.348 Q135.255 382.695 137.2 383.389 Z" fill="#000000" fill-rule="evenodd" fill-opacity="1" /><path clip-path="url(#clip840)" d="M117.223 65.4594 L139.445 65.4594 L139.445 67.4501 L126.899 100.019 L122.015 100.019 L133.82 69.3945 L117.223 69.3945 L117.223 65.4594 Z" fill="#000000" fill-rule="evenodd" fill-opacity="1" /><path clip-path="url(#clip840)" d="M22.818 978.129 L46.4666 986.85 L46.4666 969.376 L22.818 978.129 M16.4842 981.757 L16.4842 974.468 L64.0042 956.358 L64.0042 963.042 L51.8138 967.371 L51.8138 988.791 L64.0042 993.12 L64.0042 999.899 L16.4842 981.757 Z" fill="#000000" fill-rule="evenodd" fill-opacity="1" /><path clip-path="url(#clip840)" d="M28.3562 957.695 L28.3562 951.488 L58.275 940.348 L28.3562 929.208 L28.3562 923.002 L64.0042 936.37 L64.0042 944.327 L28.3562 957.695 Z" fill="#000000" fill-rule="evenodd" fill-opacity="1" /><path clip-path="url(#clip840)" d="M44.7161 884.425 L47.5806 884.425 L47.5806 911.352 Q53.6281 910.97 56.8109 907.724 Q59.9619 904.446 59.9619 898.621 Q59.9619 895.247 59.1344 892.096 Q58.3069 888.913 56.6518 885.794 L62.1899 885.794 Q63.5267 888.945 64.227 892.255 Q64.9272 895.565 64.9272 898.971 Q64.9272 907.501 59.9619 912.498 Q54.9967 917.463 46.5303 917.463 Q37.7774 917.463 32.6531 912.753 Q27.4968 908.01 27.4968 899.99 Q27.4968 892.796 32.1438 888.627 Q36.7589 884.425 44.7161 884.425 M42.9973 890.282 Q38.1912 890.346 35.3266 892.987 Q32.4621 895.597 32.4621 899.926 Q32.4621 904.828 35.2312 907.788 Q38.0002 910.716 43.0292 911.161 L42.9973 890.282 Z" fill="#000000" fill-rule="evenodd" fill-opacity="1" /><path clip-path="url(#clip840)" d="M33.8307 854.157 Q33.2578 855.143 33.0032 856.321 Q32.7167 857.467 32.7167 858.867 Q32.7167 863.832 35.9632 866.506 Q39.1779 869.148 45.2253 869.148 L64.0042 869.148 L64.0042 875.036 L28.3562 875.036 L28.3562 869.148 L33.8944 869.148 Q30.6479 867.302 29.0883 864.342 Q27.4968 861.382 27.4968 857.148 Q27.4968 856.544 27.5923 855.812 Q27.656 855.08 27.8151 854.188 L33.8307 854.157 Z" fill="#000000" fill-rule="evenodd" fill-opacity="1" /><path clip-path="url(#clip840)" d="M46.0847 831.813 Q46.0847 838.911 47.7079 841.648 Q49.3312 844.385 53.2461 844.385 Q56.3653 844.385 58.2114 842.348 Q60.0256 840.279 60.0256 836.746 Q60.0256 831.877 56.5881 828.948 Q53.1188 825.988 47.3897 825.988 L46.0847 825.988 L46.0847 831.813 M43.6657 820.132 L64.0042 820.132 L64.0042 825.988 L58.5933 825.988 Q61.8398 827.993 63.3994 830.985 Q64.9272 833.977 64.9272 838.306 Q64.9272 843.78 61.8716 847.027 Q58.7843 850.242 53.6281 850.242 Q47.6125 850.242 44.5569 846.231 Q41.5014 842.189 41.5014 834.2 L41.5014 825.988 L40.9285 825.988 Q36.8862 825.988 34.6901 828.662 Q32.4621 831.304 32.4621 836.11 Q32.4621 839.165 33.1941 842.062 Q33.9262 844.958 35.3903 847.632 L29.9795 847.632 Q28.7381 844.417 28.1334 841.393 Q27.4968 838.37 27.4968 835.505 Q27.4968 827.771 31.5072 823.951 Q35.5176 820.132 43.6657 820.132 Z" fill="#000000" fill-rule="evenodd" fill-opacity="1" /><path clip-path="url(#clip840)" d="M45.7664 784.611 Q39.4007 784.611 35.8996 787.253 Q32.3984 789.863 32.3984 794.605 Q32.3984 799.316 35.8996 801.958 Q39.4007 804.568 45.7664 804.568 Q52.1003 804.568 55.6014 801.958 Q59.1026 799.316 59.1026 794.605 Q59.1026 789.863 55.6014 787.253 Q52.1003 784.611 45.7664 784.611 M59.58 778.755 Q68.683 778.755 73.1071 782.797 Q77.5631 786.839 77.5631 795.178 Q77.5631 798.266 77.0857 801.003 Q76.6401 803.74 75.6852 806.318 L69.9879 806.318 Q71.3884 803.74 72.0568 801.226 Q72.7252 798.711 72.7252 796.101 Q72.7252 790.34 69.7015 787.476 Q66.7096 784.611 60.6303 784.611 L57.7339 784.611 Q60.885 786.425 62.4446 789.258 Q64.0042 792.091 64.0042 796.038 Q64.0042 802.594 59.0071 806.605 Q54.01 810.615 45.7664 810.615 Q37.491 810.615 32.4939 806.605 Q27.4968 802.594 27.4968 796.038 Q27.4968 792.091 29.0564 789.258 Q30.616 786.425 33.7671 784.611 L28.3562 784.611 L28.3562 778.755 L59.58 778.755 Z" fill="#000000" fill-rule="evenodd" fill-opacity="1" /><path clip-path="url(#clip840)" d="M44.7161 736.2 L47.5806 736.2 L47.5806 763.127 Q53.6281 762.745 56.8109 759.498 Q59.9619 756.22 59.9619 750.395 Q59.9619 747.022 59.1344 743.871 Q58.3069 740.688 56.6518 737.569 L62.1899 737.569 Q63.5267 740.72 64.227 744.03 Q64.9272 747.34 64.9272 750.746 Q64.9272 759.276 59.9619 764.273 Q54.9967 769.238 46.5303 769.238 Q37.7774 769.238 32.6531 764.527 Q27.4968 759.785 27.4968 751.764 Q27.4968 744.571 32.1438 740.401 Q36.7589 736.2 44.7161 736.2 M42.9973 742.056 Q38.1912 742.12 35.3266 744.762 Q32.4621 747.372 32.4621 751.7 Q32.4621 756.602 35.2312 759.562 Q38.0002 762.49 43.0292 762.936 L42.9973 742.056 Z" fill="#000000" fill-rule="evenodd" fill-opacity="1" /><path clip-path="url(#clip840)" d="M64.0042 693.359 L16.4842 711.501 L16.4842 704.785 L56.4926 689.73 L16.4842 674.644 L16.4842 667.96 L64.0042 686.07 L64.0042 693.359 Z" fill="#000000" fill-rule="evenodd" fill-opacity="1" /><path clip-path="url(#clip840)" d="M44.7161 635.845 L47.5806 635.845 L47.5806 662.772 Q53.6281 662.39 56.8109 659.143 Q59.9619 655.865 59.9619 650.04 Q59.9619 646.666 59.1344 643.515 Q58.3069 640.332 56.6518 637.213 L62.1899 637.213 Q63.5267 640.364 64.227 643.674 Q64.9272 646.985 64.9272 650.39 Q64.9272 658.92 59.9619 663.917 Q54.9967 668.883 46.5303 668.883 Q37.7774 668.883 32.6531 664.172 Q27.4968 659.43 27.4968 651.409 Q27.4968 644.215 32.1438 640.046 Q36.7589 635.845 44.7161 635.845 M42.9973 641.701 Q38.1912 641.765 35.3266 644.406 Q32.4621 647.016 32.4621 651.345 Q32.4621 656.247 35.2312 659.207 Q38.0002 662.135 43.0292 662.581 L42.9973 641.701 Z" fill="#000000" fill-rule="evenodd" fill-opacity="1" /><path clip-path="url(#clip840)" d="M14.479 626.232 L14.479 620.376 L64.0042 620.376 L64.0042 626.232 L14.479 626.232 Z" fill="#000000" fill-rule="evenodd" fill-opacity="1" /><path clip-path="url(#clip840)" d="M32.4621 594.308 Q32.4621 599.019 36.1542 601.756 Q39.8145 604.493 46.212 604.493 Q52.6095 604.493 56.3017 601.788 Q59.9619 599.051 59.9619 594.308 Q59.9619 589.63 56.2698 586.892 Q52.5777 584.155 46.212 584.155 Q39.8781 584.155 36.186 586.892 Q32.4621 589.63 32.4621 594.308 M27.4968 594.308 Q27.4968 586.67 32.4621 582.309 Q37.4273 577.948 46.212 577.948 Q54.9649 577.948 59.9619 582.309 Q64.9272 586.67 64.9272 594.308 Q64.9272 601.979 59.9619 606.34 Q54.9649 610.668 46.212 610.668 Q37.4273 610.668 32.4621 606.34 Q27.4968 601.979 27.4968 594.308 Z" fill="#000000" fill-rule="evenodd" fill-opacity="1" /><path clip-path="url(#clip840)" d="M29.7248 542.587 L35.1993 542.587 Q33.8307 545.07 33.1623 547.584 Q32.4621 550.067 32.4621 552.613 Q32.4621 558.31 36.0905 561.461 Q39.6872 564.612 46.212 564.612 Q52.7369 564.612 56.3653 561.461 Q59.9619 558.31 59.9619 552.613 Q59.9619 550.067 59.2935 547.584 Q58.5933 545.07 57.2247 542.587 L62.6355 542.587 Q63.7814 545.038 64.3543 547.68 Q64.9272 550.289 64.9272 553.25 Q64.9272 561.302 59.8664 566.045 Q54.8057 570.787 46.212 570.787 Q37.491 570.787 32.4939 566.013 Q27.4968 561.207 27.4968 552.868 Q27.4968 550.162 28.0697 547.584 Q28.6108 545.006 29.7248 542.587 Z" fill="#000000" fill-rule="evenodd" fill-opacity="1" /><path clip-path="url(#clip840)" d="M28.3562 532.402 L28.3562 526.545 L64.0042 526.545 L64.0042 532.402 L28.3562 532.402 M14.479 532.402 L14.479 526.545 L21.895 526.545 L21.895 532.402 L14.479 532.402 Z" fill="#000000" fill-rule="evenodd" fill-opacity="1" /><path clip-path="url(#clip840)" d="M18.2347 508.499 L28.3562 508.499 L28.3562 496.436 L32.9077 496.436 L32.9077 508.499 L52.2594 508.499 Q56.6199 508.499 57.8613 507.321 Q59.1026 506.111 59.1026 502.451 L59.1026 496.436 L64.0042 496.436 L64.0042 502.451 Q64.0042 509.231 61.4897 511.809 Q58.9434 514.387 52.2594 514.387 L32.9077 514.387 L32.9077 518.684 L28.3562 518.684 L28.3562 514.387 L18.2347 514.387 L18.2347 508.499 Z" fill="#000000" fill-rule="evenodd" fill-opacity="1" /><path clip-path="url(#clip840)" d="M67.3143 473.901 Q73.68 476.384 75.6216 478.739 Q77.5631 481.094 77.5631 485.041 L77.5631 489.72 L72.6615 489.72 L72.6615 486.282 Q72.6615 483.863 71.5157 482.527 Q70.3699 481.19 66.1048 479.566 L63.4312 478.516 L28.3562 492.934 L28.3562 486.728 L56.238 475.588 L28.3562 464.448 L28.3562 458.241 L67.3143 473.901 Z" fill="#000000" fill-rule="evenodd" fill-opacity="1" /><polyline clip-path="url(#clip842)" style="stroke:#009af9; stroke-linecap:round; stroke-linejoin:round; stroke-width:4; stroke-opacity:1; fill:none" points="
  237.067,1372.3 289.736,1207.31 342.404,1065.68 395.072,988.209 447.741,869.244 500.409,764.234 553.077,692.366 605.746,658.498 658.414,624.643 711.083,519.187 
  763.751,486.881 816.419,436.223 869.088,398.921 921.756,380.918 974.424,397.606 1027.09,347.056 1079.76,368.194 1132.43,339.868 1185.1,271.288 1237.77,258.647 
  1290.43,258.893 1343.1,251.856 1395.77,311.159 1448.44,225.218 1501.11,202.021 1553.78,178.451 1606.45,162.826 1659.11,176.069 1711.78,188.463 1764.45,138.109 
  1817.12,142.529 1869.79,148.491 1922.46,130.008 1975.12,117.462 2027.79,115.592 2080.46,126.289 2133.13,96.0393 2185.8,133.964 2238.47,108.544 2291.13,85.838 
  
  "/>
</svg>
