<?xml version="1.0" encoding="utf-8"?>
<svg xmlns="http://www.w3.org/2000/svg" xmlns:xlink="http://www.w3.org/1999/xlink" width="600" height="400" viewBox="0 0 2400 1600">
<defs>
  <clipPath id="clip000">
    <rect x="0" y="0" width="2400" height="1600"/>
  </clipPath>
</defs>
<path clip-path="url(#clip000)" d="
M0 1600 L2400 1600 L2400 0 L0 0  Z
  " fill="#ffffff" fill-rule="evenodd" fill-opacity="1"/>
<defs>
  <clipPath id="clip001">
    <rect x="480" y="0" width="1681" height="1600"/>
  </clipPath>
</defs>
<path clip-path="url(#clip000)" d="
M175.445 1410.9 L2352.76 1410.9 L2352.76 47.2441 L175.445 47.2441  Z
  " fill="#ffffff" fill-rule="evenodd" fill-opacity="1"/>
<defs>
  <clipPath id="clip002">
    <rect x="175" y="47" width="2178" height="1365"/>
  </clipPath>
</defs>
<polyline clip-path="url(#clip002)" style="stroke:#000000; stroke-linecap:round; stroke-linejoin:round; stroke-width:2; stroke-opacity:0.1; fill:none" points="
  184.399,1410.9 184.399,47.2441 
  "/>
<polyline clip-path="url(#clip002)" style="stroke:#000000; stroke-linecap:round; stroke-linejoin:round; stroke-width:2; stroke-opacity:0.1; fill:none" points="
  711.083,1410.9 711.083,47.2441 
  "/>
<polyline clip-path="url(#clip002)" style="stroke:#000000; stroke-linecap:round; stroke-linejoin:round; stroke-width:2; stroke-opacity:0.1; fill:none" points="
  1237.77,1410.9 1237.77,47.2441 
  "/>
<polyline clip-path="url(#clip002)" style="stroke:#000000; stroke-linecap:round; stroke-linejoin:round; stroke-width:2; stroke-opacity:0.1; fill:none" points="
  1764.45,1410.9 1764.45,47.2441 
  "/>
<polyline clip-path="url(#clip002)" style="stroke:#000000; stroke-linecap:round; stroke-linejoin:round; stroke-width:2; stroke-opacity:0.1; fill:none" points="
  2291.13,1410.9 2291.13,47.2441 
  "/>
<polyline clip-path="url(#clip000)" style="stroke:#000000; stroke-linecap:round; stroke-linejoin:round; stroke-width:4; stroke-opacity:1; fill:none" points="
  175.445,1410.9 2352.76,1410.9 
  "/>
<polyline clip-path="url(#clip000)" style="stroke:#000000; stroke-linecap:round; stroke-linejoin:round; stroke-width:4; stroke-opacity:1; fill:none" points="
  184.399,1410.9 184.399,1392 
  "/>
<polyline clip-path="url(#clip000)" style="stroke:#000000; stroke-linecap:round; stroke-linejoin:round; stroke-width:4; stroke-opacity:1; fill:none" points="
  711.083,1410.9 711.083,1392 
  "/>
<polyline clip-path="url(#clip000)" style="stroke:#000000; stroke-linecap:round; stroke-linejoin:round; stroke-width:4; stroke-opacity:1; fill:none" points="
  1237.77,1410.9 1237.77,1392 
  "/>
<polyline clip-path="url(#clip000)" style="stroke:#000000; stroke-linecap:round; stroke-linejoin:round; stroke-width:4; stroke-opacity:1; fill:none" points="
  1764.45,1410.9 1764.45,1392 
  "/>
<polyline clip-path="url(#clip000)" style="stroke:#000000; stroke-linecap:round; stroke-linejoin:round; stroke-width:4; stroke-opacity:1; fill:none" points="
  2291.13,1410.9 2291.13,1392 
  "/>
<path clip-path="url(#clip000)" d="M184.399 1441.82 Q180.788 1441.82 178.959 1445.38 Q177.154 1448.92 177.154 1456.05 Q177.154 1463.16 178.959 1466.72 Q180.788 1470.26 184.399 1470.26 Q188.033 1470.26 189.839 1466.72 Q191.667 1463.16 191.667 1456.05 Q191.667 1448.92 189.839 1445.38 Q188.033 1441.82 184.399 1441.82 M184.399 1438.11 Q190.209 1438.11 193.265 1442.72 Q196.343 1447.3 196.343 1456.05 Q196.343 1464.78 193.265 1469.38 Q190.209 1473.97 184.399 1473.97 Q178.589 1473.97 175.51 1469.38 Q172.454 1464.78 172.454 1456.05 Q172.454 1447.3 175.51 1442.72 Q178.589 1438.11 184.399 1438.11 Z" fill="#000000" fill-rule="evenodd" fill-opacity="1" /><path clip-path="url(#clip000)" d="M618.517 1485.02 L626.156 1485.02 L626.156 1458.66 L617.846 1460.32 L617.846 1456.06 L626.11 1454.4 L630.786 1454.4 L630.786 1485.02 L638.425 1485.02 L638.425 1488.96 L618.517 1488.96 L618.517 1485.02 Z" fill="#000000" fill-rule="evenodd" fill-opacity="1" /><path clip-path="url(#clip000)" d="M647.869 1483.08 L652.753 1483.08 L652.753 1488.96 L647.869 1488.96 L647.869 1483.08 Z" fill="#000000" fill-rule="evenodd" fill-opacity="1" /><path clip-path="url(#clip000)" d="M672.938 1457.48 Q669.327 1457.48 667.498 1461.04 Q665.693 1464.58 665.693 1471.71 Q665.693 1478.82 667.498 1482.38 Q669.327 1485.92 672.938 1485.92 Q676.573 1485.92 678.378 1482.38 Q680.207 1478.82 680.207 1471.71 Q680.207 1464.58 678.378 1461.04 Q676.573 1457.48 672.938 1457.48 M672.938 1453.77 Q678.748 1453.77 681.804 1458.38 Q684.883 1462.96 684.883 1471.71 Q684.883 1480.44 681.804 1485.04 Q678.748 1489.63 672.938 1489.63 Q667.128 1489.63 664.049 1485.04 Q660.994 1480.44 660.994 1471.71 Q660.994 1462.96 664.049 1458.38 Q667.128 1453.77 672.938 1453.77 Z" fill="#000000" fill-rule="evenodd" fill-opacity="1" /><path clip-path="url(#clip000)" d="M721.271 1463.49 L710.693 1474.12 L721.271 1484.7 L718.517 1487.5 L707.892 1476.87 L697.267 1487.5 L694.535 1484.7 L705.091 1474.12 L694.535 1463.49 L697.267 1460.69 L707.892 1471.32 L718.517 1460.69 L721.271 1463.49 Z" fill="#000000" fill-rule="evenodd" fill-opacity="1" /><path clip-path="url(#clip000)" d="M733.632 1485.02 L741.271 1485.02 L741.271 1458.66 L732.961 1460.32 L732.961 1456.06 L741.225 1454.4 L745.901 1454.4 L745.901 1485.02 L753.54 1485.02 L753.54 1488.96 L733.632 1488.96 L733.632 1485.02 Z" fill="#000000" fill-rule="evenodd" fill-opacity="1" /><path clip-path="url(#clip000)" d="M772.984 1457.48 Q769.373 1457.48 767.544 1461.04 Q765.739 1464.58 765.739 1471.71 Q765.739 1478.82 767.544 1482.38 Q769.373 1485.92 772.984 1485.92 Q776.618 1485.92 778.424 1482.38 Q780.253 1478.82 780.253 1471.71 Q780.253 1464.58 778.424 1461.04 Q776.618 1457.48 772.984 1457.48 M772.984 1453.77 Q778.794 1453.77 781.85 1458.38 Q784.928 1462.96 784.928 1471.71 Q784.928 1480.44 781.85 1485.04 Q778.794 1489.63 772.984 1489.63 Q767.174 1489.63 764.095 1485.04 Q761.04 1480.44 761.04 1471.71 Q761.04 1462.96 764.095 1458.38 Q767.174 1453.77 772.984 1453.77 Z" fill="#000000" fill-rule="evenodd" fill-opacity="1" /><path clip-path="url(#clip000)" d="M794.953 1445.99 Q792.395 1445.99 790.89 1447.74 Q789.405 1449.49 789.405 1452.54 Q789.405 1455.57 790.89 1457.33 Q792.395 1459.08 794.953 1459.08 Q797.511 1459.08 798.997 1457.33 Q800.501 1455.57 800.501 1452.54 Q800.501 1449.49 798.997 1447.74 Q797.511 1445.99 794.953 1445.99 M802.495 1434.09 L802.495 1437.55 Q801.065 1436.87 799.598 1436.51 Q798.15 1436.16 796.721 1436.16 Q792.959 1436.16 790.966 1438.69 Q788.991 1441.23 788.709 1446.37 Q789.818 1444.73 791.492 1443.87 Q793.166 1442.98 795.179 1442.98 Q799.41 1442.98 801.855 1445.56 Q804.319 1448.12 804.319 1452.54 Q804.319 1456.86 801.761 1459.48 Q799.204 1462.09 794.953 1462.09 Q790.082 1462.09 787.505 1458.37 Q784.928 1454.62 784.928 1447.53 Q784.928 1440.88 788.088 1436.93 Q791.248 1432.96 796.57 1432.96 Q798 1432.96 799.448 1433.24 Q800.915 1433.52 802.495 1434.09 Z" fill="#000000" fill-rule="evenodd" fill-opacity="1" /><path clip-path="url(#clip000)" d="M1149.29 1485.02 L1165.61 1485.02 L1165.61 1488.96 L1143.66 1488.96 L1143.66 1485.02 Q1146.32 1482.27 1150.91 1477.64 Q1155.51 1472.98 1156.69 1471.64 Q1158.94 1469.12 1159.82 1467.38 Q1160.72 1465.62 1160.72 1463.93 Q1160.72 1461.18 1158.78 1459.44 Q1156.86 1457.71 1153.75 1457.71 Q1151.56 1457.71 1149.1 1458.47 Q1146.67 1459.23 1143.89 1460.79 L1143.89 1456.06 Q1146.72 1454.93 1149.17 1454.35 Q1151.62 1453.77 1153.66 1453.77 Q1159.03 1453.77 1162.23 1456.46 Q1165.42 1459.14 1165.42 1463.63 Q1165.42 1465.76 1164.61 1467.68 Q1163.82 1469.58 1161.72 1472.17 Q1161.14 1472.85 1158.04 1476.06 Q1154.93 1479.26 1149.29 1485.02 Z" fill="#000000" fill-rule="evenodd" fill-opacity="1" /><path clip-path="url(#clip000)" d="M1175.42 1483.08 L1180.31 1483.08 L1180.31 1488.96 L1175.42 1488.96 L1175.42 1483.08 Z" fill="#000000" fill-rule="evenodd" fill-opacity="1" /><path clip-path="url(#clip000)" d="M1200.49 1457.48 Q1196.88 1457.48 1195.05 1461.04 Q1193.24 1464.58 1193.24 1471.71 Q1193.24 1478.82 1195.05 1482.38 Q1196.88 1485.92 1200.49 1485.92 Q1204.12 1485.92 1205.93 1482.38 Q1207.76 1478.82 1207.76 1471.71 Q1207.76 1464.58 1205.93 1461.04 Q1204.12 1457.48 1200.49 1457.48 M1200.49 1453.77 Q1206.3 1453.77 1209.36 1458.38 Q1212.43 1462.96 1212.43 1471.71 Q1212.43 1480.44 1209.36 1485.04 Q1206.3 1489.63 1200.49 1489.63 Q1194.68 1489.63 1191.6 1485.04 Q1188.55 1480.44 1188.55 1471.71 Q1188.55 1462.96 1191.6 1458.38 Q1194.68 1453.77 1200.49 1453.77 Z" fill="#000000" fill-rule="evenodd" fill-opacity="1" /><path clip-path="url(#clip000)" d="M1248.82 1463.49 L1238.24 1474.12 L1248.82 1484.7 L1246.07 1487.5 L1235.44 1476.87 L1224.82 1487.5 L1222.09 1484.7 L1232.64 1474.12 L1222.09 1463.49 L1224.82 1460.69 L1235.44 1471.32 L1246.07 1460.69 L1248.82 1463.49 Z" fill="#000000" fill-rule="evenodd" fill-opacity="1" /><path clip-path="url(#clip000)" d="M1261.18 1485.02 L1268.82 1485.02 L1268.82 1458.66 L1260.51 1460.32 L1260.51 1456.06 L1268.78 1454.4 L1273.45 1454.4 L1273.45 1485.02 L1281.09 1485.02 L1281.09 1488.96 L1261.18 1488.96 L1261.18 1485.02 Z" fill="#000000" fill-rule="evenodd" fill-opacity="1" /><path clip-path="url(#clip000)" d="M1300.54 1457.48 Q1296.92 1457.48 1295.1 1461.04 Q1293.29 1464.58 1293.29 1471.71 Q1293.29 1478.82 1295.1 1482.38 Q1296.92 1485.92 1300.54 1485.92 Q1304.17 1485.92 1305.98 1482.38 Q1307.8 1478.82 1307.8 1471.71 Q1307.8 1464.58 1305.98 1461.04 Q1304.17 1457.48 1300.54 1457.48 M1300.54 1453.77 Q1306.35 1453.77 1309.4 1458.38 Q1312.48 1462.96 1312.48 1471.71 Q1312.48 1480.44 1309.4 1485.04 Q1306.35 1489.63 1300.54 1489.63 Q1294.73 1489.63 1291.65 1485.04 Q1288.59 1480.44 1288.59 1471.71 Q1288.59 1462.96 1291.65 1458.38 Q1294.73 1453.77 1300.54 1453.77 Z" fill="#000000" fill-rule="evenodd" fill-opacity="1" /><path clip-path="url(#clip000)" d="M1322.5 1445.99 Q1319.95 1445.99 1318.44 1447.74 Q1316.96 1449.49 1316.96 1452.54 Q1316.96 1455.57 1318.44 1457.33 Q1319.95 1459.08 1322.5 1459.08 Q1325.06 1459.08 1326.55 1457.33 Q1328.05 1455.57 1328.05 1452.54 Q1328.05 1449.49 1326.55 1447.74 Q1325.06 1445.99 1322.5 1445.99 M1330.05 1434.09 L1330.05 1437.55 Q1328.62 1436.87 1327.15 1436.51 Q1325.7 1436.16 1324.27 1436.16 Q1320.51 1436.16 1318.52 1438.69 Q1316.54 1441.23 1316.26 1446.37 Q1317.37 1444.73 1319.04 1443.87 Q1320.72 1442.98 1322.73 1442.98 Q1326.96 1442.98 1329.41 1445.56 Q1331.87 1448.12 1331.87 1452.54 Q1331.87 1456.86 1329.31 1459.48 Q1326.76 1462.09 1322.5 1462.09 Q1317.63 1462.09 1315.06 1458.37 Q1312.48 1454.62 1312.48 1447.53 Q1312.48 1440.88 1315.64 1436.93 Q1318.8 1432.96 1324.12 1432.96 Q1325.55 1432.96 1327 1433.24 Q1328.47 1433.52 1330.05 1434.09 Z" fill="#000000" fill-rule="evenodd" fill-opacity="1" /><path clip-path="url(#clip000)" d="M1686.04 1470.32 Q1689.4 1471.04 1691.27 1473.31 Q1693.17 1475.58 1693.17 1478.91 Q1693.17 1484.03 1689.65 1486.83 Q1686.13 1489.63 1679.65 1489.63 Q1677.48 1489.63 1675.16 1489.19 Q1672.87 1488.77 1670.41 1487.91 L1670.41 1483.4 Q1672.36 1484.54 1674.67 1485.11 Q1676.99 1485.69 1679.51 1485.69 Q1683.91 1485.69 1686.2 1483.96 Q1688.52 1482.22 1688.52 1478.91 Q1688.52 1475.85 1686.36 1474.14 Q1684.23 1472.41 1680.41 1472.41 L1676.39 1472.41 L1676.39 1468.56 L1680.6 1468.56 Q1684.05 1468.56 1685.88 1467.2 Q1687.71 1465.81 1687.71 1463.22 Q1687.71 1460.55 1685.81 1459.14 Q1683.93 1457.71 1680.41 1457.71 Q1678.49 1457.71 1676.29 1458.12 Q1674.1 1458.54 1671.46 1459.42 L1671.46 1455.25 Q1674.12 1454.51 1676.43 1454.14 Q1678.77 1453.77 1680.83 1453.77 Q1686.16 1453.77 1689.26 1456.2 Q1692.36 1458.61 1692.36 1462.73 Q1692.36 1465.6 1690.72 1467.59 Q1689.07 1469.56 1686.04 1470.32 Z" fill="#000000" fill-rule="evenodd" fill-opacity="1" /><path clip-path="url(#clip000)" d="M1702.04 1483.08 L1706.92 1483.08 L1706.92 1488.96 L1702.04 1488.96 L1702.04 1483.08 Z" fill="#000000" fill-rule="evenodd" fill-opacity="1" /><path clip-path="url(#clip000)" d="M1727.1 1457.48 Q1723.49 1457.48 1721.66 1461.04 Q1719.86 1464.58 1719.86 1471.71 Q1719.86 1478.82 1721.66 1482.38 Q1723.49 1485.92 1727.1 1485.92 Q1730.74 1485.92 1732.54 1482.38 Q1734.37 1478.82 1734.37 1471.71 Q1734.37 1464.58 1732.54 1461.04 Q1730.74 1457.48 1727.1 1457.48 M1727.1 1453.77 Q1732.91 1453.77 1735.97 1458.38 Q1739.05 1462.96 1739.05 1471.71 Q1739.05 1480.44 1735.97 1485.04 Q1732.91 1489.63 1727.1 1489.63 Q1721.29 1489.63 1718.22 1485.04 Q1715.16 1480.44 1715.16 1471.71 Q1715.16 1462.96 1718.22 1458.38 Q1721.29 1453.77 1727.1 1453.77 Z" fill="#000000" fill-rule="evenodd" fill-opacity="1" /><path clip-path="url(#clip000)" d="M1775.44 1463.49 L1764.86 1474.12 L1775.44 1484.7 L1772.68 1487.5 L1762.06 1476.87 L1751.43 1487.5 L1748.7 1484.7 L1759.26 1474.12 L1748.7 1463.49 L1751.43 1460.69 L1762.06 1471.32 L1772.68 1460.69 L1775.44 1463.49 Z" fill="#000000" fill-rule="evenodd" fill-opacity="1" /><path clip-path="url(#clip000)" d="M1787.8 1485.02 L1795.44 1485.02 L1795.44 1458.66 L1787.13 1460.32 L1787.13 1456.06 L1795.39 1454.4 L1800.07 1454.4 L1800.07 1485.02 L1807.71 1485.02 L1807.71 1488.96 L1787.8 1488.96 L1787.8 1485.02 Z" fill="#000000" fill-rule="evenodd" fill-opacity="1" /><path clip-path="url(#clip000)" d="M1827.15 1457.48 Q1823.54 1457.48 1821.71 1461.04 Q1819.9 1464.58 1819.9 1471.71 Q1819.9 1478.82 1821.71 1482.38 Q1823.54 1485.92 1827.15 1485.92 Q1830.78 1485.92 1832.59 1482.38 Q1834.42 1478.82 1834.42 1471.71 Q1834.42 1464.58 1832.59 1461.04 Q1830.78 1457.48 1827.15 1457.48 M1827.15 1453.77 Q1832.96 1453.77 1836.02 1458.38 Q1839.09 1462.96 1839.09 1471.71 Q1839.09 1480.44 1836.02 1485.04 Q1832.96 1489.63 1827.15 1489.63 Q1821.34 1489.63 1818.26 1485.04 Q1815.21 1480.44 1815.21 1471.71 Q1815.21 1462.96 1818.26 1458.38 Q1821.34 1453.77 1827.15 1453.77 Z" fill="#000000" fill-rule="evenodd" fill-opacity="1" /><path clip-path="url(#clip000)" d="M1849.12 1445.99 Q1846.56 1445.99 1845.06 1447.74 Q1843.57 1449.49 1843.57 1452.54 Q1843.57 1455.57 1845.06 1457.33 Q1846.56 1459.08 1849.12 1459.08 Q1851.68 1459.08 1853.16 1457.33 Q1854.67 1455.57 1854.67 1452.54 Q1854.67 1449.49 1853.16 1447.74 Q1851.68 1445.99 1849.12 1445.99 M1856.66 1434.09 L1856.66 1437.55 Q1855.23 1436.87 1853.76 1436.51 Q1852.32 1436.16 1850.89 1436.16 Q1847.13 1436.16 1845.13 1438.69 Q1843.16 1441.23 1842.87 1446.37 Q1843.98 1444.73 1845.66 1443.87 Q1847.33 1442.98 1849.34 1442.98 Q1853.58 1442.98 1856.02 1445.56 Q1858.49 1448.12 1858.49 1452.54 Q1858.49 1456.86 1855.93 1459.48 Q1853.37 1462.09 1849.12 1462.09 Q1844.25 1462.09 1841.67 1458.37 Q1839.09 1454.62 1839.09 1447.53 Q1839.09 1440.88 1842.25 1436.93 Q1845.41 1432.96 1850.74 1432.96 Q1852.17 1432.96 1853.61 1433.24 Q1855.08 1433.52 1856.66 1434.09 Z" fill="#000000" fill-rule="evenodd" fill-opacity="1" /><path clip-path="url(#clip000)" d="M2212.05 1458.47 L2200.25 1476.92 L2212.05 1476.92 L2212.05 1458.47 M2210.83 1454.4 L2216.71 1454.4 L2216.71 1476.92 L2221.64 1476.92 L2221.64 1480.81 L2216.71 1480.81 L2216.71 1488.96 L2212.05 1488.96 L2212.05 1480.81 L2196.45 1480.81 L2196.45 1476.29 L2210.83 1454.4 Z" fill="#000000" fill-rule="evenodd" fill-opacity="1" /><path clip-path="url(#clip000)" d="M2229.37 1483.08 L2234.25 1483.08 L2234.25 1488.96 L2229.37 1488.96 L2229.37 1483.08 Z" fill="#000000" fill-rule="evenodd" fill-opacity="1" /><path clip-path="url(#clip000)" d="M2254.44 1457.48 Q2250.83 1457.48 2249 1461.04 Q2247.19 1464.58 2247.19 1471.71 Q2247.19 1478.82 2249 1482.38 Q2250.83 1485.92 2254.44 1485.92 Q2258.07 1485.92 2259.88 1482.38 Q2261.7 1478.82 2261.7 1471.71 Q2261.7 1464.58 2259.88 1461.04 Q2258.07 1457.48 2254.44 1457.48 M2254.44 1453.77 Q2260.25 1453.77 2263.3 1458.38 Q2266.38 1462.96 2266.38 1471.71 Q2266.38 1480.44 2263.3 1485.04 Q2260.25 1489.63 2254.44 1489.63 Q2248.63 1489.63 2245.55 1485.04 Q2242.49 1480.44 2242.49 1471.71 Q2242.49 1462.96 2245.55 1458.38 Q2248.63 1453.77 2254.44 1453.77 Z" fill="#000000" fill-rule="evenodd" fill-opacity="1" /><path clip-path="url(#clip000)" d="M2302.77 1463.49 L2292.19 1474.12 L2302.77 1484.7 L2300.01 1487.5 L2289.39 1476.87 L2278.76 1487.5 L2276.03 1484.7 L2286.59 1474.12 L2276.03 1463.49 L2278.76 1460.69 L2289.39 1471.32 L2300.01 1460.69 L2302.77 1463.49 Z" fill="#000000" fill-rule="evenodd" fill-opacity="1" /><path clip-path="url(#clip000)" d="M2315.13 1485.02 L2322.77 1485.02 L2322.77 1458.66 L2314.46 1460.32 L2314.46 1456.06 L2322.72 1454.4 L2327.4 1454.4 L2327.4 1485.02 L2335.04 1485.02 L2335.04 1488.96 L2315.13 1488.96 L2315.13 1485.02 Z" fill="#000000" fill-rule="evenodd" fill-opacity="1" /><path clip-path="url(#clip000)" d="M2354.48 1457.48 Q2350.87 1457.48 2349.04 1461.04 Q2347.24 1464.58 2347.24 1471.71 Q2347.24 1478.82 2349.04 1482.38 Q2350.87 1485.92 2354.48 1485.92 Q2358.12 1485.92 2359.92 1482.38 Q2361.75 1478.82 2361.75 1471.71 Q2361.75 1464.58 2359.92 1461.04 Q2358.12 1457.48 2354.48 1457.48 M2354.48 1453.77 Q2360.29 1453.77 2363.35 1458.38 Q2366.43 1462.96 2366.43 1471.71 Q2366.43 1480.44 2363.35 1485.04 Q2360.29 1489.63 2354.48 1489.63 Q2348.67 1489.63 2345.59 1485.04 Q2342.54 1480.44 2342.54 1471.71 Q2342.54 1462.96 2345.59 1458.38 Q2348.67 1453.77 2354.48 1453.77 Z" fill="#000000" fill-rule="evenodd" fill-opacity="1" /><path clip-path="url(#clip000)" d="M2376.45 1445.99 Q2373.89 1445.99 2372.39 1447.74 Q2370.9 1449.49 2370.9 1452.54 Q2370.9 1455.57 2372.39 1457.33 Q2373.89 1459.08 2376.45 1459.08 Q2379.01 1459.08 2380.49 1457.33 Q2382 1455.57 2382 1452.54 Q2382 1449.49 2380.49 1447.74 Q2379.01 1445.99 2376.45 1445.99 M2383.99 1434.09 L2383.99 1437.55 Q2382.56 1436.87 2381.1 1436.51 Q2379.65 1436.16 2378.22 1436.16 Q2374.46 1436.16 2372.46 1438.69 Q2370.49 1441.23 2370.21 1446.37 Q2371.32 1444.73 2372.99 1443.87 Q2374.66 1442.98 2376.68 1442.98 Q2380.91 1442.98 2383.35 1445.56 Q2385.82 1448.12 2385.82 1452.54 Q2385.82 1456.86 2383.26 1459.48 Q2380.7 1462.09 2376.45 1462.09 Q2371.58 1462.09 2369 1458.37 Q2366.43 1454.62 2366.43 1447.53 Q2366.43 1440.88 2369.59 1436.93 Q2372.75 1432.96 2378.07 1432.96 Q2379.5 1432.96 2380.95 1433.24 Q2382.41 1433.52 2383.99 1434.09 Z" fill="#000000" fill-rule="evenodd" fill-opacity="1" /><path clip-path="url(#clip000)" d="M1113.66 1526.67 L1120.09 1526.67 L1120.09 1574.19 L1113.66 1574.19 L1113.66 1526.67 Z" fill="#000000" fill-rule="evenodd" fill-opacity="1" /><path clip-path="url(#clip000)" d="M1138.43 1528.42 L1138.43 1538.54 L1150.49 1538.54 L1150.49 1543.09 L1138.43 1543.09 L1138.43 1562.44 Q1138.43 1566.8 1139.6 1568.04 Q1140.81 1569.28 1144.47 1569.28 L1150.49 1569.28 L1150.49 1574.19 L1144.47 1574.19 Q1137.69 1574.19 1135.12 1571.67 Q1132.54 1569.12 1132.54 1562.44 L1132.54 1543.09 L1128.24 1543.09 L1128.24 1538.54 L1132.54 1538.54 L1132.54 1528.42 L1138.43 1528.42 Z" fill="#000000" fill-rule="evenodd" fill-opacity="1" /><path clip-path="url(#clip000)" d="M1188.68 1554.9 L1188.68 1557.76 L1161.76 1557.76 Q1162.14 1563.81 1165.38 1566.99 Q1168.66 1570.14 1174.49 1570.14 Q1177.86 1570.14 1181.01 1569.32 Q1184.2 1568.49 1187.31 1566.83 L1187.31 1572.37 Q1184.16 1573.71 1180.85 1574.41 Q1177.54 1575.11 1174.14 1575.11 Q1165.61 1575.11 1160.61 1570.14 Q1155.64 1565.18 1155.64 1556.71 Q1155.64 1547.96 1160.36 1542.83 Q1165.1 1537.68 1173.12 1537.68 Q1180.31 1537.68 1184.48 1542.33 Q1188.68 1546.94 1188.68 1554.9 M1182.83 1553.18 Q1182.76 1548.37 1180.12 1545.51 Q1177.51 1542.64 1173.18 1542.64 Q1168.28 1542.64 1165.32 1545.41 Q1162.39 1548.18 1161.95 1553.21 L1182.83 1553.18 Z" fill="#000000" fill-rule="evenodd" fill-opacity="1" /><path clip-path="url(#clip000)" d="M1218.95 1544.01 Q1217.97 1543.44 1216.79 1543.18 Q1215.64 1542.9 1214.24 1542.9 Q1209.28 1542.9 1206.6 1546.14 Q1203.96 1549.36 1203.96 1555.41 L1203.96 1574.19 L1198.07 1574.19 L1198.07 1538.54 L1203.96 1538.54 L1203.96 1544.08 Q1205.81 1540.83 1208.77 1539.27 Q1211.73 1537.68 1215.96 1537.68 Q1216.56 1537.68 1217.3 1537.77 Q1218.03 1537.84 1218.92 1538 L1218.95 1544.01 Z" fill="#000000" fill-rule="evenodd" fill-opacity="1" /><path clip-path="url(#clip000)" d="M1241.3 1556.27 Q1234.2 1556.27 1231.46 1557.89 Q1228.72 1559.51 1228.72 1563.43 Q1228.72 1566.55 1230.76 1568.39 Q1232.83 1570.21 1236.36 1570.21 Q1241.23 1570.21 1244.16 1566.77 Q1247.12 1563.3 1247.12 1557.57 L1247.12 1556.27 L1241.3 1556.27 M1252.98 1553.85 L1252.98 1574.19 L1247.12 1574.19 L1247.12 1568.77 Q1245.11 1572.02 1242.12 1573.58 Q1239.13 1575.11 1234.8 1575.11 Q1229.33 1575.11 1226.08 1572.05 Q1222.87 1568.97 1222.87 1563.81 Q1222.87 1557.79 1226.88 1554.74 Q1230.92 1551.68 1238.91 1551.68 L1247.12 1551.68 L1247.12 1551.11 Q1247.12 1547.07 1244.45 1544.87 Q1241.8 1542.64 1237 1542.64 Q1233.94 1542.64 1231.05 1543.38 Q1228.15 1544.11 1225.48 1545.57 L1225.48 1540.16 Q1228.69 1538.92 1231.72 1538.31 Q1234.74 1537.68 1237.6 1537.68 Q1245.34 1537.68 1249.16 1541.69 Q1252.98 1545.7 1252.98 1553.85 Z" fill="#000000" fill-rule="evenodd" fill-opacity="1" /><path clip-path="url(#clip000)" d="M1270.83 1528.42 L1270.83 1538.54 L1282.9 1538.54 L1282.9 1543.09 L1270.83 1543.09 L1270.83 1562.44 Q1270.83 1566.8 1272.01 1568.04 Q1273.22 1569.28 1276.88 1569.28 L1282.9 1569.28 L1282.9 1574.19 L1276.88 1574.19 Q1270.1 1574.19 1267.52 1571.67 Q1264.94 1569.12 1264.94 1562.44 L1264.94 1543.09 L1260.65 1543.09 L1260.65 1538.54 L1264.94 1538.54 L1264.94 1528.42 L1270.83 1528.42 Z" fill="#000000" fill-rule="evenodd" fill-opacity="1" /><path clip-path="url(#clip000)" d="M1290.6 1538.54 L1296.45 1538.54 L1296.45 1574.19 L1290.6 1574.19 L1290.6 1538.54 M1290.6 1524.66 L1296.45 1524.66 L1296.45 1532.08 L1290.6 1532.08 L1290.6 1524.66 Z" fill="#000000" fill-rule="evenodd" fill-opacity="1" /><path clip-path="url(#clip000)" d="M1322.52 1542.64 Q1317.81 1542.64 1315.07 1546.34 Q1312.34 1550 1312.34 1556.39 Q1312.34 1562.79 1315.04 1566.48 Q1317.78 1570.14 1322.52 1570.14 Q1327.2 1570.14 1329.94 1566.45 Q1332.68 1562.76 1332.68 1556.39 Q1332.68 1550.06 1329.94 1546.37 Q1327.2 1542.64 1322.52 1542.64 M1322.52 1537.68 Q1330.16 1537.68 1334.52 1542.64 Q1338.88 1547.61 1338.88 1556.39 Q1338.88 1565.15 1334.52 1570.14 Q1330.16 1575.11 1322.52 1575.11 Q1314.85 1575.11 1310.49 1570.14 Q1306.16 1565.15 1306.16 1556.39 Q1306.16 1547.61 1310.49 1542.64 Q1314.85 1537.68 1322.52 1537.68 Z" fill="#000000" fill-rule="evenodd" fill-opacity="1" /><path clip-path="url(#clip000)" d="M1378.22 1552.67 L1378.22 1574.19 L1372.37 1574.19 L1372.37 1552.86 Q1372.37 1547.8 1370.39 1545.29 Q1368.42 1542.77 1364.47 1542.77 Q1359.73 1542.77 1356.99 1545.79 Q1354.25 1548.82 1354.25 1554.04 L1354.25 1574.19 L1348.37 1574.19 L1348.37 1538.54 L1354.25 1538.54 L1354.25 1544.08 Q1356.36 1540.86 1359.19 1539.27 Q1362.05 1537.68 1365.78 1537.68 Q1371.92 1537.68 1375.07 1541.5 Q1378.22 1545.29 1378.22 1552.67 Z" fill="#000000" fill-rule="evenodd" fill-opacity="1" /><path clip-path="url(#clip000)" d="M1412.63 1539.59 L1412.63 1545.13 Q1410.15 1543.85 1407.47 1543.22 Q1404.8 1542.58 1401.93 1542.58 Q1397.57 1542.58 1395.38 1543.92 Q1393.21 1545.25 1393.21 1547.93 Q1393.21 1549.96 1394.77 1551.14 Q1396.33 1552.29 1401.04 1553.34 L1403.05 1553.78 Q1409.29 1555.12 1411.9 1557.57 Q1414.54 1559.99 1414.54 1564.35 Q1414.54 1569.32 1410.59 1572.21 Q1406.68 1575.11 1399.8 1575.11 Q1396.94 1575.11 1393.82 1574.54 Q1390.73 1573.99 1387.29 1572.88 L1387.29 1566.83 Q1390.54 1568.52 1393.69 1569.38 Q1396.84 1570.21 1399.93 1570.21 Q1404.07 1570.21 1406.29 1568.81 Q1408.52 1567.37 1408.52 1564.8 Q1408.52 1562.41 1406.9 1561.14 Q1405.31 1559.86 1399.87 1558.68 L1397.83 1558.21 Q1392.39 1557.06 1389.97 1554.71 Q1387.55 1552.32 1387.55 1548.18 Q1387.55 1543.15 1391.11 1540.42 Q1394.68 1537.68 1401.23 1537.68 Q1404.48 1537.68 1407.34 1538.16 Q1410.21 1538.63 1412.63 1539.59 Z" fill="#000000" fill-rule="evenodd" fill-opacity="1" /><polyline clip-path="url(#clip002)" style="stroke:#000000; stroke-linecap:round; stroke-linejoin:round; stroke-width:2; stroke-opacity:0.1; fill:none" points="
  175.445,1250.43 2352.76,1250.43 
  "/>
<polyline clip-path="url(#clip002)" style="stroke:#000000; stroke-linecap:round; stroke-linejoin:round; stroke-width:2; stroke-opacity:0.1; fill:none" points="
  175.445,979.592 2352.76,979.592 
  "/>
<polyline clip-path="url(#clip002)" style="stroke:#000000; stroke-linecap:round; stroke-linejoin:round; stroke-width:2; stroke-opacity:0.1; fill:none" points="
  175.445,708.758 2352.76,708.758 
  "/>
<polyline clip-path="url(#clip002)" style="stroke:#000000; stroke-linecap:round; stroke-linejoin:round; stroke-width:2; stroke-opacity:0.1; fill:none" points="
  175.445,437.923 2352.76,437.923 
  "/>
<polyline clip-path="url(#clip002)" style="stroke:#000000; stroke-linecap:round; stroke-linejoin:round; stroke-width:2; stroke-opacity:0.1; fill:none" points="
  175.445,167.088 2352.76,167.088 
  "/>
<polyline clip-path="url(#clip000)" style="stroke:#000000; stroke-linecap:round; stroke-linejoin:round; stroke-width:4; stroke-opacity:1; fill:none" points="
  175.445,1410.9 175.445,47.2441 
  "/>
<polyline clip-path="url(#clip000)" style="stroke:#000000; stroke-linecap:round; stroke-linejoin:round; stroke-width:4; stroke-opacity:1; fill:none" points="
  175.445,1250.43 194.343,1250.43 
  "/>
<polyline clip-path="url(#clip000)" style="stroke:#000000; stroke-linecap:round; stroke-linejoin:round; stroke-width:4; stroke-opacity:1; fill:none" points="
  175.445,979.592 194.343,979.592 
  "/>
<polyline clip-path="url(#clip000)" style="stroke:#000000; stroke-linecap:round; stroke-linejoin:round; stroke-width:4; stroke-opacity:1; fill:none" points="
  175.445,708.758 194.343,708.758 
  "/>
<polyline clip-path="url(#clip000)" style="stroke:#000000; stroke-linecap:round; stroke-linejoin:round; stroke-width:4; stroke-opacity:1; fill:none" points="
  175.445,437.923 194.343,437.923 
  "/>
<polyline clip-path="url(#clip000)" style="stroke:#000000; stroke-linecap:round; stroke-linejoin:round; stroke-width:4; stroke-opacity:1; fill:none" points="
  175.445,167.088 194.343,167.088 
  "/>
<path clip-path="url(#clip000)" d="M129.862 1237.22 L118.056 1255.67 L129.862 1255.67 L129.862 1237.22 M128.635 1233.15 L134.515 1233.15 L134.515 1255.67 L139.445 1255.67 L139.445 1259.56 L134.515 1259.56 L134.515 1267.71 L129.862 1267.71 L129.862 1259.56 L114.26 1259.56 L114.26 1255.05 L128.635 1233.15 Z" fill="#000000" fill-rule="evenodd" fill-opacity="1" /><path clip-path="url(#clip000)" d="M118.543 962.312 L136.899 962.312 L136.899 966.248 L122.825 966.248 L122.825 974.72 Q123.843 974.373 124.862 974.211 Q125.88 974.025 126.899 974.025 Q132.686 974.025 136.066 977.197 Q139.445 980.368 139.445 985.785 Q139.445 991.363 135.973 994.465 Q132.501 997.544 126.181 997.544 Q124.005 997.544 121.737 997.173 Q119.492 996.803 117.084 996.062 L117.084 991.363 Q119.168 992.497 121.39 993.053 Q123.612 993.609 126.089 993.609 Q130.093 993.609 132.431 991.502 Q134.769 989.396 134.769 985.785 Q134.769 982.173 132.431 980.067 Q130.093 977.96 126.089 977.96 Q124.214 977.96 122.339 978.377 Q120.487 978.794 118.543 979.673 L118.543 962.312 Z" fill="#000000" fill-rule="evenodd" fill-opacity="1" /><path clip-path="url(#clip000)" d="M127.917 706.894 Q124.769 706.894 122.918 709.047 Q121.089 711.2 121.089 714.95 Q121.089 718.677 122.918 720.853 Q124.769 723.005 127.917 723.005 Q131.066 723.005 132.894 720.853 Q134.746 718.677 134.746 714.95 Q134.746 711.2 132.894 709.047 Q131.066 706.894 127.917 706.894 M137.2 692.242 L137.2 696.501 Q135.441 695.668 133.635 695.228 Q131.853 694.788 130.093 694.788 Q125.464 694.788 123.01 697.913 Q120.58 701.038 120.232 707.357 Q121.598 705.343 123.658 704.279 Q125.718 703.191 128.195 703.191 Q133.404 703.191 136.413 706.362 Q139.445 709.51 139.445 714.95 Q139.445 720.274 136.297 723.491 Q133.149 726.709 127.917 726.709 Q121.922 726.709 118.751 722.126 Q115.58 717.519 115.58 708.792 Q115.58 700.598 119.468 695.737 Q123.357 690.853 129.908 690.853 Q131.667 690.853 133.45 691.2 Q135.255 691.547 137.2 692.242 Z" fill="#000000" fill-rule="evenodd" fill-opacity="1" /><path clip-path="url(#clip000)" d="M117.223 420.643 L139.445 420.643 L139.445 422.634 L126.899 455.203 L122.015 455.203 L133.82 424.578 L117.223 424.578 L117.223 420.643 Z" fill="#000000" fill-rule="evenodd" fill-opacity="1" /><path clip-path="url(#clip000)" d="M127.593 167.956 Q124.26 167.956 122.339 169.739 Q120.441 171.521 120.441 174.646 Q120.441 177.771 122.339 179.554 Q124.26 181.336 127.593 181.336 Q130.927 181.336 132.848 179.554 Q134.769 177.748 134.769 174.646 Q134.769 171.521 132.848 169.739 Q130.95 167.956 127.593 167.956 M122.918 165.966 Q119.908 165.225 118.218 163.165 Q116.552 161.105 116.552 158.142 Q116.552 153.998 119.492 151.591 Q122.455 149.183 127.593 149.183 Q132.755 149.183 135.695 151.591 Q138.635 153.998 138.635 158.142 Q138.635 161.105 136.945 163.165 Q135.279 165.225 132.292 165.966 Q135.672 166.753 137.547 169.044 Q139.445 171.336 139.445 174.646 Q139.445 179.669 136.367 182.355 Q133.311 185.04 127.593 185.04 Q121.876 185.04 118.797 182.355 Q115.742 179.669 115.742 174.646 Q115.742 171.336 117.64 169.044 Q119.538 166.753 122.918 165.966 M121.205 158.582 Q121.205 161.267 122.871 162.771 Q124.561 164.276 127.593 164.276 Q130.603 164.276 132.292 162.771 Q134.005 161.267 134.005 158.582 Q134.005 155.896 132.292 154.392 Q130.603 152.887 127.593 152.887 Q124.561 152.887 122.871 154.392 Q121.205 155.896 121.205 158.582 Z" fill="#000000" fill-rule="evenodd" fill-opacity="1" /><path clip-path="url(#clip000)" d="M41.3104 1077.04 L58.7206 1077.04 L58.7206 1066.72 Q58.7206 1061.54 56.5881 1059.05 Q54.4238 1056.54 49.9996 1056.54 Q45.5436 1056.54 43.4429 1059.05 Q41.3104 1061.54 41.3104 1066.72 L41.3104 1077.04 M21.7677 1077.04 L36.0905 1077.04 L36.0905 1067.52 Q36.0905 1062.81 34.34 1060.52 Q32.5576 1058.19 28.9291 1058.19 Q25.3325 1058.19 23.5501 1060.52 Q21.7677 1062.81 21.7677 1067.52 L21.7677 1077.04 M16.4842 1083.47 L16.4842 1067.04 Q16.4842 1059.69 19.5397 1055.71 Q22.5952 1051.73 28.2289 1051.73 Q32.5894 1051.73 35.1675 1053.77 Q37.7456 1055.81 38.3822 1059.75 Q39.4007 1055.01 42.6472 1052.4 Q45.8619 1049.76 50.6998 1049.76 Q57.0655 1049.76 60.5348 1054.09 Q64.0042 1058.42 64.0042 1066.41 L64.0042 1083.47 L16.4842 1083.47 Z" fill="#000000" fill-rule="evenodd" fill-opacity="1" /><path clip-path="url(#clip000)" d="M44.7161 1008.51 L47.5806 1008.51 L47.5806 1035.44 Q53.6281 1035.05 56.8109 1031.81 Q59.9619 1028.53 59.9619 1022.7 Q59.9619 1019.33 59.1344 1016.18 Q58.3069 1013 56.6518 1009.88 L62.1899 1009.88 Q63.5267 1013.03 64.227 1016.34 Q64.9272 1019.65 64.9272 1023.05 Q64.9272 1031.58 59.9619 1036.58 Q54.9967 1041.55 46.5303 1041.55 Q37.7774 1041.55 32.6531 1036.84 Q27.4968 1032.09 27.4968 1024.07 Q27.4968 1016.88 32.1438 1012.71 Q36.7589 1008.51 44.7161 1008.51 M42.9973 1014.37 Q38.1912 1014.43 35.3266 1017.07 Q32.4621 1019.68 32.4621 1024.01 Q32.4621 1028.91 35.2312 1031.87 Q38.0002 1034.8 43.0292 1035.24 L42.9973 1014.37 Z" fill="#000000" fill-rule="evenodd" fill-opacity="1" /><path clip-path="url(#clip000)" d="M29.4065 976.171 L34.9447 976.171 Q33.6716 978.654 33.035 981.327 Q32.3984 984.001 32.3984 986.866 Q32.3984 991.226 33.7352 993.422 Q35.072 995.587 37.7456 995.587 Q39.7826 995.587 40.9603 994.027 Q42.1061 992.467 43.1565 987.757 L43.6021 985.752 Q44.9389 979.513 47.3897 976.903 Q49.8086 974.261 54.1691 974.261 Q59.1344 974.261 62.0308 978.208 Q64.9272 982.123 64.9272 988.998 Q64.9272 991.863 64.3543 994.982 Q63.8132 998.069 62.6992 1001.51 L56.6518 1001.51 Q58.3387 998.26 59.198 995.109 Q60.0256 991.958 60.0256 988.871 Q60.0256 984.733 58.6251 982.505 Q57.1929 980.277 54.6147 980.277 Q52.2276 980.277 50.9545 981.9 Q49.6813 983.492 48.5037 988.934 L48.0262 990.971 Q46.8804 996.414 44.5251 998.833 Q42.138 1001.25 38.0002 1001.25 Q32.9713 1001.25 30.2341 997.687 Q27.4968 994.122 27.4968 987.566 Q27.4968 984.319 27.9743 981.455 Q28.4517 978.59 29.4065 976.171 Z" fill="#000000" fill-rule="evenodd" fill-opacity="1" /><path clip-path="url(#clip000)" d="M18.2347 959.143 L28.3562 959.143 L28.3562 947.08 L32.9077 947.08 L32.9077 959.143 L52.2594 959.143 Q56.6199 959.143 57.8613 957.965 Q59.1026 956.756 59.1026 953.095 L59.1026 947.08 L64.0042 947.08 L64.0042 953.095 Q64.0042 959.875 61.4897 962.453 Q58.9434 965.031 52.2594 965.031 L32.9077 965.031 L32.9077 969.328 L28.3562 969.328 L28.3562 965.031 L18.2347 965.031 L18.2347 959.143 Z" fill="#000000" fill-rule="evenodd" fill-opacity="1" /><path clip-path="url(#clip000)" d="M20.1444 882.818 L26.9239 882.818 Q23.9002 886.065 22.4043 889.757 Q20.9083 893.417 20.9083 897.555 Q20.9083 905.703 25.9054 910.031 Q30.8707 914.36 40.2919 914.36 Q49.6813 914.36 54.6784 910.031 Q59.6436 905.703 59.6436 897.555 Q59.6436 893.417 58.1477 889.757 Q56.6518 886.065 53.6281 882.818 L60.3439 882.818 Q62.6355 886.192 63.7814 889.98 Q64.9272 893.735 64.9272 897.937 Q64.9272 908.727 58.3387 914.933 Q51.7183 921.14 40.2919 921.14 Q28.8336 921.14 22.2451 914.933 Q15.6248 908.727 15.6248 897.937 Q15.6248 893.672 16.7706 889.916 Q17.8846 886.128 20.1444 882.818 Z" fill="#000000" fill-rule="evenodd" fill-opacity="1" /><path clip-path="url(#clip000)" d="M32.4621 859.329 Q32.4621 864.039 36.1542 866.777 Q39.8145 869.514 46.212 869.514 Q52.6095 869.514 56.3017 866.808 Q59.9619 864.071 59.9619 859.329 Q59.9619 854.65 56.2698 851.913 Q52.5777 849.175 46.212 849.175 Q39.8781 849.175 36.186 851.913 Q32.4621 854.65 32.4621 859.329 M27.4968 859.329 Q27.4968 851.69 32.4621 847.329 Q37.4273 842.969 46.212 842.969 Q54.9649 842.969 59.9619 847.329 Q64.9272 851.69 64.9272 859.329 Q64.9272 866.999 59.9619 871.36 Q54.9649 875.689 46.212 875.689 Q37.4273 875.689 32.4621 871.36 Q27.4968 866.999 27.4968 859.329 Z" fill="#000000" fill-rule="evenodd" fill-opacity="1" /><path clip-path="url(#clip000)" d="M35.1993 805.507 Q31.2526 803.31 29.3747 800.255 Q27.4968 797.199 27.4968 793.062 Q27.4968 787.492 31.4117 784.468 Q35.2948 781.444 42.4881 781.444 L64.0042 781.444 L64.0042 787.332 L42.679 787.332 Q37.5546 787.332 35.072 789.147 Q32.5894 790.961 32.5894 794.685 Q32.5894 799.236 35.6131 801.878 Q38.6368 804.52 43.8567 804.52 L64.0042 804.52 L64.0042 810.408 L42.679 810.408 Q37.5228 810.408 35.072 812.222 Q32.5894 814.037 32.5894 817.824 Q32.5894 822.312 35.6449 824.954 Q38.6686 827.596 43.8567 827.596 L64.0042 827.596 L64.0042 833.484 L28.3562 833.484 L28.3562 827.596 L33.8944 827.596 Q30.616 825.59 29.0564 822.789 Q27.4968 819.989 27.4968 816.137 Q27.4968 812.254 29.4702 809.549 Q31.4436 806.812 35.1993 805.507 Z" fill="#000000" fill-rule="evenodd" fill-opacity="1" /><path clip-path="url(#clip000)" d="M58.657 764.098 L77.5631 764.098 L77.5631 769.986 L28.3562 769.986 L28.3562 764.098 L33.7671 764.098 Q30.5842 762.252 29.0564 759.451 Q27.4968 756.618 27.4968 752.703 Q27.4968 746.21 32.6531 742.168 Q37.8093 738.094 46.212 738.094 Q54.6147 738.094 59.771 742.168 Q64.9272 746.21 64.9272 752.703 Q64.9272 756.618 63.3994 759.451 Q61.8398 762.252 58.657 764.098 M46.212 744.173 Q39.7508 744.173 36.0905 746.847 Q32.3984 749.488 32.3984 754.135 Q32.3984 758.782 36.0905 761.456 Q39.7508 764.098 46.212 764.098 Q52.6732 764.098 56.3653 761.456 Q60.0256 758.782 60.0256 754.135 Q60.0256 749.488 56.3653 746.847 Q52.6732 744.173 46.212 744.173 Z" fill="#000000" fill-rule="evenodd" fill-opacity="1" /><path clip-path="url(#clip000)" d="M14.479 728.386 L14.479 722.53 L64.0042 722.53 L64.0042 728.386 L14.479 728.386 Z" fill="#000000" fill-rule="evenodd" fill-opacity="1" /><path clip-path="url(#clip000)" d="M44.7161 679.784 L47.5806 679.784 L47.5806 706.711 Q53.6281 706.329 56.8109 703.082 Q59.9619 699.804 59.9619 693.979 Q59.9619 690.606 59.1344 687.455 Q58.3069 684.272 56.6518 681.153 L62.1899 681.153 Q63.5267 684.304 64.227 687.614 Q64.9272 690.924 64.9272 694.33 Q64.9272 702.86 59.9619 707.857 Q54.9967 712.822 46.5303 712.822 Q37.7774 712.822 32.6531 708.111 Q27.4968 703.369 27.4968 695.348 Q27.4968 688.155 32.1438 683.985 Q36.7589 679.784 44.7161 679.784 M42.9973 685.64 Q38.1912 685.704 35.3266 688.346 Q32.4621 690.956 32.4621 695.284 Q32.4621 700.186 35.2312 703.146 Q38.0002 706.074 43.0292 706.52 L42.9973 685.64 Z" fill="#000000" fill-rule="evenodd" fill-opacity="1" /><path clip-path="url(#clip000)" d="M18.2347 664.379 L28.3562 664.379 L28.3562 652.316 L32.9077 652.316 L32.9077 664.379 L52.2594 664.379 Q56.6199 664.379 57.8613 663.201 Q59.1026 661.992 59.1026 658.331 L59.1026 652.316 L64.0042 652.316 L64.0042 658.331 Q64.0042 665.111 61.4897 667.689 Q58.9434 670.267 52.2594 670.267 L32.9077 670.267 L32.9077 674.564 L28.3562 674.564 L28.3562 670.267 L18.2347 670.267 L18.2347 664.379 Z" fill="#000000" fill-rule="evenodd" fill-opacity="1" /><path clip-path="url(#clip000)" d="M28.3562 644.613 L28.3562 638.757 L64.0042 638.757 L64.0042 644.613 L28.3562 644.613 M14.479 644.613 L14.479 638.757 L21.895 638.757 L21.895 644.613 L14.479 644.613 Z" fill="#000000" fill-rule="evenodd" fill-opacity="1" /><path clip-path="url(#clip000)" d="M32.4621 612.689 Q32.4621 617.4 36.1542 620.137 Q39.8145 622.874 46.212 622.874 Q52.6095 622.874 56.3017 620.169 Q59.9619 617.432 59.9619 612.689 Q59.9619 608.011 56.2698 605.273 Q52.5777 602.536 46.212 602.536 Q39.8781 602.536 36.186 605.273 Q32.4621 608.011 32.4621 612.689 M27.4968 612.689 Q27.4968 605.05 32.4621 600.69 Q37.4273 596.329 46.212 596.329 Q54.9649 596.329 59.9619 600.69 Q64.9272 605.05 64.9272 612.689 Q64.9272 620.36 59.9619 624.721 Q54.9649 629.049 46.212 629.049 Q37.4273 629.049 32.4621 624.721 Q27.4968 620.36 27.4968 612.689 Z" fill="#000000" fill-rule="evenodd" fill-opacity="1" /><path clip-path="url(#clip000)" d="M42.4881 556.989 L64.0042 556.989 L64.0042 562.846 L42.679 562.846 Q37.6183 562.846 35.1038 564.819 Q32.5894 566.793 32.5894 570.739 Q32.5894 575.482 35.6131 578.219 Q38.6368 580.956 43.8567 580.956 L64.0042 580.956 L64.0042 586.845 L28.3562 586.845 L28.3562 580.956 L33.8944 580.956 Q30.6797 578.856 29.0883 576.023 Q27.4968 573.158 27.4968 569.434 Q27.4968 563.291 31.3163 560.14 Q35.1038 556.989 42.4881 556.989 Z" fill="#000000" fill-rule="evenodd" fill-opacity="1" /><path clip-path="url(#clip000)" d="M16.4842 530.922 L16.4842 490.722 L21.895 490.722 L21.895 507.592 L64.0042 507.592 L64.0042 514.053 L21.895 514.053 L21.895 530.922 L16.4842 530.922 Z" fill="#000000" fill-rule="evenodd" fill-opacity="1" /><path clip-path="url(#clip000)" d="M28.3562 486.776 L28.3562 480.919 L64.0042 480.919 L64.0042 486.776 L28.3562 486.776 M14.479 486.776 L14.479 480.919 L21.895 480.919 L21.895 486.776 L14.479 486.776 Z" fill="#000000" fill-rule="evenodd" fill-opacity="1" /><path clip-path="url(#clip000)" d="M35.1993 440.911 Q31.2526 438.715 29.3747 435.659 Q27.4968 432.603 27.4968 428.466 Q27.4968 422.896 31.4117 419.872 Q35.2948 416.848 42.4881 416.848 L64.0042 416.848 L64.0042 422.737 L42.679 422.737 Q37.5546 422.737 35.072 424.551 Q32.5894 426.365 32.5894 430.089 Q32.5894 434.641 35.6131 437.282 Q38.6368 439.924 43.8567 439.924 L64.0042 439.924 L64.0042 445.812 L42.679 445.812 Q37.5228 445.812 35.072 447.627 Q32.5894 449.441 32.5894 453.228 Q32.5894 457.716 35.6449 460.358 Q38.6686 463 43.8567 463 L64.0042 463 L64.0042 468.888 L28.3562 468.888 L28.3562 463 L33.8944 463 Q30.616 460.995 29.0564 458.194 Q27.4968 455.393 27.4968 451.541 Q27.4968 447.658 29.4702 444.953 Q31.4436 442.216 35.1993 440.911 Z" fill="#000000" fill-rule="evenodd" fill-opacity="1" /><path clip-path="url(#clip000)" d="M44.7161 374.676 L47.5806 374.676 L47.5806 401.603 Q53.6281 401.221 56.8109 397.974 Q59.9619 394.696 59.9619 388.871 Q59.9619 385.497 59.1344 382.346 Q58.3069 379.163 56.6518 376.044 L62.1899 376.044 Q63.5267 379.195 64.227 382.505 Q64.9272 385.816 64.9272 389.221 Q64.9272 397.751 59.9619 402.748 Q54.9967 407.714 46.5303 407.714 Q37.7774 407.714 32.6531 403.003 Q27.4968 398.261 27.4968 390.24 Q27.4968 383.046 32.1438 378.877 Q36.7589 374.676 44.7161 374.676 M42.9973 380.532 Q38.1912 380.596 35.3266 383.237 Q32.4621 385.847 32.4621 390.176 Q32.4621 395.078 35.2312 398.038 Q38.0002 400.966 43.0292 401.412 L42.9973 380.532 Z" fill="#000000" fill-rule="evenodd" fill-opacity="1" /><polyline clip-path="url(#clip002)" style="stroke:#009af9; stroke-linecap:round; stroke-linejoin:round; stroke-width:4; stroke-opacity:1; fill:none" points="
  237.067,85.838 289.736,424.381 342.404,647.82 395.072,769.696 447.741,871.259 500.409,959.28 553.077,1020.22 605.746,1067.61 658.414,1108.24 711.083,1155.63 
  763.751,1182.72 816.419,1196.26 869.088,1209.8 921.756,1236.89 974.424,1236.89 1027.09,1243.66 1079.76,1257.2 1132.43,1277.51 1185.1,1284.28 1237.77,1297.82 
  1290.43,1291.05 1343.1,1297.82 1395.77,1311.36 1448.44,1318.14 1501.11,1324.91 1553.78,1331.68 1606.45,1338.45 1659.11,1331.68 1711.78,1345.22 1764.45,1351.99 
  1817.12,1351.99 1869.79,1338.45 1922.46,1351.99 1975.12,1358.76 2027.79,1351.99 2080.46,1365.53 2133.13,1372.3 2185.8,1358.76 2238.47,1358.76 2291.13,1372.3 
  
  "/>
</svg>
