<?xml version="1.0" encoding="utf-8"?>
<svg xmlns="http://www.w3.org/2000/svg" xmlns:xlink="http://www.w3.org/1999/xlink" width="600" height="400" viewBox="0 0 2400 1600">
<defs>
  <clipPath id="clip260">
    <rect x="0" y="0" width="2400" height="1600"/>
  </clipPath>
</defs>
<path clip-path="url(#clip260)" d="
M0 1600 L2400 1600 L2400 0 L0 0  Z
  " fill="#ffffff" fill-rule="evenodd" fill-opacity="1"/>
<defs>
  <clipPath id="clip261">
    <rect x="480" y="0" width="1681" height="1600"/>
  </clipPath>
</defs>
<path clip-path="url(#clip260)" d="
M249.704 1410.9 L2352.76 1410.9 L2352.76 47.2441 L249.704 47.2441  Z
  " fill="#ffffff" fill-rule="evenodd" fill-opacity="1"/>
<defs>
  <clipPath id="clip262">
    <rect x="249" y="47" width="2104" height="1365"/>
  </clipPath>
</defs>
<polyline clip-path="url(#clip262)" style="stroke:#000000; stroke-linecap:butt; stroke-linejoin:round; stroke-width:2; stroke-opacity:0.1; fill:none" points="
  726.911,1410.9 726.911,47.2441 
  "/>
<polyline clip-path="url(#clip262)" style="stroke:#000000; stroke-linecap:butt; stroke-linejoin:round; stroke-width:2; stroke-opacity:0.1; fill:none" points="
  1249.02,1410.9 1249.02,47.2441 
  "/>
<polyline clip-path="url(#clip262)" style="stroke:#000000; stroke-linecap:butt; stroke-linejoin:round; stroke-width:2; stroke-opacity:0.1; fill:none" points="
  1771.13,1410.9 1771.13,47.2441 
  "/>
<polyline clip-path="url(#clip262)" style="stroke:#000000; stroke-linecap:butt; stroke-linejoin:round; stroke-width:2; stroke-opacity:0.1; fill:none" points="
  2293.24,1410.9 2293.24,47.2441 
  "/>
<polyline clip-path="url(#clip260)" style="stroke:#000000; stroke-linecap:butt; stroke-linejoin:round; stroke-width:4; stroke-opacity:1; fill:none" points="
  249.704,1410.9 2352.76,1410.9 
  "/>
<polyline clip-path="url(#clip260)" style="stroke:#000000; stroke-linecap:butt; stroke-linejoin:round; stroke-width:4; stroke-opacity:1; fill:none" points="
  726.911,1410.9 726.911,1392 
  "/>
<polyline clip-path="url(#clip260)" style="stroke:#000000; stroke-linecap:butt; stroke-linejoin:round; stroke-width:4; stroke-opacity:1; fill:none" points="
  1249.02,1410.9 1249.02,1392 
  "/>
<polyline clip-path="url(#clip260)" style="stroke:#000000; stroke-linecap:butt; stroke-linejoin:round; stroke-width:4; stroke-opacity:1; fill:none" points="
  1771.13,1410.9 1771.13,1392 
  "/>
<polyline clip-path="url(#clip260)" style="stroke:#000000; stroke-linecap:butt; stroke-linejoin:round; stroke-width:4; stroke-opacity:1; fill:none" points="
  2293.24,1410.9 2293.24,1392 
  "/>
<path clip-path="url(#clip260)" d="M619.888 1454.4 L638.244 1454.4 L638.244 1458.33 L624.17 1458.33 L624.17 1466.8 Q625.188 1466.46 626.207 1466.29 Q627.225 1466.11 628.244 1466.11 Q634.031 1466.11 637.411 1469.28 Q640.79 1472.45 640.79 1477.87 Q640.79 1483.45 637.318 1486.55 Q633.846 1489.63 627.526 1489.63 Q625.35 1489.63 623.082 1489.26 Q620.837 1488.89 618.429 1488.15 L618.429 1483.45 Q620.513 1484.58 622.735 1485.14 Q624.957 1485.69 627.434 1485.69 Q631.438 1485.69 633.776 1483.59 Q636.114 1481.48 636.114 1477.87 Q636.114 1474.26 633.776 1472.15 Q631.438 1470.04 627.434 1470.04 Q625.559 1470.04 623.684 1470.46 Q621.832 1470.88 619.888 1471.76 L619.888 1454.4 Z" fill="#000000" fill-rule="evenodd" fill-opacity="1" /><path clip-path="url(#clip260)" d="M650.003 1483.08 L654.887 1483.08 L654.887 1488.96 L650.003 1488.96 L650.003 1483.08 Z" fill="#000000" fill-rule="evenodd" fill-opacity="1" /><path clip-path="url(#clip260)" d="M675.072 1457.48 Q671.461 1457.48 669.633 1461.04 Q667.827 1464.58 667.827 1471.71 Q667.827 1478.82 669.633 1482.38 Q671.461 1485.92 675.072 1485.92 Q678.707 1485.92 680.512 1482.38 Q682.341 1478.82 682.341 1471.71 Q682.341 1464.58 680.512 1461.04 Q678.707 1457.48 675.072 1457.48 M675.072 1453.77 Q680.883 1453.77 683.938 1458.38 Q687.017 1462.96 687.017 1471.71 Q687.017 1480.44 683.938 1485.04 Q680.883 1489.63 675.072 1489.63 Q669.262 1489.63 666.184 1485.04 Q663.128 1480.44 663.128 1471.71 Q663.128 1462.96 666.184 1458.38 Q669.262 1453.77 675.072 1453.77 Z" fill="#000000" fill-rule="evenodd" fill-opacity="1" /><path clip-path="url(#clip260)" d="M705.234 1457.48 Q701.623 1457.48 699.795 1461.04 Q697.989 1464.58 697.989 1471.71 Q697.989 1478.82 699.795 1482.38 Q701.623 1485.92 705.234 1485.92 Q708.869 1485.92 710.674 1482.38 Q712.503 1478.82 712.503 1471.71 Q712.503 1464.58 710.674 1461.04 Q708.869 1457.48 705.234 1457.48 M705.234 1453.77 Q711.044 1453.77 714.1 1458.38 Q717.179 1462.96 717.179 1471.71 Q717.179 1480.44 714.1 1485.04 Q711.044 1489.63 705.234 1489.63 Q699.424 1489.63 696.345 1485.04 Q693.29 1480.44 693.29 1471.71 Q693.29 1462.96 696.345 1458.38 Q699.424 1453.77 705.234 1453.77 Z" fill="#000000" fill-rule="evenodd" fill-opacity="1" /><path clip-path="url(#clip260)" d="M753.567 1463.49 L742.989 1474.12 L753.567 1484.7 L750.813 1487.5 L740.188 1476.87 L729.563 1487.5 L726.831 1484.7 L737.387 1474.12 L726.831 1463.49 L729.563 1460.69 L740.188 1471.32 L750.813 1460.69 L753.567 1463.49 Z" fill="#000000" fill-rule="evenodd" fill-opacity="1" /><path clip-path="url(#clip260)" d="M765.928 1485.02 L773.567 1485.02 L773.567 1458.66 L765.257 1460.32 L765.257 1456.06 L773.521 1454.4 L778.197 1454.4 L778.197 1485.02 L785.836 1485.02 L785.836 1488.96 L765.928 1488.96 L765.928 1485.02 Z" fill="#000000" fill-rule="evenodd" fill-opacity="1" /><path clip-path="url(#clip260)" d="M805.28 1457.48 Q801.669 1457.48 799.84 1461.04 Q798.035 1464.58 798.035 1471.71 Q798.035 1478.82 799.84 1482.38 Q801.669 1485.92 805.28 1485.92 Q808.914 1485.92 810.72 1482.38 Q812.549 1478.82 812.549 1471.71 Q812.549 1464.58 810.72 1461.04 Q808.914 1457.48 805.28 1457.48 M805.28 1453.77 Q811.09 1453.77 814.146 1458.38 Q817.224 1462.96 817.224 1471.71 Q817.224 1480.44 814.146 1485.04 Q811.09 1489.63 805.28 1489.63 Q799.47 1489.63 796.391 1485.04 Q793.336 1480.44 793.336 1471.71 Q793.336 1462.96 796.391 1458.38 Q799.47 1453.77 805.28 1453.77 Z" fill="#000000" fill-rule="evenodd" fill-opacity="1" /><path clip-path="url(#clip260)" d="M818.409 1433.47 L833.324 1433.47 L833.324 1436.66 L821.889 1436.66 L821.889 1443.55 Q822.716 1443.27 823.544 1443.13 Q824.371 1442.98 825.199 1442.98 Q829.901 1442.98 832.647 1445.56 Q835.393 1448.14 835.393 1452.54 Q835.393 1457.07 832.572 1459.59 Q829.75 1462.09 824.616 1462.09 Q822.848 1462.09 821.005 1461.79 Q819.18 1461.49 817.224 1460.89 L817.224 1457.07 Q818.917 1457.99 820.723 1458.44 Q822.528 1458.89 824.541 1458.89 Q827.794 1458.89 829.694 1457.18 Q831.594 1455.47 831.594 1452.54 Q831.594 1449.6 829.694 1447.89 Q827.794 1446.18 824.541 1446.18 Q823.017 1446.18 821.494 1446.52 Q819.989 1446.86 818.409 1447.57 L818.409 1433.47 Z" fill="#000000" fill-rule="evenodd" fill-opacity="1" /><path clip-path="url(#clip260)" d="M1141.37 1485.02 L1149.01 1485.02 L1149.01 1458.66 L1140.7 1460.32 L1140.7 1456.06 L1148.97 1454.4 L1153.64 1454.4 L1153.64 1485.02 L1161.28 1485.02 L1161.28 1488.96 L1141.37 1488.96 L1141.37 1485.02 Z" fill="#000000" fill-rule="evenodd" fill-opacity="1" /><path clip-path="url(#clip260)" d="M1170.72 1483.08 L1175.61 1483.08 L1175.61 1488.96 L1170.72 1488.96 L1170.72 1483.08 Z" fill="#000000" fill-rule="evenodd" fill-opacity="1" /><path clip-path="url(#clip260)" d="M1195.79 1457.48 Q1192.18 1457.48 1190.35 1461.04 Q1188.55 1464.58 1188.55 1471.71 Q1188.55 1478.82 1190.35 1482.38 Q1192.18 1485.92 1195.79 1485.92 Q1199.43 1485.92 1201.23 1482.38 Q1203.06 1478.82 1203.06 1471.71 Q1203.06 1464.58 1201.23 1461.04 Q1199.43 1457.48 1195.79 1457.48 M1195.79 1453.77 Q1201.6 1453.77 1204.66 1458.38 Q1207.74 1462.96 1207.74 1471.71 Q1207.74 1480.44 1204.66 1485.04 Q1201.6 1489.63 1195.79 1489.63 Q1189.98 1489.63 1186.91 1485.04 Q1183.85 1480.44 1183.85 1471.71 Q1183.85 1462.96 1186.91 1458.38 Q1189.98 1453.77 1195.79 1453.77 Z" fill="#000000" fill-rule="evenodd" fill-opacity="1" /><path clip-path="url(#clip260)" d="M1225.96 1457.48 Q1222.34 1457.48 1220.52 1461.04 Q1218.71 1464.58 1218.71 1471.71 Q1218.71 1478.82 1220.52 1482.38 Q1222.34 1485.92 1225.96 1485.92 Q1229.59 1485.92 1231.4 1482.38 Q1233.22 1478.82 1233.22 1471.71 Q1233.22 1464.58 1231.4 1461.04 Q1229.59 1457.48 1225.96 1457.48 M1225.96 1453.77 Q1231.77 1453.77 1234.82 1458.38 Q1237.9 1462.96 1237.9 1471.71 Q1237.9 1480.44 1234.82 1485.04 Q1231.77 1489.63 1225.96 1489.63 Q1220.15 1489.63 1217.07 1485.04 Q1214.01 1480.44 1214.01 1471.71 Q1214.01 1462.96 1217.07 1458.38 Q1220.15 1453.77 1225.96 1453.77 Z" fill="#000000" fill-rule="evenodd" fill-opacity="1" /><path clip-path="url(#clip260)" d="M1274.29 1463.49 L1263.71 1474.12 L1274.29 1484.7 L1271.53 1487.5 L1260.91 1476.87 L1250.28 1487.5 L1247.55 1484.7 L1258.11 1474.12 L1247.55 1463.49 L1250.28 1460.69 L1260.91 1471.32 L1271.53 1460.69 L1274.29 1463.49 Z" fill="#000000" fill-rule="evenodd" fill-opacity="1" /><path clip-path="url(#clip260)" d="M1286.65 1485.02 L1294.29 1485.02 L1294.29 1458.66 L1285.98 1460.32 L1285.98 1456.06 L1294.24 1454.4 L1298.92 1454.4 L1298.92 1485.02 L1306.56 1485.02 L1306.56 1488.96 L1286.65 1488.96 L1286.65 1485.02 Z" fill="#000000" fill-rule="evenodd" fill-opacity="1" /><path clip-path="url(#clip260)" d="M1326 1457.48 Q1322.39 1457.48 1320.56 1461.04 Q1318.76 1464.58 1318.76 1471.71 Q1318.76 1478.82 1320.56 1482.38 Q1322.39 1485.92 1326 1485.92 Q1329.64 1485.92 1331.44 1482.38 Q1333.27 1478.82 1333.27 1471.71 Q1333.27 1464.58 1331.44 1461.04 Q1329.64 1457.48 1326 1457.48 M1326 1453.77 Q1331.81 1453.77 1334.87 1458.38 Q1337.95 1462.96 1337.95 1471.71 Q1337.95 1480.44 1334.87 1485.04 Q1331.81 1489.63 1326 1489.63 Q1320.19 1489.63 1317.11 1485.04 Q1314.06 1480.44 1314.06 1471.71 Q1314.06 1462.96 1317.11 1458.38 Q1320.19 1453.77 1326 1453.77 Z" fill="#000000" fill-rule="evenodd" fill-opacity="1" /><path clip-path="url(#clip260)" d="M1347.97 1445.99 Q1345.41 1445.99 1343.91 1447.74 Q1342.42 1449.49 1342.42 1452.54 Q1342.42 1455.57 1343.91 1457.33 Q1345.41 1459.08 1347.97 1459.08 Q1350.53 1459.08 1352.01 1457.33 Q1353.52 1455.57 1353.52 1452.54 Q1353.52 1449.49 1352.01 1447.74 Q1350.53 1445.99 1347.97 1445.99 M1355.51 1434.09 L1355.51 1437.55 Q1354.08 1436.87 1352.62 1436.51 Q1351.17 1436.16 1349.74 1436.16 Q1345.98 1436.16 1343.98 1438.69 Q1342.01 1441.23 1341.73 1446.37 Q1342.84 1444.73 1344.51 1443.87 Q1346.18 1442.98 1348.2 1442.98 Q1352.43 1442.98 1354.87 1445.56 Q1357.34 1448.12 1357.34 1452.54 Q1357.34 1456.86 1354.78 1459.48 Q1352.22 1462.09 1347.97 1462.09 Q1343.1 1462.09 1340.52 1458.37 Q1337.95 1454.62 1337.95 1447.53 Q1337.95 1440.88 1341.11 1436.93 Q1344.27 1432.96 1349.59 1432.96 Q1351.02 1432.96 1352.47 1433.24 Q1353.93 1433.52 1355.51 1434.09 Z" fill="#000000" fill-rule="evenodd" fill-opacity="1" /><path clip-path="url(#clip260)" d="M1663.48 1485.02 L1671.12 1485.02 L1671.12 1458.66 L1662.81 1460.32 L1662.81 1456.06 L1671.07 1454.4 L1675.75 1454.4 L1675.75 1485.02 L1683.39 1485.02 L1683.39 1488.96 L1663.48 1488.96 L1663.48 1485.02 Z" fill="#000000" fill-rule="evenodd" fill-opacity="1" /><path clip-path="url(#clip260)" d="M1692.83 1483.08 L1697.72 1483.08 L1697.72 1488.96 L1692.83 1488.96 L1692.83 1483.08 Z" fill="#000000" fill-rule="evenodd" fill-opacity="1" /><path clip-path="url(#clip260)" d="M1707.95 1454.4 L1726.3 1454.4 L1726.3 1458.33 L1712.23 1458.33 L1712.23 1466.8 Q1713.25 1466.46 1714.27 1466.29 Q1715.29 1466.11 1716.3 1466.11 Q1722.09 1466.11 1725.47 1469.28 Q1728.85 1472.45 1728.85 1477.87 Q1728.85 1483.45 1725.38 1486.55 Q1721.91 1489.63 1715.59 1489.63 Q1713.41 1489.63 1711.14 1489.26 Q1708.9 1488.89 1706.49 1488.15 L1706.49 1483.45 Q1708.57 1484.58 1710.8 1485.14 Q1713.02 1485.69 1715.49 1485.69 Q1719.5 1485.69 1721.84 1483.59 Q1724.18 1481.48 1724.18 1477.87 Q1724.18 1474.26 1721.84 1472.15 Q1719.5 1470.04 1715.49 1470.04 Q1713.62 1470.04 1711.74 1470.46 Q1709.89 1470.88 1707.95 1471.76 L1707.95 1454.4 Z" fill="#000000" fill-rule="evenodd" fill-opacity="1" /><path clip-path="url(#clip260)" d="M1748.06 1457.48 Q1744.45 1457.48 1742.62 1461.04 Q1740.82 1464.58 1740.82 1471.71 Q1740.82 1478.82 1742.62 1482.38 Q1744.45 1485.92 1748.06 1485.92 Q1751.7 1485.92 1753.5 1482.38 Q1755.33 1478.82 1755.33 1471.71 Q1755.33 1464.58 1753.5 1461.04 Q1751.7 1457.48 1748.06 1457.48 M1748.06 1453.77 Q1753.87 1453.77 1756.93 1458.38 Q1760.01 1462.96 1760.01 1471.71 Q1760.01 1480.44 1756.93 1485.04 Q1753.87 1489.63 1748.06 1489.63 Q1742.25 1489.63 1739.18 1485.04 Q1736.12 1480.44 1736.12 1471.71 Q1736.12 1462.96 1739.18 1458.38 Q1742.25 1453.77 1748.06 1453.77 Z" fill="#000000" fill-rule="evenodd" fill-opacity="1" /><path clip-path="url(#clip260)" d="M1796.4 1463.49 L1785.82 1474.12 L1796.4 1484.7 L1793.64 1487.5 L1783.02 1476.87 L1772.39 1487.5 L1769.66 1484.7 L1780.22 1474.12 L1769.66 1463.49 L1772.39 1460.69 L1783.02 1471.32 L1793.64 1460.69 L1796.4 1463.49 Z" fill="#000000" fill-rule="evenodd" fill-opacity="1" /><path clip-path="url(#clip260)" d="M1808.76 1485.02 L1816.4 1485.02 L1816.4 1458.66 L1808.09 1460.32 L1808.09 1456.06 L1816.35 1454.4 L1821.03 1454.4 L1821.03 1485.02 L1828.67 1485.02 L1828.67 1488.96 L1808.76 1488.96 L1808.76 1485.02 Z" fill="#000000" fill-rule="evenodd" fill-opacity="1" /><path clip-path="url(#clip260)" d="M1848.11 1457.48 Q1844.5 1457.48 1842.67 1461.04 Q1840.86 1464.58 1840.86 1471.71 Q1840.86 1478.82 1842.67 1482.38 Q1844.5 1485.92 1848.11 1485.92 Q1851.74 1485.92 1853.55 1482.38 Q1855.38 1478.82 1855.38 1471.71 Q1855.38 1464.58 1853.55 1461.04 Q1851.74 1457.48 1848.11 1457.48 M1848.11 1453.77 Q1853.92 1453.77 1856.98 1458.38 Q1860.05 1462.96 1860.05 1471.71 Q1860.05 1480.44 1856.98 1485.04 Q1853.92 1489.63 1848.11 1489.63 Q1842.3 1489.63 1839.22 1485.04 Q1836.17 1480.44 1836.17 1471.71 Q1836.17 1462.96 1839.22 1458.38 Q1842.3 1453.77 1848.11 1453.77 Z" fill="#000000" fill-rule="evenodd" fill-opacity="1" /><path clip-path="url(#clip260)" d="M1870.08 1445.99 Q1867.52 1445.99 1866.02 1447.74 Q1864.53 1449.49 1864.53 1452.54 Q1864.53 1455.57 1866.02 1457.33 Q1867.52 1459.08 1870.08 1459.08 Q1872.64 1459.08 1874.12 1457.33 Q1875.63 1455.57 1875.63 1452.54 Q1875.63 1449.49 1874.12 1447.74 Q1872.64 1445.99 1870.08 1445.99 M1877.62 1434.09 L1877.62 1437.55 Q1876.19 1436.87 1874.72 1436.51 Q1873.28 1436.16 1871.85 1436.16 Q1868.09 1436.16 1866.09 1438.69 Q1864.12 1441.23 1863.83 1446.37 Q1864.94 1444.73 1866.62 1443.87 Q1868.29 1442.98 1870.3 1442.98 Q1874.54 1442.98 1876.98 1445.56 Q1879.44 1448.12 1879.44 1452.54 Q1879.44 1456.86 1876.89 1459.48 Q1874.33 1462.09 1870.08 1462.09 Q1865.21 1462.09 1862.63 1458.37 Q1860.05 1454.62 1860.05 1447.53 Q1860.05 1440.88 1863.21 1436.93 Q1866.37 1432.96 1871.7 1432.96 Q1873.13 1432.96 1874.57 1433.24 Q1876.04 1433.52 1877.62 1434.09 Z" fill="#000000" fill-rule="evenodd" fill-opacity="1" /><path clip-path="url(#clip260)" d="M2189.67 1485.02 L2205.99 1485.02 L2205.99 1488.96 L2184.05 1488.96 L2184.05 1485.02 Q2186.71 1482.27 2191.3 1477.64 Q2195.9 1472.98 2197.08 1471.64 Q2199.33 1469.12 2200.21 1467.38 Q2201.11 1465.62 2201.11 1463.93 Q2201.11 1461.18 2199.17 1459.44 Q2197.24 1457.71 2194.14 1457.71 Q2191.94 1457.71 2189.49 1458.47 Q2187.06 1459.23 2184.28 1460.79 L2184.28 1456.06 Q2187.11 1454.93 2189.56 1454.35 Q2192.01 1453.77 2194.05 1453.77 Q2199.42 1453.77 2202.61 1456.46 Q2205.81 1459.14 2205.81 1463.63 Q2205.81 1465.76 2205 1467.68 Q2204.21 1469.58 2202.11 1472.17 Q2201.53 1472.85 2198.42 1476.06 Q2195.32 1479.26 2189.67 1485.02 Z" fill="#000000" fill-rule="evenodd" fill-opacity="1" /><path clip-path="url(#clip260)" d="M2215.81 1483.08 L2220.69 1483.08 L2220.69 1488.96 L2215.81 1488.96 L2215.81 1483.08 Z" fill="#000000" fill-rule="evenodd" fill-opacity="1" /><path clip-path="url(#clip260)" d="M2240.88 1457.48 Q2237.27 1457.48 2235.44 1461.04 Q2233.63 1464.58 2233.63 1471.71 Q2233.63 1478.82 2235.44 1482.38 Q2237.27 1485.92 2240.88 1485.92 Q2244.51 1485.92 2246.32 1482.38 Q2248.15 1478.82 2248.15 1471.71 Q2248.15 1464.58 2246.32 1461.04 Q2244.51 1457.48 2240.88 1457.48 M2240.88 1453.77 Q2246.69 1453.77 2249.74 1458.38 Q2252.82 1462.96 2252.82 1471.71 Q2252.82 1480.44 2249.74 1485.04 Q2246.69 1489.63 2240.88 1489.63 Q2235.07 1489.63 2231.99 1485.04 Q2228.93 1480.44 2228.93 1471.71 Q2228.93 1462.96 2231.99 1458.38 Q2235.07 1453.77 2240.88 1453.77 Z" fill="#000000" fill-rule="evenodd" fill-opacity="1" /><path clip-path="url(#clip260)" d="M2271.04 1457.48 Q2267.43 1457.48 2265.6 1461.04 Q2263.79 1464.58 2263.79 1471.71 Q2263.79 1478.82 2265.6 1482.38 Q2267.43 1485.92 2271.04 1485.92 Q2274.67 1485.92 2276.48 1482.38 Q2278.31 1478.82 2278.31 1471.71 Q2278.31 1464.58 2276.48 1461.04 Q2274.67 1457.48 2271.04 1457.48 M2271.04 1453.77 Q2276.85 1453.77 2279.91 1458.38 Q2282.98 1462.96 2282.98 1471.71 Q2282.98 1480.44 2279.91 1485.04 Q2276.85 1489.63 2271.04 1489.63 Q2265.23 1489.63 2262.15 1485.04 Q2259.1 1480.44 2259.1 1471.71 Q2259.1 1462.96 2262.15 1458.38 Q2265.23 1453.77 2271.04 1453.77 Z" fill="#000000" fill-rule="evenodd" fill-opacity="1" /><path clip-path="url(#clip260)" d="M2319.37 1463.49 L2308.79 1474.12 L2319.37 1484.7 L2316.62 1487.5 L2305.99 1476.87 L2295.37 1487.5 L2292.64 1484.7 L2303.19 1474.12 L2292.64 1463.49 L2295.37 1460.69 L2305.99 1471.32 L2316.62 1460.69 L2319.37 1463.49 Z" fill="#000000" fill-rule="evenodd" fill-opacity="1" /><path clip-path="url(#clip260)" d="M2331.73 1485.02 L2339.37 1485.02 L2339.37 1458.66 L2331.06 1460.32 L2331.06 1456.06 L2339.33 1454.4 L2344 1454.4 L2344 1485.02 L2351.64 1485.02 L2351.64 1488.96 L2331.73 1488.96 L2331.73 1485.02 Z" fill="#000000" fill-rule="evenodd" fill-opacity="1" /><path clip-path="url(#clip260)" d="M2371.09 1457.48 Q2367.47 1457.48 2365.65 1461.04 Q2363.84 1464.58 2363.84 1471.71 Q2363.84 1478.82 2365.65 1482.38 Q2367.47 1485.92 2371.09 1485.92 Q2374.72 1485.92 2376.53 1482.38 Q2378.35 1478.82 2378.35 1471.71 Q2378.35 1464.58 2376.53 1461.04 Q2374.72 1457.48 2371.09 1457.48 M2371.09 1453.77 Q2376.9 1453.77 2379.95 1458.38 Q2383.03 1462.96 2383.03 1471.71 Q2383.03 1480.44 2379.95 1485.04 Q2376.9 1489.63 2371.09 1489.63 Q2365.28 1489.63 2362.2 1485.04 Q2359.14 1480.44 2359.14 1471.71 Q2359.14 1462.96 2362.2 1458.38 Q2365.28 1453.77 2371.09 1453.77 Z" fill="#000000" fill-rule="evenodd" fill-opacity="1" /><path clip-path="url(#clip260)" d="M2393.05 1445.99 Q2390.5 1445.99 2388.99 1447.74 Q2387.51 1449.49 2387.51 1452.54 Q2387.51 1455.57 2388.99 1457.33 Q2390.5 1459.08 2393.05 1459.08 Q2395.61 1459.08 2397.1 1457.33 Q2398.6 1455.57 2398.6 1452.54 Q2398.6 1449.49 2397.1 1447.74 Q2395.61 1445.99 2393.05 1445.99 M2400.6 1434.09 L2400.6 1437.55 Q2399.17 1436.87 2397.7 1436.51 Q2396.25 1436.16 2394.82 1436.16 Q2391.06 1436.16 2389.07 1438.69 Q2387.09 1441.23 2386.81 1446.37 Q2387.92 1444.73 2389.59 1443.87 Q2391.27 1442.98 2393.28 1442.98 Q2397.51 1442.98 2399.96 1445.56 Q2402.42 1448.12 2402.42 1452.54 Q2402.42 1456.86 2399.86 1459.48 Q2397.31 1462.09 2393.05 1462.09 Q2388.18 1462.09 2385.61 1458.37 Q2383.03 1454.62 2383.03 1447.53 Q2383.03 1440.88 2386.19 1436.93 Q2389.35 1432.96 2394.67 1432.96 Q2396.1 1432.96 2397.55 1433.24 Q2399.02 1433.52 2400.6 1434.09 Z" fill="#000000" fill-rule="evenodd" fill-opacity="1" /><path clip-path="url(#clip260)" d="M1244.37 1528.23 L1244.37 1534.5 Q1240.71 1532.74 1237.46 1531.89 Q1234.22 1531.03 1231.19 1531.03 Q1225.94 1531.03 1223.08 1533.06 Q1220.24 1535.1 1220.24 1538.86 Q1220.24 1542.01 1222.12 1543.63 Q1224.03 1545.22 1229.31 1546.21 L1233.2 1547 Q1240.39 1548.37 1243.8 1551.84 Q1247.23 1555.28 1247.23 1561.07 Q1247.23 1567.98 1242.59 1571.54 Q1237.97 1575.11 1229.03 1575.11 Q1225.65 1575.11 1221.83 1574.34 Q1218.05 1573.58 1213.97 1572.08 L1213.97 1565.46 Q1217.89 1567.66 1221.64 1568.77 Q1225.4 1569.89 1229.03 1569.89 Q1234.53 1569.89 1237.53 1567.72 Q1240.52 1565.56 1240.52 1561.55 Q1240.52 1558.05 1238.35 1556.08 Q1236.22 1554.1 1231.32 1553.11 L1227.4 1552.35 Q1220.21 1550.92 1217 1547.86 Q1213.78 1544.81 1213.78 1539.37 Q1213.78 1533.06 1218.21 1529.43 Q1222.66 1525.81 1230.46 1525.81 Q1233.8 1525.81 1237.27 1526.41 Q1240.74 1527.02 1244.37 1528.23 Z" fill="#000000" fill-rule="evenodd" fill-opacity="1" /><path clip-path="url(#clip260)" d="M1262.8 1528.42 L1262.8 1538.54 L1274.86 1538.54 L1274.86 1543.09 L1262.8 1543.09 L1262.8 1562.44 Q1262.8 1566.8 1263.97 1568.04 Q1265.18 1569.28 1268.84 1569.28 L1274.86 1569.28 L1274.86 1574.19 L1268.84 1574.19 Q1262.06 1574.19 1259.49 1571.67 Q1256.91 1569.12 1256.91 1562.44 L1256.91 1543.09 L1252.61 1543.09 L1252.61 1538.54 L1256.91 1538.54 L1256.91 1528.42 L1262.8 1528.42 Z" fill="#000000" fill-rule="evenodd" fill-opacity="1" /><path clip-path="url(#clip260)" d="M1313.05 1554.9 L1313.05 1557.76 L1286.13 1557.76 Q1286.51 1563.81 1289.76 1566.99 Q1293.03 1570.14 1298.86 1570.14 Q1302.23 1570.14 1305.38 1569.32 Q1308.57 1568.49 1311.69 1566.83 L1311.69 1572.37 Q1308.53 1573.71 1305.22 1574.41 Q1301.91 1575.11 1298.51 1575.11 Q1289.98 1575.11 1284.98 1570.14 Q1280.02 1565.18 1280.02 1556.71 Q1280.02 1547.96 1284.73 1542.83 Q1289.47 1537.68 1297.49 1537.68 Q1304.68 1537.68 1308.85 1542.33 Q1313.05 1546.94 1313.05 1554.9 M1307.2 1553.18 Q1307.13 1548.37 1304.49 1545.51 Q1301.88 1542.64 1297.55 1542.64 Q1292.65 1542.64 1289.69 1545.41 Q1286.76 1548.18 1286.32 1553.21 L1307.2 1553.18 Z" fill="#000000" fill-rule="evenodd" fill-opacity="1" /><path clip-path="url(#clip260)" d="M1328.33 1568.84 L1328.33 1587.74 L1322.44 1587.74 L1322.44 1538.54 L1328.33 1538.54 L1328.33 1543.95 Q1330.18 1540.77 1332.98 1539.24 Q1335.81 1537.68 1339.73 1537.68 Q1346.22 1537.68 1350.26 1542.83 Q1354.34 1547.99 1354.34 1556.39 Q1354.34 1564.8 1350.26 1569.95 Q1346.22 1575.11 1339.73 1575.11 Q1335.81 1575.11 1332.98 1573.58 Q1330.18 1572.02 1328.33 1568.84 M1348.26 1556.39 Q1348.26 1549.93 1345.58 1546.27 Q1342.94 1542.58 1338.29 1542.58 Q1333.65 1542.58 1330.97 1546.27 Q1328.33 1549.93 1328.33 1556.39 Q1328.33 1562.85 1330.97 1566.55 Q1333.65 1570.21 1338.29 1570.21 Q1342.94 1570.21 1345.58 1566.55 Q1348.26 1562.85 1348.26 1556.39 Z" fill="#000000" fill-rule="evenodd" fill-opacity="1" /><path clip-path="url(#clip260)" d="M1386.77 1539.59 L1386.77 1545.13 Q1384.29 1543.85 1381.61 1543.22 Q1378.94 1542.58 1376.07 1542.58 Q1371.71 1542.58 1369.52 1543.92 Q1367.35 1545.25 1367.35 1547.93 Q1367.35 1549.96 1368.91 1551.14 Q1370.47 1552.29 1375.18 1553.34 L1377.19 1553.78 Q1383.43 1555.12 1386.04 1557.57 Q1388.68 1559.99 1388.68 1564.35 Q1388.68 1569.32 1384.73 1572.21 Q1380.82 1575.11 1373.94 1575.11 Q1371.08 1575.11 1367.96 1574.54 Q1364.87 1573.99 1361.43 1572.88 L1361.43 1566.83 Q1364.68 1568.52 1367.83 1569.38 Q1370.98 1570.21 1374.07 1570.21 Q1378.21 1570.21 1380.44 1568.81 Q1382.66 1567.37 1382.66 1564.8 Q1382.66 1562.41 1381.04 1561.14 Q1379.45 1559.86 1374.01 1558.68 L1371.97 1558.21 Q1366.53 1557.06 1364.11 1554.71 Q1361.69 1552.32 1361.69 1548.18 Q1361.69 1543.15 1365.25 1540.42 Q1368.82 1537.68 1375.37 1537.68 Q1378.62 1537.68 1381.49 1538.16 Q1384.35 1538.63 1386.77 1539.59 Z" fill="#000000" fill-rule="evenodd" fill-opacity="1" /><polyline clip-path="url(#clip262)" style="stroke:#000000; stroke-linecap:butt; stroke-linejoin:round; stroke-width:2; stroke-opacity:0.1; fill:none" points="
  249.704,1110.83 2352.76,1110.83 
  "/>
<polyline clip-path="url(#clip262)" style="stroke:#000000; stroke-linecap:butt; stroke-linejoin:round; stroke-width:2; stroke-opacity:0.1; fill:none" points="
  249.704,797.054 2352.76,797.054 
  "/>
<polyline clip-path="url(#clip262)" style="stroke:#000000; stroke-linecap:butt; stroke-linejoin:round; stroke-width:2; stroke-opacity:0.1; fill:none" points="
  249.704,483.282 2352.76,483.282 
  "/>
<polyline clip-path="url(#clip262)" style="stroke:#000000; stroke-linecap:butt; stroke-linejoin:round; stroke-width:2; stroke-opacity:0.1; fill:none" points="
  249.704,169.511 2352.76,169.511 
  "/>
<polyline clip-path="url(#clip260)" style="stroke:#000000; stroke-linecap:butt; stroke-linejoin:round; stroke-width:4; stroke-opacity:1; fill:none" points="
  249.704,1410.9 249.704,47.2441 
  "/>
<polyline clip-path="url(#clip260)" style="stroke:#000000; stroke-linecap:butt; stroke-linejoin:round; stroke-width:4; stroke-opacity:1; fill:none" points="
  249.704,1110.83 268.602,1110.83 
  "/>
<polyline clip-path="url(#clip260)" style="stroke:#000000; stroke-linecap:butt; stroke-linejoin:round; stroke-width:4; stroke-opacity:1; fill:none" points="
  249.704,797.054 268.602,797.054 
  "/>
<polyline clip-path="url(#clip260)" style="stroke:#000000; stroke-linecap:butt; stroke-linejoin:round; stroke-width:4; stroke-opacity:1; fill:none" points="
  249.704,483.282 268.602,483.282 
  "/>
<polyline clip-path="url(#clip260)" style="stroke:#000000; stroke-linecap:butt; stroke-linejoin:round; stroke-width:4; stroke-opacity:1; fill:none" points="
  249.704,169.511 268.602,169.511 
  "/>
<path clip-path="url(#clip260)" d="M126.367 1096.62 Q122.755 1096.62 120.927 1100.19 Q119.121 1103.73 119.121 1110.86 Q119.121 1117.97 120.927 1121.53 Q122.755 1125.07 126.367 1125.07 Q130.001 1125.07 131.806 1121.53 Q133.635 1117.97 133.635 1110.86 Q133.635 1103.73 131.806 1100.19 Q130.001 1096.62 126.367 1096.62 M126.367 1092.92 Q132.177 1092.92 135.232 1097.53 Q138.311 1102.11 138.311 1110.86 Q138.311 1119.59 135.232 1124.19 Q132.177 1128.78 126.367 1128.78 Q120.556 1128.78 117.478 1124.19 Q114.422 1119.59 114.422 1110.86 Q114.422 1102.11 117.478 1097.53 Q120.556 1092.92 126.367 1092.92 Z" fill="#000000" fill-rule="evenodd" fill-opacity="1" /><path clip-path="url(#clip260)" d="M146.529 1122.23 L151.413 1122.23 L151.413 1128.11 L146.529 1128.11 L146.529 1122.23 Z" fill="#000000" fill-rule="evenodd" fill-opacity="1" /><path clip-path="url(#clip260)" d="M161.737 1127.39 L161.737 1123.13 Q163.496 1123.96 165.302 1124.4 Q167.107 1124.84 168.843 1124.84 Q173.473 1124.84 175.903 1121.74 Q178.357 1118.62 178.704 1112.27 Q177.362 1114.26 175.301 1115.33 Q173.241 1116.39 170.741 1116.39 Q165.556 1116.39 162.524 1113.27 Q159.515 1110.12 159.515 1104.68 Q159.515 1099.36 162.663 1096.14 Q165.811 1092.92 171.042 1092.92 Q177.038 1092.92 180.186 1097.53 Q183.357 1102.11 183.357 1110.86 Q183.357 1119.03 179.468 1123.92 Q175.602 1128.78 169.052 1128.78 Q167.292 1128.78 165.487 1128.43 Q163.681 1128.08 161.737 1127.39 M171.042 1112.74 Q174.19 1112.74 176.019 1110.58 Q177.871 1108.43 177.871 1104.68 Q177.871 1100.95 176.019 1098.8 Q174.19 1096.62 171.042 1096.62 Q167.894 1096.62 166.042 1098.8 Q164.214 1100.95 164.214 1104.68 Q164.214 1108.43 166.042 1110.58 Q167.894 1112.74 171.042 1112.74 Z" fill="#000000" fill-rule="evenodd" fill-opacity="1" /><path clip-path="url(#clip260)" d="M201.76 1096.62 Q198.149 1096.62 196.32 1100.19 Q194.514 1103.73 194.514 1110.86 Q194.514 1117.97 196.32 1121.53 Q198.149 1125.07 201.76 1125.07 Q205.394 1125.07 207.199 1121.53 Q209.028 1117.97 209.028 1110.86 Q209.028 1103.73 207.199 1100.19 Q205.394 1096.62 201.76 1096.62 M201.76 1092.92 Q207.57 1092.92 210.625 1097.53 Q213.704 1102.11 213.704 1110.86 Q213.704 1119.59 210.625 1124.19 Q207.57 1128.78 201.76 1128.78 Q195.95 1128.78 192.871 1124.19 Q189.815 1119.59 189.815 1110.86 Q189.815 1102.11 192.871 1097.53 Q195.95 1092.92 201.76 1092.92 Z" fill="#000000" fill-rule="evenodd" fill-opacity="1" /><path clip-path="url(#clip260)" d="M127.015 782.853 Q123.404 782.853 121.575 786.418 Q119.769 789.959 119.769 797.089 Q119.769 804.195 121.575 807.76 Q123.404 811.302 127.015 811.302 Q130.649 811.302 132.455 807.76 Q134.283 804.195 134.283 797.089 Q134.283 789.959 132.455 786.418 Q130.649 782.853 127.015 782.853 M127.015 779.149 Q132.825 779.149 135.88 783.756 Q138.959 788.339 138.959 797.089 Q138.959 805.816 135.88 810.422 Q132.825 815.006 127.015 815.006 Q121.205 815.006 118.126 810.422 Q115.07 805.816 115.07 797.089 Q115.07 788.339 118.126 783.756 Q121.205 779.149 127.015 779.149 Z" fill="#000000" fill-rule="evenodd" fill-opacity="1" /><path clip-path="url(#clip260)" d="M147.177 808.455 L152.061 808.455 L152.061 814.334 L147.177 814.334 L147.177 808.455 Z" fill="#000000" fill-rule="evenodd" fill-opacity="1" /><path clip-path="url(#clip260)" d="M162.385 813.617 L162.385 809.357 Q164.144 810.191 165.95 810.631 Q167.755 811.07 169.491 811.07 Q174.121 811.07 176.551 807.969 Q179.005 804.844 179.352 798.501 Q178.01 800.492 175.95 801.557 Q173.889 802.621 171.389 802.621 Q166.204 802.621 163.172 799.496 Q160.163 796.348 160.163 790.908 Q160.163 785.584 163.311 782.367 Q166.459 779.149 171.69 779.149 Q177.686 779.149 180.834 783.756 Q184.005 788.339 184.005 797.089 Q184.005 805.26 180.116 810.144 Q176.251 815.006 169.7 815.006 Q167.94 815.006 166.135 814.658 Q164.329 814.311 162.385 813.617 M171.69 798.964 Q174.839 798.964 176.667 796.811 Q178.519 794.658 178.519 790.908 Q178.519 787.182 176.667 785.029 Q174.839 782.853 171.69 782.853 Q168.542 782.853 166.69 785.029 Q164.862 787.182 164.862 790.908 Q164.862 794.658 166.69 796.811 Q168.542 798.964 171.69 798.964 Z" fill="#000000" fill-rule="evenodd" fill-opacity="1" /><path clip-path="url(#clip260)" d="M206.574 795.7 Q209.931 796.418 211.806 798.686 Q213.704 800.955 213.704 804.288 Q213.704 809.404 210.186 812.205 Q206.667 815.006 200.186 815.006 Q198.01 815.006 195.695 814.566 Q193.403 814.149 190.95 813.293 L190.95 808.779 Q192.894 809.913 195.209 810.492 Q197.524 811.07 200.047 811.07 Q204.445 811.07 206.737 809.334 Q209.051 807.598 209.051 804.288 Q209.051 801.232 206.899 799.52 Q204.769 797.783 200.95 797.783 L196.922 797.783 L196.922 793.941 L201.135 793.941 Q204.584 793.941 206.412 792.575 Q208.241 791.186 208.241 788.594 Q208.241 785.932 206.343 784.52 Q204.468 783.084 200.95 783.084 Q199.028 783.084 196.829 783.501 Q194.63 783.918 191.991 784.797 L191.991 780.631 Q194.653 779.89 196.968 779.52 Q199.306 779.149 201.366 779.149 Q206.69 779.149 209.792 781.58 Q212.894 783.987 212.894 788.108 Q212.894 790.978 211.25 792.969 Q209.607 794.936 206.574 795.7 Z" fill="#000000" fill-rule="evenodd" fill-opacity="1" /><path clip-path="url(#clip260)" d="M126.205 469.081 Q122.593 469.081 120.765 472.646 Q118.959 476.188 118.959 483.317 Q118.959 490.424 120.765 493.988 Q122.593 497.53 126.205 497.53 Q129.839 497.53 131.644 493.988 Q133.473 490.424 133.473 483.317 Q133.473 476.188 131.644 472.646 Q129.839 469.081 126.205 469.081 M126.205 465.377 Q132.015 465.377 135.07 469.984 Q138.149 474.567 138.149 483.317 Q138.149 492.044 135.07 496.65 Q132.015 501.234 126.205 501.234 Q120.394 501.234 117.316 496.65 Q114.26 492.044 114.26 483.317 Q114.26 474.567 117.316 469.984 Q120.394 465.377 126.205 465.377 Z" fill="#000000" fill-rule="evenodd" fill-opacity="1" /><path clip-path="url(#clip260)" d="M146.366 494.683 L151.251 494.683 L151.251 500.562 L146.366 500.562 L146.366 494.683 Z" fill="#000000" fill-rule="evenodd" fill-opacity="1" /><path clip-path="url(#clip260)" d="M161.575 499.845 L161.575 495.586 Q163.334 496.419 165.14 496.859 Q166.945 497.299 168.681 497.299 Q173.311 497.299 175.741 494.197 Q178.195 491.072 178.542 484.729 Q177.2 486.72 175.139 487.785 Q173.079 488.85 170.579 488.85 Q165.394 488.85 162.362 485.725 Q159.353 482.576 159.353 477.137 Q159.353 471.813 162.501 468.595 Q165.649 465.377 170.88 465.377 Q176.876 465.377 180.024 469.984 Q183.195 474.567 183.195 483.317 Q183.195 491.488 179.306 496.373 Q175.44 501.234 168.889 501.234 Q167.13 501.234 165.325 500.886 Q163.519 500.539 161.575 499.845 M170.88 485.192 Q174.028 485.192 175.857 483.039 Q177.709 480.887 177.709 477.137 Q177.709 473.41 175.857 471.257 Q174.028 469.081 170.88 469.081 Q167.732 469.081 165.88 471.257 Q164.052 473.41 164.052 477.137 Q164.052 480.887 165.88 483.039 Q167.732 485.192 170.88 485.192 Z" fill="#000000" fill-rule="evenodd" fill-opacity="1" /><path clip-path="url(#clip260)" d="M202.176 481.419 Q199.028 481.419 197.176 483.572 Q195.348 485.725 195.348 489.474 Q195.348 493.201 197.176 495.377 Q199.028 497.53 202.176 497.53 Q205.324 497.53 207.153 495.377 Q209.005 493.201 209.005 489.474 Q209.005 485.725 207.153 483.572 Q205.324 481.419 202.176 481.419 M211.459 466.766 L211.459 471.026 Q209.699 470.192 207.894 469.752 Q206.112 469.313 204.352 469.313 Q199.723 469.313 197.269 472.438 Q194.838 475.563 194.491 481.882 Q195.857 479.868 197.917 478.803 Q199.977 477.715 202.454 477.715 Q207.662 477.715 210.672 480.887 Q213.704 484.035 213.704 489.474 Q213.704 494.799 210.556 498.016 Q207.408 501.234 202.176 501.234 Q196.181 501.234 193.01 496.65 Q189.838 492.044 189.838 483.317 Q189.838 475.123 193.727 470.262 Q197.616 465.377 204.167 465.377 Q205.926 465.377 207.709 465.725 Q209.514 466.072 211.459 466.766 Z" fill="#000000" fill-rule="evenodd" fill-opacity="1" /><path clip-path="url(#clip260)" d="M126.552 155.309 Q122.941 155.309 121.112 158.874 Q119.306 162.416 119.306 169.545 Q119.306 176.652 121.112 180.216 Q122.941 183.758 126.552 183.758 Q130.186 183.758 131.992 180.216 Q133.82 176.652 133.82 169.545 Q133.82 162.416 131.992 158.874 Q130.186 155.309 126.552 155.309 M126.552 151.606 Q132.362 151.606 135.417 156.212 Q138.496 160.795 138.496 169.545 Q138.496 178.272 135.417 182.879 Q132.362 187.462 126.552 187.462 Q120.742 187.462 117.663 182.879 Q114.607 178.272 114.607 169.545 Q114.607 160.795 117.663 156.212 Q120.742 151.606 126.552 151.606 Z" fill="#000000" fill-rule="evenodd" fill-opacity="1" /><path clip-path="url(#clip260)" d="M146.714 180.911 L151.598 180.911 L151.598 186.791 L146.714 186.791 L146.714 180.911 Z" fill="#000000" fill-rule="evenodd" fill-opacity="1" /><path clip-path="url(#clip260)" d="M161.922 186.073 L161.922 181.814 Q163.681 182.647 165.487 183.087 Q167.292 183.527 169.028 183.527 Q173.658 183.527 176.089 180.425 Q178.542 177.3 178.889 170.957 Q177.547 172.948 175.487 174.013 Q173.427 175.078 170.927 175.078 Q165.741 175.078 162.709 171.953 Q159.7 168.805 159.7 163.365 Q159.7 158.041 162.848 154.823 Q165.996 151.606 171.227 151.606 Q177.223 151.606 180.371 156.212 Q183.542 160.795 183.542 169.545 Q183.542 177.717 179.653 182.601 Q175.788 187.462 169.237 187.462 Q167.477 187.462 165.672 187.115 Q163.866 186.767 161.922 186.073 M171.227 171.42 Q174.376 171.42 176.204 169.267 Q178.056 167.115 178.056 163.365 Q178.056 159.638 176.204 157.485 Q174.376 155.309 171.227 155.309 Q168.079 155.309 166.227 157.485 Q164.399 159.638 164.399 163.365 Q164.399 167.115 166.227 169.267 Q168.079 171.42 171.227 171.42 Z" fill="#000000" fill-rule="evenodd" fill-opacity="1" /><path clip-path="url(#clip260)" d="M192.084 186.073 L192.084 181.814 Q193.843 182.647 195.649 183.087 Q197.454 183.527 199.19 183.527 Q203.82 183.527 206.25 180.425 Q208.704 177.3 209.051 170.957 Q207.709 172.948 205.649 174.013 Q203.588 175.078 201.088 175.078 Q195.903 175.078 192.871 171.953 Q189.862 168.805 189.862 163.365 Q189.862 158.041 193.01 154.823 Q196.158 151.606 201.389 151.606 Q207.385 151.606 210.533 156.212 Q213.704 160.795 213.704 169.545 Q213.704 177.717 209.815 182.601 Q205.949 187.462 199.399 187.462 Q197.639 187.462 195.834 187.115 Q194.028 186.767 192.084 186.073 M201.389 171.42 Q204.537 171.42 206.366 169.267 Q208.218 167.115 208.218 163.365 Q208.218 159.638 206.366 157.485 Q204.537 155.309 201.389 155.309 Q198.241 155.309 196.389 157.485 Q194.561 159.638 194.561 163.365 Q194.561 167.115 196.389 169.267 Q198.241 171.42 201.389 171.42 Z" fill="#000000" fill-rule="evenodd" fill-opacity="1" /><path clip-path="url(#clip260)" d="M18.0438 910.891 L24.314 910.891 Q22.5634 914.551 21.704 917.798 Q20.8447 921.044 20.8447 924.068 Q20.8447 929.32 22.8817 932.184 Q24.9187 935.017 28.6745 935.017 Q31.8255 935.017 33.4488 933.139 Q35.0402 931.229 36.0269 925.946 L36.8226 922.063 Q38.1912 914.869 41.6605 911.464 Q45.098 908.026 50.8908 908.026 Q57.7976 908.026 61.3624 912.673 Q64.9272 917.288 64.9272 926.232 Q64.9272 929.606 64.1633 933.425 Q63.3994 937.213 61.9035 941.287 L55.2831 941.287 Q57.4793 937.372 58.5933 933.616 Q59.7073 929.861 59.7073 926.232 Q59.7073 920.726 57.543 917.734 Q55.3786 914.742 51.3682 914.742 Q47.8671 914.742 45.8937 916.906 Q43.9204 919.039 42.9337 923.941 L42.1698 927.855 Q40.7375 935.049 37.682 938.263 Q34.6264 941.478 29.1837 941.478 Q22.8817 941.478 19.2532 937.054 Q15.6248 932.598 15.6248 924.8 Q15.6248 921.458 16.2295 917.989 Q16.8343 914.519 18.0438 910.891 Z" fill="#000000" fill-rule="evenodd" fill-opacity="1" /><path clip-path="url(#clip260)" d="M49.9359 898.86 L28.3562 898.86 L28.3562 893.003 L49.7131 893.003 Q54.7739 893.003 57.3202 891.03 Q59.8346 889.056 59.8346 885.11 Q59.8346 880.367 56.8109 877.63 Q53.7872 874.861 48.5673 874.861 L28.3562 874.861 L28.3562 869.005 L64.0042 869.005 L64.0042 874.861 L58.5296 874.861 Q61.7762 876.993 63.3676 879.826 Q64.9272 882.627 64.9272 886.351 Q64.9272 892.494 61.1078 895.677 Q57.2883 898.86 49.9359 898.86 M27.4968 884.123 L27.4968 884.123 Z" fill="#000000" fill-rule="evenodd" fill-opacity="1" /><path clip-path="url(#clip260)" d="M29.7248 831.288 L35.1993 831.288 Q33.8307 833.77 33.1623 836.285 Q32.4621 838.767 32.4621 841.314 Q32.4621 847.011 36.0905 850.162 Q39.6872 853.313 46.212 853.313 Q52.7369 853.313 56.3653 850.162 Q59.9619 847.011 59.9619 841.314 Q59.9619 838.767 59.2935 836.285 Q58.5933 833.77 57.2247 831.288 L62.6355 831.288 Q63.7814 833.738 64.3543 836.38 Q64.9272 838.99 64.9272 841.95 Q64.9272 850.003 59.8664 854.745 Q54.8057 859.488 46.212 859.488 Q37.491 859.488 32.4939 854.714 Q27.4968 849.907 27.4968 841.568 Q27.4968 838.863 28.0697 836.285 Q28.6108 833.707 29.7248 831.288 Z" fill="#000000" fill-rule="evenodd" fill-opacity="1" /><path clip-path="url(#clip260)" d="M29.7248 795.449 L35.1993 795.449 Q33.8307 797.931 33.1623 800.446 Q32.4621 802.928 32.4621 805.475 Q32.4621 811.172 36.0905 814.323 Q39.6872 817.474 46.212 817.474 Q52.7369 817.474 56.3653 814.323 Q59.9619 811.172 59.9619 805.475 Q59.9619 802.928 59.2935 800.446 Q58.5933 797.931 57.2247 795.449 L62.6355 795.449 Q63.7814 797.9 64.3543 800.541 Q64.9272 803.151 64.9272 806.111 Q64.9272 814.164 59.8664 818.906 Q54.8057 823.649 46.212 823.649 Q37.491 823.649 32.4939 818.875 Q27.4968 814.068 27.4968 805.729 Q27.4968 803.024 28.0697 800.446 Q28.6108 797.868 29.7248 795.449 Z" fill="#000000" fill-rule="evenodd" fill-opacity="1" /><path clip-path="url(#clip260)" d="M44.7161 754.772 L47.5806 754.772 L47.5806 781.699 Q53.6281 781.317 56.8109 778.07 Q59.9619 774.792 59.9619 768.967 Q59.9619 765.594 59.1344 762.443 Q58.3069 759.26 56.6518 756.141 L62.1899 756.141 Q63.5267 759.292 64.227 762.602 Q64.9272 765.912 64.9272 769.318 Q64.9272 777.848 59.9619 782.845 Q54.9967 787.81 46.5303 787.81 Q37.7774 787.81 32.6531 783.099 Q27.4968 778.357 27.4968 770.336 Q27.4968 763.143 32.1438 758.973 Q36.7589 754.772 44.7161 754.772 M42.9973 760.628 Q38.1912 760.692 35.3266 763.334 Q32.4621 765.944 32.4621 770.272 Q32.4621 775.174 35.2312 778.134 Q38.0002 781.062 43.0292 781.508 L42.9973 760.628 Z" fill="#000000" fill-rule="evenodd" fill-opacity="1" /><path clip-path="url(#clip260)" d="M29.4065 722.434 L34.9447 722.434 Q33.6716 724.917 33.035 727.59 Q32.3984 730.264 32.3984 733.129 Q32.3984 737.489 33.7352 739.685 Q35.072 741.85 37.7456 741.85 Q39.7826 741.85 40.9603 740.29 Q42.1061 738.73 43.1565 734.02 L43.6021 732.015 Q44.9389 725.776 47.3897 723.166 Q49.8086 720.524 54.1691 720.524 Q59.1344 720.524 62.0308 724.471 Q64.9272 728.386 64.9272 735.261 Q64.9272 738.126 64.3543 741.245 Q63.8132 744.332 62.6992 747.77 L56.6518 747.77 Q58.3387 744.523 59.198 741.372 Q60.0256 738.221 60.0256 735.134 Q60.0256 730.996 58.6251 728.768 Q57.1929 726.54 54.6147 726.54 Q52.2276 726.54 50.9545 728.163 Q49.6813 729.755 48.5037 735.197 L48.0262 737.234 Q46.8804 742.677 44.5251 745.096 Q42.138 747.515 38.0002 747.515 Q32.9713 747.515 30.2341 743.95 Q27.4968 740.385 27.4968 733.829 Q27.4968 730.582 27.9743 727.718 Q28.4517 724.853 29.4065 722.434 Z" fill="#000000" fill-rule="evenodd" fill-opacity="1" /><path clip-path="url(#clip260)" d="M29.4065 688.473 L34.9447 688.473 Q33.6716 690.956 33.035 693.629 Q32.3984 696.303 32.3984 699.167 Q32.3984 703.528 33.7352 705.724 Q35.072 707.888 37.7456 707.888 Q39.7826 707.888 40.9603 706.329 Q42.1061 704.769 43.1565 700.059 L43.6021 698.053 Q44.9389 691.815 47.3897 689.205 Q49.8086 686.563 54.1691 686.563 Q59.1344 686.563 62.0308 690.51 Q64.9272 694.425 64.9272 701.3 Q64.9272 704.165 64.3543 707.284 Q63.8132 710.371 62.6992 713.809 L56.6518 713.809 Q58.3387 710.562 59.198 707.411 Q60.0256 704.26 60.0256 701.173 Q60.0256 697.035 58.6251 694.807 Q57.1929 692.579 54.6147 692.579 Q52.2276 692.579 50.9545 694.202 Q49.6813 695.794 48.5037 701.236 L48.0262 703.273 Q46.8804 708.716 44.5251 711.135 Q42.138 713.554 38.0002 713.554 Q32.9713 713.554 30.2341 709.989 Q27.4968 706.424 27.4968 699.868 Q27.4968 696.621 27.9743 693.757 Q28.4517 690.892 29.4065 688.473 Z" fill="#000000" fill-rule="evenodd" fill-opacity="1" /><path clip-path="url(#clip260)" d="M41.7242 633.728 Q42.4244 631.659 44.7161 629.718 Q47.0077 627.744 51.0181 625.771 L64.0042 619.246 L64.0042 626.153 L51.8138 632.232 Q47.0395 634.587 45.48 636.815 Q43.9204 639.012 43.9204 642.831 L43.9204 649.833 L64.0042 649.833 L64.0042 656.263 L16.4842 656.263 L16.4842 641.749 Q16.4842 633.601 19.8898 629.59 Q23.2955 625.58 30.1704 625.58 Q34.6582 625.58 37.6183 627.681 Q40.5784 629.749 41.7242 633.728 M21.7677 649.833 L38.6368 649.833 L38.6368 641.749 Q38.6368 637.102 36.5043 634.747 Q34.34 632.359 30.1704 632.359 Q26.0009 632.359 23.9002 634.747 Q21.7677 637.102 21.7677 641.749 L21.7677 649.833 Z" fill="#000000" fill-rule="evenodd" fill-opacity="1" /><path clip-path="url(#clip260)" d="M46.0847 596.457 Q46.0847 603.555 47.7079 606.292 Q49.3312 609.029 53.2461 609.029 Q56.3653 609.029 58.2114 606.992 Q60.0256 604.923 60.0256 601.39 Q60.0256 596.52 56.5881 593.592 Q53.1188 590.632 47.3897 590.632 L46.0847 590.632 L46.0847 596.457 M43.6657 584.776 L64.0042 584.776 L64.0042 590.632 L58.5933 590.632 Q61.8398 592.637 63.3994 595.629 Q64.9272 598.621 64.9272 602.95 Q64.9272 608.424 61.8716 611.671 Q58.7843 614.886 53.6281 614.886 Q47.6125 614.886 44.5569 610.875 Q41.5014 606.833 41.5014 598.844 L41.5014 590.632 L40.9285 590.632 Q36.8862 590.632 34.6901 593.306 Q32.4621 595.948 32.4621 600.754 Q32.4621 603.809 33.1941 606.706 Q33.9262 609.602 35.3903 612.276 L29.9795 612.276 Q28.7381 609.061 28.1334 606.037 Q27.4968 603.013 27.4968 600.149 Q27.4968 592.415 31.5072 588.595 Q35.5176 584.776 43.6657 584.776 Z" fill="#000000" fill-rule="evenodd" fill-opacity="1" /><path clip-path="url(#clip260)" d="M18.2347 566.92 L28.3562 566.92 L28.3562 554.857 L32.9077 554.857 L32.9077 566.92 L52.2594 566.92 Q56.6199 566.92 57.8613 565.742 Q59.1026 564.533 59.1026 560.872 L59.1026 554.857 L64.0042 554.857 L64.0042 560.872 Q64.0042 567.652 61.4897 570.23 Q58.9434 572.808 52.2594 572.808 L32.9077 572.808 L32.9077 577.105 L28.3562 577.105 L28.3562 572.808 L18.2347 572.808 L18.2347 566.92 Z" fill="#000000" fill-rule="evenodd" fill-opacity="1" /><path clip-path="url(#clip260)" d="M44.7161 516.663 L47.5806 516.663 L47.5806 543.59 Q53.6281 543.208 56.8109 539.961 Q59.9619 536.683 59.9619 530.858 Q59.9619 527.484 59.1344 524.333 Q58.3069 521.15 56.6518 518.031 L62.1899 518.031 Q63.5267 521.182 64.227 524.492 Q64.9272 527.803 64.9272 531.208 Q64.9272 539.738 59.9619 544.735 Q54.9967 549.701 46.5303 549.701 Q37.7774 549.701 32.6531 544.99 Q27.4968 540.248 27.4968 532.227 Q27.4968 525.034 32.1438 520.864 Q36.7589 516.663 44.7161 516.663 M42.9973 522.519 Q38.1912 522.583 35.3266 525.225 Q32.4621 527.834 32.4621 532.163 Q32.4621 537.065 35.2312 540.025 Q38.0002 542.953 43.0292 543.399 L42.9973 522.519 Z" fill="#000000" fill-rule="evenodd" fill-opacity="1" /><polyline clip-path="url(#clip262)" style="stroke:#009af9; stroke-linecap:butt; stroke-linejoin:round; stroke-width:4; stroke-opacity:1; fill:none" points="
  309.224,159.051 413.646,85.838 518.068,127.674 622.489,200.888 726.911,347.315 831.333,190.429 935.754,462.364 1040.18,378.692 1144.6,650.627 1249.02,546.037 
  1353.44,723.841 1457.86,776.136 1562.28,880.727 1666.71,1121.29 1771.13,849.35 1875.55,1372.3 1979.97,870.268 2084.39,995.776 2188.81,1246.79 2293.24,1215.42 
  
  "/>
</svg>
